<?xml version="1.0" encoding="utf-8"?>
<!-- Generator: Adobe Illustrator 18.1.1, SVG Export Plug-In . SVG Version: 6.00 Build 0)  -->
<!DOCTYPE svg PUBLIC "-//W3C//DTD SVG 1.1//EN" "http://www.w3.org/Graphics/SVG/1.1/DTD/svg11.dtd">
<svg version="1.1" id="Layer_1" xmlns="http://www.w3.org/2000/svg" xmlns:xlink="http://www.w3.org/1999/xlink" x="0px" y="0px"
	 viewBox="75 885 11 11" enable-background="new 75 885 11 11" xml:space="preserve">
<g id="svg4764" xmlns:inkscape="http://www.inkscape.org/namespaces/inkscape" xmlns:rdf="http://www.w3.org/1999/02/22-rdf-syntax-ns#" xmlns:cc="http://creativecommons.org/ns#" xmlns:dc="http://purl.org/dc/elements/1.1/" xmlns:sodipodi="http://sodipodi.sourceforge.net/DTD/sodipodi-0.dtd" xmlns:svg="http://www.w3.org/2000/svg" inkscape:version="0.91+devel+osxmenu r12911" sodipodi:docname="hospital-11.svg" display="none">
	
		<sodipodi:namedview  borderopacity="1" bordercolor="#666666" objecttolerance="10" showgrid="true" guidetolerance="10" inkscape:zoom="22.627417" gridtolerance="10" pagecolor="#000000" inkscape:cx="5.8001133" inkscape:cy="4.006069" id="namedview3376" inkscape:document-units="px" inkscape:window-width="640" inkscape:pageshadow="2" inkscape:window-height="480" inkscape:pageopacity="0" inkscape:current-layer="svg4764">
		<inkscape:grid  type="xygrid" id="grid3409"></inkscape:grid>
	</sodipodi:namedview>
	<path id="path5535" inkscape:connector-curvature="0" display="inline" d="M-444,845.9c0-57.3,40.9-98.2,98.2-98.2h196.4V551.4
		c0-57.3,40.9-98.2,98.2-98.2h98.2c57.3,0,98.2,40.9,98.2,98.2v196.4h196.4c57.3,0,98.2,40.9,98.2,98.2v98.2
		c0,57.3-40.9,98.2-98.2,98.2H145.1v196.4c0,57.3-40.9,98.2-98.2,98.2h-98.2c-57.3,0-98.2-40.9-98.2-98.2v-196.4h-196.4
		c-57.3,0-98.2-40.9-98.2-98.2V845.9z"/>
</g>
<g id="Layer_2">
	<path d="M85,889h-3v-3c0-0.5-0.5-1-1-1h-1c-0.5,0-1,0.5-1,1v3h-3c-0.5,0-1,0.5-1,1v1c0,0.5,0.5,1,1,1h3v3c0,0.5,0.5,1,1,1h1
		c0.5,0,1-0.5,1-1v-3h3c0.5,0,1-0.5,1-1v-1C86,889.4,85.5,889,85,889z"/>
</g>
</svg>
