<?xml version="1.0" encoding="utf-8"?>
<!-- Generator: Adobe Illustrator 18.1.1, SVG Export Plug-In . SVG Version: 6.00 Build 0)  -->
<!DOCTYPE svg PUBLIC "-//W3C//DTD SVG 1.1//EN" "http://www.w3.org/Graphics/SVG/1.1/DTD/svg11.dtd">
<svg version="1.1" id="Layer_1" xmlns="http://www.w3.org/2000/svg" xmlns:xlink="http://www.w3.org/1999/xlink" x="0px" y="0px"
	 viewBox="0 0 15 15" enable-background="new 0 0 15 15" xml:space="preserve">
<g>
	<path d="M3.7,13C3.3,13,3,12.7,3,12.3V1.7C3,1.3,3.3,1,3.7,1h2.7c2,0,3.6,1.6,3.6,3.6S8.4,8.2,6.4,8.2h-2v4.1
		C4.4,12.7,4.1,13,3.7,13z M4.4,6.8h2c1.2,0,2.2-1,2.2-2.2s-1-2.2-2.2-2.2h-2V6.8z"/>
</g>
<path d="M12.8,11.7l-1.2-1.2l1.2-1.2c0.3-0.3,0.3-0.8,0-1.1c-0.3-0.3-0.8-0.3-1.1,0l-1.2,1.2L8.3,7.2C8,6.9,7.5,6.9,7.2,7.2
	c-0.3,0.3-0.3,0.8,0,1.1l2.3,2.3l-1.2,1.2c-0.3,0.3-0.3,0.8,0,1.1C8.3,13,8.5,13,8.7,13c0.2,0,0.4-0.1,0.5-0.2l1.2-1.2l1.2,1.2
	c0.1,0.1,0.3,0.2,0.5,0.2c0.2,0,0.4-0.1,0.5-0.2C13.1,12.5,13.1,12,12.8,11.7z"/>
</svg>
