<?xml version="1.0" encoding="utf-8"?>
<!-- Generator: Adobe Illustrator 17.1.0, SVG Export Plug-In . SVG Version: 6.00 Build 0)  -->
<!DOCTYPE svg PUBLIC "-//W3C//DTD SVG 1.1//EN" "http://www.w3.org/Graphics/SVG/1.1/DTD/svg11.dtd">
<svg version="1.1"
	 id="svg4764" xmlns:cc="http://creativecommons.org/ns#" xmlns:svg="http://www.w3.org/2000/svg" xmlns:inkscape="http://www.inkscape.org/namespaces/inkscape" xmlns:rdf="http://www.w3.org/1999/02/22-rdf-syntax-ns#" xmlns:dc="http://purl.org/dc/elements/1.1/"
	 xmlns="http://www.w3.org/2000/svg" xmlns:xlink="http://www.w3.org/1999/xlink" x="0px" y="0px" viewBox="0 0 11 11"
	 enable-background="new 0 0 11 11" xml:space="preserve">
<path style="fill:#000000;fill-opacity:1" id="path14819" inkscape:connector-curvature="0" d="M5.5,0C3.9,0,2.6,0.5,2.6,1.1v1.7C2.6,3.5,3.9,4,5.5,4s2.9-0.5,2.9-1.2
	V1.1C8.4,0.5,7.1,0,5.5,0z M2.6,4v5.8c0,0.6,1.3,1.2,2.9,1.2s2.9-0.5,2.9-1.2V4c0,0.6-1.3,1.2-2.9,1.2S2.6,4.7,2.6,4z M3.8,6.4
	c0,0,0.6,0.3,1.7,0.3s1.7-0.3,1.7-0.3v2.3c0,0-0.6,0.3-1.7,0.3S3.8,8.7,3.8,8.7V6.4z"/>
</svg>
