<?xml version="1.0" encoding="utf-8"?>
<!-- Generator: Adobe Illustrator 18.1.1, SVG Export Plug-In . SVG Version: 6.00 Build 0)  -->
<!DOCTYPE svg PUBLIC "-//W3C//DTD SVG 1.1//EN" "http://www.w3.org/Graphics/SVG/1.1/DTD/svg11.dtd">
<svg version="1.1" id="Layer_1" xmlns="http://www.w3.org/2000/svg" xmlns:xlink="http://www.w3.org/1999/xlink" x="0px" y="0px"
	 viewBox="0 0 11 11" enable-background="new 0 0 11 11" xml:space="preserve">
<g>
	<path d="M5.5,9C5.4,9,5.2,9,5.1,8.9C5,8.7,5,8.3,5.1,8.1l3-3C8.3,5,8.7,5,8.9,5.1s0.2,0.5,0,0.7l-3,3C5.8,9,5.6,9,5.5,9z"/>
</g>
<g>
	<path d="M8.5,9C8.4,9,8.2,9,8.1,8.9l-3-3C5,5.7,5,5.3,5.1,5.1s0.5-0.2,0.7,0l3,3C9,8.3,9,8.7,8.9,8.9C8.8,9,8.6,9,8.5,9z"/>
</g>
<g>
	<path d="M2.5,9C2.2,9,2,8.8,2,8.5v-7C2,1.2,2.2,1,2.5,1S3,1.2,3,1.5v7C3,8.8,2.8,9,2.5,9z"/>
</g>
<g>
	<path d="M4.5,6h-2C2.2,6,2,5.8,2,5.5S2.2,5,2.5,5h2C5.3,5,6,4.3,6,3.5C6,2.7,5.3,2,4.5,2h-2C2.2,2,2,1.8,2,1.5S2.2,1,2.5,1h2
		C5.9,1,7,2.1,7,3.5S5.9,6,4.5,6z"/>
</g>
</svg>
