<?xml version="1.0" encoding="UTF-8" standalone="no"?>
<!-- Generator: Adobe Illustrator 18.1.1, SVG Export Plug-In . SVG Version: 6.00 Build 0)  -->

<svg
   xmlns:dc="http://purl.org/dc/elements/1.1/"
   xmlns:cc="http://creativecommons.org/ns#"
   xmlns:rdf="http://www.w3.org/1999/02/22-rdf-syntax-ns#"
   xmlns:svg="http://www.w3.org/2000/svg"
   xmlns="http://www.w3.org/2000/svg"
   xmlns:sodipodi="http://sodipodi.sourceforge.net/DTD/sodipodi-0.dtd"
   xmlns:inkscape="http://www.inkscape.org/namespaces/inkscape"
   version="1.1"
   id="Layer_1"
   x="0px"
   y="0px"
   viewBox="0 0 11 11"
   enable-background="new 0 0 11 11"
   xml:space="preserve"
   inkscape:version="0.91 r13725"
   sodipodi:docname="pharmacy-11-01.svg"><metadata
     id="metadata23"><rdf:RDF><cc:Work
         rdf:about=""><dc:format>image/svg+xml</dc:format><dc:type
           rdf:resource="http://purl.org/dc/dcmitype/StillImage" /><dc:title></dc:title></cc:Work></rdf:RDF></metadata><defs
     id="defs21" /><sodipodi:namedview
     pagecolor="#ffffff"
     bordercolor="#666666"
     borderopacity="1"
     objecttolerance="10"
     gridtolerance="10"
     guidetolerance="10"
     inkscape:pageopacity="0"
     inkscape:pageshadow="2"
     inkscape:window-width="1412"
     inkscape:window-height="862"
     id="namedview19"
     showgrid="true"
     inkscape:zoom="42.909091"
     inkscape:cx="4.2845045"
     inkscape:cy="4.6610169"
     inkscape:window-x="0"
     inkscape:window-y="0"
     inkscape:window-maximized="0"
     inkscape:current-layer="Layer_1"><inkscape:grid
       type="xygrid"
       id="grid3351"
       spacingx="0.5"
       spacingy="0.5"
       empspacing="2" /></sodipodi:namedview><g
     id="g7"
     style="fill:#000000"><path
       style="fill:#000000"
       d="M 2.5 1 C 2.2 1 2 1.2 2 1.5 L 2 5.5 L 2 8.5 C 2 8.8 2.2 9 2.5 9 C 2.8 9 3 8.8 3 8.5 L 3 6 L 4.5 6 C 4.7389698 6 4.9641311 5.9566049 5.1816406 5.8964844 L 6.2890625 7 L 5.1523438 8.1328125 A 0.49858062 0.49715575 0 1 0 5.8574219 8.8359375 L 6.9941406 7.703125 L 8.1484375 8.8554688 A 0.49916667 0.49774013 0 1 0 8.8535156 8.1503906 L 7.6992188 7 L 8.8496094 5.8535156 A 0.49858062 0.49715575 0 0 0 8.4863281 5 A 0.49858062 0.49715575 0 0 0 8.1445312 5.1503906 L 6.9941406 6.296875 L 6.1074219 5.4140625 C 6.6517756 4.9586593 7 4.2798434 7 3.5 C 7 2.1 5.9 1 4.5 1 L 2.5 1 z M 3 2 L 4.5 2 C 5.3 2 6 2.7 6 3.5 C 6 4.3 5.3 5 4.5 5 L 3 5 L 3 2 z "
       id="path9" /></g><g
     id="g11"
     style="fill:#000000" /></svg>
