<?xml version="1.0" encoding="UTF-8" standalone="no"?>
<!-- Generator: Adobe Illustrator 18.1.1, SVG Export Plug-In . SVG Version: 6.00 Build 0)  -->

<svg
   xmlns:dc="http://purl.org/dc/elements/1.1/"
   xmlns:cc="http://creativecommons.org/ns#"
   xmlns:rdf="http://www.w3.org/1999/02/22-rdf-syntax-ns#"
   xmlns:svg="http://www.w3.org/2000/svg"
   xmlns="http://www.w3.org/2000/svg"
   xmlns:sodipodi="http://sodipodi.sourceforge.net/DTD/sodipodi-0.dtd"
   xmlns:inkscape="http://www.inkscape.org/namespaces/inkscape"
   version="1.1"
   id="Layer_1"
   x="0px"
   y="0px"
   viewBox="0 0 15 15"
   enable-background="new 0 0 15 15"
   xml:space="preserve"
   inkscape:version="0.91 r13725"
   sodipodi:docname="pharmacy-15.svg"><metadata
     id="metadata13"><rdf:RDF><cc:Work
         rdf:about=""><dc:format>image/svg+xml</dc:format><dc:type
           rdf:resource="http://purl.org/dc/dcmitype/StillImage" /><dc:title /></cc:Work></rdf:RDF></metadata><defs
     id="defs11" /><sodipodi:namedview
     pagecolor="#ffffff"
     bordercolor="#666666"
     borderopacity="1"
     objecttolerance="10"
     gridtolerance="10"
     guidetolerance="10"
     inkscape:pageopacity="0"
     inkscape:pageshadow="2"
     inkscape:window-width="1870"
     inkscape:window-height="964"
     id="namedview9"
     showgrid="true"
     inkscape:zoom="32"
     inkscape:cx="10.158577"
     inkscape:cy="8.3337104"
     inkscape:window-x="0"
     inkscape:window-y="0"
     inkscape:window-maximized="0"
     inkscape:current-layer="Layer_1"><inkscape:grid
       type="xygrid"
       id="grid4141"
       spacingy="0.5"
       spacingx="0.5"
       empspacing="2"
       empcolor="#cf573b"
       empopacity="0.25098039"
       color="#3fd6ff"
       opacity="0.1254902"
       visible="true" /></sodipodi:namedview><g
     id="g3"
     transform="translate(-0.97284951,0.02224504)"><path
       d="M 2.7285156 1.0214844 C 2.3285156 1.0214844 2.027336 1.3226562 2.0273438 1.7226562 L 2.0273438 13.300781 C 2.0273514 13.700781 2.3285156 14 2.7285156 14 C 3.1285156 14 3.4277519 13.700781 3.4277344 13.300781 L 3.4277344 8.2226562 L 6.625 8.2226562 L 9.0585938 10.871094 L 7.21875 12.714844 A 0.75061078 0.75061078 0 0 0 8.28125 13.775391 L 10.074219 11.976562 L 11.697266 13.742188 A 0.750075 0.750075 0 1 0 12.802734 12.728516 L 11.134766 10.914062 L 12.765625 9.2792969 A 0.750075 0.750075 0 0 0 12.21875 7.9921875 A 0.750075 0.750075 0 0 0 11.703125 8.2207031 L 10.119141 9.8085938 L 8.4980469 8.0449219 C 9.9652613 7.5908849 11.027344 6.2469586 11.027344 4.6230469 C 11.027344 2.6230469 9.4277344 1.0214844 7.4277344 1.0214844 L 2.7285156 1.0214844 z M 3.4277344 2.421875 L 7.4277344 2.421875 C 8.6277344 2.421875 9.6269531 3.4230469 9.6269531 4.6230469 C 9.6269531 5.8230469 8.6277344 6.8222656 7.4277344 6.8222656 L 7.1621094 6.8222656 A 0.750075 0.750075 0 0 0 7.0664062 6.8105469 A 0.750075 0.750075 0 0 0 6.9921875 6.8105469 A 0.750075 0.750075 0 0 0 6.8984375 6.8222656 L 3.4277344 6.8222656 L 3.4277344 2.421875 z "
       transform="translate(0.97284951,-0.02224504)"
       id="path5"
       style="fill:#000000" /></g><rect
     style="fill:none;stroke-width:1.5;stroke-linecap:round;stroke-miterlimit:4;stroke-dasharray:none"
     id="rect4152"
     width="6.5"
     height="5.5"
     x="13.5"
     y="1" /><rect
     style="fill:none;stroke-width:1.5;stroke-linecap:round;stroke-miterlimit:4;stroke-dasharray:none"
     id="rect4154"
     width="5.5"
     height="4.5"
     x="12"
     y="1" /></svg>