<?xml version="1.0" encoding="UTF-8" standalone="no"?>
<!-- Created with Inkscape (http://www.inkscape.org/) -->

<svg
   xmlns:dc="http://purl.org/dc/elements/1.1/"
   xmlns:cc="http://creativecommons.org/ns#"
   xmlns:rdf="http://www.w3.org/1999/02/22-rdf-syntax-ns#"
   xmlns:svg="http://www.w3.org/2000/svg"
   xmlns="http://www.w3.org/2000/svg"
   xmlns:sodipodi="http://sodipodi.sourceforge.net/DTD/sodipodi-0.dtd"
   xmlns:inkscape="http://www.inkscape.org/namespaces/inkscape"
   version="1.1"
   width="17"
   height="17"
   id="svg4619"
   inkscape:version="0.91 r13725"
   sodipodi:docname="bakery-17.svg"
   viewBox="0 0 17 17">
  <sodipodi:namedview
     pagecolor="#ffffff"
     bordercolor="#666666"
     borderopacity="1"
     objecttolerance="10"
     gridtolerance="10"
     guidetolerance="10"
     inkscape:pageopacity="0"
     inkscape:pageshadow="2"
     inkscape:window-width="715"
     inkscape:window-height="649"
     id="namedview3358"
     inkscape:document-units="px"
     showgrid="false"
     inkscape:snap-bbox="true"
     inkscape:object-paths="true"
     inkscape:snap-intersection-paths="true"
     inkscape:bbox-paths="true"
     inkscape:bbox-nodes="true"
     inkscape:object-nodes="true"
     inkscape:zoom="18.545482"
     inkscape:cx="11.833119"
     inkscape:cy="10.180606"
     inkscape:window-x="81"
     inkscape:window-y="4"
     inkscape:window-maximized="0"
     inkscape:current-layer="svg4619">
    <inkscape:grid
       type="xygrid"
       id="grid3438"
       spacingx="0.5"
       spacingy="0.5"
       color="#f40018"
       opacity="0.1254902"
       empspacing="2" />
  </sodipodi:namedview>
  <defs
     id="defs4621" />
  <metadata
     id="metadata4624">
    <rdf:RDF>
      <cc:Work
         rdf:about="">
        <dc:format>image/svg+xml</dc:format>
        <dc:type
           rdf:resource="http://purl.org/dc/dcmitype/StillImage" />
        <dc:title></dc:title>
      </cc:Work>
    </rdf:RDF>
  </metadata>
  <path
     style="fill:#000000;fill-opacity:1"
     d="M 7.8461545,2.8461538 C 6.5384625,2.8461538 6,3.6923077 6,5 l 1,5 1,1 1,0 1,-1 1,-5 C 11,3.6923077 10.461539,2.8461538 9.1538462,2.8461538 Z M 5,5 3,5 C 2,5 2,6 2,6 l 2,4.5 1,0 c 1,0 1,-1 1,-1 z M 1,7.5 0,10.967161 C 0,11 0,12 1,12 2,12 2.5,10.5 2.5,10.5 Z"
     inkscape:connector-curvature="0"
     id="path5230"
     sodipodi:nodetypes="sccccccsscscczcccczcc" />
  <path
     style="fill:#000000;fill-opacity:1"
     d="m 12,5 2,0 c 1,0 1,1 1,1 l -2,4.5 -1,0 c -1,0 -1,-1 -1,-1 z m 4,2.5 1,3.467161 C 17,11 17,12 16,12 15,12 14.5,10.5 14.5,10.5 Z"
     inkscape:connector-curvature="0"
     id="path5230-9"
     sodipodi:nodetypes="cscczcccczcc" />
</svg>
