<?xml version="1.0" encoding="UTF-8" standalone="no"?>
<!-- Created with Inkscape (http://www.inkscape.org/) -->

<svg
   xmlns:dc="http://purl.org/dc/elements/1.1/"
   xmlns:cc="http://creativecommons.org/ns#"
   xmlns:rdf="http://www.w3.org/1999/02/22-rdf-syntax-ns#"
   xmlns:svg="http://www.w3.org/2000/svg"
   xmlns="http://www.w3.org/2000/svg"
   xmlns:sodipodi="http://sodipodi.sourceforge.net/DTD/sodipodi-0.dtd"
   xmlns:inkscape="http://www.inkscape.org/namespaces/inkscape"
   version="1.1"
   width="17"
   height="17"
   id="svg4619"
   inkscape:version="0.91 r13725"
   sodipodi:docname="beer-15.svg"
   viewBox="0 0 15 15">
  <sodipodi:namedview
     pagecolor="#ffffff"
     bordercolor="#666666"
     borderopacity="1"
     objecttolerance="10"
     gridtolerance="10"
     guidetolerance="10"
     inkscape:pageopacity="0"
     inkscape:pageshadow="2"
     inkscape:window-width="929"
     inkscape:window-height="738"
     id="namedview3418"
     inkscape:document-units="px"
     showgrid="false"
     inkscape:zoom="1"
     inkscape:cx="9.4697624"
     inkscape:cy="5.1991241"
     inkscape:window-x="0"
     inkscape:window-y="23"
     inkscape:window-maximized="0"
     inkscape:current-layer="svg4619"
     inkscape:snap-bbox="true"
     inkscape:bbox-paths="true"
     inkscape:bbox-nodes="true"
     inkscape:snap-bbox-edge-midpoints="true"
     inkscape:snap-bbox-midpoints="true"
     inkscape:object-paths="true"
     inkscape:snap-intersection-paths="true"
     inkscape:object-nodes="true"
     inkscape:snap-smooth-nodes="true">
    <inkscape:grid
       type="xygrid"
       id="grid3440"
       spacingx="0.5"
       spacingy="0.5"
       color="#ff001a"
       opacity="0.1254902"
       empspacing="2" />
  </sodipodi:namedview>
  <defs
     id="defs4621" />
  <metadata
     id="metadata4624">
    <rdf:RDF>
      <cc:Work
         rdf:about="">
        <dc:format>image/svg+xml</dc:format>
        <dc:type
           rdf:resource="http://purl.org/dc/dcmitype/StillImage" />
        <dc:title />
      </cc:Work>
    </rdf:RDF>
  </metadata>
  <path
     style="opacity:1;fill:#000000;fill-opacity:1;stroke:none;stroke-width:0;stroke-linecap:round;stroke-linejoin:round;stroke-miterlimit:4;stroke-dasharray:none;stroke-dashoffset:0;stroke-opacity:1"
     d="M 7.537792,0 C 7.5122403,9.6119122e-5 7.4866924,6.5150883e-4 7.4611606,0.0016659 7.3898203,0.00420108 7.3186523,0.01031707 7.2479255,0.01999078 6.4062073,0.13609991 5.7137539,0.74085133 5.4854047,1.5592812 5.141843,1.3335701 4.7283317,1.2395096 4.3209415,1.2944033 3.6352605,1.3896799 3.0751495,1.8898966 2.9032617,2.5604863 l -0.00167,0 C 2.8448707,2.5570404 2.7879474,2.5592715 2.7316701,2.5671463 2.309786,2.6253725 2.0001599,3.0741168 2,3.5 l 8.5,0 c 0.06177,-0.1728164 0.03374,-0.4451411 0.01808,-0.6279942 l -0.01,-0.079963 C 10.434177,2.3148083 10.097853,1.9198507 9.6384906,1.7708504 9.4625368,0.74798952 8.5756764,3.8240494e-4 7.537792,0 Z M 1.9339893,4 2,13.5 c 0,1 1,1 1,1 l 6.5000001,0 C 10.5,14.5 10.5,13.5 10.5,13.5 L 10.52138,13 12.5,13 C 14,13 14,11.5 14,11.5 l 0,-5 C 14,6.5 14,5 12.5,5 l -2,0 0,-1 L 5.6539012,4 3.4049379,4 1.9339493,4 Z M 3.5652004,6.0460781 4,6.0460781 4,12 3.5652004,12 Z m 2.0000001,1e-7 L 6,6.0460782 6,12 5.5652005,12 Z m 2,0 0.4347996,0 0,5.9539218 -0.4347996,0 z M 10.5,6.5 l 2,0 0,5 -2,0 z"
     id="rect3334"
     inkscape:connector-curvature="0"
     sodipodi:nodetypes="ccccccccccccccccccccsccscccccccccccccccccccccccccc" />
</svg>
