<?xml version="1.0" encoding="UTF-8" standalone="no"?>
<!-- Created with Inkscape (http://www.inkscape.org/) -->

<svg
   xmlns:dc="http://purl.org/dc/elements/1.1/"
   xmlns:cc="http://creativecommons.org/ns#"
   xmlns:rdf="http://www.w3.org/1999/02/22-rdf-syntax-ns#"
   xmlns:svg="http://www.w3.org/2000/svg"
   xmlns="http://www.w3.org/2000/svg"
   xmlns:sodipodi="http://sodipodi.sourceforge.net/DTD/sodipodi-0.dtd"
   xmlns:inkscape="http://www.inkscape.org/namespaces/inkscape"
   version="1.1"
   width="11"
   height="11"
   id="svg4764"
   inkscape:version="0.91 r13725"
   sodipodi:docname="beer-11.svg"
   viewBox="0 0 11 11">
  <sodipodi:namedview
     pagecolor="#ffffff"
     bordercolor="#666666"
     borderopacity="1"
     objecttolerance="10"
     gridtolerance="10"
     guidetolerance="10"
     inkscape:pageopacity="0"
     inkscape:pageshadow="2"
     inkscape:window-width="924"
     inkscape:window-height="755"
     id="namedview3412"
     inkscape:document-units="px"
     showgrid="true"
     inkscape:zoom="30.341309"
     inkscape:cx="4.4891117"
     inkscape:cy="5.424575"
     inkscape:current-layer="svg4764"
     inkscape:snap-bbox="true"
     inkscape:bbox-paths="true"
     inkscape:bbox-nodes="true"
     inkscape:snap-bbox-edge-midpoints="true"
     inkscape:snap-bbox-midpoints="true"
     inkscape:object-paths="true"
     inkscape:snap-intersection-paths="true"
     inkscape:object-nodes="true"
     inkscape:snap-smooth-nodes="true"
     inkscape:window-x="13"
     inkscape:window-y="0"
     inkscape:window-maximized="0">
    <inkscape:grid
       type="xygrid"
       id="grid3444"
       spacingy="0.5"
       spacingx="0.5"
       color="#de001c"
       opacity="0.1254902"
       empspacing="2" />
  </sodipodi:namedview>
  <defs
     id="defs4766" />
  <metadata
     id="metadata4769">
    <rdf:RDF>
      <cc:Work
         rdf:about="">
        <dc:format>image/svg+xml</dc:format>
        <dc:type
           rdf:resource="http://purl.org/dc/dcmitype/StillImage" />
        <dc:title />
      </cc:Work>
    </rdf:RDF>
  </metadata>
  <path
     inkscape:connector-curvature="0"
     style="opacity:1;fill:#000000;fill-opacity:1;stroke:none;stroke-width:0;stroke-linecap:round;stroke-linejoin:round;stroke-miterlimit:4;stroke-dasharray:none;stroke-dashoffset:0;stroke-opacity:1"
     d="m 6.0209989,0.52481717 c -0.018537,6.912e-5 -0.03707,4.714e-4 -0.055593,0.001207 -0.051756,0.001839 -0.1033878,0.006276 -0.1546991,0.0132942 C 5.2000523,0.6235537 4.6976869,1.0622926 4.5320227,1.6560522 4.2827733,1.4923018 3.9827763,1.4240622 3.6872201,1.4638869 3.189768,1.5330088 2.7834152,1.8959092 2.658713,2.3824128 l -0.00124,0 C 2.616323,2.3799128 2.575025,2.3815303 2.534197,2.3872428 2.2281238,2.4294848 2.0001143,2.6910256 2,3 L 8,3 C 8,3 8.2097458,2.2097458 7.5,2 7.372348,1.2579284 6.7739698,0.52509458 6.0209989,0.52481717 Z m -4.015738,3.08257143 0,6.7946744 c 0.00118,0.642103 0.6453854,0.630882 0.6453854,0.630882 C 3.028872,11.001425 7,11 7,11 8,11 8,10 8,10 l 1.5,0 c 1.237593,0 1,-1 1,-1 l 0,-3.5 c 0,0 0,-1 -1,-1 l -1.5,0 0,-1 -6,0 z M 3.5,4.6805108 l 0.3154412,0 L 3.8154412,9 3.5,9 Z m 1.5401575,0 0.3154413,0 0,4.3194892 -0.3154413,0 z m 1.6444012,0 L 7,4.6805108 7,9 6.6845587,9 Z M 8,5.5 9.5,5.5 9.5,9 8,9 Z"
     id="rect3334"
     sodipodi:nodetypes="cccccccccccccccccsccscccccccccccccccccccccccc" />
</svg>
