<?xml version="1.0" encoding="UTF-8" standalone="no"?>
<!-- Created with Inkscape (http://www.inkscape.org/) -->

<svg
   xmlns:dc="http://purl.org/dc/elements/1.1/"
   xmlns:cc="http://creativecommons.org/ns#"
   xmlns:rdf="http://www.w3.org/1999/02/22-rdf-syntax-ns#"
   xmlns:svg="http://www.w3.org/2000/svg"
   xmlns="http://www.w3.org/2000/svg"
   xmlns:sodipodi="http://sodipodi.sourceforge.net/DTD/sodipodi-0.dtd"
   xmlns:inkscape="http://www.inkscape.org/namespaces/inkscape"
   version="1.1"
   width="15"
   height="15"
   id="svg4619"
   inkscape:version="0.91 r"
   sodipodi:docname="beer-15.svg"
   viewBox="0 0 13.235294 13.235294">
  <sodipodi:namedview
     pagecolor="#ffffff"
     bordercolor="#666666"
     borderopacity="1"
     objecttolerance="10"
     gridtolerance="10"
     guidetolerance="10"
     inkscape:pageopacity="0"
     inkscape:pageshadow="2"
     inkscape:window-width="929"
     inkscape:window-height="738"
     id="namedview3418"
     inkscape:document-units="px"
     showgrid="true"
     inkscape:zoom="16"
     inkscape:cx="6.1209087"
     inkscape:cy="8.8908958"
     inkscape:window-x="0"
     inkscape:window-y="23"
     inkscape:window-maximized="0"
     inkscape:current-layer="svg4619"
     inkscape:snap-bbox="true"
     inkscape:bbox-paths="true"
     inkscape:bbox-nodes="true"
     inkscape:snap-bbox-edge-midpoints="true"
     inkscape:snap-bbox-midpoints="true"
     inkscape:object-paths="true"
     inkscape:snap-intersection-paths="true"
     inkscape:object-nodes="true"
     inkscape:snap-smooth-nodes="true"
     showguides="true"
     inkscape:guide-bbox="true"
     showborder="false">
    <inkscape:grid
       type="xygrid"
       id="grid3440"
       spacingx="0.44117647"
       spacingy="0.44117647"
       color="#ff001a"
       opacity="0.1254902"
       empspacing="2" />
    <sodipodi:guide
       position="0,13.235294"
       orientation="1,0"
       id="guide7786" />
    <sodipodi:guide
       position="13.235294,13.235294"
       orientation="0,1"
       id="guide7788" />
    <sodipodi:guide
       position="13.235294,0"
       orientation="1,0"
       id="guide7790" />
    <sodipodi:guide
       position="0,0"
       orientation="0,1"
       id="guide7792" />
  </sodipodi:namedview>
  <defs
     id="defs4621" />
  <metadata
     id="metadata4624">
    <rdf:RDF>
      <cc:Work
         rdf:about="">
        <dc:format>image/svg+xml</dc:format>
        <dc:type
           rdf:resource="http://purl.org/dc/dcmitype/StillImage" />
        <dc:title></dc:title>
      </cc:Work>
    </rdf:RDF>
  </metadata>
  <path
     style="fill:#ffffff;fill-rule:evenodd;stroke:none;stroke-width:1px;stroke-linecap:butt;stroke-linejoin:miter;stroke-opacity:1"
     d="m 6.6176472,-9.9999999e-8 c -0.4411765,0 -3.0882354,0 -3.5294119,0.661764809999999 0,0 -0.4411765,1.76470589 -0.4411765,3.08823529 0,2.2058824 1.3235294,4.8529413 0.882353,8.382353 0,1.323529 6.1764707,1.323529 6.1764708,0 C 9.2647068,8.6029413 10.588235,5.9558824 10.588235,3.75 c 0,-1.3235294 -0.441176,-3.08823529 -0.441176,-3.08823529 C 9.7058825,-9.9999999e-8 7.0588236,-9.9999999e-8 6.6176472,-9.9999999e-8 Z m 0,0.882352949999999 c 0.4411764,0 2.6470588,0 3.0882344,0.44117655 0,0 0.4411774,1.3235295 0.2205882,1.7647059 C 8.8235292,3.75 4.4117643,3.75 3.3088232,3.0882353 3.0882353,2.6470588 3.5294114,1.3235294 3.5294114,1.3235294 3.9705883,0.88235285 6.1764708,0.88235285 6.6176472,0.88235285 Z M 4.4565717,10.731273 c 0.3912319,0.116959 0.8375459,0.360821 2.1610754,0.399816 1.3235295,0.03899 1.7698434,-0.282858 2.1610754,-0.399816 0.00933,0.166597 0.022007,0.998064 0.044807,1.180492 -0.4411761,0.441177 -3.9705883,0.441177 -4.4117648,0 0.022804,-0.182428 0.035477,-1.013895 0.044807,-1.180492 z"
     id="path10577"
     inkscape:connector-curvature="0"
     sodipodi:nodetypes="zcsccsczzcccczczcccc" />
</svg>
