<?xml version="1.0" encoding="UTF-8" standalone="no"?>
<!-- Created with Inkscape (http://www.inkscape.org/) -->

<svg
   xmlns:dc="http://purl.org/dc/elements/1.1/"
   xmlns:cc="http://creativecommons.org/ns#"
   xmlns:rdf="http://www.w3.org/1999/02/22-rdf-syntax-ns#"
   xmlns:svg="http://www.w3.org/2000/svg"
   xmlns="http://www.w3.org/2000/svg"
   xmlns:sodipodi="http://sodipodi.sourceforge.net/DTD/sodipodi-0.dtd"
   xmlns:inkscape="http://www.inkscape.org/namespaces/inkscape"
   version="1.1"
   width="11"
   height="11"
   id="svg4764"
   inkscape:version="0.91+devel+osxmenu r12911"
   sodipodi:docname="cafe-11.svg"
   viewBox="0 0 11 11">
  <sodipodi:namedview
     pagecolor="#000000"
     bordercolor="#666666"
     borderopacity="1"
     objecttolerance="10"
     gridtolerance="10"
     guidetolerance="10"
     inkscape:pageopacity="0"
     inkscape:pageshadow="2"
     inkscape:window-width="640"
     inkscape:window-height="480"
     id="namedview3358"
     inkscape:document-units="px"
     showgrid="false"
     inkscape:zoom="55.545455"
     inkscape:cx="3.2495908"
     inkscape:cy="7.4983633"
     inkscape:current-layer="svg4764" />
  <defs
     id="defs4766" />
  <metadata
     id="metadata4769">
    <rdf:RDF>
      <cc:Work
         rdf:about="">
        <dc:format>image/svg+xml</dc:format>
        <dc:type
           rdf:resource="http://purl.org/dc/dcmitype/StillImage" />
        <dc:title />
      </cc:Work>
    </rdf:RDF>
  </metadata>
  <path style="fill:#000000;fill-opacity:1"
     d="m 1.8333333,1.2222222 c -0.3385677,0 -0.6111111,0.2725556 -0.6111111,0.6111112 l 0,5.5 c 0,0.3385555 0.2725434,0.6111111 0.6111111,0.6111111 l 6.1111111,0 c 0.3385556,0 0.6111112,-0.2725556 0.6111112,-0.6111111 l 0,-0.6111112 0.3055555,0 c 0.3055556,0 0.3055556,-0.3055555 0.3055556,-0.3055555 l 0,-0.3055556 0.6111111,0 C 10.388889,6.1111111 11,5.5 11,4.8888889 L 11,4.2777778 11,3.0555556 C 11,2.75 10.694444,2.4444445 10.388889,2.4444445 l -1.8333334,0 0,-0.6111111 C 8.5555556,1.4947778 8.283,1.2222222 7.9444444,1.2222222 Z m 6.7222223,1.8333334 1.5277774,0 c 0.305556,0 0.305556,0.3055555 0.305556,0.3055555 l 0,1.5277778 C 10.388889,5.1944445 10.083333,5.5 9.7777778,5.5 l -0.6111111,0 -0.6111111,0 z M 0,8.5555556 l 2.4444444,1.2222222 4.8888889,0 2.4444445,-1.2222222 z"
     inkscape:connector-curvature="0"
     id="rect9826-2-1-5"
      />
</svg>
