<?xml version="1.0" encoding="UTF-8" standalone="no"?>
<!-- Created with Inkscape (http://www.inkscape.org/) -->

<svg
   xmlns:dc="http://purl.org/dc/elements/1.1/"
   xmlns:cc="http://creativecommons.org/ns#"
   xmlns:rdf="http://www.w3.org/1999/02/22-rdf-syntax-ns#"
   xmlns:svg="http://www.w3.org/2000/svg"
   xmlns="http://www.w3.org/2000/svg"
   xmlns:sodipodi="http://sodipodi.sourceforge.net/DTD/sodipodi-0.dtd"
   xmlns:inkscape="http://www.inkscape.org/namespaces/inkscape"
   version="1.1"
   width="15"
   height="15"
   id="svg4619"
   inkscape:version="0.91 r"
   sodipodi:docname="fast-food-15.svg"
   viewBox="0 0 13.235294 13.235294">
  <sodipodi:namedview
     pagecolor="#ffffff"
     bordercolor="#666666"
     borderopacity="1"
     objecttolerance="10"
     gridtolerance="10"
     guidetolerance="10"
     inkscape:pageopacity="0"
     inkscape:pageshadow="2"
     inkscape:window-width="1278"
     inkscape:window-height="745"
     id="namedview3370"
     inkscape:document-units="px"
     showgrid="true"
     inkscape:zoom="2"
     inkscape:cx="40.986262"
     inkscape:cy="31.047228"
     inkscape:current-layer="svg4619"
     inkscape:snap-bbox="true"
     inkscape:bbox-paths="true"
     inkscape:bbox-nodes="true"
     inkscape:snap-bbox-edge-midpoints="true"
     inkscape:snap-bbox-midpoints="true"
     inkscape:object-paths="true"
     inkscape:snap-intersection-paths="true"
     inkscape:object-nodes="true"
     inkscape:snap-smooth-nodes="true"
     inkscape:window-x="0"
     inkscape:window-y="0"
     inkscape:window-maximized="0"
     inkscape:showpageshadow="false"
     showborder="false"
     showguides="false"
     inkscape:guide-bbox="true">
    <inkscape:grid
       type="xygrid"
       id="grid3333"
       spacingx="0.44117647"
       spacingy="0.44117647"
       color="#ff0000"
       opacity="0.1254902"
       empspacing="2" />
    <sodipodi:guide
       position="0,13.235294"
       orientation="1,0"
       id="guide7169" />
    <sodipodi:guide
       position="0,13.235294"
       orientation="0,1"
       id="guide7171" />
    <sodipodi:guide
       position="13.235294,0"
       orientation="1,0"
       id="guide7173" />
    <sodipodi:guide
       position="0,0"
       orientation="0,1"
       id="guide7175" />
  </sodipodi:namedview>
  <defs
     id="defs4621" />
  <metadata
     id="metadata4624">
    <rdf:RDF>
      <cc:Work
         rdf:about="">
        <dc:format>image/svg+xml</dc:format>
        <dc:type
           rdf:resource="http://purl.org/dc/dcmitype/StillImage" />
        <dc:title></dc:title>
      </cc:Work>
    </rdf:RDF>
  </metadata>
  <path
     style="opacity:1;fill:#ffffff;fill-opacity:1;stroke:none;stroke-width:0;stroke-linecap:round;stroke-linejoin:round;stroke-miterlimit:4;stroke-dasharray:none;stroke-dashoffset:0;stroke-opacity:1"
     d="m 3.5246679,0.88356932 c 0,0 -2.62607456,-2.6241e-4 -2.62607456,2.67929558 l -0.0162404,1.5106645 0.66176466,0.2205883 10.1470594,0 0.661764,-0.2205883 0.01553,-1.5578031 C 12.394729,0.88179808 9.7216163,0.88356932 9.6663678,0.88356932 Z m 1.327483,0.88194748 0.00152,0 c 0.2230462,-0.00709 0.4162645,0.1534881 0.4500974,0.3740674 l 0.00456,0.027371 C 5.3303205,2.4075122 5.1547668,2.6210246 4.9144954,2.6459437 4.6748997,2.6707973 4.4596588,2.4988753 4.430945,2.2597115 4.4013404,2.0204579 4.5692702,1.8017429 4.8080535,1.768558 c 0.014639,-0.00175 0.029356,-0.00276 0.044097,-0.00304 z m 3.5293102,0 0.00152,0 c 0.2236173,-0.00788 0.4177208,0.1528939 0.4516185,0.3740674 l 0.00304,0.027371 C 8.8596318,2.4075125 8.6840774,2.6210251 8.4438056,2.6459437 8.20421,2.670797 7.9889695,2.4988751 7.9602557,2.2597115 7.9306511,2.0204578 8.0985809,1.8017429 8.3373643,1.768558 c 0.014639,-0.00175 0.029356,-0.00276 0.044097,-0.00304 z m -5.2947258,1.7638949 0.0015,0 c 0.2236172,-0.00788 0.4177204,0.1528941 0.451618,0.3740675 l 0.00304,0.02737 C 3.5649247,4.1708733 3.3902408,4.3841514 3.1505803,4.4098386 2.9109498,4.4356258 2.6949725,4.2643333 2.6655093,4.025127 2.6359549,3.7853562 2.8047402,3.5664096 3.0441383,3.5339736 c 0.014111,-0.00221 0.028321,-0.00373 0.04258,-0.00456 z m 3.5308311,0 c 0.2236171,-0.00788 0.4177201,0.1528943 0.4516177,0.3740675 l 0.00304,0.02737 C 7.0942555,4.1708734 6.9195715,4.3841515 6.679911,4.4098386 6.4402805,4.4356258 6.224303,4.2643333 6.1948399,4.025127 6.1652855,3.7853561 6.3340709,3.5664096 6.573469,3.5339736 c 0.014613,-0.00226 0.029331,-0.00378 0.044097,-0.00456 z m 3.5293106,0 c 0.223617,-0.00788 0.417719,0.1528945 0.451617,0.3740675 l 0.003,0.02737 C 10.623525,4.170874 10.44884,4.3841523 10.209179,4.4098385 9.9695486,4.4356256 9.7535713,4.2643332 9.7241081,4.025127 9.6945536,3.7853562 9.8633389,3.5664096 10.102737,3.5339735 c 0.01461,-0.00226 0.02933,-0.00378 0.0441,-0.00456 z m -9.26452405,6.3970591 0.0162404,1.5374262 c 0,0 -2.19e-4,0.88955 0.92148295,0.88955 l 9.7151077,0 c 0.860611,0 0.833288,-0.872824 0.833288,-0.872824 L 12.352941,9.9264708 11.691177,9.7058824 6.243499,9.7060853 4.4279037,11.030526 2.6883383,9.7060853 1.5441176,9.7058824 Z"
     id="rect3337"
     inkscape:connector-curvature="0"
     sodipodi:nodetypes="csccccsscccccccccccccccccccccccccccccccccccccccccccsscccccccc" />
  <path
     style="fill:#ffffff;fill-rule:evenodd;stroke:none;stroke-width:0.88235295px;stroke-linecap:butt;stroke-linejoin:miter;stroke-opacity:1"
     d="m 1.3235293,6.1764708 10.5882357,0 c 0.733235,0 1.323529,0.5902941 1.323529,1.3235293 0,0.7332353 -0.590294,1.3235294 -1.323529,1.3235294 l -4.411765,0 -1.5441176,0 -1.5441177,1.1029413 -1.5441177,-1.1029413 -1.5441177,0 C 0.59029413,8.8235295 0,8.2332354 0,7.5000001 0,6.7667649 0.59029413,6.1764708 1.3235293,6.1764708 Z"
     id="rect7791"
     inkscape:connector-curvature="0"
     sodipodi:nodetypes="ssssccccsss" />
</svg>
