<?xml version="1.0" encoding="UTF-8" standalone="no"?>
<!-- Created with Inkscape (http://www.inkscape.org/) -->

<svg
   xmlns:dc="http://purl.org/dc/elements/1.1/"
   xmlns:cc="http://creativecommons.org/ns#"
   xmlns:rdf="http://www.w3.org/1999/02/22-rdf-syntax-ns#"
   xmlns:svg="http://www.w3.org/2000/svg"
   xmlns="http://www.w3.org/2000/svg"
   xmlns:sodipodi="http://sodipodi.sourceforge.net/DTD/sodipodi-0.dtd"
   xmlns:inkscape="http://www.inkscape.org/namespaces/inkscape"
   version="1.1"
   width="17"
   height="17"
   id="svg4619"
   inkscape:version="0.91 r13725"
   sodipodi:docname="fast-food-15.svg"
   viewBox="0 0 15 15">
  <sodipodi:namedview
     pagecolor="#ffffff"
     bordercolor="#666666"
     borderopacity="1"
     objecttolerance="10"
     gridtolerance="10"
     guidetolerance="10"
     inkscape:pageopacity="0"
     inkscape:pageshadow="2"
     inkscape:window-width="1278"
     inkscape:window-height="745"
     id="namedview3370"
     inkscape:document-units="px"
     showgrid="true"
     inkscape:zoom="5.6568542"
     inkscape:cx="5.6982304"
     inkscape:cy="10.662414"
     inkscape:current-layer="svg4619"
     inkscape:snap-bbox="true"
     inkscape:bbox-paths="true"
     inkscape:bbox-nodes="true"
     inkscape:snap-bbox-edge-midpoints="true"
     inkscape:snap-bbox-midpoints="true"
     inkscape:object-paths="true"
     inkscape:snap-intersection-paths="true"
     inkscape:object-nodes="true"
     inkscape:snap-smooth-nodes="true"
     inkscape:window-x="0"
     inkscape:window-y="0"
     inkscape:window-maximized="0">
    <inkscape:grid
       type="xygrid"
       id="grid3333"
       spacingx="0.5"
       spacingy="0.5"
       color="#ff0000"
       opacity="0.1254902"
       empspacing="2" />
  </sodipodi:namedview>
  <defs
     id="defs4621" />
  <metadata
     id="metadata4624">
    <rdf:RDF>
      <cc:Work
         rdf:about="">
        <dc:format>image/svg+xml</dc:format>
        <dc:type
           rdf:resource="http://purl.org/dc/dcmitype/StillImage" />
        <dc:title />
      </cc:Work>
    </rdf:RDF>
  </metadata>
  <path
     style="opacity:1;fill:#000000;fill-opacity:1;stroke:none;stroke-width:0;stroke-linecap:round;stroke-linejoin:round;stroke-miterlimit:4;stroke-dasharray:none;stroke-dashoffset:0;stroke-opacity:1"
     d="m 3.9774818,1.5 c 0,0 -2.9762179,-2.974e-4 -2.9762179,3.036535 l 0,1.9628907 12.9991961,0 0,-2.0163144 C 14.00046,1.4978443 11.00069,1.5 10.938075,1.5 l -6.9605932,0 z m 1.5044807,0.9995405 a 0.5,0.5 0 0 1 0.00172,0 0.5,0.5 0 0 1 0.5101103,0.4239431 l 0.00517,0.03102 A 0.5,0.5 0 0 1 5.5526196,3.4973576 0.5,0.5 0 0 1 5.0045958,3.0596278 0.5,0.5 0 0 1 5.4319855,2.5029872 a 0.5,0.5 0 0 1 0.049977,-0.00345 z m 3.9998849,0 a 0.5,0.5 0 0 1 0.00172,0 0.5,0.5 0 0 1 0.5118344,0.4239431 l 0.00345,0.03102 A 0.5,0.5 0 0 1 9.5525045,3.4973576 0.5,0.5 0 0 1 9.0044813,3.0596278 0.5,0.5 0 0 1 9.431871,2.5029872 0.5,0.5 0 0 1 9.4818474,2.4995405 Z M 3.4811583,4.4986214 a 0.5,0.5 0 0 1 0.00172,0 0.5,0.5 0 0 1 0.5118336,0.4239431 l 0.00345,0.03102 A 0.5,0.5 0 0 1 3.5535387,5.4964385 0.5,0.5 0 0 1 3.0037915,5.0604321 0.5,0.5 0 0 1 3.4329046,4.5037915 a 0.5,0.5 0 0 1 0.048254,-0.00517 z m 4.0016084,0 a 0.5,0.5 0 0 1 0.5118334,0.4239431 l 0.00345,0.03102 a 0.5,0.5 0 0 1 -0.4446262,0.542854 0.5,0.5 0 0 1 -0.5497472,-0.4360064 0.5,0.5 0 0 1 0.429113,-0.5566406 0.5,0.5 0 0 1 0.049977,-0.00517 z m 3.9998853,0 a 0.5,0.5 0 0 1 0.511833,0.4239431 l 0.0034,0.03102 a 0.5,0.5 0 0 1 -0.444624,0.5428539 0.5,0.5 0 0 1 -0.549747,-0.4360064 0.5,0.5 0 0 1 0.429113,-0.5566406 0.5,0.5 0 0 1 0.04998,-0.00517 z M 0.49977044,7.9987363 C 0.22277038,7.9987363 1.6759233e-7,8.2215066 1.6759233e-7,8.4985068 l 0,1.001263 c 0,0.277001 0.22814939240767,0.445446 0.49977027240767,0.499771 l 2.50057436,0 2.0008042,1.4993102 1.9990809,-1.4993102 7.5000001,0 c 0.277001,0 0.49977,-0.22277 0.49977,-0.499771 l 0,-1.001263 C 15,8.2215066 14.777231,7.9987363 14.50023,7.9987363 l -14.00045956,0 z m 0.50149346,3.5001147 0,1.992188 c 0,0 -2.486e-4,1.008157 1.0443475,1.008157 l 11.0104556,0 c 0.975359,0 0.944393,-0.9892 0.944393,-0.9892 l 0,-2.011145 -6.9416363,0 -2.0576747,1.501034 -1.9715073,-1.501034 -2.0283778,0 z"
     id="rect3337"
     inkscape:connector-curvature="0" />
</svg>
