<?xml version="1.0" encoding="UTF-8" standalone="no"?>
<!-- Generator: Adobe Illustrator 17.1.0, SVG Export Plug-In . SVG Version: 6.00 Build 0)  -->

<svg
   xmlns:dc="http://purl.org/dc/elements/1.1/"
   xmlns:cc="http://creativecommons.org/ns#"
   xmlns:rdf="http://www.w3.org/1999/02/22-rdf-syntax-ns#"
   xmlns:svg="http://www.w3.org/2000/svg"
   xmlns="http://www.w3.org/2000/svg"
   xmlns:sodipodi="http://sodipodi.sourceforge.net/DTD/sodipodi-0.dtd"
   xmlns:inkscape="http://www.inkscape.org/namespaces/inkscape"
   version="1.1"
   id="svg4619"
   x="0px"
   y="0px"
   viewBox="0 0 15 15"
   enable-background="new 0 0 15 15"
   xml:space="preserve"
   inkscape:version="0.91 r13725"
   sodipodi:docname="restaurant-15.svg"><metadata
     id="metadata8"><rdf:RDF><cc:Work
         rdf:about=""><dc:format>image/svg+xml</dc:format><dc:type
           rdf:resource="http://purl.org/dc/dcmitype/StillImage" /><dc:title /></cc:Work></rdf:RDF></metadata><defs
     id="defs6" /><sodipodi:namedview
     pagecolor="#ffffff"
     bordercolor="#666666"
     borderopacity="1"
     objecttolerance="10"
     gridtolerance="10"
     guidetolerance="10"
     inkscape:pageopacity="0"
     inkscape:pageshadow="2"
     inkscape:window-width="985"
     inkscape:window-height="745"
     id="namedview4"
     showgrid="false"
     inkscape:snap-bbox="true"
     inkscape:bbox-paths="true"
     inkscape:bbox-nodes="true"
     inkscape:snap-bbox-edge-midpoints="true"
     inkscape:snap-bbox-midpoints="true"
     inkscape:object-paths="true"
     inkscape:snap-intersection-paths="true"
     inkscape:object-nodes="true"
     inkscape:snap-smooth-nodes="true"
     inkscape:zoom="1"
     inkscape:cx="4.3616899"
     inkscape:cy="8.8997478"
     inkscape:window-x="0"
     inkscape:window-y="0"
     inkscape:window-maximized="0"
     inkscape:current-layer="svg4619"><inkscape:grid
       type="xygrid"
       id="grid3336"
       spacingx="0.5"
       spacingy="0.5"
       color="#fd0000"
       opacity="0.1254902"
       empspacing="2" /></sodipodi:namedview><path
     style="fill:#000000;fill-opacity:1"
     id="rect6396-83"
     inkscape:connector-curvature="0"
     d="m 3,0 -0.5,0 0,4.5 c 0,0.8181818 1,0.6804039 1,1.5 l 0,7 c 0,1 1,1 1,1 0,0 1,0 1,-1 l 0,-7 c 0,-0.8181818 0.9834499,-0.6807691 1,-1.5 L 6.5,0 6,0 6,3 5,3 5,0 4,0 4,3 3,3 Z m 8.5,0 C 10.763636,0 9.536364,0.65454547 9.0454547,1.6363637 8.6363638,2.3727273 8.5,4.0181818 8.5,5 l 0,2.5 c 0,0.8181819 0.5909085,1 1,1 l 0,4.5 c 0,1 1,1 1,1 0,0 1,0 1,-1 z"
     sodipodi:nodetypes="ccsscczsscccccccccccsscccsc" /></svg>
