<svg xmlns="http://www.w3.org/2000/svg" viewBox="-3 -3 18 18" width="18" height="18"><title>airport-11.svg</title><path d="M6.5,6.4V6L11,6.5V5L6.5,3.2V1.5c0-1-0.5-1.5-1-1.5s-1,0.5-1,1.5v1.7L0,5v1.4L4.5,6v0.4v1.1v1.8L3,10v1l2.5-0.5L8,11v-1
	L6.5,9.2V7.5V6.4z" style="stroke-linejoin:round;stroke-miterlimit:4px;" fill="rgba(255,255,255,0.25)" stroke="rgba(255,255,255,0.25)" stroke-width="2"></path><path fill="#444444" d="M6.5,6.4V6L11,6.5V5L6.5,3.2V1.5c0-1-0.5-1.5-1-1.5s-1,0.5-1,1.5v1.7L0,5v1.4L4.5,6v0.4v1.1v1.8L3,10v1l2.5-0.5L8,11v-1
	L6.5,9.2V7.5V6.4z"></path></svg>