<svg xmlns="http://www.w3.org/2000/svg" viewBox="-3 -3 18 18" width="18" height="18"><title>circle-stroked-11.svg</title><path d="M5.5,0C8.5376,0,11,2.4624,11,5.5S8.5376,11,5.5,11S0,8.5376,0,5.5
	S2.4624,0,5.5,0z M5.5,1.2222c-2.3626,0-4.2778,1.9152-4.2778,4.2778S3.1374,9.7778,5.5,9.7778S9.7778,7.8626,9.7778,5.5
	S7.8626,1.2222,5.5,1.2222z" style="stroke-linejoin:round;stroke-miterlimit:4px;" fill="rgba(255,255,255,0.25)" stroke="rgba(255,255,255,0.25)" stroke-width="2"></path><path fill="#444444" d="M5.5,0C8.5376,0,11,2.4624,11,5.5S8.5376,11,5.5,11S0,8.5376,0,5.5
	S2.4624,0,5.5,0z M5.5,1.2222c-2.3626,0-4.2778,1.9152-4.2778,4.2778S3.1374,9.7778,5.5,9.7778S9.7778,7.8626,9.7778,5.5
	S7.8626,1.2222,5.5,1.2222z"></path></svg>