<svg xmlns="http://www.w3.org/2000/svg" viewBox="-3 -3 22 22" width="22" height="22"><title>dentist-15.svg</title><path d="M4.36,14c-1,0-0.56-2.67-0.86-5c-0.1-0.76-1-1.49-1.12-2.06C2,5,1.39,1.44,3.66,1S6,3,7.54,3s1.57-2.36,3.85-2
	s1.59,3.9,1.29,5.9c-0.1,0.45-1.1,1.48-1.18,2.06c-0.33,2.4,0.32,5-0.8,5c-0.93,0-1.32-2.72-2-4.5C8.43,8.63,8.06,8,7.54,8
	C6,8,5.75,14,4.36,14z" style="stroke-linejoin:round;stroke-miterlimit:4px;" fill="rgba(255,255,255,0.25)" stroke="rgba(255,255,255,0.25)" stroke-width="2"></path><path fill="#444444" d="M4.36,14c-1,0-0.56-2.67-0.86-5c-0.1-0.76-1-1.49-1.12-2.06C2,5,1.39,1.44,3.66,1S6,3,7.54,3s1.57-2.36,3.85-2
	s1.59,3.9,1.29,5.9c-0.1,0.45-1.1,1.48-1.18,2.06c-0.33,2.4,0.32,5-0.8,5c-0.93,0-1.32-2.72-2-4.5C8.43,8.63,8.06,8,7.54,8
	C6,8,5.75,14,4.36,14z"></path></svg>