<svg xmlns="http://www.w3.org/2000/svg" viewBox="0 0 21 21" height="21" width="21"><title>grocery-15.svg</title><rect fill="none" x="0" y="0" width="21" height="21"></rect><path fill="rgba(255,255,255,0.25)" transform="translate(3 3)" d="M3.2001,14c0,0.6,0.4,1,1,1s1-0.4,1-1s-0.4-1-1-1S3.2001,13.4,3.2001,14z" style="stroke-linejoin:round;stroke-miterlimit:4px;" stroke="rgba(255,255,255,0.25)" stroke-width="2"></path><path fill="rgba(255,255,255,0.25)" transform="translate(3 3)" d="M8.2001,14c0,0.6,0.4,1,1,1s1-0.4,1-1s-0.4-1-1-1S8.2001,13.4,8.2001,14z" style="stroke-linejoin:round;stroke-miterlimit:4px;" stroke="rgba(255,255,255,0.25)" stroke-width="2"></path><path fill="rgba(255,255,255,0.25)" transform="translate(3 3)" d="M13.25,1.5c-0.0178,0-0.05,0-0.05,0S11.8079,1.4588,11.253,2C10.7195,2.5202,10.5,2.9177,10.5,4H1.2001l1.3935,4.814
		C2.5971,8.8213,2.604,8.8279,2.6078,8.8351c0.2344,0.6573,0.8458,1.1308,1.5768,1.1583C4.1876,9.9947,4.2001,10,4.2001,10h6.5v0.2
		c0,0,0,0.3-0.2,0.7s-0.3,0.6-1.1,0.6H2.9c-1,0-1,1.5,0,1.5h1.2h0.1h4.9h0.1h0.1c1.2,0,2.1-0.7,2.4-1.4c0.3-0.7,0.3-1.3,0.3-1.3V10
		l0-6c0-0.5236,0.2294-1,0.7-1c0,0,0.5323,0,0.55,0C13.6642,3,14,2.6642,14,2.25S13.6642,1.5,13.25,1.5z" style="stroke-linejoin:round;stroke-miterlimit:4px;" stroke="rgba(255,255,255,0.25)" stroke-width="2"></path><path fill="#444444" transform="translate(3 3)" d="M3.2001,14c0,0.6,0.4,1,1,1s1-0.4,1-1s-0.4-1-1-1S3.2001,13.4,3.2001,14z"></path><path fill="#444444" transform="translate(3 3)" d="M8.2001,14c0,0.6,0.4,1,1,1s1-0.4,1-1s-0.4-1-1-1S8.2001,13.4,8.2001,14z"></path><path fill="#444444" transform="translate(3 3)" d="M13.25,1.5c-0.0178,0-0.05,0-0.05,0S11.8079,1.4588,11.253,2C10.7195,2.5202,10.5,2.9177,10.5,4H1.2001l1.3935,4.814
		C2.5971,8.8213,2.604,8.8279,2.6078,8.8351c0.2344,0.6573,0.8458,1.1308,1.5768,1.1583C4.1876,9.9947,4.2001,10,4.2001,10h6.5v0.2
		c0,0,0,0.3-0.2,0.7s-0.3,0.6-1.1,0.6H2.9c-1,0-1,1.5,0,1.5h1.2h0.1h4.9h0.1h0.1c1.2,0,2.1-0.7,2.4-1.4c0.3-0.7,0.3-1.3,0.3-1.3V10
		l0-6c0-0.5236,0.2294-1,0.7-1c0,0,0.5323,0,0.55,0C13.6642,3,14,2.6642,14,2.25S13.6642,1.5,13.25,1.5z"></path></svg>