<svg xmlns="http://www.w3.org/2000/svg" viewBox="-3 -3 22 22" width="22" height="22"><title>triangle-15.svg</title><path d="M7.5385,2
	C7.2437,2,7.0502,2.1772,6.9231,2.3846l-5.8462,9.5385C1,12,1,12.1538,1,12.3077C1,12.8462,1.3846,13,1.6923,13h11.6154
	C13.6923,13,14,12.8462,14,12.3077c0-0.1538,0-0.2308-0.0769-0.3846L8.1538,2.3846C8.028,2.1765,7.7882,2,7.5385,2z" style="stroke-linejoin:round;stroke-miterlimit:4px;" fill="rgba(255,255,255,0.25)" stroke="rgba(255,255,255,0.25)" stroke-width="2"></path><path fill="#444444" d="M7.5385,2
	C7.2437,2,7.0502,2.1772,6.9231,2.3846l-5.8462,9.5385C1,12,1,12.1538,1,12.3077C1,12.8462,1.3846,13,1.6923,13h11.6154
	C13.6923,13,14,12.8462,14,12.3077c0-0.1538,0-0.2308-0.0769-0.3846L8.1538,2.3846C8.028,2.1765,7.7882,2,7.5385,2z"></path></svg>