<?xml version="1.0" encoding="UTF-8" standalone="no"?>
<!-- Created with Inkscape (http://www.inkscape.org/) -->

<svg
   xmlns:dc="http://purl.org/dc/elements/1.1/"
   xmlns:cc="http://creativecommons.org/ns#"
   xmlns:rdf="http://www.w3.org/1999/02/22-rdf-syntax-ns#"
   xmlns:svg="http://www.w3.org/2000/svg"
   xmlns="http://www.w3.org/2000/svg"
   xmlns:sodipodi="http://sodipodi.sourceforge.net/DTD/sodipodi-0.dtd"
   xmlns:inkscape="http://www.inkscape.org/namespaces/inkscape"
   version="1.1"
   width="17"
   height="17"
   id="svg4619"
   inkscape:version="0.91+devel+osxmenu r12911"
   sodipodi:docname="heliport-17.svg"
   viewBox="0 0 17 17">
  <sodipodi:namedview
     pagecolor="#000000"
     bordercolor="#666666"
     borderopacity="1"
     objecttolerance="10"
     gridtolerance="10"
     guidetolerance="10"
     inkscape:pageopacity="0"
     inkscape:pageshadow="2"
     inkscape:window-width="640"
     inkscape:window-height="480"
     id="namedview3340"
     inkscape:document-units="px"
     showgrid="true"
     inkscape:snap-bbox="true"
     inkscape:bbox-nodes="true"
     inkscape:bbox-paths="true"
     inkscape:zoom="27.764706"
     inkscape:cx="7.90196"
     inkscape:cy="8.1166467"
     inkscape:window-x="0"
     inkscape:window-y="23"
     inkscape:window-maximized="0"
     inkscape:current-layer="svg4619">
    <inkscape:grid
       type="xygrid"
       id="grid3342" />
  </sodipodi:namedview>
  <defs
     id="defs4621" />
  <metadata
     id="metadata4624">
    <rdf:RDF>
      <cc:Work
         rdf:about="">
        <dc:format>image/svg+xml</dc:format>
        <dc:type
           rdf:resource="http://purl.org/dc/dcmitype/StillImage" />
        <dc:title />
      </cc:Work>
    </rdf:RDF>
  </metadata>
  <path style="fill:#000000;fill-opacity:1"
     d="m 9.4081141,14.384615 6.5747889,0 C 16.491451,14.384615 17,13.876053 17,13.367492 l 0,-3.051238 c 0,-1.0171229 -0.488972,-1.5060691 -1.017097,-2.034246 0,0 -0.678065,-0.6780384 -1.017097,-1.0169923 C 14.626787,6.9259311 13.948722,6.5384619 12.931625,6.5384619 l -2.470087,0 0,-2.6153846 4.213673,0 c 0.563458,0 1.017097,-0.1630693 1.017097,-0.7265539 0,-0.5633538 -0.380997,-0.5811384 -0.944455,-0.5811384 l -9.5897393,0 c -0.5634716,0 -1.0897392,0.018308 -1.0897392,0.5811384 0,0.5634846 0.4568946,0.665877 1.0170969,0.7265539 l 4.0683747,0 0,2.6153846 -1.0170971,0 -4.3544322,0 C 3.4303645,5.9313003 2.7864306,5.5213388 2.0341937,5.5213388 0.91074215,5.5213388 -4.9999999e-8,6.4320157 -4.9999999e-8,7.5555849 -4.9999999e-8,8.6790234 0.91074215,9.5897003 2.0341937,9.5897003 c 0.5868923,0 1.0907854,-0.2697769 1.4620654,-0.6674461 l 3.623393,3.4281148 c 1.0587339,1.001692 1.7799262,2.034246 2.288462,2.034246 z M 2.0341937,6.5384619 c 0.5617192,0 1.0170838,0.4553384 1.0170838,1.017123 0,0.5616539 -0.4553646,1.0169923 -1.0170838,1.0169923 -0.5617323,0 -1.0170969,-0.4553384 -1.0170969,-1.0169923 0,-0.5617846 0.4553646,-1.017123 1.0170969,-1.017123 z"
     inkscape:connector-curvature="0"
     id="rect9361-7"
      />
</svg>
