<?xml version="1.0" encoding="UTF-8" standalone="no"?>
<!-- Created with Inkscape (http://www.inkscape.org/) -->

<svg
   xmlns:dc="http://purl.org/dc/elements/1.1/"
   xmlns:cc="http://creativecommons.org/ns#"
   xmlns:rdf="http://www.w3.org/1999/02/22-rdf-syntax-ns#"
   xmlns:svg="http://www.w3.org/2000/svg"
   xmlns="http://www.w3.org/2000/svg"
   xmlns:sodipodi="http://sodipodi.sourceforge.net/DTD/sodipodi-0.dtd"
   xmlns:inkscape="http://www.inkscape.org/namespaces/inkscape"
   version="1.1"
   width="11"
   height="11"
   id="svg4764"
   xml:space="preserve"
   inkscape:version="0.91+devel+osxmenu r12911"
   sodipodi:docname="laundry-11.svg"
   viewBox="0 0 11 11"><sodipodi:namedview
     pagecolor="#000000"
     bordercolor="#666666"
     borderopacity="1"
     objecttolerance="10"
     gridtolerance="10"
     guidetolerance="10"
     inkscape:pageopacity="0"
     inkscape:pageshadow="2"
     inkscape:window-width="640"
     inkscape:window-height="480"
     id="namedview3423"
     inkscape:document-units="px"
     showgrid="false"
     inkscape:zoom="40.433651"
     inkscape:cx="7.2566211"
     inkscape:cy="5.3007955"
     inkscape:current-layer="svg4764" /><metadata
     id="metadata27"><rdf:RDF><cc:Work
         rdf:about=""><dc:format>image/svg+xml</dc:format><dc:type
           rdf:resource="http://purl.org/dc/dcmitype/StillImage" /></cc:Work></rdf:RDF></metadata><defs
     id="defs25" /><path style="fill:#000000;fill-opacity:1"
     d="m 4.8888887,0 -2.4444445,2.4444444 -1.2222222,0 0,8.5555556 8.555556,0 0,-11 -1.2222227,0 z m 0,1.2222222 1.2222222,0 0,1.2222222 -1.2222222,0 z m 2.4444444,0 1.2222222,0 0,1.2222222 -1.2222222,0 z m -2.4444444,2.4444445 1.2222222,0 2.4444444,2.4444444 0,1.2222222 -2.4444444,2.4444445 -1.2222222,0 -2.4444445,-2.4444445 0,-1.2222222 z m -1.2222223,2.4444444 0,1.2222222 1.2222223,0 0,1.2222223 1.2222222,0 0,-1.2222223 1.2222222,0 0,-1.2222222 z"
     inkscape:connector-curvature="0"
     id="path3291"
      /></svg>
