<?xml version="1.0" encoding="utf-8"?>
<!-- Generator: Adobe Illustrator 17.1.0, SVG Export Plug-In . SVG Version: 6.00 Build 0)  -->
<!DOCTYPE svg PUBLIC "-//W3C//DTD SVG 1.1//EN" "http://www.w3.org/Graphics/SVG/1.1/DTD/svg11.dtd">
<svg version="1.1"
	 id="svg4619" xmlns:cc="http://creativecommons.org/ns#" xmlns:svg="http://www.w3.org/2000/svg" xmlns:inkscape="http://www.inkscape.org/namespaces/inkscape" xmlns:rdf="http://www.w3.org/1999/02/22-rdf-syntax-ns#" xmlns:dc="http://purl.org/dc/elements/1.1/"
	 xmlns="http://www.w3.org/2000/svg" xmlns:xlink="http://www.w3.org/1999/xlink" x="0px" y="0px" viewBox="0 0 17 17"
	 enable-background="new 0 0 17 17" xml:space="preserve">
<path style="fill:#000000;fill-opacity:1" id="rect4496-2-0" inkscape:connector-curvature="0" d="M0.8,0C0,0,0,0.8,0,0.8v3.9v8.5v3.1c0,0,0,0.8,0.8,0.8
	c0.2,0,0.5,0,0.8,0c0.8,0,0.8-0.8,0.8-0.8v-2.3h2.3v2.3c0,0,0,0.8,0.8,0.8c0.2,0,0.6,0,0.8,0c0.8,0,0.8-0.8,0.8-0.8v-2.3h2.3v2.3
	c0,0,0,0.8,0.8,0.8c0.2,0,0.6,0,0.8,0c0.8,0,0.8-0.8,0.8-0.8v-2.3h2.3v2.3c0,0,0,0.8,0.8,0.8c0.3,0,0.6,0,0.8,0
	c0.8,0,0.8-0.8,0.8-0.8V0.8c0,0,0-0.8-0.8-0.8c-0.3,0-0.6,0-0.8,0c-0.8,0-0.8,0.8-0.8,0.8v3.1h-2.3V0.8c0,0,0-0.8-0.8-0.8
	c-0.1,0-0.5,0-0.8,0C9.2,0,9.2,0.8,9.2,0.8v3.1H6.9V0.8c0,0,0-0.8-0.8-0.8C6,0,5.7,0,5.4,0C4.6,0,4.6,0.8,4.6,0.8v3.1H2.3V0.8
	c0,0,0-0.8-0.8-0.8C1.2,0,0.9,0,0.8,0z M2.3,6.2h2.3v5.4H2.3V6.2z M6.9,6.2h2.3v5.4H6.9V6.2z M11.6,6.2h2.3v5.4h-2.3V6.2z"/>
</svg>
