<?xml version="1.0" encoding="utf-8"?>
<!-- Generator: Adobe Illustrator 17.1.0, SVG Export Plug-In . SVG Version: 6.00 Build 0)  -->
<!DOCTYPE svg PUBLIC "-//W3C//DTD SVG 1.1//EN" "http://www.w3.org/Graphics/SVG/1.1/DTD/svg11.dtd">
<svg version="1.1"
	 id="svg4619" xmlns:cc="http://creativecommons.org/ns#" xmlns:svg="http://www.w3.org/2000/svg" xmlns:rdf="http://www.w3.org/1999/02/22-rdf-syntax-ns#" xmlns:dc="http://purl.org/dc/elements/1.1/"
	 xmlns="http://www.w3.org/2000/svg" xmlns:xlink="http://www.w3.org/1999/xlink" x="0px" y="0px" viewBox="0 0 17 17"
	 enable-background="new 0 0 17 17" xml:space="preserve">
<path style="fill:#000000;fill-opacity:1" id="rect3226" d="M5.1,0L1.3,3.9v6.9v1c0,0.7,0.6,1.3,1.3,1.3h11.8c0.7,0,1.3-0.6,1.3-1.3v-1V3.9L11.9,0H5.1z M6.5,1.3h3.9v1.3
	H6.5V1.3z M3.9,3.9h9.2v3.9H3.9V3.9z M3.9,9.2h2v2h-2V9.2z M11.1,9.2h2v2h-2V9.2z M2.6,14.4v1.3H1.3V17h5.2v-2.6H2.6z M10.5,14.4V17
	h5.2v-1.3h-1.3v-1.3H10.5z"/>
</svg>
