<?xml version="1.0" encoding="utf-8"?>
<!-- Generator: Adobe Illustrator 17.1.0, SVG Export Plug-In . SVG Version: 6.00 Build 0)  -->
<!DOCTYPE svg PUBLIC "-//W3C//DTD SVG 1.1//EN" "http://www.w3.org/Graphics/SVG/1.1/DTD/svg11.dtd">
<svg version="1.1"
	 id="svg4764" xmlns:cc="http://creativecommons.org/ns#" xmlns:svg="http://www.w3.org/2000/svg" xmlns:rdf="http://www.w3.org/1999/02/22-rdf-syntax-ns#" xmlns:dc="http://purl.org/dc/elements/1.1/"
	 xmlns="http://www.w3.org/2000/svg" xmlns:xlink="http://www.w3.org/1999/xlink" x="0px" y="0px" viewBox="0 0 11 11"
	 enable-background="new 0 0 11 11" xml:space="preserve">
<path style="fill:#000000;fill-opacity:1" id="rect7645-6-5-0-0-5" d="M5.5,0.1L1.2,2.5h8.5L5.5,0.1z M1.8,3.7C1.5,3.7,1.2,4,1.2,4.3v4.2v1.2L0,11h10.9L9.7,9.8V8.6V4.3
	c0-0.3-0.3-0.6-0.6-0.6H1.8z M2.4,5.5L3,4.9l0.6,0.6v3H2.4V5.5z M4.8,5.5l0.6-0.6l0.6,0.6v3H4.8V5.5z M7.3,5.5l0.6-0.6l0.6,0.6v3
	H7.3V5.5z"/>
</svg>
