<svg viewBox="-293 192 18 18" width="18" height="18" data-reactid=".0.1.1.$circle-15=1svg47.0.0"><path d="m -277,200.5 a 7.5,7.5 0 0 1 -7.5,7.5 7.5,7.5 0 0 1 -7.5,-7.5 7.5,7.5 0 0 1 7.5,-7.5 7.5,7.5 0 0 1 7.5,7.5 z" style="stroke-linejoin:round;stroke-miterlimit:4px;" fill="#fff" stroke="#fff" stroke-width="1" data-reactid=".0.1.1.$circle-15=1svg47.0.0.2:$circle-15=1svg-0-fill"></path><path d="m -277,200.5 a 7.5,7.5 0 0 1 -7.5,7.5 7.5,7.5 0 0 1 -7.5,-7.5 7.5,7.5 0 0 1 7.5,-7.5 7.5,7.5 0 0 1 7.5,7.5 z" style="stroke-linejoin:round;stroke-miterlimit:4px;" fill="#fff" stroke="#fff" stroke-width="1" data-reactid=".0.1.1.$circle-15=1svg47.0.0.2:$circle-15=1svg-1-fill"></path><path fill="#828282" d="m -277,200.5 a 7.5,7.5 0 0 1 -7.5,7.5 7.5,7.5 0 0 1 -7.5,-7.5 7.5,7.5 0 0 1 7.5,-7.5 7.5,7.5 0 0 1 7.5,7.5 z" data-reactid=".0.1.1.$circle-15=1svg47.0.0.3:$circle-15=1svg-0-fill"></path><path fill="#828282" d="m -277,200.5 a 7.5,7.5 0 0 1 -7.5,7.5 7.5,7.5 0 0 1 -7.5,-7.5 7.5,7.5 0 0 1 7.5,-7.5 7.5,7.5 0 0 1 7.5,7.5 z" data-reactid=".0.1.1.$circle-15=1svg47.0.0.3:$circle-15=1svg-1-fill"></path></svg>