<svg viewBox="-1 -1 14 14" width="14" height="14" data-reactid=".0.1.1.$religious-christian-11=1svg128.0.0"><path d="M 4.5 0 L 4.5 3 L 2 3 L 2 5 L 4.5 5 L 4.5 11 L 6.5 11 L 6.5 5 L 9 5 L 9 3 L 6.5 3 L 6.5 0 L 4.5 0 z " style="stroke-linejoin:round;stroke-miterlimit:4px;" fill="#fff" stroke="#fff" stroke-width="1" data-reactid=".0.1.1.$religious-christian-11=1svg128.0.0.2:$religious-christian-11=1svg-0-fill"></path><path d="M 4.5 0 L 4.5 3 L 2 3 L 2 5 L 4.5 5 L 4.5 11 L 6.5 11 L 6.5 5 L 9 5 L 9 3 L 6.5 3 L 6.5 0 L 4.5 0 z " style="stroke-linejoin:round;stroke-miterlimit:4px;" fill="#fff" stroke="#fff" stroke-width="1" data-reactid=".0.1.1.$religious-christian-11=1svg128.0.0.2:$religious-christian-11=1svg-1-fill"></path><path fill="#828282" d="M 4.5 0 L 4.5 3 L 2 3 L 2 5 L 4.5 5 L 4.5 11 L 6.5 11 L 6.5 5 L 9 5 L 9 3 L 6.5 3 L 6.5 0 L 4.5 0 z " data-reactid=".0.1.1.$religious-christian-11=1svg128.0.0.3:$religious-christian-11=1svg-0-fill"></path><path fill="#828282" d="M 4.5 0 L 4.5 3 L 2 3 L 2 5 L 4.5 5 L 4.5 11 L 6.5 11 L 6.5 5 L 9 5 L 9 3 L 6.5 3 L 6.5 0 L 4.5 0 z " data-reactid=".0.1.1.$religious-christian-11=1svg128.0.0.3:$religious-christian-11=1svg-1-fill"></path></svg>