<svg viewBox="-2 -2 16 16" width="16" height="16" data-reactid=".0.1.1.$america-football-11=1svg6.0.0"><path d="M 5.4999999,2.4999997 C 1.5,2.4999997 0,6 0,6 0,6 1.5,9.5000002 5.5000001,9.4999998 9.5,9.4999997 11,5.9999998 11,5.9999998 c 0,0 -1.4999999,-3.4999999 -5.5000001,-3.5000001 z m 2.5000002,4.0000001 -1,0 0,0.5000001 c 0,0.2999999 -0.2,0.5 -0.5,0.5 -0.3,-10e-8 -0.5,-0.2000001 -0.5,-0.5 l 0,-0.5000001 -1,0 0,0.5000001 c 0,0.2999999 -0.2000001,0.4999999 -0.5000001,0.5 -0.3,0 -0.5,-0.2000001 -0.5,-0.5 l 0,-0.5000001 -1,0 c -0.3,0 -0.5,-0.1999999 -0.5,-0.5 C 2.5,5.7000001 2.7,5.5000001 3,5.4999999 l 1,-10e-8 0,-0.5 c 0,-0.2999999 0.2,-0.5 0.5,-0.5 0.3,10e-8 0.5000001,0.2000001 0.5000001,0.5 l 0,0.5 1,0 0,-0.5 c 0,-0.2999999 0.2,-0.4999999 0.5,-0.5 0.3,0 0.5,0.2000001 0.5,0.5 l 0,0.5 1,10e-8 c 0.3,-10e-8 0.5,0.1999999 0.4999999,0.4999999 10e-8,0.3000001 -0.1999999,0.5 -0.4999999,0.5 z" style="stroke-linejoin:round;stroke-miterlimit:4px;" fill="#ffffff" stroke="#ffffff" stroke-width="3" data-reactid=".0.1.1.$america-football-11=1svg6.0.0.2:$america-football-11=1svg-0-fill"></path><path d="M 5.4999999,2.4999997 C 1.5,2.4999997 0,6 0,6 0,6 1.5,9.5000002 5.5000001,9.4999998 9.5,9.4999997 11,5.9999998 11,5.9999998 c 0,0 -1.4999999,-3.4999999 -5.5000001,-3.5000001 z m 2.5000002,4.0000001 -1,0 0,0.5000001 c 0,0.2999999 -0.2,0.5 -0.5,0.5 -0.3,-10e-8 -0.5,-0.2000001 -0.5,-0.5 l 0,-0.5000001 -1,0 0,0.5000001 c 0,0.2999999 -0.2000001,0.4999999 -0.5000001,0.5 -0.3,0 -0.5,-0.2000001 -0.5,-0.5 l 0,-0.5000001 -1,0 c -0.3,0 -0.5,-0.1999999 -0.5,-0.5 C 2.5,5.7000001 2.7,5.5000001 3,5.4999999 l 1,-10e-8 0,-0.5 c 0,-0.2999999 0.2,-0.5 0.5,-0.5 0.3,10e-8 0.5000001,0.2000001 0.5000001,0.5 l 0,0.5 1,0 0,-0.5 c 0,-0.2999999 0.2,-0.4999999 0.5,-0.5 0.3,0 0.5,0.2000001 0.5,0.5 l 0,0.5 1,10e-8 c 0.3,-10e-8 0.5,0.1999999 0.4999999,0.4999999 10e-8,0.3000001 -0.1999999,0.5 -0.4999999,0.5 z" style="stroke-linejoin:round;stroke-miterlimit:4px;" fill="#ffffff" stroke="#ffffff" stroke-width="3" data-reactid=".0.1.1.$america-football-11=1svg6.0.0.2:$america-football-11=1svg-1-fill"></path><path fill="#262525" d="M 5.4999999,2.4999997 C 1.5,2.4999997 0,6 0,6 0,6 1.5,9.5000002 5.5000001,9.4999998 9.5,9.4999997 11,5.9999998 11,5.9999998 c 0,0 -1.4999999,-3.4999999 -5.5000001,-3.5000001 z m 2.5000002,4.0000001 -1,0 0,0.5000001 c 0,0.2999999 -0.2,0.5 -0.5,0.5 -0.3,-10e-8 -0.5,-0.2000001 -0.5,-0.5 l 0,-0.5000001 -1,0 0,0.5000001 c 0,0.2999999 -0.2000001,0.4999999 -0.5000001,0.5 -0.3,0 -0.5,-0.2000001 -0.5,-0.5 l 0,-0.5000001 -1,0 c -0.3,0 -0.5,-0.1999999 -0.5,-0.5 C 2.5,5.7000001 2.7,5.5000001 3,5.4999999 l 1,-10e-8 0,-0.5 c 0,-0.2999999 0.2,-0.5 0.5,-0.5 0.3,10e-8 0.5000001,0.2000001 0.5000001,0.5 l 0,0.5 1,0 0,-0.5 c 0,-0.2999999 0.2,-0.4999999 0.5,-0.5 0.3,0 0.5,0.2000001 0.5,0.5 l 0,0.5 1,10e-8 c 0.3,-10e-8 0.5,0.1999999 0.4999999,0.4999999 10e-8,0.3000001 -0.1999999,0.5 -0.4999999,0.5 z" data-reactid=".0.1.1.$america-football-11=1svg6.0.0.3:$america-football-11=1svg-0-fill"></path><path fill="#262525" d="M 5.4999999,2.4999997 C 1.5,2.4999997 0,6 0,6 0,6 1.5,9.5000002 5.5000001,9.4999998 9.5,9.4999997 11,5.9999998 11,5.9999998 c 0,0 -1.4999999,-3.4999999 -5.5000001,-3.5000001 z m 2.5000002,4.0000001 -1,0 0,0.5000001 c 0,0.2999999 -0.2,0.5 -0.5,0.5 -0.3,-10e-8 -0.5,-0.2000001 -0.5,-0.5 l 0,-0.5000001 -1,0 0,0.5000001 c 0,0.2999999 -0.2000001,0.4999999 -0.5000001,0.5 -0.3,0 -0.5,-0.2000001 -0.5,-0.5 l 0,-0.5000001 -1,0 c -0.3,0 -0.5,-0.1999999 -0.5,-0.5 C 2.5,5.7000001 2.7,5.5000001 3,5.4999999 l 1,-10e-8 0,-0.5 c 0,-0.2999999 0.2,-0.5 0.5,-0.5 0.3,10e-8 0.5000001,0.2000001 0.5000001,0.5 l 0,0.5 1,0 0,-0.5 c 0,-0.2999999 0.2,-0.4999999 0.5,-0.5 0.3,0 0.5,0.2000001 0.5,0.5 l 0,0.5 1,10e-8 c 0.3,-10e-8 0.5,0.1999999 0.4999999,0.4999999 10e-8,0.3000001 -0.1999999,0.5 -0.4999999,0.5 z" data-reactid=".0.1.1.$america-football-11=1svg6.0.0.3:$america-football-11=1svg-1-fill"></path></svg>