<svg viewBox="-294 191 20 20" width="20" height="20" data-reactid=".0.1.1.$aquarium-15=1svg11.0.0"><path d="M-281.1,204.8c-0.3-0.6-0.3-2.3,0-2.8c0.4-0.6,3.4,1.4,3.4,1.4c0.9,0.4,0.9-6.1,0-5.7c0,0-3.1,2.1-3.4,1.4
	c-0.3-0.7-0.3-2.1,0-2.8c0.3-0.6,4.1-0.7,4.1-0.7c0-0.7-2.9-1.4-4.1-1.4s-2.5,0.1-4.1,0.8c-1.6,0.6-2.9,1.6-4.1,2.8
	c-1.2,1.2-2.7,3.6-2.7,4.3s1.5,2.8,3.7,3.7s3.3,1.1,4.5,1.3c1.1,0.1,2.6,0,3.9-0.3c1-0.2,2.9-0.7,2.9-1.1
	C-277,205.5-280.8,205.4-281.1,204.8z M-287.5,202.5c-0.8,0-1.5-0.7-1.5-1.5s0.7-1.5,1.5-1.5s1.5,0.7,1.5,1.5
	S-286.7,202.5-287.5,202.5z" style="stroke-linejoin:round;stroke-miterlimit:4px;" fill="#ffffff" stroke="#ffffff" stroke-width="3" data-reactid=".0.1.1.$aquarium-15=1svg11.0.0.2:$aquarium-15=1svg-0-fill"></path><path d="M-281.1,204.8c-0.3-0.6-0.3-2.3,0-2.8c0.4-0.6,3.4,1.4,3.4,1.4c0.9,0.4,0.9-6.1,0-5.7c0,0-3.1,2.1-3.4,1.4
	c-0.3-0.7-0.3-2.1,0-2.8c0.3-0.6,4.1-0.7,4.1-0.7c0-0.7-2.9-1.4-4.1-1.4s-2.5,0.1-4.1,0.8c-1.6,0.6-2.9,1.6-4.1,2.8
	c-1.2,1.2-2.7,3.6-2.7,4.3s1.5,2.8,3.7,3.7s3.3,1.1,4.5,1.3c1.1,0.1,2.6,0,3.9-0.3c1-0.2,2.9-0.7,2.9-1.1
	C-277,205.5-280.8,205.4-281.1,204.8z M-287.5,202.5c-0.8,0-1.5-0.7-1.5-1.5s0.7-1.5,1.5-1.5s1.5,0.7,1.5,1.5
	S-286.7,202.5-287.5,202.5z" style="stroke-linejoin:round;stroke-miterlimit:4px;" fill="#ffffff" stroke="#ffffff" stroke-width="3" data-reactid=".0.1.1.$aquarium-15=1svg11.0.0.2:$aquarium-15=1svg-1-fill"></path><path fill="#262525" d="M-281.1,204.8c-0.3-0.6-0.3-2.3,0-2.8c0.4-0.6,3.4,1.4,3.4,1.4c0.9,0.4,0.9-6.1,0-5.7c0,0-3.1,2.1-3.4,1.4
	c-0.3-0.7-0.3-2.1,0-2.8c0.3-0.6,4.1-0.7,4.1-0.7c0-0.7-2.9-1.4-4.1-1.4s-2.5,0.1-4.1,0.8c-1.6,0.6-2.9,1.6-4.1,2.8
	c-1.2,1.2-2.7,3.6-2.7,4.3s1.5,2.8,3.7,3.7s3.3,1.1,4.5,1.3c1.1,0.1,2.6,0,3.9-0.3c1-0.2,2.9-0.7,2.9-1.1
	C-277,205.5-280.8,205.4-281.1,204.8z M-287.5,202.5c-0.8,0-1.5-0.7-1.5-1.5s0.7-1.5,1.5-1.5s1.5,0.7,1.5,1.5
	S-286.7,202.5-287.5,202.5z" data-reactid=".0.1.1.$aquarium-15=1svg11.0.0.3:$aquarium-15=1svg-0-fill"></path><path fill="#262525" d="M-281.1,204.8c-0.3-0.6-0.3-2.3,0-2.8c0.4-0.6,3.4,1.4,3.4,1.4c0.9,0.4,0.9-6.1,0-5.7c0,0-3.1,2.1-3.4,1.4
	c-0.3-0.7-0.3-2.1,0-2.8c0.3-0.6,4.1-0.7,4.1-0.7c0-0.7-2.9-1.4-4.1-1.4s-2.5,0.1-4.1,0.8c-1.6,0.6-2.9,1.6-4.1,2.8
	c-1.2,1.2-2.7,3.6-2.7,4.3s1.5,2.8,3.7,3.7s3.3,1.1,4.5,1.3c1.1,0.1,2.6,0,3.9-0.3c1-0.2,2.9-0.7,2.9-1.1
	C-277,205.5-280.8,205.4-281.1,204.8z M-287.5,202.5c-0.8,0-1.5-0.7-1.5-1.5s0.7-1.5,1.5-1.5s1.5,0.7,1.5,1.5
	S-286.7,202.5-287.5,202.5z" data-reactid=".0.1.1.$aquarium-15=1svg11.0.0.3:$aquarium-15=1svg-1-fill"></path></svg>