<svg viewBox="-2 -2 16 16" width="16" height="16" data-reactid=".0.1.1.$bakery-11=1svg16.0.0"><path d="m 4.5,2 c -1,0 -1,1 -1,1 L 5,7.5 C 5,7.5 5,8 5.5,8 6,8 6,7.5 6,7.5 L 7.5,3 c 0,0 0,-1 -1,-1 z m 4.5,1.5 -2,4 1.5,0 1,1 0.5,0 c 1,0 1,-0.9 1,-0.9 L 11,6.3 Z M 0,6.3 0,7.5 c 0,0 0.02960301,1.0097438 0.99999997,1 C 1.970397,8.49026 1.5,8.5 1.5,8.5 l 1,-1 1.5,0 -2,-4 z" style="stroke-linejoin:round;stroke-miterlimit:4px;" fill="#ffffff" stroke="#ffffff" stroke-width="3" data-reactid=".0.1.1.$bakery-11=1svg16.0.0.2:$bakery-11=1svg-0-fill"></path><path d="m 4.5,2 c -1,0 -1,1 -1,1 L 5,7.5 C 5,7.5 5,8 5.5,8 6,8 6,7.5 6,7.5 L 7.5,3 c 0,0 0,-1 -1,-1 z m 4.5,1.5 -2,4 1.5,0 1,1 0.5,0 c 1,0 1,-0.9 1,-0.9 L 11,6.3 Z M 0,6.3 0,7.5 c 0,0 0.02960301,1.0097438 0.99999997,1 C 1.970397,8.49026 1.5,8.5 1.5,8.5 l 1,-1 1.5,0 -2,-4 z" style="stroke-linejoin:round;stroke-miterlimit:4px;" fill="#ffffff" stroke="#ffffff" stroke-width="3" data-reactid=".0.1.1.$bakery-11=1svg16.0.0.2:$bakery-11=1svg-1-fill"></path><path fill="#262525" d="m 4.5,2 c -1,0 -1,1 -1,1 L 5,7.5 C 5,7.5 5,8 5.5,8 6,8 6,7.5 6,7.5 L 7.5,3 c 0,0 0,-1 -1,-1 z m 4.5,1.5 -2,4 1.5,0 1,1 0.5,0 c 1,0 1,-0.9 1,-0.9 L 11,6.3 Z M 0,6.3 0,7.5 c 0,0 0.02960301,1.0097438 0.99999997,1 C 1.970397,8.49026 1.5,8.5 1.5,8.5 l 1,-1 1.5,0 -2,-4 z" data-reactid=".0.1.1.$bakery-11=1svg16.0.0.3:$bakery-11=1svg-0-fill"></path><path fill="#262525" d="m 4.5,2 c -1,0 -1,1 -1,1 L 5,7.5 C 5,7.5 5,8 5.5,8 6,8 6,7.5 6,7.5 L 7.5,3 c 0,0 0,-1 -1,-1 z m 4.5,1.5 -2,4 1.5,0 1,1 0.5,0 c 1,0 1,-0.9 1,-0.9 L 11,6.3 Z M 0,6.3 0,7.5 c 0,0 0.02960301,1.0097438 0.99999997,1 C 1.970397,8.49026 1.5,8.5 1.5,8.5 l 1,-1 1.5,0 -2,-4 z" data-reactid=".0.1.1.$bakery-11=1svg16.0.0.3:$bakery-11=1svg-1-fill"></path></svg>