<svg viewBox="-2 -2 16 16" width="16" height="16" data-reactid=".0.1.1.$basketball-11=1svg24.0.0"><path d="M 3 1 L 0 3 L 0 6.96875 L 1.0019531 8 L 2 8 L 4 11 L 7 11 L 9 8 L 10 8 L 11 7 L 11 3 L 8 1 L 3 1 z M 3 3 L 8 3 L 8 6 L 3 6 L 3 3 z M 4 4 L 4 5 L 7 5 L 7 4 L 4 4 z M 3.5 8 L 5 8 L 5 9 L 6 9 L 6 8 L 7.5 8 L 7 9 L 6 9 L 6 10 L 5 10 L 5 9 L 4 9 L 3.5 8 z " style="stroke-linejoin:round;stroke-miterlimit:4px;" fill="#ffffff" stroke="#ffffff" stroke-width="3" data-reactid=".0.1.1.$basketball-11=1svg24.0.0.2:$basketball-11=1svg-0-fill"></path><path d="M 3 1 L 0 3 L 0 6.96875 L 1.0019531 8 L 2 8 L 4 11 L 7 11 L 9 8 L 10 8 L 11 7 L 11 3 L 8 1 L 3 1 z M 3 3 L 8 3 L 8 6 L 3 6 L 3 3 z M 4 4 L 4 5 L 7 5 L 7 4 L 4 4 z M 3.5 8 L 5 8 L 5 9 L 6 9 L 6 8 L 7.5 8 L 7 9 L 6 9 L 6 10 L 5 10 L 5 9 L 4 9 L 3.5 8 z " style="stroke-linejoin:round;stroke-miterlimit:4px;" fill="#ffffff" stroke="#ffffff" stroke-width="3" data-reactid=".0.1.1.$basketball-11=1svg24.0.0.2:$basketball-11=1svg-1-fill"></path><path fill="#262525" d="M 3 1 L 0 3 L 0 6.96875 L 1.0019531 8 L 2 8 L 4 11 L 7 11 L 9 8 L 10 8 L 11 7 L 11 3 L 8 1 L 3 1 z M 3 3 L 8 3 L 8 6 L 3 6 L 3 3 z M 4 4 L 4 5 L 7 5 L 7 4 L 4 4 z M 3.5 8 L 5 8 L 5 9 L 6 9 L 6 8 L 7.5 8 L 7 9 L 6 9 L 6 10 L 5 10 L 5 9 L 4 9 L 3.5 8 z " data-reactid=".0.1.1.$basketball-11=1svg24.0.0.3:$basketball-11=1svg-0-fill"></path><path fill="#262525" d="M 3 1 L 0 3 L 0 6.96875 L 1.0019531 8 L 2 8 L 4 11 L 7 11 L 9 8 L 10 8 L 11 7 L 11 3 L 8 1 L 3 1 z M 3 3 L 8 3 L 8 6 L 3 6 L 3 3 z M 4 4 L 4 5 L 7 5 L 7 4 L 4 4 z M 3.5 8 L 5 8 L 5 9 L 6 9 L 6 8 L 7.5 8 L 7 9 L 6 9 L 6 10 L 5 10 L 5 9 L 4 9 L 3.5 8 z " data-reactid=".0.1.1.$basketball-11=1svg24.0.0.3:$basketball-11=1svg-1-fill"></path></svg>