<svg viewBox="-2 -2 16 16" width="16" height="16" data-reactid=".0.1.1.$cemetery-11=1svg42.0.0"><path d="M 5.5 1 C 3.1020413 1 2 2.9375 2 5 L 2 7 L 9 7 L 9 5 C 9 3 7.8979574 1 5.5 1 z M 4 3.5 L 7 3.5 L 7 4 L 4 4 L 4 3.5 z M 4 4.5 L 7 4.5 L 7 5 L 4 5 L 4 4.5 z M 2 8 C 2 8 2 9 1.5 9 L 1.5 10 L 9.5 10 L 9.5 9 C 9 9 9 8 9 8 L 2 8 z " style="stroke-linejoin:round;stroke-miterlimit:4px;" fill="#ffffff" stroke="#ffffff" stroke-width="3" data-reactid=".0.1.1.$cemetery-11=1svg42.0.0.2:$cemetery-11=1svg-0-fill"></path><path d="M 5.5 1 C 3.1020413 1 2 2.9375 2 5 L 2 7 L 9 7 L 9 5 C 9 3 7.8979574 1 5.5 1 z M 4 3.5 L 7 3.5 L 7 4 L 4 4 L 4 3.5 z M 4 4.5 L 7 4.5 L 7 5 L 4 5 L 4 4.5 z M 2 8 C 2 8 2 9 1.5 9 L 1.5 10 L 9.5 10 L 9.5 9 C 9 9 9 8 9 8 L 2 8 z " style="stroke-linejoin:round;stroke-miterlimit:4px;" fill="#ffffff" stroke="#ffffff" stroke-width="3" data-reactid=".0.1.1.$cemetery-11=1svg42.0.0.2:$cemetery-11=1svg-1-fill"></path><path fill="#262525" d="M 5.5 1 C 3.1020413 1 2 2.9375 2 5 L 2 7 L 9 7 L 9 5 C 9 3 7.8979574 1 5.5 1 z M 4 3.5 L 7 3.5 L 7 4 L 4 4 L 4 3.5 z M 4 4.5 L 7 4.5 L 7 5 L 4 5 L 4 4.5 z M 2 8 C 2 8 2 9 1.5 9 L 1.5 10 L 9.5 10 L 9.5 9 C 9 9 9 8 9 8 L 2 8 z " data-reactid=".0.1.1.$cemetery-11=1svg42.0.0.3:$cemetery-11=1svg-0-fill"></path><path fill="#262525" d="M 5.5 1 C 3.1020413 1 2 2.9375 2 5 L 2 7 L 9 7 L 9 5 C 9 3 7.8979574 1 5.5 1 z M 4 3.5 L 7 3.5 L 7 4 L 4 4 L 4 3.5 z M 4 4.5 L 7 4.5 L 7 5 L 4 5 L 4 4.5 z M 2 8 C 2 8 2 9 1.5 9 L 1.5 10 L 9.5 10 L 9.5 9 C 9 9 9 8 9 8 L 2 8 z " data-reactid=".0.1.1.$cemetery-11=1svg42.0.0.3:$cemetery-11=1svg-1-fill"></path></svg>