<svg viewBox="-2 -2 16 16" width="16" height="16" data-reactid=".0.1.1.$cinema-11=1svg44.0.0"><path d="M 3 1 C 1.8954305 1 1 1.8954305 1 3 C 1 4.1045695 1.8954305 5 3 5 C 4.1045695 5 5 4.1045695 5 3 C 5 1.8954305 4.1045695 1 3 1 z M 5 3 C 5 4.1045695 5.8954305 5 7 5 C 8.1045695 5 9 4.1045695 9 3 C 9 1.8954305 8.1045695 1 7 1 C 5.8954305 1 5 1.8954305 5 3 z M 7 5 L 4.5 5 L 3 5 L 2 5 L 0.5 5 C 0.223 5 0 5.223 0 5.5 C 0 5.777 0.223 6 0.5 6 L 1 6 L 1 8 C 1 8.554 1.446 9 2 9 L 7 9 C 7.554 9 8 8.554 8 8 L 8 7 L 9.5 7.5 L 10 8 L 11 8 L 11 5 L 10 5 L 9.5 5.5 L 8 6 C 8 5.446 7.554 5 7 5 z M 3 2 C 3.5522847 2 4 2.4477153 4 3 C 4 3.5522847 3.5522847 4 3 4 C 2.4477153 4 2 3.5522847 2 3 C 2 2.4477153 2.4477153 2 3 2 z M 7 2 C 7.5522847 2 8 2.4477153 8 3 C 8 3.5522847 7.5522847 4 7 4 C 6.4477153 4 6 3.5522847 6 3 C 6 2.4477153 6.4477153 2 7 2 z " style="stroke-linejoin:round;stroke-miterlimit:4px;" fill="#ffffff" stroke="#ffffff" stroke-width="3" data-reactid=".0.1.1.$cinema-11=1svg44.0.0.2:$cinema-11=1svg-0-fill"></path><path d="M 3 1 C 1.8954305 1 1 1.8954305 1 3 C 1 4.1045695 1.8954305 5 3 5 C 4.1045695 5 5 4.1045695 5 3 C 5 1.8954305 4.1045695 1 3 1 z M 5 3 C 5 4.1045695 5.8954305 5 7 5 C 8.1045695 5 9 4.1045695 9 3 C 9 1.8954305 8.1045695 1 7 1 C 5.8954305 1 5 1.8954305 5 3 z M 7 5 L 4.5 5 L 3 5 L 2 5 L 0.5 5 C 0.223 5 0 5.223 0 5.5 C 0 5.777 0.223 6 0.5 6 L 1 6 L 1 8 C 1 8.554 1.446 9 2 9 L 7 9 C 7.554 9 8 8.554 8 8 L 8 7 L 9.5 7.5 L 10 8 L 11 8 L 11 5 L 10 5 L 9.5 5.5 L 8 6 C 8 5.446 7.554 5 7 5 z M 3 2 C 3.5522847 2 4 2.4477153 4 3 C 4 3.5522847 3.5522847 4 3 4 C 2.4477153 4 2 3.5522847 2 3 C 2 2.4477153 2.4477153 2 3 2 z M 7 2 C 7.5522847 2 8 2.4477153 8 3 C 8 3.5522847 7.5522847 4 7 4 C 6.4477153 4 6 3.5522847 6 3 C 6 2.4477153 6.4477153 2 7 2 z " style="stroke-linejoin:round;stroke-miterlimit:4px;" fill="#ffffff" stroke="#ffffff" stroke-width="3" data-reactid=".0.1.1.$cinema-11=1svg44.0.0.2:$cinema-11=1svg-1-fill"></path><path fill="#262525" d="M 3 1 C 1.8954305 1 1 1.8954305 1 3 C 1 4.1045695 1.8954305 5 3 5 C 4.1045695 5 5 4.1045695 5 3 C 5 1.8954305 4.1045695 1 3 1 z M 5 3 C 5 4.1045695 5.8954305 5 7 5 C 8.1045695 5 9 4.1045695 9 3 C 9 1.8954305 8.1045695 1 7 1 C 5.8954305 1 5 1.8954305 5 3 z M 7 5 L 4.5 5 L 3 5 L 2 5 L 0.5 5 C 0.223 5 0 5.223 0 5.5 C 0 5.777 0.223 6 0.5 6 L 1 6 L 1 8 C 1 8.554 1.446 9 2 9 L 7 9 C 7.554 9 8 8.554 8 8 L 8 7 L 9.5 7.5 L 10 8 L 11 8 L 11 5 L 10 5 L 9.5 5.5 L 8 6 C 8 5.446 7.554 5 7 5 z M 3 2 C 3.5522847 2 4 2.4477153 4 3 C 4 3.5522847 3.5522847 4 3 4 C 2.4477153 4 2 3.5522847 2 3 C 2 2.4477153 2.4477153 2 3 2 z M 7 2 C 7.5522847 2 8 2.4477153 8 3 C 8 3.5522847 7.5522847 4 7 4 C 6.4477153 4 6 3.5522847 6 3 C 6 2.4477153 6.4477153 2 7 2 z " data-reactid=".0.1.1.$cinema-11=1svg44.0.0.3:$cinema-11=1svg-0-fill"></path><path fill="#262525" d="M 3 1 C 1.8954305 1 1 1.8954305 1 3 C 1 4.1045695 1.8954305 5 3 5 C 4.1045695 5 5 4.1045695 5 3 C 5 1.8954305 4.1045695 1 3 1 z M 5 3 C 5 4.1045695 5.8954305 5 7 5 C 8.1045695 5 9 4.1045695 9 3 C 9 1.8954305 8.1045695 1 7 1 C 5.8954305 1 5 1.8954305 5 3 z M 7 5 L 4.5 5 L 3 5 L 2 5 L 0.5 5 C 0.223 5 0 5.223 0 5.5 C 0 5.777 0.223 6 0.5 6 L 1 6 L 1 8 C 1 8.554 1.446 9 2 9 L 7 9 C 7.554 9 8 8.554 8 8 L 8 7 L 9.5 7.5 L 10 8 L 11 8 L 11 5 L 10 5 L 9.5 5.5 L 8 6 C 8 5.446 7.554 5 7 5 z M 3 2 C 3.5522847 2 4 2.4477153 4 3 C 4 3.5522847 3.5522847 4 3 4 C 2.4477153 4 2 3.5522847 2 3 C 2 2.4477153 2.4477153 2 3 2 z M 7 2 C 7.5522847 2 8 2.4477153 8 3 C 8 3.5522847 7.5522847 4 7 4 C 6.4477153 4 6 3.5522847 6 3 C 6 2.4477153 6.4477153 2 7 2 z " data-reactid=".0.1.1.$cinema-11=1svg44.0.0.3:$cinema-11=1svg-1-fill"></path></svg>