<svg viewBox="-2 -2 16 16" width="16" height="16" data-reactid=".0.1.1.$clothing-store-11=1svg50.0.0"><path d="m 2.5,1 -2,2 0,2 2,0 0,5 6,0 0,-5 2,0 0,-2 L 8.5,1 7,1 5.5,4 4,1 Z" style="stroke-linejoin:round;stroke-miterlimit:4px;" fill="#ffffff" stroke="#ffffff" stroke-width="3" data-reactid=".0.1.1.$clothing-store-11=1svg50.0.0.2:$clothing-store-11=1svg-0-fill"></path><path d="m 2.5,1 -2,2 0,2 2,0 0,5 6,0 0,-5 2,0 0,-2 L 8.5,1 7,1 5.5,4 4,1 Z" style="stroke-linejoin:round;stroke-miterlimit:4px;" fill="#ffffff" stroke="#ffffff" stroke-width="3" data-reactid=".0.1.1.$clothing-store-11=1svg50.0.0.2:$clothing-store-11=1svg-1-fill"></path><path fill="#262525" d="m 2.5,1 -2,2 0,2 2,0 0,5 6,0 0,-5 2,0 0,-2 L 8.5,1 7,1 5.5,4 4,1 Z" data-reactid=".0.1.1.$clothing-store-11=1svg50.0.0.3:$clothing-store-11=1svg-0-fill"></path><path fill="#262525" d="m 2.5,1 -2,2 0,2 2,0 0,5 6,0 0,-5 2,0 0,-2 L 8.5,1 7,1 5.5,4 4,1 Z" data-reactid=".0.1.1.$clothing-store-11=1svg50.0.0.3:$clothing-store-11=1svg-1-fill"></path></svg>