<svg viewBox="-296 193 16 16" width="16" height="16" data-reactid=".0.1.1.$doctor-11=1svg56.0.0"><path d="M-292,196c-0.5,0-1,0.5-1,1l0,0.5c0,0.5,0,1.2,0.5,2
	c0.7,1.1,1.5,1.5,1.5,2.5c0,1,0.3,1.6,0.8,2.2c0.5,0.5,1.3,0.8,2.2,0.8c0.9,0,1.6-0.3,2.2-0.8s0.8-1.3,0.8-2.2v-0.1
	c0.6-0.2,1-0.8,1-1.4c0-0.8-0.7-1.5-1.5-1.5c-0.8,0-1.5,0.7-1.5,1.5c0,0.6,0.4,1.2,1,1.4v0.1c0,0.6-0.2,1.1-0.5,1.5
	c-0.3,0.3-0.8,0.5-1.5,0.5c-0.6,0-1.1-0.2-1.5-0.5c-0.3-0.3-0.5-0.7-0.5-1.5c0-1,0.7-1.4,1.5-2.5c0.5-0.7,0.5-1.5,0.5-2V197
	c0-0.5-0.5-1-1-1l-0.5,0c-0.5,0-0.5,0.7,0,0.7l0.5,0c0.2,0,0.2,0.2,0.2,0.2l0,0.5c0,0.3-0.1,0.9-0.4,1.4s-0.6,0.8-1.4,0.8
	c-0.8,0-1.1-0.3-1.4-0.8c-0.3-0.5-0.4-1.1-0.4-1.5l0-0.5c0,0,0.1-0.2,0.3-0.2h0.5c0.5,0,0.5-0.8,0-0.8C-291.5,196-291.8,196-292,196
	z M-285.5,199.8c0.4,0,0.8,0.3,0.8,0.7c0,0.4-0.3,0.8-0.7,0.8c0,0,0,0,0,0c-0.4,0-0.8-0.3-0.8-0.7c0,0,0,0,0,0
	C-286.3,200.1-285.9,199.8-285.5,199.8z" style="stroke-linejoin:round;stroke-miterlimit:4px;" fill="#ffffff" stroke="#ffffff" stroke-width="3" data-reactid=".0.1.1.$doctor-11=1svg56.0.0.2:$doctor-11=1svg-0-fill"></path><path d="M-292,196c-0.5,0-1,0.5-1,1l0,0.5c0,0.5,0,1.2,0.5,2
	c0.7,1.1,1.5,1.5,1.5,2.5c0,1,0.3,1.6,0.8,2.2c0.5,0.5,1.3,0.8,2.2,0.8c0.9,0,1.6-0.3,2.2-0.8s0.8-1.3,0.8-2.2v-0.1
	c0.6-0.2,1-0.8,1-1.4c0-0.8-0.7-1.5-1.5-1.5c-0.8,0-1.5,0.7-1.5,1.5c0,0.6,0.4,1.2,1,1.4v0.1c0,0.6-0.2,1.1-0.5,1.5
	c-0.3,0.3-0.8,0.5-1.5,0.5c-0.6,0-1.1-0.2-1.5-0.5c-0.3-0.3-0.5-0.7-0.5-1.5c0-1,0.7-1.4,1.5-2.5c0.5-0.7,0.5-1.5,0.5-2V197
	c0-0.5-0.5-1-1-1l-0.5,0c-0.5,0-0.5,0.7,0,0.7l0.5,0c0.2,0,0.2,0.2,0.2,0.2l0,0.5c0,0.3-0.1,0.9-0.4,1.4s-0.6,0.8-1.4,0.8
	c-0.8,0-1.1-0.3-1.4-0.8c-0.3-0.5-0.4-1.1-0.4-1.5l0-0.5c0,0,0.1-0.2,0.3-0.2h0.5c0.5,0,0.5-0.8,0-0.8C-291.5,196-291.8,196-292,196
	z M-285.5,199.8c0.4,0,0.8,0.3,0.8,0.7c0,0.4-0.3,0.8-0.7,0.8c0,0,0,0,0,0c-0.4,0-0.8-0.3-0.8-0.7c0,0,0,0,0,0
	C-286.3,200.1-285.9,199.8-285.5,199.8z" style="stroke-linejoin:round;stroke-miterlimit:4px;" fill="#ffffff" stroke="#ffffff" stroke-width="3" data-reactid=".0.1.1.$doctor-11=1svg56.0.0.2:$doctor-11=1svg-1-fill"></path><path fill="#262525" d="M-292,196c-0.5,0-1,0.5-1,1l0,0.5c0,0.5,0,1.2,0.5,2
	c0.7,1.1,1.5,1.5,1.5,2.5c0,1,0.3,1.6,0.8,2.2c0.5,0.5,1.3,0.8,2.2,0.8c0.9,0,1.6-0.3,2.2-0.8s0.8-1.3,0.8-2.2v-0.1
	c0.6-0.2,1-0.8,1-1.4c0-0.8-0.7-1.5-1.5-1.5c-0.8,0-1.5,0.7-1.5,1.5c0,0.6,0.4,1.2,1,1.4v0.1c0,0.6-0.2,1.1-0.5,1.5
	c-0.3,0.3-0.8,0.5-1.5,0.5c-0.6,0-1.1-0.2-1.5-0.5c-0.3-0.3-0.5-0.7-0.5-1.5c0-1,0.7-1.4,1.5-2.5c0.5-0.7,0.5-1.5,0.5-2V197
	c0-0.5-0.5-1-1-1l-0.5,0c-0.5,0-0.5,0.7,0,0.7l0.5,0c0.2,0,0.2,0.2,0.2,0.2l0,0.5c0,0.3-0.1,0.9-0.4,1.4s-0.6,0.8-1.4,0.8
	c-0.8,0-1.1-0.3-1.4-0.8c-0.3-0.5-0.4-1.1-0.4-1.5l0-0.5c0,0,0.1-0.2,0.3-0.2h0.5c0.5,0,0.5-0.8,0-0.8C-291.5,196-291.8,196-292,196
	z M-285.5,199.8c0.4,0,0.8,0.3,0.8,0.7c0,0.4-0.3,0.8-0.7,0.8c0,0,0,0,0,0c-0.4,0-0.8-0.3-0.8-0.7c0,0,0,0,0,0
	C-286.3,200.1-285.9,199.8-285.5,199.8z" data-reactid=".0.1.1.$doctor-11=1svg56.0.0.3:$doctor-11=1svg-0-fill"></path><path fill="#262525" d="M-292,196c-0.5,0-1,0.5-1,1l0,0.5c0,0.5,0,1.2,0.5,2
	c0.7,1.1,1.5,1.5,1.5,2.5c0,1,0.3,1.6,0.8,2.2c0.5,0.5,1.3,0.8,2.2,0.8c0.9,0,1.6-0.3,2.2-0.8s0.8-1.3,0.8-2.2v-0.1
	c0.6-0.2,1-0.8,1-1.4c0-0.8-0.7-1.5-1.5-1.5c-0.8,0-1.5,0.7-1.5,1.5c0,0.6,0.4,1.2,1,1.4v0.1c0,0.6-0.2,1.1-0.5,1.5
	c-0.3,0.3-0.8,0.5-1.5,0.5c-0.6,0-1.1-0.2-1.5-0.5c-0.3-0.3-0.5-0.7-0.5-1.5c0-1,0.7-1.4,1.5-2.5c0.5-0.7,0.5-1.5,0.5-2V197
	c0-0.5-0.5-1-1-1l-0.5,0c-0.5,0-0.5,0.7,0,0.7l0.5,0c0.2,0,0.2,0.2,0.2,0.2l0,0.5c0,0.3-0.1,0.9-0.4,1.4s-0.6,0.8-1.4,0.8
	c-0.8,0-1.1-0.3-1.4-0.8c-0.3-0.5-0.4-1.1-0.4-1.5l0-0.5c0,0,0.1-0.2,0.3-0.2h0.5c0.5,0,0.5-0.8,0-0.8C-291.5,196-291.8,196-292,196
	z M-285.5,199.8c0.4,0,0.8,0.3,0.8,0.7c0,0.4-0.3,0.8-0.7,0.8c0,0,0,0,0,0c-0.4,0-0.8-0.3-0.8-0.7c0,0,0,0,0,0
	C-286.3,200.1-285.9,199.8-285.5,199.8z" data-reactid=".0.1.1.$doctor-11=1svg56.0.0.3:$doctor-11=1svg-1-fill"></path></svg>