<svg viewBox="-2 -2 16 16" width="16" height="16" data-reactid=".0.1.1.$embassy-11=1svg62.0.0"><path d="M 5.5 1 C 4.5 1 3.5 2.5 3.5 2.5 L 3.5 6.5 C 3.5 6.5 4.666667 5 5.5 5 C 6.5 5 7.028175 6.5 8 6.5 C 8.971825 6.5 10 5 10 5 L 10 1 C 10 1 8.971825 2.5 8 2.5 C 7.028175 2.5 6.5 1 5.5 1 z M 2.5 1.5 A 0.5 0.50000006 0 0 0 2 2 L 2 8 C 2 9 1 9 1 9 L 1 10 L 4 10 L 4 9 C 4 9 3 9 3 8 L 3 6.5 L 3 2 A 0.5 0.50000006 0 0 0 2.5 1.5 z " style="stroke-linejoin:round;stroke-miterlimit:4px;" fill="#ffffff" stroke="#ffffff" stroke-width="3" data-reactid=".0.1.1.$embassy-11=1svg62.0.0.2:$embassy-11=1svg-0-fill"></path><path d="M 5.5 1 C 4.5 1 3.5 2.5 3.5 2.5 L 3.5 6.5 C 3.5 6.5 4.666667 5 5.5 5 C 6.5 5 7.028175 6.5 8 6.5 C 8.971825 6.5 10 5 10 5 L 10 1 C 10 1 8.971825 2.5 8 2.5 C 7.028175 2.5 6.5 1 5.5 1 z M 2.5 1.5 A 0.5 0.50000006 0 0 0 2 2 L 2 8 C 2 9 1 9 1 9 L 1 10 L 4 10 L 4 9 C 4 9 3 9 3 8 L 3 6.5 L 3 2 A 0.5 0.50000006 0 0 0 2.5 1.5 z " style="stroke-linejoin:round;stroke-miterlimit:4px;" fill="#ffffff" stroke="#ffffff" stroke-width="3" data-reactid=".0.1.1.$embassy-11=1svg62.0.0.2:$embassy-11=1svg-1-fill"></path><path fill="#262525" d="M 5.5 1 C 4.5 1 3.5 2.5 3.5 2.5 L 3.5 6.5 C 3.5 6.5 4.666667 5 5.5 5 C 6.5 5 7.028175 6.5 8 6.5 C 8.971825 6.5 10 5 10 5 L 10 1 C 10 1 8.971825 2.5 8 2.5 C 7.028175 2.5 6.5 1 5.5 1 z M 2.5 1.5 A 0.5 0.50000006 0 0 0 2 2 L 2 8 C 2 9 1 9 1 9 L 1 10 L 4 10 L 4 9 C 4 9 3 9 3 8 L 3 6.5 L 3 2 A 0.5 0.50000006 0 0 0 2.5 1.5 z " data-reactid=".0.1.1.$embassy-11=1svg62.0.0.3:$embassy-11=1svg-0-fill"></path><path fill="#262525" d="M 5.5 1 C 4.5 1 3.5 2.5 3.5 2.5 L 3.5 6.5 C 3.5 6.5 4.666667 5 5.5 5 C 6.5 5 7.028175 6.5 8 6.5 C 8.971825 6.5 10 5 10 5 L 10 1 C 10 1 8.971825 2.5 8 2.5 C 7.028175 2.5 6.5 1 5.5 1 z M 2.5 1.5 A 0.5 0.50000006 0 0 0 2 2 L 2 8 C 2 9 1 9 1 9 L 1 10 L 4 10 L 4 9 C 4 9 3 9 3 8 L 3 6.5 L 3 2 A 0.5 0.50000006 0 0 0 2.5 1.5 z " data-reactid=".0.1.1.$embassy-11=1svg62.0.0.3:$embassy-11=1svg-1-fill"></path></svg>