<svg viewBox="-2 -2 16 16" width="16" height="16" data-reactid=".0.1.1.$fire-station-11=1svg68.0.0"><path d="M 5.5,0 3.5,4 2,2 C 1.5949678,2.7120667 0,4.1666667 0,6 0,8.7001333 2.79994,11 5.5,11 8.20006,11 11,8.7001333 11,6 11,4.1666667 9.405032,2.7120667 9,2 L 7.5,4 Z m 0,5.5 c 0,0 2,1.5850333 2,3 0,0.6111111 -0.7777778,1.2777778 -2,1.2777778 -1.2222222,0 -2,-0.6666667 -2,-1.2777778 0,-1.3664445 2,-3 2,-3 z" style="stroke-linejoin:round;stroke-miterlimit:4px;" fill="#ffffff" stroke="#ffffff" stroke-width="3" data-reactid=".0.1.1.$fire-station-11=1svg68.0.0.2:$fire-station-11=1svg-0-fill"></path><path d="M 5.5,0 3.5,4 2,2 C 1.5949678,2.7120667 0,4.1666667 0,6 0,8.7001333 2.79994,11 5.5,11 8.20006,11 11,8.7001333 11,6 11,4.1666667 9.405032,2.7120667 9,2 L 7.5,4 Z m 0,5.5 c 0,0 2,1.5850333 2,3 0,0.6111111 -0.7777778,1.2777778 -2,1.2777778 -1.2222222,0 -2,-0.6666667 -2,-1.2777778 0,-1.3664445 2,-3 2,-3 z" style="stroke-linejoin:round;stroke-miterlimit:4px;" fill="#ffffff" stroke="#ffffff" stroke-width="3" data-reactid=".0.1.1.$fire-station-11=1svg68.0.0.2:$fire-station-11=1svg-1-fill"></path><path fill="#262525" d="M 5.5,0 3.5,4 2,2 C 1.5949678,2.7120667 0,4.1666667 0,6 0,8.7001333 2.79994,11 5.5,11 8.20006,11 11,8.7001333 11,6 11,4.1666667 9.405032,2.7120667 9,2 L 7.5,4 Z m 0,5.5 c 0,0 2,1.5850333 2,3 0,0.6111111 -0.7777778,1.2777778 -2,1.2777778 -1.2222222,0 -2,-0.6666667 -2,-1.2777778 0,-1.3664445 2,-3 2,-3 z" data-reactid=".0.1.1.$fire-station-11=1svg68.0.0.3:$fire-station-11=1svg-0-fill"></path><path fill="#262525" d="M 5.5,0 3.5,4 2,2 C 1.5949678,2.7120667 0,4.1666667 0,6 0,8.7001333 2.79994,11 5.5,11 8.20006,11 11,8.7001333 11,6 11,4.1666667 9.405032,2.7120667 9,2 L 7.5,4 Z m 0,5.5 c 0,0 2,1.5850333 2,3 0,0.6111111 -0.7777778,1.2777778 -2,1.2777778 -1.2222222,0 -2,-0.6666667 -2,-1.2777778 0,-1.3664445 2,-3 2,-3 z" data-reactid=".0.1.1.$fire-station-11=1svg68.0.0.3:$fire-station-11=1svg-1-fill"></path></svg>