<svg viewBox="-2 -2 16 16" width="16" height="16" data-reactid=".0.1.1.$grocery-11=1svg76.0.0"><path d="M 9.75 1.5 C 9.7464061 1.4999302 9.4323514 1.4941902 9.1191406 1.6875 C 8.804147 1.8819101 8.5 2.3013439 8.5 3 L 8.2539062 3 L 1 3 L 1.75 6.5 C 1.8571429 7 2.5 7 2.5 7 L 8.5 7 C 8.5 7 8.4973257 7.2466447 8.3476562 7.4960938 C 8.197987 7.7455428 7.9305556 8 7.25 8 L 2 8 C 1.6619193 7.9952187 1.6619193 8.5047813 2 8.5 L 3.25 8.5 L 7.25 8.5 C 8.0694444 8.5 8.552013 8.1294572 8.7773438 7.7539062 C 9.0026743 7.3783553 9 7 9 7 L 9 3 C 9 2.4330311 9.195853 2.2274649 9.3808594 2.1132812 C 9.5658657 1.9990978 9.7460938 2 9.7460938 2 C 9.7473938 2.0000102 9.74869 2.0000102 9.75 2 L 10.25 2 C 10.588081 2.00478 10.588081 1.4952187 10.25 1.5 L 9.7539062 1.5 L 9.75 1.5 z M 7.25 8.5 A 0.75 0.75 0 0 0 6.5 9.25 A 0.75 0.75 0 0 0 7.25 10 A 0.75 0.75 0 0 0 8 9.25 A 0.75 0.75 0 0 0 7.25 8.5 z M 3.25 8.5 A 0.75 0.75 0 0 0 2.5 9.25 A 0.75 0.75 0 0 0 3.25 10 A 0.75 0.75 0 0 0 4 9.25 A 0.75 0.75 0 0 0 3.25 8.5 z " style="stroke-linejoin:round;stroke-miterlimit:4px;" fill="#ffffff" stroke="#ffffff" stroke-width="3" data-reactid=".0.1.1.$grocery-11=1svg76.0.0.2:$grocery-11=1svg-0-fill"></path><path d="M 9.75 1.5 C 9.7464061 1.4999302 9.4323514 1.4941902 9.1191406 1.6875 C 8.804147 1.8819101 8.5 2.3013439 8.5 3 L 8.2539062 3 L 1 3 L 1.75 6.5 C 1.8571429 7 2.5 7 2.5 7 L 8.5 7 C 8.5 7 8.4973257 7.2466447 8.3476562 7.4960938 C 8.197987 7.7455428 7.9305556 8 7.25 8 L 2 8 C 1.6619193 7.9952187 1.6619193 8.5047813 2 8.5 L 3.25 8.5 L 7.25 8.5 C 8.0694444 8.5 8.552013 8.1294572 8.7773438 7.7539062 C 9.0026743 7.3783553 9 7 9 7 L 9 3 C 9 2.4330311 9.195853 2.2274649 9.3808594 2.1132812 C 9.5658657 1.9990978 9.7460938 2 9.7460938 2 C 9.7473938 2.0000102 9.74869 2.0000102 9.75 2 L 10.25 2 C 10.588081 2.00478 10.588081 1.4952187 10.25 1.5 L 9.7539062 1.5 L 9.75 1.5 z M 7.25 8.5 A 0.75 0.75 0 0 0 6.5 9.25 A 0.75 0.75 0 0 0 7.25 10 A 0.75 0.75 0 0 0 8 9.25 A 0.75 0.75 0 0 0 7.25 8.5 z M 3.25 8.5 A 0.75 0.75 0 0 0 2.5 9.25 A 0.75 0.75 0 0 0 3.25 10 A 0.75 0.75 0 0 0 4 9.25 A 0.75 0.75 0 0 0 3.25 8.5 z " style="stroke-linejoin:round;stroke-miterlimit:4px;" fill="#ffffff" stroke="#ffffff" stroke-width="3" data-reactid=".0.1.1.$grocery-11=1svg76.0.0.2:$grocery-11=1svg-1-fill"></path><path fill="#262525" d="M 9.75 1.5 C 9.7464061 1.4999302 9.4323514 1.4941902 9.1191406 1.6875 C 8.804147 1.8819101 8.5 2.3013439 8.5 3 L 8.2539062 3 L 1 3 L 1.75 6.5 C 1.8571429 7 2.5 7 2.5 7 L 8.5 7 C 8.5 7 8.4973257 7.2466447 8.3476562 7.4960938 C 8.197987 7.7455428 7.9305556 8 7.25 8 L 2 8 C 1.6619193 7.9952187 1.6619193 8.5047813 2 8.5 L 3.25 8.5 L 7.25 8.5 C 8.0694444 8.5 8.552013 8.1294572 8.7773438 7.7539062 C 9.0026743 7.3783553 9 7 9 7 L 9 3 C 9 2.4330311 9.195853 2.2274649 9.3808594 2.1132812 C 9.5658657 1.9990978 9.7460938 2 9.7460938 2 C 9.7473938 2.0000102 9.74869 2.0000102 9.75 2 L 10.25 2 C 10.588081 2.00478 10.588081 1.4952187 10.25 1.5 L 9.7539062 1.5 L 9.75 1.5 z M 7.25 8.5 A 0.75 0.75 0 0 0 6.5 9.25 A 0.75 0.75 0 0 0 7.25 10 A 0.75 0.75 0 0 0 8 9.25 A 0.75 0.75 0 0 0 7.25 8.5 z M 3.25 8.5 A 0.75 0.75 0 0 0 2.5 9.25 A 0.75 0.75 0 0 0 3.25 10 A 0.75 0.75 0 0 0 4 9.25 A 0.75 0.75 0 0 0 3.25 8.5 z " data-reactid=".0.1.1.$grocery-11=1svg76.0.0.3:$grocery-11=1svg-0-fill"></path><path fill="#262525" d="M 9.75 1.5 C 9.7464061 1.4999302 9.4323514 1.4941902 9.1191406 1.6875 C 8.804147 1.8819101 8.5 2.3013439 8.5 3 L 8.2539062 3 L 1 3 L 1.75 6.5 C 1.8571429 7 2.5 7 2.5 7 L 8.5 7 C 8.5 7 8.4973257 7.2466447 8.3476562 7.4960938 C 8.197987 7.7455428 7.9305556 8 7.25 8 L 2 8 C 1.6619193 7.9952187 1.6619193 8.5047813 2 8.5 L 3.25 8.5 L 7.25 8.5 C 8.0694444 8.5 8.552013 8.1294572 8.7773438 7.7539062 C 9.0026743 7.3783553 9 7 9 7 L 9 3 C 9 2.4330311 9.195853 2.2274649 9.3808594 2.1132812 C 9.5658657 1.9990978 9.7460938 2 9.7460938 2 C 9.7473938 2.0000102 9.74869 2.0000102 9.75 2 L 10.25 2 C 10.588081 2.00478 10.588081 1.4952187 10.25 1.5 L 9.7539062 1.5 L 9.75 1.5 z M 7.25 8.5 A 0.75 0.75 0 0 0 6.5 9.25 A 0.75 0.75 0 0 0 7.25 10 A 0.75 0.75 0 0 0 8 9.25 A 0.75 0.75 0 0 0 7.25 8.5 z M 3.25 8.5 A 0.75 0.75 0 0 0 2.5 9.25 A 0.75 0.75 0 0 0 3.25 10 A 0.75 0.75 0 0 0 4 9.25 A 0.75 0.75 0 0 0 3.25 8.5 z " data-reactid=".0.1.1.$grocery-11=1svg76.0.0.3:$grocery-11=1svg-1-fill"></path></svg>