<svg viewBox="-294 191 20 20" width="20" height="20" data-reactid=".0.1.1.$information-15=1svg89.0.0"><path d="M-284.5,194
	c-0.8,0-1.5,0.7-1.5,1.5s0.7,1.5,1.5,1.5s1.5-0.7,1.5-1.5S-283.7,194-284.5,194z M-288,198v1c0,0,2,0,2,2v2c0,2-2,2-2,2v1h7v-1
	c0,0-2,0-2-2v-4c0-0.5-0.5-1-1-1H-288z" style="stroke-linejoin:round;stroke-miterlimit:4px;" fill="#ffffff" stroke="#ffffff" stroke-width="3" data-reactid=".0.1.1.$information-15=1svg89.0.0.2:$information-15=1svg-0-fill"></path><path d="M-284.5,194
	c-0.8,0-1.5,0.7-1.5,1.5s0.7,1.5,1.5,1.5s1.5-0.7,1.5-1.5S-283.7,194-284.5,194z M-288,198v1c0,0,2,0,2,2v2c0,2-2,2-2,2v1h7v-1
	c0,0-2,0-2-2v-4c0-0.5-0.5-1-1-1H-288z" style="stroke-linejoin:round;stroke-miterlimit:4px;" fill="#ffffff" stroke="#ffffff" stroke-width="3" data-reactid=".0.1.1.$information-15=1svg89.0.0.2:$information-15=1svg-1-fill"></path><path fill="#262525" d="M-284.5,194
	c-0.8,0-1.5,0.7-1.5,1.5s0.7,1.5,1.5,1.5s1.5-0.7,1.5-1.5S-283.7,194-284.5,194z M-288,198v1c0,0,2,0,2,2v2c0,2-2,2-2,2v1h7v-1
	c0,0-2,0-2-2v-4c0-0.5-0.5-1-1-1H-288z" data-reactid=".0.1.1.$information-15=1svg89.0.0.3:$information-15=1svg-0-fill"></path><path fill="#262525" d="M-284.5,194
	c-0.8,0-1.5,0.7-1.5,1.5s0.7,1.5,1.5,1.5s1.5-0.7,1.5-1.5S-283.7,194-284.5,194z M-288,198v1c0,0,2,0,2,2v2c0,2-2,2-2,2v1h7v-1
	c0,0-2,0-2-2v-4c0-0.5-0.5-1-1-1H-288z" data-reactid=".0.1.1.$information-15=1svg89.0.0.3:$information-15=1svg-1-fill"></path></svg>