<svg viewBox="-2 -2 16 16" width="16" height="16" data-reactid=".0.1.1.$marker-11=1svg96.0.0"><path d="m 5.5,-0.017604 c -1.7866385,0 -3.8710501,1.0918346 -3.8710501,3.8710501 C 1.6289499,5.7393423 4.6066807,9.9081654 5.5,11 6.2940615,9.9081654 9.3710501,5.8386 9.3710501,3.8534461 9.3710501,1.0742306 7.2866385,-0.017604 5.5,-0.017604 Z" style="stroke-linejoin:round;stroke-miterlimit:4px;" fill="#ffffff" stroke="#ffffff" stroke-width="3" data-reactid=".0.1.1.$marker-11=1svg96.0.0.2:$marker-11=1svg-0-fill"></path><path d="m 5.5,-0.017604 c -1.7866385,0 -3.8710501,1.0918346 -3.8710501,3.8710501 C 1.6289499,5.7393423 4.6066807,9.9081654 5.5,11 6.2940615,9.9081654 9.3710501,5.8386 9.3710501,3.8534461 9.3710501,1.0742306 7.2866385,-0.017604 5.5,-0.017604 Z" style="stroke-linejoin:round;stroke-miterlimit:4px;" fill="#ffffff" stroke="#ffffff" stroke-width="3" data-reactid=".0.1.1.$marker-11=1svg96.0.0.2:$marker-11=1svg-1-fill"></path><path fill="#262525" d="m 5.5,-0.017604 c -1.7866385,0 -3.8710501,1.0918346 -3.8710501,3.8710501 C 1.6289499,5.7393423 4.6066807,9.9081654 5.5,11 6.2940615,9.9081654 9.3710501,5.8386 9.3710501,3.8534461 9.3710501,1.0742306 7.2866385,-0.017604 5.5,-0.017604 Z" data-reactid=".0.1.1.$marker-11=1svg96.0.0.3:$marker-11=1svg-0-fill"></path><path fill="#262525" d="m 5.5,-0.017604 c -1.7866385,0 -3.8710501,1.0918346 -3.8710501,3.8710501 C 1.6289499,5.7393423 4.6066807,9.9081654 5.5,11 6.2940615,9.9081654 9.3710501,5.8386 9.3710501,3.8534461 9.3710501,1.0742306 7.2866385,-0.017604 5.5,-0.017604 Z" data-reactid=".0.1.1.$marker-11=1svg96.0.0.3:$marker-11=1svg-1-fill"></path></svg>