<svg viewBox="-2 -2 16 16" width="16" height="16" data-reactid=".0.1.1.$monument-11=1svg98.0.0"><path d="M 5.5,0 4,2 4,6.5 7,6.5 7,2 Z M 3,7 2,8 2,11 9,11 9,8 8,7 Z" style="stroke-linejoin:round;stroke-miterlimit:4px;" fill="#ffffff" stroke="#ffffff" stroke-width="3" data-reactid=".0.1.1.$monument-11=1svg98.0.0.2:$monument-11=1svg-0-fill"></path><path d="M 5.5,0 4,2 4,6.5 7,6.5 7,2 Z M 3,7 2,8 2,11 9,11 9,8 8,7 Z" style="stroke-linejoin:round;stroke-miterlimit:4px;" fill="#ffffff" stroke="#ffffff" stroke-width="3" data-reactid=".0.1.1.$monument-11=1svg98.0.0.2:$monument-11=1svg-1-fill"></path><path fill="#262525" d="M 5.5,0 4,2 4,6.5 7,6.5 7,2 Z M 3,7 2,8 2,11 9,11 9,8 8,7 Z" data-reactid=".0.1.1.$monument-11=1svg98.0.0.3:$monument-11=1svg-0-fill"></path><path fill="#262525" d="M 5.5,0 4,2 4,6.5 7,6.5 7,2 Z M 3,7 2,8 2,11 9,11 9,8 8,7 Z" data-reactid=".0.1.1.$monument-11=1svg98.0.0.3:$monument-11=1svg-1-fill"></path></svg>