<svg viewBox="-2 -2 20 20" width="20" height="20" data-reactid=".0.1.1.$restaurant-15=1svg135.0.0"><path d="M 3.5 0 L 2.5 5.5 C 2.3536392 6.3049845 4.2814996 6.6810094 4.25 7.5 L 4 14 C 3.961567 14.999261 5 15 5 15 C 5 15 6.0384331 14.999261 6 14 L 5.75 7.5 C 5.7185547 6.6824227 7.4834499 6.3192309 7.5 5.5 L 6.5 0 L 6 0 L 6.25 4 L 5.5 4.5 L 5.25 0 L 4.75 0 L 4.5 4.5 L 3.75 4 L 4 0 L 3.5 0 z M 12 0 C 11.263636 0 10.035831 0.65490052 9.5449219 1.6367188 C 9.135831 2.3730824 9 4.0181818 9 5 L 9 7.5 C 9 8.3181819 10.090908 8.5 10.5 8.5 L 10 14 C 9.909464 14.995893 11 15 11 15 C 11 15 12 15 12 14 L 12 0 z " style="stroke-linejoin:round;stroke-miterlimit:4px;" fill="#ffffff" stroke="#ffffff" stroke-width="3" data-reactid=".0.1.1.$restaurant-15=1svg135.0.0.2:$restaurant-15=1svg-0-fill"></path><path d="M 3.5 0 L 2.5 5.5 C 2.3536392 6.3049845 4.2814996 6.6810094 4.25 7.5 L 4 14 C 3.961567 14.999261 5 15 5 15 C 5 15 6.0384331 14.999261 6 14 L 5.75 7.5 C 5.7185547 6.6824227 7.4834499 6.3192309 7.5 5.5 L 6.5 0 L 6 0 L 6.25 4 L 5.5 4.5 L 5.25 0 L 4.75 0 L 4.5 4.5 L 3.75 4 L 4 0 L 3.5 0 z M 12 0 C 11.263636 0 10.035831 0.65490052 9.5449219 1.6367188 C 9.135831 2.3730824 9 4.0181818 9 5 L 9 7.5 C 9 8.3181819 10.090908 8.5 10.5 8.5 L 10 14 C 9.909464 14.995893 11 15 11 15 C 11 15 12 15 12 14 L 12 0 z " style="stroke-linejoin:round;stroke-miterlimit:4px;" fill="#ffffff" stroke="#ffffff" stroke-width="3" data-reactid=".0.1.1.$restaurant-15=1svg135.0.0.2:$restaurant-15=1svg-1-fill"></path><path fill="#262525" d="M 3.5 0 L 2.5 5.5 C 2.3536392 6.3049845 4.2814996 6.6810094 4.25 7.5 L 4 14 C 3.961567 14.999261 5 15 5 15 C 5 15 6.0384331 14.999261 6 14 L 5.75 7.5 C 5.7185547 6.6824227 7.4834499 6.3192309 7.5 5.5 L 6.5 0 L 6 0 L 6.25 4 L 5.5 4.5 L 5.25 0 L 4.75 0 L 4.5 4.5 L 3.75 4 L 4 0 L 3.5 0 z M 12 0 C 11.263636 0 10.035831 0.65490052 9.5449219 1.6367188 C 9.135831 2.3730824 9 4.0181818 9 5 L 9 7.5 C 9 8.3181819 10.090908 8.5 10.5 8.5 L 10 14 C 9.909464 14.995893 11 15 11 15 C 11 15 12 15 12 14 L 12 0 z " data-reactid=".0.1.1.$restaurant-15=1svg135.0.0.3:$restaurant-15=1svg-0-fill"></path><path fill="#262525" d="M 3.5 0 L 2.5 5.5 C 2.3536392 6.3049845 4.2814996 6.6810094 4.25 7.5 L 4 14 C 3.961567 14.999261 5 15 5 15 C 5 15 6.0384331 14.999261 6 14 L 5.75 7.5 C 5.7185547 6.6824227 7.4834499 6.3192309 7.5 5.5 L 6.5 0 L 6 0 L 6.25 4 L 5.5 4.5 L 5.25 0 L 4.75 0 L 4.5 4.5 L 3.75 4 L 4 0 L 3.5 0 z M 12 0 C 11.263636 0 10.035831 0.65490052 9.5449219 1.6367188 C 9.135831 2.3730824 9 4.0181818 9 5 L 9 7.5 C 9 8.3181819 10.090908 8.5 10.5 8.5 L 10 14 C 9.909464 14.995893 11 15 11 15 C 11 15 12 15 12 14 L 12 0 z " data-reactid=".0.1.1.$restaurant-15=1svg135.0.0.3:$restaurant-15=1svg-1-fill"></path></svg>