<svg viewBox="-2 -2 20 20" width="20" height="20" data-reactid=".0.1.1.$stadium-15=1svg143.0.0"><path d="M 7 1 L 7 3 L 7 4.5 L 7 5.0097656 A 5.5 2 0 0 0 2 7 L 2 11.5 C 2 12.604569 4.4624339 13.5 7.5 13.5 C 10.537566 13.5 13 12.604569 13 11.5 L 13 7 A 5.5 2 0 0 0 8 5.0097656 L 8 4.0625 L 11 2.75 L 7 1 z M 3 8.1464844 A 5.5 2 0 0 0 5 8.7792969 L 5 11.746094 C 3.7948133 11.476964 3 11.019865 3 10.5 L 3 8.1464844 z M 12 8.1484375 L 12 10.5 C 12 11.019865 11.205187 11.476964 10 11.746094 L 10 8.78125 A 5.5 2 0 0 0 12 8.1484375 z M 6 8.921875 A 5.5 2 0 0 0 7.5 9 A 5.5 2 0 0 0 9 8.9238281 L 9 11.908203 C 8.5286994 11.964047 8.0287758 12 7.5 12 C 6.9712242 12 6.4713006 11.964047 6 11.908203 L 6 8.921875 z " style="stroke-linejoin:round;stroke-miterlimit:4px;" fill="#ffffff" stroke="#ffffff" stroke-width="3" data-reactid=".0.1.1.$stadium-15=1svg143.0.0.2:$stadium-15=1svg-0-fill"></path><path d="M 7 1 L 7 3 L 7 4.5 L 7 5.0097656 A 5.5 2 0 0 0 2 7 L 2 11.5 C 2 12.604569 4.4624339 13.5 7.5 13.5 C 10.537566 13.5 13 12.604569 13 11.5 L 13 7 A 5.5 2 0 0 0 8 5.0097656 L 8 4.0625 L 11 2.75 L 7 1 z M 3 8.1464844 A 5.5 2 0 0 0 5 8.7792969 L 5 11.746094 C 3.7948133 11.476964 3 11.019865 3 10.5 L 3 8.1464844 z M 12 8.1484375 L 12 10.5 C 12 11.019865 11.205187 11.476964 10 11.746094 L 10 8.78125 A 5.5 2 0 0 0 12 8.1484375 z M 6 8.921875 A 5.5 2 0 0 0 7.5 9 A 5.5 2 0 0 0 9 8.9238281 L 9 11.908203 C 8.5286994 11.964047 8.0287758 12 7.5 12 C 6.9712242 12 6.4713006 11.964047 6 11.908203 L 6 8.921875 z " style="stroke-linejoin:round;stroke-miterlimit:4px;" fill="#ffffff" stroke="#ffffff" stroke-width="3" data-reactid=".0.1.1.$stadium-15=1svg143.0.0.2:$stadium-15=1svg-1-fill"></path><path fill="#262525" d="M 7 1 L 7 3 L 7 4.5 L 7 5.0097656 A 5.5 2 0 0 0 2 7 L 2 11.5 C 2 12.604569 4.4624339 13.5 7.5 13.5 C 10.537566 13.5 13 12.604569 13 11.5 L 13 7 A 5.5 2 0 0 0 8 5.0097656 L 8 4.0625 L 11 2.75 L 7 1 z M 3 8.1464844 A 5.5 2 0 0 0 5 8.7792969 L 5 11.746094 C 3.7948133 11.476964 3 11.019865 3 10.5 L 3 8.1464844 z M 12 8.1484375 L 12 10.5 C 12 11.019865 11.205187 11.476964 10 11.746094 L 10 8.78125 A 5.5 2 0 0 0 12 8.1484375 z M 6 8.921875 A 5.5 2 0 0 0 7.5 9 A 5.5 2 0 0 0 9 8.9238281 L 9 11.908203 C 8.5286994 11.964047 8.0287758 12 7.5 12 C 6.9712242 12 6.4713006 11.964047 6 11.908203 L 6 8.921875 z " data-reactid=".0.1.1.$stadium-15=1svg143.0.0.3:$stadium-15=1svg-0-fill"></path><path fill="#262525" d="M 7 1 L 7 3 L 7 4.5 L 7 5.0097656 A 5.5 2 0 0 0 2 7 L 2 11.5 C 2 12.604569 4.4624339 13.5 7.5 13.5 C 10.537566 13.5 13 12.604569 13 11.5 L 13 7 A 5.5 2 0 0 0 8 5.0097656 L 8 4.0625 L 11 2.75 L 7 1 z M 3 8.1464844 A 5.5 2 0 0 0 5 8.7792969 L 5 11.746094 C 3.7948133 11.476964 3 11.019865 3 10.5 L 3 8.1464844 z M 12 8.1484375 L 12 10.5 C 12 11.019865 11.205187 11.476964 10 11.746094 L 10 8.78125 A 5.5 2 0 0 0 12 8.1484375 z M 6 8.921875 A 5.5 2 0 0 0 7.5 9 A 5.5 2 0 0 0 9 8.9238281 L 9 11.908203 C 8.5286994 11.964047 8.0287758 12 7.5 12 C 6.9712242 12 6.4713006 11.964047 6 11.908203 L 6 8.921875 z " data-reactid=".0.1.1.$stadium-15=1svg143.0.0.3:$stadium-15=1svg-1-fill"></path></svg>