<svg viewBox="-2 -2 20 20" width="20" height="20" data-reactid=".0.1.1.$triangle-stroked-15=1svg161.0.0"><path d="M 7.5243037,1.5003883 C 7.2428546,1.4912809 6.9786836,1.6423037 6.8336126,1.8952467 L 1.3336144,11.764472 C 1.0217757,12.307787 1.3950479,12.999861 2,13 l 11,0 c 0.604953,-1.37e-4 0.978227,-0.692212 0.666388,-1.235528 L 8.1663843,1.8952467 C 8.0302455,1.6578622 7.7884298,1.5091536 7.5243037,1.5003883 Z m -0.024304,2.3988723 4.1267203,7.4703554 -8.2534365,0 z" style="stroke-linejoin:round;stroke-miterlimit:4px;" fill="#ffffff" stroke="#ffffff" stroke-width="3" data-reactid=".0.1.1.$triangle-stroked-15=1svg161.0.0.2:$triangle-stroked-15=1svg-0-fill"></path><path d="M 7.5243037,1.5003883 C 7.2428546,1.4912809 6.9786836,1.6423037 6.8336126,1.8952467 L 1.3336144,11.764472 C 1.0217757,12.307787 1.3950479,12.999861 2,13 l 11,0 c 0.604953,-1.37e-4 0.978227,-0.692212 0.666388,-1.235528 L 8.1663843,1.8952467 C 8.0302455,1.6578622 7.7884298,1.5091536 7.5243037,1.5003883 Z m -0.024304,2.3988723 4.1267203,7.4703554 -8.2534365,0 z" style="stroke-linejoin:round;stroke-miterlimit:4px;" fill="#ffffff" stroke="#ffffff" stroke-width="3" data-reactid=".0.1.1.$triangle-stroked-15=1svg161.0.0.2:$triangle-stroked-15=1svg-1-fill"></path><path fill="#262525" d="M 7.5243037,1.5003883 C 7.2428546,1.4912809 6.9786836,1.6423037 6.8336126,1.8952467 L 1.3336144,11.764472 C 1.0217757,12.307787 1.3950479,12.999861 2,13 l 11,0 c 0.604953,-1.37e-4 0.978227,-0.692212 0.666388,-1.235528 L 8.1663843,1.8952467 C 8.0302455,1.6578622 7.7884298,1.5091536 7.5243037,1.5003883 Z m -0.024304,2.3988723 4.1267203,7.4703554 -8.2534365,0 z" data-reactid=".0.1.1.$triangle-stroked-15=1svg161.0.0.3:$triangle-stroked-15=1svg-0-fill"></path><path fill="#262525" d="M 7.5243037,1.5003883 C 7.2428546,1.4912809 6.9786836,1.6423037 6.8336126,1.8952467 L 1.3336144,11.764472 C 1.0217757,12.307787 1.3950479,12.999861 2,13 l 11,0 c 0.604953,-1.37e-4 0.978227,-0.692212 0.666388,-1.235528 L 8.1663843,1.8952467 C 8.0302455,1.6578622 7.7884298,1.5091536 7.5243037,1.5003883 Z m -0.024304,2.3988723 4.1267203,7.4703554 -8.2534365,0 z" data-reactid=".0.1.1.$triangle-stroked-15=1svg161.0.0.3:$triangle-stroked-15=1svg-1-fill"></path></svg>