<?xml version="1.0" encoding="UTF-8" standalone="no"?>
<svg
   xmlns:dc="http://purl.org/dc/elements/1.1/"
   xmlns:cc="http://creativecommons.org/ns#"
   xmlns:rdf="http://www.w3.org/1999/02/22-rdf-syntax-ns#"
   xmlns:svg="http://www.w3.org/2000/svg"
   xmlns="http://www.w3.org/2000/svg"
   id="svg2"
   width="24"
   height="24"
   viewBox="0 0 24 24"
   version="1.1">
  <metadata
     id="metadata14">
    <rdf:RDF>
      <cc:Work
         rdf:about="">
        <dc:format>image/svg+xml</dc:format>
        <dc:type
           rdf:resource="http://purl.org/dc/dcmitype/StillImage" />
      </cc:Work>
    </rdf:RDF>
  </metadata>
  <defs
     id="defs12" />
  <ellipse
     id="ellipse4"
     ry="12"
     rx="12"
     cy="12"
     cx="12"
     style="fill:#ffffff;stroke:none;" />
  <ellipse
     id="ellipse6"
     ry="10"
     rx="10"
     cy="12"
     cx="12"
     style="fill:#7e9a4c;stroke:none;" />
  <g
     id="g8"
     transform="translate(4.5,5)">
    <metadata     id="metadata9"><rdf:RDF><cc:Work         rdf:about=""><dc:format>image/svg+xml</dc:format><dc:type           rdf:resource="http://purl.org/dc/dcmitype/StillImage" /><dc:title /></cc:Work></rdf:RDF></metadata><defs     id="defs7" /><path     id="path5"     d="M 7.5 3 C 2.2058824 3 0 8 0 8 C 0 8 2.2058824 13 7.5 13 C 12.794118 13 15 8 15 8 C 15 8 12.794118 3 7.5 3 z M 4 6.5 L 5 6.5 L 5 7.5 L 7 7.5 L 7 6.5 L 8 6.5 L 8 7.5 L 10 7.5 L 10 6.5 L 11 6.5 L 11 7.5 L 12 7.5 L 12 8.5 L 11 8.5 L 11 9.5 L 10 9.5 L 10 8.5 L 8 8.5 L 8 9.5 L 7 9.5 L 7 8.5 L 5 8.5 L 5 9.5 L 4 9.5 L 4 8.5 L 3 8.5 L 3 7.5 L 4 7.5 L 4 6.5 z "     style="fill:#ffffff;fill-opacity:1" />
  </g>
</svg>
