<?xml version="1.0" encoding="UTF-8" standalone="no"?>
<svg
   xmlns:dc="http://purl.org/dc/elements/1.1/"
   xmlns:cc="http://creativecommons.org/ns#"
   xmlns:rdf="http://www.w3.org/1999/02/22-rdf-syntax-ns#"
   xmlns:svg="http://www.w3.org/2000/svg"
   xmlns="http://www.w3.org/2000/svg"
   id="svg2"
   width="20"
   height="20"
   viewBox="0 0 20 20"
   version="1.1">
  <metadata
     id="metadata14">
    <rdf:RDF>
      <cc:Work
         rdf:about="">
        <dc:format>image/svg+xml</dc:format>
        <dc:type
           rdf:resource="http://purl.org/dc/dcmitype/StillImage" />
      </cc:Work>
    </rdf:RDF>
  </metadata>
  <defs
     id="defs12" />
  <ellipse
     id="ellipse4"
     ry="10"
     rx="10"
     cy="10"
     cx="10"
     style="fill:#ffffff;stroke:none;" />
  <ellipse
     id="ellipse6"
     rx="8"
     ry="8"
     cy="10"
     cx="10"
     style="fill:#7e9a4c;stroke:none;" />
  <g
     id="g8"
     transform="translate(4.5,5)">
    <metadata     id="metadata9"><rdf:RDF><cc:Work         rdf:about=""><dc:format>image/svg+xml</dc:format><dc:type           rdf:resource="http://purl.org/dc/dcmitype/StillImage" /><dc:title /></cc:Work></rdf:RDF></metadata><defs     id="defs7" /><path     id="path5"     d="M 5.4999999,2.4999997 C 1.5,2.4999997 0,6 0,6 0,6 1.5,9.5000002 5.5000001,9.4999998 9.5,9.4999997 11,5.9999998 11,5.9999998 c 0,0 -1.4999999,-3.4999999 -5.5000001,-3.5000001 z m 2.5000002,4.0000001 -1,0 0,0.5000001 c 0,0.2999999 -0.2,0.5 -0.5,0.5 -0.3,-10e-8 -0.5,-0.2000001 -0.5,-0.5 l 0,-0.5000001 -1,0 0,0.5000001 c 0,0.2999999 -0.2000001,0.4999999 -0.5000001,0.5 -0.3,0 -0.5,-0.2000001 -0.5,-0.5 l 0,-0.5000001 -1,0 c -0.3,0 -0.5,-0.1999999 -0.5,-0.5 C 2.5,5.7000001 2.7,5.5000001 3,5.4999999 l 1,-10e-8 0,-0.5 c 0,-0.2999999 0.2,-0.5 0.5,-0.5 0.3,10e-8 0.5000001,0.2000001 0.5000001,0.5 l 0,0.5 1,0 0,-0.5 c 0,-0.2999999 0.2,-0.4999999 0.5,-0.5 0.3,0 0.5,0.2000001 0.5,0.5 l 0,0.5 1,10e-8 c 0.3,-10e-8 0.5,0.1999999 0.4999999,0.4999999 10e-8,0.3000001 -0.1999999,0.5 -0.4999999,0.5 z"     style="fill:#ffffff;fill-opacity:1" />
  </g>
</svg>
