<?xml version="1.0" encoding="UTF-8" standalone="no"?>
<svg
   xmlns:dc="http://purl.org/dc/elements/1.1/"
   xmlns:cc="http://creativecommons.org/ns#"
   xmlns:rdf="http://www.w3.org/1999/02/22-rdf-syntax-ns#"
   xmlns:svg="http://www.w3.org/2000/svg"
   xmlns="http://www.w3.org/2000/svg"
   id="svg2"
   width="40"
   height="40"
   viewBox="0 0 20 20"
   version="1.1">
  <metadata
     id="metadata14">
    <rdf:RDF>
      <cc:Work
         rdf:about="">
        <dc:format>image/svg+xml</dc:format>
        <dc:type
           rdf:resource="http://purl.org/dc/dcmitype/StillImage" />
      </cc:Work>
    </rdf:RDF>
  </metadata>
  <defs
     id="defs12" />
  <ellipse
     id="ellipse4"
     ry="10"
     rx="10"
     cy="10"
     cx="10"
     style="fill:#ffffff;stroke:none;" />
  <ellipse
     id="ellipse6"
     rx="8"
     ry="8"
     cy="10"
     cx="10"
     style="fill:#7e9a4c;stroke:none;" />
  <g
     id="g8"
     transform="translate(4.5,4.5)">
      <metadata     id="metadata15">    <rdf:RDF>      <cc:Work         rdf:about="">        <dc:format>image/svg+xml</dc:format>        <dc:type           rdf:resource="http://purl.org/dc/dcmitype/StillImage" />        <dc:title />      </cc:Work>    </rdf:RDF>  </metadata>  <defs     id="defs13" />  <path     id="rect4698"     d="M 7.5,1 C 7.5,1 7.154311,1.0370671 7,1.5 l -0.5,2 2,1.5 1.5,0 c 1,0 1,-1 1,-1 L 9.5,2.5 C 9,2 8.5,2 8,2 L 8,1.5 C 8,1.5 8,1 7.5,1 Z m -5,1 C 2.5,2 2.1466006,1.9931059 1.7773438,2.1777344 1.4080868,2.3623629 1,2.8333333 1,3.5 L 1,4.4648438 C 0.99958793,4.4765588 0.99958793,4.4882849 1,4.5 L 1,5 1,5.5 C 1,6.5 1,7 0.5,7 0.5,7 0,7 0,7.5 l 0,2 C 0,9.5 0,10 0.5,10 1,10 1,9.5 1,9.5 L 1,8 C 1.3536663,8 1.6905702,7.8628585 2,7.7011719 L 2,9.5 C 2,9.5 2,10 2.5,10 3,10 3,9.5 3,9.5 L 3,7 6,7 6.6640625,8.9921875 C 6.9999809,9.9999426 7.5,10 7.5,10 L 8,10 C 8,10 8.5,10 8.5,9.5 8.5,9 8,9 8,9 L 8,6.5 C 8,5.609375 7.367833,5.2449031 7,5 L 5.4980469,4 2,4 2,3.5 C 2,3.1666667 2.0919132,3.1376371 2.2226562,3.0722656 2.3533994,3.0068941 2.5,3 2.5,3 3.1761613,3.00956 3.1761613,1.9904374 2.5,2 Z"     style="opacity:1;fill:#ffffff;fill-opacity:1;stroke:none;stroke-width:1;stroke-linecap:round;stroke-linejoin:round;stroke-miterlimit:4;stroke-dasharray:none;stroke-dashoffset:0;stroke-opacity:1;marker:none" />
  </g>
</svg>
