<?xml version="1.0" encoding="UTF-8" standalone="no"?>
<svg
   xmlns:dc="http://purl.org/dc/elements/1.1/"
   xmlns:cc="http://creativecommons.org/ns#"
   xmlns:rdf="http://www.w3.org/1999/02/22-rdf-syntax-ns#"
   xmlns:svg="http://www.w3.org/2000/svg"
   xmlns="http://www.w3.org/2000/svg"
   id="svg2"
   width="40"
   height="40"
   viewBox="0 0 20 20"
   version="1.1">
  <metadata
     id="metadata14">
    <rdf:RDF>
      <cc:Work
         rdf:about="">
        <dc:format>image/svg+xml</dc:format>
        <dc:type
           rdf:resource="http://purl.org/dc/dcmitype/StillImage" />
      </cc:Work>
    </rdf:RDF>
  </metadata>
  <defs
     id="defs12" />
  <ellipse
     id="ellipse4"
     ry="10"
     rx="10"
     cy="10"
     cx="10"
     style="fill:#ffffff;stroke:none;" />
  <ellipse
     id="ellipse6"
     rx="8"
     ry="8"
     cy="10"
     cx="10"
     style="fill:#7e9a4c;stroke:none;" />
  <g
     id="g8"
     transform="translate(4.5,4.5)">
    <metadata     id="metadata4147"><rdf:RDF><cc:Work         rdf:about=""><dc:format>image/svg+xml</dc:format><dc:type           rdf:resource="http://purl.org/dc/dcmitype/StillImage" /><dc:title /></cc:Work></rdf:RDF></metadata><defs     id="defs4145" /><path     style="color:#000000;font-style:normal;font-variant:normal;font-weight:normal;font-stretch:normal;font-size:medium;line-height:normal;font-family:sans-serif;text-indent:0;text-align:start;text-decoration:none;text-decoration-line:none;text-decoration-style:solid;text-decoration-color:#000000;letter-spacing:normal;word-spacing:normal;text-transform:none;direction:ltr;block-progression:tb;writing-mode:lr-tb;baseline-shift:baseline;text-anchor:start;white-space:normal;shape-padding:0;clip-rule:nonzero;display:inline;overflow:visible;visibility:visible;opacity:1;isolation:auto;mix-blend-mode:normal;color-interpolation:sRGB;color-interpolation-filters:linearRGB;solid-color:#000000;solid-opacity:1;fill:#ffffff;fill-opacity:1;fill-rule:nonzero;stroke:none;stroke-width:1.50000012;stroke-linecap:round;stroke-linejoin:round;stroke-miterlimit:4;stroke-dasharray:none;stroke-dashoffset:0;stroke-opacity:1;marker:none;color-rendering:auto;image-rendering:auto;shape-rendering:auto;text-rendering:auto;enable-background:accumulate"     d="m 3,1 -2,1.5 0,7 C 1,9.5 1,10 1.5,10 2,10 2,9.5 2,9.5 L 2,9 4,9 4,9.5 C 4,9.5 4,10 4.5,10 5,10 5,9.5 5,9.5 l 0,-3 C 5.487815,6.5 5.72397,6.6254583 5.976562,6.8535156 6.229155,7.0815729 6.468051,7.453089 6.734375,7.890625 7.000699,8.328161 7.293259,8.8315189 7.767578,9.2597656 8.241898,9.6880123 8.928112,10 9.75,10 L 10,10 10,8.5 9.75,8.5 C 9.262185,8.5 9.02603,8.3745417 8.773437,8.1464844 8.520845,7.9184271 8.281949,7.546911 8.015625,7.109375 7.749301,6.671839 7.456741,6.1684811 6.982422,5.7402344 6.508102,5.3119877 5.821888,5 5,5 L 5,2.5 Z M 3,3 C 3.552285,3 4,3.4477152 4,4 4,4.5522848 3.552285,5 3,5 2.447715,5 2,4.5522848 2,4 2,3.4477152 2.447715,3 3,3 Z M 2,6 4,6 4,8 2,8 Z"     id="path5096" />
  </g>
</svg>
