<?xml version="1.0" encoding="UTF-8" standalone="no"?>
<svg
   xmlns:dc="http://purl.org/dc/elements/1.1/"
   xmlns:cc="http://creativecommons.org/ns#"
   xmlns:rdf="http://www.w3.org/1999/02/22-rdf-syntax-ns#"
   xmlns:svg="http://www.w3.org/2000/svg"
   xmlns="http://www.w3.org/2000/svg"
   id="svg2"
   width="48"
   height="48"
   viewBox="0 0 24 24"
   version="1.1">
  <metadata
     id="metadata14">
    <rdf:RDF>
      <cc:Work
         rdf:about="">
        <dc:format>image/svg+xml</dc:format>
        <dc:type
           rdf:resource="http://purl.org/dc/dcmitype/StillImage" />
      </cc:Work>
    </rdf:RDF>
  </metadata>
  <defs
     id="defs12" />
  <ellipse
     id="ellipse4"
     ry="12"
     rx="12"
     cy="12"
     cx="12"
     style="fill:#ffffff;stroke:none;" />
  <ellipse
     id="ellipse6"
     ry="10"
     rx="10"
     cy="12"
     cx="12"
     style="fill:#7e9a4c;stroke:none;" />
  <g
     id="g8"
     transform="translate(4.5,4.5)">
    <metadata     id="metadata12531"><rdf:RDF><cc:Work         rdf:about=""><dc:format>image/svg+xml</dc:format><dc:type           rdf:resource="http://purl.org/dc/dcmitype/StillImage" /><dc:title /></cc:Work></rdf:RDF></metadata><defs     id="defs12529" /><path     style="opacity:1;fill:#ffffff;fill-opacity:1;stroke:none;stroke-width:2;stroke-linecap:round;stroke-linejoin:round;stroke-miterlimit:4;stroke-dasharray:none;stroke-dashoffset:0;stroke-opacity:1;marker:none"     d="M 8.38791,3.8927581 C 8.38791,3.8927581 7.68182,5 7,5 L 4.5,5 C 3.81818,5 3.2016342,5.4086332 2.72727,5.8636362 L 0.5,8 C 0.23104532,8.2579773 0.00725,8.7680661 0,9 c -0.0156,0.500001 0,1 0,1 0,0 1,0 1,-1 l 0,-0.5 1,-1 0.5,0 0.15803,0.28924 c 0,0 -0.95348,1.824397 -0.95348,3.528942 C 1.70455,12 2.38636,12 2.38636,12 l 0.68182,0 c 0,0 0.34091,0 0,-0.340909 L 2.72727,11.318182 C 2.72727,10.636364 3.50018,9.666727 4,9 c 0,0 0.0168,1.157926 0,2 -0.008,0.409641 0.2721,1 0.68182,1 l 0.68182,0 c 0,0 0.34091,0 0,-0.340909 L 5.02273,11.318182 C 4.71045,10.74953 5.5,8.5 5.5,8.5 6.77164,8.5 7,9 8.5,9 l 0.36364,2.318182 C 8.97502,12.0282 9.5,12 9.5,12 l 1.5,0 c 0.340909,0 0.961099,-0.311478 0.340909,-0.773615 L 11,11 11,9 c 1.214158,-0.1722488 2,-1 2,-2 l 1,0 c 0.321413,0 1,0 1,-0.5 l 0,-1 -1.704545,-1.6818184 C 12.544442,3.0771817 12,2.5 11,2.5 9.546875,2.5 8.86364,3.0687829 8.38791,3.8927581 Z"     id="path17499" />
  </g>
</svg>
