<?xml version="1.0" encoding="utf-8"?>
<!-- Generator: Adobe Illustrator 19.2.1, SVG Export Plug-In . SVG Version: 6.00 Build 0)  -->
<!DOCTYPE svg PUBLIC "-//W3C//DTD SVG 1.1//EN" "http://www.w3.org/Graphics/SVG/1.1/DTD/svg11.dtd">
<svg version="1.1" id="Layer_1" xmlns="http://www.w3.org/2000/svg" xmlns:xlink="http://www.w3.org/1999/xlink" x="0px" y="0px"
	 viewBox="0 0 19.4 19.4" enable-background="new 0 0 19.4 19.4" xml:space="preserve">
<g opacity="0.8">
	<path fill="#99918C" d="M9.7,0c5.4,0,9.7,4.3,9.7,9.7s-4.4,9.7-9.7,9.7S0,15.1,0,9.7S4.4,0,9.7,0"/>
</g>
<g>
	<path fill="#FFFFFF" d="M7.7,16.1c-0.2,0-0.3-0.1-0.4-0.1L6,14.1l-0.3-0.4l-1.8-1.2c-0.2-0.2-0.2-0.4-0.2-0.7
		c0-0.1,0.2-0.3,0.4-0.3h0.1l2,0.3l2.4-3C7.5,8.4,4.5,7.4,4.4,7.2C4.1,7,3.9,6.8,4,6.5C4,6.3,4.1,6,4.4,5.8c0.5-0.3,1-0.2,1.8-0.1
		c0.2,0.1,0.2,0.1,0.5,0.1c0.5,0.1,2.2,0.3,3.4,0.6L11,6.6l1.8-1.9c0.6-0.6,1.7-0.7,2.3,0s0.6,1.7,0,2.3l-1.9,1.8l0.2,1.3
		c0.2,1.2,0.4,2.6,0.5,3.1c0.1,0.1,0.1,0.3,0.1,0.4c0.1,0.7,0.2,1.2-0.1,1.8c-0.2,0.4-0.5,0.4-0.7,0.4l0,0c-0.2,0-0.5-0.1-0.6-0.4
		c-0.2-0.2-1.2-3.2-1.6-4.4l-3,2.4l0.3,2.1c0,0.1,0,0.4-0.2,0.4C8,16.1,7.9,16.1,7.7,16.1z"/>
</g>
</svg>
