<?xml version="1.0" encoding="utf-8"?>
<!-- Generator: Adobe Illustrator 18.0.0, SVG Export Plug-In . SVG Version: 6.00 Build 0)  -->
<!DOCTYPE svg PUBLIC "-//W3C//DTD SVG 1.1//EN" "http://www.w3.org/Graphics/SVG/1.1/DTD/svg11.dtd">
<svg version="1.1" id="Layer_1" xmlns="http://www.w3.org/2000/svg" xmlns:xlink="http://www.w3.org/1999/xlink" x="0px" y="0px"
	 viewBox="0 0 50 50" enable-background="new 0 0 50 50" xml:space="preserve">
<g opacity="0.8">
	<path fill="#99918C" d="M9-0.7c5.4,0,9.7,4.3,9.7,9.7s-4.4,9.7-9.7,9.7S-0.7,14.4-0.7,9S3.7-0.7,9-0.7"/>
</g>
<g>
	<path fill="#FFFFFF" d="M7,15.4c-0.2,0-0.3-0.1-0.4-0.1l-1.3-1.9l-0.3-0.4l-1.8-1.2c-0.2-0.2-0.2-0.4-0.2-0.7
		C3,11,3.2,10.8,3.4,10.8h0.1l2,0.3l2.4-3C6.8,7.7,3.8,6.7,3.7,6.5C3.4,6.3,3.2,6.1,3.3,5.8c0-0.2,0.1-0.5,0.4-0.7
		c0.5-0.3,1-0.2,1.8-0.1c0.2,0.1,0.2,0.1,0.5,0.1c0.5,0.1,2.2,0.3,3.4,0.6l0.9,0.2L12.1,4c0.6-0.6,1.7-0.7,2.3,0
		c0.6,0.7,0.6,1.7,0,2.3l-1.9,1.8l0.2,1.3c0.2,1.2,0.4,2.6,0.5,3.1c0.1,0.1,0.1,0.3,0.1,0.4c0.1,0.7,0.2,1.2-0.1,1.8
		c-0.2,0.4-0.5,0.4-0.7,0.4l0,0c-0.2,0-0.5-0.1-0.6-0.4c-0.2-0.2-1.2-3.2-1.6-4.4l-3,2.4l0.3,2.1c0,0.1,0,0.4-0.2,0.4
		C7.3,15.4,7.2,15.4,7,15.4z"/>
</g>
</svg>
