<?xml version="1.0" encoding="utf-8"?>
<!-- Generator: Adobe Illustrator 18.0.0, SVG Export Plug-In . SVG Version: 6.00 Build 0)  -->
<!DOCTYPE svg PUBLIC "-//W3C//DTD SVG 1.0//EN" "http://www.w3.org/TR/2001/REC-SVG-20010904/DTD/svg10.dtd">
<svg version="1.0" id="Layer_1" xmlns="http://www.w3.org/2000/svg" xmlns:xlink="http://www.w3.org/1999/xlink" x="0px" y="0px"
	 width="18px" height="18px" viewBox="0 0 18 18" enable-background="new 0 0 18 18" xml:space="preserve">
<g>
	<path fill="#F8F4F0" d="M9,0c4.9706964,0,9,4.0295534,9,9c0,4.9704533-4.0293036,9-9,9c-4.9707031,0-9-4.0295467-9-9
		C0,4.0295534,4.0292969,0,9,0"/>
</g>
<g opacity="0.9">
	<path fill="#8F8483" d="M9,2c3.8660975,0,7,3.1340971,7,7c0,3.8659077-3.1339025,7-7,7c-3.8661027,0-7-3.1340923-7-7
		C2,5.1340971,5.1338973,2,9,2"/>
</g>
<g>
	<path fill="#FFFFFF" d="M7.5571289,13.6474609c-0.1071777,0-0.2080078-0.0419922-0.2841797-0.1181641l-0.9714355-1.3745117
		l-0.2473145-0.2421875l-1.2854004-0.8930664C4.6193848,10.875,4.5854492,10.7021484,4.6484375,10.550293
		s0.2089844-0.25,0.3720703-0.25l0.0656738,0.0048828L6.53125,10.5136719l1.7529297-2.1464844
		C7.4404297,8.0766602,5.3098145,7.3364258,5.144043,7.215332C4.9689941,7.081543,4.8723145,6.902832,4.875,6.7219238
		C4.8769531,6.592041,4.9309082,6.4001465,5.1774902,6.222168c0.3251953-0.2333984,0.6889648-0.2087402,1.2631836-0.1003418
		c0.0952148,0.0180664,0.197998,0.0375977,0.3098145,0.0568848c0.4035645,0.064209,1.5615234,0.2600098,2.4619141,0.4123535
		l0.6801758,0.1147461l1.3183594-1.3186035c0.4472656-0.4465332,1.2226562-0.4506836,1.6665039-0.0083008
		c0.4614258,0.4619141,0.4614258,1.2128906,0,1.6743164L11.550293,8.3803711l0.1601562,0.956543
		c0.1411133,0.8476562,0.3037109,1.8237305,0.3671875,2.184082c0.0195312,0.112793,0.0390625,0.2158203,0.0571289,0.3110352
		c0.0976562,0.5166016,0.168457,0.8896484-0.1005859,1.2626953c-0.1801758,0.2504883-0.375,0.3027344-0.5063477,0.3027344
		c0,0,0,0-0.0004883,0c-0.1782227,0-0.3544922-0.0966797-0.4833984-0.2651367
		c-0.1333008-0.1787109-0.8569336-2.2880859-1.1494141-3.1538086l-2.1645508,1.7319336l0.2294922,1.4682617
		c0.0185547,0.1171875-0.0146484,0.2358398-0.090332,0.3251953C7.7910156,13.5952148,7.6772461,13.6474609,7.5571289,13.6474609z"/>
</g>
</svg>
