<?xml version="1.0" encoding="utf-8"?>
<!-- Generator: Adobe Illustrator 18.0.0, SVG Export Plug-In . SVG Version: 6.00 Build 0)  -->
<!DOCTYPE svg PUBLIC "-//W3C//DTD SVG 1.1//EN" "http://www.w3.org/Graphics/SVG/1.1/DTD/svg11.dtd">
<svg version="1.1" id="Layer_1" xmlns="http://www.w3.org/2000/svg" xmlns:xlink="http://www.w3.org/1999/xlink" x="0px" y="0px"
	 width="50px" height="50px" viewBox="-16 -16 50 50" enable-background="new -16 -16 50 50" xml:space="preserve">
<g opacity="0.8">
	<path fill="#99918C" d="M9-10.4c10.7,0,19.4,8.7,19.4,19.4c0,10.7-8.7,19.4-19.4,19.4c-10.7,0-19.4-8.7-19.4-19.4
		C-10.4-1.7-1.7-10.4,9-10.4"/>
</g>
<g>
	<path fill="#FFFFFF" d="M5,21.9c-0.3,0-0.6-0.1-0.8-0.3l-2.7-3.8l-0.7-0.7l-3.6-2.5c-0.4-0.4-0.5-0.9-0.3-1.3
		c0.2-0.4,0.6-0.7,1-0.7l0.2,0l4,0.6l4.9-6C4.7,6.4-1.3,4.4-1.7,4c-0.5-0.4-0.8-0.9-0.7-1.4c0-0.4,0.2-0.9,0.8-1.4
		C-0.7,0.6,0.3,0.7,1.9,1c0.3,0.1,0.5,0.1,0.9,0.2c1.1,0.2,4.3,0.7,6.8,1.1l1.9,0.3L15.1-1c1.2-1.2,3.4-1.3,4.6,0
		c1.3,1.3,1.3,3.4,0,4.7l-3.7,3.7l0.4,2.7c0.4,2.4,0.8,5.1,1,6.1c0.1,0.3,0.1,0.6,0.2,0.9c0.3,1.4,0.5,2.5-0.3,3.5
		c-0.5,0.7-1,0.8-1.4,0.8c0,0,0,0,0,0c-0.5,0-1-0.3-1.3-0.7c-0.4-0.5-2.4-6.4-3.2-8.8l-6,4.8l0.6,4.1c0.1,0.3,0,0.7-0.3,0.9
		C5.6,21.8,5.3,21.9,5,21.9z"/>
</g>
</svg>
