<?xml version="1.0" encoding="utf-8"?>
<!-- Generator: Adobe Illustrator 19.2.1, SVG Export Plug-In . SVG Version: 6.00 Build 0)  -->
<!DOCTYPE svg PUBLIC "-//W3C//DTD SVG 1.1//EN" "http://www.w3.org/Graphics/SVG/1.1/DTD/svg11.dtd">
<svg version="1.1"
	 id="svg16758" inkscape:output_extension="org.inkscape.output.svg.inkscape" inkscape:version="0.46" sodipodi:docname="barcelona.svg" sodipodi:version="0.32" xmlns:cc="http://creativecommons.org/ns#" xmlns:dc="http://purl.org/dc/elements/1.1/" xmlns:inkscape="http://www.inkscape.org/namespaces/inkscape" xmlns:rdf="http://www.w3.org/1999/02/22-rdf-syntax-ns#" xmlns:sodipodi="http://sodipodi.sourceforge.net/DTD/sodipodi-0.dtd" xmlns:svg="http://www.w3.org/2000/svg"
	 xmlns="http://www.w3.org/2000/svg" xmlns:xlink="http://www.w3.org/1999/xlink" x="0px" y="0px" viewBox="0 0 30.61 25"
	 enable-background="new 0 0 30.61 25" xml:space="preserve">
<defs>
	
	
		<inkscape:perspective  id="perspective16766" inkscape:persp3d-origin="372.04724 : 350.78739 : 1" inkscape:vp_x="0 : 526.18109 : 1" inkscape:vp_y="0 : 1000 : 0" inkscape:vp_z="744.09448 : 526.18109 : 1" sodipodi:type="inkscape:persp3d">
		</inkscape:perspective>
</defs>
<sodipodi:namedview  bordercolor="#666666" borderopacity="1.0" id="base" inkscape:current-layer="layer1" inkscape:cx="230.65476" inkscape:cy="209.97905" inkscape:document-units="px" inkscape:pageopacity="0.0" inkscape:pageshadow="2" inkscape:window-height="667" inkscape:window-width="640" inkscape:window-x="154" inkscape:window-y="203" inkscape:zoom="1.1463225" pagecolor="#ffffff" showgrid="false">
	</sodipodi:namedview>
<g id="layer1" transform="translate(-539.60804,224.21762)" inkscape:groupmode="layer" inkscape:label="Ebene 1">
	<path fill="#F8F4F0" d="M555.02-199.22c-1.28,0-2.3-0.26-3.21-1.17l-10.41-7.86c-1.17-0.77-1.79-2.19-1.79-3.47
		s0.66-2.55,1.79-3.47l10.41-7.86c1.02-0.66,1.94-1.17,3.11-1.17c1.28,0,2.3,0.26,3.21,1.17l10.41,7.86
		c1.17,1.02,1.68,2.19,1.68,3.47s-0.66,2.55-1.79,3.47l-10.41,7.86C557.21-199.73,556.34-199.22,555.02-199.22z"/>
	<path opacity="0.7" fill="#F02A10" enable-background="new    " d="M553.38-221.87c0.92-0.77,2.04-0.51,2.96,0l11.94,9.13
		c0.92,0.77,0.92,1.53,0,2.3l-11.94,9.13c-0.92,0.51-2.04,0.51-2.96,0l-12.09-9.13c-0.92-0.77-0.92-1.53,0-2.3L553.38-221.87z"/>
	<g id="g4852">
		<path fill="#F8F4F0" d="M549.66-206.41v-8.11c0-0.66,0.51-1.17,1.17-1.17h1.28c0.66,0,1.28,0.51,1.43,1.17l1.02,3.62
			c0.15,0.66,0.51,0.66,0.66,0l1.02-3.62c0.15-0.66,0.92-1.17,1.43-1.17h1.28c0.66,0,1.17,0.51,1.17,1.17v6.84
			c0,0.66-0.51,1.17-1.17,1.17h-0.41c-0.66,0-1.17-0.51-1.17-1.17v-0.51c0-0.66,0-1.43,0-1.79s0-1.17,0.15-1.53
			c0-0.51,0-0.92,0-0.92s-0.15,0.51-0.41,1.17l-1.02,3.72c-0.15,0.66-0.77,1.17-1.28,1.17s-1.28-0.51-1.28-1.17l-1.02-3.72
			c-0.15-0.66-0.26-1.17-0.41-1.17c0,0,0,0.26,0,0.77c0,0.41,0.15,1.02,0.15,1.28s0,1.28,0,1.79v0.92c0,0.66-0.51,1.17-1.17,1.17
			L549.66-206.41"/>
	</g>
</g>
</svg>
