<?xml version="1.0" encoding="utf-8"?>
<!-- Generator: Adobe Illustrator 18.0.0, SVG Export Plug-In . SVG Version: 6.00 Build 0)  -->
<!DOCTYPE svg PUBLIC "-//W3C//DTD SVG 1.1//EN" "http://www.w3.org/Graphics/SVG/1.1/DTD/svg11.dtd">
<svg version="1.1"
	 id="svg16758" xmlns:svg="http://www.w3.org/2000/svg" xmlns:sodipodi="http://sodipodi.sourceforge.net/DTD/sodipodi-0.dtd" xmlns:inkscape="http://www.inkscape.org/namespaces/inkscape" xmlns:cc="http://creativecommons.org/ns#" xmlns:dc="http://purl.org/dc/elements/1.1/" xmlns:rdf="http://www.w3.org/1999/02/22-rdf-syntax-ns#" inkscape:version="0.46" sodipodi:version="0.32" sodipodi:docname="barcelona.svg" inkscape:output_extension="org.inkscape.output.svg.inkscape"
	 xmlns="http://www.w3.org/2000/svg" xmlns:xlink="http://www.w3.org/1999/xlink" x="0px" y="0px" width="63px" height="50px"
	 viewBox="0 0 63 50" enable-background="new 0 0 63 50" xml:space="preserve">
<defs>
	
	
		<inkscape:perspective  inkscape:vp_x="0 : 526.18109 : 1" inkscape:vp_y="0 : 1000 : 0" sodipodi:type="inkscape:persp3d" inkscape:vp_z="744.09448 : 526.18109 : 1" id="perspective16766" inkscape:persp3d-origin="372.04724 : 350.78739 : 1">
		</inkscape:perspective>
</defs>
<sodipodi:namedview  inkscape:zoom="1.1463225" inkscape:cy="209.97905" borderopacity="1.0" pagecolor="#ffffff" bordercolor="#666666" showgrid="false" inkscape:cx="230.65476" id="base" inkscape:window-y="203" inkscape:window-x="154" inkscape:window-height="667" inkscape:window-width="640" inkscape:current-layer="layer1" inkscape:document-units="px" inkscape:pageshadow="2" inkscape:pageopacity="0.0">
	</sodipodi:namedview>
<g id="layer1" transform="translate(-539.60804,224.21762)" inkscape:label="Ebene 1" inkscape:groupmode="layer">
	<path fill="#F8F4F0" d="M571.2-174.2c-2.5,0-4.7-0.6-6.6-2.2l-21.2-15.9c-2.2-1.6-3.8-4.4-3.8-6.9c0-2.8,1.3-5.3,3.8-6.9l21.2-15.9
		c1.9-1.2,4.1-2.2,6.2-2.2c2.5,0,4.7,0.6,6.6,2.2l21.2,15.9c2.2,1.9,3.4,4.4,3.4,6.9c0,2.8-1.3,5.3-3.8,6.9l-21.2,15.9
		C575.9-175.1,573.7-174.2,571.2-174.2z"/>
	<path opacity="0.7" fill="#F02A10" enable-background="new    " d="M567.8-220.4c1.8-1.5,4.3-1.1,6.1,0l24.6,18.7
		c1.8,1.5,1.8,3.3,0,4.8L574-178.2c-1.8,1.1-4.3,1.1-6.1,0L543.2-197c-1.8-1.5-1.8-3.3,0-4.8L567.8-220.4z"/>
	<g id="g4852">
		<path fill="#F8F4F0" d="M560.3-188.9v-16.4c0-1.3,1-2.3,2.3-2.3h2.7c1.3,0,2.6,1,2.9,2.3l2,7.2c0.3,1.2,0.9,1.2,1.3,0l2-7.2
			c0.3-1.2,1.7-2.3,2.9-2.3h2.7c1.3,0,2.3,1.1,2.3,2.3v14.1c0,1.3-1,2.3-2.3,2.3h-0.8c-1.3,0-2.3-1.1-2.3-2.3v-1c0-1.3,0-3,0-3.8
			c0-0.8,0.1-2.2,0.2-3.2c0.1-0.9,0.1-1.7,0.1-1.7s-0.3,1-0.7,2.3l-2.1,7.5c-0.3,1.2-1.6,2.3-2.7,2.3c-1.2,0-2.4-1-2.7-2.3l-2.1-7.5
			c-0.3-1.2-0.6-2.3-0.7-2.3s0,0.6,0.1,1.4s0.2,2,0.2,2.8c0,0.8,0.1,2.5,0.1,3.8v1.7c0,1.3-1,2.3-2.3,2.3H560.3"/>
	</g>
</g>
</svg>
