<?xml version="1.0" encoding="utf-8"?>
<!-- Generator: Adobe Illustrator 19.2.1, SVG Export Plug-In . SVG Version: 6.00 Build 0)  -->
<!DOCTYPE svg PUBLIC "-//W3C//DTD SVG 1.1//EN" "http://www.w3.org/Graphics/SVG/1.1/DTD/svg11.dtd">
<svg version="1.1" id="Layer_1" xmlns="http://www.w3.org/2000/svg" xmlns:xlink="http://www.w3.org/1999/xlink" x="0px" y="0px"
	 viewBox="0 0 19.6 19.6" enable-background="new 0 0 19.6 19.6" xml:space="preserve">
<g>
	<path fill="#F8F4F0" d="M9.8,0c5.4,0,9.8,4.4,9.8,9.8s-4.4,9.8-9.8,9.8S0,15.2,0,9.8S4.4,0,9.8,0"/>
</g>
<g opacity="0.6">
	<path fill="#446B52" d="M9.8,0.1c5.4,0,9.7,4.3,9.7,9.7s-4.4,9.7-9.7,9.7s-9.7-4.4-9.7-9.7S4.4,0.1,9.8,0.1"/>
</g>
<path fill="#FFFFFF" d="M14.8,13.1h-1.5V8.2c0-0.1,0-0.1,0-0.1c0-2-1.6-3.5-3.5-3.5S6.2,6.2,6.2,8.1v5H4.8c-0.4,0-0.7,0.3-0.7,0.7
	s0.3,0.7,0.7,0.7h1.5h7.1h1.4c0.4,0,0.7-0.3,0.7-0.7S15.2,13.1,14.8,13.1z"/>
<path opacity="0.6" fill="#446B52" enable-background="new    " d="M10.8,9.6H8.7c-0.6,0-1.1-0.5-1.1-1l0,0c0-0.6,0.5-1.1,1.1-1.1
	h2.1c0.6,0,1,0.5,1,1.1l0,0C11.9,9,11.4,9.6,10.8,9.6z"/>
</svg>
