<?xml version="1.0" encoding="utf-8"?>
<!-- Generator: Adobe Illustrator 18.0.0, SVG Export Plug-In . SVG Version: 6.00 Build 0)  -->
<!DOCTYPE svg PUBLIC "-//W3C//DTD SVG 1.1//EN" "http://www.w3.org/Graphics/SVG/1.1/DTD/svg11.dtd">
<svg version="1.1" id="Layer_1" xmlns="http://www.w3.org/2000/svg" xmlns:xlink="http://www.w3.org/1999/xlink" x="0px" y="0px"
	 width="50px" height="50px" viewBox="0 0 50 50" enable-background="new 0 0 50 50" xml:space="preserve">
<g>
	<path fill="#F8F4F0" d="M25,5.5c10.8,0,19.5,8.7,19.5,19.5c0,10.8-8.7,19.5-19.5,19.5C14.2,44.5,5.5,35.8,5.5,25
		C5.5,14.2,14.2,5.5,25,5.5"/>
</g>
<g opacity="0.6">
	<path fill="#446B52" d="M25,5.6c10.7,0,19.4,8.7,19.4,19.4c0,10.7-8.7,19.4-19.4,19.4C14.3,44.4,5.6,35.7,5.6,25
		C5.6,14.3,14.3,5.6,25,5.6"/>
</g>
<path fill="#FFFFFF" d="M35,31.6h-2.9v-9.8c0-0.1,0-0.1,0-0.2c0-3.9-3.2-7.1-7.1-7.1s-7.1,3.2-7.1,7.1v10H15c-0.8,0-1.4,0.6-1.4,1.4
	s0.6,1.4,1.4,1.4h2.9h14.3H35c0.8,0,1.4-0.6,1.4-1.4S35.8,31.6,35,31.6z"/>
<path opacity="0.6" fill="#446B52" enable-background="new    " d="M27.1,24.5h-4.3c-1.2,0-2.1-1-2.1-2.1v0c0-1.2,1-2.1,2.1-2.1h4.3
	c1.2,0,2.1,1,2.1,2.1v0C29.3,23.5,28.3,24.5,27.1,24.5z"/>
</svg>
