<?xml version="1.0" encoding="utf-8"?>
<!-- Generator: Adobe Illustrator 18.0.0, SVG Export Plug-In . SVG Version: 6.00 Build 0)  -->
<!DOCTYPE svg PUBLIC "-//W3C//DTD SVG 1.0//EN" "http://www.w3.org/TR/2001/REC-SVG-20010904/DTD/svg10.dtd">
<svg version="1.0" id="Layer_1" xmlns="http://www.w3.org/2000/svg" xmlns:xlink="http://www.w3.org/1999/xlink" x="0px" y="0px"
	 width="18px" height="18px" viewBox="0 0 18 18" enable-background="new 0 0 18 18" xml:space="preserve">
<path fill="#F8F4F0" d="M9,0c4.9706964,0,9,4.0295534,9,9c0,4.9704533-4.0293036,9-9,9c-4.9707031,0-9-4.0295467-9-9
	C0,4.0295534,4.0292969,0,9,0"/>
<path opacity="0.6" fill="#446B52" enable-background="new    " d="M9,2c3.8660975,0,7,3.1340971,7,7c0,3.8659077-3.1339025,7-7,7
	c-3.8661027,0-7-3.1340923-7-7C2,5.1340971,5.1338973,2,9,2"/>
<circle fill="#FFFFFF" cx="9" cy="7.5" r="2.5"/>
<rect x="6.5" y="7.5" fill="#FFFFFF" width="4.9969482" height="4.5"/>
<path fill="#FFFFFF" d="M12.500001,12H5.4999995C5.2249999,12,5,11.7750006,5,11.500001V11.499999
	C5,11.2249994,5.2249999,11,5.4999995,11h7.0000014C12.7750006,11,13,11.2249994,13,11.499999v0.0000019
	C13,11.7750006,12.7750006,12,12.500001,12z"/>
<path opacity="0.6" fill="#446B52" enable-background="new    " d="M9.750001,8.5H8.249999
	C7.8374996,8.5,7.5,8.1625004,7.5,7.750001V7.749999C7.5,7.3374996,7.8374996,7,8.249999,7H9.750001
	C10.1625004,7,10.5,7.3374996,10.5,7.749999V7.750001C10.5,8.1625004,10.1625004,8.5,9.750001,8.5z"/>
</svg>
