<?xml version="1.0" encoding="utf-8"?>
<!-- Generator: Adobe Illustrator 18.0.0, SVG Export Plug-In . SVG Version: 6.00 Build 0)  -->
<!DOCTYPE svg PUBLIC "-//W3C//DTD SVG 1.1//EN" "http://www.w3.org/Graphics/SVG/1.1/DTD/svg11.dtd">
<svg version="1.1" id="Layer_1" xmlns="http://www.w3.org/2000/svg" xmlns:xlink="http://www.w3.org/1999/xlink" x="0px" y="0px"
	 viewBox="0 0 50 50" enable-background="new 0 0 50 50" xml:space="preserve">
<g>
	<path fill="#F8F4F0" d="M25,15.2c5.4,0,9.8,4.4,9.8,9.8s-4.4,9.8-9.8,9.8s-9.8-4.4-9.8-9.8S19.6,15.2,25,15.2"/>
</g>
<g opacity="0.6">
	<path fill="#446B52" d="M25,15.3c5.4,0,9.7,4.3,9.7,9.7s-4.4,9.7-9.7,9.7s-9.7-4.4-9.7-9.7S19.6,15.3,25,15.3"/>
</g>
<path fill="#FFFFFF" d="M30,28.3h-1.5v-4.9c0-0.1,0-0.1,0-0.1c0-2-1.6-3.5-3.5-3.5s-3.6,1.6-3.6,3.5v5H20c-0.4,0-0.7,0.3-0.7,0.7
	s0.3,0.7,0.7,0.7h1.5h7.1H30c0.4,0,0.7-0.3,0.7-0.7S30.4,28.3,30,28.3z"/>
<path opacity="0.6" fill="#446B52" enable-background="new    " d="M26,24.8h-2.1c-0.6,0-1.1-0.5-1.1-1l0,0c0-0.6,0.5-1.1,1.1-1.1
	H26c0.6,0,1,0.5,1,1.1l0,0C27.1,24.2,26.6,24.8,26,24.8z"/>
</svg>
