<?xml version="1.0" encoding="utf-8"?>
<!-- Generator: Adobe Illustrator 18.0.0, SVG Export Plug-In . SVG Version: 6.00 Build 0)  -->
<!DOCTYPE svg PUBLIC "-//W3C//DTD SVG 1.1//EN" "http://www.w3.org/Graphics/SVG/1.1/DTD/svg11.dtd">
<svg version="1.1" id="Layer_1" xmlns:svg="http://www.w3.org/2000/svg"
	 xmlns="http://www.w3.org/2000/svg" xmlns:xlink="http://www.w3.org/1999/xlink" x="0px" y="0px" width="50px" height="50px"
	 viewBox="0 0 50 50" enable-background="new 0 0 50 50" xml:space="preserve">
<circle fill="#F8F4F0" cx="25" cy="25" r="25"/>
<g id="path7" opacity="0.7">
	<path fill="#4C72AA" stroke="#F02A10" stroke-width="3" stroke-miterlimit="10" d="M42.2,25c0,9.4-7.8,17.2-17.2,17.2
		S7.8,34.4,7.8,25c0-9.7,7.8-17.2,17.2-17.2S42.2,15.3,42.2,25"/>
</g>
<path id="path9" fill="#F8F4F0" d="M17.5,24.1c0-0.3-0.3-0.3-0.6-0.3c-1.2,0-1.6,1.6-1.6,2.5c0,0.6,0.3,1.6,0.9,1.6s0.9-0.6,1.3-1.2
	h2.8c-0.6,2.2-1.9,3.1-4.1,3.1c-3.1,0-3.8-2.2-3.8-3.4c0-2.5,1.6-4.7,4.4-4.7c2.2,0,3.4,0.9,3.4,3.1h-2.5
	C17.8,24.4,17.8,24.1,17.5,24.1"/>
<path id="path11" fill="#F8F4F0" d="M26.9,27.2l-0.3,2.2c0,0-0.6,0-1.2,0c-0.6,0-1.3,0-1.9-0.3c-0.3,0-0.6-0.6-0.6-1.2
	c0-0.3,0-0.6,0.3-0.9l0.6-3.1h-1.2l0.3-1.9h1.2l0.3-2.2h2.8l-0.6,2.2h1.6l-0.3,1.9h-1.2l-0.6,2.5c0,0,0,0.3,0,0.6s0.3,0.3,0.3,0.3
	C26.9,27.2,26.9,27.2,26.9,27.2"/>
<path id="path13" fill="#F8F4F0" d="M32.8,27.8c-0.3,0-0.9,0-0.9-0.6c0-0.6,0.6-0.6,0.9-0.9c0.6,0,0.9-0.3,1.2-0.3
	C34.1,26.9,33.4,27.5,32.8,27.8 M33.8,21.6c-1.9,0-3.1,0.6-3.7,2.5h2.8c0.3-0.3,0.6-0.6,1.2-0.6c0.3,0,0.9,0,0.9,0.6
	c0,0.6-1.6,0.6-2.2,0.9c-2.2-0.3-3.8,0.6-3.8,2.5c0,1.6,1.2,2.2,2.5,2.2c0.9,0,1.9-0.3,2.2-0.9l0,0l-0.3,0.9h2.8
	c0,0,1.2-4.7,1.2-5.9C37.5,21.6,35.3,21.6,33.8,21.6z"/>
</svg>
