<?xml version="1.0" encoding="utf-8"?>
<!-- Generator: Adobe Illustrator 19.2.1, SVG Export Plug-In . SVG Version: 6.00 Build 0)  -->
<!DOCTYPE svg PUBLIC "-//W3C//DTD SVG 1.1//EN" "http://www.w3.org/Graphics/SVG/1.1/DTD/svg11.dtd">
<svg version="1.1"
	 id="svg2" inkscape:version="0.48.1 " sodipodi:docname="Chongqing Rail Transit Logo.svg" xmlns:cc="http://creativecommons.org/ns#" xmlns:dc="http://purl.org/dc/elements/1.1/" xmlns:inkscape="http://www.inkscape.org/namespaces/inkscape" xmlns:rdf="http://www.w3.org/1999/02/22-rdf-syntax-ns#" xmlns:sodipodi="http://sodipodi.sourceforge.net/DTD/sodipodi-0.dtd" xmlns:svg="http://www.w3.org/2000/svg"
	 xmlns="http://www.w3.org/2000/svg" xmlns:xlink="http://www.w3.org/1999/xlink" x="0px" y="0px" viewBox="0 0 45.07 25"
	 enable-background="new 0 0 45.07 25" xml:space="preserve">
<sodipodi:namedview  bordercolor="#666666" borderopacity="1" fit-margin-bottom="0" fit-margin-left="0" fit-margin-right="0" fit-margin-top="0" gridtolerance="10" guidetolerance="10" id="namedview52" inkscape:current-layer="#019241ff" inkscape:cx="95.248479" inkscape:cy="39.516592" inkscape:pageopacity="0" inkscape:pageshadow="2" inkscape:window-height="845" inkscape:window-maximized="1" inkscape:window-width="1600" inkscape:window-x="-4" inkscape:window-y="-4" inkscape:zoom="4.688" objecttolerance="10" pagecolor="#ffffff" showgrid="false">
	</sodipodi:namedview>
<path fill="#F8F4F0" d="M6.39,25c-0.53,0-1.45,0-2.7-0.46l-0.2-0.07l-1.12-0.66l-0.86-0.99l-0.07-0.13
	c-0.33-0.46-0.72-1.05-0.99-1.84c-0.79-1.97-0.53-4.47,0.72-6.58C2.16,12.36,8.14,1.38,8.14,1.38L8.89,0h36.18L35.6,17.76h-1.91
	c-0.66,1.38-1.64,3.62-2.5,5.66L30.53,25H6.39z"/>
<path fill="#019241" d="M34.02,15.13c0,0-1.84,0-1.97,0c-0.33,0.46-3.29,7.24-3.29,7.24H6.39c-0.46,0-0.99,0-1.84-0.33l-0.53-0.26
	l-0.46-0.53c-0.33-0.46-0.53-0.86-0.66-1.32c-0.53-1.32-0.33-2.96,0.53-4.41c0.99-1.78,7.04-12.89,7.04-12.89h30.2L34.02,15.13z"/>
<g id="_x23_019241ff" transform="translate(-4.2756903,-8.53)">
	<path id="path22" inkscape:connector-curvature="0" sodipodi:nodetypes="ccccccccc" fill="#F8F4F0" d="M26.07,15.16
		c1.38,0,2.83,0,4.28,0c-0.99,1.64-1.91,3.88-2.83,5.59c-1.05,0-1.51,0.13-2.37,0.13c0,2.04,0,4.21,0,6.12c-1.38,0-2.24,0-3.75,0
		c0-2.04,0-4.21,0-6.12c0.66,0,1.32,0,1.91,0C24.17,19.04,25.22,17.19,26.07,15.16z"/>
	<path id="path24" inkscape:connector-curvature="0" fill="#F8F4F0" d="M11.01,24.89c1.84-3.29,3.49-6.58,5.33-9.87
		c2.43,0,4.8,0,7.11,0c-0.72,1.32-1.45,2.63-2.17,3.82c-0.13,0.2-0.33,0.53-0.66,0.53c-0.72,0-1.58,0-2.24,0
		c-0.2,0.53-0.53,0.86-0.72,1.32c0.33,0,0.72,0,1.05,0c0,2.04,0,4.14,0,6.18c-2.24,0-4.61,0-6.91,0c-0.33,0-0.59,0-0.99-0.13
		C10.35,26.41,10.61,25.55,11.01,24.89"/>
	<path id="path26" inkscape:connector-curvature="0" sodipodi:nodetypes="cccccccc" fill="#F8F4F0" d="M29.3,22.46
		c1.05-2.5,2.37-4.93,3.55-7.37c2.24,0,4.54,0,6.78,0c-1.18,1.91-2.04,3.68-3.22,5.72c-0.72,0-1.18,0-1.78,0
		c-0.99,2.04-2.04,4.08-2.89,6.12c-1.51,0-3.09,0-4.61,0C27.72,25.48,28.57,23.97,29.3,22.46z"/>
</g>
<ellipse fill="#019241" cx="10.99" cy="15.46" rx="1.97" ry="1.38"/>
<line fill="none" stroke="#019241" stroke-width="2" stroke-linecap="round" stroke-miterlimit="10" x1="9.88" y1="15.26" x2="11.85" y2="10.72"/>
</svg>
