<?xml version="1.0" encoding="utf-8"?>
<!-- Generator: Adobe Illustrator 18.0.0, SVG Export Plug-In . SVG Version: 6.00 Build 0)  -->
<!DOCTYPE svg PUBLIC "-//W3C//DTD SVG 1.1//EN" "http://www.w3.org/Graphics/SVG/1.1/DTD/svg11.dtd">
<svg version="1.1"
	 id="svg2" xmlns:svg="http://www.w3.org/2000/svg" xmlns:sodipodi="http://sodipodi.sourceforge.net/DTD/sodipodi-0.dtd" xmlns:inkscape="http://www.inkscape.org/namespaces/inkscape" xmlns:cc="http://creativecommons.org/ns#" xmlns:dc="http://purl.org/dc/elements/1.1/" xmlns:rdf="http://www.w3.org/1999/02/22-rdf-syntax-ns#" inkscape:version="0.48.1 " sodipodi:docname="Chongqing Rail Transit Logo.svg"
	 xmlns="http://www.w3.org/2000/svg" xmlns:xlink="http://www.w3.org/1999/xlink" x="0px" y="0px" width="70px" height="50px"
	 viewBox="-10 0 70 50" enable-background="new -10 0 70 50" xml:space="preserve">
<sodipodi:namedview  objecttolerance="10" fit-margin-top="0" guidetolerance="10" inkscape:zoom="4.688" fit-margin-left="0" inkscape:cy="39.516592" borderopacity="1" pagecolor="#ffffff" bordercolor="#666666" gridtolerance="10" showgrid="false" inkscape:cx="95.248479" id="namedview52" inkscape:window-y="-4" inkscape:window-x="-4" inkscape:window-height="845" inkscape:window-width="1600" inkscape:current-layer="#019241ff" inkscape:pageshadow="2" inkscape:pageopacity="0" fit-margin-right="0" inkscape:window-maximized="1" fit-margin-bottom="0">
	</sodipodi:namedview>
<path fill="#F8F4F0" d="M1.2,43.9c-0.8,0-2.2,0-4.1-0.7l-0.3-0.1l-1.7-1l-1.3-1.5l-0.1-0.2c-0.5-0.7-1.1-1.6-1.5-2.8
	c-1.2-3-0.8-6.8,1.1-10C-5.2,24.7,3.9,8,3.9,8L5,5.9h55l-14.4,27h-2.9c-1,2.1-2.5,5.5-3.8,8.6l-1,2.4H1.2z"/>
<path fill="#019241" d="M43.2,28.9c0,0-2.8,0-3,0c-0.5,0.7-5,11-5,11h-34c-0.7,0-1.5,0-2.8-0.5L-2.4,39l-0.7-0.8
	c-0.5-0.7-0.8-1.3-1-2c-0.8-2-0.5-4.5,0.8-6.7C-1.8,26.8,7.4,9.9,7.4,9.9h45.9L43.2,28.9z"/>
<g id="_x23_019241ff" transform="translate(-4.2756903,-8.53)">
	<path id="path22" inkscape:connector-curvature="0" sodipodi:nodetypes="ccccccccc" fill="#F8F4F0" d="M28.9,24.5
		c2.1,0,4.3,0,6.5,0c-1.5,2.5-2.9,5.9-4.3,8.5c-1.6,0-2.3,0.2-3.6,0.2c0,3.1,0,6.4,0,9.3c-2.1,0-3.4,0-5.7,0c0-3.1,0-6.4,0-9.3
		c1,0,2,0,2.9,0C26,30.4,27.6,27.6,28.9,24.5z"/>
	<path id="path24" inkscape:connector-curvature="0" fill="#F8F4F0" d="M6,39.3c2.8-5,5.3-10,8.1-15c3.7,0,7.3,0,10.8,0
		c-1.1,2-2.2,4-3.3,5.8c-0.2,0.3-0.5,0.8-1,0.8c-1.1,0-2.4,0-3.4,0c-0.3,0.8-0.8,1.3-1.1,2c0.5,0,1.1,0,1.6,0c0,3.1,0,6.3,0,9.4
		c-3.4,0-7,0-10.5,0c-0.5,0-0.9,0-1.5-0.2C5,41.6,5.4,40.3,6,39.3"/>
	<path id="path26" inkscape:connector-curvature="0" sodipodi:nodetypes="cccccccc" fill="#F8F4F0" d="M33.8,35.6
		c1.6-3.8,3.6-7.5,5.4-11.2c3.4,0,6.9,0,10.3,0c-1.8,2.9-3.1,5.6-4.9,8.7c-1.1,0-1.8,0-2.7,0c-1.5,3.1-3.1,6.2-4.4,9.3
		c-2.3,0-4.7,0-7,0C31.4,40.2,32.7,37.9,33.8,35.6z"/>
</g>
<ellipse fill="#019241" cx="8.2" cy="29.4" rx="3" ry="2.1"/>
<line fill="none" stroke="#019241" stroke-width="2" stroke-linecap="round" stroke-miterlimit="10" x1="6.5" y1="29.1" x2="9.5" y2="22.2"/>
</svg>
