<?xml version="1.0" encoding="utf-8"?>
<!-- Generator: Adobe Illustrator 18.0.0, SVG Export Plug-In . SVG Version: 6.00 Build 0)  -->
<!DOCTYPE svg PUBLIC "-//W3C//DTD SVG 1.1//EN" "http://www.w3.org/Graphics/SVG/1.1/DTD/svg11.dtd">
<svg version="1.1" id="Layer_1" xmlns="http://www.w3.org/2000/svg" xmlns:xlink="http://www.w3.org/1999/xlink" x="0px" y="0px"
	 viewBox="0 0 50 50" enable-background="new 0 0 50 50" xml:space="preserve">
<path opacity="0.8" fill="#99918C" enable-background="new    " d="M25,15c5.5,0,10,4.5,10,10s-4.5,10-10,10s-10-4.5-10-10
	S19.5,15,25,15"/>
<path fill="#F8F6F0" d="M25.8,25.1c-0.5,0.2-1.2,0.2-1.7,0l-5.4-2.9c-0.4-0.2-0.4-0.6,0.1-0.8l5.3-2.2c0.5-0.2,1.3-0.2,1.8,0
	l5.4,2.2c0.5,0.2,0.5,0.5,0,0.8L25.8,25.1z"/>
<rect x="19.1" y="22.2" fill="#F8F6F0" width="1.4" height="4.4"/>
<path fill="#F8F6F0" d="M26.8,27c-0.6,0.3-1.4,0.4-1.8,0.4c-0.5,0-1.2,0-1.8-0.4l-0.6-0.3v0.1c0,0.8-0.3,1.5-0.9,2
	c0.4,1,1.8,1.8,3.4,1.8c1.9,0,3.4-1,3.5-2.2l0,0V26L26.8,27z"/>
<circle fill="#F8F6F0" cx="19.8" cy="26.8" r="1.4"/>
</svg>
