<?xml version="1.0" encoding="utf-8"?>
<!-- Generator: Adobe Illustrator 18.0.0, SVG Export Plug-In . SVG Version: 6.00 Build 0)  -->
<!DOCTYPE svg PUBLIC "-//W3C//DTD SVG 1.1//EN" "http://www.w3.org/Graphics/SVG/1.1/DTD/svg11.dtd">
<svg version="1.1" id="Layer_1" xmlns="http://www.w3.org/2000/svg" xmlns:xlink="http://www.w3.org/1999/xlink" x="0px" y="0px"
	 width="50px" height="50px" viewBox="0 0 50 50" enable-background="new 0 0 50 50" xml:space="preserve">
<path opacity="0.8" fill="#99918C" enable-background="new    " d="M25,5c11,0,20,9,20,20s-9,20-20,20S5,36,5,25S14,5,25,5"/>
<path fill="#F8F6F0" d="M26.5,25.2c-0.9,0.5-2.5,0.5-3.4,0l-10.9-5.7c-0.9-0.5-0.9-1.2,0.1-1.6L23,13.6c1-0.4,2.6-0.4,3.6,0
	l10.7,4.3c1,0.4,1,1.1,0.1,1.6L26.5,25.2z"/>
<rect x="13.2" y="19.4" fill="#F8F6F0" width="2.8" height="8.8"/>
<path fill="#F8F6F0" d="M28.5,28.9c-1.3,0.7-2.7,0.8-3.6,0.8s-2.3-0.1-3.6-0.8l-1.1-0.6v0.1c0,1.7-0.7,3.1-1.9,4.1
	c0.7,2.1,3.5,3.6,6.7,3.6c3.8,0,6.8-2,6.9-4.5l0,0V27L28.5,28.9z"/>
<circle fill="#F8F6F0" cx="14.6" cy="28.5" r="2.8"/>
</svg>
