<?xml version="1.0" encoding="utf-8"?>
<!-- Generator: Adobe Illustrator 19.2.1, SVG Export Plug-In . SVG Version: 6.00 Build 0)  -->
<!DOCTYPE svg PUBLIC "-//W3C//DTD SVG 1.1//EN" "http://www.w3.org/Graphics/SVG/1.1/DTD/svg11.dtd">
<svg version="1.1" id="Layer_1" xmlns="http://www.w3.org/2000/svg" xmlns:xlink="http://www.w3.org/1999/xlink" x="0px" y="0px"
	 viewBox="0 0 20 20" enable-background="new 0 0 20 20" xml:space="preserve">
<path opacity="0.8" fill="#99918C" enable-background="new    " d="M10,0c5.5,0,10,4.5,10,10s-4.5,10-10,10S0,15.5,0,10S4.5,0,10,0"
	/>
<path fill="#F8F6F0" d="M10.8,10.1c-0.5,0.2-1.2,0.2-1.7,0L3.7,7.2C3.3,7,3.3,6.6,3.8,6.4l5.3-2.2c0.5-0.2,1.3-0.2,1.8,0l5.4,2.2
	c0.5,0.2,0.5,0.5,0,0.8L10.8,10.1z"/>
<rect x="4.1" y="7.2" fill="#F8F6F0" width="1.4" height="4.4"/>
<path fill="#F8F6F0" d="M11.8,12c-0.6,0.3-1.4,0.4-1.8,0.4c-0.5,0-1.2,0-1.8-0.4l-0.6-0.3v0.1c0,0.8-0.3,1.5-0.9,2
	c0.4,1,1.8,1.8,3.4,1.8c1.9,0,3.4-1,3.5-2.2l0,0V11L11.8,12z"/>
<circle fill="#F8F6F0" cx="4.8" cy="11.8" r="1.4"/>
</svg>
