<?xml version="1.0" encoding="utf-8"?>
<!-- Generator: Adobe Illustrator 19.2.1, SVG Export Plug-In . SVG Version: 6.00 Build 0)  -->
<!DOCTYPE svg PUBLIC "-//W3C//DTD SVG 1.1//EN" "http://www.w3.org/Graphics/SVG/1.1/DTD/svg11.dtd">
<svg version="1.1" id="Layer_1" xmlns="http://www.w3.org/2000/svg" xmlns:xlink="http://www.w3.org/1999/xlink" x="0px" y="0px"
	 viewBox="0 0 50 25" enable-background="new 0 0 50 25" xml:space="preserve">
<path fill="#F8F4F0" d="M37.5,25C30.58,25,25,19.42,25,12.5S30.58,0,37.5,0S50,5.58,50,12.5S44.42,25,37.5,25"/>
<path opacity="0.7" fill="#006F4D" enable-background="new    " d="M37.5,22.17c-5.33,0-9.67-4.33-9.67-9.67s4.33-9.67,9.67-9.67
	s9.67,4.33,9.67,9.67S42.83,22.17,37.5,22.17"/>
<path fill="#FFFFFF" d="M35.33,8.58c0-0.75,0.67-1.42,1.92-1.42c2.17,0,4.08,0.83,5.33,2.17V7.41c-1.42-1.08-3.33-1.83-5.33-1.83
	c-2.42,0-4.83,1.25-4.83,3.83c0,5.08,7.67,3.83,7.67,6.83c0,0.83-1.08,1.42-2.33,1.42c-2.17,0-4.17-0.83-5.33-2.58v2.58
	c1.25,1.08,3.33,1.92,5.33,1.92c3.5,0,5.42-2.33,5.42-4.42C43.17,9.67,35.33,11.83,35.33,8.58"/>
<path fill="#F8F4F0" d="M6.25,25C2.83,25,0,22.17,0,18.75V6.25C0,2.83,2.83,0,6.25,0h12.5C22.17,0,25,2.83,25,6.25v12.5
	c0,3.42-2.83,6.25-6.25,6.25H6.25z"/>
<path opacity="0.7" fill="#104E81" enable-background="new    " d="M2.83,6.25c0-1.92,1.58-3.42,3.42-3.42h12.5
	c1.92,0,3.42,1.58,3.42,3.42v12.5c0,1.92-1.58,3.42-3.42,3.42H6.25c-1.92,0-3.42-1.58-3.42-3.42V6.25z"/>
<path fill="#FFFFFF" d="M18,14.17c0-3.17,0-8.25,0-8.25h-3.33v8.25c0,1.25-1.08,2.17-2.17,2.17c-1.08,0-2.17-0.92-2.17-2.17
	c0-2.92,0-8.25,0-8.25H7c0,0,0,7.75,0,8.25c0,2.75,2.75,4.92,5.5,4.92S18,16.92,18,14.17"/>
</svg>
