<?xml version="1.0" encoding="utf-8"?>
<!-- Generator: Adobe Illustrator 19.2.1, SVG Export Plug-In . SVG Version: 6.00 Build 0)  -->
<!DOCTYPE svg PUBLIC "-//W3C//DTD SVG 1.1//EN" "http://www.w3.org/Graphics/SVG/1.1/DTD/svg11.dtd">
<svg version="1.1" id="Layer_1" xmlns="http://www.w3.org/2000/svg" xmlns:xlink="http://www.w3.org/1999/xlink" x="0px" y="0px"
	 viewBox="0 0 25 25" enable-background="new 0 0 25 25" xml:space="preserve">
<path fill="#F8F4F0" d="M12.5,25C5.58,25,0,19.42,0,12.5S5.58,0,12.5,0S25,5.58,25,12.5S19.42,25,12.5,25"/>
<path opacity="0.7" fill="#006F4D" enable-background="new    " d="M12.5,22.21c-5.33,0-9.71-4.38-9.71-9.71s4.38-9.71,9.71-9.71
	s9.71,4.38,9.71,9.71S17.83,22.21,12.5,22.21"/>
<path fill="#FFFFFF" d="M10.29,8.58c0-0.75,0.71-1.42,1.96-1.42c2.17,0,4.08,0.83,5.33,2.21V7.42c-1.41-1.09-3.29-1.84-5.29-1.84
	C9.92,5.54,7.5,6.79,7.5,9.33c0,5.04,7.67,3.79,7.67,6.79c0,0.79-1.04,1.42-2.33,1.42c-2.17,0-4.17-0.83-5.29-2.54v2.54
	c1.25,1.08,3.33,1.92,5.29,1.92c3.5,0,5.46-2.29,5.46-4.42C18.21,9.71,10.29,11.79,10.29,8.58"/>
</svg>
