<?xml version="1.0" encoding="utf-8"?>
<!-- Generator: Adobe Illustrator 18.0.0, SVG Export Plug-In . SVG Version: 6.00 Build 0)  -->
<!DOCTYPE svg PUBLIC "-//W3C//DTD SVG 1.1//EN" "http://www.w3.org/Graphics/SVG/1.1/DTD/svg11.dtd">
<svg version="1.1" id="Layer_1" xmlns="http://www.w3.org/2000/svg" xmlns:xlink="http://www.w3.org/1999/xlink" x="0px" y="0px"
	 viewBox="-16 -16 50 50" enable-background="new -16 -16 50 50" xml:space="preserve">
<path fill="#F8F4F0" d="M9,34C-4.8,34-16,22.8-16,9C-16-4.8-4.8-16,9-16S34-4.8,34,9C34,22.8,22.8,34,9,34"/>
<path opacity="0.7" fill="#006F4D" enable-background="new    " d="M9,28.4c-10.7,0-19.4-8.7-19.4-19.4c0-10.7,8.7-19.4,19.4-19.4
	S28.4-1.7,28.4,9C28.4,19.7,19.7,28.4,9,28.4"/>
<path fill="#FFFFFF" d="M4.6,1.2c0-1.5,1.4-2.8,3.9-2.8c4.3,0,8.2,1.7,10.7,4.4v-3.9c-2.8-2.2-6.6-3.7-10.6-3.7C3.8-4.9-1-2.4-1,2.7
	c0,10.1,15.3,7.6,15.3,13.6c0,1.6-2.1,2.8-4.7,2.8c-4.3,0-8.3-1.7-10.6-5.1v5.1c2.5,2.2,6.7,3.8,10.6,3.8c7,0,10.9-4.6,10.9-8.8
	C20.4,3.4,4.6,7.6,4.6,1.2"/>
</svg>
