<?xml version="1.0" encoding="utf-8"?>
<!-- Generator: Adobe Illustrator 18.0.0, SVG Export Plug-In . SVG Version: 6.00 Build 0)  -->
<!DOCTYPE svg PUBLIC "-//W3C//DTD SVG 1.0//EN" "http://www.w3.org/TR/2001/REC-SVG-20010904/DTD/svg10.dtd">
<svg version="1.0" id="Layer_1" xmlns="http://www.w3.org/2000/svg" xmlns:xlink="http://www.w3.org/1999/xlink" x="0px" y="0px"
	 width="18px" height="18px" viewBox="0 0 18 18" enable-background="new 0 0 18 18" xml:space="preserve">
<path fill="#F8F4F0" d="M9.000124,18.000248C4.0359554,18.000248,0,13.9640455,0,9.000124C0,4.0359588,4.0359554,0,9.000124,0
	S18,4.0359588,18,9.000124C18,13.9640455,13.9642916,18.000248,9.000124,18.000248"/>
<path opacity="0.7" fill="#006F4D" d="M9.000124,16.0002193c-3.8611536,0-7.0000963-3.1391888-7.0000963-7.0000954
	c0-3.8606501,3.138943-7.0000963,7.0000963-7.0000963s6.9998484,3.1394465,6.9998484,7.0000963
	C15.9999723,12.8610306,12.8612766,16.0002193,9.000124,16.0002193"/>
<path fill="#FFFFFF" d="M7.4117517,6.1807384c0-0.5525074,0.506557-1.0239143,1.3925695-1.0239143
	c1.564971,0,2.9690409,0.6235089,3.8553028,1.570322V5.3257766c-1.0247116-0.7871609-2.3823833-1.3254681-3.8208523-1.3254681
	c-1.7258739,0-3.4524455,0.9089622-3.4524455,2.7268376c0,3.6367493,5.5010228,2.7217369,5.5010228,4.8965673
	c0,0.5756578-0.7456102,1.0127134-1.6889706,1.0127134c-1.5420208,0-2.971993-0.6096582-3.8120522-1.8181744v1.8181744
	c0.8864598,0.7939615,2.4079809,1.3640194,3.8120522,1.3640194c2.5200348,0,3.9153519-1.640173,3.9153519-3.1821938
	C13.1137304,6.9976497,7.4117517,8.50527,7.4117517,6.1807384"/>
</svg>
