<?xml version="1.0" encoding="utf-8"?>
<!-- Generator: Adobe Illustrator 18.0.0, SVG Export Plug-In . SVG Version: 6.00 Build 0)  -->
<!DOCTYPE svg PUBLIC "-//W3C//DTD SVG 1.1//EN" "http://www.w3.org/Graphics/SVG/1.1/DTD/svg11.dtd">
<svg version="1.1" id="Layer_1" xmlns="http://www.w3.org/2000/svg" xmlns:xlink="http://www.w3.org/1999/xlink" x="0px" y="0px"
	 viewBox="-32 -16 100 50" enable-background="new -32 -16 100 50" xml:space="preserve">
<path fill="#F8F4F0" d="M43,34C29.2,34,18,22.8,18,9c0-13.8,11.2-25,25-25S68-4.8,68,9C68,22.8,56.8,34,43,34"/>
<path opacity="0.7" fill="#006F4D" enable-background="new    " d="M43,28.4c-10.7,0-19.4-8.7-19.4-19.4c0-10.7,8.7-19.4,19.4-19.4
	S62.4-1.7,62.4,9C62.4,19.7,53.7,28.4,43,28.4"/>
<path fill="#FFFFFF" d="M38.6,1.2c0-1.5,1.4-2.8,3.9-2.8c4.3,0,8.2,1.7,10.7,4.4v-3.9c-2.8-2.2-6.6-3.7-10.6-3.7
	c-4.8,0-9.6,2.5-9.6,7.6c0,10.1,15.3,7.6,15.3,13.6c0,1.6-2.1,2.8-4.7,2.8c-4.3,0-8.3-1.7-10.6-5.1v5.1c2.5,2.2,6.7,3.8,10.6,3.8
	c7,0,10.9-4.6,10.9-8.8C54.4,3.4,38.6,7.6,38.6,1.2"/>
<path fill="#F8F4F0" d="M-19.5,34C-26.4,34-32,28.4-32,21.5v-25c0-6.9,5.6-12.5,12.5-12.5h25C12.4-16,18-10.4,18-3.5v25
	C18,28.4,12.4,34,5.5,34H-19.5z"/>
<path opacity="0.7" fill="#104E81" enable-background="new    " d="M-26.4-3.5c0-3.8,3.1-6.9,6.9-6.9h25c3.8,0,6.9,3.1,6.9,6.9v25
	c0,3.8-3.1,6.9-6.9,6.9h-25c-3.8,0-6.9-3.1-6.9-6.9V-3.5z"/>
<path fill="#FFFFFF" d="M4,12.3C4,6,4-4.2,4-4.2l-6.6,0v16.5c0,2.5-2.2,4.4-4.4,4.4c-2.2,0-4.4-1.9-4.4-4.4c0-5.9,0-16.5,0-16.5H-18
	c0,0,0,15.5,0,16.5c0,5.5,5.5,9.9,11,9.9C-1.5,22.2,4,17.8,4,12.3"/>
</svg>
