<?xml version="1.0" encoding="utf-8"?>
<!-- Generator: Adobe Illustrator 19.2.1, SVG Export Plug-In . SVG Version: 6.00 Build 0)  -->
<!DOCTYPE svg PUBLIC "-//W3C//DTD SVG 1.1//EN" "http://www.w3.org/Graphics/SVG/1.1/DTD/svg11.dtd">
<svg version="1.1" id="Layer_1" xmlns="http://www.w3.org/2000/svg" xmlns:xlink="http://www.w3.org/1999/xlink" x="0px" y="0px"
	 viewBox="0 0 25 25" enable-background="new 0 0 25 25" xml:space="preserve">
<path fill="#F8F4F0" d="M6.25,25C2.75,25,0,22.25,0,18.75V6.25C0,2.75,2.75,0,6.25,0h12.5C22.25,0,25,2.75,25,6.25v12.5
	c0,3.5-2.75,6.25-6.25,6.25H6.25z"/>
<path opacity="0.7" fill="#104E81" enable-background="new    " d="M2.75,6.25c0-2,1.5-3.5,3.5-3.5h12.5c2,0,3.5,1.5,3.5,3.5v12.5
	c0,2-1.5,3.5-3.5,3.5H6.25c-2,0-3.5-1.5-3.5-3.5V6.25z"/>
<path fill="#FFFFFF" d="M18,14c0-3,0-8.25,0-8.25h-3.25V14c0,1.25-1,2.25-2.25,2.25c-1,0-2.25-1-2.25-2.25c0-3,0-8.25,0-8.25H7
	c0,0,0,7.75,0,8.25c0,2.75,2.75,5,5.5,5S18,17,18,14"/>
</svg>
