<?xml version="1.0" encoding="utf-8"?>
<!-- Generator: Adobe Illustrator 18.0.0, SVG Export Plug-In . SVG Version: 6.00 Build 0)  -->
<!DOCTYPE svg PUBLIC "-//W3C//DTD SVG 1.1//EN" "http://www.w3.org/Graphics/SVG/1.1/DTD/svg11.dtd">
<svg version="1.1" id="Layer_1" xmlns="http://www.w3.org/2000/svg" xmlns:xlink="http://www.w3.org/1999/xlink" x="0px" y="0px"
	 viewBox="0 0 300 240" enable-background="new 0 0 300 240" xml:space="preserve">
<path fill="#F8F4F0" d="M121.5,129c-6.9,0-12.5-5.6-12.5-12.5v-25c0-6.9,5.6-12.5,12.5-12.5h25c6.9,0,12.5,5.6,12.5,12.5v25
	c0,6.9-5.6,12.5-12.5,12.5H121.5z"/>
<path opacity="0.7" fill="#104E81" enable-background="new    " d="M114.5,91.5c0-3.9,3.1-7,7-7h25c3.9,0,7,3.1,7,7v25
	c0,3.9-3.1,7-7,7h-25c-3.9,0-7-3.1-7-7V91.5z"/>
<path fill="#FFFFFF" d="M145,107.2c0-6.2,0-16.5,0-16.5h-6.6v16.5c0,2.5-2.2,4.4-4.4,4.4c-2.2,0-4.4-1.9-4.4-4.4
	c0-5.9,0-16.5,0-16.5H123c0,0,0,15.5,0,16.5c0,5.5,5.5,9.9,11,9.9C139.5,117.2,145,112.8,145,107.2"/>
</svg>
