<?xml version="1.0" encoding="utf-8"?>
<!-- Generator: Adobe Illustrator 19.2.1, SVG Export Plug-In . SVG Version: 6.00 Build 0)  -->
<!DOCTYPE svg PUBLIC "-//W3C//DTD SVG 1.1//EN" "http://www.w3.org/Graphics/SVG/1.1/DTD/svg11.dtd">
<svg version="1.1"
	 id="svg2" inkscape:version="0.47 r22583" sodipodi:docname="delhi metro.svg" xmlns:cc="http://creativecommons.org/ns#" xmlns:dc="http://purl.org/dc/elements/1.1/" xmlns:inkscape="http://www.inkscape.org/namespaces/inkscape" xmlns:rdf="http://www.w3.org/1999/02/22-rdf-syntax-ns#" xmlns:sodipodi="http://sodipodi.sourceforge.net/DTD/sodipodi-0.dtd" xmlns:svg="http://www.w3.org/2000/svg"
	 xmlns="http://www.w3.org/2000/svg" xmlns:xlink="http://www.w3.org/1999/xlink" x="0px" y="0px" viewBox="0 0 25 25"
	 enable-background="new 0 0 25 25" xml:space="preserve">
<defs>
	
	
		<inkscape:perspective  id="perspective14" inkscape:persp3d-origin="138.75 : 92.5 : 1" inkscape:vp_x="0 : 138.75 : 1" inkscape:vp_y="0 : 1000 : 0" inkscape:vp_z="277.5 : 138.75 : 1" sodipodi:type="inkscape:persp3d">
		</inkscape:perspective>
</defs>
<sodipodi:namedview  bordercolor="#666666" borderopacity="1" gridtolerance="10" guidetolerance="10" id="namedview8" inkscape:current-layer="svg2" inkscape:cx="131.31527" inkscape:cy="189.73005" inkscape:pageopacity="0" inkscape:pageshadow="2" inkscape:window-height="722" inkscape:window-maximized="1" inkscape:window-width="1280" inkscape:window-x="-8" inkscape:window-y="20" inkscape:zoom="1.2027186" objecttolerance="10" pagecolor="#ffffff" showgrid="false">
	</sodipodi:namedview>
<g id="_x23_ffffffff" transform="translate(-1.7875267,59.08325)">
</g>
<circle fill="#F8F4F0" cx="12.5" cy="12.5" r="12.5"/>
<path opacity="0.7" fill="#F02A10" enable-background="new    " d="M12.5,3C7.25,3,3,7.25,3,12.5S7.25,22,12.5,22s9.5-4.25,9.5-9.5
	S17.75,3,12.5,3z M12.5,5.1c2.5,0,4.65,1.25,6,3.1h-12C7.85,6.35,10,5.1,12.5,5.1z M19.9,12.5c0,0.75-0.1,1.5-0.3,2.15h-7.8
	l4.4-4.35h3.35C19.75,11,19.9,11.75,19.9,12.5z M5.1,12.5c0-0.75,0.1-1.5,0.3-2.15h7.75l-4.4,4.35H5.4C5.25,14,5.1,13.25,5.1,12.5z
	 M12.5,19.9c-2.5,0-4.65-1.25-6-3.1h12C17.15,18.65,15,19.9,12.5,19.9z"/>
</svg>
