<?xml version="1.0" encoding="utf-8"?>
<!-- Generator: Adobe Illustrator 18.0.0, SVG Export Plug-In . SVG Version: 6.00 Build 0)  -->
<!DOCTYPE svg PUBLIC "-//W3C//DTD SVG 1.1//EN" "http://www.w3.org/Graphics/SVG/1.1/DTD/svg11.dtd">
<svg version="1.1"
	 id="svg2" xmlns:svg="http://www.w3.org/2000/svg" xmlns:sodipodi="http://sodipodi.sourceforge.net/DTD/sodipodi-0.dtd" xmlns:inkscape="http://www.inkscape.org/namespaces/inkscape" xmlns:cc="http://creativecommons.org/ns#" xmlns:dc="http://purl.org/dc/elements/1.1/" xmlns:rdf="http://www.w3.org/1999/02/22-rdf-syntax-ns#" inkscape:version="0.47 r22583" sodipodi:docname="delhi metro.svg"
	 xmlns="http://www.w3.org/2000/svg" xmlns:xlink="http://www.w3.org/1999/xlink" x="0px" y="0px" width="50px" height="50px"
	 viewBox="0 -2 50 50" enable-background="new 0 -2 50 50" xml:space="preserve">
<defs>
	
	
		<inkscape:perspective  inkscape:vp_x="0 : 138.75 : 1" inkscape:vp_y="0 : 1000 : 0" sodipodi:type="inkscape:persp3d" inkscape:vp_z="277.5 : 138.75 : 1" id="perspective14" inkscape:persp3d-origin="138.75 : 92.5 : 1">
		</inkscape:perspective>
</defs>
<sodipodi:namedview  objecttolerance="10" guidetolerance="10" inkscape:zoom="1.2027186" inkscape:cy="189.73005" borderopacity="1" pagecolor="#ffffff" bordercolor="#666666" gridtolerance="10" showgrid="false" inkscape:cx="131.31527" id="namedview8" inkscape:window-y="20" inkscape:window-x="-8" inkscape:window-height="722" inkscape:window-width="1280" inkscape:current-layer="svg2" inkscape:pageshadow="2" inkscape:pageopacity="0" inkscape:window-maximized="1">
	</sodipodi:namedview>
<g id="_x23_ffffffff" transform="translate(-1.7875267,59.08325)">
</g>
<circle fill="#F8F4F0" cx="25" cy="23" r="25"/>
<path opacity="0.7" fill="#F02A10" enable-background="new    " d="M25,4C14.5,4,6,12.5,6,23s8.5,19,19,19s19-8.5,19-19S35.5,4,25,4
	z M25,8.2c5,0,9.3,2.5,12,6.2H13C15.7,10.7,20,8.2,25,8.2z M39.8,23c0,1.5-0.2,3-0.6,4.3H23.6l8.8-8.7h6.7
	C39.5,20,39.8,21.5,39.8,23z M10.2,23c0-1.5,0.2-3,0.6-4.3h15.5l-8.8,8.7h-6.7C10.5,26,10.2,24.5,10.2,23z M25,37.8
	c-5,0-9.3-2.5-12-6.2H37C34.3,35.3,30,37.8,25,37.8z"/>
</svg>
