<?xml version="1.0" encoding="utf-8"?>
<!-- Generator: Adobe Illustrator 19.2.1, SVG Export Plug-In . SVG Version: 6.00 Build 0)  -->
<!DOCTYPE svg PUBLIC "-//W3C//DTD SVG 1.1//EN" "http://www.w3.org/Graphics/SVG/1.1/DTD/svg11.dtd">
<svg version="1.1" id="Layer_1" xmlns="http://www.w3.org/2000/svg" xmlns:xlink="http://www.w3.org/1999/xlink" x="0px" y="0px"
	 viewBox="0 0 19.4 19.4" enable-background="new 0 0 19.4 19.4" xml:space="preserve">
<path opacity="0.8" fill="#99918C" enable-background="new    " d="M9.7,0c5.4,0,9.7,4.3,9.7,9.7s-4.4,9.7-9.7,9.7S0,15.1,0,9.7
	S4.4,0,9.7,0"/>
<path fill="#FFFFFF" d="M6.5,2.9L6.5,2.9c0.6-0.1,1.1,0.4,1.2,0.8l1.4,11.4c0,0.6-0.3,1.1-0.9,1.1l0,0c-0.6,0.1-1.1-0.3-1.2-0.9
	L5.5,4.1C5.5,3.5,5.9,2.9,6.5,2.9z"/>
<path fill="#FFFFFF" d="M15.5,10c0,0.2-0.1,0.4-0.2,0.6c-2,1.8-4.9-2.8-6.9-1.1C8.1,9.6,8,9.6,8,9.5C7.8,7.9,7.6,6.4,7.4,4.7
	c0-0.2,0.1-0.5,0.2-0.5c2-1.8,4.9,2.8,6.9,1c0.1-0.1,0.3-0.1,0.3,0.1C15.1,6.9,15.3,8.4,15.5,10z"/>
</svg>
