<?xml version="1.0" encoding="utf-8"?>
<!-- Generator: Adobe Illustrator 18.0.0, SVG Export Plug-In . SVG Version: 6.00 Build 0)  -->
<!DOCTYPE svg PUBLIC "-//W3C//DTD SVG 1.0//EN" "http://www.w3.org/TR/2001/REC-SVG-20010904/DTD/svg10.dtd">
<svg version="1.0" id="Layer_1" xmlns="http://www.w3.org/2000/svg" xmlns:xlink="http://www.w3.org/1999/xlink" x="0px" y="0px"
	 width="18px" height="18px" viewBox="0 0 18 18" enable-background="new 0 0 18 18" xml:space="preserve">
<path fill="#F8F4F0" d="M9,0c5,0,9,4,9,9s-4,9-9,9s-9-4-9-9S4,0,9,0"/>
<path opacity="0.9" fill="#8F8483" enable-background="new    " d="M9,2c3.8999996,0,7,3.0999999,7,7s-3.1000004,7-7,7
	s-7-3.1000004-7-7S5.0999999,2,9,2"/>
<path fill="#FFFFFF" d="M6.8168526,4.0812535L6.8168526,4.0812535c0.4104619-0.0390019,0.7610521,0.3174896,0.815022,0.6290779
	l0.9238191,7.9275823c0.0390024,0.4104614-0.2186165,0.7760201-0.6290779,0.8150215l0,0
	c-0.4104614,0.0390024-0.7760201-0.2186165-0.815022-0.6290779L6.0739331,4.9801812
	C6.0349312,4.5697193,6.4063907,4.1202555,6.8168526,4.0812535z"/>
<path fill="#FFFFFF" d="M13.0404081,9.0689735c-0.0149679,0.0988741-0.0449038,0.2966204-0.1587448,0.3805256
	c-1.3960314,1.2046146-3.4487686-1.9380388-4.8448-0.7334242C7.9230223,8.7999811,7.8241487,8.7850132,7.8391166,8.6861391
	C7.6921744,7.6525016,7.5602002,6.5199895,7.4282265,5.3874779C7.4431944,5.2886043,7.4731297,5.090857,7.5869713,5.0069513
	c1.3960314-1.2046144,3.4487686,1.9380393,4.8448,0.7334247c0.1138411-0.0839057,0.2127142-0.0689378,0.1977463,0.0299354
	C12.7614918,6.9028239,12.9084339,7.9364619,13.0404081,9.0689735z"/>
</svg>
