<?xml version="1.0" encoding="utf-8"?>
<!-- Generator: Adobe Illustrator 18.0.0, SVG Export Plug-In . SVG Version: 6.00 Build 0)  -->
<!DOCTYPE svg PUBLIC "-//W3C//DTD SVG 1.1//EN" "http://www.w3.org/Graphics/SVG/1.1/DTD/svg11.dtd">
<svg version="1.1" id="Layer_1" xmlns="http://www.w3.org/2000/svg" xmlns:xlink="http://www.w3.org/1999/xlink" x="0px" y="0px"
	 width="50px" height="50px" viewBox="-16 -16 50 50" enable-background="new -16 -16 50 50" xml:space="preserve">
<path opacity="0.8" fill="#99918C" enable-background="new    " d="M9-10.4c10.7,0,19.4,8.7,19.4,19.4c0,10.7-8.7,19.4-19.4,19.4
	c-10.7,0-19.4-8.7-19.4-19.4C-10.4-1.7-1.7-10.4,9-10.4"/>
<path fill="#FFFFFF" d="M2.7-4.7L2.7-4.7C3.9-4.8,4.9-3.8,5-2.9l2.7,22.8c0.1,1.2-0.6,2.2-1.8,2.3l0,0c-1.2,0.1-2.2-0.6-2.3-1.8
	l-3-22.5C0.5-3.3,1.5-4.6,2.7-4.7z"/>
<path fill="#FFFFFF" d="M20.6,9.6c0,0.3-0.1,0.9-0.5,1.1c-4,3.5-9.9-5.6-13.9-2.1C5.9,8.9,5.6,8.8,5.6,8.5c-0.4-3-0.8-6.2-1.2-9.5
	c0-0.3,0.1-0.9,0.5-1.1c4-3.5,9.9,5.6,13.9,2.1c0.3-0.2,0.6-0.2,0.6,0.1C19.8,3.4,20.2,6.4,20.6,9.6z"/>
</svg>
