<?xml version="1.0" encoding="utf-8"?>
<!-- Generator: Adobe Illustrator 18.0.0, SVG Export Plug-In . SVG Version: 6.00 Build 0)  -->
<!DOCTYPE svg PUBLIC "-//W3C//DTD SVG 1.1//EN" "http://www.w3.org/Graphics/SVG/1.1/DTD/svg11.dtd">
<svg version="1.1" id="Layer_1" xmlns="http://www.w3.org/2000/svg" xmlns:xlink="http://www.w3.org/1999/xlink" x="0px" y="0px"
	 viewBox="0 0 50 50" enable-background="new 0 0 50 50" xml:space="preserve">
<path opacity="0.8" fill="#99918C" enable-background="new    " d="M9-0.7c5.4,0,9.7,4.3,9.7,9.7s-4.4,9.7-9.7,9.7S-0.7,14.4-0.7,9
	S3.7-0.7,9-0.7"/>
<path fill="#FFFFFF" d="M5.8,2.2L5.8,2.2C6.4,2.1,6.9,2.6,7,3l1.4,11.4c0,0.6-0.3,1.1-0.9,1.1l0,0c-0.6,0.1-1.1-0.3-1.2-0.9L4.8,3.4
	C4.8,2.8,5.2,2.2,5.8,2.2z"/>
<path fill="#FFFFFF" d="M14.8,9.3c0,0.2-0.1,0.4-0.2,0.6c-2,1.8-4.9-2.8-6.9-1.1C7.4,8.9,7.3,8.9,7.3,8.8C7.1,7.2,6.9,5.7,6.7,4
	c0-0.2,0.1-0.5,0.2-0.5c2-1.8,4.9,2.8,6.9,1c0.1-0.1,0.3-0.1,0.3,0.1C14.4,6.2,14.6,7.7,14.8,9.3z"/>
</svg>
