<?xml version="1.0" encoding="utf-8"?>
<!-- Generator: Adobe Illustrator 18.0.0, SVG Export Plug-In . SVG Version: 6.00 Build 0)  -->
<!DOCTYPE svg PUBLIC "-//W3C//DTD SVG 1.0//EN" "http://www.w3.org/TR/2001/REC-SVG-20010904/DTD/svg10.dtd">
<svg version="1.0" id="Layer_1" xmlns="http://www.w3.org/2000/svg" xmlns:xlink="http://www.w3.org/1999/xlink" x="0px" y="0px"
	 width="18px" height="18px" viewBox="0 0 18 18" enable-background="new 0 0 18 18" xml:space="preserve">
<path fill="#F8F4F0" d="M9,0c5,0,9,4,9,9s-4,9-9,9s-9-4-9-9S4,0,9,0"/>
<path opacity="0.6" fill="#C24246" enable-background="new    " d="M9,2c3.8999996,0,7,3.0999999,7,7s-3.1000004,7-7,7
	s-7-3.1000004-7-7S5.0999999,2,9,2"/>
<path fill="#FFFFFF" d="M12.3099527,9.1000004c0.3999996,2.8999996-1.3999996,4.5-3,4.6999998
	C7.7099528,14.1000004,6.1099529,13,6.009953,10.8999996c-0.2000003-2.6999998,2.6999993-3.0999994,1-6.1999998
	C6.3099527,3.5999999,11.7099524,5.1999998,12.3099527,9.1000004z"/>
<ellipse transform="matrix(-0.9773124 -0.2118027 0.2118027 -0.9773124 15.8182821 22.2858219)" opacity="0.6" fill="#C24246" enable-background="new    " cx="9.1027298" cy="10.2957115" rx="1.3999814" ry="2.0999725"/>
</svg>
