<?xml version="1.0" encoding="utf-8"?>
<!-- Generator: Adobe Illustrator 18.0.0, SVG Export Plug-In . SVG Version: 6.00 Build 0)  -->
<!DOCTYPE svg PUBLIC "-//W3C//DTD SVG 1.1//EN" "http://www.w3.org/Graphics/SVG/1.1/DTD/svg11.dtd">
<svg version="1.1" id="Layer_1" xmlns="http://www.w3.org/2000/svg" xmlns:xlink="http://www.w3.org/1999/xlink" x="0px" y="0px"
	 viewBox="0 0 50 50" enable-background="new 0 0 50 50" xml:space="preserve">
<path fill="#F8F4F0" d="M9-10.5c10.8,0,19.5,8.7,19.5,19.5S19.8,28.5,9,28.5S-10.5,19.8-10.5,9S-1.8-10.5,9-10.5"/>
<path opacity="0.6" fill="#C24246" enable-background="new    " d="M9-10.4c10.8,0,19.4,8.6,19.4,19.4S19.8,28.4,9,28.4
	S-10.4,19.8-10.4,9S-1.8-10.4,9-10.4"/>
<path fill="#FFFFFF" d="M18.8,9.3c1.1,7.8-3.8,12.2-8.1,12.7c-4.3,0.8-8.7-2.2-8.9-7.8C1.2,6.9,9.1,5.8,4.5-2.6
	C2.6-5.5,17.2-1.2,18.8,9.3z"/>
<ellipse transform="matrix(-0.2118 0.9773 -0.9773 -0.2118 24.5682 5.3363)" opacity="0.6" fill="#C24246" enable-background="new    " cx="10.1" cy="12.6" rx="5.7" ry="3.8"/>
</svg>
