<?xml version="1.0" encoding="utf-8"?>
<!-- Generator: Adobe Illustrator 19.2.1, SVG Export Plug-In . SVG Version: 6.00 Build 0)  -->
<!DOCTYPE svg PUBLIC "-//W3C//DTD SVG 1.1//EN" "http://www.w3.org/Graphics/SVG/1.1/DTD/svg11.dtd">
<svg version="1.1" id="Layer_1" xmlns="http://www.w3.org/2000/svg" xmlns:xlink="http://www.w3.org/1999/xlink" x="0px" y="0px"
	 viewBox="0 0 20 20" enable-background="new 0 0 20 20" xml:space="preserve">
<path fill="#F8F4F0" d="M10,0c5.5,0,10,4.5,10,10s-4.5,10-10,10S0,15.5,0,10S4.5,0,10,0"/>
<path opacity="0.6" fill="#C24246" enable-background="new    " d="M10,0c5.5,0,10,4.4,10,10s-4.4,10-10,10S0,15.6,0,10S4.5,0,10,0"
	/>
<path fill="#FFFFFF" d="M15,10.1c0.6,4-1.9,6.3-4.1,6.5c-2.2,0.4-4.5-1.1-4.6-4C6,8.9,10,8.3,7.7,4C6.7,2.6,14.2,4.8,15,10.1z"/>
<ellipse transform="matrix(0.2118 -0.9773 0.9773 0.2118 -3.1989 19.6173)" opacity="0.6" fill="#C24246" enable-background="new    " cx="10.56" cy="11.79" rx="2.9" ry="1.9"/>
</svg>
