<?xml version="1.0" encoding="utf-8"?>
<!-- Generator: Adobe Illustrator 18.0.0, SVG Export Plug-In . SVG Version: 6.00 Build 0)  -->
<!DOCTYPE svg PUBLIC "-//W3C//DTD SVG 1.1//EN" "http://www.w3.org/Graphics/SVG/1.1/DTD/svg11.dtd">
<svg version="1.1" id="Layer_1" xmlns="http://www.w3.org/2000/svg" xmlns:xlink="http://www.w3.org/1999/xlink" x="0px" y="0px"
	 viewBox="125 95 50 50" enable-background="new 125 95 50 50" xml:space="preserve">
<path fill="#F8F4F0" d="M150,110c5.5,0,10,4.5,10,10s-4.5,10-10,10s-10-4.5-10-10S144.5,110,150,110"/>
<path opacity="0.6" fill="#C24246" enable-background="new    " d="M150,110c5.5,0,10,4.4,10,10s-4.4,10-10,10s-10-4.4-10-10
	S144.5,110,150,110"/>
<path fill="#FFFFFF" d="M155,120.1c0.6,4-1.9,6.3-4.1,6.5c-2.2,0.4-4.5-1.1-4.6-4c-0.3-3.7,3.7-4.3,1.4-8.6
	C146.7,112.6,154.2,114.8,155,120.1z"/>
<ellipse transform="matrix(0.2118 -0.9773 0.9773 0.2118 -0.3696 243.176)" opacity="0.6" fill="#C24246" enable-background="new    " cx="150.6" cy="121.8" rx="2.9" ry="1.9"/>
</svg>
