<?xml version="1.0" encoding="utf-8"?>
<!-- Generator: Adobe Illustrator 18.0.0, SVG Export Plug-In . SVG Version: 6.00 Build 0)  -->
<!DOCTYPE svg PUBLIC "-//W3C//DTD SVG 1.1//EN" "http://www.w3.org/Graphics/SVG/1.1/DTD/svg11.dtd">
<svg version="1.1" id="Layer_1" xmlns="http://www.w3.org/2000/svg" xmlns:xlink="http://www.w3.org/1999/xlink" x="0px" y="0px"
	 viewBox="0 0 300 240" enable-background="new 0 0 300 240" xml:space="preserve">
<path fill="#F8F4F0" d="M73.2-3.6c25.9,0,46.8,20.9,46.8,46.8S99.1,90,73.2,90S26.4,69.1,26.4,43.2S47.3-3.6,73.2-3.6"/>
<path opacity="0.6" fill="#C24246" enable-background="new    " d="M73.2-3.4c25.9,0,46.6,20.6,46.6,46.6S99.1,89.8,73.2,89.8
	S26.6,69.1,26.6,43.2S47.3-3.4,73.2-3.4"/>
<path fill="#FFFFFF" d="M96.7,43.9c2.6,18.7-9.1,29.3-19.4,30.5C67,76.3,56.4,69.1,55.9,55.7c-1.4-17.5,17.5-20.2,6.5-40.3
	C57.8,8.4,92.9,18.7,96.7,43.9z"/>
<ellipse transform="matrix(0.9773 0.2118 -0.2118 0.9773 12.67 -14.898)" opacity="0.6" fill="#C24246" enable-background="new    " cx="75.9" cy="51.7" rx="9.1" ry="13.7"/>
</svg>
