<?xml version="1.0" encoding="utf-8"?>
<!-- Generator: Adobe Illustrator 19.2.1, SVG Export Plug-In . SVG Version: 6.00 Build 0)  -->
<!DOCTYPE svg PUBLIC "-//W3C//DTD SVG 1.1//EN" "http://www.w3.org/Graphics/SVG/1.1/DTD/svg11.dtd">
<svg version="1.1" id="Layer_1" xmlns="http://www.w3.org/2000/svg" xmlns:xlink="http://www.w3.org/1999/xlink" x="0px" y="0px"
	 viewBox="0 0 139.24 25" enable-background="new 0 0 139.24 25" xml:space="preserve">
<path fill="#F8F4F0" d="M53.82,12.5c0,6.67-5.42,12.5-12.5,12.5c-6.67,0-12.5-5.42-12.5-12.5c0-6.67,5.42-12.5,12.5-12.5
	C48.4,0,53.82,5.42,53.82,12.5"/>
<path fill="#F8F4F0" d="M30.9,7.92h21.67c1.67,0,2.92,1.25,2.92,2.92v2.92c0,1.67-1.25,2.92-2.92,2.92H30.9
	c-1.67,0-2.92-1.25-2.92-2.92v-2.92C27.57,9.17,28.82,7.92,30.9,7.92"/>
<path opacity="0.7" fill="#FF9701" enable-background="new    " d="M41.74,2.92c-5,0-9.17,4.17-9.17,9.17s4.17,9.17,9.17,9.17
	s9.17-4.17,9.17-9.17C50.9,7.5,46.74,2.92,41.74,2.92 M41.74,7.08c2.92,0,5.42,2.5,5.42,5.42s-2.5,5.42-5.42,5.42
	s-5.42-2.5-5.42-5.42S38.4,7.08,41.74,7.08"/>
<path fill="#4C72AA" d="M31.32,10.83h20c0.42,0,0.83,0.42,0.83,0.83v1.67c0,0.42-0.42,0.83-0.83,0.83h-20
	c-0.42,0-0.83-0.42-0.83-0.83v-1.67C30.9,11.25,30.9,10.83,31.32,10.83"/>
<path fill="#F8F4F0" d="M26.32,12.5c0,6.67-5.42,12.5-12.5,12.5c-6.67,0-12.5-5.42-12.5-12.5C1.32,5.83,6.74,0,13.82,0
	C20.49,0,26.32,5.42,26.32,12.5"/>
<path fill="#F8F4F0" d="M2.99,7.92h21.67c1.67,0,2.92,1.25,2.92,2.92v2.92c0,1.67-1.25,2.92-2.92,2.92H2.99
	c-1.67,0-2.92-1.25-2.92-2.92v-2.92C-0.35,9.17,1.32,7.92,2.99,7.92"/>
<path fill="#4C72AA" d="M13.82,2.92c-5,0-9.17,4.17-9.17,9.17s4.17,9.17,9.17,9.17s9.17-4.17,9.17-9.17
	C22.99,7.5,18.82,2.92,13.82,2.92 M13.82,7.08c2.92,0,5.42,2.5,5.42,5.42s-2.5,5.42-5.42,5.42S8.4,15.42,8.4,12.5
	S10.9,7.08,13.82,7.08"/>
<path fill="#4C72AA" d="M3.82,10.83h20c0.42,0,0.83,0.42,0.83,0.83v1.67c0,0.42-0.42,0.83-0.83,0.83h-20
	c-0.42,0-0.83-0.42-0.83-0.83v-1.67C2.99,11.25,3.4,10.83,3.82,10.83"/>
<path fill="#F8F4F0" d="M82.15,12.5c0,6.67-5.42,12.5-12.5,12.5s-12.5-5.42-12.5-12.5c0-6.67,5.42-12.5,12.5-12.5
	C76.74,0,82.15,5.42,82.15,12.5"/>
<path fill="#F8F4F0" d="M58.82,7.92h21.67c1.67,0,2.92,1.25,2.92,2.92v2.92c0,1.67-1.25,2.92-2.92,2.92H58.82
	c-1.67,0-2.92-1.25-2.92-2.92v-2.92C55.49,9.17,56.74,7.92,58.82,7.92"/>
<path opacity="0.7" fill="#F02A10" enable-background="new    " d="M69.65,2.92c-5,0-9.17,4.17-9.17,9.17s4.17,9.17,9.17,9.17
	s9.17-4.17,9.17-9.17C78.82,7.5,74.65,2.92,69.65,2.92 M69.65,7.08c2.92,0,5.42,2.5,5.42,5.42s-2.5,5.42-5.42,5.42
	s-5.42-2.5-5.42-5.42S66.74,7.08,69.65,7.08"/>
<path fill="#4C72AA" d="M59.65,10.83h20c0.42,0,0.83,0.42,0.83,0.83v1.67c0,0.42-0.42,0.83-0.83,0.83h-20
	c-0.42,0-0.83-0.42-0.83-0.83v-1.67C58.82,11.25,59.24,10.83,59.65,10.83"/>
<path fill="#F8F4F0" d="M114.65,1.67h21.67c1.67,0,2.92,1.25,2.92,2.92V20c0,1.67-1.25,2.92-2.92,2.92h-21.67
	c-1.67,0-2.92-1.25-2.92-2.92V4.58C111.32,2.92,112.99,1.67,114.65,1.67"/>
<path opacity="0.7" fill="#F02A10" enable-background="new    " d="M116.32,4.58h18.75c0.83,0,1.67,0.83,1.67,1.67v12.5
	c0,0.83-0.83,1.67-1.67,1.67h-18.75c-0.83,0-1.67-0.83-1.67-1.67V6.25C114.65,5.42,115.49,4.58,116.32,4.58"/>
<rect x="114.65" y="9.17" fill="#F8F4F0" width="21.67" height="2.08"/>
<rect x="114.65" y="14.17" fill="#F8F4F0" width="21.67" height="2.08"/>
<polygon fill="#F8F4F0" points="120.07,4.58 127.15,10 120.07,15 127.15,20.42 130.9,20.42 123.82,15 130.9,10 123.82,4.58 "/>
<path fill="#F8F4F0" d="M110.07,12.5c0,6.67-5.42,12.5-12.5,12.5c-6.67,0-12.5-5.42-12.5-12.5c0-6.67,5.42-12.5,12.5-12.5
	C104.24,0,110.07,5.42,110.07,12.5"/>
<path fill="#F8F4F0" d="M86.74,7.92h21.67c1.67,0,2.92,1.25,2.92,2.92v2.92c0,1.67-1.25,2.92-2.92,2.92H86.74
	c-1.67,0-2.92-1.25-2.92-2.92v-2.92C83.4,9.17,85.07,7.92,86.74,7.92"/>
<path opacity="0.7" fill="#189FA8" enable-background="new    " d="M97.57,2.92c-5,0-9.17,4.17-9.17,9.17s4.17,9.17,9.17,9.17
	s9.17-4.17,9.17-9.17C106.74,7.5,102.57,2.92,97.57,2.92 M97.57,7.08c2.92,0,5.42,2.5,5.42,5.42s-2.5,5.42-5.42,5.42
	s-5.42-2.5-5.42-5.42S94.65,7.08,97.57,7.08"/>
<path fill="#4C72AA" d="M87.57,10.83h20c0.42,0,0.83,0.42,0.83,0.83v1.67c0,0.42-0.42,0.83-0.83,0.83h-20
	c-0.42,0-0.83-0.42-0.83-0.83v-1.67C86.74,11.25,87.15,10.83,87.57,10.83"/>
</svg>
