<?xml version="1.0" encoding="utf-8"?>
<!-- Generator: Adobe Illustrator 18.0.0, SVG Export Plug-In . SVG Version: 6.00 Build 0)  -->
<!DOCTYPE svg PUBLIC "-//W3C//DTD SVG 1.1//EN" "http://www.w3.org/Graphics/SVG/1.1/DTD/svg11.dtd">
<svg version="1.1" id="Layer_1" xmlns="http://www.w3.org/2000/svg" xmlns:xlink="http://www.w3.org/1999/xlink" x="0px" y="0px"
	 viewBox="0 0 225 50" enable-background="new 0 0 225 50" xml:space="preserve">
<path fill="#F8F4F0" d="M-23.4,8c0,13.8-11.2,25-25,25s-25-11.2-25-25s11.2-25,25-25S-23.4-5.8-23.4,8"/>
<path fill="#F8F4F0" d="M-70.2-1.4h43.8c3.5,0,6.2,2.8,6.2,6.2V11c0,3.5-2.8,6.2-6.2,6.2h-43.8c-3.5,0-6.2-2.8-6.2-6.2V4.9
	C-76.5,1.4-73.7-1.4-70.2-1.4"/>
<path opacity="0.7" fill="#FF9701" enable-background="new    " d="M-48.4-10.8c-10.4,0-18.8,8.4-18.8,18.8s8.4,18.8,18.8,18.8
	S-29.6,18.4-29.6,8S-38-10.8-48.4-10.8 M-48.4-2.9c6,0,10.9,4.9,10.9,10.9s-4.9,10.9-10.9,10.9S-59.3,14-59.3,8
	C-59.3,2-54.4-2.9-48.4-2.9"/>
<path fill="#4C72AA" d="M-68.7,4.9h40.6c0.9,0,1.6,0.7,1.6,1.6v3.1c0,0.9-0.7,1.6-1.6,1.6h-40.6c-0.9,0-1.6-0.7-1.6-1.6V6.4
	C-70.2,5.6-69.5,4.9-68.7,4.9"/>
<path fill="#F8F4F0" d="M-79.4,8c0,13.8-11.2,25-25,25s-25-11.2-25-25s11.2-25,25-25S-79.4-5.8-79.4,8"/>
<path fill="#F8F4F0" d="M-126.2-1.4h43.8c3.5,0,6.2,2.8,6.2,6.2V11c0,3.5-2.8,6.2-6.2,6.2h-43.8c-3.5,0-6.2-2.8-6.2-6.2V4.9
	C-132.5,1.4-129.7-1.4-126.2-1.4"/>
<path fill="#4C72AA" d="M-104.4-10.8c-10.4,0-18.8,8.4-18.8,18.8s8.4,18.8,18.8,18.8S-85.6,18.4-85.6,8S-94-10.8-104.4-10.8
	 M-104.4-2.9c6,0,10.9,4.9,10.9,10.9s-4.9,10.9-10.9,10.9S-115.3,14-115.3,8S-110.4-2.9-104.4-2.9"/>
<path fill="#4C72AA" d="M-124.7,4.9h40.6c0.9,0,1.6,0.7,1.6,1.6v3.1c0,0.9-0.7,1.6-1.6,1.6h-40.6c-0.9,0-1.6-0.7-1.6-1.6V6.4
	C-126.2,5.6-125.5,4.9-124.7,4.9"/>
<path fill="#F8F4F0" d="M32.9,8c0,13.8-11.2,25-25,25s-25-11.2-25-25s11.2-25,25-25S32.9-5.8,32.9,8"/>
<path fill="#F8F4F0" d="M-14-1.4h43.8c3.5,0,6.2,2.8,6.2,6.2V11c0,3.5-2.8,6.2-6.2,6.2H-14c-3.5,0-6.2-2.8-6.2-6.2V4.9
	C-20.2,1.4-17.5-1.4-14-1.4"/>
<path opacity="0.7" fill="#F02A10" enable-background="new    " d="M7.9-10.8C-2.5-10.8-10.9-2.4-10.9,8s8.4,18.8,18.8,18.8
	S26.6,18.4,26.6,8S18.2-10.8,7.9-10.8 M7.9-2.9c6,0,10.9,4.9,10.9,10.9S13.9,18.9,7.9,18.9c-6.1,0-11-4.9-11-10.9S1.8-2.9,7.9-2.9"
	/>
<path fill="#4C72AA" d="M-12.4,4.9h40.6c0.9,0,1.6,0.7,1.6,1.6v3.1c0,0.9-0.7,1.6-1.6,1.6h-40.6c-0.9,0-1.6-0.7-1.6-1.6V6.4
	C-14,5.6-13.3,4.9-12.4,4.9"/>
<path fill="#F8F4F0" d="M98.5-13.9h43.8c3.5,0,6.2,2.8,6.2,6.2v31.2c0,3.5-2.8,6.2-6.2,6.2H98.5c-3.5,0-6.2-2.8-6.2-6.2V-7.6
	C92.2-11.1,95-13.9,98.5-13.9"/>
<path opacity="0.7" fill="#F02A10" enable-background="new    " d="M101.6-7.6h37.5c1.7,0,3.1,1.4,3.1,3.1v25c0,1.7-1.4,3.1-3.1,3.1
	h-37.5c-1.7,0-3.1-1.4-3.1-3.1v-25C98.5-6.2,99.9-7.6,101.6-7.6"/>
<rect x="98.5" y="1" fill="#F8F4F0" width="43.8" height="3.9"/>
<rect x="98.5" y="11.1" fill="#F8F4F0" width="43.8" height="3.9"/>
<polygon fill="#F8F4F0" points="109.4,-7.6 123.5,3.3 109.4,12.7 123.5,23.6 131.3,23.6 117.2,12.7 131.3,3.3 117.2,-7.6 "/>
<path fill="#F8F4F0" d="M89.1,8c0,13.8-11.2,25-25,25s-25-11.2-25-25s11.2-25,25-25S89.1-5.8,89.1,8"/>
<path fill="#F8F4F0" d="M42.2-1.4H86c3.5,0,6.2,2.8,6.2,6.2V11c0,3.5-2.8,6.2-6.2,6.2H42.2c-3.5,0-6.2-2.8-6.2-6.2V4.9
	C36,1.4,38.8-1.4,42.2-1.4"/>
<path opacity="0.7" fill="#189FA8" enable-background="new    " d="M64.1-10.8C53.8-10.8,45.4-2.4,45.4,8s8.4,18.8,18.8,18.8
	S82.9,18.4,82.9,8S74.5-10.8,64.1-10.8 M64.1-2.9C70.1-2.9,75,2,75,8s-4.9,10.9-10.9,10.9S53.2,14,53.2,8C53.2,2,58.1-2.9,64.1-2.9"
	/>
<path fill="#4C72AA" d="M43.8,4.9h40.6c0.9,0,1.6,0.7,1.6,1.6v3.1c0,0.9-0.7,1.6-1.6,1.6H43.8c-0.9,0-1.6-0.7-1.6-1.6V6.4
	C42.2,5.6,43,4.9,43.8,4.9"/>
</svg>
