<?xml version="1.0" encoding="utf-8"?>
<!-- Generator: Adobe Illustrator 18.0.0, SVG Export Plug-In . SVG Version: 6.00 Build 0)  -->
<!DOCTYPE svg PUBLIC "-//W3C//DTD SVG 1.1//EN" "http://www.w3.org/Graphics/SVG/1.1/DTD/svg11.dtd">
<svg version="1.1" id="Layer_1" xmlns="http://www.w3.org/2000/svg" xmlns:xlink="http://www.w3.org/1999/xlink" x="0px" y="0px"
	 width="225px" height="50px" viewBox="0 0 225 50" enable-background="new 0 0 225 50" xml:space="preserve">
<path fill="#F8F4F0" d="M53.1,25c0,13.8-11.2,25-25,25c-13.8,0-25-11.2-25-25c0-13.8,11.2-25,25-25C41.9,0,53.1,11.2,53.1,25"/>
<path fill="#F8F4F0" d="M6.2,15.6H50c3.5,0,6.2,2.8,6.2,6.2v6.2c0,3.5-2.8,6.2-6.2,6.2H6.2c-3.5,0-6.2-2.8-6.2-6.2v-6.2
	C0,18.4,2.8,15.6,6.2,15.6"/>
<path opacity="0.7" fill="#F02A10" enable-background="new    " d="M28.1,6.2C17.8,6.2,9.4,14.6,9.4,25s8.4,18.8,18.8,18.8
	S46.9,35.4,46.9,25S38.5,6.2,28.1,6.2 M28.1,14.1c6,0,10.9,4.9,10.9,10.9c0,6-4.9,10.9-10.9,10.9c-6,0-10.9-4.9-10.9-10.9
	C17.2,19,22.1,14.1,28.1,14.1"/>
<path fill="#4C72AA" d="M7.8,21.9h40.6c0.9,0,1.6,0.7,1.6,1.6v3.1c0,0.9-0.7,1.6-1.6,1.6H7.8c-0.9,0-1.6-0.7-1.6-1.6v-3.1
	C6.2,22.6,7,21.9,7.8,21.9"/>
<path fill="#F8F4F0" d="M118.8,3.1h43.8c3.5,0,6.2,2.8,6.2,6.2v31.2c0,3.5-2.8,6.2-6.2,6.2h-43.8c-3.5,0-6.2-2.8-6.2-6.2V9.4
	C112.5,5.9,115.3,3.1,118.8,3.1"/>
<path opacity="0.7" fill="#F02A10" enable-background="new    " d="M121.9,9.4h37.5c1.7,0,3.1,1.4,3.1,3.1v25c0,1.7-1.4,3.1-3.1,3.1
	h-37.5c-1.7,0-3.1-1.4-3.1-3.1v-25C118.8,10.8,120.1,9.4,121.9,9.4"/>
<rect x="118.8" y="18" fill="#F8F4F0" width="43.8" height="3.9"/>
<rect x="118.8" y="28.1" fill="#F8F4F0" width="43.8" height="3.9"/>
<polygon fill="#F8F4F0" points="129.7,9.4 143.8,20.3 129.7,29.7 143.8,40.6 151.6,40.6 137.5,29.7 151.6,20.3 137.5,9.4 "/>
<path fill="#F8F4F0" d="M109.4,25c0,13.8-11.2,25-25,25c-13.8,0-25-11.2-25-25c0-13.8,11.2-25,25-25C98.2,0,109.4,11.2,109.4,25"/>
<path fill="#F8F4F0" d="M62.5,15.6h43.8c3.5,0,6.2,2.8,6.2,6.2v6.2c0,3.5-2.8,6.2-6.2,6.2H62.5c-3.5,0-6.2-2.8-6.2-6.2v-6.2
	C56.2,18.4,59,15.6,62.5,15.6"/>
<path opacity="0.7" fill="#189FA8" enable-background="new    " d="M84.4,6.2C74,6.2,65.6,14.6,65.6,25S74,43.8,84.4,43.8
	s18.8-8.4,18.8-18.8S94.7,6.2,84.4,6.2 M84.4,14.1c6,0,10.9,4.9,10.9,10.9c0,6-4.9,10.9-10.9,10.9c-6,0-10.9-4.9-10.9-10.9
	C73.4,19,78.3,14.1,84.4,14.1"/>
<path fill="#4C72AA" d="M64.1,21.9h40.6c0.9,0,1.6,0.7,1.6,1.6v3.1c0,0.9-0.7,1.6-1.6,1.6H64.1c-0.9,0-1.6-0.7-1.6-1.6v-3.1
	C62.5,22.6,63.2,21.9,64.1,21.9"/>
</svg>
