<?xml version="1.0" encoding="utf-8"?>
<!-- Generator: Adobe Illustrator 18.0.0, SVG Export Plug-In . SVG Version: 6.00 Build 0)  -->
<!DOCTYPE svg PUBLIC "-//W3C//DTD SVG 1.1//EN" "http://www.w3.org/Graphics/SVG/1.1/DTD/svg11.dtd">
<svg version="1.1" id="Layer_1" xmlns="http://www.w3.org/2000/svg" xmlns:xlink="http://www.w3.org/1999/xlink" x="0px" y="0px"
	 width="36px" height="16px" viewBox="0 0 36 16" enable-background="new 0 0 36 16" xml:space="preserve">
<path fill="#F8F4F0" d="M62.5,3.1h43.8c3.5,0,6.2,2.8,6.2,6.2v31.2c0,3.5-2.8,6.2-6.2,6.2H62.5c-3.5,0-6.2-2.8-6.2-6.2V9.4
	C56.2,5.9,59,3.1,62.5,3.1"/>
<path opacity="0.7" fill="#F02A10" enable-background="new    " d="M65.6,9.4h37.5c1.7,0,3.1,1.4,3.1,3.1v25c0,1.7-1.4,3.1-3.1,3.1
	H65.6c-1.7,0-3.1-1.4-3.1-3.1v-25C62.5,10.8,63.9,9.4,65.6,9.4"/>
<rect x="62.5" y="18" fill="#FFFFFF" width="43.8" height="3.9"/>
<rect x="62.5" y="28.1" fill="#FFFFFF" width="43.8" height="3.9"/>
<polygon fill="#FFFFFF" points="73.4,9.4 87.5,20.3 73.4,29.7 87.5,40.6 95.3,40.6 81.2,29.7 95.3,20.3 81.2,9.4 "/>
<path fill="#F8F4F0" d="M53.1,25c0,13.8-11.2,25-25,25c-13.8,0-25-11.2-25-25c0-13.8,11.2-25,25-25C41.9,0,53.1,11.2,53.1,25"/>
<path fill="#F8F4F0" d="M6.2,15.6H50c3.5,0,6.2,2.8,6.2,6.2v6.2c0,3.5-2.8,6.2-6.2,6.2H6.2c-3.5,0-6.2-2.8-6.2-6.2v-6.2
	C0,18.4,2.8,15.6,6.2,15.6"/>
<path opacity="0.7" fill="#189FA8" enable-background="new    " d="M28.1,6.2C17.8,6.2,9.4,14.6,9.4,25s8.4,18.8,18.8,18.8
	S46.9,35.4,46.9,25S38.5,6.2,28.1,6.2 M28.1,14.1c6,0,10.9,4.9,10.9,10.9c0,6-4.9,10.9-10.9,10.9c-6,0-10.9-4.9-10.9-10.9
	C17.2,19,22.1,14.1,28.1,14.1"/>
<path fill="#4C72AA" d="M7.8,21.9h40.6c0.9,0,1.6,0.7,1.6,1.6v3.1c0,0.9-0.7,1.6-1.6,1.6H7.8c-0.9,0-1.6-0.7-1.6-1.6v-3.1
	C6.2,22.6,7,21.9,7.8,21.9"/>
</svg>
