<?xml version="1.0" encoding="utf-8"?>
<!-- Generator: Adobe Illustrator 19.2.1, SVG Export Plug-In . SVG Version: 6.00 Build 0)  -->
<!DOCTYPE svg PUBLIC "-//W3C//DTD SVG 1.1//EN" "http://www.w3.org/Graphics/SVG/1.1/DTD/svg11.dtd">
<svg version="1.1" id="Layer_1" xmlns="http://www.w3.org/2000/svg" xmlns:xlink="http://www.w3.org/1999/xlink" x="0px" y="0px"
	 viewBox="0 0 112.45 25" enable-background="new 0 0 112.45 25" xml:space="preserve">
<path fill="#F8F4F0" d="M26.5,12.5C26.5,19.4,20.9,25,14,25S1.5,19.4,1.5,12.5S7.1,0,14,0S26.5,5.6,26.5,12.5"/>
<path fill="#F8F4F0" d="M3.1,7.8H25c1.75,0,3.1,1.4,3.1,3.1V14c0,1.75-1.4,3.1-3.1,3.1H3.1C1.35,17.1,0,15.7,0,14v-3.05
	C-0.05,9.2,1.35,7.8,3.1,7.8"/>
<path opacity="0.7" fill="#FF9701" enable-background="new    " d="M14,3.1c-5.2,0-9.4,4.2-9.4,9.4s4.2,9.4,9.4,9.4s9.4-4.2,9.4-9.4
	S19.2,3.1,14,3.1 M14,7.05c3,0,5.45,2.45,5.45,5.45S17,17.95,14,17.95S8.55,15.5,8.55,12.5S11,7.05,14,7.05"/>
<path fill="#4C72AA" d="M3.85,10.95h20.3c0.45,0,0.8,0.35,0.8,0.8v1.55c0,0.45-0.35,0.8-0.8,0.8H3.85c-0.45,0-0.8-0.35-0.8-0.8v-1.6
	C3.1,11.3,3.45,10.95,3.85,10.95"/>
<path fill="#F8F4F0" d="M54.65,12.5c0,6.9-5.6,12.5-12.5,12.5s-12.5-5.6-12.5-12.5S35.25,0,42.15,0S54.65,5.6,54.65,12.5"/>
<path fill="#F8F4F0" d="M31.2,7.8h21.9c1.75,0,3.1,1.4,3.1,3.1V14c0,1.75-1.4,3.1-3.1,3.1H31.2c-1.75,0-3.1-1.4-3.1-3.1v-3.05
	C28.1,9.2,29.45,7.8,31.2,7.8"/>
<path opacity="0.7" fill="#F02A10" enable-background="new    " d="M42.15,3.1c-5.2,0-9.4,4.2-9.4,9.4s4.2,9.4,9.4,9.4
	s9.35-4.2,9.35-9.4S47.3,3.1,42.15,3.1 M42.15,7.05c3,0,5.45,2.45,5.45,5.45s-2.45,5.45-5.45,5.45c-3.05,0-5.5-2.45-5.5-5.45
	S39.1,7.05,42.15,7.05"/>
<path fill="#4C72AA" d="M32,10.95h20.3c0.45,0,0.8,0.35,0.8,0.8v1.55c0,0.45-0.35,0.8-0.8,0.8H32c-0.45,0-0.8-0.35-0.8-0.8v-1.6
	C31.2,11.3,31.55,10.95,32,10.95"/>
<path fill="#F8F4F0" d="M87.45,1.55h21.9c1.75,0,3.1,1.4,3.1,3.1v15.6c0,1.75-1.4,3.1-3.1,3.1h-21.9c-1.75,0-3.1-1.4-3.1-3.1V4.7
	C84.3,2.95,85.7,1.55,87.45,1.55"/>
<path opacity="0.7" fill="#F02A10" enable-background="new    " d="M89,4.7h18.75c0.85,0,1.55,0.7,1.55,1.55v12.5
	c0,0.85-0.7,1.55-1.55,1.55H89c-0.85,0-1.55-0.7-1.55-1.55V6.25C87.45,5.4,88.15,4.7,89,4.7"/>
<rect x="87.45" y="9" fill="#F8F4F0" width="21.9" height="1.95"/>
<rect x="87.45" y="14.05" fill="#F8F4F0" width="21.9" height="1.95"/>
<polygon fill="#F8F4F0" points="92.9,4.7 99.95,10.15 92.9,14.85 99.95,20.3 103.85,20.3 96.8,14.85 103.85,10.15 96.8,4.7 "/>
<path fill="#F8F4F0" d="M82.75,12.5c0,6.9-5.6,12.5-12.5,12.5s-12.5-5.6-12.5-12.5S63.35,0,70.25,0S82.75,5.6,82.75,12.5"/>
<path fill="#F8F4F0" d="M59.3,7.8h21.9c1.75,0,3.1,1.4,3.1,3.1V14c0,1.75-1.4,3.1-3.1,3.1H59.3c-1.75,0-3.1-1.4-3.1-3.1v-3.05
	C56.2,9.2,57.6,7.8,59.3,7.8"/>
<path opacity="0.7" fill="#189FA8" enable-background="new    " d="M70.25,3.1c-5.15,0-9.35,4.2-9.35,9.4s4.2,9.4,9.4,9.4
	s9.35-4.2,9.35-9.4S75.45,3.1,70.25,3.1 M70.25,7.05c3,0,5.45,2.45,5.45,5.45s-2.45,5.45-5.45,5.45S64.8,15.5,64.8,12.5
	S67.25,7.05,70.25,7.05"/>
<path fill="#4C72AA" d="M60.1,10.95h20.3c0.45,0,0.8,0.35,0.8,0.8v1.55c0,0.45-0.35,0.8-0.8,0.8H60.1c-0.45,0-0.8-0.35-0.8-0.8v-1.6
	C59.3,11.3,59.7,10.95,60.1,10.95"/>
</svg>
