<?xml version="1.0" encoding="utf-8"?>
<!-- Generator: Adobe Illustrator 18.0.0, SVG Export Plug-In . SVG Version: 6.00 Build 0)  -->
<!DOCTYPE svg PUBLIC "-//W3C//DTD SVG 1.1//EN" "http://www.w3.org/Graphics/SVG/1.1/DTD/svg11.dtd">
<svg version="1.1" id="Layer_1" xmlns="http://www.w3.org/2000/svg" xmlns:xlink="http://www.w3.org/1999/xlink" x="0px" y="0px"
	 viewBox="0 0 300 240" enable-background="new 0 0 300 240" xml:space="preserve">
<path fill="#F8F4F0" d="M185.4,81.1h43.8c3.5,0,6.2,2.8,6.2,6.2v31.2c0,3.5-2.8,6.2-6.2,6.2h-43.8c-3.5,0-6.2-2.8-6.2-6.2V87.4
	C179.2,83.9,182,81.1,185.4,81.1"/>
<path opacity="0.7" fill="#F02A10" enable-background="new    " d="M188.6,87.4h37.5c1.7,0,3.1,1.4,3.1,3.1v25
	c0,1.7-1.4,3.1-3.1,3.1h-37.5c-1.7,0-3.1-1.4-3.1-3.1v-25C185.4,88.8,186.8,87.4,188.6,87.4"/>
<rect x="185.4" y="96" fill="#FFFFFF" width="43.8" height="3.9"/>
<rect x="185.4" y="106.1" fill="#FFFFFF" width="43.8" height="3.9"/>
<polygon fill="#FFFFFF" points="196.4,87.4 210.4,98.3 196.4,107.7 210.4,118.6 218.3,118.6 204.2,107.7 218.3,98.3 204.2,87.4 "/>
<path fill="#F8F4F0" d="M176.1,103c0,13.8-11.2,25-25,25c-13.8,0-24.9-11.2-24.9-25s11.2-25,25-25S176.1,89.2,176.1,103"/>
<path fill="#F8F4F0" d="M129.2,93.6H173c3.5,0,6.2,2.8,6.2,6.2v6.2c0,3.5-2.8,6.2-6.2,6.2h-43.8c-3.5,0-6.2-2.8-6.2-6.2v-6.1
	C123,96.4,125.7,93.6,129.2,93.6"/>
<path fill="#4C72AA" d="M151.1,84.2c-10.4,0-18.8,8.4-18.8,18.8s8.4,18.8,18.8,18.8s18.7-8.4,18.7-18.8S161.4,84.2,151.1,84.2
	 M151.1,92.1c6,0,10.9,4.9,10.9,10.9s-4.9,10.9-10.9,10.9s-10.9-4.9-10.9-10.9C140.1,97,145,92.1,151.1,92.1"/>
<path fill="#4C72AA" d="M130.8,99.9h40.6c0.9,0,1.6,0.7,1.6,1.6v3.1c0,0.9-0.7,1.6-1.6,1.6h-40.6c-0.9,0-1.6-0.7-1.6-1.6v-3.2
	C129.2,100.6,129.9,99.9,130.8,99.9"/>
<path fill="#F8F4F0" d="M119.7,103c0,13.8-11.2,25-25,25s-24.9-11.2-24.9-25s11.2-25,25-25S119.7,89.2,119.7,103"/>
<path fill="#F8F4F0" d="M72.9,93.6h43.8c3.5,0,6.2,2.8,6.2,6.2v6.2c0,3.5-2.8,6.2-6.2,6.2H72.9c-3.5,0-6.2-2.8-6.2-6.2v-6.1
	C66.6,96.4,69.3,93.6,72.9,93.6"/>
<path opacity="0.7" fill="#FF9701" enable-background="new    " d="M94.8,84.2C84.4,84.2,76,92.6,76,103s8.4,18.8,18.8,18.8
	s18.7-8.4,18.7-18.8S105,84.2,94.8,84.2 M94.8,92.1c6,0,10.9,4.9,10.9,10.9s-4.9,10.9-10.9,10.9c-6,0-10.9-4.9-10.9-10.9
	C83.7,97,88.6,92.1,94.8,92.1"/>
<path fill="#4C72AA" d="M74.4,99.9H115c0.9,0,1.6,0.7,1.6,1.6v3.1c0,0.9-0.7,1.6-1.6,1.6H74.4c-0.9,0-1.6-0.7-1.6-1.6v-3.2
	C72.9,100.6,73.5,99.9,74.4,99.9"/>
</svg>
