<?xml version="1.0" encoding="utf-8"?>
<!-- Generator: Adobe Illustrator 18.0.0, SVG Export Plug-In . SVG Version: 6.00 Build 0)  -->
<!DOCTYPE svg PUBLIC "-//W3C//DTD SVG 1.1//EN" "http://www.w3.org/Graphics/SVG/1.1/DTD/svg11.dtd">
<svg version="1.1" id="Layer_1" xmlns="http://www.w3.org/2000/svg" xmlns:xlink="http://www.w3.org/1999/xlink" x="0px" y="0px"
	 viewBox="-203 0 503 240" enable-background="new -203 0 503 240" xml:space="preserve">
<path fill="#F8F4F0" d="M-20.7,97.3c0,13.8-11.2,25-25,25s-25-11.2-25-25s11.2-25,25-25S-20.7,83.5-20.7,97.3"/>
<path fill="#F8F4F0" d="M-67.5,87.9h43.8c3.5,0,6.2,2.8,6.2,6.2v6.2c0,3.5-2.8,6.2-6.2,6.2h-43.8c-3.5,0-6.2-2.8-6.2-6.2v-6.1
	C-73.8,90.7-71,87.9-67.5,87.9"/>
<path opacity="0.7" fill="#FF9701" enable-background="new    " d="M-45.7,78.5c-10.4,0-18.8,8.4-18.8,18.8s8.4,18.8,18.8,18.8
	s18.8-8.4,18.8-18.8S-35.3,78.5-45.7,78.5 M-45.7,86.4c6,0,10.9,4.9,10.9,10.9s-4.9,10.9-10.9,10.9s-10.9-4.9-10.9-10.9
	S-51.7,86.4-45.7,86.4"/>
<path fill="#4C72AA" d="M-66,94.2h40.6c0.9,0,1.6,0.7,1.6,1.6v3.1c0,0.9-0.7,1.6-1.6,1.6H-66c-0.9,0-1.6-0.7-1.6-1.6v-3.2
	C-67.5,94.9-66.8,94.2-66,94.2"/>
<path fill="#F8F4F0" d="M-76.7,97.3c0,13.8-11.2,25-25,25s-25-11.2-25-25s11.2-25,25-25S-76.7,83.5-76.7,97.3"/>
<path fill="#F8F4F0" d="M-123.5,87.9h43.8c3.5,0,6.2,2.8,6.2,6.2v6.2c0,3.5-2.8,6.2-6.2,6.2h-43.8c-3.5,0-6.2-2.8-6.2-6.2v-6.1
	C-129.8,90.7-127,87.9-123.5,87.9"/>
<path fill="#4C72AA" d="M-101.7,78.5c-10.4,0-18.8,8.4-18.8,18.8s8.4,18.8,18.8,18.8s18.8-8.4,18.8-18.8S-91.3,78.5-101.7,78.5
	 M-101.7,86.4c6,0,10.9,4.9,10.9,10.9s-4.9,10.9-10.9,10.9s-10.9-4.9-10.9-10.9S-107.7,86.4-101.7,86.4"/>
<path fill="#4C72AA" d="M-122,94.2h40.6c0.9,0,1.6,0.7,1.6,1.6v3.1c0,0.9-0.7,1.6-1.6,1.6H-122c-0.9,0-1.6-0.7-1.6-1.6v-3.2
	C-123.5,94.9-122.8,94.2-122,94.2"/>
<path fill="#F8F4F0" d="M35.6,97.3c0,13.8-11.2,25-25,25s-25-11.2-25-25s11.2-25,25-25S35.6,83.5,35.6,97.3"/>
<path fill="#F8F4F0" d="M-11.3,87.9h43.8c3.5,0,6.2,2.8,6.2,6.2v6.2c0,3.5-2.8,6.2-6.2,6.2h-43.8c-3.5,0-6.2-2.8-6.2-6.2v-6.1
	C-17.5,90.7-14.8,87.9-11.3,87.9"/>
<path opacity="0.7" fill="#F02A10" enable-background="new    " d="M10.6,78.5c-10.4,0-18.8,8.4-18.8,18.8s8.4,18.8,18.8,18.8
	s18.7-8.4,18.7-18.8S20.9,78.5,10.6,78.5 M10.6,86.4c6,0,10.9,4.9,10.9,10.9s-4.9,10.9-10.9,10.9c-6.1,0-11-4.9-11-10.9
	S4.5,86.4,10.6,86.4"/>
<path fill="#4C72AA" d="M-9.7,94.2h40.6c0.9,0,1.6,0.7,1.6,1.6v3.1c0,0.9-0.7,1.6-1.6,1.6H-9.7c-0.9,0-1.6-0.7-1.6-1.6v-3.2
	C-11.3,94.9-10.6,94.2-9.7,94.2"/>
<path fill="#F8F4F0" d="M101.2,75.4H145c3.5,0,6.2,2.8,6.2,6.2v31.2c0,3.5-2.8,6.2-6.2,6.2h-43.8c-3.5,0-6.2-2.8-6.2-6.2V81.7
	C94.9,78.2,97.7,75.4,101.2,75.4"/>
<path opacity="0.7" fill="#F02A10" enable-background="new    " d="M104.3,81.7h37.5c1.7,0,3.1,1.4,3.1,3.1v25
	c0,1.7-1.4,3.1-3.1,3.1h-37.5c-1.7,0-3.1-1.4-3.1-3.1v-25C101.2,83.1,102.6,81.7,104.3,81.7"/>
<rect x="101.2" y="90.3" fill="#F8F4F0" width="43.8" height="3.9"/>
<rect x="101.2" y="100.4" fill="#F8F4F0" width="43.8" height="3.9"/>
<polygon fill="#F8F4F0" points="112.1,81.7 126.2,92.6 112.1,102 126.2,112.9 134,112.9 119.9,102 134,92.6 119.9,81.7 "/>
<path fill="#F8F4F0" d="M91.8,97.3c0,13.8-11.2,25-25,25s-25-11.2-25-25s11.2-25,25-25S91.8,83.5,91.8,97.3"/>
<path fill="#F8F4F0" d="M44.9,87.9h43.8c3.5,0,6.2,2.8,6.2,6.2v6.2c0,3.5-2.8,6.2-6.2,6.2H44.9c-3.5,0-6.2-2.8-6.2-6.2v-6.1
	C38.7,90.7,41.5,87.9,44.9,87.9"/>
<path opacity="0.7" fill="#189FA8" enable-background="new    " d="M66.8,78.5c-10.3,0-18.7,8.4-18.7,18.8s8.4,18.8,18.8,18.8
	s18.7-8.4,18.7-18.8S77.2,78.5,66.8,78.5 M66.8,86.4c6,0,10.9,4.9,10.9,10.9s-4.9,10.9-10.9,10.9s-10.9-4.9-10.9-10.9
	S60.8,86.4,66.8,86.4"/>
<path fill="#4C72AA" d="M46.5,94.2h40.6c0.9,0,1.6,0.7,1.6,1.6v3.1c0,0.9-0.7,1.6-1.6,1.6H46.5c-0.9,0-1.6-0.7-1.6-1.6v-3.2
	C44.9,94.9,45.7,94.2,46.5,94.2"/>
</svg>
