<?xml version="1.0" encoding="utf-8"?>
<!-- Generator: Adobe Illustrator 18.0.0, SVG Export Plug-In . SVG Version: 6.00 Build 0)  -->
<!DOCTYPE svg PUBLIC "-//W3C//DTD SVG 1.1//EN" "http://www.w3.org/Graphics/SVG/1.1/DTD/svg11.dtd">
<svg version="1.1" id="Layer_1" xmlns="http://www.w3.org/2000/svg" xmlns:xlink="http://www.w3.org/1999/xlink" x="0px" y="0px"
	 width="64.1px" height="50px" viewBox="-23.1 -17 64.1 50" enable-background="new -23.1 -17 64.1 50" xml:space="preserve">
<path fill="#F8F4F0" d="M-14-15h46c3.6,0,6.6,2.9,6.6,6.6v32.9c0,3.6-2.9,6.6-6.6,6.6h-46c-3.6,0-6.6-2.9-6.6-6.6V-8.4
	C-20.6-12.1-17.6-15-14-15"/>
<path opacity="0.7" fill="#F02A10" enable-background="new    " d="M-10.7-8.4h39.4C30.5-8.4,32-7,32-5.1v26.3
	c0,1.8-1.5,3.3-3.3,3.3h-39.4c-1.8,0-3.3-1.5-3.3-3.3V-5.1C-14-7-12.5-8.4-10.7-8.4"/>
<rect x="-14" y="0.6" fill="#F8F4F0" width="46" height="4.1"/>
<rect x="-14" y="11.3" fill="#F8F4F0" width="46" height="4.1"/>
<polygon fill="#F8F4F0" points="-2.5,-8.4 12.3,3.1 -2.5,12.9 12.3,24.4 20.5,24.4 5.7,12.9 20.5,3.1 5.7,-8.4 "/>
</svg>
