<?xml version="1.0" encoding="utf-8"?>
<!-- Generator: Adobe Illustrator 19.2.1, SVG Export Plug-In . SVG Version: 6.00 Build 0)  -->
<!DOCTYPE svg PUBLIC "-//W3C//DTD SVG 1.1//EN" "http://www.w3.org/Graphics/SVG/1.1/DTD/svg11.dtd">
<svg version="1.1" id="Layer_1" xmlns="http://www.w3.org/2000/svg" xmlns:xlink="http://www.w3.org/1999/xlink" x="0px" y="0px"
	 viewBox="0 0 56.39 25" enable-background="new 0 0 56.39 25" xml:space="preserve">
<path fill="#F8F4F0" d="M31.3,1.5h21.99c1.79,0,3.1,1.41,3.1,3.1v15.6c0,1.79-1.41,3.1-3.1,3.1H31.3c-1.79,0-3.1-1.41-3.1-3.1V4.7
	C28.2,2.91,29.61,1.5,31.3,1.5"/>
<path opacity="0.7" fill="#F02A10" enable-background="new    " d="M32.89,4.7h18.8c0.85,0,1.6,0.66,1.6,1.6v12.5
	c0,0.85-0.66,1.6-1.6,1.6h-18.8c-0.85,0-1.6-0.66-1.6-1.6V6.2C31.3,5.36,31.95,4.7,32.89,4.7"/>
<rect x="31.3" y="9.02" fill="#FFFFFF" width="21.99" height="1.97"/>
<rect x="31.3" y="14.1" fill="#FFFFFF" width="21.99" height="1.97"/>
<polygon fill="#FFFFFF" points="36.75,4.7 43.8,10.15 36.75,14.85 43.8,20.3 47.74,20.3 40.7,14.85 47.74,10.15 40.7,4.7 "/>
<path fill="#F8F4F0" d="M26.6,12.5c0,6.95-5.64,12.5-12.5,12.5S1.6,19.36,1.6,12.5S7.24,0,14.1,0S26.6,5.55,26.6,12.5"/>
<path fill="#F8F4F0" d="M3.1,7.8h21.99c1.79,0,3.1,1.41,3.1,3.1V14c0,1.79-1.41,3.1-3.1,3.1H3.1C1.31,17.1,0,15.69,0,14v-3.1
	C0,9.21,1.32,7.8,3.1,7.8"/>
<path opacity="0.7" fill="#F02A10" enable-background="new    " d="M14.1,3.1c-5.17,0-9.4,4.23-9.4,9.4s4.23,9.4,9.4,9.4
	s9.4-4.23,9.4-9.4S19.27,3.1,14.1,3.1 M14.1,7.05c3.01,0,5.45,2.44,5.45,5.45s-2.44,5.45-5.45,5.45s-5.45-2.44-5.45-5.45
	C8.55,9.49,11,7.05,14.1,7.05"/>
<path fill="#4C72AA" d="M3.95,10.9h20.39c0.47,0,0.85,0.38,0.85,0.85v1.6c0,0.47-0.38,0.85-0.85,0.85H3.95
	c-0.47,0-0.85-0.38-0.85-0.85v-1.6C3.1,11.28,3.48,10.9,3.95,10.9"/>
</svg>
