<?xml version="1.0" encoding="utf-8"?>
<!-- Generator: Adobe Illustrator 19.2.1, SVG Export Plug-In . SVG Version: 6.00 Build 0)  -->
<!DOCTYPE svg PUBLIC "-//W3C//DTD SVG 1.1//EN" "http://www.w3.org/Graphics/SVG/1.1/DTD/svg11.dtd">
<svg version="1.1" id="Layer_1" xmlns="http://www.w3.org/2000/svg" xmlns:xlink="http://www.w3.org/1999/xlink" x="0px" y="0px"
	 viewBox="0 0 112.95 25" enable-background="new 0 0 112.95 25" xml:space="preserve">
<path fill="#F8F4F0" d="M54.82,12.5c0,6.93-5.57,12.5-12.5,12.5s-12.5-5.57-12.5-12.5S35.39,0,42.32,0S54.82,5.57,54.82,12.5"/>
<path fill="#F8F4F0" d="M31.33,7.83h21.99c1.81,0,3.16,1.36,3.16,3.16V14c0,1.81-1.36,3.16-3.16,3.16H31.33
	c-1.81,0-3.16-1.36-3.16-3.16v-3.01C28.16,9.19,29.52,7.83,31.33,7.83"/>
<path opacity="0.7" fill="#F02A10" enable-background="new    " d="M42.32,3.01c-5.27,0-9.49,4.22-9.49,9.49s4.22,9.49,9.49,9.49
	s9.34-4.22,9.34-9.49S47.44,3.01,42.32,3.01 M42.32,7.08c3.01,0,5.42,2.41,5.42,5.42s-2.41,5.42-5.42,5.42s-5.42-2.41-5.42-5.42
	C36.75,9.49,39.16,7.08,42.32,7.08"/>
<path fill="#4C72AA" d="M32.08,10.99h20.33c0.45,0,0.75,0.3,0.75,0.75v1.51c0,0.45-0.3,0.75-0.75,0.75H32.08
	c-0.45,0-0.75-0.3-0.75-0.75V11.6C31.33,11.3,31.63,10.99,32.08,10.99"/>
<path fill="#F8F4F0" d="M26.66,12.5c0,6.93-5.57,12.5-12.5,12.5s-12.5-5.57-12.5-12.5S7.23,0,14.16,0S26.66,5.57,26.66,12.5"/>
<path fill="#F8F4F0" d="M3.16,7.83h21.99c1.81,0,3.16,1.36,3.16,3.16V14c0,1.81-1.36,3.16-3.16,3.16H3.16C1.35,17.16,0,15.8,0,14
	v-3.01C0,9.19,1.36,7.83,3.16,7.83"/>
<path fill="#4C72AA" d="M14.16,3.01c-5.27,0-9.49,4.22-9.49,9.49s4.22,9.49,9.49,9.49s9.34-4.22,9.34-9.49S19.28,3.01,14.16,3.01
	 M14.16,7.08c3.01,0,5.42,2.41,5.42,5.42s-2.41,5.42-5.42,5.42c-3.01,0-5.42-2.41-5.42-5.42C8.58,9.49,11.14,7.08,14.16,7.08"/>
<path fill="#4C72AA" d="M3.92,10.99h20.33c0.45,0,0.75,0.3,0.75,0.75v1.51C25,13.7,24.7,14,24.25,14H3.92
	c-0.45,0-0.75-0.3-0.75-0.75V11.6C3.16,11.3,3.46,10.99,3.92,10.99"/>
<path fill="#F8F4F0" d="M87.8,1.51h21.99c1.81,0,3.16,1.36,3.16,3.16v15.66c0,1.81-1.36,3.16-3.16,3.16H87.8
	c-1.81,0-3.16-1.36-3.16-3.16V4.67C84.64,2.86,85.99,1.51,87.8,1.51"/>
<path opacity="0.7" fill="#F02A10" enable-background="new    " d="M89.31,4.67h18.83c0.9,0,1.51,0.75,1.51,1.51v12.5
	c0,0.9-0.75,1.51-1.51,1.51H89.31c-0.91-0.01-1.51-0.76-1.51-1.52V6.17C87.8,5.42,88.4,4.67,89.31,4.67"/>
<rect x="87.8" y="9.04" fill="#FFFFFF" width="21.99" height="1.96"/>
<rect x="87.8" y="14.01" fill="#FFFFFF" width="21.99" height="1.96"/>
<polygon fill="#FFFFFF" points="93.22,4.67 100.3,10.09 93.22,14.91 100.3,20.33 104.22,20.33 97.14,14.91 104.22,10.09 97.14,4.67 
	"/>
<path fill="#F8F4F0" d="M82.98,12.5c0,6.93-5.57,12.5-12.5,12.5s-12.5-5.57-12.5-12.5S63.55,0,70.48,0S82.98,5.57,82.98,12.5"/>
<path fill="#F8F4F0" d="M59.49,7.83h21.99c1.81,0,3.16,1.36,3.16,3.16V14c0,1.81-1.36,3.16-3.16,3.16H59.49
	c-1.81,0-3.16-1.36-3.16-3.16v-3.01C56.33,9.19,57.83,7.83,59.49,7.83"/>
<path opacity="0.7" fill="#FF9701" enable-background="new    " d="M70.48,3.01c-5.27,0-9.49,4.22-9.49,9.49s4.22,9.49,9.49,9.49
	s9.49-4.22,9.49-9.49S75.75,3.01,70.48,3.01 M70.48,7.08c3.01,0,5.42,2.41,5.42,5.42s-2.41,5.42-5.42,5.42s-5.42-2.41-5.42-5.42
	S67.47,7.08,70.48,7.08"/>
<path fill="#4C72AA" d="M60.24,10.99h20.33c0.45,0,0.75,0.3,0.75,0.75v1.51c0,0.45-0.3,0.75-0.75,0.75H60.24
	c-0.45,0-0.75-0.3-0.75-0.75V11.6C59.49,11.3,59.79,10.99,60.24,10.99"/>
</svg>
