<?xml version="1.0" encoding="utf-8"?>
<!-- Generator: Adobe Illustrator 19.2.1, SVG Export Plug-In . SVG Version: 6.00 Build 0)  -->
<!DOCTYPE svg PUBLIC "-//W3C//DTD SVG 1.1//EN" "http://www.w3.org/Graphics/SVG/1.1/DTD/svg11.dtd">
<svg version="1.1" id="Layer_1" xmlns="http://www.w3.org/2000/svg" xmlns:xlink="http://www.w3.org/1999/xlink" x="0px" y="0px"
	 viewBox="0 0 84.4 25" enable-background="new 0 0 84.4 25" xml:space="preserve">
<path fill="#F8F4F0" d="M26.55,12.5c0,6.9-5.6,12.5-12.5,12.5s-12.5-5.6-12.5-12.5S7.15,0,14.05,0S26.55,5.6,26.55,12.5"/>
<path fill="#F8F4F0" d="M3.1,7.8H25c1.75,0,3.1,1.4,3.1,3.1V14c0,1.75-1.4,3.1-3.1,3.1H3.1C1.35,17.1,0,15.7,0,14v-3.1
	C0,9.2,1.4,7.8,3.1,7.8"/>
<path opacity="0.7" fill="#F02A10" enable-background="new    " d="M14.05,3.1C8.9,3.1,4.7,7.3,4.7,12.5s4.2,9.4,9.4,9.4
	s9.35-4.2,9.35-9.4S19.25,3.1,14.05,3.1 M14.05,7.05c3,0,5.45,2.45,5.45,5.45s-2.45,5.45-5.45,5.45S8.6,15.5,8.6,12.5
	S11.05,7.05,14.05,7.05"/>
<path fill="#4C72AA" d="M3.9,10.95h20.3c0.45,0,0.8,0.35,0.8,0.8v1.55c0,0.45-0.35,0.8-0.8,0.8H3.9c-0.45,0-0.8-0.35-0.8-0.8v-1.55
	C3.1,11.3,3.5,10.95,3.9,10.95"/>
<path fill="#F8F4F0" d="M59.4,1.55h21.9c1.75,0,3.1,1.4,3.1,3.1v15.6c0,1.75-1.4,3.1-3.1,3.1H59.4c-1.75,0-3.1-1.4-3.1-3.1V4.7
	C56.25,2.95,57.65,1.55,59.4,1.55"/>
<path opacity="0.7" fill="#F02A10" enable-background="new    " d="M60.95,4.7H79.7c0.85,0,1.55,0.7,1.55,1.55v12.5
	c0,0.85-0.7,1.55-1.55,1.55H60.95c-0.85,0-1.55-0.7-1.55-1.55V6.25C59.4,5.4,60.05,4.7,60.95,4.7"/>
<rect x="59.4" y="9" fill="#F8F4F0" width="21.9" height="1.95"/>
<rect x="59.4" y="14.05" fill="#F8F4F0" width="21.9" height="1.95"/>
<polygon fill="#F8F4F0" points="64.85,4.7 71.9,10.15 64.85,14.85 71.9,20.3 75.8,20.3 68.75,14.85 75.8,10.15 68.75,4.7 "/>
<path fill="#F8F4F0" d="M54.7,12.5c0,6.9-5.6,12.5-12.5,12.5s-12.5-5.6-12.5-12.5S35.3,0,42.2,0S54.7,5.6,54.7,12.5"/>
<path fill="#F8F4F0" d="M31.25,7.8h21.9c1.75,0,3.1,1.4,3.1,3.1V14c0,1.75-1.4,3.1-3.1,3.1h-21.9c-1.75,0-3.1-1.4-3.1-3.1v-3.1
	C28.1,9.2,29.5,7.8,31.25,7.8"/>
<path opacity="0.7" fill="#189FA8" enable-background="new    " d="M42.2,3.1c-5.2,0-9.4,4.2-9.4,9.4s4.2,9.4,9.4,9.4
	s9.4-4.2,9.4-9.4S47.35,3.1,42.2,3.1 M42.2,7.05c3,0,5.45,2.45,5.45,5.45s-2.45,5.45-5.45,5.45s-5.45-2.45-5.45-5.45
	C36.7,9.5,39.15,7.05,42.2,7.05"/>
<path fill="#4C72AA" d="M32.05,10.95h20.3c0.45,0,0.8,0.35,0.8,0.8v1.55c0,0.45-0.35,0.8-0.8,0.8h-20.3c-0.45,0-0.8-0.35-0.8-0.8
	v-1.55C31.25,11.3,31.6,10.95,32.05,10.95"/>
</svg>
