<?xml version="1.0" encoding="utf-8"?>
<!-- Generator: Adobe Illustrator 18.0.0, SVG Export Plug-In . SVG Version: 6.00 Build 0)  -->
<!DOCTYPE svg PUBLIC "-//W3C//DTD SVG 1.1//EN" "http://www.w3.org/Graphics/SVG/1.1/DTD/svg11.dtd">
<svg version="1.1" id="Layer_1" xmlns="http://www.w3.org/2000/svg" xmlns:xlink="http://www.w3.org/1999/xlink" x="0px" y="0px"
	 viewBox="-63 -17 180 50" enable-background="new -63 -17 180 50" xml:space="preserve">
<path fill="#F8F4F0" d="M-4.2,8c0,13.8-11.2,25-25,25c-13.8,0-25-11.2-25-25c0-13.8,11.2-25,25-25C-15.4-17-4.2-5.8-4.2,8"/>
<path fill="#F8F4F0" d="M-51.1-1.4h43.8c3.5,0,6.2,2.8,6.2,6.2v6.2c0,3.5-2.8,6.2-6.2,6.2h-43.8c-3.5,0-6.2-2.8-6.2-6.2V4.9
	C-57.4,1.4-54.6-1.4-51.1-1.4"/>
<path opacity="0.7" fill="#F02A10" enable-background="new    " d="M-29.2-10.8C-39.6-10.8-48-2.4-48,8s8.4,18.8,18.8,18.8
	S-10.5,18.4-10.5,8S-18.9-10.8-29.2-10.8 M-29.2-2.9c6,0,10.9,4.9,10.9,10.9c0,6-4.9,10.9-10.9,10.9c-6,0-10.9-4.9-10.9-10.9
	C-40.2,2-35.3-2.9-29.2-2.9"/>
<path fill="#4C72AA" d="M-49.6,4.9h40.6c0.9,0,1.6,0.7,1.6,1.6v3.1c0,0.9-0.7,1.6-1.6,1.6h-40.6c-0.9,0-1.6-0.7-1.6-1.6V6.4
	C-51.1,5.6-50.4,4.9-49.6,4.9"/>
<path fill="#F8F4F0" d="M-60.2,8c0,13.8-11.2,25-25,25c-13.8,0-25-11.2-25-25c0-13.8,11.2-25,25-25C-71.4-17-60.2-5.8-60.2,8"/>
<path fill="#F8F4F0" d="M-107.1-1.4h43.8c3.5,0,6.2,2.8,6.2,6.2v6.2c0,3.5-2.8,6.2-6.2,6.2h-43.8c-3.5,0-6.2-2.8-6.2-6.2V4.9
	C-113.4,1.4-110.6-1.4-107.1-1.4"/>
<path fill="#4C72AA" d="M-85.2-10.8C-95.6-10.8-104-2.4-104,8s8.4,18.8,18.8,18.8S-66.5,18.4-66.5,8S-74.9-10.8-85.2-10.8
	 M-85.2-2.9c6,0,10.9,4.9,10.9,10.9c0,6-4.9,10.9-10.9,10.9c-6,0-10.9-4.9-10.9-10.9C-96.2,2-91.3-2.9-85.2-2.9"/>
<path fill="#4C72AA" d="M-105.6,4.9h40.6c0.9,0,1.6,0.7,1.6,1.6v3.1c0,0.9-0.7,1.6-1.6,1.6h-40.6c-0.9,0-1.6-0.7-1.6-1.6V6.4
	C-107.1,5.6-106.4,4.9-105.6,4.9"/>
<path fill="#F8F4F0" d="M61.4-13.9h43.8c3.5,0,6.2,2.8,6.2,6.2v31.2c0,3.5-2.8,6.2-6.2,6.2H61.4c-3.5,0-6.2-2.8-6.2-6.2V-7.6
	C55.1-11.1,57.9-13.9,61.4-13.9"/>
<path opacity="0.7" fill="#F02A10" enable-background="new    " d="M64.5-7.6H102c1.7,0,3.1,1.4,3.1,3.1v25c0,1.7-1.4,3.1-3.1,3.1
	H64.5c-1.7,0-3.1-1.4-3.1-3.1v-25C61.4-6.2,62.8-7.6,64.5-7.6"/>
<rect x="61.4" y="1" fill="#FFFFFF" width="43.8" height="3.9"/>
<rect x="61.4" y="11.1" fill="#FFFFFF" width="43.8" height="3.9"/>
<polygon fill="#FFFFFF" points="72.3,-7.6 86.4,3.3 72.3,12.7 86.4,23.6 94.2,23.6 80.1,12.7 94.2,3.3 80.1,-7.6 "/>
<path fill="#F8F4F0" d="M52,8c0,13.8-11.2,25-25,25C13.2,33,2,21.8,2,8C2-5.8,13.2-17,27-17C40.8-17,52-5.8,52,8"/>
<path fill="#F8F4F0" d="M5.1-1.4h43.8c3.5,0,6.2,2.8,6.2,6.2v6.2c0,3.5-2.8,6.2-6.2,6.2H5.1c-3.5,0-6.2-2.8-6.2-6.2V4.9
	C-1.1,1.4,1.7-1.4,5.1-1.4"/>
<path opacity="0.7" fill="#FF9701" enable-background="new    " d="M27-10.8C16.6-10.8,8.2-2.4,8.2,8S16.6,26.8,27,26.8
	S45.8,18.4,45.8,8S37.4-10.8,27-10.8 M27-2.9C33-2.9,37.9,2,37.9,8c0,6-4.9,10.9-10.9,10.9C21,18.9,16.1,14,16.1,8
	C16.1,2,21-2.9,27-2.9"/>
<path fill="#4C72AA" d="M6.7,4.9h40.6c0.9,0,1.6,0.7,1.6,1.6v3.1c0,0.9-0.7,1.6-1.6,1.6H6.7c-0.9,0-1.6-0.7-1.6-1.6V6.4
	C5.1,5.6,5.8,4.9,6.7,4.9"/>
</svg>
