<?xml version="1.0" encoding="utf-8"?>
<!-- Generator: Adobe Illustrator 19.2.1, SVG Export Plug-In . SVG Version: 6.00 Build 0)  -->
<!DOCTYPE svg PUBLIC "-//W3C//DTD SVG 1.1//EN" "http://www.w3.org/Graphics/SVG/1.1/DTD/svg11.dtd">
<svg version="1.1" id="Layer_1" xmlns="http://www.w3.org/2000/svg" xmlns:xlink="http://www.w3.org/1999/xlink" x="0px" y="0px"
	 viewBox="0 0 56.63 25" enable-background="new 0 0 56.63 25" xml:space="preserve">
<path fill="#F8F4F0" d="M31.48,1.51h21.99c1.81,0,3.16,1.36,3.16,3.16v15.66c0,1.81-1.36,3.16-3.16,3.16H31.48
	c-1.81,0-3.16-1.36-3.16-3.16V4.67C28.31,2.86,29.67,1.51,31.48,1.51"/>
<path opacity="0.7" fill="#F02A10" enable-background="new    " d="M32.98,4.67h18.83c0.9,0,1.51,0.75,1.51,1.51v12.5
	c0,0.9-0.75,1.51-1.51,1.51H32.98c-0.9,0-1.51-0.75-1.51-1.51V6.18C31.48,5.42,32.08,4.67,32.98,4.67"/>
<rect x="31.48" y="9.04" fill="#FFFFFF" width="21.99" height="1.96"/>
<rect x="31.48" y="14.01" fill="#FFFFFF" width="21.99" height="1.96"/>
<polygon fill="#FFFFFF" points="36.9,4.67 43.98,10.09 36.9,14.91 43.98,20.33 47.89,20.33 40.81,14.91 47.89,10.09 40.81,4.67 "/>
<path fill="#F8F4F0" d="M26.81,12.5c0,6.93-5.57,12.5-12.5,12.5s-12.5-5.57-12.5-12.5S7.38,0,14.31,0S26.81,5.57,26.81,12.5"/>
<path fill="#F8F4F0" d="M3.16,7.83h21.99c1.81,0,3.16,1.36,3.16,3.16V14c0,1.81-1.36,3.16-3.16,3.16H3.16C1.35,17.16,0,15.8,0,14
	v-3.01C0.15,9.19,1.51,7.83,3.16,7.83"/>
<path opacity="0.7" fill="#FF9701" enable-background="new    " d="M14.16,3.01c-5.27,0-9.49,4.22-9.49,9.49s4.22,9.49,9.49,9.49
	s9.34-4.22,9.34-9.49S19.43,3.01,14.16,3.01 M14.16,7.08c3.01,0,5.42,2.41,5.42,5.42s-2.41,5.42-5.42,5.42s-5.42-2.41-5.42-5.42
	S11.14,7.08,14.16,7.08"/>
<path fill="#4C72AA" d="M4.07,10.99H24.4c0.45,0,0.75,0.3,0.75,0.75v1.51c0,0.45-0.3,0.75-0.75,0.75H4.07
	c-0.45,0-0.75-0.3-0.75-0.75V11.6C3.16,11.3,3.61,10.99,4.07,10.99"/>
</svg>
