<?xml version="1.0" encoding="utf-8"?>
<!-- Generator: Adobe Illustrator 18.0.0, SVG Export Plug-In . SVG Version: 6.00 Build 0)  -->
<!DOCTYPE svg PUBLIC "-//W3C//DTD SVG 1.1//EN" "http://www.w3.org/Graphics/SVG/1.1/DTD/svg11.dtd">
<svg version="1.1" id="Layer_1" xmlns="http://www.w3.org/2000/svg" xmlns:xlink="http://www.w3.org/1999/xlink" x="0px" y="0px"
	 width="50px" height="50px" viewBox="-16 -16 50 50" enable-background="new -16 -16 50 50" xml:space="preserve">
<path opacity="0.8" fill="#99918C" enable-background="new    " d="M9-10.4c10.7,0,19.4,8.7,19.4,19.4c0,10.7-8.7,19.4-19.4,19.4
	c-10.7,0-19.4-8.7-19.4-19.4C-10.4-1.7-1.7-10.4,9-10.4"/>
<path fill="#FFFFFF" d="M15.9,13.2c-3.8,3.8-10,3.8-13.9,0c-3.8-3.8-3.8-10,0-13.9c3.8-3.8,10-3.8,13.9,0
	C19.8,3.2,19.8,9.4,15.9,13.2"/>
<rect x="4.1" y="8.3" transform="matrix(0.7071 -0.7071 0.7071 0.7071 -6.7266 10.2421)" fill="#FFFFFF" width="9.8" height="9.8"/>
<circle opacity="0.9" fill="#8F8483" enable-background="new    " cx="9" cy="6.2" r="4.2"/>
</svg>
