<?xml version="1.0" encoding="utf-8"?>
<!-- Generator: Adobe Illustrator 18.0.0, SVG Export Plug-In . SVG Version: 6.00 Build 0)  -->
<!DOCTYPE svg PUBLIC "-//W3C//DTD SVG 1.0//EN" "http://www.w3.org/TR/2001/REC-SVG-20010904/DTD/svg10.dtd">
<svg version="1.0" id="Layer_1" xmlns="http://www.w3.org/2000/svg" xmlns:xlink="http://www.w3.org/1999/xlink" x="0px" y="0px"
	 width="18px" height="18px" viewBox="0 0 18 18" enable-background="new 0 0 18 18" xml:space="preserve">
<path fill="#F8F4F0" d="M9,0c4.9706964,0,9,4.0295534,9,9c0,4.9704533-4.0293036,9-9,9c-4.9707031,0-9-4.0295467-9-9
	C0,4.0295534,4.0292969,0,9,0"/>
<path opacity="0.9" fill="#8F8483" d="M9,2c3.8660975,0,7,3.1340971,7,7c0,3.8659077-3.1339025,7-7,7c-3.8661027,0-7-3.1340923-7-7
	C2,5.1340971,5.1338973,2,9,2"/>
<path fill="#FFFFFF" d="M11.4963207,10.5266533c-1.3787165,1.3787165-3.6139932,1.3786469-4.9926405,0
	c-1.3786492-1.3786497-1.3787165-3.613924,0-4.9926405c1.3787184-1.3787184,3.6139908-1.3786492,4.9926405,0
	C12.8749676,6.9126601,12.8750391,9.1479349,11.4963207,10.5266533"/>
<rect x="7.2348351" y="8.761488" transform="matrix(-0.7071068 0.7071068 -0.7071068 -0.7071068 22.8074284 11.6061602)" fill="#FFFFFF" width="3.5303297" height="3.5303297"/>
<circle opacity="0.9" fill="#8F8483" cx="9" cy="8" r="1.5"/>
</svg>
