<?xml version="1.0" encoding="utf-8"?>
<!-- Generator: Adobe Illustrator 18.0.0, SVG Export Plug-In . SVG Version: 6.00 Build 0)  -->
<!DOCTYPE svg PUBLIC "-//W3C//DTD SVG 1.0//EN" "http://www.w3.org/TR/2001/REC-SVG-20010904/DTD/svg10.dtd">
<svg version="1.0" id="Layer_1" xmlns="http://www.w3.org/2000/svg" xmlns:xlink="http://www.w3.org/1999/xlink" x="0px" y="0px"
	 width="18px" height="18px" viewBox="0 0 18 18" enable-background="new 0 0 18 18" xml:space="preserve">
<path fill="#F8F4F0" d="M9,0c4.9706964,0,9,4.0295534,9,9c0,4.9704533-4.0293036,9-9,9c-4.9707031,0-9-4.0295467-9-9
	C0,4.0295534,4.0292969,0,9,0"/>
<path opacity="0.6" fill="#446B52" d="M9,2c3.8660975,0,7,3.1340971,7,7c0,3.8659077-3.1339025,7-7,7c-3.8661027,0-7-3.1340923-7-7
	C2,5.1340971,5.1338973,2,9,2"/>
<g>
	<path fill="#FFFFFF" d="M9.0126038,11.999115c-0.3504944,0-0.5236607-0.037035-0.5236607-0.037035
		c-0.268919-0.0575132-0.430686,0.1127577-0.3594837,0.3783798l0.286727,1.7956953
		c0.0234213,0.2740011,0.2675848,0.4981833,0.5425844,0.4981833h0.107666c0.2749996,0,0.5191631-0.2241821,0.5425844-0.4981833
		l0.286727-1.7956953c0.0712023-0.2656221-0.0905647-0.4358931-0.3594837-0.3783798
		C9.5362644,11.96208,9.3630981,11.999115,9.0126038,11.999115z"/>
	<circle fill="#FFFFFF" cx="9" cy="7.5" r="3.5"/>
	<circle opacity="0.6" fill="#446B52" cx="7.5" cy="6.4062519" r="0.5"/>
	<circle opacity="0.6" fill="#446B52" cx="7.5" cy="8.5937519" r="0.5"/>
	<circle opacity="0.6" fill="#446B52" cx="10.5" cy="6.4062519" r="0.5"/>
	<circle opacity="0.6" fill="#446B52" cx="10.5" cy="8.5937519" r="0.5"/>
	<circle opacity="0.6" fill="#446B52" cx="8.9999952" cy="7.5" r="0.65625"/>
	<circle opacity="0.6" fill="#446B52" cx="9" cy="9.5" r="0.5"/>
	<circle opacity="0.6" fill="#446B52" cx="9" cy="5.5" r="0.5"/>
</g>
</svg>
