<?xml version="1.0" encoding="utf-8"?>
<!-- Generator: Adobe Illustrator 18.0.0, SVG Export Plug-In . SVG Version: 6.00 Build 0)  -->
<!DOCTYPE svg PUBLIC "-//W3C//DTD SVG 1.0//EN" "http://www.w3.org/TR/2001/REC-SVG-20010904/DTD/svg10.dtd">
<svg version="1.0" id="Layer_1" xmlns="http://www.w3.org/2000/svg" xmlns:xlink="http://www.w3.org/1999/xlink" x="0px" y="0px"
	 width="18px" height="18px" viewBox="0 0 18 18" enable-background="new 0 0 18 18" xml:space="preserve">
<path fill="#F8F4F0" d="M9,0c4.9706964,0,9,4.0295534,9,9c0,4.9704533-4.0293036,9-9,9c-4.9707031,0-9-4.0295467-9-9
	C0,4.0295534,4.0292969,0,9,0"/>
<path opacity="0.9" fill="#8F8483" d="M9,2c3.8660975,0,7,3.1340971,7,7c0,3.8659077-3.1339025,7-7,7c-3.8661027,0-7-3.1340923-7-7
	C2,5.1340971,5.1338973,2,9,2"/>
<g>
	<path fill="#FFFFFF" d="M7.075891,7.6403809C7.4883056,7.6319766,7.9365468,7.3063102,8.0719833,6.916678l0.6817694-1.9613643
		c0.1354361-0.3896322,0.3570585-0.3896322,0.4924946,0L9.9280176,6.916678
		c0.1354361,0.3896322,0.5836773,0.7152987,0.9960909,0.7237029l2.0760469,0.0423069
		c0.4124146,0.0084043,0.4808998,0.2191801,0.1521893,0.4683905l-1.6546898,1.2544966
		c-0.3287106,0.2492104-0.4999228,0.7761497-0.3804731,1.1709757l0.6012983,1.9875116
		c0.1194496,0.3948259-0.0598469,0.5250931-0.3984375,0.2894812l-1.7044239-1.1860428
		c-0.3385906-0.2356119-0.8926468-0.2356119-1.2312374,0l-1.7044244,1.1860428
		c-0.3385901,0.2356119-0.5178866,0.1053448-0.3984365-0.2894812l0.6012979-1.9875116
		c0.1194501-0.3948259-0.0517631-0.9217653-0.3804731-1.1709757L4.8476553,8.1510782
		C4.5189447,7.9018679,4.58743,7.691092,4.9998446,7.6826878L7.075891,7.6403809z"/>
</g>
</svg>
