<?xml version="1.0" encoding="utf-8"?>
<!-- Generator: Adobe Illustrator 19.2.1, SVG Export Plug-In . SVG Version: 6.00 Build 0)  -->
<!DOCTYPE svg PUBLIC "-//W3C//DTD SVG 1.1//EN" "http://www.w3.org/Graphics/SVG/1.1/DTD/svg11.dtd">
<svg version="1.1" id="Layer_1" xmlns="http://www.w3.org/2000/svg" xmlns:xlink="http://www.w3.org/1999/xlink" x="0px" y="0px"
	 viewBox="0 0 20 20" enable-background="new 0 0 20 20" xml:space="preserve">
<path opacity="0.8" fill="#99918C" enable-background="new    " d="M10,0c5.5,0,10,4.5,10,10s-4.5,10-10,10S0,15.5,0,10S4.5,0,10,0"
	/>
<g>
	<path fill="#FFFFFF" d="M5.3,10.2c0,0,0,0.2,0,0.4c0,0.3,0,0.5,0.2,0.8c0.2,0.7,0.6,1.5,1.3,2.1s1.5,1,2.2,1.1s1.1,0,1.1,0
		c0.6,0,1.1,0.4,1.1,0.9c0,0.6-0.4,1.1-0.9,1.1c0,0-0.1,0-0.2,0l0,0c0,0-0.2,0-0.5,0s-0.7-0.1-1.1-0.2c-0.9-0.3-2.1-0.8-2.9-1.8
		c-0.9-0.9-1.4-2.1-1.6-3c-0.1-0.5-0.2-0.9-0.2-1.1c0-0.3,0-0.4,0-0.4c0-0.4,0.3-0.7,0.7-0.7C4.9,9.5,5.3,9.8,5.3,10.2z"/>
</g>
<g>
	<path fill="#FFFFFF" d="M16.3,10.3c0,0,0,0.2,0,0.4c0,0.2,0,0.7-0.1,1.1c-0.2,0.9-0.7,2.1-1.6,3c-0.9,0.9-2,1.5-2.9,1.8
		c-0.5,0.2-0.9,0.2-1.1,0.2c-0.3,0-0.5,0-0.5,0l0,0c-0.6,0-1.1-0.4-1.1-1s0.4-1,1-1.1c0,0,0.1,0,0.2,0c0,0,0.4,0,1.1-0.1
		c0.7-0.1,1.5-0.5,2.2-1.1s1.1-1.4,1.3-2.1c0.1-0.3,0.2-0.6,0.2-0.8c0-0.3,0-0.4,0-0.4c0-0.4,0.4-0.7,0.8-0.7
		C16,9.6,16.3,9.9,16.3,10.3z"/>
</g>
<g>
	<rect x="9" y="7.5" fill="#FFFFFF" width="2.1" height="8.5"/>
</g>
<path fill="#FFFFFF" d="M10,3.4c-1.5,0-2.8,1.2-2.8,2.7s1.2,2.7,2.7,2.7s2.7-1.2,2.7-2.7C12.8,4.6,11.5,3.4,10,3.4z M10,7.2
	c-0.6,0-1-0.5-1-1c0-0.6,0.5-1,1-1c0.6,0,1,0.5,1,1C11.1,6.7,10.6,7.2,10,7.2z"/>
</svg>
