<?xml version="1.0" encoding="utf-8"?>
<!-- Generator: Adobe Illustrator 18.0.0, SVG Export Plug-In . SVG Version: 6.00 Build 0)  -->
<!DOCTYPE svg PUBLIC "-//W3C//DTD SVG 1.1//EN" "http://www.w3.org/Graphics/SVG/1.1/DTD/svg11.dtd">
<svg version="1.1" id="Layer_1" xmlns="http://www.w3.org/2000/svg" xmlns:xlink="http://www.w3.org/1999/xlink" x="0px" y="0px"
	 width="50px" height="50px" viewBox="125 95 50 50" enable-background="new 125 95 50 50" xml:space="preserve">
<path opacity="0.8" fill="#99918C" enable-background="new    " d="M150,110c5.5,0,10,4.5,10,10c0,5.5-4.5,10-10,10s-10-4.5-10-10
	S144.5,110,150,110"/>
<g>
	<path fill="#FFFFFF" d="M145.3,120.2c0,0,0,0.2,0,0.4c0,0.3,0,0.5,0.2,0.8c0.2,0.7,0.6,1.5,1.3,2.1c0.7,0.6,1.5,1,2.2,1.1
		c0.7,0.1,1.1,0,1.1,0c0.6,0,1.1,0.4,1.1,0.9c0,0.6-0.4,1.1-0.9,1.1c0,0-0.1,0-0.2,0l0,0c0,0-0.2,0-0.5,0c-0.3,0-0.7-0.1-1.1-0.2
		c-0.9-0.3-2.1-0.8-2.9-1.8c-0.9-0.9-1.4-2.1-1.6-3c-0.1-0.5-0.2-0.9-0.2-1.1c0-0.3,0-0.4,0-0.4c0-0.4,0.3-0.7,0.7-0.7
		C144.9,119.5,145.3,119.8,145.3,120.2z"/>
</g>
<g>
	<path fill="#FFFFFF" d="M156.3,120.3c0,0,0,0.2,0,0.4c0,0.2,0,0.7-0.1,1.1c-0.2,0.9-0.7,2.1-1.6,3c-0.9,0.9-2,1.5-2.9,1.8
		c-0.5,0.2-0.9,0.2-1.1,0.2c-0.3,0-0.5,0-0.5,0l0,0c-0.6,0-1.1-0.4-1.1-1c0-0.6,0.4-1,1-1.1c0,0,0.1,0,0.2,0c0,0,0.4,0,1.1-0.1
		c0.7-0.1,1.5-0.5,2.2-1.1c0.7-0.6,1.1-1.4,1.3-2.1c0.1-0.3,0.2-0.6,0.2-0.8c0-0.3,0-0.4,0-0.4c0-0.4,0.4-0.7,0.8-0.7
		C156,119.6,156.3,119.9,156.3,120.3z"/>
</g>
<g>
	<rect x="149" y="117.5" fill="#FFFFFF" width="2.1" height="8.5"/>
</g>
<path fill="#FFFFFF" d="M150,113.4c-1.5,0-2.8,1.2-2.8,2.7s1.2,2.7,2.7,2.7c1.5,0,2.7-1.2,2.7-2.7
	C152.8,114.6,151.5,113.4,150,113.4z M150,117.2c-0.6,0-1-0.5-1-1c0-0.6,0.5-1,1-1c0.6,0,1,0.5,1,1
	C151.1,116.7,150.6,117.2,150,117.2z"/>
</svg>
