<?xml version="1.0" encoding="utf-8"?>
<!-- Generator: Adobe Illustrator 18.0.0, SVG Export Plug-In . SVG Version: 6.00 Build 0)  -->
<!DOCTYPE svg PUBLIC "-//W3C//DTD SVG 1.1//EN" "http://www.w3.org/Graphics/SVG/1.1/DTD/svg11.dtd">
<svg version="1.1" id="Layer_1" xmlns="http://www.w3.org/2000/svg" xmlns:xlink="http://www.w3.org/1999/xlink" x="0px" y="0px"
	 viewBox="0 0 50 50" enable-background="new 0 0 50 50" xml:space="preserve">
<path opacity="0.8" fill="#99918C" enable-background="new    " d="M9-10.6c10.7,0,19.4,8.7,19.4,19.4S19.7,28.2,9,28.2
	s-19.4-8.7-19.4-19.4S-1.7-10.6,9-10.6"/>
<g>
	<path fill="#FFFFFF" d="M-0.2,9.3c0,0,0,0.3,0.1,0.7c0,0.5,0.1,1,0.3,1.6c0.4,1.3,1.2,2.9,2.5,4.1c1.3,1.2,3,1.9,4.2,2.2
		C8.2,18.1,9.1,18,9.1,18c1.1-0.1,2.1,0.7,2.2,1.8c0.1,1.1-0.7,2.1-1.8,2.2c-0.1,0-0.2,0-0.3,0l0,0c0,0-0.3,0-0.9-0.1
		c-0.5-0.1-1.3-0.2-2.2-0.4c-1.8-0.5-4-1.6-5.7-3.4c-1.7-1.7-2.7-4.1-3.1-5.8C-2.9,11.4-3,10.5-3,10.1c0-0.5,0-0.7,0-0.7
		C-3,8.6-2.4,8-1.6,8C-0.9,7.9-0.2,8.5-0.2,9.3z"/>
</g>
<g>
	<path fill="#FFFFFF" d="M21.2,9.4c0,0,0,0.3,0,0.7c0,0.4-0.1,1.3-0.2,2.2c-0.3,1.7-1.3,4.1-3.1,5.8c-1.7,1.8-3.9,2.9-5.7,3.4
		c-0.9,0.3-1.7,0.4-2.2,0.4C9.4,22,9.1,22,9.1,22l0,0C8,22.1,7,21.2,6.9,20.1C6.8,19,7.6,18.1,8.8,18c0.1,0,0.2,0,0.3,0
		c0,0,0.8,0.1,2.1-0.2c1.3-0.2,2.9-1,4.2-2.2c1.3-1.2,2.2-2.8,2.5-4.1c0.2-0.6,0.3-1.1,0.3-1.6c0-0.5,0.1-0.7,0.1-0.7
		c0.1-0.8,0.8-1.4,1.5-1.3C20.6,8,21.2,8.7,21.2,9.4z"/>
</g>
<g>
	<rect x="7.1" y="3.9" fill="#FFFFFF" width="4" height="16.4"/>
</g>
<path fill="#FFFFFF" d="M9.1-4C6.1-4,3.7-1.6,3.7,1.3c0,2.9,2.4,5.3,5.3,5.3s5.3-2.4,5.3-5.3C14.4-1.6,12-4,9.1-4z M9.1,3.3
	c-1.1,0-2-0.9-2-2s0.9-2,2-2s2,0.9,2,2S10.2,3.3,9.1,3.3z"/>
</svg>
