<?xml version="1.0" encoding="utf-8"?>
<!-- Generator: Adobe Illustrator 18.0.0, SVG Export Plug-In . SVG Version: 6.00 Build 0)  -->
<!DOCTYPE svg PUBLIC "-//W3C//DTD SVG 1.0//EN" "http://www.w3.org/TR/2001/REC-SVG-20010904/DTD/svg10.dtd">
<svg version="1.0" id="Layer_1" xmlns="http://www.w3.org/2000/svg" xmlns:xlink="http://www.w3.org/1999/xlink" x="0px" y="0px"
	 width="18px" height="18px" viewBox="0 0 18 18" enable-background="new 0 0 18 18" xml:space="preserve">
<path fill="#F8F4F0" d="M9,0c4.9706964,0,9,4.0295534,9,9c0,4.9704533-4.0293036,9-9,9c-4.9707031,0-9-4.0295467-9-9
	C0,4.0295534,4.0292969,0,9,0"/>
<path opacity="0.9" fill="#8F8483" d="M9,2c3.8660975,0,7,3.1340971,7,7c0,3.8659077-3.1339025,7-7,7c-3.8661027,0-7-3.1340923-7-7
	C2,5.1340971,5.1338973,2,9,2"/>
<circle fill="#FFFFFF" cx="9" cy="6" r="2"/>
<path fill="#FFFFFF" d="M5.5305152,8.9720631c0,0,0.0085168,0.0978956,0.0234213,0.2692127
	c0.0098281,0.1948013,0.051723,0.3584671,0.1120868,0.5996876c0.1354318,0.4843979,0.4474044,1.0930099,0.9505653,1.5277319
	c0.4866066,0.4479132,1.1147323,0.7192507,1.5899038,0.8097086C8.6845379,12.2773876,9,12.25,9,12.25
	c0.4141998-0.0359602,0.7791271,0.2706633,0.8150883,0.684864c0.0359602,0.4141998-0.2706642,0.7791271-0.684864,0.8150873
	c-0.039711,0.0034485-0.07897,0.003747-0.117528,0.0011034L9,13.75c0,0-0.1172495-0.0088453-0.3224354-0.0243244
	c-0.203577-0.0204096-0.4938822-0.0622435-0.8261456-0.1603632c-0.6665654-0.1800861-1.5030713-0.6154413-2.1319857-1.2818966
	c-0.6496634-0.6504793-1.0223403-1.5224676-1.1530843-2.1787119C4.5012441,9.7716427,4.4687905,9.4470835,4.474134,9.2981377
	C4.4711757,9.1261911,4.4694853,9.0279369,4.4694853,9.0279369C4.4640722,8.7344131,4.6976314,8.4920788,4.9911542,8.4866657
	C5.2716265,8.481493,5.5055623,8.6970243,5.5305152,8.9720631z"/>
<path fill="#FFFFFF" d="M13.5305147,9.0279369c0,0-0.0016899,0.0982542-0.0046482,0.2702007
	c0.0053425,0.1489458-0.0271101,0.473505-0.0922155,0.8065662c-0.130744,0.6562443-0.5034208,1.5282326-1.1530848,2.1787119
	c-0.6289139,0.6664553-1.4654198,1.1018105-2.1319857,1.2818966c-0.332263,0.0981197-0.6225681,0.1399536-0.8261452,0.1603632
	C9.1172495,13.7411547,9,13.75,9,13.75l-0.008481,0.0006399c-0.4145803,0.0312767-0.7760181-0.2794533-0.8072948-0.6940327
	c-0.0312767-0.4145803,0.2794523-0.7760191,0.6940327-0.8072948C8.918005,12.2463131,8.9614735,12.2469215,9,12.25
	c0,0,0.3154621,0.0273876,0.7935076-0.0715961c0.475172-0.0904579,1.1032972-0.3617954,1.5899038-0.8097086
	c0.5031614-0.4347219,0.8151331-1.043334,0.9505653-1.5277319c0.0603638-0.2412205,0.1022587-0.4048862,0.1120863-0.5996876
	c0.014905-0.1713171,0.0234222-0.2692127,0.0234222-0.2692127c0.025445-0.2924671,0.283164-0.5089321,0.5756311-0.4834881
	C13.3245811,8.5128889,13.5345869,8.7517986,13.5305147,9.0279369z"/>
<line fill="#6A6465" stroke="#FFFFFF" stroke-width="1.5" stroke-miterlimit="10" x1="9" y1="13.125" x2="9" y2="6.5"/>
<circle fill="#8F8483" cx="9" cy="6" r="0.75"/>
</svg>
