<?xml version="1.0" encoding="utf-8"?>
<!-- Generator: Adobe Illustrator 18.0.0, SVG Export Plug-In . SVG Version: 6.00 Build 0)  -->
<!DOCTYPE svg PUBLIC "-//W3C//DTD SVG 1.1//EN" "http://www.w3.org/Graphics/SVG/1.1/DTD/svg11.dtd">
<svg version="1.1"
	 id="svg2208" xmlns:svg="http://www.w3.org/2000/svg" xmlns:sodipodi="http://sodipodi.sourceforge.net/DTD/sodipodi-0.dtd" xmlns:inkscape="http://www.inkscape.org/namespaces/inkscape" xmlns:cc="http://web.resource.org/cc/" xmlns:dc="http://purl.org/dc/elements/1.1/" xmlns:rdf="http://www.w3.org/1999/02/22-rdf-syntax-ns#" inkscape:version="0.45.1" sodipodi:version="0.32" sodipodi:docname="MTR_Corporation_(logo_only).svg" inkscape:output_extension="org.inkscape.output.svg.inkscape" sodipodi:docbase="C:\Documents and Settings\ms\√ä¬∞√•√à√π¬¢"
	 xmlns="http://www.w3.org/2000/svg" xmlns:xlink="http://www.w3.org/1999/xlink" x="0px" y="0px" width="56px" height="50px"
	 viewBox="0 0 56 50" enable-background="new 0 0 56 50" xml:space="preserve">
<sodipodi:namedview  height="35.5px" width="42px" objecttolerance="10.0" guidetolerance="10.0" inkscape:zoom="11.064609" inkscape:cy="17.036301" borderopacity="1.0" pagecolor="#ffffff" bordercolor="#666666" gridtolerance="10.0" inkscape:cx="20.45895" id="base" inkscape:window-y="-4" inkscape:window-x="-4" inkscape:window-height="808" inkscape:window-width="1152" inkscape:current-layer="svg2208" inkscape:pageshadow="2" inkscape:pageopacity="0.0">
	</sodipodi:namedview>
<g id="g8_1_" transform="translate(225.25534,263.89731)">
	<g>
		<g id="path10_10_">
			<path fill="#F8F4F0" d="M-197.5-213.9c-15.3,0-27.8-11.1-27.8-25s12.5-25,27.8-25s27.8,11.1,27.8,25S-181.9-213.9-197.5-213.9z"
				/>
		</g>
	</g>
</g>
<g id="layer1" transform="translate(-225.25534,-263.89731)">
	<g id="g8" transform="translate(225.25534,263.89731)" opacity="0.7">
		<path id="path10" fill="#B42249" d="M3.3,25c0-12,11.4-21.5,24.6-21.5C41.7,3.5,52.5,13,52.5,25S41.1,46.5,27.9,46.5
			C14.1,46.5,3.3,37,3.3,25z"/>
	</g>
	<g id="g108" transform="translate(235.52387,269.94611)">
		<path id="path110" fill="#FFFFFF" d="M19.3,20.3v-2.9c5-0.8,8.7-5,9-10h-3.4c-0.3,2.9-2.6,5.8-5.5,6.3V6.8h-3.4v6.9
			c-3.2-0.5-5.3-3.4-5.5-6.3H6.6c0.3,5.3,4,9.5,9,10v2.9c-4.7,0.8-8.7,5-9,10h3.7c0.3-3.2,2.4-5.8,5.5-6.3v6.9h3.4V24
			c3.2,0.5,5.3,3.4,5.5,6.3h3.7C27.7,25,24,21.1,19.3,20.3z"/>
	</g>
</g>
</svg>
