<?xml version="1.0" encoding="utf-8"?>
<!-- Generator: Adobe Illustrator 18.0.0, SVG Export Plug-In . SVG Version: 6.00 Build 0)  -->
<!DOCTYPE svg PUBLIC "-//W3C//DTD SVG 1.1//EN" "http://www.w3.org/Graphics/SVG/1.1/DTD/svg11.dtd">
<svg version="1.1" id="Layer_1" xmlns="http://www.w3.org/2000/svg" xmlns:xlink="http://www.w3.org/1999/xlink" x="0px" y="0px"
	 viewBox="0 0 50 50" enable-background="new 0 0 50 50" xml:space="preserve">
<path fill="#F8F4F0" d="M9-0.8c5.4,0,9.8,4.3,9.8,9.8s-4.4,9.8-9.8,9.8S-0.8,14.4-0.8,9S3.6-0.8,9-0.8"/>
<path opacity="0.6" fill="#C24246" enable-background="new    " d="M9-0.7c5.4,0,9.7,4.3,9.7,9.7s-4.3,9.7-9.7,9.7S-0.7,14.4-0.7,9
	S3.6-0.7,9-0.7"/>
<path fill="#FFFFFF" d="M9.7,15.2H8.3c-0.9,0-1.4-0.6-1.4-1.4V4.2c0-0.9,0.5-1.4,1.4-1.4h1.4c0.8,0,1.4,0.5,1.4,1.4v9.7
	C11.1,14.7,10.6,15.2,9.7,15.2z"/>
<path fill="#FFFFFF" d="M2.8,9.7V8.3c0-0.9,0.5-1.4,1.4-1.4h9.7c0.9,0,1.4,0.5,1.4,1.4v1.4c0,0.8-0.6,1.4-1.4,1.4H4.2
	C3.3,11.1,2.8,10.6,2.8,9.7z"/>
</svg>
