<?xml version="1.0" encoding="utf-8"?>
<!-- Generator: Adobe Illustrator 18.0.0, SVG Export Plug-In . SVG Version: 6.00 Build 0)  -->
<!DOCTYPE svg PUBLIC "-//W3C//DTD SVG 1.0//EN" "http://www.w3.org/TR/2001/REC-SVG-20010904/DTD/svg10.dtd">
<svg version="1.0" id="Layer_1" xmlns="http://www.w3.org/2000/svg" xmlns:xlink="http://www.w3.org/1999/xlink" x="0px" y="0px"
	 width="18px" height="18px" viewBox="0 0 18 18" enable-background="new 0 0 18 18" xml:space="preserve">
<path fill="#F8F4F0" d="M9,0c5,0,9,4,9,9s-4,9-9,9s-9-4-9-9S4,0,9,0"/>
<path opacity="0.6" fill="#C24246" enable-background="new    " d="M9,2c3.8999996,0,7,3.0999999,7,7s-3.1000004,7-7,7
	s-7-3.1000004-7-7S5.0999999,2,9,2"/>
<path fill="#FFFFFF" d="M9.5,13.5h-1c-0.5999999,0-1-0.3999996-1-1v-7c0-0.5999999,0.4000001-1,1-1h1c0.6000004,0,1,0.4000001,1,1v7
	C10.5,13.1000004,10.1000004,13.5,9.5,13.5z"/>
<path fill="#FFFFFF" d="M4.5,9.5v-1c0-0.5999999,0.4000001-1,1-1h7c0.6000004,0,1,0.4000001,1,1v1c0,0.6000004-0.3999996,1-1,1h-7
	C4.9000001,10.5,4.5,10.1000004,4.5,9.5z"/>
</svg>
