<?xml version="1.0" encoding="utf-8"?>
<!-- Generator: Adobe Illustrator 19.2.1, SVG Export Plug-In . SVG Version: 6.00 Build 0)  -->
<!DOCTYPE svg PUBLIC "-//W3C//DTD SVG 1.1//EN" "http://www.w3.org/Graphics/SVG/1.1/DTD/svg11.dtd">
<svg version="1.1" id="Layer_1" xmlns="http://www.w3.org/2000/svg" xmlns:xlink="http://www.w3.org/1999/xlink" x="0px" y="0px"
	 viewBox="0 0 19.6 19.6" enable-background="new 0 0 19.6 19.6" xml:space="preserve">
<path fill="#F8F4F0" d="M9.8,0c5.4,0,9.8,4.3,9.8,9.8s-4.4,9.8-9.8,9.8S0,15.2,0,9.8S4.4,0,9.8,0"/>
<path opacity="0.6" fill="#C24246" enable-background="new    " d="M9.8,0.1c5.4,0,9.7,4.3,9.7,9.7s-4.3,9.7-9.7,9.7
	s-9.7-4.3-9.7-9.7S4.4,0.1,9.8,0.1"/>
<path fill="#FFFFFF" d="M10.5,16H9.1c-0.9,0-1.4-0.6-1.4-1.4V5c0-0.9,0.5-1.4,1.4-1.4h1.4c0.8,0,1.4,0.5,1.4,1.4v9.7
	C11.9,15.5,11.4,16,10.5,16z"/>
<path fill="#FFFFFF" d="M3.6,10.5V9.1c0-0.9,0.5-1.4,1.4-1.4h9.7c0.9,0,1.4,0.5,1.4,1.4v1.4c0,0.8-0.6,1.4-1.4,1.4H5
	C4.1,11.9,3.6,11.4,3.6,10.5z"/>
</svg>
