<?xml version="1.0" encoding="utf-8"?>
<!-- Generator: Adobe Illustrator 18.0.0, SVG Export Plug-In . SVG Version: 6.00 Build 0)  -->
<!DOCTYPE svg PUBLIC "-//W3C//DTD SVG 1.1//EN" "http://www.w3.org/Graphics/SVG/1.1/DTD/svg11.dtd">
<svg version="1.1" id="Layer_1" xmlns="http://www.w3.org/2000/svg" xmlns:xlink="http://www.w3.org/1999/xlink" x="0px" y="0px"
	 width="50px" height="50px" viewBox="-16 -16 50 50" enable-background="new -16 -16 50 50" xml:space="preserve">
<path fill="#F8F4F0" d="M9-10.5c10.8,0,19.5,8.7,19.5,19.5S19.8,28.5,9,28.5S-10.5,19.8-10.5,9S-1.8-10.5,9-10.5"/>
<path opacity="0.6" fill="#C24246" enable-background="new    " d="M9-10.4c10.8,0,19.4,8.6,19.4,19.4S19.8,28.4,9,28.4
	S-10.4,19.8-10.4,9S-1.8-10.4,9-10.4"/>
<path fill="#FFFFFF" d="M10.4,21.5H7.6c-1.7,0-2.8-1.1-2.8-2.8V-0.7c0-1.7,1.1-2.8,2.8-2.8h2.8c1.7,0,2.8,1.1,2.8,2.8v19.4
	C13.2,20.4,12.1,21.5,10.4,21.5z"/>
<path fill="#FFFFFF" d="M-3.5,10.4V7.6c0-1.7,1.1-2.8,2.8-2.8h19.4c1.7,0,2.8,1.1,2.8,2.8v2.8c0,1.7-1.1,2.8-2.8,2.8H-0.7
	C-2.4,13.2-3.5,12.1-3.5,10.4z"/>
</svg>
