<?xml version="1.0" encoding="utf-8"?>
<!-- Generator: Adobe Illustrator 18.0.0, SVG Export Plug-In . SVG Version: 6.00 Build 0)  -->
<!DOCTYPE svg PUBLIC "-//W3C//DTD SVG 1.1//EN" "http://www.w3.org/Graphics/SVG/1.1/DTD/svg11.dtd">
<svg version="1.1" id="Layer_1" xmlns="http://www.w3.org/2000/svg" xmlns:xlink="http://www.w3.org/1999/xlink" x="0px" y="0px" width='40px' height='42px'
	 viewBox="0 0 40 42" enable-background="new 0 0 40 42" xml:space="preserve">
<g id="Layer_1_1_">
	<path display="none" fill="#FFFFFF" d="M20.4,40.5c-6-0.6-11.4-3.7-15.2-8.6C1.6,27.2-0.3,21.3,0,15.7c0.2-4.9,1.9-9.9,4.8-13.9
		l0.7-1L6.7,1c0.6,0.1,1.2,0.2,1.8,0.3l0,0C9,1.4,9.6,1.5,10.1,1.5h0.1h0.1c1.1,0.2,2.2,0.3,3.3,0.3c2,0,4.2-0.3,6.5-1l0.6-0.2
		l0.6,0.2C22,1,22.8,1.2,23.6,1.3h0.2h0.1c1.3,0.3,2.6,0.4,3.9,0.4c2,0,4.2-0.3,6.6-1l1.1-0.2l0.8,1.2c2.3,3.5,3.8,7.1,4.4,10.8v0.1
		v0.1c0.2,2.1,0.3,3.9,0.2,5.9c-0.4,5-3,10.2-7.3,14.6c-3.9,4-8.7,6.7-12.8,7.2h-0.2L20.4,40.5z M4.8,13.5c-0.3,1.8-0.3,3.5,0,5.1
		v0.1v0.1c1.1,10.4,8.9,16.5,15.8,17c8.6-1.8,16.3-11.4,15.9-19.9v-0.1c0-0.8,0-1.5-0.1-2.3C36.4,13.5,4.8,13.5,4.8,13.5z M34.6,8.1
		c-0.3-0.7-0.7-1.4-1.2-2.2c-1.9,0.5-3.9,0.7-5.9,0.7c-1.8,0-3.7-0.2-5.5-0.6c-0.4-0.1-0.8-0.2-1.2-0.3c-0.1,0-0.3-0.1-0.4-0.1
		c-2.2,0.7-4.7,1.1-7.1,1.1c-1.3,0-2.6-0.1-3.8-0.3C9,6.3,8.5,6.2,8,6.1C8,6,7.8,6,7.6,5.9C7.2,6.6,6.8,7.3,6.4,8.1H34.6z"/>
</g>
<path fill="#F4EFE8" d="M20,42c-0.2,0-0.5,0-0.7-0.1C14.8,40.9,0,37.6,0,14.6C0,10.9,1,4.1,4.7,2.3c0.6-0.3,1.3-0.5,2-0.5
	c1.5,0,2.7,0.7,3.8,1.3c0.5,0.3,1.3,0.8,1.7,0.8c0.8,0,1.2-0.3,2.1-1.2C15.3,1.6,17,0,20,0s4.7,1.6,5.8,2.7c0.9,0.9,1.3,1.2,2.1,1.2
	c0.3,0,1.2-0.5,1.7-0.8c1.1-0.6,2.3-1.3,3.8-1.3c0.7,0,1.4,0.2,2,0.5C39,4.1,40,10.9,40,14.6c0,23-14.8,26.2-19.3,27.3
	C20.5,42,20.2,42,20,42z"/>
<g>
	<path opacity="0.6" fill="#A80415" enable-background="new    " d="M20,11.3c5.9,0,13,0.6,17,2.1c-0.2-3.7-1.3-7.6-3-8.5
		c-1.6-0.8-3.7,1.9-6.1,1.9c-4,0-4.3-3.9-7.9-3.9s-3.9,3.9-7.9,3.9C9.7,6.9,7.6,4.1,6,4.9c-1.7,0.9-2.8,4.8-3,8.5
		C7,11.9,14.1,11.3,20,11.3z"/>
	<path opacity="0.7" fill="#46819B" d="M20,13.3c-7.6,0-14.2,0.9-17,2.3C3.3,32.5,12.5,37.2,20,39c7.5-1.8,16.7-6.5,17-23.4
		C34.2,14.2,27.6,13.3,20,13.3z"/>
</g>
</svg>
