<?xml version="1.0" encoding="utf-8"?>
<!-- Generator: Adobe Illustrator 18.0.0, SVG Export Plug-In . SVG Version: 6.00 Build 0)  -->
<!DOCTYPE svg PUBLIC "-//W3C//DTD SVG 1.0//EN" "http://www.w3.org/TR/2001/REC-SVG-20010904/DTD/svg10.dtd">
<svg version="1.0" id="Layer_1" xmlns="http://www.w3.org/2000/svg" xmlns:xlink="http://www.w3.org/1999/xlink" x="0px" y="0px"
	 width="48px" height="39px" viewBox="0 0 48 39" enable-background="new 0 0 48 39" xml:space="preserve">
<path display="none" fill="#FFFFFF" d="M20.3597355,39.9755325c-5.9629803-0.6043854-11.3599005-3.6742706-15.197175-8.6434383
	c-3.5772519-4.6432419-5.4458566-10.5295105-5.127646-16.1510239c0.1609313-4.9104433,1.866657-9.8659096,4.8006706-13.906724
	L5.5321426,0.315161l1.1720476,0.1531761c0.6317954,0.0827053,1.2263403,0.1972203,1.7812004,0.3068415l0.0499105,0.0097876
	c0.5022707,0.0968973,1.0215845,0.1972203,1.5279951,0.2618185l0.0727968,0.0092982l0.071579,0.0141921
	c1.0727129,0.2182636,2.1904669,0.3288636,3.3218555,0.3288636c2.04317,0,4.2168388-0.3410982,6.4601383-1.0135069
	l0.5977097-0.1791133l0.592598,0.1947734c0.7094612,0.2334345,1.4644508,0.3572477,2.2637501,0.4888911l0.1611748,0.0264266
	l0.0591621,0.0137026c1.2548275,0.2857981,2.5634594,0.4311442,3.8891335,0.4311442
	c2.039032,0,4.1956558-0.3210336,6.5930691-0.9812078L35.5259895,0l0.800518,1.1916413
	c2.3445816,3.4907508,3.8372726,7.1385922,4.4366875,10.8422241l0.0124168,0.0768328l0.0063286,0.077322
	c0.1726189,2.0646963,0.3031158,3.9341288,0.1507072,5.9009504c-0.3802948,5.034256-2.982708,10.2309875-7.3271217,14.6295395
	c-3.9166451,3.9610443-8.6893177,6.6702538-12.7673798,7.2477226L20.5993061,40L20.3597355,39.9755325z M4.7605977,13.0302439
	c-0.278769,1.7901535-0.2683001,3.4843893,0.0289726,5.1414309l0.0119295,0.0670452l0.0075474,0.0675335
	c1.1462402,10.380249,8.9315662,16.4710789,15.7734585,17.0177174c8.5712357-1.784771,16.2513828-11.4001179,15.8681698-19.9461689
	l-0.0019493-0.0900459c0-0.7634335-0.044796-1.4955473-0.1412125-2.2575121H4.7605977z M34.5708694,7.5555449
	c-0.3262444-0.7081337-0.7153053-1.4275231-1.1666908-2.1557212c-1.929472,0.4663796-3.8961926,0.702261-5.8648624,0.702261
	c-1.838171,0-3.6824303-0.2070079-5.4816456-0.6156406c-0.4343452-0.0866203-0.8433685-0.2207103-1.2041855-0.3396297
	c-0.1319599-0.0430655-0.2563705-0.0841737-0.3756695-0.120388c-2.2111607,0.7184105-4.6538601,1.1011062-7.050787,1.1011062
	c-1.2847729,0-2.5520153-0.1086426-3.7671566-0.3239698C9.1561403,5.7296662,8.6643381,5.629343,8.1886053,5.5319567
	C7.99651,5.492806,7.8080668,5.454145,7.620841,5.4174414c-0.4309354,0.6528335-0.8255944,1.371244-1.1756992,2.1381035H34.5708694z
	"/>
<path fill="#F8F4F0" d="M23.8306999,38.9813652c-6.972229-0.5919418-13.2856102-3.5997162-17.7771854-8.4701176
	C1.8591629,25.952755-0.3318423,20.1765404,0.040853,14.6627016C0.2299689,9.8290806,2.230984,4.9621115,5.6726599,0.9935994
	l0.6253357-0.7209235l1.051939,0.1152497c0.7386885,0.08092,1.4392042,0.1937175,2.0933876,0.3021013l0.0629416,0.0102989
	c0.6101828,0.0985753,1.2410545,0.2000931,1.8660984,0.2667907l0.0652733,0.0073564l0.0643978,0.0107893
	c1.322937,0.2251047,2.7003651,0.3393735,4.0941114,0.3393735c2.5030909,0,5.1620779-0.3486916,7.9026556-1.0367566
	l0.536459-0.1343762l0.5317974,0.1461464c0.8928375,0.2457025,1.8617287,0.3790979,2.7985649,0.5080794l0.1751289,0.0245212
	l0.0530338,0.0098085c1.544981,0.2952353,3.1555271,0.4448147,4.7867584,0.4448147
	c2.4946404,0,5.1274033-0.3276033,8.048645-1.0014461L41.6676216,0l0.7185822,0.8955145
	c2.7574768,3.4373827,4.5125542,7.0258164,5.2156944,10.6652536l0.011364,0.0573797l0.0055351,0.0583611
	c0.2042694,2.0470304,0.3590012,3.8988714,0.1800842,5.8321238c-0.4446716,4.9272919-3.4982071,10.0227985-8.598217,14.3458881
	c-4.5303307,3.8365879-10.2548027,6.5648174-14.9404469,7.119978L24.0460415,39L23.8306999,38.9813652z"/>
<path opacity="0.7" fill="#46819B" d="M45.4142761,14.7404366c0.5367432,10.0263844-10.1694641,20.338871-21.2248802,22.101799
	c-11.5921564-0.587719-20.1591721-9.4238281-21.4031429-18.8550377c-0.5371895-2.5085354-0.3579812-5.0093193,0.3579776-7.517849
	h41.7328568C45.2350655,11.9457254,45.4142761,13.2717438,45.4142761,14.7404366"/>
<path opacity="0.6" fill="#A80415" d="M26.3290272,2.959259c4.6370602,0.8812757,9.4529743,0.7381504,14.0901241-0.4447434
	c1.6023483,1.9134357,3.0342598,4.1280375,3.7506638,6.4861412H17.0551758H3.672236L3.8514488,8.555913
	C4.5674043,6.6425529,5.6417847,4.7218037,7.0649586,3.102309L7.422945,2.665318
	c1.4236126,0.1431253,2.6767578,0.436991,3.9211493,0.5874233c3.9295187,0.5877934,8.2086,0.293859,11.9501333-0.7382257
	l0.5371914-0.14305C24.7265873,2.5145156,25.4338589,2.8084433,26.3290272,2.959259"/>
</svg>
