<?xml version="1.0" encoding="utf-8"?>
<!-- Generator: Adobe Illustrator 19.2.1, SVG Export Plug-In . SVG Version: 6.00 Build 0)  -->
<!DOCTYPE svg PUBLIC "-//W3C//DTD SVG 1.1//EN" "http://www.w3.org/Graphics/SVG/1.1/DTD/svg11.dtd">
<svg version="1.1" id="Layer_1" xmlns="http://www.w3.org/2000/svg" xmlns:xlink="http://www.w3.org/1999/xlink" x="0px" y="0px"
	 viewBox="0 0 32 33.6" enable-background="new 0 0 32 33.6" xml:space="preserve">
<g id="Layer_1_1_">
	<path display="none" fill="#FFFFFF" d="M16.4,36.3c-6-0.6-11.4-3.7-15.2-8.6C-2.4,23-4.3,17.1-4,11.5c0.2-4.9,1.9-9.9,4.8-13.9
		l0.7-1l1.2,0.2C3.3-3.1,3.9-3,4.5-2.9l0,0C5-2.8,5.6-2.7,6.1-2.7h0.1h0.1c1.1,0.2,2.2,0.3,3.3,0.3c2,0,4.2-0.3,6.5-1l0.6-0.2
		l0.6,0.2C18-3.2,18.8-3,19.6-2.9h0.2h0.1c1.3,0.3,2.6,0.4,3.9,0.4c2,0,4.2-0.3,6.6-1l1.1-0.2l0.8,1.2c2.3,3.5,3.8,7.1,4.4,10.8v0.1
		v0.1c0.2,2.1,0.3,3.9,0.2,5.9c-0.4,5-3,10.2-7.3,14.6c-3.9,4-8.7,6.7-12.8,7.2h-0.2L16.4,36.3z M0.8,9.3c-0.3,1.8-0.3,3.5,0,5.1
		v0.1v0.1c1.1,10.4,8.9,16.5,15.8,17c8.6-1.8,16.3-11.4,15.9-19.9v-0.1c0-0.8,0-1.5-0.1-2.3C32.4,9.3,0.8,9.3,0.8,9.3z M30.6,3.9
		c-0.3-0.7-0.7-1.4-1.2-2.2c-1.9,0.5-3.9,0.7-5.9,0.7c-1.8,0-3.7-0.2-5.5-0.6c-0.4-0.1-0.8-0.2-1.2-0.3c-0.1,0-0.3-0.1-0.4-0.1
		c-2.2,0.7-4.7,1.1-7.1,1.1C8,2.5,6.7,2.4,5.5,2.2C5,2.1,4.5,2,4,1.9c0-0.1-0.2-0.1-0.4-0.2C3.2,2.4,2.8,3.1,2.4,3.9H30.6z"/>
</g>
<path fill="#F4EFE8" d="M16,33.6c-0.16,0-0.4,0-0.56-0.08C11.84,32.72,0,30.08,0,11.68c0-2.96,0.8-8.4,3.76-9.84
	c0.48-0.24,1.04-0.4,1.6-0.4c1.2,0,2.16,0.56,3.04,1.04c0.4,0.24,1.04,0.64,1.36,0.64c0.64,0,0.96-0.24,1.68-0.96
	C12.24,1.28,13.6,0,16,0s3.76,1.28,4.64,2.16c0.72,0.72,1.04,0.96,1.68,0.96c0.24,0,0.96-0.4,1.36-0.64
	c0.88-0.48,1.84-1.04,3.04-1.04c0.56,0,1.12,0.16,1.6,0.4C31.2,3.28,32,8.72,32,11.68c0,18.4-11.84,20.96-15.44,21.84
	C16.4,33.6,16.16,33.6,16,33.6z"/>
<g>
	<path opacity="0.6" fill="#A80415" enable-background="new    " d="M16,9.04c4.72,0,10.4,0.48,13.6,1.68
		c-0.16-2.96-1.04-6.08-2.4-6.8c-1.28-0.64-2.96,1.52-4.88,1.52c-3.2,0-3.44-3.12-6.32-3.12s-3.12,3.12-6.32,3.12
		C7.76,5.52,6.08,3.28,4.8,3.92c-1.36,0.72-2.24,3.84-2.4,6.8C5.6,9.52,11.28,9.04,16,9.04z"/>
	<path opacity="0.7" fill="#46819B" enable-background="new    " d="M16,10.64c-6.08,0-11.36,0.72-13.6,1.84
		C2.64,26,10,29.76,16,31.2c6-1.44,13.36-5.2,13.6-18.72C27.36,11.36,22.08,10.64,16,10.64z"/>
</g>
</svg>
