<?xml version="1.0" encoding="utf-8"?>
<!-- Generator: Adobe Illustrator 18.0.0, SVG Export Plug-In . SVG Version: 6.00 Build 0)  -->
<!DOCTYPE svg PUBLIC "-//W3C//DTD SVG 1.1//EN" "http://www.w3.org/Graphics/SVG/1.1/DTD/svg11.dtd">
<svg version="1.1" id="Layer_1" xmlns="http://www.w3.org/2000/svg" xmlns:xlink="http://www.w3.org/1999/xlink" x="0px" y="0px" width='50px' height='43px'
	 viewBox="0 0 50 43" enable-background="new 0 0 50 43" xml:space="preserve">
<path display="none" fill="#FFFFFF" d="M15.7,34.6C11.1,34.2,6.9,31.8,4,28c-2.8-3.6-4.2-8.2-4-12.5c0.2-3.8,1.5-7.6,3.7-10.7
	l0.5-0.8l0.9,0.2c0.5,0.1,0.9,0.2,1.4,0.2l0,0c0.4,0.1,0.8,0.2,1.2,0.2h0.1h0.1c0.8,0.2,1.7,0.2,2.5,0.2c1.5,0,3.2-0.2,5-0.8
	l0.5-0.2l0.5,0.2c0.5,0.2,1.2,0.3,1.8,0.4h0.2h0.1c1,0.2,2,0.3,3,0.3c1.5,0,3.2-0.2,5.1-0.8l0.8-0.2l0.6,0.9
	c1.8,2.7,2.9,5.5,3.4,8.3v0.1v0.1c0.2,1.6,0.2,3,0.2,4.5c-0.3,3.8-2.3,7.8-5.6,11.2c-3,3.1-6.7,5.2-9.8,5.5h-0.2L15.7,34.6z
	 M3.7,13.8c-0.2,1.4-0.2,2.7,0,3.9v0.1v0.1c0.8,8,6.8,12.7,12.2,13.1c6.6-1.4,12.5-8.8,12.2-15.3v-0.1c0-0.6,0-1.2-0.1-1.8
	C28,13.8,3.7,13.8,3.7,13.8z M26.6,9.7c-0.2-0.5-0.5-1.1-0.9-1.7c-1.5,0.4-3,0.5-4.5,0.5c-1.4,0-2.8-0.2-4.2-0.5
	C16.6,8,16.3,7.9,16,7.8c-0.1,0-0.2-0.1-0.3-0.1c-1.7,0.5-3.6,0.8-5.5,0.8c-1,0-2-0.1-2.9-0.2C6.9,8.3,6.5,8.2,6.2,8.2
	C6.2,8.1,6,8.1,5.8,8C5.5,8.5,5.2,9.1,4.9,9.7H26.6z"/>
<path fill="#F8F4F0" d="M25,42.6c-0.6,0-1.1-0.2-1.6-0.5C23,42,22,41.9,21.2,41.8C14.9,40.8,0,36.5,0,13.6C0,9,1.8,3.4,5.6,2
	c0.6-0.2,1.2-0.3,1.8-0.3c1.5,0,2.7,0.6,4,1.1c0.9,0.4,1.9,0.8,2.6,0.8c0.9,0,1.7-0.4,3-1.2c1.8-1,4.3-2.4,8-2.4s6.2,1.4,8,2.4
	c1.3,0.7,2.1,1.2,3,1.2c0.7,0,1.7-0.4,2.6-0.8c1.2-0.5,2.5-1.1,4-1.1c0.6,0,1.3,0.1,1.8,0.3C48.2,3.4,50,9,50,13.6
	c0,22.9-14.9,27.2-21.2,28.2C28,41.9,27,42,26.6,42.2C26.1,42.5,25.6,42.6,25,42.6z"/>
<g>
	<path opacity="0.6" fill="#A80415" enable-background="new    " d="M25,9.6c9,0,17.6,1.5,22,3.2c-0.2-3.4-1.5-7.2-3.6-8
		C41.4,4,38.9,6.5,36,6.5C32.2,6.5,30.4,3,25,3s-7.2,3.5-11,3.5c-2.9,0-5.4-2.5-7.3-1.8c-2.1,0.8-3.5,4.6-3.6,8
		C7.4,11.1,16,9.6,25,9.6z"/>
	<path opacity="0.7" fill="#46819B" enable-background="new    " d="M25,11.6c-9.2,0-18.2,1.7-22,3.3c0.7,23.9,19.4,22.7,22,24.7
		c2.6-2,21.3-0.8,22-24.7C43.2,13.3,34.2,11.6,25,11.6z"/>
</g>
</svg>
