<?xml version="1.0" encoding="utf-8"?>
<!-- Generator: Adobe Illustrator 18.0.0, SVG Export Plug-In . SVG Version: 6.00 Build 0)  -->
<!DOCTYPE svg PUBLIC "-//W3C//DTD SVG 1.1//EN" "http://www.w3.org/Graphics/SVG/1.1/DTD/svg11.dtd">
<svg version="1.1" xmlns="http://www.w3.org/2000/svg" xmlns:xlink="http://www.w3.org/1999/xlink" x="0px" y="0px" width='46' height='44'
	 viewBox="0 0 46 44" enable-background="new 0 0 46 44" xml:space="preserve">
<g id="Layer_1">
	<path display="none" fill="#FFFFFF" d="M20.4,40.5c-6-0.6-11.4-3.7-15.2-8.6C1.6,27.2-0.3,21.3,0,15.7c0.2-4.9,1.9-9.9,4.8-13.9
		l0.7-1L6.7,1c0.6,0.1,1.2,0.2,1.8,0.3l0,0C9,1.4,9.6,1.5,10.1,1.5h0.1h0.1c1.1,0.2,2.2,0.3,3.3,0.3c2,0,4.2-0.3,6.5-1l0.6-0.2
		l0.6,0.2C22,1,22.8,1.2,23.6,1.3h0.2h0.1c1.3,0.3,2.6,0.4,3.9,0.4c2,0,4.2-0.3,6.6-1l1.1-0.2l0.8,1.2c2.3,3.5,3.8,7.1,4.4,10.8v0.1
		v0.1c0.2,2.1,0.3,3.9,0.2,5.9c-0.4,5-3,10.2-7.3,14.6c-3.9,4-8.7,6.7-12.8,7.2h-0.2L20.4,40.5z M4.8,13.5c-0.3,1.8-0.3,3.5,0,5.1
		v0.1v0.1c1.1,10.4,8.9,16.5,15.8,17c8.6-1.8,16.3-11.4,15.9-19.9v-0.1c0-0.8,0-1.5-0.1-2.3C36.4,13.5,4.8,13.5,4.8,13.5z M34.6,8.1
		c-0.3-0.7-0.7-1.4-1.2-2.2c-1.9,0.5-3.9,0.7-5.9,0.7c-1.8,0-3.7-0.2-5.5-0.6c-0.4-0.1-0.8-0.2-1.2-0.3c-0.1,0-0.3-0.1-0.4-0.1
		c-2.2,0.7-4.7,1.1-7.1,1.1c-1.3,0-2.6-0.1-3.8-0.3C9,6.3,8.5,6.2,8,6.1C8,6,7.8,6,7.6,5.9C7.2,6.6,6.8,7.3,6.4,8.1H34.6z"/>
</g>
<g id="Layer_2">
	<path fill="#F4EFE8" d="M23.1,44c-0.2,0-0.4,0-0.6-0.1c-0.2,0-0.4-0.1-0.5-0.1C5.8,40.1,0,26.4,0,14.7C0,10.9,1.1,4.1,5.2,2.2
		c0.6-0.3,1.3-0.4,2-0.4c1.5,0,2.8,0.7,4,1.3c0.7,0.4,1.5,0.8,1.9,0.8c0.5,0,1.1-0.3,2.3-1.1C17,1.6,19.2,0.2,22.6,0
		c0.1,0,0.2,0,0.3,0h0.2c0.1,0,0.3,0,0.4,0c3.2,0.1,5.4,1.6,7.1,2.7c1.2,0.8,1.7,1.1,2.3,1.1c0.4,0,1.3-0.4,1.9-0.8
		c1.2-0.6,2.5-1.3,4-1.3c0.7,0,1.4,0.1,2,0.4c4.1,1.9,5.2,8.7,5.2,12.5c0,11.6-5.7,25.3-21.8,29.1C23.9,43.9,23.5,44,23.1,44z"/>
	<g opacity="0.7">
		<path fill="#46819B" d="M23.1,12.6c-7.8,0-15.5,1.6-19.6,3.3C4,32.3,15,39,23.1,40.8v0c0,0,0.1,0,0.1,0c0,0,0.1,0,0.1,0v0
			C31.5,39,42.5,32.3,43,15.9C38.9,14.2,31.1,12.6,23.1,12.6z"/>
	</g>
	<path opacity="0.6" fill="#A80415" enable-background="new    " d="M23.1,10.4c7.7,0,15.3,1.5,19.9,3.2c-0.2-3.7-1.4-7.6-3.3-8.5
		C38,4.3,35.7,7,33.1,7c-3.4,0-5-3.7-9.7-3.8v0c0,0-0.1,0-0.1,0c0,0-0.1,0-0.1,0v0C18.4,3.3,16.8,7,13.4,7c-2.6,0-4.9-2.7-6.6-1.9
		c-1.8,0.8-3,4.8-3.3,8.4C8.1,11.8,15.5,10.4,23.1,10.4z"/>
</g>
</svg>
