<?xml version="1.0" encoding="utf-8"?>
<!-- Generator: Adobe Illustrator 19.2.1, SVG Export Plug-In . SVG Version: 6.00 Build 0)  -->
<!DOCTYPE svg PUBLIC "-//W3C//DTD SVG 1.1//EN" "http://www.w3.org/Graphics/SVG/1.1/DTD/svg11.dtd">
<svg version="1.1" id="Layer_1" xmlns="http://www.w3.org/2000/svg" xmlns:xlink="http://www.w3.org/1999/xlink" x="0px" y="0px"
	 viewBox="0 0 40 34.08" enable-background="new 0 0 40 34.08" xml:space="preserve">
<path display="none" fill="#FFFFFF" d="M10.7,30.4C6.1,30,1.9,27.6-1,23.8c-2.8-3.6-4.2-8.2-4-12.5c0.2-3.8,1.5-7.6,3.7-10.7
	l0.5-0.8L0.1,0C0.6,0.1,1,0.2,1.5,0.2l0,0c0.4,0.1,0.8,0.2,1.2,0.2h0.1h0.1c0.8,0.2,1.7,0.2,2.5,0.2c1.5,0,3.2-0.2,5-0.8l0.5-0.2
	l0.5,0.2c0.5,0.2,1.2,0.3,1.8,0.4h0.2h0.1c1,0.2,2,0.3,3,0.3c1.5,0,3.2-0.2,5.1-0.8l0.8-0.2L23,0.4c1.8,2.7,2.9,5.5,3.4,8.3v0.1v0.1
	c0.2,1.6,0.2,3,0.2,4.5c-0.3,3.8-2.3,7.8-5.6,11.2c-3,3.1-6.7,5.2-9.8,5.5H11L10.7,30.4z M-1.3,9.6c-0.2,1.4-0.2,2.7,0,3.9v0.1v0.1
	c0.8,8,6.8,12.7,12.2,13.1c6.6-1.4,12.5-8.8,12.2-15.3v-0.1c0-0.6,0-1.2-0.1-1.8C23,9.6-1.3,9.6-1.3,9.6z M21.6,5.5
	c-0.2-0.5-0.5-1.1-0.9-1.7c-1.5,0.4-3,0.5-4.5,0.5c-1.4,0-2.8-0.2-4.2-0.5c-0.4,0-0.7-0.1-1-0.2c-0.1,0-0.2-0.1-0.3-0.1
	C9,4,7.1,4.3,5.2,4.3c-1,0-2-0.1-2.9-0.2C1.9,4.1,1.5,4,1.2,4c0-0.1-0.2-0.1-0.4-0.2C0.5,4.3,0.2,4.9-0.1,5.5H21.6z"/>
<path fill="#F8F4F0" d="M20,34.08c-0.48,0-0.88-0.16-1.28-0.4c-0.32-0.08-1.12-0.16-1.76-0.24C11.92,32.64,0,29.2,0,10.88
	C0,7.2,1.44,2.72,4.48,1.6c0.48-0.16,0.96-0.24,1.44-0.24c1.2,0,2.16,0.48,3.2,0.88c0.72,0.32,1.52,0.64,2.08,0.64
	c0.72,0,1.36-0.32,2.4-0.96C15.04,1.12,17.04,0,20,0s4.96,1.12,6.4,1.92c1.04,0.56,1.68,0.96,2.4,0.96c0.56,0,1.36-0.32,2.08-0.64
	c0.96-0.4,2-0.88,3.2-0.88c0.48,0,1.04,0.08,1.44,0.24C38.56,2.72,40,7.2,40,10.88c0,18.32-11.92,21.76-16.96,22.56
	c-0.64,0.08-1.44,0.16-1.76,0.32C20.88,34,20.48,34.08,20,34.08z"/>
<g>
	<path opacity="0.6" fill="#A80415" enable-background="new    " d="M20,7.68c7.2,0,14.08,1.2,17.6,2.56
		c-0.16-2.72-1.2-5.76-2.88-6.4c-1.6-0.64-3.6,1.36-5.92,1.36c-3.04,0-4.48-2.8-8.8-2.8s-5.76,2.8-8.8,2.8c-2.32,0-4.32-2-5.84-1.44
		c-1.68,0.64-2.8,3.68-2.88,6.4C5.92,8.88,12.8,7.68,20,7.68z"/>
	<path opacity="0.7" fill="#46819B" enable-background="new    " d="M20,9.28c-7.36,0-14.56,1.36-17.6,2.64
		C2.96,31.04,17.92,30.08,20,31.68c2.08-1.6,17.04-0.64,17.6-19.76C34.56,10.64,27.36,9.28,20,9.28z"/>
</g>
</svg>
