<?xml version="1.0" encoding="utf-8"?>
<!-- Generator: Adobe Illustrator 19.2.1, SVG Export Plug-In . SVG Version: 6.00 Build 0)  -->
<!DOCTYPE svg PUBLIC "-//W3C//DTD SVG 1.1//EN" "http://www.w3.org/Graphics/SVG/1.1/DTD/svg11.dtd">
<svg version="1.1" id="Layer_1" xmlns="http://www.w3.org/2000/svg" xmlns:xlink="http://www.w3.org/1999/xlink" x="0px" y="0px"
	 viewBox="0 0 36.8 35.2" enable-background="new 0 0 36.8 35.2" xml:space="preserve">
<g id="Layer_1_1_">
	<path display="none" fill="#FFFFFF" d="M15.8,36.1c-6-0.6-11.4-3.7-15.2-8.6C-3,22.8-4.9,16.9-4.6,11.3c0.2-4.9,1.9-9.9,4.8-13.9
		l0.7-1l1.2,0.2c0.6,0.1,1.2,0.2,1.8,0.3l0,0C4.4-3,5-2.9,5.5-2.9h0.1h0.1C6.8-2.7,7.9-2.6,9-2.6c2,0,4.2-0.3,6.5-1l0.6-0.2l0.6,0.2
		c0.7,0.2,1.5,0.4,2.3,0.5h0.2h0.1c1.3,0.3,2.6,0.4,3.9,0.4c2,0,4.2-0.3,6.6-1l1.1-0.2l0.8,1.2c2.3,3.5,3.8,7.1,4.4,10.8v0.1v0.1
		c0.2,2.1,0.3,3.9,0.2,5.9c-0.4,5-3,10.2-7.3,14.6c-3.9,4-8.7,6.7-12.8,7.2H16L15.8,36.1z M0.2,9.1c-0.3,1.8-0.3,3.5,0,5.1v0.1v0.1
		c1.1,10.4,8.9,16.5,15.8,17c8.6-1.8,16.3-11.4,15.9-19.9v-0.1c0-0.8,0-1.5-0.1-2.3C31.8,9.1,0.2,9.1,0.2,9.1z M30,3.7
		c-0.3-0.7-0.7-1.4-1.2-2.2c-1.9,0.5-3.9,0.7-5.9,0.7c-1.8,0-3.7-0.2-5.5-0.6c-0.4-0.1-0.8-0.2-1.2-0.3c-0.1,0-0.3-0.1-0.4-0.1
		c-2.2,0.7-4.7,1.1-7.1,1.1C7.4,2.3,6.1,2.2,4.9,2c-0.5-0.1-1-0.2-1.5-0.3c0-0.1-0.2-0.1-0.4-0.2C2.6,2.2,2.2,2.9,1.8,3.7H30z"/>
</g>
<g id="Layer_2">
	<path fill="#F4EFE8" d="M18.48,35.2c-0.16,0-0.32,0-0.48-0.08c-0.16,0-0.32-0.08-0.4-0.08C4.64,32.08,0,21.12,0,11.76
		c0-3.04,0.88-8.48,4.16-10c0.48-0.24,1.04-0.32,1.6-0.32C6.96,1.44,8,2,8.96,2.48c0.56,0.32,1.2,0.64,1.52,0.64
		c0.4,0,0.88-0.24,1.84-0.88C13.6,1.28,15.36,0.16,18.08,0c0.08,0,0.16,0,0.24,0h0.16c0.08,0,0.24,0,0.32,0
		c2.56,0.08,4.32,1.28,5.68,2.16c0.96,0.64,1.36,0.88,1.84,0.88c0.32,0,1.04-0.32,1.52-0.64c0.96-0.48,2-1.04,3.2-1.04
		c0.56,0,1.12,0.08,1.6,0.32c3.28,1.52,4.16,6.96,4.16,10c0,9.28-4.56,20.24-17.44,23.28C19.12,35.12,18.8,35.2,18.48,35.2z"/>
	<g opacity="0.7">
		<path fill="#46819B" d="M18.48,10.08c-6.24,0-12.4,1.28-15.68,2.64C3.2,25.84,12,31.2,18.48,32.64l0,0h0.08h0.08l0,0
			C25.2,31.2,34,25.84,34.4,12.72C31.12,11.36,24.88,10.08,18.48,10.08z"/>
	</g>
	<path opacity="0.6" fill="#A80415" enable-background="new    " d="M18.48,8.32c6.16,0,12.24,1.2,15.92,2.56
		c-0.16-2.96-1.12-6.08-2.64-6.8c-1.36-0.64-3.2,1.52-5.28,1.52c-2.72,0-4-2.96-7.76-3.04l0,0h-0.08h-0.08l0,0
		c-3.84,0.08-5.12,3.04-7.84,3.04c-2.08,0-3.92-2.16-5.28-1.52C4,4.72,3.04,7.92,2.8,10.8C6.48,9.44,12.4,8.32,18.48,8.32z"/>
</g>
</svg>
