<?xml version="1.0" encoding="utf-8"?>
<!-- Generator: Adobe Illustrator 18.0.0, SVG Export Plug-In . SVG Version: 6.00 Build 0)  -->
<!DOCTYPE svg PUBLIC "-//W3C//DTD SVG 1.0//EN" "http://www.w3.org/TR/2001/REC-SVG-20010904/DTD/svg10.dtd">
<svg version="1.0" id="Layer_1" xmlns="http://www.w3.org/2000/svg" xmlns:xlink="http://www.w3.org/1999/xlink" x="0px" y="0px"
	 width="18px" height="18px" viewBox="0 0 18 18" enable-background="new 0 0 18 18" xml:space="preserve">
<path fill="#F8F4F0" d="M8.9936018,0c4.9706964,0,9.000001,4.0295534,9.000001,9c0,4.9704533-4.0293045,9-9.000001,9
	c-4.9707031,0-9-4.0295467-9-9C-0.0063979,4.0295534,4.0228987,0,8.9936018,0"/>
<path opacity="0.6" fill="#895FB1" d="M8.9936018,2c3.8660975,0,7,3.1340971,7,7c0,3.8659077-3.1339025,7-7,7
	c-3.8661022,0-7-3.1340923-7-7C1.993602,5.1340971,5.1274996,2,8.9936018,2"/>
<path fill="#FFFFFF" d="M8.9829397,6.8075008c1.249404-1.2494035,3.4341002-1.2494035,4.6835041,0l0.8208389,4.7713327
	c-1.249404-1.249403-4.250597-0.7927322-5.5,0.4566717l0,0c-1.249404-1.249404-3.7505965-1.7060747-5-0.4566717l0.5457437-4.7713327
	c1.249404-1.2494035,3.2943559-1.2494035,4.5437598,0H8.9829397z"/>
</svg>
