<?xml version="1.0" encoding="utf-8"?>
<!-- Generator: Adobe Illustrator 19.2.1, SVG Export Plug-In . SVG Version: 6.00 Build 0)  -->
<!DOCTYPE svg PUBLIC "-//W3C//DTD SVG 1.1//EN" "http://www.w3.org/Graphics/SVG/1.1/DTD/svg11.dtd">
<svg version="1.1" id="Layer_1" xmlns="http://www.w3.org/2000/svg" xmlns:xlink="http://www.w3.org/1999/xlink" x="0px" y="0px"
	 viewBox="0 0 28.04 25" enable-background="new 0 0 28.04 25" xml:space="preserve">
<path fill="#F8F4F0" d="M26.5,12.5C26.5,19.4,20.9,25,14,25S1.5,19.4,1.5,12.5S7.14,0,14,0S26.5,5.6,26.5,12.5"/>
<path fill="#F8F4F0" d="M3.09,7.79h21.87c1.77,0,3.08,1.4,3.08,3.08v3.12c0,1.77-1.4,3.08-3.08,3.08H3.08
	c-1.77,0-3.08-1.4-3.08-3.08v-3.03C-0.04,9.19,1.36,7.79,3.09,7.79"/>
<path fill="#4C72AA" d="M14,3.08c-5.18,0-9.38,4.2-9.38,9.38s4.2,9.38,9.38,9.38s9.38-4.2,9.38-9.38S19.23,3.08,14,3.08 M14,7.04
	c2.99,0,5.46,2.43,5.46,5.46s-2.43,5.46-5.46,5.46s-5.41-2.47-5.41-5.46S11.02,7.04,14,7.04"/>
<path fill="#4C72AA" d="M3.88,10.96h20.29c0.47,0,0.79,0.37,0.79,0.79v1.54c0,0.47-0.37,0.79-0.79,0.79H3.88
	c-0.47,0-0.79-0.37-0.79-0.79V11.7C3.09,11.29,3.41,10.96,3.88,10.96"/>
</svg>
