<?xml version="1.0" encoding="utf-8"?>
<!-- Generator: Adobe Illustrator 18.0.0, SVG Export Plug-In . SVG Version: 6.00 Build 0)  -->
<!DOCTYPE svg PUBLIC "-//W3C//DTD SVG 1.1//EN" "http://www.w3.org/Graphics/SVG/1.1/DTD/svg11.dtd">
<svg version="1.1" id="Layer_1" xmlns="http://www.w3.org/2000/svg" xmlns:xlink="http://www.w3.org/1999/xlink" x="0px" y="0px"
	 width="56.2px" height="50px" viewBox="-19.1 -17 56.2 50" enable-background="new -19.1 -17 56.2 50" xml:space="preserve">
<path fill="#F8F6F0" d="M34,8c0,13.8-11.2,25-25,25C-4.8,33-16,21.8-16,8C-16-5.8-4.8-17,9-17C22.8-17,34-5.8,34,8"/>
<path fill="#F8F6F0" d="M-12.9-1.4h43.8c3.5,0,6.2,2.8,6.2,6.2v6.2c0,3.5-2.8,6.2-6.2,6.2h-43.8c-3.5,0-6.2-2.8-6.2-6.2V4.9
	C-19.1,1.4-16.3-1.4-12.9-1.4"/>
<path opacity="0.7" fill="#189FA8" enable-background="new    " d="M9-10.8C-1.4-10.8-9.8-2.4-9.8,8S-1.4,26.8,9,26.8
	S27.8,18.4,27.8,8S19.4-10.8,9-10.8 M9-2.9C15-2.9,19.9,2,19.9,8c0,6-4.9,10.9-10.9,10.9C3,18.9-1.9,14-1.9,8C-1.9,2,3-2.9,9-2.9"/>
<path fill="#4C72AA" d="M-11.3,4.9h40.6c0.9,0,1.6,0.7,1.6,1.6v3.1c0,0.9-0.7,1.6-1.6,1.6h-40.6c-0.9,0-1.6-0.7-1.6-1.6V6.4
	C-12.9,5.6-12.2,4.9-11.3,4.9"/>
</svg>
