<?xml version="1.0" encoding="utf-8"?>
<!-- Generator: Adobe Illustrator 18.0.0, SVG Export Plug-In . SVG Version: 6.00 Build 0)  -->
<!DOCTYPE svg PUBLIC "-//W3C//DTD SVG 1.1//EN" "http://www.w3.org/Graphics/SVG/1.1/DTD/svg11.dtd">
<svg version="1.1" id="Layer_1" xmlns="http://www.w3.org/2000/svg" xmlns:xlink="http://www.w3.org/1999/xlink" x="0px" y="0px"
	 viewBox="0 0 300 240" enable-background="new 0 0 300 240" xml:space="preserve">
<path fill="#F8F4F0" d="M176.1,103c0,13.8-11.2,25-25,25s-24.9-11.2-24.9-25s11.2-25,25-25C165,78,176.1,89.2,176.1,103"/>
<path fill="#F8F4F0" d="M129.3,93.6h43.8c3.5,0,6.2,2.8,6.2,6.2v6.2c0,3.5-2.8,6.2-6.2,6.2h-43.8c-3.5,0-6.2-2.8-6.2-6.2v-6.1
	C123.1,96.4,125.8,93.6,129.3,93.6"/>
<path opacity="0.7" fill="#F02A10" enable-background="new    " d="M151.2,84.2c-10.4,0-18.8,8.4-18.8,18.8s8.4,18.8,18.8,18.8
	s18.7-8.4,18.7-18.8S161.5,84.2,151.2,84.2 M151.2,92.1c6,0,10.9,4.9,10.9,10.9s-4.9,10.9-10.9,10.9c-6,0-10.9-4.9-10.9-10.9
	C140.2,97,145.1,92.1,151.2,92.1"/>
<path fill="#4C72AA" d="M130.9,99.9h40.6c0.9,0,1.6,0.7,1.6,1.6v3.1c0,0.9-0.7,1.6-1.6,1.6h-40.6c-0.9,0-1.6-0.7-1.6-1.6v-3.2
	C129.3,100.6,130,99.9,130.9,99.9"/>
<path fill="#F8F4F0" d="M232.5,103c0,13.8-11.2,25-25,25s-24.9-11.2-24.9-25s11.2-25,25-25C221.3,78,232.5,89.2,232.5,103"/>
<path fill="#F8F4F0" d="M185.7,93.6h43.8c3.5,0,6.2,2.8,6.2,6.2v6.2c0,3.5-2.8,6.2-6.2,6.2h-43.8c-3.5,0-6.2-2.8-6.2-6.2v-6.1
	C179.4,96.4,182.1,93.6,185.7,93.6"/>
<path fill="#4C72AA" d="M207.6,84.2c-10.4,0-18.8,8.4-18.8,18.8s8.4,18.8,18.8,18.8c10.4,0,18.7-8.4,18.7-18.8
	S217.8,84.2,207.6,84.2 M207.6,92.1c6,0,10.9,4.9,10.9,10.9s-4.9,10.9-10.9,10.9c-6,0-10.9-4.9-10.9-10.9
	C196.5,97,201.4,92.1,207.6,92.1"/>
<path fill="#4C72AA" d="M187.2,99.9h40.6c0.9,0,1.6,0.7,1.6,1.6v3.1c0,0.9-0.7,1.6-1.6,1.6h-40.6c-0.9,0-1.6-0.7-1.6-1.6v-3.2
	C185.7,100.6,186.3,99.9,187.2,99.9"/>
<path fill="#F8F4F0" d="M119.8,103c0,13.8-11.2,25-25,25s-24.9-11.2-24.9-25s11.2-25,25-25S119.8,89.2,119.8,103"/>
<path fill="#F8F4F0" d="M73,93.6h43.8c3.5,0,6.2,2.8,6.2,6.2v6.2c0,3.5-2.8,6.2-6.2,6.2H73c-3.5,0-6.2-2.8-6.2-6.2v-6.1
	C66.7,96.4,69.4,93.6,73,93.6"/>
<path opacity="0.7" fill="#189FA8" enable-background="new    " d="M94.8,84.2c-10.4,0-18.8,8.4-18.8,18.8s8.4,18.8,18.8,18.8
	s18.7-8.4,18.7-18.8S105.1,84.2,94.8,84.2 M94.8,92.1c6,0,10.9,4.9,10.9,10.9s-4.9,10.9-10.9,10.9c-6,0-10.9-4.9-10.9-10.9
	C83.8,97,88.7,92.1,94.8,92.1"/>
<path fill="#4C72AA" d="M74.5,99.9h40.6c0.9,0,1.6,0.7,1.6,1.6v3.1c0,0.9-0.7,1.6-1.6,1.6H74.5c-0.9,0-1.6-0.7-1.6-1.6v-3.2
	C73,100.6,73.6,99.9,74.5,99.9"/>
</svg>
