<?xml version="1.0" encoding="utf-8"?>
<!-- Generator: Adobe Illustrator 18.0.0, SVG Export Plug-In . SVG Version: 6.00 Build 0)  -->
<!DOCTYPE svg PUBLIC "-//W3C//DTD SVG 1.1//EN" "http://www.w3.org/Graphics/SVG/1.1/DTD/svg11.dtd">
<svg version="1.1" id="Layer_1" xmlns="http://www.w3.org/2000/svg" xmlns:xlink="http://www.w3.org/1999/xlink" x="0px" y="0px"
	 viewBox="0 0 300 240" enable-background="new 0 0 300 240" xml:space="preserve">
<path fill="#F8F4F0" d="M157.3,103c0,13.8-11.2,25-25,25s-24.9-11.2-24.9-25s11.2-25,25-25C146.2,78,157.3,89.2,157.3,103"/>
<path fill="#F8F4F0" d="M110.5,93.6h43.8c3.5,0,6.2,2.8,6.2,6.2v6.2c0,3.5-2.8,6.2-6.2,6.2h-43.8c-3.5,0-6.2-2.8-6.2-6.2v-6.1
	C104.3,96.4,107,93.6,110.5,93.6"/>
<path fill="#4C72AA" d="M132.4,84.2c-10.4,0-18.8,8.4-18.8,18.8s8.4,18.8,18.8,18.8s18.7-8.4,18.7-18.8S142.6,84.2,132.4,84.2
	 M132.4,92.1c6,0,10.9,4.9,10.9,10.9s-4.9,10.9-10.9,10.9c-6,0-10.9-4.9-10.9-10.9C121.3,97,126.3,92.1,132.4,92.1"/>
<path fill="#4C72AA" d="M112.1,99.9h40.6c0.9,0,1.6,0.7,1.6,1.6v3.1c0,0.9-0.7,1.6-1.6,1.6h-40.6c-0.9,0-1.6-0.7-1.6-1.6v-3.2
	C110.5,100.6,111.2,99.9,112.1,99.9"/>
<path fill="#F8F4F0" d="M101,103c0,13.8-11.2,25-25,25S51,116.8,51,103s11.2-25,25-25S101,89.2,101,103"/>
<path fill="#F8F4F0" d="M54.1,93.6h43.8c3.5,0,6.2,2.8,6.2,6.2v6.2c0,3.5-2.8,6.2-6.2,6.2H54.1c-3.5,0-6.2-2.8-6.2-6.2v-6.1
	C47.9,96.4,50.6,93.6,54.1,93.6"/>
<path opacity="0.7" fill="#189FA8" enable-background="new    " d="M76,84.2c-10.4,0-18.8,8.4-18.8,18.8s8.4,18.8,18.8,18.8
	s18.7-8.4,18.7-18.8S86.3,84.2,76,84.2 M76,92.1c6,0,10.9,4.9,10.9,10.9S82,113.9,76,113.9c-6,0-10.9-4.9-10.9-10.9
	C65,97,69.9,92.1,76,92.1"/>
<path fill="#4C72AA" d="M55.7,99.9h40.6c0.9,0,1.6,0.7,1.6,1.6v3.1c0,0.9-0.7,1.6-1.6,1.6H55.7c-0.9,0-1.6-0.7-1.6-1.6v-3.2
	C54.1,100.6,54.8,99.9,55.7,99.9"/>
</svg>
