<?xml version="1.0" encoding="utf-8"?>
<!-- Generator: Adobe Illustrator 18.0.0, SVG Export Plug-In . SVG Version: 6.00 Build 0)  -->
<!DOCTYPE svg PUBLIC "-//W3C//DTD SVG 1.1//EN" "http://www.w3.org/Graphics/SVG/1.1/DTD/svg11.dtd">
<svg version="1.1" id="Layer_1" xmlns="http://www.w3.org/2000/svg" xmlns:xlink="http://www.w3.org/1999/xlink" x="0px" y="0px"
	 viewBox="0 0 300 240" enable-background="new 0 0 300 240" xml:space="preserve">
<path fill="#F8F4F0" d="M195,103c0,13.8-11.2,25-25,25S145,116.8,145,103s11.2-25,25-25C183.8,78,195,89.2,195,103"/>
<path fill="#F8F4F0" d="M148.1,93.6h43.8c3.5,0,6.2,2.8,6.2,6.2v6.2c0,3.5-2.8,6.2-6.2,6.2h-43.8c-3.5,0-6.2-2.8-6.2-6.2v-6.1
	C141.9,96.4,144.6,93.6,148.1,93.6"/>
<path opacity="0.7" fill="#FF9701" enable-background="new    " d="M170,84.2c-10.4,0-18.8,8.4-18.8,18.8s8.4,18.8,18.8,18.8
	s18.7-8.4,18.7-18.8S180.3,84.2,170,84.2 M170,92.1c6,0,10.9,4.9,10.9,10.9s-4.9,10.9-10.9,10.9c-6,0-10.9-4.9-10.9-10.9
	C159,97,163.9,92.1,170,92.1"/>
<path fill="#4C72AA" d="M149.7,99.9h40.6c0.9,0,1.6,0.7,1.6,1.6v3.1c0,0.9-0.7,1.6-1.6,1.6h-40.6c-0.9,0-1.6-0.7-1.6-1.6v-3.2
	C148.1,100.6,148.8,99.9,149.7,99.9"/>
<path fill="#F8F4F0" d="M251.3,103c0,13.8-11.2,25-25,25c-13.8,0-24.9-11.2-24.9-25s11.2-25,25-25C240.2,78,251.3,89.2,251.3,103"/>
<path fill="#F8F4F0" d="M204.5,93.6h43.8c3.5,0,6.2,2.8,6.2,6.2v6.2c0,3.5-2.8,6.2-6.2,6.2h-43.8c-3.5,0-6.2-2.8-6.2-6.2v-6.1
	C198.3,96.4,201,93.6,204.5,93.6"/>
<path fill="#4C72AA" d="M226.4,84.2c-10.4,0-18.8,8.4-18.8,18.8s8.4,18.8,18.8,18.8c10.4,0,18.7-8.4,18.7-18.8
	S236.6,84.2,226.4,84.2 M226.4,92.1c6,0,10.9,4.9,10.9,10.9s-4.9,10.9-10.9,10.9c-6,0-10.9-4.9-10.9-10.9
	C215.3,97,220.3,92.1,226.4,92.1"/>
<path fill="#4C72AA" d="M206.1,99.9h40.6c0.9,0,1.6,0.7,1.6,1.6v3.1c0,0.9-0.7,1.6-1.6,1.6h-40.6c-0.9,0-1.6-0.7-1.6-1.6v-3.2
	C204.5,100.6,205.2,99.9,206.1,99.9"/>
</svg>
