<?xml version="1.0" encoding="utf-8"?>
<!-- Generator: Adobe Illustrator 19.2.1, SVG Export Plug-In . SVG Version: 6.00 Build 0)  -->
<!DOCTYPE svg PUBLIC "-//W3C//DTD SVG 1.1//EN" "http://www.w3.org/Graphics/SVG/1.1/DTD/svg11.dtd">
<svg version="1.1" id="Layer_1" xmlns="http://www.w3.org/2000/svg" xmlns:xlink="http://www.w3.org/1999/xlink" x="0px" y="0px"
	 viewBox="0 0 84.28 25" enable-background="new 0 0 84.28 25" xml:space="preserve">
<path fill="#F8F4F0" d="M54.53,12.5c0,7-5.5,12.5-12.5,12.5s-12.5-5.5-12.5-12.5S35.03,0,42.03,0S54.53,5.5,54.53,12.5"/>
<path fill="#F8F4F0" d="M31.28,7.75h22c1.75,0,3,1.5,3,3v3c0,1.75-1.5,3-3,3h-22c-1.75,0-3-1.5-3-3V11
	C28.03,9.25,29.53,7.75,31.28,7.75"/>
<path opacity="0.7" fill="#F02A10" enable-background="new    " d="M42.03,3c-5.25,0-9.5,4.25-9.5,9.5s4.25,9.5,9.5,9.5
	s9.25-4.25,9.25-9.5C51.53,7.25,47.28,3,42.03,3 M42.03,7c3,0,5.5,2.5,5.5,5.5s-2.5,5.5-5.5,5.5s-5.5-2.5-5.5-5.5S39.03,7,42.03,7"
	/>
<path fill="#4C72AA" d="M32.03,11h20.25c0.5,0,0.75,0.25,0.75,0.75v1.5c0,0.5-0.25,0.75-0.75,0.75H32.03c-0.5,0-0.75-0.25-0.75-0.75
	v-1.5C31.28,11.25,31.53,11,32.03,11"/>
<path fill="#F8F4F0" d="M82.78,12.5c0,7-5.5,12.5-12.5,12.5s-12.5-5.5-12.5-12.5S63.28,0,70.28,0S82.78,5.5,82.78,12.5"/>
<path fill="#F8F4F0" d="M59.28,7.75h22c1.75,0,3,1.5,3,3v3c0,1.75-1.5,3-3,3h-22c-1.75,0-3-1.5-3-3V11
	C56.28,9.25,57.53,7.75,59.28,7.75"/>
<path fill="#4C72AA" d="M70.28,3c-5.25,0-9.5,4.25-9.5,9.5s4.25,9.5,9.5,9.5s9.25-4.25,9.25-9.5C79.78,7.25,75.53,3,70.28,3
	 M70.28,7c3,0,5.5,2.5,5.5,5.5s-2.5,5.5-5.5,5.5s-5.5-2.5-5.5-5.5S67.28,7,70.28,7"/>
<path fill="#4C72AA" d="M60.03,11h20.25c0.5,0,0.75,0.25,0.75,0.75v1.5c0,0.5-0.25,0.75-0.75,0.75H60.03c-0.5,0-0.75-0.25-0.75-0.75
	v-1.5C59.28,11.25,59.78,11,60.03,11"/>
<path fill="#F8F4F0" d="M26.53,12.5c0,7-5.5,12.5-12.5,12.5s-12.5-5.5-12.5-12.5S7.03,0,14.03,0S26.53,5.5,26.53,12.5"/>
<path fill="#F8F4F0" d="M3.03,7.75h22c1.75,0,3,1.5,3,3v3c0,1.75-1.5,3-3,3h-22c-1.75,0-3-1.5-3-3V11
	C-0.22,9.25,1.28,7.75,3.03,7.75"/>
<path opacity="0.7" fill="#189FA8" enable-background="new    " d="M14.03,3c-5.25,0-9.5,4.25-9.5,9.5s4.25,9.5,9.5,9.5
	s9.25-4.25,9.25-9.5S19.03,3,14.03,3 M14.03,7c3,0,5.5,2.5,5.5,5.5s-2.5,5.5-5.5,5.5s-5.5-2.5-5.5-5.5C8.53,9.5,10.78,7,14.03,7"/>
<path fill="#4C72AA" d="M3.78,11h20.25c0.5,0,0.75,0.25,0.75,0.75v1.5c0,0.5-0.25,0.75-0.75,0.75H3.78c-0.5,0-0.75-0.25-0.75-0.75
	v-1.5C3.03,11.25,3.28,11,3.78,11"/>
</svg>
