<?xml version="1.0" encoding="utf-8"?>
<!-- Generator: Adobe Illustrator 19.2.1, SVG Export Plug-In . SVG Version: 6.00 Build 0)  -->
<!DOCTYPE svg PUBLIC "-//W3C//DTD SVG 1.1//EN" "http://www.w3.org/Graphics/SVG/1.1/DTD/svg11.dtd">
<svg version="1.1" id="Layer_1" xmlns="http://www.w3.org/2000/svg" xmlns:xlink="http://www.w3.org/1999/xlink" x="0px" y="0px"
	 viewBox="0 0 56.25 25" enable-background="new 0 0 56.25 25" xml:space="preserve">
<path fill="#F8F4F0" d="M54.75,12.5c0,7-5.5,12.5-12.5,12.5s-12.5-5.5-12.5-12.5S35.25,0,42.25,0S54.75,5.5,54.75,12.5"/>
<path fill="#F8F4F0" d="M31.25,7.75h22c1.75,0,3,1.5,3,3v3c0,1.75-1.5,3-3,3h-22c-1.75,0-3-1.5-3-3V11
	C28.25,9.25,29.5,7.75,31.25,7.75"/>
<path fill="#4C72AA" d="M42.25,3c-5.25,0-9.5,4.25-9.5,9.5S37,22,42.25,22s9.25-4.25,9.25-9.5S47.25,3,42.25,3 M42.25,7
	c3,0,5.5,2.5,5.5,5.5s-2.5,5.5-5.5,5.5s-5.5-2.5-5.5-5.5S39.25,7,42.25,7"/>
<path fill="#4C72AA" d="M32,11h20.25c0.5,0,0.75,0.25,0.75,0.75v1.5c0,0.5-0.25,0.75-0.75,0.75H32c-0.5,0-0.75-0.25-0.75-0.75v-1.5
	C31.25,11.25,31.5,11,32,11"/>
<path fill="#F8F4F0" d="M26.5,12.5C26.5,19.5,21,25,14,25S1.5,19.5,1.5,12.5S7,0,14,0S26.5,5.5,26.5,12.5"/>
<path fill="#F8F4F0" d="M3,7.75h22c1.75,0,3,1.5,3,3v3c0,1.75-1.5,3-3,3H3c-1.75,0-3-1.5-3-3V11C0,9.25,1.25,7.75,3,7.75"/>
<path opacity="0.7" fill="#189FA8" enable-background="new    " d="M14,3c-5.25,0-9.5,4.25-9.5,9.5S8.75,22,14,22
	s9.25-4.25,9.25-9.5S19.25,3,14,3 M14,7c3,0,5.5,2.5,5.5,5.5S17,18,14,18s-5.5-2.5-5.5-5.5S11,7,14,7"/>
<path fill="#4C72AA" d="M3.75,11H24c0.5,0,0.75,0.25,0.75,0.75v1.5c0,0.5-0.25,0.75-0.75,0.75H3.75C3.25,14,3,13.75,3,13.25v-1.5
	C3,11.25,3.5,11,3.75,11"/>
</svg>
