<?xml version="1.0" encoding="utf-8"?>
<!-- Generator: Adobe Illustrator 18.0.0, SVG Export Plug-In . SVG Version: 6.00 Build 0)  -->
<!DOCTYPE svg PUBLIC "-//W3C//DTD SVG 1.1//EN" "http://www.w3.org/Graphics/SVG/1.1/DTD/svg11.dtd">
<svg version="1.1" id="Layer_1" xmlns="http://www.w3.org/2000/svg" xmlns:xlink="http://www.w3.org/1999/xlink" x="0px" y="0px"
	 viewBox="0 0 300 240" enable-background="new 0 0 300 240" xml:space="preserve">
<path fill="#F8F4F0" d="M192.8,103c0,23-18.7,41.7-41.7,41.7S109.5,126,109.5,103s18.7-41.7,41.7-41.7S192.8,80,192.8,103"/>
<path fill="#F8F4F0" d="M114.7,87.3h73c5.8,0,10.3,4.7,10.3,10.3V108c0,5.8-4.7,10.3-10.3,10.3h-73c-5.8,0-10.3-4.7-10.3-10.3V97.8
	C104.3,92,108.8,87.3,114.7,87.3"/>
<path opacity="0.7" fill="#F02A10" enable-background="new    " d="M151.2,71.7c-17.3,0-31.3,14-31.3,31.3s14,31.3,31.3,31.3
	s31.2-14,31.2-31.3S168.3,71.7,151.2,71.7 M151.2,84.8c10,0,18.2,8.2,18.2,18.2s-8.2,18.2-18.2,18.2S133,113,133,103
	C132.8,93,141,84.8,151.2,84.8"/>
<path fill="#4C72AA" d="M117.3,97.8H185c1.5,0,2.7,1.2,2.7,2.7v5.2c0,1.5-1.2,2.7-2.7,2.7h-67.7c-1.5,0-2.7-1.2-2.7-2.7v-5.3
	C114.7,99,115.8,97.8,117.3,97.8"/>
<path fill="#F8F4F0" d="M286.8,103c0,23-18.7,41.7-41.7,41.7S203.5,126,203.5,103s18.7-41.7,41.7-41.7S286.8,80,286.8,103"/>
<path fill="#F8F4F0" d="M208.7,87.3h73c5.8,0,10.3,4.7,10.3,10.3V108c0,5.8-4.7,10.3-10.3,10.3h-73c-5.8,0-10.3-4.7-10.3-10.3V97.8
	C198.3,92,202.8,87.3,208.7,87.3"/>
<path fill="#4C72AA" d="M245.2,71.7c-17.3,0-31.3,14-31.3,31.3s14,31.3,31.3,31.3s31.2-14,31.2-31.3S262.3,71.7,245.2,71.7
	 M245.2,84.8c10,0,18.2,8.2,18.2,18.2s-8.2,18.2-18.2,18.2S227,113,227,103C226.8,93,235,84.8,245.2,84.8"/>
<path fill="#4C72AA" d="M211.3,97.8H279c1.5,0,2.7,1.2,2.7,2.7v5.2c0,1.5-1.2,2.7-2.7,2.7h-67.7c-1.5,0-2.7-1.2-2.7-2.7v-5.3
	C208.7,99,209.8,97.8,211.3,97.8"/>
<path fill="#F8F4F0" d="M98.8,103c0,23-18.7,41.7-41.7,41.7S15.5,126,15.5,103s18.7-41.7,41.7-41.7S98.8,80,98.8,103"/>
<path fill="#F8F4F0" d="M20.7,87.3h73c5.8,0,10.3,4.7,10.3,10.3V108c0,5.8-4.7,10.3-10.3,10.3h-73c-5.8,0-10.3-4.7-10.3-10.3V97.8
	C10.3,92,14.8,87.3,20.7,87.3"/>
<path opacity="0.7" fill="#189FA8" enable-background="new    " d="M57.2,71.7c-17.3,0-31.3,14-31.3,31.3s14,31.3,31.3,31.3
	s31.2-14,31.2-31.3S74.3,71.7,57.2,71.7 M57.2,84.8c10,0,18.2,8.2,18.2,18.2s-8.2,18.2-18.2,18.2S39,113,39,103
	C38.8,93,47,84.8,57.2,84.8"/>
<path fill="#4C72AA" d="M23.3,97.8H91c1.5,0,2.7,1.2,2.7,2.7v5.2c0,1.5-1.2,2.7-2.7,2.7H23.3c-1.5,0-2.7-1.2-2.7-2.7v-5.3
	C20.7,99,21.8,97.8,23.3,97.8"/>
</svg>
