<?xml version="1.0" encoding="utf-8"?>
<!-- Generator: Adobe Illustrator 19.2.1, SVG Export Plug-In . SVG Version: 6.00 Build 0)  -->
<!DOCTYPE svg PUBLIC "-//W3C//DTD SVG 1.1//EN" "http://www.w3.org/Graphics/SVG/1.1/DTD/svg11.dtd">
<svg version="1.1" id="Layer_1" xmlns="http://www.w3.org/2000/svg" xmlns:xlink="http://www.w3.org/1999/xlink" x="0px" y="0px"
	 viewBox="0 0 56.2 25" enable-background="new 0 0 56.2 25" xml:space="preserve">
<path fill="#F8F4F0" d="M26.5,12.5C26.5,19.4,20.9,25,14,25S1.6,19.4,1.6,12.5S7.2,0,14.1,0S26.5,5.6,26.5,12.5"/>
<path fill="#F8F4F0" d="M3.1,7.8H25c1.8,0,3.1,1.4,3.1,3.1V14c0,1.8-1.4,3.1-3.1,3.1H3.1C1.3,17.1,0,15.7,0,14v-3
	C0,9.2,1.3,7.8,3.1,7.8"/>
<path opacity="0.7" fill="#F02A10" enable-background="new    " d="M14.1,3.1c-5.2,0-9.4,4.2-9.4,9.4s4.2,9.4,9.4,9.4
	s9.3-4.2,9.3-9.4S19.2,3.1,14.1,3.1 M14.1,7c3,0,5.4,2.5,5.4,5.5S17.1,18,14.1,18s-5.5-2.5-5.5-5.5S11,7,14.1,7"/>
<path fill="#4C72AA" d="M3.9,11h20.3c0.4,0,0.8,0.3,0.8,0.8v1.5c0,0.5-0.4,0.8-0.8,0.8H3.9c-0.5,0-0.8-0.4-0.8-0.8v-1.6
	C3.1,11.3,3.4,11,3.9,11"/>
<path fill="#F8F4F0" d="M54.6,12.5C54.6,19.4,49,25,42.1,25s-12.5-5.6-12.5-12.5S35.2,0,42.1,0S54.6,5.6,54.6,12.5"/>
<path fill="#F8F4F0" d="M31.2,7.8h21.9c1.8,0,3.1,1.4,3.1,3.1V14c0,1.8-1.4,3.1-3.1,3.1H31.2c-1.8,0-3.1-1.4-3.1-3.1v-3
	C28.1,9.2,29.5,7.8,31.2,7.8"/>
<path opacity="0.7" fill="#189FA8" enable-background="new    " d="M42.1,3.1c-5.1,0-9.3,4.2-9.3,9.4s4.2,9.4,9.4,9.4
	s9.4-4.2,9.4-9.4S47.3,3.1,42.1,3.1 M42.1,7c3,0,5.5,2.5,5.5,5.5S45.1,18,42.1,18s-5.4-2.5-5.4-5.5S39.1,7,42.1,7"/>
<path fill="#4C72AA" d="M32,11h20.3c0.5,0,0.8,0.3,0.8,0.8v1.5c0,0.5-0.3,0.8-0.8,0.8H32c-0.4,0-0.8-0.4-0.8-0.8v-1.6
	C31.2,11.3,31.6,11,32,11"/>
</svg>
