<?xml version="1.0" encoding="utf-8"?>
<!-- Generator: Adobe Illustrator 18.0.0, SVG Export Plug-In . SVG Version: 6.00 Build 0)  -->
<!DOCTYPE svg PUBLIC "-//W3C//DTD SVG 1.1//EN" "http://www.w3.org/Graphics/SVG/1.1/DTD/svg11.dtd">
<svg version="1.1" id="Layer_1" xmlns="http://www.w3.org/2000/svg" xmlns:xlink="http://www.w3.org/1999/xlink" x="0px" y="0px"
	 viewBox="-42 -17 120 50" enable-background="new -42 -17 120 50" xml:space="preserve">
<path fill="#F8F4F0" d="M14.9,8c0,13.8-11.2,25-25,25c-13.8,0-25-11.2-25-25c0-13.8,11.2-25,25-25C3.7-17,14.9-5.8,14.9,8"/>
<path fill="#F8F4F0" d="M-32-1.4h43.8c3.5,0,6.2,2.8,6.2,6.2v6.2c0,3.5-2.8,6.2-6.2,6.2H-32c-3.5,0-6.2-2.8-6.2-6.2V4.9
	C-38.2,1.4-35.5-1.4-32-1.4"/>
<path opacity="0.7" fill="#F02A10" enable-background="new    " d="M-10.1-10.8c-10.4,0-18.8,8.4-18.8,18.8s8.4,18.8,18.8,18.8
	S8.6,18.4,8.6,8S0.2-10.8-10.1-10.8 M-10.1-2.9C-4.1-2.9,0.8,2,0.8,8c0,6-4.9,10.9-10.9,10.9c-6,0-10.9-4.9-10.9-10.9
	C-21.1,2-16.2-2.9-10.1-2.9"/>
<path fill="#4C72AA" d="M-30.4,4.9h40.6c0.9,0,1.6,0.7,1.6,1.6v3.1c0,0.9-0.7,1.6-1.6,1.6h-40.6c-0.9,0-1.6-0.7-1.6-1.6V6.4
	C-32,5.6-31.3,4.9-30.4,4.9"/>
<path fill="#F8F4F0" d="M71.1,8c0,13.8-11.2,25-25,25c-13.8,0-25-11.2-25-25c0-13.8,11.2-25,25-25C59.9-17,71.1-5.8,71.1,8"/>
<path fill="#F8F4F0" d="M24.2-1.4H68c3.5,0,6.2,2.8,6.2,6.2v6.2c0,3.5-2.8,6.2-6.2,6.2H24.2c-3.5,0-6.2-2.8-6.2-6.2V4.9
	C18,1.4,20.8-1.4,24.2-1.4"/>
<path opacity="0.7" fill="#189FA8" enable-background="new    " d="M46.1-10.8C35.8-10.8,27.4-2.4,27.4,8s8.4,18.8,18.8,18.8
	S64.9,18.4,64.9,8S56.5-10.8,46.1-10.8 M46.1-2.9c6,0,10.9,4.9,10.9,10.9c0,6-4.9,10.9-10.9,10.9c-6,0-10.9-4.9-10.9-10.9
	C35.2,2,40.1-2.9,46.1-2.9"/>
<path fill="#4C72AA" d="M25.8,4.9h40.6c0.9,0,1.6,0.7,1.6,1.6v3.1c0,0.9-0.7,1.6-1.6,1.6H25.8c-0.9,0-1.6-0.7-1.6-1.6V6.4
	C24.2,5.6,25,4.9,25.8,4.9"/>
</svg>
