<?xml version="1.0" encoding="utf-8"?>
<!-- Generator: Adobe Illustrator 19.2.1, SVG Export Plug-In . SVG Version: 6.00 Build 0)  -->
<!DOCTYPE svg PUBLIC "-//W3C//DTD SVG 1.1//EN" "http://www.w3.org/Graphics/SVG/1.1/DTD/svg11.dtd">
<svg version="1.1" id="Layer_1" xmlns="http://www.w3.org/2000/svg" xmlns:xlink="http://www.w3.org/1999/xlink" x="0px" y="0px"
	 viewBox="0 0 28.1 25" enable-background="new 0 0 28.1 25" xml:space="preserve">
<path fill="#F8F6F0" d="M26.55,12.5c0,6.9-5.6,12.5-12.5,12.5s-12.5-5.6-12.5-12.5S7.15,0,14.05,0S26.55,5.6,26.55,12.5"/>
<path fill="#F8F6F0" d="M3.1,7.8H25c1.75,0,3.1,1.4,3.1,3.1V14c0,1.75-1.4,3.1-3.1,3.1H3.1C1.35,17.1,0,15.7,0,14v-3.05
	C0,9.2,1.4,7.8,3.1,7.8"/>
<path opacity="0.7" fill="#189FA8" enable-background="new    " d="M14.05,3.1c-5.2,0-9.4,4.2-9.4,9.4s4.2,9.4,9.4,9.4
	s9.4-4.2,9.4-9.4S19.25,3.1,14.05,3.1 M14.05,7.05c3,0,5.45,2.45,5.45,5.45s-2.45,5.45-5.45,5.45S8.6,15.5,8.6,12.5
	S11.05,7.05,14.05,7.05"/>
<path fill="#4C72AA" d="M3.9,10.95h20.3c0.45,0,0.8,0.35,0.8,0.8v1.55c0,0.45-0.35,0.8-0.8,0.8H3.9c-0.45,0-0.8-0.35-0.8-0.8v-1.6
	C3.1,11.3,3.45,10.95,3.9,10.95"/>
</svg>
