<?xml version="1.0" encoding="utf-8"?>
<!-- Generator: Adobe Illustrator 19.2.1, SVG Export Plug-In . SVG Version: 6.00 Build 0)  -->
<!DOCTYPE svg PUBLIC "-//W3C//DTD SVG 1.1//EN" "http://www.w3.org/Graphics/SVG/1.1/DTD/svg11.dtd">
<svg version="1.1" id="svg2" xmlns:svg="http://www.w3.org/2000/svg"
	 xmlns="http://www.w3.org/2000/svg" xmlns:xlink="http://www.w3.org/1999/xlink" x="0px" y="0px" viewBox="0 0 40.45 25"
	 enable-background="new 0 0 40.45 25" xml:space="preserve">
<path fill="#F8F4F0" d="M20.14,25c-1,0-2-0.28-2.77-0.72l-13.93-8.6c-1.11-0.72-1.83-1.89-1.83-3.16s0.72-2.44,1.83-3.16l13.98-8.6
	c0.72-0.39,1.72-0.72,2.72-0.72s2,0.28,2.77,0.72l13.93,8.6c1.17,0.72,1.83,1.83,1.83,3.16s-0.72,2.44-1.83,3.16l-13.98,8.6
	C22.14,24.72,21.14,25,20.14,25z"/>
<g id="rect3223" opacity="0.6" enable-background="new    ">
	<g>
		<path fill="#F02A10" d="M21.81,24.56c-0.89,0.55-2.16,0.55-3.16,0L0.67,13.4c-0.89-0.55-0.89-1.5,0-1.89l17.98-11.1
			c0.89-0.55,2.16-0.55,3.16,0l17.98,11.1c0.89,0.55,0.89,1.5,0,1.89L21.81,24.56z M9.71,11.63c-0.89,0.55-0.89,1.5,0,1.89
			l8.88,5.33c0.89,0.55,2.16,0.55,3.16,0l8.88-5.33c0.89-0.55,0.89-1.5,0-1.89L21.75,6.3c-0.89-0.55-2.16-0.55-3.16,0L9.71,11.63z"
			/>
	</g>
</g>
<g id="rect3225" opacity="0.7">
	<g>
		<g>
			<path fill="#4C72AA" d="M14.87,11.07c0-1.11,0.89-1.89,1.89-1.89h6.49c0.89,0,1.89,0.72,1.89,1.89v2.66
				c0,1.11-0.89,1.89-1.89,1.89h-6.49c-0.89,0-1.89-0.72-1.89-1.89C14.87,13.73,14.87,11.07,14.87,11.07z"/>
		</g>
	</g>
</g>
</svg>
