<?xml version="1.0" encoding="utf-8"?>
<!-- Generator: Adobe Illustrator 18.0.0, SVG Export Plug-In . SVG Version: 6.00 Build 0)  -->
<!DOCTYPE svg PUBLIC "-//W3C//DTD SVG 1.1//EN" "http://www.w3.org/Graphics/SVG/1.1/DTD/svg11.dtd">
<svg version="1.1" id="svg2" xmlns:svg="http://www.w3.org/2000/svg"
	 xmlns="http://www.w3.org/2000/svg" xmlns:xlink="http://www.w3.org/1999/xlink" x="0px" y="0px" width="74.2px" height="50px"
	 viewBox="0 0 74.2 50" enable-background="new 0 0 74.2 50" xml:space="preserve">
<path fill="#F8F4F0" d="M37.1,47.5c-1.8,0-3.6-0.5-5-1.3L7,30.7C5,29.4,3.7,27.3,3.7,25S5,20.6,7,19.3L32.2,3.8
	c1.3-0.7,3.1-1.3,4.9-1.3s3.6,0.5,5,1.3l25.1,15.5c2.1,1.3,3.3,3.3,3.3,5.7s-1.3,4.4-3.3,5.7L42,46.2C40.7,47,38.9,47.5,37.1,47.5z"
	/>
<g id="rect3223" opacity="0.6" enable-background="new    ">
	<g>
		<path fill="#F02A10" d="M40.1,46.7c-1.6,1-3.9,1-5.7,0L2,26.6c-1.6-1-1.6-2.7,0-3.4l32.4-20c1.6-1,3.9-1,5.7,0l32.4,20
			c1.6,1,1.6,2.7,0,3.4L40.1,46.7z M18.3,23.4c-1.6,1-1.6,2.7,0,3.4l16,9.6c1.6,1,3.9,1,5.7,0l16-9.6c1.6-1,1.6-2.7,0-3.4l-16-9.6
			c-1.6-1-3.9-1-5.7,0L18.3,23.4z"/>
	</g>
</g>
<g id="rect3225" opacity="0.7">
	<g>
		<g>
			<path fill="#4C72AA" d="M27.6,22.4c0-2,1.6-3.4,3.4-3.4h11.7c1.6,0,3.4,1.3,3.4,3.4v4.8c0,2-1.6,3.4-3.4,3.4H31
				c-1.6,0-3.4-1.3-3.4-3.4V22.4z"/>
		</g>
	</g>
</g>
</svg>
