<?xml version="1.0" encoding="utf-8"?>
<!-- Generator: Adobe Illustrator 18.0.0, SVG Export Plug-In . SVG Version: 6.00 Build 0)  -->
<!DOCTYPE svg PUBLIC "-//W3C//DTD SVG 1.1//EN" "http://www.w3.org/Graphics/SVG/1.1/DTD/svg11.dtd">
<svg version="1.1" id="Layer_1" xmlns="http://www.w3.org/2000/svg" xmlns:xlink="http://www.w3.org/1999/xlink" x="0px" y="0px"
	 viewBox="0 0 50 50" enable-background="new 0 0 50 50" xml:space="preserve">
<path opacity="0.8" fill="#99918C" enable-background="new    " d="M9-0.7c5.4,0,9.7,4.3,9.7,9.7s-4.4,9.7-9.7,9.7S-0.7,14.4-0.7,9
	S3.7-0.7,9-0.7"/>
<path fill="#FFFFFF" d="M12.4,11.1c-1.9,1.9-5,1.9-6.9,0c-1.9-1.9-1.9-5,0-7c1.9-1.9,5-1.9,6.9,0C14.4,6.1,14.4,9.2,12.4,11.1"/>
<rect x="6.5" y="8.7" transform="matrix(-0.7071 0.7071 -0.7071 -0.7071 23.1923 12.6053)" fill="#FFFFFF" width="4.9" height="4.9"/>
<circle opacity="0.9" fill="#8F8483" enable-background="new    " cx="9" cy="7.6" r="2.1"/>
</svg>
