<?xml version="1.0" encoding="utf-8"?>
<!-- Generator: Adobe Illustrator 19.2.1, SVG Export Plug-In . SVG Version: 6.00 Build 0)  -->
<!DOCTYPE svg PUBLIC "-//W3C//DTD SVG 1.1//EN" "http://www.w3.org/Graphics/SVG/1.1/DTD/svg11.dtd">
<svg version="1.1"
	 id="Layer_1" xmlns:cc="http://creativecommons.org/ns#" xmlns:dc="http://purl.org/dc/elements/1.1/" xmlns:rdf="http://www.w3.org/1999/02/22-rdf-syntax-ns#"
	 xmlns="http://www.w3.org/2000/svg" xmlns:xlink="http://www.w3.org/1999/xlink" x="0px" y="0px" viewBox="0 0 25 25"
	 enable-background="new 0 0 25 25" xml:space="preserve">
<path fill="#F8F6F0" d="M22.2,25H2.8C1.25,25,0,23.75,0,22.2V2.8C0,1.25,1.25,0,2.8,0h15.3C22.2,0,25,4.15,25,6.95v15.3
	C25,23.75,23.75,25,22.2,25z"/>
<g id="XMLID_1_" opacity="0.7" enable-background="new    ">
	<g>
		<path fill="#FF9701" d="M16,10.55V21.5h-1.95V10.45c0-0.5-0.1-1-0.3-1.4H15l0,0C15.85,9,16,9.8,16,10.55z"/>
		<path fill="#FF9701" d="M11.45,10.45V21.5H9V10.45c0-0.5-0.1-1-0.3-1.4h0.75C10.35,9,11.45,9.65,11.45,10.45z"/>
		<path fill="#FF9701" d="M6.45,10.45V21.5H3.5V9h1.4C5.8,9,6.45,9.65,6.45,10.45z"/>
	</g>
</g>
<path opacity="0.7" fill="#FF9701" enable-background="new    " d="M21.5,21.5h-2.95V10.05c0-1.95-1.55-3.6-3.6-3.6H3.5V3.5h11.45
	c3.6,0,6.55,2.95,6.55,6.55V21.5z"/>
</svg>
