<?xml version="1.0" encoding="utf-8"?>
<!-- Generator: Adobe Illustrator 19.2.1, SVG Export Plug-In . SVG Version: 6.00 Build 0)  -->
<!DOCTYPE svg PUBLIC "-//W3C//DTD SVG 1.1//EN" "http://www.w3.org/Graphics/SVG/1.1/DTD/svg11.dtd">
<svg version="1.1" id="svg15460" xmlns:svg="http://www.w3.org/2000/svg"
	 xmlns="http://www.w3.org/2000/svg" xmlns:xlink="http://www.w3.org/1999/xlink" x="0px" y="0px" viewBox="0 0 25 25"
	 enable-background="new 0 0 25 25" xml:space="preserve">
<rect fill="#F8F6F0" width="25" height="25"/>
<g opacity="0.7" enable-background="new    ">
	<path fill="#F02A10" d="M21.9,20.3c0,0.95-0.6,1.55-1.55,1.55H4.7c-0.8,0-1.55-0.6-1.55-1.55V4.7c0-0.8,0.8-1.55,1.55-1.55h15.6
		c0.95,0,1.55,0.8,1.55,1.55v15.6H21.9z"/>
</g>
<path fill="#FAFAFA" d="M7.8,8.45C7.95,8,8.4,7.5,9.05,7.5h0.8c0.45,0,1.1,0.45,1.25,0.95l1.1,4.4c0.15,0.45,0.3,0.45,0.45,0
	l1.1-4.4c0.3-0.45,0.8-0.95,1.4-0.95h0.8c0.45,0,1.1,0.45,1.25,0.95l1.55,7.5c0.15,0.45-0.3,0.95-0.8,0.95s-1.1-0.45-1.1-0.95
	l-1.1-5.15c-0.15-0.45-0.3-0.45-0.45,0l-1.55,5.15c-0.15,0.45-0.8,0.95-1.25,0.95s-1.1-0.45-1.25-0.95L9.7,10.8
	c-0.15-0.65-0.3-0.45-0.45,0l-1.1,5.15C8,16.4,7.55,16.9,7.05,16.9c-0.45,0-0.95-0.45-0.8-0.95L7.8,8.45z"/>
</svg>
