<?xml version="1.0" encoding="utf-8"?>
<!-- Generator: Adobe Illustrator 19.2.1, SVG Export Plug-In . SVG Version: 6.00 Build 0)  -->
<!DOCTYPE svg PUBLIC "-//W3C//DTD SVG 1.1//EN" "http://www.w3.org/Graphics/SVG/1.1/DTD/svg11.dtd">
<svg version="1.1" id="Layer_1" xmlns="http://www.w3.org/2000/svg" xmlns:xlink="http://www.w3.org/1999/xlink" x="0px" y="0px"
	 viewBox="0 0 20 20" enable-background="new 0 0 20 20" xml:space="preserve">
<path opacity="0.8" fill="#99918C" enable-background="new    " d="M10,0c5.5,0,10,4.5,10,10s-4.5,10-10,10S0,15.5,0,10S4.5,0,10,0"
	/>
<g>
	<g>
		<path fill="#FFFFFF" d="M15.2,14c0.3,0.5,0,0.8-0.5,0.8H5.3c-0.5,0-0.7-0.4-0.5-0.8l0.9-1.5C6,12,6.6,11.7,7.1,11.7h5.6
			c0.5,0,1.1,0.4,1.4,0.8L15.2,14z"/>
	</g>
	<g>
		<path fill="#FFFFFF" d="M11.7,12.6c0,0.5-0.3,0.9-0.8,0.9H9.1c-0.5,0-0.9-0.4-0.8-0.9l1-8.1C9.3,4,9.7,3.6,10,3.6
			c0.4,0,0.7,0.4,0.7,0.9L11.7,12.6z"/>
	</g>
</g>
</svg>
