<?xml version="1.0" encoding="utf-8"?>
<!-- Generator: Adobe Illustrator 18.0.0, SVG Export Plug-In . SVG Version: 6.00 Build 0)  -->
<!DOCTYPE svg PUBLIC "-//W3C//DTD SVG 1.1//EN" "http://www.w3.org/Graphics/SVG/1.1/DTD/svg11.dtd">
<svg version="1.1" id="Layer_1" xmlns="http://www.w3.org/2000/svg" xmlns:xlink="http://www.w3.org/1999/xlink" x="0px" y="0px"
	 width="50px" height="50px" viewBox="125 95 50 50" enable-background="new 125 95 50 50" xml:space="preserve">
<path opacity="0.8" fill="#99918C" enable-background="new    " d="M135,95c5.5,0,10,4.5,10,10c0,5.5-4.5,10-10,10s-10-4.5-10-10
	S129.5,95,135,95"/>
<g>
	<g>
		<path fill="#FFFFFF" d="M140.2,109c0.3,0.5,0,0.8-0.5,0.8h-9.4c-0.5,0-0.7-0.4-0.5-0.8l0.9-1.5c0.3-0.5,0.9-0.8,1.4-0.8h5.6
			c0.5,0,1.1,0.4,1.4,0.8L140.2,109z"/>
	</g>
	<g>
		<path fill="#FFFFFF" d="M136.7,107.6c0,0.5-0.3,0.9-0.8,0.9h-1.8c-0.5,0-0.9-0.4-0.8-0.9l1-8.1c0-0.5,0.4-0.9,0.7-0.9
			c0.4,0,0.7,0.4,0.7,0.9L136.7,107.6z"/>
	</g>
</g>
</svg>
