<?xml version="1.0" encoding="utf-8"?>
<!-- Generator: Adobe Illustrator 18.0.0, SVG Export Plug-In . SVG Version: 6.00 Build 0)  -->
<!DOCTYPE svg PUBLIC "-//W3C//DTD SVG 1.0//EN" "http://www.w3.org/TR/2001/REC-SVG-20010904/DTD/svg10.dtd">
<svg version="1.0" id="Layer_1" xmlns="http://www.w3.org/2000/svg" xmlns:xlink="http://www.w3.org/1999/xlink" x="0px" y="0px"
	 width="18px" height="18px" viewBox="0 0 18 18" enable-background="new 0 0 18 18" xml:space="preserve">
<path fill="#F8F4F0" d="M9,0c4.9706964,0,9,4.0295534,9,9c0,4.9704533-4.0293036,9-9,9c-4.9707031,0-9-4.0295467-9-9
	C0,4.0295534,4.0292969,0,9,0"/>
<path opacity="0.9" fill="#8F8483" d="M9,2c3.8660975,0,7,3.1340971,7,7c0,3.8659077-3.1339025,7-7,7c-3.8661027,0-7-3.1340923-7-7
	C2,5.1340971,5.1338973,2,9,2"/>
<g>
	<path fill="#FFFFFF" d="M13.1173267,12.3568802C13.3295565,12.7105961,13.165699,13,12.7531986,13H5.2531991
		c-0.4124999,0-0.5763578-0.2894039-0.3641281-0.6431198l0.7282562-1.2137604C5.8295565,10.7894039,6.3406992,10.5,6.7531991,10.5
		h4.4999995c0.4125004,0,0.9236431,0.2894039,1.1358719,0.6431198L13.1173267,12.3568802z"/>
</g>
<g>
	<path fill="#FFFFFF" d="M10.3425045,11.2497845c0.0475168,0.4097538-0.2511053,0.7450075-0.6636057,0.7450075H8.2563725
		c-0.4124994,0-0.708179-0.3348989-0.6570649-0.7442198L8.410264,4.7564268
		C8.4613781,4.347106,8.728199,4.012207,9.0031986,4.012207c0.2750006,0,0.5388784,0.3352532,0.5863953,0.7450075
		L10.3425045,11.2497845z"/>
</g>
</svg>
