<?xml version="1.0" encoding="utf-8"?>
<!-- Generator: Adobe Illustrator 18.0.0, SVG Export Plug-In . SVG Version: 6.00 Build 0)  -->
<!DOCTYPE svg PUBLIC "-//W3C//DTD SVG 1.1//EN" "http://www.w3.org/Graphics/SVG/1.1/DTD/svg11.dtd">
<svg version="1.1" id="Layer_1" xmlns="http://www.w3.org/2000/svg" xmlns:xlink="http://www.w3.org/1999/xlink" x="0px" y="0px"
	 viewBox="0 0 50 50" enable-background="new 0 0 50 50" xml:space="preserve">
<path opacity="0.8" fill="#99918C" enable-background="new    " d="M9-10.6c10.7,0,19.4,8.7,19.4,19.4S19.7,28.2,9,28.2
	s-19.4-8.7-19.4-19.4S-1.7-10.6,9-10.6"/>
<g>
	<g>
		<path fill="#FFFFFF" d="M19,16.6c0.5,0.9,0.1,1.6-0.9,1.6H-0.1c-1,0-1.4-0.7-0.9-1.6l1.8-2.9c0.5-0.9,1.8-1.6,2.7-1.6h10.9
			c1,0,2.2,0.7,2.7,1.6L19,16.6z"/>
	</g>
	<g>
		<path fill="#FFFFFF" d="M12.2,13.9c0.1,1-0.6,1.8-1.6,1.8H7.2c-1,0-1.7-0.8-1.6-1.8l2-15.7c0.1-1,0.8-1.8,1.4-1.8
			c0.7,0,1.3,0.8,1.4,1.8L12.2,13.9z"/>
	</g>
</g>
</svg>
