<?xml version="1.0" encoding="utf-8"?>
<!-- Generator: Adobe Illustrator 18.0.0, SVG Export Plug-In . SVG Version: 6.00 Build 0)  -->
<!DOCTYPE svg PUBLIC "-//W3C//DTD SVG 1.1//EN" "http://www.w3.org/Graphics/SVG/1.1/DTD/svg11.dtd">
<svg version="1.1" id="Layer_1" xmlns="http://www.w3.org/2000/svg" xmlns:xlink="http://www.w3.org/1999/xlink" x="0px" y="0px"
	 viewBox="-18.7 -16 58.3 50" enable-background="new -18.7 -16 58.3 50" xml:space="preserve">
<g>
	<path fill="#F8F6F0" d="M10.5-16C-6.1-16-18.7-0.9-18.7,15.7c0,9.2,4.5,15.6,4.5,15.6C-13,33-11,34-8.9,34h38.9
		c2.2,0,4.3-1.1,5.5-3c0,0,4.3-6.4,4.3-15.3C39.7-0.9,27.1-16,10.5-16"/>
	<path opacity="0.7" fill="#104E81" enable-background="new    " d="M10.5-9.3c-12.5,0-22.7,12-22.7,25c0,7.1,3.2,11.7,3.2,11.7
		h38.9c0,0,3.2-5,3.2-11.7C33.2,2.7,23-9.3,10.5-9.3"/>
	<path fill="#F8F6F0" d="M10.5-6C0-6-8.9,4.4-8.9,15.7c0,4.4,1.2,7,1.9,8.3h35c0.8-1.5,1.9-4.3,1.9-8.3C29.9,4.4,21-6,10.5-6"/>
	<polygon opacity="0.7" fill="#EB3C00" enable-background="new    " points="23.5,17.3 17,-2.7 10.5,9 4,-2.7 -2.5,17.3 -5.7,17.3 
		-5.7,20.7 7.3,20.7 7.3,17.3 2.4,17.3 5.6,9 10.5,19 15.4,9 18.6,17.3 13.7,17.3 13.7,20.7 26.7,20.7 26.7,17.3 	"/>
</g>
</svg>
