<?xml version="1.0" encoding="utf-8"?>
<!-- Generator: Adobe Illustrator 19.2.1, SVG Export Plug-In . SVG Version: 6.00 Build 0)  -->
<!DOCTYPE svg PUBLIC "-//W3C//DTD SVG 1.1//EN" "http://www.w3.org/Graphics/SVG/1.1/DTD/svg11.dtd">
<svg version="1.1" id="Layer_1" xmlns="http://www.w3.org/2000/svg" xmlns:xlink="http://www.w3.org/1999/xlink" x="0px" y="0px"
	 viewBox="0 0 29.23 25.01" enable-background="new 0 0 29.23 25.01" xml:space="preserve">
<g>
	<path fill="#F8F6F0" d="M14.61,0C6.31,0,0,7.52,0,15.83c0,4.61,2.23,7.82,2.23,7.82c0.58,0.83,1.6,1.36,2.67,1.36h19.42
		c1.12,0,2.14-0.53,2.77-1.5c0,0,2.14-3.2,2.14-7.62C29.17,7.52,22.86,0,14.61,0"/>
	<path opacity="0.7" fill="#104E81" enable-background="new    " d="M14.61,3.35c-6.26,0-11.36,5.97-11.36,12.48
		c0,3.54,1.6,5.83,1.6,5.83h19.42c0,0,1.6-2.48,1.6-5.83C25.92,9.32,20.83,3.35,14.61,3.35"/>
	<path fill="#F8F6F0" d="M14.61,5C9.37,5,4.9,10.19,4.9,15.83c0,2.18,0.58,3.5,0.97,4.13h17.48c0.39-0.73,0.97-2.14,0.97-4.13
		C24.27,10.19,19.85,5,14.61,5"/>
	<polygon opacity="0.7" fill="#EB3C00" enable-background="new    " points="21.07,16.6 17.82,6.65 14.61,12.48 11.36,6.65 
		8.11,16.6 6.5,16.6 6.5,18.3 13.01,18.3 13.01,16.6 10.53,16.6 12.14,12.48 14.61,17.48 17.04,12.48 18.64,16.6 16.17,16.6 
		16.17,18.3 22.67,18.3 22.67,16.6 	"/>
</g>
</svg>
