<?xml version="1.0" encoding="utf-8"?>
<!-- Generator: Adobe Illustrator 18.0.0, SVG Export Plug-In . SVG Version: 6.00 Build 0)  -->
<!DOCTYPE svg PUBLIC "-//W3C//DTD SVG 1.0//EN" "http://www.w3.org/TR/2001/REC-SVG-20010904/DTD/svg10.dtd">
<svg version="1.0" id="Layer_1" xmlns="http://www.w3.org/2000/svg" xmlns:xlink="http://www.w3.org/1999/xlink" x="0px" y="0px"
	 width="21px" height="18px" viewBox="0 0 21 18" enable-background="new 0 0 21 18" xml:space="preserve">
<g>
	<path fill="#F8F4F0" d="M10.4999771,0C4.5370865,0,0,5.4269881,0,11.3998785c0,3.2985888,1.6044965,5.6249876,1.6044965,5.6249876
		c0.4443455,0.6176987,1.1484437,0.9794979,1.8954959,0.9750938h13.9999695
		c0.792944,0.0034027,1.5336914-0.4054985,1.9692402-1.0873947c0,0,1.5307522-2.3185978,1.5307522-5.5126867
		C20.9999542,5.4269881,16.4628601,0,10.4999771,0"/>
	<path opacity="0.7" fill="#104E81" d="M10.4999771,2.3998981c-4.5102439,0-8.166482,4.3200402-8.166482,9.0036297
		c0,2.5395441,1.1664975,4.1965408,1.1664975,4.1965408h13.9999695c0,0,1.1664963-1.8100462,1.1664963-4.1965408
		C18.6664581,6.7199383,15.0102129,2.3998981,10.4999771,2.3998981"/>
	<path fill="#FFFFFF" d="M10.4999771,3.6000955c-3.7934456,0-6.9999847,3.7524416-6.9999847,7.7997828
		c0,1.5981464,0.4223454,2.508544,0.6928449,2.9999933h12.6142731c0.2802486-0.5512495,0.692852-1.5448999,0.692852-2.9999933
		C17.4999619,7.3525372,14.2934141,3.6000955,10.4999771,3.6000955"/>
	<polygon opacity="0.7" fill="#EB3C00" points="15.1664667,11.9999733 12.8329716,4.8000426 10.4999771,8.99998 
		8.1669817,4.8000426 5.833487,11.9999733 4.6664896,11.9999733 4.6664896,13.1999245 9.3334789,13.1999245 9.3334789,11.9999733 
		7.5829835,11.9999733 8.7494802,8.99998 10.4999771,12.5998259 12.250473,8.99998 13.4169703,11.9999733 11.6664743,11.9999733 
		11.6664743,13.1999245 16.3334637,13.1999245 16.3334637,11.9999733 	"/>
</g>
</svg>
