<?xml version="1.0" encoding="utf-8"?>
<!-- Generator: Adobe Illustrator 19.2.1, SVG Export Plug-In . SVG Version: 6.00 Build 0)  -->
<!DOCTYPE svg PUBLIC "-//W3C//DTD SVG 1.1//EN" "http://www.w3.org/Graphics/SVG/1.1/DTD/svg11.dtd">
<svg version="1.1" id="Layer_1" xmlns="http://www.w3.org/2000/svg" xmlns:xlink="http://www.w3.org/1999/xlink" x="0px" y="0px"
	 viewBox="0 0 19.4 19.4" enable-background="new 0 0 19.4 19.4" xml:space="preserve">
<path opacity="0.8" fill="#99918C" enable-background="new    " d="M9.7,0c5.4,0,9.7,4.3,9.7,9.7s-4.4,9.7-9.7,9.7S0,15.1,0,9.7
	S4.4,0,9.7,0"/>
<path fill="#FFFFFF" d="M14.7,14.4c0.3,0.5,0.1,0.9-0.4,0.9H5.2c-0.5,0-0.8-0.4-0.4-0.9L5,14c0.3-0.5,1-0.8,1.6-0.8h6.2
	c0.6,0,1.3,0.4,1.6,0.8L14.7,14.4z"/>
<rect x="6.2" y="5.1" fill="#FFFFFF" width="6.9" height="8.8"/>
<path fill="#FFFFFF" d="M4.7,4.3C4.4,3.8,4.6,3.5,5.1,3.5h9.1c0.6,0,0.8,0.4,0.4,0.8l-0.2,0.4c-0.3,0.5-1.1,0.9-1.6,0.9H6.6
	C6,5.5,5.3,5.1,5,4.7L4.7,4.3z"/>
<g opacity="0.8" enable-background="new    ">
	<path fill="#99918C" d="M9,11.8c0,0.4-0.3,0.7-0.7,0.7l0,0c-0.4,0-0.7-0.3-0.7-0.7V6.9c0-0.4,0.4-0.7,0.7-0.7l0,0
		C8.7,6.2,9,6.5,9,6.9V11.8z"/>
</g>
<g opacity="0.8" enable-background="new    ">
	<path fill="#99918C" d="M11.8,11.8c0,0.4-0.3,0.7-0.7,0.7l0,0c-0.4,0-0.7-0.3-0.7-0.7V6.9c0-0.4,0.3-0.7,0.7-0.7l0,0
		c0.4,0,0.7,0.3,0.7,0.7V11.8z"/>
</g>
<path fill="#FFFFFF" d="M4.7,4.3C4.4,3.8,4.6,3.5,5.1,3.5h9.1c0.6,0,0.8,0.4,0.4,0.8l-0.2,0.4c-0.3,0.5-1.1,0.9-1.6,0.9H6.6
	C6,5.5,5.3,5.1,5,4.7L4.7,4.3z"/>
</svg>
