<?xml version="1.0" encoding="utf-8"?>
<!-- Generator: Adobe Illustrator 18.0.0, SVG Export Plug-In . SVG Version: 6.00 Build 0)  -->
<!DOCTYPE svg PUBLIC "-//W3C//DTD SVG 1.1//EN" "http://www.w3.org/Graphics/SVG/1.1/DTD/svg11.dtd">
<svg version="1.1" id="Layer_1" xmlns="http://www.w3.org/2000/svg" xmlns:xlink="http://www.w3.org/1999/xlink" x="0px" y="0px"
	 width="50px" height="50px" viewBox="-16 -16 50 50" enable-background="new -16 -16 50 50" xml:space="preserve">
<path opacity="0.8" fill="#99918C" enable-background="new    " d="M9-10.4c10.7,0,19.4,8.7,19.4,19.4c0,10.7-8.7,19.4-19.4,19.4
	c-10.7,0-19.4-8.7-19.4-19.4C-10.4-1.7-1.7-10.4,9-10.4"/>
<path fill="#FFFFFF" d="M19,18.4c0.6,1,0.2,1.7-0.9,1.7H0c-1.1,0-1.6-0.8-0.9-1.7l0.5-0.7c0.6-1,2.1-1.7,3.2-1.7h12.5
	c1.1,0,2.6,0.8,3.2,1.7L19,18.4z"/>
<rect x="2.1" y="-0.3" fill="#FFFFFF" width="13.9" height="17.5"/>
<path fill="#FFFFFF" d="M-1-1.8c-0.6-1-0.2-1.7,0.9-1.7H18c1.1,0,1.6,0.8,0.9,1.7l-0.5,0.7c-0.6,1-2.1,1.7-3.2,1.7H2.8
	c-1.1,0-2.6-0.8-3.2-1.7L-1-1.8z"/>
<g opacity="0.8" enable-background="new    ">
	<path fill="#99918C" d="M7.6,13.2c0,0.8-0.6,1.4-1.4,1.4l0,0c-0.8,0-1.4-0.6-1.4-1.4V3.4C4.8,2.6,5.5,2,6.2,2l0,0
		C7,2,7.6,2.6,7.6,3.4V13.2z"/>
</g>
<g opacity="0.8" enable-background="new    ">
	<path fill="#99918C" d="M13.2,13.2c0,0.8-0.6,1.4-1.4,1.4l0,0c-0.8,0-1.4-0.6-1.4-1.4V3.5c0-0.8,0.6-1.4,1.4-1.4l0,0
		c0.8,0,1.4,0.6,1.4,1.4V13.2z"/>
</g>
<path fill="#FFFFFF" d="M-1-1.8c-0.6-1-0.2-1.7,0.9-1.7H18c1.1,0,1.6,0.8,0.9,1.7l-0.5,0.7c-0.6,1-2.1,1.7-3.2,1.7H2.8
	c-1.1,0-2.6-0.8-3.2-1.7L-1-1.8z"/>
</svg>
