<?xml version="1.0" encoding="utf-8"?>
<!-- Generator: Adobe Illustrator 18.0.0, SVG Export Plug-In . SVG Version: 6.00 Build 0)  -->
<!DOCTYPE svg PUBLIC "-//W3C//DTD SVG 1.1//EN" "http://www.w3.org/Graphics/SVG/1.1/DTD/svg11.dtd">
<svg version="1.1" id="Layer_1" xmlns="http://www.w3.org/2000/svg" xmlns:xlink="http://www.w3.org/1999/xlink" x="0px" y="0px"
	 viewBox="0 0 50 50" enable-background="new 0 0 50 50" xml:space="preserve">
<path opacity="0.8" fill="#99918C" enable-background="new    " d="M9-0.7c5.4,0,9.7,4.3,9.7,9.7s-4.4,9.7-9.7,9.7S-0.7,14.4-0.7,9
	S3.7-0.7,9-0.7"/>
<path fill="#FFFFFF" d="M14,13.7c0.3,0.5,0.1,0.9-0.4,0.9H4.5c-0.5,0-0.8-0.4-0.4-0.9l0.2-0.4c0.3-0.5,1-0.8,1.6-0.8h6.2
	c0.6,0,1.3,0.4,1.6,0.8L14,13.7z"/>
<rect x="5.5" y="4.4" fill="#FFFFFF" width="6.9" height="8.8"/>
<path fill="#FFFFFF" d="M4,3.6C3.7,3.1,3.9,2.8,4.4,2.8h9.1c0.6,0,0.8,0.4,0.4,0.8L13.7,4c-0.3,0.5-1.1,0.9-1.6,0.9H5.9
	C5.3,4.8,4.6,4.4,4.3,4L4,3.6z"/>
<g opacity="0.8" enable-background="new    ">
	<path fill="#99918C" d="M8.3,11.1c0,0.4-0.3,0.7-0.7,0.7l0,0c-0.4,0-0.7-0.3-0.7-0.7V6.2c0-0.4,0.4-0.7,0.7-0.7l0,0
		c0.4,0,0.7,0.3,0.7,0.7V11.1z"/>
</g>
<g opacity="0.8" enable-background="new    ">
	<path fill="#99918C" d="M11.1,11.1c0,0.4-0.3,0.7-0.7,0.7l0,0c-0.4,0-0.7-0.3-0.7-0.7V6.2c0-0.4,0.3-0.7,0.7-0.7l0,0
		c0.4,0,0.7,0.3,0.7,0.7V11.1z"/>
</g>
<path fill="#FFFFFF" d="M4,3.6C3.7,3.1,3.9,2.8,4.4,2.8h9.1c0.6,0,0.8,0.4,0.4,0.8L13.7,4c-0.3,0.5-1.1,0.9-1.6,0.9H5.9
	C5.3,4.8,4.6,4.4,4.3,4L4,3.6z"/>
</svg>
