<?xml version="1.0" encoding="utf-8"?>
<!-- Generator: Adobe Illustrator 18.0.0, SVG Export Plug-In . SVG Version: 6.00 Build 0)  -->
<!DOCTYPE svg PUBLIC "-//W3C//DTD SVG 1.1//EN" "http://www.w3.org/Graphics/SVG/1.1/DTD/svg11.dtd">
<svg version="1.1" id="Layer_1" xmlns:svg="http://www.w3.org/2000/svg"
	 xmlns="http://www.w3.org/2000/svg" xmlns:xlink="http://www.w3.org/1999/xlink" x="0px" y="0px" width="50px" height="50px"
	 viewBox="0 0 50 50" enable-background="new 0 0 50 50" xml:space="preserve">
<circle fill="#F8F4F0" cx="25" cy="25" r="25"/>
<circle opacity="0.8" fill="#46819B" cx="25" cy="25" r="25"/>
<g>
	<path fill="#F8F4F0" d="M15.6,43.4c-0.3,0-0.6-0.2-0.8-0.5c-0.2-0.3-0.3-0.7-0.3-1.1V8.1c0-1,0.5-1.7,1.2-1.7c0.1,0,0.2,0,0.2,0
		l5.2,1.3c0.7,0.2,1.3,1,1.5,1.9l3.8,21.7l3.7-19.9c0.1-0.7,0.7-1.1,1.3-1.1c0.1,0,0.2,0,0.3,0l5.1,1.2c0.7,0.2,1.3,0.9,1.3,1.6
		l0.1,21.6c0,0.7-0.5,1.4-1.2,1.6l-2.6,0.9c-0.1,0-0.3,0.1-0.4,0.1c-0.6,0-1-0.5-1-1.1l0-17.6l-3.6,19c-0.1,0.8-0.8,1.6-1.5,1.8
		L25,40.3c-0.1,0-0.2,0.1-0.4,0.1c-0.6,0-1.2-0.5-1.3-1.2l-3.6-21.9c0,0.8,0,2.1,0,2.9l0,20.2c0,0.9-0.5,1.9-1.2,2.1l-2.6,0.9
		C15.8,43.4,15.7,43.4,15.6,43.4z"/>
	<path fill="#F8F4F0" d="M30.4,11.4c0.1-0.6,0.7-1,1.2-0.9l5.1,1.2c0.6,0.1,1,0.7,1,1.3l0.1,21.6c0,0.6-0.5,1.2-1,1.3l-2.6,0.9
		c-0.6,0.2-1-0.2-1-0.8l0-15.5c0-0.6,0-1.6,0-2.2c0,0,0-0.1,0-1c0-0.9,0-1,0-1c0-0.6-0.1-0.6-0.2-0.1l-4,21.2
		c-0.1,0.7-0.7,1.4-1.2,1.6L24.9,40c-0.6,0.2-1.1-0.2-1.2-0.9l-4.1-24.5c-0.1-0.8-0.2-0.8-0.2,0c0,0,0,0.1,0,1.3c0,1.2,0,1.3,0,1.3
		c0,0.8,0,2.1,0,2.9l0,20.2c0,0.8-0.5,1.6-1,1.8L15.8,43c-0.6,0.2-1-0.4-1-1.2V8.1c0-0.9,0.5-1.5,1-1.3L21,8
		c0.6,0.1,1.1,0.9,1.2,1.7l3.9,22.2c0.1,0.7,0.3,0.6,0.5-0.1L30.4,11.4z"/>
</g>
</svg>
