<?xml version="1.0" encoding="utf-8"?>
<!-- Generator: Adobe Illustrator 19.2.1, SVG Export Plug-In . SVG Version: 6.00 Build 0)  -->
<!DOCTYPE svg PUBLIC "-//W3C//DTD SVG 1.1//EN" "http://www.w3.org/Graphics/SVG/1.1/DTD/svg11.dtd">
<svg version="1.1" id="Layer_1" xmlns:svg="http://www.w3.org/2000/svg"
	 xmlns="http://www.w3.org/2000/svg" xmlns:xlink="http://www.w3.org/1999/xlink" x="0px" y="0px" viewBox="0 0 25 25"
	 enable-background="new 0 0 25 25" xml:space="preserve">
<circle fill="#F8F4F0" cx="12.5" cy="12.5" r="12.5"/>
<circle opacity="0.8" fill="#46819B" enable-background="new    " cx="12.5" cy="12.5" r="12.5"/>
<g>
	<path fill="#F8F4F0" d="M7.8,21.7c-0.15,0-0.3-0.1-0.4-0.25S7.25,21.1,7.25,20.9V4.05c0-0.5,0.25-0.85,0.6-0.85c0.05,0,0.1,0,0.1,0
		l2.6,0.65c0.35,0.1,0.65,0.5,0.75,0.95l1.9,10.85l1.85-9.95c0.05-0.35,0.35-0.55,0.65-0.55c0.05,0,0.1,0,0.15,0l2.55,0.6
		c0.35,0.1,0.65,0.45,0.65,0.8l0.05,10.8c0,0.35-0.25,0.7-0.6,0.8l-1.3,0.45c-0.05,0-0.15,0.05-0.2,0.05c-0.3,0-0.5-0.25-0.5-0.55
		V9.3l-1.8,9.5c-0.05,0.4-0.4,0.8-0.75,0.9l-1.45,0.45c-0.05,0-0.1,0.05-0.2,0.05c-0.3,0-0.6-0.25-0.65-0.6L9.85,8.65
		c0,0.4,0,1.05,0,1.45v10.1c0,0.45-0.25,0.95-0.6,1.05l-1.3,0.45C7.9,21.7,7.85,21.7,7.8,21.7z"/>
	<path fill="#F8F4F0" d="M15.2,5.7c0.05-0.3,0.35-0.5,0.6-0.45l2.55,0.6c0.3,0.05,0.5,0.35,0.5,0.65l0.05,10.8
		c0,0.3-0.25,0.6-0.5,0.65l-1.3,0.45c-0.3,0.1-0.5-0.1-0.5-0.4v-7.75c0-0.3,0-0.8,0-1.1c0,0,0-0.05,0-0.5s0-0.5,0-0.5
		c0-0.3-0.05-0.3-0.1-0.05l-2,10.6c-0.05,0.35-0.35,0.7-0.6,0.8L12.45,20c-0.3,0.1-0.55-0.1-0.6-0.45L9.8,7.3
		c-0.05-0.4-0.1-0.4-0.1,0c0,0,0,0.05,0,0.65s0,0.65,0,0.65c0,0.4,0,1.05,0,1.45v10.1c0,0.4-0.25,0.8-0.5,0.9L7.9,21.5
		c-0.3,0.1-0.5-0.2-0.5-0.6V4.05C7.4,3.6,7.65,3.3,7.9,3.4L10.5,4c0.3,0.05,0.55,0.45,0.6,0.85l1.95,11.1
		c0.05,0.35,0.15,0.3,0.25-0.05L15.2,5.7z"/>
</g>
</svg>
