<?xml version="1.0" encoding="utf-8"?>
<!-- Generator: Adobe Illustrator 19.2.1, SVG Export Plug-In . SVG Version: 6.00 Build 0)  -->
<!DOCTYPE svg PUBLIC "-//W3C//DTD SVG 1.1//EN" "http://www.w3.org/Graphics/SVG/1.1/DTD/svg11.dtd">
<svg version="1.1" id="svg2" xmlns:svg="http://www.w3.org/2000/svg"
	 xmlns="http://www.w3.org/2000/svg" xmlns:xlink="http://www.w3.org/1999/xlink" x="0px" y="0px" viewBox="0 0 38.2 25"
	 enable-background="new 0 0 38.2 25" xml:space="preserve">
<path fill="#F8F6F0" d="M31.3,5.5h-2.4C26.65,2.2,22.85,0,18.55,0S10.45,2.2,8.2,5.5H4c-2.2,0-4,1.8-4,4c0,1.15,0.5,2.15,1.25,2.9
	C0.5,13.15,0,14.15,0,15.3c0,2.2,1.8,4,4,4h4.05c2.25,3.45,6.1,5.7,10.5,5.7s8.25-2.3,10.5-5.7h2.25c3.8,0,6.9-3.1,6.9-6.9
	S35.1,5.5,31.3,5.5z"/>
<path opacity="0.7" fill="#F02A10" enable-background="new    " d="M30.1,8.45h-3.45c-1.5-2.95-4.5-4.95-8.05-4.95
	c-3.5,0-6.55,2-8.05,4.95H5.5c-0.75,0-1.35,0.6-1.35,1.35s0.6,1.35,1.35,1.35h4.2c-0.05,0.45-0.1,0.9-0.1,1.35
	c0,0.4,0.05,0.8,0.1,1.15H5.55c-0.75,0-1.35,0.6-1.35,1.35s0.6,1.35,1.35,1.35h4.95c1.45,3.05,4.5,5.15,8.1,5.15s6.7-2.1,8.1-5.15
	h3.35c2.2,0,3.95-1.75,3.95-3.95S32.25,8.45,30.1,8.45z M18.6,6.05c2,0,3.8,0.95,5,2.4h-10C14.8,7,16.6,6.05,18.6,6.05z M12.2,12.5
	c0-0.45,0.05-0.9,0.15-1.35H24.9c0.1,0.45,0.15,0.9,0.15,1.35c0,0.4-0.05,0.8-0.1,1.15H12.3C12.2,13.3,12.2,12.9,12.2,12.5z
	 M18.6,18.95c-2.1,0-3.95-1-5.15-2.55H23.7C22.55,17.9,20.7,18.95,18.6,18.95z M30.1,13.65h-2.55c0.05-0.4,0.1-0.75,0.1-1.15
	c0-0.45-0.05-0.9-0.1-1.35h2.6c0.7,0,1.25,0.55,1.25,1.25C31.35,13.1,30.8,13.65,30.1,13.65z"/>
</svg>
