<?xml version="1.0" encoding="utf-8"?>
<!-- Generator: Adobe Illustrator 18.0.0, SVG Export Plug-In . SVG Version: 6.00 Build 0)  -->
<!DOCTYPE svg PUBLIC "-//W3C//DTD SVG 1.1//EN" "http://www.w3.org/Graphics/SVG/1.1/DTD/svg11.dtd">
<svg version="1.1" id="svg2" xmlns:svg="http://www.w3.org/2000/svg"
	 xmlns="http://www.w3.org/2000/svg" xmlns:xlink="http://www.w3.org/1999/xlink" x="0px" y="0px" width="96.4px" height="50px"
	 viewBox="0 0 96.4 50" enable-background="new 0 0 96.4 50" xml:space="preserve">
<path fill="#F8F6F0" d="M71.7,11h-4.8C62.4,4.4,54.8,0,46.2,0S30,4.4,25.5,11h-8.4c-4.4,0-8,3.6-8,8c0,2.3,1,4.3,2.5,5.8
	c-1.5,1.5-2.5,3.5-2.5,5.8c0,4.4,3.6,8,8,8h8.1c4.5,6.9,12.2,11.4,21,11.4s16.5-4.6,21-11.4h4.5c7.6,0,13.8-6.2,13.8-13.8
	C85.5,17.2,79.3,11,71.7,11z"/>
<path opacity="0.7" fill="#F02A10" enable-background="new    " d="M69.3,16.9h-6.9c-3-5.9-9-9.9-16.1-9.9c-7,0-13.1,4-16.1,9.9
	H20.1c-1.5,0-2.7,1.2-2.7,2.7s1.2,2.7,2.7,2.7h8.4c-0.1,0.9-0.2,1.8-0.2,2.7c0,0.8,0.1,1.6,0.2,2.3h-8.3c-1.5,0-2.7,1.2-2.7,2.7
	s1.2,2.7,2.7,2.7h9.9C33,38.8,39.1,43,46.3,43s13.4-4.2,16.2-10.3h6.7c4.4,0,7.9-3.5,7.9-7.9S73.6,16.9,69.3,16.9z M46.3,12.1
	c4,0,7.6,1.9,10,4.8h-20C38.7,14,42.3,12.1,46.3,12.1z M33.5,25c0-0.9,0.1-1.8,0.3-2.7h25.1c0.2,0.9,0.3,1.8,0.3,2.7
	c0,0.8-0.1,1.6-0.2,2.3H33.7C33.5,26.6,33.5,25.8,33.5,25z M46.3,37.9c-4.2,0-7.9-2-10.3-5.1h20.5C54.2,35.8,50.5,37.9,46.3,37.9z
	 M69.3,27.3h-5.1c0.1-0.8,0.2-1.5,0.2-2.3c0-0.9-0.1-1.8-0.2-2.7h5.2c1.4,0,2.5,1.1,2.5,2.5C71.8,26.2,70.7,27.3,69.3,27.3z"/>
</svg>
