<?xml version="1.0" encoding="utf-8"?>
<!-- Generator: Adobe Illustrator 18.0.0, SVG Export Plug-In . SVG Version: 6.00 Build 0)  -->
<!DOCTYPE svg PUBLIC "-//W3C//DTD SVG 1.1//EN" "http://www.w3.org/Graphics/SVG/1.1/DTD/svg11.dtd">
<svg version="1.1" id="Layer_1" xmlns="http://www.w3.org/2000/svg" xmlns:xlink="http://www.w3.org/1999/xlink" x="0px" y="0px"
	 viewBox="0 0 300 240" enable-background="new 0 0 300 240" xml:space="preserve">
<path fill="#F8F4F0" d="M149.3,104c0-13.9-11.6-25.1-25-25.1c-13.8,0-25,11.2-25,25.1c0,13.8,11.2,24.9,25,24.9
	C138.2,128.8,149.3,117.8,149.3,104"/>
<path fill="#14489E" d="M149.5,104c0-13.9-11.6-25.1-25-25.1c-13.8,0-25.1,11.2-25.1,25.1c0,13.8,11.2,24.8,25.1,24.8
	S149.5,117.8,149.5,104"/>
<path fill="#FFFFFF" d="M145.9,103.9c0,11.8-9.6,21.5-21.5,21.5s-21.5-9.6-21.5-21.5s9.8-21.5,21.6-21.5S145.9,92.1,145.9,103.9"/>
<path fill="#46819B" d="M149.5,104c0-13.9-11.6-25.1-25-25.1c-13.8,0-25.1,11.2-25.1,25.1c0,13.8,11.2,24.8,25.1,24.8
	S149.5,117.8,149.5,104"/>
<path fill="#F8F4F0" d="M145.9,103.9c0,11.8-9.6,21.5-21.5,21.5s-21.5-9.6-21.5-21.5s9.8-21.5,21.6-21.5S145.9,92.1,145.9,103.9"/>
<polygon fill="#46819B" points="136.1,113.8 136.1,94 134.4,90.6 131.1,90.6 124.5,103.9 117.8,90.6 114.5,90.6 112.9,94 
	112.9,113.8 117.8,117.1 117.8,100.5 122.8,110.6 126.2,110.6 131.1,100.5 131.1,117.1 "/>
<path fill="#F8F4F0" d="M199.5,104c0-13.9-11.6-25.1-24.9-25.1c-13.8,0-25.1,11.2-25.1,25.1c0,13.7,11.3,24.9,25.1,24.9
	S199.5,117.8,199.5,104"/>
<path fill="#46819B" d="M199.5,103.9c0-13.9-11.6-25.1-25-25.1c-13.9,0-25.1,11.2-25.1,25.1c0,13.6,11.3,24.8,25.1,24.8
	C188.3,128.7,199.5,117.7,199.5,103.9"/>
<path fill="#F8F4F0" d="M195.9,104c0,11.7-9.6,21.2-21.3,21.2c-11.8,0-21.5-9.5-21.5-21.2c0-11.8,9.6-21.6,21.5-21.6
	C186.2,82.4,195.9,92.3,195.9,104"/>
<polygon fill="#46819B" points="171.5,94.8 171.5,113.2 179,113.2 179,110 174.4,110 174.4,105.5 179,105.5 179,100.8 174.4,100.8 
	174.4,97.9 179,97.9 179,94.8 "/>
<path fill="#46819B" d="M182.3,94.8v18.3h3.1v-6l3.1,1.7v4.5l3.1-3.1V107l-3.1-3.1h3.1v-6l-3.1-3.1h-3.1
	C185.3,94.8,182.3,94.8,182.3,94.8z M185.3,97.9h3.1v3.1l-3.1,1.5V97.9z"/>
<path fill="#46819B" d="M160.3,94.8v0.1l-2.8,3V110l3.1,3.1v-6l3.1,4.5v1.5h4.5v-1.5l-4.5-7.6h4.5v-3.1v-6H160.3z M162.1,97.9h3.1
	l-1.5,4.5h-3.1L162.1,97.9z"/>
</svg>
