<?xml version="1.0" encoding="utf-8"?>
<!-- Generator: Adobe Illustrator 18.0.0, SVG Export Plug-In . SVG Version: 6.00 Build 0)  -->
<!DOCTYPE svg PUBLIC "-//W3C//DTD SVG 1.1//EN" "http://www.w3.org/Graphics/SVG/1.1/DTD/svg11.dtd">
<svg version="1.1" id="Layer_1" xmlns="http://www.w3.org/2000/svg" xmlns:xlink="http://www.w3.org/1999/xlink" width='18px' height='18px'
	 viewBox="0 0 18 18" enable-background="new 0 0 18 18" xml:space="preserve">
<path fill="#F8F4F0" d="M18,9c0-5-4.2-9-9-9C4,0,0,4,0,9c0,4.9,4.1,9,9,9C14,18,18,14,18,9"/>
<path fill="#104E81" d="M16,9c0-3.9-3.3-7-7-7C5.2,2,2,5.1,2,9c0,3.8,3.2,7,7,7C12.9,16,16,12.9,16,9"/>
<path fill="#F8F4F0" d="M15,9c0,3.3-2.7,6-6,6s-6-2.7-6-6s2.7-6,6-6S15,5.7,15,9"/>
<polygon fill="#104E81" points="8.2,6.5 8.2,11.6 10.3,11.6 10.3,10.7 9,10.7 9,9.4 10.3,9.4 10.3,8.2 9,8.2 9,7.3 10.3,7.3 
	10.3,6.5 "/>
<path fill="#104E81" d="M11.2,6.5v5.1h0.9V9.9l0.9,0.5v1.2l0.9-0.8V9.9l-1-0.9h0.9V7.3l-0.9-0.8H12H11.2z M12.1,7.3H13v0.9l-0.9,0.4
	V7.3z"/>
<path fill="#104E81" d="M5,6.5L5,6.5L4.3,7.3v3.4l0.9,0.8V9.9L6,11.1v0.4h1.3v-0.4L6,9h1.3V8.2V6.5H5z M5.5,7.3h0.8L6,8.6H5.1
	L5.5,7.3z"/>
</svg>
