<?xml version="1.0" encoding="utf-8"?>
<!-- Generator: Adobe Illustrator 18.0.0, SVG Export Plug-In . SVG Version: 6.00 Build 0)  -->
<!DOCTYPE svg PUBLIC "-//W3C//DTD SVG 1.1//EN" "http://www.w3.org/Graphics/SVG/1.1/DTD/svg11.dtd">
<svg version="1.1" id="Layer_1" xmlns="http://www.w3.org/2000/svg" xmlns:xlink="http://www.w3.org/1999/xlink" x="0px" y="0px"
	 viewBox="-16 -16 50 50" enable-background="new -16 -16 50 50" xml:space="preserve">
<path fill="#F8F4F0" d="M34,9C34-4.9,22.3-16,9-16C-4.9-16-16-4.9-16,9c0,13.6,11.4,25,25,25C22.9,34,34,22.9,34,9"/>
<path fill="#46819B" d="M28.4,9c0-10.8-9.2-19.4-19.4-19.4C-1.6-10.4-10.4-1.8-10.4,9c0,10.6,8.9,19.4,19.4,19.4
	C19.8,28.4,28.4,19.8,28.4,9"/>
<path fill="#F8F4F0" d="M25.7,9c0,9.2-7.5,16.7-16.7,16.7S-7.7,18.2-7.7,9S-0.2-7.7,9-7.7S25.7-0.2,25.7,9"/>
<polygon fill="#46819B" points="6.8,2.1 6.8,16.2 12.6,16.2 12.6,13.7 9,13.7 9,10.1 12.6,10.1 12.6,6.8 9,6.8 9,4.3 12.6,4.3 
	12.6,2.1 "/>
<path fill="#46819B" d="M15.1,2.1v14.2h2.5v-4.7l2.5,1.4v3.3l2.5-2.2v-2.5L19.8,9h2.5V4.3l-2.5-2.2h-2.5H15.1z M17.6,4.3h2.5v2.5
	l-2.5,1.1V4.3z"/>
<path fill="#46819B" d="M-2.1,2.1L-2.1,2.1l-1.9,2.2v9.4l2.5,2.2v-4.4l2.2,3.3v1.1h3.6v-1.1L0.7,9h3.6V6.8V2.1H-2.1z M-0.7,4.3h2.2
	L0.7,7.9h-2.5L-0.7,4.3z"/>
</svg>
