<?xml version="1.0" encoding="utf-8"?>
<!-- Generator: Adobe Illustrator 18.0.0, SVG Export Plug-In . SVG Version: 6.00 Build 0)  -->
<!DOCTYPE svg PUBLIC "-//W3C//DTD SVG 1.1//EN" "http://www.w3.org/Graphics/SVG/1.1/DTD/svg11.dtd">
<svg version="1.1" id="Layer_1" xmlns="http://www.w3.org/2000/svg" xmlns:xlink="http://www.w3.org/1999/xlink" x="0px" y="0px"
	 viewBox="0 0 50 50" enable-background="new 0 0 50 50" xml:space="preserve">
<path fill="#14489E" d="M34,9.1C34-4.8,22.4-16,9.1-16C-4.8-16-16-4.8-16,9.1C-16,22.9-4.8,34,9.1,34C22.9,34,34,22.9,34,9.1"/>
<path fill="#FFFFFF" d="M30.4,9c0,11.8-9.6,21.4-21.4,21.4S-12.4,20.8-12.4,9S-2.8-12.4,9-12.4S30.4-2.8,30.4,9"/>
<path fill="#46819B" d="M34,9.1C34-4.8,22.4-16,9.1-16C-4.8-16-16-4.8-16,9.1C-16,22.9-4.8,34,9.1,34C22.9,34,34,22.9,34,9.1"/>
<path fill="#F8F6F0" d="M30.4,9c0,11.8-9.6,21.4-21.4,21.4S-12.4,20.8-12.4,9S-2.8-12.4,9-12.4S30.4-2.8,30.4,9"/>
<polygon fill="#46819B" points="6.2,1 6.2,18 13.2,18 13.2,15 8.9,15 8.9,10.6 13.2,10.6 13.2,6.7 8.9,6.7 8.9,3.6 13.2,3.6 13.2,1 
	"/>
<path fill="#46819B" d="M16.2,1v17.1h3v-5.7l3,1.7v4l3-2.6v-3l-3.4-3.1h3V3.6l-3-2.6h-3C18.9,1,16.2,1,16.2,1z M19.2,3.6h3v3l-3,1.3
	V3.6z"/>
<path fill="#46819B" d="M-4.5,1L-4.5,1l-2.3,2.6V15l3,2.6v-5.3l2.6,4v1.3h4.3v-1.3l-4.3-7h4.3V6.7V1H-4.5z M-2.8,3.6h2.6l-1,4.3h-3
	L-2.8,3.6z"/>
</svg>
