<?xml version="1.0" encoding="utf-8"?>
<!-- Generator: Adobe Illustrator 19.2.1, SVG Export Plug-In . SVG Version: 6.00 Build 0)  -->
<!DOCTYPE svg PUBLIC "-//W3C//DTD SVG 1.1//EN" "http://www.w3.org/Graphics/SVG/1.1/DTD/svg11.dtd">
<svg version="1.1" id="Layer_1" xmlns="http://www.w3.org/2000/svg" xmlns:xlink="http://www.w3.org/1999/xlink" x="0px" y="0px"
	 viewBox="0 0 25 25" enable-background="new 0 0 25 25" xml:space="preserve">
<path fill="#14489E" d="M25,12.54C25,5.58,19.21,0,12.54,0C5.58,0,0,5.58,0,12.54C0,19.46,5.58,25,12.54,25
	C19.46,25,25,19.46,25,12.54"/>
<path fill="#FFFFFF" d="M23.21,12.5c0,5.92-4.79,10.71-10.71,10.71S1.79,18.42,1.79,12.5S6.58,1.79,12.5,1.79S23.21,6.58,23.21,12.5
	"/>
<path fill="#46819B" d="M25,12.54C25,5.58,19.21,0,12.54,0C5.58,0,0,5.58,0,12.54C0,19.46,5.58,25,12.54,25
	C19.46,25,25,19.46,25,12.54"/>
<path fill="#F8F6F0" d="M23.21,12.5c0,5.92-4.79,10.71-10.71,10.71S1.79,18.42,1.79,12.5S6.58,1.79,12.5,1.79S23.21,6.58,23.21,12.5
	"/>
<polygon fill="#46819B" points="11.08,8.5 11.08,17 14.58,17 14.58,15.5 12.46,15.5 12.46,13.29 14.58,13.29 14.58,11.33 
	12.46,11.33 12.46,9.79 14.58,9.79 14.58,8.5 "/>
<path fill="#46819B" d="M16.08,8.5v8.54h1.5v-2.83l1.5,0.83v2l1.5-1.29v-1.5l-1.71-1.54h1.5V9.79l-1.5-1.29h-1.5
	C17.46,8.5,16.08,8.5,16.08,8.5z M17.58,9.79h1.5v1.5l-1.5,0.67V9.79z"/>
<path fill="#46819B" d="M5.75,8.5L5.75,8.5L4.58,9.79v5.71l1.5,1.29v-2.67l1.29,2v0.67h2.17v-0.67l-2.17-3.5h2.17v-1.29V8.5H5.75z
	 M6.58,9.79h1.29l-0.5,2.17H5.91L6.58,9.79z"/>
</svg>
