<?xml version="1.0" encoding="utf-8"?>
<!-- Generator: Adobe Illustrator 18.0.0, SVG Export Plug-In . SVG Version: 6.00 Build 0)  -->
<!DOCTYPE svg PUBLIC "-//W3C//DTD SVG 1.1//EN" "http://www.w3.org/Graphics/SVG/1.1/DTD/svg11.dtd">
<svg version="1.1"
	 id="svg2" inkscape:version="0.46" sodipodi:docname="Transilien.svg" inkscape:output_extension="org.inkscape.output.svg.inkscape" sodipodi:version="0.32" xmlns:dc="http://purl.org/dc/elements/1.1/" xmlns:svg="http://www.w3.org/2000/svg" xmlns:sodipodi="http://sodipodi.sourceforge.net/DTD/sodipodi-0.dtd" xmlns:cc="http://creativecommons.org/ns#" xmlns:inkscape="http://www.inkscape.org/namespaces/inkscape" xmlns:rdf="http://www.w3.org/1999/02/22-rdf-syntax-ns#"
	 xmlns="http://www.w3.org/2000/svg" xmlns:xlink="http://www.w3.org/1999/xlink" x="0px" y="0px" viewBox="273.3 360.3 60 80"
	 enable-background="new 273.3 360.3 60 80" xml:space="preserve">
<sodipodi:namedview  inkscape:window-x="-8" inkscape:pageopacity="0.0" inkscape:pageshadow="2" inkscape:document-units="px" inkscape:window-width="1280" inkscape:window-height="750" inkscape:current-layer="layer1" inkscape:window-y="-8" borderopacity="1.0" inkscape:cx="300.76452" pagecolor="#ffffff" showgrid="false" bordercolor="#666666" inkscape:cy="653.18534" inkscape:zoom="0.24748737" id="base">
	</sodipodi:namedview>
<g id="layer1" transform="translate(-64.349767,-94.437566)" inkscape:groupmode="layer" inkscape:label="Calque 1">
	<g id="g4238" transform="translate(-5.0507633,1248.5485)">
		<g id="path2654">
			<path fill="#49AC42" d="M347-713.8c-1.3,0-2-0.8-2.2-1.2c-0.6-1-0.6-1,1.7-9.1l1.7-6.1c-1.9-2.8-3-6.6-3-10.2
				c0-7.9,4.6-15.6,13.7-22.8c0.9-0.7,2.9-2.2,4.6-3.3c20.4-13.8,30.2-22.4,32.4-25.8c0.3-0.4,0.9-1.4,2.3-1.4c1,0,1.9,0.6,2.3,1.6
				c0.2,0.4,0.3,0.7,0.1,4.4c-1.1,24.8-8.2,43.7-20.1,53.1c-3.3,2.6-6.8,4.5-10.7,5.8c-4.1,1.3-9.1,1.9-13.7,1.6c-0.2,0-0.3,0-0.5,0
				c-0.3,1-0.7,2.4-1.2,4.1c-0.8,2.7-1.7,5.9-2,6.5c-0.7,1.4-2.3,2.5-3.9,2.8C347.9-713.9,347.4-713.8,347-713.8z"/>
		</g>
	</g>
</g>
</svg>
