<?xml version="1.0" encoding="utf-8"?>
<!-- Generator: Adobe Illustrator 19.2.1, SVG Export Plug-In . SVG Version: 6.00 Build 0)  -->
<!DOCTYPE svg PUBLIC "-//W3C//DTD SVG 1.1//EN" "http://www.w3.org/Graphics/SVG/1.1/DTD/svg11.dtd">
<svg version="1.1" id="Layer_1" xmlns="http://www.w3.org/2000/svg" xmlns:xlink="http://www.w3.org/1999/xlink" x="0px" y="0px"
	 viewBox="0 0 25 25" enable-background="new 0 0 25 25" xml:space="preserve">
<path fill="#14489E" d="M25,12.55C25,5.6,19.2,0,12.55,0C5.6,0,0,5.6,0,12.55C0,19.45,5.6,25,12.55,25C19.45,25,25,19.45,25,12.55"
	/>
<path fill="#FFFFFF" d="M23.2,12.5c0,5.9-4.8,10.7-10.7,10.7S1.8,18.4,1.8,12.5S6.6,1.8,12.5,1.8S23.2,6.6,23.2,12.5"/>
<path opacity="0.8" fill="#46819B" enable-background="new    " d="M25,12.55C25,5.6,19.2,0,12.55,0C5.6,0,0,5.6,0,12.55
	C0,19.45,5.6,25,12.55,25C19.45,25,25,19.45,25,12.55"/>
<path fill="#F8F6F0" d="M23.2,12.5c0,5.9-4.8,10.7-10.7,10.7S1.8,18.4,1.8,12.5S6.6,1.8,12.5,1.8S23.2,6.6,23.2,12.5"/>
<polygon fill="#46819B" points="18.3,17.45 18.3,7.55 17.45,5.85 15.8,5.85 12.5,12.5 9.2,5.85 7.55,5.85 6.7,7.55 6.7,17.45 
	9.2,19.15 9.2,10.85 11.65,15.8 13.35,15.8 15.8,10.85 15.8,19.15 "/>
</svg>
