<?xml version="1.0" encoding="utf-8"?>
<!-- Generator: Adobe Illustrator 19.2.1, SVG Export Plug-In . SVG Version: 6.00 Build 0)  -->
<!DOCTYPE svg PUBLIC "-//W3C//DTD SVG 1.1//EN" "http://www.w3.org/Graphics/SVG/1.1/DTD/svg11.dtd">
<svg version="1.1" id="Layer_1" xmlns="http://www.w3.org/2000/svg" xmlns:xlink="http://www.w3.org/1999/xlink" x="0px" y="0px"
	 viewBox="0 0 50 25" enable-background="new 0 0 50 25" xml:space="preserve">
<path fill="#F8F4F0" d="M25,12.5C25,5.5,19.25,0,12.5,0C5.5,0,0,5.5,0,12.5S5.5,25,12.5,25C19.25,25,25,19.5,25,12.5"/>
<path fill="#14489E" d="M25,12.5C25,5.5,19.25,0,12.5,0C5.5,0,0,5.5,0,12.5S5.5,25,12.5,25S25,19.5,25,12.5"/>
<path fill="#FFFFFF" d="M23.25,12.5c0,6-4.75,10.75-10.75,10.75S1.75,18.5,1.75,12.5s5-10.75,10.75-10.75S23.25,6.5,23.25,12.5"/>
<path fill="#46819B" d="M25,12.5C25,5.5,19.25,0,12.5,0C5.5,0,0,5.5,0,12.5S5.5,25,12.5,25S25,19.5,25,12.5"/>
<path fill="#F8F4F0" d="M23.25,12.5c0,6-4.75,10.75-10.75,10.75S1.75,18.5,1.75,12.5s5-10.75,10.75-10.75S23.25,6.5,23.25,12.5"/>
<polygon fill="#46819B" points="18.25,17.5 18.25,7.5 17.5,5.75 15.75,5.75 12.5,12.5 9.25,5.75 7.5,5.75 6.75,7.5 6.75,17.5 
	9.25,19 9.25,10.75 11.75,15.75 13.25,15.75 15.75,10.75 15.75,19 "/>
<path fill="#F8F4F0" d="M50,12.5C50,5.5,44.25,0,37.5,0C30.5,0,25,5.5,25,12.5C25,19.25,30.75,25,37.5,25S50,19.5,50,12.5"/>
<path fill="#46819B" d="M50,12.5C50,5.5,44.25,0,37.5,0C30.5,0,25,5.5,25,12.5C25,19.25,30.75,25,37.5,25
	C44.5,24.75,50,19.25,50,12.5"/>
<path fill="#F8F4F0" d="M48.25,12.5c0,5.75-4.75,10.5-10.75,10.5s-10.75-4.75-10.75-10.5c0-6,4.75-10.75,10.75-10.75
	C43.25,1.75,48.25,6.75,48.25,12.5"/>
<polygon fill="#46819B" points="36,8 36,17 39.75,17 39.75,15.5 37.5,15.5 37.5,13.25 39.75,13.25 39.75,11 37.5,11 37.5,9.5 
	39.75,9.5 39.75,8 "/>
<path fill="#46819B" d="M41.5,8v9.25H43v-3L44.5,15v2.25l1.5-1.5v-1.5l-1.5-1.5H46v-3L44.5,8H43H41.5z M43,9.5h1.5V11L43,11.75V9.5z
	"/>
<path fill="#46819B" d="M30.5,8L30.5,8L29,9.5v6l1.5,1.5v-3l1.5,2.25V17h2.25v-0.75L32,12.5h2.25V11V8H30.5L30.5,8z M31.25,9.5h1.5
	L32,11.75h-1.5L31.25,9.5z"/>
</svg>
