<?xml version="1.0" encoding="utf-8"?>
<!-- Generator: Adobe Illustrator 18.0.0, SVG Export Plug-In . SVG Version: 6.00 Build 0)  -->
<!DOCTYPE svg PUBLIC "-//W3C//DTD SVG 1.1//EN" "http://www.w3.org/Graphics/SVG/1.1/DTD/svg11.dtd">
<svg version="1.1" id="Layer_1" xmlns="http://www.w3.org/2000/svg" xmlns:xlink="http://www.w3.org/1999/xlink" x="0px" y="0px"
	 width="50px" height="50px" viewBox="-16 -16 50 50" enable-background="new -16 -16 50 50" xml:space="preserve">
<path fill="#14489E" d="M34,9.1C34-4.8,22.4-16,9.1-16C-4.8-16-16-4.8-16,9.1C-16,22.9-4.8,34,9.1,34C22.9,34,34,22.9,34,9.1"/>
<path fill="#FFFFFF" d="M30.4,9c0,11.8-9.6,21.4-21.4,21.4c-11.8,0-21.4-9.6-21.4-21.4S-2.8-12.4,9-12.4C20.8-12.4,30.4-2.8,30.4,9"
	/>
<path opacity="0.8" fill="#46819B" d="M34,9.1C34-4.8,22.4-16,9.1-16C-4.8-16-16-4.8-16,9.1C-16,22.9-4.8,34,9.1,34
	C22.9,34,34,22.9,34,9.1"/>
<path fill="#F8F6F0" d="M30.4,9c0,11.8-9.6,21.4-21.4,21.4c-11.8,0-21.4-9.6-21.4-21.4S-2.8-12.4,9-12.4C20.8-12.4,30.4-2.8,30.4,9"
	/>
<polygon fill="#46819B" points="20.6,18.9 20.6,-0.9 18.9,-4.3 15.6,-4.3 9,9 2.4,-4.3 -0.9,-4.3 -2.6,-0.9 -2.6,18.9 2.4,22.3 
	2.4,5.7 7.3,15.6 10.7,15.6 15.6,5.7 15.6,22.3 "/>
</svg>
