<?xml version="1.0" encoding="utf-8"?>
<!-- Generator: Adobe Illustrator 18.0.0, SVG Export Plug-In . SVG Version: 6.00 Build 0)  -->
<!DOCTYPE svg PUBLIC "-//W3C//DTD SVG 1.1//EN" "http://www.w3.org/Graphics/SVG/1.1/DTD/svg11.dtd">
<svg version="1.1" id="Layer_1" xmlns="http://www.w3.org/2000/svg" xmlns:xlink="http://www.w3.org/1999/xlink" x="0px" y="0px"
	 viewBox="-30.2 -16 94.4 50" enable-background="new -30.2 -16 94.4 50" xml:space="preserve">
<path fill="#F8F4F0" d="M19.8,9.1C19.8-4.8,8.2-16-5.2-16C-19-16-30.2-4.8-30.2,9.1C-30.2,22.9-19,34-5.2,34
	C8.7,34,19.8,22.9,19.8,9.1"/>
<path fill="#14489E" d="M14.2,9.1c0-10.8-9-19.5-19.4-19.5c-10.7,0-19.5,8.7-19.5,19.5c0,10.7,8.7,19.3,19.5,19.3
	C5.6,28.4,14.2,19.8,14.2,9.1"/>
<path fill="#FFFFFF" d="M11.4,9c0,9.2-7.5,16.7-16.7,16.7c-9.2,0-16.7-7.5-16.7-16.7S-14.4-7.7-5.2-7.7C4-7.7,11.4-0.2,11.4,9"/>
<path fill="#46819B" d="M14.2,9.1c0-10.8-9-19.5-19.4-19.5c-10.7,0-19.5,8.7-19.5,19.5c0,10.7,8.7,19.3,19.5,19.3
	C5.6,28.4,14.2,19.8,14.2,9.1"/>
<path fill="#F8F4F0" d="M11.4,9c0,9.2-7.5,16.7-16.7,16.7c-9.2,0-16.7-7.5-16.7-16.7S-14.4-7.7-5.2-7.7C4-7.7,11.4-0.2,11.4,9"/>
<polygon fill="#46819B" points="3.8,16.7 3.8,1.3 2.5,-1.3 -0.1,-1.3 -5.2,9 -10.4,-1.3 -13,-1.3 -14.2,1.3 -14.2,16.7 -10.4,19.3 
	-10.4,6.4 -6.5,14.2 -3.9,14.2 -0.1,6.4 -0.1,19.3 "/>
<path fill="#F8F4F0" d="M64.2,9.1C64.2-4.8,52.6-16,39.3-16C25.5-16,14.2-4.8,14.2,9.1C14.2,22.8,25.5,34,39.3,34
	C53.1,34,64.2,22.9,64.2,9.1"/>
<path fill="#46819B" d="M58.7,9c0-10.8-9-19.5-19.4-19.5C28.5-10.5,19.8-1.8,19.8,9c0,10.6,8.8,19.3,19.5,19.3
	C50,28.3,58.7,19.7,58.7,9"/>
<path fill="#F8F4F0" d="M55.9,9.1c0,9.1-7.5,16.5-16.6,16.5c-9.2,0-16.7-7.4-16.7-16.5c0-9.2,7.5-16.8,16.7-16.8
	C48.4-7.7,55.9,0,55.9,9.1"/>
<polygon fill="#46819B" points="36.9,1.9 36.9,16.2 42.8,16.2 42.8,13.7 39.2,13.7 39.2,10.2 42.8,10.2 42.8,6.6 39.2,6.6 39.2,4.3 
	42.8,4.3 42.8,1.9 "/>
<path fill="#46819B" d="M45.3,1.9v14.2h2.4v-4.7l2.4,1.3v3.5l2.4-2.4v-2.4L50.1,9h2.4V4.3l-2.4-2.4h-2.4H45.3z M47.7,4.3h2.4v2.4
	l-2.4,1.2V4.3z"/>
<path fill="#46819B" d="M28.2,1.9v0.1L26,4.3v9.4l2.4,2.4v-4.7l2.4,3.5v1.2h3.5v-1.2L30.8,9h3.5V6.6V1.9H28.2z M29.6,4.3h2.4
	l-1.2,3.5h-2.4L29.6,4.3z"/>
</svg>
