<?xml version="1.0" encoding="utf-8"?>
<!-- Generator: Adobe Illustrator 19.2.1, SVG Export Plug-In . SVG Version: 6.00 Build 0)  -->
<!DOCTYPE svg PUBLIC "-//W3C//DTD SVG 1.1//EN" "http://www.w3.org/Graphics/SVG/1.1/DTD/svg11.dtd">
<svg version="1.1"
	 id="svg2" inkscape:output_extension="org.inkscape.output.svg.inkscape" inkscape:version="0.46" sodipodi:docname="Transilien.svg" sodipodi:version="0.32" xmlns:cc="http://creativecommons.org/ns#" xmlns:dc="http://purl.org/dc/elements/1.1/" xmlns:inkscape="http://www.inkscape.org/namespaces/inkscape" xmlns:rdf="http://www.w3.org/1999/02/22-rdf-syntax-ns#" xmlns:sodipodi="http://sodipodi.sourceforge.net/DTD/sodipodi-0.dtd" xmlns:svg="http://www.w3.org/2000/svg"
	 xmlns="http://www.w3.org/2000/svg" xmlns:xlink="http://www.w3.org/1999/xlink" x="0px" y="0px" viewBox="0 0 17.6 25"
	 enable-background="new 0 0 17.6 25" xml:space="preserve">
<sodipodi:namedview  bordercolor="#666666" borderopacity="1.0" id="base" inkscape:current-layer="layer1" inkscape:cx="300.76452" inkscape:cy="653.18534" inkscape:document-units="px" inkscape:pageopacity="0.0" inkscape:pageshadow="2" inkscape:window-height="750" inkscape:window-width="1280" inkscape:window-x="-8" inkscape:window-y="-8" inkscape:zoom="0.24748737" pagecolor="#ffffff" showgrid="false">
	</sodipodi:namedview>
<g id="layer1" transform="translate(-64.349767,-94.437566)" inkscape:groupmode="layer" inkscape:label="Calque 1">
	<g id="g4238" transform="translate(-5.0507633,1248.5485)">
		<g id="path2654">
			<path fill="#49AC42" d="M70.2-1129.11c-0.41,0-0.63-0.25-0.69-0.38c-0.19-0.31-0.19-0.31,0.53-2.85l0.53-1.91
				c-0.59-0.88-0.94-2.07-0.94-3.19c0-2.47,1.44-4.88,4.29-7.13c0.28-0.22,0.91-0.69,1.44-1.03c6.38-4.32,9.45-7.01,10.14-8.07
				c0.09-0.13,0.28-0.44,0.72-0.44c0.31,0,0.59,0.19,0.72,0.5c0.06,0.13,0.09,0.22,0.03,1.38c-0.34,7.76-2.57,13.67-6.29,16.61
				c-1.03,0.81-2.13,1.41-3.35,1.81c-1.28,0.41-2.85,0.59-4.29,0.5c-0.06,0-0.09,0-0.16,0c-0.09,0.31-0.22,0.75-0.38,1.28
				c-0.25,0.84-0.53,1.85-0.63,2.03c-0.22,0.44-0.72,0.78-1.22,0.88C70.48-1129.14,70.32-1129.11,70.2-1129.11z"/>
		</g>
	</g>
</g>
</svg>
