<?xml version="1.0" encoding="utf-8"?>
<!-- Generator: Adobe Illustrator 19.2.1, SVG Export Plug-In . SVG Version: 6.00 Build 0)  -->
<!DOCTYPE svg PUBLIC "-//W3C//DTD SVG 1.1//EN" "http://www.w3.org/Graphics/SVG/1.1/DTD/svg11.dtd">
<svg version="1.1" id="Layer_1" xmlns="http://www.w3.org/2000/svg" xmlns:xlink="http://www.w3.org/1999/xlink" x="0px" y="0px"
	 viewBox="0 0 45.39 25" enable-background="new 0 0 45.39 25" xml:space="preserve">
<path fill="#14489E" d="M24.75,12.68c0-6.86-5.72-12.43-12.32-12.43C5.57,0.25,0,5.82,0,12.68C0,19.49,5.57,25,12.43,25
	S24.75,19.54,24.75,12.68"/>
<path fill="#FFFFFF" d="M22.99,12.63c0,5.83-4.74,10.57-10.57,10.57S1.8,18.5,1.8,12.63S6.55,2.06,12.37,2.06S22.99,6.8,22.99,12.63
	"/>
<path fill="#46819B" d="M24.75,12.68c0-6.86-5.72-12.43-12.32-12.43C5.57,0.25,0,5.82,0,12.68C0,19.49,5.57,25,12.43,25
	S24.75,19.54,24.75,12.68"/>
<path fill="#F8F6F0" d="M22.99,12.63c0,5.83-4.74,10.57-10.57,10.57S1.8,18.5,1.8,12.63S6.55,2.06,12.37,2.06S22.99,6.8,22.99,12.63
	"/>
<polygon fill="#46819B" points="11.03,8.71 11.03,17.11 14.49,17.11 14.49,15.62 12.32,15.62 12.32,13.45 14.49,13.45 14.49,11.49 
	12.32,11.49 12.32,10 14.49,10 14.49,8.71 "/>
<path fill="#46819B" d="M15.98,8.71v8.46h1.5v-2.84l1.5,0.82v1.96l1.5-1.29v-1.44l-1.7-1.55h1.5V9.94L18.73,8.7h-1.5
	C17.27,8.71,15.98,8.71,15.98,8.71z M17.43,10h1.5v1.5l-1.5,0.62V10z"/>
<path fill="#46819B" d="M5.72,8.71L5.72,8.71L4.59,10v5.62l1.5,1.29v-2.63l1.29,1.96v0.62h2.11v-0.62l-2.11-3.45h2.11v-1.3V8.71
	C9.49,8.71,5.72,8.71,5.72,8.71z M6.55,10h1.29l-0.52,2.11H5.88L6.55,10z"/>
<g id="layer1" transform="translate(-64.349767,-94.437566)">
	<g id="g4238" transform="translate(-5.0507633,1248.5485)">
		<g id="path2654">
			<path fill="#49AC42" d="M98.17-1129.36c-0.41,0-0.62-0.26-0.67-0.36c-0.21-0.31-0.21-0.31,0.52-2.84l0.52-1.91
				c-0.57-0.88-0.93-2.06-0.93-3.15c0-2.42,1.44-4.85,4.23-7.06c0.26-0.21,0.88-0.67,1.44-1.03c6.29-4.28,9.33-6.91,10-7.99
				c0.1-0.1,0.26-0.41,0.72-0.41c0.31,0,0.57,0.21,0.72,0.52c0.05,0.1,0.1,0.21,0.05,1.34c-0.36,7.68-2.53,13.51-6.24,16.45
				c-1.03,0.82-2.11,1.39-3.3,1.8c-1.29,0.41-2.84,0.57-4.23,0.52c-0.05,0-0.1,0-0.15,0c-0.1,0.31-0.21,0.72-0.36,1.29
				c-0.26,0.82-0.52,1.8-0.62,2.01c-0.21,0.41-0.72,0.77-1.19,0.88C98.48-1129.41,98.32-1129.36,98.17-1129.36z"/>
		</g>
	</g>
</g>
</svg>
