<?xml version="1.0" encoding="utf-8"?>
<!-- Generator: Adobe Illustrator 18.0.0, SVG Export Plug-In . SVG Version: 6.00 Build 0)  -->
<!DOCTYPE svg PUBLIC "-//W3C//DTD SVG 1.1//EN" "http://www.w3.org/Graphics/SVG/1.1/DTD/svg11.dtd">
<svg version="1.1" id="Layer_1" xmlns="http://www.w3.org/2000/svg" xmlns:xlink="http://www.w3.org/1999/xlink" x="0px" y="0px"
	 viewBox="-30 -15 100 50" enable-background="new -30 -15 100 50" xml:space="preserve">
<path fill="#F8F4F0" d="M20,10C20-4,8.2-15-5-15c-14,0-25,11-25,25c0,13.2,11,25,25,25S20,24,20,10"/>
<path fill="#104E81" d="M14.5,10C14.5-1,5.5-9.5-5-9.5S-24.5-1-24.5,10c0,10.5,9,19.5,19.5,19.5C6,29.5,14.5,21,14.5,10"/>
<path fill="#F8F4F0" d="M11.8,10c0,9.5-7.2,16.8-16.8,16.8S-21.8,19.5-21.8,10S-14.5-6.8-5-6.8S11.8,1,11.8,10"/>
<polygon fill="#104E81" points="-7.2,2.7 -7.2,17.2 -1,17.2 -1,14.5 -5,14.5 -5,11 -1,11 -1,7.8 -5,7.8 -5,5.5 -1,5.5 -1,2.7 "/>
<path fill="#104E81" d="M1,2.7v14.5h2.8v-4.5l2.2,1V17l2.8-2.2v-2.2L6,10h2.2V5.5L6,2.7H3.2H1z M4,5.5h2.2v2.8L4,8.8V5.5z"/>
<path fill="#104E81" d="M-16,2.7L-16,2.7l-1.8,2.7V15l2.2,2.2v-4.5l2.3,3.3v1h4v-1l-4-6h4V7.8v-5C-9.2,2.8-16,2.8-16,2.7z
	 M-14.5,5.5h2.2l-1,3.5h-2.2L-14.5,5.5z"/>
<g id="layer1" transform="translate(-64.349767,-94.437566)" inkscape:groupmode="layer" inkscape:label="Calque 1">
	<g id="g4238" transform="translate(-5.0507633,1248.5485)">
		<g id="path2654">
			<path fill="#49AC42" d="M92.9-1121.4c-0.8,0-1.2-0.5-1.3-0.7c-0.4-0.6-0.4-0.6,1-5.3l1-3.6c-1.1-1.6-1.8-3.9-1.8-6
				c0-4.6,2.7-9.1,8-13.3c0.5-0.4,1.7-1.3,2.7-1.9c11.9-8.1,17.7-13.1,19-15.1c0.2-0.2,0.5-0.8,1.3-0.8c0.6,0,1.1,0.4,1.3,0.9
				c0.1,0.2,0.2,0.4,0.1,2.6c-0.6,14.5-4.8,25.6-11.8,31.1c-1.9,1.5-4,2.6-6.3,3.4c-2.4,0.8-5.3,1.1-8,0.9c-0.1,0-0.2,0-0.3,0
				c-0.2,0.6-0.4,1.4-0.7,2.4c-0.5,1.6-1,3.5-1.2,3.8c-0.4,0.8-1.3,1.5-2.3,1.6C93.5-1121.4,93.2-1121.4,92.9-1121.4z"/>
		</g>
	</g>
</g>
</svg>
