<?xml version="1.0" encoding="utf-8"?>
<!-- Generator: Adobe Illustrator 19.2.1, SVG Export Plug-In . SVG Version: 6.00 Build 0)  -->
<!DOCTYPE svg PUBLIC "-//W3C//DTD SVG 1.1//EN" "http://www.w3.org/Graphics/SVG/1.1/DTD/svg11.dtd">
<svg version="1.1" id="Layer_1" xmlns="http://www.w3.org/2000/svg" xmlns:xlink="http://www.w3.org/1999/xlink" x="0px" y="0px"
	 viewBox="0 0 19.6 19.6" enable-background="new 0 0 19.6 19.6" xml:space="preserve">
<g>
	<path fill="#F8F4F0" d="M9.8,0c5.4,0,9.8,4.4,9.8,9.8s-4.4,9.8-9.8,9.8S0,15.2,0,9.8S4.4,0,9.8,0"/>
</g>
<g opacity="0.6">
	<path fill="#446B52" d="M9.8,0.1c5.4,0,9.7,4.3,9.7,9.7s-4.4,9.7-9.7,9.7s-9.7-4.4-9.7-9.7S4.4,0.1,9.8,0.1"/>
</g>
<g>
	<ellipse fill="#FFFFFF" cx="13.2" cy="8.2" rx="3.5" ry="3.2"/>
</g>
<g>
	<ellipse fill="#FFFFFF" cx="6.4" cy="8.6" rx="3.6" ry="2.9"/>
</g>
<g>
	<ellipse fill="#FFFFFF" cx="9.4" cy="5.6" rx="3.4" ry="2.8"/>
</g>
<g>
	<path fill="#FFFFFF" d="M9.8,16.8c-0.4,0-0.7-0.3-0.7-0.7c0-1.8-1.8-4-3.4-5.4c-0.3-0.2-0.3-0.7-0.1-1s0.7-0.3,1-0.1
		c1.9,1.7,3.9,4.2,3.9,6.5C10.5,16.4,10.2,16.8,9.8,16.8z"/>
</g>
<g>
	<path fill="#FFFFFF" d="M9,16c0,0,0-0.1,0-0.4c0-0.1,0-0.3,0-0.5s0.1-0.4,0.1-0.6c0.1-0.2,0.1-0.5,0.1-0.8s0.1-0.5,0.2-0.9
		c0.1-0.6,0.4-1.2,0.7-1.9c0.1-0.3,0.4-0.6,0.6-0.9s0.4-0.6,0.7-0.8s0.5-0.4,0.8-0.6c0.2-0.1,0.5-0.3,0.8-0.3c0.5-0.2,1-0.2,1.2-0.2
		c0.3,0,0.5,0,0.5,0c0.4,0,0.7,0.3,0.7,0.7c0,0.4-0.2,0.6-0.6,0.7h0c0,0-0.1,0-0.4,0.1s-0.5,0.1-0.9,0.2c-0.1,0.1-0.4,0.1-0.5,0.3
		c-0.1,0.1-0.4,0.2-0.5,0.4c-0.1,0.2-0.3,0.4-0.5,0.6c0,0.2-0.2,0.5-0.2,0.7c-0.2,0.5-0.4,1-0.4,1.5c0,0.2,0,0.5-0.1,0.8
		c-0.1,0.2-0.1,0.5-0.1,0.6c0,0.2,0,0.4,0,0.5c0,0.2,0,0.4,0,0.5c0,0.2,0,0.4,0,0.4c0,0.6-0.5,1.1-1.1,1.1S9,16.7,9,16
		C9,16.1,9,16,9,16z"/>
</g>
</svg>
