<?xml version="1.0" encoding="utf-8"?>
<!-- Generator: Adobe Illustrator 18.0.0, SVG Export Plug-In . SVG Version: 6.00 Build 0)  -->
<!DOCTYPE svg PUBLIC "-//W3C//DTD SVG 1.1//EN" "http://www.w3.org/Graphics/SVG/1.1/DTD/svg11.dtd">
<svg version="1.1" id="Layer_1" xmlns="http://www.w3.org/2000/svg" xmlns:xlink="http://www.w3.org/1999/xlink" x="0px" y="0px"
	 width="50px" height="50px" viewBox="0 0 50 50" enable-background="new 0 0 50 50" xml:space="preserve">
<g>
	<path fill="#F8F4F0" d="M25,5.5c10.8,0,19.5,8.7,19.5,19.5c0,10.8-8.7,19.5-19.5,19.5C14.2,44.5,5.5,35.8,5.5,25
		C5.5,14.2,14.2,5.5,25,5.5"/>
</g>
<g opacity="0.6">
	<path fill="#446B52" d="M25,5.6c10.7,0,19.4,8.7,19.4,19.4c0,10.7-8.7,19.4-19.4,19.4C14.3,44.4,5.6,35.7,5.6,25
		C5.6,14.3,14.3,5.6,25,5.6"/>
</g>
<g>
	<ellipse fill="#FFFFFF" cx="31.8" cy="21.8" rx="7" ry="6.5"/>
</g>
<g>
	<ellipse fill="#FFFFFF" cx="18.3" cy="22.5" rx="7.2" ry="5.8"/>
</g>
<g>
	<ellipse fill="#FFFFFF" cx="24.3" cy="16.6" rx="6.9" ry="5.5"/>
</g>
<g>
	<path fill="#FFFFFF" d="M25,38.9c-0.8,0-1.4-0.6-1.4-1.4c0-3.6-3.7-8.1-6.8-10.8c-0.6-0.5-0.6-1.4-0.1-2c0.5-0.6,1.4-0.6,2-0.1
		c3.8,3.3,7.8,8.4,7.8,12.9C26.4,38.3,25.8,38.9,25,38.9z"/>
</g>
<g>
	<path fill="#FFFFFF" d="M23.4,37.4c0,0,0-0.3,0.1-0.8c0-0.3,0-0.6,0.1-1c0-0.4,0.1-0.8,0.1-1.3c0.1-0.5,0.1-1,0.2-1.6
		c0.1-0.6,0.2-1.1,0.4-1.7c0.3-1.2,0.8-2.5,1.4-3.7c0.3-0.6,0.7-1.2,1.1-1.8c0.4-0.6,0.9-1.1,1.4-1.5c0.5-0.4,1-0.8,1.6-1.1
		c0.5-0.3,1.1-0.6,1.6-0.7c1-0.4,1.9-0.4,2.5-0.5c0.6,0,1,0,1,0c0.8,0,1.4,0.6,1.4,1.4c0,0.7-0.5,1.3-1.2,1.4l-0.2,0
		c0,0-0.3,0-0.7,0.1c-0.4,0.1-1.1,0.2-1.7,0.5c-0.3,0.1-0.7,0.3-1,0.6c-0.3,0.2-0.7,0.5-1,0.8c-0.3,0.3-0.6,0.7-0.9,1.1
		c-0.3,0.4-0.5,0.9-0.7,1.3c-0.4,1-0.7,2-0.8,3c-0.1,0.5-0.1,1-0.2,1.5c-0.1,0.5-0.1,0.9-0.1,1.3c0,0.4,0,0.7,0,1.1c0,0.4,0,0.7,0,1
		c0,0.5,0,0.8,0,0.8c0,1.2-1,2.2-2.2,2.2c-1.2,0-2.2-1-2.2-2.2C23.4,37.6,23.4,37.5,23.4,37.4z"/>
</g>
</svg>
