<?xml version="1.0" encoding="utf-8"?>
<!-- Generator: Adobe Illustrator 18.0.0, SVG Export Plug-In . SVG Version: 6.00 Build 0)  -->
<!DOCTYPE svg PUBLIC "-//W3C//DTD SVG 1.0//EN" "http://www.w3.org/TR/2001/REC-SVG-20010904/DTD/svg10.dtd">
<svg version="1.0" id="Layer_1" xmlns="http://www.w3.org/2000/svg" xmlns:xlink="http://www.w3.org/1999/xlink" x="0px" y="0px"
	 width="18px" height="18px" viewBox="0 0 18 18" enable-background="new 0 0 18 18" xml:space="preserve">
<g>
	<path fill="#F8F4F0" d="M9,0c4.9706964,0,9,4.0295534,9,9c0,4.9704533-4.0293036,9-9,9c-4.9707031,0-9-4.0295467-9-9
		C0,4.0295534,4.0292969,0,9,0"/>
</g>
<g opacity="0.6">
	<path fill="#446B52" d="M9,2c3.8660975,0,7,3.1340971,7,7c0,3.8659077-3.1339025,7-7,7c-3.8661027,0-7-3.1340923-7-7
		C2,5.1340971,5.1338973,2,9,2"/>
</g>
<g>
	<ellipse fill="#FFFFFF" cx="11.4448452" cy="7.8574262" rx="2.5371306" ry="2.3257029"/>
</g>
<g>
	<ellipse fill="#FFFFFF" cx="6.6027398" cy="8.0921049" rx="2.6027398" ry="2.0921052"/>
</g>
<g>
	<ellipse fill="#FFFFFF" cx="8.7516222" cy="5.985085" rx="2.4813559" ry="1.9850848"/>
</g>
<g>
	<path fill="#FFFFFF" d="M9,14c-0.2763672,0-0.5-0.2236328-0.5-0.5c0-1.2988281-1.3271484-2.9042969-2.4633789-3.8847656
		C5.8276367,9.4350586,5.8041992,9.1191406,5.9848633,8.9101562c0.1796875-0.2094727,0.4951172-0.2319336,0.7050781-0.0517578
		C8.0483398,10.0302734,9.5,11.8652344,9.5,13.5C9.5,13.7763672,9.2763672,14,9,14z"/>
</g>
<g>
	<path fill="#FFFFFF" d="M8.4404516,13.477397c0,0,0.0075483-0.1083975,0.0207596-0.2980928
		c0.0066051-0.0948477,0.0146255-0.2100201,0.0238256-0.3421297c0.00562-0.1264944,0.0341492-0.3044167,0.0539427-0.4785852
		c0.02244-0.1784554,0.0437183-0.3724527,0.0875778-0.5696478c0.0420837-0.1990671,0.0717125-0.4077072,0.138382-0.6243935
		c0.1095819-0.4320927,0.2736473-0.8922453,0.5007267-1.3342876c0.1232862-0.2173929,0.240942-0.438612,0.4018326-0.6354065
		C9.8130474,8.9906559,9.9920063,8.8107786,10.1670189,8.64256c0.1874523-0.1595669,0.3767395-0.3019724,0.5748339-0.4127274
		c0.1967077-0.1080027,0.3897991-0.2034569,0.5766115-0.2588482c0.3693256-0.1320295,0.6906757-0.1573982,0.9101095-0.1782031
		c0.2197533-0.0021048,0.3453264-0.0033078,0.3453264-0.0033078c0.2753811-0.0026374,0.5007591,0.2184639,0.503397,0.493845
		c0.0024929,0.2602749-0.1948814,0.4758835-0.4490461,0.5009804l-0.0543509,0.0051746c0,0-0.0913305,0.0087414-0.2511578,0.0240383
		c-0.1552658,0.0304823-0.3805418,0.0659761-0.6180077,0.1779604c-0.1227121,0.0458508-0.2420607,0.12286-0.3650179,0.2034779
		c-0.1228828,0.0825186-0.237915,0.1889143-0.3530531,0.3028221C10.880806,9.623662,10.769825,9.7504444,10.6806641,9.9050074
		c-0.1006994,0.1418858-0.1718245,0.3170176-0.2495832,0.4822187c-0.140358,0.3451672-0.2416677,0.71735-0.3008461,1.0814695
		c-0.0404348,0.1768999-0.0492659,0.3614864-0.0709057,0.5299635c-0.0240202,0.170269-0.0263033,0.3286686-0.0325785,0.4746475
		c-0.0037708,0.1505709-0.0178804,0.2691078-0.0128365,0.4075384c0.0019035,0.1324263,0.0035629,0.2478752,0.0049295,0.3429499
		c0.0027332,0.1901512,0.0042953,0.2988091,0.0042953,0.2988091c0.0062904,0.437583-0.3433418,0.7974129-0.7809248,0.8037033
		c-0.437583,0.0062895-0.7974129-0.3433418-0.8037033-0.7809248C8.4381971,13.5235634,8.4390287,13.4987946,8.4404516,13.477397z"/>
</g>
</svg>
