<?xml version="1.0" encoding="utf-8"?>
<!-- Generator: Adobe Illustrator 18.0.0, SVG Export Plug-In . SVG Version: 6.00 Build 0)  -->
<!DOCTYPE svg PUBLIC "-//W3C//DTD SVG 1.1//EN" "http://www.w3.org/Graphics/SVG/1.1/DTD/svg11.dtd">
<svg version="1.1" id="Layer_1" xmlns="http://www.w3.org/2000/svg" xmlns:xlink="http://www.w3.org/1999/xlink" x="0px" y="0px"
	 viewBox="0 0 50 50" enable-background="new 0 0 50 50" xml:space="preserve">
<g>
	<path fill="#F8F4F0" d="M25,15.2c5.4,0,9.8,4.4,9.8,9.8s-4.4,9.8-9.8,9.8s-9.8-4.4-9.8-9.8S19.6,15.2,25,15.2"/>
</g>
<g opacity="0.6">
	<path fill="#446B52" d="M25,15.3c5.4,0,9.7,4.3,9.7,9.7s-4.4,9.7-9.7,9.7s-9.7-4.4-9.7-9.7S19.6,15.3,25,15.3"/>
</g>
<g>
	<ellipse fill="#FFFFFF" cx="28.4" cy="23.4" rx="3.5" ry="3.2"/>
</g>
<g>
	<ellipse fill="#FFFFFF" cx="21.6" cy="23.8" rx="3.6" ry="2.9"/>
</g>
<g>
	<ellipse fill="#FFFFFF" cx="24.6" cy="20.8" rx="3.4" ry="2.8"/>
</g>
<g>
	<path fill="#FFFFFF" d="M25,32c-0.4,0-0.7-0.3-0.7-0.7c0-1.8-1.8-4-3.4-5.4c-0.3-0.2-0.3-0.7-0.1-1s0.7-0.3,1-0.1
		c1.9,1.7,3.9,4.2,3.9,6.5C25.7,31.6,25.4,32,25,32z"/>
</g>
<g>
	<path fill="#FFFFFF" d="M24.2,31.2c0,0,0-0.1,0-0.4c0-0.1,0-0.3,0-0.5c0-0.2,0.1-0.4,0.1-0.6c0.1-0.2,0.1-0.5,0.1-0.8
		s0.1-0.5,0.2-0.9c0.1-0.6,0.4-1.2,0.7-1.9c0.1-0.3,0.4-0.6,0.6-0.9c0.2-0.3,0.4-0.6,0.7-0.8s0.5-0.4,0.8-0.6
		c0.2-0.1,0.5-0.3,0.8-0.3c0.5-0.2,1-0.2,1.2-0.2c0.3,0,0.5,0,0.5,0c0.4,0,0.7,0.3,0.7,0.7c0,0.4-0.2,0.6-0.6,0.7H30
		c0,0-0.1,0-0.4,0.1s-0.5,0.1-0.9,0.2c-0.1,0.1-0.4,0.1-0.5,0.3c-0.1,0.1-0.4,0.2-0.5,0.4c-0.1,0.2-0.3,0.4-0.5,0.6
		C27.2,26.5,27,26.8,27,27c-0.2,0.5-0.4,1-0.4,1.5c0,0.2,0,0.5-0.1,0.8c-0.1,0.2-0.1,0.5-0.1,0.6c0,0.2,0,0.4,0,0.5
		c0,0.2,0,0.4,0,0.5c0,0.2,0,0.4,0,0.4c0,0.6-0.5,1.1-1.1,1.1S24.2,31.9,24.2,31.2C24.2,31.3,24.2,31.2,24.2,31.2z"/>
</g>
</svg>
