<?xml version="1.0" encoding="utf-8"?>
<!-- Generator: Adobe Illustrator 18.0.0, SVG Export Plug-In . SVG Version: 6.00 Build 0)  -->
<!DOCTYPE svg PUBLIC "-//W3C//DTD SVG 1.1//EN" "http://www.w3.org/Graphics/SVG/1.1/DTD/svg11.dtd">
<svg version="1.1" id="svg15460" xmlns:svg="http://www.w3.org/2000/svg"
	 xmlns="http://www.w3.org/2000/svg" xmlns:xlink="http://www.w3.org/1999/xlink" x="0px" y="0px" width="50px" height="50px"
	 viewBox="0 0 50 50" enable-background="new 0 0 50 50" xml:space="preserve">
<g>
	<path fill="#FFFFFF" d="M50,38.9c0,3.1-2.5,5.6-5.6,5.6H5.6c-3.1,0-5.6-2.5-5.6-5.6V11.1c0-3.1,2.5-5.6,5.6-5.6h38.9
		c3.1,0,5.6,2.5,5.6,5.6V38.9z"/>
</g>
<path opacity="0.7" fill="#46819B" d="M17.8,29.7l-9.4-9.4l9.2-9.2H8.3c-1.4,0-2.8,1.4-2.8,2.8v22.2c0,1.4,1.4,2.8,2.8,2.8h8.6
	L30,29.7H17.8z"/>
<path opacity="0.7" fill="#F02A10" enable-background="new    " d="M41.7,11.1h-10l-13.1,9.2h12.2l9.4,9.4l-9.2,9.2h10.6
	c1.4,0,2.8-1.4,2.8-2.8V13.9C44.4,12.5,43.1,11.1,41.7,11.1z"/>
<g id="path2582" opacity="0.7" enable-background="new    ">
	<path fill="#F02A10" d="M25.6,27.2c-0.6,0-0.6-0.3-0.8-0.6l-3.9-3.6h2.2c0.6,0,0.8,0.3,0.8,0.6l3.9,3.6H25.6z"/>
</g>
</svg>
