<?xml version="1.0" encoding="utf-8"?>
<!-- Generator: Adobe Illustrator 18.0.0, SVG Export Plug-In . SVG Version: 6.00 Build 0)  -->
<!DOCTYPE svg PUBLIC "-//W3C//DTD SVG 1.1//EN" "http://www.w3.org/Graphics/SVG/1.1/DTD/svg11.dtd">
<svg version="1.1" id="svg15460" xmlns:svg="http://www.w3.org/2000/svg"
	 xmlns="http://www.w3.org/2000/svg" xmlns:xlink="http://www.w3.org/1999/xlink" x="0px" y="0px" viewBox="-2.5 0 55 50"
	 enable-background="new -2.5 0 55 50" xml:space="preserve">
<g>
	<path fill="#F8F6F0" d="M52.6,40.3c0,3.4-2.8,6.2-6.2,6.2H3.6c-3.4,0-6.2-2.8-6.2-6.2V9.7c0-3.4,2.8-6.2,6.2-6.2h42.9
		c3.4,0,6.2,2.8,6.2,6.2v30.7H52.6z"/>
</g>
<path opacity="0.7" fill="#46819B" enable-background="new    " d="M17.1,30.2L6.7,19.8L16.8,9.7H6.6c-1.5,0-3.1,1.5-3.1,3.1v24.5
	c0,1.5,1.5,3.1,3.1,3.1h9.5l14.4-10.1H17.1z"/>
<path opacity="0.7" fill="#F02A10" enable-background="new    " d="M43.4,9.7h-11L17.9,19.8h13.5l10.4,10.4L31.6,40.3h11.7
	c1.5,0,3.1-1.5,3.1-3.1V12.8C46.4,11.2,45,9.7,43.4,9.7z"/>
<g id="path2582" opacity="0.7" enable-background="new    ">
	<path fill="#F02A10" d="M25.7,27.4c-0.7,0-0.7-0.3-0.9-0.7l-4.3-4h2.4c0.7,0,0.9,0.3,0.9,0.7l4.3,4H25.7z"/>
</g>
</svg>
