<?xml version="1.0" encoding="utf-8"?>
<!-- Generator: Adobe Illustrator 19.2.1, SVG Export Plug-In . SVG Version: 6.00 Build 0)  -->
<!DOCTYPE svg PUBLIC "-//W3C//DTD SVG 1.1//EN" "http://www.w3.org/Graphics/SVG/1.1/DTD/svg11.dtd">
<svg version="1.1" id="svg15460" xmlns:svg="http://www.w3.org/2000/svg"
	 xmlns="http://www.w3.org/2000/svg" xmlns:xlink="http://www.w3.org/1999/xlink" x="0px" y="0px" viewBox="0 0 32.13 25"
	 enable-background="new 0 0 32.13 25" xml:space="preserve">
<g>
	<path fill="#F8F6F0" d="M32.02,21.38c0,1.97-1.65,3.62-3.62,3.62H3.62C1.65,25,0,23.35,0,21.38V3.62C0,1.65,1.65,0,3.62,0h24.89
		c1.97,0,3.62,1.65,3.62,3.62v17.82h-0.05v-0.05L32.02,21.38L32.02,21.38z"/>
</g>
<path opacity="0.7" fill="#46819B" enable-background="new    " d="M11.44,15.53L5.38,9.47l5.85-5.85h-5.9
	c-0.85,0-1.81,0.85-1.81,1.81v14.2c0,0.85,0.85,1.81,1.81,1.81h5.53l8.35-5.85h-7.77V15.53z"/>
<path opacity="0.7" fill="#F02A10" enable-background="new    " d="M26.7,3.62h-6.38l-8.4,5.85h7.82l6.01,6.01l-5.9,5.85h6.81
	c0.85,0,1.81-0.85,1.81-1.81V5.42C28.4,4.47,27.61,3.62,26.7,3.62z"/>
<g id="path2582" opacity="0.7" enable-background="new    ">
	<path fill="#F02A10" d="M16.44,13.88c-0.43,0-0.43-0.16-0.53-0.43l-2.5-2.34h1.38c0.43,0,0.53,0.16,0.53,0.43l2.5,2.34H16.44z"/>
</g>
</svg>
