<?xml version="1.0" encoding="utf-8"?>
<!-- Generator: Adobe Illustrator 19.2.1, SVG Export Plug-In . SVG Version: 6.00 Build 0)  -->
<!DOCTYPE svg PUBLIC "-//W3C//DTD SVG 1.1//EN" "http://www.w3.org/Graphics/SVG/1.1/DTD/svg11.dtd">
<svg version="1.1" id="Layer_1" xmlns="http://www.w3.org/2000/svg" xmlns:xlink="http://www.w3.org/1999/xlink" x="0px" y="0px"
	 viewBox="0 0 19.4 19.4" enable-background="new 0 0 19.4 19.4" xml:space="preserve">
<path opacity="0.8" fill="#99918C" enable-background="new    " d="M9.7,0c5.4,0,9.7,4.3,9.7,9.7s-4.4,9.7-9.7,9.7S0,15.1,0,9.7
	S4.4,0,9.7,0"/>
<g>
	<path fill="#FFFFFF" d="M6.9,7.4c0.6,0,1.3-0.5,1.5-1.1l1-2.9c0.2-0.7,0.5-0.7,0.7,0l1,2.9c0.2,0.6,0.9,1,1.5,1.1h3.1
		c0.6,0,0.7,0.4,0.2,0.7l-2.4,1.8c-0.5,0.4-0.8,1.1-0.6,1.8l0.9,2.9c0.2,0.6-0.1,0.8-0.6,0.4l-2.5-1.7c-0.5-0.4-1.3-0.4-1.8,0
		l-2.6,1.8c-0.5,0.4-0.8,0.1-0.6-0.4l0.9-3c0.2-0.6-0.1-1.4-0.6-1.8L3.6,8.1C3.1,7.8,3.2,7.4,3.8,7.4H6.9z"/>
</g>
</svg>
