<?xml version="1.0" encoding="utf-8"?>
<!-- Generator: Adobe Illustrator 18.0.0, SVG Export Plug-In . SVG Version: 6.00 Build 0)  -->
<!DOCTYPE svg PUBLIC "-//W3C//DTD SVG 1.1//EN" "http://www.w3.org/Graphics/SVG/1.1/DTD/svg11.dtd">
<svg version="1.1" id="Layer_1" xmlns="http://www.w3.org/2000/svg" xmlns:xlink="http://www.w3.org/1999/xlink" x="0px" y="0px"
	 width="50px" height="50px" viewBox="-16 -16 50 50" enable-background="new -16 -16 50 50" xml:space="preserve">
<path opacity="0.8" fill="#99918C" enable-background="new    " d="M9-10.4c10.7,0,19.4,8.7,19.4,19.4c0,10.7-8.7,19.4-19.4,19.4
	c-10.7,0-19.4-8.7-19.4-19.4C-10.4-1.7-1.7-10.4,9-10.4"/>
<g>
	<path fill="#FFFFFF" d="M9,10.1l10.7-9.8c-0.2-0.1-0.5-0.1-0.7-0.1H-1c-0.3,0-0.5,0-0.7,0.1L9,10.1z"/>
	<path fill="#FFFFFF" d="M10.3,15.5C9.9,15.8,9.5,16,9,16s-0.9-0.2-1.3-0.5L-3.5,5.2v10.2c0,1.4,1.1,2.5,2.5,2.5h20
		c1.4,0,2.5-1.1,2.5-2.5V5.2L10.3,15.5z"/>
</g>
</svg>
