<?xml version="1.0" encoding="utf-8"?>
<!-- Generator: Adobe Illustrator 19.2.1, SVG Export Plug-In . SVG Version: 6.00 Build 0)  -->
<!DOCTYPE svg PUBLIC "-//W3C//DTD SVG 1.1//EN" "http://www.w3.org/Graphics/SVG/1.1/DTD/svg11.dtd">
<svg version="1.1" id="Layer_1" xmlns="http://www.w3.org/2000/svg" xmlns:xlink="http://www.w3.org/1999/xlink" x="0px" y="0px"
	 viewBox="0 0 19.4 19.4" enable-background="new 0 0 19.4 19.4" xml:space="preserve">
<path opacity="0.8" fill="#99918C" enable-background="new    " d="M9.7,0c5.4,0,9.7,4.3,9.7,9.7s-4.4,9.7-9.7,9.7S0,15.1,0,9.7
	S4.4,0,9.7,0"/>
<g>
	<path fill="#FFFFFF" d="M9.7,10.3l5.4-4.9c-0.1-0.1-0.2-0.1-0.4-0.1h-10c-0.2,0-0.2,0-0.3,0.1L9.7,10.3z"/>
	<path fill="#FFFFFF" d="M10.3,12.9c-0.2,0.1-0.4,0.2-0.6,0.2S9.3,13,9.1,12.9L3.5,7.8v5.1c0,0.7,0.5,1.2,1.2,1.2h10
		c0.7,0,1.2-0.6,1.2-1.2V7.8L10.3,12.9z"/>
</g>
</svg>
