<?xml version="1.0" encoding="utf-8"?>
<!-- Generator: Adobe Illustrator 18.0.0, SVG Export Plug-In . SVG Version: 6.00 Build 0)  -->
<!DOCTYPE svg PUBLIC "-//W3C//DTD SVG 1.0//EN" "http://www.w3.org/TR/2001/REC-SVG-20010904/DTD/svg10.dtd">
<svg version="1.0" id="Layer_1" xmlns="http://www.w3.org/2000/svg" xmlns:xlink="http://www.w3.org/1999/xlink" x="0px" y="0px"
	 width="18px" height="18px" viewBox="0 0 18 18" enable-background="new 0 0 18 18" xml:space="preserve">
<path fill="#F8F4F0" d="M9,0c4.9706964,0,9,4.0295534,9,9c0,4.9704533-4.0293036,9-9,9c-4.9707031,0-9-4.0295467-9-9
	C0,4.0295534,4.0292969,0,9,0"/>
<path opacity="0.9" fill="#8F8483" d="M9,2c3.8660975,0,7,3.1340971,7,7c0,3.8659077-3.1339025,7-7,7c-3.8661027,0-7-3.1340923-7-7
	C2,5.1340971,5.1338973,2,9,2"/>
<g>
	<path fill="#FFFFFF" d="M9,9.3697414l3.6312981-3.3285284C12.5526943,6.0169139,12.4709148,6,12.3846149,6H5.6153846
		C5.5290856,6,5.4473057,6.0169139,5.3687015,6.041213L9,9.3697414z"/>
	<path fill="#FFFFFF" d="M9.4288616,11.1984673C9.3073921,11.3096075,9.1536961,11.3653851,9,11.3653851
		s-0.3073921-0.0557775-0.4288616-0.1669178L4.7692308,7.7133765v3.4404693C4.7692308,11.6192207,5.1500101,12,5.6153846,12
		h6.7692304c0.4653749,0,0.8461542-0.3807793,0.8461542-0.8461542V7.7133765L9.4288616,11.1984673z"/>
</g>
</svg>
