<?xml version="1.0" encoding="utf-8"?>
<!-- Generator: Adobe Illustrator 18.0.0, SVG Export Plug-In . SVG Version: 6.00 Build 0)  -->
<!DOCTYPE svg PUBLIC "-//W3C//DTD SVG 1.1//EN" "http://www.w3.org/Graphics/SVG/1.1/DTD/svg11.dtd">
<svg version="1.1" id="Layer_1" xmlns="http://www.w3.org/2000/svg" xmlns:xlink="http://www.w3.org/1999/xlink" x="0px" y="0px"
	 viewBox="0 0 50 50" enable-background="new 0 0 50 50" xml:space="preserve">
<path opacity="0.8" fill="#99918C" enable-background="new    " d="M9-0.7c5.4,0,9.7,4.3,9.7,9.7s-4.4,9.7-9.7,9.7S-0.7,14.4-0.7,9
	S3.7-0.7,9-0.7"/>
<g>
	<path fill="#FFFFFF" d="M9,9.6l5.4-4.9c-0.1-0.1-0.2-0.1-0.4-0.1H4c-0.2,0-0.2,0-0.3,0.1L9,9.6z"/>
	<path fill="#FFFFFF" d="M9.6,12.2c-0.2,0.1-0.4,0.2-0.6,0.2s-0.4-0.1-0.6-0.2L2.8,7.1v5.1c0,0.7,0.5,1.2,1.2,1.2h10
		c0.7,0,1.2-0.6,1.2-1.2V7.1L9.6,12.2z"/>
</g>
</svg>
