<?xml version="1.0" encoding="utf-8"?>
<!-- Generator: Adobe Illustrator 18.0.0, SVG Export Plug-In . SVG Version: 6.00 Build 0)  -->
<!DOCTYPE svg PUBLIC "-//W3C//DTD SVG 1.1//EN" "http://www.w3.org/Graphics/SVG/1.1/DTD/svg11.dtd">
<svg version="1.1" id="Layer_1" xmlns="http://www.w3.org/2000/svg" xmlns:xlink="http://www.w3.org/1999/xlink" x="0px" y="0px"
	 viewBox="0 0 50 50" enable-background="new 0 0 50 50" xml:space="preserve">
<path opacity="0.8" fill="#99918C" enable-background="new    " d="M9-0.7c5.4,0,9.7,4.3,9.7,9.7s-4.4,9.7-9.7,9.7S-0.7,14.4-0.7,9
	S3.7-0.7,9-0.7"/>
<g>
	<path fill="#FFFFFF" d="M6.2,6.7c0.6,0,1.3-0.5,1.5-1.1l1-2.9C8.9,2,9.2,2,9.4,2.7l1,2.9c0.2,0.6,0.9,1,1.5,1.1l3.1,0
		c0.6,0,0.7,0.4,0.2,0.7l-2.4,1.8c-0.5,0.4-0.8,1.1-0.6,1.8l0.9,2.9c0.2,0.6-0.1,0.8-0.6,0.4L10,12.6c-0.5-0.4-1.3-0.4-1.8,0
		l-2.6,1.8c-0.5,0.4-0.8,0.1-0.6-0.4L5.9,11c0.2-0.6-0.1-1.4-0.6-1.8L2.9,7.4C2.4,7.1,2.5,6.7,3.1,6.7L6.2,6.7z"/>
</g>
</svg>
