<?xml version="1.0" encoding="utf-8"?>
<!-- Generator: Adobe Illustrator 18.0.0, SVG Export Plug-In . SVG Version: 6.00 Build 0)  -->
<!DOCTYPE svg PUBLIC "-//W3C//DTD SVG 1.1//EN" "http://www.w3.org/Graphics/SVG/1.1/DTD/svg11.dtd">
<svg version="1.1" id="Layer_1" xmlns="http://www.w3.org/2000/svg" xmlns:xlink="http://www.w3.org/1999/xlink" x="0px" y="0px"
	 width="50px" height="50px" viewBox="-16 -16 50 50" enable-background="new -16 -16 50 50" xml:space="preserve">
<path opacity="0.8" fill="#99918C" enable-background="new    " d="M9-10.4c10.7,0,19.4,8.7,19.4,19.4c0,10.7-8.7,19.4-19.4,19.4
	c-10.7,0-19.4-8.7-19.4-19.4C-10.4-1.7-1.7-10.4,9-10.4"/>
<g>
	<path fill="#FFFFFF" d="M3.3,4.3c1.2,0,2.6-1,3-2.2l2-5.8c0.4-1.2,1.1-1.2,1.5,0l2,5.8c0.4,1.2,1.7,2.1,3,2.2l6.2,0.1
		c1.2,0,1.4,0.7,0.5,1.4l-4.9,3.7c-1,0.7-1.5,2.3-1.1,3.5l1.8,5.9c0.4,1.2-0.2,1.6-1.2,0.9l-5.1-3.5c-1-0.7-2.7-0.7-3.7,0l-5.1,3.5
		c-1,0.7-1.5,0.3-1.2-0.9l1.8-5.9c0.4-1.2-0.2-2.7-1.1-3.5l-4.9-3.7c-1-0.7-0.8-1.4,0.5-1.4L3.3,4.3z"/>
</g>
</svg>
