<?xml version="1.0" encoding="utf-8"?>
<!-- Generator: Adobe Illustrator 19.2.1, SVG Export Plug-In . SVG Version: 6.00 Build 0)  -->
<!DOCTYPE svg PUBLIC "-//W3C//DTD SVG 1.1//EN" "http://www.w3.org/Graphics/SVG/1.1/DTD/svg11.dtd">
<svg version="1.1" id="Layer_1" xmlns="http://www.w3.org/2000/svg" xmlns:xlink="http://www.w3.org/1999/xlink" x="0px" y="0px"
	 viewBox="0 0 25 25" enable-background="new 0 0 25 25" xml:space="preserve">
<path opacity="0.8" fill="#AA9561" enable-background="new    " d="M25,12.5C25,19.39,19.39,25,12.5,25S0,19.39,0,12.5
	S5.61,0,12.5,0S25,5.61,25,12.5"/>
<path fill="#F8F6F0" d="M15.59,15.98c0.84,0,1.55-0.64,1.55-1.42V6.7c0-0.77-0.71-1.42-1.55-1.42H9.4c-0.84,0-1.55,0.64-1.55,1.42
	v7.86c0,0.77,0.71,1.42,1.55,1.42l-2.32,4.57H9.4l1.55-3.09h3.09l1.55,3.09h2.32L15.59,15.98z M9.41,7.6c0-0.45,0.32-0.77,0.77-0.77
	h4.57c0.45,0,0.77,0.32,0.77,0.77v1.55c0,0.45-0.32,0.77-0.77,0.77h-4.57c-0.45,0-0.77-0.32-0.77-0.77C9.41,9.15,9.41,7.6,9.41,7.6z
	"/>
<circle opacity="0.8" fill="#AA9561" enable-background="new    " cx="12.5" cy="12.95" r="1.35"/>
</svg>
