<?xml version="1.0" encoding="utf-8"?>
<!-- Generator: Adobe Illustrator 19.2.1, SVG Export Plug-In . SVG Version: 6.00 Build 0)  -->
<!DOCTYPE svg PUBLIC "-//W3C//DTD SVG 1.1//EN" "http://www.w3.org/Graphics/SVG/1.1/DTD/svg11.dtd">
<svg version="1.1" id="Layer_1" xmlns="http://www.w3.org/2000/svg" xmlns:xlink="http://www.w3.org/1999/xlink" x="0px" y="0px"
	 viewBox="0 0 25 25" enable-background="new 0 0 25 25" xml:space="preserve">
<path opacity="0.7" fill="#46819B" enable-background="new    " d="M25,12.5C25,19.39,19.39,25,12.5,25S0,19.39,0,12.5
	S5.61,0,12.5,0S25,5.61,25,12.5"/>
<path fill="#F8F6F0" d="M12.5,3.8c-3.74,0-6.77,2.96-6.77,6.64v7.47c0,0.52,0.45,0.97,1.03,0.97h11.47c0.58,0,1.03-0.45,1.03-0.97
	v-7.47C19.27,6.77,16.24,3.8,12.5,3.8z M9.09,16.75c-0.64,0-1.16-0.52-1.16-1.16c0-0.64,0.52-1.16,1.16-1.16
	c0.64,0,1.16,0.52,1.16,1.16C10.25,16.23,9.73,16.75,9.09,16.75z M11.73,12.89H7.99v-2.26c0-2.19,1.55-3.99,3.61-4.45
	c0.06,0,0.13,0,0.13,0V12.89z M15.91,16.75c-0.64,0-1.16-0.52-1.16-1.16c0-0.64,0.52-1.16,1.16-1.16s1.16,0.52,1.16,1.16
	C17.01,16.24,16.49,16.75,15.91,16.75z M17.01,12.89h-3.74v-6.7c2.13,0.38,3.74,2.19,3.74,4.44V12.89z"/>
</svg>
