<?xml version="1.0" encoding="utf-8"?>
<!-- Generator: Adobe Illustrator 18.0.0, SVG Export Plug-In . SVG Version: 6.00 Build 0)  -->
<!DOCTYPE svg PUBLIC "-//W3C//DTD SVG 1.1//EN" "http://www.w3.org/Graphics/SVG/1.1/DTD/svg11.dtd">
<svg version="1.1" id="Layer_1" xmlns="http://www.w3.org/2000/svg" xmlns:xlink="http://www.w3.org/1999/xlink" x="0px" y="0px"
	 width="50px" height="50px" viewBox="-16 -16 50 50" enable-background="new -16 -16 50 50" xml:space="preserve">
<path opacity="0.7" fill="#46819B" enable-background="new    " d="M28.4,9c0,10.7-8.7,19.4-19.4,19.4S-10.4,19.7-10.4,9
	c0-10.7,8.7-19.4,19.4-19.4S28.4-1.7,28.4,9"/>
<path fill="#F8F6F0" d="M9-4.5C3.2-4.5-1.5,0.1-1.5,5.8v11.6c0,0.8,0.7,1.5,1.6,1.5h17.8c0.9,0,1.6-0.7,1.6-1.5V5.8
	C19.5,0.1,14.8-4.5,9-4.5z M3.7,15.6c-1,0-1.8-0.8-1.8-1.8c0-1,0.8-1.8,1.8-1.8c1,0,1.8,0.8,1.8,1.8C5.5,14.8,4.7,15.6,3.7,15.6z
	 M7.8,9.6H2V6.1c0-3.4,2.4-6.2,5.6-6.9c0.1,0,0.2,0,0.2,0V9.6z M14.3,15.6c-1,0-1.8-0.8-1.8-1.8c0-1,0.8-1.8,1.8-1.8
	c1,0,1.8,0.8,1.8,1.8C16,14.8,15.2,15.6,14.3,15.6z M16,9.6h-5.8V-0.8C13.5-0.2,16,2.6,16,6.1V9.6z"/>
</svg>
