<?xml version="1.0" encoding="utf-8"?>
<!-- Generator: Adobe Illustrator 18.0.0, SVG Export Plug-In . SVG Version: 6.00 Build 0)  -->
<!DOCTYPE svg PUBLIC "-//W3C//DTD SVG 1.1//EN" "http://www.w3.org/Graphics/SVG/1.1/DTD/svg11.dtd">
<svg version="1.1" id="Layer_1" xmlns="http://www.w3.org/2000/svg" xmlns:xlink="http://www.w3.org/1999/xlink" x="0px" y="0px"
	 width="50px" height="50px" viewBox="-16 -16 50 50" enable-background="new -16 -16 50 50" xml:space="preserve">
<path opacity="0.8" fill="#AA9561" enable-background="new    " d="M28.4,9c0,10.7-8.7,19.4-19.4,19.4S-10.4,19.7-10.4,9
	c0-10.7,8.7-19.4,19.4-19.4S28.4-1.7,28.4,9"/>
<path fill="#F8F6F0" d="M13.8,14.4c1.3,0,2.4-1,2.4-2.2V0c0-1.2-1.1-2.2-2.4-2.2H4.2c-1.3,0-2.4,1-2.4,2.2v12.2
	c0,1.2,1.1,2.2,2.4,2.2l-3.6,7.1h3.6l2.4-4.8h4.8l2.4,4.8h3.6L13.8,14.4z M4.2,1.4c0-0.7,0.5-1.2,1.2-1.2h7.1c0.7,0,1.2,0.5,1.2,1.2
	v2.4c0,0.7-0.5,1.2-1.2,1.2H5.4c-0.7,0-1.2-0.5-1.2-1.2V1.4z"/>
<circle opacity="0.8" fill="#AA9561" enable-background="new    " cx="9" cy="9.7" r="2.1"/>
</svg>
