<?xml version="1.0" encoding="utf-8"?>
<!-- Generator: Adobe Illustrator 18.0.0, SVG Export Plug-In . SVG Version: 6.00 Build 0)  -->
<!DOCTYPE svg PUBLIC "-//W3C//DTD SVG 1.1//EN" "http://www.w3.org/Graphics/SVG/1.1/DTD/svg11.dtd">
<svg version="1.1" id="Layer_1" xmlns="http://www.w3.org/2000/svg" xmlns:xlink="http://www.w3.org/1999/xlink" x="0px" y="0px"
	 viewBox="0 0 50 50" enable-background="new 0 0 50 50" xml:space="preserve">
<path opacity="0.8" fill="#99918C" enable-background="new    " d="M9-0.7c5.4,0,9.7,4.3,9.7,9.7s-4.4,9.7-9.7,9.7S-0.7,14.4-0.7,9
	S3.7-0.7,9-0.7"/>
<g>
	<path fill="#FFFFFF" d="M11.8,4.7c0.1,0.6,0.6,1.1,1.1,1.1l0.9,0c0.6,0.1,0.6,0.2,0.1,0.5l-0.9,0.3c-0.6,0.2-0.8,0.9-0.7,1.4
		l0.2,0.9c0.1,0.6-0.1,0.7-0.4,0.2l-0.6-0.7C11.2,8.1,10.5,8,10,8.3L9.2,8.8C8.7,9.1,8.5,9,8.9,8.5l0.5-0.8c0.3-0.5,0.2-1.2-0.2-1.6
		L8.4,5.5C7.9,5.2,8.1,4.9,8.6,5.1l0.9,0.2c0.6,0.1,1.2-0.2,1.4-0.7l0.4-0.8c0.2-0.5,0.4-0.5,0.4,0L11.8,4.7z"/>
</g>
<path fill="#FFFFFF" d="M6.2,3.3C5.7,3.6,5.1,4.1,4.6,4.6C2,7,2,11,4.6,13.4c1.2,1.2,2.8,1.9,4.4,1.9s3.2-0.6,4.4-1.9
	c0.5-0.5,0.9-1.1,1.2-1.8c-0.1,0.1-0.1,0.2-0.2,0.2c-1,1-2.3,1.6-3.8,1.6l0,0c-1.6,0-3.2-0.6-4.4-1.9C4,9.4,3.8,5.8,6,3.5
	C6.1,3.5,6.2,3.4,6.2,3.3z"/>
</svg>
