<?xml version="1.0" encoding="utf-8"?>
<!-- Generator: Adobe Illustrator 18.0.0, SVG Export Plug-In . SVG Version: 6.00 Build 0)  -->
<!DOCTYPE svg PUBLIC "-//W3C//DTD SVG 1.1//EN" "http://www.w3.org/Graphics/SVG/1.1/DTD/svg11.dtd">
<svg version="1.1" id="Layer_1" xmlns="http://www.w3.org/2000/svg" xmlns:xlink="http://www.w3.org/1999/xlink" x="0px" y="0px"
	 width="50px" height="50px" viewBox="-16 -16 50 50" enable-background="new -16 -16 50 50" xml:space="preserve">
<path opacity="0.8" fill="#99918C" enable-background="new    " d="M9-10.4c10.7,0,19.4,8.7,19.4,19.4c0,10.7-8.7,19.4-19.4,19.4
	c-10.7,0-19.4-8.7-19.4-19.4C-10.4-1.7-1.7-10.4,9-10.4"/>
<g>
	<path fill="#FFFFFF" d="M9-2.6l10.3,17.8H-1.3L9-2.6 M9-5.4c-0.5,0-1,0.3-1.4,1L-3.5,14.9c-0.8,1.3-0.1,2.4,1.4,2.4h22.2
		c1.5,0,2.2-1.1,1.4-2.4L10.4-4.4C10-5,9.5-5.4,9-5.4L9-5.4z"/>
	<path fill="#FFFFFF" d="M19.3,2.8L9,20.6L-1.3,2.8H19.3 M20.1,0.7H-2.1c-1.5,0-2.2,1.1-1.4,2.4L7.6,22.4c0.4,0.7,0.9,1,1.4,1
		s1-0.3,1.4-1L21.5,3.1C22.3,1.8,21.6,0.7,20.1,0.7L20.1,0.7z"/>
</g>
</svg>
