<?xml version="1.0" encoding="utf-8"?>
<!-- Generator: Adobe Illustrator 19.2.1, SVG Export Plug-In . SVG Version: 6.00 Build 0)  -->
<!DOCTYPE svg PUBLIC "-//W3C//DTD SVG 1.1//EN" "http://www.w3.org/Graphics/SVG/1.1/DTD/svg11.dtd">
<svg version="1.1" id="Layer_1" xmlns="http://www.w3.org/2000/svg" xmlns:xlink="http://www.w3.org/1999/xlink" x="0px" y="0px"
	 viewBox="0 0 19.4 19.4" enable-background="new 0 0 19.4 19.4" xml:space="preserve">
<path opacity="0.8" fill="#99918C" enable-background="new    " d="M9.7,0c5.4,0,9.7,4.3,9.7,9.7s-4.4,9.7-9.7,9.7S0,15.1,0,9.7
	S4.4,0,9.7,0"/>
<path fill="#FFFFFF" d="M10.4,15.6H9c-0.4,0-0.7-0.3-0.7-0.7V3.7C8.3,3.3,8.6,3,9,3h1.4c0.4,0,0.7,0.3,0.7,0.7V15
	C11.1,15.3,10.8,15.6,10.4,15.6z"/>
<path fill="#FFFFFF" d="M4.9,8.5V7.1c0-0.4,0.3-0.7,0.7-0.7H14c0.4,0,0.7,0.3,0.7,0.7v1.4c0,0.4-0.3,0.7-0.7,0.7H5.5
	C5.1,9.2,4.9,8.9,4.9,8.5z"/>
</svg>
