<?xml version="1.0" encoding="utf-8"?>
<!-- Generator: Adobe Illustrator 18.0.0, SVG Export Plug-In . SVG Version: 6.00 Build 0)  -->
<!DOCTYPE svg PUBLIC "-//W3C//DTD SVG 1.1//EN" "http://www.w3.org/Graphics/SVG/1.1/DTD/svg11.dtd">
<svg version="1.1" id="Layer_1" xmlns="http://www.w3.org/2000/svg" xmlns:xlink="http://www.w3.org/1999/xlink" x="0px" y="0px"
	 width="50px" height="50px" viewBox="0 0 50 50" enable-background="new 0 0 50 50" xml:space="preserve">
<path opacity="0.8" fill="#99918C" enable-background="new    " d="M9-10.4c10.7,0,19.4,8.7,19.4,19.4S19.7,28.4,9,28.4
	S-10.4,19.7-10.4,9S-1.7-10.4,9-10.4"/>
<path fill="#FFFFFF" d="M10.4,20.9H7.6c-0.8,0-1.4-0.6-1.4-1.4V-3.1c0-0.8,0.6-1.4,1.4-1.4h2.8c0.8,0,1.4,0.6,1.4,1.4v22.6
	C11.8,20.3,11.2,20.9,10.4,20.9z"/>
<path fill="#FFFFFF" d="M-0.7,6.6V3.8c0-0.8,0.6-1.4,1.4-1.4h16.7c0.8,0,1.4,0.6,1.4,1.4v2.8c0,0.8-0.6,1.4-1.4,1.4H0.7
	C-0.1,8-0.7,7.4-0.7,6.6z"/>
</svg>
