<?xml version="1.0" encoding="utf-8"?>
<!-- Generator: Adobe Illustrator 19.2.1, SVG Export Plug-In . SVG Version: 6.00 Build 0)  -->
<!DOCTYPE svg PUBLIC "-//W3C//DTD SVG 1.1//EN" "http://www.w3.org/Graphics/SVG/1.1/DTD/svg11.dtd">
<svg version="1.1" id="Layer_1" xmlns="http://www.w3.org/2000/svg" xmlns:xlink="http://www.w3.org/1999/xlink" x="0px" y="0px"
	 viewBox="0 0 19.4 19.4" enable-background="new 0 0 19.4 19.4" xml:space="preserve">
<path opacity="0.8" fill="#99918C" enable-background="new    " d="M9.7,0c5.4,0,9.7,4.3,9.7,9.7s-4.4,9.7-9.7,9.7S0,15.1,0,9.7
	S4.4,0,9.7,0"/>
<g>
	<path fill="#FFFFFF" d="M12.5,5.4c0.1,0.6,0.6,1.1,1.1,1.1h0.9c0.6,0.1,0.6,0.2,0.1,0.5l-0.9,0.3c-0.6,0.2-0.8,0.9-0.7,1.4l0.2,0.9
		c0.1,0.6-0.1,0.7-0.4,0.2l-0.6-0.7c-0.3-0.3-1-0.4-1.5-0.1L9.9,9.5C9.4,9.8,9.2,9.7,9.6,9.2l0.5-0.8c0.3-0.5,0.2-1.2-0.2-1.6
		L9.1,6.2C8.6,5.9,8.8,5.6,9.3,5.8L10.2,6c0.6,0.1,1.2-0.2,1.4-0.7L12,4.5c0.2-0.5,0.4-0.5,0.4,0L12.5,5.4z"/>
</g>
<path fill="#FFFFFF" d="M6.9,4C6.4,4.3,5.8,4.8,5.3,5.3c-2.6,2.4-2.6,6.4,0,8.8C6.5,15.3,8.1,16,9.7,16s3.2-0.6,4.4-1.9
	c0.5-0.5,0.9-1.1,1.2-1.8c-0.1,0.1-0.1,0.2-0.2,0.2c-1,1-2.3,1.6-3.8,1.6l0,0c-1.6,0-3.2-0.6-4.4-1.9c-2.2-2.1-2.4-5.7-0.2-8
	C6.8,4.2,6.9,4.1,6.9,4z"/>
</svg>
