<?xml version="1.0" encoding="utf-8"?>
<!-- Generator: Adobe Illustrator 18.0.0, SVG Export Plug-In . SVG Version: 6.00 Build 0)  -->
<!DOCTYPE svg PUBLIC "-//W3C//DTD SVG 1.0//EN" "http://www.w3.org/TR/2001/REC-SVG-20010904/DTD/svg10.dtd">
<svg version="1.0" id="Layer_1" xmlns="http://www.w3.org/2000/svg" xmlns:xlink="http://www.w3.org/1999/xlink" x="0px" y="0px"
	 width="18px" height="18px" viewBox="0 0 18 18" enable-background="new 0 0 18 18" xml:space="preserve">
<path fill="#F8F4F0" d="M9,0c4.9706964,0,9,4.0295534,9,9c0,4.9704533-4.0293036,9-9,9c-4.9707031,0-9-4.0295467-9-9
	C0,4.0295534,4.0292969,0,9,0"/>
<path opacity="0.4" fill="#C94300" d="M9,2c3.8660975,0,7,3.1340971,7,7c0,3.8659077-3.1339025,7-7,7c-3.8661027,0-7-3.1340923-7-7
	C2,5.1340971,5.1338973,2,9,2"/>
<g>
	<path fill="#FFFFFF" d="M11.0319767,5.9213138c0.0295477,0.4114404,0.390357,0.7722487,0.8017969,0.8017969l0.6732407,0.0483499
		c0.4114399,0.0295482,0.4353867,0.1807418,0.053215,0.3359857l-0.625349,0.2540259
		c-0.3821726,0.1552439-0.6138258,0.6098895-0.5147858,1.0103235l0.1620598,0.6552305
		c0.09904,0.4004335-0.0373535,0.4699297-0.3030968,0.1544352l-0.4348364-0.5162439
		c-0.2657442-0.3154936-0.769722-0.3953161-1.1199522-0.1773825l-0.573082,0.3566046
		C8.8009567,9.0623732,8.6927137,8.9541311,8.9106474,8.6039009l0.3566055-0.573082
		C9.4851866,7.6805887,9.405364,7.17661,9.0898695,6.9108667L8.5736256,6.4760303
		C8.258132,6.2102866,8.3276281,6.0738931,8.7280617,6.1729331l0.6552305,0.1620598
		c0.4004335,0.09904,0.8550797-0.1326137,1.0103235-0.5147858l0.2540255-0.6253486
		c0.1552439-0.3821721,0.3064375-0.3582253,0.3359861,0.053215L11.0319767,5.9213138z"/>
</g>
<path fill="#FFFFFF" d="M7.0349998,4.9000001c-0.46,0.2199998-0.8849998,0.52-1.2549996,0.8899999
	c-1.77,1.77-1.77,4.6549997,0,6.4250002c0.8599997,0.8549995,2,1.3249998,3.2149997,1.3249998s2.3550005-0.4700003,3.21-1.3249998
	c0.3699999-0.3699999,0.6700001-0.79,0.8900003-1.25c-0.0550003,0.0649996-0.1150007,0.125-0.1750002,0.1849995
	C12.1999998,11.875,11.2200003,12.2700005,10.165,12.2700005l0,0c-1.1449995,0-2.2849998-0.4800005-3.1199999-1.3150005
	C5.3699999,9.2799997,5.2849998,6.645,6.8449998,5.0749998C6.9099998,5.0149999,6.9699998,4.9549999,7.0349998,4.9000001z"/>
</svg>
