<?xml version="1.0" encoding="utf-8"?>
<!-- Generator: Adobe Illustrator 18.0.0, SVG Export Plug-In . SVG Version: 6.00 Build 0)  -->
<!DOCTYPE svg PUBLIC "-//W3C//DTD SVG 1.0//EN" "http://www.w3.org/TR/2001/REC-SVG-20010904/DTD/svg10.dtd">
<svg version="1.0" id="Layer_1" xmlns="http://www.w3.org/2000/svg" xmlns:xlink="http://www.w3.org/1999/xlink" x="0px" y="0px"
	 width="18px" height="18px" viewBox="0 0 18 18" enable-background="new 0 0 18 18" xml:space="preserve">
<path fill="#F8F4F0" d="M9,0c4.9706964,0,9,4.0295534,9,9c0,4.9704533-4.0293036,9-9,9c-4.9707031,0-9-4.0295467-9-9
	C0,4.0295534,4.0292969,0,9,0"/>
<path opacity="0.4" fill="#C94300" d="M9,2c3.8660975,0,7,3.1340971,7,7c0,3.8659077-3.1339025,7-7,7c-3.8661027,0-7-3.1340923-7-7
	C2,5.1340971,5.1338973,2,9,2"/>
<path fill="#FFFFFF" d="M9.5,14h-1C8.2238579,14,8,13.7761421,8,13.5V5c0-0.2761421,0.2238579-0.5,0.5-0.5h1
	C9.7761421,4.5,10,4.7238579,10,5v8.5C10,13.7761421,9.7761421,14,9.5,14z"/>
<path fill="#FFFFFF" d="M5.5,8.5v-1C5.5,7.2238579,5.7238574,7,6,7h6c0.2761421,0,0.5,0.2238579,0.5,0.5v1
	C12.5,8.7761421,12.2761421,9,12,9H6C5.7238574,9,5.5,8.7761421,5.5,8.5z"/>
</svg>
