<?xml version="1.0" encoding="utf-8"?>
<!-- Generator: Adobe Illustrator 18.0.0, SVG Export Plug-In . SVG Version: 6.00 Build 0)  -->
<!DOCTYPE svg PUBLIC "-//W3C//DTD SVG 1.1//EN" "http://www.w3.org/Graphics/SVG/1.1/DTD/svg11.dtd">
<svg version="1.1" id="Layer_1" xmlns="http://www.w3.org/2000/svg" xmlns:xlink="http://www.w3.org/1999/xlink" x="0px" y="0px"
	 viewBox="0 0 50 50" enable-background="new 0 0 50 50" xml:space="preserve">
<path opacity="0.8" fill="#99918C" enable-background="new    " d="M9-0.7c5.4,0,9.7,4.3,9.7,9.7s-4.4,9.7-9.7,9.7S-0.7,14.4-0.7,9
	S3.7-0.7,9-0.7"/>
<g>
	<path fill="#FFFFFF" d="M9,3.2l5.1,8.9H3.8L9,3.2 M9,1.8C8.8,1.8,8.5,2,8.3,2.3l-5.6,9.6c-0.4,0.6,0,1.2,0.7,1.2h11.1
		c0.8,0,1.1-0.6,0.7-1.2L9.7,2.3C9.5,2,9.2,1.8,9,1.8L9,1.8z"/>
	<path fill="#FFFFFF" d="M14.1,5.9L9,14.8L3.8,5.9H14.1 M14.6,4.8H3.5c-0.8,0-1.1,0.6-0.7,1.2l5.6,9.6C8.5,16,8.8,16.2,9,16.2
		s0.5-0.2,0.7-0.5l5.6-9.6C15.6,5.4,15.3,4.8,14.6,4.8L14.6,4.8z"/>
</g>
</svg>
