<?xml version="1.0" encoding="utf-8"?>
<!-- Generator: Adobe Illustrator 19.2.1, SVG Export Plug-In . SVG Version: 6.00 Build 0)  -->
<!DOCTYPE svg PUBLIC "-//W3C//DTD SVG 1.1//EN" "http://www.w3.org/Graphics/SVG/1.1/DTD/svg11.dtd">
<svg version="1.1" id="Layer_1" xmlns="http://www.w3.org/2000/svg" xmlns:xlink="http://www.w3.org/1999/xlink" x="0px" y="0px"
	 viewBox="0 0 19.4 19.4" enable-background="new 0 0 19.4 19.4" xml:space="preserve">
<path opacity="0.8" fill="#99918C" enable-background="new    " d="M9.7,0c5.4,0,9.7,4.3,9.7,9.7s-4.4,9.7-9.7,9.7S0,15.1,0,9.7
	S4.4,0,9.7,0"/>
<g>
	<path fill="#FFFFFF" d="M9.7,3.9l5.1,8.9H4.5L9.7,3.9 M9.7,2.5C9.5,2.5,9.2,2.7,9,3l-5.6,9.6c-0.4,0.6,0,1.2,0.7,1.2h11.1
		c0.8,0,1.1-0.6,0.7-1.2L10.4,3C10.2,2.7,9.9,2.5,9.7,2.5L9.7,2.5z"/>
	<path fill="#FFFFFF" d="M14.8,6.6l-5.1,8.9L4.5,6.6H14.8 M15.3,5.5H4.2c-0.8,0-1.1,0.6-0.7,1.2l5.6,9.6c0.1,0.4,0.4,0.6,0.6,0.6
		s0.5-0.2,0.7-0.5L16,6.8C16.3,6.1,16,5.5,15.3,5.5L15.3,5.5z"/>
</g>
</svg>
