<?xml version="1.0" encoding="utf-8"?>
<!-- Generator: Adobe Illustrator 18.0.0, SVG Export Plug-In . SVG Version: 6.00 Build 0)  -->
<!DOCTYPE svg PUBLIC "-//W3C//DTD SVG 1.1//EN" "http://www.w3.org/Graphics/SVG/1.1/DTD/svg11.dtd">
<svg version="1.1" id="Layer_1" xmlns="http://www.w3.org/2000/svg" xmlns:xlink="http://www.w3.org/1999/xlink" x="0px" y="0px"
	 width="50px" height="50px" viewBox="-16 -16 50 50" enable-background="new -16 -16 50 50" xml:space="preserve">
<path opacity="0.8" fill="#99918C" enable-background="new    " d="M9-10.4c10.7,0,19.4,8.7,19.4,19.4c0,10.7-8.7,19.4-19.4,19.4
	c-10.7,0-19.4-8.7-19.4-19.4C-10.4-1.7-1.7-10.4,9-10.4"/>
<g>
	<path fill="#FFFFFF" d="M14.6,0.4c0.1,1.1,1.1,2.1,2.2,2.2l1.9,0.1c1.1,0.1,1.2,0.5,0.1,0.9l-1.7,0.7c-1.1,0.4-1.7,1.7-1.4,2.8
		l0.5,1.8c0.3,1.1-0.1,1.3-0.8,0.4l-1.2-1.4C13.4,7.2,12,7,11,7.6l-1.6,1c-1,0.6-1.3,0.3-0.7-0.7l1-1.6c0.6-1,0.4-2.4-0.5-3.1L7.8,2
		C6.9,1.3,7.1,0.9,8.2,1.1l1.8,0.5c1.1,0.3,2.4-0.4,2.8-1.4l0.7-1.7c0.4-1.1,0.9-1,0.9,0.1L14.6,0.4z"/>
</g>
<path fill="#FFFFFF" d="M3.5-2.4C2.3-1.8,1.1-0.9,0.1,0.1C-4.9,5-4.9,13,0.1,17.9c2.4,2.4,5.6,3.7,8.9,3.7s6.5-1.3,8.9-3.7
	c1-1,1.9-2.2,2.5-3.5c-0.2,0.2-0.3,0.3-0.5,0.5c-2,2-4.7,3.1-7.7,3.1l0,0c-3.2,0-6.3-1.3-8.7-3.7C-1.1,9.8-1.3,2.5,3-1.9
	C3.2-2.1,3.4-2.2,3.5-2.4z"/>
</svg>
