<?xml version="1.0" encoding="utf-8"?>
<!-- Generator: Adobe Illustrator 18.0.0, SVG Export Plug-In . SVG Version: 6.00 Build 0)  -->
<!DOCTYPE svg PUBLIC "-//W3C//DTD SVG 1.1//EN" "http://www.w3.org/Graphics/SVG/1.1/DTD/svg11.dtd">
<svg version="1.1" id="Layer_1" xmlns="http://www.w3.org/2000/svg" xmlns:xlink="http://www.w3.org/1999/xlink" x="0px" y="0px"
	 viewBox="0 0 18 9" enable-background="new 0 0 18 9" xml:space="preserve">
<path fill="#F8F4F0" d="M9,4.5C9,2,6.9,0,4.5,0C2,0,0,2,0,4.5C0,6.9,2,9,4.5,9C7,9,9,7,9,4.5"/>
<path fill="#104E81" d="M8,4.5C8,2.5,6.4,1,4.5,1C2.6,1,1,2.5,1,4.5C1,6.4,2.6,8,4.5,8C6.5,8,8,6.5,8,4.5"/>
<path fill="#F8F4F0" d="M7.5,4.5c0,1.7-1.3,3-3,3s-3-1.3-3-3s1.3-3,3-3S7.5,2.9,7.5,4.5"/>
<polygon fill="#104E81" points="4.1,3.2 4.1,5.8 5.2,5.8 5.2,5.3 4.5,5.3 4.5,4.7 5.2,4.7 5.2,4.1 4.5,4.1 4.5,3.7 5.2,3.7 5.2,3.2 
	"/>
<path fill="#104E81" d="M5.6,3.2v2.6h0.5V5l0.4,0.2v0.6l0.5-0.4V5L6.5,4.5h0.4V3.7L6.5,3.2H6H5.6z M6.1,3.7h0.4v0.5L6.1,4.3V3.7z"/>
<path fill="#104E81" d="M2.5,3.2L2.5,3.2L2.2,3.7v1.7l0.4,0.4V5L3,5.6v0.2h0.7V5.6L3,4.5h0.7V4.1V3.2H2.5z M2.8,3.7h0.4L3,4.3H2.6
	L2.8,3.7z"/>
<path fill="#F8F4F0" d="M10.6,0C9.7,0,9,0.7,9,1.5v5.9C9,8.3,9.7,9,10.6,9h5.9C17.3,9,18,8.3,18,7.4V1.5C18,0.7,17.3,0,16.5,0H10.6z
	"/>
<path fill="#0079AC" d="M11.2,1C10.6,1,10,1.5,10,2.2v4.6C10,7.5,10.6,8,11.2,8h4.6C16.4,8,17,7.4,17,6.8V2.2C17,1.5,16.5,1,15.8,1
	H11.2z M11.2,1.5h4.6c0.4,0,0.7,0.3,0.7,0.7v4.6c0,0.4-0.3,0.7-0.7,0.7h-4.6c-0.4,0-0.7-0.3-0.7-0.7V2.2C10.5,1.8,10.8,1.5,11.2,1.5
	"/>
<path fill="#0079AC" d="M12.5,2C12.2,2,12,2.2,12,2.4V5c0,0.2,0.2,0.4,0.5,0.4l-0.8,1.5h0.8l0.5-1h1l0.5,1h0.8l-0.8-1.4
	c0.3,0,0.5-0.2,0.5-0.5V2.4C15,2.2,14.8,2,14.5,2H12.5z M12.8,2.5h1.5c0.2,0,0.2,0.1,0.2,0.3v0.5c0,0.2-0.1,0.3-0.2,0.3h-1.5
	c-0.1,0-0.2-0.1-0.2-0.3V2.8C12.5,2.6,12.6,2.5,12.8,2.5 M12.5,4H13v0.5h-0.5V4z M14,4h0.5v0.5H14V4z"/>
</svg>
