<?xml version="1.0" encoding="utf-8"?>
<!-- Generator: Adobe Illustrator 18.0.0, SVG Export Plug-In . SVG Version: 6.00 Build 0)  -->
<!DOCTYPE svg PUBLIC "-//W3C//DTD SVG 1.1//EN" "http://www.w3.org/Graphics/SVG/1.1/DTD/svg11.dtd">
<svg version="1.1" id="Layer_1" xmlns="http://www.w3.org/2000/svg" xmlns:xlink="http://www.w3.org/1999/xlink" x="0px" y="0px"
	 width="40px" height="20px" viewBox="0 0 40 20" enable-background="new 0 0 40 20" xml:space="preserve">
<path fill="#F8F4F0" d="M20,10c0-5.6-4.7-10-10-10C4.4,0,0,4.4,0,10c0,5.3,4.4,10,10,10S20,15.6,20,10"/>
<path fill="#104E81" d="M17.8,10c0-4.4-3.6-7.8-7.8-7.8S2.2,5.6,2.2,10c0,4.2,3.6,7.8,7.8,7.8C14.4,17.8,17.8,14.4,17.8,10"/>
<path fill="#F8F4F0" d="M16.7,10c0,3.8-2.9,6.7-6.7,6.7S3.3,13.8,3.3,10S6.2,3.3,10,3.3S16.7,6.4,16.7,10"/>
<polygon fill="#104E81" points="9.1,7.1 9.1,12.9 11.6,12.9 11.6,11.8 10,11.8 10,10.4 11.6,10.4 11.6,9.1 10,9.1 10,8.2 11.6,8.2 
	11.6,7.1 "/>
<path fill="#104E81" d="M12.4,7.1v5.8h1.1v-1.8l0.9,0.4v1.3l1.1-0.9v-0.9L14.4,10h0.9V8.2l-0.9-1.1h-1.1H12.4z M13.6,8.2h0.9v1.1
	l-0.9,0.2V8.2z"/>
<path fill="#104E81" d="M5.6,7.1L5.6,7.1L4.9,8.2V12l0.9,0.9v-1.8l0.9,1.3v0.4h1.6v-0.4L6.7,10h1.6V9.1v-2H5.6z M6.2,8.2h0.9
	L6.7,9.6H5.8L6.2,8.2z"/>
<path fill="#F8F4F0" d="M23.6,0c-2,0-3.6,1.6-3.6,3.3v13.1c0,2,1.6,3.6,3.6,3.6h13.1c1.8,0,3.3-1.6,3.3-3.6V3.3
	C40,1.6,38.4,0,36.7,0H23.6z"/>
<path fill="#0079AC" d="M24.9,2.2c-1.3,0-2.7,1.1-2.7,2.7v10.2c0,1.6,1.3,2.7,2.7,2.7h10.2c1.3,0,2.7-1.3,2.7-2.7V4.9
	c0-1.6-1.1-2.7-2.7-2.7H24.9z M24.9,3.3h10.2c0.9,0,1.6,0.7,1.6,1.6v10.2c0,0.9-0.7,1.6-1.6,1.6H24.9c-0.9,0-1.6-0.7-1.6-1.6V4.9
	C23.3,4,24,3.3,24.9,3.3"/>
<path fill="#0079AC" d="M27.8,4.4c-0.7,0-1.1,0.4-1.1,0.9v5.8c0,0.4,0.4,0.9,1.1,0.9L26,15.3h1.8l1.1-2.2h2.2l1.1,2.2H34l-1.8-3.1
	c0.7,0,1.1-0.4,1.1-1.1V5.3c0-0.4-0.4-0.9-1.1-0.9H27.8z M28.4,5.6h3.3c0.4,0,0.4,0.2,0.4,0.7v1.1C32.2,7.8,32,8,31.8,8h-3.3
	C28.2,8,28,7.8,28,7.3V6.2C27.8,5.8,28,5.6,28.4,5.6 M27.8,8.9h1.1V10h-1.1V8.9z M31.1,8.9h1.1V10h-1.1V8.9z"/>
</svg>
