<?xml version="1.0" encoding="utf-8"?>
<!-- Generator: Adobe Illustrator 18.0.0, SVG Export Plug-In . SVG Version: 6.00 Build 0)  -->
<!DOCTYPE svg PUBLIC "-//W3C//DTD SVG 1.0//EN" "http://www.w3.org/TR/2001/REC-SVG-20010904/DTD/svg10.dtd">
<svg version="1.0" id="Layer_1" xmlns="http://www.w3.org/2000/svg" xmlns:xlink="http://www.w3.org/1999/xlink" x="0px" y="0px"
	 width="6px" height="6px" viewBox="0 0 6 6" enable-background="new 0 0 6 6" xml:space="preserve">
<path fill="#F8F4F0" d="M3,3c0-0.8333333-0.6999998-1.5-1.5-1.5C0.6666667,1.5,0,2.1666667,0,3c0,0.8166666,0.6833333,1.5,1.5,1.5
	C2.3333335,4.5,3,3.8333335,3,3"/>
<path fill="#104E81" d="M2.6666667,3c0-0.6500001-0.55-1.1666666-1.1666667-1.1666666
	C0.8666667,1.8333334,0.3333333,2.3499999,0.3333333,3c0,0.6333334,0.5333333,1.166667,1.1666666,1.166667
	C2.1500001,4.166667,2.6666667,3.6500001,2.6666667,3"/>
<path fill="#F8F4F0" d="M2.5,3c0,0.5500002-0.4499998,1-1,1s-1-0.4499998-1-1s0.45-1,1-1S2.5,2.45,2.5,3"/>
<polygon fill="#104E81" points="1.3666667,2.5833333 1.3666667,3.4333334 1.7166667,3.4333334 1.7166667,3.2833333 1.5,3.2833333 
	1.5,3.0666666 1.7166667,3.0666666 1.7166667,2.8666668 1.5,2.8666668 1.5,2.7166667 1.7166667,2.7166667 1.7166667,2.5833333 "/>
<path fill="#104E81" d="M1.8666667,2.5833333v0.8500001h0.15V3.1500001l0.1499999,0.0833333v0.2L2.3166666,3.3V3.1500001
	L2.1500001,3H2.3V2.7166667L2.1500001,2.5833333H2H1.8666667z M2.0166669,2.7166667h0.1499999v0.1500001L2.0166669,2.9333334
	V2.7166667z"/>
<path fill="#104E81" d="M0.8333334,2.5833333L0.8333334,2.5833333L0.7166667,2.7166667v0.5666668l0.15,0.1333334V3.1500001
	L1,3.3500001v0.0666666h0.2166667V3.3500001L1,3h0.2166667V2.8666668V2.5833333H0.8333334z M0.9166667,2.7166667h0.1333334
	L1,2.9333334H0.85L0.9166667,2.7166667z"/>
<path fill="#F8F4F0" d="M3.5166669,1.5C3.2333333,1.5,3,1.7333333,3,2.0166667v1.9666667C3,4.2666669,3.2333333,4.5,3.5166669,4.5
	h1.9666667C5.7666674,4.5,6,4.2666669,6,3.9833333V2.0166667C6,1.7333333,5.7666664,1.5,5.4833336,1.5H3.5166669z"/>
<path fill="#0079AC" d="M3.7333333,1.8333334c-0.2166665,0-0.3999999,0.1833333-0.3999999,0.4v1.5333335
	c0,0.2166667,0.1833334,0.4000001,0.3999999,0.4000001h1.5333331c0.2166667,0,0.4000006-0.1833336,0.4000006-0.4000001V2.2333333
	c0-0.2166667-0.1833334-0.4-0.4000001-0.4H3.7333333z M3.7333333,2h1.5333331C5.4000006,2,5.5,2.0999999,5.5,2.2333333v1.5333335
	C5.5,3.9000001,5.4000006,4,5.2666669,4H3.7333336C3.6000004,4,3.5000005,3.9000001,3.5000005,3.7666669V2.2333333
	C3.5,2.0999999,3.6000001,2,3.7333333,2"/>
<path fill="#0079AC" d="M4.166667,2.1666667C4.0666666,2.1666667,4,2.2333333,4,2.3166666v0.8500001
	C4,3.25,4.0666666,3.3166666,4.166667,3.3166666l-0.2500002,0.5H4.166667l0.1666665-0.3333333H4.666667l0.1666665,0.3333333h0.25
	l-0.25-0.4833331C4.9333334,3.3333335,5,3.2666669,5,3.1833334V2.3166666c0-0.0833333-0.0666666-0.1499999-0.1666665-0.1499999
	H4.166667z M4.25,2.3333333h0.5c0.0500002,0,0.0833335,0.0333333,0.0833335,0.0833335v0.1666665
	c0,0.0500002-0.0333333,0.0833335-0.0833335,0.0833335h-0.5c-0.0499997,0-0.083333-0.0333333-0.083333-0.0833335V2.4166667
	C4.166667,2.3666666,4.2000003,2.3333333,4.25,2.3333333 M4.166667,2.8333335h0.1666665V3H4.166667V2.8333335z M4.666667,2.8333335
	h0.1666665V3H4.666667V2.8333335z"/>
</svg>
