<?xml version="1.0" encoding="utf-8"?>
<!-- Generator: Adobe Illustrator 18.0.0, SVG Export Plug-In . SVG Version: 6.00 Build 0)  -->
<!DOCTYPE svg PUBLIC "-//W3C//DTD SVG 1.0//EN" "http://www.w3.org/TR/2001/REC-SVG-20010904/DTD/svg10.dtd">
<svg version="1.0" id="Layer_1" xmlns="http://www.w3.org/2000/svg" xmlns:xlink="http://www.w3.org/1999/xlink" x="0px" y="0px"
	 width="36px" height="18px" viewBox="0 0 36 18" enable-background="new 0 0 36 18" xml:space="preserve">
<path fill="#F8F4F0" d="M27.000124,18.000248C22.0359554,18.000248,18,13.9640455,18,9.000124
	C18,4.0359588,22.0359554,0,27.000124,0S36,4.0359588,36,9.000124C36,13.9640455,31.9642925,18.000248,27.000124,18.000248"/>
<path opacity="0.7" fill="#006F4D" d="M27.000124,16.0002193c-3.8611526,0-7.0000973-3.1391888-7.0000973-7.0000954
	c0-3.8606501,3.1389446-7.0000963,7.0000973-7.0000963s6.9998493,3.1394465,6.9998493,7.0000963
	C33.9999733,12.8610306,30.8612766,16.0002193,27.000124,16.0002193"/>
<path fill="#FFFFFF" d="M25.4117527,6.1807384c0-0.5525074,0.5065556-1.0239143,1.3925686-1.0239143
	c1.5649719,0,2.9690399,0.6235089,3.8553028,1.570322V5.3257766c-1.0247116-0.7871609-2.3823833-1.3254681-3.8208523-1.3254681
	c-1.7258739,0-3.452446,0.9089622-3.452446,2.7268376c0,3.6367493,5.5010242,2.7217369,5.5010242,4.8965673
	c0,0.5756578-0.7456112,1.0127134-1.6889706,1.0127134c-1.5420227,0-2.9719944-0.6096582-3.8120537-1.8181744v1.8181744
	c0.8864613,0.7939615,2.4079819,1.3640194,3.8120537,1.3640194c2.5200348,0,3.91535-1.640173,3.91535-3.1821938
	C31.1137295,6.9976497,25.4117527,8.50527,25.4117527,6.1807384"/>
<path fill="#F8F4F0" d="M4.5,18C2.0185547,18,0,15.9812012,0,13.5v-9C0,2.0187988,2.0185547,0,4.5,0h9
	C15.9814453,0,18,2.0187988,18,4.5v9c0,2.4812012-2.0185547,4.5-4.5,4.5H4.5z"/>
<path opacity="0.7" fill="#104E81" d="M1.9997482,4.5c0-1.375,1.125-2.5,2.5-2.5h9c1.375,0,2.5,1.125,2.5,2.5v9
	c0,1.375-1.125,2.5-2.5,2.5h-9c-1.375,0-2.5-1.125-2.5-2.5V4.5z"/>
<path fill="#FFFFFF" d="M12.9487476,10.1875c-0.0043993-2.2529469,0.00805-5.9250464,0.00805-5.9250464L10.5817976,4.25v5.9375
	c-0.0049,0.9021034-0.7995501,1.5834999-1.5915499,1.5834999c-0.7915001,0-1.5883999-0.6813965-1.5829997-1.5834999
	c-0.0058999-2.1174469,0-5.9375,0-5.9375h-2.36695c0,0-0.00805,5.5884037-0.00805,5.9375
	c0,1.9790001,1.9790001,3.5625,3.9579997,3.5625C10.9697475,13.75,12.9487476,12.1665001,12.9487476,10.1875"/>
</svg>
