<?xml version="1.0" encoding="utf-8"?>
<!-- Generator: Adobe Illustrator 19.2.1, SVG Export Plug-In . SVG Version: 6.00 Build 0)  -->
<!DOCTYPE svg PUBLIC "-//W3C//DTD SVG 1.1//EN" "http://www.w3.org/Graphics/SVG/1.1/DTD/svg11.dtd">
<svg version="1.1"
	 id="svg1923" inkscape:version="0.41.1" sodipodi:docbase="/home/molotov/images/wikipedia/svg" sodipodi:docname="Bart-logo.svg" sodipodi:version="0.32" xmlns:cc="http://web.resource.org/cc/" xmlns:dc="http://purl.org/dc/elements/1.1/" xmlns:inkscape="http://www.inkscape.org/namespaces/inkscape" xmlns:rdf="http://www.w3.org/1999/02/22-rdf-syntax-ns#" xmlns:sodipodi="http://inkscape.sourceforge.net/DTD/sodipodi-0.dtd" xmlns:svg="http://www.w3.org/2000/svg"
	 xmlns="http://www.w3.org/2000/svg" xmlns:xlink="http://www.w3.org/1999/xlink" x="0px" y="0px" viewBox="0 0 36.51 25"
	 enable-background="new 0 0 36.51 25" xml:space="preserve">
<sodipodi:namedview  bordercolor="#666666" borderopacity="1.0" gridtolerance="10.0" guidetolerance="10.0" height="120px" id="base" inkscape:current-layer="svg1923" inkscape:cx="95.000000" inkscape:cy="60.000001" inkscape:pageopacity="0.0" inkscape:pageshadow="2" inkscape:window-height="783" inkscape:window-width="1014" inkscape:window-x="20" inkscape:window-y="22" inkscape:zoom="4.8526316" objecttolerance="10.0" pagecolor="#ffffff" width="190px">
	</sodipodi:namedview>
<path fill="#F8F4F0" d="M24.13,24.78c-2.5,0-4.29-0.54-6.03-1.58l-1.09-0.71L14.29,20l0.92-9.46c0.22-2.28,2.28-3.42,3.42-3.75
	c2.17-1.03,3.53-1.25,5.71-1.25c0.22,0,12.17,0,12.17,0V15v9.78h-11.4C25,24.78,24.29,24.78,24.13,24.78z"/>
<path fill="#F8F4F0" d="M12.88,25c-0.71,0-1.58,0-2.28-0.22H0V12.17V0h12.17v5c0.33,0,0.71,0,0.92,0c1.03,0,1.96,0.22,2.72,0.33
	c3.75,0.92,6.58,3.04,7.72,5.71c0,0.22,0.22,0.22,0.22,0.33c0.33,0.71,0.92,1.79,0.71,3.75c-0.22,3.75-1.58,6.58-4.67,8.04
	C17.66,24.29,15.16,25,12.88,25z"/>
<path id="path1885" fill="#666666" d="M3.59,3.53v8.42v9.08h1.96h2.83v-0.92c0.22-0.54,0.22,0,0.71,0.33
	c0.22,0.22,1.25,0.33,1.79,0.54c2.28,0.54,5,0,7.17-1.03c1.96-1.03,2.72-2.83,2.72-5.22c0-1.47-0.33-1.79-0.71-2.72
	c-0.71-1.79-2.72-3.04-5.22-3.53c-1.25-0.22-3.53,0-4.67,0.33C9.63,9.03,8.92,9.35,8.38,9.52V6.3V3.53H5.71H3.59z M12.66,11.58
	c1.03,0,2.28,0.33,3.21,1.25c1.25,1.47,0.54,4.08-1.03,5.22c-2.28,1.25-4.78,0-5.22-2.72C9.29,13.21,10.92,11.58,12.66,11.58z"/>
<path id="path1889" fill="#0083D2" d="M24.46,9.08c-1.96,0-2.72,0.22-4.29,0.92c-0.92,0.33-1.25,0.71-1.47,0.92l-0.71,7.83
	l1.03,1.03l0.71,0.54c1.25,0.92,2.72,1.03,4.78,1.03c1.58,0,1.96-0.22,2.83-0.54c0.54-0.22,0.92-0.33,0.92,0v0.54h2.5h2.17v-6.14
	V9.07h-1.96h-2.72v0.71C26.79,9.08,26.25,9.08,24.46,9.08z M24.46,11.58c0.54,0,0.92,0.22,1.47,0.33c1.25,0.54,1.96,1.47,2.17,2.72
	c0.22,1.47-0.71,3.04-2.17,3.75c-2.17,0.92-4.46-0.33-5-2.83c-0.22-1.25,0.71-3.04,2.17-3.53C23.59,11.58,24.13,11.58,24.46,11.58z"
	/>
</svg>
