<?xml version="1.0" encoding="utf-8"?>
<!-- Generator: Adobe Illustrator 18.0.0, SVG Export Plug-In . SVG Version: 6.00 Build 0)  -->
<!DOCTYPE svg PUBLIC "-//W3C//DTD SVG 1.1//EN" "http://www.w3.org/Graphics/SVG/1.1/DTD/svg11.dtd">
<svg version="1.1"
	 id="svg1923" xmlns:svg="http://www.w3.org/2000/svg" xmlns:sodipodi="http://inkscape.sourceforge.net/DTD/sodipodi-0.dtd" xmlns:inkscape="http://www.inkscape.org/namespaces/inkscape" xmlns:cc="http://web.resource.org/cc/" xmlns:dc="http://purl.org/dc/elements/1.1/" xmlns:rdf="http://www.w3.org/1999/02/22-rdf-syntax-ns#" inkscape:version="0.41.1" sodipodi:version="0.32" sodipodi:docname="Bart-logo.svg" sodipodi:docbase="/home/molotov/images/wikipedia/svg"
	 xmlns="http://www.w3.org/2000/svg" xmlns:xlink="http://www.w3.org/1999/xlink" x="0px" y="0px" width="74px" height="50px"
	 viewBox="0 0 74 50" enable-background="new 0 0 74 50" xml:space="preserve">
<sodipodi:namedview  height="120px" width="190px" objecttolerance="10.0" guidetolerance="10.0" inkscape:zoom="4.8526316" inkscape:cy="60.000001" borderopacity="1.0" pagecolor="#ffffff" bordercolor="#666666" gridtolerance="10.0" inkscape:cx="95.000000" id="base" inkscape:window-y="22" inkscape:window-x="20" inkscape:window-height="783" inkscape:window-width="1014" inkscape:current-layer="svg1923" inkscape:pageshadow="2" inkscape:pageopacity="0.0">
	</sodipodi:namedview>
<path fill="#F8F4F0" d="M48,46.6c-4.6,0-7.9-1-11.1-2.9l-2-1.3l-5-4.6l1.7-17.4c0.4-4.2,4.2-6.3,6.3-6.9c4-1.9,6.5-2.3,10.5-2.3
	c0.4,0,22.4,0,22.4,0v17.4v18h-21C49.6,46.6,48.3,46.6,48,46.6z"/>
<path fill="#F8F4F0" d="M27.3,47c-1.3,0-2.9,0-4.2-0.4H3.6V23.4V1H26v9.2c0.6,0,1.3,0,1.7,0c1.9,0,3.6,0.4,5,0.6
	c6.9,1.7,12.1,5.6,14.2,10.5c0,0.4,0.4,0.4,0.4,0.6c0.6,1.3,1.7,3.3,1.3,6.9c-0.4,6.9-2.9,12.1-8.6,14.8C36.1,45.7,31.5,47,27.3,47z
	"/>
<path id="path1885" fill="#666666" d="M10.2,7.5V23v16.7h3.6H19v-1.7c0.4-1,0.4,0,1.3,0.6c0.4,0.4,2.3,0.6,3.3,1
	c4.2,1,9.2,0,13.2-1.9c3.6-1.9,5-5.2,5-9.6c0-2.7-0.6-3.3-1.3-5c-1.3-3.3-5-5.6-9.6-6.5c-2.3-0.4-6.5,0-8.6,0.6
	c-1,0.4-2.3,1-3.3,1.3v-5.9V7.5h-4.9H10.2z M26.9,22.3c1.9,0,4.2,0.6,5.9,2.3c2.3,2.7,1,7.5-1.9,9.6c-4.2,2.3-8.8,0-9.6-5
	C20.7,25.3,23.7,22.3,26.9,22.3z"/>
<path id="path1889" fill="#0083D2" d="M48.6,17.7c-3.6,0-5,0.4-7.9,1.7c-1.7,0.6-2.3,1.3-2.7,1.7l-1.3,14.4l1.9,1.9l1.3,1
	c2.3,1.7,5,1.9,8.8,1.9c2.9,0,3.6-0.4,5.2-1c1-0.4,1.7-0.6,1.7,0v1h4.6h4V29V17.7h-3.6h-5V19C52.9,17.7,51.9,17.7,48.6,17.7z
	 M48.6,22.3c1,0,1.7,0.4,2.7,0.6c2.3,1,3.6,2.7,4,5c0.4,2.7-1.3,5.6-4,6.9c-4,1.7-8.2-0.6-9.2-5.2c-0.4-2.3,1.3-5.6,4-6.5
	C47,22.3,48,22.3,48.6,22.3z"/>
</svg>
