<?xml version="1.0" encoding="utf-8"?>
<!-- Generator: Adobe Illustrator 18.0.0, SVG Export Plug-In . SVG Version: 6.00 Build 0)  -->
<!DOCTYPE svg PUBLIC "-//W3C//DTD SVG 1.1//EN" "http://www.w3.org/Graphics/SVG/1.1/DTD/svg11.dtd">
<svg version="1.1" id="Layer_1" xmlns="http://www.w3.org/2000/svg" xmlns:xlink="http://www.w3.org/1999/xlink" x="0px" y="0px"
	 width="50px" height="50px" viewBox="-16 -16 50 50" enable-background="new -16 -16 50 50" xml:space="preserve">
<path opacity="0.8" fill="#99918C" enable-background="new    " d="M9-10.4c10.7,0,19.4,8.7,19.4,19.4c0,10.7-8.7,19.4-19.4,19.4
	c-10.7,0-19.4-8.7-19.4-19.4C-10.4-1.7-1.7-10.4,9-10.4"/>
<g>
	<g>
		<g id="XMLID_1_">
			<g>
				<path fill="#FFFFFF" d="M16.5-0.6l1.8,1.8c1,1,1,2.6,0,3.6l-11,11c-1,1-2.9,2-4.3,2.3l-3.9,0.5l0.5-3.9c0.3-1.4,1.3-3.3,2.3-4.3
					l11-11C13.9-1.6,15.5-1.6,16.5-0.6z"/>
			</g>
			<g>
				<path fill="none" stroke="#FFFFFF" stroke-miterlimit="10" d="M3,18.2c1.4-0.3,3.3-1.3,4.3-2.3l11-11c1-1,1-2.6,0-3.6l-1.8-1.8
					c-1-1-2.6-1-3.6,0l-11,11c-1,1-2,2.9-2.3,4.3l-0.5,3.9L3,18.2z"/>
			</g>
		</g>
	</g>
	<g opacity="0.8" enable-background="new    ">
		<path fill="#99918C" d="M6.3,13.2l8.1-8.1c0.5-0.5,0.5-1.3,0-1.8l0,0c-0.5-0.5-1.3-0.5-1.8,0l-8.1,8.1c-0.5,0.5-0.5,1.3,0,1.8l0,0
			C5,13.7,5.8,13.7,6.3,13.2z"/>
	</g>
</g>
</svg>
