<?xml version="1.0" encoding="utf-8"?>
<!-- Generator: Adobe Illustrator 18.0.0, SVG Export Plug-In . SVG Version: 6.00 Build 0)  -->
<!DOCTYPE svg PUBLIC "-//W3C//DTD SVG 1.1//EN" "http://www.w3.org/Graphics/SVG/1.1/DTD/svg11.dtd">
<svg version="1.1" id="Layer_1" xmlns="http://www.w3.org/2000/svg" xmlns:xlink="http://www.w3.org/1999/xlink" x="0px" y="0px"
	 viewBox="0 0 50 50" enable-background="new 0 0 50 50" xml:space="preserve">
<path opacity="0.8" fill="#99918C" enable-background="new    " d="M9-0.7c5.4,0,9.7,4.3,9.7,9.7s-4.4,9.7-9.7,9.7S-0.7,14.4-0.7,9
	S3.7-0.7,9-0.7"/>
<g>
	<g>
		<g id="XMLID_1_">
			<g>
				<path fill="#FFFFFF" d="M12.8,4.2l0.9,0.9c0.5,0.5,0.5,1.3,0,1.8l-5.5,5.5c-0.5,0.5-1.4,1-2.2,1.1l-2,0.2l0.2-1.9
					c0.2-0.7,0.7-1.7,1.2-2.2l5.5-5.5C11.4,3.7,12.2,3.7,12.8,4.2z"/>
			</g>
			<g>
				<path fill="none" stroke="#FFFFFF" stroke-miterlimit="10" d="M6,13.6c0.7-0.1,1.7-0.6,2.1-1.1L13.6,7c0.5-0.5,0.5-1.3,0-1.8
					l-0.9-0.9c-0.5-0.5-1.3-0.5-1.8,0L5.4,9.8c-0.5,0.5-1,1.5-1.2,2.2L4,13.9L6,13.6z"/>
			</g>
		</g>
	</g>
	<g opacity="0.8" enable-background="new    ">
		<path fill="#99918C" d="M7.7,11.1L11.7,7c0.2-0.2,0.2-0.7,0-0.9l0,0c-0.2-0.2-0.7-0.2-0.9,0l-4.1,4.1c-0.2,0.2-0.2,0.7,0,0.9l0,0
			C7,11.4,7.4,11.4,7.7,11.1z"/>
	</g>
</g>
</svg>
