<?xml version="1.0" encoding="utf-8"?>
<!-- Generator: Adobe Illustrator 19.2.1, SVG Export Plug-In . SVG Version: 6.00 Build 0)  -->
<!DOCTYPE svg PUBLIC "-//W3C//DTD SVG 1.1//EN" "http://www.w3.org/Graphics/SVG/1.1/DTD/svg11.dtd">
<svg version="1.1" id="Layer_1" xmlns="http://www.w3.org/2000/svg" xmlns:xlink="http://www.w3.org/1999/xlink" x="0px" y="0px"
	 viewBox="0 0 19.4 19.4" enable-background="new 0 0 19.4 19.4" xml:space="preserve">
<path opacity="0.8" fill="#99918C" enable-background="new    " d="M9.7,0c5.4,0,9.7,4.3,9.7,9.7s-4.4,9.7-9.7,9.7S0,15.1,0,9.7
	S4.4,0,9.7,0"/>
<g>
	<g>
		<g id="XMLID_1_">
			<g>
				<path fill="#FFFFFF" d="M13.5,4.9l0.9,0.9c0.5,0.5,0.5,1.3,0,1.8l-5.5,5.5c-0.5,0.5-1.4,1-2.2,1.1l-2,0.2l0.2-1.9
					c0.2-0.7,0.7-1.7,1.2-2.2l5.5-5.5C12.1,4.4,12.9,4.4,13.5,4.9z"/>
			</g>
			<g>
				<path fill="none" stroke="#FFFFFF" stroke-miterlimit="10" d="M6.7,14.3c0.7-0.1,1.7-0.6,2.1-1.1l5.5-5.5c0.5-0.5,0.5-1.3,0-1.8
					L13.4,5c-0.5-0.5-1.3-0.5-1.8,0l-5.5,5.5c-0.5,0.5-1,1.5-1.2,2.2l-0.2,1.9L6.7,14.3z"/>
			</g>
		</g>
	</g>
	<g opacity="0.8" enable-background="new    ">
		<path fill="#99918C" d="M8.4,11.8l4-4.1c0.2-0.2,0.2-0.7,0-0.9l0,0c-0.2-0.2-0.7-0.2-0.9,0l-4.1,4.1c-0.2,0.2-0.2,0.7,0,0.9l0,0
			C7.7,12.1,8.1,12.1,8.4,11.8z"/>
	</g>
</g>
</svg>
