<?xml version="1.0" encoding="utf-8"?>
<!-- Generator: Adobe Illustrator 18.0.0, SVG Export Plug-In . SVG Version: 6.00 Build 0)  -->
<!DOCTYPE svg PUBLIC "-//W3C//DTD SVG 1.1//EN" "http://www.w3.org/Graphics/SVG/1.1/DTD/svg11.dtd">
<svg version="1.1" id="svg15460" xmlns:svg="http://www.w3.org/2000/svg"
	 xmlns="http://www.w3.org/2000/svg" xmlns:xlink="http://www.w3.org/1999/xlink" x="0px" y="0px" width="48px" height="50px"
	 viewBox="0 0 48 50" enable-background="new 0 0 48 50" xml:space="preserve">
<g>
	<path fill="#FFFFFF" d="M0,8c0-4.4,3.6-8,8-8h32c4.4,0,8,3.6,8,8v34c0,4.4-3.6,8-8,8H8c-4.4,0-8-3.6-8-8V8z"/>
</g>
<g>
	<path fill="#024B50" d="M41.8,40.6c0,1.9-1.2,3.1-3.1,3.1H9.4c-1.6,0-3.1-1.2-3.1-3.1V9.4c0-1.6,1.6-3.1,3.1-3.1h29.2
		c1.9,0,3.1,1.6,3.1,3.1V40.6z"/>
</g>
<path id="path112390-4-9-0" inkscape:connector-curvature="0" fill="#FFFFFF" d="M30.5,28.1l-12.9,0c-2.3,0-2.3-2.1-2.3-2.8
	c0-2.3,0.4-4.7,1.1-6.7c0.6-1.7,1.5-3.8,7.6-3.7c6.1,0,7,2.1,7.6,3.7c0.7,2.1,1.1,4.5,1.1,6.7C32.8,25.9,32.8,28.1,30.5,28.1
	L30.5,28.1z M28.2,30.7c0-0.6,0.5-1.1,1.1-1.1c0.6,0,1.1,0.5,1.1,1.1c0,0.6-0.5,1.1-1.1,1.1C28.7,31.8,28.2,31.3,28.2,30.7z
	 M18.7,31.8c-0.6,0-1.1-0.5-1.1-1.1c0-0.6,0.5-1.1,1.1-1.1c0.6,0,1.1,0.5,1.1,1.1C19.9,31.3,19.4,31.8,18.7,31.8z M35,27.3
	c0-4.5-1.8-10.8-3.4-12.4c-1.8-1.8-5.7-1.9-7.6-1.9c-1.9,0-5.8,0.1-7.6,1.9c-1.7,1.6-3.4,7.9-3.4,12.4c0,2.2,0,5.9,2.3,6l1.5,0
	L14.9,37l3.8,0l0.8-3.7l9.1,0l0.8,3.7l3.8,0l-1.9-3.7l1.5,0C35,33.3,35,29.6,35,27.3"/>
</svg>
