<?xml version="1.0" encoding="utf-8"?>
<!-- Generator: Adobe Illustrator 19.2.1, SVG Export Plug-In . SVG Version: 6.00 Build 0)  -->
<!DOCTYPE svg PUBLIC "-//W3C//DTD SVG 1.1//EN" "http://www.w3.org/Graphics/SVG/1.1/DTD/svg11.dtd">
<svg version="1.1" id="svg15460" xmlns:svg="http://www.w3.org/2000/svg"
	 xmlns="http://www.w3.org/2000/svg" xmlns:xlink="http://www.w3.org/1999/xlink" x="0px" y="0px" viewBox="0 0 24 25"
	 enable-background="new 0 0 24 25" xml:space="preserve">
<g>
	<path fill="#FFFFFF" d="M0,4c0-2.2,1.8-4,4-4h16c2.2,0,4,1.8,4,4v17c0,2.2-1.8,4-4,4H4c-2.2,0-4-1.8-4-4V4z"/>
</g>
<g>
	<path fill="#024B50" d="M20.9,20.3c0,0.95-0.6,1.55-1.55,1.55H4.7c-0.8,0-1.55-0.6-1.55-1.55V4.7c0-0.8,0.8-1.55,1.55-1.55h14.6
		c0.95,0,1.55,0.8,1.55,1.55v15.6H20.9z"/>
</g>
<path id="path112390-4-9-0" fill="#FFFFFF" d="M15.25,14.05H8.8c-1.15,0-1.15-1.05-1.15-1.4c0-1.15,0.2-2.35,0.55-3.35
	C8.5,8.45,8.95,7.4,12,7.45c3.05,0,3.5,1.05,3.8,1.85c0.35,1.05,0.55,2.25,0.55,3.35C16.4,12.95,16.4,14.05,15.25,14.05L15.25,14.05
	z M14.1,15.35c0-0.3,0.25-0.55,0.55-0.55s0.55,0.25,0.55,0.55s-0.25,0.55-0.55,0.55C14.35,15.9,14.1,15.65,14.1,15.35z M9.35,15.9
	c-0.3,0-0.55-0.25-0.55-0.55s0.25-0.55,0.55-0.55s0.55,0.25,0.55,0.55C9.95,15.65,9.7,15.9,9.35,15.9z M17.5,13.65
	c0-2.25-0.9-5.4-1.7-6.2C14.9,6.55,12.95,6.5,12,6.5S9.1,6.55,8.2,7.45c-0.85,0.8-1.7,3.95-1.7,6.2c0,1.1,0,2.95,1.15,3H8.4
	L7.45,18.5h1.9l0.4-1.85h4.55l0.4,1.85h1.9l-0.95-1.85h0.75C17.5,16.65,17.5,14.8,17.5,13.65"/>
</svg>
