<?xml version="1.0" encoding="utf-8"?>
<!-- Generator: Adobe Illustrator 18.0.0, SVG Export Plug-In . SVG Version: 6.00 Build 0)  -->
<!DOCTYPE svg PUBLIC "-//W3C//DTD SVG 1.1//EN" "http://www.w3.org/Graphics/SVG/1.1/DTD/svg11.dtd">
<svg version="1.1"
	 id="svg15676" inkscape:version="0.46" sodipodi:docname="Oslo T-bane Logo.svg" inkscape:output_extension="org.inkscape.output.svg.inkscape" sodipodi:version="0.32" xmlns:dc="http://purl.org/dc/elements/1.1/" xmlns:svg="http://www.w3.org/2000/svg" xmlns:sodipodi="http://sodipodi.sourceforge.net/DTD/sodipodi-0.dtd" xmlns:cc="http://creativecommons.org/ns#" xmlns:inkscape="http://www.inkscape.org/namespaces/inkscape" xmlns:rdf="http://www.w3.org/1999/02/22-rdf-syntax-ns#"
	 xmlns="http://www.w3.org/2000/svg" xmlns:xlink="http://www.w3.org/1999/xlink" x="0px" y="0px" viewBox="0 0 300 240"
	 enable-background="new 0 0 300 240" xml:space="preserve">
<defs>
	
	
		<inkscape:perspective  inkscape:persp3d-origin="372.04724 : 350.78739 : 1" inkscape:vp_y="0 : 1000 : 0" inkscape:vp_x="0 : 526.18109 : 1" sodipodi:type="inkscape:persp3d" inkscape:vp_z="744.09448 : 526.18109 : 1" id="perspective15684">
		</inkscape:perspective>
</defs>
<sodipodi:namedview  inkscape:window-x="0" inkscape:pageopacity="0.0" inkscape:pageshadow="2" inkscape:document-units="px" inkscape:window-width="1280" inkscape:window-height="968" inkscape:current-layer="layer1" inkscape:window-y="22" borderopacity="1.0" inkscape:cx="266.55124" pagecolor="#ffffff" showgrid="false" bordercolor="#666666" inkscape:cy="109.6314" inkscape:zoom="1.2432572" id="base">
	</sodipodi:namedview>
<g id="layer1" transform="translate(-337.32573,-348.96455)" inkscape:groupmode="layer" inkscape:label="Ebene 1">
	<g id="g2382">
		<path id="path4884" fill="#46819B" d="M487.3,493.9c13.8,0,25-11.2,25-25s-11.2-25-25-25s-25,11.2-25,25
			C462.3,482.7,473.5,493.9,487.3,493.9z"/>
		<path id="path4886" fill="#FFFFFF" d="M487.3,489.8c11.5,0,20.9-9.4,20.9-20.9c0-11.5-9.4-20.9-20.9-20.9
			c-11.5,0-20.9,9.4-20.9,20.9C466.4,480.4,475.8,489.8,487.3,489.8z"/>
		<path id="path4888" fill="#46819B" d="M498.5,456.9h-22.5v3.9h8.7v24.5h5.1v-24.5h8.7L498.5,456.9L498.5,456.9z"/>
	</g>
</g>
</svg>
