<?xml version="1.0" encoding="utf-8"?>
<!-- Generator: Adobe Illustrator 19.2.1, SVG Export Plug-In . SVG Version: 6.00 Build 0)  -->
<!DOCTYPE svg PUBLIC "-//W3C//DTD SVG 1.1//EN" "http://www.w3.org/Graphics/SVG/1.1/DTD/svg11.dtd">
<svg version="1.1"
	 id="svg2" inkscape:version="0.48.2 r9819" sodipodi:docname="taipei_rapid_transit_corporation.ai" xmlns:cc="http://creativecommons.org/ns#" xmlns:dc="http://purl.org/dc/elements/1.1/" xmlns:inkscape="http://www.inkscape.org/namespaces/inkscape" xmlns:rdf="http://www.w3.org/1999/02/22-rdf-syntax-ns#" xmlns:sodipodi="http://sodipodi.sourceforge.net/DTD/sodipodi-0.dtd" xmlns:svg="http://www.w3.org/2000/svg"
	 xmlns="http://www.w3.org/2000/svg" xmlns:xlink="http://www.w3.org/1999/xlink" x="0px" y="0px" viewBox="0 0 25.74 25"
	 enable-background="new 0 0 25.74 25" xml:space="preserve">
<g id="g14">
	<path fill="#F8F6F0" d="M25.69,9.6l-0.05-0.99l-0.1-0.52l-0.05-0.47l-0.1-0.52l-0.16-0.52l-0.21-0.51L24.81,5.6L24.6,5.19
		l-0.26-0.47l-0.52-0.73l-0.3-0.41l-0.36-0.41L22.84,2.8l-0.36-0.36l-0.41-0.36l-0.41-0.31L21.23,1.5l-0.41-0.26l-0.47-0.26
		l-0.47-0.16l-0.46-0.2L18.9,0.46L18.38,0.3l-0.52-0.1l-0.52-0.1l-0.52-0.05L16.25,0h-0.62l-1.19,0.05l-1.3,0.31l-1.25,0.26
		l-1.2,0.37L9.5,1.45L8.36,2.07L7.22,2.75L6.34,3.53L5.77,3.94L5.25,4.41L4.73,4.88L4.26,5.39L3.8,5.91L2.91,7L2.55,7.62L2.19,8.14
		L1.83,8.81L1.51,9.44l-0.57,1.35l-0.26,0.73l-0.26,0.73l0.26,0.26H0.16L0,15l0.05,1.04l0.05,0.52l0.05,0.52l0.21,0.99l0.16,0.47
		l0.16,0.47l0.21,0.47l0.21,0.47l0.26,0.41l0.26,0.41l0.31,0.41l0.31,0.36l0.36,0.41l0.36,0.36l0.36,0.31l0.41,0.36l0.47,0.31
		l0.41,0.26l0.47,0.26l0.73,0.41l0.93,0.31l0.52,0.17l0.52,0.1l0.52,0.05l0.47,0.05l0.52,0.05L9.96,25l1.24-0.05l0.57-0.05l0.67-0.1
		l0.62-0.16l0.62-0.16l0.57-0.21l0.62-0.21l0.62-0.26l0.57-0.26l1.14-0.57l0.52-0.36l0.52-0.36l0.52-0.36l0.65-0.25l0.26-0.26
		l0.26-0.21l0.21-0.21l0.31-0.21l0.26-0.26l0.21-0.21l0.21-0.21l0.26-0.26l0.52-0.62l0.41-0.52l0.83-1.14l0.73-1.3l0.05-0.16
		l0.21-0.36l0.36-0.67l0.52-1.3l0.26-0.78l0.1-0.31h0.36V9.6C25.75,9.6,25.69,9.6,25.69,9.6z"/>
	<path id="path46_3_" inkscape:connector-curvature="0" fill="#2C5BA3" d="M11.63,14.9h0.57h1.04h0.62h0.05l0,0h0.05h0.05h0.05
		l0.05-0.05l0.05-0.05l0.05-0.05l0,0l0,0l0,0l0,0l0,0l0.57-0.57l0.47-0.47l0.05-0.05l0.05-0.05h0.1h0.1h0.31h0.21l1.14-1.14h-0.6
		h-1.24h-0.62h-0.16l-0.1,0.05l-0.1,0.05l-0.1,0.1l-0.52,0.52l-0.52,0.51l0,0l0,0l0,0l-0.05,0.05l-0.06,0.06h-0.1h-0.1H12.3h-0.98
		H10.8l0.26,0.57"/>
	<path id="path46_2_" inkscape:connector-curvature="0" fill="#2C5BA3" d="M14.39,14.38"/>
	<polygon fill="#6DBB50" points="9.81,22.42 9.4,22.36 8.98,22.31 8.57,22.26 8.15,22.16 7.79,22.05 7.01,21.79 6.34,21.48 
		6.03,21.33 5.72,21.12 5.35,20.86 5.09,20.65 4.78,20.39 4.52,20.13 4.26,19.82 4,19.51 3.8,19.2 3.59,18.89 3.38,18.58 
		3.23,18.22 3.12,17.9 2.97,17.54 2.86,17.18 2.76,16.76 2.66,16.4 2.6,15.62 2.55,14.79 2.6,13.91 7.01,13.91 6.96,14.74 6.96,15 
		6.96,15.57 7.01,15.83 7.06,16.09 7.22,16.56 7.38,17.02 7.48,17.23 7.69,17.64 7.84,17.85 8.15,18.22 8.31,18.32 8.46,18.53 
		8.83,18.79 9.24,19.05 9.45,19.15 9.66,19.25 10.12,19.41 10.33,19.46 10.59,19.51 11.11,19.56 11.68,19.62 11.84,19.62 
		11.94,19.62 12.2,19.56 12.52,19.56 13.09,19.46 13.4,19.36 13.71,19.25 14.28,19.1 14.59,18.94 14.91,18.84 15.48,18.53 
		16.05,18.16 16.51,17.85 16.57,17.8 16.82,17.59 17.08,17.39 17.29,17.18 17.34,17.07 17.55,16.92 17.76,16.71 17.81,16.61 
		18.02,16.4 18.23,16.14 18.48,15.88 18.64,15.67 18.85,15.36 19.21,14.79 19.37,14.48 19.57,14.22 19.63,14.07 19.73,13.86 
		19.94,13.5 22.89,11.88 22.69,12.51 22.48,13.08 22.01,14.22 21.75,14.79 21.6,15.1 21.6,15.16 21.49,15.31 20.92,16.35 
		20.25,17.28 19.89,17.7 19.52,18.16 19.31,18.37 19.16,18.53 18.9,18.73 18.74,18.94 18.48,19.15 18.33,19.3 18.12,19.46 
		17.91,19.67 17.45,19.98 17.03,20.29 16.1,20.86 15.17,21.33 14.7,21.53 14.23,21.69 13.71,21.9 13.3,22 12.78,22.16 12.3,22.26 
		11.78,22.31 11.32,22.36 10.28,22.42 	"/>
	<path id="path50_2_" inkscape:connector-curvature="0" fill="#6DBB50" d="M14.02,10.22h-0.57h-1.04h-0.63h-0.1l-0.1,0.05l-0.1,0.05
		l-0.1,0.1L10.8,11l-0.47,0.51l-0.05,0.06l-0.05,0.05l0,0l0,0l0,0l0,0h-0.05h-0.1H9.76H9.55l-1.14,1.2l0,0h0.62h1.19h0.79l0,0h0.05
		h0.05h0.05h0.05l0.1-0.05l0.05-0.05l0.05-0.05l0.52-0.52l0.52-0.52l0.06-0.05l0.1-0.05h0.1h0.1h0.57h0.99h0.52l-0.26-0.57"/>
	<polygon fill="#2C5BA3" points="2.91,12.72 3.12,12.09 3.33,11.51 3.85,10.37 4.11,9.85 4.42,9.34 4.73,8.82 5.04,8.35 5.72,7.47 
		6.13,7 6.49,6.64 6.91,6.22 7.32,5.86 8.62,4.88 9.55,4.3 10.49,3.79 11.42,3.42 12.35,3.11 13.35,2.9 14.34,2.75 15.32,2.7 
		15.79,2.7 16.25,2.75 16.67,2.8 17.08,2.9 17.45,2.96 17.86,3.06 18.28,3.16 19,3.48 19.31,3.63 19.63,3.84 19.99,4.05 20.3,4.25 
		20.61,4.51 20.87,4.77 21.13,5.03 21.39,5.34 21.65,5.65 22.06,6.22 22.22,6.54 22.37,6.9 22.53,7.26 22.69,7.62 22.79,7.99 
		22.89,8.35 22.95,8.71 23,9.13 23.05,9.54 23.1,9.91 23.1,11.26 18.69,11.26 18.69,10.11 18.64,9.54 18.59,9.08 18.43,8.56 
		18.38,8.35 18.28,8.14 18.07,7.73 17.81,7.37 17.65,7.16 17.5,7 17.14,6.64 16.77,6.33 16.57,6.22 16.41,6.12 16,5.91 15.53,5.76 
		15.06,5.65 14.8,5.6 14.54,5.6 14.02,5.55 13.76,5.55 13.14,5.6 12.52,5.71 11.94,5.86 11.32,6.07 10.75,6.33 10.18,6.64 
		9.61,6.95 9.09,7.37 8.52,7.78 8.05,8.25 7.58,8.77 7.17,9.28 6.96,9.49 6.75,9.8 6.39,10.37 6.08,11 5.72,11.67 	"/>
</g>
</svg>
