<?xml version="1.0" encoding="utf-8"?>
<!-- Generator: Adobe Illustrator 18.0.0, SVG Export Plug-In . SVG Version: 6.00 Build 0)  -->
<!DOCTYPE svg PUBLIC "-//W3C//DTD SVG 1.1//EN" "http://www.w3.org/Graphics/SVG/1.1/DTD/svg11.dtd">
<svg version="1.1"
	 id="svg2" xmlns:svg="http://www.w3.org/2000/svg" xmlns:sodipodi="http://sodipodi.sourceforge.net/DTD/sodipodi-0.dtd" xmlns:inkscape="http://www.inkscape.org/namespaces/inkscape" xmlns:cc="http://creativecommons.org/ns#" xmlns:dc="http://purl.org/dc/elements/1.1/" xmlns:rdf="http://www.w3.org/1999/02/22-rdf-syntax-ns#" inkscape:version="0.48.2 r9819" sodipodi:docname="taipei_rapid_transit_corporation.ai"
	 xmlns="http://www.w3.org/2000/svg" xmlns:xlink="http://www.w3.org/1999/xlink" x="0px" y="0px" width="50px" height="50px"
	 viewBox="-3.7 -4.5 50 50" enable-background="new -3.7 -4.5 50 50" xml:space="preserve">
<g id="g14">
	<path fill="#F8F6F0" d="M46.1,14.8L46,12.9l-0.2-1L45.7,11l-0.2-1l-0.3-1l-0.4-1l-0.4-0.9L44,6.3l-0.5-0.9l-1-1.4l-0.6-0.8
		l-0.7-0.8l-0.6-0.7l-0.7-0.7l-0.8-0.7l-0.8-0.6l-0.8-0.5l-0.8-0.5l-0.9-0.5l-0.9-0.3l-0.9-0.4l-1-0.3l-1-0.3l-1-0.2l-1-0.2l-1-0.1
		l-1.1-0.1h-1.2l-2.3,0.1L21.9-3l-2.4,0.5l-2.3,0.7l-2.3,0.9l-2.2,1.2l-2.2,1.3L8.8,3.1L7.7,3.9L6.7,4.8l-1,0.9l-0.9,1l-0.9,1
		L2.2,9.8L1.5,11L0.8,12l-0.7,1.3l-0.6,1.2l-1.1,2.6l-0.5,1.4l-0.5,1.4l0.5,0.5h-1l-0.3,4.8l0.1,2l0.1,1l0.1,1l0.4,1.9l0.3,0.9
		l0.3,0.9l0.4,0.9l0.4,0.9l0.5,0.8l0.5,0.8l0.6,0.8l0.6,0.7l0.7,0.8l0.7,0.7l0.7,0.6l0.8,0.7l0.9,0.6l0.8,0.5l0.9,0.5L7.8,43
		l1.8,0.6l1,0.3l1,0.2l1,0.1l0.9,0.1l1,0.1l1.3,0.1l2.4-0.1l1.1-0.1l1.3-0.2l1.2-0.3l1.2-0.3l1.1-0.4l1.2-0.4l1.2-0.5l1.1-0.5
		l2.2-1.1l1-0.7l1-0.7l1-0.7L34,38l0.5-0.5l0.5-0.4l0.4-0.4l0.6-0.4l0.5-0.5l0.4-0.4l0.4-0.4l0.5-0.5l1-1.2l0.8-1l1.6-2.2l1.4-2.5
		l0.1-0.3l0.4-0.7l0.7-1.3l1-2.5l0.5-1.5l0.2-0.6h0.7V14.8z"/>
	<path id="path46_3_" inkscape:connector-curvature="0" fill="#2C5BA3" d="M19,25h1.1h2h1.2l0.1,0l0,0h0.1l0.1,0l0.1,0l0.1-0.1
		l0.1-0.1l0.1-0.1l0,0l0,0v0h0h0l1.1-1.1l0.9-0.9l0.1-0.1l0.1-0.1l0.2,0l0.2,0h0.6h0.4l2.2-2.2h-1.2h-2.4H25h-0.3l-0.2,0.1l-0.2,0.1
		l-0.2,0.2l-1,1l-1,1l0,0l0,0l0,0l-0.1,0.1l-0.1,0.1l-0.2,0l-0.2,0h-1.2h-1.9h-1l0.5,1.1"/>
	<path id="path46_2_" inkscape:connector-curvature="0" fill="#2C5BA3" d="M24.3,24"/>
	<polygon fill="#6DBB50" points="15.5,39.5 14.7,39.4 13.9,39.3 13.1,39.2 12.3,39 11.6,38.8 10.1,38.3 8.8,37.7 8.2,37.4 7.6,37 
		6.9,36.5 6.4,36.1 5.8,35.6 5.3,35.1 4.8,34.5 4.3,33.9 3.9,33.3 3.5,32.7 3.1,32.1 2.8,31.4 2.6,30.8 2.3,30.1 2.1,29.4 1.9,28.6 
		1.7,27.9 1.6,26.4 1.5,24.8 1.6,23.1 10.1,23.1 10,24.7 10,25.2 10,26.3 10.1,26.8 10.2,27.3 10.5,28.2 10.8,29.1 11,29.5 
		11.4,30.3 11.7,30.7 12.3,31.4 12.6,31.6 12.9,32 13.6,32.5 14.4,33 14.8,33.2 15.2,33.4 16.1,33.7 16.5,33.8 17,33.9 18,34 
		19.1,34.1 19.4,34.1 19.6,34.1 20.1,34 20.7,34 21.8,33.8 22.4,33.6 23,33.4 24.1,33.1 24.7,32.8 25.3,32.6 26.4,32 27.5,31.3 
		28.4,30.7 28.5,30.6 29,30.2 29.5,29.8 29.9,29.4 30,29.2 30.4,28.9 30.8,28.5 30.9,28.3 31.3,27.9 31.7,27.4 32.2,26.9 32.5,26.5 
		32.9,25.9 33.6,24.8 33.9,24.2 34.3,23.7 34.4,23.4 34.6,23 35,22.3 40.7,19.2 40.3,20.4 39.9,21.5 39,23.7 38.5,24.8 38.2,25.4 
		38.2,25.5 38,25.8 36.9,27.8 35.6,29.6 34.9,30.4 34.2,31.3 33.8,31.7 33.5,32 33,32.4 32.7,32.8 32.2,33.2 31.9,33.5 31.5,33.8 
		31.1,34.2 30.2,34.8 29.4,35.4 27.6,36.5 25.8,37.4 24.9,37.8 24,38.1 23,38.5 22.2,38.7 21.2,39 20.3,39.2 19.3,39.3 18.4,39.4 
		16.4,39.5 	"/>
	<path id="path50_2_" inkscape:connector-curvature="0" fill="#6DBB50" d="M23.6,16h-1.1h-2h-1.2h-0.2l-0.2,0.1l-0.2,0.1l-0.2,0.2
		l-1.1,1.1l-0.9,1l-0.1,0.1l-0.1,0.1h0h0h0v0l-0.1,0l-0.2,0h-0.6h-0.4l-2.2,2.3l0,0h1.2h2.3h1.5l0,0h0.1l0.1,0l0.1,0l0.1,0l0.2-0.1
		l0.1-0.1l0.1-0.1l1-1l1-1l0.1-0.1l0.2-0.1l0.2,0h0.2h1.1h1.9h1l-0.5-1.1"/>
	<polygon fill="#2C5BA3" points="2.2,20.8 2.6,19.6 3,18.5 4,16.3 4.5,15.3 5.1,14.3 5.7,13.3 6.3,12.4 7.6,10.7 8.4,9.8 9.1,9.1 
		9.9,8.3 10.7,7.6 13.2,5.7 15,4.6 16.8,3.6 18.6,2.9 20.4,2.3 22.3,1.9 24.2,1.6 26.1,1.5 27,1.5 27.9,1.6 28.7,1.7 29.5,1.9 
		30.2,2 31,2.2 31.8,2.4 33.2,3 33.8,3.3 34.4,3.7 35.1,4.1 35.7,4.5 36.3,5 36.8,5.5 37.3,6 37.8,6.6 38.3,7.2 39.1,8.3 39.4,8.9 
		39.7,9.6 40,10.3 40.3,11 40.5,11.7 40.7,12.4 40.8,13.1 40.9,13.9 41,14.7 41.1,15.4 41.1,18 32.6,18 32.6,15.8 32.5,14.7 
		32.4,13.8 32.1,12.8 32,12.4 31.8,12 31.4,11.2 30.9,10.5 30.6,10.1 30.3,9.8 29.6,9.1 28.9,8.5 28.5,8.3 28.2,8.1 27.4,7.7 
		26.5,7.4 25.6,7.2 25.1,7.1 24.6,7.1 23.6,7 23.1,7 21.9,7.1 20.7,7.3 19.6,7.6 18.4,8 17.3,8.5 16.2,9.1 15.1,9.7 14.1,10.5 
		13,11.3 12.1,12.2 11.2,13.2 10.4,14.2 10,14.6 9.6,15.2 8.9,16.3 8.3,17.5 7.6,18.8 	"/>
</g>
</svg>
