<?xml version="1.0" encoding="utf-8"?>
<!-- Generator: Adobe Illustrator 19.2.1, SVG Export Plug-In . SVG Version: 6.00 Build 0)  -->
<!DOCTYPE svg PUBLIC "-//W3C//DTD SVG 1.1//EN" "http://www.w3.org/Graphics/SVG/1.1/DTD/svg11.dtd">
<svg version="1.1" id="svg15460" xmlns:svg="http://www.w3.org/2000/svg"
	 xmlns="http://www.w3.org/2000/svg" xmlns:xlink="http://www.w3.org/1999/xlink" x="0px" y="0px" viewBox="0 0 35.79 25"
	 enable-background="new 0 0 35.79 25" xml:space="preserve">
<g id="layer1" transform="translate(-365.44063,-522.84968)">
	<path opacity="0.7" fill="#F8F6F0" enable-background="new    " d="M386.81,545.33c-1.35,0.31-2.58,0.37-3.26,0.37
		c-1.41,0-2.58-0.12-3.62-0.43l-8.72,2.58l-1.23-2.21c-5.47-9.52-6.02-18.37-1.54-21.68c0.98-0.74,2.21-1.11,3.62-1.11
		c3.44,0,7.74,2.46,11.18,5.22c3.38-2.64,7.68-5.1,11.36-5.1c1.23,0,2.33,0.31,3.32,0.86c4.12,2.52,5.1,10.75-1.23,21.81l-1.23,2.21
		L386.81,545.33z"/>
	<path id="path11726" opacity="0.7" fill="#189FA8" enable-background="new    " d="M383.68,539.5c-1.17,0-2.15-0.31-2.15-1.17
		c0-0.92,0.92-2.33,2.15-3.93c1.17,1.54,2.15,3.01,2.15,3.93C385.7,539.13,384.84,539.5,383.68,539.5 M383.68,542.51
		c3.62,0,4.79-1.17,4.79-3.01c0-2.15-2.15-4.48-3.62-5.96c2.7-2.33,6.33-4.48,7.8-3.01c1.78,1.78,0,6.57-3.93,11.98l5.16,1.54
		c4.48-7.8,5.41-15.6,2.33-17.38c-2.33-1.54-8.42,1.54-12.9,5.71c-4.48-4.18-10.5-7.49-12.9-5.71c-3.01,2.15-2.15,9.58,2.33,17.38
		l5.16-1.54c-3.93-5.41-5.41-10.2-3.93-11.98c1.54-1.54,5.16,0.31,7.8,3.01c-1.54,1.54-3.62,4.18-3.62,5.96
		C378.82,541.28,379.99,542.51,383.68,542.51"/>
</g>
</svg>
