<?xml version="1.0" encoding="utf-8"?>
<!-- Generator: Adobe Illustrator 18.0.0, SVG Export Plug-In . SVG Version: 6.00 Build 0)  -->
<!DOCTYPE svg PUBLIC "-//W3C//DTD SVG 1.1//EN" "http://www.w3.org/Graphics/SVG/1.1/DTD/svg11.dtd">
<svg version="1.1" id="svg15460" xmlns:svg="http://www.w3.org/2000/svg"
	 xmlns="http://www.w3.org/2000/svg" xmlns:xlink="http://www.w3.org/1999/xlink" x="0px" y="0px" viewBox="0 0 66 50"
	 enable-background="new 0 0 66 50" xml:space="preserve">
<g id="layer1" transform="translate(-365.44063,-522.84968)">
	<path opacity="0.7" fill="#F8F6F0" enable-background="new    " d="M404.6,566.5c-2.4,0.6-4.6,0.7-5.8,0.7c-2.5,0-4.6-0.2-6.5-0.8
		l-15.6,4.6l-2.2-4c-9.8-17-10.8-32.9-2.7-38.8c1.8-1.3,4-2,6.5-2c6.2,0,13.9,4.4,20,9.3c6-4.7,13.8-9.1,20.3-9.1
		c2.2,0,4.2,0.5,5.9,1.5c7.4,4.5,9.1,19.3-2.2,39l-2.2,4L404.6,566.5z"/>
	<path id="path11726" opacity="0.7" fill="#189FA8" enable-background="new    " d="M398.9,556c-2.1,0-3.8-0.6-3.8-2.1
		c0-1.6,1.6-4.2,3.8-7c2.1,2.7,3.8,5.4,3.8,7C402.6,555.4,401,556,398.9,556 M398.9,561.4c6.5,0,8.6-2.1,8.6-5.4
		c0-3.8-3.8-8-6.5-10.7c4.8-4.2,11.3-8,14-5.4c3.2,3.2,0,11.8-7,21.4l9.2,2.7c8-14,9.7-27.9,4.2-31.1c-4.2-2.7-15.1,2.7-23.1,10.2
		c-8-7.5-18.8-13.4-23.1-10.2c-5.4,3.8-3.8,17.2,4.2,31.1l9.2-2.7c-7-9.7-9.7-18.3-7-21.4c2.7-2.7,9.2,0.6,14,5.4
		c-2.7,2.7-6.5,7.5-6.5,10.7C390.3,559.2,392.4,561.4,398.9,561.4"/>
</g>
</svg>
