<?xml version="1.0" encoding="utf-8"?>
<!-- Generator: Adobe Illustrator 18.0.0, SVG Export Plug-In . SVG Version: 6.00 Build 0)  -->
<!DOCTYPE svg PUBLIC "-//W3C//DTD SVG 1.1//EN" "http://www.w3.org/Graphics/SVG/1.1/DTD/svg11.dtd">
<svg version="1.1" id="svg15460" xmlns:svg="http://www.w3.org/2000/svg"
	 xmlns="http://www.w3.org/2000/svg" xmlns:xlink="http://www.w3.org/1999/xlink" x="0px" y="0px" width="66px" height="50px"
	 viewBox="-8 0 66 50" enable-background="new -8 0 66 50" xml:space="preserve">
<g id="layer1" transform="translate(-365.44063,-522.84968)">
	<path opacity="0.7" fill="#F8F6F0" enable-background="new    " d="M395.8,563.8c-2,0.5-3.9,0.6-4.9,0.6c-2.1,0-3.9-0.2-5.5-0.7
		l-13.2,3.9l-1.9-3.4c-8.3-14.4-9.2-27.9-2.3-32.9c1.5-1.1,3.4-1.7,5.5-1.7c5.3,0,11.8,3.7,17,7.9c5.1-4,11.7-7.7,17.2-7.7
		c1.9,0,3.6,0.4,5,1.3c6.3,3.8,7.7,16.4-1.9,33.1l-1.9,3.4L395.8,563.8z"/>
	<path id="path11726" opacity="0.7" fill="#189FA8" enable-background="new    " d="M390.9,554.9c-1.8,0-3.2-0.5-3.2-1.8
		c0-1.4,1.4-3.6,3.2-5.9c1.8,2.3,3.2,4.6,3.2,5.9S392.7,554.9,390.9,554.9 M390.9,559.5c5.5,0,7.3-1.8,7.3-4.6
		c0-3.2-3.2-6.8-5.5-9.1c4.1-3.6,9.6-6.8,11.9-4.6c2.7,2.7,0,10-5.9,18.2l7.8,2.3c6.8-11.9,8.2-23.7,3.6-26.4
		c-3.6-2.3-12.8,2.3-19.6,8.7c-6.8-6.4-16-11.4-19.6-8.7c-4.6,3.2-3.2,14.6,3.6,26.4l7.8-2.3c-5.9-8.2-8.2-15.5-5.9-18.2
		c2.3-2.3,7.8,0.5,11.9,4.6c-2.3,2.3-5.5,6.4-5.5,9.1C383.6,557.6,385.4,559.5,390.9,559.5"/>
</g>
</svg>
