<?xml version="1.0" encoding="utf-8"?>
<!-- Generator: Adobe Illustrator 18.0.0, SVG Export Plug-In . SVG Version: 6.00 Build 0)  -->
<!DOCTYPE svg PUBLIC "-//W3C//DTD SVG 1.0//EN" "http://www.w3.org/TR/2001/REC-SVG-20010904/DTD/svg10.dtd">
<svg version="1.0" id="Layer_1" xmlns="http://www.w3.org/2000/svg" xmlns:xlink="http://www.w3.org/1999/xlink" x="0px" y="0px"
	 width="18px" height="18px" viewBox="0 0 18 18" enable-background="new 0 0 18 18" xml:space="preserve">
<path fill="#F8F4F0" d="M4.5,18C2.0185547,18,0,15.9812012,0,13.5v-9C0,2.0187988,2.0185547,0,4.5,0h9
	C15.9814453,0,18,2.0187988,18,4.5v9c0,2.4812012-2.0185547,4.5-4.5,4.5H4.5z"/>
<path opacity="0.7" fill="#104E81" d="M1.9997482,4.5c0-1.375,1.125-2.5,2.5-2.5h9c1.375,0,2.5,1.125,2.5,2.5v9
	c0,1.375-1.125,2.5-2.5,2.5h-9c-1.375,0-2.5-1.125-2.5-2.5V4.5z"/>
<path fill="#FFFFFF" d="M12.9487476,10.1875c-0.0043993-2.2529469,0.00805-5.9250464,0.00805-5.9250464L10.5817976,4.25v5.9375
	c-0.0049,0.9021034-0.7995501,1.5834999-1.5915499,1.5834999c-0.7915001,0-1.5883999-0.6813965-1.5829997-1.5834999
	c-0.0058999-2.1174469,0-5.9375,0-5.9375h-2.36695c0,0-0.00805,5.5884037-0.00805,5.9375
	c0,1.9790001,1.9790001,3.5625,3.9579997,3.5625C10.9697475,13.75,12.9487476,12.1665001,12.9487476,10.1875"/>
</svg>
