<?xml version="1.0" encoding="utf-8"?>
<!-- Generator: Adobe Illustrator 18.0.0, SVG Export Plug-In . SVG Version: 6.00 Build 0)  -->
<!DOCTYPE svg PUBLIC "-//W3C//DTD SVG 1.1//EN" "http://www.w3.org/Graphics/SVG/1.1/DTD/svg11.dtd">
<svg version="1.1" id="Layer_1" xmlns="http://www.w3.org/2000/svg" xmlns:xlink="http://www.w3.org/1999/xlink" x="0px" y="0px"
	 viewBox="0 0 50 50" enable-background="new 0 0 50 50" xml:space="preserve">
<g>
	<path fill="#CABBB8" d="M23.5,42.6c-1.2-1-2.5-1.2-4.3-1.3H19h-0.1c-3.4-0.1-6.8-0.6-10-4c-5.4-5.6-4-10.9-2.9-14.7L6,22.2l0.3-0.6
		c0.7-2.8,1.2-4.6,0.1-6.2l-1.3-1.9L12.8,6l1.8,1.3c1.5,1,2.6,1.5,4.1,1.5c1.9,0,3.7-0.6,5.4-1.6l1.3-0.9l1.3,0.9
		c1.9,1,3.8,1.6,5.6,1.6c1.5-0.1,2.9-0.6,4-1.3L38.2,6l7.2,7.8l-1.3,1.6c-1.3,1.8-0.7,3.8,0.1,6.6l0.1,0.4v0.1
		c1.3,4.6,2.1,9.4-2.5,14.6c-3.5,3.7-7.2,3.8-9.7,4c-2.1,0.1-3.8,0.1-5.3,1.5l-1.8,1.5L23.5,42.6z"/>
	<path fill="#FAFAFA" d="M25.1,40.7C23.2,39.1,21,39,19,38.7h-0.3c-3.1-0.1-5.6-0.4-8.2-3.1C6,31,7.5,26.8,8.5,23.1l0.3-0.7
		c0.7-2.9,1.6-5.7-0.3-8.4l4.6-4.4c1.8,1.2,3.5,1.9,5.6,1.9c2.4,0,4.7-0.7,6.9-2.1c2.2,1.3,4.6,2.1,6.9,2.1c2.1-0.1,4.1-0.9,5.4-1.9
		l4.1,4.4c-2.1,2.9-1.2,6-0.3,9v0.1c1.3,4.3,2.1,8.1-1.8,12.5c-2.8,2.9-5.7,3.1-7.9,3.1C29.7,38.7,27.4,38.8,25.1,40.7z"/>
</g>
</svg>
