<?xml version="1.0" encoding="utf-8"?>
<!-- Generator: Adobe Illustrator 18.0.0, SVG Export Plug-In . SVG Version: 6.00 Build 0)  -->
<!DOCTYPE svg PUBLIC "-//W3C//DTD SVG 1.0//EN" "http://www.w3.org/TR/2001/REC-SVG-20010904/DTD/svg10.dtd">
<svg version="1.0" id="Layer_1" xmlns="http://www.w3.org/2000/svg" xmlns:xlink="http://www.w3.org/1999/xlink" x="0px" y="0px"
	 width="33px" height="29px" viewBox="0 0 33 29" enable-background="new 0 0 33 29" xml:space="preserve">
<g>
	<g id="XMLID_1_">
		<g>
			<path fill="#FFFFFF" d="M30.9500008,12.8000002c0.9899998,3.21,2,6.5299997-1.6300011,10.29
				c-2.3699989,2.3899994-4.8099995,2.5499992-7.1599998,2.7099991c-1.9099998,0.1200008-3.8799992,0.25-5.6000004,1.6400013
				c-1.7599993-1.5100002-3.7399998-1.6300011-5.6699991-1.7300014C8.5900002,25.5799999,6.21,25.4400005,3.77,23.0900002
				c-3.76-3.7900009-2.71-7.1199999-1.6900001-10.3400002c0.77-2.4399996,1.5700002-4.96-0.2499999-7.1999998L6.1300001,1.58
				c1.2199998,1.0099999,2.9200001,1.5600001,4.8400002,1.5600001c1.9799995,0,4.0199995-0.5800002,5.79-1.6600001
				c1.7700005,1.0799999,3.8099995,1.6600001,5.789999,1.6600001c1.9099998,0,3.6000004-0.5400002,4.8200016-1.5500001
				l3.9099998,3.9400001C29.4200001,7.79,30.2000008,10.3299999,30.9500008,12.8000002z"/>
			<path fill="#999999" d="M1.83,5.5500002C3.6500001,7.79,2.8499999,10.3100004,2.0799999,12.75
				C1.0599999,15.9700003,0.01,19.2999992,3.77,23.0900002C6.21,25.4400005,8.5900002,25.5799999,10.8900003,25.7099991
				c1.9299994,0.1000004,3.9099998,0.2200012,5.6699991,1.7300014c1.7200012-1.3900013,3.6900005-1.5200005,5.6000004-1.6400013
				c2.3500004-0.1599998,4.7900009-0.3199997,7.1599998-2.7099991c3.6300011-3.7600002,2.6200008-7.0799999,1.6300011-10.29
				c-0.75-2.4700003-1.5300007-5.0100002,0.3299999-7.27L27.3700008,1.59
				c-1.2200012,1.0099999-2.9100018,1.5500001-4.8200016,1.5500001c-1.9799995,0-4.0199986-0.5800002-5.789999-1.6600001
				c-1.7700005,1.0799999-3.8100004,1.6600001-5.79,1.6600001c-1.9200001,0-3.6200004-0.5500002-4.8400002-1.5600001L1.83,5.5500002
				z M0.21,5.5l5.9400001-5.48L6.5300002,0.4c1.02,1.03,2.5999999,1.6,4.4400001,1.6C12.8500004,2,14.79,1.41,16.4500008,0.33
				l0.3099995-0.2l0.3099995,0.2C18.7199993,1.41,20.6700001,2,22.5499992,2c1.8400002,0,3.4099998-0.5700001,4.4400005-1.6
				L27.3899994,0l5.4700012,5.52l-0.4000015,0.4000001C30.6100006,7.79,31.2399998,9.8500004,32.0400009,12.46
				c0.9799995,3.1999998,2.1899986,7.1799994-1.9100018,11.4299994c-2.6799984,2.710001-5.4499989,2.8900013-7.8999996,3.0500011
				c-2.0299988,0.1299992-3.7799988,0.25-5.2999992,1.6800003L16.5300007,29l-0.3900013-0.3899994
				c-1.5299997-1.5500011-3.289999-1.6500015-5.3099995-1.7600002C8.4399996,26.7099991,5.73,26.5599995,2.97,23.9099998
				c-4.25-4.289999-2.99-8.29-1.97-11.5C1.8200001,9.8199997,2.47,7.77,0.63,5.9200001L0.21,5.5z"/>
		</g>
		<g>
		</g>
	</g>
</g>
</svg>
