<?xml version="1.0" encoding="utf-8"?>
<!-- Generator: Adobe Illustrator 18.0.0, SVG Export Plug-In . SVG Version: 6.00 Build 0)  -->
<!DOCTYPE svg PUBLIC "-//W3C//DTD SVG 1.1//EN" "http://www.w3.org/Graphics/SVG/1.1/DTD/svg11.dtd">
<svg version="1.1" id="Layer_1" xmlns="http://www.w3.org/2000/svg" xmlns:xlink="http://www.w3.org/1999/xlink" width='30' height='30'
	 viewBox="0 0 30 30" enable-background="new 0 0 30 30" xml:space="preserve">
<g>
	<path fill="#997373" d="M15,30l-0.3-0.4c-1.4-1.6-3-1.7-4.8-1.9c-2.1-0.1-4.6-0.3-7.1-3c-3.9-4.4-2.7-8.6-1.8-11.9
		C1.6,10.1,2.3,8,0.6,6.1L0.2,5.7L5.5,0l0.3,0.4c1,1,2.3,1.7,4,1.7s3.4-0.6,5-1.8l0.3-0.2l0.3,0.2c1.5,1.1,3.3,1.8,5,1.8
		c1.6,0,3.1-0.6,3.9-1.7L24.8,0l5,5.7l-0.3,0.4c-1.7,2-1.1,4-0.3,6.7c0.9,3.3,2,7.4-1.7,11.8c-2.4,2.8-5,3-7.1,3.1
		c-1.8,0.1-3.4,0.2-4.8,1.8L15,30z"/>
	<path fill="#fafafa" d="M15,27.9c-1.5-1.3-3.2-1.5-4.7-1.6l-0.3,0c-1.9-0.1-4-0.2-6.2-2.5c-3.4-3.8-2.4-7.4-1.5-10.5l0.1-0.5
		C3.1,10.4,3.7,8,2.2,5.8l3.4-3.6c1.3,1,2.7,1.5,4.3,1.5c1.8,0,3.7-0.6,5.3-1.7c1.6,1.1,3.5,1.7,5.3,1.7c1.7,0,3.2-0.5,4.3-1.4
		l3.1,3.6c-1.6,2.4-0.9,4.8-0.2,7.4l0,0.1c1,3.6,1.6,6.8-1.4,10.4c-1.9,2.2-3.8,2.5-6,2.6C18.5,26.3,16.6,26.4,15,27.9z"/>
</g>
</svg>
