<?xml version="1.0" encoding="utf-8"?>
<!-- Generator: Adobe Illustrator 18.0.0, SVG Export Plug-In . SVG Version: 6.00 Build 0)  -->
<!DOCTYPE svg PUBLIC "-//W3C//DTD SVG 1.1//EN" "http://www.w3.org/Graphics/SVG/1.1/DTD/svg11.dtd">
<svg version="1.1" id="Layer_1" xmlns="http://www.w3.org/2000/svg" xmlns:xlink="http://www.w3.org/1999/xlink" x="0px" y="0px"
	 width="26px" height="29px" viewBox="0 0 26 29" enable-background="new 0 0 26 29" xml:space="preserve">
<g>
	<path fill="#997373" d="M13,27.1l-0.3-0.3c-1.2-1.3-2.6-1.4-4.1-1.6c-1.8-0.1-4-0.2-6.2-2.5C-1,19,0,15.5,0.8,12.7
		c0.5-2.2,1.1-4-0.3-5.6L0.2,6.8l4.6-4.8l0.3,0.3c0.9,0.8,2,1.4,3.5,1.4s3-0.5,4.3-1.5l0.2-0.2l0.3,0.2c1.3,0.9,2.8,1.5,4.3,1.5
		c1.4,0,2.7-0.5,3.4-1.4l0.4-0.3l4.3,4.8l-0.3,0.3c-1.5,1.7-1,3.3-0.3,5.6c0.8,2.7,1.7,6.2-1.5,9.8c-2.1,2.3-4.3,2.5-6.2,2.6
		c-1.5,0.1-3,0.2-4.1,1.5L13,27.1z"/>
	<path fill="#FAFAFA" d="M13,25c-1.3-1-2.8-1.2-4.1-1.3l-0.2,0c-1.7-0.1-3.4-0.2-5.3-2.1c-2.8-3.1-1.9-5.9-1.2-8.4l0.2-0.7
		c0.5-1.9,0.9-3.8-0.2-5.6l2.7-2.8C6,4.9,7.2,5.3,8.6,5.3c1.6,0,3.2-0.5,4.6-1.4c1.5,0.9,3,1.4,4.5,1.4c1.4,0,2.7-0.4,3.7-1.1
		l2.4,2.7c-1.4,2.1-0.7,4.3-0.1,6.3c0.9,2.8,1.4,5.4-1.2,8.4c-1.6,1.8-3.2,2-5.1,2.1C16.1,23.7,14.4,23.8,13,25z"/>
</g>
</svg>
