<?xml version="1.0" encoding="utf-8"?>
<!-- Generator: Adobe Illustrator 18.0.0, SVG Export Plug-In . SVG Version: 6.00 Build 0)  -->
<!DOCTYPE svg PUBLIC "-//W3C//DTD SVG 1.1//EN" "http://www.w3.org/Graphics/SVG/1.1/DTD/svg11.dtd">
<svg version="1.1" id="Layer_1" xmlns="http://www.w3.org/2000/svg" xmlns:xlink="http://www.w3.org/1999/xlink" x="0px" y="0px"
	 viewBox="0 0 60 90" enable-background="new 0 0 60 90" xml:space="preserve">
<g>
	<path fill="#9B9391" d="M30,69.3l-0.6-0.6c-2.4-2.6-8.6-4.4-11.8-4.7c-3.9-0.2-8.3,1.1-12.8-3.2c-7-7.1-4.9-13.9-3.2-19.3
		c1.3-4.4,2.4-7.8-0.6-10.9l-0.3-0.6l9.6-9.2l0.6,0.6c1.6,1.6,5.8,4.4,8.8,4.4c3.1,0,7.8-2.8,10.5-4.5l0.5-0.3l0.3,0.3
		c2.8,1.8,7.6,4.5,10.7,4.5c2.9,0,7.1-2.8,8.8-4.4l0.6-0.6l8.9,9.2l-0.6,0.6c-3.1,3.2-1.9,6.5-0.6,10.9c1.6,5.4,3.6,12-3.1,19.1
		c-4.4,4.5-8.9,3.2-12.8,3.4c-3.2,0.2-9.4,1.9-11.8,4.5L30,69.3z"/>
	<path fill="#FAFAFA" d="M30,65.9c-3.2-2.6-8.9-4.1-12.2-4.5h-0.2c-0.3,0-0.6,0-0.8,0c-0.6,0-1.1,0-1.8,0c-0.5,0-1.1,0-1.8,0
		c-2.4,0-4.7-0.5-6.8-2.6c-5.8-6-4.2-11.4-2.6-16.5l0.2-0.5c1.1-3.9,2.3-7.9-0.3-11.7l6.3-6c2.1,1.8,6.2,4.1,9.4,4.1
		c3.6,0,8.1-2.6,11-4.4c2.4,1.5,7.5,4.4,11.2,4.4c3.2,0,7.1-2.3,9.2-4.1l5.7,5.8c-2.8,3.9-1.6,7.9-0.3,11.8l0.2,0.5
		c1.5,5,3.2,10.5-2.4,16.7c-2.1,2.3-4.2,2.6-6.8,2.6c-0.5,0-1.1,0-1.6,0c-0.6,0-1.1,0-1.8,0c-0.3,0-0.6,0-0.8,0
		C39.2,61.7,33.2,63.3,30,65.9z"/>
</g>
</svg>
