<?xml version="1.0" encoding="utf-8"?>
<!-- Generator: Adobe Illustrator 19.2.1, SVG Export Plug-In . SVG Version: 6.00 Build 0)  -->
<!DOCTYPE svg PUBLIC "-//W3C//DTD SVG 1.1//EN" "http://www.w3.org/Graphics/SVG/1.1/DTD/svg11.dtd">
<svg version="1.1" id="Layer_1" xmlns="http://www.w3.org/2000/svg" xmlns:xlink="http://www.w3.org/1999/xlink" x="0px" y="0px"
	 viewBox="0 0 29.11 27.42" enable-background="new 0 0 29.11 27.42" xml:space="preserve">
<g>
	<path fill="#AAA3A2" d="M13.33,26.34c-0.84-0.72-1.8-0.84-3.12-0.96h-0.12h-0.06c-2.46-0.06-4.92-0.42-7.2-2.88
		c-3.9-4.02-2.88-7.8-2.1-10.56v-0.3l0.24-0.42c0.48-2.04,0.84-3.3,0.06-4.44L0.07,5.4L5.59,0l1.32,0.96
		c1.08,0.72,1.86,1.08,2.94,1.08c1.38,0,2.64-0.42,3.9-1.14l0.96-0.66l0.96,0.66c1.38,0.72,2.76,1.14,4.02,1.14
		c1.08-0.06,2.1-0.42,2.88-0.96L23.95,0l5.16,5.64l-0.96,1.14c-0.96,1.32-0.48,2.76,0.06,4.74l0.06,0.3v0.06
		c0.96,3.3,1.5,6.78-1.8,10.5c-2.52,2.64-5.16,2.76-6.96,2.88c-1.5,0.06-2.76,0.06-3.84,1.08l-1.26,1.08L13.33,26.34z"/>
	<path fill="#FAFAFA" d="M14.47,24.96c-1.38-1.14-2.94-1.2-4.38-1.44H9.85c-2.22-0.06-4.02-0.3-5.88-2.22
		c-3.24-3.3-2.16-6.36-1.44-9l0.24-0.48c0.48-2.1,1.14-4.08-0.24-6.06l3.3-3.18c1.32,0.84,2.52,1.38,4.02,1.38
		c1.74,0,3.36-0.48,4.98-1.5c1.56,0.96,3.3,1.5,4.98,1.5c1.5-0.06,2.94-0.66,3.9-1.38l2.94,3.18c-1.5,2.1-0.84,4.32-0.24,6.48v0.06
		c0.96,3.12,1.5,5.82-1.32,9c-2.04,2.1-4.08,2.22-5.7,2.22C17.77,23.52,16.15,23.64,14.47,24.96z"/>
</g>
</svg>
