<?xml version="1.0" encoding="utf-8"?>
<!-- Generator: Adobe Illustrator 18.0.0, SVG Export Plug-In . SVG Version: 6.00 Build 0)  -->
<!DOCTYPE svg PUBLIC "-//W3C//DTD SVG 1.1//EN" "http://www.w3.org/Graphics/SVG/1.1/DTD/svg11.dtd">
<svg version="1.1" id="Layer_1" xmlns="http://www.w3.org/2000/svg" xmlns:xlink="http://www.w3.org/1999/xlink" x="0px" y="0px"
	 viewBox="0 0 29 29" enable-background="new 0 0 29 29" xml:space="preserve">
<path fill="#AAAAAA" d="M13.9,29l-0.4-0.4c-1.5-1.6-2.1-1.7-4.1-1.8c-2.4-0.1-3.8-0.3-6.6-2.9c-4.2-4.3-3-8.3-1.9-11.5
	c0.8-2.6,1.4-4.6-0.4-6.5L0.2,5.5L6.1,0l0.4,0.4c1,1,1.4,1.6,3.2,1.6c1.9,0,2.6-0.6,4.2-1.7l0.3-0.2l0.3,0.2C16.1,1.4,16.8,2,18.7,2
	c1.8,0,3.4-0.6,4.4-1.6L23.5,0l5.4,5.5l-0.4,0.4c-1.8,1.9-1.2,3.9-0.4,6.5c1,3.2,2.2,7.2-1.9,11.4c-2.6,2.7-5.4,2.9-7.8,3.1
	c-2,0.1-2.5,0.2-4,1.7L13.9,29z"/>
<path fill="#FFFFFF" d="M14,26.2c-1.5-1.2-2.5-1.3-4.4-1.4c-2-0.1-3-0.2-5.2-2.3C1.1,19,2,16.3,3,13.1c0.7-2.2,1.5-4.9,0.1-7.4
	l3-2.8C7,3.6,7.8,4.1,9.6,4.1c2,0,3.1-0.6,4.5-1.5c1.5,0.9,2.5,1.5,4.5,1.5c1.8,0,3.4-0.4,4.6-1.2L26,5.6c-1.5,2.5-0.7,5.1,0,7.4
	c1,3.2,1.8,6-1.4,9.3c-2.1,2.1-4.2,2.2-6.4,2.4C16.4,24.9,15.5,25.1,14,26.2z"/>
</svg>
