<?xml version="1.0" encoding="utf-8"?>
<!-- Generator: Adobe Illustrator 18.0.0, SVG Export Plug-In . SVG Version: 6.00 Build 0)  -->
<!DOCTYPE svg PUBLIC "-//W3C//DTD SVG 1.0//EN" "http://www.w3.org/TR/2001/REC-SVG-20010904/DTD/svg10.dtd">
<svg version="1.0" id="Layer_1" xmlns="http://www.w3.org/2000/svg" xmlns:xlink="http://www.w3.org/1999/xlink" x="0px" y="0px"
	 width="37px" height="29px" viewBox="0 0 37 29" enable-background="new 0 0 37 29" xml:space="preserve">
<g>
	<g id="XMLID_1_">
		<g>
			<path fill="#FFFFFF" d="M34.9599991,12.8000002c0.9799995,3.21,1.9900017,6.5299997-1.6299973,10.29
				c-2.3800011,2.3899994-4.8200016,2.5499992-7.170002,2.7099991c-1.9099998,0.1200008-5.8799992,0.25-7.6000004,1.6400013
				c-1.7600002-1.5100002-5.7399998-1.6300011-7.6699991-1.7300014C8.5900002,25.5799999,6.21,25.4400005,3.77,23.0900002
				c-3.76-3.7900009-2.71-7.1199999-1.6900001-10.3400002c0.77-2.4399996,1.5700002-4.96-0.2499999-7.1999998L6.1300001,1.58
				c1.2199998,1.0099999,2.9200001,1.5600001,4.8400002,1.5600001c1.9799995,0,6.0199995-0.5800002,7.79-1.6600001
				c1.7700005,1.0799999,5.8099995,1.6600001,7.789999,1.6600001c1.9099998,0,3.6000004-0.5400002,4.8200016-1.5500001
				l3.9099979,3.9400001C33.4199982,7.79,34.2000008,10.3299999,34.9599991,12.8000002z"/>
			<path fill="#999999" d="M26.1599998,25.7999992c2.3500004-0.1599998,4.7900009-0.3199997,7.170002-2.7099991
				c3.6199989-3.7600002,2.6099968-7.0799999,1.6299973-10.29c-0.7599983-2.4700003-1.5400009-5.0100002,0.3199997-7.27
				L31.3700008,1.59c-1.2200012,1.0099999-2.9100018,1.5500001-4.8200016,1.5500001
				c-1.9799995,0-6.0199986-0.5800002-7.789999-1.6600001c-1.7700005,1.0799999-5.8100004,1.6600001-7.79,1.6600001
				c-1.9200001,0-3.6200004-0.5500002-4.8400002-1.5600001L1.83,5.5500002C3.6500001,7.79,2.8499999,10.3100004,2.0799999,12.75
				C1.0599999,15.9700003,0.01,19.2999992,3.77,23.0900002C6.21,25.4400005,8.5900002,25.5799999,10.8900003,25.7099991
				c1.9299994,0.1000004,5.9099989,0.2200012,7.6699991,1.7300014C20.2800007,26.0499992,24.25,25.9200001,26.1599998,25.7999992z
				 M34.1300011,23.8899994c-2.6800003,2.710001-5.4500008,2.8900013-7.9000015,3.0500011
				c-2.0299988,0.1299992-5.7799988,0.25-7.2999992,1.6800003L18.5300007,29l-0.3900013-0.3899994
				c-1.5299988-1.5500011-5.289999-1.6500015-7.3099995-1.7600002C8.4399996,26.7099991,5.73,26.5599995,2.97,23.9099998
				c-4.25-4.289999-2.99-8.29-1.97-11.5C1.8200001,9.8199997,2.47,7.77,0.63,5.9200001L0.21,5.5l5.9400001-5.48L6.5300002,0.4
				c1.02,1.03,2.5999999,1.6,4.4400001,1.6c1.8800001,0,5.8200006-0.59,7.4800005-1.67l0.3099995-0.2l0.3099995,0.2
				C20.7199993,1.41,24.6700001,2,26.5499992,2c1.8400002,0,3.4099998-0.5700001,4.4400005-1.6L31.3899994,0l5.4799995,5.52
				l-0.3999977,0.4000001C34.6100006,7.79,35.2400017,9.8500004,36.0400009,12.46
				C37.0200005,15.6599998,38.2299995,19.6399994,34.1300011,23.8899994z"/>
		</g>
		<g>
		</g>
	</g>
</g>
</svg>
