<?xml version="1.0" encoding="utf-8"?>
<!-- Generator: Adobe Illustrator 18.0.0, SVG Export Plug-In . SVG Version: 6.00 Build 0)  -->
<!DOCTYPE svg PUBLIC "-//W3C//DTD SVG 1.1//EN" "http://www.w3.org/Graphics/SVG/1.1/DTD/svg11.dtd">
<svg version="1.1" id="Layer_1" xmlns="http://www.w3.org/2000/svg" xmlns:xlink="http://www.w3.org/1999/xlink" x="0px" y="0px"
	 width="34px" height="30px" viewBox="0 0 34 30" enable-background="new 0 0 34 30" xml:space="preserve">
<g>
	<path fill="#997373" d="M17,30l-0.4-0.4c-1.6-1.6-3.4-1.7-5.4-1.9c-2.4-0.1-5.2-0.3-8.1-3c-4.4-4.4-3.1-8.6-2-11.9
		C1.8,10.1,2.6,8,0.7,6.1L0.3,5.7l6-5.7l0.4,0.4c1.2,1,2.6,1.7,4.6,1.7s3.9-0.6,5.6-1.8l0.3-0.2l0.4,0.2c1.7,1.1,3.7,1.8,5.6,1.8
		c1.8,0,3.5-0.6,4.5-1.7L28.2,0l5.6,5.7l-0.4,0.4c-1.9,2-1.3,4-0.4,6.7c1.1,3.3,2.2,7.4-1.9,11.8c-2.7,2.8-5.6,3-8.1,3.1
		c-2,0.1-3.9,0.2-5.4,1.8L17,30z"/>
	<path fill="#FAFAFA" d="M17,28c-1.7-1.4-3.6-1.5-5.4-1.7h-0.3c-2.7-0.1-4.9-0.4-7.2-2.6c-3.8-3.8-2.6-7.3-1.7-10.4l0.2-0.5
		C3.3,10.4,4,8,2.4,5.8l4-3.7c1.5,1,3.1,1.6,4.9,1.6c2.1,0,4.1-0.6,6-1.7c1.9,1.1,4,1.7,6,1.7c1.8-0.1,3.6-0.7,4.8-1.6l3.6,3.7
		c-1.8,2.4-1,5-0.2,7.4v0.1c1.1,3.5,1.8,6.7-1.6,10.3c-2.4,2.4-5,2.5-7,2.6C21,26.3,18.9,26.4,17,28z"/>
</g>
</svg>
