<?xml version="1.0" encoding="utf-8"?>
<!-- Generator: Adobe Illustrator 19.2.1, SVG Export Plug-In . SVG Version: 6.00 Build 0)  -->
<!DOCTYPE svg PUBLIC "-//W3C//DTD SVG 1.1//EN" "http://www.w3.org/Graphics/SVG/1.1/DTD/svg11.dtd">
<svg version="1.1" id="Layer_1" xmlns="http://www.w3.org/2000/svg" xmlns:xlink="http://www.w3.org/1999/xlink" x="0px" y="0px"
	 viewBox="0 0 53.69 58.1" enable-background="new 0 0 53.69 58.1" xml:space="preserve">
<g>
	<path fill="#8C8380" d="M26.97,58.1l-0.7-0.7c-2.8-3-4-3.2-7.5-3.7c-4.2-0.2-8.2-0.5-13.3-5.8c-7.8-8.5-5.5-16.6-3.7-23.1
		c1.2-5.1,2.5-9.2-0.7-12.9l-0.7-0.7l10.6-11.1l0.7,0.7c2.1,1.8,3.6,3.2,7.1,3.2s4.9-1.2,7.9-3.5l0.5-0.5l0.7,0.5
		c3,2.1,4.5,3.5,7.9,3.5c3.2,0,5.2-1.2,6.8-3.2l0.9-0.7l9.9,11.1l-0.7,0.7c-3.5,3.9-2.3,7.6-0.7,12.9c1.8,6.2,3.9,14.3-3.5,22.6
		c-4.8,5.3-8.9,5.8-13.3,6c-3.5,0.2-4.9,0.5-7.5,3.5L26.97,58.1z"/>
	<path fill="#FAFAFA" d="M26.97,53.2c-3-2.3-4.5-2.8-7.5-3h-0.5c-3.9-0.2-6.8-0.5-11.2-4.8c-6.4-7.2-4.3-13.6-2.7-19.4l0.5-1.6
		c1.2-4.4,2.1-8.8-0.5-12.9l6.2-6.5c2.5,1.8,4.3,2.8,7.5,2.8c3.7,0,5.4-1.2,8.6-3.2c3.5,2.1,4.9,3.2,8.4,3.2c3.2,0,5.2-0.9,7.5-2.5
		l5.5,6.2c-3.2,4.8-1.6,9.9-0.2,14.5c2.1,6.5,3.2,12.5-2.8,19.4c-3.7,4.2-6.4,4.6-10.8,4.8C32.17,50.2,30.17,50.5,26.97,53.2z"/>
</g>
</svg>
