<?xml version="1.0" encoding="utf-8"?>
<!-- Generator: Adobe Illustrator 19.2.1, SVG Export Plug-In . SVG Version: 6.00 Build 0)  -->
<!DOCTYPE svg PUBLIC "-//W3C//DTD SVG 1.1//EN" "http://www.w3.org/Graphics/SVG/1.1/DTD/svg11.dtd">
<svg version="1.1" id="Layer_1" xmlns="http://www.w3.org/2000/svg" xmlns:xlink="http://www.w3.org/1999/xlink" x="0px" y="0px"
	 viewBox="0 0 48.52 45.7" enable-background="new 0 0 48.52 45.7" xml:space="preserve">
<g>
	<path fill="#AAA3A2" d="M22.22,43.9c-1.4-1.2-3-1.4-5.2-1.6h-0.2h-0.1c-4.1-0.1-8.2-0.7-12-4.8c-6.5-6.7-4.8-13-3.5-17.6v-0.5
		l0.4-0.7c0.8-3.4,1.4-5.5,0.1-7.4L0.12,9l9.2-9l2.2,1.6c1.8,1.2,3.1,1.8,4.9,1.8c2.3,0,4.4-0.7,6.5-1.9l1.6-1.1l1.6,1.1
		c2.3,1.2,4.6,1.9,6.7,1.9c1.8-0.1,3.5-0.7,4.8-1.6l2.3-1.8l8.6,9.4l-1.6,1.9c-1.6,2.2-0.8,4.6,0.1,7.9l0.1,0.5v0.1
		c1.6,5.5,2.5,11.3-3,17.5c-4.2,4.4-8.6,4.6-11.6,4.8c-2.5,0.1-4.6,0.1-6.4,1.8l-2.1,1.8L22.22,43.9z"/>
	<path fill="#FAFAFA" d="M24.12,41.6c-2.3-1.9-4.9-2-7.3-2.4h-0.4c-3.7-0.1-6.7-0.5-9.8-3.7c-5.4-5.5-3.6-10.6-2.4-15l0.4-0.8
		c0.8-3.5,1.9-6.8-0.4-10.1l5.5-5.3c2.2,1.4,4.2,2.3,6.7,2.3c2.9,0,5.6-0.8,8.3-2.5c2.6,1.6,5.5,2.5,8.3,2.5
		c2.5-0.1,4.9-1.1,6.5-2.3l4.9,5.3c-2.5,3.5-1.4,7.2-0.4,10.8v0.1c1.6,5.2,2.5,9.7-2.2,15c-3.4,3.5-6.8,3.7-9.5,3.7
		C29.62,39.2,26.92,39.4,24.12,41.6z"/>
</g>
</svg>
