<?xml version="1.0" encoding="utf-8"?>
<!-- Generator: Adobe Illustrator 18.0.0, SVG Export Plug-In . SVG Version: 6.00 Build 0)  -->
<!DOCTYPE svg PUBLIC "-//W3C//DTD SVG 1.1//EN" "http://www.w3.org/Graphics/SVG/1.1/DTD/svg11.dtd">
<svg version="1.1" id="Layer_1" xmlns="http://www.w3.org/2000/svg" xmlns:xlink="http://www.w3.org/1999/xlink" x="0px" y="0px"
	 viewBox="0 0 37 29" enable-background="new 0 0 37 29" xml:space="preserve">
<g>
	<path fill="#FFFFFF" d="M18.8,0.8c3.6,2.3,10.3,2.3,12.6,0l4.7,4.7c-4.7,4.7,4.7,10.6-2.3,17.9C29.1,28,22.2,24.6,18.5,28
		c-3.6-3.6-10.3,0-15.2-4.7C-3.9,16.1,5.7,10.2,1,5.5"/>
	<path fill="#AAAAAA" d="M18.5,29l-0.4-0.4c-1.5-1.5-5.3-2.6-7.3-2.8c-2.4-0.1-5.1,0.7-7.9-1.9c-4.3-4.3-3-8.3-2-11.5
		c0.8-2.6,1.5-4.6-0.4-6.5L0.2,5.5L6.1,0l0.4,0.4c1,1,3.6,2.6,5.4,2.6c1.9,0,4.8-1.6,6.5-2.7l0.3-0.2l0.3,0.2
		C20.7,1.4,23.7,3,25.6,3C27.4,3,30,1.4,31,0.4L31.4,0l5.5,5.5l-0.4,0.4c-1.9,1.9-1.2,3.9-0.4,6.5c1,3.2,2.2,7.2-1.9,11.4
		c-2.7,2.7-5.5,1.9-7.9,2c-2,0.1-5.8,1.2-7.3,2.7L18.5,29z"/>
	<path fill="#FFFFFF" d="M18.6,26.4c-2.1-1.3-5.1-2.4-7.2-2.6l-0.4,0c-2.2-0.1-4.4,0.8-6.6-1.4C1,19.1,1.9,16.1,2.9,13
		C3.6,10.7,4.5,8.1,3,5.7l3.2-3C7.5,3.5,10.1,5,12,5c1.7,0,4.5-1.5,6.8-2.6C21.1,3.5,23.8,5,25.6,5c1.8,0,4.4-1.4,5.7-2.3l2.9,2.9
		c-1.6,2.4-0.7,5.1,0,7.4c1,3.1,1.9,6.1-1.4,9.5c-2.1,2.1-4.3,1.3-6.6,1.4l-0.5,0C23.5,24.1,20.6,25.3,18.6,26.4z"/>
</g>
</svg>
