<?xml version="1.0" encoding="utf-8"?>
<!-- Generator: Adobe Illustrator 19.2.1, SVG Export Plug-In . SVG Version: 6.00 Build 0)  -->
<!DOCTYPE svg PUBLIC "-//W3C//DTD SVG 1.1//EN" "http://www.w3.org/Graphics/SVG/1.1/DTD/svg11.dtd">
<svg version="1.1" id="Layer_1" xmlns="http://www.w3.org/2000/svg" xmlns:xlink="http://www.w3.org/1999/xlink" x="0px" y="0px"
	 viewBox="0 0 36.27 29.1" enable-background="new 0 0 36.27 29.1" xml:space="preserve">
<g>
	<path fill="#AAA3A2" d="M18.05,29.1l-0.36-0.36c-1.44-1.56-5.16-2.64-7.08-2.82C8.27,25.8,5.63,26.58,2.93,24
		c-4.2-4.26-2.94-8.34-1.92-11.58c0.78-2.64,1.44-4.68-0.36-6.54L0.47,5.52L6.23,0l0.36,0.36C7.55,1.32,10.07,3,11.87,3
		c1.86,0,4.68-1.68,6.3-2.7l0.3-0.18l0.18,0.18C20.33,1.38,23.21,3,25.07,3c1.74,0,4.26-1.68,5.28-2.64L30.71,0l5.34,5.52
		l-0.36,0.36c-1.86,1.92-1.14,3.9-0.36,6.54c0.96,3.24,2.16,7.2-1.86,11.46c-2.64,2.7-5.34,1.92-7.68,2.04
		c-1.92,0.12-5.64,1.14-7.08,2.7L18.05,29.1z"/>
	<path fill="#FAFAFA" d="M18.05,27.06c-1.92-1.56-5.34-2.46-7.32-2.7h-0.12c-0.18,0-0.36,0-0.48,0c-0.36,0-0.66,0-1.08,0
		c-0.3,0-0.66,0-1.08,0c-1.44,0-2.82-0.3-4.08-1.56c-3.48-3.6-2.52-6.84-1.56-9.9l0.12-0.3c0.66-2.34,1.38-4.74-0.18-7.02l3.78-3.6
		c1.26,1.08,3.72,2.46,5.64,2.46c2.16,0,4.86-1.56,6.6-2.64c1.44,0.9,4.5,2.64,6.72,2.64c1.92,0,4.26-1.38,5.52-2.46l3.42,3.48
		c-1.68,2.34-0.96,4.74-0.18,7.08l0.12,0.3c0.9,3,1.92,6.3-1.44,10.02c-1.26,1.38-2.52,1.56-4.08,1.56c-0.3,0-0.66,0-0.96,0
		c-0.36,0-0.66,0-1.08,0c-0.18,0-0.36,0-0.48,0C23.57,24.54,19.97,25.5,18.05,27.06z"/>
</g>
</svg>
