<?xml version="1.0" encoding="utf-8"?>
<!-- Generator: Adobe Illustrator 18.0.0, SVG Export Plug-In . SVG Version: 6.00 Build 0)  -->
<!DOCTYPE svg PUBLIC "-//W3C//DTD SVG 1.1//EN" "http://www.w3.org/Graphics/SVG/1.1/DTD/svg11.dtd">
<svg version="1.1" id="Layer_1" xmlns="http://www.w3.org/2000/svg" xmlns:xlink="http://www.w3.org/1999/xlink" x="0px" y="0px"
	 viewBox="0 0 33 29" enable-background="new 0 0 33 29" xml:space="preserve">
<g>
	<path fill="#AAAAAA" d="M16.5,29l-0.4-0.4c-1.5-1.5-3.3-1.6-5.3-1.8c-2.4-0.1-5.1-0.3-7.9-2.9c-4.3-4.3-3-8.3-2-11.5
		c0.8-2.6,1.5-4.6-0.4-6.5L0.2,5.5L6.1,0l0.4,0.4C7.6,1.4,9.1,2,11,2c1.9,0,3.8-0.6,5.5-1.7l0.3-0.2l0.3,0.2C18.7,1.4,20.7,2,22.6,2
		C24.4,2,26,1.4,27,0.4L27.4,0l5.5,5.5l-0.4,0.4c-1.9,1.9-1.2,3.9-0.4,6.5c1,3.2,2.2,7.2-1.9,11.4c-2.7,2.7-5.5,2.9-7.9,3
		c-2,0.1-3.8,0.2-5.3,1.7L16.5,29z"/>
	<path fill="#FFFFFF" d="M16.6,26.4c-1.8-1.3-3.8-1.4-5.6-1.5c-2.2-0.1-4.4-0.2-6.6-2.4C1,19.1,1.9,16.1,2.9,13
		C3.6,10.7,4.5,8.1,3,5.7l3.2-3C7.5,3.5,9.1,4,11,4c2,0,4-0.5,5.8-1.5c1.8,1,3.8,1.5,5.8,1.5c1.8,0,3.4-0.4,4.7-1.3l2.9,2.9
		c-1.6,2.4-0.7,5.1,0,7.4c1,3.1,1.9,6.1-1.4,9.5c-2.1,2.1-4.3,2.3-6.6,2.4C20.2,25.1,18.3,25.2,16.6,26.4z"/>
</g>
</svg>
