<?xml version="1.0" encoding="utf-8"?>
<!-- Generator: Adobe Illustrator 18.0.0, SVG Export Plug-In . SVG Version: 6.00 Build 0)  -->
<!DOCTYPE svg PUBLIC "-//W3C//DTD SVG 1.1//EN" "http://www.w3.org/Graphics/SVG/1.1/DTD/svg11.dtd">
<svg version="1.1" id="Layer_1" xmlns="http://www.w3.org/2000/svg" xmlns:xlink="http://www.w3.org/1999/xlink" width='37' height='30'
	 viewBox="0 0 37 30" enable-background="new 0 0 37 30" xml:space="preserve">
<g>
	<path fill="#997373" d="M18.5,30l-0.4-0.4c-1.5-1.6-5.3-2.7-7.3-2.9c-2.4-0.1-5.1,0.7-7.9-2c-4.3-4.4-3-8.6-2-11.9
		c0.8-2.7,1.5-4.8-0.4-6.7L0.3,5.7L6.2,0l0.4,0.4c1,1,3.6,2.7,5.4,2.7c1.9,0,4.8-1.7,6.5-2.8l0.3-0.2L19,0.3
		c1.7,1.1,4.7,2.8,6.6,2.8c1.8,0,4.4-1.7,5.4-2.7L31.4,0l5.5,5.7l-0.4,0.4c-1.9,2-1.2,4-0.4,6.7c1,3.3,2.2,7.4-1.9,11.8
		c-2.7,2.8-5.5,2-7.9,2.1c-2,0.1-5.8,1.2-7.3,2.8L18.5,30z"/>
	<path fill="#fafafa" d="M18.5,27.9c-2-1.6-5.5-2.5-7.5-2.8l-0.1,0c-0.2,0-0.4,0-0.5,0c-0.4,0-0.7,0-1.1,0c-0.3,0-0.7,0-1.1,0
		c-1.5,0-2.9-0.3-4.2-1.6c-3.6-3.7-2.6-7-1.6-10.2L2.5,13c0.7-2.4,1.4-4.9-0.2-7.2l3.9-3.7c1.3,1.1,3.8,2.5,5.8,2.5
		c2.2,0,5-1.6,6.8-2.7c1.5,0.9,4.6,2.7,6.9,2.7c2,0,4.4-1.4,5.7-2.5l3.5,3.6c-1.7,2.4-1,4.9-0.2,7.3l0.1,0.3c0.9,3.1,2,6.5-1.5,10.3
		c-1.3,1.4-2.6,1.6-4.2,1.6c-0.3,0-0.7,0-1,0c-0.4,0-0.7,0-1.1,0c-0.2,0-0.4,0-0.5,0C24.2,25.3,20.5,26.3,18.5,27.9z"/>
</g>
</svg>
