<?xml version="1.0" encoding="utf-8"?>
<!-- Generator: Adobe Illustrator 18.0.0, SVG Export Plug-In . SVG Version: 6.00 Build 0)  -->
<!DOCTYPE svg PUBLIC "-//W3C//DTD SVG 1.1//EN" "http://www.w3.org/Graphics/SVG/1.1/DTD/svg11.dtd">
<svg version="1.1" id="Layer_1" xmlns="http://www.w3.org/2000/svg" xmlns:xlink="http://www.w3.org/1999/xlink" x="0px" y="0px"
	 width="50px" height="50px" viewBox="-16 -16 50 50" enable-background="new -16 -16 50 50" xml:space="preserve">
<path fill="#F8F4F0" d="M-3.5,34C-10.4,34-16,28.4-16,21.5v-25C-16-10.4-10.4-16-3.5-16h25C28.4-16,34-10.4,34-3.5v25
	C34,28.4,28.4,34,21.5,34H-3.5z"/>
<path opacity="0.7" fill="#666677" enable-background="new    " d="M-10.4-3.5c0-3.8,3.1-6.9,6.9-6.9h25c3.8,0,6.9,3.1,6.9,6.9v25
	c0,3.8-3.1,6.9-6.9,6.9h-25c-3.8,0-6.9-3.1-6.9-6.9C-10.4,21.5-10.4-3.5-10.4-3.5z"/>
<polygon fill="#F8F4F0" points="-3.5,21.5 -3.5,-3.5 4.3,-3.5 9,13.6 13.7,-3.5 21.5,-3.5 21.5,21.5 16.6,21.5 16.6,1.8 11.5,21.5 
	6.5,21.5 1.4,1.8 1.4,21.5 "/>
</svg>
