<?xml version="1.0" encoding="utf-8"?>
<!-- Generator: Adobe Illustrator 19.2.1, SVG Export Plug-In . SVG Version: 6.00 Build 0)  -->
<!DOCTYPE svg PUBLIC "-//W3C//DTD SVG 1.1//EN" "http://www.w3.org/Graphics/SVG/1.1/DTD/svg11.dtd">
<svg version="1.1" id="Layer_1" xmlns="http://www.w3.org/2000/svg" xmlns:xlink="http://www.w3.org/1999/xlink" x="0px" y="0px"
	 viewBox="0 0 25 25" enable-background="new 0 0 25 25" xml:space="preserve">
<path fill="#F8F4F0" d="M6.25,25C2.8,25,0,22.2,0,18.75V6.25C0,2.8,2.8,0,6.25,0h12.5C22.2,0,25,2.8,25,6.25v12.5
	C25,22.2,22.2,25,18.75,25H6.25z"/>
<path opacity="0.7" fill="#666677" enable-background="new    " d="M2.8,6.25c0-1.9,1.55-3.45,3.45-3.45h12.5
	c1.9,0,3.45,1.55,3.45,3.45v12.5c0,1.9-1.55,3.45-3.45,3.45H6.25c-1.9,0-3.45-1.55-3.45-3.45V6.25z"/>
<polygon fill="#F8F4F0" points="6.25,18.75 6.25,6.25 10.15,6.25 12.5,14.8 14.85,6.25 18.75,6.25 18.75,18.75 16.3,18.75 16.3,8.9 
	13.75,18.75 11.25,18.75 8.7,8.9 8.7,18.75 "/>
</svg>
