<?xml version="1.0" encoding="utf-8"?>
<!-- Generator: Adobe Illustrator 18.0.0, SVG Export Plug-In . SVG Version: 6.00 Build 0)  -->
<!DOCTYPE svg PUBLIC "-//W3C//DTD SVG 1.0//EN" "http://www.w3.org/TR/2001/REC-SVG-20010904/DTD/svg10.dtd">
<svg version="1.0" id="Layer_1" xmlns="http://www.w3.org/2000/svg" xmlns:xlink="http://www.w3.org/1999/xlink" x="0px" y="0px"
	 width="18px" height="18px" viewBox="0 0 18 18" enable-background="new 0 0 18 18" xml:space="preserve">
<path fill="#F8F4F0" d="M4.5,18C2.0185547,18,0,15.9812012,0,13.5v-9C0,2.0187988,2.0185547,0,4.5,0h9
	C15.9814453,0,18,2.0187988,18,4.5v9c0,2.4812012-2.0185547,4.5-4.5,4.5H4.5z"/>
<path opacity="0.7" fill="#666677" d="M1.9999883,4.5c0-1.375,1.125-2.5,2.4999998-2.5h9c1.375,0,2.5,1.125,2.5,2.5v9
	c0,1.375-1.125,2.5-2.5,2.5h-9c-1.3749998,0-2.4999998-1.125-2.4999998-2.5V4.5z"/>
<polygon fill="#FFFFFF" points="4.5004883,13.5 4.5004883,4.5 7.3159356,4.5 9.006835,10.6389036 10.6786852,4.5 13.5004883,4.5 
	13.5004883,13.5 11.7524357,13.5 11.7524357,6.4155531 9.9028349,13.5 8.0912857,13.5 6.2485356,6.4155531 6.2485356,13.5 "/>
</svg>
