<?xml version="1.0" encoding="utf-8"?>
<!-- Generator: Adobe Illustrator 18.0.0, SVG Export Plug-In . SVG Version: 6.00 Build 0)  -->
<!DOCTYPE svg PUBLIC "-//W3C//DTD SVG 1.0//EN" "http://www.w3.org/TR/2001/REC-SVG-20010904/DTD/svg10.dtd">
<svg version="1.0" id="Layer_1" xmlns="http://www.w3.org/2000/svg" xmlns:xlink="http://www.w3.org/1999/xlink" x="0px" y="0px"
	 width="18px" height="18px" viewBox="0 0 18 18" enable-background="new 0 0 18 18" xml:space="preserve">
<g>
	<path fill="#F8F4F0" d="M9,0c4.9706964,0,9,4.0295534,9,9c0,4.9704533-4.0293036,9-9,9c-4.9707031,0-9-4.0295467-9-9
		C0,4.0295534,4.0292969,0,9,0"/>
	<path opacity="0.6" fill="#446B52" d="M9,2c3.8660975,0,7,3.1340971,7,7c0,3.8659077-3.1339025,7-7,7c-3.8661027,0-7-3.1340923-7-7
		C2,5.1340971,5.1338973,2,9,2"/>
	<g>
		<path fill="#FFFFFF" d="M9.0333462,7.3065343c0.4194765,0.3132825,1.1333447,0.0966692,1.5935459-0.4845338
			c0.4621859-0.5802994,0.4960155-1.3052297,0.0761185-1.6189332c-0.4186888-0.3137102-1.1314964-0.0967121-1.5927944,0.4847455
			C8.647933,6.2686906,8.6143208,6.9931626,9.0333462,7.3065343z"/>
		<path fill="#FFFFFF" d="M6.0228949,8.1373692c0.447485,0.1985569,1.0355639-0.1283865,1.3157802-0.7304244
			C7.6178989,6.806396,7.4819031,6.1574631,7.0344014,5.958776C6.5875163,5.7592583,5.9990449,6.0867305,5.718585,6.6878853
			C5.4383359,7.2896643,5.5759802,7.9386487,6.0228949,8.1373692z"/>
		<path fill="#FFFFFF" d="M11.0018778,9.2750664c0.3168678,0.4225216,1.0443878,0.3919563,1.6257906-0.0698023
			c0.5822334-0.4605217,0.7965994-1.1759615,0.4795771-1.5979619c-0.3173885-0.4235821-1.0449419-0.392375-1.6268578,0.0681939
			C10.8985863,8.1350994,10.6848545,8.8518496,11.0018778,9.2750664z"/>
		<path fill="#FFFFFF" d="M12.230051,10.9315462c-0.1520004-0.4665041-0.7867785-0.6658783-1.417099-0.4467182
			c-0.6319599,0.2199259-1.0203514,0.7755041-0.868721,1.2413874c0.1519566,0.4656887,0.7858276,0.6653929,1.417984,0.445981
			C11.992774,11.9512129,12.3819418,11.3960133,12.230051,10.9315462z"/>
		<path fill="#FFFFFF" d="M8.8408031,12.0691566c-0.0365753-0.2943382-0.1238852-0.5658226-0.0427647-0.8461962
			c0.0720015-0.2535038,0.2436218-0.4605141,0.2627068-0.7351809c0.0206928-0.316103-0.1118164-0.6499233-0.3524914-0.8905983
			C8.7057505,9.5946779,8.7023888,9.5921221,8.699316,9.5890493C8.697382,9.5871153,8.6945982,9.5835257,8.691412,9.5803394
			c-0.240447-0.240447-0.573698-0.3723869-0.8888912-0.3507843C7.5264316,9.2472181,7.3194847,9.4190025,7.066885,9.491807
			C6.7863975,9.572813,6.5147996,9.4853897,6.2197213,9.4480743C5.9193335,9.4095831,5.625453,9.5051193,5.4259057,9.7046671
			c-0.3839226,0.3839226-0.3443155,1.0472231,0.0896959,1.4812346c0.1454291,0.1454296,0.3253603,0.2532835,0.5176039,0.3084297
			c0.19381,0.0563097,0.2814708,0.1631231,0.4437714,0.3170576c0.1555266,0.1638937,0.2621703,0.2513838,0.3179674,0.4446821
			c0.0554304,0.1925278,0.1626587,0.3718328,0.3088846,0.5180588c0.4332719,0.4332714,1.0968566,0.4731636,1.4807792,0.0892401
			C8.7841558,12.6638231,8.8802052,12.3704548,8.8408031,12.0691566z"/>
	</g>
</g>
</svg>
