<?xml version="1.0" encoding="utf-8"?>
<!-- Generator: Adobe Illustrator 18.0.0, SVG Export Plug-In . SVG Version: 6.00 Build 0)  -->
<!DOCTYPE svg PUBLIC "-//W3C//DTD SVG 1.1//EN" "http://www.w3.org/Graphics/SVG/1.1/DTD/svg11.dtd">
<svg version="1.1" id="Layer_1" xmlns="http://www.w3.org/2000/svg" xmlns:xlink="http://www.w3.org/1999/xlink" x="0px" y="0px"
	 viewBox="125 95 50 50" enable-background="new 125 95 50 50" xml:space="preserve">
<g>
	<path fill="#F8F4F0" d="M150,110c5.5,0,10,4.5,10,10c0,5.5-4.5,10-10,10s-10-4.5-10-10S144.5,110,150,110"/>
	<path opacity="0.6" fill="#446B52" enable-background="new    " d="M150,110c5.5,0,10,4.5,10,10c0,5.5-4.5,10-10,10s-10-4.5-10-10
		S144.5,110,150,110"/>
	<g>
		<path fill="#FFFFFF" d="M150,117.3c0.7,0.5,1.8,0.2,2.5-0.8c0.7-0.9,0.8-2.1,0.1-2.6c-0.7-0.5-1.8-0.2-2.5,0.8
			C149.4,115.6,149.3,116.8,150,117.3z"/>
		<path fill="#FFFFFF" d="M145.2,118.6c0.7,0.3,1.7-0.2,2.1-1.2c0.4-1,0.2-2-0.5-2.3c-0.7-0.4-1.7,0.2-2.1,1.1
			C144.2,117.2,144.5,118.3,145.2,118.6z"/>
		<path fill="#FFFFFF" d="M153.1,120.4c0.5,0.7,1.6,0.6,2.6-0.1c1-0.7,1.3-1.9,0.8-2.5c-0.5-0.7-1.6-0.6-2.6,0.1
			C152.9,118.6,152.6,119.7,153.1,120.4z"/>
		<path fill="#FFFFFF" d="M155,123c-0.2-0.8-1.2-1-2.2-0.7c-1,0.4-1.6,1.2-1.4,2c0.2,0.7,1.2,1,2.2,0.7
			C154.6,124.6,155.3,123.8,155,123z"/>
		<path fill="#FFFFFF" d="M149.6,124.8c0-0.5-0.2-0.9,0-1.4c0.1-0.4,0.4-0.7,0.4-1.2c0-0.5-0.2-1-0.6-1.4l0,0l0,0
			c-0.4-0.4-0.9-0.6-1.4-0.6c-0.4,0-0.8,0.3-1.2,0.4c-0.4,0.1-0.9,0-1.4-0.1s-1,0.1-1.2,0.4c-0.6,0.6-0.6,1.7,0.2,2.4
			c0.2,0.2,0.5,0.4,0.8,0.5s0.4,0.2,0.7,0.5c0.2,0.3,0.4,0.4,0.5,0.7c0.1,0.3,0.2,0.6,0.5,0.8c0.7,0.7,1.8,0.8,2.4,0.2
			C149.6,125.8,149.7,125.3,149.6,124.8z"/>
	</g>
</g>
</svg>
