<?xml version="1.0" encoding="utf-8"?>
<!-- Generator: Adobe Illustrator 19.2.1, SVG Export Plug-In . SVG Version: 6.00 Build 0)  -->
<!DOCTYPE svg PUBLIC "-//W3C//DTD SVG 1.1//EN" "http://www.w3.org/Graphics/SVG/1.1/DTD/svg11.dtd">
<svg version="1.1" id="Layer_1" xmlns="http://www.w3.org/2000/svg" xmlns:xlink="http://www.w3.org/1999/xlink" x="0px" y="0px"
	 viewBox="0 0 20 20" enable-background="new 0 0 20 20" xml:space="preserve">
<g>
	<path fill="#F8F4F0" d="M10,0c5.5,0,10,4.5,10,10s-4.5,10-10,10S0,15.5,0,10S4.5,0,10,0"/>
	<path opacity="0.6" fill="#446B52" enable-background="new    " d="M10,0c5.5,0,10,4.5,10,10s-4.5,10-10,10S0,15.5,0,10S4.5,0,10,0
		"/>
	<g>
		<path fill="#FFFFFF" d="M10,7.3c0.7,0.5,1.8,0.2,2.5-0.8c0.7-0.9,0.8-2.1,0.1-2.6s-1.8-0.2-2.5,0.8C9.4,5.6,9.3,6.8,10,7.3z"/>
		<path fill="#FFFFFF" d="M5.2,8.6c0.7,0.3,1.7-0.2,2.1-1.2c0.4-1,0.2-2-0.5-2.3C6.1,4.7,5.1,5.3,4.7,6.2C4.2,7.2,4.5,8.3,5.2,8.6z"
			/>
		<path fill="#FFFFFF" d="M13.1,10.4c0.5,0.7,1.6,0.6,2.6-0.1s1.3-1.9,0.8-2.5c-0.5-0.7-1.6-0.6-2.6,0.1
			C12.9,8.6,12.6,9.7,13.1,10.4z"/>
		<path fill="#FFFFFF" d="M15,13c-0.2-0.8-1.2-1-2.2-0.7c-1,0.4-1.6,1.2-1.4,2c0.2,0.7,1.2,1,2.2,0.7C14.6,14.6,15.3,13.8,15,13z"/>
		<path fill="#FFFFFF" d="M9.6,14.8c0-0.5-0.2-0.9,0-1.4C9.7,13,10,12.7,10,12.2s-0.2-1-0.6-1.4l0,0l0,0C9,10.4,8.5,10.2,8,10.2
			c-0.4,0-0.8,0.3-1.2,0.4s-0.9,0-1.4-0.1s-1,0.1-1.2,0.4c-0.6,0.6-0.6,1.7,0.2,2.4c0.2,0.2,0.5,0.4,0.8,0.5s0.4,0.2,0.7,0.5
			c0.2,0.3,0.4,0.4,0.5,0.7c0.1,0.3,0.2,0.6,0.5,0.8c0.7,0.7,1.8,0.8,2.4,0.2C9.6,15.8,9.7,15.3,9.6,14.8z"/>
	</g>
</g>
</svg>
