<?xml version="1.0" encoding="utf-8"?>
<!-- Generator: Adobe Illustrator 18.0.0, SVG Export Plug-In . SVG Version: 6.00 Build 0)  -->
<!DOCTYPE svg PUBLIC "-//W3C//DTD SVG 1.1//EN" "http://www.w3.org/Graphics/SVG/1.1/DTD/svg11.dtd">
<svg version="1.1" id="Layer_1" xmlns="http://www.w3.org/2000/svg" xmlns:xlink="http://www.w3.org/1999/xlink" x="0px" y="0px"
	 viewBox="-16 -16 50 50" enable-background="new -16 -16 50 50" xml:space="preserve">
<g>
	<path fill="#F8F4F0" d="M9-16C22.8-16,34-4.8,34,9c0,13.8-11.2,25-25,25C-4.8,34-16,22.8-16,9C-16-4.8-4.8-16,9-16"/>
	<path opacity="0.6" fill="#446B52" enable-background="new    " d="M9-16C22.8-16,34-4.8,34,9c0,13.8-11.2,25-25,25
		C-4.8,34-16,22.8-16,9C-16-4.8-4.8-16,9-16"/>
	<g>
		<path fill="#FFFFFF" d="M8.9,2.2c1.7,1.2,4.5,0.4,6.3-1.9c1.8-2.3,2-5.2,0.3-6.4C13.8-7.4,11-6.6,9.2-4.2C7.4-1.9,7.2,0.9,8.9,2.2
			z"/>
		<path fill="#FFFFFF" d="M-3.1,5.5C-1.3,6.3,1.1,5,2.2,2.6c1.1-2.4,0.6-5-1.2-5.7C-0.8-4-3.2-2.7-4.3-0.3C-5.4,2.1-4.8,4.7-3.1,5.5
			z"/>
		<path fill="#FFFFFF" d="M16.7,10c1.3,1.7,4.1,1.6,6.4-0.3C25.5,7.9,26.3,5,25,3.4c-1.3-1.7-4.1-1.6-6.5,0.3
			C16.3,5.5,15.4,8.3,16.7,10z"/>
		<path fill="#FFFFFF" d="M21.6,16.6c-0.6-1.9-3.1-2.6-5.6-1.8c-2.5,0.9-4,3.1-3.4,4.9c0.6,1.8,3.1,2.6,5.6,1.8
			C20.6,20.6,22.2,18.4,21.6,16.6z"/>
		<path fill="#FFFFFF" d="M8.1,21.1C8,19.9,7.6,18.8,8,17.7c0.3-1,1-1.8,1-2.9c0.1-1.3-0.4-2.6-1.4-3.5c0,0,0,0,0,0c0,0,0,0,0,0
			c-1-1-2.3-1.5-3.5-1.4c-1.1,0.1-1.9,0.8-2.9,1c-1.1,0.3-2.2,0-3.4-0.2c-1.2-0.2-2.4,0.2-3.1,1c-1.5,1.5-1.4,4.2,0.4,5.9
			c0.6,0.6,1.3,1,2.1,1.2c0.8,0.2,1.1,0.6,1.8,1.3c0.6,0.7,1,1,1.3,1.8c0.2,0.8,0.6,1.5,1.2,2.1c1.7,1.7,4.4,1.9,5.9,0.4
			C7.9,23.4,8.3,22.3,8.1,21.1z"/>
	</g>
</g>
</svg>
