<?xml version="1.0" encoding="UTF-8" standalone="no"?>
<!-- Created with Inkscape (http://www.inkscape.org/) -->

<svg
   xmlns:dc="http://purl.org/dc/elements/1.1/"
   xmlns:cc="http://creativecommons.org/ns#"
   xmlns:rdf="http://www.w3.org/1999/02/22-rdf-syntax-ns#"
   xmlns:svg="http://www.w3.org/2000/svg"
   xmlns="http://www.w3.org/2000/svg"
   xmlns:sodipodi="http://sodipodi.sourceforge.net/DTD/sodipodi-0.dtd"
   xmlns:inkscape="http://www.inkscape.org/namespaces/inkscape"
   version="1.1"
   width="17"
   height="17"
   id="svg4619"
   inkscape:version="0.91+devel+osxmenu r12911"
   sodipodi:docname="hospital-17.svg"
   viewBox="0 0 17 17">
  <sodipodi:namedview
     pagecolor="#000000"
     bordercolor="#666666"
     borderopacity="1"
     objecttolerance="10"
     gridtolerance="10"
     guidetolerance="10"
     inkscape:pageopacity="0"
     inkscape:pageshadow="2"
     inkscape:window-width="640"
     inkscape:window-height="480"
     id="namedview3382"
     inkscape:document-units="px"
     showgrid="false"
     inkscape:zoom="35.941176"
     inkscape:cx="5.0220949"
     inkscape:cy="7.1366612"
     inkscape:current-layer="svg4619" />
  <defs
     id="defs4621" />
  <metadata
     id="metadata4624">
    <rdf:RDF>
      <cc:Work
         rdf:about="">
        <dc:format>image/svg+xml</dc:format>
        <dc:type
           rdf:resource="http://purl.org/dc/dcmitype/StillImage" />
        <dc:title />
      </cc:Work>
    </rdf:RDF>
  </metadata>
  <path style="fill:#000000;fill-opacity:1"
     d="M 6.5384615,0 C 5.814,0 5.2307692,0.5832308 5.2307692,1.3076923 l 0,3.9230769 -3.9230769,0 C 0.5832308,5.2307692 0,5.814 0,6.5384615 l 0,3.9230775 c 0,0.724461 0.6204072,1.536799 1.3076923,1.307692 l 3.9230769,0 0,3.923077 C 5.2307692,16.416769 5.814,17 6.5384615,17 l 3.9230775,0 c 0.724461,0 1.307692,-0.583231 1.307692,-1.307692 l 0,-3.923077 3.923077,0 C 16.416769,11.769231 17,11.186 17,10.461539 L 17,6.5384615 C 17,5.814 16.416769,5.2307692 15.692308,5.2307692 l -3.923077,0 0,-3.9230769 C 11.769231,0.5832308 11.186,0 10.461539,0 Z"
     inkscape:connector-curvature="0"
     id="rect8206-4-3"
      />
</svg>
