<svg viewBox="-295 194 14 14" width="14" height="14" data-reactid=".0.1.1.$information-11=1svg88.0.0"><path d="M-288.4,196
	c-0.6,0-1.1,0.5-1.1,1.1s0.5,1.1,1.1,1.1s1.1-0.5,1.1-1.1S-287.8,196-288.4,196z M-291,199v0.8c0,0,1.5,0,1.5,1.5v1.5
	c0,1.5-1.5,1.5-1.5,1.5v0.8h5.2v-0.8c0,0-1.2,0-1.2-1.5V200c0,0,0-1-1-1H-291z" style="stroke-linejoin:round;stroke-miterlimit:4px;" fill="#000000" stroke="#000000" stroke-width="1" data-reactid=".0.1.1.$information-11=1svg88.0.0.2:$information-11=1svg-0-fill"></path><path d="M-288.4,196
	c-0.6,0-1.1,0.5-1.1,1.1s0.5,1.1,1.1,1.1s1.1-0.5,1.1-1.1S-287.8,196-288.4,196z M-291,199v0.8c0,0,1.5,0,1.5,1.5v1.5
	c0,1.5-1.5,1.5-1.5,1.5v0.8h5.2v-0.8c0,0-1.2,0-1.2-1.5V200c0,0,0-1-1-1H-291z" style="stroke-linejoin:round;stroke-miterlimit:4px;" fill="#000000" stroke="#000000" stroke-width="1" data-reactid=".0.1.1.$information-11=1svg88.0.0.2:$information-11=1svg-1-fill"></path><path fill="#828282" d="M-288.4,196
	c-0.6,0-1.1,0.5-1.1,1.1s0.5,1.1,1.1,1.1s1.1-0.5,1.1-1.1S-287.8,196-288.4,196z M-291,199v0.8c0,0,1.5,0,1.5,1.5v1.5
	c0,1.5-1.5,1.5-1.5,1.5v0.8h5.2v-0.8c0,0-1.2,0-1.2-1.5V200c0,0,0-1-1-1H-291z" data-reactid=".0.1.1.$information-11=1svg88.0.0.3:$information-11=1svg-0-fill"></path><path fill="#828282" d="M-288.4,196
	c-0.6,0-1.1,0.5-1.1,1.1s0.5,1.1,1.1,1.1s1.1-0.5,1.1-1.1S-287.8,196-288.4,196z M-291,199v0.8c0,0,1.5,0,1.5,1.5v1.5
	c0,1.5-1.5,1.5-1.5,1.5v0.8h5.2v-0.8c0,0-1.2,0-1.2-1.5V200c0,0,0-1-1-1H-291z" data-reactid=".0.1.1.$information-11=1svg88.0.0.3:$information-11=1svg-1-fill"></path></svg>