<svg viewBox="-1 -1 14 14" width="14" height="14" data-reactid=".0.1.1.$religious-jewish-11=1svg130.0.0"><path d="m 5.5,0 -1.8,2.5 -3.7,0 2.5,3 -2.5,3 3.7,0 1.8,2.5 1.8,-2.5 3.7,0 -2.5,-3 2.5,-3 -3.7,0 z" style="stroke-linejoin:round;stroke-miterlimit:4px;" fill="#000000" stroke="#000000" stroke-width="1" data-reactid=".0.1.1.$religious-jewish-11=1svg130.0.0.2:$religious-jewish-11=1svg-0-fill"></path><path d="m 5.5,0 -1.8,2.5 -3.7,0 2.5,3 -2.5,3 3.7,0 1.8,2.5 1.8,-2.5 3.7,0 -2.5,-3 2.5,-3 -3.7,0 z" style="stroke-linejoin:round;stroke-miterlimit:4px;" fill="#000000" stroke="#000000" stroke-width="1" data-reactid=".0.1.1.$religious-jewish-11=1svg130.0.0.2:$religious-jewish-11=1svg-1-fill"></path><path fill="#828282" d="m 5.5,0 -1.8,2.5 -3.7,0 2.5,3 -2.5,3 3.7,0 1.8,2.5 1.8,-2.5 3.7,0 -2.5,-3 2.5,-3 -3.7,0 z" data-reactid=".0.1.1.$religious-jewish-11=1svg130.0.0.3:$religious-jewish-11=1svg-0-fill"></path><path fill="#828282" d="m 5.5,0 -1.8,2.5 -3.7,0 2.5,3 -2.5,3 3.7,0 1.8,2.5 1.8,-2.5 3.7,0 -2.5,-3 2.5,-3 -3.7,0 z" data-reactid=".0.1.1.$religious-jewish-11=1svg130.0.0.3:$religious-jewish-11=1svg-1-fill"></path></svg>