<svg viewBox="-1 -1 18 18" width="18" height="18" data-reactid=".0.1.1.$religious-jewish-15=1svg131.0.0"><path d="M 7.5,0 5.0454545,3.5 0,3.5 l 3.5,4 -3.5,4 5.0454545,0 L 7.5,15 9.9545455,11.5 15,11.5 l -3.5,-4 3.5,-4 -5.0454545,0 z" style="stroke-linejoin:round;stroke-miterlimit:4px;" fill="#000000" stroke="#000000" stroke-width="1" data-reactid=".0.1.1.$religious-jewish-15=1svg131.0.0.2:$religious-jewish-15=1svg-0-fill"></path><path d="M 7.5,0 5.0454545,3.5 0,3.5 l 3.5,4 -3.5,4 5.0454545,0 L 7.5,15 9.9545455,11.5 15,11.5 l -3.5,-4 3.5,-4 -5.0454545,0 z" style="stroke-linejoin:round;stroke-miterlimit:4px;" fill="#000000" stroke="#000000" stroke-width="1" data-reactid=".0.1.1.$religious-jewish-15=1svg131.0.0.2:$religious-jewish-15=1svg-1-fill"></path><path fill="#828282" d="M 7.5,0 5.0454545,3.5 0,3.5 l 3.5,4 -3.5,4 5.0454545,0 L 7.5,15 9.9545455,11.5 15,11.5 l -3.5,-4 3.5,-4 -5.0454545,0 z" data-reactid=".0.1.1.$religious-jewish-15=1svg131.0.0.3:$religious-jewish-15=1svg-0-fill"></path><path fill="#828282" d="M 7.5,0 5.0454545,3.5 0,3.5 l 3.5,4 -3.5,4 5.0454545,0 L 7.5,15 9.9545455,11.5 15,11.5 l -3.5,-4 3.5,-4 -5.0454545,0 z" data-reactid=".0.1.1.$religious-jewish-15=1svg131.0.0.3:$religious-jewish-15=1svg-1-fill"></path></svg>