<svg viewBox="-1 -1 14 14" width="14" height="14" data-reactid=".0.1.1.$suitcase-11=1svg146.0.0"><path d="M 8,3 8,1.5779816 7.360092,1 3.639908,1 3,1.7477064 3,3 1.5,3 1,3.5 1,9.5 1.5,10 9.5,10 10,9.5 10,3.5 9.5,3 Z M 4,2 7,2 7,3 4,3 Z" style="stroke-linejoin:round;stroke-miterlimit:4px;" fill="#000000" stroke="#000000" stroke-width="1" data-reactid=".0.1.1.$suitcase-11=1svg146.0.0.2:$suitcase-11=1svg-0-fill"></path><path d="M 8,3 8,1.5779816 7.360092,1 3.639908,1 3,1.7477064 3,3 1.5,3 1,3.5 1,9.5 1.5,10 9.5,10 10,9.5 10,3.5 9.5,3 Z M 4,2 7,2 7,3 4,3 Z" style="stroke-linejoin:round;stroke-miterlimit:4px;" fill="#000000" stroke="#000000" stroke-width="1" data-reactid=".0.1.1.$suitcase-11=1svg146.0.0.2:$suitcase-11=1svg-1-fill"></path><path fill="#828282" d="M 8,3 8,1.5779816 7.360092,1 3.639908,1 3,1.7477064 3,3 1.5,3 1,3.5 1,9.5 1.5,10 9.5,10 10,9.5 10,3.5 9.5,3 Z M 4,2 7,2 7,3 4,3 Z" data-reactid=".0.1.1.$suitcase-11=1svg146.0.0.3:$suitcase-11=1svg-0-fill"></path><path fill="#828282" d="M 8,3 8,1.5779816 7.360092,1 3.639908,1 3,1.7477064 3,3 1.5,3 1,3.5 1,9.5 1.5,10 9.5,10 10,9.5 10,3.5 9.5,3 Z M 4,2 7,2 7,3 4,3 Z" data-reactid=".0.1.1.$suitcase-11=1svg146.0.0.3:$suitcase-11=1svg-1-fill"></path></svg>