<svg viewBox="-2 -2 20 20" width="20" height="20" data-reactid=".0.1.1.$airport-15=1svg3.0.0"><path d="M 15.000001,6.818182 15,8.5 8.5,7.5 8.1818188,12.272728 11,14 11,15 7.4999998,14.318182 4,15 4,14 6.8181818,12.272728 6.5,7.5 0,8.5 0,6.818182 6.5,4.5 l 0,-3 C 6.5,1.5 6.5,0 7.4999998,0 8.5,0 8.5,1.5 8.5,1.5 l 0,2.8181819 z" style="stroke-linejoin:round;stroke-miterlimit:4px;" fill="#ffffff" stroke="#ffffff" stroke-width="3" data-reactid=".0.1.1.$airport-15=1svg3.0.0.2:$airport-15=1svg-0-fill"></path><path d="M 15.000001,6.818182 15,8.5 8.5,7.5 8.1818188,12.272728 11,14 11,15 7.4999998,14.318182 4,15 4,14 6.8181818,12.272728 6.5,7.5 0,8.5 0,6.818182 6.5,4.5 l 0,-3 C 6.5,1.5 6.5,0 7.4999998,0 8.5,0 8.5,1.5 8.5,1.5 l 0,2.8181819 z" style="stroke-linejoin:round;stroke-miterlimit:4px;" fill="#ffffff" stroke="#ffffff" stroke-width="3" data-reactid=".0.1.1.$airport-15=1svg3.0.0.2:$airport-15=1svg-1-fill"></path><path fill="#262525" d="M 15.000001,6.818182 15,8.5 8.5,7.5 8.1818188,12.272728 11,14 11,15 7.4999998,14.318182 4,15 4,14 6.8181818,12.272728 6.5,7.5 0,8.5 0,6.818182 6.5,4.5 l 0,-3 C 6.5,1.5 6.5,0 7.4999998,0 8.5,0 8.5,1.5 8.5,1.5 l 0,2.8181819 z" data-reactid=".0.1.1.$airport-15=1svg3.0.0.3:$airport-15=1svg-0-fill"></path><path fill="#262525" d="M 15.000001,6.818182 15,8.5 8.5,7.5 8.1818188,12.272728 11,14 11,15 7.4999998,14.318182 4,15 4,14 6.8181818,12.272728 6.5,7.5 0,8.5 0,6.818182 6.5,4.5 l 0,-3 C 6.5,1.5 6.5,0 7.4999998,0 8.5,0 8.5,1.5 8.5,1.5 l 0,2.8181819 z" data-reactid=".0.1.1.$airport-15=1svg3.0.0.3:$airport-15=1svg-1-fill"></path></svg>