<svg viewBox="-2 -2 20 20" width="20" height="20" data-reactid=".0.1.1.$america-football-15=1svg7.0.0"><path d="M 7.5 3 C 2.2058824 3 0 8 0 8 C 0 8 2.2058824 13 7.5 13 C 12.794118 13 15 8 15 8 C 15 8 12.794118 3 7.5 3 z M 4 6.5 L 5 6.5 L 5 7.5 L 7 7.5 L 7 6.5 L 8 6.5 L 8 7.5 L 10 7.5 L 10 6.5 L 11 6.5 L 11 7.5 L 12 7.5 L 12 8.5 L 11 8.5 L 11 9.5 L 10 9.5 L 10 8.5 L 8 8.5 L 8 9.5 L 7 9.5 L 7 8.5 L 5 8.5 L 5 9.5 L 4 9.5 L 4 8.5 L 3 8.5 L 3 7.5 L 4 7.5 L 4 6.5 z " style="stroke-linejoin:round;stroke-miterlimit:4px;" fill="#ffffff" stroke="#ffffff" stroke-width="3" data-reactid=".0.1.1.$america-football-15=1svg7.0.0.2:$america-football-15=1svg-0-fill"></path><path d="M 7.5 3 C 2.2058824 3 0 8 0 8 C 0 8 2.2058824 13 7.5 13 C 12.794118 13 15 8 15 8 C 15 8 12.794118 3 7.5 3 z M 4 6.5 L 5 6.5 L 5 7.5 L 7 7.5 L 7 6.5 L 8 6.5 L 8 7.5 L 10 7.5 L 10 6.5 L 11 6.5 L 11 7.5 L 12 7.5 L 12 8.5 L 11 8.5 L 11 9.5 L 10 9.5 L 10 8.5 L 8 8.5 L 8 9.5 L 7 9.5 L 7 8.5 L 5 8.5 L 5 9.5 L 4 9.5 L 4 8.5 L 3 8.5 L 3 7.5 L 4 7.5 L 4 6.5 z " style="stroke-linejoin:round;stroke-miterlimit:4px;" fill="#ffffff" stroke="#ffffff" stroke-width="3" data-reactid=".0.1.1.$america-football-15=1svg7.0.0.2:$america-football-15=1svg-1-fill"></path><path fill="#262525" d="M 7.5 3 C 2.2058824 3 0 8 0 8 C 0 8 2.2058824 13 7.5 13 C 12.794118 13 15 8 15 8 C 15 8 12.794118 3 7.5 3 z M 4 6.5 L 5 6.5 L 5 7.5 L 7 7.5 L 7 6.5 L 8 6.5 L 8 7.5 L 10 7.5 L 10 6.5 L 11 6.5 L 11 7.5 L 12 7.5 L 12 8.5 L 11 8.5 L 11 9.5 L 10 9.5 L 10 8.5 L 8 8.5 L 8 9.5 L 7 9.5 L 7 8.5 L 5 8.5 L 5 9.5 L 4 9.5 L 4 8.5 L 3 8.5 L 3 7.5 L 4 7.5 L 4 6.5 z " data-reactid=".0.1.1.$america-football-15=1svg7.0.0.3:$america-football-15=1svg-0-fill"></path><path fill="#262525" d="M 7.5 3 C 2.2058824 3 0 8 0 8 C 0 8 2.2058824 13 7.5 13 C 12.794118 13 15 8 15 8 C 15 8 12.794118 3 7.5 3 z M 4 6.5 L 5 6.5 L 5 7.5 L 7 7.5 L 7 6.5 L 8 6.5 L 8 7.5 L 10 7.5 L 10 6.5 L 11 6.5 L 11 7.5 L 12 7.5 L 12 8.5 L 11 8.5 L 11 9.5 L 10 9.5 L 10 8.5 L 8 8.5 L 8 9.5 L 7 9.5 L 7 8.5 L 5 8.5 L 5 9.5 L 4 9.5 L 4 8.5 L 3 8.5 L 3 7.5 L 4 7.5 L 4 6.5 z " data-reactid=".0.1.1.$america-football-15=1svg7.0.0.3:$america-football-15=1svg-1-fill"></path></svg>