<svg viewBox="-2 -2 16 16" width="16" height="16" data-reactid=".0.1.1.$beer-11=1svg26.0.0"><path d="M 5.5 0.125 C 4.25 0.125 3 0.25 2.5 0.5 C 2.5 0.5 2 1.5 2 3 C 2 5.5 3.5 6.5 3 10.5 C 3.5 11 7.5 11 8 10.5 C 7.5 6.5 9 5.5 9 3 C 9 1.5 8.5 0.5 8.5 0.5 C 8 0.25 6.75 0.125 5.5 0.125 z M 5.40625 0.875 C 6.4375 0.875 7.5 1 8 1.25 L 8.25 2.25 C 7 3 4 3 2.75 2.25 L 3 1.25 C 3.375 1 4.375 0.875 5.40625 0.875 z M 4.0507812 9.1621094 C 4.4941773 9.294656 4.9927851 9.3645417 5.5 9.3652344 C 6.0072149 9.3645417 6.5058227 9.294656 6.9492188 9.1621094 C 6.9597923 9.3509193 6.974156 9.793248 7 10 C 6.5 10.5 4.5 10.5 4 10 C 4.025844 9.793248 4.0402076 9.3509193 4.0507812 9.1621094 z " style="stroke-linejoin:round;stroke-miterlimit:4px;" fill="#ffffff" stroke="#ffffff" stroke-width="3" data-reactid=".0.1.1.$beer-11=1svg26.0.0.2:$beer-11=1svg-0-fill"></path><path d="M 5.5 0.125 C 4.25 0.125 3 0.25 2.5 0.5 C 2.5 0.5 2 1.5 2 3 C 2 5.5 3.5 6.5 3 10.5 C 3.5 11 7.5 11 8 10.5 C 7.5 6.5 9 5.5 9 3 C 9 1.5 8.5 0.5 8.5 0.5 C 8 0.25 6.75 0.125 5.5 0.125 z M 5.40625 0.875 C 6.4375 0.875 7.5 1 8 1.25 L 8.25 2.25 C 7 3 4 3 2.75 2.25 L 3 1.25 C 3.375 1 4.375 0.875 5.40625 0.875 z M 4.0507812 9.1621094 C 4.4941773 9.294656 4.9927851 9.3645417 5.5 9.3652344 C 6.0072149 9.3645417 6.5058227 9.294656 6.9492188 9.1621094 C 6.9597923 9.3509193 6.974156 9.793248 7 10 C 6.5 10.5 4.5 10.5 4 10 C 4.025844 9.793248 4.0402076 9.3509193 4.0507812 9.1621094 z " style="stroke-linejoin:round;stroke-miterlimit:4px;" fill="#ffffff" stroke="#ffffff" stroke-width="3" data-reactid=".0.1.1.$beer-11=1svg26.0.0.2:$beer-11=1svg-1-fill"></path><path fill="#262525" d="M 5.5 0.125 C 4.25 0.125 3 0.25 2.5 0.5 C 2.5 0.5 2 1.5 2 3 C 2 5.5 3.5 6.5 3 10.5 C 3.5 11 7.5 11 8 10.5 C 7.5 6.5 9 5.5 9 3 C 9 1.5 8.5 0.5 8.5 0.5 C 8 0.25 6.75 0.125 5.5 0.125 z M 5.40625 0.875 C 6.4375 0.875 7.5 1 8 1.25 L 8.25 2.25 C 7 3 4 3 2.75 2.25 L 3 1.25 C 3.375 1 4.375 0.875 5.40625 0.875 z M 4.0507812 9.1621094 C 4.4941773 9.294656 4.9927851 9.3645417 5.5 9.3652344 C 6.0072149 9.3645417 6.5058227 9.294656 6.9492188 9.1621094 C 6.9597923 9.3509193 6.974156 9.793248 7 10 C 6.5 10.5 4.5 10.5 4 10 C 4.025844 9.793248 4.0402076 9.3509193 4.0507812 9.1621094 z " data-reactid=".0.1.1.$beer-11=1svg26.0.0.3:$beer-11=1svg-0-fill"></path><path fill="#262525" d="M 5.5 0.125 C 4.25 0.125 3 0.25 2.5 0.5 C 2.5 0.5 2 1.5 2 3 C 2 5.5 3.5 6.5 3 10.5 C 3.5 11 7.5 11 8 10.5 C 7.5 6.5 9 5.5 9 3 C 9 1.5 8.5 0.5 8.5 0.5 C 8 0.25 6.75 0.125 5.5 0.125 z M 5.40625 0.875 C 6.4375 0.875 7.5 1 8 1.25 L 8.25 2.25 C 7 3 4 3 2.75 2.25 L 3 1.25 C 3.375 1 4.375 0.875 5.40625 0.875 z M 4.0507812 9.1621094 C 4.4941773 9.294656 4.9927851 9.3645417 5.5 9.3652344 C 6.0072149 9.3645417 6.5058227 9.294656 6.9492188 9.1621094 C 6.9597923 9.3509193 6.974156 9.793248 7 10 C 6.5 10.5 4.5 10.5 4 10 C 4.025844 9.793248 4.0402076 9.3509193 4.0507812 9.1621094 z " data-reactid=".0.1.1.$beer-11=1svg26.0.0.3:$beer-11=1svg-1-fill"></path></svg>