<svg viewBox="-294 191 20 20" width="20" height="20" data-reactid=".0.1.1.$campsite-15=1svg37.0.0"><path d="M-285,194l-5.5,9h-0.5
	c-1,0-1,1-1,1v1c0,0,0,1,1,1h13c1,0,1-1,1-1v-1c0,0,0-1-1-1h-0.5l-5.5-9C-284.2,193.6-284.8,193.6-285,194z M-284.5,197.5l3.2,5.5
	h-6.5L-284.5,197.5z" style="stroke-linejoin:round;stroke-miterlimit:4px;" fill="#ffffff" stroke="#ffffff" stroke-width="3" data-reactid=".0.1.1.$campsite-15=1svg37.0.0.2:$campsite-15=1svg-0-fill"></path><path d="M-285,194l-5.5,9h-0.5
	c-1,0-1,1-1,1v1c0,0,0,1,1,1h13c1,0,1-1,1-1v-1c0,0,0-1-1-1h-0.5l-5.5-9C-284.2,193.6-284.8,193.6-285,194z M-284.5,197.5l3.2,5.5
	h-6.5L-284.5,197.5z" style="stroke-linejoin:round;stroke-miterlimit:4px;" fill="#ffffff" stroke="#ffffff" stroke-width="3" data-reactid=".0.1.1.$campsite-15=1svg37.0.0.2:$campsite-15=1svg-1-fill"></path><path fill="#262525" d="M-285,194l-5.5,9h-0.5
	c-1,0-1,1-1,1v1c0,0,0,1,1,1h13c1,0,1-1,1-1v-1c0,0,0-1-1-1h-0.5l-5.5-9C-284.2,193.6-284.8,193.6-285,194z M-284.5,197.5l3.2,5.5
	h-6.5L-284.5,197.5z" data-reactid=".0.1.1.$campsite-15=1svg37.0.0.3:$campsite-15=1svg-0-fill"></path><path fill="#262525" d="M-285,194l-5.5,9h-0.5
	c-1,0-1,1-1,1v1c0,0,0,1,1,1h13c1,0,1-1,1-1v-1c0,0,0-1-1-1h-0.5l-5.5-9C-284.2,193.6-284.8,193.6-285,194z M-284.5,197.5l3.2,5.5
	h-6.5L-284.5,197.5z" data-reactid=".0.1.1.$campsite-15=1svg37.0.0.3:$campsite-15=1svg-1-fill"></path></svg>