<?xml version="1.0" encoding="utf-8"?>
<!-- Generator: Adobe Illustrator 17.0.0, SVG Export Plug-In . SVG Version: 6.00 Build 0)  -->
<!DOCTYPE svg PUBLIC "-//W3C//DTD SVG 1.1//EN" "http://www.w3.org/Graphics/SVG/1.1/DTD/svg11.dtd">
<svg version="1.1"
	 id="svg4764" xmlns:dc="http://purl.org/dc/elements/1.1/" xmlns:cc="http://creativecommons.org/ns#" xmlns:rdf="http://www.w3.org/1999/02/22-rdf-syntax-ns#" xmlns:svg="http://www.w3.org/2000/svg" xmlns:inkscape="http://www.inkscape.org/namespaces/inkscape"
	 xmlns="http://www.w3.org/2000/svg" xmlns:xlink="http://www.w3.org/1999/xlink" x="0px" y="0px" width="12px" height="12px"
	 viewBox="0 0 12 12" enable-background="new 0 0 12 12" xml:space="preserve">
<g id="layer1" transform="translate(0,-1040.3622)">
	
		<path id="path5457" inkscape:connector-curvature="0" opacity="0.3" fill="#FFFFFF" stroke="#FFFFFF" stroke-width="2" stroke-linecap="round" stroke-linejoin="round" enable-background="new    " d="
		M3.5,1042.362l-1,3l-1,1v3h1v1h1v-1h5v1h1v-1h1v-3l-1-1l-1-3H3.5z M4.5,1043.362h3l0.667,2H3.833L4.5,1043.362z M3,1047.362
		c0.276,0,0.5,0.224,0.5,0.5s-0.224,0.5-0.5,0.5s-0.5-0.224-0.5-0.5S2.724,1047.362,3,1047.362z M9,1047.362
		c0.276,0,0.5,0.224,0.5,0.5s-0.224,0.5-0.5,0.5s-0.5-0.224-0.5-0.5S8.724,1047.362,9,1047.362z"/>
	<g id="laundry-2" transform="matrix(0.5,0,0,0.5,-201.25,1242.6122)">
		<g id="g3289">
		</g>
	</g>
	<path id="path8522-6-8" inkscape:connector-curvature="0" fill="#444444" d="M3.5,1042.362l-1,3l-1,1v3h1v1h1v-1h5v1h1v-1h1v-3
		l-1-1l-1-3H3.5z M4.5,1043.362h3l0.667,2H3.833L4.5,1043.362z M3,1047.362c0.276,0,0.5,0.224,0.5,0.5s-0.224,0.5-0.5,0.5
		s-0.5-0.224-0.5-0.5S2.724,1047.362,3,1047.362z M9,1047.362c0.276,0,0.5,0.224,0.5,0.5s-0.224,0.5-0.5,0.5s-0.5-0.224-0.5-0.5
		S8.724,1047.362,9,1047.362z"/>
</g>
<rect id="canvas" display="none" fill="none" width="12" height="12"/>
</svg>
