<svg viewBox="-294 191 20 20" width="20" height="20" data-reactid=".0.1.1.$cemetery-15=1svg43.0.0"><path d="M-285,194
	c-2,0-4,1-4,5v4h9v-4c0-3.4-2-5-4-5H-285z M-287,198h5v0.5h-5V198z M-287,199h5v0.5h-5V199z M-289,204c0,1.5-0.5,1.5-0.5,1.5v1.5h10
	v-1.5c0,0-0.5,0-0.5-1.5H-289z" style="stroke-linejoin:round;stroke-miterlimit:4px;" fill="#ffffff" stroke="#ffffff" stroke-width="3" data-reactid=".0.1.1.$cemetery-15=1svg43.0.0.2:$cemetery-15=1svg-0-fill"></path><path d="M-285,194
	c-2,0-4,1-4,5v4h9v-4c0-3.4-2-5-4-5H-285z M-287,198h5v0.5h-5V198z M-287,199h5v0.5h-5V199z M-289,204c0,1.5-0.5,1.5-0.5,1.5v1.5h10
	v-1.5c0,0-0.5,0-0.5-1.5H-289z" style="stroke-linejoin:round;stroke-miterlimit:4px;" fill="#ffffff" stroke="#ffffff" stroke-width="3" data-reactid=".0.1.1.$cemetery-15=1svg43.0.0.2:$cemetery-15=1svg-1-fill"></path><path fill="#262525" d="M-285,194
	c-2,0-4,1-4,5v4h9v-4c0-3.4-2-5-4-5H-285z M-287,198h5v0.5h-5V198z M-287,199h5v0.5h-5V199z M-289,204c0,1.5-0.5,1.5-0.5,1.5v1.5h10
	v-1.5c0,0-0.5,0-0.5-1.5H-289z" data-reactid=".0.1.1.$cemetery-15=1svg43.0.0.3:$cemetery-15=1svg-0-fill"></path><path fill="#262525" d="M-285,194
	c-2,0-4,1-4,5v4h9v-4c0-3.4-2-5-4-5H-285z M-287,198h5v0.5h-5V198z M-287,199h5v0.5h-5V199z M-289,204c0,1.5-0.5,1.5-0.5,1.5v1.5h10
	v-1.5c0,0-0.5,0-0.5-1.5H-289z" data-reactid=".0.1.1.$cemetery-15=1svg43.0.0.3:$cemetery-15=1svg-1-fill"></path></svg>