<svg viewBox="-2 -2 15 15" width="15" height="15" data-reactid=".0.1.1.$circle-11=1svg46.0.0"><path d="M 11,5.5 A 5.5,5.5 0 0 1 5.5,11 5.5,5.5 0 0 1 0,5.5 5.5,5.5 0 0 1 5.5,0 5.5,5.5 0 0 1 11,5.5 Z" style="stroke-linejoin:round;stroke-miterlimit:4px;" fill="#ffffff" stroke="#ffffff" stroke-width="2" data-reactid=".0.1.1.$circle-11=1svg46.0.0.2:$circle-11=1svg-0-fill"></path><path d="M 11,5.5 A 5.5,5.5 0 0 1 5.5,11 5.5,5.5 0 0 1 0,5.5 5.5,5.5 0 0 1 5.5,0 5.5,5.5 0 0 1 11,5.5 Z" style="stroke-linejoin:round;stroke-miterlimit:4px;" fill="#ffffff" stroke="#ffffff" stroke-width="2" data-reactid=".0.1.1.$circle-11=1svg46.0.0.2:$circle-11=1svg-1-fill"></path><path fill="#000000" d="M 11,5.5 A 5.5,5.5 0 0 1 5.5,11 5.5,5.5 0 0 1 0,5.5 5.5,5.5 0 0 1 5.5,0 5.5,5.5 0 0 1 11,5.5 Z" data-reactid=".0.1.1.$circle-11=1svg46.0.0.3:$circle-11=1svg-0-fill"></path><path fill="#000000" d="M 11,5.5 A 5.5,5.5 0 0 1 5.5,11 5.5,5.5 0 0 1 0,5.5 5.5,5.5 0 0 1 5.5,0 5.5,5.5 0 0 1 11,5.5 Z" data-reactid=".0.1.1.$circle-11=1svg46.0.0.3:$circle-11=1svg-1-fill"></path></svg>