<svg viewBox="-2 -2 20 20" width="20" height="20" data-reactid=".0.1.1.$clothing-store-15=1svg51.0.0"><path d="M 3.5,1 0,4 0,7 2.9,7 3,14 12,14 12,7 15,7 15,4 11.5,1 10,1 7.5,5 5,1 Z" style="stroke-linejoin:round;stroke-miterlimit:4px;" fill="#ffffff" stroke="#ffffff" stroke-width="3" data-reactid=".0.1.1.$clothing-store-15=1svg51.0.0.2:$clothing-store-15=1svg-0-fill"></path><path d="M 3.5,1 0,4 0,7 2.9,7 3,14 12,14 12,7 15,7 15,4 11.5,1 10,1 7.5,5 5,1 Z" style="stroke-linejoin:round;stroke-miterlimit:4px;" fill="#ffffff" stroke="#ffffff" stroke-width="3" data-reactid=".0.1.1.$clothing-store-15=1svg51.0.0.2:$clothing-store-15=1svg-1-fill"></path><path fill="#262525" d="M 3.5,1 0,4 0,7 2.9,7 3,14 12,14 12,7 15,7 15,4 11.5,1 10,1 7.5,5 5,1 Z" data-reactid=".0.1.1.$clothing-store-15=1svg51.0.0.3:$clothing-store-15=1svg-0-fill"></path><path fill="#262525" d="M 3.5,1 0,4 0,7 2.9,7 3,14 12,14 12,7 15,7 15,4 11.5,1 10,1 7.5,5 5,1 Z" data-reactid=".0.1.1.$clothing-store-15=1svg51.0.0.3:$clothing-store-15=1svg-1-fill"></path></svg>