<svg viewBox="-2 -2 20 20" width="20" height="20" data-reactid=".0.1.1.$doctor-15=1svg57.0.0"><path d="M 3.0292969,2 C 3.0195143,2.0003641 3.0097444,2.0010154 3,2.0019531 l -0.6367188,0 C 1.9466147,2.0019532 1.5896845,2.2130935 1.359375,2.4941406 1.1290654,2.7751878 1,3.1284661 1,3.5 L 1,4 C 1,4.6702627 0.9550137,5.6825205 1.5,6.5 2.5,8 4,8.5 4,10 c 0,2.25 1.7499998,4 4,4 1.125,0 2.049206,-0.448227 2.640625,-1.1875 C 11.232044,12.073226 11.5,11.083333 11.5,10 l 0,-0.066406 C 12.381993,9.7058652 12.99868,8.9109174 13,8 13,6.8954305 12.104569,6 11,6 9.8954305,6 9,6.8954305 9,8 c 6.605e-4,0.9122083 0.6184813,1.7083858 1.501953,1.9355469 l 0,0.064453 c 0,0.916666 -0.233997,1.676774 -0.642578,2.1875 C 9.4507937,12.698226 8.8749999,13 8,13 6.2500001,13 5,11.749999 5,10 5,8.4999999 6.5,8 7.5,6.5 8.0115051,5.7327423 7.9999999,4.5506606 8,4 L 8,3.5 C 8,3.0833334 7.8070831,2.7250517 7.5410156,2.4589844 7.2749482,2.1929169 6.9147135,2.0019532 6.4980469,2.0019531 L 6,2.0019531 C 5.2905672,1.956425 5.2905672,3.0455281 6,3 L 6.4980469,3 C 6.5813809,3 6.7250518,3.0570826 6.8339844,3.1660156 6.942917,3.2749482 7.0000001,3.4166668 7,3.5 L 7,4 C 7,4.4200006 6.8788038,5.2362761 6.5058594,5.875 6.1356925,6.5089669 5.5963465,7.0015816 4.5,6.9999999 3.4036535,6.9984183 2.8540215,6.5460143 2.4902344,5.9433594 2.1229702,5.3349445 2.0019531,4.5315876 2.0019531,4 l 0,-0.5 c 0,-0.1284658 0.051915,-0.275188 0.1289063,-0.3691406 C 2.2078512,3.036906 2.2799478,3 2.3632812,3 L 3,3 C 3.6666664,3.019531 3.6959633,2.0195313 3.0292969,2 Z M 11,7 c 0.552284,9e-7 0.999999,0.4477156 1,1 -10e-7,0.5522844 -0.447716,0.9999991 -1,1 -0.552284,-9e-7 -0.999999,-0.4477156 -1,-1 10e-7,-0.5522844 0.447716,-0.9999991 1,-1 z" style="stroke-linejoin:round;stroke-miterlimit:4px;" fill="#ffffff" stroke="#ffffff" stroke-width="3" data-reactid=".0.1.1.$doctor-15=1svg57.0.0.2:$doctor-15=1svg-0-fill"></path><path d="M 3.0292969,2 C 3.0195143,2.0003641 3.0097444,2.0010154 3,2.0019531 l -0.6367188,0 C 1.9466147,2.0019532 1.5896845,2.2130935 1.359375,2.4941406 1.1290654,2.7751878 1,3.1284661 1,3.5 L 1,4 C 1,4.6702627 0.9550137,5.6825205 1.5,6.5 2.5,8 4,8.5 4,10 c 0,2.25 1.7499998,4 4,4 1.125,0 2.049206,-0.448227 2.640625,-1.1875 C 11.232044,12.073226 11.5,11.083333 11.5,10 l 0,-0.066406 C 12.381993,9.7058652 12.99868,8.9109174 13,8 13,6.8954305 12.104569,6 11,6 9.8954305,6 9,6.8954305 9,8 c 6.605e-4,0.9122083 0.6184813,1.7083858 1.501953,1.9355469 l 0,0.064453 c 0,0.916666 -0.233997,1.676774 -0.642578,2.1875 C 9.4507937,12.698226 8.8749999,13 8,13 6.2500001,13 5,11.749999 5,10 5,8.4999999 6.5,8 7.5,6.5 8.0115051,5.7327423 7.9999999,4.5506606 8,4 L 8,3.5 C 8,3.0833334 7.8070831,2.7250517 7.5410156,2.4589844 7.2749482,2.1929169 6.9147135,2.0019532 6.4980469,2.0019531 L 6,2.0019531 C 5.2905672,1.956425 5.2905672,3.0455281 6,3 L 6.4980469,3 C 6.5813809,3 6.7250518,3.0570826 6.8339844,3.1660156 6.942917,3.2749482 7.0000001,3.4166668 7,3.5 L 7,4 C 7,4.4200006 6.8788038,5.2362761 6.5058594,5.875 6.1356925,6.5089669 5.5963465,7.0015816 4.5,6.9999999 3.4036535,6.9984183 2.8540215,6.5460143 2.4902344,5.9433594 2.1229702,5.3349445 2.0019531,4.5315876 2.0019531,4 l 0,-0.5 c 0,-0.1284658 0.051915,-0.275188 0.1289063,-0.3691406 C 2.2078512,3.036906 2.2799478,3 2.3632812,3 L 3,3 C 3.6666664,3.019531 3.6959633,2.0195313 3.0292969,2 Z M 11,7 c 0.552284,9e-7 0.999999,0.4477156 1,1 -10e-7,0.5522844 -0.447716,0.9999991 -1,1 -0.552284,-9e-7 -0.999999,-0.4477156 -1,-1 10e-7,-0.5522844 0.447716,-0.9999991 1,-1 z" style="stroke-linejoin:round;stroke-miterlimit:4px;" fill="#ffffff" stroke="#ffffff" stroke-width="3" data-reactid=".0.1.1.$doctor-15=1svg57.0.0.2:$doctor-15=1svg-1-fill"></path><path fill="#262525" d="M 3.0292969,2 C 3.0195143,2.0003641 3.0097444,2.0010154 3,2.0019531 l -0.6367188,0 C 1.9466147,2.0019532 1.5896845,2.2130935 1.359375,2.4941406 1.1290654,2.7751878 1,3.1284661 1,3.5 L 1,4 C 1,4.6702627 0.9550137,5.6825205 1.5,6.5 2.5,8 4,8.5 4,10 c 0,2.25 1.7499998,4 4,4 1.125,0 2.049206,-0.448227 2.640625,-1.1875 C 11.232044,12.073226 11.5,11.083333 11.5,10 l 0,-0.066406 C 12.381993,9.7058652 12.99868,8.9109174 13,8 13,6.8954305 12.104569,6 11,6 9.8954305,6 9,6.8954305 9,8 c 6.605e-4,0.9122083 0.6184813,1.7083858 1.501953,1.9355469 l 0,0.064453 c 0,0.916666 -0.233997,1.676774 -0.642578,2.1875 C 9.4507937,12.698226 8.8749999,13 8,13 6.2500001,13 5,11.749999 5,10 5,8.4999999 6.5,8 7.5,6.5 8.0115051,5.7327423 7.9999999,4.5506606 8,4 L 8,3.5 C 8,3.0833334 7.8070831,2.7250517 7.5410156,2.4589844 7.2749482,2.1929169 6.9147135,2.0019532 6.4980469,2.0019531 L 6,2.0019531 C 5.2905672,1.956425 5.2905672,3.0455281 6,3 L 6.4980469,3 C 6.5813809,3 6.7250518,3.0570826 6.8339844,3.1660156 6.942917,3.2749482 7.0000001,3.4166668 7,3.5 L 7,4 C 7,4.4200006 6.8788038,5.2362761 6.5058594,5.875 6.1356925,6.5089669 5.5963465,7.0015816 4.5,6.9999999 3.4036535,6.9984183 2.8540215,6.5460143 2.4902344,5.9433594 2.1229702,5.3349445 2.0019531,4.5315876 2.0019531,4 l 0,-0.5 c 0,-0.1284658 0.051915,-0.275188 0.1289063,-0.3691406 C 2.2078512,3.036906 2.2799478,3 2.3632812,3 L 3,3 C 3.6666664,3.019531 3.6959633,2.0195313 3.0292969,2 Z M 11,7 c 0.552284,9e-7 0.999999,0.4477156 1,1 -10e-7,0.5522844 -0.447716,0.9999991 -1,1 -0.552284,-9e-7 -0.999999,-0.4477156 -1,-1 10e-7,-0.5522844 0.447716,-0.9999991 1,-1 z" data-reactid=".0.1.1.$doctor-15=1svg57.0.0.3:$doctor-15=1svg-0-fill"></path><path fill="#262525" d="M 3.0292969,2 C 3.0195143,2.0003641 3.0097444,2.0010154 3,2.0019531 l -0.6367188,0 C 1.9466147,2.0019532 1.5896845,2.2130935 1.359375,2.4941406 1.1290654,2.7751878 1,3.1284661 1,3.5 L 1,4 C 1,4.6702627 0.9550137,5.6825205 1.5,6.5 2.5,8 4,8.5 4,10 c 0,2.25 1.7499998,4 4,4 1.125,0 2.049206,-0.448227 2.640625,-1.1875 C 11.232044,12.073226 11.5,11.083333 11.5,10 l 0,-0.066406 C 12.381993,9.7058652 12.99868,8.9109174 13,8 13,6.8954305 12.104569,6 11,6 9.8954305,6 9,6.8954305 9,8 c 6.605e-4,0.9122083 0.6184813,1.7083858 1.501953,1.9355469 l 0,0.064453 c 0,0.916666 -0.233997,1.676774 -0.642578,2.1875 C 9.4507937,12.698226 8.8749999,13 8,13 6.2500001,13 5,11.749999 5,10 5,8.4999999 6.5,8 7.5,6.5 8.0115051,5.7327423 7.9999999,4.5506606 8,4 L 8,3.5 C 8,3.0833334 7.8070831,2.7250517 7.5410156,2.4589844 7.2749482,2.1929169 6.9147135,2.0019532 6.4980469,2.0019531 L 6,2.0019531 C 5.2905672,1.956425 5.2905672,3.0455281 6,3 L 6.4980469,3 C 6.5813809,3 6.7250518,3.0570826 6.8339844,3.1660156 6.942917,3.2749482 7.0000001,3.4166668 7,3.5 L 7,4 C 7,4.4200006 6.8788038,5.2362761 6.5058594,5.875 6.1356925,6.5089669 5.5963465,7.0015816 4.5,6.9999999 3.4036535,6.9984183 2.8540215,6.5460143 2.4902344,5.9433594 2.1229702,5.3349445 2.0019531,4.5315876 2.0019531,4 l 0,-0.5 c 0,-0.1284658 0.051915,-0.275188 0.1289063,-0.3691406 C 2.2078512,3.036906 2.2799478,3 2.3632812,3 L 3,3 C 3.6666664,3.019531 3.6959633,2.0195313 3.0292969,2 Z M 11,7 c 0.552284,9e-7 0.999999,0.4477156 1,1 -10e-7,0.5522844 -0.447716,0.9999991 -1,1 -0.552284,-9e-7 -0.999999,-0.4477156 -1,-1 10e-7,-0.5522844 0.447716,-0.9999991 1,-1 z" data-reactid=".0.1.1.$doctor-15=1svg57.0.0.3:$doctor-15=1svg-1-fill"></path></svg>