<svg viewBox="-2 -2 16 16" width="16" height="16" data-reactid=".0.1.1.$ferry-11=1svg66.0.0"><path d="M 3.5 0 C 3.5 0 2 0 2 1.5 L 2 4.4453125 L 1 5 L 2.71875 8 L 3.25 8 C 3.8935958 8 4.3744687 8.2753906 4.7265625 8.4628906 C 5.0786563 8.6503896 5.301971 8.75 5.5 8.75 C 5.698029 8.75 5.9213437 8.6503896 6.2734375 8.4628906 C 6.6255313 8.2753906 7.1124319 8.087877 7.75 8 L 8.28125 8 L 10 5 L 9 4.4453125 L 9 1.5 C 9 1.5 9 0 7.5 0 L 3.5 0 z M 3.5 1 L 7.5 1 C 7.5 1 8 1 8 1.5 L 8 3.8886719 L 5.5 2.5 L 3 3.8886719 L 3 1.5 C 3 1.5 3 1 3.5 1 z M 2.25 9 C 2.25 9 1.5 9 1.5 9.625 C 1.5 10.25 2.25 10.25 2.25 10.25 L 3.25 10.25 C 3.448029 10.25 3.6713437 10.34961 4.0234375 10.537109 C 4.3755313 10.724609 4.8564042 11 5.5 11 C 6.1435958 11 6.6244687 10.724609 6.9765625 10.537109 C 7.3286563 10.349609 7.551971 10.25 7.75 10.25 L 8.75 10.25 C 8.75 10.25 9.5 10.25 9.5 9.625 C 9.5 9 8.75 9 8.75 9 L 7.75 9 C 7.1064042 9 6.6255313 9.2753906 6.2734375 9.4628906 C 5.9213437 9.6503906 5.698029 9.75 5.5 9.75 C 5.301971 9.75 5.0786563 9.6503896 4.7265625 9.4628906 C 4.3744687 9.2753906 3.8935958 9 3.25 9 L 2.25 9 z " style="stroke-linejoin:round;stroke-miterlimit:4px;" fill="#ffffff" stroke="#ffffff" stroke-width="3" data-reactid=".0.1.1.$ferry-11=1svg66.0.0.2:$ferry-11=1svg-0-fill"></path><path d="M 3.5 0 C 3.5 0 2 0 2 1.5 L 2 4.4453125 L 1 5 L 2.71875 8 L 3.25 8 C 3.8935958 8 4.3744687 8.2753906 4.7265625 8.4628906 C 5.0786563 8.6503896 5.301971 8.75 5.5 8.75 C 5.698029 8.75 5.9213437 8.6503896 6.2734375 8.4628906 C 6.6255313 8.2753906 7.1124319 8.087877 7.75 8 L 8.28125 8 L 10 5 L 9 4.4453125 L 9 1.5 C 9 1.5 9 0 7.5 0 L 3.5 0 z M 3.5 1 L 7.5 1 C 7.5 1 8 1 8 1.5 L 8 3.8886719 L 5.5 2.5 L 3 3.8886719 L 3 1.5 C 3 1.5 3 1 3.5 1 z M 2.25 9 C 2.25 9 1.5 9 1.5 9.625 C 1.5 10.25 2.25 10.25 2.25 10.25 L 3.25 10.25 C 3.448029 10.25 3.6713437 10.34961 4.0234375 10.537109 C 4.3755313 10.724609 4.8564042 11 5.5 11 C 6.1435958 11 6.6244687 10.724609 6.9765625 10.537109 C 7.3286563 10.349609 7.551971 10.25 7.75 10.25 L 8.75 10.25 C 8.75 10.25 9.5 10.25 9.5 9.625 C 9.5 9 8.75 9 8.75 9 L 7.75 9 C 7.1064042 9 6.6255313 9.2753906 6.2734375 9.4628906 C 5.9213437 9.6503906 5.698029 9.75 5.5 9.75 C 5.301971 9.75 5.0786563 9.6503896 4.7265625 9.4628906 C 4.3744687 9.2753906 3.8935958 9 3.25 9 L 2.25 9 z " style="stroke-linejoin:round;stroke-miterlimit:4px;" fill="#ffffff" stroke="#ffffff" stroke-width="3" data-reactid=".0.1.1.$ferry-11=1svg66.0.0.2:$ferry-11=1svg-1-fill"></path><path fill="#262525" d="M 3.5 0 C 3.5 0 2 0 2 1.5 L 2 4.4453125 L 1 5 L 2.71875 8 L 3.25 8 C 3.8935958 8 4.3744687 8.2753906 4.7265625 8.4628906 C 5.0786563 8.6503896 5.301971 8.75 5.5 8.75 C 5.698029 8.75 5.9213437 8.6503896 6.2734375 8.4628906 C 6.6255313 8.2753906 7.1124319 8.087877 7.75 8 L 8.28125 8 L 10 5 L 9 4.4453125 L 9 1.5 C 9 1.5 9 0 7.5 0 L 3.5 0 z M 3.5 1 L 7.5 1 C 7.5 1 8 1 8 1.5 L 8 3.8886719 L 5.5 2.5 L 3 3.8886719 L 3 1.5 C 3 1.5 3 1 3.5 1 z M 2.25 9 C 2.25 9 1.5 9 1.5 9.625 C 1.5 10.25 2.25 10.25 2.25 10.25 L 3.25 10.25 C 3.448029 10.25 3.6713437 10.34961 4.0234375 10.537109 C 4.3755313 10.724609 4.8564042 11 5.5 11 C 6.1435958 11 6.6244687 10.724609 6.9765625 10.537109 C 7.3286563 10.349609 7.551971 10.25 7.75 10.25 L 8.75 10.25 C 8.75 10.25 9.5 10.25 9.5 9.625 C 9.5 9 8.75 9 8.75 9 L 7.75 9 C 7.1064042 9 6.6255313 9.2753906 6.2734375 9.4628906 C 5.9213437 9.6503906 5.698029 9.75 5.5 9.75 C 5.301971 9.75 5.0786563 9.6503896 4.7265625 9.4628906 C 4.3744687 9.2753906 3.8935958 9 3.25 9 L 2.25 9 z " data-reactid=".0.1.1.$ferry-11=1svg66.0.0.3:$ferry-11=1svg-0-fill"></path><path fill="#262525" d="M 3.5 0 C 3.5 0 2 0 2 1.5 L 2 4.4453125 L 1 5 L 2.71875 8 L 3.25 8 C 3.8935958 8 4.3744687 8.2753906 4.7265625 8.4628906 C 5.0786563 8.6503896 5.301971 8.75 5.5 8.75 C 5.698029 8.75 5.9213437 8.6503896 6.2734375 8.4628906 C 6.6255313 8.2753906 7.1124319 8.087877 7.75 8 L 8.28125 8 L 10 5 L 9 4.4453125 L 9 1.5 C 9 1.5 9 0 7.5 0 L 3.5 0 z M 3.5 1 L 7.5 1 C 7.5 1 8 1 8 1.5 L 8 3.8886719 L 5.5 2.5 L 3 3.8886719 L 3 1.5 C 3 1.5 3 1 3.5 1 z M 2.25 9 C 2.25 9 1.5 9 1.5 9.625 C 1.5 10.25 2.25 10.25 2.25 10.25 L 3.25 10.25 C 3.448029 10.25 3.6713437 10.34961 4.0234375 10.537109 C 4.3755313 10.724609 4.8564042 11 5.5 11 C 6.1435958 11 6.6244687 10.724609 6.9765625 10.537109 C 7.3286563 10.349609 7.551971 10.25 7.75 10.25 L 8.75 10.25 C 8.75 10.25 9.5 10.25 9.5 9.625 C 9.5 9 8.75 9 8.75 9 L 7.75 9 C 7.1064042 9 6.6255313 9.2753906 6.2734375 9.4628906 C 5.9213437 9.6503906 5.698029 9.75 5.5 9.75 C 5.301971 9.75 5.0786563 9.6503896 4.7265625 9.4628906 C 4.3744687 9.2753906 3.8935958 9 3.25 9 L 2.25 9 z " data-reactid=".0.1.1.$ferry-11=1svg66.0.0.3:$ferry-11=1svg-1-fill"></path></svg>