<svg viewBox="-2 -2 20 20" width="20" height="20" data-reactid=".0.1.1.$fire-station-15=1svg69.0.0"><path d="M 7.5,0.5 5,4.5 3.5,2.5 C 2.9452061,3.475309 0.8035715,5.7924108 0.8035715,8.3035715 0.8035715,12.001957 3.8016656,15 7.4999999,15 11.198335,15 14.196429,12.001957 14.196429,8.3035715 14.196429,5.7924108 12.054795,3.475309 11.5,2.5 l -1.5,2 z m 0,6.5 c 0,0 2.5,2.5618475 2.5,4.5 0,0.837053 -0.8258932,2 -2.5,2 C 5.825893,13.5 5,12.337053 5,11.5 5,9.6282964 7.5,7 7.5,7 Z" style="stroke-linejoin:round;stroke-miterlimit:4px;" fill="#ffffff" stroke="#ffffff" stroke-width="3" data-reactid=".0.1.1.$fire-station-15=1svg69.0.0.2:$fire-station-15=1svg-0-fill"></path><path d="M 7.5,0.5 5,4.5 3.5,2.5 C 2.9452061,3.475309 0.8035715,5.7924108 0.8035715,8.3035715 0.8035715,12.001957 3.8016656,15 7.4999999,15 11.198335,15 14.196429,12.001957 14.196429,8.3035715 14.196429,5.7924108 12.054795,3.475309 11.5,2.5 l -1.5,2 z m 0,6.5 c 0,0 2.5,2.5618475 2.5,4.5 0,0.837053 -0.8258932,2 -2.5,2 C 5.825893,13.5 5,12.337053 5,11.5 5,9.6282964 7.5,7 7.5,7 Z" style="stroke-linejoin:round;stroke-miterlimit:4px;" fill="#ffffff" stroke="#ffffff" stroke-width="3" data-reactid=".0.1.1.$fire-station-15=1svg69.0.0.2:$fire-station-15=1svg-1-fill"></path><path fill="#262525" d="M 7.5,0.5 5,4.5 3.5,2.5 C 2.9452061,3.475309 0.8035715,5.7924108 0.8035715,8.3035715 0.8035715,12.001957 3.8016656,15 7.4999999,15 11.198335,15 14.196429,12.001957 14.196429,8.3035715 14.196429,5.7924108 12.054795,3.475309 11.5,2.5 l -1.5,2 z m 0,6.5 c 0,0 2.5,2.5618475 2.5,4.5 0,0.837053 -0.8258932,2 -2.5,2 C 5.825893,13.5 5,12.337053 5,11.5 5,9.6282964 7.5,7 7.5,7 Z" data-reactid=".0.1.1.$fire-station-15=1svg69.0.0.3:$fire-station-15=1svg-0-fill"></path><path fill="#262525" d="M 7.5,0.5 5,4.5 3.5,2.5 C 2.9452061,3.475309 0.8035715,5.7924108 0.8035715,8.3035715 0.8035715,12.001957 3.8016656,15 7.4999999,15 11.198335,15 14.196429,12.001957 14.196429,8.3035715 14.196429,5.7924108 12.054795,3.475309 11.5,2.5 l -1.5,2 z m 0,6.5 c 0,0 2.5,2.5618475 2.5,4.5 0,0.837053 -0.8258932,2 -2.5,2 C 5.825893,13.5 5,12.337053 5,11.5 5,9.6282964 7.5,7 7.5,7 Z" data-reactid=".0.1.1.$fire-station-15=1svg69.0.0.3:$fire-station-15=1svg-1-fill"></path></svg>