<svg viewBox="-294 191 20 20" width="20" height="20" data-reactid=".0.1.1.$fuel-15=1svg71.0.0"><path d="M-289,194c-0.5,0-1,0.5-1,1v11c0,0,0,1,1,1h7c1,0,1-1,1-1v-1h1h1c1,0,1-1,1-1v-1.5c0-1.1-1-1.4-1-2.5v-2.5
	c0-1-1-1.5-2-1.5v-1c0-1-1-1-1-1H-289z M-288,196h5c1,0,1,1,1,1v2c0,1-1,1-1,1h-5c0,0-1,0-1-1v-2C-289,196-288,196-288,196z
	 M-287.5,197l-0.5,0.2v0.2h0.5v1.5h0.5v-2H-287.5z M-285,197c-0.3,0-0.5,0.4-0.5,1s0.2,1,0.5,1s0.5-0.4,0.5-1S-284.7,197-285,197z
	 M-283.5,197c-0.3,0-0.5,0.4-0.5,1l0,0c0,0.6,0.2,1,0.5,1l0,0c0.3,0,0.5-0.4,0.5-1l0,0C-283,197.4-283.2,197-283.5,197L-283.5,197z
	 M-286.2,198.5c-0.1,0-0.2,0.1-0.2,0.2s0.1,0.2,0.2,0.2s0.2-0.1,0.2-0.2S-286.1,198.5-286.2,198.5z M-281,200h1v0.5
	c0,1.1,1,1.4,1,2.5v0.5c0,0.5-0.5,0.5-0.5,0.5h-1.5V200z" style="stroke-linejoin:round;stroke-miterlimit:4px;" fill="#ffffff" stroke="#ffffff" stroke-width="3" data-reactid=".0.1.1.$fuel-15=1svg71.0.0.2:$fuel-15=1svg-0-fill"></path><path d="M-289,194c-0.5,0-1,0.5-1,1v11c0,0,0,1,1,1h7c1,0,1-1,1-1v-1h1h1c1,0,1-1,1-1v-1.5c0-1.1-1-1.4-1-2.5v-2.5
	c0-1-1-1.5-2-1.5v-1c0-1-1-1-1-1H-289z M-288,196h5c1,0,1,1,1,1v2c0,1-1,1-1,1h-5c0,0-1,0-1-1v-2C-289,196-288,196-288,196z
	 M-287.5,197l-0.5,0.2v0.2h0.5v1.5h0.5v-2H-287.5z M-285,197c-0.3,0-0.5,0.4-0.5,1s0.2,1,0.5,1s0.5-0.4,0.5-1S-284.7,197-285,197z
	 M-283.5,197c-0.3,0-0.5,0.4-0.5,1l0,0c0,0.6,0.2,1,0.5,1l0,0c0.3,0,0.5-0.4,0.5-1l0,0C-283,197.4-283.2,197-283.5,197L-283.5,197z
	 M-286.2,198.5c-0.1,0-0.2,0.1-0.2,0.2s0.1,0.2,0.2,0.2s0.2-0.1,0.2-0.2S-286.1,198.5-286.2,198.5z M-281,200h1v0.5
	c0,1.1,1,1.4,1,2.5v0.5c0,0.5-0.5,0.5-0.5,0.5h-1.5V200z" style="stroke-linejoin:round;stroke-miterlimit:4px;" fill="#ffffff" stroke="#ffffff" stroke-width="3" data-reactid=".0.1.1.$fuel-15=1svg71.0.0.2:$fuel-15=1svg-1-fill"></path><path fill="#262525" d="M-289,194c-0.5,0-1,0.5-1,1v11c0,0,0,1,1,1h7c1,0,1-1,1-1v-1h1h1c1,0,1-1,1-1v-1.5c0-1.1-1-1.4-1-2.5v-2.5
	c0-1-1-1.5-2-1.5v-1c0-1-1-1-1-1H-289z M-288,196h5c1,0,1,1,1,1v2c0,1-1,1-1,1h-5c0,0-1,0-1-1v-2C-289,196-288,196-288,196z
	 M-287.5,197l-0.5,0.2v0.2h0.5v1.5h0.5v-2H-287.5z M-285,197c-0.3,0-0.5,0.4-0.5,1s0.2,1,0.5,1s0.5-0.4,0.5-1S-284.7,197-285,197z
	 M-283.5,197c-0.3,0-0.5,0.4-0.5,1l0,0c0,0.6,0.2,1,0.5,1l0,0c0.3,0,0.5-0.4,0.5-1l0,0C-283,197.4-283.2,197-283.5,197L-283.5,197z
	 M-286.2,198.5c-0.1,0-0.2,0.1-0.2,0.2s0.1,0.2,0.2,0.2s0.2-0.1,0.2-0.2S-286.1,198.5-286.2,198.5z M-281,200h1v0.5
	c0,1.1,1,1.4,1,2.5v0.5c0,0.5-0.5,0.5-0.5,0.5h-1.5V200z" data-reactid=".0.1.1.$fuel-15=1svg71.0.0.3:$fuel-15=1svg-0-fill"></path><path fill="#262525" d="M-289,194c-0.5,0-1,0.5-1,1v11c0,0,0,1,1,1h7c1,0,1-1,1-1v-1h1h1c1,0,1-1,1-1v-1.5c0-1.1-1-1.4-1-2.5v-2.5
	c0-1-1-1.5-2-1.5v-1c0-1-1-1-1-1H-289z M-288,196h5c1,0,1,1,1,1v2c0,1-1,1-1,1h-5c0,0-1,0-1-1v-2C-289,196-288,196-288,196z
	 M-287.5,197l-0.5,0.2v0.2h0.5v1.5h0.5v-2H-287.5z M-285,197c-0.3,0-0.5,0.4-0.5,1s0.2,1,0.5,1s0.5-0.4,0.5-1S-284.7,197-285,197z
	 M-283.5,197c-0.3,0-0.5,0.4-0.5,1l0,0c0,0.6,0.2,1,0.5,1l0,0c0.3,0,0.5-0.4,0.5-1l0,0C-283,197.4-283.2,197-283.5,197L-283.5,197z
	 M-286.2,198.5c-0.1,0-0.2,0.1-0.2,0.2s0.1,0.2,0.2,0.2s0.2-0.1,0.2-0.2S-286.1,198.5-286.2,198.5z M-281,200h1v0.5
	c0,1.1,1,1.4,1,2.5v0.5c0,0.5-0.5,0.5-0.5,0.5h-1.5V200z" data-reactid=".0.1.1.$fuel-15=1svg71.0.0.3:$fuel-15=1svg-1-fill"></path></svg>