<svg viewBox="-294 191 20 20" width="20" height="20" data-reactid=".0.1.1.$garden-15=1svg73.0.0"><path d="M-284.5,193
	c-2.1,0-4.1,0.7-4.1,2.7v2c0,1.2,0.7,2.5,2,2.7c1.1,0.2,3.4-0.2,3.4-2.8c0-0.7-0.5-1.7-1.4-1.7c-1.7,0-3-0.5-3-1c0-0.6,1.3-1,3-1
	c0.5,0,1,0,1.5,0.1C-282.9,193.5-283.7,193-284.5,193z M-281.1,194c-0.3,0-0.5,0.2-0.6,0.6c0.1,0.1,0.2,0.2,0.2,0.4
	c0,0.2-0.2,0.4-0.6,0.6c-0.1,0.1-0.2,0.1-0.3,0.1c-0.1,0-0.3,0.1-0.4,0.1c-0.1,0.1-0.2,0.3,0,0.6c0.2,0.3,0.3,0.8,0.3,1.3
	c0,1.4-0.4,2.2-1.3,2.8c-1.1,0.7,0,0.7,0,0.7c1.9,0,3.4-1.7,3.4-3.4V195C-280.4,194.4-280.8,194-281.1,194z M-285,202l-0.2,4.6
	c-0.8-1.6-2.8-3.6-5.8-1.6c0,0,2.3,3,6.5,3s6.5-3,6.5-3c-3-2-5,0-5.8,1.6l-0.2-4.6c0,0,0-0.5-0.5-0.5S-285,202-285,202z" style="stroke-linejoin:round;stroke-miterlimit:4px;" fill="#ffffff" stroke="#ffffff" stroke-width="3" data-reactid=".0.1.1.$garden-15=1svg73.0.0.2:$garden-15=1svg-0-fill"></path><path d="M-284.5,193
	c-2.1,0-4.1,0.7-4.1,2.7v2c0,1.2,0.7,2.5,2,2.7c1.1,0.2,3.4-0.2,3.4-2.8c0-0.7-0.5-1.7-1.4-1.7c-1.7,0-3-0.5-3-1c0-0.6,1.3-1,3-1
	c0.5,0,1,0,1.5,0.1C-282.9,193.5-283.7,193-284.5,193z M-281.1,194c-0.3,0-0.5,0.2-0.6,0.6c0.1,0.1,0.2,0.2,0.2,0.4
	c0,0.2-0.2,0.4-0.6,0.6c-0.1,0.1-0.2,0.1-0.3,0.1c-0.1,0-0.3,0.1-0.4,0.1c-0.1,0.1-0.2,0.3,0,0.6c0.2,0.3,0.3,0.8,0.3,1.3
	c0,1.4-0.4,2.2-1.3,2.8c-1.1,0.7,0,0.7,0,0.7c1.9,0,3.4-1.7,3.4-3.4V195C-280.4,194.4-280.8,194-281.1,194z M-285,202l-0.2,4.6
	c-0.8-1.6-2.8-3.6-5.8-1.6c0,0,2.3,3,6.5,3s6.5-3,6.5-3c-3-2-5,0-5.8,1.6l-0.2-4.6c0,0,0-0.5-0.5-0.5S-285,202-285,202z" style="stroke-linejoin:round;stroke-miterlimit:4px;" fill="#ffffff" stroke="#ffffff" stroke-width="3" data-reactid=".0.1.1.$garden-15=1svg73.0.0.2:$garden-15=1svg-1-fill"></path><path fill="#262525" d="M-284.5,193
	c-2.1,0-4.1,0.7-4.1,2.7v2c0,1.2,0.7,2.5,2,2.7c1.1,0.2,3.4-0.2,3.4-2.8c0-0.7-0.5-1.7-1.4-1.7c-1.7,0-3-0.5-3-1c0-0.6,1.3-1,3-1
	c0.5,0,1,0,1.5,0.1C-282.9,193.5-283.7,193-284.5,193z M-281.1,194c-0.3,0-0.5,0.2-0.6,0.6c0.1,0.1,0.2,0.2,0.2,0.4
	c0,0.2-0.2,0.4-0.6,0.6c-0.1,0.1-0.2,0.1-0.3,0.1c-0.1,0-0.3,0.1-0.4,0.1c-0.1,0.1-0.2,0.3,0,0.6c0.2,0.3,0.3,0.8,0.3,1.3
	c0,1.4-0.4,2.2-1.3,2.8c-1.1,0.7,0,0.7,0,0.7c1.9,0,3.4-1.7,3.4-3.4V195C-280.4,194.4-280.8,194-281.1,194z M-285,202l-0.2,4.6
	c-0.8-1.6-2.8-3.6-5.8-1.6c0,0,2.3,3,6.5,3s6.5-3,6.5-3c-3-2-5,0-5.8,1.6l-0.2-4.6c0,0,0-0.5-0.5-0.5S-285,202-285,202z" data-reactid=".0.1.1.$garden-15=1svg73.0.0.3:$garden-15=1svg-0-fill"></path><path fill="#262525" d="M-284.5,193
	c-2.1,0-4.1,0.7-4.1,2.7v2c0,1.2,0.7,2.5,2,2.7c1.1,0.2,3.4-0.2,3.4-2.8c0-0.7-0.5-1.7-1.4-1.7c-1.7,0-3-0.5-3-1c0-0.6,1.3-1,3-1
	c0.5,0,1,0,1.5,0.1C-282.9,193.5-283.7,193-284.5,193z M-281.1,194c-0.3,0-0.5,0.2-0.6,0.6c0.1,0.1,0.2,0.2,0.2,0.4
	c0,0.2-0.2,0.4-0.6,0.6c-0.1,0.1-0.2,0.1-0.3,0.1c-0.1,0-0.3,0.1-0.4,0.1c-0.1,0.1-0.2,0.3,0,0.6c0.2,0.3,0.3,0.8,0.3,1.3
	c0,1.4-0.4,2.2-1.3,2.8c-1.1,0.7,0,0.7,0,0.7c1.9,0,3.4-1.7,3.4-3.4V195C-280.4,194.4-280.8,194-281.1,194z M-285,202l-0.2,4.6
	c-0.8-1.6-2.8-3.6-5.8-1.6c0,0,2.3,3,6.5,3s6.5-3,6.5-3c-3-2-5,0-5.8,1.6l-0.2-4.6c0,0,0-0.5-0.5-0.5S-285,202-285,202z" data-reactid=".0.1.1.$garden-15=1svg73.0.0.3:$garden-15=1svg-1-fill"></path></svg>