<?xml version="1.0" encoding="utf-8"?>
<!-- Generator: Adobe Illustrator 17.0.0, SVG Export Plug-In . SVG Version: 6.00 Build 0)  -->
<!DOCTYPE svg PUBLIC "-//W3C//DTD SVG 1.1//EN" "http://www.w3.org/Graphics/SVG/1.1/DTD/svg11.dtd">
<svg version="1.1"
	 id="svg4619" xmlns:dc="http://purl.org/dc/elements/1.1/" xmlns:cc="http://creativecommons.org/ns#" xmlns:rdf="http://www.w3.org/1999/02/22-rdf-syntax-ns#" xmlns:svg="http://www.w3.org/2000/svg" xmlns:inkscape="http://www.inkscape.org/namespaces/inkscape"
	 xmlns="http://www.w3.org/2000/svg" xmlns:xlink="http://www.w3.org/1999/xlink" x="0px" y="0px" width="18px" height="18px"
	 viewBox="0 0 18 18" enable-background="new 0 0 18 18" xml:space="preserve">
<g id="g3" opacity="0.3">
	<g id="g5">
		<g id="g7">
			<path id="path9" inkscape:connector-curvature="0" fill="#FFFFFF" stroke="#FFFFFF" stroke-width="2" stroke-miterlimit="10" d="
				M5,11.417v2c0,0.553,0.448,1,1,1h2.5v-3H5z"/>
			
				<path id="path11" inkscape:connector-curvature="0" fill="#FFFFFF" stroke="#FFFFFF" stroke-width="2" stroke-miterlimit="10" d="
				M9.5,11.417v3H12c0.552,0,1-0.447,1-1v-2H9.5z"/>
		</g>
		<g id="g13">
			
				<path id="path15" inkscape:connector-curvature="0" fill="#FFFFFF" stroke="#FFFFFF" stroke-width="2" stroke-miterlimit="10" d="
				M8.5,7.417H6c-0.552,0-1,0.447-1,1v2h3.5V7.417z"/>
			
				<path id="path17" inkscape:connector-curvature="0" fill="#FFFFFF" stroke="#FFFFFF" stroke-width="2" stroke-miterlimit="10" d="
				M12,7.417H9.5v3H13v-2C13,7.864,12.552,7.417,12,7.417z"/>
		</g>
	</g>
	<path id="path19" inkscape:connector-curvature="0" fill="#FFFFFF" stroke="#FFFFFF" stroke-width="2" stroke-miterlimit="10" d="
		M11.083,3.582c-1.074,0-1.855,0.643-2.126,1.585c-0.27-0.942-0.942-1.585-2.039-1.585c-0.708,0-1.417,0.497-1.417,1.417
		c0,0.921,0.433,1.418,1.352,1.418h1.97h0.216h2.056c0.92,0,1.406-0.485,1.406-1.406C12.501,4.09,11.791,3.582,11.083,3.582z
		 M11.083,4.29c0.708,0,0.708,0.68,0.708,0.709c0,0.031,0.036,0.709-0.708,0.709H9.666C9.741,5.201,9.935,4.291,11.083,4.29
		L11.083,4.29z M8.335,5.708H6.918c-0.745,0-0.708-0.678-0.708-0.709c0-0.029-0.036-0.709,0.708-0.709
		C8.065,4.29,8.259,5.2,8.335,5.708L8.335,5.708z"/>
</g>
<g id="g21">
	<g id="g23">
		<g id="g25">
			<path id="path27" inkscape:connector-curvature="0" fill="#454545" d="M5,11.417v2c0,0.553,0.448,1,1,1h2.5v-3H5z"/>
			<path id="path29" inkscape:connector-curvature="0" fill="#454545" d="M9.5,11.417v3H12c0.552,0,1-0.447,1-1v-2H9.5z"/>
		</g>
		<g id="g31">
			<path id="path33" inkscape:connector-curvature="0" fill="#454545" d="M8.5,7.417H6c-0.552,0-1,0.447-1,1v2h3.5V7.417z"/>
			<path id="path35" inkscape:connector-curvature="0" fill="#454545" d="M12,7.417H9.5v3H13v-2C13,7.864,12.552,7.417,12,7.417z"/>
		</g>
	</g>
	<path id="path37" inkscape:connector-curvature="0" fill="#454545" d="M11.083,3.582c-1.074,0-1.855,0.643-2.126,1.585
		c-0.27-0.942-0.942-1.585-2.039-1.585c-0.708,0-1.417,0.497-1.417,1.417c0,0.921,0.433,1.418,1.352,1.418h1.97h0.216h2.056
		c0.92,0,1.406-0.485,1.406-1.406C12.501,4.09,11.791,3.582,11.083,3.582z M11.083,4.29c0.708,0,0.708,0.68,0.708,0.709
		c0,0.031,0.036,0.709-0.708,0.709H9.666C9.741,5.201,9.935,4.291,11.083,4.29L11.083,4.29z M8.335,5.708H6.918
		c-0.745,0-0.708-0.678-0.708-0.709c0-0.029-0.036-0.709,0.708-0.709C8.065,4.29,8.259,5.2,8.335,5.708L8.335,5.708z"/>
</g>
<rect id="canvas" display="none" fill="none" width="18" height="18"/>
</svg>
