<svg viewBox="-2 -2 20 20" width="20" height="20" data-reactid=".0.1.1.$harbor-15=1svg81.0.0"><path d="M 7.5 0 C 5.5 0 3.9999999 1.5670034 4 3.5 C 4.0023895 5.0629132 5.0397413 6.4019544 6.5 6.8378906 L 6.5 12.876953 C 5.569498 12.712271 4.6245148 12.327314 3.8515625 11.607422 C 2.7992386 10.627336 2.0019531 9.0675688 2.0019531 6.4980469 C 2.0097022 5.9334967 1.5488912 5.4744546 0.984375 5.484375 C 0.43285885 5.4929961 -0.0075526599 5.9465151 0 6.4980469 C 0 9.5009469 1.0119465 11.693506 2.4902344 13.070312 C 3.9685222 14.447121 5.8379346 15 7.5 15 C 9.1656236 15 11.034961 14.440412 12.511719 13.060547 C 13.988477 11.680681 14.998047 9.4867874 14.998047 6.4980469 C 15.06284 5.1027274 12.935207 5.1027274 13 6.4980469 C 13 9.051007 12.200339 10.612947 11.146484 11.597656 C 10.373064 12.320332 9.4287738 12.708422 8.5 12.875 L 8.5 6.8417969 C 9.9606534 6.4058213 10.998586 5.0642359 11 3.5 C 11 1.5670034 9.5 -2.9605947e-16 7.5 0 z M 7.5 2 C 8.3284271 2 9 2.6715729 9 3.5 C 9 4.3284271 8.3284271 5 7.5 5 C 6.6715729 5 6 4.3284271 6 3.5 C 6 2.6715729 6.6715729 2 7.5 2 z " style="stroke-linejoin:round;stroke-miterlimit:4px;" fill="#ffffff" stroke="#ffffff" stroke-width="3" data-reactid=".0.1.1.$harbor-15=1svg81.0.0.2:$harbor-15=1svg-0-fill"></path><path d="M 7.5 0 C 5.5 0 3.9999999 1.5670034 4 3.5 C 4.0023895 5.0629132 5.0397413 6.4019544 6.5 6.8378906 L 6.5 12.876953 C 5.569498 12.712271 4.6245148 12.327314 3.8515625 11.607422 C 2.7992386 10.627336 2.0019531 9.0675688 2.0019531 6.4980469 C 2.0097022 5.9334967 1.5488912 5.4744546 0.984375 5.484375 C 0.43285885 5.4929961 -0.0075526599 5.9465151 0 6.4980469 C 0 9.5009469 1.0119465 11.693506 2.4902344 13.070312 C 3.9685222 14.447121 5.8379346 15 7.5 15 C 9.1656236 15 11.034961 14.440412 12.511719 13.060547 C 13.988477 11.680681 14.998047 9.4867874 14.998047 6.4980469 C 15.06284 5.1027274 12.935207 5.1027274 13 6.4980469 C 13 9.051007 12.200339 10.612947 11.146484 11.597656 C 10.373064 12.320332 9.4287738 12.708422 8.5 12.875 L 8.5 6.8417969 C 9.9606534 6.4058213 10.998586 5.0642359 11 3.5 C 11 1.5670034 9.5 -2.9605947e-16 7.5 0 z M 7.5 2 C 8.3284271 2 9 2.6715729 9 3.5 C 9 4.3284271 8.3284271 5 7.5 5 C 6.6715729 5 6 4.3284271 6 3.5 C 6 2.6715729 6.6715729 2 7.5 2 z " style="stroke-linejoin:round;stroke-miterlimit:4px;" fill="#ffffff" stroke="#ffffff" stroke-width="3" data-reactid=".0.1.1.$harbor-15=1svg81.0.0.2:$harbor-15=1svg-1-fill"></path><path fill="#262525" d="M 7.5 0 C 5.5 0 3.9999999 1.5670034 4 3.5 C 4.0023895 5.0629132 5.0397413 6.4019544 6.5 6.8378906 L 6.5 12.876953 C 5.569498 12.712271 4.6245148 12.327314 3.8515625 11.607422 C 2.7992386 10.627336 2.0019531 9.0675688 2.0019531 6.4980469 C 2.0097022 5.9334967 1.5488912 5.4744546 0.984375 5.484375 C 0.43285885 5.4929961 -0.0075526599 5.9465151 0 6.4980469 C 0 9.5009469 1.0119465 11.693506 2.4902344 13.070312 C 3.9685222 14.447121 5.8379346 15 7.5 15 C 9.1656236 15 11.034961 14.440412 12.511719 13.060547 C 13.988477 11.680681 14.998047 9.4867874 14.998047 6.4980469 C 15.06284 5.1027274 12.935207 5.1027274 13 6.4980469 C 13 9.051007 12.200339 10.612947 11.146484 11.597656 C 10.373064 12.320332 9.4287738 12.708422 8.5 12.875 L 8.5 6.8417969 C 9.9606534 6.4058213 10.998586 5.0642359 11 3.5 C 11 1.5670034 9.5 -2.9605947e-16 7.5 0 z M 7.5 2 C 8.3284271 2 9 2.6715729 9 3.5 C 9 4.3284271 8.3284271 5 7.5 5 C 6.6715729 5 6 4.3284271 6 3.5 C 6 2.6715729 6.6715729 2 7.5 2 z " data-reactid=".0.1.1.$harbor-15=1svg81.0.0.3:$harbor-15=1svg-0-fill"></path><path fill="#262525" d="M 7.5 0 C 5.5 0 3.9999999 1.5670034 4 3.5 C 4.0023895 5.0629132 5.0397413 6.4019544 6.5 6.8378906 L 6.5 12.876953 C 5.569498 12.712271 4.6245148 12.327314 3.8515625 11.607422 C 2.7992386 10.627336 2.0019531 9.0675688 2.0019531 6.4980469 C 2.0097022 5.9334967 1.5488912 5.4744546 0.984375 5.484375 C 0.43285885 5.4929961 -0.0075526599 5.9465151 0 6.4980469 C 0 9.5009469 1.0119465 11.693506 2.4902344 13.070312 C 3.9685222 14.447121 5.8379346 15 7.5 15 C 9.1656236 15 11.034961 14.440412 12.511719 13.060547 C 13.988477 11.680681 14.998047 9.4867874 14.998047 6.4980469 C 15.06284 5.1027274 12.935207 5.1027274 13 6.4980469 C 13 9.051007 12.200339 10.612947 11.146484 11.597656 C 10.373064 12.320332 9.4287738 12.708422 8.5 12.875 L 8.5 6.8417969 C 9.9606534 6.4058213 10.998586 5.0642359 11 3.5 C 11 1.5670034 9.5 -2.9605947e-16 7.5 0 z M 7.5 2 C 8.3284271 2 9 2.6715729 9 3.5 C 9 4.3284271 8.3284271 5 7.5 5 C 6.6715729 5 6 4.3284271 6 3.5 C 6 2.6715729 6.6715729 2 7.5 2 z " data-reactid=".0.1.1.$harbor-15=1svg81.0.0.3:$harbor-15=1svg-1-fill"></path></svg>