<svg viewBox="-2 -2 16 16" width="16" height="16" data-reactid=".0.1.1.$harbor-11=1svg80.0.0"><path d="M 5.5 0 C 4.1192881 0 3 1.1192881 3 2.5 C 3.0018327 3.5981385 3.721663 4.5466119 4.75 4.8710938 L 4.75 9.4160156 C 4.0910131 9.3010557 3.4118878 9.0407167 2.8574219 8.5585938 C 2.088577 7.8900621 1.5 6.8296669 1.5 5 C 1.5055122 4.5773634 1.1609023 4.2336371 0.73828125 4.2402344 C 0.3248373 4.2467008 -0.00539271 4.5865407 0 5 C 0 7.1703331 0.77305943 8.7349379 1.8730469 9.6914062 C 2.9730343 10.647875 4.3333184 11 5.5 11 C 6.6666816 11 8.0269657 10.647875 9.1269531 9.6914062 C 10.226941 8.7349379 11 7.1703331 11 5 C 11.014344 3.985758 9.4856561 3.985758 9.5 5 C 9.5 6.8296669 8.911423 7.8900621 8.1425781 8.5585938 C 7.5881122 9.0407167 6.9089869 9.3010557 6.25 9.4160156 L 6.25 4.875 C 7.2795194 4.5500036 7.9998809 3.5994972 8 2.5 C 8 1.1192881 6.8807119 0 5.5 0 z M 5.5 1.5 C 6.0522847 1.5 6.5 1.9477153 6.5 2.5 C 6.5 3.0522847 6.0522847 3.5 5.5 3.5 C 4.9477153 3.5 4.5 3.0522847 4.5 2.5 C 4.5 1.9477153 4.9477153 1.5 5.5 1.5 z " style="stroke-linejoin:round;stroke-miterlimit:4px;" fill="#ffffff" stroke="#ffffff" stroke-width="3" data-reactid=".0.1.1.$harbor-11=1svg80.0.0.2:$harbor-11=1svg-0-fill"></path><path d="M 5.5 0 C 4.1192881 0 3 1.1192881 3 2.5 C 3.0018327 3.5981385 3.721663 4.5466119 4.75 4.8710938 L 4.75 9.4160156 C 4.0910131 9.3010557 3.4118878 9.0407167 2.8574219 8.5585938 C 2.088577 7.8900621 1.5 6.8296669 1.5 5 C 1.5055122 4.5773634 1.1609023 4.2336371 0.73828125 4.2402344 C 0.3248373 4.2467008 -0.00539271 4.5865407 0 5 C 0 7.1703331 0.77305943 8.7349379 1.8730469 9.6914062 C 2.9730343 10.647875 4.3333184 11 5.5 11 C 6.6666816 11 8.0269657 10.647875 9.1269531 9.6914062 C 10.226941 8.7349379 11 7.1703331 11 5 C 11.014344 3.985758 9.4856561 3.985758 9.5 5 C 9.5 6.8296669 8.911423 7.8900621 8.1425781 8.5585938 C 7.5881122 9.0407167 6.9089869 9.3010557 6.25 9.4160156 L 6.25 4.875 C 7.2795194 4.5500036 7.9998809 3.5994972 8 2.5 C 8 1.1192881 6.8807119 0 5.5 0 z M 5.5 1.5 C 6.0522847 1.5 6.5 1.9477153 6.5 2.5 C 6.5 3.0522847 6.0522847 3.5 5.5 3.5 C 4.9477153 3.5 4.5 3.0522847 4.5 2.5 C 4.5 1.9477153 4.9477153 1.5 5.5 1.5 z " style="stroke-linejoin:round;stroke-miterlimit:4px;" fill="#ffffff" stroke="#ffffff" stroke-width="3" data-reactid=".0.1.1.$harbor-11=1svg80.0.0.2:$harbor-11=1svg-1-fill"></path><path fill="#262525" d="M 5.5 0 C 4.1192881 0 3 1.1192881 3 2.5 C 3.0018327 3.5981385 3.721663 4.5466119 4.75 4.8710938 L 4.75 9.4160156 C 4.0910131 9.3010557 3.4118878 9.0407167 2.8574219 8.5585938 C 2.088577 7.8900621 1.5 6.8296669 1.5 5 C 1.5055122 4.5773634 1.1609023 4.2336371 0.73828125 4.2402344 C 0.3248373 4.2467008 -0.00539271 4.5865407 0 5 C 0 7.1703331 0.77305943 8.7349379 1.8730469 9.6914062 C 2.9730343 10.647875 4.3333184 11 5.5 11 C 6.6666816 11 8.0269657 10.647875 9.1269531 9.6914062 C 10.226941 8.7349379 11 7.1703331 11 5 C 11.014344 3.985758 9.4856561 3.985758 9.5 5 C 9.5 6.8296669 8.911423 7.8900621 8.1425781 8.5585938 C 7.5881122 9.0407167 6.9089869 9.3010557 6.25 9.4160156 L 6.25 4.875 C 7.2795194 4.5500036 7.9998809 3.5994972 8 2.5 C 8 1.1192881 6.8807119 0 5.5 0 z M 5.5 1.5 C 6.0522847 1.5 6.5 1.9477153 6.5 2.5 C 6.5 3.0522847 6.0522847 3.5 5.5 3.5 C 4.9477153 3.5 4.5 3.0522847 4.5 2.5 C 4.5 1.9477153 4.9477153 1.5 5.5 1.5 z " data-reactid=".0.1.1.$harbor-11=1svg80.0.0.3:$harbor-11=1svg-0-fill"></path><path fill="#262525" d="M 5.5 0 C 4.1192881 0 3 1.1192881 3 2.5 C 3.0018327 3.5981385 3.721663 4.5466119 4.75 4.8710938 L 4.75 9.4160156 C 4.0910131 9.3010557 3.4118878 9.0407167 2.8574219 8.5585938 C 2.088577 7.8900621 1.5 6.8296669 1.5 5 C 1.5055122 4.5773634 1.1609023 4.2336371 0.73828125 4.2402344 C 0.3248373 4.2467008 -0.00539271 4.5865407 0 5 C 0 7.1703331 0.77305943 8.7349379 1.8730469 9.6914062 C 2.9730343 10.647875 4.3333184 11 5.5 11 C 6.6666816 11 8.0269657 10.647875 9.1269531 9.6914062 C 10.226941 8.7349379 11 7.1703331 11 5 C 11.014344 3.985758 9.4856561 3.985758 9.5 5 C 9.5 6.8296669 8.911423 7.8900621 8.1425781 8.5585938 C 7.5881122 9.0407167 6.9089869 9.3010557 6.25 9.4160156 L 6.25 4.875 C 7.2795194 4.5500036 7.9998809 3.5994972 8 2.5 C 8 1.1192881 6.8807119 0 5.5 0 z M 5.5 1.5 C 6.0522847 1.5 6.5 1.9477153 6.5 2.5 C 6.5 3.0522847 6.0522847 3.5 5.5 3.5 C 4.9477153 3.5 4.5 3.0522847 4.5 2.5 C 4.5 1.9477153 4.9477153 1.5 5.5 1.5 z " data-reactid=".0.1.1.$harbor-11=1svg80.0.0.3:$harbor-11=1svg-1-fill"></path></svg>