<svg viewBox="-2 -2 16 16" width="16" height="16" data-reactid=".0.1.1.$heliport-11=1svg82.0.0"><path d="M 3,1 C 2.723,1 2.5,1.223 2.5,1.5 2.5,1.777 2.723558,1.9824329 3,2 l 3,0 0,2 -3.085938,0 -0.002,0 C 2.7004342,3.4014241 2.1348847,3.0009109 1.5,3 0.67157288,3 0,3.6715729 0,4.5 0,5.3284271 0.67157288,6 1.5,6 1.8793696,5.9992569 2.2443666,5.8547934 2.521484,5.5957031 L 4.5,8.5 c 0.6812375,1 1.5,1 2,1 l 3.535156,0 C 10.035156,9.5 11,9.4992114 11,8.5 l 0,-1 c 0,-0.5 -0.5,-1 -0.5,-1 l -2,-2 C 8.5,4.5 8,4 7.5,4 L 7,4 7,2 10,2 C 10.277,2 10.5,1.777 10.5,1.5 10.5,1.223 10.277,1 10,1 Z M 1.5,4 C 1.7761424,4 2,4.2238576 2,4.5 2,4.7761424 1.7761424,5 1.5,5 1.2238576,5 1,4.7761424 1,4.5 1,4.2238576 1.2238576,4 1.5,4 Z M 7.75,5 C 7.75,5 8,5 8.5,5.5 L 10,7 7.5,7 C 7.5,7 7,7 7,6.5 l 0,-1 C 7,5.5 7,5 7.5,5 Z" style="stroke-linejoin:round;stroke-miterlimit:4px;" fill="#ffffff" stroke="#ffffff" stroke-width="3" data-reactid=".0.1.1.$heliport-11=1svg82.0.0.2:$heliport-11=1svg-0-fill"></path><path d="M 3,1 C 2.723,1 2.5,1.223 2.5,1.5 2.5,1.777 2.723558,1.9824329 3,2 l 3,0 0,2 -3.085938,0 -0.002,0 C 2.7004342,3.4014241 2.1348847,3.0009109 1.5,3 0.67157288,3 0,3.6715729 0,4.5 0,5.3284271 0.67157288,6 1.5,6 1.8793696,5.9992569 2.2443666,5.8547934 2.521484,5.5957031 L 4.5,8.5 c 0.6812375,1 1.5,1 2,1 l 3.535156,0 C 10.035156,9.5 11,9.4992114 11,8.5 l 0,-1 c 0,-0.5 -0.5,-1 -0.5,-1 l -2,-2 C 8.5,4.5 8,4 7.5,4 L 7,4 7,2 10,2 C 10.277,2 10.5,1.777 10.5,1.5 10.5,1.223 10.277,1 10,1 Z M 1.5,4 C 1.7761424,4 2,4.2238576 2,4.5 2,4.7761424 1.7761424,5 1.5,5 1.2238576,5 1,4.7761424 1,4.5 1,4.2238576 1.2238576,4 1.5,4 Z M 7.75,5 C 7.75,5 8,5 8.5,5.5 L 10,7 7.5,7 C 7.5,7 7,7 7,6.5 l 0,-1 C 7,5.5 7,5 7.5,5 Z" style="stroke-linejoin:round;stroke-miterlimit:4px;" fill="#ffffff" stroke="#ffffff" stroke-width="3" data-reactid=".0.1.1.$heliport-11=1svg82.0.0.2:$heliport-11=1svg-1-fill"></path><path fill="#262525" d="M 3,1 C 2.723,1 2.5,1.223 2.5,1.5 2.5,1.777 2.723558,1.9824329 3,2 l 3,0 0,2 -3.085938,0 -0.002,0 C 2.7004342,3.4014241 2.1348847,3.0009109 1.5,3 0.67157288,3 0,3.6715729 0,4.5 0,5.3284271 0.67157288,6 1.5,6 1.8793696,5.9992569 2.2443666,5.8547934 2.521484,5.5957031 L 4.5,8.5 c 0.6812375,1 1.5,1 2,1 l 3.535156,0 C 10.035156,9.5 11,9.4992114 11,8.5 l 0,-1 c 0,-0.5 -0.5,-1 -0.5,-1 l -2,-2 C 8.5,4.5 8,4 7.5,4 L 7,4 7,2 10,2 C 10.277,2 10.5,1.777 10.5,1.5 10.5,1.223 10.277,1 10,1 Z M 1.5,4 C 1.7761424,4 2,4.2238576 2,4.5 2,4.7761424 1.7761424,5 1.5,5 1.2238576,5 1,4.7761424 1,4.5 1,4.2238576 1.2238576,4 1.5,4 Z M 7.75,5 C 7.75,5 8,5 8.5,5.5 L 10,7 7.5,7 C 7.5,7 7,7 7,6.5 l 0,-1 C 7,5.5 7,5 7.5,5 Z" data-reactid=".0.1.1.$heliport-11=1svg82.0.0.3:$heliport-11=1svg-0-fill"></path><path fill="#262525" d="M 3,1 C 2.723,1 2.5,1.223 2.5,1.5 2.5,1.777 2.723558,1.9824329 3,2 l 3,0 0,2 -3.085938,0 -0.002,0 C 2.7004342,3.4014241 2.1348847,3.0009109 1.5,3 0.67157288,3 0,3.6715729 0,4.5 0,5.3284271 0.67157288,6 1.5,6 1.8793696,5.9992569 2.2443666,5.8547934 2.521484,5.5957031 L 4.5,8.5 c 0.6812375,1 1.5,1 2,1 l 3.535156,0 C 10.035156,9.5 11,9.4992114 11,8.5 l 0,-1 c 0,-0.5 -0.5,-1 -0.5,-1 l -2,-2 C 8.5,4.5 8,4 7.5,4 L 7,4 7,2 10,2 C 10.277,2 10.5,1.777 10.5,1.5 10.5,1.223 10.277,1 10,1 Z M 1.5,4 C 1.7761424,4 2,4.2238576 2,4.5 2,4.7761424 1.7761424,5 1.5,5 1.2238576,5 1,4.7761424 1,4.5 1,4.2238576 1.2238576,4 1.5,4 Z M 7.75,5 C 7.75,5 8,5 8.5,5.5 L 10,7 7.5,7 C 7.5,7 7,7 7,6.5 l 0,-1 C 7,5.5 7,5 7.5,5 Z" data-reactid=".0.1.1.$heliport-11=1svg82.0.0.3:$heliport-11=1svg-1-fill"></path></svg>