<svg viewBox="-294 191 20 20" width="20" height="20" data-reactid=".0.1.1.$hospital-15=1svg85.0.0"><path d="M-285,194c-0.6,0-1,0.4-1,1v4h-4c-0.6,0-1,0.4-1,1v1c0,0.6,0.4,1,1,1h4v4
	c0,0.6,0.4,1,1,1h1c0.6,0,1-0.4,1-1v-4h4c0.6,0,1-0.4,1-1v-1c0-0.6-0.4-1-1-1h-4v-4c0-0.6-0.4-1-1-1H-285z" style="stroke-linejoin:round;stroke-miterlimit:4px;" fill="#ffffff" stroke="#ffffff" stroke-width="3" data-reactid=".0.1.1.$hospital-15=1svg85.0.0.2:$hospital-15=1svg-0-fill"></path><path d="M-285,194c-0.6,0-1,0.4-1,1v4h-4c-0.6,0-1,0.4-1,1v1c0,0.6,0.4,1,1,1h4v4
	c0,0.6,0.4,1,1,1h1c0.6,0,1-0.4,1-1v-4h4c0.6,0,1-0.4,1-1v-1c0-0.6-0.4-1-1-1h-4v-4c0-0.6-0.4-1-1-1H-285z" style="stroke-linejoin:round;stroke-miterlimit:4px;" fill="#ffffff" stroke="#ffffff" stroke-width="3" data-reactid=".0.1.1.$hospital-15=1svg85.0.0.2:$hospital-15=1svg-1-fill"></path><path fill="#262525" d="M-285,194c-0.6,0-1,0.4-1,1v4h-4c-0.6,0-1,0.4-1,1v1c0,0.6,0.4,1,1,1h4v4
	c0,0.6,0.4,1,1,1h1c0.6,0,1-0.4,1-1v-4h4c0.6,0,1-0.4,1-1v-1c0-0.6-0.4-1-1-1h-4v-4c0-0.6-0.4-1-1-1H-285z" data-reactid=".0.1.1.$hospital-15=1svg85.0.0.3:$hospital-15=1svg-0-fill"></path><path fill="#262525" d="M-285,194c-0.6,0-1,0.4-1,1v4h-4c-0.6,0-1,0.4-1,1v1c0,0.6,0.4,1,1,1h4v4
	c0,0.6,0.4,1,1,1h1c0.6,0,1-0.4,1-1v-4h4c0.6,0,1-0.4,1-1v-1c0-0.6-0.4-1-1-1h-4v-4c0-0.6-0.4-1-1-1H-285z" data-reactid=".0.1.1.$hospital-15=1svg85.0.0.3:$hospital-15=1svg-1-fill"></path></svg>