<svg viewBox="-294 191 20 20" width="20" height="20" data-reactid=".0.1.1.$ice-cream-15=1svg87.0.0"><path d="M-284.8,194
	c-0.6,0-1,0.4-1,1c0,0.6,0.4,1,1,1h-1.3c-0.6,0-1,0.4-1,1c0,0.6,0.4,1,1,1h-1.3c-0.6,0-1,0.4-1,1c0,0.6,0.4,1,1,1h6c0.6,0,1-0.4,1-1
	c0-0.6-0.4-1-1-1h-1.3c0.6,0,1-0.4,1-1c0-0.6-0.4-1-1-1h-1.3c0.6,0,1-0.4,1-1c0-0.6-0.4-1-1-1H-284.8z M-288,200.5v2h1l1,4.5h3
	l1-4.5h1v-2H-288z" style="stroke-linejoin:round;stroke-miterlimit:4px;" fill="#ffffff" stroke="#ffffff" stroke-width="3" data-reactid=".0.1.1.$ice-cream-15=1svg87.0.0.2:$ice-cream-15=1svg-0-fill"></path><path d="M-284.8,194
	c-0.6,0-1,0.4-1,1c0,0.6,0.4,1,1,1h-1.3c-0.6,0-1,0.4-1,1c0,0.6,0.4,1,1,1h-1.3c-0.6,0-1,0.4-1,1c0,0.6,0.4,1,1,1h6c0.6,0,1-0.4,1-1
	c0-0.6-0.4-1-1-1h-1.3c0.6,0,1-0.4,1-1c0-0.6-0.4-1-1-1h-1.3c0.6,0,1-0.4,1-1c0-0.6-0.4-1-1-1H-284.8z M-288,200.5v2h1l1,4.5h3
	l1-4.5h1v-2H-288z" style="stroke-linejoin:round;stroke-miterlimit:4px;" fill="#ffffff" stroke="#ffffff" stroke-width="3" data-reactid=".0.1.1.$ice-cream-15=1svg87.0.0.2:$ice-cream-15=1svg-1-fill"></path><path fill="#262525" d="M-284.8,194
	c-0.6,0-1,0.4-1,1c0,0.6,0.4,1,1,1h-1.3c-0.6,0-1,0.4-1,1c0,0.6,0.4,1,1,1h-1.3c-0.6,0-1,0.4-1,1c0,0.6,0.4,1,1,1h6c0.6,0,1-0.4,1-1
	c0-0.6-0.4-1-1-1h-1.3c0.6,0,1-0.4,1-1c0-0.6-0.4-1-1-1h-1.3c0.6,0,1-0.4,1-1c0-0.6-0.4-1-1-1H-284.8z M-288,200.5v2h1l1,4.5h3
	l1-4.5h1v-2H-288z" data-reactid=".0.1.1.$ice-cream-15=1svg87.0.0.3:$ice-cream-15=1svg-0-fill"></path><path fill="#262525" d="M-284.8,194
	c-0.6,0-1,0.4-1,1c0,0.6,0.4,1,1,1h-1.3c-0.6,0-1,0.4-1,1c0,0.6,0.4,1,1,1h-1.3c-0.6,0-1,0.4-1,1c0,0.6,0.4,1,1,1h6c0.6,0,1-0.4,1-1
	c0-0.6-0.4-1-1-1h-1.3c0.6,0,1-0.4,1-1c0-0.6-0.4-1-1-1h-1.3c0.6,0,1-0.4,1-1c0-0.6-0.4-1-1-1H-284.8z M-288,200.5v2h1l1,4.5h3
	l1-4.5h1v-2H-288z" data-reactid=".0.1.1.$ice-cream-15=1svg87.0.0.3:$ice-cream-15=1svg-1-fill"></path></svg>