<?xml version="1.0" encoding="utf-8"?>
<!-- Generator: Adobe Illustrator 17.0.0, SVG Export Plug-In . SVG Version: 6.00 Build 0)  -->
<!DOCTYPE svg PUBLIC "-//W3C//DTD SVG 1.1//EN" "http://www.w3.org/Graphics/SVG/1.1/DTD/svg11.dtd">
<svg version="1.1"
	 id="svg4460" xmlns:dc="http://purl.org/dc/elements/1.1/" xmlns:cc="http://creativecommons.org/ns#" xmlns:rdf="http://www.w3.org/1999/02/22-rdf-syntax-ns#" xmlns:svg="http://www.w3.org/2000/svg" xmlns:inkscape="http://www.inkscape.org/namespaces/inkscape"
	 xmlns="http://www.w3.org/2000/svg" xmlns:xlink="http://www.w3.org/1999/xlink" x="0px" y="0px" width="24px" height="24px"
	 viewBox="0 0 24 24" enable-background="new 0 0 24 24" xml:space="preserve">
<g id="layer1" transform="translate(0,-1028.3622)">
</g>
<g id="laundry">
	<g id="g3289">
		
			<path id="path4161" inkscape:connector-curvature="0" opacity="0.3" fill="none" stroke="#FFFFFF" stroke-width="2" enable-background="new    " d="
			M12,3c-0.484,0-1.146,0.646-1.5,1l-1,1C9.146,5.354,8.5,6,8,6H5.5c-0.5,0-1,0.5-1,1v13c0,0.553,0.448,1,1,1h13
			c0.552,0,1-0.447,1-1V4c0-0.553-0.448-1-1-1H12z M13.5,4c0.552,0,1,0.448,1,1s-0.448,1-1,1s-1-0.448-1-1S12.948,4,13.5,4z M16.5,4
			c0.552,0,1,0.448,1,1s-0.448,1-1,1s-1-0.448-1-1S15.948,4,16.5,4z M12,9c2.485,0,4.5,2.015,4.5,4.5S14.485,18,12,18
			s-4.5-2.015-4.5-4.5S9.515,9,12,9z M9.5,13v0.5c0,1.381,1.119,2.5,2.5,2.5s2.5-1.119,2.5-2.5V13H9.5z"/>
		<path id="path3291" inkscape:connector-curvature="0" fill="#454545" d="M12,3c-0.484,0-1.146,0.646-1.5,1l-1,1
			C9.146,5.354,8.5,6,8,6H5.5c-0.5,0-1,0.5-1,1v13c0,0.553,0.448,1,1,1h13c0.552,0,1-0.447,1-1V4c0-0.553-0.448-1-1-1H12z M13.5,4
			c0.552,0,1,0.448,1,1s-0.448,1-1,1s-1-0.448-1-1S12.948,4,13.5,4z M16.5,4c0.552,0,1,0.448,1,1s-0.448,1-1,1s-1-0.448-1-1
			S15.948,4,16.5,4z M12,9c2.485,0,4.5,2.015,4.5,4.5S14.485,18,12,18s-4.5-2.015-4.5-4.5S9.515,9,12,9z M9.5,13v0.5
			c0,1.381,1.119,2.5,2.5,2.5s2.5-1.119,2.5-2.5V13H9.5z"/>
	</g>
</g>
<rect id="canvas" display="none" fill="none" width="24" height="24"/>
</svg>
