<?xml version="1.0" encoding="utf-8"?>
<!-- Generator: Adobe Illustrator 17.0.0, SVG Export Plug-In . SVG Version: 6.00 Build 0)  -->
<!DOCTYPE svg PUBLIC "-//W3C//DTD SVG 1.1//EN" "http://www.w3.org/Graphics/SVG/1.1/DTD/svg11.dtd">
<svg version="1.1"
	 id="svg4619" xmlns:dc="http://purl.org/dc/elements/1.1/" xmlns:cc="http://creativecommons.org/ns#" xmlns:rdf="http://www.w3.org/1999/02/22-rdf-syntax-ns#" xmlns:svg="http://www.w3.org/2000/svg" xmlns:inkscape="http://www.inkscape.org/namespaces/inkscape"
	 xmlns="http://www.w3.org/2000/svg" xmlns:xlink="http://www.w3.org/1999/xlink" x="0px" y="0px" width="18px" height="18px"
	 viewBox="0 0 18 18" enable-background="new 0 0 18 18" xml:space="preserve">
<g id="layer1" transform="translate(0,-1034.3622)">
	<g id="g4308" transform="translate(17,0)">
		<g id="laundry-7" transform="translate(-31,1028.3622)">
			<g id="g3289">
				
					<path id="path4332" inkscape:connector-curvature="0" opacity="0.3" fill="none" stroke="#FFFFFF" stroke-width="2" enable-background="new    " d="
					M22.656,8L19.5,11h-2v11h11V8.781L27.719,8H22.656z M23.5,9l1,1l-1,1l-1-1L23.5,9z M26.5,9l1,1l-1,1l-1-1L26.5,9z M23,13
					c1.933,0,3.5,1.567,3.5,3.5S24.933,20,23,20s-3.5-1.567-3.5-3.5S21.067,13,23,13z M21,16.5c0,1.105,0.895,2,2,2s2-0.895,2-2h-2
					H21z"/>
				<path id="path3291" inkscape:connector-curvature="0" fill="#454545" d="M22.656,8L19.5,11h-2v11h11V8.781L27.719,8H22.656z
					 M23.5,9l1,1l-1,1l-1-1L23.5,9z M26.5,9l1,1l-1,1l-1-1L26.5,9z M23,13c1.933,0,3.5,1.567,3.5,3.5S24.933,20,23,20
					s-3.5-1.567-3.5-3.5S21.067,13,23,13z M21,16.5c0,1.105,0.895,2,2,2s2-0.895,2-2h-2H21z"/>
			</g>
		</g>
	</g>
</g>
<rect id="canvas" display="none" fill="none" width="18" height="18"/>
</svg>
