<svg viewBox="-294 191 20 20" width="20" height="20" data-reactid=".0.1.1.$lodging-15=1svg95.0.0"><path d="M-291.5,195.5c-0.3,0-0.5,0.2-0.5,0.5v7.5v2c0,0.3,0.2,0.5,0.5,0.5s0.5-0.2,0.5-0.5V204h13v1.5
	c0,0.3,0.2,0.5,0.5,0.5s0.5-0.2,0.5-0.5v-2c0-0.3-0.2-0.5-0.5-0.5H-291v-7C-291,195.7-291.2,195.5-291.5,195.5z M-288.5,196
	c-0.8,0-1.5,0.7-1.5,1.5c0,0,0,0,0,0c0,0.8,0.7,1.5,1.5,1.5c0,0,0,0,0,0c0.8,0,1.5-0.7,1.5-1.5l0,0C-287,196.7-287.7,196-288.5,196
	C-288.5,196-288.5,196-288.5,196z M-285,197c-1.5,0-1.5,1.5-1.5,1.5v1.5h-3c-0.3,0-0.5,0.2-0.5,0.5v1c0,0.3,0.2,0.5,0.5,0.5h3.5h9
	v-2.5c0-2.5-2.5-2.5-2.5-2.5H-285z" style="stroke-linejoin:round;stroke-miterlimit:4px;" fill="#ffffff" stroke="#ffffff" stroke-width="3" data-reactid=".0.1.1.$lodging-15=1svg95.0.0.2:$lodging-15=1svg-0-fill"></path><path d="M-291.5,195.5c-0.3,0-0.5,0.2-0.5,0.5v7.5v2c0,0.3,0.2,0.5,0.5,0.5s0.5-0.2,0.5-0.5V204h13v1.5
	c0,0.3,0.2,0.5,0.5,0.5s0.5-0.2,0.5-0.5v-2c0-0.3-0.2-0.5-0.5-0.5H-291v-7C-291,195.7-291.2,195.5-291.5,195.5z M-288.5,196
	c-0.8,0-1.5,0.7-1.5,1.5c0,0,0,0,0,0c0,0.8,0.7,1.5,1.5,1.5c0,0,0,0,0,0c0.8,0,1.5-0.7,1.5-1.5l0,0C-287,196.7-287.7,196-288.5,196
	C-288.5,196-288.5,196-288.5,196z M-285,197c-1.5,0-1.5,1.5-1.5,1.5v1.5h-3c-0.3,0-0.5,0.2-0.5,0.5v1c0,0.3,0.2,0.5,0.5,0.5h3.5h9
	v-2.5c0-2.5-2.5-2.5-2.5-2.5H-285z" style="stroke-linejoin:round;stroke-miterlimit:4px;" fill="#ffffff" stroke="#ffffff" stroke-width="3" data-reactid=".0.1.1.$lodging-15=1svg95.0.0.2:$lodging-15=1svg-1-fill"></path><path fill="#262525" d="M-291.5,195.5c-0.3,0-0.5,0.2-0.5,0.5v7.5v2c0,0.3,0.2,0.5,0.5,0.5s0.5-0.2,0.5-0.5V204h13v1.5
	c0,0.3,0.2,0.5,0.5,0.5s0.5-0.2,0.5-0.5v-2c0-0.3-0.2-0.5-0.5-0.5H-291v-7C-291,195.7-291.2,195.5-291.5,195.5z M-288.5,196
	c-0.8,0-1.5,0.7-1.5,1.5c0,0,0,0,0,0c0,0.8,0.7,1.5,1.5,1.5c0,0,0,0,0,0c0.8,0,1.5-0.7,1.5-1.5l0,0C-287,196.7-287.7,196-288.5,196
	C-288.5,196-288.5,196-288.5,196z M-285,197c-1.5,0-1.5,1.5-1.5,1.5v1.5h-3c-0.3,0-0.5,0.2-0.5,0.5v1c0,0.3,0.2,0.5,0.5,0.5h3.5h9
	v-2.5c0-2.5-2.5-2.5-2.5-2.5H-285z" data-reactid=".0.1.1.$lodging-15=1svg95.0.0.3:$lodging-15=1svg-0-fill"></path><path fill="#262525" d="M-291.5,195.5c-0.3,0-0.5,0.2-0.5,0.5v7.5v2c0,0.3,0.2,0.5,0.5,0.5s0.5-0.2,0.5-0.5V204h13v1.5
	c0,0.3,0.2,0.5,0.5,0.5s0.5-0.2,0.5-0.5v-2c0-0.3-0.2-0.5-0.5-0.5H-291v-7C-291,195.7-291.2,195.5-291.5,195.5z M-288.5,196
	c-0.8,0-1.5,0.7-1.5,1.5c0,0,0,0,0,0c0,0.8,0.7,1.5,1.5,1.5c0,0,0,0,0,0c0.8,0,1.5-0.7,1.5-1.5l0,0C-287,196.7-287.7,196-288.5,196
	C-288.5,196-288.5,196-288.5,196z M-285,197c-1.5,0-1.5,1.5-1.5,1.5v1.5h-3c-0.3,0-0.5,0.2-0.5,0.5v1c0,0.3,0.2,0.5,0.5,0.5h3.5h9
	v-2.5c0-2.5-2.5-2.5-2.5-2.5H-285z" data-reactid=".0.1.1.$lodging-15=1svg95.0.0.3:$lodging-15=1svg-1-fill"></path></svg>