<svg viewBox="-2 -2 20 20" width="20" height="20" data-reactid=".0.1.1.$monument-15=1svg99.0.0"><path d="M 7.5,0 6,2.5 l 0,7 3,0 0,-7 z M 3,11.5 l -5e-7,3.500001 9.0000005,0 L 12,11.5 10.5,10 l -6,0 z" style="stroke-linejoin:round;stroke-miterlimit:4px;" fill="#ffffff" stroke="#ffffff" stroke-width="3" data-reactid=".0.1.1.$monument-15=1svg99.0.0.2:$monument-15=1svg-0-fill"></path><path d="M 7.5,0 6,2.5 l 0,7 3,0 0,-7 z M 3,11.5 l -5e-7,3.500001 9.0000005,0 L 12,11.5 10.5,10 l -6,0 z" style="stroke-linejoin:round;stroke-miterlimit:4px;" fill="#ffffff" stroke="#ffffff" stroke-width="3" data-reactid=".0.1.1.$monument-15=1svg99.0.0.2:$monument-15=1svg-1-fill"></path><path fill="#262525" d="M 7.5,0 6,2.5 l 0,7 3,0 0,-7 z M 3,11.5 l -5e-7,3.500001 9.0000005,0 L 12,11.5 10.5,10 l -6,0 z" data-reactid=".0.1.1.$monument-15=1svg99.0.0.3:$monument-15=1svg-0-fill"></path><path fill="#262525" d="M 7.5,0 6,2.5 l 0,7 3,0 0,-7 z M 3,11.5 l -5e-7,3.500001 9.0000005,0 L 12,11.5 10.5,10 l -6,0 z" data-reactid=".0.1.1.$monument-15=1svg99.0.0.3:$monument-15=1svg-1-fill"></path></svg>