<svg viewBox="-2 -2 20 20" width="20" height="20" data-reactid=".0.1.1.$mountain-15=1svg101.0.0"><path d="M7.5,2C7.2,2,7.1,2.2,6.9,2.4
	l-5.8,9.5C1,12,1,12.2,1,12.3C1,12.8,1.4,13,1.7,13h11.6c0.4,0,0.7-0.2,0.7-0.7c0-0.2,0-0.2-0.1-0.4L8.2,2.4C8,2.2,7.8,2,7.5,2z
	 M7.5,3.5L10.8,9H10L8.5,7.5L7.5,9l-1-1.5L5,9H4.1L7.5,3.5z" style="stroke-linejoin:round;stroke-miterlimit:4px;" fill="#ffffff" stroke="#ffffff" stroke-width="3" data-reactid=".0.1.1.$mountain-15=1svg101.0.0.2:$mountain-15=1svg-0-fill"></path><path d="M7.5,2C7.2,2,7.1,2.2,6.9,2.4
	l-5.8,9.5C1,12,1,12.2,1,12.3C1,12.8,1.4,13,1.7,13h11.6c0.4,0,0.7-0.2,0.7-0.7c0-0.2,0-0.2-0.1-0.4L8.2,2.4C8,2.2,7.8,2,7.5,2z
	 M7.5,3.5L10.8,9H10L8.5,7.5L7.5,9l-1-1.5L5,9H4.1L7.5,3.5z" style="stroke-linejoin:round;stroke-miterlimit:4px;" fill="#ffffff" stroke="#ffffff" stroke-width="3" data-reactid=".0.1.1.$mountain-15=1svg101.0.0.2:$mountain-15=1svg-1-fill"></path><path fill="#262525" d="M7.5,2C7.2,2,7.1,2.2,6.9,2.4
	l-5.8,9.5C1,12,1,12.2,1,12.3C1,12.8,1.4,13,1.7,13h11.6c0.4,0,0.7-0.2,0.7-0.7c0-0.2,0-0.2-0.1-0.4L8.2,2.4C8,2.2,7.8,2,7.5,2z
	 M7.5,3.5L10.8,9H10L8.5,7.5L7.5,9l-1-1.5L5,9H4.1L7.5,3.5z" data-reactid=".0.1.1.$mountain-15=1svg101.0.0.3:$mountain-15=1svg-0-fill"></path><path fill="#262525" d="M7.5,2C7.2,2,7.1,2.2,6.9,2.4
	l-5.8,9.5C1,12,1,12.2,1,12.3C1,12.8,1.4,13,1.7,13h11.6c0.4,0,0.7-0.2,0.7-0.7c0-0.2,0-0.2-0.1-0.4L8.2,2.4C8,2.2,7.8,2,7.5,2z
	 M7.5,3.5L10.8,9H10L8.5,7.5L7.5,9l-1-1.5L5,9H4.1L7.5,3.5z" data-reactid=".0.1.1.$mountain-15=1svg101.0.0.3:$mountain-15=1svg-1-fill"></path></svg>