<svg viewBox="-2 -2 16 16" width="16" height="16" data-reactid=".0.1.1.$mountain-11=1svg100.0.0"><path d="M 5.517578,1.2324219 C 5.316543,1.2262287 5.1270594,1.3279986 5.0234374,1.5 L 1.0234375,8.1601562 C 0.8006975,8.5296102 1.067892,8.9999049 1.5,9 L 9.4999999,9 C 9.9321089,8.9999067 10.199303,8.5296112 9.9765624,8.1601562 L 5.9765624,1.5 C 5.8793204,1.3385786 5.70624,1.2383824 5.517578,1.2324219 Z M 5.519528,2.1542969 8.4316405,7 7.7597655,7 6.4160155,5.7734375 5.5195311,7 4.6249999,5.7734375 3.2812499,7 2.6093749,7 5.5195311,2.1542969 Z" style="stroke-linejoin:round;stroke-miterlimit:4px;" fill="#ffffff" stroke="#ffffff" stroke-width="3" data-reactid=".0.1.1.$mountain-11=1svg100.0.0.2:$mountain-11=1svg-0-fill"></path><path d="M 5.517578,1.2324219 C 5.316543,1.2262287 5.1270594,1.3279986 5.0234374,1.5 L 1.0234375,8.1601562 C 0.8006975,8.5296102 1.067892,8.9999049 1.5,9 L 9.4999999,9 C 9.9321089,8.9999067 10.199303,8.5296112 9.9765624,8.1601562 L 5.9765624,1.5 C 5.8793204,1.3385786 5.70624,1.2383824 5.517578,1.2324219 Z M 5.519528,2.1542969 8.4316405,7 7.7597655,7 6.4160155,5.7734375 5.5195311,7 4.6249999,5.7734375 3.2812499,7 2.6093749,7 5.5195311,2.1542969 Z" style="stroke-linejoin:round;stroke-miterlimit:4px;" fill="#ffffff" stroke="#ffffff" stroke-width="3" data-reactid=".0.1.1.$mountain-11=1svg100.0.0.2:$mountain-11=1svg-1-fill"></path><path fill="#262525" d="M 5.517578,1.2324219 C 5.316543,1.2262287 5.1270594,1.3279986 5.0234374,1.5 L 1.0234375,8.1601562 C 0.8006975,8.5296102 1.067892,8.9999049 1.5,9 L 9.4999999,9 C 9.9321089,8.9999067 10.199303,8.5296112 9.9765624,8.1601562 L 5.9765624,1.5 C 5.8793204,1.3385786 5.70624,1.2383824 5.517578,1.2324219 Z M 5.519528,2.1542969 8.4316405,7 7.7597655,7 6.4160155,5.7734375 5.5195311,7 4.6249999,5.7734375 3.2812499,7 2.6093749,7 5.5195311,2.1542969 Z" data-reactid=".0.1.1.$mountain-11=1svg100.0.0.3:$mountain-11=1svg-0-fill"></path><path fill="#262525" d="M 5.517578,1.2324219 C 5.316543,1.2262287 5.1270594,1.3279986 5.0234374,1.5 L 1.0234375,8.1601562 C 0.8006975,8.5296102 1.067892,8.9999049 1.5,9 L 9.4999999,9 C 9.9321089,8.9999067 10.199303,8.5296112 9.9765624,8.1601562 L 5.9765624,1.5 C 5.8793204,1.3385786 5.70624,1.2383824 5.517578,1.2324219 Z M 5.519528,2.1542969 8.4316405,7 7.7597655,7 6.4160155,5.7734375 5.5195311,7 4.6249999,5.7734375 3.2812499,7 2.6093749,7 5.5195311,2.1542969 Z" data-reactid=".0.1.1.$mountain-11=1svg100.0.0.3:$mountain-11=1svg-1-fill"></path></svg>