<svg viewBox="-2 -2 16 16" width="16" height="16" data-reactid=".0.1.1.$museum-11=1svg102.0.0"><path d="M5.5,0L1,2V3h9V2ZM2,4V8L1,9v1h9V9L9,8V4H2ZM3.49,5a0.5,0.5,0,0,1,.36.15L5.5,6.79,7.15,5.15A0.5,0.5,0,0,1,8,5.5v3a0.5,0.5,0,0,1-1,0s0,0,0,0V6.71L5.85,7.85a0.5,0.5,0,0,1-.71,0L4,6.71V8.5a0.5,0.5,0,1,1-1,0s0,0,0,0v-3A0.5,0.5,0,0,1,3.49,5Z" style="stroke-linejoin:round;stroke-miterlimit:4px;" fill="#ffffff" stroke="#ffffff" stroke-width="3" data-reactid=".0.1.1.$museum-11=1svg102.0.0.2:$museum-11=1svg-0-fill"></path><path d="M5.5,0L1,2V3h9V2ZM2,4V8L1,9v1h9V9L9,8V4H2ZM3.49,5a0.5,0.5,0,0,1,.36.15L5.5,6.79,7.15,5.15A0.5,0.5,0,0,1,8,5.5v3a0.5,0.5,0,0,1-1,0s0,0,0,0V6.71L5.85,7.85a0.5,0.5,0,0,1-.71,0L4,6.71V8.5a0.5,0.5,0,1,1-1,0s0,0,0,0v-3A0.5,0.5,0,0,1,3.49,5Z" style="stroke-linejoin:round;stroke-miterlimit:4px;" fill="#ffffff" stroke="#ffffff" stroke-width="3" data-reactid=".0.1.1.$museum-11=1svg102.0.0.2:$museum-11=1svg-1-fill"></path><path fill="#262525" d="M5.5,0L1,2V3h9V2ZM2,4V8L1,9v1h9V9L9,8V4H2ZM3.49,5a0.5,0.5,0,0,1,.36.15L5.5,6.79,7.15,5.15A0.5,0.5,0,0,1,8,5.5v3a0.5,0.5,0,0,1-1,0s0,0,0,0V6.71L5.85,7.85a0.5,0.5,0,0,1-.71,0L4,6.71V8.5a0.5,0.5,0,1,1-1,0s0,0,0,0v-3A0.5,0.5,0,0,1,3.49,5Z" data-reactid=".0.1.1.$museum-11=1svg102.0.0.3:$museum-11=1svg-0-fill"></path><path fill="#262525" d="M5.5,0L1,2V3h9V2ZM2,4V8L1,9v1h9V9L9,8V4H2ZM3.49,5a0.5,0.5,0,0,1,.36.15L5.5,6.79,7.15,5.15A0.5,0.5,0,0,1,8,5.5v3a0.5,0.5,0,0,1-1,0s0,0,0,0V6.71L5.85,7.85a0.5,0.5,0,0,1-.71,0L4,6.71V8.5a0.5,0.5,0,1,1-1,0s0,0,0,0v-3A0.5,0.5,0,0,1,3.49,5Z" data-reactid=".0.1.1.$museum-11=1svg102.0.0.3:$museum-11=1svg-1-fill"></path></svg>