<svg viewBox="-2 -2 20 20" width="20" height="20" data-reactid=".0.1.1.$park-15=1svg107.0.0"><path d="M 7.4785156,0 C 7.3919085,0.00379885 7.3077767,0.03004797 7.234375,0.07617187 l -4,2.50000003 C 2.9268465,2.7689135 2.9206252,3.2147684 3.222656,3.4160156 c 0,0 0.8948713,0.4617623 1.9804688,0.7773438 L 1.2421875,6.5703125 c -0.35653798,0.2125902 -0.31377439,0.7419314 0.072266,0.8945313 0,0 1.6426444,0.5146745 3.5429688,0.796875 L 1.2773438,10.052734 c -0.38689446,0.192379 -0.36413467,0.751796 0.037109,0.91211 0,0 2.6855472,1.285156 5.1855469,1.535156 l 3e-7,2 c 2.76e-5,0.276131 0.2238691,0.499972 0.5,0.5 l 1,0 c 0.2761309,-2.8e-5 0.4999724,-0.223869 0.5,-0.5 l 0,-2 c 2.5,-0.25 5.185547,-1.535156 5.185547,-1.535156 0.401244,-0.160313 0.424004,-0.719731 0.03711,-0.91211 L 10.142578,8.2617188 c 1.900325,-0.2822005 3.542969,-0.796875 3.542969,-0.796875 0.386039,-0.1526027 0.428799,-0.6819433 0.07226,-0.8945313 L 9.796875,4.1933594 C 10.882473,3.8777779 11.777344,3.4160156 11.777344,3.4160156 12.079375,3.214768 12.073153,2.7689131 11.765624,2.5761719 l -4,-2.50000003 C 7.6798458,0.02228639 7.5797246,-0.00427646 7.4785156,0 Z" style="stroke-linejoin:round;stroke-miterlimit:4px;" fill="#ffffff" stroke="#ffffff" stroke-width="3" data-reactid=".0.1.1.$park-15=1svg107.0.0.2:$park-15=1svg-0-fill"></path><path d="M 7.4785156,0 C 7.3919085,0.00379885 7.3077767,0.03004797 7.234375,0.07617187 l -4,2.50000003 C 2.9268465,2.7689135 2.9206252,3.2147684 3.222656,3.4160156 c 0,0 0.8948713,0.4617623 1.9804688,0.7773438 L 1.2421875,6.5703125 c -0.35653798,0.2125902 -0.31377439,0.7419314 0.072266,0.8945313 0,0 1.6426444,0.5146745 3.5429688,0.796875 L 1.2773438,10.052734 c -0.38689446,0.192379 -0.36413467,0.751796 0.037109,0.91211 0,0 2.6855472,1.285156 5.1855469,1.535156 l 3e-7,2 c 2.76e-5,0.276131 0.2238691,0.499972 0.5,0.5 l 1,0 c 0.2761309,-2.8e-5 0.4999724,-0.223869 0.5,-0.5 l 0,-2 c 2.5,-0.25 5.185547,-1.535156 5.185547,-1.535156 0.401244,-0.160313 0.424004,-0.719731 0.03711,-0.91211 L 10.142578,8.2617188 c 1.900325,-0.2822005 3.542969,-0.796875 3.542969,-0.796875 0.386039,-0.1526027 0.428799,-0.6819433 0.07226,-0.8945313 L 9.796875,4.1933594 C 10.882473,3.8777779 11.777344,3.4160156 11.777344,3.4160156 12.079375,3.214768 12.073153,2.7689131 11.765624,2.5761719 l -4,-2.50000003 C 7.6798458,0.02228639 7.5797246,-0.00427646 7.4785156,0 Z" style="stroke-linejoin:round;stroke-miterlimit:4px;" fill="#ffffff" stroke="#ffffff" stroke-width="3" data-reactid=".0.1.1.$park-15=1svg107.0.0.2:$park-15=1svg-1-fill"></path><path fill="#262525" d="M 7.4785156,0 C 7.3919085,0.00379885 7.3077767,0.03004797 7.234375,0.07617187 l -4,2.50000003 C 2.9268465,2.7689135 2.9206252,3.2147684 3.222656,3.4160156 c 0,0 0.8948713,0.4617623 1.9804688,0.7773438 L 1.2421875,6.5703125 c -0.35653798,0.2125902 -0.31377439,0.7419314 0.072266,0.8945313 0,0 1.6426444,0.5146745 3.5429688,0.796875 L 1.2773438,10.052734 c -0.38689446,0.192379 -0.36413467,0.751796 0.037109,0.91211 0,0 2.6855472,1.285156 5.1855469,1.535156 l 3e-7,2 c 2.76e-5,0.276131 0.2238691,0.499972 0.5,0.5 l 1,0 c 0.2761309,-2.8e-5 0.4999724,-0.223869 0.5,-0.5 l 0,-2 c 2.5,-0.25 5.185547,-1.535156 5.185547,-1.535156 0.401244,-0.160313 0.424004,-0.719731 0.03711,-0.91211 L 10.142578,8.2617188 c 1.900325,-0.2822005 3.542969,-0.796875 3.542969,-0.796875 0.386039,-0.1526027 0.428799,-0.6819433 0.07226,-0.8945313 L 9.796875,4.1933594 C 10.882473,3.8777779 11.777344,3.4160156 11.777344,3.4160156 12.079375,3.214768 12.073153,2.7689131 11.765624,2.5761719 l -4,-2.50000003 C 7.6798458,0.02228639 7.5797246,-0.00427646 7.4785156,0 Z" data-reactid=".0.1.1.$park-15=1svg107.0.0.3:$park-15=1svg-0-fill"></path><path fill="#262525" d="M 7.4785156,0 C 7.3919085,0.00379885 7.3077767,0.03004797 7.234375,0.07617187 l -4,2.50000003 C 2.9268465,2.7689135 2.9206252,3.2147684 3.222656,3.4160156 c 0,0 0.8948713,0.4617623 1.9804688,0.7773438 L 1.2421875,6.5703125 c -0.35653798,0.2125902 -0.31377439,0.7419314 0.072266,0.8945313 0,0 1.6426444,0.5146745 3.5429688,0.796875 L 1.2773438,10.052734 c -0.38689446,0.192379 -0.36413467,0.751796 0.037109,0.91211 0,0 2.6855472,1.285156 5.1855469,1.535156 l 3e-7,2 c 2.76e-5,0.276131 0.2238691,0.499972 0.5,0.5 l 1,0 c 0.2761309,-2.8e-5 0.4999724,-0.223869 0.5,-0.5 l 0,-2 c 2.5,-0.25 5.185547,-1.535156 5.185547,-1.535156 0.401244,-0.160313 0.424004,-0.719731 0.03711,-0.91211 L 10.142578,8.2617188 c 1.900325,-0.2822005 3.542969,-0.796875 3.542969,-0.796875 0.386039,-0.1526027 0.428799,-0.6819433 0.07226,-0.8945313 L 9.796875,4.1933594 C 10.882473,3.8777779 11.777344,3.4160156 11.777344,3.4160156 12.079375,3.214768 12.073153,2.7689131 11.765624,2.5761719 l -4,-2.50000003 C 7.6798458,0.02228639 7.5797246,-0.00427646 7.4785156,0 Z" data-reactid=".0.1.1.$park-15=1svg107.0.0.3:$park-15=1svg-1-fill"></path></svg>