<svg viewBox="-294 191 20 20" width="20" height="20" data-reactid=".0.1.1.$pharmacy-15=1svg109.0.0"><path d="M-287,195c-2.7,0-4,3.2-2.1,5.1
	l4.9,4.9c2.8,3,7.1-1.4,4.2-4.2l-4.9-4.9C-285.5,195.3-286.2,195-287,195z M-287,196c0.5,0,1,0.2,1.4,0.6l5.1,5.1
	c0.7,0.7-0.3,1.8-1,1l-2.6-2.6l-1.7,1.7l-2.5-2.5C-289.7,198.1-288.8,196-287,196z" style="stroke-linejoin:round;stroke-miterlimit:4px;" fill="#ffffff" stroke="#ffffff" stroke-width="3" data-reactid=".0.1.1.$pharmacy-15=1svg109.0.0.2:$pharmacy-15=1svg-0-fill"></path><path d="M-287,195c-2.7,0-4,3.2-2.1,5.1
	l4.9,4.9c2.8,3,7.1-1.4,4.2-4.2l-4.9-4.9C-285.5,195.3-286.2,195-287,195z M-287,196c0.5,0,1,0.2,1.4,0.6l5.1,5.1
	c0.7,0.7-0.3,1.8-1,1l-2.6-2.6l-1.7,1.7l-2.5-2.5C-289.7,198.1-288.8,196-287,196z" style="stroke-linejoin:round;stroke-miterlimit:4px;" fill="#ffffff" stroke="#ffffff" stroke-width="3" data-reactid=".0.1.1.$pharmacy-15=1svg109.0.0.2:$pharmacy-15=1svg-1-fill"></path><path fill="#262525" d="M-287,195c-2.7,0-4,3.2-2.1,5.1
	l4.9,4.9c2.8,3,7.1-1.4,4.2-4.2l-4.9-4.9C-285.5,195.3-286.2,195-287,195z M-287,196c0.5,0,1,0.2,1.4,0.6l5.1,5.1
	c0.7,0.7-0.3,1.8-1,1l-2.6-2.6l-1.7,1.7l-2.5-2.5C-289.7,198.1-288.8,196-287,196z" data-reactid=".0.1.1.$pharmacy-15=1svg109.0.0.3:$pharmacy-15=1svg-0-fill"></path><path fill="#262525" d="M-287,195c-2.7,0-4,3.2-2.1,5.1
	l4.9,4.9c2.8,3,7.1-1.4,4.2-4.2l-4.9-4.9C-285.5,195.3-286.2,195-287,195z M-287,196c0.5,0,1,0.2,1.4,0.6l5.1,5.1
	c0.7,0.7-0.3,1.8-1,1l-2.6-2.6l-1.7,1.7l-2.5-2.5C-289.7,198.1-288.8,196-287,196z" data-reactid=".0.1.1.$pharmacy-15=1svg109.0.0.3:$pharmacy-15=1svg-1-fill"></path></svg>