<svg viewBox="-294 191 20 20" width="20" height="20" data-reactid=".0.1.1.$picnic-site-15=1svg111.0.0"><path d="m -288.5,196 c -0.554,0 -1,0.446 -1,1 0,0.554 0.446,1 1,1 l 1.29687,0 -0.64453,2 -2.15234,0 c -0.554,0 -1,0.446 -1,1 0,0.554 0.446,1 1,1 l 1.50976,0 -0.96875,3.00977 a 0.75015118,0.75015118 0 1 0 1.42774,0.46094 l 1.11719,-3.47071 3.82812,0 1.11719,3.47071 a 0.75014787,0.75014787 0 0 0 1.42773,-0.46094 L -281.50977,202 -280,202 c 0.554,0 1,-0.446 1,-1 0,-0.554 -0.446,-1 -1,-1 l -2.15234,0 -0.64454,-2 1.29688,0 c 0.554,0 1,-0.446 1,-1 0,-0.554 -0.446,-1 -1,-1 l -7,0 z m 2.87305,2 1.2539,0 0.64453,2 -2.54297,0 0.64454,-2 z" style="stroke-linejoin:round;stroke-miterlimit:4px;" fill="#ffffff" stroke="#ffffff" stroke-width="3" data-reactid=".0.1.1.$picnic-site-15=1svg111.0.0.2:$picnic-site-15=1svg-0-fill"></path><path d="m -288.5,196 c -0.554,0 -1,0.446 -1,1 0,0.554 0.446,1 1,1 l 1.29687,0 -0.64453,2 -2.15234,0 c -0.554,0 -1,0.446 -1,1 0,0.554 0.446,1 1,1 l 1.50976,0 -0.96875,3.00977 a 0.75015118,0.75015118 0 1 0 1.42774,0.46094 l 1.11719,-3.47071 3.82812,0 1.11719,3.47071 a 0.75014787,0.75014787 0 0 0 1.42773,-0.46094 L -281.50977,202 -280,202 c 0.554,0 1,-0.446 1,-1 0,-0.554 -0.446,-1 -1,-1 l -2.15234,0 -0.64454,-2 1.29688,0 c 0.554,0 1,-0.446 1,-1 0,-0.554 -0.446,-1 -1,-1 l -7,0 z m 2.87305,2 1.2539,0 0.64453,2 -2.54297,0 0.64454,-2 z" style="stroke-linejoin:round;stroke-miterlimit:4px;" fill="#ffffff" stroke="#ffffff" stroke-width="3" data-reactid=".0.1.1.$picnic-site-15=1svg111.0.0.2:$picnic-site-15=1svg-1-fill"></path><path fill="#262525" d="m -288.5,196 c -0.554,0 -1,0.446 -1,1 0,0.554 0.446,1 1,1 l 1.29687,0 -0.64453,2 -2.15234,0 c -0.554,0 -1,0.446 -1,1 0,0.554 0.446,1 1,1 l 1.50976,0 -0.96875,3.00977 a 0.75015118,0.75015118 0 1 0 1.42774,0.46094 l 1.11719,-3.47071 3.82812,0 1.11719,3.47071 a 0.75014787,0.75014787 0 0 0 1.42773,-0.46094 L -281.50977,202 -280,202 c 0.554,0 1,-0.446 1,-1 0,-0.554 -0.446,-1 -1,-1 l -2.15234,0 -0.64454,-2 1.29688,0 c 0.554,0 1,-0.446 1,-1 0,-0.554 -0.446,-1 -1,-1 l -7,0 z m 2.87305,2 1.2539,0 0.64453,2 -2.54297,0 0.64454,-2 z" data-reactid=".0.1.1.$picnic-site-15=1svg111.0.0.3:$picnic-site-15=1svg-0-fill"></path><path fill="#262525" d="m -288.5,196 c -0.554,0 -1,0.446 -1,1 0,0.554 0.446,1 1,1 l 1.29687,0 -0.64453,2 -2.15234,0 c -0.554,0 -1,0.446 -1,1 0,0.554 0.446,1 1,1 l 1.50976,0 -0.96875,3.00977 a 0.75015118,0.75015118 0 1 0 1.42774,0.46094 l 1.11719,-3.47071 3.82812,0 1.11719,3.47071 a 0.75014787,0.75014787 0 0 0 1.42773,-0.46094 L -281.50977,202 -280,202 c 0.554,0 1,-0.446 1,-1 0,-0.554 -0.446,-1 -1,-1 l -2.15234,0 -0.64454,-2 1.29688,0 c 0.554,0 1,-0.446 1,-1 0,-0.554 -0.446,-1 -1,-1 l -7,0 z m 2.87305,2 1.2539,0 0.64453,2 -2.54297,0 0.64454,-2 z" data-reactid=".0.1.1.$picnic-site-15=1svg111.0.0.3:$picnic-site-15=1svg-1-fill"></path></svg>