<svg viewBox="-2 -2 16 16" width="16" height="16" data-reactid=".0.1.1.$place-of-worship-11=1svg112.0.0"><path d="M 5.5 0 L 3.6992188 1.4003906 L 3.6992188 2.5 L 7.3007812 2.5 L 7.3007812 1.5 L 5.5 0 z M 3.421875 3 L 2.5 4 L 2.5 9 L 8.5 9 L 8.5 4 L 7.578125 3 L 3.421875 3 z M 0.75 4 C 0.33578644 4 0 4.3357864 0 4.75 L 0 9 L 1.5 9 L 1.5 4.75 C 1.5 4.3357864 1.1642136 4 0.75 4 z M 10.25 4 C 9.8357864 4 9.5 4.3357864 9.5 4.75 L 9.5 9 L 11 9 L 11 4.75 C 11 4.3357864 10.664214 4 10.25 4 z " style="stroke-linejoin:round;stroke-miterlimit:4px;" fill="#ffffff" stroke="#ffffff" stroke-width="3" data-reactid=".0.1.1.$place-of-worship-11=1svg112.0.0.2:$place-of-worship-11=1svg-0-fill"></path><path d="M 5.5 0 L 3.6992188 1.4003906 L 3.6992188 2.5 L 7.3007812 2.5 L 7.3007812 1.5 L 5.5 0 z M 3.421875 3 L 2.5 4 L 2.5 9 L 8.5 9 L 8.5 4 L 7.578125 3 L 3.421875 3 z M 0.75 4 C 0.33578644 4 0 4.3357864 0 4.75 L 0 9 L 1.5 9 L 1.5 4.75 C 1.5 4.3357864 1.1642136 4 0.75 4 z M 10.25 4 C 9.8357864 4 9.5 4.3357864 9.5 4.75 L 9.5 9 L 11 9 L 11 4.75 C 11 4.3357864 10.664214 4 10.25 4 z " style="stroke-linejoin:round;stroke-miterlimit:4px;" fill="#ffffff" stroke="#ffffff" stroke-width="3" data-reactid=".0.1.1.$place-of-worship-11=1svg112.0.0.2:$place-of-worship-11=1svg-1-fill"></path><path fill="#262525" d="M 5.5 0 L 3.6992188 1.4003906 L 3.6992188 2.5 L 7.3007812 2.5 L 7.3007812 1.5 L 5.5 0 z M 3.421875 3 L 2.5 4 L 2.5 9 L 8.5 9 L 8.5 4 L 7.578125 3 L 3.421875 3 z M 0.75 4 C 0.33578644 4 0 4.3357864 0 4.75 L 0 9 L 1.5 9 L 1.5 4.75 C 1.5 4.3357864 1.1642136 4 0.75 4 z M 10.25 4 C 9.8357864 4 9.5 4.3357864 9.5 4.75 L 9.5 9 L 11 9 L 11 4.75 C 11 4.3357864 10.664214 4 10.25 4 z " data-reactid=".0.1.1.$place-of-worship-11=1svg112.0.0.3:$place-of-worship-11=1svg-0-fill"></path><path fill="#262525" d="M 5.5 0 L 3.6992188 1.4003906 L 3.6992188 2.5 L 7.3007812 2.5 L 7.3007812 1.5 L 5.5 0 z M 3.421875 3 L 2.5 4 L 2.5 9 L 8.5 9 L 8.5 4 L 7.578125 3 L 3.421875 3 z M 0.75 4 C 0.33578644 4 0 4.3357864 0 4.75 L 0 9 L 1.5 9 L 1.5 4.75 C 1.5 4.3357864 1.1642136 4 0.75 4 z M 10.25 4 C 9.8357864 4 9.5 4.3357864 9.5 4.75 L 9.5 9 L 11 9 L 11 4.75 C 11 4.3357864 10.664214 4 10.25 4 z " data-reactid=".0.1.1.$place-of-worship-11=1svg112.0.0.3:$place-of-worship-11=1svg-1-fill"></path></svg>