<svg viewBox="-2 -2 20 20" width="20" height="20" data-reactid=".0.1.1.$place-of-worship-15=1svg113.0.0"><path d="m 7.5,0 -2,2 0,2 4,0 0,-2 z M 5.5,4.5 4,6 11,6 9.5,4.5 Z M 2,6.5 c -0.5522847,0 -1,0.4477153 -1,1 L 1,13 3,13 3,7.5 C 3,6.9477153 2.5522847,6.5 2,6.5 Z m 2,0 0,6.5 7,0 0,-6.5 z m 9,0 c -0.552285,0 -1,0.4477153 -1,1 l 0,5.5 2,0 0,-5.5 c 0,-0.5522847 -0.447715,-1 -1,-1 z" style="stroke-linejoin:round;stroke-miterlimit:4px;" fill="#ffffff" stroke="#ffffff" stroke-width="3" data-reactid=".0.1.1.$place-of-worship-15=1svg113.0.0.2:$place-of-worship-15=1svg-0-fill"></path><path d="m 7.5,0 -2,2 0,2 4,0 0,-2 z M 5.5,4.5 4,6 11,6 9.5,4.5 Z M 2,6.5 c -0.5522847,0 -1,0.4477153 -1,1 L 1,13 3,13 3,7.5 C 3,6.9477153 2.5522847,6.5 2,6.5 Z m 2,0 0,6.5 7,0 0,-6.5 z m 9,0 c -0.552285,0 -1,0.4477153 -1,1 l 0,5.5 2,0 0,-5.5 c 0,-0.5522847 -0.447715,-1 -1,-1 z" style="stroke-linejoin:round;stroke-miterlimit:4px;" fill="#ffffff" stroke="#ffffff" stroke-width="3" data-reactid=".0.1.1.$place-of-worship-15=1svg113.0.0.2:$place-of-worship-15=1svg-1-fill"></path><path fill="#262525" d="m 7.5,0 -2,2 0,2 4,0 0,-2 z M 5.5,4.5 4,6 11,6 9.5,4.5 Z M 2,6.5 c -0.5522847,0 -1,0.4477153 -1,1 L 1,13 3,13 3,7.5 C 3,6.9477153 2.5522847,6.5 2,6.5 Z m 2,0 0,6.5 7,0 0,-6.5 z m 9,0 c -0.552285,0 -1,0.4477153 -1,1 l 0,5.5 2,0 0,-5.5 c 0,-0.5522847 -0.447715,-1 -1,-1 z" data-reactid=".0.1.1.$place-of-worship-15=1svg113.0.0.3:$place-of-worship-15=1svg-0-fill"></path><path fill="#262525" d="m 7.5,0 -2,2 0,2 4,0 0,-2 z M 5.5,4.5 4,6 11,6 9.5,4.5 Z M 2,6.5 c -0.5522847,0 -1,0.4477153 -1,1 L 1,13 3,13 3,7.5 C 3,6.9477153 2.5522847,6.5 2,6.5 Z m 2,0 0,6.5 7,0 0,-6.5 z m 9,0 c -0.552285,0 -1,0.4477153 -1,1 l 0,5.5 2,0 0,-5.5 c 0,-0.5522847 -0.447715,-1 -1,-1 z" data-reactid=".0.1.1.$place-of-worship-15=1svg113.0.0.3:$place-of-worship-15=1svg-1-fill"></path></svg>