<svg viewBox="-294 191 20 20" width="20" height="20" data-reactid=".0.1.1.$playground-15=1svg115.0.0"><path d="m -288.5,194.5 -2.5,2 0,9 c 0,0 0,0.5 0.5,0.5 0.5,0 0.5,-0.5 0.5,-0.5 l 0,-0.5 3,0 0,0.5 c 0,0 0,0.5 0.5,0.5 0.5,0 0.5,-0.5 0.5,-0.5 l 0,-4.45581 c 0.49898,0 1.00078,0.25542 1.30078,0.55542 0.4,0.3 0.69961,0.9 1.09961,1.5 0.4,0.6 0.80039,1.30039 1.40039,1.90039 0.5,0.5 1.19922,1 2.19922,1 l 1.5,0 0,-2 c -2.5,0 -3.04895,-1.44355 -3.40039,-2 -0.4,-0.6 -0.80039,-1.30039 -1.40039,-1.90039 C -283.90078,199.49961 -285,199 -286,199 l 0,-2.5 z m -1.5,6.5 3,0 0,1 -3,0 z m 0,2 3,0 0,1 -3,0 z" style="stroke-linejoin:round;stroke-miterlimit:4px;" fill="#ffffff" stroke="#ffffff" stroke-width="3" data-reactid=".0.1.1.$playground-15=1svg115.0.0.2:$playground-15=1svg-0-fill"></path><path d="m -288.5,194.5 -2.5,2 0,9 c 0,0 0,0.5 0.5,0.5 0.5,0 0.5,-0.5 0.5,-0.5 l 0,-0.5 3,0 0,0.5 c 0,0 0,0.5 0.5,0.5 0.5,0 0.5,-0.5 0.5,-0.5 l 0,-4.45581 c 0.49898,0 1.00078,0.25542 1.30078,0.55542 0.4,0.3 0.69961,0.9 1.09961,1.5 0.4,0.6 0.80039,1.30039 1.40039,1.90039 0.5,0.5 1.19922,1 2.19922,1 l 1.5,0 0,-2 c -2.5,0 -3.04895,-1.44355 -3.40039,-2 -0.4,-0.6 -0.80039,-1.30039 -1.40039,-1.90039 C -283.90078,199.49961 -285,199 -286,199 l 0,-2.5 z m -1.5,6.5 3,0 0,1 -3,0 z m 0,2 3,0 0,1 -3,0 z" style="stroke-linejoin:round;stroke-miterlimit:4px;" fill="#ffffff" stroke="#ffffff" stroke-width="3" data-reactid=".0.1.1.$playground-15=1svg115.0.0.2:$playground-15=1svg-1-fill"></path><path fill="#262525" d="m -288.5,194.5 -2.5,2 0,9 c 0,0 0,0.5 0.5,0.5 0.5,0 0.5,-0.5 0.5,-0.5 l 0,-0.5 3,0 0,0.5 c 0,0 0,0.5 0.5,0.5 0.5,0 0.5,-0.5 0.5,-0.5 l 0,-4.45581 c 0.49898,0 1.00078,0.25542 1.30078,0.55542 0.4,0.3 0.69961,0.9 1.09961,1.5 0.4,0.6 0.80039,1.30039 1.40039,1.90039 0.5,0.5 1.19922,1 2.19922,1 l 1.5,0 0,-2 c -2.5,0 -3.04895,-1.44355 -3.40039,-2 -0.4,-0.6 -0.80039,-1.30039 -1.40039,-1.90039 C -283.90078,199.49961 -285,199 -286,199 l 0,-2.5 z m -1.5,6.5 3,0 0,1 -3,0 z m 0,2 3,0 0,1 -3,0 z" data-reactid=".0.1.1.$playground-15=1svg115.0.0.3:$playground-15=1svg-0-fill"></path><path fill="#262525" d="m -288.5,194.5 -2.5,2 0,9 c 0,0 0,0.5 0.5,0.5 0.5,0 0.5,-0.5 0.5,-0.5 l 0,-0.5 3,0 0,0.5 c 0,0 0,0.5 0.5,0.5 0.5,0 0.5,-0.5 0.5,-0.5 l 0,-4.45581 c 0.49898,0 1.00078,0.25542 1.30078,0.55542 0.4,0.3 0.69961,0.9 1.09961,1.5 0.4,0.6 0.80039,1.30039 1.40039,1.90039 0.5,0.5 1.19922,1 2.19922,1 l 1.5,0 0,-2 c -2.5,0 -3.04895,-1.44355 -3.40039,-2 -0.4,-0.6 -0.80039,-1.30039 -1.40039,-1.90039 C -283.90078,199.49961 -285,199 -286,199 l 0,-2.5 z m -1.5,6.5 3,0 0,1 -3,0 z m 0,2 3,0 0,1 -3,0 z" data-reactid=".0.1.1.$playground-15=1svg115.0.0.3:$playground-15=1svg-1-fill"></path></svg>