<svg viewBox="-2 -2 16 16" width="16" height="16" data-reactid=".0.1.1.$post-11=1svg118.0.0"><path d="M -4.1e-7,2 5.5,6 11,2 Z m 0,2 L 0,9 c 2.46e-8,0.3 0.3,0.5 0.5,0.5 l 10,0 C 11,9.5 11,9 11,9 L 11,4 5.5,8 Z" style="stroke-linejoin:round;stroke-miterlimit:4px;" fill="#ffffff" stroke="#ffffff" stroke-width="3" data-reactid=".0.1.1.$post-11=1svg118.0.0.2:$post-11=1svg-0-fill"></path><path d="M -4.1e-7,2 5.5,6 11,2 Z m 0,2 L 0,9 c 2.46e-8,0.3 0.3,0.5 0.5,0.5 l 10,0 C 11,9.5 11,9 11,9 L 11,4 5.5,8 Z" style="stroke-linejoin:round;stroke-miterlimit:4px;" fill="#ffffff" stroke="#ffffff" stroke-width="3" data-reactid=".0.1.1.$post-11=1svg118.0.0.2:$post-11=1svg-1-fill"></path><path fill="#262525" d="M -4.1e-7,2 5.5,6 11,2 Z m 0,2 L 0,9 c 2.46e-8,0.3 0.3,0.5 0.5,0.5 l 10,0 C 11,9.5 11,9 11,9 L 11,4 5.5,8 Z" data-reactid=".0.1.1.$post-11=1svg118.0.0.3:$post-11=1svg-0-fill"></path><path fill="#262525" d="M -4.1e-7,2 5.5,6 11,2 Z m 0,2 L 0,9 c 2.46e-8,0.3 0.3,0.5 0.5,0.5 l 10,0 C 11,9.5 11,9 11,9 L 11,4 5.5,8 Z" data-reactid=".0.1.1.$post-11=1svg118.0.0.3:$post-11=1svg-1-fill"></path></svg>