<svg viewBox="-2 -2 20 20" width="20" height="20" data-reactid=".0.1.1.$rail-light-15=1svg125.0.0"><path d="M 5.5 0 C 5 0 5 0.5 5 0.5 L 5 1.5 C 5 1.777 5.223 2 5.5 2 C 5.777 2 6 1.777 6 1.5 L 6 1 L 7 1 L 7 3 L 6 3 C 6 3 4 3 4 5 L 4 8 C 4 11 7 11 7 11 L 8 11 C 8 11 11 11 11 8 L 11 5 C 11 3 9 3 9 3 L 8 3 L 8 1 L 9 1 L 9 1.5 C 9 1.777 9.223 2 9.5 2 C 9.777 2 10 1.777 10 1.5 L 10 0.5 C 10 0 9.5 0 9.5 0 L 5.5 0 z M 7.5 4 L 9.5449219 4.7734375 L 10 6.5 C 10.131579 7 9.5 7 9.5 7 L 5.5 7 C 5.5 7 4.8684211 7 5 6.5 L 5.4550781 4.7734375 L 7.5 4 z M 7.5 8 C 7.7761424 8 8 8.2238576 8 8.5 C 8 8.7761424 7.7761424 9 7.5 9 C 7.2238576 9 7 8.7761424 7 8.5 C 7 8.2238576 7.2238576 8 7.5 8 z M 4.125 12 L 3 15 L 4.5 15 L 4.875 14 L 10.125 14 L 10.5 15 L 12 15 L 10.875 12 L 9.375 12 L 9.75 13 L 5.25 13 L 5.625 12 L 4.125 12 z " style="stroke-linejoin:round;stroke-miterlimit:4px;" fill="#ffffff" stroke="#ffffff" stroke-width="3" data-reactid=".0.1.1.$rail-light-15=1svg125.0.0.2:$rail-light-15=1svg-0-fill"></path><path d="M 5.5 0 C 5 0 5 0.5 5 0.5 L 5 1.5 C 5 1.777 5.223 2 5.5 2 C 5.777 2 6 1.777 6 1.5 L 6 1 L 7 1 L 7 3 L 6 3 C 6 3 4 3 4 5 L 4 8 C 4 11 7 11 7 11 L 8 11 C 8 11 11 11 11 8 L 11 5 C 11 3 9 3 9 3 L 8 3 L 8 1 L 9 1 L 9 1.5 C 9 1.777 9.223 2 9.5 2 C 9.777 2 10 1.777 10 1.5 L 10 0.5 C 10 0 9.5 0 9.5 0 L 5.5 0 z M 7.5 4 L 9.5449219 4.7734375 L 10 6.5 C 10.131579 7 9.5 7 9.5 7 L 5.5 7 C 5.5 7 4.8684211 7 5 6.5 L 5.4550781 4.7734375 L 7.5 4 z M 7.5 8 C 7.7761424 8 8 8.2238576 8 8.5 C 8 8.7761424 7.7761424 9 7.5 9 C 7.2238576 9 7 8.7761424 7 8.5 C 7 8.2238576 7.2238576 8 7.5 8 z M 4.125 12 L 3 15 L 4.5 15 L 4.875 14 L 10.125 14 L 10.5 15 L 12 15 L 10.875 12 L 9.375 12 L 9.75 13 L 5.25 13 L 5.625 12 L 4.125 12 z " style="stroke-linejoin:round;stroke-miterlimit:4px;" fill="#ffffff" stroke="#ffffff" stroke-width="3" data-reactid=".0.1.1.$rail-light-15=1svg125.0.0.2:$rail-light-15=1svg-1-fill"></path><path fill="#262525" d="M 5.5 0 C 5 0 5 0.5 5 0.5 L 5 1.5 C 5 1.777 5.223 2 5.5 2 C 5.777 2 6 1.777 6 1.5 L 6 1 L 7 1 L 7 3 L 6 3 C 6 3 4 3 4 5 L 4 8 C 4 11 7 11 7 11 L 8 11 C 8 11 11 11 11 8 L 11 5 C 11 3 9 3 9 3 L 8 3 L 8 1 L 9 1 L 9 1.5 C 9 1.777 9.223 2 9.5 2 C 9.777 2 10 1.777 10 1.5 L 10 0.5 C 10 0 9.5 0 9.5 0 L 5.5 0 z M 7.5 4 L 9.5449219 4.7734375 L 10 6.5 C 10.131579 7 9.5 7 9.5 7 L 5.5 7 C 5.5 7 4.8684211 7 5 6.5 L 5.4550781 4.7734375 L 7.5 4 z M 7.5 8 C 7.7761424 8 8 8.2238576 8 8.5 C 8 8.7761424 7.7761424 9 7.5 9 C 7.2238576 9 7 8.7761424 7 8.5 C 7 8.2238576 7.2238576 8 7.5 8 z M 4.125 12 L 3 15 L 4.5 15 L 4.875 14 L 10.125 14 L 10.5 15 L 12 15 L 10.875 12 L 9.375 12 L 9.75 13 L 5.25 13 L 5.625 12 L 4.125 12 z " data-reactid=".0.1.1.$rail-light-15=1svg125.0.0.3:$rail-light-15=1svg-0-fill"></path><path fill="#262525" d="M 5.5 0 C 5 0 5 0.5 5 0.5 L 5 1.5 C 5 1.777 5.223 2 5.5 2 C 5.777 2 6 1.777 6 1.5 L 6 1 L 7 1 L 7 3 L 6 3 C 6 3 4 3 4 5 L 4 8 C 4 11 7 11 7 11 L 8 11 C 8 11 11 11 11 8 L 11 5 C 11 3 9 3 9 3 L 8 3 L 8 1 L 9 1 L 9 1.5 C 9 1.777 9.223 2 9.5 2 C 9.777 2 10 1.777 10 1.5 L 10 0.5 C 10 0 9.5 0 9.5 0 L 5.5 0 z M 7.5 4 L 9.5449219 4.7734375 L 10 6.5 C 10.131579 7 9.5 7 9.5 7 L 5.5 7 C 5.5 7 4.8684211 7 5 6.5 L 5.4550781 4.7734375 L 7.5 4 z M 7.5 8 C 7.7761424 8 8 8.2238576 8 8.5 C 8 8.7761424 7.7761424 9 7.5 9 C 7.2238576 9 7 8.7761424 7 8.5 C 7 8.2238576 7.2238576 8 7.5 8 z M 4.125 12 L 3 15 L 4.5 15 L 4.875 14 L 10.125 14 L 10.5 15 L 12 15 L 10.875 12 L 9.375 12 L 9.75 13 L 5.25 13 L 5.625 12 L 4.125 12 z " data-reactid=".0.1.1.$rail-light-15=1svg125.0.0.3:$rail-light-15=1svg-1-fill"></path></svg>