<svg viewBox="-296 193 16 16" width="16" height="16" data-reactid=".0.1.1.$school-11=1svg138.0.0"><path d="M-285.4,195.1c-0.2,0-0.3,0.1-0.3,0.1l-2.8,2.8c0,0-0.5,0.5-0.5,1v1h1.1c0.4,0,0.9-0.5,0.9-0.5l2.8-2.8
	c0.2-0.2,0-0.5,0-0.5l-0.2-0.2l-0.5-0.5l-0.2-0.2C-285.3,195.2-285.4,195.2-285.4,195.1z M-292.5,197c-0.3,0-0.5,0.1-0.5,0.5v5
	l3.5,1.5v0.5c0,0.5,0.5,0.5,0.5,0.5h1c0,0,0.5,0,0.5-0.5V204l3.5-1.5v-4.6l-2.3,2.3c0,0-0.2,0.2-0.4,0.4s-0.6,0.4-1.2,0.4h-0.1v2h-1
	v-2c-0.6,0-1-0.4-1-1v-1c0-0.3,0.1-0.5,0.1-0.7l-2.4-1.2C-292.3,197.1-292.4,197-292.5,197z M-287.8,198l0.8,0.8
	c-0.2,0.2-0.7,0.8-1,0.8h-0.5V199C-288.5,198.6-288,198.2-287.8,198z" style="stroke-linejoin:round;stroke-miterlimit:4px;" fill="#ffffff" stroke="#ffffff" stroke-width="3" data-reactid=".0.1.1.$school-11=1svg138.0.0.2:$school-11=1svg-0-fill"></path><path d="M-285.4,195.1c-0.2,0-0.3,0.1-0.3,0.1l-2.8,2.8c0,0-0.5,0.5-0.5,1v1h1.1c0.4,0,0.9-0.5,0.9-0.5l2.8-2.8
	c0.2-0.2,0-0.5,0-0.5l-0.2-0.2l-0.5-0.5l-0.2-0.2C-285.3,195.2-285.4,195.2-285.4,195.1z M-292.5,197c-0.3,0-0.5,0.1-0.5,0.5v5
	l3.5,1.5v0.5c0,0.5,0.5,0.5,0.5,0.5h1c0,0,0.5,0,0.5-0.5V204l3.5-1.5v-4.6l-2.3,2.3c0,0-0.2,0.2-0.4,0.4s-0.6,0.4-1.2,0.4h-0.1v2h-1
	v-2c-0.6,0-1-0.4-1-1v-1c0-0.3,0.1-0.5,0.1-0.7l-2.4-1.2C-292.3,197.1-292.4,197-292.5,197z M-287.8,198l0.8,0.8
	c-0.2,0.2-0.7,0.8-1,0.8h-0.5V199C-288.5,198.6-288,198.2-287.8,198z" style="stroke-linejoin:round;stroke-miterlimit:4px;" fill="#ffffff" stroke="#ffffff" stroke-width="3" data-reactid=".0.1.1.$school-11=1svg138.0.0.2:$school-11=1svg-1-fill"></path><path fill="#262525" d="M-285.4,195.1c-0.2,0-0.3,0.1-0.3,0.1l-2.8,2.8c0,0-0.5,0.5-0.5,1v1h1.1c0.4,0,0.9-0.5,0.9-0.5l2.8-2.8
	c0.2-0.2,0-0.5,0-0.5l-0.2-0.2l-0.5-0.5l-0.2-0.2C-285.3,195.2-285.4,195.2-285.4,195.1z M-292.5,197c-0.3,0-0.5,0.1-0.5,0.5v5
	l3.5,1.5v0.5c0,0.5,0.5,0.5,0.5,0.5h1c0,0,0.5,0,0.5-0.5V204l3.5-1.5v-4.6l-2.3,2.3c0,0-0.2,0.2-0.4,0.4s-0.6,0.4-1.2,0.4h-0.1v2h-1
	v-2c-0.6,0-1-0.4-1-1v-1c0-0.3,0.1-0.5,0.1-0.7l-2.4-1.2C-292.3,197.1-292.4,197-292.5,197z M-287.8,198l0.8,0.8
	c-0.2,0.2-0.7,0.8-1,0.8h-0.5V199C-288.5,198.6-288,198.2-287.8,198z" data-reactid=".0.1.1.$school-11=1svg138.0.0.3:$school-11=1svg-0-fill"></path><path fill="#262525" d="M-285.4,195.1c-0.2,0-0.3,0.1-0.3,0.1l-2.8,2.8c0,0-0.5,0.5-0.5,1v1h1.1c0.4,0,0.9-0.5,0.9-0.5l2.8-2.8
	c0.2-0.2,0-0.5,0-0.5l-0.2-0.2l-0.5-0.5l-0.2-0.2C-285.3,195.2-285.4,195.2-285.4,195.1z M-292.5,197c-0.3,0-0.5,0.1-0.5,0.5v5
	l3.5,1.5v0.5c0,0.5,0.5,0.5,0.5,0.5h1c0,0,0.5,0,0.5-0.5V204l3.5-1.5v-4.6l-2.3,2.3c0,0-0.2,0.2-0.4,0.4s-0.6,0.4-1.2,0.4h-0.1v2h-1
	v-2c-0.6,0-1-0.4-1-1v-1c0-0.3,0.1-0.5,0.1-0.7l-2.4-1.2C-292.3,197.1-292.4,197-292.5,197z M-287.8,198l0.8,0.8
	c-0.2,0.2-0.7,0.8-1,0.8h-0.5V199C-288.5,198.6-288,198.2-287.8,198z" data-reactid=".0.1.1.$school-11=1svg138.0.0.3:$school-11=1svg-1-fill"></path></svg>