<svg viewBox="-2 -2 16 16" width="16" height="16" data-reactid=".0.1.1.$stadium-11=1svg142.0.0"><path d="m 5,0 0,3 0,0.011719 c -2.2077922,0.097212 -3.9124345,0.8065212 -4,1.6699216 0,0 -4.4e-6,2.4594281 -4.4e-6,3.6816406 C 0.99946045,9.2671586 3.0143371,10 5.5,10 7.9856629,10 10.00054,9.2671586 10,8.3632812 L 10,4.681641 C 9.912164,3.8177272 8.2093313,3.1082349 6,3.0117188 L 6,2.5722656 8.5,1.5 Z M 1.8183594,5.7519531 C 2.1365993,5.9301766 2.5372915,6.0838305 3,6.2050781 L 3,8.6640625 C 2.2493223,8.4283079 1.8212595,8.0971783 1.8183594,7.75 Z m 7.3632812,0.00391 0,1.9941406 C 9.1803388,8.0978581 8.7521422,8.429799 8,8.6660156 L 8,6.203125 C 8.4613574,6.0836129 8.8619619,5.9319792 9.1816406,5.7558631 Z M 4,6.3984375 C 4.4815363,6.4651796 4.9887955,6.4995253 5.5,6.5 6.0112045,6.4995253 6.5184637,6.4651796 7,6.3984375 L 7,8.890625 C 6.5281693,8.9624391 6.0170748,8.9997064 5.5,9 4.9829252,8.9997064 4.4718307,8.9624391 4,8.890625 Z" style="stroke-linejoin:round;stroke-miterlimit:4px;" fill="#ffffff" stroke="#ffffff" stroke-width="3" data-reactid=".0.1.1.$stadium-11=1svg142.0.0.2:$stadium-11=1svg-0-fill"></path><path d="m 5,0 0,3 0,0.011719 c -2.2077922,0.097212 -3.9124345,0.8065212 -4,1.6699216 0,0 -4.4e-6,2.4594281 -4.4e-6,3.6816406 C 0.99946045,9.2671586 3.0143371,10 5.5,10 7.9856629,10 10.00054,9.2671586 10,8.3632812 L 10,4.681641 C 9.912164,3.8177272 8.2093313,3.1082349 6,3.0117188 L 6,2.5722656 8.5,1.5 Z M 1.8183594,5.7519531 C 2.1365993,5.9301766 2.5372915,6.0838305 3,6.2050781 L 3,8.6640625 C 2.2493223,8.4283079 1.8212595,8.0971783 1.8183594,7.75 Z m 7.3632812,0.00391 0,1.9941406 C 9.1803388,8.0978581 8.7521422,8.429799 8,8.6660156 L 8,6.203125 C 8.4613574,6.0836129 8.8619619,5.9319792 9.1816406,5.7558631 Z M 4,6.3984375 C 4.4815363,6.4651796 4.9887955,6.4995253 5.5,6.5 6.0112045,6.4995253 6.5184637,6.4651796 7,6.3984375 L 7,8.890625 C 6.5281693,8.9624391 6.0170748,8.9997064 5.5,9 4.9829252,8.9997064 4.4718307,8.9624391 4,8.890625 Z" style="stroke-linejoin:round;stroke-miterlimit:4px;" fill="#ffffff" stroke="#ffffff" stroke-width="3" data-reactid=".0.1.1.$stadium-11=1svg142.0.0.2:$stadium-11=1svg-1-fill"></path><path fill="#262525" d="m 5,0 0,3 0,0.011719 c -2.2077922,0.097212 -3.9124345,0.8065212 -4,1.6699216 0,0 -4.4e-6,2.4594281 -4.4e-6,3.6816406 C 0.99946045,9.2671586 3.0143371,10 5.5,10 7.9856629,10 10.00054,9.2671586 10,8.3632812 L 10,4.681641 C 9.912164,3.8177272 8.2093313,3.1082349 6,3.0117188 L 6,2.5722656 8.5,1.5 Z M 1.8183594,5.7519531 C 2.1365993,5.9301766 2.5372915,6.0838305 3,6.2050781 L 3,8.6640625 C 2.2493223,8.4283079 1.8212595,8.0971783 1.8183594,7.75 Z m 7.3632812,0.00391 0,1.9941406 C 9.1803388,8.0978581 8.7521422,8.429799 8,8.6660156 L 8,6.203125 C 8.4613574,6.0836129 8.8619619,5.9319792 9.1816406,5.7558631 Z M 4,6.3984375 C 4.4815363,6.4651796 4.9887955,6.4995253 5.5,6.5 6.0112045,6.4995253 6.5184637,6.4651796 7,6.3984375 L 7,8.890625 C 6.5281693,8.9624391 6.0170748,8.9997064 5.5,9 4.9829252,8.9997064 4.4718307,8.9624391 4,8.890625 Z" data-reactid=".0.1.1.$stadium-11=1svg142.0.0.3:$stadium-11=1svg-0-fill"></path><path fill="#262525" d="m 5,0 0,3 0,0.011719 c -2.2077922,0.097212 -3.9124345,0.8065212 -4,1.6699216 0,0 -4.4e-6,2.4594281 -4.4e-6,3.6816406 C 0.99946045,9.2671586 3.0143371,10 5.5,10 7.9856629,10 10.00054,9.2671586 10,8.3632812 L 10,4.681641 C 9.912164,3.8177272 8.2093313,3.1082349 6,3.0117188 L 6,2.5722656 8.5,1.5 Z M 1.8183594,5.7519531 C 2.1365993,5.9301766 2.5372915,6.0838305 3,6.2050781 L 3,8.6640625 C 2.2493223,8.4283079 1.8212595,8.0971783 1.8183594,7.75 Z m 7.3632812,0.00391 0,1.9941406 C 9.1803388,8.0978581 8.7521422,8.429799 8,8.6660156 L 8,6.203125 C 8.4613574,6.0836129 8.8619619,5.9319792 9.1816406,5.7558631 Z M 4,6.3984375 C 4.4815363,6.4651796 4.9887955,6.4995253 5.5,6.5 6.0112045,6.4995253 6.5184637,6.4651796 7,6.3984375 L 7,8.890625 C 6.5281693,8.9624391 6.0170748,8.9997064 5.5,9 4.9829252,8.9997064 4.4718307,8.9624391 4,8.890625 Z" data-reactid=".0.1.1.$stadium-11=1svg142.0.0.3:$stadium-11=1svg-1-fill"></path></svg>