<svg viewBox="-2 -2 20 20" width="20" height="20" data-reactid=".0.1.1.$star-15=1svg145.0.0"><path d="m 7.5,0 -2,5 -5,0 4,3.5 -2,6 5,-3.5 5,3.5 -2,-6 4,-3.5 -5,0 z" style="stroke-linejoin:round;stroke-miterlimit:4px;" fill="#ffffff" stroke="#ffffff" stroke-width="3" data-reactid=".0.1.1.$star-15=1svg145.0.0.2:$star-15=1svg-0-fill"></path><path d="m 7.5,0 -2,5 -5,0 4,3.5 -2,6 5,-3.5 5,3.5 -2,-6 4,-3.5 -5,0 z" style="stroke-linejoin:round;stroke-miterlimit:4px;" fill="#ffffff" stroke="#ffffff" stroke-width="3" data-reactid=".0.1.1.$star-15=1svg145.0.0.2:$star-15=1svg-1-fill"></path><path fill="#262525" d="m 7.5,0 -2,5 -5,0 4,3.5 -2,6 5,-3.5 5,3.5 -2,-6 4,-3.5 -5,0 z" data-reactid=".0.1.1.$star-15=1svg145.0.0.3:$star-15=1svg-0-fill"></path><path fill="#262525" d="m 7.5,0 -2,5 -5,0 4,3.5 -2,6 5,-3.5 5,3.5 -2,-6 4,-3.5 -5,0 z" data-reactid=".0.1.1.$star-15=1svg145.0.0.3:$star-15=1svg-1-fill"></path></svg>