<svg viewBox="-2 -2 16 16" width="16" height="16" data-reactid=".0.1.1.$star-11=1svg144.0.0"><path d="M 5.4,0 4,3.5 0,3.5 3,6.5 1.5,11 5.4,8.4 9.5,11 8,6.5 l 3,-3 -4,0 z" style="stroke-linejoin:round;stroke-miterlimit:4px;" fill="#ffffff" stroke="#ffffff" stroke-width="3" data-reactid=".0.1.1.$star-11=1svg144.0.0.2:$star-11=1svg-0-fill"></path><path d="M 5.4,0 4,3.5 0,3.5 3,6.5 1.5,11 5.4,8.4 9.5,11 8,6.5 l 3,-3 -4,0 z" style="stroke-linejoin:round;stroke-miterlimit:4px;" fill="#ffffff" stroke="#ffffff" stroke-width="3" data-reactid=".0.1.1.$star-11=1svg144.0.0.2:$star-11=1svg-1-fill"></path><path fill="#262525" d="M 5.4,0 4,3.5 0,3.5 3,6.5 1.5,11 5.4,8.4 9.5,11 8,6.5 l 3,-3 -4,0 z" data-reactid=".0.1.1.$star-11=1svg144.0.0.3:$star-11=1svg-0-fill"></path><path fill="#262525" d="M 5.4,0 4,3.5 0,3.5 3,6.5 1.5,11 5.4,8.4 9.5,11 8,6.5 l 3,-3 -4,0 z" data-reactid=".0.1.1.$star-11=1svg144.0.0.3:$star-11=1svg-1-fill"></path></svg>