<?xml version="1.0" encoding="utf-8"?>
<!-- Generator: Adobe Illustrator 17.0.0, SVG Export Plug-In . SVG Version: 6.00 Build 0)  -->
<!DOCTYPE svg PUBLIC "-//W3C//DTD SVG 1.1//EN" "http://www.w3.org/Graphics/SVG/1.1/DTD/svg11.dtd">
<svg version="1.1"
	 id="svg4764" xmlns:dc="http://purl.org/dc/elements/1.1/" xmlns:cc="http://creativecommons.org/ns#" xmlns:rdf="http://www.w3.org/1999/02/22-rdf-syntax-ns#" xmlns:svg="http://www.w3.org/2000/svg" xmlns:inkscape="http://www.inkscape.org/namespaces/inkscape"
	 xmlns="http://www.w3.org/2000/svg" xmlns:xlink="http://www.w3.org/1999/xlink" x="0px" y="0px" width="12px" height="12px"
	 viewBox="0 0 12 12" enable-background="new 0 0 12 12" xml:space="preserve">
<g id="layer1" transform="translate(0,-1040.3622)">
</g>
<path id="path15" inkscape:connector-curvature="0" opacity="0.3" fill="#FFFFFF" stroke="#FFFFFF" stroke-width="2" stroke-linecap="round" stroke-linejoin="round" stroke-miterlimit="10" enable-background="new    " d="
	M8.5,4V2.5L8,2H4L3.5,2.5V4H2L1.5,4.5v5L2,10h8l0.5-0.501V4.5L10,4H8.5z"/>
<path id="path17" inkscape:connector-curvature="0" fill="#454545" d="M8.5,4V2.5L8,2H4L3.5,2.5V4H2L1.5,4.5v5L2,10h8l0.5-0.501V4.5
	L10,4H8.5z M4.5,3h3v1h-3V3z M3.5,5h1v4h-1 M8.5,9h-1V5h1V9z"/>
<path id="path19" inkscape:connector-curvature="0" display="none" fill="#454545" d="M-394.5,407.5v-2h-4v2h-3v6h10v-6H-394.5z
	 M-397.5,406.5h2v1h-2V406.5z M-399.5,408.5h1v4h-1 M-393.5,412.5h-1v-4h1V412.5z"/>
<path id="path21" inkscape:connector-curvature="0" display="none" fill="#454545" d="M-392.5,407.5h-2v-1c0-0.553-0.448-1-1-1h-2
	c-0.552,0-1,0.447-1,1v1h-2c-0.552,0-1,0.447-1,1v4c0,0.553,0.448,1,1,1h8c0.552,0,1-0.447,1-1v-4
	C-391.5,407.947-391.948,407.5-392.5,407.5z M-398.5,412.5h-1v-4h1V412.5z M-395.5,407.5h-2v-1h2V407.5z M-393.5,412.5h-1v-4h1
	V412.5z"/>
<rect id="canvas" display="none" fill="none" width="12" height="12"/>
</svg>
