<svg viewBox="-296 193 16 16" width="16" height="16" data-reactid=".0.1.1.$zoo-11=1svg166.0.0"><path d="M-286,197c-0.9,0-1.5,0.5-1.8,1.1c0,0-0.7,0.9-1.2,0.9h-2c-0.5,0-1,0.5-1,0.5l-2,2v0.5h0.5l1.2-1.2l0.2,0.2
	c0,0-0.7,1.3-0.7,2.6c0,0.5,0.5,0.5,0.5,0.5h0.5c0,0,0.2,0,0-0.2l-0.2-0.2c0-0.5,0.6-1,1-1.5c0,0,0,0.6,0,1.2c0,0.3,0.2,0.8,0.5,0.8
	h0.5c0,0,0.2,0,0-0.2l-0.2-0.2c-0.2-0.4,0.5-1.5,0.5-1.5h1.8l0.5,1.5c0.2,0.5,0.5,0.5,0.5,0.5h1c0.2,0,0.7-0.2,0.2-0.5l-0.2-0.2V202
	v0c1,0,1.1-1.3,1.5-1.7l0.7-0.1c0.2,0,0.8-0.2,0.8-0.8V199l-1.2-1l0,0C-284.6,197.4-285.3,197-286,197z" style="stroke-linejoin:round;stroke-miterlimit:4px;" fill="#ffffff" stroke="#ffffff" stroke-width="3" data-reactid=".0.1.1.$zoo-11=1svg166.0.0.2:$zoo-11=1svg-0-fill"></path><path d="M-286,197c-0.9,0-1.5,0.5-1.8,1.1c0,0-0.7,0.9-1.2,0.9h-2c-0.5,0-1,0.5-1,0.5l-2,2v0.5h0.5l1.2-1.2l0.2,0.2
	c0,0-0.7,1.3-0.7,2.6c0,0.5,0.5,0.5,0.5,0.5h0.5c0,0,0.2,0,0-0.2l-0.2-0.2c0-0.5,0.6-1,1-1.5c0,0,0,0.6,0,1.2c0,0.3,0.2,0.8,0.5,0.8
	h0.5c0,0,0.2,0,0-0.2l-0.2-0.2c-0.2-0.4,0.5-1.5,0.5-1.5h1.8l0.5,1.5c0.2,0.5,0.5,0.5,0.5,0.5h1c0.2,0,0.7-0.2,0.2-0.5l-0.2-0.2V202
	v0c1,0,1.1-1.3,1.5-1.7l0.7-0.1c0.2,0,0.8-0.2,0.8-0.8V199l-1.2-1l0,0C-284.6,197.4-285.3,197-286,197z" style="stroke-linejoin:round;stroke-miterlimit:4px;" fill="#ffffff" stroke="#ffffff" stroke-width="3" data-reactid=".0.1.1.$zoo-11=1svg166.0.0.2:$zoo-11=1svg-1-fill"></path><path fill="#262525" d="M-286,197c-0.9,0-1.5,0.5-1.8,1.1c0,0-0.7,0.9-1.2,0.9h-2c-0.5,0-1,0.5-1,0.5l-2,2v0.5h0.5l1.2-1.2l0.2,0.2
	c0,0-0.7,1.3-0.7,2.6c0,0.5,0.5,0.5,0.5,0.5h0.5c0,0,0.2,0,0-0.2l-0.2-0.2c0-0.5,0.6-1,1-1.5c0,0,0,0.6,0,1.2c0,0.3,0.2,0.8,0.5,0.8
	h0.5c0,0,0.2,0,0-0.2l-0.2-0.2c-0.2-0.4,0.5-1.5,0.5-1.5h1.8l0.5,1.5c0.2,0.5,0.5,0.5,0.5,0.5h1c0.2,0,0.7-0.2,0.2-0.5l-0.2-0.2V202
	v0c1,0,1.1-1.3,1.5-1.7l0.7-0.1c0.2,0,0.8-0.2,0.8-0.8V199l-1.2-1l0,0C-284.6,197.4-285.3,197-286,197z" data-reactid=".0.1.1.$zoo-11=1svg166.0.0.3:$zoo-11=1svg-0-fill"></path><path fill="#262525" d="M-286,197c-0.9,0-1.5,0.5-1.8,1.1c0,0-0.7,0.9-1.2,0.9h-2c-0.5,0-1,0.5-1,0.5l-2,2v0.5h0.5l1.2-1.2l0.2,0.2
	c0,0-0.7,1.3-0.7,2.6c0,0.5,0.5,0.5,0.5,0.5h0.5c0,0,0.2,0,0-0.2l-0.2-0.2c0-0.5,0.6-1,1-1.5c0,0,0,0.6,0,1.2c0,0.3,0.2,0.8,0.5,0.8
	h0.5c0,0,0.2,0,0-0.2l-0.2-0.2c-0.2-0.4,0.5-1.5,0.5-1.5h1.8l0.5,1.5c0.2,0.5,0.5,0.5,0.5,0.5h1c0.2,0,0.7-0.2,0.2-0.5l-0.2-0.2V202
	v0c1,0,1.1-1.3,1.5-1.7l0.7-0.1c0.2,0,0.8-0.2,0.8-0.8V199l-1.2-1l0,0C-284.6,197.4-285.3,197-286,197z" data-reactid=".0.1.1.$zoo-11=1svg166.0.0.3:$zoo-11=1svg-1-fill"></path></svg>