<svg viewBox="-1 -1 13 13" width="13" height="13" data-reactid=".0.1.1.$airfield-11=1svg152.0.0"><path d="m 5,0.5 -1.5,0 C 3,0.5 3,0 3.5,0 l 4,0 C 8,0 8,0.5 7.5,0.5 L 6,0.5 C 6,0.5 6.5,1 6.5,2 l 0,1 4.5,0 0,1.5 -4.5,2 -0.5,3.5 1.5,0.5 0,0.5 -4,0 0,-0.5 L 5,10 4.5,6.5 0,4.5 0,3 4.5,3 4.5,2 C 4.5,1 5,0.5 5,0.5 Z" style="stroke-linejoin:round;stroke-miterlimit:4px;" fill="#ffffff" stroke="#ffffff" stroke-width="2" opacity="0.3" data-reactid=".0.1.1.$airfield-11=1svg152.0.0.2:$airfield-11=1svg-0-fill"></path><path fill="#444" d="m 5,0.5 -1.5,0 C 3,0.5 3,0 3.5,0 l 4,0 C 8,0 8,0.5 7.5,0.5 L 6,0.5 C 6,0.5 6.5,1 6.5,2 l 0,1 4.5,0 0,1.5 -4.5,2 -0.5,3.5 1.5,0.5 0,0.5 -4,0 0,-0.5 L 5,10 4.5,6.5 0,4.5 0,3 4.5,3 4.5,2 C 4.5,1 5,0.5 5,0.5 Z" data-reactid=".0.1.1.$airfield-11=1svg152.0.0.3:$airfield-11=1svg-0-fill"></path></svg>