<svg viewBox="-295 194 13 13" width="13" height="13" data-reactid=".0.1.1.$alcohol-shop-11=1svg14.0.0"><path d="M-291,196c-0.3,0-0.5,0.2-0.5,0.5s0.2,0.5,0.5,0.5c0,1-2,2.5-2,3.5v3.5c0,1,1,1,1,1h3c0,0,1,0,1-1v-3.5
	c0-0.9-2-2.6-2-3.5c0.3,0,0.5-0.2,0.5-0.5s-0.2-0.5-0.5-0.5H-291z M-287.2,199l0.2,1.5c0.2,1,1.2,1,1.2,1v2.2c0,0.5-0.8,0.8-0.8,0.8
	v0.5h2v-0.5c0,0-0.8-0.2-0.8-0.8v-2.2c0,0,1.1,0,1.2-1l0.2-1.5H-287.2z M-286.2,199.5h1.5l-0.2,1h-1L-286.2,199.5z M-290.5,200
	c0.8,0,1.5,0.9,1.5,2c0,0,0,0,0,0c0,1.1-0.7,2-1.5,2l0,0c-0.8,0-1.5-0.9-1.5-2c0,0,0,0,0,0C-292,200.9-291.3,200-290.5,200
	L-290.5,200z" style="stroke-linejoin:round;stroke-miterlimit:4px;" fill="#ffffff" stroke="#ffffff" stroke-width="2" opacity="0.3" data-reactid=".0.1.1.$alcohol-shop-11=1svg14.0.0.2:$alcohol-shop-11=1svg-0-fill"></path><path fill="#444" d="M-291,196c-0.3,0-0.5,0.2-0.5,0.5s0.2,0.5,0.5,0.5c0,1-2,2.5-2,3.5v3.5c0,1,1,1,1,1h3c0,0,1,0,1-1v-3.5
	c0-0.9-2-2.6-2-3.5c0.3,0,0.5-0.2,0.5-0.5s-0.2-0.5-0.5-0.5H-291z M-287.2,199l0.2,1.5c0.2,1,1.2,1,1.2,1v2.2c0,0.5-0.8,0.8-0.8,0.8
	v0.5h2v-0.5c0,0-0.8-0.2-0.8-0.8v-2.2c0,0,1.1,0,1.2-1l0.2-1.5H-287.2z M-286.2,199.5h1.5l-0.2,1h-1L-286.2,199.5z M-290.5,200
	c0.8,0,1.5,0.9,1.5,2c0,0,0,0,0,0c0,1.1-0.7,2-1.5,2l0,0c-0.8,0-1.5-0.9-1.5-2c0,0,0,0,0,0C-292,200.9-291.3,200-290.5,200
	L-290.5,200z" data-reactid=".0.1.1.$alcohol-shop-11=1svg14.0.0.3:$alcohol-shop-11=1svg-0-fill"></path></svg>