<svg viewBox="-1 -1 17 17" width="17" height="17" data-reactid=".0.1.1.$art-gallery-15=1svg21.0.0"><path d="M 13.24344,5.2844187 C 12.290493,4.0217024 10.982497,3.016581 9.1470588,2.548766 7.3116212,2.0809509 4.8234545,1.8962431 3.3823529,2.548766 1.9412514,3.2012887 0.5,4.3605305 0.5,5.8428836 0.5,8.3134718 4.4215592,8.2200389 3.9944233,9.8958729 3.6486472,11.252501 4.2808304,12.773404 6.1162674,13.24122 7.9517053,13.709034 9.8700592,13.518096 11.311162,12.865575 12.752262,12.213051 14.5,10.78406 14.5,9.1370012 14.5,7.5722954 14.196388,6.547135 13.24344,5.2844187 Z M 3.1509628,6.5364172 C 2.672153,6.4143784 2.4343053,6.0138128 2.5563441,5.535003 2.678383,5.0561932 3.0789485,4.8183458 3.5577584,4.9403846 4.0365682,5.0624233 4.2744159,5.4629889 4.1523771,5.9417987 4.0303382,6.4206084 3.6297727,6.6584558 3.1509628,6.5364172 Z M 5.654498,5.049871 C 5.1756881,4.9278322 4.9378413,4.5272666 5.0598801,4.0484569 5.1819181,3.5696471 5.5824845,3.3317997 6.0612935,3.4538384 6.5401034,3.575877 6.7779511,3.9764427 6.6559122,4.4552525 6.5338734,4.9340623 6.1333079,5.1719096 5.654498,5.049871 Z m 0.8685658,6.595315 C 5.8846506,11.482468 5.4684174,10.781479 5.6311353,10.143066 5.793854,9.5046528 6.4948439,9.0884195 7.1332571,9.2511383 7.7716702,9.4138562 8.1879026,10.114846 8.0251847,10.753259 7.862466,11.391673 7.1614761,11.807906 6.5230638,11.645186 Z M 8.5492541,5.3627552 C 8.0704442,5.2407165 7.8325966,4.8401508 7.9546354,4.361341 8.0766742,3.8825312 8.4772398,3.6446839 8.9560494,3.7667226 9.4348593,3.8887613 9.6727069,4.2893269 9.5506681,4.7681366 9.4286293,5.2469464 9.0280638,5.4847938 8.5492541,5.3627552 Z m 1.9950399,0.5084945 c 0.122039,-0.4788098 0.522605,-0.7166572 1.001414,-0.5946184 0.47881,0.1220386 0.716658,0.5226043 0.594619,1.0014141 C 12.018288,6.7568552 11.617723,6.9947026 11.138914,6.8726639 10.660103,6.7506252 10.422256,6.3500595 10.544294,5.8712497 Z M 11.725744,9.57181 C 11.246934,9.4497711 11.009087,9.0492052 11.131126,8.5703954 11.253164,8.0915856 11.653729,7.8537382 12.13254,7.9757768 12.611349,8.0978156 12.849197,8.4983812 12.727158,8.977191 12.60512,9.4560011 12.204554,9.693848 11.725744,9.57181 Z" style="stroke-linejoin:round;stroke-miterlimit:4px;" fill="#ffffff" stroke="#ffffff" stroke-width="2" opacity="0.3" data-reactid=".0.1.1.$art-gallery-15=1svg21.0.0.2:$art-gallery-15=1svg-0-fill"></path><path fill="#444" d="M 13.24344,5.2844187 C 12.290493,4.0217024 10.982497,3.016581 9.1470588,2.548766 7.3116212,2.0809509 4.8234545,1.8962431 3.3823529,2.548766 1.9412514,3.2012887 0.5,4.3605305 0.5,5.8428836 0.5,8.3134718 4.4215592,8.2200389 3.9944233,9.8958729 3.6486472,11.252501 4.2808304,12.773404 6.1162674,13.24122 7.9517053,13.709034 9.8700592,13.518096 11.311162,12.865575 12.752262,12.213051 14.5,10.78406 14.5,9.1370012 14.5,7.5722954 14.196388,6.547135 13.24344,5.2844187 Z M 3.1509628,6.5364172 C 2.672153,6.4143784 2.4343053,6.0138128 2.5563441,5.535003 2.678383,5.0561932 3.0789485,4.8183458 3.5577584,4.9403846 4.0365682,5.0624233 4.2744159,5.4629889 4.1523771,5.9417987 4.0303382,6.4206084 3.6297727,6.6584558 3.1509628,6.5364172 Z M 5.654498,5.049871 C 5.1756881,4.9278322 4.9378413,4.5272666 5.0598801,4.0484569 5.1819181,3.5696471 5.5824845,3.3317997 6.0612935,3.4538384 6.5401034,3.575877 6.7779511,3.9764427 6.6559122,4.4552525 6.5338734,4.9340623 6.1333079,5.1719096 5.654498,5.049871 Z m 0.8685658,6.595315 C 5.8846506,11.482468 5.4684174,10.781479 5.6311353,10.143066 5.793854,9.5046528 6.4948439,9.0884195 7.1332571,9.2511383 7.7716702,9.4138562 8.1879026,10.114846 8.0251847,10.753259 7.862466,11.391673 7.1614761,11.807906 6.5230638,11.645186 Z M 8.5492541,5.3627552 C 8.0704442,5.2407165 7.8325966,4.8401508 7.9546354,4.361341 8.0766742,3.8825312 8.4772398,3.6446839 8.9560494,3.7667226 9.4348593,3.8887613 9.6727069,4.2893269 9.5506681,4.7681366 9.4286293,5.2469464 9.0280638,5.4847938 8.5492541,5.3627552 Z m 1.9950399,0.5084945 c 0.122039,-0.4788098 0.522605,-0.7166572 1.001414,-0.5946184 0.47881,0.1220386 0.716658,0.5226043 0.594619,1.0014141 C 12.018288,6.7568552 11.617723,6.9947026 11.138914,6.8726639 10.660103,6.7506252 10.422256,6.3500595 10.544294,5.8712497 Z M 11.725744,9.57181 C 11.246934,9.4497711 11.009087,9.0492052 11.131126,8.5703954 11.253164,8.0915856 11.653729,7.8537382 12.13254,7.9757768 12.611349,8.0978156 12.849197,8.4983812 12.727158,8.977191 12.60512,9.4560011 12.204554,9.693848 11.725744,9.57181 Z" data-reactid=".0.1.1.$art-gallery-15=1svg21.0.0.3:$art-gallery-15=1svg-0-fill"></path></svg>