<svg viewBox="-295 194 13 13" width="13" height="13" data-reactid=".0.1.1.$attraction-11=1svg22.0.0"><path d="M-289.5,196c0,0-0.5,0-0.7,0.5l-0.3,0.5h-2.5c-0.6,0-1,0.4-1,1v5c0,0.6,0.4,1,1,1h9c0.6,0,1-0.4,1-1v-5
	c0-0.6-0.4-1-1-1h-2.5l-0.3-0.5c-0.2-0.5-0.7-0.5-0.7-0.5H-289.5z M-288.5,198c1.4,0,2.5,1.1,2.5,2.5s-1.1,2.5-2.5,2.5
	s-2.5-1.1-2.5-2.5S-289.9,198-288.5,198z M-288.5,199.5c-0.6,0-1,0.4-1,1s0.4,1,1,1s1-0.4,1-1S-287.9,199.5-288.5,199.5z" style="stroke-linejoin:round;stroke-miterlimit:4px;" fill="#ffffff" stroke="#ffffff" stroke-width="2" opacity="0.3" data-reactid=".0.1.1.$attraction-11=1svg22.0.0.2:$attraction-11=1svg-0-fill"></path><path fill="#444" d="M-289.5,196c0,0-0.5,0-0.7,0.5l-0.3,0.5h-2.5c-0.6,0-1,0.4-1,1v5c0,0.6,0.4,1,1,1h9c0.6,0,1-0.4,1-1v-5
	c0-0.6-0.4-1-1-1h-2.5l-0.3-0.5c-0.2-0.5-0.7-0.5-0.7-0.5H-289.5z M-288.5,198c1.4,0,2.5,1.1,2.5,2.5s-1.1,2.5-2.5,2.5
	s-2.5-1.1-2.5-2.5S-289.9,198-288.5,198z M-288.5,199.5c-0.6,0-1,0.4-1,1s0.4,1,1,1s1-0.4,1-1S-287.9,199.5-288.5,199.5z" data-reactid=".0.1.1.$attraction-11=1svg22.0.0.3:$attraction-11=1svg-0-fill"></path></svg>