<svg viewBox="-1 -1 17 17" width="17" height="17" data-reactid=".0.1.1.$attraction-15=1svg23.0.0"><path d="M 6 2 C 5.446 2 5.2477563 2.5044873 5 3 L 4.5 4 L 2.5 4 C 1.6689999 4 1 4.6689999 1 5.5 L 1 10.5 C 1 11.331 1.6689999 12 2.5 12 L 12.5 12 C 13.331 12 14 11.331 14 10.5 L 14 5.5 C 14 4.6689999 13.331 4 12.5 4 L 10.5 4 L 10 3 C 9.75 2.5 9.5540001 2 9 2 L 6 2 z M 2.5 5 A 0.5 0.5 0 0 1 3 5.5 A 0.5 0.5 0 0 1 2.5 6 A 0.5 0.5 0 0 1 2 5.5 A 0.5 0.5 0 0 1 2.5 5 z M 7.5 5 A 3.0000001 3.0000001 0 0 1 10.5 8 A 3.0000001 3.0000001 0 0 1 7.5 11 A 3.0000001 3.0000001 0 0 1 4.5 8 A 3.0000001 3.0000001 0 0 1 7.5 5 z M 7.5 6.5 A 1.4999999 1.4999999 0 0 0 6 8 A 1.4999999 1.4999999 0 0 0 7.5 9.5 A 1.4999999 1.4999999 0 0 0 9 8 A 1.4999999 1.4999999 0 0 0 7.5 6.5 z " style="stroke-linejoin:round;stroke-miterlimit:4px;" fill="#ffffff" stroke="#ffffff" stroke-width="2" opacity="0.3" data-reactid=".0.1.1.$attraction-15=1svg23.0.0.2:$attraction-15=1svg-0-fill"></path><path fill="#444" d="M 6 2 C 5.446 2 5.2477563 2.5044873 5 3 L 4.5 4 L 2.5 4 C 1.6689999 4 1 4.6689999 1 5.5 L 1 10.5 C 1 11.331 1.6689999 12 2.5 12 L 12.5 12 C 13.331 12 14 11.331 14 10.5 L 14 5.5 C 14 4.6689999 13.331 4 12.5 4 L 10.5 4 L 10 3 C 9.75 2.5 9.5540001 2 9 2 L 6 2 z M 2.5 5 A 0.5 0.5 0 0 1 3 5.5 A 0.5 0.5 0 0 1 2.5 6 A 0.5 0.5 0 0 1 2 5.5 A 0.5 0.5 0 0 1 2.5 5 z M 7.5 5 A 3.0000001 3.0000001 0 0 1 10.5 8 A 3.0000001 3.0000001 0 0 1 7.5 11 A 3.0000001 3.0000001 0 0 1 4.5 8 A 3.0000001 3.0000001 0 0 1 7.5 5 z M 7.5 6.5 A 1.4999999 1.4999999 0 0 0 6 8 A 1.4999999 1.4999999 0 0 0 7.5 9.5 A 1.4999999 1.4999999 0 0 0 9 8 A 1.4999999 1.4999999 0 0 0 7.5 6.5 z " data-reactid=".0.1.1.$attraction-15=1svg23.0.0.3:$attraction-15=1svg-0-fill"></path></svg>