<svg viewBox="-1 -1 13 13" width="13" height="13" data-reactid=".0.1.1.$bar-11=1svg0.0.0"><path d="M 5.4882812,1 C 4.9759317,1 0.5,1 1,1.5 L 5,6 5,8.5 C 5,9 2.5,9 2.5,10 l 6,0 C 8.5,9 6,9 6,8.5 L 6,6 10,1.5 C 10.5,1 6.0006307,1 5.4882812,1 Z M 2.5,2 l 6,0 -1,1 -4,0 -1,-1 z" style="stroke-linejoin:round;stroke-miterlimit:4px;" fill="#ffffff" stroke="#ffffff" stroke-width="2" opacity="0.3" data-reactid=".0.1.1.$bar-11=1svg0.0.0.2:$bar-11=1svg-0-fill"></path><path fill="#444" d="M 5.4882812,1 C 4.9759317,1 0.5,1 1,1.5 L 5,6 5,8.5 C 5,9 2.5,9 2.5,10 l 6,0 C 8.5,9 6,9 6,8.5 L 6,6 10,1.5 C 10.5,1 6.0006307,1 5.4882812,1 Z M 2.5,2 l 6,0 -1,1 -4,0 -1,-1 z" data-reactid=".0.1.1.$bar-11=1svg0.0.0.3:$bar-11=1svg-0-fill"></path></svg>