<svg viewBox="-1 -1 17 17" width="17" height="17" data-reactid=".0.1.1.$beer-15=1svg3.0.0"><path d="m 7.5000002,0.55882338 c -0.4705882,0 -3.2941178,0 -3.764706,0.70588272 0,0 -0.4705883,1.8823531 -0.4705883,3.2941174 0,2.3529408 1.4117647,5.1764702 0.9411765,8.9411775 0,1.411764 6.5882356,1.411764 6.5882356,0 -0.470587,-3.7647073 0.941176,-6.5882367 0.941176,-8.9411775 0,-1.4117643 -0.470588,-3.2941174 -0.470588,-3.2941174 C 10.794118,0.55882338 7.9705884,0.55882338 7.5000002,0.55882338 Z m 0,0.94117662 c 0.4705882,0 2.8235298,0 3.2941168,0.4705877 0,0 0.470589,1.4117654 0.235294,1.8823531 -1.1764699,0.7058827 -5.8823525,0.7058827 -7.0588231,0 C 3.7352942,3.3823531 4.205882,1.9705877 4.205882,1.9705877 4.6764707,1.5 7.0294121,1.5 7.5000002,1.5 Z M 5.194853,12.005515 c 0.417314,0.124756 0.8933823,0.384876 2.3051471,0.426471 1.4117649,0.04159 1.887833,-0.301716 2.3051472,-0.426471 0.00995,0.177704 0.023474,1.064602 0.047794,1.259192 -0.4705879,0.470588 -4.2352942,0.470588 -4.7058825,0 0.024324,-0.19459 0.037842,-1.081488 0.047794,-1.259192 z" style="stroke-linejoin:round;stroke-miterlimit:4px;" fill="#ffffff" stroke="#ffffff" stroke-width="2" opacity="0.3" data-reactid=".0.1.1.$beer-15=1svg3.0.0.2:$beer-15=1svg-0-fill"></path><path fill="#444" d="m 7.5000002,0.55882338 c -0.4705882,0 -3.2941178,0 -3.764706,0.70588272 0,0 -0.4705883,1.8823531 -0.4705883,3.2941174 0,2.3529408 1.4117647,5.1764702 0.9411765,8.9411775 0,1.411764 6.5882356,1.411764 6.5882356,0 -0.470587,-3.7647073 0.941176,-6.5882367 0.941176,-8.9411775 0,-1.4117643 -0.470588,-3.2941174 -0.470588,-3.2941174 C 10.794118,0.55882338 7.9705884,0.55882338 7.5000002,0.55882338 Z m 0,0.94117662 c 0.4705882,0 2.8235298,0 3.2941168,0.4705877 0,0 0.470589,1.4117654 0.235294,1.8823531 -1.1764699,0.7058827 -5.8823525,0.7058827 -7.0588231,0 C 3.7352942,3.3823531 4.205882,1.9705877 4.205882,1.9705877 4.6764707,1.5 7.0294121,1.5 7.5000002,1.5 Z M 5.194853,12.005515 c 0.417314,0.124756 0.8933823,0.384876 2.3051471,0.426471 1.4117649,0.04159 1.887833,-0.301716 2.3051472,-0.426471 0.00995,0.177704 0.023474,1.064602 0.047794,1.259192 -0.4705879,0.470588 -4.2352942,0.470588 -4.7058825,0 0.024324,-0.19459 0.037842,-1.081488 0.047794,-1.259192 z" data-reactid=".0.1.1.$beer-15=1svg3.0.0.3:$beer-15=1svg-0-fill"></path></svg>