<svg viewBox="-1 -1 13 13" width="13" height="13" data-reactid=".0.1.1.$bus-11=1svg156.0.0"><path d="M 3,0 C 2,0 1,0.53125 1,2 l 0,4 0,3.5 c 0,0 0,0.5 0.5,0.5 l 0.5,0.01563 0,0.484375 c 0,0 0,0.5 0.5,0.5 l 0.5,0 c 0,0 0.5,0 0.5,-0.5 L 3.5,10.01563 7.5,10 l 0,0.5 c 0,0 0,0.5 0.5,0.5 l 0.5,0 C 9,11.000005 9,10.5 9,10.5 L 9,10.01563 9.5,10 c 0,0 0.5,0 0.5,-0.5 L 10,6 10,2 C 10,0.5 9,0 8,0 L 3,0 Z m 0.75,1 3.5,0 C 7.3885,1 7.5,1.1115 7.5,1.25 7.5,1.3885 7.3885,1.5 7.25,1.5 l -3.5,0 C 3.6115,1.5 3.5,1.3885 3.5,1.25 3.5,1.1115 3.6115,1 3.75,1 Z M 3,2 8,2 C 9,2 9,3 9,3 L 9,5 C 9,5 9,6 8,6 L 3,6 C 2,6 2,5 2,5 L 2,3 C 2,3 2,2 3,2 Z M 2.75,7.5 A 0.75,0.75 0 0 1 3.5,8.25 0.75,0.75 0 0 1 2.75,9 0.75,0.75 0 0 1 2,8.25 0.75,0.75 0 0 1 2.75,7.5 Z m 5.5,0 A 0.75,0.75 0 0 1 9,8.25 0.75,0.75 0 0 1 8.25,9 0.75,0.75 0 0 1 7.5,8.25 0.75,0.75 0 0 1 8.25,7.5 Z" style="stroke-linejoin:round;stroke-miterlimit:4px;" fill="#ffffff" stroke="#ffffff" stroke-width="2" opacity="0.3" data-reactid=".0.1.1.$bus-11=1svg156.0.0.2:$bus-11=1svg-0-fill"></path><path fill="#444" d="M 3,0 C 2,0 1,0.53125 1,2 l 0,4 0,3.5 c 0,0 0,0.5 0.5,0.5 l 0.5,0.01563 0,0.484375 c 0,0 0,0.5 0.5,0.5 l 0.5,0 c 0,0 0.5,0 0.5,-0.5 L 3.5,10.01563 7.5,10 l 0,0.5 c 0,0 0,0.5 0.5,0.5 l 0.5,0 C 9,11.000005 9,10.5 9,10.5 L 9,10.01563 9.5,10 c 0,0 0.5,0 0.5,-0.5 L 10,6 10,2 C 10,0.5 9,0 8,0 L 3,0 Z m 0.75,1 3.5,0 C 7.3885,1 7.5,1.1115 7.5,1.25 7.5,1.3885 7.3885,1.5 7.25,1.5 l -3.5,0 C 3.6115,1.5 3.5,1.3885 3.5,1.25 3.5,1.1115 3.6115,1 3.75,1 Z M 3,2 8,2 C 9,2 9,3 9,3 L 9,5 C 9,5 9,6 8,6 L 3,6 C 2,6 2,5 2,5 L 2,3 C 2,3 2,2 3,2 Z M 2.75,7.5 A 0.75,0.75 0 0 1 3.5,8.25 0.75,0.75 0 0 1 2.75,9 0.75,0.75 0 0 1 2,8.25 0.75,0.75 0 0 1 2.75,7.5 Z m 5.5,0 A 0.75,0.75 0 0 1 9,8.25 0.75,0.75 0 0 1 8.25,9 0.75,0.75 0 0 1 7.5,8.25 0.75,0.75 0 0 1 8.25,7.5 Z" data-reactid=".0.1.1.$bus-11=1svg156.0.0.3:$bus-11=1svg-0-fill"></path></svg>