<svg viewBox="-1 -1 13 13" width="13" height="13" data-reactid=".0.1.1.$campsite-11=1svg132.0.0"><path d="M 5.5,0.5 1.5,7 0.5,7 C 0,7 0,7.3871263 0,7.3871263 L 0,8.5 C 0,9 0.5,9 0.5,9 l 10,0 C 11,9 11,8.5 11,8.5 L 11,7.3871263 C 11,7.3871263 11,7 10.5,7 c -0.333333,0 -1,0 -1,0 z m 0,3 2,3.5 -4,0 z" style="stroke-linejoin:round;stroke-miterlimit:4px;" fill="#ffffff" stroke="#ffffff" stroke-width="2" opacity="0.3" data-reactid=".0.1.1.$campsite-11=1svg132.0.0.2:$campsite-11=1svg-0-fill"></path><path fill="#444" d="M 5.5,0.5 1.5,7 0.5,7 C 0,7 0,7.3871263 0,7.3871263 L 0,8.5 C 0,9 0.5,9 0.5,9 l 10,0 C 11,9 11,8.5 11,8.5 L 11,7.3871263 C 11,7.3871263 11,7 10.5,7 c -0.333333,0 -1,0 -1,0 z m 0,3 2,3.5 -4,0 z" data-reactid=".0.1.1.$campsite-11=1svg132.0.0.3:$campsite-11=1svg-0-fill"></path></svg>