<svg viewBox="-1 -1 17 17" width="17" height="17" data-reactid=".0.1.1.$circle-stroked-15=1svg41.0.0"><path d="M 7.5,0 C 11.642159,0 15,3.3578077 15,7.5 15,11.642193 11.642159,15 7.5,15 3.3578411,15 0,11.642193 0,7.5 0,3.3578077 3.3578411,0 7.5,0 Z m 0,1.6666154 c -3.2216839,0 -5.8333339,2.6117307 -5.8333339,5.8333846 0,3.221654 2.61165,5.833384 5.8333339,5.833384 3.221684,0 5.833334,-2.61173 5.833334,-5.833384 0,-3.2216539 -2.61165,-5.8333846 -5.833334,-5.8333846 z" style="stroke-linejoin:round;stroke-miterlimit:4px;" fill="#ffffff" stroke="#ffffff" stroke-width="2" opacity="0.3" data-reactid=".0.1.1.$circle-stroked-15=1svg41.0.0.2:$circle-stroked-15=1svg-0-fill"></path><path fill="#444" d="M 7.5,0 C 11.642159,0 15,3.3578077 15,7.5 15,11.642193 11.642159,15 7.5,15 3.3578411,15 0,11.642193 0,7.5 0,3.3578077 3.3578411,0 7.5,0 Z m 0,1.6666154 c -3.2216839,0 -5.8333339,2.6117307 -5.8333339,5.8333846 0,3.221654 2.61165,5.833384 5.8333339,5.833384 3.221684,0 5.833334,-2.61173 5.833334,-5.833384 0,-3.2216539 -2.61165,-5.8333846 -5.833334,-5.8333846 z" data-reactid=".0.1.1.$circle-stroked-15=1svg41.0.0.3:$circle-stroked-15=1svg-0-fill"></path></svg>