<svg viewBox="-1 -1 13 13" width="13" height="13" data-reactid=".0.1.1.$circle-stroked-11=1svg40.0.0"><path d="M 5.5,0 C 8.5375828,0 11,2.4624111 11,5.5 11,8.5375889 8.5375828,11 5.5,11 2.4624172,11 0,8.5375889 0,5.5 0,2.4624111 2.4624172,0 5.5,0 Z m 0,1.2222222 c -2.3625678,0 -4.2777778,1.9152222 -4.2777778,4.2777778 0,2.3625556 1.91521,4.2777778 4.2777778,4.2777778 C 7.8625678,9.7777778 9.777778,7.8625556 9.777778,5.5 9.777778,3.1374444 7.8625678,1.2222222 5.5,1.2222222 Z" style="stroke-linejoin:round;stroke-miterlimit:4px;" fill="#ffffff" stroke="#ffffff" stroke-width="2" opacity="0.3" data-reactid=".0.1.1.$circle-stroked-11=1svg40.0.0.2:$circle-stroked-11=1svg-0-fill"></path><path fill="#444" d="M 5.5,0 C 8.5375828,0 11,2.4624111 11,5.5 11,8.5375889 8.5375828,11 5.5,11 2.4624172,11 0,8.5375889 0,5.5 0,2.4624111 2.4624172,0 5.5,0 Z m 0,1.2222222 c -2.3625678,0 -4.2777778,1.9152222 -4.2777778,4.2777778 0,2.3625556 1.91521,4.2777778 4.2777778,4.2777778 C 7.8625678,9.7777778 9.777778,7.8625556 9.777778,5.5 9.777778,3.1374444 7.8625678,1.2222222 5.5,1.2222222 Z" data-reactid=".0.1.1.$circle-stroked-11=1svg40.0.0.3:$circle-stroked-11=1svg-0-fill"></path></svg>