<svg viewBox="-293 192 17 17" width="17" height="17" data-reactid=".0.1.1.$circle-15=1svg39.0.0"><path d="m -277,200.5 a 7.5,7.5 0 0 1 -7.5,7.5 7.5,7.5 0 0 1 -7.5,-7.5 7.5,7.5 0 0 1 7.5,-7.5 7.5,7.5 0 0 1 7.5,7.5 z" style="stroke-linejoin:round;stroke-miterlimit:4px;" fill="#ffffff" stroke="#ffffff" stroke-width="2" opacity="0.3" data-reactid=".0.1.1.$circle-15=1svg39.0.0.2:$circle-15=1svg-0-fill"></path><path fill="#444" d="m -277,200.5 a 7.5,7.5 0 0 1 -7.5,7.5 7.5,7.5 0 0 1 -7.5,-7.5 7.5,7.5 0 0 1 7.5,-7.5 7.5,7.5 0 0 1 7.5,7.5 z" data-reactid=".0.1.1.$circle-15=1svg39.0.0.3:$circle-15=1svg-0-fill"></path></svg>