<svg viewBox="-293 192 17 17" width="17" height="17" data-reactid=".0.1.1.$dentist-15=1svg119.0.0"><path d="M-287.7,207c-1.4,0-1.5-3.8-2-6.1c-0.4-1.9-1-5.5,1.3-5.9
	c2.2-0.4,2.3,1.4,3.9,1.4c1.6,0,1.6-1.8,3.9-1.4c2.3,0.4,1.6,3.9,1.3,5.9c-0.5,2.3-0.6,6.1-2,6.1s-1.6-2.9-3.2-2.9
	C-286.1,204.1-286.3,207-287.7,207z" style="stroke-linejoin:round;stroke-miterlimit:4px;" fill="#ffffff" stroke="#ffffff" stroke-width="2" opacity="0.3" data-reactid=".0.1.1.$dentist-15=1svg119.0.0.2:$dentist-15=1svg-0-fill"></path><path fill="#444" d="M-287.7,207c-1.4,0-1.5-3.8-2-6.1c-0.4-1.9-1-5.5,1.3-5.9
	c2.2-0.4,2.3,1.4,3.9,1.4c1.6,0,1.6-1.8,3.9-1.4c2.3,0.4,1.6,3.9,1.3,5.9c-0.5,2.3-0.6,6.1-2,6.1s-1.6-2.9-3.2-2.9
	C-286.1,204.1-286.3,207-287.7,207z" data-reactid=".0.1.1.$dentist-15=1svg119.0.0.3:$dentist-15=1svg-0-fill"></path></svg>