<svg viewBox="-1 -1 14 14" width="14" height="14" data-reactid=".0.1.1.$dentist-11=1svg54.0.0"><path fill="#49484a" d="M 1.9672604,5.3799054 C 1.7020826,4.1111748 1.2860439,1.7892295 2.8358816,1.535296 4.3651047,1.2832366 4.3969636,2.4723201 5.4998408,2.4723201 6.603655,2.4723201 6.6336397,1.2822996 8.1619259,1.535296 9.7145742,1.7892295 9.2975992,4.110238 9.0333586,5.3799054 8.720392,6.8744588 8.3109122,9.5 7.3738884,9.5 6.4368647,9.5 6.5362744,7.6259519 5.4998408,7.6259519 4.5637539,7.6259519 4.5637539,9.5 3.6267299,9.5 2.6897059,9.5 2.2792892,6.8744588 1.9672604,5.3799054 Z" data-reactid=".0.1.1.$dentist-11=1svg54.0.0.3:$dentist-11=1svg-0-fill"></path><path fill="#49484a" d="m 166,1179.862 c -1,0 -1.438,-2.802 -1.771,-4.397 -0.283,-1.354 -0.727,-3.832 0.927,-4.103 1.632,-0.269 1.666,1 2.843,1 1.178,0 1.21,-1.27 2.841,-1 1.657,0.271 1.212,2.748 0.93,4.103 -0.334,1.595 -0.771,4.397 -1.771,4.397 -1,0 -0.822,-2 -2,-2 -1.183,0 -0.999,2 -1.999,2 z" data-reactid=".0.1.1.$dentist-11=1svg54.0.0.3:$dentist-11=1svg-1-fill"></path><path fill="#49484a" d="M 1.9672604,5.3799054 C 1.7020826,4.1111748 1.2860439,1.7892295 2.8358816,1.535296 4.3651047,1.2832366 4.3969636,2.4723201 5.4998408,2.4723201 6.603655,2.4723201 6.6336397,1.2822996 8.1619259,1.535296 9.7145742,1.7892295 9.2975992,4.110238 9.0333586,5.3799054 8.720392,6.8744588 8.3109122,9.5 7.3738884,9.5 6.4368647,9.5 6.5362744,7.6259519 5.4998408,7.6259519 4.5637539,7.6259519 4.5637539,9.5 3.6267299,9.5 2.6897059,9.5 2.2792892,6.8744588 1.9672604,5.3799054 Z" data-reactid=".0.1.1.$dentist-11=1svg54.0.0.3:$dentist-11=1svg-2-fill"></path><path fill="#49484a" d="m 166,1179.862 c -1,0 -1.438,-2.802 -1.771,-4.397 -0.283,-1.354 -0.727,-3.832 0.927,-4.103 1.632,-0.269 1.666,1 2.843,1 1.178,0 1.21,-1.27 2.841,-1 1.657,0.271 1.212,2.748 0.93,4.103 -0.334,1.595 -0.771,4.397 -1.771,4.397 -1,0 -0.822,-2 -2,-2 -1.183,0 -0.999,2 -1.999,2 z" data-reactid=".0.1.1.$dentist-11=1svg54.0.0.3:$dentist-11=1svg-3-fill"></path></svg>