<?xml version="1.0" encoding="utf-8"?>
<!-- Generator: Adobe Illustrator 17.1.0, SVG Export Plug-In . SVG Version: 6.00 Build 0)  -->
<!DOCTYPE svg PUBLIC "-//W3C//DTD SVG 1.1//EN" "http://www.w3.org/Graphics/SVG/1.1/DTD/svg11.dtd">
<svg version="1.1" id="Layer_1" xmlns="http://www.w3.org/2000/svg" xmlns:xlink="http://www.w3.org/1999/xlink" x="0px" y="0px"
	 width="15px" height="15px" viewBox="0 0 15 15" enable-background="new 0 0 15 15" xml:space="preserve">
<path opacity="0.3" fill="#FFFFFF" stroke="#FFFFFF" stroke-width="2" stroke-linejoin="round" d="M5,3c0-0.6,0.4-1,1-1s1,0.4,1,1
	S6.6,4,6,4S5,3.6,5,3z M13,5.5c0,0.8-0.7,1.5-1.5,1.5h-1.1c-0.1,0-0.1,0-0.1,0.1l-3.5,4.5C6.5,11.9,6.2,12,5.8,12H3.6
	C2.7,12,2,11.3,2,10.4s0.7-1.5,1.5-1.5H5V5.5c0-0.6,0.4-1,1-1s1,0.4,1,1v1.2l1.8-2.3C9,4.1,9.3,4,9.7,4h1.8C12.3,4,13,4.7,13,5.5
	L13,5.5z M12,5.5C12,5.2,11.8,5,11.5,5H9.7c0,0-0.1,0-0.1,0L6,9.5C5.8,9.8,5.4,9.9,5.1,9.9H3.6C3.3,9.9,3,10.2,3,10.5S3.3,11,3.6,11
	h2.3c0,0,0.1,0,0.1,0l3.5-4.5c0.2-0.3,0.6-0.4,0.9-0.4h1.1C11.8,6.1,12,5.8,12,5.5L12,5.5z"/>
<path fill="#444444" d="M5,3c0-0.6,0.4-1,1-1s1,0.4,1,1S6.6,4,6,4S5,3.6,5,3z M13,5.5c0,0.8-0.7,1.5-1.5,1.5h-1.1
	c-0.1,0-0.1,0-0.1,0.1l-3.5,4.5C6.5,11.9,6.2,12,5.8,12H3.6C2.7,12,2,11.3,2,10.4s0.7-1.5,1.5-1.5H5V5.5c0-0.6,0.4-1,1-1s1,0.4,1,1
	v1.2l1.8-2.3C9,4.1,9.3,4,9.7,4h1.8C12.3,4,13,4.7,13,5.5L13,5.5z M12,5.5C12,5.2,11.8,5,11.5,5H9.7c0,0-0.1,0-0.1,0L6,9.5
	C5.8,9.8,5.4,9.9,5.1,9.9H3.6C3.3,9.9,3,10.2,3,10.5S3.3,11,3.6,11h2.3c0,0,0.1,0,0.1,0l3.5-4.5c0.2-0.3,0.6-0.4,0.9-0.4h1.1
	C11.8,6.1,12,5.8,12,5.5L12,5.5z"/>
</svg>
