<?xml version="1.0" encoding="utf-8"?>
<!-- Generator: Adobe Illustrator 17.1.0, SVG Export Plug-In . SVG Version: 6.00 Build 0)  -->
<!DOCTYPE svg PUBLIC "-//W3C//DTD SVG 1.1//EN" "http://www.w3.org/Graphics/SVG/1.1/DTD/svg11.dtd">
<svg version="1.1" id="Layer_1" xmlns="http://www.w3.org/2000/svg" xmlns:xlink="http://www.w3.org/1999/xlink" x="0px" y="0px"
	 width="19px" height="19px" viewBox="0 0 19 19" enable-background="new 0 0 19 19" xml:space="preserve">
<path opacity="0.3" fill="#FFFFFF" stroke="#FFFFFF" stroke-width="2" stroke-linejoin="round" d="M15,5h-2.6
	c-0.4,0-0.8,0.2-1.1,0.4L9,7.8V6.5c0-0.6-0.4-1-1-1s-1,0.4-1,1v3.3l-1.1,1.1C5.8,10.9,5.7,11,5.6,11H4c-1.1,0-2,0.9-2,2s0.9,2,2,2
	h2.6c0.4,0,0.8-0.2,1.1-0.4L13,9.2C13.1,9.1,13.3,9,13.4,9H15c1.1,0,2-0.9,2-2S16.1,5,15,5z M15,8h-1.6c-0.4,0-0.8,0.2-1.1,0.4
	l-5.4,5.4l0,0C6.8,13.9,6.7,14,6.6,14H4c-0.6,0-1-0.4-1-1s0.4-1,1-1h1.6c0.4,0,0.8-0.2,1.1-0.4l5.4-5.4C12.2,6,12.3,6,12.4,6H15
	c0.6,0,1,0.4,1,1S15.6,8,15,8z M7,4c0-0.6,0.4-1,1-1s1,0.4,1,1S8.6,5,8,5S7,4.6,7,4z"/>
<path fill="#444444" d="M15,5h-2.6c-0.4,0-0.8,0.2-1.1,0.4L9,7.8V6.5c0-0.6-0.4-1-1-1s-1,0.4-1,1v3.3l-1.1,1.1
	C5.8,10.9,5.7,11,5.6,11H4c-1.1,0-2,0.9-2,2s0.9,2,2,2h2.6c0.4,0,0.8-0.2,1.1-0.4L13,9.2C13.1,9.1,13.3,9,13.4,9H15c1.1,0,2-0.9,2-2
	S16.1,5,15,5z M15,8h-1.6c-0.4,0-0.8,0.2-1.1,0.4l-5.4,5.4l0,0C6.8,13.9,6.7,14,6.6,14H4c-0.6,0-1-0.4-1-1s0.4-1,1-1h1.6
	c0.4,0,0.8-0.2,1.1-0.4l5.4-5.4C12.2,6,12.3,6,12.4,6H15c0.6,0,1,0.4,1,1S15.6,8,15,8z M7,4c0-0.6,0.4-1,1-1s1,0.4,1,1S8.6,5,8,5
	S7,4.6,7,4z"/>
</svg>
