<svg viewBox="-1 -1 13 13" width="13" height="13" data-reactid=".0.1.1.$fuel-11=1svg50.0.0"><path d="M 2.5,1 C 2.5,1 2,1 2,1.5 l 0,8 c 0,0 0,0.5 0.5,0.5 l 5,0 C 7.5,10 8,10 8,9.5 l 0,-1 1.5,0 c 0,0 1,0 1,-1 l 0,-3 C 10.5,3.75 9.6324555,3.3162278 9,3 L 8,2.5 8,1.5 C 8,1 7.5,1 7.5,1 Z m 1,1 3,0 C 6.5,2 7,2 7,2.5 l 0,2 C 7,5 6.5,5 6.5,5 l -3,0 C 3,5 3,4.5 3,4.5 l 0,-2 C 3,2.5 3,2 3.5,2 Z M 4.25,3 C 4.1115,3 4,3.1115 4,3.25 l 0,0.5 C 4,3.8885 4.1115,4 4.25,4 4.3885,4 4.5,3.8885 4.5,3.75 l 0,-0.5 C 4.5,3.1115 4.3885,3 4.25,3 Z m 1.5,0 C 5.6115,3 5.5,3.1115 5.5,3.25 l 0,0.5 C 5.5,3.8885 5.6115,4 5.75,4 5.8885,4 6,3.8885 6,3.75 L 6,3.25 C 6,3.1115 5.8885,3 5.75,3 Z M 8,4 8.5,4 9.5,4.5 9.5,7 C 9.5,7.5 9,7.5 9,7.5 l -1,0 z" style="stroke-linejoin:round;stroke-miterlimit:4px;" fill="#ffffff" stroke="#ffffff" stroke-width="2" opacity="0.3" data-reactid=".0.1.1.$fuel-11=1svg50.0.0.2:$fuel-11=1svg-0-fill"></path><path fill="#444" d="M 2.5,1 C 2.5,1 2,1 2,1.5 l 0,8 c 0,0 0,0.5 0.5,0.5 l 5,0 C 7.5,10 8,10 8,9.5 l 0,-1 1.5,0 c 0,0 1,0 1,-1 l 0,-3 C 10.5,3.75 9.6324555,3.3162278 9,3 L 8,2.5 8,1.5 C 8,1 7.5,1 7.5,1 Z m 1,1 3,0 C 6.5,2 7,2 7,2.5 l 0,2 C 7,5 6.5,5 6.5,5 l -3,0 C 3,5 3,4.5 3,4.5 l 0,-2 C 3,2.5 3,2 3.5,2 Z M 4.25,3 C 4.1115,3 4,3.1115 4,3.25 l 0,0.5 C 4,3.8885 4.1115,4 4.25,4 4.3885,4 4.5,3.8885 4.5,3.75 l 0,-0.5 C 4.5,3.1115 4.3885,3 4.25,3 Z m 1.5,0 C 5.6115,3 5.5,3.1115 5.5,3.25 l 0,0.5 C 5.5,3.8885 5.6115,4 5.75,4 5.8885,4 6,3.8885 6,3.75 L 6,3.25 C 6,3.1115 5.8885,3 5.75,3 Z M 8,4 8.5,4 9.5,4.5 9.5,7 C 9.5,7.5 9,7.5 9,7.5 l -1,0 z" data-reactid=".0.1.1.$fuel-11=1svg50.0.0.3:$fuel-11=1svg-0-fill"></path></svg>