<?xml version="1.0" encoding="utf-8"?>
<!-- Generator: Adobe Illustrator 17.0.0, SVG Export Plug-In . SVG Version: 6.00 Build 0)  -->
<!DOCTYPE svg PUBLIC "-//W3C//DTD SVG 1.1//EN" "http://www.w3.org/Graphics/SVG/1.1/DTD/svg11.dtd">
<svg version="1.1"
	 id="svg4764" xmlns:dc="http://purl.org/dc/elements/1.1/" xmlns:cc="http://creativecommons.org/ns#" xmlns:rdf="http://www.w3.org/1999/02/22-rdf-syntax-ns#" xmlns:svg="http://www.w3.org/2000/svg" xmlns:inkscape="http://www.inkscape.org/namespaces/inkscape"
	 xmlns="http://www.w3.org/2000/svg" xmlns:xlink="http://www.w3.org/1999/xlink" x="0px" y="0px" width="12px" height="12px"
	 viewBox="0 0 12 12" enable-background="new 0 0 12 12" xml:space="preserve">
<g id="g3" opacity="0.3">
	<g id="g5">
		<path id="path7" inkscape:connector-curvature="0" fill="#FFFFFF" stroke="#FFFFFF" stroke-width="2" stroke-miterlimit="10" d="
			M3.5,4.998c-0.276,0-0.5,0.224-0.5,0.5v1.496L5.5,7V5.004L3.5,4.998z"/>
		<path id="path9" inkscape:connector-curvature="0" fill="#FFFFFF" stroke="#FFFFFF" stroke-width="2" stroke-miterlimit="10" d="
			M8.5,4.998c0.276,0,0.5,0.224,0.5,0.5v1.496L6.5,7V5.004L8.5,4.998z"/>
		<path id="path11" inkscape:connector-curvature="0" fill="#FFFFFF" stroke="#FFFFFF" stroke-width="2" stroke-miterlimit="10" d="
			M3.5,10C3.224,10,3,9.776,3,9.5V7.994L5.5,8v2.006L3.5,10z"/>
		<path id="path13" inkscape:connector-curvature="0" fill="#FFFFFF" stroke="#FFFFFF" stroke-width="2" stroke-miterlimit="10" d="
			M8.5,10C8.776,10,9,9.776,9,9.5V7.994L6.5,8v2.006L8.5,10z"/>
	</g>
	<path id="path15" inkscape:connector-curvature="0" fill="#FFFFFF" stroke="#FFFFFF" stroke-width="2" stroke-miterlimit="10" d="
		M7.531,2.002c-0.734,0-1.26,0.505-1.531,1C5.728,2.507,5.202,2,4.469,2C4.011,2,3.5,2.405,3.5,2.986
		c0,0.636,0.362,1.016,0.969,1.016l0,0l1.829,0.002h1.233c0.606,0,0.969-0.38,0.969-1.016C8.5,2.407,7.989,2.002,7.531,2.002z
		 M4.469,3.502C4.225,3.502,4,3.44,4,2.986C4,2.662,4.3,2.5,4.469,2.5c0.661,0,1.035,0.613,1.18,1L4.469,3.502L4.469,3.502z
		 M7.531,3.504h-1.18c0.146-0.388,0.519-1.002,1.18-1.002C7.699,2.502,8,2.664,8,2.988C8,3.441,7.775,3.504,7.531,3.504L7.531,3.504
		z"/>
</g>
<g id="g17">
	<g id="g19">
		<path id="path21" inkscape:connector-curvature="0" fill="#454545" d="M3.5,4.998c-0.276,0-0.5,0.224-0.5,0.5v1.496L5.5,7V5.004
			L3.5,4.998z"/>
		<path id="path23" inkscape:connector-curvature="0" fill="#454545" d="M8.5,4.998c0.276,0,0.5,0.224,0.5,0.5v1.496L6.5,7V5.004
			L8.5,4.998z"/>
		<path id="path25" inkscape:connector-curvature="0" fill="#454545" d="M3.5,10C3.224,10,3,9.776,3,9.5V7.994L5.5,8v2.006L3.5,10z"
			/>
		<path id="path27" inkscape:connector-curvature="0" fill="#454545" d="M8.5,10C8.776,10,9,9.776,9,9.5V7.994L6.5,8v2.006L8.5,10z"
			/>
	</g>
	<path id="path29" inkscape:connector-curvature="0" fill="#454545" d="M7.531,2.002c-0.734,0-1.26,0.505-1.531,1
		C5.728,2.507,5.202,2,4.469,2C4.011,2,3.5,2.405,3.5,2.986c0,0.636,0.362,1.016,0.969,1.016l0,0l1.829,0.002h1.233
		c0.606,0,0.969-0.38,0.969-1.016C8.5,2.407,7.989,2.002,7.531,2.002z M4.469,3.502C4.225,3.502,4,3.44,4,2.986
		C4,2.662,4.3,2.5,4.469,2.5c0.661,0,1.035,0.613,1.18,1L4.469,3.502L4.469,3.502z M7.531,3.504h-1.18
		c0.146-0.388,0.519-1.002,1.18-1.002C7.699,2.502,8,2.664,8,2.988C8,3.441,7.775,3.504,7.531,3.504L7.531,3.504z"/>
</g>
<rect id="canvas" display="none" fill="none" width="12" height="12"/>
</svg>
