<?xml version="1.0" encoding="utf-8"?>
<!-- Generator: Adobe Illustrator 17.0.0, SVG Export Plug-In . SVG Version: 6.00 Build 0)  -->
<!DOCTYPE svg PUBLIC "-//W3C//DTD SVG 1.1//EN" "http://www.w3.org/Graphics/SVG/1.1/DTD/svg11.dtd">
<svg version="1.1"
	 id="svg4460" xmlns:dc="http://purl.org/dc/elements/1.1/" xmlns:cc="http://creativecommons.org/ns#" xmlns:rdf="http://www.w3.org/1999/02/22-rdf-syntax-ns#" xmlns:svg="http://www.w3.org/2000/svg" xmlns:inkscape="http://www.inkscape.org/namespaces/inkscape"
	 xmlns="http://www.w3.org/2000/svg" xmlns:xlink="http://www.w3.org/1999/xlink" x="0px" y="0px" width="24px" height="24px"
	 viewBox="0 0 24 24" enable-background="new 0 0 24 24" xml:space="preserve">
<g id="g3" opacity="0.3">
	<path id="path5" inkscape:connector-curvature="0" fill="#FFFFFF" stroke="#FFFFFF" stroke-width="2" stroke-linejoin="round" d="
		M15,4c-1.516,0-2.619,0.904-3,2.236C11.618,4.904,10.549,4,9,4C8,4,7,4.7,7,6c0,1.299,0.61,2,1.909,2h2.902h0.305h2.901
		c1.298,0,1.984-0.686,1.984-1.984C17,4.716,16,4,15,4z M15,5c1,0,1,0.957,1,1s0.051,1-1,1h-2C13.107,6.281,13.379,5,15,5z M11,7H9
		C7.949,7,8,6.043,8,6S7.949,5,9,5C10.619,5,10.893,6.281,11,7z"/>
	<g id="g7">
		<path id="path9" inkscape:connector-curvature="0" fill="#FFFFFF" stroke="#FFFFFF" stroke-width="2" stroke-linejoin="round" d="
			M11,14v-4H7.5C6.671,10,6,10.672,6,11.5V14H11z"/>
		
			<path id="path11" inkscape:connector-curvature="0" fill="#FFFFFF" stroke="#FFFFFF" stroke-width="2" stroke-linejoin="round" d="
			M13,14h5v-2.5c0-0.828-0.671-1.5-1.5-1.5H13V14z"/>
		
			<path id="path13" inkscape:connector-curvature="0" fill="#FFFFFF" stroke="#FFFFFF" stroke-width="2" stroke-linejoin="round" d="
			M13,16v4h3.5c0.829,0,1.5-0.672,1.5-1.5V16H13z"/>
		
			<path id="path15" inkscape:connector-curvature="0" fill="#FFFFFF" stroke="#FFFFFF" stroke-width="2" stroke-linejoin="round" d="
			M11,16H6v2.5C6,19.328,6.671,20,7.5,20H11V16z"/>
	</g>
</g>
<g id="g17">
	<path id="path19" inkscape:connector-curvature="0" fill="#444444" d="M9,4C8,4,7,4.7,7,6c0,1.299,0.607,2,1.906,2h2.906h0.312
		h2.906C16.329,8,17,7.329,17,6.031C16.999,4.731,16,4,15,4c-1.516,0-2.619,0.918-3,2.25C11.618,4.918,10.549,4,9,4z M9,5
		c1.619,0,1.893,1.281,2,2H9C7.949,7,8,6.043,8,6S7.949,5,9,5z M15,5c1,0,1,0.957,1,1s0.051,1-1,1h-2C13.107,6.281,13.379,5,15,5z
		 M7.5,10C6.671,10,6,10.672,6,11.5V14h5v-4H7.5z M13,10v4h5v-2.5c0-0.828-0.671-1.5-1.5-1.5H13z M6,16v2.5
		C6,19.328,6.671,20,7.5,20H11v-4H6z M13,16v4h3.5c0.829,0,1.5-0.672,1.5-1.5V16H13z"/>
</g>
<rect id="canvas" display="none" fill="none" width="24" height="24"/>
</svg>
