<svg viewBox="-293 192 17 17" width="17" height="17" data-reactid=".0.1.1.$golf-15=1svg139.0.0"><path d="M-288.2,194.2
	l-0.1,0.3l-0.3,0.6c0,0.1,0,0.2,0,0.2c0,0.4,0.3,0.7,0.7,0.7c0.3,0,0.5-0.2,0.6-0.5c0,0,0,0,0,0l0.2-0.5l5.6,2.3l-3.9,2.7
	c-0.4,0.3-0.4,0.7-0.3,1.1l0.9,2.1l-1.3,3.9c-0.2,0.5,0.2,0.9,0.6,0.9c0.3,0,0.5-0.1,0.6-0.5l1.4-4l0.1,0.3v3.5c0,0,0,0.7,0.7,0.7
	s0.7-0.7,0.7-0.7V204c0-0.2,0-0.3-0.1-0.5l-1.4-3.4l2.7-1.9c0.2-0.2,0.4-0.3,0.4-0.6c0-0.3-0.2-0.5-0.4-0.6l-7.2-2.9
	C-287.9,194-288.1,194-288.2,194.2L-288.2,194.2z M-286.5,197c-0.8,0-1.5,0.7-1.5,1.5s0.7,1.5,1.5,1.5s1.5-0.7,1.5-1.5
	S-285.7,197-286.5,197z" style="stroke-linejoin:round;stroke-miterlimit:4px;" fill="#ffffff" stroke="#ffffff" stroke-width="2" opacity="0.3" data-reactid=".0.1.1.$golf-15=1svg139.0.0.2:$golf-15=1svg-0-fill"></path><path fill="#444" d="M-288.2,194.2
	l-0.1,0.3l-0.3,0.6c0,0.1,0,0.2,0,0.2c0,0.4,0.3,0.7,0.7,0.7c0.3,0,0.5-0.2,0.6-0.5c0,0,0,0,0,0l0.2-0.5l5.6,2.3l-3.9,2.7
	c-0.4,0.3-0.4,0.7-0.3,1.1l0.9,2.1l-1.3,3.9c-0.2,0.5,0.2,0.9,0.6,0.9c0.3,0,0.5-0.1,0.6-0.5l1.4-4l0.1,0.3v3.5c0,0,0,0.7,0.7,0.7
	s0.7-0.7,0.7-0.7V204c0-0.2,0-0.3-0.1-0.5l-1.4-3.4l2.7-1.9c0.2-0.2,0.4-0.3,0.4-0.6c0-0.3-0.2-0.5-0.4-0.6l-7.2-2.9
	C-287.9,194-288.1,194-288.2,194.2L-288.2,194.2z M-286.5,197c-0.8,0-1.5,0.7-1.5,1.5s0.7,1.5,1.5,1.5s1.5-0.7,1.5-1.5
	S-285.7,197-286.5,197z" data-reactid=".0.1.1.$golf-15=1svg139.0.0.3:$golf-15=1svg-0-fill"></path></svg>