<svg viewBox="-1 -1 13 13" width="13" height="13" data-reactid=".0.1.1.$hospital-11=1svg122.0.0"><path d="M10,4H7V1A1.08,1.08,0,0,0,6,0H5A1.08,1.08,0,0,0,4,1V4H1A1.08,1.08,0,0,0,0,5V6A1.08,1.08,0,0,0,1,7H4v3a1.08,1.08,0,0,0,1,1H6a1.08,1.08,0,0,0,1-1V7h3a1.08,1.08,0,0,0,1-1V5A1,1,0,0,0,10,4Z" style="stroke-linejoin:round;stroke-miterlimit:4px;" fill="#ffffff" stroke="#ffffff" stroke-width="2" opacity="0.3" data-reactid=".0.1.1.$hospital-11=1svg122.0.0.2:$hospital-11=1svg-0-fill"></path><path fill="#444" d="M10,4H7V1A1.08,1.08,0,0,0,6,0H5A1.08,1.08,0,0,0,4,1V4H1A1.08,1.08,0,0,0,0,5V6A1.08,1.08,0,0,0,1,7H4v3a1.08,1.08,0,0,0,1,1H6a1.08,1.08,0,0,0,1-1V7h3a1.08,1.08,0,0,0,1-1V5A1,1,0,0,0,10,4Z" data-reactid=".0.1.1.$hospital-11=1svg122.0.0.3:$hospital-11=1svg-0-fill"></path></svg>