<?xml version="1.0" encoding="utf-8"?>
<!-- Generator: Adobe Illustrator 17.0.0, SVG Export Plug-In . SVG Version: 6.00 Build 0)  -->
<!DOCTYPE svg PUBLIC "-//W3C//DTD SVG 1.1//EN" "http://www.w3.org/Graphics/SVG/1.1/DTD/svg11.dtd">
<svg version="1.1"
	 id="svg4619" xmlns:dc="http://purl.org/dc/elements/1.1/" xmlns:cc="http://creativecommons.org/ns#" xmlns:rdf="http://www.w3.org/1999/02/22-rdf-syntax-ns#" xmlns:svg="http://www.w3.org/2000/svg" xmlns:inkscape="http://www.inkscape.org/namespaces/inkscape"
	 xmlns="http://www.w3.org/2000/svg" xmlns:xlink="http://www.w3.org/1999/xlink" x="0px" y="0px" width="18px" height="18px"
	 viewBox="0 0 18 18" enable-background="new 0 0 18 18" xml:space="preserve">
<g id="ice-cream3_3_">
	<g id="g4">
		
			<path id="path6" inkscape:connector-curvature="0" opacity="0.3" fill="#FFFFFF" stroke="#FFFFFF" stroke-width="2" stroke-miterlimit="10" enable-background="new    " d="
			M12.5,8.503h-7c0,0,2.439,5.9,2.5,6c0.128,0.344,0.5,1,1,1s0.871-0.656,1-1C10.061,14.403,12.5,8.503,12.5,8.503z"/>
		
			<path id="path8" inkscape:connector-curvature="0" opacity="0.3" fill="#FFFFFF" stroke="#FFFFFF" stroke-width="2" stroke-miterlimit="10" enable-background="new    " d="
			M9.72,7.504c0.48-0.532,0.78-1.229,0.78-2.001c0-1.656-1.343-3-3-3s-3,1.344-3,3c0,0.772,0.3,1.469,0.78,2.001H9.72z"/>
		
			<path id="path10" inkscape:connector-curvature="0" opacity="0.3" fill="#FFFFFF" stroke="#FFFFFF" stroke-width="2" stroke-miterlimit="10" enable-background="new    " d="
			M10.946,7.504h1.774c0.48-0.532,0.78-1.229,0.78-2.001c0-1.656-1.343-3-3-3c-0.117,0-0.387-0.013-0.5,0
			c0.817,0.733,1.5,1.819,1.5,3C11.5,6.209,11.303,6.896,10.946,7.504z"/>
	</g>
	<path id="path12" inkscape:connector-curvature="0" fill="#464545" d="M9.72,7.504c0.48-0.532,0.78-1.229,0.78-2.001
		c0-1.656-1.343-3-3-3s-3,1.344-3,3c0,0.772,0.3,1.469,0.78,2.001H9.72z"/>
	<path id="path14" inkscape:connector-curvature="0" fill="#464545" d="M10.946,7.504h1.774c0.48-0.532,0.78-1.229,0.78-2.001
		c0-1.656-1.343-3-3-3c-0.117,0-0.387-0.013-0.5,0c0.817,0.733,1.5,1.819,1.5,3C11.5,6.209,11.303,6.896,10.946,7.504z"/>
	<path id="path16" inkscape:connector-curvature="0" fill="#464545" d="M12.5,8.503h-7c0,0,2.439,5.9,2.5,6c0.128,0.344,0.5,1,1,1
		s0.871-0.656,1-1C10.061,14.403,12.5,8.503,12.5,8.503z"/>
</g>
<rect id="canvas" display="none" fill="none" width="18" height="18"/>
</svg>
