<svg viewBox="-1 -1 13 13" width="13" height="13" data-reactid=".0.1.1.$laundry-11=1svg64.0.0"><path d="M 5 0 L 4 2 L 2 2 C 2 2 1 2 1 3 L 1 10 C 1 10 1 11 2 11 L 9 11 C 10 11 10 10 10 10 L 10 1 C 10 0 9 0 9 0 L 5 0 z M 6 1 L 9 1 L 9 2 L 6 2 L 6 1 z M 5.5 4 A 2.5 2.5 0 0 1 8 6.5 A 2.5 2.5 0 0 1 5.5 9 A 2.5 2.5 0 0 1 3 6.5 A 2.5 2.5 0 0 1 5.5 4 z " style="stroke-linejoin:round;stroke-miterlimit:4px;" fill="#ffffff" stroke="#ffffff" stroke-width="2" opacity="0.3" data-reactid=".0.1.1.$laundry-11=1svg64.0.0.2:$laundry-11=1svg-0-fill"></path><path fill="#444" d="M 5 0 L 4 2 L 2 2 C 2 2 1 2 1 3 L 1 10 C 1 10 1 11 2 11 L 9 11 C 10 11 10 10 10 10 L 10 1 C 10 0 9 0 9 0 L 5 0 z M 6 1 L 9 1 L 9 2 L 6 2 L 6 1 z M 5.5 4 A 2.5 2.5 0 0 1 8 6.5 A 2.5 2.5 0 0 1 5.5 9 A 2.5 2.5 0 0 1 3 6.5 A 2.5 2.5 0 0 1 5.5 4 z " data-reactid=".0.1.1.$laundry-11=1svg64.0.0.3:$laundry-11=1svg-0-fill"></path></svg>