<svg viewBox="-1 -1 13 13" width="13" height="13" data-reactid=".0.1.1.$lodging-11=1svg68.0.0"><path d="M 0.5 2 C 0.223 2 0 2.223 0 2.5 L 0 7.5 L 0 8.5 C 0 8.777 0.223 9 0.5 9 C 0.777 9 1 8.777 1 8.5 L 1 8 L 10 8 L 10 8.5 C 10 8.777 10.223 9 10.5 9 C 10.777 9 11 8.777 11 8.5 L 11 7.5 C 11 7.223 10.777 7 10.5 7 L 1 7 L 1 2.5 C 1 2.223 0.777 2 0.5 2 z M 2.5 2 A 1 1 0 0 0 1.5 3 A 1 1 0 0 0 2.5 4 A 1 1 0 0 0 3.5 3 A 1 1 0 0 0 2.5 2 z M 5 3 C 4 3 4 4 4 4 L 4 5 L 2 5 C 1.723 5 1.5 5.223 1.5 5.5 C 1.5 5.777 1.723 6 2 6 L 4.5 6 L 11 6 L 11 5 C 11 3 9 3 9 3 L 5 3 z " style="stroke-linejoin:round;stroke-miterlimit:4px;" fill="#ffffff" stroke="#ffffff" stroke-width="2" opacity="0.3" data-reactid=".0.1.1.$lodging-11=1svg68.0.0.2:$lodging-11=1svg-0-fill"></path><path fill="#444" d="M 0.5 2 C 0.223 2 0 2.223 0 2.5 L 0 7.5 L 0 8.5 C 0 8.777 0.223 9 0.5 9 C 0.777 9 1 8.777 1 8.5 L 1 8 L 10 8 L 10 8.5 C 10 8.777 10.223 9 10.5 9 C 10.777 9 11 8.777 11 8.5 L 11 7.5 C 11 7.223 10.777 7 10.5 7 L 1 7 L 1 2.5 C 1 2.223 0.777 2 0.5 2 z M 2.5 2 A 1 1 0 0 0 1.5 3 A 1 1 0 0 0 2.5 4 A 1 1 0 0 0 3.5 3 A 1 1 0 0 0 2.5 2 z M 5 3 C 4 3 4 4 4 4 L 4 5 L 2 5 C 1.723 5 1.5 5.223 1.5 5.5 C 1.5 5.777 1.723 6 2 6 L 4.5 6 L 11 6 L 11 5 C 11 3 9 3 9 3 L 5 3 z " data-reactid=".0.1.1.$lodging-11=1svg68.0.0.3:$lodging-11=1svg-0-fill"></path></svg>