<?xml version="1.0" encoding="utf-8"?>
<!-- Generator: Adobe Illustrator 17.0.0, SVG Export Plug-In . SVG Version: 6.00 Build 0)  -->
<!DOCTYPE svg PUBLIC "-//W3C//DTD SVG 1.1//EN" "http://www.w3.org/Graphics/SVG/1.1/DTD/svg11.dtd">
<svg version="1.1"
	 id="svg4460" xmlns:dc="http://purl.org/dc/elements/1.1/" xmlns:cc="http://creativecommons.org/ns#" xmlns:rdf="http://www.w3.org/1999/02/22-rdf-syntax-ns#" xmlns:svg="http://www.w3.org/2000/svg" xmlns:inkscape="http://www.inkscape.org/namespaces/inkscape"
	 xmlns="http://www.w3.org/2000/svg" xmlns:xlink="http://www.w3.org/1999/xlink" x="0px" y="0px" width="24px" height="24px"
	 viewBox="0 0 24 24" enable-background="new 0 0 24 24" xml:space="preserve">
<g id="layer1" transform="translate(0,-1028.3622)">
	<g id="minefield-24" transform="translate(-552,-94)">
		<g id="g13404">
			
				<path id="path13728" inkscape:connector-curvature="0" opacity="0.3" fill="#FFFFFF" stroke="#FFFFFF" stroke-width="2" stroke-linecap="round" stroke-linejoin="round" enable-background="new    " d="
				M564.5,1126.362l-2.5,7l-6-4l2,6.5c0.458,1.49,1,1.5,2,1.5h2v-1h5v1h2c1,0,1.506-0.431,2-1.5l2-6.5l-6,4L564.5,1126.362z
				 M563,1137.362v1c-2.216,0-4,0.669-4,1.5s1.784,1.5,4,1.5h3c2.216,0,4-0.669,4-1.5s-1.784-1.5-4-1.5v-1H563z"/>
			<path id="path10041-3-3-7" inkscape:connector-curvature="0" fill="#444444" d="M564.5,1126.362l-2.5,7l-6-4l2,6.5
				c0.458,1.49,1,1.5,2,1.5h2v-1h5v1h2c1,0,1.506-0.431,2-1.5l2-6.5l-6,4L564.5,1126.362z M563,1137.362v1c-2.216,0-4,0.669-4,1.5
				s1.784,1.5,4,1.5h3c2.216,0,4-0.669,4-1.5s-1.784-1.5-4-1.5v-1H563z"/>
		</g>
	</g>
</g>
<rect id="canvas" display="none" fill="none" width="24" height="24"/>
</svg>
