<?xml version="1.0" encoding="utf-8"?>
<!-- Generator: Adobe Illustrator 17.0.0, SVG Export Plug-In . SVG Version: 6.00 Build 0)  -->
<!DOCTYPE svg PUBLIC "-//W3C//DTD SVG 1.1//EN" "http://www.w3.org/Graphics/SVG/1.1/DTD/svg11.dtd">
<svg version="1.1"
	 id="svg4619" xmlns:dc="http://purl.org/dc/elements/1.1/" xmlns:cc="http://creativecommons.org/ns#" xmlns:rdf="http://www.w3.org/1999/02/22-rdf-syntax-ns#" xmlns:svg="http://www.w3.org/2000/svg" xmlns:inkscape="http://www.inkscape.org/namespaces/inkscape"
	 xmlns="http://www.w3.org/2000/svg" xmlns:xlink="http://www.w3.org/1999/xlink" x="0px" y="0px" width="18px" height="18px"
	 viewBox="0 0 18 18" enable-background="new 0 0 18 18" xml:space="preserve">
<g id="layer1" transform="translate(0,-1034.3622)">
	<g id="minefield-18" transform="translate(-576.00002,-88.000013)">
		<g id="g13408">
			
				<path id="path13769" inkscape:connector-curvature="0" opacity="0.3" fill="#FFFFFF" stroke="#FFFFFF" stroke-width="2" stroke-linecap="round" stroke-linejoin="round" enable-background="new    " d="
				M585.5,1124.362l-2,5.5l-4.5-3l1.406,5.25c0.377,1.227,0.833,1.25,1.656,1.25h1.438v-1h4v1h1.5c0.824,0,1.219-0.369,1.625-1.25
				l1.375-5.25l-4.5,3L585.5,1124.362z M584.5,1133.362v1.031c-2.003,0.152-3.5,0.755-3.5,1.469c0,0.828,2.015,1.5,4.5,1.5
				s4.5-0.672,4.5-1.5c0-0.714-1.497-1.317-3.5-1.469v-1.031H584.5z"/>
			<path id="path8994" inkscape:connector-curvature="0" fill="#444444" d="M585.5,1124.362l-2,5.5l-4.5-3l1.406,5.25
				c0.377,1.227,0.833,1.25,1.656,1.25h1.438v-1h4v1h1.5c0.824,0,1.219-0.369,1.625-1.25l1.375-5.25l-4.5,3L585.5,1124.362z
				 M584.5,1133.362v1.031c-2.003,0.152-3.5,0.755-3.5,1.469c0,0.828,2.015,1.5,4.5,1.5c0.446,0,0.877-0.022,1.284-0.062
				c1.859-0.184,3.216-0.758,3.216-1.438c0-0.714-1.497-1.317-3.5-1.469v-1.031H584.5z"/>
		</g>
	</g>
</g>
<rect id="canvas" display="none" fill="none" width="18" height="18"/>
</svg>
