<svg viewBox="-1 -1 14 14" width="14" height="14" data-reactid=".0.1.1.$museum-11=1svg102.0.0"><path fill="#49484a" d="M 5.5 0 L 1 2 L 1 3 L 10 3 L 10 2 L 5.5 0 z M 2 4 L 2 8 L 1 9 L 1 10 L 10 10 L 10 9 L 9 8 L 9 4 L 8.5 4 L 2.5 4 L 2 4 z M 3.4921875 5 A 0.50005 0.50005 0 0 1 3.8535156 5.1464844 L 5.5 6.7929688 L 7.1464844 5.1464844 A 0.50005 0.50005 0 0 1 8 5.5 L 8 8.5 A 0.50005 0.50005 0 1 1 7 8.5 L 7 6.7070312 L 5.8535156 7.8535156 A 0.50005 0.50005 0 0 1 5.1464844 7.8535156 L 4 6.7070312 L 4 8.5 A 0.50005 0.50005 0 1 1 3 8.5 L 3 5.5 A 0.50005 0.50005 0 0 1 3.4921875 5 z " data-reactid=".0.1.1.$museum-11=1svg102.0.0.3:$museum-11=1svg-0-fill"></path><path fill="#49484a" d="m 85.5,0.5 -4,1.5 0,1 8,0 0,-1 z m -3,3.5 -0.5,0 0,4 -0.5,1 0,1 8,0 0,-1 L 89,8 89,4 88.5,4 Z" data-reactid=".0.1.1.$museum-11=1svg102.0.0.3:$museum-11=1svg-1-fill"></path><path fill="#49484a" d="m 83.5,8.5 0,-3 2,2 2,-2 0,3" data-reactid=".0.1.1.$museum-11=1svg102.0.0.3:$museum-11=1svg-2-fill"></path><path fill="#49484a" d="M 5.5 0 L 1 2 L 1 3 L 10 3 L 10 2 L 5.5 0 z M 2 4 L 2 8 L 1 9 L 1 10 L 10 10 L 10 9 L 9 8 L 9 4 L 8.5 4 L 2.5 4 L 2 4 z M 3.4921875 5 A 0.50005 0.50005 0 0 1 3.8535156 5.1464844 L 5.5 6.7929688 L 7.1464844 5.1464844 A 0.50005 0.50005 0 0 1 8 5.5 L 8 8.5 A 0.50005 0.50005 0 1 1 7 8.5 L 7 6.7070312 L 5.8535156 7.8535156 A 0.50005 0.50005 0 0 1 5.1464844 7.8535156 L 4 6.7070312 L 4 8.5 A 0.50005 0.50005 0 1 1 3 8.5 L 3 5.5 A 0.50005 0.50005 0 0 1 3.4921875 5 z " data-reactid=".0.1.1.$museum-11=1svg102.0.0.3:$museum-11=1svg-3-fill"></path><path fill="#49484a" d="m 85.5,0.5 -4,1.5 0,1 8,0 0,-1 z m -3,3.5 -0.5,0 0,4 -0.5,1 0,1 8,0 0,-1 L 89,8 89,4 88.5,4 Z" data-reactid=".0.1.1.$museum-11=1svg102.0.0.3:$museum-11=1svg-4-fill"></path><path fill="#49484a" d="m 83.5,8.5 0,-3 2,2 2,-2 0,3" data-reactid=".0.1.1.$museum-11=1svg102.0.0.3:$museum-11=1svg-5-fill"></path></svg>