<svg viewBox="-1 -1 13 13" width="13" height="13" data-reactid=".0.1.1.$music-11=1svg76.0.0"><path d="M 10,0 3,1.5 3,4 3,7 A 2,2 0 0 0 1,9 2,2 0 0 0 3,11 2,2 0 0 0 5,9 L 5,3.7148438 8,3.2851562 8,6 a 2,2 0 0 0 -2,2 2,2 0 0 0 2,2 2,2 0 0 0 2,-2 l 0,-5 0,-3 z" style="stroke-linejoin:round;stroke-miterlimit:4px;" fill="#ffffff" stroke="#ffffff" stroke-width="2" opacity="0.3" data-reactid=".0.1.1.$music-11=1svg76.0.0.2:$music-11=1svg-0-fill"></path><path fill="#444" d="M 10,0 3,1.5 3,4 3,7 A 2,2 0 0 0 1,9 2,2 0 0 0 3,11 2,2 0 0 0 5,9 L 5,3.7148438 8,3.2851562 8,6 a 2,2 0 0 0 -2,2 2,2 0 0 0 2,2 2,2 0 0 0 2,-2 l 0,-5 0,-3 z" data-reactid=".0.1.1.$music-11=1svg76.0.0.3:$music-11=1svg-0-fill"></path></svg>