<svg viewBox="-1 -1 13 13" width="13" height="13" data-reactid=".0.1.1.$police-11=1svg80.0.0"><path d="m 4.5,0.5 0.5,1 3,0 0.5,-1 z M 5,2 5,3 C 5,3.8284271 5.6715729,4.5 6.5,4.5 7.3284271,4.5 8,3.8284271 8,3 L 8,2 Z M 1.75,3 C 1,3 1,3.75 1,3.75 l 0,3 c 5.63e-4,0.5060345 0.4917804,0.8663252 0.9746094,0.7148438 L 4,6.8261719 4,10 8,5 5,5 c 0,0 -0.1945181,-8e-7 -0.4238281,0.072266 L 2.5,5.7265625 2.5,3.75 C 2.5,3.75 2.5,3 1.75,3 Z M 8.7714844,5.3886719 5,10 9,10 9,6 C 9,5.7647841 8.9064124,5.5590809 8.7714844,5.3886719 Z" style="stroke-linejoin:round;stroke-miterlimit:4px;" fill="#ffffff" stroke="#ffffff" stroke-width="2" opacity="0.3" data-reactid=".0.1.1.$police-11=1svg80.0.0.2:$police-11=1svg-0-fill"></path><path fill="#444" d="m 4.5,0.5 0.5,1 3,0 0.5,-1 z M 5,2 5,3 C 5,3.8284271 5.6715729,4.5 6.5,4.5 7.3284271,4.5 8,3.8284271 8,3 L 8,2 Z M 1.75,3 C 1,3 1,3.75 1,3.75 l 0,3 c 5.63e-4,0.5060345 0.4917804,0.8663252 0.9746094,0.7148438 L 4,6.8261719 4,10 8,5 5,5 c 0,0 -0.1945181,-8e-7 -0.4238281,0.072266 L 2.5,5.7265625 2.5,3.75 C 2.5,3.75 2.5,3 1.75,3 Z M 8.7714844,5.3886719 5,10 9,10 9,6 C 9,5.7647841 8.9064124,5.5590809 8.7714844,5.3886719 Z" data-reactid=".0.1.1.$police-11=1svg80.0.0.3:$police-11=1svg-0-fill"></path></svg>