<svg viewBox="-1 -1 13 13" width="13" height="13" data-reactid=".0.1.1.$rail-light-11=1svg164.0.0"><path d="M 4,0 C 3.5,0 3.5,0.5 3.5,0.5 3.5,0.5 3.5,1 4,1 L 5,1 5,1.9707031 4,2 C 4,2 3,2 3,3 L 3,6 C 3,8 5,8 5,8 L 6,8 C 6,8 8,8 8,6 L 8,3 C 8,2 7,2 7,2 L 6,2 6,1 7,1 C 7.5,1 7.5,0.5 7.5,0.5 7.5,0.5 7.5,0 7,0 Z M 5.5,3 7,3.5 7,5 5.5,5 4,5 4,3.5 Z m 0,3 C 5.777,6 6,6.223 6,6.5 6,6.777 5.777,7 5.5,7 5.223,7 5,6.777 5,6.5 5,6.223 5.223,6 5.5,6 Z M 2.833984,8.5 2,11 3.5,11 3.833984,10 7.166016,10 7.5,11 9,11 8.166016,8.5 6.667969,8.5 6.833984,9 4.166016,9 4.332031,8.5 Z" style="stroke-linejoin:round;stroke-miterlimit:4px;" fill="#ffffff" stroke="#ffffff" stroke-width="2" opacity="0.3" data-reactid=".0.1.1.$rail-light-11=1svg164.0.0.2:$rail-light-11=1svg-0-fill"></path><path fill="#444" d="M 4,0 C 3.5,0 3.5,0.5 3.5,0.5 3.5,0.5 3.5,1 4,1 L 5,1 5,1.9707031 4,2 C 4,2 3,2 3,3 L 3,6 C 3,8 5,8 5,8 L 6,8 C 6,8 8,8 8,6 L 8,3 C 8,2 7,2 7,2 L 6,2 6,1 7,1 C 7.5,1 7.5,0.5 7.5,0.5 7.5,0.5 7.5,0 7,0 Z M 5.5,3 7,3.5 7,5 5.5,5 4,5 4,3.5 Z m 0,3 C 5.777,6 6,6.223 6,6.5 6,6.777 5.777,7 5.5,7 5.223,7 5,6.777 5,6.5 5,6.223 5.223,6 5.5,6 Z M 2.833984,8.5 2,11 3.5,11 3.833984,10 7.166016,10 7.5,11 9,11 8.166016,8.5 6.667969,8.5 6.833984,9 4.166016,9 4.332031,8.5 Z" data-reactid=".0.1.1.$rail-light-11=1svg164.0.0.3:$rail-light-11=1svg-0-fill"></path></svg>