<svg viewBox="-1 -1 17 17" width="17" height="17" data-reactid=".0.1.1.$rail-metro-15=1svg167.0.0"><path d="M 5.5 0 C 5.5 0 4.75 0 4.5 1 L 3 6.5 L 3 10 C 3 11 4 11 4 11 L 11 11 C 11 11 12 11 12 10 L 12 6.5 L 10.5 1 C 10.227273 0 9.5 0 9.5 0 L 5.5 0 z M 6.5 1.5 L 8.5 1.5 C 8.5 1.5 9.0357143 1.5 9.25 2.5 L 10 6 C 10.21464 7.0016547 9 7 9 7 L 6 7 C 6 7 4.7853597 7.0016548 5 6 L 5.75 2.5 C 5.9642857 1.5 6.5 1.5 6.5 1.5 z M 5 8 A 1 1 0 0 1 6 9 A 1 1 0 0 1 5 10 A 1 1 0 0 1 4 9 A 1 1 0 0 1 5 8 z M 6.75 8 L 8.25 8 C 8.3885 8 8.5 8.1115 8.5 8.25 C 8.5 8.3885 8.3885 8.5 8.25 8.5 L 6.75 8.5 C 6.6115 8.5 6.5 8.3885 6.5 8.25 C 6.5 8.1115 6.6115 8 6.75 8 z M 10 8 A 1 1 0 0 1 11 9 A 1 1 0 0 1 10 10 A 1 1 0 0 1 9 9 A 1 1 0 0 1 10 8 z M 4.125 12 L 3 15 L 4.5 15 L 4.875 14 L 10.125 14 L 10.5 15 L 12 15 L 10.875 12 L 9.375 12 L 9.75 13 L 5.25 13 L 5.625 12 L 4.125 12 z " style="stroke-linejoin:round;stroke-miterlimit:4px;" fill="#ffffff" stroke="#ffffff" stroke-width="2" opacity="0.3" data-reactid=".0.1.1.$rail-metro-15=1svg167.0.0.2:$rail-metro-15=1svg-0-fill"></path><path fill="#444" d="M 5.5 0 C 5.5 0 4.75 0 4.5 1 L 3 6.5 L 3 10 C 3 11 4 11 4 11 L 11 11 C 11 11 12 11 12 10 L 12 6.5 L 10.5 1 C 10.227273 0 9.5 0 9.5 0 L 5.5 0 z M 6.5 1.5 L 8.5 1.5 C 8.5 1.5 9.0357143 1.5 9.25 2.5 L 10 6 C 10.21464 7.0016547 9 7 9 7 L 6 7 C 6 7 4.7853597 7.0016548 5 6 L 5.75 2.5 C 5.9642857 1.5 6.5 1.5 6.5 1.5 z M 5 8 A 1 1 0 0 1 6 9 A 1 1 0 0 1 5 10 A 1 1 0 0 1 4 9 A 1 1 0 0 1 5 8 z M 6.75 8 L 8.25 8 C 8.3885 8 8.5 8.1115 8.5 8.25 C 8.5 8.3885 8.3885 8.5 8.25 8.5 L 6.75 8.5 C 6.6115 8.5 6.5 8.3885 6.5 8.25 C 6.5 8.1115 6.6115 8 6.75 8 z M 10 8 A 1 1 0 0 1 11 9 A 1 1 0 0 1 10 10 A 1 1 0 0 1 9 9 A 1 1 0 0 1 10 8 z M 4.125 12 L 3 15 L 4.5 15 L 4.875 14 L 10.125 14 L 10.5 15 L 12 15 L 10.875 12 L 9.375 12 L 9.75 13 L 5.25 13 L 5.625 12 L 4.125 12 z " data-reactid=".0.1.1.$rail-metro-15=1svg167.0.0.3:$rail-metro-15=1svg-0-fill"></path></svg>