<svg viewBox="-1 -1 13 13" width="13" height="13" data-reactid=".0.1.1.$restaurant-11=1svg8.0.0"><path d="M 2.25 0 L 1.75 3.5 C 1.6792893 3.9949747 2.9907703 4.900071 3 5.5 L 3 11 L 4 11 L 4 5.5 C 4 4.9 5.3207107 3.9949747 5.25 3.5 L 4.75 0 L 4.25 0 L 4.5 2.75 L 3.75 3.25 L 3.75 0 L 3.25 0 L 3.25 3.25 L 2.5 2.75 L 2.75 0 L 2.25 0 z M 9 0 C 7.5 0 7.006423 1.724243 7 3 L 7 6 L 8 6 L 8 11 L 9 11 L 9 0 z " style="stroke-linejoin:round;stroke-miterlimit:4px;" fill="#ffffff" stroke="#ffffff" stroke-width="2" opacity="0.3" data-reactid=".0.1.1.$restaurant-11=1svg8.0.0.2:$restaurant-11=1svg-0-fill"></path><path fill="#444" d="M 2.25 0 L 1.75 3.5 C 1.6792893 3.9949747 2.9907703 4.900071 3 5.5 L 3 11 L 4 11 L 4 5.5 C 4 4.9 5.3207107 3.9949747 5.25 3.5 L 4.75 0 L 4.25 0 L 4.5 2.75 L 3.75 3.25 L 3.75 0 L 3.25 0 L 3.25 3.25 L 2.5 2.75 L 2.75 0 L 2.25 0 z M 9 0 C 7.5 0 7.006423 1.724243 7 3 L 7 6 L 8 6 L 8 11 L 9 11 L 9 0 z " data-reactid=".0.1.1.$restaurant-11=1svg8.0.0.3:$restaurant-11=1svg-0-fill"></path></svg>