<?xml version="1.0" encoding="utf-8"?>
<!-- Generator: Adobe Illustrator 17.0.0, SVG Export Plug-In . SVG Version: 6.00 Build 0)  -->
<!DOCTYPE svg PUBLIC "-//W3C//DTD SVG 1.1//EN" "http://www.w3.org/Graphics/SVG/1.1/DTD/svg11.dtd">
<svg version="1.1"
	 id="svg4460" xmlns:dc="http://purl.org/dc/elements/1.1/" xmlns:cc="http://creativecommons.org/ns#" xmlns:rdf="http://www.w3.org/1999/02/22-rdf-syntax-ns#" xmlns:svg="http://www.w3.org/2000/svg" xmlns:inkscape="http://www.inkscape.org/namespaces/inkscape"
	 xmlns="http://www.w3.org/2000/svg" xmlns:xlink="http://www.w3.org/1999/xlink" x="0px" y="0px" width="24px" height="24px"
	 viewBox="0 0 24 24" enable-background="new 0 0 24 24" xml:space="preserve">
<g id="layer1" transform="translate(0,-1028.3622)">
</g>
<path id="path17" inkscape:connector-curvature="0" opacity="0.3" fill="#FFFFFF" stroke="#FFFFFF" stroke-width="2" stroke-miterlimit="10" enable-background="new    " d="
	M19.5,7.5h-4v-2c0-0.553-0.448-1-1-1h-5c-0.552,0-1,0.447-1,1v2h-4c-0.552,0-1,0.447-1,1v10c0,0.553,0.448,1,1,1h15
	c0.552,0,1-0.447,1-1v-10C20.5,7.947,20.052,7.5,19.5,7.5z"/>
<path id="path19" inkscape:connector-curvature="0" fill="#454545" d="M19.5,7.5h-4v-2c0-0.553-0.448-1-1-1h-5c-0.552,0-1,0.447-1,1
	v2h-4c-0.552,0-1,0.447-1,1v10c0,0.553,0.448,1,1,1h15c0.552,0,1-0.447,1-1v-10C20.5,7.947,20.052,7.5,19.5,7.5z M7.5,18.5h-1v-10h1
	V18.5z M14.5,7.5h-5v-2h5V7.5z M17.5,18.5h-1v-10h1V18.5z"/>
<rect id="canvas" display="none" fill="none" width="24" height="24"/>
</svg>
