<svg viewBox="-1 -1 17 17" width="17" height="17" data-reactid=".0.1.1.$suitcase-15=1svg101.0.0"><path d="M 11,4 11,2 C 11,1 10,1 10,1 L 5.0497046,1 C 5.0497046,1 3.9458423,1.00147 4,2 L 4,4 2,4 C 2,4 1,4 1,5 l 0,7 c 0,1 1,1 1,1 l 11,0 c 0,0 1,0 1,-1 L 14,5 C 14,4 13,4 13,4 Z m -5.5,-1.5 4,0 0,1.5 -4,0 z" style="stroke-linejoin:round;stroke-miterlimit:4px;" fill="#ffffff" stroke="#ffffff" stroke-width="2" opacity="0.3" data-reactid=".0.1.1.$suitcase-15=1svg101.0.0.2:$suitcase-15=1svg-0-fill"></path><path fill="#444" d="M 11,4 11,2 C 11,1 10,1 10,1 L 5.0497046,1 C 5.0497046,1 3.9458423,1.00147 4,2 L 4,4 2,4 C 2,4 1,4 1,5 l 0,7 c 0,1 1,1 1,1 l 11,0 c 0,0 1,0 1,-1 L 14,5 C 14,4 13,4 13,4 Z m -5.5,-1.5 4,0 0,1.5 -4,0 z" data-reactid=".0.1.1.$suitcase-15=1svg101.0.0.3:$suitcase-15=1svg-0-fill"></path></svg>