<svg viewBox="-295 194 13 13" width="13" height="13" data-reactid=".0.1.1.$sushi-11=1svg102.0.0"><path d="M-290.5,197.5c-0.3,0-0.5,0.2-0.5,0.5c0,0,0,0,0,0h-0.9c-1.1,0-2,0.8-2,1.9c0,0.5,0.3,1,0.7,1.4
	c-0.5,0.3-0.8,0.7-0.8,1.3c0,0.8,0.7,1.5,1.6,1.5h1.9h2h1.9c0.9,0,1.6-0.7,1.6-1.5c0-0.2,0-0.4-0.1-0.6l1,0.5c0.4,0.2,0.8,0,1-0.3
	c0.2-0.4,0-0.8-0.3-1c0,0,0,0-0.1,0l-0.7-0.3l0.5-0.1c0.4-0.1,0.7-0.4,0.6-0.8c-0.1-0.4-0.4-0.6-0.8-0.6c0,0,0,0,0,0
	c0,0-0.1,0-0.1,0l-1.6,0.3c-0.4-0.7-1.2-1.3-2.5-1.4v0c0-0.3-0.2-0.5-0.5-0.5c0,0,0,0,0,0H-290.5z M-290,198.5h1v4.5h0v0h-1v0h0
	V198.5z M-287,201c0.2,0,0.3,0.1,0.4,0.3l0.1-0.1c0.1-0.2,0.3-0.2,0.5-0.1s0.2,0.3,0.1,0.5l-0.3,0.5c0.1,0.1,0.2,0.2,0.2,0.4
	c0,0.3-0.2,0.5-0.6,0.5h-1.4v-1h0.7v-0.6C-287.3,201.2-287.2,201-287,201z M-292.1,201.1c0.1,0,0.3,0,0.4,0.2l0.1,0.2
	c0.1-0.1,0.2-0.1,0.3-0.1c0.2,0,0.3,0.2,0.3,0.3v0.8c0,0,0,0,0,0v0.5h-1.4c-0.4,0-0.6-0.2-0.6-0.5s0.2-0.5,0.6-0.5h0.3l-0.2-0.4
	c-0.1-0.2,0-0.4,0.1-0.5C-292.2,201.1-292.2,201.1-292.1,201.1z" style="stroke-linejoin:round;stroke-miterlimit:4px;" fill="#ffffff" stroke="#ffffff" stroke-width="2" opacity="0.3" data-reactid=".0.1.1.$sushi-11=1svg102.0.0.2:$sushi-11=1svg-0-fill"></path><path fill="#444" d="M-290.5,197.5c-0.3,0-0.5,0.2-0.5,0.5c0,0,0,0,0,0h-0.9c-1.1,0-2,0.8-2,1.9c0,0.5,0.3,1,0.7,1.4
	c-0.5,0.3-0.8,0.7-0.8,1.3c0,0.8,0.7,1.5,1.6,1.5h1.9h2h1.9c0.9,0,1.6-0.7,1.6-1.5c0-0.2,0-0.4-0.1-0.6l1,0.5c0.4,0.2,0.8,0,1-0.3
	c0.2-0.4,0-0.8-0.3-1c0,0,0,0-0.1,0l-0.7-0.3l0.5-0.1c0.4-0.1,0.7-0.4,0.6-0.8c-0.1-0.4-0.4-0.6-0.8-0.6c0,0,0,0,0,0
	c0,0-0.1,0-0.1,0l-1.6,0.3c-0.4-0.7-1.2-1.3-2.5-1.4v0c0-0.3-0.2-0.5-0.5-0.5c0,0,0,0,0,0H-290.5z M-290,198.5h1v4.5h0v0h-1v0h0
	V198.5z M-287,201c0.2,0,0.3,0.1,0.4,0.3l0.1-0.1c0.1-0.2,0.3-0.2,0.5-0.1s0.2,0.3,0.1,0.5l-0.3,0.5c0.1,0.1,0.2,0.2,0.2,0.4
	c0,0.3-0.2,0.5-0.6,0.5h-1.4v-1h0.7v-0.6C-287.3,201.2-287.2,201-287,201z M-292.1,201.1c0.1,0,0.3,0,0.4,0.2l0.1,0.2
	c0.1-0.1,0.2-0.1,0.3-0.1c0.2,0,0.3,0.2,0.3,0.3v0.8c0,0,0,0,0,0v0.5h-1.4c-0.4,0-0.6-0.2-0.6-0.5s0.2-0.5,0.6-0.5h0.3l-0.2-0.4
	c-0.1-0.2,0-0.4,0.1-0.5C-292.2,201.1-292.2,201.1-292.1,201.1z" data-reactid=".0.1.1.$sushi-11=1svg102.0.0.3:$sushi-11=1svg-0-fill"></path></svg>