<svg viewBox="-1 -1 17 17" width="17" height="17" data-reactid=".0.1.1.$triangle-15=1svg113.0.0"><path d="M 7.5384615,2 C 7.2437327,2 7.0501913,2.1772183 6.9230769,2.3846154 L 1.0769231,11.923077 C 1,12 1,12.153846 1,12.307692 1,12.846154 1.3846154,13 1.6923077,13 L 13.307692,13 C 13.692308,13 14,12.846154 14,12.307692 14,12.153846 14,12.076923 13.92308,11.923077 L 8.1538462,2.3846154 C 8.0279542,2.176474 7.7882472,2 7.5384615,2 Z" style="stroke-linejoin:round;stroke-miterlimit:4px;" fill="#ffffff" stroke="#ffffff" stroke-width="2" opacity="0.3" data-reactid=".0.1.1.$triangle-15=1svg113.0.0.2:$triangle-15=1svg-0-fill"></path><path fill="#444" d="M 7.5384615,2 C 7.2437327,2 7.0501913,2.1772183 6.9230769,2.3846154 L 1.0769231,11.923077 C 1,12 1,12.153846 1,12.307692 1,12.846154 1.3846154,13 1.6923077,13 L 13.307692,13 C 13.692308,13 14,12.846154 14,12.307692 14,12.153846 14,12.076923 13.92308,11.923077 L 8.1538462,2.3846154 C 8.0279542,2.176474 7.7882472,2 7.5384615,2 Z" data-reactid=".0.1.1.$triangle-15=1svg113.0.0.3:$triangle-15=1svg-0-fill"></path></svg>