<?xml version="1.0" encoding="utf-8"?>
<!-- Generator: Adobe Illustrator 17.0.0, SVG Export Plug-In . SVG Version: 6.00 Build 0)  -->
<!DOCTYPE svg PUBLIC "-//W3C//DTD SVG 1.1//EN" "http://www.w3.org/Graphics/SVG/1.1/DTD/svg11.dtd">
<svg version="1.1"
	 id="svg4619" xmlns:dc="http://purl.org/dc/elements/1.1/" xmlns:cc="http://creativecommons.org/ns#" xmlns:rdf="http://www.w3.org/1999/02/22-rdf-syntax-ns#" xmlns:svg="http://www.w3.org/2000/svg" xmlns:inkscape="http://www.inkscape.org/namespaces/inkscape"
	 xmlns="http://www.w3.org/2000/svg" xmlns:xlink="http://www.w3.org/1999/xlink" x="0px" y="0px" width="18px" height="18px"
	 viewBox="0 0 18 18" enable-background="new 0 0 18 18" xml:space="preserve">
<g id="layer1" transform="translate(0,-1034.3622)">
	<g id="triangle-18" transform="translate(48,-136)">
		<g id="g21918">
			
				<path id="path21112" inkscape:connector-curvature="0" opacity="0.3" fill="#444444" stroke="#FFFFFF" stroke-width="2" enable-background="new    " d="
				M-38.5,1173.362c-0.361,0-0.524,0.173-0.632,0.361l-5.778,10.556c-0.064,0.111-0.09,0.236-0.09,0.361
				c0,0.542,0.361,0.722,0.722,0.722h11.556c0.361,0,0.722-0.181,0.722-0.722c0-0.124-0.027-0.25-0.09-0.361l-5.778-10.556
				C-37.976,1173.535-38.139,1173.362-38.5,1173.362L-38.5,1173.362z"/>
			<path id="path21090-9" inkscape:connector-curvature="0" fill="#444444" d="M-38.5,1173.362c-0.361,0-0.524,0.173-0.632,0.361
				l-5.778,10.556c-0.064,0.111-0.09,0.236-0.09,0.361c0,0.542,0.361,0.722,0.722,0.722h11.556c0.361,0,0.722-0.181,0.722-0.722
				c0-0.124-0.027-0.25-0.09-0.361l-5.778-10.556C-37.976,1173.535-38.139,1173.362-38.5,1173.362L-38.5,1173.362z"/>
		</g>
	</g>
</g>
<rect id="canvas" display="none" fill="none" width="18" height="18"/>
</svg>
