<svg viewBox="-1 -1 13 13" width="13" height="13" data-reactid=".0.1.1.$triangle-stroked-11=1svg114.0.0"><path d="M 5.5173604,1.2314962 C 5.3163251,1.225303 5.1276312,1.3279986 5.024009,1.5 L 1.0240103,8.1598422 C 0.8012699,8.5292962 1.0678923,8.9999049 1.5,9 l 8,0 C 9.9321088,8.9999067 10.198733,8.5292971 9.975992,8.1598422 L 5.9759891,1.5 C 5.8787472,1.3385786 5.7060218,1.2374567 5.5173604,1.2314962 Z m -0.017362,1.6312331 3.0190852,5.0286092 -6.0381683,0 z" style="stroke-linejoin:round;stroke-miterlimit:4px;" fill="#ffffff" stroke="#ffffff" stroke-width="2" opacity="0.3" data-reactid=".0.1.1.$triangle-stroked-11=1svg114.0.0.2:$triangle-stroked-11=1svg-0-fill"></path><path fill="#444" d="M 5.5173604,1.2314962 C 5.3163251,1.225303 5.1276312,1.3279986 5.024009,1.5 L 1.0240103,8.1598422 C 0.8012699,8.5292962 1.0678923,8.9999049 1.5,9 l 8,0 C 9.9321088,8.9999067 10.198733,8.5292971 9.975992,8.1598422 L 5.9759891,1.5 C 5.8787472,1.3385786 5.7060218,1.2374567 5.5173604,1.2314962 Z m -0.017362,1.6312331 3.0190852,5.0286092 -6.0381683,0 z" data-reactid=".0.1.1.$triangle-stroked-11=1svg114.0.0.3:$triangle-stroked-11=1svg-0-fill"></path></svg>