<svg viewBox="-1 -1 13 13" width="13" height="13" data-reactid=".0.1.1.$volcano-11=1svg148.0.0"><path d="M 3 1 L 4.5 4 L 6.5 4 L 8 3 L 8 2 L 6 3 L 6 1 L 5.5 1 L 5 2.5 L 3.5 1 L 3 1 z M 3.5214844 5 L 1.0234375 9.1601562 C 0.8006975 9.5296104 1.067892 9.999905 1.5 10 L 9.5 10 C 9.932109 9.999907 10.199303 9.5296112 9.9765625 9.1601562 L 7.4785156 5 L 7 5 L 7 5.5 C 7 5.777 6.777 6 6.5 6 C 6.223 6 6 5.777 6 5.5 A 0.5 0.5 0 0 0 5.5 5 A 0.5 0.5 0 0 0 5 5.5 L 5 7.5 C 5 7.777 4.777 8 4.5 8 C 4.223 8 4 7.777 4 7.5 L 4 5 L 3.5214844 5 z " style="stroke-linejoin:round;stroke-miterlimit:4px;" fill="#ffffff" stroke="#ffffff" stroke-width="2" opacity="0.3" data-reactid=".0.1.1.$volcano-11=1svg148.0.0.2:$volcano-11=1svg-0-fill"></path><path fill="#444" d="M 3 1 L 4.5 4 L 6.5 4 L 8 3 L 8 2 L 6 3 L 6 1 L 5.5 1 L 5 2.5 L 3.5 1 L 3 1 z M 3.5214844 5 L 1.0234375 9.1601562 C 0.8006975 9.5296104 1.067892 9.999905 1.5 10 L 9.5 10 C 9.932109 9.999907 10.199303 9.5296112 9.9765625 9.1601562 L 7.4785156 5 L 7 5 L 7 5.5 C 7 5.777 6.777 6 6.5 6 C 6.223 6 6 5.777 6 5.5 A 0.5 0.5 0 0 0 5.5 5 A 0.5 0.5 0 0 0 5 5.5 L 5 7.5 C 5 7.777 4.777 8 4.5 8 C 4.223 8 4 7.777 4 7.5 L 4 5 L 3.5214844 5 z " data-reactid=".0.1.1.$volcano-11=1svg148.0.0.3:$volcano-11=1svg-0-fill"></path></svg>