<svg viewBox="-1 -1 13 13" width="13" height="13" data-reactid=".0.1.1.$amusement-park-11=1svg16.0.0"><path d="M 5.5 1 C 3.0206411 1 1.0000001 3.0206411 1 5.5 C 1 7.2919137 2.0626988 8.8316373 3.5839844 9.5546875 L 2.5 11 L 8.5 11 L 7.4160156 9.5546875 C 8.9373012 8.8316373 10 7.2919137 10 5.5 C 9.9999999 3.0206411 7.9793589 1 5.5 1 z M 5.375 2.0117188 L 5.375 4.0058594 A 1.4999999 1.4999999 0 0 0 4.53125 4.3554688 L 3.1191406 2.9433594 C 3.7146264 2.388833 4.5012587 2.0428109 5.375 2.0117188 z M 5.625 2.0117188 C 6.4987413 2.0428109 7.2853736 2.388833 7.8808594 2.9433594 L 6.46875 4.3554688 A 1.4999999 1.4999999 0 0 1 6.4667969 4.3535156 A 1.4999999 1.4999999 0 0 0 5.625 4.0058594 L 5.625 2.0117188 z M 2.9433594 3.1191406 L 4.3554688 4.53125 A 1.4999999 1.4999999 0 0 1 4.3535156 4.5332031 A 1.4999999 1.4999999 0 0 0 4.0058594 5.375 L 2.0117188 5.375 C 2.0428109 4.5012587 2.388833 3.7146264 2.9433594 3.1191406 z M 8.0566406 3.1191406 C 8.611167 3.7146264 8.9571891 4.5012587 8.9882812 5.375 L 6.9941406 5.375 A 1.4999999 1.4999999 0 0 0 6.6445312 4.53125 L 8.0566406 3.1191406 z M 2.0117188 5.625 L 4.0058594 5.625 A 1.4999999 1.4999999 0 0 0 4.3554688 6.46875 L 2.9433594 7.8808594 C 2.388833 7.2853736 2.0428109 6.4987413 2.0117188 5.625 z M 6.9941406 5.625 L 8.9882812 5.625 C 8.9571891 6.4987413 8.611167 7.2853736 8.0566406 7.8808594 L 6.6445312 6.46875 A 1.4999999 1.4999999 0 0 1 6.6464844 6.4667969 A 1.4999999 1.4999999 0 0 0 6.9941406 5.625 z M 4.53125 6.6445312 A 1.4999999 1.4999999 0 0 1 4.5332031 6.6464844 A 1.4999999 1.4999999 0 0 0 5 6.9121094 L 5 8.9511719 C 4.2764777 8.8475886 3.6278014 8.5303141 3.1191406 8.0566406 L 4.53125 6.6445312 z M 6.46875 6.6445312 L 7.8808594 8.0566406 C 7.3721986 8.5303141 6.7235223 8.8475886 6 8.9511719 L 6 6.9121094 A 1.4999999 1.4999999 0 0 0 6.46875 6.6445312 z " style="stroke-linejoin:round;stroke-miterlimit:4px;" fill="#ffffff" stroke="#ffffff" stroke-width="2" opacity="0.3" data-reactid=".0.1.1.$amusement-park-11=1svg16.0.0.2:$amusement-park-11=1svg-0-fill"></path><path fill="#444" d="M 5.5 1 C 3.0206411 1 1.0000001 3.0206411 1 5.5 C 1 7.2919137 2.0626988 8.8316373 3.5839844 9.5546875 L 2.5 11 L 8.5 11 L 7.4160156 9.5546875 C 8.9373012 8.8316373 10 7.2919137 10 5.5 C 9.9999999 3.0206411 7.9793589 1 5.5 1 z M 5.375 2.0117188 L 5.375 4.0058594 A 1.4999999 1.4999999 0 0 0 4.53125 4.3554688 L 3.1191406 2.9433594 C 3.7146264 2.388833 4.5012587 2.0428109 5.375 2.0117188 z M 5.625 2.0117188 C 6.4987413 2.0428109 7.2853736 2.388833 7.8808594 2.9433594 L 6.46875 4.3554688 A 1.4999999 1.4999999 0 0 1 6.4667969 4.3535156 A 1.4999999 1.4999999 0 0 0 5.625 4.0058594 L 5.625 2.0117188 z M 2.9433594 3.1191406 L 4.3554688 4.53125 A 1.4999999 1.4999999 0 0 1 4.3535156 4.5332031 A 1.4999999 1.4999999 0 0 0 4.0058594 5.375 L 2.0117188 5.375 C 2.0428109 4.5012587 2.388833 3.7146264 2.9433594 3.1191406 z M 8.0566406 3.1191406 C 8.611167 3.7146264 8.9571891 4.5012587 8.9882812 5.375 L 6.9941406 5.375 A 1.4999999 1.4999999 0 0 0 6.6445312 4.53125 L 8.0566406 3.1191406 z M 2.0117188 5.625 L 4.0058594 5.625 A 1.4999999 1.4999999 0 0 0 4.3554688 6.46875 L 2.9433594 7.8808594 C 2.388833 7.2853736 2.0428109 6.4987413 2.0117188 5.625 z M 6.9941406 5.625 L 8.9882812 5.625 C 8.9571891 6.4987413 8.611167 7.2853736 8.0566406 7.8808594 L 6.6445312 6.46875 A 1.4999999 1.4999999 0 0 1 6.6464844 6.4667969 A 1.4999999 1.4999999 0 0 0 6.9941406 5.625 z M 4.53125 6.6445312 A 1.4999999 1.4999999 0 0 1 4.5332031 6.6464844 A 1.4999999 1.4999999 0 0 0 5 6.9121094 L 5 8.9511719 C 4.2764777 8.8475886 3.6278014 8.5303141 3.1191406 8.0566406 L 4.53125 6.6445312 z M 6.46875 6.6445312 L 7.8808594 8.0566406 C 7.3721986 8.5303141 6.7235223 8.8475886 6 8.9511719 L 6 6.9121094 A 1.4999999 1.4999999 0 0 0 6.46875 6.6445312 z " data-reactid=".0.1.1.$amusement-park-11=1svg16.0.0.3:$amusement-park-11=1svg-0-fill"></path></svg>