<svg viewBox="-1 -1 17 17" width="17" height="17" data-reactid=".0.1.1.$amusement-park-15=1svg17.0.0"><path d="M 7.5 0 C 3.9190329 0 1 2.9190329 1 6.5 C 1 8.8161269 2.2250864 10.848406 4.0566406 12 L 4 12 L 3 14 L 12 14 L 11 12 L 10.943359 12 C 12.774914 10.848406 14 8.8161269 14 6.5 C 14 2.9190329 11.080967 0 7.5 0 z M 7.375 1.5058594 L 7.375 5.0058594 A 1.5 1.5 0 0 0 6.53125 5.3554688 L 4.0566406 2.8808594 C 4.9242617 2.0554638 6.0851197 1.5375649 7.375 1.5058594 z M 7.625 1.5058594 C 8.9148803 1.5375649 10.075738 2.0554638 10.943359 2.8808594 L 8.46875 5.3554688 A 1.5 1.5 0 0 1 8.4667969 5.3535156 A 1.5 1.5 0 0 0 7.625 5.0058594 L 7.625 1.5058594 z M 3.8808594 3.0566406 L 6.3554688 5.53125 A 1.5 1.5 0 0 1 6.3535156 5.5332031 A 1.5 1.5 0 0 0 6.0058594 6.375 L 2.5058594 6.375 C 2.5375649 5.0851197 3.0554638 3.9242617 3.8808594 3.0566406 z M 11.119141 3.0566406 C 11.944536 3.9242617 12.462435 5.0851197 12.494141 6.375 L 8.9941406 6.375 A 1.5 1.5 0 0 0 8.6445312 5.53125 L 11.119141 3.0566406 z M 2.5058594 6.625 L 6.0058594 6.625 A 1.5 1.5 0 0 0 6.3554688 7.46875 L 3.8808594 9.9433594 C 3.0554638 9.0757383 2.5375649 7.9148803 2.5058594 6.625 z M 8.9941406 6.625 L 12.494141 6.625 C 12.462435 7.9148803 11.944536 9.0757383 11.119141 9.9433594 L 8.6445312 7.46875 A 1.5 1.5 0 0 1 8.6464844 7.4667969 A 1.5 1.5 0 0 0 8.9941406 6.625 z M 6.53125 7.6445312 A 1.5 1.5 0 0 1 6.5332031 7.6464844 A 1.5 1.5 0 0 0 7 7.9121094 L 7 11.474609 C 5.8596752 11.362163 4.8394249 10.863828 4.0566406 10.119141 L 6.53125 7.6445312 z M 8.46875 7.6445312 L 10.943359 10.119141 C 10.160575 10.863828 9.1403248 11.362163 8 11.474609 L 8 7.9121094 A 1.5 1.5 0 0 0 8.46875 7.6445312 z " style="stroke-linejoin:round;stroke-miterlimit:4px;" fill="#ffffff" stroke="#ffffff" stroke-width="2" opacity="0.3" data-reactid=".0.1.1.$amusement-park-15=1svg17.0.0.2:$amusement-park-15=1svg-0-fill"></path><path fill="#444" d="M 7.5 0 C 3.9190329 0 1 2.9190329 1 6.5 C 1 8.8161269 2.2250864 10.848406 4.0566406 12 L 4 12 L 3 14 L 12 14 L 11 12 L 10.943359 12 C 12.774914 10.848406 14 8.8161269 14 6.5 C 14 2.9190329 11.080967 0 7.5 0 z M 7.375 1.5058594 L 7.375 5.0058594 A 1.5 1.5 0 0 0 6.53125 5.3554688 L 4.0566406 2.8808594 C 4.9242617 2.0554638 6.0851197 1.5375649 7.375 1.5058594 z M 7.625 1.5058594 C 8.9148803 1.5375649 10.075738 2.0554638 10.943359 2.8808594 L 8.46875 5.3554688 A 1.5 1.5 0 0 1 8.4667969 5.3535156 A 1.5 1.5 0 0 0 7.625 5.0058594 L 7.625 1.5058594 z M 3.8808594 3.0566406 L 6.3554688 5.53125 A 1.5 1.5 0 0 1 6.3535156 5.5332031 A 1.5 1.5 0 0 0 6.0058594 6.375 L 2.5058594 6.375 C 2.5375649 5.0851197 3.0554638 3.9242617 3.8808594 3.0566406 z M 11.119141 3.0566406 C 11.944536 3.9242617 12.462435 5.0851197 12.494141 6.375 L 8.9941406 6.375 A 1.5 1.5 0 0 0 8.6445312 5.53125 L 11.119141 3.0566406 z M 2.5058594 6.625 L 6.0058594 6.625 A 1.5 1.5 0 0 0 6.3554688 7.46875 L 3.8808594 9.9433594 C 3.0554638 9.0757383 2.5375649 7.9148803 2.5058594 6.625 z M 8.9941406 6.625 L 12.494141 6.625 C 12.462435 7.9148803 11.944536 9.0757383 11.119141 9.9433594 L 8.6445312 7.46875 A 1.5 1.5 0 0 1 8.6464844 7.4667969 A 1.5 1.5 0 0 0 8.9941406 6.625 z M 6.53125 7.6445312 A 1.5 1.5 0 0 1 6.5332031 7.6464844 A 1.5 1.5 0 0 0 7 7.9121094 L 7 11.474609 C 5.8596752 11.362163 4.8394249 10.863828 4.0566406 10.119141 L 6.53125 7.6445312 z M 8.46875 7.6445312 L 10.943359 10.119141 C 10.160575 10.863828 9.1403248 11.362163 8 11.474609 L 8 7.9121094 A 1.5 1.5 0 0 0 8.46875 7.6445312 z " data-reactid=".0.1.1.$amusement-park-15=1svg17.0.0.3:$amusement-park-15=1svg-0-fill"></path></svg>