<svg viewBox="-1 -1 13 13" width="13" height="13" data-reactid=".0.1.1.$aquarium-11=1svg18.0.0"><path d="M 8,1 C 7.1243495,1 6.1490684,1.0920438 4.9960938,1.5273438 3.843119,1.9622437 2.8479319,2.6569 2,3.5 1.1477286,4.3474 0,6 0,6.5 0,7 1.1353727,8.4425938 2.6777344,9.1210938 4.2200961,9.7994938 5.0685853,9.919425 5.9609375,10.015625 6.7577489,10.101625 7.9033214,9.988603 8.8457031,9.7832031 9.5924593,9.6205031 10.993695,9.3099 11,9 11,9 8.2439491,8.937 8,8.5 7.7514078,8.0552 7.7505533,6.9142 8,6.5 c 0.2579667,-0.4283 2.5,1 2.5,1 0.643936,0.2576 0.643915,-4.2576 0,-4 0,0 -2.2767894,1.4474 -2.5,1 C 7.7505533,4 7.7505533,3 8,2.5 8.2232106,2.0526 11,2 11,2 11,1.5 8.8756505,1 8,1 Z M 3.5136719,4.5019531 A 1.013864,1.013864 0 0 1 4.5273438,5.515625 1.013864,1.013864 0 0 1 3.5136719,6.5292969 1.013864,1.013864 0 0 1 2.5,5.515625 1.013864,1.013864 0 0 1 3.5136719,4.5019531 Z" style="stroke-linejoin:round;stroke-miterlimit:4px;" fill="#ffffff" stroke="#ffffff" stroke-width="2" opacity="0.3" data-reactid=".0.1.1.$aquarium-11=1svg18.0.0.2:$aquarium-11=1svg-0-fill"></path><path fill="#444" d="M 8,1 C 7.1243495,1 6.1490684,1.0920438 4.9960938,1.5273438 3.843119,1.9622437 2.8479319,2.6569 2,3.5 1.1477286,4.3474 0,6 0,6.5 0,7 1.1353727,8.4425938 2.6777344,9.1210938 4.2200961,9.7994938 5.0685853,9.919425 5.9609375,10.015625 6.7577489,10.101625 7.9033214,9.988603 8.8457031,9.7832031 9.5924593,9.6205031 10.993695,9.3099 11,9 11,9 8.2439491,8.937 8,8.5 7.7514078,8.0552 7.7505533,6.9142 8,6.5 c 0.2579667,-0.4283 2.5,1 2.5,1 0.643936,0.2576 0.643915,-4.2576 0,-4 0,0 -2.2767894,1.4474 -2.5,1 C 7.7505533,4 7.7505533,3 8,2.5 8.2232106,2.0526 11,2 11,2 11,1.5 8.8756505,1 8,1 Z M 3.5136719,4.5019531 A 1.013864,1.013864 0 0 1 4.5273438,5.515625 1.013864,1.013864 0 0 1 3.5136719,6.5292969 1.013864,1.013864 0 0 1 2.5,5.515625 1.013864,1.013864 0 0 1 3.5136719,4.5019531 Z" data-reactid=".0.1.1.$aquarium-11=1svg18.0.0.3:$aquarium-11=1svg-0-fill"></path></svg>