<svg viewBox="-1 -1 13 13" width="13" height="13" data-reactid=".0.1.1.$bank-11=1svg26.0.0"><path d="M 1 2 C 0 2 0 3 0 3 L 0 8 C 0 9 1 9 1 9 L 10 9 C 11 9 11 8 11 8 L 11 3 C 11 3 11 2 10 2 L 1 2 z M 1 3 L 2.5 3 A 0.5 0.5 0 0 1 3 3.5 A 0.5 0.5 0 0 1 2.5 4 A 0.5 0.5 0 0 1 2 3.5 L 1.5 4 A 0.5 0.5 0 0 1 2 4.5 A 0.5 0.5 0 0 1 1.5 5 A 0.5 0.5 0 0 1 1 4.5 L 1 3 z M 5.5 3 C 6.6045695 3 7.5 4.1192881 7.5 5.5 C 7.5 6.8807119 6.6045695 8 5.5 8 C 4.3954305 8 3.5 6.8807119 3.5 5.5 C 3.5 4.1192881 4.3954305 3 5.5 3 z M 8.5 3 L 10 3 L 10 4.5 A 0.5 0.5 0 0 1 9.5 5 A 0.5 0.5 0 0 1 9 4.5 A 0.5 0.5 0 0 1 9.5 4 L 9 3.5 A 0.5 0.5 0 0 1 8.5 4 A 0.5 0.5 0 0 1 8 3.5 A 0.5 0.5 0 0 1 8.5 3 z M 1.5 6 A 0.5 0.5 0 0 1 2 6.5 A 0.5 0.5 0 0 1 1.5 7 L 2 7.5 A 0.5 0.5 0 0 1 2.5 7 A 0.5 0.5 0 0 1 3 7.5 A 0.5 0.5 0 0 1 2.5 8 L 1 8 L 1 6.5 A 0.5 0.5 0 0 1 1.5 6 z M 9.5 6 A 0.5 0.5 0 0 1 10 6.5 L 10 8 L 8.5 8 A 0.5 0.5 0 0 1 8 7.5 A 0.5 0.5 0 0 1 8.5 7 A 0.5 0.5 0 0 1 9 7.5 L 9.5 7 A 0.5 0.5 0 0 1 9 6.5 A 0.5 0.5 0 0 1 9.5 6 z " style="stroke-linejoin:round;stroke-miterlimit:4px;" fill="#ffffff" stroke="#ffffff" stroke-width="2" opacity="0.3" data-reactid=".0.1.1.$bank-11=1svg26.0.0.2:$bank-11=1svg-0-fill"></path><path d="M 4.9023438 4.25 A 1 1.25 0 0 0 4.7011719 4.5 L 6.2988281 4.5 A 1 1.25 0 0 0 6.0976562 4.25 L 4.9023438 4.25 z M 4.5859375 4.75 A 1 1.25 0 0 0 4.5214844 5 L 6.4804688 5 A 1 1.25 0 0 0 6.4160156 4.75 L 4.5859375 4.75 z M 4.5 5.25 A 1 1.25 0 0 0 4.5195312 5.5 L 6.4785156 5.5 A 1 1.25 0 0 0 6.5 5.25 L 4.5 5.25 z M 4.5859375 5.75 A 1 1.25 0 0 0 4.703125 6 L 6.2988281 6 A 1 1.25 0 0 0 6.4140625 5.75 L 4.5859375 5.75 z M 4.9023438 6.25 A 1 1.25 0 0 0 4.9355469 6.28125 L 4.5 6.5 L 6.5 6.5 L 6.0644531 6.28125 A 1 1.25 0 0 0 6.0976562 6.25 L 4.9023438 6.25 z M 4.5820312 6.75 C 4.6110252 6.8288881 4.6379952 6.9090909 4.6914062 7 L 6.3183594 7 C 6.3707926 6.9090448 6.3961675 6.8289159 6.4238281 6.75 L 4.5820312 6.75 z M 4.8925781 7.25 C 5.0394868 7.3915355 5.2331992 7.5 5.5 7.5 C 5.7739472 7.5 5.9701349 7.3915355 6.1171875 7.25 L 4.8925781 7.25 z " style="stroke-linejoin:round;stroke-miterlimit:4px;" fill="#ffffff" stroke="#ffffff" stroke-width="2" opacity="0.3" data-reactid=".0.1.1.$bank-11=1svg26.0.0.2:$bank-11=1svg-1-fill"></path><path fill="#444" d="M 1 2 C 0 2 0 3 0 3 L 0 8 C 0 9 1 9 1 9 L 10 9 C 11 9 11 8 11 8 L 11 3 C 11 3 11 2 10 2 L 1 2 z M 1 3 L 2.5 3 A 0.5 0.5 0 0 1 3 3.5 A 0.5 0.5 0 0 1 2.5 4 A 0.5 0.5 0 0 1 2 3.5 L 1.5 4 A 0.5 0.5 0 0 1 2 4.5 A 0.5 0.5 0 0 1 1.5 5 A 0.5 0.5 0 0 1 1 4.5 L 1 3 z M 5.5 3 C 6.6045695 3 7.5 4.1192881 7.5 5.5 C 7.5 6.8807119 6.6045695 8 5.5 8 C 4.3954305 8 3.5 6.8807119 3.5 5.5 C 3.5 4.1192881 4.3954305 3 5.5 3 z M 8.5 3 L 10 3 L 10 4.5 A 0.5 0.5 0 0 1 9.5 5 A 0.5 0.5 0 0 1 9 4.5 A 0.5 0.5 0 0 1 9.5 4 L 9 3.5 A 0.5 0.5 0 0 1 8.5 4 A 0.5 0.5 0 0 1 8 3.5 A 0.5 0.5 0 0 1 8.5 3 z M 1.5 6 A 0.5 0.5 0 0 1 2 6.5 A 0.5 0.5 0 0 1 1.5 7 L 2 7.5 A 0.5 0.5 0 0 1 2.5 7 A 0.5 0.5 0 0 1 3 7.5 A 0.5 0.5 0 0 1 2.5 8 L 1 8 L 1 6.5 A 0.5 0.5 0 0 1 1.5 6 z M 9.5 6 A 0.5 0.5 0 0 1 10 6.5 L 10 8 L 8.5 8 A 0.5 0.5 0 0 1 8 7.5 A 0.5 0.5 0 0 1 8.5 7 A 0.5 0.5 0 0 1 9 7.5 L 9.5 7 A 0.5 0.5 0 0 1 9 6.5 A 0.5 0.5 0 0 1 9.5 6 z " data-reactid=".0.1.1.$bank-11=1svg26.0.0.3:$bank-11=1svg-0-fill"></path><path fill="#444" d="M 4.9023438 4.25 A 1 1.25 0 0 0 4.7011719 4.5 L 6.2988281 4.5 A 1 1.25 0 0 0 6.0976562 4.25 L 4.9023438 4.25 z M 4.5859375 4.75 A 1 1.25 0 0 0 4.5214844 5 L 6.4804688 5 A 1 1.25 0 0 0 6.4160156 4.75 L 4.5859375 4.75 z M 4.5 5.25 A 1 1.25 0 0 0 4.5195312 5.5 L 6.4785156 5.5 A 1 1.25 0 0 0 6.5 5.25 L 4.5 5.25 z M 4.5859375 5.75 A 1 1.25 0 0 0 4.703125 6 L 6.2988281 6 A 1 1.25 0 0 0 6.4140625 5.75 L 4.5859375 5.75 z M 4.9023438 6.25 A 1 1.25 0 0 0 4.9355469 6.28125 L 4.5 6.5 L 6.5 6.5 L 6.0644531 6.28125 A 1 1.25 0 0 0 6.0976562 6.25 L 4.9023438 6.25 z M 4.5820312 6.75 C 4.6110252 6.8288881 4.6379952 6.9090909 4.6914062 7 L 6.3183594 7 C 6.3707926 6.9090448 6.3961675 6.8289159 6.4238281 6.75 L 4.5820312 6.75 z M 4.8925781 7.25 C 5.0394868 7.3915355 5.2331992 7.5 5.5 7.5 C 5.7739472 7.5 5.9701349 7.3915355 6.1171875 7.25 L 4.8925781 7.25 z " data-reactid=".0.1.1.$bank-11=1svg26.0.0.3:$bank-11=1svg-1-fill"></path></svg>