<svg viewBox="-1 -1 13 13" width="13" height="13" data-reactid=".0.1.1.$baseball-11=1svg128.0.0"><path d="M 0 0 L 0 1.8007812 C 1.8 4.2007813 5.6003906 6.2 7.9003906 8.5 L 9 10 L 9 11 L 10.400391 11 L 11 10.400391 L 11 9 L 10 9 L 8.5996094 7.9003906 C 6.3996094 5.8003906 4.3007812 1.8 1.8007812 0 L 0 0 z M 2.5 7 A 1.5 1.5 0 0 0 1 8.5 A 1.5 1.5 0 0 0 2.5 10 A 1.5 1.5 0 0 0 4 8.5 A 1.5 1.5 0 0 0 2.5 7 z " style="stroke-linejoin:round;stroke-miterlimit:4px;" fill="#ffffff" stroke="#ffffff" stroke-width="2" opacity="0.3" data-reactid=".0.1.1.$baseball-11=1svg128.0.0.2:$baseball-11=1svg-0-fill"></path><path fill="#444" d="M 0 0 L 0 1.8007812 C 1.8 4.2007813 5.6003906 6.2 7.9003906 8.5 L 9 10 L 9 11 L 10.400391 11 L 11 10.400391 L 11 9 L 10 9 L 8.5996094 7.9003906 C 6.3996094 5.8003906 4.3007812 1.8 1.8007812 0 L 0 0 z M 2.5 7 A 1.5 1.5 0 0 0 1 8.5 A 1.5 1.5 0 0 0 2.5 10 A 1.5 1.5 0 0 0 4 8.5 A 1.5 1.5 0 0 0 2.5 7 z " data-reactid=".0.1.1.$baseball-11=1svg128.0.0.3:$baseball-11=1svg-0-fill"></path></svg>