<svg viewBox="-1 -1 17 17" width="17" height="17" data-reactid=".0.1.1.$basketball-15=1svg131.0.0"><path d="m 3,1 -3,3 0,6 c 0,0 0,1 1,1 l 2,0 2,4 5,0 2,-4 2,0 c 1,0 1,-1 1,-1 L 15,4 12,1 Z m 1,3 1,0 5,0 1,0 0,1 0,3 0,1 L 10,9 5,9 4,9 4,8 4,5 Z m 1,1 0,3 5,0 0,-3 z m -0.5,6 1.5,0 0,1 -1,0 z m 2.5,0 1,0 0,1 -1,0 z m 2,0 1.5,0 -0.5,1 -1,0 z M 5.5,13 7,13 7,14 6,14 Z M 8,13 9.5,13 9,14 8,14 Z" style="stroke-linejoin:round;stroke-miterlimit:4px;" fill="#ffffff" stroke="#ffffff" stroke-width="2" opacity="0.3" data-reactid=".0.1.1.$basketball-15=1svg131.0.0.2:$basketball-15=1svg-0-fill"></path><path fill="#444" d="m 3,1 -3,3 0,6 c 0,0 0,1 1,1 l 2,0 2,4 5,0 2,-4 2,0 c 1,0 1,-1 1,-1 L 15,4 12,1 Z m 1,3 1,0 5,0 1,0 0,1 0,3 0,1 L 10,9 5,9 4,9 4,8 4,5 Z m 1,1 0,3 5,0 0,-3 z m -0.5,6 1.5,0 0,1 -1,0 z m 2.5,0 1,0 0,1 -1,0 z m 2,0 1.5,0 -0.5,1 -1,0 z M 5.5,13 7,13 7,14 6,14 Z M 8,13 9.5,13 9,14 8,14 Z" data-reactid=".0.1.1.$basketball-15=1svg131.0.0.3:$basketball-15=1svg-0-fill"></path></svg>