<?xml version="1.0" encoding="utf-8"?>
<!-- Generator: Adobe Illustrator 17.0.0, SVG Export Plug-In . SVG Version: 6.00 Build 0)  -->
<!DOCTYPE svg PUBLIC "-//W3C//DTD SVG 1.1//EN" "http://www.w3.org/Graphics/SVG/1.1/DTD/svg11.dtd">
<svg version="1.1"
	 id="svg4764" xmlns:dc="http://purl.org/dc/elements/1.1/" xmlns:cc="http://creativecommons.org/ns#" xmlns:rdf="http://www.w3.org/1999/02/22-rdf-syntax-ns#" xmlns:svg="http://www.w3.org/2000/svg"
	 xmlns="http://www.w3.org/2000/svg" xmlns:xlink="http://www.w3.org/1999/xlink" x="0px" y="0px" width="12px" height="12px"
	 viewBox="0 0 12 12" enable-background="new 0 0 12 12" xml:space="preserve">
<g id="g3188" transform="translate(0,-1)" opacity="0.3">
	<polygon id="polygon3190" fill="#FFFFFF" points="7,8.485 7.5,7.985 7.5,7.015 7,6.515 6,6.5 5.5,7.015 5.5,7.985 6,8.5 	"/>
</g>
<g id="layer1" transform="translate(0,-1040.3622)">
</g>
<path id="path15542" opacity="0.3" fill="none" stroke="#FFFFFF" stroke-width="2" stroke-linecap="round" stroke-linejoin="round" enable-background="new    " d="
	M2.5,2.5v1h-1v6h9v-6h-2v-1h-3v1H4v-1H2.5z M5.5,4.5h2l1,1v2l-1,1h-2l-1-1v-2L5.5,4.5z M6,5.5L5.5,6v1L6,7.5h1L7.5,7V6L7,5.5H6z"/>
<path id="polygon19" fill="#454545" d="M2.5,2.5v1h-1v6h9v-6h-2v-1h-3v1H4v-1H2.5z M5.5,4.5h2l1,1v2l-1,1h-2l-1-1v-2L5.5,4.5z
	 M6,5.5L5.5,6v1L6,7.5h1L7.5,7V6L7,5.5H6z"/>
<rect id="canvas" display="none" fill="none" width="12" height="12"/>
</svg>
