<?xml version="1.0" encoding="utf-8"?>
<!-- Generator: Adobe Illustrator 17.0.0, SVG Export Plug-In . SVG Version: 6.00 Build 0)  -->
<!DOCTYPE svg PUBLIC "-//W3C//DTD SVG 1.1//EN" "http://www.w3.org/Graphics/SVG/1.1/DTD/svg11.dtd">
<svg version="1.1"
	 id="svg4619" xmlns:dc="http://purl.org/dc/elements/1.1/" xmlns:cc="http://creativecommons.org/ns#" xmlns:rdf="http://www.w3.org/1999/02/22-rdf-syntax-ns#" xmlns:svg="http://www.w3.org/2000/svg"
	 xmlns="http://www.w3.org/2000/svg" xmlns:xlink="http://www.w3.org/1999/xlink" x="0px" y="0px" width="18px" height="18px"
	 viewBox="0 0 18 18" enable-background="new 0 0 18 18" xml:space="preserve">
<g id="layer1" transform="translate(0,-1034.3622)">
</g>
<path id="path14943" opacity="0.3" fill="none" stroke="#FFFFFF" stroke-width="2" stroke-linecap="round" stroke-linejoin="round" enable-background="new    " d="
	M8.5,3.5c-0.552,0-1,0.447-1,1v1h-1c0-0.553,0-1,0-1h-3c0,0,0,0.447,0,1c-0.61,0-0.5,0-1,0v8c0,0.553,0.448,1,1,1h11
	c0.552,0,1-0.447,1-1v-7c0-0.553-0.447-1-1-1h-2v-1c0-0.553-0.448-1-1-1H8.5z M10,7c1.657,0,3,1.343,3,3c0,1.657-1.343,3-3,3
	c-1.657,0-3-1.343-3-3C7,8.343,8.343,7,10,7z"/>
<path id="path3019" fill="#454545" d="M8.5,3.5c-0.552,0-1,0.447-1,1v1h-1c0-0.553,0-1,0-1h-3c0,0,0,0.447,0,1c-0.61,0-0.5,0-1,0v8
	c0,0.553,0.448,1,1,1h11c0.552,0,1-0.447,1-1v-7c0-0.553-0.447-1-1-1h-2v-1c0-0.553-0.448-1-1-1H8.5z M10,7c1.657,0,3,1.343,3,3
	c0,1.657-1.343,3-3,3c-1.657,0-3-1.343-3-3C7,8.343,8.343,7,10,7z"/>
<path id="circle3021" fill="#454545" d="M11.5,10c0,0.828-0.672,1.5-1.5,1.5S8.5,10.828,8.5,10S9.172,8.5,10,8.5S11.5,9.172,11.5,10
	z"/>
<rect id="canvas" display="none" fill="none" width="18" height="18"/>
</svg>
