<svg viewBox="-1 -1 13 13" width="13" height="13" data-reactid=".0.1.1.$dentist-11=1svg118.0.0"><path d="M2,5.38c-0.27-1.27-.68-3.59.87-3.84S4.4,2.47,5.5,2.47s1.13-1.19,2.66-.94S9.3,4.11,9,5.38C8.72,6.87,8.31,9.5,7.37,9.5S6.54,7.63,5.5,7.63,4.56,9.5,3.63,9.5,2.28,6.87,2,5.38Z" style="stroke-linejoin:round;stroke-miterlimit:4px;" fill="#ffffff" stroke="#ffffff" stroke-width="2" opacity="0.3" data-reactid=".0.1.1.$dentist-11=1svg118.0.0.2:$dentist-11=1svg-0-fill"></path><path fill="#444" d="M2,5.38c-0.27-1.27-.68-3.59.87-3.84S4.4,2.47,5.5,2.47s1.13-1.19,2.66-.94S9.3,4.11,9,5.38C8.72,6.87,8.31,9.5,7.37,9.5S6.54,7.63,5.5,7.63,4.56,9.5,3.63,9.5,2.28,6.87,2,5.38Z" data-reactid=".0.1.1.$dentist-11=1svg118.0.0.3:$dentist-11=1svg-0-fill"></path></svg>