<svg viewBox="-295 194 13 13" width="13" height="13" data-reactid=".0.1.1.$fast-food-11=1svg6.0.0"><path d="M-283.5,198.5c0-2.5-4-2.5-4-2.5h-2c0,0-4,0-4,2.5v1.5h10V198.5z" style="stroke-linejoin:round;stroke-miterlimit:4px;" fill="#ffffff" stroke="#ffffff" stroke-width="2" opacity="0.3" data-reactid=".0.1.1.$fast-food-11=1svg6.0.0.2:$fast-food-11=1svg-0-fill"></path><path d="M-283.5,201h-10c-0.3,0-0.5,0.2-0.5,0.5s0.2,0.5,0.5,0.5h10c0.3,0,0.5-0.2,0.5-0.5S-283.2,201-283.5,201z" style="stroke-linejoin:round;stroke-miterlimit:4px;" fill="#ffffff" stroke="#ffffff" stroke-width="2" opacity="0.3" data-reactid=".0.1.1.$fast-food-11=1svg6.0.0.2:$fast-food-11=1svg-1-fill"></path><path d="M-284,203h-9c-0.3,0-0.5,0.2-0.5,0.5v1c0,0.3,0.2,0.5,0.5,0.5h9c0.3,0,0.5-0.2,0.5-0.5v-1C-283.5,203.2-283.7,203-284,203z" style="stroke-linejoin:round;stroke-miterlimit:4px;" fill="#ffffff" stroke="#ffffff" stroke-width="2" opacity="0.3" data-reactid=".0.1.1.$fast-food-11=1svg6.0.0.2:$fast-food-11=1svg-2-fill"></path><path fill="#444" d="M-283.5,198.5c0-2.5-4-2.5-4-2.5h-2c0,0-4,0-4,2.5v1.5h10V198.5z" data-reactid=".0.1.1.$fast-food-11=1svg6.0.0.3:$fast-food-11=1svg-0-fill"></path><path fill="#444" d="M-283.5,201h-10c-0.3,0-0.5,0.2-0.5,0.5s0.2,0.5,0.5,0.5h10c0.3,0,0.5-0.2,0.5-0.5S-283.2,201-283.5,201z" data-reactid=".0.1.1.$fast-food-11=1svg6.0.0.3:$fast-food-11=1svg-1-fill"></path><path fill="#444" d="M-284,203h-9c-0.3,0-0.5,0.2-0.5,0.5v1c0,0.3,0.2,0.5,0.5,0.5h9c0.3,0,0.5-0.2,0.5-0.5v-1C-283.5,203.2-283.7,203-284,203z" data-reactid=".0.1.1.$fast-food-11=1svg6.0.0.3:$fast-food-11=1svg-2-fill"></path></svg>