<svg viewBox="-293 192 17 17" width="17" height="17" data-reactid=".0.1.1.$grocery-15=1svg55.0.0"><path d="M-279.2,193.5
	c0,0-0.6,0-1.2,0.4c-0.5,0.3-1,1.1-1.1,2.1h-9.5l1.5,5c0.3,1,1.5,1,1.5,1h6.5v0.2c0,0,0,0.3-0.2,0.7s-0.3,0.6-1.1,0.6h-6.5
	c-1,0-1,1.5,0,1.5h1.2h5h0.2c1.2,0,2.1-0.7,2.4-1.4s0.3-1.3,0.3-1.3V202v-5.8c0-0.8,0.2-1,0.4-1.1s0.3-0.1,0.3-0.1h0.5
	c0,0,0.8,0,0.8-0.8s-0.8-0.8-0.8-0.8H-279.2z M-283,205c-0.6,0-1,0.4-1,1c0,0.6,0.4,1,1,1s1-0.4,1-1C-282,205.4-282.4,205-283,205z
	 M-288,205c-0.6,0-1,0.4-1,1c0,0.6,0.4,1,1,1s1-0.4,1-1C-287,205.4-287.4,205-288,205z" style="stroke-linejoin:round;stroke-miterlimit:4px;" fill="#ffffff" stroke="#ffffff" stroke-width="2" opacity="0.3" data-reactid=".0.1.1.$grocery-15=1svg55.0.0.2:$grocery-15=1svg-0-fill"></path><path fill="#444" d="M-279.2,193.5
	c0,0-0.6,0-1.2,0.4c-0.5,0.3-1,1.1-1.1,2.1h-9.5l1.5,5c0.3,1,1.5,1,1.5,1h6.5v0.2c0,0,0,0.3-0.2,0.7s-0.3,0.6-1.1,0.6h-6.5
	c-1,0-1,1.5,0,1.5h1.2h5h0.2c1.2,0,2.1-0.7,2.4-1.4s0.3-1.3,0.3-1.3V202v-5.8c0-0.8,0.2-1,0.4-1.1s0.3-0.1,0.3-0.1h0.5
	c0,0,0.8,0,0.8-0.8s-0.8-0.8-0.8-0.8H-279.2z M-283,205c-0.6,0-1,0.4-1,1c0,0.6,0.4,1,1,1s1-0.4,1-1C-282,205.4-282.4,205-283,205z
	 M-288,205c-0.6,0-1,0.4-1,1c0,0.6,0.4,1,1,1s1-0.4,1-1C-287,205.4-287.4,205-288,205z" data-reactid=".0.1.1.$grocery-15=1svg55.0.0.3:$grocery-15=1svg-0-fill"></path></svg>