<svg viewBox="-293 192 17 17" width="17" height="17" data-reactid=".0.1.1.$hospital-15=1svg123.0.0"><path d="M-285,194c-0.6,0-1,0.4-1,1v4h-4c-0.6,0-1,0.4-1,1v1c0,0.6,0.4,1,1,1h4v4
	c0,0.6,0.4,1,1,1h1c0.6,0,1-0.4,1-1v-4h4c0.6,0,1-0.4,1-1v-1c0-0.6-0.4-1-1-1h-4v-4c0-0.6-0.4-1-1-1H-285z" style="stroke-linejoin:round;stroke-miterlimit:4px;" fill="#ffffff" stroke="#ffffff" stroke-width="2" opacity="0.3" data-reactid=".0.1.1.$hospital-15=1svg123.0.0.2:$hospital-15=1svg-0-fill"></path><path fill="#444" d="M-285,194c-0.6,0-1,0.4-1,1v4h-4c-0.6,0-1,0.4-1,1v1c0,0.6,0.4,1,1,1h4v4
	c0,0.6,0.4,1,1,1h1c0.6,0,1-0.4,1-1v-4h4c0.6,0,1-0.4,1-1v-1c0-0.6-0.4-1-1-1h-4v-4c0-0.6-0.4-1-1-1H-285z" data-reactid=".0.1.1.$hospital-15=1svg123.0.0.3:$hospital-15=1svg-0-fill"></path></svg>