<svg viewBox="-295 194 14 14" width="14" height="14" data-reactid=".0.1.1.$hospital-11=1svg122.0.0"><path d="M-284,199h-3v-3c0-0.5-0.5-1-1-1h-1c-0.5,0-1,0.5-1,1v3h-3c-0.5,0-1,0.5-1,1v1
	c0,0.5,0.5,1,1,1h3v3c0,0.5,0.5,1,1,1h1c0.5,0,1-0.5,1-1v-3h3c0.5,0,1-0.5,1-1v-1C-283,199.4-283.5,199-284,199z" style="stroke-linejoin:round;stroke-miterlimit:4px;" fill="#fff" stroke="#fff" stroke-width="3" data-reactid=".0.1.1.$hospital-11=1svg122.0.0.2:$hospital-11=1svg-0-fill"></path><path d="M-738,1040.9c0-57.3,40.9-98.2,98.2-98.2h196.4V746.4
		c0-57.3,40.9-98.2,98.2-98.2h98.2c57.3,0,98.2,40.9,98.2,98.2v196.4H47.6c57.3,0,98.2,40.9,98.2,98.2v98.2
		c0,57.3-40.9,98.2-98.2,98.2h-196.5v196.4c0,57.3-40.9,98.2-98.2,98.2h-98.2c-57.3,0-98.2-40.9-98.2-98.2v-196.4h-196.4
		c-57.3,0-98.2-40.9-98.2-98.2L-738,1040.9L-738,1040.9z" style="stroke-linejoin:round;stroke-miterlimit:4px;" fill="#fff" stroke="#fff" stroke-width="3" data-reactid=".0.1.1.$hospital-11=1svg122.0.0.2:$hospital-11=1svg-1-fill"></path><path fill="#49484a" d="M-284,199h-3v-3c0-0.5-0.5-1-1-1h-1c-0.5,0-1,0.5-1,1v3h-3c-0.5,0-1,0.5-1,1v1
	c0,0.5,0.5,1,1,1h3v3c0,0.5,0.5,1,1,1h1c0.5,0,1-0.5,1-1v-3h3c0.5,0,1-0.5,1-1v-1C-283,199.4-283.5,199-284,199z" data-reactid=".0.1.1.$hospital-11=1svg122.0.0.3:$hospital-11=1svg-0-fill"></path><path fill="#49484a" d="M-738,1040.9c0-57.3,40.9-98.2,98.2-98.2h196.4V746.4
		c0-57.3,40.9-98.2,98.2-98.2h98.2c57.3,0,98.2,40.9,98.2,98.2v196.4H47.6c57.3,0,98.2,40.9,98.2,98.2v98.2
		c0,57.3-40.9,98.2-98.2,98.2h-196.5v196.4c0,57.3-40.9,98.2-98.2,98.2h-98.2c-57.3,0-98.2-40.9-98.2-98.2v-196.4h-196.4
		c-57.3,0-98.2-40.9-98.2-98.2L-738,1040.9L-738,1040.9z" data-reactid=".0.1.1.$hospital-11=1svg122.0.0.3:$hospital-11=1svg-1-fill"></path></svg>