<?xml version="1.0" encoding="utf-8"?>
<!-- Generator: Adobe Illustrator 17.0.0, SVG Export Plug-In . SVG Version: 6.00 Build 0)  -->
<!DOCTYPE svg PUBLIC "-//W3C//DTD SVG 1.1//EN" "http://www.w3.org/Graphics/SVG/1.1/DTD/svg11.dtd">
<svg version="1.1"
	 id="svg4460" xmlns:dc="http://purl.org/dc/elements/1.1/" xmlns:cc="http://creativecommons.org/ns#" xmlns:rdf="http://www.w3.org/1999/02/22-rdf-syntax-ns#" xmlns:svg="http://www.w3.org/2000/svg" xmlns:inkscape="http://www.inkscape.org/namespaces/inkscape"
	 xmlns="http://www.w3.org/2000/svg" xmlns:xlink="http://www.w3.org/1999/xlink" x="0px" y="0px" width="24px" height="24px"
	 viewBox="0 0 24 24" enable-background="new 0 0 24 24" xml:space="preserve">
<g id="ice-cream3_2_">
	<g id="ice-cream3_3_" opacity="0.3">
		<path id="path5" inkscape:connector-curvature="0" fill="#FFFFFF" stroke="#FFFFFF" stroke-width="2" stroke-miterlimit="10" d="
			M16,11.25H8c0,0,2.92,7.869,3,8c0.171,0.457,0.625,1,1,1s0.829-0.543,1-1C13.08,19.119,16,11.25,16,11.25z"/>
		<g id="g7">
			<path id="path9" inkscape:connector-curvature="0" fill="#FFFFFF" stroke="#FFFFFF" stroke-width="2" stroke-miterlimit="10" d="
				M6.593,8.024C6.64,8.23,6.699,8.431,6.781,8.622c0,0.001,0.001,0.002,0.001,0.003c0.181,0.42,0.441,0.799,0.762,1.115h4.912
				C13.1,9.105,13.5,8.224,13.5,7.25c0-1.188-0.595-2.233-1.5-2.866l0,0c-0.074-0.052-0.156-0.093-0.234-0.14
				c-0.098-0.058-0.196-0.114-0.299-0.162c-0.08-0.037-0.162-0.069-0.245-0.101c-0.122-0.046-0.247-0.084-0.375-0.116
				c-0.071-0.018-0.142-0.038-0.214-0.052C10.427,3.776,10.216,3.75,10,3.75c-1.933,0-3.5,1.567-3.5,3.5
				c0,0.243,0.025,0.48,0.072,0.71C6.577,7.982,6.587,8.002,6.593,8.024L6.593,8.024z"/>
			
				<path id="path11" inkscape:connector-curvature="0" fill="#FFFFFF" stroke="#FFFFFF" stroke-width="2" stroke-miterlimit="10" d="
				M15,7.25c0,0.911-0.263,1.754-0.69,2.49h2.146C17.1,9.105,17.5,8.224,17.5,7.25c0-1.933-1.567-3.5-3.5-3.5
				c-0.14,0-0.276,0.017-0.412,0.032C14.458,4.683,15,5.902,15,7.25z"/>
		</g>
	</g>
	<g id="g13">
		<path id="path15" inkscape:connector-curvature="0" fill="#444444" d="M10,3.75c-1.933,0-3.5,1.567-3.5,3.5
			c0,0.243,0.016,0.489,0.062,0.719c0.005,0.022,0.025,0.04,0.031,0.062c0.047,0.206,0.106,0.403,0.188,0.594
			c0.181,0.42,0.429,0.809,0.75,1.125h4.938c0.644-0.635,1.031-1.526,1.031-2.5c0-1.188-0.595-2.242-1.5-2.875
			c-0.074-0.052-0.141-0.078-0.219-0.125c-0.098-0.058-0.21-0.108-0.312-0.156c-0.08-0.037-0.167-0.093-0.25-0.125
			c-0.122-0.046-0.247-0.062-0.375-0.094c-0.071-0.018-0.147-0.049-0.219-0.062C10.419,3.775,10.216,3.75,10,3.75z M14,3.75
			c-0.14,0-0.27,0.016-0.406,0.031C14.464,4.682,15,5.902,15,7.25c0,0.911-0.26,1.764-0.688,2.5h2.156
			c0.644-0.635,1.031-1.526,1.031-2.5C17.5,5.317,15.933,3.75,14,3.75z M8,11.25c0,0,2.92,7.869,3,8c0.171,0.457,0.625,1,1,1
			s0.829-0.543,1-1c0.08-0.131,3-8,3-8H8z"/>
	</g>
</g>
<rect id="canvas" display="none" fill="none" width="24" height="24"/>
</svg>
