<svg viewBox="-293 192 17 17" width="17" height="17" data-reactid=".0.1.1.$information-15=1svg63.0.0"><path d="M-284.5,194
	c-0.8,0-1.5,0.7-1.5,1.5s0.7,1.5,1.5,1.5s1.5-0.7,1.5-1.5S-283.7,194-284.5,194z M-288,198v1c0,0,2,0,2,2v2c0,2-2,2-2,2v1h7v-1
	c0,0-2,0-2-2v-4c0-0.5-0.5-1-1-1H-288z" style="stroke-linejoin:round;stroke-miterlimit:4px;" fill="#ffffff" stroke="#ffffff" stroke-width="2" opacity="0.3" data-reactid=".0.1.1.$information-15=1svg63.0.0.2:$information-15=1svg-0-fill"></path><path fill="#444" d="M-284.5,194
	c-0.8,0-1.5,0.7-1.5,1.5s0.7,1.5,1.5,1.5s1.5-0.7,1.5-1.5S-283.7,194-284.5,194z M-288,198v1c0,0,2,0,2,2v2c0,2-2,2-2,2v1h7v-1
	c0,0-2,0-2-2v-4c0-0.5-0.5-1-1-1H-288z" data-reactid=".0.1.1.$information-15=1svg63.0.0.3:$information-15=1svg-0-fill"></path></svg>