<svg viewBox="-295 194 13 13" width="13" height="13" data-reactid=".0.1.1.$information-11=1svg62.0.0"><path d="M-288.4,196
	c-0.6,0-1.1,0.5-1.1,1.1s0.5,1.1,1.1,1.1s1.1-0.5,1.1-1.1S-287.8,196-288.4,196z M-291,199v0.8c0,0,1.5,0,1.5,1.5v1.5
	c0,1.5-1.5,1.5-1.5,1.5v0.8h5.2v-0.8c0,0-1.2,0-1.2-1.5V200c0,0,0-1-1-1H-291z" style="stroke-linejoin:round;stroke-miterlimit:4px;" fill="#ffffff" stroke="#ffffff" stroke-width="2" opacity="0.3" data-reactid=".0.1.1.$information-11=1svg62.0.0.2:$information-11=1svg-0-fill"></path><path fill="#444" d="M-288.4,196
	c-0.6,0-1.1,0.5-1.1,1.1s0.5,1.1,1.1,1.1s1.1-0.5,1.1-1.1S-287.8,196-288.4,196z M-291,199v0.8c0,0,1.5,0,1.5,1.5v1.5
	c0,1.5-1.5,1.5-1.5,1.5v0.8h5.2v-0.8c0,0-1.2,0-1.2-1.5V200c0,0,0-1-1-1H-291z" data-reactid=".0.1.1.$information-11=1svg62.0.0.3:$information-11=1svg-0-fill"></path></svg>