<svg viewBox="-293 192 17 17" width="17" height="17" data-reactid=".0.1.1.$library-15=1svg67.0.0"><path d="M-291.5,194.8c-0.5,0-0.5,0.5-0.5,0.5v7.5c0,0,0,0.7,0.7,0.9l5.3,1.4v0.3
	c0,0.3,0.3,0.6,0.6,0.6h1.7c0.3,0,0.6-0.3,0.6-0.6v-0.3l5.3-1.4c0.7-0.2,0.7-0.9,0.7-0.9v-7.5c0,0,0-0.7-0.7-0.5l-6.8,1.9l-6.8-1.9
	C-291.4,194.8-291.5,194.8-291.5,194.8z M-291,196l6,1.6v6.5l-6-1.6C-291,202.5-291,196-291,196z M-278,196v6.5l-6,1.6v-6.5
	L-278,196z M-289.5,197.7v0.5l2.5,0.7v-0.5C-287,198.4-289.5,197.7-289.5,197.7z M-279.5,197.7l-3,0.8v0.5l3-0.8V197.7z
	 M-289.5,198.7v0.5l3,0.8v-0.5C-286.5,199.5-289.5,198.7-289.5,198.7z M-279.5,198.7l-3,0.8v0.5l3-0.8V198.7z M-289.5,199.7v0.5
	l1.5,0.4v-0.5L-289.5,199.7z M-280.5,200l-2,0.5v0.5l2-0.5V200z M-289.5,200.7v0.5l3,0.8v-0.5C-286.5,201.5-289.5,200.7-289.5,200.7
	z M-279.5,200.7l-3,0.8v0.5l3-0.8C-279.5,201.2-279.5,200.7-279.5,200.7z" style="stroke-linejoin:round;stroke-miterlimit:4px;" fill="#ffffff" stroke="#ffffff" stroke-width="2" opacity="0.3" data-reactid=".0.1.1.$library-15=1svg67.0.0.2:$library-15=1svg-0-fill"></path><path fill="#444" d="M-291.5,194.8c-0.5,0-0.5,0.5-0.5,0.5v7.5c0,0,0,0.7,0.7,0.9l5.3,1.4v0.3
	c0,0.3,0.3,0.6,0.6,0.6h1.7c0.3,0,0.6-0.3,0.6-0.6v-0.3l5.3-1.4c0.7-0.2,0.7-0.9,0.7-0.9v-7.5c0,0,0-0.7-0.7-0.5l-6.8,1.9l-6.8-1.9
	C-291.4,194.8-291.5,194.8-291.5,194.8z M-291,196l6,1.6v6.5l-6-1.6C-291,202.5-291,196-291,196z M-278,196v6.5l-6,1.6v-6.5
	L-278,196z M-289.5,197.7v0.5l2.5,0.7v-0.5C-287,198.4-289.5,197.7-289.5,197.7z M-279.5,197.7l-3,0.8v0.5l3-0.8V197.7z
	 M-289.5,198.7v0.5l3,0.8v-0.5C-286.5,199.5-289.5,198.7-289.5,198.7z M-279.5,198.7l-3,0.8v0.5l3-0.8V198.7z M-289.5,199.7v0.5
	l1.5,0.4v-0.5L-289.5,199.7z M-280.5,200l-2,0.5v0.5l2-0.5V200z M-289.5,200.7v0.5l3,0.8v-0.5C-286.5,201.5-289.5,200.7-289.5,200.7
	z M-279.5,200.7l-3,0.8v0.5l3-0.8C-279.5,201.2-279.5,200.7-279.5,200.7z" data-reactid=".0.1.1.$library-15=1svg67.0.0.3:$library-15=1svg-0-fill"></path></svg>