<svg viewBox="-1 -1 13 13" width="13" height="13" data-reactid=".0.1.1.$park-11=1svg142.0.0"><path d="M 5.4941406,0 C 5.397428,0.00115049 5.3031245,0.03032351 5.2226562,0.08398437 l -3,2.00000003 C 1.8712624,2.3185399 1.9510855,2.8561717 2.3554688,2.9785156 L 3.8164062,3.4179688 1.2304688,5.0800781 C 0.87023202,5.312945 0.95115122,5.8615301 1.3632812,5.9804688 L 3.7226562,6.6542969 1.2519531,8.0664062 C 0.85592639,8.2930432 0.94544925,8.888181 1.390625,8.9882812 L 4.5,9.25 l 0,1.25 c 2.76e-5,0.276131 0.2238691,0.499972 0.5,0.5 l 1,0 c 0.2761309,-2.8e-5 0.4999724,-0.223869 0.5,-0.5 L 6.5,9.25 9.609375,8.9882812 C 10.054551,8.888181 10.144074,8.2930432 9.7480469,8.0664062 L 7.2773438,6.6542969 9.6367188,5.9804688 C 10.048849,5.8615301 10.129768,5.312945 9.7695312,5.0800781 L 7.1835938,3.4179688 8.6445312,2.9785156 C 9.0489145,2.8561717 9.1287376,2.3185399 8.7773438,2.0839844 l -3,-2.00000003 C 5.693554,0.02810945 5.5948451,-0.00116283 5.4941406,0 Z" style="stroke-linejoin:round;stroke-miterlimit:4px;" fill="#ffffff" stroke="#ffffff" stroke-width="2" opacity="0.3" data-reactid=".0.1.1.$park-11=1svg142.0.0.2:$park-11=1svg-0-fill"></path><path fill="#444" d="M 5.4941406,0 C 5.397428,0.00115049 5.3031245,0.03032351 5.2226562,0.08398437 l -3,2.00000003 C 1.8712624,2.3185399 1.9510855,2.8561717 2.3554688,2.9785156 L 3.8164062,3.4179688 1.2304688,5.0800781 C 0.87023202,5.312945 0.95115122,5.8615301 1.3632812,5.9804688 L 3.7226562,6.6542969 1.2519531,8.0664062 C 0.85592639,8.2930432 0.94544925,8.888181 1.390625,8.9882812 L 4.5,9.25 l 0,1.25 c 2.76e-5,0.276131 0.2238691,0.499972 0.5,0.5 l 1,0 c 0.2761309,-2.8e-5 0.4999724,-0.223869 0.5,-0.5 L 6.5,9.25 9.609375,8.9882812 C 10.054551,8.888181 10.144074,8.2930432 9.7480469,8.0664062 L 7.2773438,6.6542969 9.6367188,5.9804688 C 10.048849,5.8615301 10.129768,5.312945 9.7695312,5.0800781 L 7.1835938,3.4179688 8.6445312,2.9785156 C 9.0489145,2.8561717 9.1287376,2.3185399 8.7773438,2.0839844 l -3,-2.00000003 C 5.693554,0.02810945 5.5948451,-0.00116283 5.4941406,0 Z" data-reactid=".0.1.1.$park-11=1svg142.0.0.3:$park-11=1svg-0-fill"></path></svg>