<svg viewBox="-295 194 13 13" width="13" height="13" data-reactid=".0.1.1.$pharmacy-11=1svg124.0.0"><path d="M-291,196c-1.8,0-2.7,2.2-1.4,3.4
	l4.9,5c1.9,1.9,4.7-0.9,2.8-2.8l-4.9-5C-290,196.2-290.5,196-291,196z M-291,196.7c0.3,0,0.7,0.1,0.9,0.4l4.9,4.9
	c0.5,0.5-0.2,1.2-0.7,0.7l-2.5-2.5l-1.1,1.1l-2.5-2.5C-292.7,198.1-292.1,196.7-291,196.7z" style="stroke-linejoin:round;stroke-miterlimit:4px;" fill="#ffffff" stroke="#ffffff" stroke-width="2" opacity="0.3" data-reactid=".0.1.1.$pharmacy-11=1svg124.0.0.2:$pharmacy-11=1svg-0-fill"></path><path fill="#444" d="M-291,196c-1.8,0-2.7,2.2-1.4,3.4
	l4.9,5c1.9,1.9,4.7-0.9,2.8-2.8l-4.9-5C-290,196.2-290.5,196-291,196z M-291,196.7c0.3,0,0.7,0.1,0.9,0.4l4.9,4.9
	c0.5,0.5-0.2,1.2-0.7,0.7l-2.5-2.5l-1.1,1.1l-2.5-2.5C-292.7,198.1-292.1,196.7-291,196.7z" data-reactid=".0.1.1.$pharmacy-11=1svg124.0.0.3:$pharmacy-11=1svg-0-fill"></path></svg>