<svg viewBox="-1 -1 17 17" width="17" height="17" data-reactid=".0.1.1.$police-15=1svg81.0.0"><path d="M 5.5 1 L 6 2 L 11 2 L 11.5 1 L 5.5 1 z M 6 2.5 L 6 3.75 C 6 3.75 6 6.5 8.5 6.5 C 11 6.5 11 3.75 11 3.75 L 11 2.5 L 6 2.5 z M 1.984375 3.9863281 C 1.4328588 3.9949492 0.99244734 4.4484682 1 5 L 1 9 C 0.99985853 9.6397954 1.5922007 10.11519 2.2167969 9.9765625 L 5 9.3574219 L 5 14 L 10.878906 7.0703125 C 10.739143 7.029435 10.594747 7 10.441406 7 L 6.5 7 L 3 7.7539062 L 3 5 C 3.0077201 4.4362301 2.548129 3.9775228 1.984375 3.9863281 z M 11.748047 7.7109375 L 6.4121094 14 L 12 14 L 12 8.5585938 C 12 8.245074 11.906062 7.9548298 11.748047 7.7109375 z " style="stroke-linejoin:round;stroke-miterlimit:4px;" fill="#ffffff" stroke="#ffffff" stroke-width="2" opacity="0.3" data-reactid=".0.1.1.$police-15=1svg81.0.0.2:$police-15=1svg-0-fill"></path><path fill="#444" d="M 5.5 1 L 6 2 L 11 2 L 11.5 1 L 5.5 1 z M 6 2.5 L 6 3.75 C 6 3.75 6 6.5 8.5 6.5 C 11 6.5 11 3.75 11 3.75 L 11 2.5 L 6 2.5 z M 1.984375 3.9863281 C 1.4328588 3.9949492 0.99244734 4.4484682 1 5 L 1 9 C 0.99985853 9.6397954 1.5922007 10.11519 2.2167969 9.9765625 L 5 9.3574219 L 5 14 L 10.878906 7.0703125 C 10.739143 7.029435 10.594747 7 10.441406 7 L 6.5 7 L 3 7.7539062 L 3 5 C 3.0077201 4.4362301 2.548129 3.9775228 1.984375 3.9863281 z M 11.748047 7.7109375 L 6.4121094 14 L 12 14 L 12 8.5585938 C 12 8.245074 11.906062 7.9548298 11.748047 7.7109375 z " data-reactid=".0.1.1.$police-15=1svg81.0.0.3:$police-15=1svg-0-fill"></path></svg>