<svg viewBox="-1 -1 17 17" width="17" height="17" data-reactid=".0.1.1.$rail-15=1svg163.0.0"><path d="M 3.5,0 C 3.5,0 2,-2.4545453e-8 2,1.5 l 0,8 C 2,11 3.5,11 3.5,11 l 8,0 c 0,0 1.5,0 1.5,-1.5 l 0,-8 C 13,1.5 13,0 11.5,0 l -8,0 z m 2.25,0.5 3.5,0 C 9.3885,0.5 9.5,0.6115 9.5,0.75 9.5,0.8885 9.3885,1 9.25,1 L 5.75,1 C 5.6115,1 5.5,0.8885 5.5,0.75 5.5,0.6115 5.6115,0.5 5.75,0.5 Z M 4,2 7,2 7,7 4,7 C 3,7 3,6 3,6 L 3,3 C 3,2 4,2 4,2 Z m 4,0 3,0 c 0,0 1,-7.996e-4 1,1 l 0,3 c 0,1 -1,1 -1,1 L 8,7 8,2 Z M 5,8 A 0.99999998,0.99999998 0 0 1 6,9 0.99999998,0.99999998 0 0 1 5,10 0.99999998,0.99999998 0 0 1 4,9 0.99999998,0.99999998 0 0 1 5,8 Z m 5,0 A 0.99999998,0.99999998 0 0 1 11,9 0.99999998,0.99999998 0 0 1 10,10 0.99999998,0.99999998 0 0 1 9,9 0.99999998,0.99999998 0 0 1 10,8 Z M 4.125,12 3,15 l 1.5,0 0.375,-1 5.25,0 0.375,1 1.5,0 -1.125,-3 -1.5,0 0.375,1 -4.5,0 0.375,-1 -1.5,0 z" style="stroke-linejoin:round;stroke-miterlimit:4px;" fill="#ffffff" stroke="#ffffff" stroke-width="2" opacity="0.3" data-reactid=".0.1.1.$rail-15=1svg163.0.0.2:$rail-15=1svg-0-fill"></path><path fill="#444" d="M 3.5,0 C 3.5,0 2,-2.4545453e-8 2,1.5 l 0,8 C 2,11 3.5,11 3.5,11 l 8,0 c 0,0 1.5,0 1.5,-1.5 l 0,-8 C 13,1.5 13,0 11.5,0 l -8,0 z m 2.25,0.5 3.5,0 C 9.3885,0.5 9.5,0.6115 9.5,0.75 9.5,0.8885 9.3885,1 9.25,1 L 5.75,1 C 5.6115,1 5.5,0.8885 5.5,0.75 5.5,0.6115 5.6115,0.5 5.75,0.5 Z M 4,2 7,2 7,7 4,7 C 3,7 3,6 3,6 L 3,3 C 3,2 4,2 4,2 Z m 4,0 3,0 c 0,0 1,-7.996e-4 1,1 l 0,3 c 0,1 -1,1 -1,1 L 8,7 8,2 Z M 5,8 A 0.99999998,0.99999998 0 0 1 6,9 0.99999998,0.99999998 0 0 1 5,10 0.99999998,0.99999998 0 0 1 4,9 0.99999998,0.99999998 0 0 1 5,8 Z m 5,0 A 0.99999998,0.99999998 0 0 1 11,9 0.99999998,0.99999998 0 0 1 10,10 0.99999998,0.99999998 0 0 1 9,9 0.99999998,0.99999998 0 0 1 10,8 Z M 4.125,12 3,15 l 1.5,0 0.375,-1 5.25,0 0.375,1 1.5,0 -1.125,-3 -1.5,0 0.375,1 -4.5,0 0.375,-1 -1.5,0 z" data-reactid=".0.1.1.$rail-15=1svg163.0.0.3:$rail-15=1svg-0-fill"></path></svg>