<svg viewBox="-1 -1 17 17" width="17" height="17" data-reactid=".0.1.1.$religious-christian-15=1svg87.0.0"><path d="M 6,0.95524136 6,4 3,4 3,7 6,7 6,15 9,15 9,7 12,7 12,4 9,4 9,1 C 9,0 8.0223661,0 8.0223661,0 L 6.9886719,0 C 6.9886719,0 6,0 6,0.95524136 Z" style="stroke-linejoin:round;stroke-miterlimit:4px;" fill="#ffffff" stroke="#ffffff" stroke-width="2" opacity="0.3" data-reactid=".0.1.1.$religious-christian-15=1svg87.0.0.2:$religious-christian-15=1svg-0-fill"></path><path fill="#444" d="M 6,0.95524136 6,4 3,4 3,7 6,7 6,15 9,15 9,7 12,7 12,4 9,4 9,1 C 9,0 8.0223661,0 8.0223661,0 L 6.9886719,0 C 6.9886719,0 6,0 6,0.95524136 Z" data-reactid=".0.1.1.$religious-christian-15=1svg87.0.0.3:$religious-christian-15=1svg-0-fill"></path></svg>