<svg viewBox="-1 -1 13 13" width="13" height="13" data-reactid=".0.1.1.$religious-muslim-11=1svg90.0.0"><path d="M 4.9,0 C 2.2,0 0,2.2 0,4.9 0,7.6 2.2,9.8 4.9,9.8 5.8,9.8 6.6,9.6 7.3,9.2 l -0.6,0 C 4.3,9.2 2.4,7.3 2.4,4.9 2.4,2.5 4.3,0.6 6.7,0.6 l 0.6,0 C 6.5,0.2 5.8,0 4.9,0 Z M 8.5,2 7.6845339,3.7 6,4 7,5.5 6.5,7 8.5,6 10.5,7 10,5.5 11,4 9.5,3.7 Z" style="stroke-linejoin:round;stroke-miterlimit:4px;" fill="#ffffff" stroke="#ffffff" stroke-width="2" opacity="0.3" data-reactid=".0.1.1.$religious-muslim-11=1svg90.0.0.2:$religious-muslim-11=1svg-0-fill"></path><path fill="#444" d="M 4.9,0 C 2.2,0 0,2.2 0,4.9 0,7.6 2.2,9.8 4.9,9.8 5.8,9.8 6.6,9.6 7.3,9.2 l -0.6,0 C 4.3,9.2 2.4,7.3 2.4,4.9 2.4,2.5 4.3,0.6 6.7,0.6 l 0.6,0 C 6.5,0.2 5.8,0 4.9,0 Z M 8.5,2 7.6845339,3.7 6,4 7,5.5 6.5,7 8.5,6 10.5,7 10,5.5 11,4 9.5,3.7 Z" data-reactid=".0.1.1.$religious-muslim-11=1svg90.0.0.3:$religious-muslim-11=1svg-0-fill"></path></svg>