<svg viewBox="-1 -1 17 17" width="17" height="17" data-reactid=".0.1.1.$rocket-15=1svg93.0.0"><path d="M 12.554688,1 C 10.410605,1 7.533587,2.4710378 5.601563,5 L 4,5 c -1.157332,3e-7 -1.82057,0.8637948 -2.277344,1.7773438 L 1.111328,8 2.554688,8 4,8 5.5,9.5 7,11 l 0,1.445312 0,1.44336 1.222656,-0.611328 C 9.136207,12.820574 10,12.157331 10,11 l 0,-1.6015625 c 2.528962,-1.9320248 4,-4.809044 4,-6.953125 L 14,1 12.554688,1 Z M 10,4 A 0.99999982,0.99999982 0 0 1 11,5 0.99999982,0.99999982 0 0 1 10,6 0.99999982,0.99999982 0 0 1 9,5 0.99999982,0.99999982 0 0 1 10,4 Z M 3.5,10 3,10.5 C 2.277777,11.222222 2,13 2,13 2,13 3.697985,12.802014 4.5,12 L 5,11.5 3.5,10 Z" style="stroke-linejoin:round;stroke-miterlimit:4px;" fill="#ffffff" stroke="#ffffff" stroke-width="2" opacity="0.3" data-reactid=".0.1.1.$rocket-15=1svg93.0.0.2:$rocket-15=1svg-0-fill"></path><path fill="#444" d="M 12.554688,1 C 10.410605,1 7.533587,2.4710378 5.601563,5 L 4,5 c -1.157332,3e-7 -1.82057,0.8637948 -2.277344,1.7773438 L 1.111328,8 2.554688,8 4,8 5.5,9.5 7,11 l 0,1.445312 0,1.44336 1.222656,-0.611328 C 9.136207,12.820574 10,12.157331 10,11 l 0,-1.6015625 c 2.528962,-1.9320248 4,-4.809044 4,-6.953125 L 14,1 12.554688,1 Z M 10,4 A 0.99999982,0.99999982 0 0 1 11,5 0.99999982,0.99999982 0 0 1 10,6 0.99999982,0.99999982 0 0 1 9,5 0.99999982,0.99999982 0 0 1 10,4 Z M 3.5,10 3,10.5 C 2.277777,11.222222 2,13 2,13 2,13 3.697985,12.802014 4.5,12 L 5,11.5 3.5,10 Z" data-reactid=".0.1.1.$rocket-15=1svg93.0.0.3:$rocket-15=1svg-0-fill"></path></svg>