<?xml version="1.0" encoding="utf-8"?>
<!-- Generator: Adobe Illustrator 17.0.0, SVG Export Plug-In . SVG Version: 6.00 Build 0)  -->
<!DOCTYPE svg PUBLIC "-//W3C//DTD SVG 1.1//EN" "http://www.w3.org/Graphics/SVG/1.1/DTD/svg11.dtd">
<svg version="1.1"
	 id="svg4619" xmlns:dc="http://purl.org/dc/elements/1.1/" xmlns:cc="http://creativecommons.org/ns#" xmlns:rdf="http://www.w3.org/1999/02/22-rdf-syntax-ns#" xmlns:svg="http://www.w3.org/2000/svg" xmlns:inkscape="http://www.inkscape.org/namespaces/inkscape"
	 xmlns="http://www.w3.org/2000/svg" xmlns:xlink="http://www.w3.org/1999/xlink" x="0px" y="0px" width="18px" height="18px"
	 viewBox="0 0 18 18" enable-background="new 0 0 18 18" xml:space="preserve">
<g id="layer1" transform="translate(0,-1034.3622)">
</g>
<g id="g3015">
	
		<path id="path15" inkscape:connector-curvature="0" opacity="0.3" fill="#FFFFFF" stroke="#FFFFFF" stroke-width="2" stroke-miterlimit="10" enable-background="new    " d="
		M14.5,5.5h-3v-1c0-0.553-0.448-1-1-1h-3c-0.552,0-1,0.447-1,1v1h-3c-0.552,0-1,0.447-1,1v7c0,0.553,0.448,1,1,1h11
		c0.552,0,1-0.447,1-1v-7C15.5,5.947,15.052,5.5,14.5,5.5z"/>
	<path id="path17" inkscape:connector-curvature="0" fill="#454545" d="M14.5,5.5h-3v-1c0-0.553-0.448-1-1-1h-3
		c-0.552,0-1,0.447-1,1v1h-3c-0.552,0-1,0.447-1,1v7c0,0.553,0.448,1,1,1h11c0.552,0,1-0.447,1-1v-7C15.5,5.947,15.052,5.5,14.5,5.5
		z M7.5,4.5h3v1h-3V4.5z M5.5,13.5h-1v-7h1V13.5z M13.5,13.5h-1v-7h1V13.5z"/>
</g>
<rect id="canvas" display="none" fill="none" width="18" height="18"/>
</svg>
