<svg viewBox="-1 -1 17 17" width="17" height="17" data-reactid=".0.1.1.$swimming-15=1svg105.0.0"><path d="m 10.111329,2.0000002 c -0.1124706,0 -0.4355466,0.146484 -0.4355466,0.146484 L 6.353516,3.8261722 c -0.44239,0.176206 -0.617743,0.881963 -0.351563,1.234375 l 0.970704,1.408203 -3.970704,2.029297 1.998047,1.5 2.501953,-1.5 2.5,1.5 1.001954,-1.001954 -3,-4 2.55664,-1.529296 c 0.52862,-0.266183 0.44336,-0.70452 0.44336,-0.970704 -0.004,-0.209946 -0.360208,-0.496093 -0.892578,-0.496093 z m 2.140624,3 c -0.967259,0 -1.751953,0.782742 -1.751953,1.75 0,0.967259 0.784693,1.751953 1.751953,1.751953 0.967261,0 1.75,-0.784694 1.75,-1.751953 0,-0.967258 -0.782739,-1.75 -1.75,-1.75 z M 2.5,10 0,11.5 0,13.000001 2.5,11.5 5,13.000001 7.501953,11.5 l 2.5,1.500001 L 12,11.5 15,13.000001 15,11.5 12,10 10.001953,11.5 7.501953,10 5,11.5 2.5,10 Z" style="stroke-linejoin:round;stroke-miterlimit:4px;" fill="#ffffff" stroke="#ffffff" stroke-width="2" opacity="0.3" data-reactid=".0.1.1.$swimming-15=1svg105.0.0.2:$swimming-15=1svg-0-fill"></path><path fill="#444" d="m 10.111329,2.0000002 c -0.1124706,0 -0.4355466,0.146484 -0.4355466,0.146484 L 6.353516,3.8261722 c -0.44239,0.176206 -0.617743,0.881963 -0.351563,1.234375 l 0.970704,1.408203 -3.970704,2.029297 1.998047,1.5 2.501953,-1.5 2.5,1.5 1.001954,-1.001954 -3,-4 2.55664,-1.529296 c 0.52862,-0.266183 0.44336,-0.70452 0.44336,-0.970704 -0.004,-0.209946 -0.360208,-0.496093 -0.892578,-0.496093 z m 2.140624,3 c -0.967259,0 -1.751953,0.782742 -1.751953,1.75 0,0.967259 0.784693,1.751953 1.751953,1.751953 0.967261,0 1.75,-0.784694 1.75,-1.751953 0,-0.967258 -0.782739,-1.75 -1.75,-1.75 z M 2.5,10 0,11.5 0,13.000001 2.5,11.5 5,13.000001 7.501953,11.5 l 2.5,1.500001 L 12,11.5 15,13.000001 15,11.5 12,10 10.001953,11.5 7.501953,10 5,11.5 2.5,10 Z" data-reactid=".0.1.1.$swimming-15=1svg105.0.0.3:$swimming-15=1svg-0-fill"></path></svg>