<svg viewBox="-1 -1 13 13" width="13" height="13" data-reactid=".0.1.1.$swimming-11=1svg104.0.0"><path d="M 8.00391,0.49414 7.30469,0.996093 4.60352,2.597656 C 4.30362,2.696706 4.20424,3.196194 4.40234,3.496093 l 0.59961,1.001954 -2.5,2 1,1.001953 2,-1.001953 L 7.50391,7.5 l 1,-1.001953 -3.00196,-3.501954 3.00196,-1.5 0,-1.001953 -0.5,0 z m 1.00195,2.501953 c -0.55302,0 -1.00195,0.448927 -1.00195,1.001954 0,0.553027 0.44893,1 1.00195,1 0.55303,0 1,-0.446973 1,-1 0,-0.553027 -0.44697,-1.001954 -1,-1.001954 z M 2,7.998047 0,9 l 0,1 2,-1 1.5,1 2,-1 2,1 L 9,9 11,10 11,9 9,7.998047 7.5,9 5.5,7.998047 3.5,9 2,7.998047 Z" style="stroke-linejoin:round;stroke-miterlimit:4px;" fill="#ffffff" stroke="#ffffff" stroke-width="2" opacity="0.3" data-reactid=".0.1.1.$swimming-11=1svg104.0.0.2:$swimming-11=1svg-0-fill"></path><path fill="#444" d="M 8.00391,0.49414 7.30469,0.996093 4.60352,2.597656 C 4.30362,2.696706 4.20424,3.196194 4.40234,3.496093 l 0.59961,1.001954 -2.5,2 1,1.001953 2,-1.001953 L 7.50391,7.5 l 1,-1.001953 -3.00196,-3.501954 3.00196,-1.5 0,-1.001953 -0.5,0 z m 1.00195,2.501953 c -0.55302,0 -1.00195,0.448927 -1.00195,1.001954 0,0.553027 0.44893,1 1.00195,1 0.55303,0 1,-0.446973 1,-1 0,-0.553027 -0.44697,-1.001954 -1,-1.001954 z M 2,7.998047 0,9 l 0,1 2,-1 1.5,1 2,-1 2,1 L 9,9 11,10 11,9 9,7.998047 7.5,9 5.5,7.998047 3.5,9 2,7.998047 Z" data-reactid=".0.1.1.$swimming-11=1svg104.0.0.3:$swimming-11=1svg-0-fill"></path></svg>