<svg viewBox="-1 -1 13 13" width="13" height="13" data-reactid=".0.1.1.$theatre-11=1svg106.0.0"><path d="M 0.60546875 0.69921875 C 0.30271645 0.69921875 0 1.0019352 0 1.3046875 L 0 5.0390625 C 0 6.4519066 0.57798169 8 3 8 L 3.5 8 L 3.5 6.1835938 L 1.2109375 6.1757812 C 1.2109375 6.1757812 1.5135824 5.0390625 3.0273438 5.0390625 C 3.330096 5.0390625 3.4309777 5.0397075 3.6328125 5.140625 L 3.6328125 3.7265625 C 3.6328125 3.1210579 3.8346116 2.7187679 4.2382812 2.4160156 C 4.5410336 2.1132647 4.7890266 2 5.3945312 2 L 6 2 L 6 1.3945312 C 6 1.0917789 5.8027523 0.73632812 5.5 0.73632812 C 4.8944954 0.73632812 4.3392704 1.3046875 3.0273438 1.3046875 C 2.0181694 1.3046875 1.2109734 0.69921875 0.60546875 0.69921875 z M 1.75 2.5 A 0.75 0.75 0 0 1 2.5 3.25 A 0.75 0.75 0 0 1 1.75 4 A 0.75 0.75 0 0 1 1 3.25 A 0.75 0.75 0 0 1 1.75 2.5 z M 5.5 3 C 5.1972477 3 4.9453125 3.4238102 4.9453125 3.7265625 L 4.9453125 7.4609375 C 4.9453125 8.8737815 5.5506378 10.488281 7.9726562 10.488281 C 10.394674 10.488281 11 8.7728641 11 7.4609375 L 11 3.7265625 C 11 3.4238102 10.802753 3 10.5 3 C 9.8944958 3 8.9082568 3.5 8 3.5 C 7.0917431 3.5 6.1055046 3 5.5 3 z M 6.75 5 A 0.75 0.75 0 0 1 7.5 5.75 A 0.75 0.75 0 0 1 6.75 6.5 A 0.75 0.75 0 0 1 6 5.75 A 0.75 0.75 0 0 1 6.75 5 z M 9.25 5 A 0.75 0.75 0 0 1 10 5.75 A 0.75 0.75 0 0 1 9.25 6.5 A 0.75 0.75 0 0 1 8.5 5.75 A 0.75 0.75 0 0 1 9.25 5 z M 6.15625 8.0664062 L 9.890625 8.0664062 C 9.890625 8.0664062 9.5879802 9.2773438 8.0742188 9.2773438 C 6.5604572 9.2773438 6.15625 8.0664062 6.15625 8.0664062 z " style="stroke-linejoin:round;stroke-miterlimit:4px;" fill="#ffffff" stroke="#ffffff" stroke-width="2" opacity="0.3" data-reactid=".0.1.1.$theatre-11=1svg106.0.0.2:$theatre-11=1svg-0-fill"></path><path fill="#444" d="M 0.60546875 0.69921875 C 0.30271645 0.69921875 0 1.0019352 0 1.3046875 L 0 5.0390625 C 0 6.4519066 0.57798169 8 3 8 L 3.5 8 L 3.5 6.1835938 L 1.2109375 6.1757812 C 1.2109375 6.1757812 1.5135824 5.0390625 3.0273438 5.0390625 C 3.330096 5.0390625 3.4309777 5.0397075 3.6328125 5.140625 L 3.6328125 3.7265625 C 3.6328125 3.1210579 3.8346116 2.7187679 4.2382812 2.4160156 C 4.5410336 2.1132647 4.7890266 2 5.3945312 2 L 6 2 L 6 1.3945312 C 6 1.0917789 5.8027523 0.73632812 5.5 0.73632812 C 4.8944954 0.73632812 4.3392704 1.3046875 3.0273438 1.3046875 C 2.0181694 1.3046875 1.2109734 0.69921875 0.60546875 0.69921875 z M 1.75 2.5 A 0.75 0.75 0 0 1 2.5 3.25 A 0.75 0.75 0 0 1 1.75 4 A 0.75 0.75 0 0 1 1 3.25 A 0.75 0.75 0 0 1 1.75 2.5 z M 5.5 3 C 5.1972477 3 4.9453125 3.4238102 4.9453125 3.7265625 L 4.9453125 7.4609375 C 4.9453125 8.8737815 5.5506378 10.488281 7.9726562 10.488281 C 10.394674 10.488281 11 8.7728641 11 7.4609375 L 11 3.7265625 C 11 3.4238102 10.802753 3 10.5 3 C 9.8944958 3 8.9082568 3.5 8 3.5 C 7.0917431 3.5 6.1055046 3 5.5 3 z M 6.75 5 A 0.75 0.75 0 0 1 7.5 5.75 A 0.75 0.75 0 0 1 6.75 6.5 A 0.75 0.75 0 0 1 6 5.75 A 0.75 0.75 0 0 1 6.75 5 z M 9.25 5 A 0.75 0.75 0 0 1 10 5.75 A 0.75 0.75 0 0 1 9.25 6.5 A 0.75 0.75 0 0 1 8.5 5.75 A 0.75 0.75 0 0 1 9.25 5 z M 6.15625 8.0664062 L 9.890625 8.0664062 C 9.890625 8.0664062 9.5879802 9.2773438 8.0742188 9.2773438 C 6.5604572 9.2773438 6.15625 8.0664062 6.15625 8.0664062 z " data-reactid=".0.1.1.$theatre-11=1svg106.0.0.3:$theatre-11=1svg-0-fill"></path></svg>