<svg viewBox="-293 192 17 17" width="17" height="17" data-reactid=".0.1.1.$toilet-15=1svg109.0.0"><path d="M-287.5,193c-0.8,0-1.5,0.7-1.5,1.5s0.7,1.5,1.5,1.5s1.5-0.7,1.5-1.5S-286.7,193-287.5,193z M-279.5,193
	c-0.8,0-1.5,0.7-1.5,1.5s0.7,1.5,1.5,1.5s1.5-0.7,1.5-1.5S-278.7,193-279.5,193z M-281.5,197c-0.3,0-0.5,0.2-0.5,0.5v5
	c0,0.3,0.2,0.5,0.5,0.5c0,0,0,0,0,0v1h0.5v3.5c0,0.3,0.2,0.5,0.5,0.5c0.3,0,0.5-0.2,0.5-0.5c0,0,0,0,0,0V204h1v3.5
	c0,0.3,0.2,0.5,0.5,0.5c0.3,0,0.5-0.2,0.5-0.5c0,0,0,0,0,0V204h0.5v-1c0.3,0,0.5-0.2,0.5-0.5c0,0,0,0,0,0v-5c0-0.3-0.2-0.5-0.5-0.5
	c0,0,0,0,0,0c0,0,0,0-0.1,0L-281.5,197C-281.5,197-281.5,197-281.5,197z M-289,197c-0.1,0-0.3,0.1-0.3,0.2l-2.5,2.5
	c-0.2,0.2-0.2,0.5,0,0.7c0.2,0.2,0.5,0.2,0.7,0c0,0,0,0,0,0l1.7-1.7l-1.5,5.3h2v3.5c0,0.3,0.2,0.5,0.5,0.5c0.3,0,0.5-0.2,0.5-0.5
	c0,0,0,0,0,0V204h1v3.5c0,0.3,0.2,0.5,0.5,0.5c0.3,0,0.5-0.2,0.5-0.5c0,0,0,0,0,0V204h2l-1.5-5.3l1.7,1.7c0.2,0.2,0.5,0.2,0.7,0
	c0.2-0.2,0.2-0.5,0-0.7c0,0,0,0,0,0l-2.5-2.5c-0.1-0.1-0.2-0.2-0.4-0.2c0,0,0,0-0.1,0L-289,197C-289,197-289,197-289,197z" style="stroke-linejoin:round;stroke-miterlimit:4px;" fill="#ffffff" stroke="#ffffff" stroke-width="2" opacity="0.3" data-reactid=".0.1.1.$toilet-15=1svg109.0.0.2:$toilet-15=1svg-0-fill"></path><path fill="#444" d="M-287.5,193c-0.8,0-1.5,0.7-1.5,1.5s0.7,1.5,1.5,1.5s1.5-0.7,1.5-1.5S-286.7,193-287.5,193z M-279.5,193
	c-0.8,0-1.5,0.7-1.5,1.5s0.7,1.5,1.5,1.5s1.5-0.7,1.5-1.5S-278.7,193-279.5,193z M-281.5,197c-0.3,0-0.5,0.2-0.5,0.5v5
	c0,0.3,0.2,0.5,0.5,0.5c0,0,0,0,0,0v1h0.5v3.5c0,0.3,0.2,0.5,0.5,0.5c0.3,0,0.5-0.2,0.5-0.5c0,0,0,0,0,0V204h1v3.5
	c0,0.3,0.2,0.5,0.5,0.5c0.3,0,0.5-0.2,0.5-0.5c0,0,0,0,0,0V204h0.5v-1c0.3,0,0.5-0.2,0.5-0.5c0,0,0,0,0,0v-5c0-0.3-0.2-0.5-0.5-0.5
	c0,0,0,0,0,0c0,0,0,0-0.1,0L-281.5,197C-281.5,197-281.5,197-281.5,197z M-289,197c-0.1,0-0.3,0.1-0.3,0.2l-2.5,2.5
	c-0.2,0.2-0.2,0.5,0,0.7c0.2,0.2,0.5,0.2,0.7,0c0,0,0,0,0,0l1.7-1.7l-1.5,5.3h2v3.5c0,0.3,0.2,0.5,0.5,0.5c0.3,0,0.5-0.2,0.5-0.5
	c0,0,0,0,0,0V204h1v3.5c0,0.3,0.2,0.5,0.5,0.5c0.3,0,0.5-0.2,0.5-0.5c0,0,0,0,0,0V204h2l-1.5-5.3l1.7,1.7c0.2,0.2,0.5,0.2,0.7,0
	c0.2-0.2,0.2-0.5,0-0.7c0,0,0,0,0,0l-2.5-2.5c-0.1-0.1-0.2-0.2-0.4-0.2c0,0,0,0-0.1,0L-289,197C-289,197-289,197-289,197z" data-reactid=".0.1.1.$toilet-15=1svg109.0.0.3:$toilet-15=1svg-0-fill"></path></svg>