<svg viewBox="-1 -1 13 13" width="13" height="13" data-reactid=".0.1.1.$town-hall-11=1svg110.0.0"><path d="M5.5,0L1,2V3h9V2ZM2,4V8L1,9v1h9V9L9,8V4H2ZM3,5H4V8H3V5ZM5,5H6V8H5V5ZM7,5H8V8H7V5Z" style="stroke-linejoin:round;stroke-miterlimit:4px;" fill="#ffffff" stroke="#ffffff" stroke-width="2" opacity="0.3" data-reactid=".0.1.1.$town-hall-11=1svg110.0.0.2:$town-hall-11=1svg-0-fill"></path><path fill="#444" d="M5.5,0L1,2V3h9V2ZM2,4V8L1,9v1h9V9L9,8V4H2ZM3,5H4V8H3V5ZM5,5H6V8H5V5ZM7,5H8V8H7V5Z" data-reactid=".0.1.1.$town-hall-11=1svg110.0.0.3:$town-hall-11=1svg-0-fill"></path></svg>