<svg viewBox="-1 -1 14 14" width="14" height="14" data-reactid=".0.1.1.$town-hall-11=1svg110.0.0"><path d="M 5.5 0 L 1 2 L 1 3 L 10 3 L 10 2 L 5.5 0 z M 2 4 L 2 8 L 1 9 L 1 10 L 10 10 L 10 9 L 9 8 L 9 4 L 8.5 4 L 2.5 4 L 2 4 z M 3 5 L 4 5 L 4 8 L 3 8 L 3 5 z M 5 5 L 6 5 L 6 8 L 5 8 L 5 5 z M 7 5 L 8 5 L 8 8 L 7 8 L 7 5 z " style="stroke-linejoin:round;stroke-miterlimit:4px;" fill="#fff" stroke="#fff" stroke-width="3" data-reactid=".0.1.1.$town-hall-11=1svg110.0.0.2:$town-hall-11=1svg-0-fill"></path><path d="m 85.5,0.5 -4,1.5 0,1 8,0 0,-1 z m -3,3.5 -0.5,0 0,4 -0.5,1 0,1 8,0 0,-1 L 89,8 89,4 88.5,4 Z" style="stroke-linejoin:round;stroke-miterlimit:4px;" fill="#fff" stroke="#fff" stroke-width="3" data-reactid=".0.1.1.$town-hall-11=1svg110.0.0.2:$town-hall-11=1svg-1-fill"></path><path d="m 83.5,8.5 0,-3 2,2 2,-2 0,3" style="stroke-linejoin:round;stroke-miterlimit:4px;" fill="#fff" stroke="#fff" stroke-width="3" data-reactid=".0.1.1.$town-hall-11=1svg110.0.0.2:$town-hall-11=1svg-2-fill"></path><path fill="#49484a" d="M 5.5 0 L 1 2 L 1 3 L 10 3 L 10 2 L 5.5 0 z M 2 4 L 2 8 L 1 9 L 1 10 L 10 10 L 10 9 L 9 8 L 9 4 L 8.5 4 L 2.5 4 L 2 4 z M 3 5 L 4 5 L 4 8 L 3 8 L 3 5 z M 5 5 L 6 5 L 6 8 L 5 8 L 5 5 z M 7 5 L 8 5 L 8 8 L 7 8 L 7 5 z " data-reactid=".0.1.1.$town-hall-11=1svg110.0.0.3:$town-hall-11=1svg-0-fill"></path><path fill="#49484a" d="m 85.5,0.5 -4,1.5 0,1 8,0 0,-1 z m -3,3.5 -0.5,0 0,4 -0.5,1 0,1 8,0 0,-1 L 89,8 89,4 88.5,4 Z" data-reactid=".0.1.1.$town-hall-11=1svg110.0.0.3:$town-hall-11=1svg-1-fill"></path><path fill="#49484a" d="m 83.5,8.5 0,-3 2,2 2,-2 0,3" data-reactid=".0.1.1.$town-hall-11=1svg110.0.0.3:$town-hall-11=1svg-2-fill"></path></svg>