<svg viewBox="-1 -1 17 17" width="17" height="17" data-reactid=".0.1.1.$town-hall-15=1svg111.0.0"><path d="M 7.5 0 L 1 3.4453125 L 1 4 L 14 4 L 14 3.4453125 L 7.5 0 z M 2 5 L 2 10 L 1 11.554688 L 1 13 L 14 13 L 14 11.554688 L 13 10 L 13 5 L 2 5 z M 4 6 L 5 6 L 5 11.5 L 4 11.5 L 4 6 z M 7 6 L 8 6 L 8 11.5 L 7 11.5 L 7 6 z M 10 6 L 11 6 L 11 11.5 L 10 11.5 L 10 6 z " style="stroke-linejoin:round;stroke-miterlimit:4px;" fill="#ffffff" stroke="#ffffff" stroke-width="2" opacity="0.3" data-reactid=".0.1.1.$town-hall-15=1svg111.0.0.2:$town-hall-15=1svg-0-fill"></path><path fill="#444" d="M 7.5 0 L 1 3.4453125 L 1 4 L 14 4 L 14 3.4453125 L 7.5 0 z M 2 5 L 2 10 L 1 11.554688 L 1 13 L 14 13 L 14 11.554688 L 13 10 L 13 5 L 2 5 z M 4 6 L 5 6 L 5 11.5 L 4 11.5 L 4 6 z M 7 6 L 8 6 L 8 11.5 L 7 11.5 L 7 6 z M 10 6 L 11 6 L 11 11.5 L 10 11.5 L 10 6 z " data-reactid=".0.1.1.$town-hall-15=1svg111.0.0.3:$town-hall-15=1svg-0-fill"></path></svg>