<?xml version="1.0" encoding="UTF-8" standalone="no"?>
<svg
   xmlns:dc="http://purl.org/dc/elements/1.1/"
   xmlns:cc="http://creativecommons.org/ns#"
   xmlns:rdf="http://www.w3.org/1999/02/22-rdf-syntax-ns#"
   xmlns:svg="http://www.w3.org/2000/svg"
   xmlns="http://www.w3.org/2000/svg"
   id="svg2"
   width="24"
   height="24"
   viewBox="0 0 24 24"
   version="1.1">
  <metadata
     id="metadata14">
    <rdf:RDF>
      <cc:Work
         rdf:about="">
        <dc:format>image/svg+xml</dc:format>
        <dc:type
           rdf:resource="http://purl.org/dc/dcmitype/StillImage" />
      </cc:Work>
    </rdf:RDF>
  </metadata>
  <defs
     id="defs12" />
  <ellipse
     id="ellipse4"
     ry="12"
     rx="12"
     cy="12"
     cx="12"
     style="fill:#ffffff;stroke:none;" />
  <ellipse
     id="ellipse6"
     ry="10"
     rx="10"
     cy="12"
     cx="12"
     style="fill:#b28b8b;stroke:none;" />
  <g
     id="g8"
     transform="translate(3,3)">
    <metadata     id="metadata3360"><rdf:RDF><cc:Work         rdf:about=""><dc:format>image/svg+xml</dc:format><dc:type           rdf:resource="http://purl.org/dc/dcmitype/StillImage" /><dc:title /></cc:Work></rdf:RDF></metadata><defs     id="defs3358" /><path     id="path3354"     d="m 5.5391607,15.000001 c -1.4832893,0 -1.6375514,-3.777875 -2.1319812,-6.0648608 -0.4192764,-1.9410229 -1.077857,-5.4923969 1.3755036,-5.8813661 2.4207284,-0.385146 2.4711603,1.4335472 4.2174863,1.4335472 1.7473156,0 1.7937916,-1.8196488 4.2145176,-1.4335472 2.457317,0.3889692 1.79676,3.9393875 1.378471,5.8813661 -0.495419,2.2869858 -0.647703,6.0648608 -2.130992,6.0648608 -1.483287,0 -1.713694,-2.867094 -3.4610076,-2.867094 -1.7572036,-10e-4 -1.9787082,2.867094 -3.4619977,2.867094 z"     style="fill:#ffffff;fill-opacity:1;stroke-width:0.93895513" />
  </g>
</svg>
