<?xml version="1.0" encoding="UTF-8" standalone="no"?>
<svg
   xmlns:dc="http://purl.org/dc/elements/1.1/"
   xmlns:cc="http://creativecommons.org/ns#"
   xmlns:rdf="http://www.w3.org/1999/02/22-rdf-syntax-ns#"
   xmlns:svg="http://www.w3.org/2000/svg"
   xmlns="http://www.w3.org/2000/svg"
   id="svg2"
   width="40"
   height="40"
   viewBox="0 0 20 20"
   version="1.1">
  <metadata
     id="metadata14">
    <rdf:RDF>
      <cc:Work
         rdf:about="">
        <dc:format>image/svg+xml</dc:format>
        <dc:type
           rdf:resource="http://purl.org/dc/dcmitype/StillImage" />
      </cc:Work>
    </rdf:RDF>
  </metadata>
  <defs
     id="defs12" />
  <ellipse
     id="ellipse4"
     ry="10"
     rx="10"
     cy="10"
     cx="10"
     style="fill:#ffffff;stroke:none;" />
  <ellipse
     id="ellipse6"
     rx="8"
     ry="8"
     cy="10"
     cx="10"
     style="fill:#b28b8b;stroke:none;" />
  <g
     id="g8"
     transform="translate(4.5,4.5)">
    <metadata     id="metadata14"><rdf:RDF><cc:Work         rdf:about=""><dc:format>image/svg+xml</dc:format><dc:type           rdf:resource="http://purl.org/dc/dcmitype/StillImage" /></cc:Work></rdf:RDF></metadata><defs     id="defs12" /><g     display="none"     id="svg4764"><path       d="M-444,845.9c0-57.3,40.9-98.2,98.2-98.2h196.4V551.4   c0-57.3,40.9-98.2,98.2-98.2h98.2c57.3,0,98.2,40.9,98.2,98.2v196.4h196.4c57.3,0,98.2,40.9,98.2,98.2v98.2   c0,57.3-40.9,98.2-98.2,98.2H145.1v196.4c0,57.3-40.9,98.2-98.2,98.2h-98.2c-57.3,0-98.2-40.9-98.2-98.2v-196.4h-196.4   c-57.3,0-98.2-40.9-98.2-98.2V845.9z"       display="inline"       id="path5535" /></g><g     id="Layer_2"><path       style="fill:#ffffff"       id="path8"       d="M85,889h-3v-3c0-0.5-0.5-1-1-1h-1c-0.5,0-1,0.5-1,1v3h-3c-0.5,0-1,0.5-1,1v1c0,0.5,0.5,1,1,1h3v3c0,0.5,0.5,1,1,1h1   c0.5,0,1-0.5,1-1v-3h3c0.5,0,1-0.5,1-1v-1C86,889.4,85.5,889,85,889z" /></g>
  </g>
</svg>
