<?xml version="1.0" encoding="UTF-8" standalone="no"?>
<!-- Created with Inkscape (http://www.inkscape.org/) -->

<svg
   xmlns:dc="http://purl.org/dc/elements/1.1/"
   xmlns:cc="http://creativecommons.org/ns#"
   xmlns:rdf="http://www.w3.org/1999/02/22-rdf-syntax-ns#"
   xmlns:svg="http://www.w3.org/2000/svg"
   xmlns="http://www.w3.org/2000/svg"
   xmlns:sodipodi="http://sodipodi.sourceforge.net/DTD/sodipodi-0.dtd"
   xmlns:inkscape="http://www.inkscape.org/namespaces/inkscape"
   width="23"
   height="23"
   id="svg4619"
   version="1.1"
   inkscape:version="0.91+devel+osxmenu r12911"
   sodipodi:docname="light-17.svg"
   viewBox="0 0 23 23">
  <defs
     id="defs4621" />
  <sodipodi:namedview
     id="base"
     pagecolor="#ffffff"
     bordercolor="#666666"
     borderopacity="1.0"
     inkscape:pageopacity="0.0"
     inkscape:pageshadow="2"
     inkscape:zoom="11.313709"
     inkscape:cx="22.493418"
     inkscape:cy="13.240021"
     inkscape:document-units="px"
     inkscape:current-layer="layer1"
     showgrid="true"
     showguides="false"
     inkscape:guide-bbox="true"
     inkscape:window-width="959"
     inkscape:window-height="1025"
     inkscape:window-x="960"
     inkscape:window-y="23"
     inkscape:window-maximized="0"
     inkscape:snap-bbox="true"
     inkscape:snap-bbox-edge-midpoints="false"
     inkscape:bbox-paths="true"
     inkscape:bbox-nodes="true"
     fit-margin-top="0"
     fit-margin-left="0"
     fit-margin-right="0"
     fit-margin-bottom="0">
    <inkscape:grid
       type="xygrid"
       id="grid4627"
       empspacing="2"
       visible="true"
       enabled="true"
       snapvisiblegridlinesonly="true"
       color="#ff00ff"
       opacity="0.1254902"
       empcolor="#ff00ff"
       empopacity="0.25098039"
       originx="5.0000019"
       originy="4.9999836" />
    <sodipodi:guide
       orientation="0,1"
       position="12.000002,22.999984"
       id="guide4659" />
    <sodipodi:guide
       orientation="1,0"
       position="23.000002,13.999984"
       id="guide4661" />
    <sodipodi:guide
       orientation="0,1"
       position="21.000002,21.999984"
       id="guide4663" />
    <sodipodi:guide
       orientation="1,0"
       position="22.000002,18.999984"
       id="guide4665" />
    <sodipodi:guide
       orientation="1,0"
       position="5.0000019,20.999984"
       id="guide4667" />
    <sodipodi:guide
       orientation="0,1"
       position="13.000002,4.9999836"
       id="guide4669" />
    <sodipodi:guide
       orientation="1,0"
       position="7.0000019,14.999984"
       id="guide4671" />
    <sodipodi:guide
       orientation="0,1"
       position="17.000002,6.9999836"
       id="guide4673" />
    <sodipodi:guide
       orientation="0,1"
       position="17.000002,20.999984"
       id="guide3010" />
    <sodipodi:guide
       orientation="1,0"
       position="8.0000019,16.499984"
       id="guide3012" />
    <sodipodi:guide
       orientation="0,1"
       position="17.000002,7.9999836"
       id="guide3014" />
    <sodipodi:guide
       orientation="1,0"
       position="21.000002,13.499984"
       id="guide3016" />
    <sodipodi:guide
       orientation="1,0"
       position="14.500002,13.999984"
       id="guide3804" />
  </sodipodi:namedview>
  <metadata
     id="metadata4624">
    <rdf:RDF>
      <cc:Work
         rdf:about="">
        <dc:format>image/svg+xml</dc:format>
        <dc:type
           rdf:resource="http://purl.org/dc/dcmitype/StillImage" />
        <dc:title></dc:title>
      </cc:Work>
    </rdf:RDF>
  </metadata>
  <g
     inkscape:label="Layer 1"
     inkscape:groupmode="layer"
     id="layer1"
     transform="translate(5.0000019,-1034.3622)">
    <rect
       style="opacity:1;fill:#a9a199;fill-opacity:1;stroke:none;stroke-width:2.63156819;stroke-linecap:round;stroke-linejoin:round;stroke-miterlimit:4;stroke-dasharray:none;stroke-dashoffset:0;stroke-opacity:1;marker:none"
       id="rect12407"
       width="20.999933"
       height="20.999933"
       x="-3.9999661"
       y="1035.3622"
       rx="1.9375536"
       ry="1.9375536" />
    <path
       style="opacity:1;fill:#ffffff;fill-opacity:1;stroke:none;stroke-width:1;stroke-linecap:round;stroke-linejoin:miter;stroke-miterlimit:4;stroke-dasharray:none;stroke-dashoffset:0;stroke-opacity:1"
       d="m 4.4999981,1038.3622 c -0.5,0 -0.5,0.5 -0.5,0.5 l 0,1 c 0,0.277 0.223,0.5 0.5,0.5 0.277,0 0.5,-0.223 0.5,-0.5 l 0,-0.5 1,0 0,2 -1,0 c 0,0 -2,0 -2,2 l 0,3 c 0,3 3,3 3,3 l 1,0 c 0,0 2.9999999,0 2.9999999,-3 l 0,-3 c 0,-2 -2,-2 -2,-2 l -0.9999999,0 0,-2 0.9999999,0 0,0.5 c 0,0.277 0.223,0.5 0.5,0.5 0.277,0 0.5,-0.223 0.5,-0.5 l 0,-1 c 0,-0.5 -0.5,-0.5 -0.5,-0.5 l -3.9999999,0 z m 2,4 2.0449219,0.7734 0.455078,1.7266 c 0.131579,0.5 -0.5,0.5 -0.5,0.5 l -3.9999999,0 c 0,0 -0.631579,0 -0.5,-0.5 l 0.455078,-1.7266 2.044922,-0.7734 z m 0,4 c 0.276143,0 0.5,0.2239 0.5,0.5 0,0.2761 -0.223857,0.5 -0.5,0.5 -0.276142,0 -0.5,-0.2239 -0.5,-0.5 0,-0.2761 0.223858,-0.5 0.5,-0.5 z m -3.375,4 -1.125,3 1.5,0 0.375,-1 5.2499999,0 0.375,1 1.5,0 -1.125,-3 -1.5,0 0.375,1 -4.4999999,0 0.375,-1 -1.5,0 z"
       id="path14245"
       inkscape:connector-curvature="0" />
  </g>
</svg>
