<?xml version="1.0" encoding="UTF-8" standalone="no"?>
<!-- Created with Inkscape (http://www.inkscape.org/) -->

<svg
   xmlns:dc="http://purl.org/dc/elements/1.1/"
   xmlns:cc="http://creativecommons.org/ns#"
   xmlns:rdf="http://www.w3.org/1999/02/22-rdf-syntax-ns#"
   xmlns:svg="http://www.w3.org/2000/svg"
   xmlns="http://www.w3.org/2000/svg"
   xmlns:sodipodi="http://sodipodi.sourceforge.net/DTD/sodipodi-0.dtd"
   xmlns:inkscape="http://www.inkscape.org/namespaces/inkscape"
   version="1.1"
   width="26"
   height="11"
   id="svg3122"
   inkscape:version="0.91+devel+osxmenu r12911"
   sodipodi:docname="london-overground.london-underground-11.svg"
   viewBox="0 0 26 11">
  <sodipodi:namedview
     pagecolor="#ffffff"
     bordercolor="#666666"
     borderopacity="1"
     objecttolerance="10"
     gridtolerance="10"
     guidetolerance="10"
     inkscape:pageopacity="0"
     inkscape:pageshadow="2"
     inkscape:window-width="1920"
     inkscape:window-height="1031"
     id="namedview19"
     showgrid="true"
     inkscape:snap-bbox="true"
     fit-margin-top="0"
     fit-margin-left="0"
     fit-margin-right="0"
     fit-margin-bottom="0"
     inkscape:zoom="21.458333"
     inkscape:cx="12.89105"
     inkscape:cy="11.234978"
     inkscape:window-x="0"
     inkscape:window-y="23"
     inkscape:window-maximized="0"
     inkscape:current-layer="svg3122"
     inkscape:document-units="px">
    <inkscape:grid
       type="xygrid"
       id="grid2996"
       empspacing="5"
       visible="true"
       enabled="true"
       snapvisiblegridlinesonly="true"
       originx="0px"
       originy="-1.8691406e-05px" />
  </sodipodi:namedview>
  <defs
     id="defs3124" />
  <metadata
     id="metadata3127">
    <rdf:RDF>
      <cc:Work
         rdf:about="">
        <dc:format>image/svg+xml</dc:format>
        <dc:type
           rdf:resource="http://purl.org/dc/dcmitype/StillImage" />
        <dc:title></dc:title>
      </cc:Work>
    </rdf:RDF>
  </metadata>
  <circle
     style="opacity:1;fill:#ffffff;fill-opacity:1;stroke:none;stroke-width:1;stroke-linecap:round;stroke-linejoin:round;stroke-miterlimit:4;stroke-dasharray:none;stroke-dashoffset:0;stroke-opacity:1;marker:none"
     id="path5876"
     cx="6.5"
     cy="5.5"
     r="3.5" />
  <path
     inkscape:connector-curvature="0"
     style="opacity:1;fill:#eea66f;fill-opacity:1;stroke:none;stroke-width:0.99999994;stroke-linecap:round;stroke-linejoin:miter;stroke-miterlimit:4;stroke-dasharray:none;stroke-dashoffset:0;stroke-opacity:1"
     d="M 6.5,1 A 4.4999999,4.4999999 0 0 0 2,5.5 4.4999999,4.4999999 0 0 0 6.5,10 4.4999999,4.4999999 0 0 0 11,5.5 4.4999999,4.4999999 0 0 0 6.5,1 Z m 0,2 A 2.5,2.5 0 0 1 9,5.5 2.5,2.5 0 0 1 6.5,8 2.5,2.5 0 0 1 4,5.5 2.5,2.5 0 0 1 6.5,3 Z"
     id="path3336" />
  <rect
     style="opacity:1;fill:#3377a7;fill-opacity:1;stroke:none;stroke-width:1;stroke-linecap:round;stroke-linejoin:miter;stroke-miterlimit:4;stroke-dasharray:none;stroke-dashoffset:0;stroke-opacity:1"
     id="rect3354-5"
     width="11"
     height="2"
     x="1"
     y="4.5"
     ry="0.5"
     rx="0.5" />
  <circle
     r="3.5"
     cy="5.5"
     cx="19.5"
     id="circle9397"
     style="opacity:1;fill:#ffffff;fill-opacity:1;stroke:none;stroke-width:1;stroke-linecap:round;stroke-linejoin:round;stroke-miterlimit:4;stroke-dasharray:none;stroke-dashoffset:0;stroke-opacity:1;marker:none" />
  <path
     id="path9399"
     d="M 19.5,1 A 4.4999999,4.4999999 0 0 0 15,5.5 4.4999999,4.4999999 0 0 0 19.5,10 4.4999999,4.4999999 0 0 0 24,5.5 4.4999999,4.4999999 0 0 0 19.5,1 Z m 0,2 A 2.5,2.5 0 0 1 22,5.5 2.5,2.5 0 0 1 19.5,8 2.5,2.5 0 0 1 17,5.5 2.5,2.5 0 0 1 19.5,3 Z"
     style="opacity:1;fill:#e97474;fill-opacity:1;stroke:none;stroke-width:0.99999994;stroke-linecap:round;stroke-linejoin:miter;stroke-miterlimit:4;stroke-dasharray:none;stroke-dashoffset:0;stroke-opacity:1"
     inkscape:connector-curvature="0" />
  <rect
     rx="0.5"
     ry="0.5"
     y="4.5"
     x="14"
     height="2"
     width="11"
     id="rect9401"
     style="opacity:1;fill:#3377a7;fill-opacity:1;stroke:none;stroke-width:1;stroke-linecap:round;stroke-linejoin:miter;stroke-miterlimit:4;stroke-dasharray:none;stroke-dashoffset:0;stroke-opacity:1" />
</svg>
