<?xml version="1.0" encoding="UTF-8" standalone="no"?>
<!-- Created with Inkscape (http://www.inkscape.org/) -->

<svg
   xmlns:dc="http://purl.org/dc/elements/1.1/"
   xmlns:cc="http://creativecommons.org/ns#"
   xmlns:rdf="http://www.w3.org/1999/02/22-rdf-syntax-ns#"
   xmlns:svg="http://www.w3.org/2000/svg"
   xmlns="http://www.w3.org/2000/svg"
   xmlns:sodipodi="http://sodipodi.sourceforge.net/DTD/sodipodi-0.dtd"
   xmlns:inkscape="http://www.inkscape.org/namespaces/inkscape"
   width="26"
   height="11"
   id="svg3241"
   version="1.1"
   inkscape:version="0.91+devel+osxmenu r12911"
   sodipodi:docname="metro.rer-11.svg"
   viewBox="0 0 26 11">
  <defs
     id="defs3243" />
  <sodipodi:namedview
     id="base"
     pagecolor="#ffffff"
     bordercolor="#666666"
     borderopacity="1.0"
     inkscape:pageopacity="0.0"
     inkscape:pageshadow="2"
     inkscape:zoom="22.627417"
     inkscape:cx="17.125789"
     inkscape:cy="3.3454419"
     inkscape:document-units="px"
     inkscape:current-layer="layer1"
     showgrid="true"
     inkscape:window-width="1679"
     inkscape:window-height="828"
     inkscape:window-x="119"
     inkscape:window-y="61"
     inkscape:window-maximized="0"
     inkscape:snap-bbox="true"
     inkscape:bbox-nodes="true">
    <inkscape:grid
       type="xygrid"
       id="grid3249"
       empspacing="2"
       visible="true"
       enabled="true"
       snapvisiblegridlinesonly="true" />
  </sodipodi:namedview>
  <metadata
     id="metadata3246">
    <rdf:RDF>
      <cc:Work
         rdf:about="">
        <dc:format>image/svg+xml</dc:format>
        <dc:type
           rdf:resource="http://purl.org/dc/dcmitype/StillImage" />
        <dc:title></dc:title>
      </cc:Work>
    </rdf:RDF>
  </metadata>
  <g
     inkscape:label="Layer 1"
     inkscape:groupmode="layer"
     id="layer1"
     transform="translate(0,-1041.3622)">
    <g
       id="g11027"
       transform="translate(14)">
      <circle
         r="5"
         cy="1046.8622"
         cx="5.5"
         id="path19058"
         style="opacity:1;fill:#ffffff;fill-opacity:1;stroke:none;stroke-width:0.99999994;stroke-linecap:round;stroke-linejoin:miter;stroke-miterlimit:4;stroke-dasharray:none;stroke-dashoffset:0;stroke-opacity:1;marker:none" />
      <path
         inkscape:connector-curvature="0"
         id="path17837"
         d="m 5.5,1041.3622 c -3.0316438,0 -5.5,2.4684 -5.5,5.5 0,3.0316 2.4683562,5.5 5.5,5.5 3.0316438,0 5.5,-2.4684 5.5,-5.5 0,-3.0316 -2.4683562,-5.5 -5.5,-5.5 z m 0,1 c 2.4912037,0 4.5,2.0088 4.5,4.5 0,2.4912 -2.0087963,4.5 -4.5,4.5 -2.4912037,0 -4.5,-2.0088 -4.5,-4.5 0,-2.4912 2.0087963,-4.5 4.5,-4.5 z"
         style="color:#000000;font-style:normal;font-variant:normal;font-weight:normal;font-stretch:normal;font-size:medium;line-height:normal;font-family:sans-serif;text-indent:0;text-align:start;text-decoration:none;text-decoration-line:none;text-decoration-style:solid;text-decoration-color:#000000;letter-spacing:normal;word-spacing:normal;text-transform:none;direction:ltr;block-progression:tb;writing-mode:lr-tb;baseline-shift:baseline;text-anchor:start;white-space:normal;shape-padding:0;clip-rule:nonzero;display:inline;overflow:visible;visibility:visible;opacity:1;isolation:auto;mix-blend-mode:normal;color-interpolation:sRGB;color-interpolation-filters:linearRGB;solid-color:#000000;solid-opacity:1;fill:#3377a7;fill-opacity:1;fill-rule:nonzero;stroke:none;stroke-width:1;stroke-linecap:round;stroke-linejoin:miter;stroke-miterlimit:4;stroke-dasharray:none;stroke-dashoffset:0;stroke-opacity:1;marker:none;color-rendering:auto;image-rendering:auto;shape-rendering:auto;text-rendering:auto;enable-background:accumulate" />
      <path
         sodipodi:nodetypes="ccccccccccccccccccccccccccccccccccccccccc"
         inkscape:connector-curvature="0"
         id="path17811"
         d="m 1.5,1044.3622 0,5 1,0 0,-1.25 0.5,1.25 1,0 -1,-2.5 c 0.4949496,0 1,-0.5 1,-1.25 0,-0.75 -0.6192991,-1.25 -1.5,-1.25 z m 3,0 0,5 2,0 0,-1 -1.25,0 0,-1 1.25,0 0,-1 -1.25,0 0,-1 1.25,0 0,-1 z m 2.5,0 0,5 1,0 0,-1.25 0.5,1.25 1,0 -1,-2.5 c 0.4949496,0 1,-0.5 1,-1.25 0,-0.75 -0.5,-1.25 -1.5,-1.25 z m -4.5,0.6543 c 0,0 0.8457031,0 0.8457031,0.5801 0,0.5787 -0.8457031,0.5781 -0.8457031,0.5781 z m 5.5,0 c 0,0 0.8457031,0 0.8457031,0.5801 0,0.5787 -0.8457031,0.5781 -0.8457031,0.5781 z"
         style="fill:#3377a7;fill-opacity:1;fill-rule:evenodd;stroke:none;stroke-width:1px;stroke-linecap:butt;stroke-linejoin:miter;stroke-opacity:1" />
    </g>
    <g
       id="g11071"
       transform="translate(1)">
      <circle
         style="opacity:1;fill:#ffffff;fill-opacity:1;stroke:none;stroke-width:1;stroke-linecap:round;stroke-linejoin:round;stroke-miterlimit:4;stroke-dasharray:none;stroke-dashoffset:0;stroke-opacity:1;marker:none"
         id="circle5311"
         cx="5.5"
         cy="1046.8622"
         r="5" />
      <circle
         r="5"
         cy="1046.8622"
         cx="5.5"
         id="path5309"
         style="opacity:1;fill:none;fill-opacity:1;stroke:#3377a7;stroke-width:1;stroke-linecap:round;stroke-linejoin:round;stroke-miterlimit:4;stroke-dasharray:none;stroke-dashoffset:0;stroke-opacity:1;marker:none" />
      <g
         transform="translate(-0.5,1040.8622)"
         id="g3807" />
      <path
         sodipodi:nodetypes="ccccc"
         inkscape:connector-curvature="0"
         id="path5307"
         d="m 3.4994786,1048.8551 0,-3.9929 2.0005214,2.5 2.000521,-2.5 0,3.9929"
         style="fill:none;fill-rule:evenodd;stroke:#3377a7;stroke-width:0.99999994px;stroke-linecap:round;stroke-linejoin:round;stroke-opacity:1" />
    </g>
  </g>
</svg>
