<?xml version="1.0" encoding="UTF-8" standalone="no"?>
<!-- Created with Inkscape (http://www.inkscape.org/) -->

<svg
   xmlns:dc="http://purl.org/dc/elements/1.1/"
   xmlns:cc="http://creativecommons.org/ns#"
   xmlns:rdf="http://www.w3.org/1999/02/22-rdf-syntax-ns#"
   xmlns:svg="http://www.w3.org/2000/svg"
   xmlns="http://www.w3.org/2000/svg"
   xmlns:sodipodi="http://sodipodi.sourceforge.net/DTD/sodipodi-0.dtd"
   xmlns:inkscape="http://www.inkscape.org/namespaces/inkscape"
   width="21"
   height="21"
   id="svg4764"
   version="1.1"
   inkscape:version="0.91+devel+osxmenu r12911"
   sodipodi:docname="rail-11.svg"
   viewBox="0 0 21 21">
  <defs
     id="defs4766" />
  <sodipodi:namedview
     id="base"
     pagecolor="#ffffff"
     bordercolor="#666666"
     borderopacity="1.0"
     inkscape:pageopacity="0.0"
     inkscape:pageshadow="2"
     inkscape:zoom="16"
     inkscape:cx="-6.487857"
     inkscape:cy="3.476763"
     inkscape:document-units="px"
     inkscape:current-layer="layer1"
     showgrid="true"
     showguides="false"
     inkscape:guide-bbox="true"
     inkscape:window-width="960"
     inkscape:window-height="1025"
     inkscape:window-x="273"
     inkscape:window-y="23"
     inkscape:window-maximized="0"
     inkscape:snap-bbox="true"
     fit-margin-top="0"
     fit-margin-left="0"
     fit-margin-right="0"
     fit-margin-bottom="0"
     inkscape:bbox-paths="true"
     inkscape:bbox-nodes="true">
    <inkscape:grid
       type="xygrid"
       id="grid4772"
       empspacing="2"
       visible="true"
       enabled="true"
       snapvisiblegridlinesonly="true"
       color="#ff00ff"
       opacity="0.1254902"
       empcolor="#ff00ff"
       empopacity="0.25098039"
       originx="3.0001584"
       originy="2.9999636" />
    <sodipodi:guide
       orientation="0,1"
       position="5.0001584,14.999964"
       id="guide4789" />
    <sodipodi:guide
       orientation="1,0"
       position="15.000159,12.999964"
       id="guide4791" />
    <sodipodi:guide
       orientation="0,1"
       position="13.000158,2.9999636"
       id="guide4793" />
    <sodipodi:guide
       orientation="1,0"
       position="3.0001584,11.999964"
       id="guide4795" />
    <sodipodi:guide
       orientation="0,1"
       position="8.0001584,13.999964"
       id="guide4797" />
    <sodipodi:guide
       orientation="1,0"
       position="14.000159,9.9999637"
       id="guide4799" />
    <sodipodi:guide
       orientation="0,1"
       position="12.000158,4.9999636"
       id="guide4801" />
    <sodipodi:guide
       orientation="1,0"
       position="5.0001584,7.9999637"
       id="guide4803" />
  </sodipodi:namedview>
  <metadata
     id="metadata4769">
    <rdf:RDF>
      <cc:Work
         rdf:about="">
        <dc:format>image/svg+xml</dc:format>
        <dc:type
           rdf:resource="http://purl.org/dc/dcmitype/StillImage" />
        <dc:title />
      </cc:Work>
    </rdf:RDF>
  </metadata>
  <g
     inkscape:label="Layer 1"
     inkscape:groupmode="layer"
     id="layer1"
     transform="translate(3.0001583,-1034.3622)">
    <rect
       style="opacity:1;fill:#a9a199;fill-opacity:1;stroke:none;stroke-width:2.63156796;stroke-linecap:round;stroke-linejoin:round;stroke-miterlimit:4;stroke-dasharray:none;stroke-dashoffset:0;stroke-opacity:1;marker:none"
       id="rect5327"
       width="17"
       height="16.999966"
       x="-1.0001574"
       y="1036.3622"
       rx="1.9999659"
       ry="1.9999659" />
    <path
       id="path14003"
       d="m 4.999842,1039.3622 c 0,0 -1,0 -1,1 l 0,5 c 0,1 1,1 1,1 l 2.5,0 2.5,0 c 0,0 1,0 1,-1 l 0,-5 c 0,0 0,-1 -1,-1 l -5,0 z m 0.5,1 1.5,0 0,3 -1.5,0 c -0.277,0 -0.5,-0.223 -0.5,-0.5 l 0,-2 c 0,-0.277 0.223,-0.5 0.5,-0.5 z m 2.5,0 1.5,0 c 0.277,0 0.5,0.223 0.5,0.5 l 0,2 c 0,0.277 -0.223,0.5 -0.5,0.5 l -1.5,0 0,-3 z m -2.5,4 a 0.5,0.5 0 0 1 0.5,0.5 0.5,0.5 0 0 1 -0.5,0.5 0.5,0.5 0 0 1 -0.5,-0.5 0.5,0.5 0 0 1 0.5,-0.5 z m 4,0 a 0.5,0.5 0 0 1 0.5,0.5 0.5,0.5 0 0 1 -0.5,0.5 0.5,0.5 0 0 1 -0.5,-0.5 0.5,0.5 0 0 1 0.5,-0.5 z m -4.5,3 -1,3 1.5,0 0.333984,-1 3.332032,0 0.333984,1 1.5,0 -1,-3 -1.5,0 0.333984,1 -2.667968,0 0.333984,-1 -1.5,0 z"
       style="fill:#ffffff;fill-opacity:1;fill-rule:evenodd;stroke:none;stroke-width:1px;stroke-linecap:butt;stroke-linejoin:miter;stroke-opacity:1"
       inkscape:connector-curvature="0" />
  </g>
</svg>
