<?xml version="1.0" encoding="UTF-8" standalone="no"?>
<!-- Created with Inkscape (http://www.inkscape.org/) -->

<svg
   xmlns:dc="http://purl.org/dc/elements/1.1/"
   xmlns:cc="http://creativecommons.org/ns#"
   xmlns:rdf="http://www.w3.org/1999/02/22-rdf-syntax-ns#"
   xmlns:svg="http://www.w3.org/2000/svg"
   xmlns="http://www.w3.org/2000/svg"
   xmlns:sodipodi="http://sodipodi.sourceforge.net/DTD/sodipodi-0.dtd"
   xmlns:inkscape="http://www.inkscape.org/namespaces/inkscape"
   width="23"
   height="23"
   id="svg4619"
   version="1.1"
   inkscape:version="0.91+devel+osxmenu r12911"
   sodipodi:docname="rail-15.svg"
   viewBox="0 0 23 23">
  <defs
     id="defs4621" />
  <sodipodi:namedview
     id="base"
     pagecolor="#ffffff"
     bordercolor="#666666"
     borderopacity="1.0"
     inkscape:pageopacity="0.0"
     inkscape:pageshadow="2"
     inkscape:zoom="11.313709"
     inkscape:cx="15.347243"
     inkscape:cy="10.63324"
     inkscape:document-units="px"
     inkscape:current-layer="layer1"
     showgrid="true"
     showguides="false"
     inkscape:guide-bbox="true"
     inkscape:window-width="959"
     inkscape:window-height="1025"
     inkscape:window-x="960"
     inkscape:window-y="23"
     inkscape:window-maximized="0"
     inkscape:snap-bbox="true"
     inkscape:object-paths="true"
     inkscape:object-nodes="true"
     fit-margin-top="0"
     fit-margin-left="0"
     fit-margin-right="0"
     fit-margin-bottom="0">
    <inkscape:grid
       type="xygrid"
       id="grid4627"
       empspacing="2"
       visible="true"
       enabled="true"
       snapvisiblegridlinesonly="true"
       color="#ff00ff"
       opacity="0.1254902"
       empcolor="#ff00ff"
       empopacity="0.25098039"
       originx="-4.9999999"
       originy="-5.0000155" />
    <sodipodi:guide
       orientation="0,1"
       position="6.5000011,17.499969"
       id="guide4659" />
    <sodipodi:guide
       orientation="1,0"
       position="17.500001,8.4999685"
       id="guide4661" />
    <sodipodi:guide
       orientation="0,1"
       position="15.500001,16.499969"
       id="guide4663" />
    <sodipodi:guide
       orientation="1,0"
       position="16.500001,13.499969"
       id="guide4665" />
    <sodipodi:guide
       orientation="1,0"
       position="-0.4999989,15.499969"
       id="guide4667" />
    <sodipodi:guide
       orientation="0,1"
       position="7.5000011,-0.50003188"
       id="guide4669" />
    <sodipodi:guide
       orientation="1,0"
       position="1.5000011,9.4999685"
       id="guide4671" />
    <sodipodi:guide
       orientation="0,1"
       position="11.500001,1.4999681"
       id="guide4673" />
    <sodipodi:guide
       orientation="0,1"
       position="11.500001,15.499969"
       id="guide3010" />
    <sodipodi:guide
       orientation="1,0"
       position="2.5000011,10.999969"
       id="guide3012" />
    <sodipodi:guide
       orientation="1,0"
       position="15.500001,7.9999685"
       id="guide3016" />
    <sodipodi:guide
       orientation="1,0"
       position="9.0000011,8.4999685"
       id="guide3804" />
    <sodipodi:guide
       orientation="0,1"
       position="12.500001,2.4999681"
       id="guide3138" />
  </sodipodi:namedview>
  <metadata
     id="metadata4624">
    <rdf:RDF>
      <cc:Work
         rdf:about="">
        <dc:format>image/svg+xml</dc:format>
        <dc:type
           rdf:resource="http://purl.org/dc/dcmitype/StillImage" />
        <dc:title />
      </cc:Work>
    </rdf:RDF>
  </metadata>
  <g
     inkscape:label="Layer 1"
     inkscape:groupmode="layer"
     id="layer1"
     transform="translate(-0.4999989,-1028.8622)">
    <rect
       style="opacity:1;fill:#a9a199;fill-opacity:1;stroke:none;stroke-width:2.63156772;stroke-linecap:round;stroke-linejoin:round;stroke-miterlimit:4;stroke-dasharray:none;stroke-dashoffset:0;stroke-opacity:1;marker:none"
       id="rect18064"
       width="21"
       height="21.000002"
       x="1.499999"
       y="1029.8622"
       rx="2.0000539"
       ry="2.0000539" />
    <path
       id="path14003"
       d="m 7.999999,1032.8622 c 0,0 -1.5,0 -1.5,1.5 l 0,8 c 0,1.5 1.5,1.5 1.5,1.5 l 8,0 c 0,0 1.5,0 1.5,-1.5 l 0,-8 c 0,0 0,-1.5 -1.5,-1.5 l -8,0 z m 2.25,0.5 3.5,0 c 0.1385,0 0.25,0.1115 0.25,0.25 0,0.1385 -0.1115,0.25 -0.25,0.25 l -3.5,0 c -0.1385,0 -0.25,-0.1115 -0.25,-0.25 0,-0.1385 0.1115,-0.25 0.25,-0.25 z m -1.75,1.5 3,0 0,5 -3,0 c -1,0 -1,-1 -1,-1 l 0,-3 c 0,-1 1,-1 1,-1 z m 4,0 3,0 c 0,0 1,-8e-4 1,1 l 0,3 c 0,1 -1,1 -1,1 l -3,0 0,-5 z m -3,6 a 0.99999998,0.99999998 0 0 1 1,1 0.99999998,0.99999998 0 0 1 -1,1 0.99999998,0.99999998 0 0 1 -1,-1 0.99999998,0.99999998 0 0 1 1,-1 z m 5,0 a 0.99999998,0.99999998 0 0 1 1,1 0.99999998,0.99999998 0 0 1 -1,1 0.99999998,0.99999998 0 0 1 -1,-1 0.99999998,0.99999998 0 0 1 1,-1 z m -5.875,4 -1.125,3 1.5,0 0.375,-1 5.25,0 0.375,1 1.5,0 -1.125,-3 -1.5,0 0.375,1 -4.5,0 0.375,-1 -1.5,0 z"
       style="fill:#ffffff;fill-opacity:1;fill-rule:evenodd;stroke:none;stroke-width:1px;stroke-linecap:butt;stroke-linejoin:miter;stroke-opacity:1"
       inkscape:connector-curvature="0" />
  </g>
</svg>
