<?xml version="1.0" encoding="UTF-8" standalone="no"?>
<!-- Generator: Adobe Illustrator 15.0.1, SVG Export Plug-In . SVG Version: 6.00 Build 0)  -->

<svg
   xmlns:dc="http://purl.org/dc/elements/1.1/"
   xmlns:cc="http://creativecommons.org/ns#"
   xmlns:rdf="http://www.w3.org/1999/02/22-rdf-syntax-ns#"
   xmlns:svg="http://www.w3.org/2000/svg"
   xmlns="http://www.w3.org/2000/svg"
   xmlns:sodipodi="http://sodipodi.sourceforge.net/DTD/sodipodi-0.dtd"
   xmlns:inkscape="http://www.inkscape.org/namespaces/inkscape"
   version="1.1"
   id="Ebene_1"
   x="0px"
   y="0px"
   width="11"
   height="11"
   viewBox="0 0 11 11"
   enable-background="new 0 0 350 353"
   xml:space="preserve"
   inkscape:version="0.91+devel+osxmenu r12911"
   sodipodi:docname="s-bahn-11.svg"><metadata
     id="metadata13"><rdf:RDF><cc:Work
         rdf:about=""><dc:format>image/svg+xml</dc:format><dc:type
           rdf:resource="http://purl.org/dc/dcmitype/StillImage" /><dc:title /></cc:Work></rdf:RDF></metadata><defs
     id="defs11" /><sodipodi:namedview
     pagecolor="#ffffff"
     bordercolor="#666666"
     borderopacity="1"
     objecttolerance="10"
     gridtolerance="10"
     guidetolerance="10"
     inkscape:pageopacity="0"
     inkscape:pageshadow="2"
     id="namedview9"
     showgrid="true"
     inkscape:zoom="45.254834"
     inkscape:cx="6.2062929"
     inkscape:cy="4.8352236"
     inkscape:window-x="1"
     inkscape:window-y="0"
     inkscape:window-maximized="0"
     inkscape:current-layer="Ebene_1"
     inkscape:snap-nodes="true"
     inkscape:snap-bbox="true"
     inkscape:bbox-paths="true"
     inkscape:bbox-nodes="true"
     inkscape:snap-bbox-edge-midpoints="false"
     inkscape:object-paths="true"
     inkscape:object-nodes="true"
     inkscape:snap-intersection-paths="true"
     inkscape:snap-smooth-nodes="true"><inkscape:grid
       type="xygrid"
       id="grid2985"
       spacingx="0.5"
       spacingy="0.5"
       color="#ff0000"
       opacity="0.1254902"
       empspacing="2" /></sodipodi:namedview><circle
     style="opacity:1;fill:#ffffff;fill-opacity:1;stroke:none;stroke-width:2.00000024;stroke-linecap:round;stroke-linejoin:round;stroke-miterlimit:4;stroke-dasharray:none;stroke-dashoffset:0;stroke-opacity:1;marker:none"
     id="path38557"
     cx="5.5"
     cy="5.5000005"
     r="4.5" /><path
     style="fill:#799a55;fill-opacity:1"
     d="m 5.5,0.5 c -2.7576855,0 -5,2.2423144 -5,5 0,2.7577157 2.2423145,5 5,5 2.7577157,0 5.00006,-2.2422843 5,-5 0,-2.7576856 -2.2422843,-5 -5,-5 z m 0,1 c 1.130199,0 1.6952983,0.3814411 2.5,1 L 8,4 C 7.3037974,3.2559366 6.4930911,2.4803821 5.5,2.5 4.5063158,2.5196296 3.9999845,2.8847053 4.0058594,3.4609375 4.0216608,5.0107878 8.5000301,3.9982216 8.5,7 c 0,1.2115733 -1.0198914,2.5 -3,2.5 -1.1030743,0 -2.3037973,-0.3761302 -3,-1 L 2.5,7 C 3.1600364,7.9493671 4.2884266,8.5 5.5,8.5 6.2414105,8.5 7.0097656,7.9911421 7.0097656,7.5390625 7.0097656,6.0291055 2.5,6.9475891 2.5,4 2.5,2.4539176 4.1437612,1.5 5.5,1.5 Z"
     id="path5-0-4"
     inkscape:connector-curvature="0" /></svg>