<svg xmlns="http://www.w3.org/2000/svg" viewBox="0 0 15 15" height="15" width="15"><title>bakery-11.svg</title><rect fill="none" x="0" y="0" width="15" height="15"></rect><path fill="rgba(41,39,39,0.65)" transform="translate(2 2)" d="M4.5,2c-1,0-1,1-1,1L5,7.5
	C5,7.5,5,8,5.5,8S6,7.5,6,7.5L7.5,3c0,0,0-1-1-1H4.5z M9,3.5l-2,4h1.5l1,1H10c1,0,1-0.9,1-0.9V6.3L9,3.5z M0,6.3v1.2
	c0,0,0.0296,1.0097,1,1c0.9704-0.0097,0.5,0,0.5,0l1-1H4l-2-4L0,6.3z" style="stroke-linejoin:round;stroke-miterlimit:4px;" stroke="rgba(41,39,39,0.65)" stroke-width="2"></path><path fill="#fff" transform="translate(2 2)" d="M4.5,2c-1,0-1,1-1,1L5,7.5
	C5,7.5,5,8,5.5,8S6,7.5,6,7.5L7.5,3c0,0,0-1-1-1H4.5z M9,3.5l-2,4h1.5l1,1H10c1,0,1-0.9,1-0.9V6.3L9,3.5z M0,6.3v1.2
	c0,0,0.0296,1.0097,1,1c0.9704-0.0097,0.5,0,0.5,0l1-1H4l-2-4L0,6.3z"></path></svg>