<svg xmlns="http://www.w3.org/2000/svg" viewBox="-4 -4 24 24" width="24" height="24"><title>car-15.svg</title><path d="M14,7c-0.004-0.6904-0.4787-1.2889-1.15-1.45l-1.39-3.24l0,0l0,0l0,0C11.3833,2.1233,11.2019,2.001,11,2H4
	C3.8124,2.0034,3.6425,2.1115,3.56,2.28l0,0l0,0l0,0L2.15,5.54C1.475,5.702,0.9994,6.3059,1,7v3.5h1v1c0,0.5523,0.4477,1,1,1
	s1-0.4477,1-1v-1h7v1c0,0.5523,0.4477,1,1,1s1-0.4477,1-1v-1h1V7z M4.3,3h6.4l1.05,2.5h-8.5L4.3,3z M3,9C2.4477,9,2,8.5523,2,8
	s0.4477-1,1-1s1,0.4477,1,1S3.5523,9,3,9z M12,9c-0.5523,0-1-0.4477-1-1s0.4477-1,1-1s1,0.4477,1,1S12.5523,9,12,9z" style="stroke-linejoin:round;stroke-miterlimit:4px;" fill="rgba(41,39,39,0.65)" stroke="rgba(41,39,39,0.65)" stroke-width="2"></path><path fill="#fff" d="M14,7c-0.004-0.6904-0.4787-1.2889-1.15-1.45l-1.39-3.24l0,0l0,0l0,0C11.3833,2.1233,11.2019,2.001,11,2H4
	C3.8124,2.0034,3.6425,2.1115,3.56,2.28l0,0l0,0l0,0L2.15,5.54C1.475,5.702,0.9994,6.3059,1,7v3.5h1v1c0,0.5523,0.4477,1,1,1
	s1-0.4477,1-1v-1h7v1c0,0.5523,0.4477,1,1,1s1-0.4477,1-1v-1h1V7z M4.3,3h6.4l1.05,2.5h-8.5L4.3,3z M3,9C2.4477,9,2,8.5523,2,8
	s0.4477-1,1-1s1,0.4477,1,1S3.5523,9,3,9z M12,9c-0.5523,0-1-0.4477-1-1s0.4477-1,1-1s1,0.4477,1,1S12.5523,9,12,9z"></path></svg>