<svg xmlns="http://www.w3.org/2000/svg" viewBox="0 0 19 19" height="19" width="19"><title>dog-park-15.svg</title><rect fill="none" x="0" y="0" width="19" height="19"></rect><path fill="rgba(41,39,39,0.65)" transform="translate(2 2)" d="M13.1,3.3216C12.4,2.6216,11.7,2.5,11,2.5V2c0,0,0.0667-0.7785-0.7-0.7784
		C9.9137,1.2216,9.6,1.2,9.5,2L9.1,4.5215L11.5,6.5h2c1.4,0,1.5-0.9588,1.5-0.9588L13.1,3.3216z M11.75,4.5
		c-0.1381,0-0.25-0.1119-0.25-0.25S11.6119,4,11.75,4S12,4.1119,12,4.25S11.8881,4.5,11.75,4.5z" style="stroke-linejoin:round;stroke-miterlimit:4px;" stroke="rgba(41,39,39,0.65)" stroke-width="2"></path><path fill="rgba(41,39,39,0.65)" transform="translate(2 2)" d="M11,12l0.1-4.0784L8,5.5H3.5v-2C3.5,3.1,3.7765,3.0053,4,3c0.4941-0.0118,0.75,0,0.75,0
		C5.1642,3,5.5,2.6642,5.5,2.25S5.1642,1.5,4.75,1.5c0,0-0.95,0.0215-1.55,0.2216c-0.6,0.2-1.2,0.9-1.2,1.9v3.9
		C2,9.2216,1.3,9.5,1,9.5c0,0-1,0.0215-1,1.0215v2.2c0,0,0,0.8,0.8,0.8H1h0.5H2v-0.5v-0.2c0-0.4-0.2-0.6-0.5-0.7v-1.1
		c1,0,1.1-0.2,1.5-0.3l0.55,2.1961c0.1,0.3,0.2,0.5,0.5,0.6h1L6,13.5v-0.8C6,12.0236,5,12,5,12V9.5h3.5l0.7,2.6216
		c0.4,1.4,1.3,1.3784,1.3,1.3784H11h1v-0.8C12,11.9882,11,12,11,12z" style="stroke-linejoin:round;stroke-miterlimit:4px;" stroke="rgba(41,39,39,0.65)" stroke-width="2"></path><path fill="#8c6" transform="translate(2 2)" d="M13.1,3.3216C12.4,2.6216,11.7,2.5,11,2.5V2c0,0,0.0667-0.7785-0.7-0.7784
		C9.9137,1.2216,9.6,1.2,9.5,2L9.1,4.5215L11.5,6.5h2c1.4,0,1.5-0.9588,1.5-0.9588L13.1,3.3216z M11.75,4.5
		c-0.1381,0-0.25-0.1119-0.25-0.25S11.6119,4,11.75,4S12,4.1119,12,4.25S11.8881,4.5,11.75,4.5z"></path><path fill="#8c6" transform="translate(2 2)" d="M11,12l0.1-4.0784L8,5.5H3.5v-2C3.5,3.1,3.7765,3.0053,4,3c0.4941-0.0118,0.75,0,0.75,0
		C5.1642,3,5.5,2.6642,5.5,2.25S5.1642,1.5,4.75,1.5c0,0-0.95,0.0215-1.55,0.2216c-0.6,0.2-1.2,0.9-1.2,1.9v3.9
		C2,9.2216,1.3,9.5,1,9.5c0,0-1,0.0215-1,1.0215v2.2c0,0,0,0.8,0.8,0.8H1h0.5H2v-0.5v-0.2c0-0.4-0.2-0.6-0.5-0.7v-1.1
		c1,0,1.1-0.2,1.5-0.3l0.55,2.1961c0.1,0.3,0.2,0.5,0.5,0.6h1L6,13.5v-0.8C6,12.0236,5,12,5,12V9.5h3.5l0.7,2.6216
		c0.4,1.4,1.3,1.3784,1.3,1.3784H11h1v-0.8C12,11.9882,11,12,11,12z"></path></svg>