<svg xmlns="http://www.w3.org/2000/svg" viewBox="0 0 23 23" height="23" width="23"><title>drinking-water-15.svg</title><rect fill="none" x="0" y="0" width="23" height="23"></rect><path fill="rgba(41,39,39,0.65)" transform="translate(4 4)" d="M5,1h9v3H6.5C6.2239,4,6,4.2239,6,4.5V7H3V3C3,1.8954,3.8954,1,5,1z M5.9,11.94L5.9,11.94L5.9,11.94L5.9,11.94L4.5,9
	l-1.39,2.93C3.0535,12.1156,3.0166,12.3067,3,12.5c-0.0021,0.8284,0.6678,1.5017,1.4962,1.5038
	C5.3246,14.0059,5.9979,13.3361,6,12.5076c0.0005-0.1946-0.0369-0.3873-0.11-0.5676H5.9z" style="stroke-linejoin:round;stroke-miterlimit:4px;" stroke="rgba(41,39,39,0.65)" stroke-width="2"></path><path fill="#fff" transform="translate(4 4)" d="M5,1h9v3H6.5C6.2239,4,6,4.2239,6,4.5V7H3V3C3,1.8954,3.8954,1,5,1z M5.9,11.94L5.9,11.94L5.9,11.94L5.9,11.94L4.5,9
	l-1.39,2.93C3.0535,12.1156,3.0166,12.3067,3,12.5c-0.0021,0.8284,0.6678,1.5017,1.4962,1.5038
	C5.3246,14.0059,5.9979,13.3361,6,12.5076c0.0005-0.1946-0.0369-0.3873-0.11-0.5676H5.9z"></path></svg>