<svg xmlns="http://www.w3.org/2000/svg" viewBox="0 0 19 19" height="19" width="19"><title>ice-cream-15.svg</title><rect fill="none" x="0" y="0" width="19" height="19"></rect><path fill="rgba(41,39,39,0.65)" transform="translate(2 2)" d="M5.44,8.17c0.7156,0.0006,1.414-0.2194,2-0.63C7.9037,7.8634,8.4391,8.0693,9,8.14h0.44L8,13.7
	c-0.1082,0.2541-0.4019,0.3723-0.656,0.264C7.2252,13.9134,7.1306,13.8188,7.08,13.7L5.44,8.17z" style="stroke-linejoin:round;stroke-miterlimit:4px;" stroke="rgba(41,39,39,0.65)" stroke-width="2"></path><path fill="rgba(41,39,39,0.65)" transform="translate(2 2)" d="M11.44,4.67c0,1.1046-0.8954,2-2,2s-2-0.8954-2-2l0,0l0,0l0,0c0,1.1046-0.8954,2-2,2s-2-0.8954-2-2s0.8954-2,2-2h0.12
	C5.1756,1.6345,5.7035,0.4834,6.739,0.099s2.1866,0.1435,2.571,1.179c0.1667,0.449,0.1667,0.9429,0,1.3919h0.13
	C10.5446,2.67,11.44,3.5654,11.44,4.67z" style="stroke-linejoin:round;stroke-miterlimit:4px;" stroke="rgba(41,39,39,0.65)" stroke-width="2"></path><path fill="#fff" transform="translate(2 2)" d="M5.44,8.17c0.7156,0.0006,1.414-0.2194,2-0.63C7.9037,7.8634,8.4391,8.0693,9,8.14h0.44L8,13.7
	c-0.1082,0.2541-0.4019,0.3723-0.656,0.264C7.2252,13.9134,7.1306,13.8188,7.08,13.7L5.44,8.17z"></path><path fill="#fff" transform="translate(2 2)" d="M11.44,4.67c0,1.1046-0.8954,2-2,2s-2-0.8954-2-2l0,0l0,0l0,0c0,1.1046-0.8954,2-2,2s-2-0.8954-2-2s0.8954-2,2-2h0.12
	C5.1756,1.6345,5.7035,0.4834,6.739,0.099s2.1866,0.1435,2.571,1.179c0.1667,0.449,0.1667,0.9429,0,1.3919h0.13
	C10.5446,2.67,11.44,3.5654,11.44,4.67z"></path></svg>