<svg xmlns="http://www.w3.org/2000/svg" viewBox="-4 -4 24 24" width="24" height="24"><title>information-15.svg</title><path d="M7.5,1
	C6.7,1,6,1.7,6,2.5S6.7,4,7.5,4S9,3.3,9,2.5S8.3,1,7.5,1z M4,5v1c0,0,2,0,2,2v2c0,2-2,2-2,2v1h7v-1c0,0-2,0-2-2V6c0-0.5-0.5-1-1-1H4
	z" style="stroke-linejoin:round;stroke-miterlimit:4px;" fill="rgba(41,39,39,0.65)" stroke="rgba(41,39,39,0.65)" stroke-width="2"></path><path fill="#fff" d="M7.5,1
	C6.7,1,6,1.7,6,2.5S6.7,4,7.5,4S9,3.3,9,2.5S8.3,1,7.5,1z M4,5v1c0,0,2,0,2,2v2c0,2-2,2-2,2v1h7v-1c0,0-2,0-2-2V6c0-0.5-0.5-1-1-1H4
	z"></path></svg>