<svg xmlns="http://www.w3.org/2000/svg" viewBox="0 0 19 19" height="19" width="19"><title>laundry-11.svg</title><rect fill="none" x="0" y="0" width="19" height="19"></rect><path fill="rgba(41,39,39,0.65)" transform="translate(4 4)" d="M5,0L4,2H2c0,0-1,0-1,1v7c0,0,0,1,1,1h7c1,0,1-1,1-1V1c0-1-1-1-1-1H5z M6,1h3v1H6V1z M5.5,4
	C6.8807,4,8,5.1193,8,6.5S6.8807,9,5.5,9S3,7.8807,3,6.5S4.1193,4,5.5,4z" style="stroke-linejoin:round;stroke-miterlimit:4px;" stroke="rgba(41,39,39,0.65)" stroke-width="2"></path><path fill="#fff" transform="translate(4 4)" d="M5,0L4,2H2c0,0-1,0-1,1v7c0,0,0,1,1,1h7c1,0,1-1,1-1V1c0-1-1-1-1-1H5z M6,1h3v1H6V1z M5.5,4
	C6.8807,4,8,5.1193,8,6.5S6.8807,9,5.5,9S3,7.8807,3,6.5S4.1193,4,5.5,4z"></path></svg>