<svg xmlns="http://www.w3.org/2000/svg" viewBox="0 0 19 19" height="19" width="19"><title>pharmacy-15.svg</title><rect fill="none" x="0" y="0" width="19" height="19"></rect><path fill="rgba(41,39,39,0.65)" transform="translate(2 2)" d="M9.5,4l1.07-1.54c0.0599,0.0046,0.1201,0.0046,0.18,0c0.6904-0.0004,1.2497-0.5603,1.2494-1.2506
	C11.999,0.519,11.4391-0.0404,10.7487-0.04C10.0584-0.0396,9.499,0.5203,9.4994,1.2106c0,0.0131,0.0002,0.0262,0.0006,0.0394
	c0,0,0,0.07,0,0.1L7,4H9.5z M12,6V5H3v1l1.5,3.5L3,13v1h9v-1l-1-3.5L12,6z M10,10H8v2H7v-2H5V9h2V7h1v2h2V10z" style="stroke-linejoin:round;stroke-miterlimit:4px;" stroke="rgba(41,39,39,0.65)" stroke-width="2"></path><path fill="#fff" transform="translate(2 2)" d="M9.5,4l1.07-1.54c0.0599,0.0046,0.1201,0.0046,0.18,0c0.6904-0.0004,1.2497-0.5603,1.2494-1.2506
	C11.999,0.519,11.4391-0.0404,10.7487-0.04C10.0584-0.0396,9.499,0.5203,9.4994,1.2106c0,0.0131,0.0002,0.0262,0.0006,0.0394
	c0,0,0,0.07,0,0.1L7,4H9.5z M12,6V5H3v1l1.5,3.5L3,13v1h9v-1l-1-3.5L12,6z M10,10H8v2H7v-2H5V9h2V7h1v2h2V10z"></path></svg>