<svg xmlns="http://www.w3.org/2000/svg" viewBox="0 0 19 19" height="19" width="19"><title>place-of-worship-11.svg</title><rect fill="none" x="0" y="0" width="19" height="19"></rect><path fill="rgba(41,39,39,0.65)" transform="translate(4 4)" d="M5.52,0L4,2v1h3V2L5.52,0z M4,4L2,5v5h7V5L7,4H4z M11,5.5V10h-1V5.5C10,5.2239,10.2239,5,10.5,5S11,5.2239,11,5.5z M1,5.5
	V10H0V5.5C0,5.2239,0.2239,5,0.5,5S1,5.2239,1,5.5z" style="stroke-linejoin:round;stroke-miterlimit:4px;" stroke="rgba(41,39,39,0.65)" stroke-width="2"></path><path fill="#fff" transform="translate(4 4)" d="M5.52,0L4,2v1h3V2L5.52,0z M4,4L2,5v5h7V5L7,4H4z M11,5.5V10h-1V5.5C10,5.2239,10.2239,5,10.5,5S11,5.2239,11,5.5z M1,5.5
	V10H0V5.5C0,5.2239,0.2239,5,0.5,5S1,5.2239,1,5.5z"></path></svg>