<svg xmlns="http://www.w3.org/2000/svg" viewBox="-4 -4 20 20" width="20" height="20"><title>prison-11.svg</title><path d="M2,1v9h7V1H2z M3,2h1v3H3V2z M5,2h1v3H5V2z M7,2h1v2H7V2z M7.5,5C7.7761,5,8,5.2239,8,5.5S7.7761,6,7.5,6
	S7,5.7761,7,5.5S7.2239,5,7.5,5z M3,6h1v3H3V6z M5,6h1v3H5V6z M7,7h1v2H7V7z" style="stroke-linejoin:round;stroke-miterlimit:4px;" fill="rgba(41,39,39,0.65)" stroke="rgba(41,39,39,0.65)" stroke-width="2"></path><path fill="#fff" d="M2,1v9h7V1H2z M3,2h1v3H3V2z M5,2h1v3H5V2z M7,2h1v2H7V2z M7.5,5C7.7761,5,8,5.2239,8,5.5S7.7761,6,7.5,6
	S7,5.7761,7,5.5S7.2239,5,7.5,5z M3,6h1v3H3V6z M5,6h1v3H5V6z M7,7h1v2H7V7z"></path></svg>