<svg xmlns="http://www.w3.org/2000/svg" viewBox="0 0 23 23" height="23" width="23"><title>religious-christian-15.svg</title><rect fill="none" x="0" y="0" width="23" height="23"></rect><path fill="rgba(41,39,39,0.65)" transform="translate(4 4)" d="M6,0.9552V4H3v3h3v8h3V7h3V4H9V1
	c0-1-0.9776-1-0.9776-1H6.9887C6.9887,0,6,0,6,0.9552z" style="stroke-linejoin:round;stroke-miterlimit:4px;" stroke="rgba(41,39,39,0.65)" stroke-width="2"></path><path fill="#fff" transform="translate(4 4)" d="M6,0.9552V4H3v3h3v8h3V7h3V4H9V1
	c0-1-0.9776-1-0.9776-1H6.9887C6.9887,0,6,0,6,0.9552z"></path></svg>