<svg xmlns="http://www.w3.org/2000/svg" viewBox="0 0 15 15" height="15" width="15"><title>school-11.svg</title><rect fill="none" x="0" y="0" width="15" height="15"></rect><path fill="rgba(41,39,39,0.65)" transform="translate(2 2)" d="M8.5,9V8H10V6H7.5V5H10V3H8.5V2H10V1H6v9h4V9H8.5z M4,7H1V1h3V7z M4,8l-1.5,2L1,8H4z" style="stroke-linejoin:round;stroke-miterlimit:4px;" stroke="rgba(41,39,39,0.65)" stroke-width="2"></path><path fill="#fff" transform="translate(2 2)" d="M8.5,9V8H10V6H7.5V5H10V3H8.5V2H10V1H6v9h4V9H8.5z M4,7H1V1h3V7z M4,8l-1.5,2L1,8H4z"></path></svg>