<svg xmlns="http://www.w3.org/2000/svg" viewBox="-4 -4 24 24" width="24" height="24"><title>suitcase-15.svg</title><path d="M11,4V2c0-1-1-1-1-1H5.0497
	c0,0-1.1039,0.0015-1.0497,1v2H2c0,0-1,0-1,1v7c0,1,1,1,1,1h11c0,0,1,0,1-1V5c0-1-1-1-1-1H11z M5.5,2.5h4V4h-4V2.5z" style="stroke-linejoin:round;stroke-miterlimit:4px;" fill="rgba(41,39,39,0.65)" stroke="rgba(41,39,39,0.65)" stroke-width="2"></path><path fill="#fff" d="M11,4V2c0-1-1-1-1-1H5.0497
	c0,0-1.1039,0.0015-1.0497,1v2H2c0,0-1,0-1,1v7c0,1,1,1,1,1h11c0,0,1,0,1-1V5c0-1-1-1-1-1H11z M5.5,2.5h4V4h-4V2.5z"></path></svg>