<svg xmlns="http://www.w3.org/2000/svg" viewBox="0 0 19 19" height="19" width="19"><title>suitcase-11.svg</title><rect fill="none" x="0" y="0" width="19" height="19"></rect><path fill="rgba(41,39,39,0.65)" transform="translate(4 4)" d="M8,3V1.578L7.3601,1H3.6399
	L3,1.7477V3H1.5L1,3.5v6L1.5,10h8L10,9.5v-6L9.5,3H8z M4,2h3v1H4V2z" style="stroke-linejoin:round;stroke-miterlimit:4px;" stroke="rgba(41,39,39,0.65)" stroke-width="2"></path><path fill="#fff" transform="translate(4 4)" d="M8,3V1.578L7.3601,1H3.6399
	L3,1.7477V3H1.5L1,3.5v6L1.5,10h8L10,9.5v-6L9.5,3H8z M4,2h3v1H4V2z"></path></svg>