<svg xmlns="http://www.w3.org/2000/svg" viewBox="0 0 23 23" height="23" width="23"><title>swimming-15.svg</title><rect fill="none" x="0" y="0" width="23" height="23"></rect><path fill="rgba(41,39,39,0.65)" transform="translate(4 4)" d="M10.1113,2C9.9989,2,9.6758,2.1465,9.6758,2.1465L6.3535,3.8262
	C5.9111,4.0024,5.7358,4.7081,6.002,5.0605l0.9707,1.4082L3.002,8.498L5,9.998l2.502-1.5l2.5,1.5l1.002-1.002l-3-4l2.5566-1.5293
	c0.5286-0.2662,0.4434-0.7045,0.4434-0.9707C10.9999,2.2861,10.6437,2,10.1113,2z M12.252,5C11.2847,5,10.5,5.7827,10.5,6.75
	s0.7847,1.752,1.752,1.752s1.75-0.7847,1.75-1.752S13.2192,5,12.252,5z M2.5,10L0,11.5V13l2.5-1.5L5,13l2.502-1.5l2.5,1.5L12,11.5
	l3,1.5v-1.5L12,10l-1.998,1.5l-2.5-1.5L5,11.5L2.5,10z" style="stroke-linejoin:round;stroke-miterlimit:4px;" stroke="rgba(41,39,39,0.65)" stroke-width="2"></path><path fill="#fff" transform="translate(4 4)" d="M10.1113,2C9.9989,2,9.6758,2.1465,9.6758,2.1465L6.3535,3.8262
	C5.9111,4.0024,5.7358,4.7081,6.002,5.0605l0.9707,1.4082L3.002,8.498L5,9.998l2.502-1.5l2.5,1.5l1.002-1.002l-3-4l2.5566-1.5293
	c0.5286-0.2662,0.4434-0.7045,0.4434-0.9707C10.9999,2.2861,10.6437,2,10.1113,2z M12.252,5C11.2847,5,10.5,5.7827,10.5,6.75
	s0.7847,1.752,1.752,1.752s1.75-0.7847,1.75-1.752S13.2192,5,12.252,5z M2.5,10L0,11.5V13l2.5-1.5L5,13l2.502-1.5l2.5,1.5L12,11.5
	l3,1.5v-1.5L12,10l-1.998,1.5l-2.5-1.5L5,11.5L2.5,10z"></path></svg>