<svg xmlns="http://www.w3.org/2000/svg" viewBox="0 0 19 19" height="19" width="19"><title>triangle-stroked-11.svg</title><rect fill="none" x="0" y="0" width="19" height="19"></rect><path fill="rgba(41,39,39,0.65)" transform="translate(4 4)" d="M5.5174,1.2315
	C5.3163,1.2253,5.1276,1.328,5.024,1.5l-4,6.6598C0.8013,8.5293,1.0679,8.9999,1.5,9h8c0.4321-0.0001,0.6987-0.4707,0.476-0.8402
	l-4-6.6598C5.8787,1.3386,5.706,1.2375,5.5174,1.2315z M5.5,2.8627l3.0191,5.0286H2.4809L5.5,2.8627z" style="stroke-linejoin:round;stroke-miterlimit:4px;" stroke="rgba(41,39,39,0.65)" stroke-width="2"></path><path fill="#fff" transform="translate(4 4)" d="M5.5174,1.2315
	C5.3163,1.2253,5.1276,1.328,5.024,1.5l-4,6.6598C0.8013,8.5293,1.0679,8.9999,1.5,9h8c0.4321-0.0001,0.6987-0.4707,0.476-0.8402
	l-4-6.6598C5.8787,1.3386,5.706,1.2375,5.5174,1.2315z M5.5,2.8627l3.0191,5.0286H2.4809L5.5,2.8627z"></path></svg>