<?xml version="1.0" encoding="UTF-8" standalone="no"?>
<!-- Created with Inkscape (http://www.inkscape.org/) -->

<svg
   xmlns:dc="http://purl.org/dc/elements/1.1/"
   xmlns:cc="http://creativecommons.org/ns#"
   xmlns:rdf="http://www.w3.org/1999/02/22-rdf-syntax-ns#"
   xmlns:svg="http://www.w3.org/2000/svg"
   xmlns="http://www.w3.org/2000/svg"
   xmlns:sodipodi="http://sodipodi.sourceforge.net/DTD/sodipodi-0.dtd"
   xmlns:inkscape="http://www.inkscape.org/namespaces/inkscape"
   version="1.1"
   width="15"
   height="15"
   id="svg4619"
   xml:space="preserve"
   inkscape:version="0.91 r13725"
   sodipodi:docname="ice-cream-15.svg"
   viewBox="0 0 13.235294 13.235294"><sodipodi:namedview
     pagecolor="#ffffff"
     bordercolor="#666666"
     borderopacity="1"
     objecttolerance="10"
     gridtolerance="10"
     guidetolerance="10"
     inkscape:pageopacity="0"
     inkscape:pageshadow="2"
     inkscape:window-width="901"
     inkscape:window-height="708"
     id="namedview3342"
     inkscape:document-units="px"
     showgrid="false"
     inkscape:snap-bbox="false"
     inkscape:bbox-paths="true"
     inkscape:bbox-nodes="true"
     inkscape:object-paths="true"
     inkscape:snap-intersection-paths="true"
     inkscape:object-nodes="true"
     inkscape:zoom="1"
     inkscape:cx="7.0728955"
     inkscape:cy="4.3675446"
     inkscape:window-x="31"
     inkscape:window-y="2"
     inkscape:window-maximized="0"
     inkscape:current-layer="svg4619"><inkscape:grid
       type="xygrid"
       id="grid3344"
       spacingx="0.44117647"
       spacingy="0.44117647"
       color="#ff0000"
       opacity="0.1254902"
       empspacing="2" /></sodipodi:namedview><metadata
     id="metadata23"><rdf:RDF><cc:Work
         rdf:about=""><dc:format>image/svg+xml</dc:format><dc:type
           rdf:resource="http://purl.org/dc/dcmitype/StillImage" /><dc:title></dc:title></cc:Work></rdf:RDF></metadata><defs
     id="defs21" /><path
     inkscape:connector-curvature="0"
     style="opacity:1;fill:#000000;fill-opacity:1;stroke:none;stroke-width:1;stroke-linecap:round;stroke-linejoin:miter;stroke-miterlimit:4;stroke-dasharray:none;stroke-dashoffset:0;stroke-opacity:1"
     d="m 6.3235295,0.91574958 c -0.4888236,0 -0.8823531,0.39352922 -0.8823531,0.88235282 0,0.4888236 0.3935295,0.882353 0.8823531,0.882353 l -1.1764707,0 c -0.4888236,0 -0.8823529,0.3935294 -0.8823529,0.8823528 0,0.4888236 0.3935293,0.8823529 0.8823529,0.8823529 l -1.1764706,0 c -0.4888236,0 -0.8823529,0.3935295 -0.8823529,0.8823531 0,0.4888235 0.3935293,0.882353 0.8823529,0.882353 l 5.2941178,0 c 0.4888243,0 0.882353,-0.3935295 0.882353,-0.882353 0,-0.4888236 -0.3935287,-0.8823531 -0.882353,-0.8823531 l -1.1764706,0 c 0.4888236,0 0.8823529,-0.3935293 0.8823529,-0.8823529 0,-0.4888234 -0.3935293,-0.8823528 -0.8823529,-0.8823528 l -1.1764706,0 c 0.4888235,0 0.882353,-0.3935294 0.882353,-0.882353 0,-0.4888236 -0.3935295,-0.88235282 -0.882353,-0.88235282 z m -2.7941178,5.70189772 2e-7,1.7647057 0.8823529,0 0.8823529,4.411765 2.6470589,0 0.8823529,-4.411765 0.882353,0 -2e-7,-1.7647057 z"
     id="rect3349"
     sodipodi:nodetypes="sscsscsssssscsscsssccccccccc" /></svg>
