<?xml version="1.0" encoding="UTF-8" standalone="no"?>
<!-- Created with Inkscape (http://www.inkscape.org/) -->

<svg
   xmlns:dc="http://purl.org/dc/elements/1.1/"
   xmlns:cc="http://creativecommons.org/ns#"
   xmlns:rdf="http://www.w3.org/1999/02/22-rdf-syntax-ns#"
   xmlns:svg="http://www.w3.org/2000/svg"
   xmlns="http://www.w3.org/2000/svg"
   xmlns:sodipodi="http://sodipodi.sourceforge.net/DTD/sodipodi-0.dtd"
   xmlns:inkscape="http://www.inkscape.org/namespaces/inkscape"
   width="19"
   height="22"
   id="svg3844"
   version="1.1"
   inkscape:version="0.91 r13725"
   sodipodi:docname="us-highway-duplex-3.svg">
  <defs
     id="defs3846" />
  <sodipodi:namedview
     id="base"
     pagecolor="#ffffff"
     bordercolor="#666666"
     borderopacity="1.0"
     inkscape:pageopacity="0.0"
     inkscape:pageshadow="2"
     inkscape:zoom="22.627417"
     inkscape:cx="4.3655928"
     inkscape:cy="11.660407"
     inkscape:document-units="px"
     inkscape:current-layer="layer1"
     showgrid="true"
     inkscape:snap-bbox="true"
     fit-margin-top="0"
     fit-margin-left="0"
     fit-margin-right="0"
     fit-margin-bottom="0"
     inkscape:window-width="1280"
     inkscape:window-height="751"
     inkscape:window-x="0"
     inkscape:window-y="0"
     inkscape:window-maximized="1"
     inkscape:object-nodes="true"
     inkscape:object-paths="true"
     inkscape:snap-intersection-paths="true"
     inkscape:snap-smooth-nodes="true">
    <inkscape:grid
       type="xygrid"
       id="grid3875"
       empspacing="2"
       visible="true"
       enabled="true"
       snapvisiblegridlinesonly="true"
       originx="-300"
       originy="-129.00006"
       spacingy="0.5px"
       spacingx="0.5px" />
  </sodipodi:namedview>
  <metadata
     id="metadata3849">
    <rdf:RDF>
      <cc:Work
         rdf:about="">
        <dc:format>image/svg+xml</dc:format>
        <dc:type
           rdf:resource="http://purl.org/dc/dcmitype/StillImage" />
        <dc:title></dc:title>
      </cc:Work>
    </rdf:RDF>
  </metadata>
  <g
     inkscape:label="Layer 1"
     inkscape:groupmode="layer"
     id="layer1"
     transform="translate(-300,-901.36212)">
    <path
       style="color:#3a3836;display:inline;overflow:visible;visibility:visible;opacity:1;fill:#ffffff;fill-opacity:1;fill-rule:evenodd;stroke:#3a3836;stroke-width:1;stroke-linecap:round;stroke-linejoin:round;marker:none;enable-background:accumulate"
       clip-path="none"
       d="m 318.5,911.36218 c 0,-1.25 -0.5,-2.5 -1,-3.5 -1,-2 0.5,-3 1,-3.5 l -4,-2.5 c 0,0 -1,1.5 -2.5,1.5 -1.5,0 -2.5,-1.5 -2.5,-1.5 0,0 -1,1.5 -2.5,1.5 -1.5,0 -2.5,-1.5 -2.5,-1.5 l -4,2.5 c 0.5,0.5 2,1.5 1,3.5 -0.5,1 -1,2.25 -1,3.5 l 0,5.5 c 0,1.25 0.5,2.5 1.5,3.5 2.5,2.5 6.5,0.5 7.5,2.5 1,-2 5,0 7.5,-2.5 1,-1 1.5,-2.25 1.5,-3.5 z"
       id="path3799-7-0"
       inkscape:connector-curvature="0"
       sodipodi:nodetypes="ssccscsccsscscscs" />
    <rect
       style="color:#3a3836;display:inline;overflow:visible;visibility:visible;opacity:0;fill:#3a3836;fill-opacity:1;fill-rule:nonzero;stroke:none;stroke-width:1;marker:none;enable-background:accumulate"
       id="rect3803"
       width="17"
       height="21.999998"
       x="301"
       y="901.36218" />
  </g>
</svg>
