<?xml version="1.0" encoding="UTF-8" standalone="no"?>
<svg
   xmlns:dc="http://purl.org/dc/elements/1.1/"
   xmlns:cc="http://creativecommons.org/ns#"
   xmlns:rdf="http://www.w3.org/1999/02/22-rdf-syntax-ns#"
   xmlns:svg="http://www.w3.org/2000/svg"
   xmlns="http://www.w3.org/2000/svg"
   id="svg2"
   width="48"
   height="48"
   viewBox="0 0 24 24"
   version="1.1">
  <metadata
     id="metadata14">
    <rdf:RDF>
      <cc:Work
         rdf:about="">
        <dc:format>image/svg+xml</dc:format>
        <dc:type
           rdf:resource="http://purl.org/dc/dcmitype/StillImage" />
      </cc:Work>
    </rdf:RDF>
  </metadata>
  <defs
     id="defs12" />
  <ellipse
     id="ellipse4"
     ry="12"
     rx="12"
     cy="12"
     cx="12"
     style="fill:#ffffff;stroke:none;" />
  <ellipse
     id="ellipse6"
     ry="10"
     rx="10"
     cy="12"
     cx="12"
     style="fill:#a9a199;stroke:none;" />
  <g
     id="g8"
     transform="translate(4.5,4.5)">
    <metadata     id="metadata14"><rdf:RDF><cc:Work         rdf:about=""><dc:format>image/svg+xml</dc:format><dc:type           rdf:resource="http://purl.org/dc/dcmitype/StillImage" /><dc:title /></cc:Work></rdf:RDF></metadata><defs     id="defs12" /><path     id="path5715"     d="M 4,0 C 3.723,0 3.5,0.223 3.5,0.5 L 3.5,1 C 3.223,1 3,1.223 3,1.5 3,1.777 3.223,2 3.5,2 l 0,0.5 C 3.5,3.9324328 1,5.5675674 1,7 l 0,6 c 0,1 1,1 1,1 l 5,0 c 0,0 1,-0.126765 1,-1 L 8,7 C 8,5.6494896 5.5,3.8505103 5.5,2.5 L 5.5,2 C 5.777,2 6,1.777 6,1.5 6,1.223 5.777,1 5.5,1 l 0,-0.5 C 5.5,0.223 5.277,0 5,0 Z M 9,6 9.2832031,8.4863281 C 9.4857791,9.9043648 11,10 11,10 l 0,2.5 c 0,1.000637 -1,1.25 -1,1.25 l 0,0.25 3,0 0,-0.25 c 0,0 -1,-0.244948 -1,-1.25 L 12,10 c 0,0 1.282377,-0.092731 1.582031,-1.5136719 L 14,6 Z m 1,1 3,0 -0.25,1 -2.5,0 z M 4.5,8 C 5.3284271,8 6,8.8954305 6,10 6,11.104569 5.3284271,12 4.5,12 3.6715729,12 3,11.104569 3,10 3,8.8954305 3.6715729,8 4.5,8 Z"     style="fill:#ffffff;fill-opacity:1;stroke-width:1.13333344" />
  </g>
</svg>
