<?xml version="1.0" encoding="UTF-8" standalone="no"?>
<svg
   xmlns:dc="http://purl.org/dc/elements/1.1/"
   xmlns:cc="http://creativecommons.org/ns#"
   xmlns:rdf="http://www.w3.org/1999/02/22-rdf-syntax-ns#"
   xmlns:svg="http://www.w3.org/2000/svg"
   xmlns="http://www.w3.org/2000/svg"
   id="svg2"
   width="20"
   height="20"
   viewBox="0 0 20 20"
   version="1.1">
  <metadata
     id="metadata14">
    <rdf:RDF>
      <cc:Work
         rdf:about="">
        <dc:format>image/svg+xml</dc:format>
        <dc:type
           rdf:resource="http://purl.org/dc/dcmitype/StillImage" />
      </cc:Work>
    </rdf:RDF>
  </metadata>
  <defs
     id="defs12" />
  <ellipse
     id="ellipse4"
     ry="10"
     rx="10"
     cy="10"
     cx="10"
     style="fill:#ffffff;stroke:none;" />
  <ellipse
     id="ellipse6"
     rx="8"
     ry="8"
     cy="10"
     cx="10"
     style="fill:#a9a199;stroke:none;" />
  <g
     id="g8"
     transform="translate(4.5,5)">
    <metadata     id="metadata9"><rdf:RDF><cc:Work         rdf:about=""><dc:format>image/svg+xml</dc:format><dc:type           rdf:resource="http://purl.org/dc/dcmitype/StillImage" /><dc:title /></cc:Work></rdf:RDF></metadata><defs     id="defs7" /><style     id="style3"     type="text/css" /><path     id="path5715"     transform="scale(0.88235295)"     d="M 3 0 C 2.723 0 2.5 0.223 2.5 0.5 C 2.5 0.777 2.723 1 3 1 C 3 2.0000001 1 3.9999999 1 5 L 1 9.0292969 C 1 9.9998854 1.9707031 10 1.9707031 10 L 5 10 C 5 10 6 9.9999999 6 9 L 6 5 C 6 4.0571909 4.0000001 1.942809 4 1 C 4.277 1 4.5 0.777 4.5 0.5 C 4.5 0.223 4.277 -7.4014868e-17 4 0 L 3 0 z M 6.75 4 L 7 5.5 C 7.164399 6.4863938 8.25 6.5 8.25 6.5 L 8.25 8.75 C 8.25 9.25 7.5 9.5 7.5 9.5 L 7.5 10 L 9.5 10 L 9.5 9.5 C 9.5 9.5 8.75 9.25 8.75 8.75 L 8.75 6.5 C 8.75 6.5 9.8333332 6.4999999 10 5.5 L 10.25 4 L 6.75 4 z M 7.75 4.5 L 9.25 4.5 L 9 5.5 L 8 5.5 L 7.75 4.5 z M 3.5 5 A 1.4999999 1.9999997 0 0 1 5 7 A 1.4999999 1.9999997 0 0 1 3.5 9 A 1.4999999 1.9999997 0 0 1 2 7 A 1.4999999 1.9999997 0 0 1 3.5 5 z "     style="fill:#ffffff;stroke-width:1.13333321" />
  </g>
</svg>
