<?xml version="1.0" encoding="UTF-8" standalone="no"?>
<svg
   xmlns:dc="http://purl.org/dc/elements/1.1/"
   xmlns:cc="http://creativecommons.org/ns#"
   xmlns:rdf="http://www.w3.org/1999/02/22-rdf-syntax-ns#"
   xmlns:svg="http://www.w3.org/2000/svg"
   xmlns="http://www.w3.org/2000/svg"
   id="svg2"
   width="24"
   height="24"
   viewBox="0 0 24 24"
   version="1.1">
  <metadata
     id="metadata14">
    <rdf:RDF>
      <cc:Work
         rdf:about="">
        <dc:format>image/svg+xml</dc:format>
        <dc:type
           rdf:resource="http://purl.org/dc/dcmitype/StillImage" />
      </cc:Work>
    </rdf:RDF>
  </metadata>
  <defs
     id="defs12" />
  <ellipse
     id="ellipse4"
     ry="12"
     rx="12"
     cy="12"
     cx="12"
     style="fill:#ffffff;stroke:none;" />
  <ellipse
     id="ellipse6"
     ry="10"
     rx="10"
     cy="12"
     cx="12"
     style="fill:#a9a199;stroke:none;" />
  <g
     id="g8"
     transform="translate(4.5,5)">
    <metadata     id="metadata8"><rdf:RDF><cc:Work         rdf:about=""><dc:format>image/svg+xml</dc:format><dc:type           rdf:resource="http://purl.org/dc/dcmitype/StillImage" /><dc:title /></cc:Work></rdf:RDF></metadata><defs     id="defs6" /><path     id="path5230"     d="M 5.2941176,4.3823529 6,9.5 c 0,0 0,1 1,1 l 1,0 c 1,0 1,-1 1,-1 L 9.7058824,4.3823529 C 9.7058824,3 7.5,3 7.5,3 7.5,3 5.2909892,3 5.2941176,4.3823529 Z M 3.5,5 C 2,5 2,6 2,6 l 1,4 1.5,0 C 5.2550138,10 5.2941176,9.2352941 5.2941176,9.2352941 L 4.5,5 Z m -2,2.5 C 1.5,7.5 0.88235294,7.4705882 0.44117647,7.9117647 0,8.3529412 0,8.7941176 0,8.7941176 L 0,11 0.88235294,11 C 2,11 2,10 2,10 Z"     style="fill:#ffffff;fill-opacity:1" /><path     id="path5230-2"     d="M 11.5,5 C 13,5 13,6 13,6 l -1,4 -1.5,0 C 9.744986,10 9.705882,9.235294 9.705882,9.235294 L 10.5,5 Z m 2,2.5 c 0,0 0.617647,-0.02941 1.058823,0.411765 C 15,8.352941 15,8.794118 15,8.794118 L 15,11 14.117647,11 C 13,11 13,10 13,10 Z"     style="fill:#ffffff;fill-opacity:1" />
  </g>
</svg>
