<?xml version="1.0" encoding="UTF-8" standalone="no"?>
<svg
   xmlns:dc="http://purl.org/dc/elements/1.1/"
   xmlns:cc="http://creativecommons.org/ns#"
   xmlns:rdf="http://www.w3.org/1999/02/22-rdf-syntax-ns#"
   xmlns:svg="http://www.w3.org/2000/svg"
   xmlns="http://www.w3.org/2000/svg"
   id="svg2"
   width="40"
   height="40"
   viewBox="0 0 20 20"
   version="1.1">
  <metadata
     id="metadata14">
    <rdf:RDF>
      <cc:Work
         rdf:about="">
        <dc:format>image/svg+xml</dc:format>
        <dc:type
           rdf:resource="http://purl.org/dc/dcmitype/StillImage" />
      </cc:Work>
    </rdf:RDF>
  </metadata>
  <defs
     id="defs12" />
  <ellipse
     id="ellipse4"
     ry="10"
     rx="10"
     cy="10"
     cx="10"
     style="fill:#ffffff;stroke:none;" />
  <ellipse
     id="ellipse6"
     rx="8"
     ry="8"
     cy="10"
     cx="10"
     style="fill:#a9a199;stroke:none;" />
  <g
     id="g8"
     transform="translate(4.5,4.5)">
    <metadata     id="metadata27"><rdf:RDF><cc:Work         rdf:about=""><dc:format>image/svg+xml</dc:format><dc:type           rdf:resource="http://purl.org/dc/dcmitype/StillImage" /><dc:title /></cc:Work></rdf:RDF></metadata><defs     id="defs25" /><path     id="path8522-6-8"     d="M 2.5 1 C 2.5 1 1.75 1 1.5 2 L 1 4 C 1 4 0 4.5 0 5.5 L 0 8 C 0 8 0 9 1 9 L 1 9.5 C 1 10 1.5 10 1.5 10 L 2.5 10 C 2.5 10 3 10 3 9.5 L 3 9 L 8 9 L 8 9.5 C 8 10 8.5 10 8.5 10 L 9.5 10 C 9.5 10 10 10 10 9.5 L 10 9 C 11 9 11 8 11 8 L 11 5.5 C 11 4.5 10 4 10 4 L 9.5 2 C 9.244114 0.97645611 8.5 1 8.5 1 L 2.5 1 z M 2.5 2 L 8.5 2 L 8.75 3 C 9.0074763 4.0299052 8 4 8 4 L 3 4 C 3 4 1.9967854 4.0128585 2.25 3 L 2.5 2 z M 2 6 A 1 1 0 0 1 3 7 A 1 1 0 0 1 2 8 A 1 1 0 0 1 1 7 A 1 1 0 0 1 2 6 z M 9 6 A 1 1 0 0 1 10 7 A 1 1 0 0 1 9 8 A 1 1 0 0 1 8 7 A 1 1 0 0 1 9 6 z "     style="fill:#ffffff;fill-opacity:1" />
  </g>
</svg>
