<?xml version="1.0" encoding="UTF-8" standalone="no"?>
<svg
   xmlns:dc="http://purl.org/dc/elements/1.1/"
   xmlns:cc="http://creativecommons.org/ns#"
   xmlns:rdf="http://www.w3.org/1999/02/22-rdf-syntax-ns#"
   xmlns:svg="http://www.w3.org/2000/svg"
   xmlns="http://www.w3.org/2000/svg"
   id="svg2"
   width="20"
   height="20"
   viewBox="0 0 20 20"
   version="1.1">
  <metadata
     id="metadata14">
    <rdf:RDF>
      <cc:Work
         rdf:about="">
        <dc:format>image/svg+xml</dc:format>
        <dc:type
           rdf:resource="http://purl.org/dc/dcmitype/StillImage" />
      </cc:Work>
    </rdf:RDF>
  </metadata>
  <defs
     id="defs12" />
  <ellipse
     id="ellipse4"
     ry="10"
     rx="10"
     cy="10"
     cx="10"
     style="fill:#ffffff;stroke:none;" />
  <ellipse
     id="ellipse6"
     rx="8"
     ry="8"
     cy="10"
     cx="10"
     style="fill:#a9a199;stroke:none;" />
  <g
     id="g8"
     transform="translate(4.5,5)">
      <defs     id="defs4766" />  <metadata     id="metadata4769">    <rdf:RDF>      <cc:Work         rdf:about="">        <dc:format>image/svg+xml</dc:format>        <dc:type           rdf:resource="http://purl.org/dc/dcmitype/StillImage" />        <dc:title />      </cc:Work>    </rdf:RDF>  </metadata>  <path     id="path8564-5-6-2"     d="M 5.5,0 C 8.5375828,0 11,2.4624111 11,5.5 11,8.5375889 8.5375828,11 5.5,11 2.4624172,11 0,8.5375889 0,5.5 0,2.4624111 2.4624172,0 5.5,0 Z m 0,1.2222222 c -2.3625678,0 -4.2777778,1.9152222 -4.2777778,4.2777778 0,2.3625556 1.91521,4.2777778 4.2777778,4.2777778 C 7.8625678,9.7777778 9.777778,7.8625556 9.777778,5.5 9.777778,3.1374444 7.8625678,1.2222222 5.5,1.2222222 Z"     style="fill:#ffffff;fill-opacity:1" />
  </g>
</svg>
