<?xml version="1.0" encoding="UTF-8" standalone="no"?>
<svg
   xmlns:dc="http://purl.org/dc/elements/1.1/"
   xmlns:cc="http://creativecommons.org/ns#"
   xmlns:rdf="http://www.w3.org/1999/02/22-rdf-syntax-ns#"
   xmlns:svg="http://www.w3.org/2000/svg"
   xmlns="http://www.w3.org/2000/svg"
   id="svg2"
   width="40"
   height="40"
   viewBox="0 0 20 20"
   version="1.1">
  <metadata
     id="metadata14">
    <rdf:RDF>
      <cc:Work
         rdf:about="">
        <dc:format>image/svg+xml</dc:format>
        <dc:type
           rdf:resource="http://purl.org/dc/dcmitype/StillImage" />
      </cc:Work>
    </rdf:RDF>
  </metadata>
  <defs
     id="defs12" />
  <ellipse
     id="ellipse4"
     ry="10"
     rx="10"
     cy="10"
     cx="10"
     style="fill:#ffffff;stroke:none;" />
  <ellipse
     id="ellipse6"
     rx="8"
     ry="8"
     cy="10"
     cx="10"
     style="fill:#a9a199;stroke:none;" />
  <g
     id="g8"
     transform="translate(4.5,4.5)">
      <defs     id="defs4766" />  <metadata     id="metadata4769">    <rdf:RDF>      <cc:Work         rdf:about="">        <dc:format>image/svg+xml</dc:format>        <dc:type           rdf:resource="http://purl.org/dc/dcmitype/StillImage" />        <dc:title />      </cc:Work>    </rdf:RDF>  </metadata>  <path     id="path5324"     d="M 5.5 1 C 4.5 1 3.5 2.5 3.5 2.5 L 3.5 6.5 C 3.5 6.5 4.666667 5 5.5 5 C 6.5 5 7.028175 6.5 8 6.5 C 8.971825 6.5 10 5 10 5 L 10 1 C 10 1 8.971825 2.5 8 2.5 C 7.028175 2.5 6.5 1 5.5 1 z M 2.5 1.5 A 0.5 0.50000006 0 0 0 2 2 L 2 8 C 2 9 1 9 1 9 L 1 10 L 4 10 L 4 9 C 4 9 3 9 3 8 L 3 6.5 L 3 2 A 0.5 0.50000006 0 0 0 2.5 1.5 z "     style="fill:#ffffff;fill-opacity:1" />
  </g>
</svg>
