<?xml version="1.0" encoding="UTF-8" standalone="no"?>
<svg
   xmlns:dc="http://purl.org/dc/elements/1.1/"
   xmlns:cc="http://creativecommons.org/ns#"
   xmlns:rdf="http://www.w3.org/1999/02/22-rdf-syntax-ns#"
   xmlns:svg="http://www.w3.org/2000/svg"
   xmlns="http://www.w3.org/2000/svg"
   id="svg2"
   width="24"
   height="24"
   viewBox="0 0 24 24"
   version="1.1">
  <metadata
     id="metadata14">
    <rdf:RDF>
      <cc:Work
         rdf:about="">
        <dc:format>image/svg+xml</dc:format>
        <dc:type
           rdf:resource="http://purl.org/dc/dcmitype/StillImage" />
      </cc:Work>
    </rdf:RDF>
  </metadata>
  <defs
     id="defs12" />
  <ellipse
     id="ellipse4"
     ry="12"
     rx="12"
     cy="12"
     cx="12"
     style="fill:#ffffff;stroke:none;" />
  <ellipse
     id="ellipse6"
     ry="10"
     rx="10"
     cy="12"
     cx="12"
     style="fill:#a9a199;stroke:none;" />
  <g
     id="g8"
     transform="translate(4.5,5)">
      <defs     id="defs4621" />  <metadata     id="metadata4624">    <rdf:RDF>      <cc:Work         rdf:about="">        <dc:format>image/svg+xml</dc:format>        <dc:type           rdf:resource="http://purl.org/dc/dcmitype/StillImage" />        <dc:title />      </cc:Work>    </rdf:RDF>  </metadata>  <path     id="path8375"     d="m 6.6176466,0 c -1.862193,0 -3.610409,0.60097753 -3.610409,2.4057904 l 0,1.8060662 c 0,1.0281658 0.602857,2.1664454 1.806066,2.4057904 0.983407,0.1956204 3.0072384,-0.2201095 3.0072384,-2.4264706 0,-0.6586238 -0.4574464,-1.5154985 -1.2201284,-1.5251608 -1.496341,-0.018957 -2.631367,-0.4020807 -2.629825,-0.892693 0.0013,-0.4921982 1.186053,-0.89096993 2.647058,-0.89096967 0.448663,1.2909e-4 0.889865,0.0386753 1.2821696,0.11201744 C 8.0119174,0.44072447 7.3386966,0 6.6176466,0 Z M 9.624885,0.90303308 c -0.2314976,0 -0.4588085,0.18136292 -0.5531938,0.53768382 0.126855,0.1056928 0.1923759,0.2185999 0.1930147,0.3326057 C 9.2645665,1.9600962 9.0903583,2.142141 8.7666591,2.293773 8.6685191,2.354339 8.5751083,2.389068 8.5064338,2.398897 8.3941386,2.436999 8.2718594,2.471606 8.1410841,2.5022978 c -0.1000764,0.082219 -0.1592232,0.2337473 -0.017232,0.523897 0.1465076,0.2993837 0.2585012,0.6669568 0.2585012,1.1649816 0,1.2442945 -0.389138,1.961097 -1.1632587,2.4264706 -1.000732,0.6016036 0,0.6014476 0,0.6014476 1.6973363,0 3.0089614,-1.5366464 3.0089614,-3.007238 l 0,-2.4075138 c 0,-0.6016042 -0.3023687,-0.90130972 -0.603171,-0.90130972 z M 6.1764706,7.9411764 6.0161986,12.032399 c -0.721924,-1.443851 -2.486787,-3.2088697 -5.13384597,-1.444164 0,0 2.05882397,2.647059 5.73529397,2.647059 3.6764704,0 5.7352944,-2.647059 5.7352944,-2.647059 -2.6470586,-1.7647057 -4.4119224,3.13e-4 -5.1338464,1.444164 L 7.0588235,7.9411764 c 0,0 0,-0.4411765 -0.4411764,-0.4411765 -0.4411765,0 -0.4411765,0.4411765 -0.4411765,0.4411765 z"     style="fill:#ffffff;fill-opacity:1;stroke-width:0.88235301" />
  </g>
</svg>
