<?xml version="1.0" encoding="UTF-8" standalone="no"?>
<svg
   xmlns:dc="http://purl.org/dc/elements/1.1/"
   xmlns:cc="http://creativecommons.org/ns#"
   xmlns:rdf="http://www.w3.org/1999/02/22-rdf-syntax-ns#"
   xmlns:svg="http://www.w3.org/2000/svg"
   xmlns="http://www.w3.org/2000/svg"
   id="svg2"
   width="40"
   height="40"
   viewBox="0 0 20 20"
   version="1.1">
  <metadata
     id="metadata14">
    <rdf:RDF>
      <cc:Work
         rdf:about="">
        <dc:format>image/svg+xml</dc:format>
        <dc:type
           rdf:resource="http://purl.org/dc/dcmitype/StillImage" />
      </cc:Work>
    </rdf:RDF>
  </metadata>
  <defs
     id="defs12" />
  <ellipse
     id="ellipse4"
     ry="10"
     rx="10"
     cy="10"
     cx="10"
     style="fill:#ffffff;stroke:none;" />
  <ellipse
     id="ellipse6"
     rx="8"
     ry="8"
     cy="10"
     cx="10"
     style="fill:#a9a199;stroke:none;" />
  <g
     id="g8"
     transform="translate(4.5,4.5)">
      <defs     id="defs4766" />  <metadata     id="metadata4769">    <rdf:RDF>      <cc:Work         rdf:about="">        <dc:format>image/svg+xml</dc:format>        <dc:type           rdf:resource="http://purl.org/dc/dcmitype/StillImage" />        <dc:title />      </cc:Work>    </rdf:RDF>  </metadata>  <path     id="path6232"     d="M 1.5 2 A 1.5 1.5 0 0 0 0 3.5 L 0 4.5 C 0 5 0.5 5 0.5 5 L 1.5 5 C 3 5 4 5.5 4 5.5 C 4 5.5 3 6 1.5 6 L 0.5 6 C 0.5 6 1.4802974e-16 6 0 6.5 L 0 7.5 A 1.5 1.5 0 0 0 1.5 9 A 1.5 1.5 0 0 0 3 7.5 L 3 6.8847656 C 3.808196 6.7270055 4.5864906 6.4316405 5.2246094 6.1425781 L 8.5 8 C 10 8.75 11 8 11 8 L 6.5 5.5 L 11 3 C 11 3 10 2.25 8.5 3 L 5.2246094 4.8574219 C 4.5865585 4.5683903 3.8081416 4.273053 3 4.1152344 L 3 3.5039062 A 1.5 1.5 0 0 0 3 3.5 A 1.5 1.5 0 0 0 1.5 2 z M 1.5 3 A 0.5 0.5 0 0 1 2 3.5 A 0.5 0.5 0 0 1 1.5 4 A 0.5 0.5 0 0 1 1 3.5 A 0.5 0.5 0 0 1 1.5 3 z M 5.2324219 5.25 A 0.25 0.25 0 0 1 5.25 5.25 A 0.25 0.25 0 0 1 5.5 5.5 A 0.25 0.25 0 0 1 5.25 5.75 A 0.25 0.25 0 0 1 5 5.5 A 0.25 0.25 0 0 1 5.2324219 5.25 z M 1.5 7 A 0.5 0.5 0 0 1 2 7.5 A 0.5 0.5 0 0 1 1.5 8 A 0.5 0.5 0 0 1 1 7.5 A 0.5 0.5 0 0 1 1.5 7 z "     style="fill:#ffffff;fill-opacity:1;fill-rule:evenodd;stroke:none;stroke-width:1px;stroke-linecap:butt;stroke-linejoin:miter;stroke-opacity:1" />
  </g>
</svg>
