<?xml version="1.0" encoding="UTF-8" standalone="no"?>
<svg
   xmlns:dc="http://purl.org/dc/elements/1.1/"
   xmlns:cc="http://creativecommons.org/ns#"
   xmlns:rdf="http://www.w3.org/1999/02/22-rdf-syntax-ns#"
   xmlns:svg="http://www.w3.org/2000/svg"
   xmlns="http://www.w3.org/2000/svg"
   id="svg2"
   width="40"
   height="40"
   viewBox="0 0 20 20"
   version="1.1">
  <metadata
     id="metadata14">
    <rdf:RDF>
      <cc:Work
         rdf:about="">
        <dc:format>image/svg+xml</dc:format>
        <dc:type
           rdf:resource="http://purl.org/dc/dcmitype/StillImage" />
      </cc:Work>
    </rdf:RDF>
  </metadata>
  <defs
     id="defs12" />
  <ellipse
     id="ellipse4"
     ry="10"
     rx="10"
     cy="10"
     cx="10"
     style="fill:#ffffff;stroke:none;" />
  <ellipse
     id="ellipse6"
     rx="8"
     ry="8"
     cy="10"
     cx="10"
     style="fill:#a9a199;stroke:none;" />
  <g
     id="g8"
     transform="translate(4.5,4.5)">
    <metadata     id="metadata27"><rdf:RDF><cc:Work         rdf:about=""><dc:format>image/svg+xml</dc:format><dc:type           rdf:resource="http://purl.org/dc/dcmitype/StillImage" /><dc:title /></cc:Work></rdf:RDF></metadata><defs     id="defs25" /><path     id="rect3349"     d="M 5.25 0.5 C 4.8345 0.5 4.5 0.8345 4.5 1.25 C 4.5 1.6655 4.8345 2 5.25 2 L 4.25 2 C 3.8345 2 3.5 2.3345 3.5 2.75 C 3.5 3.1655 3.8345 3.5 4.25 3.5 L 3.25 3.5 C 2.8345 3.5 2.5 3.8345 2.5 4.25 C 2.5 4.6655 2.8345 5 3.25 5 L 7.75 5 C 8.1655 5 8.5 4.6655 8.5 4.25 C 8.5 3.8345 8.1655 3.5 7.75 3.5 L 6.75 3.5 C 7.1655 3.5 7.5 3.1655 7.5 2.75 C 7.5 2.3345 7.1655 2 6.75 2 L 5.75 2 C 6.1655 2 6.5 1.6655 6.5 1.25 C 6.5 0.8345 6.1655 0.5 5.75 0.5 L 5.25 0.5 z M 3 5.5 L 3 7 L 3.5 7 L 4 11 L 7 11 L 7.5 7 L 8 7 L 8 5.5 L 3 5.5 z "     style="opacity:1;fill:#ffffff;fill-opacity:1;stroke:none;stroke-width:1;stroke-linecap:round;stroke-linejoin:miter;stroke-miterlimit:4;stroke-dasharray:none;stroke-dashoffset:0;stroke-opacity:1" />
  </g>
</svg>
