<?xml version="1.0" encoding="UTF-8" standalone="no"?>
<svg
   xmlns:dc="http://purl.org/dc/elements/1.1/"
   xmlns:cc="http://creativecommons.org/ns#"
   xmlns:rdf="http://www.w3.org/1999/02/22-rdf-syntax-ns#"
   xmlns:svg="http://www.w3.org/2000/svg"
   xmlns="http://www.w3.org/2000/svg"
   id="svg2"
   width="48"
   height="48"
   viewBox="0 0 24 24"
   version="1.1">
  <metadata
     id="metadata14">
    <rdf:RDF>
      <cc:Work
         rdf:about="">
        <dc:format>image/svg+xml</dc:format>
        <dc:type
           rdf:resource="http://purl.org/dc/dcmitype/StillImage" />
      </cc:Work>
    </rdf:RDF>
  </metadata>
  <defs
     id="defs12" />
  <ellipse
     id="ellipse4"
     ry="12"
     rx="12"
     cy="12"
     cx="12"
     style="fill:#ffffff;stroke:none;" />
  <ellipse
     id="ellipse6"
     ry="10"
     rx="10"
     cy="12"
     cx="12"
     style="fill:#a9a199;stroke:none;" />
  <g
     id="g8"
     transform="translate(5.5,5.5)">
    <metadata     id="metadata23"><rdf:RDF><cc:Work         rdf:about=""><dc:format>image/svg+xml</dc:format><dc:type           rdf:resource="http://purl.org/dc/dcmitype/StillImage" /><dc:title /></cc:Work></rdf:RDF></metadata><defs     id="defs21" /><path     id="rect3349"     d="m 6.3235295,0.91574958 c -0.4888236,0 -0.8823531,0.39352922 -0.8823531,0.88235282 0,0.4888236 0.3935295,0.882353 0.8823531,0.882353 l -1.1764707,0 c -0.4888236,0 -0.8823529,0.3935294 -0.8823529,0.8823528 0,0.4888236 0.3935293,0.8823529 0.8823529,0.8823529 l -1.1764706,0 c -0.4888236,0 -0.8823529,0.3935295 -0.8823529,0.8823531 0,0.4888235 0.3935293,0.882353 0.8823529,0.882353 l 5.2941178,0 c 0.4888243,0 0.882353,-0.3935295 0.882353,-0.882353 0,-0.4888236 -0.3935287,-0.8823531 -0.882353,-0.8823531 l -1.1764706,0 c 0.4888236,0 0.8823529,-0.3935293 0.8823529,-0.8823529 0,-0.4888234 -0.3935293,-0.8823528 -0.8823529,-0.8823528 l -1.1764706,0 c 0.4888235,0 0.882353,-0.3935294 0.882353,-0.882353 0,-0.4888236 -0.3935295,-0.88235282 -0.882353,-0.88235282 z m -2.7941178,5.70189772 2e-7,1.7647057 0.8823529,0 0.8823529,4.411765 2.6470589,0 0.8823529,-4.411765 0.882353,0 -2e-7,-1.7647057 z"     style="opacity:1;fill:#ffffff;fill-opacity:1;stroke:none;stroke-width:1;stroke-linecap:round;stroke-linejoin:miter;stroke-miterlimit:4;stroke-dasharray:none;stroke-dashoffset:0;stroke-opacity:1" />
  </g>
</svg>
