<?xml version="1.0" encoding="UTF-8" standalone="no"?>
<svg
   xmlns:dc="http://purl.org/dc/elements/1.1/"
   xmlns:cc="http://creativecommons.org/ns#"
   xmlns:rdf="http://www.w3.org/1999/02/22-rdf-syntax-ns#"
   xmlns:svg="http://www.w3.org/2000/svg"
   xmlns="http://www.w3.org/2000/svg"
   id="svg2"
   width="48"
   height="48"
   viewBox="0 0 24 24"
   version="1.1">
  <metadata
     id="metadata14">
    <rdf:RDF>
      <cc:Work
         rdf:about="">
        <dc:format>image/svg+xml</dc:format>
        <dc:type
           rdf:resource="http://purl.org/dc/dcmitype/StillImage" />
      </cc:Work>
    </rdf:RDF>
  </metadata>
  <defs
     id="defs12" />
  <ellipse
     id="ellipse4"
     ry="12"
     rx="12"
     cy="12"
     cx="12"
     style="fill:#ffffff;stroke:none;" />
  <ellipse
     id="ellipse6"
     ry="10"
     rx="10"
     cy="12"
     cx="12"
     style="fill:#a9a199;stroke:none;" />
  <g
     id="g8"
     transform="translate(4.5,4.5)">
    <metadata     id="metadata3166"><rdf:RDF><cc:Work         rdf:about=""><dc:format>image/svg+xml</dc:format><dc:type           rdf:resource="http://purl.org/dc/dcmitype/StillImage" /><dc:title /></cc:Work></rdf:RDF></metadata><defs     id="defs3164" /><path     id="path3291-2"     transform="scale(0.88235295,0.88235295)"     d="M 13,0.9453125 7,0.99999989 4.5,3.9999999 2,4 2.0000001,14 13,14 Z M 7.5,2 9,2 9,3.5 7.5,3.5 Z m 2.5,0 1.5,0 0,1.5 -1.5,0 z M 7.5,4.9999999 c 2.209139,0 4,1.790861 4,4 C 11.5,11.209139 9.709139,13 7.5,13 c -2.209139,0 -4,-1.790861 -4,-4.0000001 0,-2.209139 1.790861,-4 4,-4 z m -3,4 C 4.5000001,10.656854 5.8431458,12 7.5,12 c 1.6568542,0 3,-1.343146 3,-3.0000001 -1.7094533,-0.01003 -3.4999999,0 -6,0 z"     style="fill:#ffffff;fill-opacity:1" />
  </g>
</svg>
