<?xml version="1.0" encoding="UTF-8" standalone="no"?>
<svg
   xmlns:dc="http://purl.org/dc/elements/1.1/"
   xmlns:cc="http://creativecommons.org/ns#"
   xmlns:rdf="http://www.w3.org/1999/02/22-rdf-syntax-ns#"
   xmlns:svg="http://www.w3.org/2000/svg"
   xmlns="http://www.w3.org/2000/svg"
   id="svg2"
   width="48"
   height="48"
   viewBox="0 0 24 24"
   version="1.1">
  <metadata
     id="metadata14">
    <rdf:RDF>
      <cc:Work
         rdf:about="">
        <dc:format>image/svg+xml</dc:format>
        <dc:type
           rdf:resource="http://purl.org/dc/dcmitype/StillImage" />
      </cc:Work>
    </rdf:RDF>
  </metadata>
  <defs
     id="defs12" />
  <ellipse
     id="ellipse4"
     ry="12"
     rx="12"
     cy="12"
     cx="12"
     style="fill:#ffffff;stroke:none;" />
  <ellipse
     id="ellipse6"
     ry="10"
     rx="10"
     cy="12"
     cx="12"
     style="fill:#a9a199;stroke:none;" />
  <g
     id="g8"
     transform="translate(4.5,4.5)">
      <defs     id="defs4621" />  <metadata     id="metadata4624">    <rdf:RDF>      <cc:Work         rdf:about="">        <dc:format>image/svg+xml</dc:format>        <dc:type           rdf:resource="http://purl.org/dc/dcmitype/StillImage" />        <dc:title />      </cc:Work>    </rdf:RDF>  </metadata>  <path     id="rect5810"     d="M 0.40326286,2.4540441 C 2.3786477e-4,2.4592782 0,2.9193473 0,2.9193474 l 0,6.617647 c 0,0 -0.01722239,0.6020406 0.6014476,0.7703356 l 4.69267,1.251148 0,0.239546 c 0,0.307301 0.2476166,0.554917 0.5549172,0.554917 l 1.5372243,0 c 0.3073006,0 0.5549173,-0.247616 0.5549173,-0.554917 l 0,-0.239546 4.6926696,-1.251148 c 0.618671,-0.168295 0.601448,-0.7703356 0.601448,-0.7703356 l 0,-6.617647 c 0,-10e-8 1.53e-4,-0.6000791 -0.601448,-0.4360065 L 6.617647,4.1239659 0.6014476,2.4833409 c -0.0752,-0.020509 -0.14060974,-0.030044 -0.19818474,-0.029297 z m 0.47909007,1.0684742 5.29411757,1.3941866 0,5.7421871 -5.29411757,-1.3941862 0,-5.7421875 z m 11.47058807,0 0,5.7421875 -5.2941176,1.3941862 0,-5.7421871 5.2941176,-1.3941866 z m -10.1470587,1.5062041 0,0.4411765 2.2058823,0.5893841 0,-0.4411765 -2.2058823,-0.5893841 z m 8.8235297,0 -2.6470592,0.7065716 0,0.4411765 2.6470592,-0.7065716 0,-0.4411765 z m -8.8235297,0.8823529 0,0.4411765 2.6470588,0.7065716 0,-0.4411764 -2.6470588,-0.7065717 z m 8.8235297,0 -2.6470592,0.7065717 0,0.4411764 2.6470592,-0.7065716 0,-0.4411765 z m -8.8235297,0.882353 0,0.4411764 1.3235294,0.3532859 0,-0.4411765 -1.3235294,-0.3532858 z m 7.9411767,0.2360983 -1.7647062,0.4704733 0,0.4411765 1.7647062,-0.4704733 0,-0.4411765 z m -7.9411767,0.6462546 0,0.4411765 2.6470588,0.7065716 0,-0.4411765 -2.6470588,-0.7065716 z m 8.8235297,0 -2.6470592,0.7065716 0,0.4411765 2.6470592,-0.7065716 0,-0.4411765 z"     style="opacity:1;fill:#ffffff;fill-opacity:1;stroke:none;stroke-width:1.76470578;stroke-linecap:round;stroke-linejoin:round;stroke-miterlimit:4;stroke-dasharray:none;stroke-dashoffset:0;stroke-opacity:1;marker:none" />
  </g>
</svg>
