<?xml version="1.0" encoding="UTF-8" standalone="no"?>
<svg
   xmlns:dc="http://purl.org/dc/elements/1.1/"
   xmlns:cc="http://creativecommons.org/ns#"
   xmlns:rdf="http://www.w3.org/1999/02/22-rdf-syntax-ns#"
   xmlns:svg="http://www.w3.org/2000/svg"
   xmlns="http://www.w3.org/2000/svg"
   id="svg2"
   width="48"
   height="48"
   viewBox="0 0 24 24"
   version="1.1">
  <metadata
     id="metadata14">
    <rdf:RDF>
      <cc:Work
         rdf:about="">
        <dc:format>image/svg+xml</dc:format>
        <dc:type
           rdf:resource="http://purl.org/dc/dcmitype/StillImage" />
      </cc:Work>
    </rdf:RDF>
  </metadata>
  <defs
     id="defs12" />
  <ellipse
     id="ellipse4"
     ry="12"
     rx="12"
     cy="12"
     cx="12"
     style="fill:#ffffff;stroke:none;" />
  <ellipse
     id="ellipse6"
     ry="10"
     rx="10"
     cy="12"
     cx="12"
     style="fill:#a9a199;stroke:none;" />
  <g
     id="g8"
     transform="translate(4.5,4.5)">
    <?xml version="1.0" encoding="UTF-8" standalone="no"?><svg   xmlns:dc="http://purl.org/dc/elements/1.1/"   xmlns:cc="http://creativecommons.org/ns#"   xmlns:rdf="http://www.w3.org/1999/02/22-rdf-syntax-ns#"   xmlns:svg="http://www.w3.org/2000/svg"   xmlns="http://www.w3.org/2000/svg"   xml:space="preserve"   enable-background="new 0 0 15 15"   viewBox="0 0 15 15"   y="0px"   x="0px"   id="svg4619"   version="1.1"><metadata     id="metadata8"><rdf:RDF><cc:Work         rdf:about=""><dc:format>image/svg+xml</dc:format><dc:type           rdf:resource="http://purl.org/dc/dcmitype/StillImage" /><dc:title /></cc:Work></rdf:RDF></metadata><defs     id="defs6" /><path     id="path3340"     d="M 13,1 5,2.5 c 0,0 -1,0 -1,1 L 4,10 c 0,0 -0.3320507,8.9e-5 -0.5,0 C 2.1192881,10 1,11.119288 1,12.5 1,13.880712 2.1192881,15 3.5,15 4.8807119,15 6,13.880712 6,12.5 L 6,7 12,6 12,8.5 c 0,0 -0.332051,8.92e-5 -0.5,0 C 10.119288,8.5 9,9.6192881 9,11 c 0,1.380712 1.119288,2.5 2.5,2.5 1.380712,0 2.5,-1.119288 2.5,-2.5 0,-1.3034638 0,-2.6069277 0,-3.9103915 L 14,1.5 C 14,1 13,1 13,1 Z M 12,2.7402344 12,4.5 6,5.5 6,3.7402344 Z"     style="color:#000000;clip-rule:nonzero;display:inline;overflow:visible;visibility:visible;opacity:1;isolation:auto;mix-blend-mode:normal;color-interpolation:sRGB;color-interpolation-filters:linearRGB;solid-color:#000000;solid-opacity:1;fill:#ffffff;fill-opacity:1;fill-rule:nonzero;stroke:none;stroke-width:1;stroke-linecap:round;stroke-linejoin:miter;stroke-miterlimit:4;stroke-dasharray:none;stroke-dashoffset:0;stroke-opacity:1;color-rendering:auto;image-rendering:auto;shape-rendering:auto;text-rendering:auto;enable-background:accumulate" /></svg>
  </g>
</svg>
