<?xml version="1.0" encoding="UTF-8" standalone="no"?>
<svg
   xmlns:dc="http://purl.org/dc/elements/1.1/"
   xmlns:cc="http://creativecommons.org/ns#"
   xmlns:rdf="http://www.w3.org/1999/02/22-rdf-syntax-ns#"
   xmlns:svg="http://www.w3.org/2000/svg"
   xmlns="http://www.w3.org/2000/svg"
   id="svg2"
   width="48"
   height="48"
   viewBox="0 0 24 24"
   version="1.1">
  <metadata
     id="metadata14">
    <rdf:RDF>
      <cc:Work
         rdf:about="">
        <dc:format>image/svg+xml</dc:format>
        <dc:type
           rdf:resource="http://purl.org/dc/dcmitype/StillImage" />
      </cc:Work>
    </rdf:RDF>
  </metadata>
  <defs
     id="defs12" />
  <ellipse
     id="ellipse4"
     ry="12"
     rx="12"
     cy="12"
     cx="12"
     style="fill:#ffffff;stroke:none;" />
  <ellipse
     id="ellipse6"
     ry="10"
     rx="10"
     cy="12"
     cx="12"
     style="fill:#a9a199;stroke:none;" />
  <g
     id="g8"
     transform="translate(4.5,4.5)">
    <metadata     id="metadata8"><rdf:RDF><cc:Work         rdf:about=""><dc:format>image/svg+xml</dc:format><dc:type           rdf:resource="http://purl.org/dc/dcmitype/StillImage" /><dc:title /></cc:Work></rdf:RDF></metadata><defs     id="defs6" /><path     id="rect4718"     d="M 5.5 1 L 6 2 L 11 2 L 11.5 1 L 5.5 1 z M 6 2.5 L 6 3.75 C 6 3.75 6 6.5 8.5 6.5 C 11 6.5 11 3.75 11 3.75 L 11 2.5 L 6 2.5 z M 1.984375 3.9863281 C 1.4328588 3.9949492 0.99244734 4.4484682 1 5 L 1 9 C 0.99985853 9.6397954 1.5922007 10.11519 2.2167969 9.9765625 L 5 9.3574219 L 5 14 L 10.878906 7.0703125 C 10.739143 7.029435 10.594747 7 10.441406 7 L 6.5 7 L 3 7.7539062 L 3 5 C 3.0077201 4.4362301 2.548129 3.9775228 1.984375 3.9863281 z M 11.748047 7.7109375 L 6.4121094 14 L 12 14 L 12 8.5585938 C 12 8.245074 11.906062 7.9548298 11.748047 7.7109375 z "     style="opacity:1;fill:#ffffff;fill-opacity:1;stroke:none;stroke-width:0.5;stroke-linecap:round;stroke-linejoin:round;stroke-miterlimit:4;stroke-dasharray:none;stroke-dashoffset:0;stroke-opacity:1;marker:none" />
  </g>
</svg>
