<?xml version="1.0" encoding="UTF-8" standalone="no"?>
<svg
   xmlns:dc="http://purl.org/dc/elements/1.1/"
   xmlns:cc="http://creativecommons.org/ns#"
   xmlns:rdf="http://www.w3.org/1999/02/22-rdf-syntax-ns#"
   xmlns:svg="http://www.w3.org/2000/svg"
   xmlns="http://www.w3.org/2000/svg"
   id="svg2"
   width="24"
   height="24"
   viewBox="0 0 24 24"
   version="1.1">
  <metadata
     id="metadata14">
    <rdf:RDF>
      <cc:Work
         rdf:about="">
        <dc:format>image/svg+xml</dc:format>
        <dc:type
           rdf:resource="http://purl.org/dc/dcmitype/StillImage" />
      </cc:Work>
    </rdf:RDF>
  </metadata>
  <defs
     id="defs12" />
  <ellipse
     id="ellipse4"
     ry="12"
     rx="12"
     cy="12"
     cx="12"
     style="fill:#ffffff;stroke:none;" />
  <ellipse
     id="ellipse6"
     ry="10"
     rx="10"
     cy="12"
     cx="12"
     style="fill:#a9a199;stroke:none;" />
  <g
     id="g8"
     transform="translate(4.5,5)">
    <metadata     id="metadata8"><rdf:RDF><cc:Work         rdf:about=""><dc:format>image/svg+xml</dc:format><dc:type           rdf:resource="http://purl.org/dc/dcmitype/StillImage" /><dc:title /></cc:Work></rdf:RDF></metadata><defs     id="defs6" /><path     d="m 1,2.5 c -0.96949151,0 -0.5,0.5 0,1 l 6.5,5 6.5,-5 c 0.5,-0.5 0.881356,-1 0,-1 z M 0,5.171875 0,12 c 0,0.616949 0.47118645,1 1,1 l 13,0 c 0.616949,0 1,-0.471186 1,-1 l 0,-6.828125 c 0.01563,-0.5078125 -1.121094,0.3068964 -3,1.778466 -1.878906,1.4715696 -4.5,3.6 -4.5,3.6 0,0 -2.625,-2.1303835 -4.5,-3.6 C 1.125,5.4807245 0,4.671875 0,5.171875 Z"     id="path7085-23"     style="fill:#ffffff;fill-opacity:1" />
  </g>
</svg>
