<?xml version="1.0" encoding="UTF-8" standalone="no"?>
<svg
   xmlns:dc="http://purl.org/dc/elements/1.1/"
   xmlns:cc="http://creativecommons.org/ns#"
   xmlns:rdf="http://www.w3.org/1999/02/22-rdf-syntax-ns#"
   xmlns:svg="http://www.w3.org/2000/svg"
   xmlns="http://www.w3.org/2000/svg"
   id="svg2"
   width="48"
   height="48"
   viewBox="0 0 24 24"
   version="1.1">
  <metadata
     id="metadata14">
    <rdf:RDF>
      <cc:Work
         rdf:about="">
        <dc:format>image/svg+xml</dc:format>
        <dc:type
           rdf:resource="http://purl.org/dc/dcmitype/StillImage" />
      </cc:Work>
    </rdf:RDF>
  </metadata>
  <defs
     id="defs12" />
  <ellipse
     id="ellipse4"
     ry="12"
     rx="12"
     cy="12"
     cx="12"
     style="fill:#ffffff;stroke:none;" />
  <ellipse
     id="ellipse6"
     ry="10"
     rx="10"
     cy="12"
     cx="12"
     style="fill:#a9a199;stroke:none;" />
  <g
     id="g8"
     transform="translate(4.5,4.5)">
    <metadata     id="metadata8"><rdf:RDF><cc:Work         rdf:about=""><dc:format>image/svg+xml</dc:format><dc:type           rdf:resource="http://purl.org/dc/dcmitype/StillImage" /><dc:title /></cc:Work></rdf:RDF></metadata><defs     id="defs6" /><path     id="rect3607"     d="M 3.5 1 L 3.5 14 L 12 14 L 12 1 L 3.5 1 z M 9.5 2 L 11 2 L 11 5.5 L 9.5 5.5 L 9.5 2 z M 4.5 2.0546875 L 6 2.0546875 L 6 7 L 4.5 7 L 4.5 2.0546875 z M 7 2.0546875 L 8.5 2.0546875 L 8.5 7 L 7 7 L 7 2.0546875 z M 10.25 6.5 A 0.75 0.75 0 0 1 11 7.25 A 0.75 0.75 0 0 1 10.25 8 A 0.75 0.75 0 0 1 9.5 7.25 A 0.75 0.75 0 0 1 10.25 6.5 z M 7 8 L 8.4726562 8 L 8.5 13 L 7.0273438 13 L 7 8 z M 4.5 8.1660156 L 6 8.1660156 L 6 13 L 4.5 13 L 4.5 8.1660156 z M 9.5 9 L 11 9 L 11 13 L 9.5 13 L 9.5 9 z "     style="opacity:1;fill:#ffffff;fill-opacity:1;stroke:none;stroke-width:1;stroke-linecap:round;stroke-linejoin:miter;stroke-miterlimit:4;stroke-dasharray:none;stroke-dashoffset:0;stroke-opacity:1" />
  </g>
</svg>
