<?xml version="1.0" encoding="UTF-8" standalone="no"?>
<svg
   xmlns:dc="http://purl.org/dc/elements/1.1/"
   xmlns:cc="http://creativecommons.org/ns#"
   xmlns:rdf="http://www.w3.org/1999/02/22-rdf-syntax-ns#"
   xmlns:svg="http://www.w3.org/2000/svg"
   xmlns="http://www.w3.org/2000/svg"
   id="svg2"
   width="40"
   height="40"
   viewBox="0 0 20 20"
   version="1.1">
  <metadata
     id="metadata14">
    <rdf:RDF>
      <cc:Work
         rdf:about="">
        <dc:format>image/svg+xml</dc:format>
        <dc:type
           rdf:resource="http://purl.org/dc/dcmitype/StillImage" />
      </cc:Work>
    </rdf:RDF>
  </metadata>
  <defs
     id="defs12" />
  <ellipse
     id="ellipse4"
     ry="10"
     rx="10"
     cy="10"
     cx="10"
     style="fill:#ffffff;stroke:none;" />
  <ellipse
     id="ellipse6"
     rx="8"
     ry="8"
     cy="10"
     cx="10"
     style="fill:#a9a199;stroke:none;" />
  <g
     id="g8"
     transform="translate(4.5,4.5)">
    <metadata     id="metadata8"><rdf:RDF><cc:Work         rdf:about=""><dc:format>image/svg+xml</dc:format><dc:type           rdf:resource="http://purl.org/dc/dcmitype/StillImage" /><dc:title /></cc:Work></rdf:RDF></metadata><defs     id="defs6" /><path     id="path7143"     d="M 9 1 C 7.4879756 1 5.407655 2.1458844 4.0488281 4 L 3 4 C 2.19877 4.0000006 1.816225 4.3675417 1.5 5 L 1 6 L 2 6 L 3 6 L 4 7 L 5 8 L 5 9 L 5 10 L 6 9.5 C 6.632455 9.183773 7 8.8012293 7 8 L 7 6.9511719 C 8.8541156 5.592345 10 3.5120244 10 2 L 10 1 L 9 1 z M 7.5 3 A 0.5 0.5 0 0 1 8 3.5 A 0.5 0.5 0 0 1 7.5 4 A 0.5 0.5 0 0 1 7 3.5 A 0.5 0.5 0 0 1 7.5 3 z M 2.75 7.25 L 2.5 7.5 C 2 8 2 9 2 9 C 2 9 2.9447573 9.055243 3.5 8.5 L 3.75 8.25 L 2.75 7.25 z "     style="fill:#ffffff;fill-opacity:1" />
  </g>
</svg>
