<?xml version="1.0" encoding="UTF-8" standalone="no"?>
<svg
   xmlns:dc="http://purl.org/dc/elements/1.1/"
   xmlns:cc="http://creativecommons.org/ns#"
   xmlns:rdf="http://www.w3.org/1999/02/22-rdf-syntax-ns#"
   xmlns:svg="http://www.w3.org/2000/svg"
   xmlns="http://www.w3.org/2000/svg"
   id="svg2"
   width="48"
   height="48"
   viewBox="0 0 24 24"
   version="1.1">
  <metadata
     id="metadata14">
    <rdf:RDF>
      <cc:Work
         rdf:about="">
        <dc:format>image/svg+xml</dc:format>
        <dc:type
           rdf:resource="http://purl.org/dc/dcmitype/StillImage" />
      </cc:Work>
    </rdf:RDF>
  </metadata>
  <defs
     id="defs12" />
  <ellipse
     id="ellipse4"
     ry="12"
     rx="12"
     cy="12"
     cx="12"
     style="fill:#ffffff;stroke:none;" />
  <ellipse
     id="ellipse6"
     ry="10"
     rx="10"
     cy="12"
     cx="12"
     style="fill:#a9a199;stroke:none;" />
  <g
     id="g8"
     transform="translate(4.5,4.5)">
    <metadata     id="metadata8"><rdf:RDF><cc:Work         rdf:about=""><dc:format>image/svg+xml</dc:format><dc:type           rdf:resource="http://purl.org/dc/dcmitype/StillImage" /><dc:title /></cc:Work></rdf:RDF></metadata><defs     id="defs6" /><path     id="rect4696"     d="m 6.3828125,1 c 0,0 -0.5152046,-0.003938 -1.078125,0.1816406 C 4.7417671,1.3672188 4.0310503,1.8136987 3.8886719,2.6679688 L 3.5,5 1,5 1,7 1,11 c 0,0 0,2 2,2 l 9,0 c 2,0 2,-2 2,-2 L 14,7 14,5 11.5,5 11.111329,2.6679688 C 10.968951,1.8136987 10.258233,1.3672188 9.695313,1.1816406 9.1323926,0.9960625 8.617188,1 8.617188,1 Z m 0,1 2.2343755,0 c 0,0 0.3806287,0.00394 0.765625,0.1308594 0.3849963,0.1269218 0.672893,0.3056756 0.740234,0.7011718 L 10.484376,5 4.515625,5 4.8769531,2.8320312 C 4.9429081,2.4363013 5.2321912,2.2577812 5.6171875,2.1308594 6.0021838,2.0039375 6.3828125,2 6.3828125,2 Z M 5.5,7 9.5,7 C 9.777,7 10,7.223 10,7.5 10,7.777 9.777,8 9.5,8 l -4,0 C 5.223,8 5,7.777 5,7.5 5,7.223 5.223,7 5.5,7 Z"     style="opacity:1;fill:#ffffff;fill-opacity:1;stroke:none;stroke-width:0.5;stroke-linecap:round;stroke-linejoin:round;stroke-miterlimit:4;stroke-dasharray:none;stroke-dashoffset:0;stroke-opacity:1;marker:none" />
  </g>
</svg>
