<?xml version="1.0" encoding="UTF-8" standalone="no"?>
<svg
   xmlns:dc="http://purl.org/dc/elements/1.1/"
   xmlns:cc="http://creativecommons.org/ns#"
   xmlns:rdf="http://www.w3.org/1999/02/22-rdf-syntax-ns#"
   xmlns:svg="http://www.w3.org/2000/svg"
   xmlns="http://www.w3.org/2000/svg"
   id="svg2"
   width="48"
   height="48"
   viewBox="0 0 24 24"
   version="1.1">
  <metadata
     id="metadata14">
    <rdf:RDF>
      <cc:Work
         rdf:about="">
        <dc:format>image/svg+xml</dc:format>
        <dc:type
           rdf:resource="http://purl.org/dc/dcmitype/StillImage" />
      </cc:Work>
    </rdf:RDF>
  </metadata>
  <defs
     id="defs12" />
  <ellipse
     id="ellipse4"
     ry="12"
     rx="12"
     cy="12"
     cx="12"
     style="fill:#ffffff;stroke:none;" />
  <ellipse
     id="ellipse6"
     ry="10"
     rx="10"
     cy="12"
     cx="12"
     style="fill:#ab9483;stroke:none;" />
  <g
     id="g8"
     transform="translate(4.5,4.5)">
      <defs     id="defs4621" />  <metadata     id="metadata4624">    <rdf:RDF>      <cc:Work         rdf:about="">        <dc:format>image/svg+xml</dc:format>        <dc:type           rdf:resource="http://purl.org/dc/dcmitype/StillImage" />        <dc:title />      </cc:Work>    </rdf:RDF>  </metadata>  <path     id="path10577"     d="m 6.6176472,-9.9999999e-8 c -0.4411765,0 -3.0882354,0 -3.5294119,0.661764809999999 0,0 -0.4411765,1.76470589 -0.4411765,3.08823529 0,2.2058824 1.3235294,4.8529413 0.882353,8.382353 0,1.323529 6.1764707,1.323529 6.1764708,0 C 9.2647068,8.6029413 10.588235,5.9558824 10.588235,3.75 c 0,-1.3235294 -0.441176,-3.08823529 -0.441176,-3.08823529 C 9.7058825,-9.9999999e-8 7.0588236,-9.9999999e-8 6.6176472,-9.9999999e-8 Z m 0,0.882352949999999 c 0.4411764,0 2.6470588,0 3.0882344,0.44117655 0,0 0.4411774,1.3235295 0.2205882,1.7647059 C 8.8235292,3.75 4.4117643,3.75 3.3088232,3.0882353 3.0882353,2.6470588 3.5294114,1.3235294 3.5294114,1.3235294 3.9705883,0.88235285 6.1764708,0.88235285 6.6176472,0.88235285 Z M 4.4565717,10.731273 c 0.3912319,0.116959 0.8375459,0.360821 2.1610754,0.399816 1.3235295,0.03899 1.7698434,-0.282858 2.1610754,-0.399816 0.00933,0.166597 0.022007,0.998064 0.044807,1.180492 -0.4411761,0.441177 -3.9705883,0.441177 -4.4117648,0 0.022804,-0.182428 0.035477,-1.013895 0.044807,-1.180492 z"     style="fill:#ffffff;fill-rule:evenodd;stroke:none;stroke-width:1px;stroke-linecap:butt;stroke-linejoin:miter;stroke-opacity:1" />
  </g>
</svg>
