<?xml version="1.0" encoding="UTF-8" standalone="no"?>
<svg
   xmlns:dc="http://purl.org/dc/elements/1.1/"
   xmlns:cc="http://creativecommons.org/ns#"
   xmlns:rdf="http://www.w3.org/1999/02/22-rdf-syntax-ns#"
   xmlns:svg="http://www.w3.org/2000/svg"
   xmlns="http://www.w3.org/2000/svg"
   id="svg2"
   width="40"
   height="40"
   viewBox="0 0 20 20"
   version="1.1">
  <metadata
     id="metadata14">
    <rdf:RDF>
      <cc:Work
         rdf:about="">
        <dc:format>image/svg+xml</dc:format>
        <dc:type
           rdf:resource="http://purl.org/dc/dcmitype/StillImage" />
      </cc:Work>
    </rdf:RDF>
  </metadata>
  <defs
     id="defs12" />
  <ellipse
     id="ellipse4"
     ry="10"
     rx="10"
     cy="10"
     cx="10"
     style="fill:#ffffff;stroke:none;" />
  <ellipse
     id="ellipse6"
     rx="8"
     ry="8"
     cy="10"
     cx="10"
     style="fill:#ab9483;stroke:none;" />
  <g
     id="g8"
     transform="translate(4.5,4.5)">
    <metadata     id="metadata8"><rdf:RDF><cc:Work         rdf:about=""><dc:format>image/svg+xml</dc:format><dc:type           rdf:resource="http://purl.org/dc/dcmitype/StillImage" /><dc:title /></cc:Work></rdf:RDF></metadata><defs     id="defs6" /><path     id="path11193"     d="M 2.25 0 L 1.75 3.5 C 1.6792893 3.9949747 2.9907703 4.900071 3 5.5 L 3 11 L 4 11 L 4 5.5 C 4 4.9 5.3207107 3.9949747 5.25 3.5 L 4.75 0 L 4.25 0 L 4.5 2.75 L 3.75 3.25 L 3.75 0 L 3.25 0 L 3.25 3.25 L 2.5 2.75 L 2.75 0 L 2.25 0 z M 9 0 C 7.5 0 7.006423 1.724243 7 3 L 7 6 L 8 6 L 8 11 L 9 11 L 9 0 z "     style="fill:#ffffff;fill-opacity:1" />
  </g>
</svg>
