<?xml version="1.0" encoding="UTF-8" standalone="no"?>
<svg
   xmlns:dc="http://purl.org/dc/elements/1.1/"
   xmlns:cc="http://creativecommons.org/ns#"
   xmlns:rdf="http://www.w3.org/1999/02/22-rdf-syntax-ns#"
   xmlns:svg="http://www.w3.org/2000/svg"
   xmlns="http://www.w3.org/2000/svg"
   id="svg2"
   width="24"
   height="24"
   viewBox="0 0 24 24"
   version="1.1">
  <metadata
     id="metadata14">
    <rdf:RDF>
      <cc:Work
         rdf:about="">
        <dc:format>image/svg+xml</dc:format>
        <dc:type
           rdf:resource="http://purl.org/dc/dcmitype/StillImage" />
      </cc:Work>
    </rdf:RDF>
  </metadata>
  <defs
     id="defs12" />
  <rect
     id="rect4"
     ry="3"
     rx="3"
     height="24"
     width="24"
     y="0"
     x="0"
     style="fill:#ffffff;stroke:none;" />
  <rect
     id="rect6"
     ry="2"
     rx="2"
     height="20"
     width="20"
     y="2"
     x="2"
     style="fill:#9c8ea4;stroke:none;" />
  <g
     id="g8"
     transform="translate(4.5,4)">
    <metadata     id="metadata8"><rdf:RDF><cc:Work         rdf:about=""><dc:format>image/svg+xml</dc:format><dc:type           rdf:resource="http://purl.org/dc/dcmitype/StillImage" /><dc:title /></cc:Work></rdf:RDF></metadata><defs     id="defs6" /><path     id="path5"     d="m 6.818182,0.6818182 -2.045455,0 C 4.090909,0.6818182 4.090909,0 4.772727,0 l 5.454546,0 c 0.681818,0 0.681818,0.6818182 0,0.6818182 l -2.045455,0 c 0,0 0.818182,0.590909 0.818182,1.9545454 L 9,4 15,4 15,6 9,8 8.5,13 11,14.318182 11,15 4,15 4,14.318182 6.5,13 6,8 0,6 0,4 6,4 6,2.6363636 C 6,1.2727272 6.818182,0.6818182 6.818182,0.6818182 Z"     style="fill:#ffffff;fill-opacity:1;stroke-width:1" />
  </g>
</svg>
