<?xml version="1.0" encoding="UTF-8" standalone="no"?>
<svg
   xmlns:dc="http://purl.org/dc/elements/1.1/"
   xmlns:cc="http://creativecommons.org/ns#"
   xmlns:rdf="http://www.w3.org/1999/02/22-rdf-syntax-ns#"
   xmlns:svg="http://www.w3.org/2000/svg"
   xmlns="http://www.w3.org/2000/svg"
   id="svg2"
   width="24"
   height="24"
   viewBox="0 0 24 24"
   version="1.1">
  <metadata
     id="metadata14">
    <rdf:RDF>
      <cc:Work
         rdf:about="">
        <dc:format>image/svg+xml</dc:format>
        <dc:type
           rdf:resource="http://purl.org/dc/dcmitype/StillImage" />
      </cc:Work>
    </rdf:RDF>
  </metadata>
  <defs
     id="defs12" />
  <ellipse
     id="ellipse4"
     ry="12"
     rx="12"
     cy="12"
     cx="12"
     style="fill:#ffffff;stroke:none;" />
  <ellipse
     id="ellipse6"
     ry="10"
     rx="10"
     cy="12"
     cx="12"
     style="fill:#a9a199;stroke:none;" />
  <g
     id="g8"
     transform="translate(4.5,5)">
    <metadata     id="metadata29"><rdf:RDF><cc:Work         rdf:about=""><dc:format>image/svg+xml</dc:format><dc:type           rdf:resource="http://purl.org/dc/dcmitype/StillImage" /><dc:title /></cc:Work></rdf:RDF></metadata><defs     id="defs27" /><g     id="g9" /><path     id="rect5668"     d="M 1 3 C 0.446 3 0 3.446 0 4 L 0 11 C 0 11.554 0.446 12 1 12 L 14 12 C 14.554 12 15 11.554 15 11 L 15 4 C 15 3.446 14.554 3 14 3 L 1 3 z M 1 4 L 2.5 4 A 0.50000001 0.50000001 0 0 1 3 4.5 A 0.50000001 0.50000001 0 0 1 2.5 5 A 0.50000001 0.50000001 0 0 1 2 4.5 L 1.5 5 A 0.50000001 0.50000001 0 0 1 2 5.5 A 0.50000001 0.50000001 0 0 1 1.5 6 A 0.50000001 0.50000001 0 0 1 1 5.5 L 1 4 z M 7.5 4 A 2.5 3.5 0 0 1 10 7.5 A 2.5 3.5 0 0 1 7.5 11 A 2.5 3.5 0 0 1 5 7.5 A 2.5 3.5 0 0 1 7.5 4 z M 12.5 4 L 14 4 L 14 5.5 A 0.50000001 0.50000001 0 0 1 13.5 6 A 0.50000001 0.50000001 0 0 1 13 5.5 A 0.50000001 0.50000001 0 0 1 13.5 5 L 13 4.5 A 0.50000001 0.50000001 0 0 1 12.5 5 A 0.50000001 0.50000001 0 0 1 12 4.5 A 0.50000001 0.50000001 0 0 1 12.5 4 z M 7.5 5.5 C 7.1770327 5.5 6.966399 5.6087603 6.8183594 5.75 L 8.1816406 5.75 C 8.033601 5.6087603 7.8229673 5.5 7.5 5.5 z M 6.625 6 C 6.5795175 6.0909651 6.5633275 6.1710782 6.5449219 6.25 L 8.4550781 6.25 C 8.4366725 6.1710782 8.4204825 6.0909651 8.375 6 L 6.625 6 z M 6.5 6.5 L 6.5 6.75 L 8.5 6.75 L 8.5 6.5 L 6.5 6.5 z M 6.5 7 L 6.5 7.25 L 8.5 7.25 L 8.5 7 L 6.5 7 z M 6.5 7.5 L 6.5 7.75 L 8.5 7.75 L 8.5 7.5 L 6.5 7.5 z M 6.5 8 L 6.25 8.25 L 8.25 8.25 L 8.5 8 L 6.5 8 z M 6 8.5 C 6 8.5 6.0352918 8.6023683 6.1015625 8.75 L 8.375 8.75 L 8 8.5 L 6 8.5 z M 1.5 9 A 0.50000001 0.50000001 0 0 1 2 9.5 A 0.50000001 0.50000001 0 0 1 1.5 10 L 2 10.5 A 0.50000001 0.50000001 0 0 1 2.5 10 A 0.50000001 0.50000001 0 0 1 3 10.5 A 0.50000001 0.50000001 0 0 1 2.5 11 L 1 11 L 1 9.5 A 0.50000001 0.50000001 0 0 1 1.5 9 z M 6.2382812 9 C 6.2842136 9.0856111 6.3143577 9.1590366 6.375 9.25 L 8.6425781 9.25 C 8.7092261 9.1120566 8.75 9 8.75 9 L 6.2382812 9 z M 13.5 9 A 0.50000001 0.50000001 0 0 1 14 9.5 L 14 11 L 12.5 11 A 0.50000001 0.50000001 0 0 1 12 10.5 A 0.50000001 0.50000001 0 0 1 12.5 10 A 0.50000001 0.50000001 0 0 1 13 10.5 L 13.5 10 A 0.50000001 0.50000001 0 0 1 13 9.5 A 0.50000001 0.50000001 0 0 1 13.5 9 z M 6.5664062 9.5 C 6.6450531 9.5912012 6.731089 9.6763088 6.8261719 9.75 L 8.2460938 9.75 C 8.3461904 9.6727435 8.4338086 9.5882551 8.5 9.5 L 6.5664062 9.5 z "     style="opacity:1;fill:#ffffff;fill-opacity:1;stroke:none;stroke-width:2.63156796;stroke-linecap:round;stroke-linejoin:round;stroke-miterlimit:4;stroke-dasharray:none;stroke-dashoffset:0;stroke-opacity:1;marker:none" />
  </g>
</svg>
