<?xml version="1.0" encoding="UTF-8" standalone="no"?>
<svg
   xmlns:dc="http://purl.org/dc/elements/1.1/"
   xmlns:cc="http://creativecommons.org/ns#"
   xmlns:rdf="http://www.w3.org/1999/02/22-rdf-syntax-ns#"
   xmlns:svg="http://www.w3.org/2000/svg"
   xmlns="http://www.w3.org/2000/svg"
   id="svg2"
   width="20"
   height="20"
   viewBox="0 0 20 20"
   version="1.1">
  <metadata
     id="metadata14">
    <rdf:RDF>
      <cc:Work
         rdf:about="">
        <dc:format>image/svg+xml</dc:format>
        <dc:type
           rdf:resource="http://purl.org/dc/dcmitype/StillImage" />
      </cc:Work>
    </rdf:RDF>
  </metadata>
  <defs
     id="defs12" />
  <ellipse
     id="ellipse4"
     ry="10"
     rx="10"
     cy="10"
     cx="10"
     style="fill:#ffffff;stroke:none;" />
  <ellipse
     id="ellipse6"
     rx="8"
     ry="8"
     cy="10"
     cx="10"
     style="fill:#7e9a4c;stroke:none;" />
  <g
     id="g8"
     transform="translate(4.5,5)">
    <metadata     id="metadata10"><rdf:RDF><cc:Work         rdf:about=""><dc:format>image/svg+xml</dc:format><dc:type           rdf:resource="http://purl.org/dc/dcmitype/StillImage" /></cc:Work></rdf:RDF></metadata><defs     id="defs8" /><path     id="path20839"     d="M 0 0 L 0 1.8007812 C 1.8 4.2007813 5.6003906 6.2 7.9003906 8.5 L 9 10 L 9 11 L 10.400391 11 L 11 10.400391 L 11 9 L 10 9 L 8.5996094 7.9003906 C 6.3996094 5.8003906 4.3007812 1.8 1.8007812 0 L 0 0 z M 2.5 7 A 1.5 1.5 0 0 0 1 8.5 A 1.5 1.5 0 0 0 2.5 10 A 1.5 1.5 0 0 0 4 8.5 A 1.5 1.5 0 0 0 2.5 7 z "     style="fill:#ffffff;fill-opacity:1" />
  </g>
</svg>
