<?xml version="1.0" encoding="UTF-8" standalone="no"?>
<svg
   xmlns:dc="http://purl.org/dc/elements/1.1/"
   xmlns:cc="http://creativecommons.org/ns#"
   xmlns:rdf="http://www.w3.org/1999/02/22-rdf-syntax-ns#"
   xmlns:svg="http://www.w3.org/2000/svg"
   xmlns="http://www.w3.org/2000/svg"
   id="svg2"
   width="20"
   height="20"
   viewBox="0 0 20 20"
   version="1.1">
  <metadata
     id="metadata14">
    <rdf:RDF>
      <cc:Work
         rdf:about="">
        <dc:format>image/svg+xml</dc:format>
        <dc:type
           rdf:resource="http://purl.org/dc/dcmitype/StillImage" />
      </cc:Work>
    </rdf:RDF>
  </metadata>
  <defs
     id="defs12" />
  <rect
     id="rect4"
     ry="3"
     rx="3"
     height="20"
     width="20"
     y="0"
     x="0"
     style="fill:#ffffff;stroke:none;" />
  <rect
     id="rect6"
     ry="2"
     rx="2"
     height="16"
     width="16"
     y="2"
     x="2"
     style="fill:#9c8ea4;stroke:none;" />
  <g
     id="g8"
     transform="translate(4.5,4)">
      <defs     id="defs4766" />  <metadata     id="metadata4769">    <rdf:RDF>      <cc:Work         rdf:about="">        <dc:format>image/svg+xml</dc:format>        <dc:type           rdf:resource="http://purl.org/dc/dcmitype/StillImage" />        <dc:title />      </cc:Work>    </rdf:RDF>  </metadata>  <path     id="path8043"     d="M 3,0 C 2,0 1,0.53125 1,2 l 0,4 0,3.5 c 0,0 0,0.5 0.5,0.5 l 0.5,0.01563 0,0.484375 c 0,0 0,0.5 0.5,0.5 l 0.5,0 c 0,0 0.5,0 0.5,-0.5 L 3.5,10.01563 7.5,10 l 0,0.5 c 0,0 0,0.5 0.5,0.5 l 0.5,0 C 9,11.000005 9,10.5 9,10.5 L 9,10.01563 9.5,10 c 0,0 0.5,0 0.5,-0.5 L 10,6 10,2 C 10,0.5 9,0 8,0 L 3,0 Z m 0.75,1 3.5,0 C 7.3885,1 7.5,1.1115 7.5,1.25 7.5,1.3885 7.3885,1.5 7.25,1.5 l -3.5,0 C 3.6115,1.5 3.5,1.3885 3.5,1.25 3.5,1.1115 3.6115,1 3.75,1 Z M 3,2 8,2 C 9,2 9,3 9,3 L 9,5 C 9,5 9,6 8,6 L 3,6 C 2,6 2,5 2,5 L 2,3 C 2,3 2,2 3,2 Z M 2.75,7.5 A 0.75,0.75 0 0 1 3.5,8.25 0.75,0.75 0 0 1 2.75,9 0.75,0.75 0 0 1 2,8.25 0.75,0.75 0 0 1 2.75,7.5 Z m 5.5,0 A 0.75,0.75 0 0 1 9,8.25 0.75,0.75 0 0 1 8.25,9 0.75,0.75 0 0 1 7.5,8.25 0.75,0.75 0 0 1 8.25,7.5 Z"     style="opacity:1;fill:#ffffff;fill-opacity:1;stroke:none;stroke-width:1;stroke-linecap:round;stroke-linejoin:miter;stroke-miterlimit:4;stroke-dasharray:none;stroke-dashoffset:0;stroke-opacity:1" />
  </g>
</svg>
