<?xml version="1.0" encoding="UTF-8" standalone="no"?>
<svg
   xmlns:dc="http://purl.org/dc/elements/1.1/"
   xmlns:cc="http://creativecommons.org/ns#"
   xmlns:rdf="http://www.w3.org/1999/02/22-rdf-syntax-ns#"
   xmlns:svg="http://www.w3.org/2000/svg"
   xmlns="http://www.w3.org/2000/svg"
   id="svg2"
   width="24"
   height="24"
   viewBox="0 0 24 24"
   version="1.1">
  <metadata
     id="metadata14">
    <rdf:RDF>
      <cc:Work
         rdf:about="">
        <dc:format>image/svg+xml</dc:format>
        <dc:type
           rdf:resource="http://purl.org/dc/dcmitype/StillImage" />
      </cc:Work>
    </rdf:RDF>
  </metadata>
  <defs
     id="defs12" />
  <ellipse
     id="ellipse4"
     ry="12"
     rx="12"
     cy="12"
     cx="12"
     style="fill:#ffffff;stroke:none;" />
  <ellipse
     id="ellipse6"
     ry="10"
     rx="10"
     cy="12"
     cx="12"
     style="fill:#7e9a4c;stroke:none;" />
  <g
     id="g8"
     transform="translate(5.5,4.5)">
      <defs     id="defs4621" />  <metadata     id="metadata4624">    <rdf:RDF>      <cc:Work         rdf:about="">        <dc:format>image/svg+xml</dc:format>        <dc:type           rdf:resource="http://purl.org/dc/dcmitype/StillImage" />        <dc:title />      </cc:Work>    </rdf:RDF>  </metadata>  <path     id="rect12479-9-1-9"     d="m 6.1764706,0.88235293 c -1.764706,0 -3.529412,0.88235297 -3.529412,4.41176467 l 0,3.5294117 7.9411764,0 0,-3.5294117 c 0,-3.043359 -1.7647058,-4.41176467 -3.5294114,-4.41176467 z m -1.764706,3.52941167 4.4117647,0 0,0.4411765 -4.4117647,0 z m 0,0.882353 4.4117647,0 0,0.4411764 -4.4117647,0 z m -1.764706,4.4117646 c 0,1.3235298 -0.441176,1.3235298 -0.441176,1.3235298 l 0,1.323529 8.8235294,0 0,-1.323529 c 0,0 -0.441177,0 -0.441177,-1.3235298 z"     style="fill:#ffffff;fill-opacity:1;stroke-width:0.88235289" />
  </g>
</svg>
