<?xml version="1.0" encoding="utf-8"?>
<!-- Generator: Adobe Illustrator 17.0.0, SVG Export Plug-In . SVG Version: 6.00 Build 0)  -->
<!DOCTYPE svg PUBLIC "-//W3C//DTD SVG 1.1//EN" "http://www.w3.org/Graphics/SVG/1.1/DTD/svg11.dtd">
<svg version="1.1"
	 id="Layer_1" xmlns:dc="http://purl.org/dc/elements/1.1/" xmlns:cc="http://creativecommons.org/ns#" xmlns:rdf="http://www.w3.org/1999/02/22-rdf-syntax-ns#" xmlns:svg="http://www.w3.org/2000/svg"
	 xmlns="http://www.w3.org/2000/svg" xmlns:xlink="http://www.w3.org/1999/xlink" x="0px" y="0px" width="20px" height="50px"
	 viewBox="0 0 20 50" enable-background="new 0 0 20 50" xml:space="preserve">
<g id="path5366" opacity="0.2353">
	<ellipse fill="#3A3836" cx="9.99" cy="26.971" rx="8.99" ry="4.995"/>
</g>
<g id="path5359">
	<path fill="#5396C7" d="M19.48,10.353c0,6.24-9.49,17.079-9.49,17.079S0.5,16.593,0.5,10.353C0.5,4.911,4.749,0.5,9.99,0.5
		S19.48,4.911,19.48,10.353z"/>
	<path fill="#34729F" d="M9.99,27.93c-0.144,0-0.28-0.063-0.376-0.171C9.221,27.311,0,16.707,0,10.353C0,4.644,4.481,0,9.99,0
		s9.99,4.644,9.99,10.353c0,6.354-9.221,16.958-9.614,17.406C10.27,27.868,10.134,27.93,9.99,27.93z M9.99,0.999
		c-4.957,0-8.991,4.196-8.991,9.354c0,5.287,7.241,14.226,8.991,16.307c1.748-2.079,8.991-11.022,8.991-16.307
		C18.98,5.195,14.947,0.999,9.99,0.999z"/>
</g>
<g id="path5990">
	<circle fill="#FFFFFF" cx="9.99" cy="9.989" r="3.496"/>
	<path fill="#34729F" d="M9.99,13.985c-2.203,0-3.995-1.792-3.995-3.995S7.787,5.993,9.99,5.993s3.997,1.794,3.997,3.997
		S12.193,13.985,9.99,13.985z M9.99,6.992c-1.652,0-2.996,1.344-2.996,2.997c0,1.652,1.344,2.996,2.996,2.996
		c1.654,0,2.997-1.344,2.997-2.996C12.987,8.336,11.643,6.992,9.99,6.992z"/>
</g>
</svg>
