<?xml version="1.0" encoding="UTF-8" standalone="no"?>
<svg
   xmlns:dc="http://purl.org/dc/elements/1.1/"
   xmlns:cc="http://creativecommons.org/ns#"
   xmlns:rdf="http://www.w3.org/1999/02/22-rdf-syntax-ns#"
   xmlns:svg="http://www.w3.org/2000/svg"
   xmlns="http://www.w3.org/2000/svg"
   id="svg2"
   width="20"
   height="20"
   viewBox="0 0 20 20"
   version="1.1">
  <metadata
     id="metadata14">
    <rdf:RDF>
      <cc:Work
         rdf:about="">
        <dc:format>image/svg+xml</dc:format>
        <dc:type
           rdf:resource="http://purl.org/dc/dcmitype/StillImage" />
      </cc:Work>
    </rdf:RDF>
  </metadata>
  <defs
     id="defs12" />
  <ellipse
     id="ellipse4"
     ry="10"
     rx="10"
     cy="10"
     cx="10"
     style="fill:#ffffff;stroke:none;" />
  <ellipse
     id="ellipse6"
     rx="8"
     ry="8"
     cy="10"
     cx="10"
     style="fill:#a9a199;stroke:none;" />
  <g
     id="g8"
     transform="translate(4.5,5)">
      <defs     id="defs4766" />  <metadata     id="metadata4769">    <rdf:RDF>      <cc:Work         rdf:about="">        <dc:format>image/svg+xml</dc:format>        <dc:type           rdf:resource="http://purl.org/dc/dcmitype/StillImage" />        <dc:title />      </cc:Work>    </rdf:RDF>  </metadata>  <path     id="path6122"     d="M 0.3359375 1.6132812 C 0.0009765625 1.6176312 0 2 0 2 L 0 7.5 C 0 7.5 -0.01418 8.000754 0.5 8.140625 L 4.5039062 9.2285156 C 4.5036846 9.2360509 4.5 9.2424091 4.5 9.25 C 4.5 9.6655 4.8345 10 5.25 10 L 5.75 10 C 6.1655 10 6.5 9.6655 6.5 9.25 C 6.5 9.2424091 6.4963155 9.2360509 6.4960938 9.2285156 L 10.5 8.140625 C 11.01418 8.000754 11 7.5 11 7.5 L 11 2 C 11 2 11 1.5003547 10.5 1.6367188 L 5.5 3 L 0.5 1.6367188 C 0.4375 1.6196732 0.38378906 1.6126599 0.3359375 1.6132812 z M 1 2.5 L 5.25 3.6582031 L 5.25 8.4316406 L 1 7.2734375 L 1 2.5 z M 10 2.5 L 10 7.2734375 L 5.75 8.4316406 L 5.75 3.6582031 L 10 2.5 z M 2 3.9550781 L 2 4.4550781 L 4 5 L 4 4.5 L 2 3.9550781 z M 9 3.9550781 L 7 4.5 L 7 5 L 9 4.4550781 L 9 3.9550781 z M 2 5.5 L 2 6 L 4 6.5449219 L 4 6.0449219 L 2 5.5 z M 9 5.5 L 7 6.0449219 L 7 6.5449219 L 9 6 L 9 5.5 z "     style="fill:#ffffff;fill-opacity:1;fill-rule:evenodd;stroke:none;stroke-width:1px;stroke-linecap:butt;stroke-linejoin:miter;stroke-opacity:1" />
  </g>
</svg>
