<?xml version="1.0" encoding="utf-8"?>
<!-- Generator: Adobe Illustrator 17.0.0, SVG Export Plug-In . SVG Version: 6.00 Build 0)  -->
<!DOCTYPE svg PUBLIC "-//W3C//DTD SVG 1.1//EN" "http://www.w3.org/Graphics/SVG/1.1/DTD/svg11.dtd">
<svg version="1.1"
	 id="svg3253" xmlns:dc="http://purl.org/dc/elements/1.1/" xmlns:cc="http://creativecommons.org/ns#" xmlns:rdf="http://www.w3.org/1999/02/22-rdf-syntax-ns#" xmlns:svg="http://www.w3.org/2000/svg" xmlns:sodipodi="http://sodipodi.sourceforge.net/DTD/sodipodi-0.dtd" xmlns:inkscape="http://www.inkscape.org/namespaces/inkscape" sodipodi:docname="moscow-metro-15.svg" inkscape:version="0.91+devel+osxmenu r12911"
	 xmlns="http://www.w3.org/2000/svg" xmlns:xlink="http://www.w3.org/1999/xlink" x="0px" y="0px" width="17px" height="15px"
	 viewBox="-1 0 17 15" enable-background="new -1 0 17 15" xml:space="preserve">
<sodipodi:namedview  inkscape:snap-intersection-paths="true" id="namedview3259" inkscape:zoom="1" inkscape:cx="3.1089554" showgrid="false" gridtolerance="10" inkscape:cy="-34.308238" objecttolerance="10" guidetolerance="10" bordercolor="#666666" borderopacity="1" pagecolor="#ffffff" inkscape:bbox-paths="true" inkscape:snap-bbox="true" inkscape:current-layer="svg3253" inkscape:pageopacity="0" inkscape:window-y="0" inkscape:window-x="-3" inkscape:snap-nodes="true" inkscape:object-paths="true" inkscape:bbox-nodes="true" inkscape:snap-smooth-nodes="true" inkscape:pageshadow="2" inkscape:window-maximized="0" inkscape:object-nodes="true" inkscape:snap-bbox-edge-midpoints="true">
	
		<inkscape:grid  color="#ff0000" type="xygrid" opacity="0.1254902" id="grid3265" visible="true" empspacing="2" spacingy="0.5" enabled="true" spacingx="0.5" snapvisiblegridlinesonly="true">
		</inkscape:grid>
</sodipodi:namedview>
<g>
	<path fill="#FFFFFF" d="M13.188,3.613C11.65,1.928,9.63,1,7.5,1c-4.336,0-8,3.893-8,8.502c0,2.413,1.141,4.017,1.19,4.084L0.989,14
		H1.5h12h0.537l0.297-0.448c0.048-0.072,1.166-1.786,1.166-4.05C15.5,7.369,14.657,5.222,13.188,3.613z M13.5,13h-12
		c0,0-1-1.382-1-3.498C0.5,5.599,3.634,2,7.5,2c3.866,0,7,3.599,7,7.502C14.5,11.491,13.5,13,13.5,13z"/>
	<path fill="#FFFFFF" d="M7.5,2.99c-3.252,0-6.01,3.137-6.01,6.51c0,1.332,0.368,2.1,0.6,2.51h10.801
		c0.238-0.451,0.619-1.282,0.619-2.51C13.51,6.127,10.752,2.99,7.5,2.99z M12.5,11h-4v-1H10L9,7.5l-1.5,3L6,7.5L5,10h1.5v1h-4v-1h1
		l2-6l2,3.5l2-3.5l2,6h1V11z"/>
	<path fill="#5396C7" d="M7.5,2c-3.866,0-7,3.599-7,7.502c0,2.116,1,3.498,1,3.498h12c0,0,1-1.509,1-3.498
		C14.5,5.599,11.366,2,7.5,2z M12.891,12.01H2.09c-0.232-0.41-0.6-1.178-0.6-2.51c0-3.373,2.758-6.51,6.01-6.51
		s6.01,3.137,6.01,6.51C13.51,10.727,13.128,11.558,12.891,12.01z"/>
	<polygon fill="#E97474" points="9.5,4 7.5,7.5 5.5,4 3.5,10 2.5,10 2.5,11 6.5,11 6.5,10 5,10 6,7.5 7.5,10.5 9,7.5 10,10 8.5,10 
		8.5,11 12.5,11 12.5,10 11.5,10 	"/>
</g>
</svg>
