<?xml version="1.0" encoding="UTF-8" standalone="no"?>
<svg
   xmlns:dc="http://purl.org/dc/elements/1.1/"
   xmlns:cc="http://creativecommons.org/ns#"
   xmlns:rdf="http://www.w3.org/1999/02/22-rdf-syntax-ns#"
   xmlns:svg="http://www.w3.org/2000/svg"
   xmlns="http://www.w3.org/2000/svg"
   id="svg2"
   width="24"
   height="24"
   viewBox="0 0 24 24"
   version="1.1">
  <metadata
     id="metadata14">
    <rdf:RDF>
      <cc:Work
         rdf:about="">
        <dc:format>image/svg+xml</dc:format>
        <dc:type
           rdf:resource="http://purl.org/dc/dcmitype/StillImage" />
      </cc:Work>
    </rdf:RDF>
  </metadata>
  <defs
     id="defs12" />
  <ellipse
     id="ellipse4"
     ry="12"
     rx="12"
     cy="12"
     cx="12"
     style="fill:#ffffff;stroke:none;" />
  <ellipse
     id="ellipse6"
     ry="10"
     rx="10"
     cy="12"
     cx="12"
     style="fill:#a9a199;stroke:none;" />
  <g
     id="g8"
     transform="translate(4.5,5)">
    <metadata     id="metadata8"><rdf:RDF><cc:Work         rdf:about=""><dc:format>image/svg+xml</dc:format><dc:type           rdf:resource="http://purl.org/dc/dcmitype/StillImage" /><dc:title /></cc:Work></rdf:RDF></metadata><defs     id="defs6" /><path     d="M 10.111794,1.9999995 C 10,1.9999995 9.6764701,2.147058 9.6764701,2.147058 L 6.3529412,3.8235291 C 5.9117648,3.9999997 5.7352941,4.705882 6,5.0588233 L 6.9705883,6.4705879 3,8.4999995 l 2,1.5 2.5,-1.5 2.5,1.5 1,-1 -3,-4 2.558823,-1.5294117 C 11.088235,3.2058818 11,2.7647053 11,2.4999995 c 0,-0.2168753 -0.358794,-0.5 -0.888206,-0.5 z M 7.5,9.9999995 5,11.5 2.5,9.9999995 0,11.5 0,13 2.5,11.5 5,13 7.5,11.5 10,13 12,11.5 15,13 15,11.5 12,9.9999995 10,11.5 Z"     id="path16388"     style="fill:#ffffff;fill-opacity:1" /><circle     r="1.75"     cy="6.75"     cx="12.25"     id="path3338"     style="opacity:1;fill:#ffffff;fill-opacity:1;stroke:none;stroke-width:1;stroke-linecap:round;stroke-linejoin:miter;stroke-miterlimit:4;stroke-dasharray:none;stroke-dashoffset:0;stroke-opacity:1" />
  </g>
</svg>
