<?xml version="1.0" encoding="UTF-8" standalone="no"?>
<svg
   xmlns:dc="http://purl.org/dc/elements/1.1/"
   xmlns:cc="http://creativecommons.org/ns#"
   xmlns:rdf="http://www.w3.org/1999/02/22-rdf-syntax-ns#"
   xmlns:svg="http://www.w3.org/2000/svg"
   xmlns="http://www.w3.org/2000/svg"
   viewBox="0 0 21 18"
   version="1.1"
   id="svg3844"
   height="18"
   width="21">
  <defs
     id="defs3846" />
  <metadata
     id="metadata3849">
    <rdf:RDF>
      <cc:Work
         rdf:about="">
        <dc:format>image/svg+xml</dc:format>
        <dc:type
           rdf:resource="http://purl.org/dc/dcmitype/StillImage" />
        <dc:title />
      </cc:Work>
    </rdf:RDF>
  </metadata>
  <g
     transform="translate(-300,-901.36213)"
     id="layer1">
    <path
       id="path3799-7"
       d="m 304.94442,902.36218 -4.44446,2.5 c 0.55555,0.5 2.22223,1.5 1.11112,3.5 -1.11112,2 -1.66668,5 0.55555,7 2.77779,2.5 7.22225,0.5 8.33337,2.5 1.11111,-2 5.55558,0 8.33336,-2.5 2.22223,-2 1.66668,-5 0.55556,-7 -1.11111,-2 0.55555,-3 1.11112,-3.5 l -4.44446,-2.5 c 0,0 -1.11112,1.5 -2.7778,1.5 -1.66667,0 -2.77778,-1.5 -2.77778,-1.5 0,0 -1.11112,1.5 -2.77779,1.5 -1.66667,0 -2.77779,-1.5 -2.77779,-1.5 z"
       clip-path="none"
       style="color:#3a3836;display:inline;overflow:visible;visibility:visible;opacity:1;fill:#ffffff;fill-opacity:1;fill-rule:evenodd;stroke:#3a3836;stroke-width:0.99999994;stroke-linecap:round;stroke-linejoin:round;marker:none;enable-background:accumulate" />
  </g>
</svg>
