<?xml version="1.0" encoding="UTF-8" standalone="no"?>
<svg
   xmlns:dc="http://purl.org/dc/elements/1.1/"
   xmlns:cc="http://creativecommons.org/ns#"
   xmlns:rdf="http://www.w3.org/1999/02/22-rdf-syntax-ns#"
   xmlns:svg="http://www.w3.org/2000/svg"
   xmlns="http://www.w3.org/2000/svg"
   viewBox="0 0 20 21"
   version="1.1"
   id="svg3844"
   height="21"
   width="20">
  <defs
     id="defs3846" />
  <metadata
     id="metadata3849">
    <rdf:RDF>
      <cc:Work
         rdf:about="">
        <dc:format>image/svg+xml</dc:format>
        <dc:type
           rdf:resource="http://purl.org/dc/dcmitype/StillImage" />
        <dc:title />
      </cc:Work>
    </rdf:RDF>
  </metadata>
  <g
     transform="translate(-299.50002,-898.86212)"
     id="layer1">
    <path
       id="path3799"
       d="M 303.56251,899.36597 300,902.4305 c 0.59374,0.61291 2.375,1.83872 1.18751,4.29034 -1.18751,2.45163 -1.78126,6.12907 0.59374,8.58069 2.96875,3.06452 6.53126,0.6129 7.71874,3.06452 1.18751,-2.45162 4.75001,0 7.71875,-3.06452 2.375,-2.45162 1.78126,-6.12906 0.59376,-8.58069 -1.1875,-2.45162 0.59375,-3.67743 1.1875,-4.29034 l -3.5625,-3.06453 c 0,0 -1.1875,1.83872 -2.96876,1.83872 -1.78124,0 -2.96875,-1.83872 -2.96875,-1.83872 0,0 -1.18748,1.83872 -2.96874,1.83872 -1.78125,0 -2.96874,-1.83872 -2.96874,-1.83872 z"
       clip-path="none"
       style="color:#3a3836;display:inline;overflow:visible;visibility:visible;opacity:1;fill:#ffffff;fill-opacity:1;fill-rule:evenodd;stroke:#3a3836;stroke-width:1.00000215;stroke-linecap:round;stroke-linejoin:round;stroke-miterlimit:4;stroke-dasharray:none;marker:none;enable-background:accumulate" />
    <rect
       y="901.36218"
       x="301"
       height="18"
       width="17"
       id="rect3803"
       style="color:#3a3836;display:inline;overflow:visible;visibility:visible;opacity:0;fill:#3a3836;fill-opacity:1;fill-rule:nonzero;stroke:none;stroke-width:1;marker:none;enable-background:accumulate" />
  </g>
</svg>
