<?xml version="1.0" encoding="UTF-8" standalone="no"?>
<svg
   xmlns:dc="http://purl.org/dc/elements/1.1/"
   xmlns:cc="http://creativecommons.org/ns#"
   xmlns:rdf="http://www.w3.org/1999/02/22-rdf-syntax-ns#"
   xmlns:svg="http://www.w3.org/2000/svg"
   xmlns="http://www.w3.org/2000/svg"
   viewBox="0 0 32 22.000001"
   version="1.1"
   id="svg3844"
   height="22"
   width="32">
  <defs
     id="defs3846" />
  <metadata
     id="metadata3849">
    <rdf:RDF>
      <cc:Work
         rdf:about="">
        <dc:format>image/svg+xml</dc:format>
        <dc:type
           rdf:resource="http://purl.org/dc/dcmitype/StillImage" />
        <dc:title />
      </cc:Work>
    </rdf:RDF>
  </metadata>
  <g
     transform="translate(-299,-896.36217)"
     id="layer1">
    <path
       id="path3799-7"
       d="m 305.95831,898.86216 -6.45835,3.06452 c 0.64584,0.61292 2.58334,1.83873 1.29167,4.29035 -1.29167,2.45162 -1.93749,6.12905 0.64584,8.58067 3.22918,3.06454 12.27086,0.61291 13.56253,3.06454 1.29167,-2.45163 10.33337,0 13.56254,-3.06454 2.58334,-2.45162 1.93749,-6.12905 0.64583,-8.58067 -1.29167,-2.45162 0.64583,-3.67743 1.29166,-4.29035 l -6.45834,-3.06452 c 0,0 -1.9375,1.83871 -4.52085,1.83871 -2.58333,0 -4.52084,-1.83871 -4.52084,-1.83871 0,0 -1.9375,1.83871 -4.52084,1.83871 -2.58334,0 -4.52085,-1.83871 -4.52085,-1.83871 z"
       clip-path="none"
       style="color:#3a3836;display:inline;overflow:visible;visibility:visible;opacity:1;fill:#ffffff;fill-opacity:1;fill-rule:evenodd;stroke:#3a3836;stroke-width:1;stroke-linecap:round;stroke-linejoin:round;marker:none;enable-background:accumulate" />
  </g>
</svg>
