<?xml version="1.0" encoding="UTF-8" standalone="no"?>
<svg
   xmlns:dc="http://purl.org/dc/elements/1.1/"
   xmlns:cc="http://creativecommons.org/ns#"
   xmlns:rdf="http://www.w3.org/1999/02/22-rdf-syntax-ns#"
   xmlns:svg="http://www.w3.org/2000/svg"
   xmlns="http://www.w3.org/2000/svg"
   viewBox="0 0 37 22"
   version="1.1"
   id="svg3844"
   height="22"
   width="37">
  <defs
     id="defs3846" />
  <metadata
     id="metadata3849">
    <rdf:RDF>
      <cc:Work
         rdf:about="">
        <dc:format>image/svg+xml</dc:format>
        <dc:type
           rdf:resource="http://purl.org/dc/dcmitype/StillImage" />
        <dc:title />
      </cc:Work>
    </rdf:RDF>
  </metadata>
  <g
     transform="translate(-299.00002,-896.36209)"
     id="layer1">
    <rect
       y="901.36218"
       x="299"
       height="17"
       width="21"
       id="rect3803"
       style="color:#3a3836;display:inline;overflow:visible;visibility:visible;opacity:0;fill:#3a3836;fill-opacity:1;fill-rule:nonzero;stroke:none;stroke-width:1;marker:none;enable-background:accumulate" />
    <path
       id="path3799-7"
       d="m 307.00001,898.86208 -7.50002,3.06452 c 0.75,0.61291 3.00001,1.83872 1.49999,4.29034 -1.49999,2.45163 -2.25,6.12906 0.75001,8.58068 3.75001,3.06453 14.25004,0.61291 15.75004,3.06453 1.50002,-2.45162 12.00004,0 15.75005,-3.06453 3.00001,-2.45162 2.24999,-6.12905 0.74999,-8.58068 -1.5,-2.45162 0.75002,-3.67743 1.5,-4.29034 l -7.50001,-3.06452 c 0,0 -2.25,1.83871 -5.25,1.83871 -3.00001,0 -5.25003,-1.83871 -5.25003,-1.83871 0,0 -2.25,1.83871 -5.25001,1.83871 -3,0 -5.25001,-1.83871 -5.25001,-1.83871 z"
       clip-path="none"
       style="color:#3a3836;display:inline;overflow:visible;visibility:visible;opacity:1;fill:#ffffff;fill-opacity:1;fill-rule:evenodd;stroke:#3a3836;stroke-width:1;stroke-linecap:round;stroke-linejoin:round;marker:none;enable-background:accumulate" />
  </g>
</svg>
