<?xml version="1.0" encoding="utf-8"?>
<!-- Generator: Adobe Illustrator 17.0.0, SVG Export Plug-In . SVG Version: 6.00 Build 0)  -->
<!DOCTYPE svg PUBLIC "-//W3C//DTD SVG 1.1//EN" "http://www.w3.org/Graphics/SVG/1.1/DTD/svg11.dtd">
<svg version="1.1"
	 id="svg3844" xmlns:dc="http://purl.org/dc/elements/1.1/" xmlns:cc="http://creativecommons.org/ns#" xmlns:rdf="http://www.w3.org/1999/02/22-rdf-syntax-ns#" xmlns:svg="http://www.w3.org/2000/svg" xmlns:sodipodi="http://sodipodi.sourceforge.net/DTD/sodipodi-0.dtd" xmlns:inkscape="http://www.inkscape.org/namespaces/inkscape" sodipodi:docname="us-interstate-duplex-4-large.svg" inkscape:version="0.91+devel+osxmenu r12911"
	 xmlns="http://www.w3.org/2000/svg" xmlns:xlink="http://www.w3.org/1999/xlink" x="0px" y="0px" width="38px" height="27px"
	 viewBox="-1 -1 38 27" enable-background="new -1 -1 38 27" xml:space="preserve">
<path fill="#5396C7" d="M18,23.286c0,0,18-1.209,18-13.316V6.288H0v3.683C0,22.078,18,23.286,18,23.286z"/>
<path fill="#E97474" d="M35.97,4.786c-0.019-0.167-0.047-0.334-0.081-0.5c-0.433-2.081-2.006-4-2.006-4s-4.235,2.421-7.941,2.421
	S18,0.286,18,0.286s-4.235,2.421-7.941,2.421S2.118,0.286,2.118,0.286s-1.573,1.919-2.006,4C0.077,4.453,0.049,4.62,0.03,4.788
	C0.012,4.954,0,5.121,0,5.286h36C36,5.12,35.988,4.953,35.97,4.786z"/>
<path fill="#FFFFFF" d="M36.907,4.288c-0.423-2.383-2.168-4.534-2.252-4.636L34.12-1l-0.733,0.418
	c-0.04,0.023-4.056,2.29-7.445,2.29s-7.405-2.267-7.445-2.29l-0.495-0.282l-0.496,0.282c-0.04,0.023-4.056,2.29-7.445,2.29
	s-7.405-2.267-7.445-2.29L1.881-1L1.345-0.348C1.261-0.246-0.483,1.904-0.907,4.286H-1v1v0.002v0.998v0.002v3.683
	c0,5.392,3.329,9.585,9.626,12.125c4.595,1.854,9.117,2.175,9.307,2.188L18,24.289l0.067-0.005c0.19-0.013,4.712-0.334,9.307-2.188
	C33.671,19.555,37,15.363,37,9.971V6.288V6.286V5.288V5.286V4.288L36.907,4.288z M36,9.971c0,12.107-18,13.316-18,13.316
	S0,22.078,0,9.971V6.288h36V9.971z M35.97,4.786C35.988,4.953,36,5.12,36,5.286H0c0-0.166,0.012-0.332,0.03-0.499
	C0.049,4.62,0.077,4.453,0.112,4.286c0.433-2.081,2.006-4,2.006-4s4.235,2.421,7.941,2.421S18,0.286,18,0.286
	s4.235,2.421,7.941,2.421s7.941-2.421,7.941-2.421s1.573,1.919,2.006,4C35.923,4.453,35.951,4.619,35.97,4.786z"/>
</svg>
