<?xml version="1.0" encoding="UTF-8" standalone="no"?>
<svg
   xmlns:dc="http://purl.org/dc/elements/1.1/"
   xmlns:cc="http://creativecommons.org/ns#"
   xmlns:rdf="http://www.w3.org/1999/02/22-rdf-syntax-ns#"
   xmlns:svg="http://www.w3.org/2000/svg"
   xmlns="http://www.w3.org/2000/svg"
   xmlns:sodipodi="http://sodipodi.sourceforge.net/DTD/sodipodi-0.dtd"
   xmlns:inkscape="http://www.inkscape.org/namespaces/inkscape"
   width="18"
   height="18"
   viewBox="0 40 18 18"
   id="svg3253"
   version="1.1"
   inkscape:version="0.91+devel+osxmenu r12911"
   sodipodi:docname="moscow-metro-18.svg">
  <metadata
     id="metadata3263">
    <rdf:RDF>
      <cc:Work
         rdf:about="">
        <dc:format>image/svg+xml</dc:format>
        <dc:type
           rdf:resource="http://purl.org/dc/dcmitype/StillImage" />
        <dc:title />
      </cc:Work>
    </rdf:RDF>
  </metadata>
  <defs
     id="defs3261" />
  <sodipodi:namedview
     pagecolor="#ffffff"
     bordercolor="#666666"
     borderopacity="1"
     objecttolerance="10"
     gridtolerance="10"
     guidetolerance="10"
     inkscape:pageopacity="0"
     inkscape:pageshadow="2"
     inkscape:window-width="1280"
     inkscape:window-height="756"
     id="namedview3259"
     showgrid="true"
     inkscape:zoom="17.291975"
     inkscape:cx="4.2494926"
     inkscape:cy="10.248474"
     inkscape:window-x="377"
     inkscape:window-y="141"
     inkscape:window-maximized="0"
     inkscape:current-layer="svg3253"
     inkscape:snap-nodes="true"
     inkscape:snap-bbox="true">
    <inkscape:grid
       type="xygrid"
       id="grid3265"
       empspacing="2"
       visible="true"
       enabled="true"
       snapvisiblegridlinesonly="true" />
  </sodipodi:namedview>
  <g
     id="g3008">
    <path
       style="fill:#3377a7;fill-opacity:1"
       d="M 9 3 C 5.1339817 3 2 6.5989711 2 10.501953 C 2 12.618263 3 14 3 14 L 15 14 C 15 14 16 12.490715 16 10.501953 C 16.00006 6.5990031 12.865989 3 9 3 z M 9 3.9902344 C 12.251739 3.9902344 15.009817 7.12718 15.009766 10.5 C 15.009766 11.727408 14.628329 12.558424 14.390625 13.009766 L 3.5898438 13.009766 C 3.3580377 12.600084 2.9902344 11.831833 2.9902344 10.5 C 2.9902344 7.127119 5.7482213 3.9902344 9 3.9902344 z "
       transform="translate(0,40)"
       id="path3255" />
    <path
       sodipodi:nodetypes="ccccccccccccccccccc"
       style="fill:#e97474;fill-opacity:1"
       inkscape:connector-curvature="0"
       id="path3257"
       d="M 13,51 11,45 9,48.5 7,45 l -2,6 -1,0 0,1 4,0 0,-1 -1.5,0 1,-2.5 1.5,3 1.5,-3 1,2.5 -1.5,0 0,1 4,0 0,-1 z" />
  </g>
</svg>
