<?xml version="1.0" encoding="UTF-8" standalone="no"?>
<!-- Created with Inkscape (http://www.inkscape.org/) -->

<svg
   xmlns:dc="http://purl.org/dc/elements/1.1/"
   xmlns:cc="http://creativecommons.org/ns#"
   xmlns:rdf="http://www.w3.org/1999/02/22-rdf-syntax-ns#"
   xmlns:svg="http://www.w3.org/2000/svg"
   xmlns="http://www.w3.org/2000/svg"
   xmlns:sodipodi="http://sodipodi.sourceforge.net/DTD/sodipodi-0.dtd"
   xmlns:inkscape="http://www.inkscape.org/namespaces/inkscape"
   width="18"
   height="18"
   id="svg4619"
   version="1.1"
   inkscape:version="0.91+devel+osxmenu r12911"
   sodipodi:docname="subway-18.svg"
   viewBox="0 0 18 18">
  <defs
     id="defs4621" />
  <sodipodi:namedview
     id="base"
     pagecolor="#ffffff"
     bordercolor="#666666"
     borderopacity="1.0"
     inkscape:pageopacity="0.0"
     inkscape:pageshadow="2"
     inkscape:zoom="22.627417"
     inkscape:cx="10.678966"
     inkscape:cy="5.6587474"
     inkscape:document-units="px"
     inkscape:current-layer="layer1"
     showgrid="false"
     showguides="false"
     inkscape:guide-bbox="true"
     inkscape:window-width="1920"
     inkscape:window-height="1031"
     inkscape:window-x="0"
     inkscape:window-y="23"
     inkscape:window-maximized="0"
     inkscape:snap-bbox="true">
    <inkscape:grid
       type="xygrid"
       id="grid4627"
       empspacing="2"
       visible="true"
       enabled="true"
       snapvisiblegridlinesonly="true"
       color="#ff00ff"
       opacity="0.1254902"
       empcolor="#ff00ff"
       empopacity="0.25098039" />
    <sodipodi:guide
       orientation="0,1"
       position="7,18"
       id="guide4659" />
    <sodipodi:guide
       orientation="1,0"
       position="18,9"
       id="guide4661" />
    <sodipodi:guide
       orientation="0,1"
       position="16,17"
       id="guide4663" />
    <sodipodi:guide
       orientation="1,0"
       position="17,12"
       id="guide4665" />
    <sodipodi:guide
       orientation="1,0"
       position="0,16"
       id="guide4667" />
    <sodipodi:guide
       orientation="0,1"
       position="8,0"
       id="guide4669" />
    <sodipodi:guide
       orientation="1,0"
       position="2,10"
       id="guide4671" />
    <sodipodi:guide
       orientation="0,1"
       position="12,2"
       id="guide4673" />
    <sodipodi:guide
       orientation="0,1"
       position="12,16"
       id="guide3010" />
    <sodipodi:guide
       orientation="1,0"
       position="3,11.5"
       id="guide3012" />
    <sodipodi:guide
       orientation="1,0"
       position="16,8.5"
       id="guide3016" />
    <sodipodi:guide
       orientation="1,0"
       position="9.5,9"
       id="guide3804" />
    <sodipodi:guide
       orientation="0,1"
       position="10,3"
       id="guide3095" />
  </sodipodi:namedview>
  <metadata
     id="metadata4624">
    <rdf:RDF>
      <cc:Work
         rdf:about="">
        <dc:format>image/svg+xml</dc:format>
        <dc:type
           rdf:resource="http://purl.org/dc/dcmitype/StillImage" />
        <dc:title />
      </cc:Work>
    </rdf:RDF>
  </metadata>
  <g
     inkscape:label="Layer 1"
     inkscape:groupmode="layer"
     id="layer1"
     transform="translate(0,-1034.3622)">
    <path
       style="fill:#3a3836;fill-opacity:1;stroke:none"
       d="M 9.5 2 C 7.0147186 2 5 3.9587535 5 6.375 C 4.9998504 8.0880318 5 9.86775 5 11.34375 C 5 11.70385 5.3039615 12 5.6875 12 L 13.3125 12 C 13.696039 12 14 11.70385 14 11.34375 L 14 6.375 C 14 3.9587535 11.985281 2 9.5 2 z M 8.90625 3.5625 C 8.936748 3.55626 8.969173 3.56781 9 3.5625 L 9 8 L 6.5 8 L 6.5 6.5 C 6.5 5.0502442 7.5392006 3.8422371 8.90625 3.5625 z M 10 3.5625 C 11.412646 3.8057143 12.5 5.0179013 12.5 6.5 L 12.5 8 L 10 8 L 10 3.5625 z M 7.25 9.5 A 0.75 0.75 0 0 1 8 10.25 A 0.75 0.75 0 0 1 7.25 11 A 0.75 0.75 0 0 1 6.5 10.25 A 0.75 0.75 0 0 1 7.25 9.5 z M 11.75 9.5 A 0.75 0.75 0 0 1 12.5 10.25 A 0.75 0.75 0 0 1 11.75 11 A 0.75 0.75 0 0 1 11 10.25 A 0.75 0.75 0 0 1 11.75 9.5 z M 7 13 L 5 14 L 5 15 L 7.5 15 L 8.5 14 L 8.5 13 L 7 13 z M 10.5 13 L 10.5 14 L 11.5 15 L 14 15 L 14 14 L 12 13 L 10.5 13 z "
       transform="translate(0,1034.3622)"
       id="rect3109-8" />
  </g>
</svg>
