<?xml version="1.0" encoding="UTF-8" standalone="no"?>
<!-- Created with Inkscape (http://www.inkscape.org/) -->

<svg
   xmlns:dc="http://purl.org/dc/elements/1.1/"
   xmlns:cc="http://creativecommons.org/ns#"
   xmlns:rdf="http://www.w3.org/1999/02/22-rdf-syntax-ns#"
   xmlns:svg="http://www.w3.org/2000/svg"
   xmlns="http://www.w3.org/2000/svg"
   xmlns:sodipodi="http://sodipodi.sourceforge.net/DTD/sodipodi-0.dtd"
   xmlns:inkscape="http://www.inkscape.org/namespaces/inkscape"
   version="1.1"
   width="12"
   height="12"
   id="svg3122"
   inkscape:version="0.91+devel+osxmenu r12911"
   sodipodi:docname="washington-metro-12.svg"
   viewBox="0 0 12 12">
  <sodipodi:namedview
     pagecolor="#ffffff"
     bordercolor="#666666"
     borderopacity="1"
     objecttolerance="10"
     gridtolerance="10"
     guidetolerance="10"
     inkscape:pageopacity="0"
     inkscape:pageshadow="2"
     inkscape:window-width="1920"
     inkscape:window-height="1031"
     id="namedview3085"
     showgrid="false"
     inkscape:zoom="45.254834"
     inkscape:cx="6.5831768"
     inkscape:cy="5.6463354"
     inkscape:window-x="0"
     inkscape:window-y="23"
     inkscape:window-maximized="0"
     inkscape:current-layer="layer1"
     inkscape:document-units="px">
    <inkscape:grid
       type="xygrid"
       id="grid3087" />
  </sodipodi:namedview>
  <defs
     id="defs3124" />
  <metadata
     id="metadata3127">
    <rdf:RDF>
      <cc:Work
         rdf:about="">
        <dc:format>image/svg+xml</dc:format>
        <dc:type
           rdf:resource="http://purl.org/dc/dcmitype/StillImage" />
        <dc:title />
      </cc:Work>
    </rdf:RDF>
  </metadata>
  <g
     transform="translate(0,-1040.3622)"
     id="layer1">
    <path
       style="color:#000000;display:inline;overflow:visible;visibility:visible;fill:#3a3836;fill-opacity:1;fill-rule:evenodd;stroke:none;stroke-width:1px;marker:none;enable-background:accumulate"
       d="M 3 2 C 2.4459904 2 2 2.4459904 2 3 L 2 9 C 2 9.5540096 2.4459904 10 3 10 L 9 10 C 9.5540096 10 10 9.5540096 10 9 L 10 3 C 10 2.4459904 9.5540096 2 9 2 L 3 2 z M 3 3 L 4.8769531 3 L 6.0039062 7.09375 L 7.1191406 3 L 9 3 L 9 9 L 7.8339844 9 L 7.8339844 4.2773438 L 6.6015625 9 L 5.3945312 9 L 4.1660156 4.2773438 L 4.1660156 9 L 3 9 L 3 3 z "
       transform="translate(0,1040.3622)"
       id="rect3416" />
  </g>
</svg>
