<?xml version="1.0" encoding="UTF-8" standalone="no"?>
<svg
   xmlns:dc="http://purl.org/dc/elements/1.1/"
   xmlns:cc="http://creativecommons.org/ns#"
   xmlns:rdf="http://www.w3.org/1999/02/22-rdf-syntax-ns#"
   xmlns:svg="http://www.w3.org/2000/svg"
   xmlns="http://www.w3.org/2000/svg"
   id="svg2"
   width="20"
   height="20"
   viewBox="0 0 20 20"
   version="1.1">
  <metadata
     id="metadata14">
    <rdf:RDF>
      <cc:Work
         rdf:about="">
        <dc:format>image/svg+xml</dc:format>
        <dc:type
           rdf:resource="http://purl.org/dc/dcmitype/StillImage" />
      </cc:Work>
    </rdf:RDF>
  </metadata>
  <defs
     id="defs12" />
  <ellipse
     id="ellipse4"
     ry="10"
     rx="10"
     cy="10"
     cx="10"
     style="fill:#ffffff;stroke:none;" />
  <ellipse
     id="ellipse6"
     rx="8"
     ry="8"
     cy="10"
     cx="10"
     style="fill:#a9a199;stroke:none;" />
  <g
     id="g8"
     transform="translate(4.5,5)">
    <metadata     id="metadata8"><rdf:RDF><cc:Work         rdf:about=""><dc:format>image/svg+xml</dc:format><dc:type           rdf:resource="http://purl.org/dc/dcmitype/StillImage" /><dc:title /></cc:Work></rdf:RDF></metadata><defs     id="defs6" /><path     d="m 4.5,2 c -1,0 -1,1 -1,1 L 5,7.5 C 5,7.5 5,8 5.5,8 6,8 6,7.5 6,7.5 L 7.5,3 c 0,0 0,-1 -1,-1 z m 4.5,1.5 -2,4 1.5,0 1,1 0.5,0 c 1,0 1,-0.9 1,-0.9 L 11,6.3 Z M 0,6.3 0,7.5 c 0,0 0.02960301,1.0097438 0.99999997,1 C 1.970397,8.49026 1.5,8.5 1.5,8.5 l 1,-1 1.5,0 -2,-4 z"     style="fill:#ffffff;fill-opacity:1"     id="path5836" />
  </g>
</svg>
