<?xml version="1.0" encoding="utf-8"?>
<!-- Generator: Adobe Illustrator 17.0.0, SVG Export Plug-In . SVG Version: 6.00 Build 0)  -->
<!DOCTYPE svg PUBLIC "-//W3C//DTD SVG 1.1//EN" "http://www.w3.org/Graphics/SVG/1.1/DTD/svg11.dtd">
<svg version="1.1"
	 id="svg3122" xmlns:dc="http://purl.org/dc/elements/1.1/" xmlns:cc="http://creativecommons.org/ns#" xmlns:rdf="http://www.w3.org/1999/02/22-rdf-syntax-ns#" xmlns:svg="http://www.w3.org/2000/svg" xmlns:sodipodi="http://sodipodi.sourceforge.net/DTD/sodipodi-0.dtd" xmlns:inkscape="http://www.inkscape.org/namespaces/inkscape" sodipodi:docname="dlr.london-underground.national-rail-15.svg" inkscape:version="0.91+devel+osxmenu r12911"
	 xmlns="http://www.w3.org/2000/svg" xmlns:xlink="http://www.w3.org/1999/xlink" x="0px" y="0px" width="57px" height="19px"
	 viewBox="-2 -2 57 19" enable-background="new -2 -2 57 19" xml:space="preserve">
<path fill="#FFFFFF" d="M51,0h-7.156h-1.887H38c-1.654,0-3,1.346-3,3v1.503c-0.21-0.158-0.444-0.285-0.698-0.371
	C32.982,1.05,29.953-1,26.5-1s-6.482,2.05-7.802,5.132C18.215,4.296,17.8,4.605,17.5,5.005c-0.3-0.4-0.715-0.71-1.198-0.873
	C14.982,1.05,11.953-1,8.5-1S2.018,1.05,0.698,4.132C-0.288,4.467-1,5.402-1,6.5v2c0,1.098,0.712,2.033,1.698,2.368
	C2.018,13.95,5.047,16,8.5,16s6.482-2.05,7.802-5.132c0.483-0.164,0.898-0.473,1.198-0.873c0.3,0.4,0.715,0.71,1.198,0.873
	C20.018,13.95,23.047,16,26.5,16s6.482-2.05,7.802-5.132c0.254-0.086,0.488-0.213,0.698-0.371V12c0,1.654,1.346,3,3,3h7.156h1.887
	H51c1.654,0,3-1.346,3-3v-2V9V6V5V3C54,1.346,52.654,0,51,0z"/>
<sodipodi:namedview  id="namedview14839" inkscape:zoom="11" inkscape:cx="34.643832" showgrid="true" gridtolerance="10" inkscape:cy="0.75601635" objecttolerance="10" guidetolerance="10" bordercolor="#666666" borderopacity="1" pagecolor="#ffffff" inkscape:bbox-paths="true" inkscape:snap-bbox="true" inkscape:current-layer="svg3122" inkscape:pageopacity="0" inkscape:window-y="23" inkscape:window-x="0" inkscape:window-width="640" inkscape:document-units="px" inkscape:bbox-nodes="true" inkscape:pageshadow="2" inkscape:window-height="480" inkscape:window-maximized="0">
	<inkscape:grid  type="xygrid" id="grid9015"></inkscape:grid>
</sodipodi:namedview>
<g id="layer1" transform="translate(18,-1037.3622)">
</g>
<g id="g9208" transform="translate(1,-9)">
	<circle id="path5295" fill="#FFFFFF" cx="7.5" cy="16.5" r="5"/>
	<path id="path3346" inkscape:connector-curvature="0" fill="#9CC883" d="M7.5,10C3.91,10,1,12.91,1,16.5S3.91,23,7.5,23
		s6.5-2.91,6.5-6.5S11.09,10,7.5,10z M7.5,12.5c2.209,0,4,1.791,4,4l0,0c0,2.209-1.791,4-4,4h0c-2.209,0-4-1.791-4-4l0,0
		C3.5,14.291,5.291,12.5,7.5,12.5C7.5,12.5,7.5,12.5,7.5,12.5z"/>
	<path id="rect3363" fill="#5396C7" d="M0.5,15h14c0.276,0,0.5,0.224,0.5,0.5v2c0,0.276-0.224,0.5-0.5,0.5h-14
		C0.224,18,0,17.776,0,17.5v-2C0,15.224,0.224,15,0.5,15z"/>
</g>
<g id="g9213" transform="translate(19,-9)">
	<circle id="circle9215" fill="#FFFFFF" cx="7.5" cy="16.5" r="5"/>
	<path id="path9217" inkscape:connector-curvature="0" fill="#E97474" d="M7.5,10C3.91,10,1,12.91,1,16.5S3.91,23,7.5,23
		s6.5-2.91,6.5-6.5S11.09,10,7.5,10z M7.5,12.5c2.209,0,4,1.791,4,4l0,0c0,2.209-1.791,4-4,4h0c-2.209,0-4-1.791-4-4l0,0
		C3.5,14.291,5.291,12.5,7.5,12.5C7.5,12.5,7.5,12.5,7.5,12.5z"/>
	<path id="rect9219" fill="#5396C7" d="M0.5,15h14c0.276,0,0.5,0.224,0.5,0.5v2c0,0.276-0.224,0.5-0.5,0.5h-14
		C0.224,18,0,17.776,0,17.5v-2C0,15.224,0.224,15,0.5,15z"/>
</g>
<g id="g11681" transform="translate(37)">
	<path id="rect4778" fill="#E97474" d="M1,2h13c0.552,0,1,0.448,1,1v9c0,0.552-0.448,1-1,1H1c-0.552,0-1-0.448-1-1V3
		C0,2.448,0.448,2,1,2z"/>
	<path id="rect4780" inkscape:connector-curvature="0" fill="#FFFFFF" d="M4.957,2l4.799,3H0v1h9.381l-6,3H0v1h3.357l4.799,3h1.887
		l-4.799-3H15V9H5.619l6-3H15V5h-3.357L6.844,2H4.957z"/>
</g>
</svg>
