<?xml version="1.0" encoding="UTF-8" standalone="no"?>
<svg
   xmlns:dc="http://purl.org/dc/elements/1.1/"
   xmlns:cc="http://creativecommons.org/ns#"
   xmlns:rdf="http://www.w3.org/1999/02/22-rdf-syntax-ns#"
   xmlns:svg="http://www.w3.org/2000/svg"
   xmlns="http://www.w3.org/2000/svg"
   id="svg2"
   width="24"
   height="24"
   viewBox="0 0 24 24"
   version="1.1">
  <metadata
     id="metadata14">
    <rdf:RDF>
      <cc:Work
         rdf:about="">
        <dc:format>image/svg+xml</dc:format>
        <dc:type
           rdf:resource="http://purl.org/dc/dcmitype/StillImage" />
      </cc:Work>
    </rdf:RDF>
  </metadata>
  <defs
     id="defs12" />
  <ellipse
     id="ellipse4"
     ry="12"
     rx="12"
     cy="12"
     cx="12"
     style="fill:#ffffff;stroke:none;" />
  <ellipse
     id="ellipse6"
     ry="10"
     rx="10"
     cy="12"
     cx="12"
     style="fill:#a9a199;stroke:none;" />
  <g
     id="g8"
     transform="translate(4.5,5)">
      <defs     id="defs4621" />  <metadata     id="metadata4624">    <rdf:RDF>      <cc:Work         rdf:about="">        <dc:format>image/svg+xml</dc:format>        <dc:type           rdf:resource="http://purl.org/dc/dcmitype/StillImage" />        <dc:title />      </cc:Work>    </rdf:RDF>  </metadata>  <path     id="path5391"     d="M 6.8164062 2 C 5.1585114 2 3.5 4 3.5 4 L 3.5 10 C 3.5 10 5.1585114 8 6.8164062 8 C 8.4128974 8 9.0256986 10 10.683594 10 C 12.341488 10 14 7.7773437 14 7.7773438 L 14 2 C 14 2 12.341488 4 10.683594 4 C 9.0256986 4 8.474301 2 6.8164062 2 z M 2.4355469 2.4726562 A 0.52777779 0.52777791 0 0 0 1.9453125 3 A 0.52777779 0.52777791 0 0 0 1.9453125 3.0371094 L 1.9453125 12.060547 C 1.6909026 13.488917 0.5 13.5 0.5 13.5 L 0.5 14 L 4.5 14 L 4.5 13.5 C 4.5 13.5 3 13.499999 3 11.5 L 3 9.9453125 L 3 3 A 0.52777779 0.52777791 0 0 0 2.4726562 2.4726562 A 0.52777779 0.52777791 0 0 0 2.4355469 2.4726562 z "     style="fill:#ffffff;fill-opacity:1;stroke-width:1" />
  </g>
</svg>
