<?xml version="1.0" encoding="UTF-8" standalone="no"?>
<svg
   xmlns:dc="http://purl.org/dc/elements/1.1/"
   xmlns:cc="http://creativecommons.org/ns#"
   xmlns:rdf="http://www.w3.org/1999/02/22-rdf-syntax-ns#"
   xmlns:svg="http://www.w3.org/2000/svg"
   xmlns="http://www.w3.org/2000/svg"
   id="svg2"
   width="24"
   height="24"
   viewBox="0 0 24 24"
   version="1.1">
  <metadata
     id="metadata14">
    <rdf:RDF>
      <cc:Work
         rdf:about="">
        <dc:format>image/svg+xml</dc:format>
        <dc:type
           rdf:resource="http://purl.org/dc/dcmitype/StillImage" />
      </cc:Work>
    </rdf:RDF>
  </metadata>
  <defs
     id="defs12" />
  <rect
     id="rect4"
     ry="3"
     rx="3"
     height="24"
     width="24"
     y="0"
     x="0"
     style="fill:#ffffff;stroke:none;" />
  <rect
     id="rect6"
     ry="2"
     rx="2"
     height="20"
     width="20"
     y="2"
     x="2"
     style="fill:#9c8ea4;stroke:none;" />
  <g
     id="g8"
     transform="translate(4.5,4)">
      <defs     id="defs4621" />  <metadata     id="metadata4624">    <rdf:RDF>      <cc:Work         rdf:about="">        <dc:format>image/svg+xml</dc:format>        <dc:type           rdf:resource="http://purl.org/dc/dcmitype/StillImage" />        <dc:title />      </cc:Work>    </rdf:RDF>  </metadata>  <g     id="g4838"     transform="matrix(1.2032085,0,0,1.2032085,-2.2e-5,24.06417)"     style="stroke-width:0.73333335">    <path       id="path4840"       transform="matrix(0.73333092,0,0,0.73333092,-14.6666,-20)"       d="M 26,0 C 25.446,0 25,0.44599998 25,1 L 24.5,1 C 23.677649,1 23,1.6776487 23,2.5 L 23,6.125 21.5,7 l 2.5,4 0.5,0 c 0.796621,0 1.33823,0.316583 1.818359,0.572266 0.48013,0.255682 0.830588,0.423828 1.181641,0.423828 0.351053,0 0.701511,-0.168146 1.181641,-0.423828 C 29.16177,11.316583 29.703379,11 30.5,11 L 31,11 33.5,7 32,6.125 32,2.5 C 32,1.6776487 31.324304,1 30.501953,1 L 30,1 C 30,0.44599998 29.554,0 29,0 l -3,0 z m -1.5,2.0019531 6.001953,0 C 30.787602,2.0019531 31,2.2143514 31,2.5 L 31,5.5410156 27.5,3.5 24,5.5410156 24,2.5 C 24,2.2143514 24.214351,2.0019531 24.5,2.0019531 Z M 23,12.5 c 0,0 -1,0 -1,0.75 0,0.75 1,0.751953 1,0.751953 l 1.431641,0 c 0.356005,0 0.70737,0.16211 1.1875,0.412109 C 26.09927,14.664063 26.708331,15 27.5,15 c 0.791669,0 1.40073,-0.335937 1.880859,-0.585938 0.48013,-0.249999 0.831495,-0.412109 1.1875,-0.412109 l 1.431641,0 c 0,0 1,-10e-4 1,-0.75 C 33,12.500976 32,12.5 32,12.5 l -1.431641,0 c -0.791669,0 -1.40073,0.335937 -1.880859,0.585938 C 28.207371,13.335937 27.856005,13.5 27.5,13.5 27.143995,13.5 26.792629,13.335937 26.3125,13.085938 25.832371,12.835937 25.22331,12.5 24.431641,12.5 L 23,12.5 Z"       style="fill:#ffffff;fill-opacity:1;stroke-width:1.00000334" />  </g>
  </g>
</svg>
