<?xml version="1.0" encoding="UTF-8" standalone="no"?>
<svg
   xmlns:dc="http://purl.org/dc/elements/1.1/"
   xmlns:cc="http://creativecommons.org/ns#"
   xmlns:rdf="http://www.w3.org/1999/02/22-rdf-syntax-ns#"
   xmlns:svg="http://www.w3.org/2000/svg"
   xmlns="http://www.w3.org/2000/svg"
   id="svg2"
   width="20"
   height="20"
   viewBox="0 0 20 20"
   version="1.1">
  <metadata
     id="metadata14">
    <rdf:RDF>
      <cc:Work
         rdf:about="">
        <dc:format>image/svg+xml</dc:format>
        <dc:type
           rdf:resource="http://purl.org/dc/dcmitype/StillImage" />
      </cc:Work>
    </rdf:RDF>
  </metadata>
  <defs
     id="defs12" />
  <ellipse
     id="ellipse4"
     ry="10"
     rx="10"
     cy="10"
     cx="10"
     style="fill:#ffffff;stroke:none;" />
  <ellipse
     id="ellipse6"
     rx="8"
     ry="8"
     cy="10"
     cx="10"
     style="fill:#a9a199;stroke:none;" />
  <g
     id="g8"
     transform="translate(4.5,5)">
      <defs     id="defs4766" />  <metadata     id="metadata4769">    <rdf:RDF>      <cc:Work         rdf:about="">        <dc:format>image/svg+xml</dc:format>        <dc:type           rdf:resource="http://purl.org/dc/dcmitype/StillImage" />        <dc:title />      </cc:Work>    </rdf:RDF>  </metadata>  <path     id="rect6430"     d="M 0.5 2 C 0.223 2 0 2.223 0 2.5 L 0 7.5 L 0 8.5 C 0 8.777 0.223 9 0.5 9 C 0.777 9 1 8.777 1 8.5 L 1 8 L 10 8 L 10 8.5 C 10 8.777 10.223 9 10.5 9 C 10.777 9 11 8.777 11 8.5 L 11 7.5 C 11 7.223 10.777 7 10.5 7 L 1 7 L 1 2.5 C 1 2.223 0.777 2 0.5 2 z M 2.5 2 A 1 1 0 0 0 1.5 3 A 1 1 0 0 0 2.5 4 A 1 1 0 0 0 3.5 3 A 1 1 0 0 0 2.5 2 z M 5 3 C 4 3 4 4 4 4 L 4 5 L 2 5 C 1.723 5 1.5 5.223 1.5 5.5 C 1.5 5.777 1.723 6 2 6 L 4.5 6 L 11 6 L 11 5 C 11 3 9 3 9 3 L 5 3 z "     style="opacity:1;fill:#ffffff;fill-opacity:1;stroke:none;stroke-width:2;stroke-linecap:round;stroke-linejoin:round;stroke-miterlimit:4;stroke-dasharray:none;stroke-dashoffset:0;stroke-opacity:1;marker:none" />
  </g>
</svg>
