<?xml version="1.0" encoding="utf-8"?>
<!-- Generator: Adobe Illustrator 17.0.0, SVG Export Plug-In . SVG Version: 6.00 Build 0)  -->
<!DOCTYPE svg PUBLIC "-//W3C//DTD SVG 1.1//EN" "http://www.w3.org/Graphics/SVG/1.1/DTD/svg11.dtd">
<svg version="1.1"
	 id="svg13031" xmlns:dc="http://purl.org/dc/elements/1.1/" xmlns:cc="http://creativecommons.org/ns#" xmlns:rdf="http://www.w3.org/1999/02/22-rdf-syntax-ns#" xmlns:svg="http://www.w3.org/2000/svg"
	 xmlns="http://www.w3.org/2000/svg" xmlns:xlink="http://www.w3.org/1999/xlink" x="0px" y="0px" width="32px" height="32px"
	 viewBox="0 0 32 32" enable-background="new 0 0 32 32" xml:space="preserve">
<g>
	<g id="path13603">
		<path fill="#8CCBF7" d="M13.386,27.314H4.794c-0.261,0-0.472-0.211-0.472-0.472c0-0.261,0.211-0.472,0.472-0.472h8.592
			c0.261,0,0.472,0.211,0.472,0.472C13.858,27.104,13.647,27.314,13.386,27.314z"/>
	</g>
	<g id="path13605">
		<path fill="#8CCBF7" d="M8.855,27.314c-0.12,0-0.242-0.047-0.334-0.137l-2.824-2.822c-0.183-0.184-0.183-0.484,0-0.668
			c0.184-0.181,0.484-0.184,0.668,0l2.49,2.49l2.49-2.49c0.184-0.184,0.484-0.181,0.668,0c0.183,0.184,0.183,0.484,0,0.668
			L9.19,27.177C9.097,27.267,8.976,27.314,8.855,27.314z"/>
	</g>
	<g id="path13607">
		<path fill="#8CCBF7" d="M8.855,27.311c-0.261,0-0.472-0.211-0.472-0.472v-4.695c0-0.261,0.211-0.472,0.472-0.472
			c0.261,0,0.472,0.211,0.472,0.472v4.695C9.327,27.1,9.116,27.311,8.855,27.311z"/>
	</g>
	<g id="path14461">
		<path fill="#8CCBF7" d="M22.057,10.342h-7.482c-0.261,0-0.472-0.211-0.472-0.472c0-0.261,0.211-0.472,0.472-0.472h7.482
			c0.261,0,0.472,0.211,0.472,0.472C22.528,10.132,22.318,10.342,22.057,10.342z"/>
	</g>
	<g id="path14467">
		<path fill="#8CCBF7" d="M28.641,18.828h-2.8c-0.261,0-0.472-0.211-0.472-0.472s0.211-0.472,0.472-0.472h2.8
			c0.261,0,0.472,0.211,0.472,0.472S28.902,18.828,28.641,18.828z"/>
	</g>
	<g id="path15306">
		<path fill="#8CCBF7" d="M18.285,10.342c-0.158,0-0.305-0.078-0.392-0.211L16.012,7.31c-0.144-0.216-0.087-0.508,0.131-0.653
			c0.218-0.143,0.508-0.089,0.653,0.131l1.489,2.232l1.489-2.232c0.143-0.221,0.438-0.278,0.653-0.131
			c0.218,0.144,0.275,0.437,0.131,0.653l-1.881,2.822C18.589,10.264,18.443,10.342,18.285,10.342z"/>
	</g>
</g>
</svg>
