<?xml version="1.0" encoding="utf-8"?>
<!-- Generator: Adobe Illustrator 17.0.0, SVG Export Plug-In . SVG Version: 6.00 Build 0)  -->
<!DOCTYPE svg PUBLIC "-//W3C//DTD SVG 1.1//EN" "http://www.w3.org/Graphics/SVG/1.1/DTD/svg11.dtd">
<svg version="1.1"
	 id="Layer_1" xmlns:dc="http://purl.org/dc/elements/1.1/" xmlns:cc="http://creativecommons.org/ns#" xmlns:rdf="http://www.w3.org/1999/02/22-rdf-syntax-ns#" xmlns:svg="http://www.w3.org/2000/svg"
	 xmlns="http://www.w3.org/2000/svg" xmlns:xlink="http://www.w3.org/1999/xlink" x="0px" y="0px" width="16px" height="16px"
	 viewBox="0 0 16 16" enable-background="new 0 0 16 16" xml:space="preserve">
<g id="path13603">
	<path fill="#8CCBF7" d="M6.577,13.839H2.072c-0.137,0-0.246-0.109-0.246-0.246c0-0.137,0.109-0.246,0.246-0.246h4.504
		c0.137,0,0.246,0.109,0.246,0.246C6.823,13.73,6.714,13.839,6.577,13.839z"/>
</g>
<g id="path13605">
	<path fill="#8CCBF7" d="M4.201,13.839c-0.064,0-0.126-0.024-0.175-0.071l-1.48-1.48c-0.097-0.097-0.097-0.254,0-0.35
		c0.099-0.095,0.252-0.095,0.35,0l1.304,1.304l1.304-1.304c0.099-0.095,0.252-0.095,0.35,0c0.097,0.097,0.097,0.254,0,0.35
		l-1.48,1.48C4.327,13.816,4.265,13.839,4.201,13.839z"/>
</g>
<g id="path13607">
	<path fill="#8CCBF7" d="M4.201,13.838c-0.137,0-0.246-0.109-0.246-0.246V11.13c0-0.137,0.109-0.246,0.246-0.246
		s0.246,0.109,0.246,0.246v2.461C4.448,13.728,4.338,13.838,4.201,13.838z"/>
</g>
<g id="path14461">
	<path fill="#8CCBF7" d="M11.121,4.942H7.199c-0.137,0-0.246-0.109-0.246-0.246c0-0.137,0.109-0.246,0.246-0.246h3.922
		c0.137,0,0.246,0.109,0.246,0.246C11.367,4.833,11.258,4.942,11.121,4.942z"/>
</g>
<g id="path14467">
	<path fill="#8CCBF7" d="M14.573,9.39h-1.467c-0.137,0-0.246-0.109-0.246-0.246s0.109-0.246,0.246-0.246h1.467
		c0.137,0,0.246,0.109,0.246,0.246S14.71,9.39,14.573,9.39z"/>
</g>
<g id="path15306">
	<path fill="#8CCBF7" d="M9.144,4.942L9.144,4.942c-0.082,0-0.161-0.04-0.206-0.109l-0.985-1.48C7.877,3.24,7.908,3.087,8.022,3.01
		c0.109-0.077,0.265-0.046,0.343,0.069l0.779,1.171l0.781-1.171c0.075-0.113,0.232-0.142,0.343-0.069
		c0.113,0.077,0.144,0.23,0.069,0.343L9.35,4.833C9.304,4.902,9.226,4.942,9.144,4.942z"/>
</g>
</svg>
