<?xml version="1.0" encoding="UTF-8" standalone="no"?>
<svg
   xmlns:dc="http://purl.org/dc/elements/1.1/"
   xmlns:cc="http://creativecommons.org/ns#"
   xmlns:rdf="http://www.w3.org/1999/02/22-rdf-syntax-ns#"
   xmlns:svg="http://www.w3.org/2000/svg"
   xmlns="http://www.w3.org/2000/svg"
   id="svg2"
   width="20"
   height="20"
   viewBox="0 0 20 20"
   version="1.1">
  <metadata
     id="metadata14">
    <rdf:RDF>
      <cc:Work
         rdf:about="">
        <dc:format>image/svg+xml</dc:format>
        <dc:type
           rdf:resource="http://purl.org/dc/dcmitype/StillImage" />
      </cc:Work>
    </rdf:RDF>
  </metadata>
  <defs
     id="defs12" />
  <ellipse
     id="ellipse4"
     ry="10"
     rx="10"
     cy="10"
     cx="10"
     style="fill:#ffffff;stroke:none;" />
  <ellipse
     id="ellipse6"
     rx="8"
     ry="8"
     cy="10"
     cx="10"
     style="fill:#a9a199;stroke:none;" />
  <g
     id="g8"
     transform="translate(4.5,5)">
    <metadata     id="metadata54819"><rdf:RDF><cc:Work         rdf:about=""><dc:format>image/svg+xml</dc:format><dc:type           rdf:resource="http://purl.org/dc/dcmitype/StillImage" /><dc:title /></cc:Work></rdf:RDF></metadata><defs     id="defs54817" /><path     id="path6818"     d="M 5.5 0 L 1 2 L 1 3 L 10 3 L 10 2 L 5.5 0 z M 2 4 L 2 8 L 1 9 L 1 10 L 10 10 L 10 9 L 9 8 L 9 4 L 8.5 4 L 2.5 4 L 2 4 z M 3.4921875 5 A 0.50005 0.50005 0 0 1 3.8535156 5.1464844 L 5.5 6.7929688 L 7.1464844 5.1464844 A 0.50005 0.50005 0 0 1 8 5.5 L 8 8.5 A 0.50005 0.50005 0 1 1 7 8.5 L 7 6.7070312 L 5.8535156 7.8535156 A 0.50005 0.50005 0 0 1 5.1464844 7.8535156 L 4 6.7070312 L 4 8.5 A 0.50005 0.50005 0 1 1 3 8.5 L 3 5.5 A 0.50005 0.50005 0 0 1 3.4921875 5 z "     style="fill:#ffffff;fill-opacity:1" /><path     d="m 85.5,0.5 -4,1.5 0,1 8,0 0,-1 z m -3,3.5 -0.5,0 0,4 -0.5,1 0,1 8,0 0,-1 L 89,8 89,4 88.5,4 Z"     id="path6850"     style="fill:#ffffff;fill-opacity:1" /><path     id="path6852"     d="m 83.5,8.5 0,-3 2,2 2,-2 0,3"     style="fill:none;fill-rule:evenodd;stroke:#ffffff;stroke-width:1px;stroke-linecap:round;stroke-linejoin:round;stroke-opacity:1" />
  </g>
</svg>
