<?xml version="1.0" encoding="UTF-8" standalone="no"?>
<svg
   xmlns:dc="http://purl.org/dc/elements/1.1/"
   xmlns:cc="http://creativecommons.org/ns#"
   xmlns:rdf="http://www.w3.org/1999/02/22-rdf-syntax-ns#"
   xmlns:svg="http://www.w3.org/2000/svg"
   xmlns="http://www.w3.org/2000/svg"
   version="1.1"
   id="svg4845"
   viewBox="0 0 25 26"
   height="26"
   width="25">
  <defs
     id="defs4847" />
  <metadata
     id="metadata4850">
    <rdf:RDF>
      <cc:Work
         rdf:about="">
        <dc:format>image/svg+xml</dc:format>
        <dc:type
           rdf:resource="http://purl.org/dc/dcmitype/StillImage" />
        <dc:title />
      </cc:Work>
    </rdf:RDF>
  </metadata>
  <g
     transform="translate(-1315.0001,-1616.3622)"
     id="layer1">
    <rect
       y="1616.3622"
       x="1317.3"
       height="24.999983"
       width="20.399981"
       id="rect5549-2"
       style="color:#3a3836;clip-rule:nonzero;display:inline;overflow:visible;visibility:visible;opacity:1;isolation:auto;mix-blend-mode:normal;color-interpolation:sRGB;color-interpolation-filters:linearRGB;solid-color:#3a3836;solid-opacity:1;fill:#e6e6e6;fill-opacity:0;fill-rule:evenodd;stroke:none;stroke-width:1;stroke-linecap:round;stroke-linejoin:round;stroke-miterlimit:4;stroke-dasharray:none;stroke-dashoffset:0;stroke-opacity:1;marker:none;color-rendering:auto;image-rendering:auto;shape-rendering:auto;text-rendering:auto;enable-background:accumulate" />
    <path
       d="m 1320.3,1616.8622 -4.7999,3.5 0,3 c 1.7999,1.1905 1.7999,3.8095 0,5 0,9.5238 9.9935,12.0024 11.9999,12.5 1.9402,-0.4812 12.0931,-3.8921 12,-12.5 -1.8,-1.1905 -1.8,-3.8095 0,-5 l 0,-3 -4.8,-3.5 c -0.9,0.8929 -2.25,2 -3.6,2 -1.35,0 -2.7,-1.1071 -3.6,-2 -0.9,0.8929 -2.25,2 -3.6,2 -1.35,0 -2.7,-1.1071 -3.6,-2 z"
       id="path4616-9"
       style="color:#3a3836;display:inline;overflow:visible;visibility:visible;fill:#ffffff;fill-opacity:1;fill-rule:evenodd;stroke:#3a3836;stroke-width:1;stroke-linecap:round;stroke-linejoin:round;marker:none;enable-background:accumulate" />
    <path
       id="path5547-6"
       d="m 1316.1001,1621.8621 22.7999,0"
       style="fill:none;fill-rule:evenodd;stroke:#3a3836;stroke-width:1px;stroke-linecap:round;stroke-linejoin:round;stroke-opacity:1" />
  </g>
</svg>
