<?xml version="1.0" encoding="UTF-8" standalone="no"?>
<svg
   xmlns:dc="http://purl.org/dc/elements/1.1/"
   xmlns:cc="http://creativecommons.org/ns#"
   xmlns:rdf="http://www.w3.org/1999/02/22-rdf-syntax-ns#"
   xmlns:svg="http://www.w3.org/2000/svg"
   xmlns="http://www.w3.org/2000/svg"
   id="svg2"
   width="24"
   height="24"
   viewBox="0 0 24 24"
   version="1.1">
  <metadata
     id="metadata14">
    <rdf:RDF>
      <cc:Work
         rdf:about="">
        <dc:format>image/svg+xml</dc:format>
        <dc:type
           rdf:resource="http://purl.org/dc/dcmitype/StillImage" />
      </cc:Work>
    </rdf:RDF>
  </metadata>
  <defs
     id="defs12" />
  <ellipse
     id="ellipse4"
     ry="12"
     rx="12"
     cy="12"
     cx="12"
     style="fill:#ffffff;stroke:none;" />
  <ellipse
     id="ellipse6"
     ry="10"
     rx="10"
     cy="12"
     cx="12"
     style="fill:#b28b8b;stroke:none;" />
  <g
     id="g8"
     transform="translate(4.5,5)">
    <metadata     id="metadata13"><rdf:RDF><cc:Work         rdf:about=""><dc:format>image/svg+xml</dc:format><dc:type           rdf:resource="http://purl.org/dc/dcmitype/StillImage" /><dc:title /></cc:Work></rdf:RDF></metadata><defs     id="defs11" /><g     transform="matrix(1.4402238,0,0,1.4402238,-0.43133104,-6.1720257)"     id="g4825"><path       id="path4199"       transform="matrix(0.69433653,0,0,0.69433653,0.2994889,4.2854629)"       d="M 4.96875,1.96875 C 2.2751146,1.969407 0.9468253,5.2441986 2.8789062,7.1210938 l 5,5.0000002 C 10.705797,15.118858 15.118206,10.704416 12.119141,7.8789062 L 7.1210938,2.8808594 C 6.5564646,2.2983386 5.7800061,1.9692949 4.96875,1.96875 Z m 0.00977,1.0097656 c 0.5416455,-5.122e-4 1.0603418,0.2186652 1.4375,0.6074219 L 11.585938,8.75 c 0.736226,0.7068818 -0.353665,1.796773 -1.060547,1.0605469 L 7.8554688,7.1445312 6.0859375,8.9140625 l -2.5,-2.5019531 C 2.3003891,5.1609469 3.1846267,2.9807368 4.9785156,2.9785156 Z"       style="color:#000000;font-style:normal;font-variant:normal;font-weight:normal;font-stretch:normal;font-size:medium;line-height:normal;font-family:sans-serif;text-indent:0;text-align:start;text-decoration:none;text-decoration-line:none;text-decoration-style:solid;text-decoration-color:#000000;letter-spacing:normal;word-spacing:normal;text-transform:none;direction:ltr;block-progression:tb;writing-mode:lr-tb;baseline-shift:baseline;text-anchor:start;white-space:normal;shape-padding:0;clip-rule:nonzero;display:inline;overflow:visible;visibility:visible;opacity:1;isolation:auto;mix-blend-mode:normal;color-interpolation:sRGB;color-interpolation-filters:linearRGB;solid-color:#000000;solid-opacity:1;fill:#ffffff;fill-opacity:1;fill-rule:nonzero;stroke:none;stroke-width:5.99999952;stroke-linecap:round;stroke-linejoin:round;stroke-miterlimit:4;stroke-dasharray:none;stroke-dashoffset:0;stroke-opacity:1;marker:none;color-rendering:auto;image-rendering:auto;shape-rendering:auto;text-rendering:auto;enable-background:accumulate" /></g>
  </g>
</svg>
