<?xml version="1.0" encoding="UTF-8" standalone="no"?>
<svg
   xmlns:dc="http://purl.org/dc/elements/1.1/"
   xmlns:cc="http://creativecommons.org/ns#"
   xmlns:rdf="http://www.w3.org/1999/02/22-rdf-syntax-ns#"
   xmlns:svg="http://www.w3.org/2000/svg"
   xmlns="http://www.w3.org/2000/svg"
   viewBox="0 0 28 17"
   version="1.1"
   id="svg3844"
   height="17"
   width="28">
  <defs
     id="defs3846" />
  <metadata
     id="metadata3849">
    <rdf:RDF>
      <cc:Work
         rdf:about="">
        <dc:format>image/svg+xml</dc:format>
        <dc:type
           rdf:resource="http://purl.org/dc/dcmitype/StillImage" />
        <dc:title />
      </cc:Work>
    </rdf:RDF>
  </metadata>
  <g
     transform="translate(-299,-901.36218)"
     id="layer1">
    <rect
       y="901.36218"
       x="299"
       height="17"
       width="21"
       id="rect3803"
       style="color:#3a3836;display:inline;overflow:visible;visibility:visible;opacity:0;fill:#3a3836;fill-opacity:1;fill-rule:nonzero;stroke:none;stroke-width:1;marker:none;enable-background:accumulate" />
    <path
       id="path3799-7"
       d="m 305.12502,902.36218 -5.62501,2.5 c 0.5625,0.5 2.25001,1.5 1.125,3.5 -1.125,2 -1.6875,5 0.5625,7 2.81251,2.5 10.68753,0.5 11.81253,2.5 1.12501,-2 9.00003,0 11.81253,-2.5 2.25001,-2 1.68751,-5 0.56251,-7 -1.12501,-2 0.5625,-3 1.125,-3.5 l -5.62502,-2.5 c 0,0 -1.6875,1.5 -3.93751,1.5 -2.25,0 -3.93751,-1.5 -3.93751,-1.5 0,0 -1.6875,1.5 -3.93751,1.5 -2.25,0 -3.93751,-1.5 -3.93751,-1.5 z"
       clip-path="none"
       style="color:#3a3836;display:inline;overflow:visible;visibility:visible;opacity:1;fill:#ffffff;fill-opacity:1;fill-rule:evenodd;stroke:#3a3836;stroke-width:1;stroke-linecap:round;stroke-linejoin:round;marker:none;enable-background:accumulate" />
  </g>
</svg>
