<?xml version="1.0" encoding="utf-8"?>
<!-- Generator: Adobe Illustrator 17.0.0, SVG Export Plug-In . SVG Version: 6.00 Build 0)  -->
<!DOCTYPE svg PUBLIC "-//W3C//DTD SVG 1.1//EN" "http://www.w3.org/Graphics/SVG/1.1/DTD/svg11.dtd">
<svg version="1.1"
	 id="svg3844" xmlns:dc="http://purl.org/dc/elements/1.1/" xmlns:cc="http://creativecommons.org/ns#" xmlns:rdf="http://www.w3.org/1999/02/22-rdf-syntax-ns#" xmlns:svg="http://www.w3.org/2000/svg"
	 xmlns="http://www.w3.org/2000/svg" xmlns:xlink="http://www.w3.org/1999/xlink" x="0px" y="0px" width="27px" height="37px"
	 viewBox="0 0 27 37" enable-background="new 0 0 27 37" xml:space="preserve">
<g>
	<path fill="#FFFFFF" d="M9.091,5.64c0-0.301-0.103-0.525-0.309-0.67s-0.519-0.218-0.94-0.218h-0.96v1.836H7.89
		c0.396,0,0.695-0.075,0.896-0.226C8.989,6.209,9.091,5.968,9.091,5.64z"/>
	<path fill="#FFFFFF" d="M8.663,3.797C8.845,3.67,8.936,3.456,8.936,3.154c0-0.272-0.099-0.469-0.297-0.591
		C8.443,2.442,8.131,2.381,7.703,2.381H6.883v1.602h0.912C8.191,3.983,8.48,3.921,8.663,3.797z"/>
	<path fill="#FFFFFF" d="M4.5,9h19c0.552,0,1-0.448,1-1V1c0-0.552-0.448-1-1-1h-19c-0.552,0-1,0.448-1,1v7C3.5,8.552,3.948,9,4.5,9z
		 M21.359,6.446c0.106-0.105,0.26-0.158,0.46-0.158c0.204,0,0.359,0.055,0.465,0.166c0.106,0.108,0.159,0.257,0.159,0.446
		c0,0.192-0.054,0.345-0.163,0.458c-0.106,0.111-0.26,0.166-0.461,0.166c-0.201,0-0.354-0.055-0.46-0.166
		C21.253,7.247,21.2,7.095,21.2,6.9C21.2,6.703,21.253,6.551,21.359,6.446z M16.954,6.263c0.264,0.124,0.545,0.222,0.841,0.293
		c0.299,0.071,0.576,0.107,0.833,0.107c0.375,0,0.652-0.071,0.829-0.214c0.18-0.143,0.27-0.334,0.27-0.575
		c0-0.217-0.082-0.4-0.246-0.551c-0.164-0.151-0.502-0.329-1.015-0.535c-0.529-0.214-0.901-0.459-1.118-0.734
		c-0.217-0.275-0.325-0.605-0.325-0.991c0-0.484,0.172-0.864,0.515-1.142c0.344-0.278,0.805-0.416,1.384-0.416
		c0.555,0,1.108,0.122,1.657,0.365l-0.301,0.773c-0.516-0.217-0.975-0.325-1.38-0.325c-0.307,0-0.539,0.067-0.698,0.202
		c-0.159,0.132-0.238,0.308-0.238,0.527c0,0.151,0.032,0.28,0.095,0.389c0.063,0.106,0.168,0.206,0.313,0.301
		s0.407,0.221,0.785,0.377c0.426,0.177,0.738,0.342,0.936,0.496c0.198,0.153,0.344,0.326,0.436,0.519
		c0.093,0.193,0.139,0.42,0.139,0.682l0,0c0,0.515-0.186,0.92-0.559,1.213c-0.373,0.293-0.887,0.44-1.542,0.44
		c-0.656,0-1.192-0.102-1.61-0.305V6.263z M11.244,1.588h0.952v3.668c0,0.478,0.111,0.831,0.333,1.059
		c0.222,0.227,0.563,0.341,1.023,0.341c0.893,0,1.34-0.469,1.34-1.408v-3.66h0.948h0v3.751c0,0.428-0.092,0.804-0.278,1.126
		c-0.182,0.32-0.448,0.567-0.797,0.742c-0.346,0.172-0.761,0.258-1.245,0.258c-0.719,0-1.278-0.19-1.677-0.571
		c-0.399-0.381-0.599-0.904-0.599-1.57V1.588z M5.935,1.588L5.935,1.588L5.935,1.588h1.721c0.798,0,1.375,0.116,1.729,0.349
		C9.741,2.17,9.92,2.537,9.92,3.039c0,0.338-0.087,0.62-0.262,0.845C9.484,4.108,9.232,4.25,8.905,4.308v0.04
		C9.312,4.424,9.61,4.576,9.801,4.804c0.193,0.225,0.289,0.53,0.289,0.916c0,0.521-0.182,0.929-0.547,1.225
		c-0.362,0.293-0.867,0.44-1.515,0.44H5.935V1.588z"/>
	<path fill="#3A3836" d="M21.82,7.524c0.201,0,0.354-0.055,0.461-0.166c0.109-0.114,0.163-0.266,0.163-0.458
		c0-0.189-0.053-0.338-0.159-0.446c-0.106-0.111-0.261-0.166-0.465-0.166c-0.201,0-0.354,0.053-0.46,0.158
		C21.253,6.551,21.2,6.703,21.2,6.9c0,0.195,0.053,0.347,0.159,0.458C21.465,7.469,21.619,7.524,21.82,7.524z"/>
	<path fill="#3A3836" d="M9.543,6.945C9.908,6.649,10.09,6.24,10.09,5.72c0-0.386-0.096-0.691-0.289-0.916
		C9.61,4.576,9.312,4.424,8.905,4.348v-0.04c0.328-0.058,0.579-0.2,0.753-0.424C9.832,3.659,9.92,3.378,9.92,3.039
		c0-0.502-0.178-0.87-0.535-1.102C9.03,1.704,8.454,1.588,7.656,1.588H5.935v5.797h2.094C8.676,7.385,9.181,7.238,9.543,6.945z
		 M6.883,2.381h0.821c0.428,0,0.74,0.061,0.936,0.182c0.198,0.122,0.297,0.319,0.297,0.591c0,0.301-0.091,0.516-0.274,0.642
		C8.48,3.921,8.191,3.983,7.794,3.983H6.883v0l0,0h0V2.381z M6.882,6.588V4.752h0.96c0.42,0,0.734,0.073,0.94,0.218
		s0.309,0.369,0.309,0.67c0,0.328-0.102,0.568-0.305,0.722c-0.201,0.151-0.5,0.226-0.896,0.226H6.882z"/>
	<polygon fill="#3A3836" points="6.883,3.983 6.883,3.983 6.882,3.983 	"/>
	<path fill="#3A3836" d="M13.52,7.464c0.484,0,0.899-0.086,1.245-0.258c0.349-0.174,0.615-0.422,0.797-0.742
		c0.185-0.323,0.278-0.698,0.278-1.126V1.588h0h-0.948v3.66c0,0.938-0.447,1.408-1.34,1.408c-0.46,0-0.801-0.114-1.023-0.341
		c-0.222-0.227-0.333-0.58-0.333-1.059V1.588h-0.952v3.735c0,0.666,0.2,1.19,0.599,1.57C12.242,7.274,12.801,7.464,13.52,7.464z"/>
	<path fill="#3A3836" d="M20.106,7.024c0.373-0.293,0.559-0.698,0.559-1.213l0,0c0-0.262-0.046-0.489-0.139-0.682
		c-0.092-0.193-0.238-0.366-0.436-0.519c-0.198-0.153-0.51-0.319-0.936-0.496c-0.378-0.156-0.64-0.281-0.785-0.377
		s-0.25-0.196-0.313-0.301c-0.063-0.108-0.095-0.238-0.095-0.389c0-0.219,0.079-0.395,0.238-0.527
		c0.159-0.135,0.391-0.202,0.698-0.202c0.404,0,0.864,0.108,1.38,0.325l0.301-0.773c-0.55-0.243-1.102-0.365-1.657-0.365
		c-0.579,0-1.04,0.139-1.384,0.416c-0.344,0.278-0.515,0.658-0.515,1.142c0,0.386,0.108,0.716,0.325,0.991
		c0.217,0.275,0.589,0.519,1.118,0.734c0.513,0.206,0.851,0.385,1.015,0.535c0.164,0.151,0.246,0.334,0.246,0.551
		c0,0.241-0.09,0.432-0.27,0.575c-0.177,0.143-0.453,0.214-0.829,0.214c-0.256,0-0.534-0.036-0.833-0.107
		c-0.296-0.071-0.576-0.169-0.841-0.293v0.896c0.418,0.203,0.954,0.305,1.61,0.305C19.219,7.464,19.733,7.318,20.106,7.024z"/>
	<path fill="#FFFFFF" stroke="#3A3836" stroke-linecap="round" stroke-linejoin="round" d="M26.5,13.564L21.625,10.5
		c0,0-1.625,1.839-4.062,1.839S13.5,10.5,13.5,10.5s-1.625,1.839-4.062,1.839C7,12.339,5.375,10.5,5.375,10.5L0.5,13.564
		c0.812,0.613,3.25,1.839,1.625,4.29s-2.438,6.129,0.812,8.581C7,29.5,11.875,27.048,13.5,29.5c1.625-2.452,6.5,0,10.563-3.065
		c3.25-2.452,2.438-6.129,0.812-8.581S25.688,14.177,26.5,13.564z"/>
</g>
</svg>
