<?xml version="1.0" encoding="UTF-8" standalone="no"?>
<svg
   xmlns:dc="http://purl.org/dc/elements/1.1/"
   xmlns:cc="http://creativecommons.org/ns#"
   xmlns:rdf="http://www.w3.org/1999/02/22-rdf-syntax-ns#"
   xmlns:svg="http://www.w3.org/2000/svg"
   xmlns="http://www.w3.org/2000/svg"
   viewBox="0 0 34 22"
   version="1.1"
   id="svg3844"
   height="22"
   width="34">
  <defs
     id="defs3846" />
  <metadata
     id="metadata3849">
    <rdf:RDF>
      <cc:Work
         rdf:about="">
        <dc:format>image/svg+xml</dc:format>
        <dc:type
           rdf:resource="http://purl.org/dc/dcmitype/StillImage" />
        <dc:title />
      </cc:Work>
    </rdf:RDF>
  </metadata>
  <g
     transform="translate(-299.00002,-896.36209)"
     id="layer1">
    <rect
       y="901.36218"
       x="299"
       height="17"
       width="21"
       id="rect3803"
       style="color:#3a3836;display:inline;overflow:visible;visibility:visible;opacity:0;fill:#3a3836;fill-opacity:1;fill-rule:nonzero;stroke:none;stroke-width:1;marker:none;enable-background:accumulate" />
    <path
       id="path3799-7"
       d="m 306.375,898.86208 -6.87501,3.06452 c 0.6875,0.61291 2.75,1.83872 1.37499,4.29034 -1.37499,2.45163 -2.06251,6.12906 0.68751,8.58068 3.4375,3.06453 13.06253,0.61291 14.43753,3.06453 1.37501,-2.45162 11.00003,0 14.43754,-3.06453 2.75,-2.45162 2.06249,-6.12905 0.6875,-8.58068 -1.37501,-2.45162 0.68749,-3.67743 1.37499,-4.29034 l -6.87501,-3.06452 c 0,0 -2.0625,1.83871 -4.8125,1.83871 -2.75001,0 -4.81252,-1.83871 -4.81252,-1.83871 0,0 -2.0625,1.83871 -4.81251,1.83871 -2.75,0 -4.81251,-1.83871 -4.81251,-1.83871 z"
       clip-path="none"
       style="color:#3a3836;display:inline;overflow:visible;visibility:visible;opacity:1;fill:#ffffff;fill-opacity:1;fill-rule:evenodd;stroke:#3a3836;stroke-width:0.99999994;stroke-linecap:round;stroke-linejoin:round;marker:none;enable-background:accumulate" />
  </g>
</svg>
