<?xml version="1.0" encoding="UTF-8" standalone="no"?>
<!-- Generator: Adobe Illustrator 17.1.0, SVG Export Plug-In . SVG Version: 6.00 Build 0)  -->

<svg
   xmlns:dc="http://purl.org/dc/elements/1.1/"
   xmlns:cc="http://creativecommons.org/ns#"
   xmlns:rdf="http://www.w3.org/1999/02/22-rdf-syntax-ns#"
   xmlns:svg="http://www.w3.org/2000/svg"
   xmlns="http://www.w3.org/2000/svg"
   xmlns:sodipodi="http://sodipodi.sourceforge.net/DTD/sodipodi-0.dtd"
   xmlns:inkscape="http://www.inkscape.org/namespaces/inkscape"
   version="1.1"
   id="svg4619"
   sodipodi:docname="america-football-17.svg"
   inkscape:version="0.91 r13725"
   x="0px"
   y="0px"
   viewBox="0 0 17 17"
   enable-background="new 0 0 17 17"
   xml:space="preserve"><metadata
     id="metadata9"><rdf:RDF><cc:Work
         rdf:about=""><dc:format>image/svg+xml</dc:format><dc:type
           rdf:resource="http://purl.org/dc/dcmitype/StillImage" /><dc:title></dc:title></cc:Work></rdf:RDF></metadata><defs
     id="defs7" /><sodipodi:namedview
     id="namedview3381"
     inkscape:current-layer="svg4619"
     inkscape:window-height="443"
     inkscape:pageopacity="0"
     inkscape:window-width="792"
     inkscape:window-y="169"
     inkscape:pageshadow="2"
     inkscape:document-units="px"
     inkscape:snap-bbox="true"
     inkscape:window-maximized="0"
     inkscape:bbox-nodes="true"
     inkscape:object-paths="true"
     inkscape:bbox-paths="true"
     inkscape:window-x="382"
     inkscape:cx="9.0664536"
     borderopacity="1"
     objecttolerance="10"
     bordercolor="#666666"
     gridtolerance="10"
     showgrid="false"
     inkscape:cy="8.9675347"
     inkscape:zoom="1"
     guidetolerance="10"
     pagecolor="#ffffff"
     inkscape:snap-intersection-paths="true"><inkscape:grid
       type="xygrid"
       id="grid3383"
       spacingx="0.5"
       spacingy="0.5"
       color="#b90011"
       opacity="0.1254902"
       empspacing="2" /></sodipodi:namedview><path
       style="fill:#000000;fill-opacity:1"
     d="M8.5,3C2.5,3,0,8.5,0,8.5S2.5,14,8.5,14S17,8.5,17,8.5S14.5,3,8.5,3z M13,9h-1v0.5c0,0.3-0.2,0.5-0.5,0.5S11,9.8,11,9.5V9H9  v0.5C9,9.8,8.8,10,8.5,10S8,9.8,8,9.5V9H6v0.5C6,9.8,5.8,10,5.5,10S5,9.8,5,9.5V9H4C3.7,9,3.5,8.8,3.5,8.5S3.7,8,4,8h1V7.5  C5,7.2,5.2,7,5.5,7S6,7.2,6,7.5V8h2V7.5C8,7.2,8.2,7,8.5,7S9,7.2,9,7.5V8h2V7.5C11,7.2,11.2,7,11.5,7S12,7.2,12,7.5V8h1  c0.3,0,0.5,0.2,0.5,0.5S13.3,9,13,9z"
     id="path5" /></svg>