<?xml version="1.0" encoding="UTF-8" standalone="no"?>
<!-- Generator: Adobe Illustrator 17.1.0, SVG Export Plug-In . SVG Version: 6.00 Build 0)  -->

<svg
   xmlns:dc="http://purl.org/dc/elements/1.1/"
   xmlns:cc="http://creativecommons.org/ns#"
   xmlns:rdf="http://www.w3.org/1999/02/22-rdf-syntax-ns#"
   xmlns:svg="http://www.w3.org/2000/svg"
   xmlns="http://www.w3.org/2000/svg"
   xmlns:sodipodi="http://sodipodi.sourceforge.net/DTD/sodipodi-0.dtd"
   xmlns:inkscape="http://www.inkscape.org/namespaces/inkscape"
   version="1.1"
   id="svg4764"
   sodipodi:docname="america-football-11.svg"
   inkscape:version="0.91 r13725"
   x="0px"
   y="0px"
   viewBox="0 0 11 11"
   enable-background="new 0 0 11 11"
   xml:space="preserve"><metadata
     id="metadata9"><rdf:RDF><cc:Work
         rdf:about=""><dc:format>image/svg+xml</dc:format><dc:type
           rdf:resource="http://purl.org/dc/dcmitype/StillImage" /><dc:title></dc:title></cc:Work></rdf:RDF></metadata><defs
     id="defs7" /><sodipodi:namedview
     id="namedview3375"
     inkscape:current-layer="svg4764"
     inkscape:window-height="438"
     inkscape:pageopacity="0"
     inkscape:window-width="448"
     inkscape:window-y="202"
     inkscape:pageshadow="2"
     inkscape:document-units="px"
     inkscape:window-maximized="0"
     inkscape:window-x="728"
     inkscape:cx="-0.32627118"
     borderopacity="1"
     objecttolerance="10"
     bordercolor="#666666"
     gridtolerance="10"
     showgrid="false"
     inkscape:cy="5.4999999"
     inkscape:zoom="1"
     guidetolerance="10"
     pagecolor="#ffffff"><inkscape:grid
       type="xygrid"
       id="grid3385"
       spacingx="0.5"
       spacingy="0.5"
       color="#fb001a"
       opacity="0.1254902"
       empspacing="2" /></sodipodi:namedview><path
       style="fill:#000000;fill-opacity:1"
     d="M5.5,2C1.5,2,0,5.5,0,5.5S1.5,9,5.5,9S11,5.5,11,5.5S9.5,2,5.5,2z M8,6H7v0.5C7,6.8,6.8,7,6.5,7S6,6.8,6,6.5V6H5v0.5  C5,6.8,4.8,7,4.5,7S4,6.8,4,6.5V6H3C2.7,6,2.5,5.8,2.5,5.5S2.7,5,3,5h1V4.5C4,4.2,4.2,4,4.5,4S5,4.2,5,4.5V5h1V4.5  C6,4.2,6.2,4,6.5,4S7,4.2,7,4.5V5h1c0.3,0,0.5,0.2,0.5,0.5S8.3,6,8,6z"
     id="path5" /></svg>
