<?xml version="1.0" encoding="UTF-8" standalone="no"?>
<!-- Generator: Adobe Illustrator 17.1.0, SVG Export Plug-In . SVG Version: 6.00 Build 0)  -->

<svg
   xmlns:dc="http://purl.org/dc/elements/1.1/"
   xmlns:cc="http://creativecommons.org/ns#"
   xmlns:rdf="http://www.w3.org/1999/02/22-rdf-syntax-ns#"
   xmlns:svg="http://www.w3.org/2000/svg"
   xmlns="http://www.w3.org/2000/svg"
   xmlns:sodipodi="http://sodipodi.sourceforge.net/DTD/sodipodi-0.dtd"
   xmlns:inkscape="http://www.inkscape.org/namespaces/inkscape"
   version="1.1"
   id="svg4619"
   inkscape:version="0.91 r13725"
   sodipodi:docname="baseball-17.svg"
   x="0px"
   y="0px"
   viewBox="0 0 17 17"
   enable-background="new 0 0 17 17"
   xml:space="preserve"><metadata
     id="metadata10"><rdf:RDF><cc:Work
         rdf:about=""><dc:format>image/svg+xml</dc:format><dc:type
           rdf:resource="http://purl.org/dc/dcmitype/StillImage" /><dc:title></dc:title></cc:Work></rdf:RDF></metadata><defs
     id="defs8" /><sodipodi:namedview
     inkscape:object-nodes="true"
     inkscape:snap-bbox="true"
     inkscape:snap-smooth-nodes="true"
     inkscape:window-x="0"
     inkscape:window-y="0"
     inkscape:window-width="907"
     inkscape:object-paths="true"
     inkscape:pageopacity="0"
     inkscape:window-height="761"
     inkscape:current-layer="svg4619"
     inkscape:window-maximized="0"
     inkscape:document-units="px"
     inkscape:pageshadow="2"
     id="namedview3340"
     gridtolerance="10"
     borderopacity="1"
     bordercolor="#666666"
     inkscape:cx="8.092042"
     guidetolerance="10"
     showgrid="false"
     pagecolor="#ffffff"
     inkscape:cy="10.148754"
     objecttolerance="10"
     inkscape:zoom="33.878788"
     inkscape:snap-intersection-paths="true"><inkscape:grid
       type="xygrid"
       id="grid3342"
       spacingx="0.5"
       spacingy="0.5"
       color="#b90023"
       opacity="0.1254902"
       empspacing="2" /></sodipodi:namedview><path
       style="fill:#000000;fill-opacity:1"
     d="M 2.5 0 C 2.5 0 1.7 0.3 1 1 C 0.3 1.7 0 2.5 0 2.5 C 3.3 7.1 9.3 10.600781 10.5 11.800781 L 13.935547 14.941406 L 13.287109 15.591797 C 12.993307 15.8856 12.993307 16.358541 13.287109 16.652344 C 13.580912 16.946147 14.053853 16.946147 14.347656 16.652344 L 16.46875 14.53125 C 16.762553 14.237447 16.762553 13.762553 16.46875 13.46875 C 16.174947 13.174947 15.702006 13.174947 15.408203 13.46875 L 14.941406 13.935547 L 11.800781 10.5 C 8.6961095 7.1042654 7.1 3.3 2.5 0 z M 4 11 C 2.9 11 2 11.9 2 13 C 2 14.1 2.9 15 4 15 C 5.1 15 6 14.1 6 13 C 6 11.9 5.1 11 4 11 z "
     id="path20837" /></svg>
