<?xml version="1.0" encoding="UTF-8" standalone="no"?>
<!-- Generator: Adobe Illustrator 17.1.0, SVG Export Plug-In . SVG Version: 6.00 Build 0)  -->

<svg
   xmlns:dc="http://purl.org/dc/elements/1.1/"
   xmlns:cc="http://creativecommons.org/ns#"
   xmlns:rdf="http://www.w3.org/1999/02/22-rdf-syntax-ns#"
   xmlns:svg="http://www.w3.org/2000/svg"
   xmlns="http://www.w3.org/2000/svg"
   xmlns:sodipodi="http://sodipodi.sourceforge.net/DTD/sodipodi-0.dtd"
   xmlns:inkscape="http://www.inkscape.org/namespaces/inkscape"
   version="1.1"
   id="svg4764"
   inkscape:version="0.91+devel+osxmenu r12911"
   sodipodi:docname="basketball-11.svg"
   x="0px"
   y="0px"
   width="17px"
   height="17px"
   viewBox="0 0 15 15"
   enable-background="new 0 0 15 15"
   xml:space="preserve"><metadata
     id="metadata12"><rdf:RDF><cc:Work
         rdf:about=""><dc:format>image/svg+xml</dc:format><dc:type
           rdf:resource="http://purl.org/dc/dcmitype/StillImage" /><dc:title /></cc:Work></rdf:RDF></metadata><defs
     id="defs10" /><sodipodi:namedview
     inkscape:window-width="960"
     inkscape:pageopacity="0"
     inkscape:window-height="763"
     inkscape:current-layer="svg4764"
     inkscape:document-units="px"
     inkscape:pageshadow="2"
     id="namedview3400"
     gridtolerance="10"
     borderopacity="1"
     bordercolor="#666666"
     inkscape:cx="13.970016"
     guidetolerance="10"
     showgrid="false"
     pagecolor="#ffffff"
     inkscape:cy="9.3333574"
     objecttolerance="10"
     inkscape:zoom="30.341309"
     inkscape:snap-bbox="true"
     inkscape:bbox-paths="true"
     inkscape:bbox-nodes="true"
     inkscape:snap-bbox-edge-midpoints="true"
     inkscape:snap-bbox-midpoints="true"
     inkscape:object-paths="true"
     inkscape:snap-intersection-paths="true"
     inkscape:object-nodes="true"
     inkscape:snap-smooth-nodes="true"
     inkscape:window-x="0"
     inkscape:window-y="0"
     inkscape:window-maximized="0"><inkscape:grid
       type="xygrid"
       id="grid3340"
       spacingx="0.5"
       spacingy="0.5"
       color="#e5002c"
       opacity="0.1254902"
       empspacing="2" /></sodipodi:namedview><path
     d="M 4.5 0 L 0 4.5996094 L 0 11 L 1.5 12.5 L 3 12.5 L 6.1992188 17 L 10.800781 17 L 13.833984 12.5 L 15.5 12.5 L 17 11 L 17 4.5996094 L 12.5 0 L 4.5 0 z M 4 3 L 13 3 L 13 9 L 4 9 L 4 3 z M 5 4 L 5 8 L 12 8 L 12 4 L 5 4 z M 5.5 12.5 L 8 12.5 L 8 13.5 L 6 13.5 L 5.5 12.5 z M 9 12.5 L 11.5 12.5 L 11 13.5 L 9 13.5 L 9 12.5 z M 7.5 14.5 L 9.5 14.5 L 9 16 L 8 16 L 7.5 14.5 z "
     id="polygon4" /></svg>
