<?xml version="1.0" encoding="UTF-8" standalone="no"?>
<!-- Generator: Adobe Illustrator 17.1.0, SVG Export Plug-In . SVG Version: 6.00 Build 0)  -->

<svg
   xmlns:dc="http://purl.org/dc/elements/1.1/"
   xmlns:cc="http://creativecommons.org/ns#"
   xmlns:rdf="http://www.w3.org/1999/02/22-rdf-syntax-ns#"
   xmlns:svg="http://www.w3.org/2000/svg"
   xmlns="http://www.w3.org/2000/svg"
   xmlns:sodipodi="http://sodipodi.sourceforge.net/DTD/sodipodi-0.dtd"
   xmlns:inkscape="http://www.inkscape.org/namespaces/inkscape"
   version="1.1"
   id="svg4764"
   inkscape:version="0.91+devel+osxmenu r12911"
   sodipodi:docname="basketball-11.svg"
   x="0px"
   y="0px"
   width="11"
   height="11"
   viewBox="0 0 9.7058821 9.7058821"
   enable-background="new 0 0 15 15"
   xml:space="preserve"><metadata
     id="metadata12"><rdf:RDF><cc:Work
         rdf:about=""><dc:format>image/svg+xml</dc:format><dc:type
           rdf:resource="http://purl.org/dc/dcmitype/StillImage" /><dc:title></dc:title></cc:Work></rdf:RDF></metadata><defs
     id="defs10" /><sodipodi:namedview
     inkscape:window-width="960"
     inkscape:pageopacity="0"
     inkscape:window-height="763"
     inkscape:current-layer="svg4764"
     inkscape:document-units="px"
     inkscape:pageshadow="2"
     id="namedview3400"
     gridtolerance="10"
     borderopacity="1"
     bordercolor="#666666"
     inkscape:cx="2.9235496"
     guidetolerance="10"
     showgrid="false"
     pagecolor="#ffffff"
     inkscape:cy="6.5845581"
     objecttolerance="10"
     inkscape:zoom="30.341309"
     inkscape:snap-bbox="true"
     inkscape:bbox-paths="true"
     inkscape:bbox-nodes="true"
     inkscape:snap-bbox-edge-midpoints="true"
     inkscape:snap-bbox-midpoints="true"
     inkscape:object-paths="true"
     inkscape:snap-intersection-paths="true"
     inkscape:object-nodes="true"
     inkscape:snap-smooth-nodes="true"
     inkscape:window-x="0"
     inkscape:window-y="0"
     inkscape:window-maximized="0"><inkscape:grid
       type="xygrid"
       id="grid3340"
       spacingx="0.5"
       spacingy="0.5"
       color="#e5002c"
       opacity="0.1254902"
       empspacing="2" /></sodipodi:namedview><path
     d="M 2.5692042,-0.00692054 0,2.619154 l 0,3.6542025 0.85640138,0.8564014 0.85640142,0 1.8265436,2.5692034 2.6271895,0 1.7317595,-2.5692034 0.9511856,0 0.8564011,-0.8564014 0,-3.6542025 -2.5692039,-2.62607454 -4.567474,0 z M 2.283737,1.7058823 l 5.1384083,0 0,3.4256055 -5.1384083,0 0,-3.4256055 z m 0.5709342,0.5709342 0,2.2837374 3.9965399,0 0,-2.2837374 -3.9965399,0 z m 0.2854672,4.8529414 1.4273357,0 0,0.5709335 -1.1418686,0 -0.2854671,-0.5709335 z m 1.9982699,0 1.4273357,0 -0.2854671,0.5709335 -1.1418686,0 0,-0.5709335 z m -0.8564013,1.1418685 1.1418684,0 -0.2854671,0.8564009 -0.5709342,0 L 4.282007,8.2716264 Z"
     id="polygon4"
     inkscape:connector-curvature="0"
     style="stroke-width:1" /></svg>
