<?xml version="1.0" encoding="UTF-8" standalone="no"?>
<!-- Generator: Adobe Illustrator 17.1.0, SVG Export Plug-In . SVG Version: 6.00 Build 0)  -->

<svg
   xmlns:dc="http://purl.org/dc/elements/1.1/"
   xmlns:cc="http://creativecommons.org/ns#"
   xmlns:rdf="http://www.w3.org/1999/02/22-rdf-syntax-ns#"
   xmlns:svg="http://www.w3.org/2000/svg"
   xmlns="http://www.w3.org/2000/svg"
   xmlns:sodipodi="http://sodipodi.sourceforge.net/DTD/sodipodi-0.dtd"
   xmlns:inkscape="http://www.inkscape.org/namespaces/inkscape"
   version="1.1"
   id="svg4619"
   inkscape:version="0.91+devel+osxmenu r12911"
   sodipodi:docname="basketball-15.svg"
   x="0px"
   y="0px"
   viewBox="0 0 15 15"
   enable-background="new 0 0 15 15"
   xml:space="preserve"><metadata
     id="metadata13"><rdf:RDF><cc:Work
         rdf:about=""><dc:format>image/svg+xml</dc:format><dc:type
           rdf:resource="http://purl.org/dc/dcmitype/StillImage" /><dc:title></dc:title></cc:Work></rdf:RDF></metadata><defs
     id="defs11" /><sodipodi:namedview
     inkscape:window-width="640"
     inkscape:pageopacity="0"
     inkscape:window-height="480"
     inkscape:current-layer="svg4619"
     inkscape:document-units="px"
     inkscape:pageshadow="2"
     id="namedview3406"
     gridtolerance="10"
     borderopacity="1"
     bordercolor="#666666"
     inkscape:cx="6.9661795"
     guidetolerance="10"
     showgrid="true"
     pagecolor="#ffffff"
     inkscape:cy="-0.33214511"
     objecttolerance="10"
     inkscape:zoom="11.313708"
     inkscape:window-x="692"
     inkscape:window-y="90"
     inkscape:window-maximized="0"><inkscape:grid
       type="xygrid"
       id="grid3448" /></sodipodi:namedview><path
     inkscape:connector-curvature="0"
     style="fill:#000000"
     id="rect7"
     d="m 3,1 -3,3 0,6 c 0,0 0,1 1,1 l 2,0 2,4 5,0 2,-4 2,0 c 1,0 1,-1 1,-1 L 15,4 12,1 Z m 1,3 1,0 5,0 1,0 0,1 0,3 0,1 L 10,9 5,9 4,9 4,8 4,5 Z m 1,1 0,3 5,0 0,-3 z m -0.5,6 1.5,0 0,1 -1,0 z m 2.5,0 1,0 0,1 -1,0 z m 2,0 1.5,0 -0.5,1 -1,0 z M 5.5,13 7,13 7,14 6,14 Z M 8,13 9.5,13 9,14 8,14 Z"
     sodipodi:nodetypes="cccccccccccccccccccccccccccccccccccccccccccccccccccccccc" /></svg>
