<?xml version="1.0" encoding="UTF-8" standalone="no"?>
<!-- Generator: Adobe Illustrator 17.1.0, SVG Export Plug-In . SVG Version: 6.00 Build 0)  -->

<svg
   xmlns:dc="http://purl.org/dc/elements/1.1/"
   xmlns:cc="http://creativecommons.org/ns#"
   xmlns:rdf="http://www.w3.org/1999/02/22-rdf-syntax-ns#"
   xmlns:svg="http://www.w3.org/2000/svg"
   xmlns="http://www.w3.org/2000/svg"
   xmlns:sodipodi="http://sodipodi.sourceforge.net/DTD/sodipodi-0.dtd"
   xmlns:inkscape="http://www.inkscape.org/namespaces/inkscape"
   version="1.1"
   id="svg4619"
   inkscape:version="0.91 r13725"
   sodipodi:docname="basketball-17.svg"
   x="0px"
   y="0px"
   viewBox="0 0 17 17"
   enable-background="new 0 0 17 17"
   xml:space="preserve"><metadata
     id="metadata13"><rdf:RDF><cc:Work
         rdf:about=""><dc:format>image/svg+xml</dc:format><dc:type
           rdf:resource="http://purl.org/dc/dcmitype/StillImage" /></cc:Work></rdf:RDF></metadata><defs
     id="defs11" /><sodipodi:namedview
     inkscape:window-width="640"
     inkscape:pageopacity="0"
     inkscape:window-height="480"
     inkscape:current-layer="svg4619"
     inkscape:document-units="px"
     inkscape:pageshadow="2"
     id="namedview3406"
     gridtolerance="10"
     borderopacity="1"
     bordercolor="#666666"
     inkscape:cx="8.5"
     guidetolerance="10"
     showgrid="false"
     pagecolor="#ffffff"
     inkscape:cy="8.5"
     objecttolerance="10"
     inkscape:zoom="1"
     inkscape:window-x="692"
     inkscape:window-y="90"
     inkscape:window-maximized="0"><inkscape:grid
       type="xygrid"
       id="grid3448" /></sodipodi:namedview><g
     id="g5"><rect
       x="6"
       y="6"
       width="5"
       height="3"
       id="rect7" /><path
       d="M13,2H4L1,5v6c0,0,0,1,1,1c0.2,0,1,0,2,0l2,4h5l2-4c1,0,1.8,0,2,0c1,0,1-1,1-1V5L13,2z M5,9V6V5h1h5h1v1v3v1h-1H6H5V9z    M5.5,12c0.5,0,1,0,1.5,0v1H6L5.5,12z M8,15H7l-0.5-1H8V15z M8,12c0.3,0,0.7,0,1,0v1H8V12z M10,15H9v-1h1.5L10,15z M11,13h-1v-1   c0.5,0,1,0,1.5,0L11,13z"
       id="path9" /></g></svg>