<?xml version="1.0" encoding="UTF-8" standalone="no"?>
<!-- Created with Inkscape (http://www.inkscape.org/) -->

<svg
   xmlns:dc="http://purl.org/dc/elements/1.1/"
   xmlns:cc="http://creativecommons.org/ns#"
   xmlns:rdf="http://www.w3.org/1999/02/22-rdf-syntax-ns#"
   xmlns:svg="http://www.w3.org/2000/svg"
   xmlns="http://www.w3.org/2000/svg"
   xmlns:sodipodi="http://sodipodi.sourceforge.net/DTD/sodipodi-0.dtd"
   xmlns:inkscape="http://www.inkscape.org/namespaces/inkscape"
   version="1.1"
   width="17"
   height="17"
   id="svg4619"
   inkscape:version="0.91+devel+osxmenu r12911"
   sodipodi:docname="golf-17.svg"
   viewBox="0 0 15 15">
  <sodipodi:namedview
     pagecolor="#000000"
     bordercolor="#666666"
     borderopacity="1"
     objecttolerance="10"
     gridtolerance="10"
     guidetolerance="10"
     inkscape:pageopacity="0"
     inkscape:pageshadow="2"
     inkscape:window-width="640"
     inkscape:window-height="480"
     id="namedview3430"
     inkscape:document-units="px"
     showgrid="false"
     inkscape:zoom="35.941176"
     inkscape:cx="5.0220949"
     inkscape:cy="8.2495908"
     inkscape:current-layer="svg4619" />
  <defs
     id="defs4621" />
  <metadata
     id="metadata4624">
    <rdf:RDF>
      <cc:Work
         rdf:about="">
        <dc:format>image/svg+xml</dc:format>
        <dc:type
           rdf:resource="http://purl.org/dc/dcmitype/StillImage" />
        <dc:title />
      </cc:Work>
    </rdf:RDF>
  </metadata>
  <path style="fill:#000000;fill-opacity:1"
     d="M 5.7307654,0 C 5.3892877,0 5.2307692,0 5.2307692,0.4999308 l 0,13.4375842 C 3.2307584,13.998977 2.6153846,15.346162 2.6153846,16.346154 2.6153846,16.846085 3.2692308,17 3.2692308,17 l 10.4615382,0 c 0,0 0.653846,-0.153915 0.653846,-0.653846 0,-2.500046 -1.115383,-4.576923 -2.615384,-4.576923 -1.57233,0 -1.9815595,3.010961 -3.5384718,3.230784 -0.6827069,0.09677 -1.3423854,-0.345361 -1.9999977,-0.687453 l 0,-8.3126082 L 13.230773,2.9999769 6.7323923,0.2149846 C 6.3559469,0.0536154 5.9808877,0 5.7307654,0 Z"
     inkscape:connector-curvature="0"
     id="rect8138-7-4"
      />
</svg>
