<?xml version="1.0" encoding="UTF-8" standalone="no"?>
<!-- Generator: Adobe Illustrator 17.1.0, SVG Export Plug-In . SVG Version: 6.00 Build 0)  -->

<svg
   xmlns:dc="http://purl.org/dc/elements/1.1/"
   xmlns:cc="http://creativecommons.org/ns#"
   xmlns:rdf="http://www.w3.org/1999/02/22-rdf-syntax-ns#"
   xmlns:svg="http://www.w3.org/2000/svg"
   xmlns="http://www.w3.org/2000/svg"
   xmlns:sodipodi="http://sodipodi.sourceforge.net/DTD/sodipodi-0.dtd"
   xmlns:inkscape="http://www.inkscape.org/namespaces/inkscape"
   version="1.1"
   id="svg4619"
   x="0px"
   y="0px"
   viewBox="0 0 15 15"
   enable-background="new 0 0 15 15"
   xml:space="preserve"
   inkscape:version="0.91+devel+osxmenu r12911"
   sodipodi:docname="park-15.svg"><metadata
     id="metadata9571"><rdf:RDF><cc:Work
         rdf:about=""><dc:format>image/svg+xml</dc:format><dc:type
           rdf:resource="http://purl.org/dc/dcmitype/StillImage" /><dc:title></dc:title></cc:Work></rdf:RDF></metadata><defs
     id="defs9569" /><sodipodi:namedview
     pagecolor="#ffffff"
     bordercolor="#666666"
     borderopacity="1"
     objecttolerance="10"
     gridtolerance="10"
     guidetolerance="10"
     inkscape:pageopacity="0"
     inkscape:pageshadow="2"
     inkscape:window-width="640"
     inkscape:window-height="480"
     id="namedview9567"
     showgrid="false"
     inkscape:snap-bbox="true"
     inkscape:bbox-paths="true"
     inkscape:bbox-nodes="true"
     inkscape:snap-bbox-edge-midpoints="true"
     inkscape:object-paths="true"
     inkscape:object-nodes="true"
     inkscape:snap-smooth-nodes="true"
     inkscape:zoom="32"
     inkscape:cx="11.779328"
     inkscape:cy="9.4773741"
     inkscape:current-layer="svg4619"><inkscape:grid
       type="xygrid"
       id="grid10171"
       spacingx="0.5"
       spacingy="0.5"
       color="#ff3f3f"
       opacity="0.1254902"
       empspacing="2" /></sodipodi:namedview><path
     style="color:#000000;font-style:normal;font-variant:normal;font-weight:normal;font-stretch:normal;font-size:medium;line-height:normal;font-family:sans-serif;text-indent:0;text-align:start;text-decoration:none;text-decoration-line:none;text-decoration-style:solid;text-decoration-color:#000000;letter-spacing:normal;word-spacing:normal;text-transform:none;direction:ltr;block-progression:tb;writing-mode:lr-tb;baseline-shift:baseline;text-anchor:start;white-space:normal;shape-padding:0;clip-rule:nonzero;display:inline;overflow:visible;visibility:visible;opacity:1;isolation:auto;mix-blend-mode:normal;color-interpolation:sRGB;color-interpolation-filters:linearRGB;solid-color:#000000;solid-opacity:1;fill:#000000;fill-opacity:1;fill-rule:nonzero;stroke:none;stroke-width:1;stroke-linecap:round;stroke-linejoin:round;stroke-miterlimit:4;stroke-dasharray:none;stroke-dashoffset:0;stroke-opacity:1;color-rendering:auto;image-rendering:auto;shape-rendering:auto;text-rendering:auto;enable-background:accumulate"
     d="M 7.4785156,0 A 0.50005,0.50005 0 0 0 7.234375,0.07617187 l -4,2.50000003 A 0.50005,0.50005 0 0 0 3.222656,3.4160156 c 0,0 0.8948713,0.4617623 1.9804688,0.7773438 L 1.2421875,6.5703125 a 0.50005,0.50005 0 0 0 0.072266,0.8945313 c 0,0 1.6426444,0.5146745 3.5429688,0.796875 L 1.2773438,10.052734 a 0.50005,0.50005 0 0 0 0.037109,0.91211 c 0,0 2.257829,0.837732 4.6855469,0.96289 L 6,14.5 A 0.50005,0.50005 0 0 0 6.5,15 l 2,0 A 0.50005,0.50005 0 0 0 9,14.5 l 0,-2.572266 c 2.427718,-0.125158 4.685547,-0.96289 4.685547,-0.96289 a 0.50005,0.50005 0 0 0 0.03711,-0.91211 L 10.142578,8.2617188 c 1.900325,-0.2822005 3.542969,-0.796875 3.542969,-0.796875 a 0.50005,0.50005 0 0 0 0.07226,-0.8945313 L 9.796875,4.1933594 c 1.085598,-0.3155815 1.980469,-0.7773438 1.980469,-0.7773438 a 0.50005,0.50005 0 0 0 -0.01172,-0.8398437 l -4,-2.50000003 A 0.50005,0.50005 0 0 0 7.4785156,0 Z"
     id="path10181" /></svg>
