<?xml version="1.0" encoding="UTF-8" standalone="no"?>
<!-- Generator: Adobe Illustrator 17.1.0, SVG Export Plug-In . SVG Version: 6.00 Build 0)  -->

<svg
   xmlns:dc="http://purl.org/dc/elements/1.1/"
   xmlns:cc="http://creativecommons.org/ns#"
   xmlns:rdf="http://www.w3.org/1999/02/22-rdf-syntax-ns#"
   xmlns:svg="http://www.w3.org/2000/svg"
   xmlns="http://www.w3.org/2000/svg"
   xmlns:sodipodi="http://sodipodi.sourceforge.net/DTD/sodipodi-0.dtd"
   xmlns:inkscape="http://www.inkscape.org/namespaces/inkscape"
   version="1.1"
   id="svg4764"
   x="0px"
   y="0px"
   viewBox="0 0 11 11"
   enable-background="new 0 0 11 11"
   xml:space="preserve"
   inkscape:version="0.91+devel+osxmenu r12911"
   sodipodi:docname="park-11.svg"><metadata
     id="metadata9020"><rdf:RDF><cc:Work
         rdf:about=""><dc:format>image/svg+xml</dc:format><dc:type
           rdf:resource="http://purl.org/dc/dcmitype/StillImage" /><dc:title></dc:title></cc:Work></rdf:RDF></metadata><defs
     id="defs9018" /><sodipodi:namedview
     pagecolor="#ffffff"
     bordercolor="#666666"
     borderopacity="1"
     objecttolerance="10"
     gridtolerance="10"
     guidetolerance="10"
     inkscape:pageopacity="0"
     inkscape:pageshadow="2"
     inkscape:window-width="640"
     inkscape:window-height="480"
     id="namedview9016"
     showgrid="true"
     inkscape:snap-bbox="true"
     inkscape:bbox-paths="true"
     inkscape:bbox-nodes="true"
     inkscape:object-paths="true"
     inkscape:snap-bbox-edge-midpoints="true"
     inkscape:snap-smooth-nodes="true"
     inkscape:object-nodes="true"
     inkscape:zoom="16"
     inkscape:cx="16.238823"
     inkscape:cy="2.3178335"
     inkscape:current-layer="svg4764"
     showguides="true"
     inkscape:guide-bbox="true"><inkscape:grid
       type="xygrid"
       id="grid10116"
       spacingx="0.25"
       spacingy="0.25"
       color="#ff3f3f"
       opacity="0.1254902"
       empspacing="4" /></sodipodi:namedview><path
     style="color:#000000;font-style:normal;font-variant:normal;font-weight:normal;font-stretch:normal;font-size:medium;line-height:normal;font-family:sans-serif;text-indent:0;text-align:start;text-decoration:none;text-decoration-line:none;text-decoration-style:solid;text-decoration-color:#000000;letter-spacing:normal;word-spacing:normal;text-transform:none;direction:ltr;block-progression:tb;writing-mode:lr-tb;baseline-shift:baseline;text-anchor:start;white-space:normal;shape-padding:0;clip-rule:nonzero;display:inline;overflow:visible;visibility:visible;opacity:1;isolation:auto;mix-blend-mode:normal;color-interpolation:sRGB;color-interpolation-filters:linearRGB;solid-color:#000000;solid-opacity:1;fill:#000000;fill-opacity:1;fill-rule:nonzero;stroke:none;stroke-width:1;stroke-linecap:round;stroke-linejoin:round;stroke-miterlimit:4;stroke-dasharray:none;stroke-dashoffset:0;stroke-opacity:1;color-rendering:auto;image-rendering:auto;shape-rendering:auto;text-rendering:auto;enable-background:accumulate"
     d="M 5.4941406,0 A 0.50005,0.50005 0 0 0 5.2226562,0.08398437 l -3,2.00000003 A 0.50005,0.50005 0 0 0 2.3554688,2.9785156 L 3.8164062,3.4179688 1.2304688,5.0800781 A 0.50005,0.50005 0 0 0 1.3632812,5.9804688 L 3.7226562,6.6542969 1.2519531,8.0664062 A 0.50005,0.50005 0 0 0 1.390625,8.9882812 L 4.5,9.6777344 4.5,10.5 A 0.50005,0.50005 0 0 0 5,11 l 1,0 A 0.50005,0.50005 0 0 0 6.5,10.5 L 6.5,9.6777344 9.609375,8.9882812 A 0.50005,0.50005 0 0 0 9.7480469,8.0664062 L 7.2773438,6.6542969 9.6367188,5.9804688 A 0.50005,0.50005 0 0 0 9.7695312,5.0800781 L 7.1835938,3.4179688 8.6445312,2.9785156 A 0.50005,0.50005 0 0 0 8.7773438,2.0839844 l -3,-2.00000003 A 0.50005,0.50005 0 0 0 5.4941406,0 Z"
     id="path10189" /></svg>