<?xml version="1.0" encoding="utf-8"?>
<!-- Generator: Adobe Illustrator 17.1.0, SVG Export Plug-In . SVG Version: 6.00 Build 0)  -->
<!DOCTYPE svg PUBLIC "-//W3C//DTD SVG 1.1//EN" "http://www.w3.org/Graphics/SVG/1.1/DTD/svg11.dtd">
<svg version="1.1"
	 id="svg4619" sodipodi:docname="zoo-17.svg" inkscape:version="0.91+devel+osxmenu r12911" xmlns:cc="http://creativecommons.org/ns#" xmlns:svg="http://www.w3.org/2000/svg" xmlns:inkscape="http://www.inkscape.org/namespaces/inkscape" xmlns:rdf="http://www.w3.org/1999/02/22-rdf-syntax-ns#" xmlns:dc="http://purl.org/dc/elements/1.1/" xmlns:sodipodi="http://sodipodi.sourceforge.net/DTD/sodipodi-0.dtd"
	 xmlns="http://www.w3.org/2000/svg" xmlns:xlink="http://www.w3.org/1999/xlink" x="0px" y="0px" viewBox="0 0 15 15"
	 enable-background="new 0 0 15 15" xml:space="preserve">
<sodipodi:namedview  id="namedview3400" inkscape:current-layer="svg4619" inkscape:window-height="480" inkscape:pageopacity="0" inkscape:window-width="640" inkscape:window-y="23" inkscape:pageshadow="2" inkscape:document-units="px" inkscape:window-maximized="0" inkscape:window-x="0" inkscape:cx="8.5" borderopacity="1" objecttolerance="10" bordercolor="#666666" gridtolerance="10" showgrid="false" inkscape:cy="8.5" inkscape:zoom="13.882353" guidetolerance="10" pagecolor="#000000">
	</sodipodi:namedview>
<path style="fill:#000000;fill-opacity:1" id="path10847-43-3-9-9" inkscape:connector-curvature="0" d="M11.7,0.1c-1.7,2.6-2,4.8-3.9,6.5C6,8.3,2.7,7.7,2.7,10.1v0.9
	c0,0.9,0.9,1.7,0.9,2.6v0.9c0,1.3-0.4,1.3-0.9,2.6l0.9,0l1.7-2.6V17h1.3v-5.2h1.3V17h1.3v-3.9l1.3,3.9h0.9L10,11.6
	c0.5-0.3,0.5-0.9,0.5-1.5c0-0.8,0-1.7,0-2.6l1.9-4.8l1.9,0.6c0-0.1,0-0.6,0-0.6c0,0-0.3-0.3-0.4-0.4L11.7,0.1z"/>
</svg>
