<?xml version="1.0" encoding="UTF-8" standalone="no"?>
<!-- Generator: Adobe Illustrator 17.1.0, SVG Export Plug-In . SVG Version: 6.00 Build 0)  -->

<svg
   xmlns:dc="http://purl.org/dc/elements/1.1/"
   xmlns:cc="http://creativecommons.org/ns#"
   xmlns:rdf="http://www.w3.org/1999/02/22-rdf-syntax-ns#"
   xmlns:svg="http://www.w3.org/2000/svg"
   xmlns="http://www.w3.org/2000/svg"
   xmlns:sodipodi="http://sodipodi.sourceforge.net/DTD/sodipodi-0.dtd"
   xmlns:inkscape="http://www.inkscape.org/namespaces/inkscape"
   version="1.1"
   id="svg4764"
   sodipodi:docname="zoo-11.svg"
   inkscape:version="0.91+devel+osxmenu r12911"
   x="0px"
   y="0px"
   viewBox="0 0 11 11"
   enable-background="new 0 0 11 11"
   xml:space="preserve"><metadata
     id="metadata11981"><rdf:RDF><cc:Work
         rdf:about=""><dc:format>image/svg+xml</dc:format><dc:type
           rdf:resource="http://purl.org/dc/dcmitype/StillImage" /><dc:title></dc:title></cc:Work></rdf:RDF></metadata><defs
     id="defs11979" /><sodipodi:namedview
     id="namedview3394"
     inkscape:current-layer="svg4764"
     inkscape:window-height="480"
     inkscape:pageopacity="0"
     inkscape:window-width="640"
     inkscape:window-y="23"
     inkscape:pageshadow="2"
     inkscape:document-units="px"
     inkscape:window-maximized="0"
     inkscape:window-x="0"
     inkscape:cx="8.3130139"
     borderopacity="1"
     objecttolerance="10"
     bordercolor="#666666"
     gridtolerance="10"
     showgrid="false"
     inkscape:cy="9.529741"
     inkscape:zoom="22.627417"
     guidetolerance="10"
     pagecolor="#ffffff"
     inkscape:snap-bbox="true"
     inkscape:bbox-paths="true"
     inkscape:object-paths="true"
     inkscape:object-nodes="true"
     inkscape:snap-smooth-nodes="true"
     inkscape:bbox-nodes="true"
     inkscape:snap-bbox-edge-midpoints="true"
     inkscape:snap-nodes="true"
     inkscape:snap-center="true"><inkscape:grid
       type="xygrid"
       id="grid16029"
       empspacing="4"
       spacingx="0.25"
       spacingy="0.25"
       color="#ff3f3f"
       opacity="0.1254902" /></sodipodi:namedview><circle
     r="0"
     cy="6.5"
     cx="-12.5"
     id="ellipse16334"
     style="opacity:1;fill:#ffffff;fill-opacity:1;stroke:none;stroke-width:2;stroke-linecap:round;stroke-linejoin:round;stroke-miterlimit:4;stroke-dasharray:none;stroke-dashoffset:0;stroke-opacity:1;marker:none" /><path
     style="opacity:1;fill:#000000;fill-opacity:1;stroke:none;stroke-width:2;stroke-linecap:round;stroke-linejoin:round;stroke-miterlimit:4;stroke-dasharray:none;stroke-dashoffset:0;stroke-opacity:1;marker:none"
     d="M 8,1.984375 C 7.080645,1.9859286 6.5,2.450441 6.151137,3.0546894 6.151137,3.0546894 5.5,4 5,4 L 3,4 C 2.5,4 2,4.5 2,4.5 L 0,6.5 0,7 0.5,7 1.75,5.75 1.949219,5.9121094 C 1.949219,5.9121094 1.25,7.25 1.25,8.5 1.25,9 1.75,9 1.75,9 l 0.5,0 c 0,0 0.25,0 0,-0.25 L 2,8.5 C 2,8 2.633467,7.4889333 3,7 3,7 3.0123,7.6324791 3,8.25 2.994,8.550403 3.199537,9 3.5,9 L 4,9 C 4,9 4.25,9 4,8.75 L 3.75,8.5 C 3.520993,8.0829885 4.25,7 4.25,7 L 6,7 6.5,8.5 C 6.666667,9 7,9 7,9 L 8,9 C 8.25,9 8.722495,8.8137668 8.25,8.5 L 8,8.3339844 8,7 8,7.015625 C 9,7 9.143088,5.7588829 9.525391,5.3144531 L 10.25,5.25 C 10.481126,5.2962251 11,5 11,4.5 L 11,4 9.75,3 9.748,3.00195 C 9.390043,2.3737928 8.723015,1.9855007 8,1.984375 Z"
     id="circle17441"
     inkscape:connector-curvature="0"
     sodipodi:nodetypes="csssccccccsccscccscscccscsscccccscccc" /></svg>