<svg xmlns="http://www.w3.org/2000/svg" viewBox="-3 -3 18 18" width="18" height="18"><title>police-11.svg</title><path d="M4.5,0.5l0.5,1h3
	l0.5-1H4.5z M5,2v1c0,0.8284,0.6716,1.5,1.5,1.5S8,3.8284,8,3V2H5z M1.75,3C1,3,1,3.75,1,3.75v3
	c0.0006,0.506,0.4918,0.8663,0.9746,0.7148L4,6.8262V10l4-5H5c0,0-0.1945,0-0.4238,0.0723L2.5,5.7266V3.75C2.5,3.75,2.5,3,1.75,3z
	 M8.7715,5.3887L5,10h4V6C9,5.7648,8.9064,5.5591,8.7715,5.3887z" style="stroke-linejoin:round;stroke-miterlimit:4px;" fill="rgba(255,255,255,0.25)" stroke="rgba(255,255,255,0.25)" stroke-width="2"></path><path fill="#444444" d="M4.5,0.5l0.5,1h3
	l0.5-1H4.5z M5,2v1c0,0.8284,0.6716,1.5,1.5,1.5S8,3.8284,8,3V2H5z M1.75,3C1,3,1,3.75,1,3.75v3
	c0.0006,0.506,0.4918,0.8663,0.9746,0.7148L4,6.8262V10l4-5H5c0,0-0.1945,0-0.4238,0.0723L2.5,5.7266V3.75C2.5,3.75,2.5,3,1.75,3z
	 M8.7715,5.3887L5,10h4V6C9,5.7648,8.9064,5.5591,8.7715,5.3887z"></path></svg>