<svg xmlns="http://www.w3.org/2000/svg" viewBox="-3 -3 18 18" width="18" height="18"><title>restaurant-11.svg</title><path d="M2.25,0l-0.5,3.5C1.6793,3.995,2.9908,4.9001,3,5.5V11h1V5.5c0-0.6,1.3207-1.505,1.25-2L4.75,0h-0.5
	L4.5,2.75l-0.75,0.5V0h-0.5v3.25L2.5,2.75L2.75,0H2.25z M9,0C7.5,0,7.0064,1.7242,7,3v3h1v5h1V0z" style="stroke-linejoin:round;stroke-miterlimit:4px;" fill="rgba(255,255,255,0.25)" stroke="rgba(255,255,255,0.25)" stroke-width="2"></path><path fill="#444444" d="M2.25,0l-0.5,3.5C1.6793,3.995,2.9908,4.9001,3,5.5V11h1V5.5c0-0.6,1.3207-1.505,1.25-2L4.75,0h-0.5
	L4.5,2.75l-0.75,0.5V0h-0.5v3.25L2.5,2.75L2.75,0H2.25z M9,0C7.5,0,7.0064,1.7242,7,3v3h1v5h1V0z"></path></svg>