<?xml version="1.0" encoding="UTF-8" standalone="no"?>
<!-- Created with Inkscape (http://www.inkscape.org/) -->

<svg
   xmlns:dc="http://purl.org/dc/elements/1.1/"
   xmlns:cc="http://creativecommons.org/ns#"
   xmlns:rdf="http://www.w3.org/1999/02/22-rdf-syntax-ns#"
   xmlns:svg="http://www.w3.org/2000/svg"
   xmlns="http://www.w3.org/2000/svg"
   xmlns:sodipodi="http://sodipodi.sourceforge.net/DTD/sodipodi-0.dtd"
   xmlns:inkscape="http://www.inkscape.org/namespaces/inkscape"
   version="1.1"
   width="17"
   height="17"
   id="svg4619"
   inkscape:version="0.91+devel+osxmenu r12911"
   sodipodi:docname="fast-food-17.svg"
   viewBox="0 0 17 17">
  <sodipodi:namedview
     pagecolor="#000000"
     bordercolor="#666666"
     borderopacity="1"
     objecttolerance="10"
     gridtolerance="10"
     guidetolerance="10"
     inkscape:pageopacity="0"
     inkscape:pageshadow="2"
     inkscape:window-width="640"
     inkscape:window-height="480"
     id="namedview3370"
     inkscape:document-units="px"
     showgrid="false"
     inkscape:zoom="35.941176"
     inkscape:cx="5.0220949"
     inkscape:cy="10.47545"
     inkscape:current-layer="svg4619" />
  <defs
     id="defs4621" />
  <metadata
     id="metadata4624">
    <rdf:RDF>
      <cc:Work
         rdf:about="">
        <dc:format>image/svg+xml</dc:format>
        <dc:type
           rdf:resource="http://purl.org/dc/dcmitype/StillImage" />
        <dc:title />
      </cc:Work>
    </rdf:RDF>
  </metadata>
  <path style="fill:#000000;fill-opacity:1"
     d="m 5.6666667,2.125 c -2.9078925,0 -4.9583334,1.1184583 -4.9583334,3.5416667 l 0,2.125 15.5833337,0 0,-2.125 C 16.291667,3.2434583 14.241226,2.125 11.333333,2.125 l -5.6666663,0 z m 0,1.59375 c 0.2934058,0 0.53125,0.2378583 0.53125,0.53125 0,0.2933917 -0.2378442,0.53125 -0.53125,0.53125 -0.2934059,0 -0.53125,-0.2378583 -0.53125,-0.53125 0,-0.2933917 0.2378441,-0.53125 0.53125,-0.53125 z m 5.6666663,0 c 0.293406,0 0.53125,0.2378583 0.53125,0.53125 0,0.2933917 -0.237844,0.53125 -0.53125,0.53125 -0.293405,0 -0.53125,-0.2378583 -0.53125,-0.53125 0,-0.2933917 0.237845,-0.53125 0.53125,-0.53125 z M 2.8333333,5.1354167 c 0.2934059,0 0.53125,0.2378583 0.53125,0.53125 0,0.2933916 -0.2378441,0.53125 -0.53125,0.53125 -0.2934058,0 -0.53125,-0.2378584 -0.53125,-0.53125 0,-0.2933917 0.2378442,-0.53125 0.53125,-0.53125 z m 5.6666667,0 c 0.2934058,0 0.53125,0.2378583 0.53125,0.53125 0,0.2933916 -0.2378442,0.53125 -0.53125,0.53125 -0.2934058,0 -0.53125,-0.2378584 -0.53125,-0.53125 0,-0.2933917 0.2378442,-0.53125 0.53125,-0.53125 z m 5.666667,0 c 0.293405,0 0.53125,0.2378583 0.53125,0.53125 0,0.2933916 -0.237845,0.53125 -0.53125,0.53125 -0.293406,0 -0.53125,-0.2378584 -0.53125,-0.53125 0,-0.2933917 0.237844,-0.53125 0.53125,-0.53125 z M 0.7083333,9.2083333 C 0.2236492,9.2083333 -1.4199991e-5,9.432025 0,9.9166667 1.4200009e-5,10.40145 0.2236492,10.625 0.7083333,10.625 l 15.5833337,0 C 16.776322,10.625 16.999986,10.40145 17,9.9166667 17.000014,9.432025 16.776322,9.2083333 16.291667,9.2083333 l -15.5833337,0 z m 0,2.8333337 0,0.885416 c 0,0.969284 0.9786192,1.947917 1.9479167,1.947917 l 11.6875,0 c 0.969297,0 1.947917,-0.978633 1.947917,-1.947917 l 0,-0.885416 -15.5833337,0 z"
     inkscape:connector-curvature="0"
     id="rect13326-2-5-2-3-6"
      />
</svg>
