<?xml version="1.0" encoding="UTF-8" standalone="no"?>
<!-- Generator: Adobe Illustrator 17.1.0, SVG Export Plug-In . SVG Version: 6.00 Build 0)  -->

<svg
   xmlns:dc="http://purl.org/dc/elements/1.1/"
   xmlns:cc="http://creativecommons.org/ns#"
   xmlns:rdf="http://www.w3.org/1999/02/22-rdf-syntax-ns#"
   xmlns:svg="http://www.w3.org/2000/svg"
   xmlns="http://www.w3.org/2000/svg"
   xmlns:sodipodi="http://sodipodi.sourceforge.net/DTD/sodipodi-0.dtd"
   xmlns:inkscape="http://www.inkscape.org/namespaces/inkscape"
   version="1.1"
   id="svg4619"
   inkscape:version="0.91+devel+osxmenu r12911"
   sodipodi:docname="alcohol-shop-17.svg"
   x="0px"
   y="0px"
   viewBox="0 0 17 17"
   enable-background="new 0 0 17 17"
   xml:space="preserve"><metadata
     id="metadata14"><rdf:RDF><cc:Work
         rdf:about=""><dc:format>image/svg+xml</dc:format><dc:type
           rdf:resource="http://purl.org/dc/dcmitype/StillImage" /><dc:title /></cc:Work></rdf:RDF></metadata><defs
     id="defs12" /><sodipodi:namedview
     inkscape:snap-bbox="true"
     inkscape:bbox-paths="true"
     inkscape:bbox-nodes="true"
     inkscape:window-x="0"
     inkscape:window-y="23"
     inkscape:window-width="1280"
     inkscape:object-paths="true"
     inkscape:pageopacity="0"
     inkscape:window-height="755"
     inkscape:current-layer="svg4619"
     inkscape:window-maximized="0"
     inkscape:document-units="px"
     inkscape:pageshadow="2"
     id="namedview3369"
     gridtolerance="10"
     borderopacity="1"
     bordercolor="#666666"
     inkscape:cx="0.47363946"
     guidetolerance="10"
     showgrid="true"
     pagecolor="#ffffff"
     inkscape:cy="6.5284394"
     objecttolerance="10"
     inkscape:zoom="27.764706"
     inkscape:snap-intersection-paths="true"
     inkscape:object-nodes="true"><inkscape:grid
       type="xygrid"
       id="grid3387"
       spacingx="0.5"
       spacingy="0.5"
       empspacing="2"
       color="#e0001a"
       opacity="0.1254902" /></sodipodi:namedview><path
     style="fill:#000000;fill-opacity:1"
     d="M 4.5 0 C 4.5 0 3.5 0 3.5 1 L 3.5 4.5 L 1 7 L 1 16.005859 C 1 16.005859 1.0077543 17 2.0117188 17 L 7.984375 17 C 8.0002106 17 9 17.009937 9 15.994141 L 9 7 L 6.5 4.5 L 6.5 1 C 6.5 0 5.5 0 5.5 0 L 4.5 0 z M 10 7 L 10 11 C 10 11.6 10.4 12 11 12 L 12.5 12 L 12.5 16 L 12 16 C 11 16 11 17 11 17 L 15 17 C 15 17 15 16 14 16 L 13.5 16 L 13.5 12 L 15 12 C 15.6 12 16 11.6 16 11 L 16 7 L 15 7 L 11 7 L 10 7 z "
     id="path5792" /></svg>
