<?xml version="1.0" encoding="utf-8"?>
<!-- Generator: Adobe Illustrator 17.1.0, SVG Export Plug-In . SVG Version: 6.00 Build 0)  -->
<!DOCTYPE svg PUBLIC "-//W3C//DTD SVG 1.1//EN" "http://www.w3.org/Graphics/SVG/1.1/DTD/svg11.dtd">
<svg version="1.1"
	 id="svg4764" xmlns:cc="http://creativecommons.org/ns#" xmlns:svg="http://www.w3.org/2000/svg" xmlns:inkscape="http://www.inkscape.org/namespaces/inkscape" xmlns:rdf="http://www.w3.org/1999/02/22-rdf-syntax-ns#" xmlns:dc="http://purl.org/dc/elements/1.1/"
	 xmlns="http://www.w3.org/2000/svg" xmlns:xlink="http://www.w3.org/1999/xlink" x="0px" y="0px" viewBox="0 0 11 11"
	 enable-background="new 0 0 11 11" xml:space="preserve">
<path style="fill:#000000;fill-opacity:1" id="rect4496-2" inkscape:connector-curvature="0" d="M1.4,0C1,0,0.7,0.3,0.7,0.7v2v5.4v2c0,0.4,0.3,0.7,0.7,0.7
	s0.7-0.3,0.7-0.7V8.8h1.4v1.4c0,0.4,0.3,0.7,0.7,0.7s0.7-0.3,0.7-0.7V8.8h1.4v1.4c0,0.4,0.3,0.7,0.7,0.7s0.7-0.3,0.7-0.7V8.8h1.4
	v1.4c0,0.4,0.3,0.7,0.7,0.7s0.7-0.3,0.7-0.7V0.7C10.3,0.3,10,0,9.6,0S8.9,0.3,8.9,0.7V2H7.5V0.7C7.5,0.3,7.2,0,6.9,0
	S6.2,0.3,6.2,0.7V2H4.8V0.7C4.8,0.3,4.5,0,4.1,0S3.5,0.3,3.5,0.7V2H2.1V0.7C2.1,0.3,1.8,0,1.4,0z M2.1,3.4h1.4v4.1H2.1V3.4z
	 M4.8,3.4h1.4v4.1H4.8V3.4z M7.5,3.4h1.4v4.1H7.5V3.4z"/>
</svg>
