<?xml version="1.0" encoding="utf-8"?>
<!-- Generator: Adobe Illustrator 17.1.0, SVG Export Plug-In . SVG Version: 6.00 Build 0)  -->
<!DOCTYPE svg PUBLIC "-//W3C//DTD SVG 1.1//EN" "http://www.w3.org/Graphics/SVG/1.1/DTD/svg11.dtd">
<svg version="1.1"
	 id="svg4619" xmlns:cc="http://creativecommons.org/ns#" xmlns:svg="http://www.w3.org/2000/svg" xmlns:inkscape="http://www.inkscape.org/namespaces/inkscape" xmlns:rdf="http://www.w3.org/1999/02/22-rdf-syntax-ns#" xmlns:dc="http://purl.org/dc/elements/1.1/"
	 xmlns="http://www.w3.org/2000/svg" xmlns:xlink="http://www.w3.org/1999/xlink" x="0px" y="0px" viewBox="0 0 17 17"
	 enable-background="new 0 0 17 17" xml:space="preserve">
<path style="fill:#000000;fill-opacity:1" id="rect13131-6-2" inkscape:connector-curvature="0" d="M7-0.1c-0.9,0-2,0.9-2.2,1.8L4.2,4.8H3C2.5,4.8,1.8,5.6,1.8,6l-1.2,10
	c0,0.5,0.6,0.9,1.2,0.9h13.4c0.6,0,1.2-0.5,1.2-0.9L15.2,6c0-0.5-0.8-1.2-1.2-1.2h-1.2l-0.6-3.1C12,0.8,10.9-0.1,10-0.1H7z M7,0.8h3
	c0.5,0,1.1,0.4,1.2,0.9l0.6,3.1H5.2l0.6-3.1C5.9,1.3,6.5,0.8,7,0.8z"/>
</svg>
