<?xml version="1.0" encoding="utf-8"?>
<!-- Generator: Adobe Illustrator 17.1.0, SVG Export Plug-In . SVG Version: 6.00 Build 0)  -->
<!DOCTYPE svg PUBLIC "-//W3C//DTD SVG 1.1//EN" "http://www.w3.org/Graphics/SVG/1.1/DTD/svg11.dtd">
<svg version="1.1"
	 id="svg4764" xmlns:cc="http://creativecommons.org/ns#" xmlns:svg="http://www.w3.org/2000/svg" xmlns:inkscape="http://www.inkscape.org/namespaces/inkscape" xmlns:rdf="http://www.w3.org/1999/02/22-rdf-syntax-ns#" xmlns:dc="http://purl.org/dc/elements/1.1/"
	 xmlns="http://www.w3.org/2000/svg" xmlns:xlink="http://www.w3.org/1999/xlink" x="0px" y="0px" viewBox="0 0 11 11"
	 enable-background="new 0 0 11 11" xml:space="preserve">
<path style="fill:#000000;fill-opacity:1" id="path8421-9-1-0-7" inkscape:connector-curvature="0" d="M7.9,0.6L7.3,1L4.6,2.6C4.3,2.7,4.2,3.2,4.4,3.5l0.7,1L2.4,6.7
	L3.7,7l1.8-0.6L7.3,7l1.2-0.3L5.8,3.3l2.7-1.7l0-1L7.9,0.6z M9.2,3.1c-0.7,0-1.2,0.5-1.2,1.2c0,0.7,0.5,1.2,1.2,1.2s1.2-0.5,1.2-1.2
	C10.4,3.7,9.8,3.1,9.2,3.1z M1.8,8L0,8.5v1.3l0.2-0.1l1.6-0.6l1.8,0.6l1.8-0.6l1.8,0.6l1.8-0.6L11,9.8V8.5L9.2,8L7.3,8.5L5.5,8
	L3.7,8.5L1.8,8L1.8,8z"/>
</svg>
