<?xml version="1.0" encoding="UTF-8" standalone="no"?>
<!-- Created with Inkscape (http://www.inkscape.org/) -->

<svg
   xmlns:dc="http://purl.org/dc/elements/1.1/"
   xmlns:cc="http://creativecommons.org/ns#"
   xmlns:rdf="http://www.w3.org/1999/02/22-rdf-syntax-ns#"
   xmlns:svg="http://www.w3.org/2000/svg"
   xmlns="http://www.w3.org/2000/svg"
   xmlns:sodipodi="http://sodipodi.sourceforge.net/DTD/sodipodi-0.dtd"
   xmlns:inkscape="http://www.inkscape.org/namespaces/inkscape"
   width="21"
   height="31"
   id="svg3844"
   version="1.1"
   inkscape:version="0.91+devel+osxmenu r12911"
   sodipodi:docname="us-highway-business-2-small.svg"
   viewBox="0 0 21 31">
  <defs
     id="defs3846" />
  <sodipodi:namedview
     id="base"
     pagecolor="#ffffff"
     bordercolor="#666666"
     borderopacity="1.0"
     inkscape:pageopacity="0.0"
     inkscape:pageshadow="2"
     inkscape:zoom="11.313708"
     inkscape:cx="-2.7034419"
     inkscape:cy="23.590462"
     inkscape:document-units="px"
     inkscape:current-layer="layer1"
     showgrid="false"
     inkscape:snap-bbox="true"
     fit-margin-top="0"
     fit-margin-left="0"
     fit-margin-right="0"
     fit-margin-bottom="0"
     inkscape:window-width="1280"
     inkscape:window-height="751"
     inkscape:window-x="43"
     inkscape:window-y="0"
     inkscape:window-maximized="0"
     inkscape:object-nodes="true"
     inkscape:bbox-paths="false"
     inkscape:bbox-nodes="true"
     inkscape:snap-global="true"
     inkscape:snap-smooth-nodes="false">
    <inkscape:grid
       type="xygrid"
       id="grid3875"
       empspacing="2"
       visible="true"
       enabled="true"
       snapvisiblegridlinesonly="true"
       originx="-300"
       originy="-127"
       spacingy="0.5px"
       spacingx="0.5px" />
  </sodipodi:namedview>
  <metadata
     id="metadata3849">
    <rdf:RDF>
      <cc:Work
         rdf:about="">
        <dc:format>image/svg+xml</dc:format>
        <dc:type
           rdf:resource="http://purl.org/dc/dcmitype/StillImage" />
        <dc:title></dc:title>
      </cc:Work>
    </rdf:RDF>
  </metadata>
  <g
     inkscape:label="Layer 1"
     inkscape:groupmode="layer"
     id="layer1"
     transform="translate(-300.00001,-894.36218)">
    <rect
       style="color:#3a3836;display:inline;overflow:visible;visibility:visible;opacity:0;fill:#3a3836;fill-opacity:1;fill-rule:nonzero;stroke:none;stroke-width:1;marker:none;enable-background:accumulate"
       id="rect3803"
       width="17"
       height="31"
       x="301"
       y="894.36218" />
    <path
       style="color:#3a3836;display:inline;overflow:visible;visibility:visible;opacity:1;fill:#ffffff;fill-opacity:1;fill-rule:evenodd;stroke:#3a3836;stroke-width:1;stroke-linecap:round;stroke-linejoin:round;marker:none;enable-background:accumulate"
       clip-path="none"
       d="m 304.94443,902.36218 -4.44446,2.5 c 0.55556,0.5 2.22223,1.5 1.11112,3.5 -1.11112,2 -1.66667,5 0.55556,7 2.77778,2.5 7.22224,0.5 8.33335,2.5 1.11112,-2 5.55558,0 8.33336,-2.5 2.22223,-2 1.66667,-5 0.55556,-7 -1.11112,-2 0.55556,-3 1.11111,-3.5 l -4.44445,-2.5 c 0,0 -1.11112,1.5 -2.77779,1.5 -1.66667,0 -2.77779,-1.5 -2.77779,-1.5 0,0 -1.11111,1.5 -2.77778,1.5 -1.66667,0 -2.77779,-1.5 -2.77779,-1.5 z"
       id="path3799-7"
       inkscape:connector-curvature="0"
       sodipodi:nodetypes="ccsscssccscsc" />
    <rect
       style="color:#3a3836;clip-rule:nonzero;display:inline;overflow:visible;visibility:visible;opacity:1;isolation:auto;mix-blend-mode:normal;color-interpolation:sRGB;color-interpolation-filters:linearRGB;solid-color:#3a3836;solid-opacity:1;fill:#ffffff;fill-opacity:1;fill-rule:evenodd;stroke:none;stroke-width:1;stroke-linecap:round;stroke-linejoin:round;stroke-miterlimit:4;stroke-dasharray:none;stroke-dashoffset:0;stroke-opacity:1;marker:none;color-rendering:auto;image-rendering:auto;shape-rendering:auto;text-rendering:auto;enable-background:accumulate"
       id="rect4807-3"
       width="17"
       height="7.000071"
       x="302"
       y="894.36218"
       rx="1"
       ry="0.99999738" />
    <g
       transform="matrix(1.016077,0,0,0.98417739,1,0)"
       style="font-style:normal;font-variant:normal;font-weight:600;font-stretch:normal;font-size:7.5px;line-height:125%;font-family:'Open Sans';-inkscape-font-specification:'Open Sans Semi-Bold';letter-spacing:0px;word-spacing:0px;fill:#3a3836;fill-opacity:1;stroke:none;stroke-width:1px;stroke-linecap:butt;stroke-linejoin:miter;stroke-opacity:1"
       id="text4827">
      <path
         d="m 310.50796,914.32925 q 0,-0.25064 0.13047,-0.38455 0.13046,-0.13389 0.37767,-0.13389 0.25063,0 0.38111,0.14077 0.13046,0.13732 0.13046,0.37767 0,0.24377 -0.1339,0.38797 -0.13047,0.14077 -0.37767,0.14077 -0.24721,0 -0.37767,-0.14077 -0.13047,-0.14077 -0.13047,-0.38797 z"
         style="font-style:normal;font-variant:normal;font-weight:600;font-stretch:normal;font-size:7.5px;font-family:'Open Sans';-inkscape-font-specification:'Open Sans Semi-Bold';letter-spacing:-0.2px;fill:#3a3836;fill-opacity:1"
         id="path4152"
         inkscape:connector-curvature="0" />
    </g>
    <g
       style="color:#000000;font-style:normal;font-variant:normal;font-weight:600;font-stretch:normal;font-size:6.76705217px;line-height:150%;font-family:'Open Sans';-inkscape-font-specification:'Open Sans Semi-Bold';text-indent:0;text-align:start;text-decoration:none;text-decoration-line:none;text-decoration-style:solid;text-decoration-color:#000000;letter-spacing:0px;word-spacing:normal;text-transform:none;direction:ltr;block-progression:tb;writing-mode:lr-tb;baseline-shift:baseline;text-anchor:start;white-space:normal;clip-rule:nonzero;display:inline;overflow:visible;visibility:visible;opacity:1;isolation:auto;mix-blend-mode:normal;color-interpolation:sRGB;color-interpolation-filters:linearRGB;solid-color:#000000;solid-opacity:1;fill:#3a3836;fill-opacity:1;fill-rule:nonzero;stroke:none;stroke-width:4;stroke-linecap:round;stroke-linejoin:bevel;stroke-miterlimit:4;stroke-dasharray:none;stroke-dashoffset:0;stroke-opacity:1;marker:none;color-rendering:auto;image-rendering:auto;shape-rendering:auto;text-rendering:auto;enable-background:accumulate"
       id="text5850"
       transform="translate(-30.720966,-5.0902439e-6)">
      <path
         d="m 334.49999,895.43558 1.43403,0 q 0.99788,0 1.44065,0.29077 0.44607,0.29077 0.44607,0.91858 0,0.42294 -0.21808,0.7038 -0.21808,0.28086 -0.62781,0.35355 l 0,0.033 q 0.50885,0.0958 0.74676,0.37999 0.24121,0.28086 0.24121,0.76327 0,0.65094 -0.45599,1.02101 -0.45267,0.36677 -1.26221,0.36677 l -1.74463,0 0,-4.83078 z m 0.78971,1.99575 0.75997,0 q 0.49563,0 0.72363,-0.1553 0.22799,-0.1586 0.22799,-0.53528 0,-0.34034 -0.24782,-0.49233 -0.24451,-0.15199 -0.7798,-0.15199 l -0.68397,0 0,1.3349 z m 0,0.64102 0,1.52986 0.83927,0 q 0.49564,0 0.74676,-0.18834 0.25442,-0.19165 0.25442,-0.60137 0,-0.37668 -0.25773,-0.55842 -0.25773,-0.18173 -0.7831,-0.18173 l -0.79962,0 z"
         id="path5855"
         inkscape:connector-curvature="0" />
      <path
         d="m 342.75394,895.43558 0,3.1258 q 0,0.53528 -0.23129,0.9384 -0.22799,0.39981 -0.66415,0.61789 -0.43286,0.21477 -1.03753,0.21477 -0.89875,0 -1.39769,-0.47581 -0.49893,-0.4758 -0.49893,-1.30847 l 0,-3.11258 0.79301,0 0,3.05641 q 0,0.59806 0.27756,0.88223 0.27755,0.28416 0.85249,0.28416 1.11682,0 1.11682,-1.173 l 0,-3.0498 0.78971,0 z"
         id="path5857"
         inkscape:connector-curvature="0" />
      <path
         d="m 346.77518,898.95458 q 0,0.64432 -0.46589,1.01109 -0.4659,0.36677 -1.28535,0.36677 -0.81944,0 -1.34151,-0.25442 l 0,-0.74676 q 0.33042,0.1553 0.7005,0.24451 0.37337,0.0892 0.69388,0.0892 0.4692,0 0.69059,-0.17843 0.22468,-0.17843 0.22468,-0.47911 0,-0.27095 -0.20486,-0.45929 -0.20486,-0.18834 -0.84588,-0.44607 -0.66085,-0.26764 -0.93179,-0.61128 -0.27095,-0.34364 -0.27095,-0.82606 0,-0.60467 0.42955,-0.95161 0.42955,-0.34695 1.15317,-0.34695 0.69389,0 1.38117,0.30399 l -0.25112,0.64432 q -0.64432,-0.27094 -1.14987,-0.27094 -0.38329,0 -0.58154,0.16851 -0.19826,0.16521 -0.19826,0.43947 0,0.18834 0.0793,0.32381 0.0793,0.13217 0.26104,0.25112 0.18173,0.11895 0.65423,0.3139 0.53198,0.22139 0.7798,0.41303 0.24782,0.19165 0.36347,0.43285 0.11564,0.24121 0.11564,0.56833 z"
         id="path5859"
         inkscape:connector-curvature="0" />
    </g>
  </g>
</svg>
