<svg viewBox="-3 -3 17 17" width="17" height="17" data-reactid=".0.1.1.$airfield-11=1svg0.0.0"><rect x="-2" y="-2" rx="1" ry="1" width="15" height="15" stroke="#fff" style="stroke-linejoin:round;stroke-miterlimit:4px;" fill="#fff" stroke-width="2" data-reactid=".0.1.1.$airfield-11=1svg0.0.0.0"></rect><rect x="-2" y="-2" width="15" height="15" rx="1" ry="1" fill="#8363a5" data-reactid=".0.1.1.$airfield-11=1svg0.0.0.1"></rect><path fill="#fff" d="m 5,0.5 -1.5,0 C 3,0.5 3,0 3.5,0 l 4,0 C 8,0 8,0.5 7.5,0.5 L 6,0.5 C 6,0.5 6.5,1 6.5,2 l 0,1 4.5,0 0,1.5 -4.5,2 -0.5,3.5 1.5,0.5 0,0.5 -4,0 0,-0.5 L 5,10 4.5,6.5 0,4.5 0,3 4.5,3 4.5,2 C 4.5,1 5,0.5 5,0.5 Z" data-reactid=".0.1.1.$airfield-11=1svg0.0.0.3:$airfield-11=1svg-0-fill"></path></svg>