<?xml version="1.0" encoding="UTF-8" standalone="no"?>
<svg
   xmlns:dc="http://purl.org/dc/elements/1.1/"
   xmlns:cc="http://creativecommons.org/ns#"
   xmlns:rdf="http://www.w3.org/1999/02/22-rdf-syntax-ns#"
   xmlns:svg="http://www.w3.org/2000/svg"
   xmlns="http://www.w3.org/2000/svg"
   id="svg2"
   width="19"
   height="19"
   viewBox="0 0 19 19"
   version="1.1">
  <metadata
     id="metadata14">
    <rdf:RDF>
      <cc:Work
         rdf:about="">
        <dc:format>image/svg+xml</dc:format>
        <dc:type
           rdf:resource="http://purl.org/dc/dcmitype/StillImage" />
      </cc:Work>
    </rdf:RDF>
  </metadata>
  <defs
     id="defs12" />
  <rect
     id="rect4"
     ry="3"
     rx="3"
     height="19"
     width="19"
     y="0"
     x="0"
     style="fill:#ffffff;stroke:none;" />
  <rect
     id="rect6"
     ry="1"
     rx="1"
     height="17"
     width="17"
     y="1"
     x="1"
     style="fill:#9c8ea4;stroke:none;" />
  <g
     id="g8"
     transform="translate(4,4)">
    <metadata     id="metadata9"><rdf:RDF><cc:Work         rdf:about=""><dc:format>image/svg+xml</dc:format><dc:type           rdf:resource="http://purl.org/dc/dcmitype/StillImage" /><dc:title /></cc:Work></rdf:RDF></metadata><defs     id="defs7" /><path     id="path5"     d="m 5,0.5 -1.5,0 C 3,0.5 3,0 3.5,0 l 4,0 C 8,0 8,0.5 7.5,0.5 L 6,0.5 C 6,0.5 6.5,1 6.5,2 l 0,1 4.5,0 0,1.5 -4.5,2 -0.5,3.5 1.5,0.5 0,0.5 -4,0 0,-0.5 L 5,10 4.5,6.5 0,4.5 0,3 4.5,3 4.5,2 C 4.5,1 5,0.5 5,0.5 Z"     style="fill:#ffffff;fill-opacity:1" />
  </g>
</svg>
