<svg viewBox="-3 -3 21 21" width="21" height="21" data-reactid=".0.1.1.$airfield-15=1svg8.0.0"><rect x="-2" y="-2" rx="1" ry="1" width="19" height="19" stroke="#fff" style="stroke-linejoin:round;stroke-miterlimit:4px;" fill="#fff" stroke-width="2" data-reactid=".0.1.1.$airfield-15=1svg8.0.0.0"></rect><rect x="-2" y="-2" width="19" height="19" rx="1" ry="1" fill="#8363a5" data-reactid=".0.1.1.$airfield-15=1svg8.0.0.1"></rect><path fill="#fff" d="m 6.818182,0.6818182 -2.045455,0 C 4.090909,0.6818182 4.090909,0 4.772727,0 l 5.454546,0 c 0.681818,0 0.681818,0.6818182 0,0.6818182 l -2.045455,0 c 0,0 0.818182,0.590909 0.818182,1.9545454 L 9,4 15,4 15,6 9,8 8.5,13 11,14.318182 11,15 4,15 4,14.318182 6.5,13 6,8 0,6 0,4 6,4 6,2.6363636 C 6,1.2727272 6.818182,0.6818182 6.818182,0.6818182 Z" data-reactid=".0.1.1.$airfield-15=1svg8.0.0.3:$airfield-15=1svg-0-fill"></path></svg>