<svg viewBox="-3 -3 17 17" width="17" height="17" data-reactid=".0.1.1.$airport-11=1svg1.0.0"><rect x="-2" y="-2" rx="1" ry="1" width="15" height="15" stroke="#fff" style="stroke-linejoin:round;stroke-miterlimit:4px;" fill="#fff" stroke-width="2" data-reactid=".0.1.1.$airport-11=1svg1.0.0.0"></rect><rect x="-2" y="-2" width="15" height="15" rx="1" ry="1" fill="#8363a5" data-reactid=".0.1.1.$airport-11=1svg1.0.0.1"></rect><path fill="#fff" d="M 11,5 11,6.5 6.5,6 6.5,7.5 C 6.5,8.5 6,9 6,9 L 8,10 8,11 5.5,10.5 3,11 3,10 5,9 C 5,9 4.5,8.5 4.5,7.5 L 4.5,6 0,6.4 0,5 4.5,3.2 4.5,1.5 C 4.5,0.5 5,0 5.5,0 c 0.5,0 1,0.5 1,1.5 l 0,1.7 z" data-reactid=".0.1.1.$airport-11=1svg1.0.0.3:$airport-11=1svg-0-fill"></path></svg>