<?xml version="1.0" encoding="utf-8"?>
<!-- Generator: Adobe Illustrator 17.1.0, SVG Export Plug-In . SVG Version: 6.00 Build 0)  -->
<!DOCTYPE svg PUBLIC "-//W3C//DTD SVG 1.1//EN" "http://www.w3.org/Graphics/SVG/1.1/DTD/svg11.dtd">
<svg version="1.1"
	 id="svg2" xmlns:svg="http://www.w3.org/2000/svg" xmlns:cc="http://creativecommons.org/ns#" xmlns:dc="http://purl.org/dc/elements/1.1/" xmlns:rdf="http://www.w3.org/1999/02/22-rdf-syntax-ns#"
	 xmlns="http://www.w3.org/2000/svg" xmlns:xlink="http://www.w3.org/1999/xlink" x="0px" y="0px" width="23px" height="23px"
	 viewBox="0 0 23 23" enable-background="new 0 0 23 23" xml:space="preserve">
<ellipse id="ellipse4" fill="#FFFFFF" cx="11.5" cy="11.5" rx="11.5" ry="11.5"/>
<ellipse id="ellipse6" fill="#A9A199" cx="11.5" cy="11.5" rx="10.5" ry="10.5"/>
<g id="g8" transform="translate(4,4)">
	<path id="path5715" fill="#FFFFFF" d="M4,0C3.7,0,3.5,0.2,3.5,0.5V1C3.2,1,3,1.2,3,1.5S3.2,2,3.5,2v0.5C3.5,3.9,1,5.6,1,7v6
		c0,1,1,1,1,1h5c0,0,1-0.1,1-1V7c0-1.4-2.5-3.1-2.5-4.5V2C5.8,2,6,1.8,6,1.5S5.8,1,5.5,1V0.5C5.5,0.2,5.3,0,5,0H4z M9,6l0.3,2.5
		C9.5,9.9,11,10,11,10v2.5c0,1-1,1.2-1,1.2V14h3v-0.2c0,0-1-0.2-1-1.2V10c0,0,1.3-0.1,1.6-1.5L14,6H9z M10,7h3l-0.2,1h-2.5L10,7z
		 M4.5,8C5.3,8,6,8.9,6,10s-0.7,2-1.5,2S3,11.1,3,10S3.7,8,4.5,8z"/>
</g>
</svg>
