<?xml version="1.0" encoding="utf-8"?>
<!-- Generator: Adobe Illustrator 17.1.0, SVG Export Plug-In . SVG Version: 6.00 Build 0)  -->
<!DOCTYPE svg PUBLIC "-//W3C//DTD SVG 1.1//EN" "http://www.w3.org/Graphics/SVG/1.1/DTD/svg11.dtd">
<svg version="1.1"
	 id="svg2" xmlns:svg="http://www.w3.org/2000/svg" xmlns:cc="http://creativecommons.org/ns#" xmlns:dc="http://purl.org/dc/elements/1.1/" xmlns:rdf="http://www.w3.org/1999/02/22-rdf-syntax-ns#"
	 xmlns="http://www.w3.org/2000/svg" xmlns:xlink="http://www.w3.org/1999/xlink" x="0px" y="0px" width="19px" height="19px"
	 viewBox="0 0 19 19" enable-background="new 0 0 19 19" xml:space="preserve">
<ellipse id="ellipse4" fill="#FFFFFF" cx="9.5" cy="9.5" rx="9.5" ry="9.5"/>
<ellipse id="ellipse6" fill="#A9A199" cx="9.5" cy="9.5" rx="8.5" ry="8.5"/>
<g id="g8" transform="translate(5,4)">
	<path id="path5715" fill="#FFFFFF" d="M2.6,0C2.4,0,2.2,0.2,2.2,0.4s0.2,0.4,0.4,0.4c0,0.9-1.8,2.6-1.8,3.5V8
		c0,0.9,0.9,0.9,0.9,0.9h2.7c0,0,0.9,0,0.9-0.9V4.4c0-0.8-1.8-2.7-1.8-3.5C3.8,0.9,4,0.7,4,0.4S3.8,0,3.5,0H2.6z M6,3.5l0.2,1.3
		c0.1,0.9,1.1,0.9,1.1,0.9v2c0,0.4-0.7,0.7-0.7,0.7v0.4h1.8V8.4c0,0-0.7-0.2-0.7-0.7v-2c0,0,1,0,1.1-0.9L9,3.5H6z M6.8,4h1.3
		L7.9,4.9H7.1L6.8,4z M3.1,4.4c0.7,0,1.3,0.8,1.3,1.8l0,0c0,1-0.6,1.8-1.3,1.8l0,0C2.4,8,1.8,7.2,1.8,6.2l0,0
		C1.8,5.2,2.4,4.4,3.1,4.4L3.1,4.4z"/>
</g>
</svg>
