<?xml version="1.0" encoding="utf-8"?>
<!-- Generator: Adobe Illustrator 17.1.0, SVG Export Plug-In . SVG Version: 6.00 Build 0)  -->
<!DOCTYPE svg PUBLIC "-//W3C//DTD SVG 1.1//EN" "http://www.w3.org/Graphics/SVG/1.1/DTD/svg11.dtd">
<svg version="1.1"
	 id="svg2" xmlns:svg="http://www.w3.org/2000/svg" xmlns:cc="http://creativecommons.org/ns#" xmlns:dc="http://purl.org/dc/elements/1.1/" xmlns:rdf="http://www.w3.org/1999/02/22-rdf-syntax-ns#"
	 xmlns="http://www.w3.org/2000/svg" xmlns:xlink="http://www.w3.org/1999/xlink" x="0px" y="0px" width="19px" height="19px"
	 viewBox="0 0 19 19" enable-background="new 0 0 19 19" xml:space="preserve">
<ellipse id="ellipse4" fill="#FFFFFF" cx="9.5" cy="9.5" rx="9.5" ry="9.5"/>
<ellipse id="ellipse6" fill="#7E9A4C" cx="9.5" cy="9.5" rx="8.5" ry="8.5"/>
<g id="g8" transform="translate(4,3.5)">
	<path id="path5" fill="#FFFFFF" d="M5.5,2.5C1.5,2.5,0,6,0,6s1.5,3.5,5.5,3.5S11,6,11,6S9.5,2.5,5.5,2.5z M8,6.5H7V7
		c0,0.3-0.2,0.5-0.5,0.5S6,7.3,6,7V6.5H5V7c0,0.3-0.2,0.5-0.5,0.5S4,7.3,4,7V6.5H3C2.7,6.5,2.5,6.3,2.5,6S2.7,5.5,3,5.5h1V5
		c0-0.3,0.2-0.5,0.5-0.5S5,4.7,5,5v0.5h1V5c0-0.3,0.2-0.5,0.5-0.5S7,4.7,7,5v0.5h1c0.3,0,0.5,0.2,0.5,0.5S8.3,6.5,8,6.5z"/>
</g>
</svg>
