<?xml version="1.0" encoding="utf-8"?>
<!-- Generator: Adobe Illustrator 17.1.0, SVG Export Plug-In . SVG Version: 6.00 Build 0)  -->
<!DOCTYPE svg PUBLIC "-//W3C//DTD SVG 1.1//EN" "http://www.w3.org/Graphics/SVG/1.1/DTD/svg11.dtd">
<svg version="1.1"
	 id="svg2" xmlns:svg="http://www.w3.org/2000/svg" xmlns:cc="http://creativecommons.org/ns#" xmlns:dc="http://purl.org/dc/elements/1.1/" xmlns:rdf="http://www.w3.org/1999/02/22-rdf-syntax-ns#"
	 xmlns="http://www.w3.org/2000/svg" xmlns:xlink="http://www.w3.org/1999/xlink" x="0px" y="0px" width="23px" height="23px"
	 viewBox="0 0 23 23" enable-background="new 0 0 23 23" xml:space="preserve">
<ellipse id="ellipse4" fill="#FFFFFF" cx="11.5" cy="11.5" rx="11.5" ry="11.5"/>
<ellipse id="ellipse6" fill="#A9A199" cx="11.5" cy="11.5" rx="10.5" ry="10.5"/>
<g id="g8" transform="translate(4,4)">
	<path id="path5" fill="#FFFFFF" d="M13.2,5.3C12.3,4,11,3,9.1,2.5s-4.3-0.7-5.8,0S0.5,4.4,0.5,5.8c0,2.5,3.9,2.4,3.5,4.1
		c-0.3,1.4,0.3,2.9,2.1,3.3c1.8,0.5,3.8,0.3,5.2-0.4s3.2-2.1,3.2-3.7C14.5,7.6,14.2,6.5,13.2,5.3z M3.2,6.5C2.7,6.4,2.4,6,2.6,5.5
		c0.1-0.5,0.5-0.7,1-0.6s0.7,0.5,0.6,1S3.6,6.7,3.2,6.5z M5.7,5C5.2,4.9,4.9,4.5,5.1,4c0.1-0.5,0.5-0.7,1-0.6c0.5,0.1,0.7,0.5,0.6,1
		S6.1,5.2,5.7,5z M6.5,11.6c-0.6-0.2-1.1-0.9-0.9-1.5S6.5,9,7.1,9.2c0.6,0.2,1.1,0.9,0.9,1.5C7.9,11.4,7.2,11.8,6.5,11.6z M8.5,5.4
		C8.1,5.2,7.8,4.8,8,4.4s0.5-0.7,1-0.6c0.5,0.1,0.7,0.5,0.6,1S9,5.5,8.5,5.4z M10.5,5.9c0.1-0.5,0.5-0.7,1-0.6s0.7,0.5,0.6,1
		c-0.1,0.5-0.5,0.7-1,0.6C10.7,6.8,10.4,6.4,10.5,5.9z M11.7,9.6c-0.5-0.1-0.7-0.5-0.6-1c0.1-0.5,0.5-0.7,1-0.6
		c0.5,0.1,0.7,0.5,0.6,1S12.2,9.7,11.7,9.6z"/>
</g>
</svg>
