<?xml version="1.0" encoding="utf-8"?>
<!-- Generator: Adobe Illustrator 17.1.0, SVG Export Plug-In . SVG Version: 6.00 Build 0)  -->
<!DOCTYPE svg PUBLIC "-//W3C//DTD SVG 1.1//EN" "http://www.w3.org/Graphics/SVG/1.1/DTD/svg11.dtd">
<svg version="1.1"
	 id="svg2" xmlns:svg="http://www.w3.org/2000/svg" xmlns:cc="http://creativecommons.org/ns#" xmlns:dc="http://purl.org/dc/elements/1.1/" xmlns:rdf="http://www.w3.org/1999/02/22-rdf-syntax-ns#"
	 xmlns="http://www.w3.org/2000/svg" xmlns:xlink="http://www.w3.org/1999/xlink" x="0px" y="0px" width="19px" height="19px"
	 viewBox="0 0 19 19" enable-background="new 0 0 19 19" xml:space="preserve">
<ellipse id="ellipse4" fill="#FFFFFF" cx="9.5" cy="9.5" rx="9.5" ry="9.5"/>
<ellipse id="ellipse6" fill="#A9A199" cx="9.5" cy="9.5" rx="8.5" ry="8.5"/>
<g id="g8" transform="translate(4,4)">
	<path id="path5" fill="#FFFFFF" d="M10,3.5c-0.8-1-2-1.9-3.5-2.2S3.6,1,2.4,1.5C1.3,2,0,2.5,0,4c0,1.9,3,1.8,2.7,3.1
		C2.4,8.2,2.9,9.4,4.4,9.8c1.4,0.4,3,0.2,4.1-0.3S11,8,11,6.5S10.7,4.5,10,3.5z M2,4.4C1.7,4.4,1.5,4,1.6,3.7S2,3.1,2.4,3.2
		S2.9,3.6,2.8,4S2.4,4.5,2,4.4z M4,3.3C3.6,3.2,3.4,2.8,3.5,2.5C3.6,2.1,3.9,1.9,4.3,2c0.4,0.1,0.6,0.4,0.5,0.8
		C4.7,3.2,4.4,3.4,4,3.3z M4.7,8.5C4.2,8.4,3.9,7.8,4,7.3s0.7-0.8,1.2-0.7C5.7,6.7,6,7.3,5.9,7.8C5.7,8.3,5.2,8.7,4.7,8.5z M6.3,3.5
		C5.9,3.4,5.7,3.1,5.8,2.7s0.4-0.6,0.8-0.5C7,2.3,7.2,2.7,7.1,3C7,3.4,6.7,3.6,6.3,3.5z M7.9,3.9C8,3.5,8.3,3.3,8.7,3.4
		C9,3.5,9.2,3.9,9.1,4.2C9,4.6,8.7,4.8,8.3,4.7C8,4.6,7.8,4.3,7.9,3.9z M8.8,6.9C8.4,6.8,8.2,6.5,8.3,6.1s0.4-0.6,0.8-0.5
		C9.5,5.7,9.7,6,9.6,6.4C9.5,6.8,9.2,7,8.8,6.9z"/>
</g>
</svg>
