<?xml version="1.0" encoding="utf-8"?>
<!-- Generator: Adobe Illustrator 17.1.0, SVG Export Plug-In . SVG Version: 6.00 Build 0)  -->
<!DOCTYPE svg PUBLIC "-//W3C//DTD SVG 1.1//EN" "http://www.w3.org/Graphics/SVG/1.1/DTD/svg11.dtd">
<svg version="1.1"
	 id="svg2" xmlns:svg="http://www.w3.org/2000/svg" xmlns:cc="http://creativecommons.org/ns#" xmlns:dc="http://purl.org/dc/elements/1.1/" xmlns:rdf="http://www.w3.org/1999/02/22-rdf-syntax-ns#"
	 xmlns="http://www.w3.org/2000/svg" xmlns:xlink="http://www.w3.org/1999/xlink" x="0px" y="0px" width="23px" height="23px"
	 viewBox="0 0 23 23" enable-background="new 0 0 23 23" xml:space="preserve">
<ellipse id="ellipse4" fill="#FFFFFF" cx="11.5" cy="11.5" rx="11.5" ry="11.5"/>
<ellipse id="ellipse6" fill="#A9A199" cx="11.5" cy="11.5" rx="10.5" ry="10.5"/>
<g id="g8" transform="translate(4,4)">
	<path id="path5230" fill="#FFFFFF" d="M5.3,4.4L6,9.5c0,0,0,1,1,1h1c1,0,1-1,1-1l0.7-5.1C9.7,3,7.5,3,7.5,3S5.3,3,5.3,4.4z M3.5,5
		C2,5,2,6,2,6l1,4h1.5c0.8,0,0.8-0.8,0.8-0.8L4.5,5H3.5z M1.5,7.5c0,0-0.6,0-1.1,0.4C0,8.4,0,8.8,0,8.8V11h0.9C2,11,2,10,2,10
		L1.5,7.5z"/>
	<path id="path5230-2" fill="#FFFFFF" d="M11.5,5C13,5,13,6,13,6l-1,4h-1.5c-0.8,0-0.8-0.8-0.8-0.8L10.5,5H11.5z M13.5,7.5
		c0,0,0.6,0,1.1,0.4C15,8.4,15,8.8,15,8.8V11h-0.9C13,11,13,10,13,10L13.5,7.5z"/>
</g>
</svg>
