<svg viewBox="-4 -4 23 23" width="23" height="23" data-reactid=".0.1.1.$bakery-15=1svg11.0.0"><rect x="-3" y="-3" rx="10.5" ry="10.5" width="21" height="21" stroke="#fff" style="stroke-linejoin:round;stroke-miterlimit:4px;" fill="#fff" stroke-width="2" data-reactid=".0.1.1.$bakery-15=1svg11.0.0.0"></rect><rect x="-3" y="-3" width="21" height="21" rx="10.5" ry="10.5" fill="#7f7874" data-reactid=".0.1.1.$bakery-15=1svg11.0.0.1"></rect><path fill="#fff" d="M 5.2941176,4.3823529 6,9.5 c 0,0 0,1 1,1 l 1,0 c 1,0 1,-1 1,-1 L 9.7058824,4.3823529 C 9.7058824,3 7.5,3 7.5,3 7.5,3 5.2909892,3 5.2941176,4.3823529 Z M 3.5,5 C 2,5 2,6 2,6 l 1,4 1.5,0 C 5.2550138,10 5.2941176,9.2352941 5.2941176,9.2352941 L 4.5,5 Z m -2,2.5 C 1.5,7.5 0.88235294,7.4705882 0.44117647,7.9117647 0,8.3529412 0,8.7941176 0,8.7941176 L 0,11 0.88235294,11 C 2,11 2,10 2,10 Z" data-reactid=".0.1.1.$bakery-15=1svg11.0.0.3:$bakery-15=1svg-0-fill"></path><path fill="#fff" d="M 11.5,5 C 13,5 13,6 13,6 l -1,4 -1.5,0 C 9.744986,10 9.705882,9.235294 9.705882,9.235294 L 10.5,5 Z m 2,2.5 c 0,0 0.617647,-0.02941 1.058823,0.411765 C 15,8.352941 15,8.794118 15,8.794118 L 15,11 14.117647,11 C 13,11 13,10 13,10 Z" data-reactid=".0.1.1.$bakery-15=1svg11.0.0.3:$bakery-15=1svg-1-fill"></path></svg>