<svg viewBox="-4 -4 19 19" width="19" height="19" data-reactid=".0.1.1.$bakery-11=1svg10.0.0"><rect x="-3" y="-3" rx="8.5" ry="8.5" width="17" height="17" stroke="#fff" style="stroke-linejoin:round;stroke-miterlimit:4px;" fill="#fff" stroke-width="2" data-reactid=".0.1.1.$bakery-11=1svg10.0.0.0"></rect><rect x="-3" y="-3" width="17" height="17" rx="8.5" ry="8.5" fill="#7f7874" data-reactid=".0.1.1.$bakery-11=1svg10.0.0.1"></rect><path fill="#fff" d="m 4.5,2 c -1,0 -1,1 -1,1 L 5,7.5 C 5,7.5 5,8 5.5,8 6,8 6,7.5 6,7.5 L 7.5,3 c 0,0 0,-1 -1,-1 z m 4.5,1.5 -2,4 1.5,0 1,1 0.5,0 c 1,0 1,-0.9 1,-0.9 L 11,6.3 Z M 0,6.3 0,7.5 c 0,0 0.02960301,1.0097438 0.99999997,1 C 1.970397,8.49026 1.5,8.5 1.5,8.5 l 1,-1 1.5,0 -2,-4 z" data-reactid=".0.1.1.$bakery-11=1svg10.0.0.3:$bakery-11=1svg-0-fill"></path></svg>