<?xml version="1.0" encoding="utf-8"?>
<!-- Generator: Adobe Illustrator 17.1.0, SVG Export Plug-In . SVG Version: 6.00 Build 0)  -->
<!DOCTYPE svg PUBLIC "-//W3C//DTD SVG 1.1//EN" "http://www.w3.org/Graphics/SVG/1.1/DTD/svg11.dtd">
<svg version="1.1"
	 id="svg2" xmlns:svg="http://www.w3.org/2000/svg" xmlns:cc="http://creativecommons.org/ns#" xmlns:dc="http://purl.org/dc/elements/1.1/" xmlns:rdf="http://www.w3.org/1999/02/22-rdf-syntax-ns#"
	 xmlns="http://www.w3.org/2000/svg" xmlns:xlink="http://www.w3.org/1999/xlink" x="0px" y="0px" width="23px" height="23px"
	 viewBox="0 0 23 23" enable-background="new 0 0 23 23" xml:space="preserve">
<ellipse id="ellipse4" fill="#FFFFFF" cx="11.5" cy="11.5" rx="11.5" ry="11.5"/>
<ellipse id="ellipse6" fill="#A9A199" cx="11.5" cy="11.5" rx="10.5" ry="10.5"/>
<g id="g8" transform="translate(4,4)">
	<g id="g9">
	</g>
	<path id="rect5668" fill="#FFFFFF" d="M1,3C0.4,3,0,3.4,0,4v7c0,0.6,0.4,1,1,1h13c0.6,0,1-0.4,1-1V4c0-0.6-0.4-1-1-1H1z M1,4h1.5
		C2.8,4,3,4.2,3,4.5S2.8,5,2.5,5S2,4.8,2,4.5L1.5,5C1.8,5,2,5.2,2,5.5S1.8,6,1.5,6S1,5.8,1,5.5V4z M7.5,4C8.9,4,10,5.6,10,7.5l0,0
		C10,9.4,8.9,11,7.5,11S5,9.4,5,7.5S6.1,4,7.5,4z M12.5,4H14v1.5C14,5.8,13.8,6,13.5,6S13,5.8,13,5.5S13.2,5,13.5,5L13,4.5
		C13,4.8,12.8,5,12.5,5S12,4.8,12,4.5S12.2,4,12.5,4z M7.5,5.5C7.2,5.5,7,5.6,6.8,5.8h1.4C8,5.6,7.8,5.5,7.5,5.5z M6.6,6
		c0,0.1-0.1,0.2-0.1,0.2h1.9c0-0.1,0-0.2-0.1-0.2H6.6z M6.5,6.5v0.2h2V6.5H6.5z M6.5,7v0.2h2V7H6.5z M6.5,7.5v0.2h2V7.5H6.5z M6.5,8
		L6.2,8.2h2L8.5,8H6.5z M6,8.5c0,0,0,0.1,0.1,0.2h2.3L8,8.5H6z M1.5,9C1.8,9,2,9.2,2,9.5S1.8,10,1.5,10L2,10.5C2,10.2,2.2,10,2.5,10
		S3,10.2,3,10.5S2.8,11,2.5,11H1V9.5C1,9.2,1.2,9,1.5,9z M6.2,9c0,0.1,0.1,0.2,0.1,0.2h2.3C8.7,9.1,8.8,9,8.8,9H6.2z M13.5,9
		C13.8,9,14,9.2,14,9.5V11h-1.5c-0.3,0-0.5-0.2-0.5-0.5s0.2-0.5,0.5-0.5s0.5,0.2,0.5,0.5l0.5-0.5C13.2,10,13,9.8,13,9.5
		S13.2,9,13.5,9z M6.6,9.5c0.1,0.1,0.2,0.2,0.3,0.2h1.4c0.1-0.1,0.2-0.2,0.3-0.2H6.6z"/>
</g>
</svg>
