<svg viewBox="-4 -4 19 19" width="19" height="19" data-reactid=".0.1.1.$bar-11=1svg0.0.0"><rect x="-3" y="-3" rx="8.5" ry="8.5" width="17" height="17" stroke="#fff" style="stroke-linejoin:round;stroke-miterlimit:4px;" fill="#fff" stroke-width="2" data-reactid=".0.1.1.$bar-11=1svg0.0.0.0"></rect><rect x="-3" y="-3" width="17" height="17" rx="8.5" ry="8.5" fill="#a57453" data-reactid=".0.1.1.$bar-11=1svg0.0.0.1"></rect><path fill="#fff" d="M 5.4882812,1 C 4.9759317,1 0.5,1 1,1.5 L 5,6 5,8.5 C 5,9 2.5,9 2.5,10 l 6,0 C 8.5,9 6,9 6,8.5 L 6,6 10,1.5 C 10.5,1 6.0006307,1 5.4882812,1 Z M 2.5,2 l 6,0 -1,1 -4,0 -1,-1 z" data-reactid=".0.1.1.$bar-11=1svg0.0.0.3:$bar-11=1svg-0-fill"></path></svg>