<svg viewBox="-4 -4 23 23" width="23" height="23" data-reactid=".0.1.1.$bar-15=1svg1.0.0"><rect x="-3" y="-3" rx="10.5" ry="10.5" width="21" height="21" stroke="#fff" style="stroke-linejoin:round;stroke-miterlimit:4px;" fill="#fff" stroke-width="2" data-reactid=".0.1.1.$bar-15=1svg1.0.0.0"></rect><rect x="-3" y="-3" width="21" height="21" rx="10.5" ry="10.5" fill="#a57453" data-reactid=".0.1.1.$bar-15=1svg1.0.0.1"></rect><path fill="#fff" d="M 7.5,1 C 5.5,1 0.5,1.25 1,1.75 L 7,8 7,12 c 0,1 -3,0.5 -3,2 l 7,0 C 11,12.5 8,13 8,12 L 8,8 14,1.75 C 14.5,1.25 9.5,1 7.5,1 Z m 0,1 c 2.5,0 4.75,0.25 4.75,0.25 L 11.5,3 3.5,3 2.75,2.25 C 2.75,2.25 5,2 7.5,2 Z" data-reactid=".0.1.1.$bar-15=1svg1.0.0.3:$bar-15=1svg-0-fill"></path></svg>