<svg xmlns="http://www.w3.org/2000/svg" width="20" height="17" viewBox="0 0 20 17"><title>rails-icons</title><path d="M2.3,7.73L9.41,2.15a1,1,0,0,1,1.18,0L17.7,7.73a1,1,0,0,1,0,1.54l-7.1,5.58a1,1,0,0,1-1.18,0L2.3,9.27A1,1,0,0,1,2.3,7.73Z" fill="#e97475"/><polygon points="6.5 11.5 6.5 5.5 8.92 5.5 10 9.24 11.08 5.5 13.5 5.5 13.5 11.5 11.7 11.5 11.83 7.65 10.7 11.5 9.3 11.5 8.19 7.65 8.3 11.5 6.5 11.5" fill="#fff"/><path d="M10,1.95a1,1,0,0,1,.59.21L17.7,7.73a1,1,0,0,1,0,1.54l-7.1,5.58a1,1,0,0,1-1.18,0L2.3,9.27a1,1,0,0,1,0-1.54L9.41,2.15A1,1,0,0,1,10,1.95M10,0h0A2.89,2.89,0,0,0,8.23.61L1.12,6.19a2.94,2.94,0,0,0,0,4.61l7.11,5.58a2.87,2.87,0,0,0,3.55,0l7.1-5.58a2.94,2.94,0,0,0,0-4.61L11.78,0.62A2.89,2.89,0,0,0,10,0h0Z" fill="#fff"/></svg>