<?xml version="1.0" encoding="utf-8"?>
<!-- Generator: Adobe Illustrator 17.1.0, SVG Export Plug-In . SVG Version: 6.00 Build 0)  -->
<!DOCTYPE svg PUBLIC "-//W3C//DTD SVG 1.1//EN" "http://www.w3.org/Graphics/SVG/1.1/DTD/svg11.dtd">
<svg version="1.1"
	 id="svg2" xmlns:svg="http://www.w3.org/2000/svg" xmlns:cc="http://creativecommons.org/ns#" xmlns:dc="http://purl.org/dc/elements/1.1/" xmlns:rdf="http://www.w3.org/1999/02/22-rdf-syntax-ns#"
	 xmlns="http://www.w3.org/2000/svg" xmlns:xlink="http://www.w3.org/1999/xlink" x="0px" y="0px" width="23px" height="23px"
	 viewBox="0 0 23 23" enable-background="new 0 0 23 23" xml:space="preserve">
<ellipse id="ellipse4" fill="#FFFFFF" cx="11.5" cy="11.5" rx="11.5" ry="11.5"/>
<ellipse id="ellipse6" fill="#7E9A4C" cx="11.5" cy="11.5" rx="10.5" ry="10.5"/>
<g id="g8" transform="translate(4,4)">
	<path id="path20837" fill="#FFFFFF" d="M1.9,0C1.6,0,1,0,0.5,0.5C-0.1,1.1,0,2,0,2c3,4.1,8.3,7.5,9.4,8.6l3,2.9
		c-0.3,0.4-0.2,0.9,0.1,1.3c0.4,0.4,1,0.4,1.4,0l0.7-0.7c0.4-0.4,0.4-1,0-1.4c-0.3-0.3-0.8-0.4-1.2-0.1l-2.9-3.1C7.8,6.4,6.1,3,2,0
		H1.9z M3.6,9.8c-1,0-1.8,0.8-1.8,1.8s0.8,1.8,1.8,1.8s1.8-0.8,1.8-1.8S4.6,9.8,3.6,9.8z"/>
</g>
</svg>
