<?xml version="1.0" encoding="utf-8"?>
<!-- Generator: Adobe Illustrator 17.1.0, SVG Export Plug-In . SVG Version: 6.00 Build 0)  -->
<!DOCTYPE svg PUBLIC "-//W3C//DTD SVG 1.1//EN" "http://www.w3.org/Graphics/SVG/1.1/DTD/svg11.dtd">
<svg version="1.1"
	 id="svg2" xmlns:svg="http://www.w3.org/2000/svg" xmlns:cc="http://creativecommons.org/ns#" xmlns:dc="http://purl.org/dc/elements/1.1/" xmlns:rdf="http://www.w3.org/1999/02/22-rdf-syntax-ns#"
	 xmlns="http://www.w3.org/2000/svg" xmlns:xlink="http://www.w3.org/1999/xlink" x="0px" y="0px" width="19px" height="19px"
	 viewBox="0 0 19 19" enable-background="new 0 0 19 19" xml:space="preserve">
<ellipse id="ellipse4" fill="#FFFFFF" cx="9.5" cy="9.5" rx="9.5" ry="9.5"/>
<ellipse id="ellipse6" fill="#7E9A4C" cx="9.5" cy="9.5" rx="8.5" ry="8.5"/>
<g id="g8" transform="translate(4.5,4.5)">
	<path id="rect3338" fill="#FFFFFF" d="M2.6,0L0,2.6v3.5L0.9,7h0.9l1.8,2.6h2.6L8,7h0.9l0.9-0.9V2.6L7.1,0H2.6z M2.6,1.8H7v3.5H2.6
		V1.8z M3.5,2.6v1.8h2.6V2.6H3.5z M3.1,7.1h1.3V8h0.9V7.1h1.3L6.2,7.9H5.3v0.9H4.4V7.9H3.5L3.1,7.1z"/>
</g>
</svg>
