<?xml version="1.0" encoding="UTF-8" standalone="no"?>
<svg
   xmlns:dc="http://purl.org/dc/elements/1.1/"
   xmlns:cc="http://creativecommons.org/ns#"
   xmlns:rdf="http://www.w3.org/1999/02/22-rdf-syntax-ns#"
   xmlns:svg="http://www.w3.org/2000/svg"
   xmlns="http://www.w3.org/2000/svg"
   id="svg2"
   width="23"
   height="23"
   viewBox="0 0 23 23"
   version="1.1">
  <metadata
     id="metadata14">
    <rdf:RDF>
      <cc:Work
         rdf:about="">
        <dc:format>image/svg+xml</dc:format>
        <dc:type
           rdf:resource="http://purl.org/dc/dcmitype/StillImage" />
      </cc:Work>
    </rdf:RDF>
  </metadata>
  <defs
     id="defs12" />
  <ellipse
     id="ellipse4"
     ry="11.5"
     rx="11.5"
     cy="11.5"
     cx="11.5"
     style="fill:#ffffff;stroke:none;" />
  <ellipse
     id="ellipse6"
     ry="10.5"
     rx="10.5"
     cy="11.5"
     cx="11.5"
     style="fill:#7e9a4c;stroke:none;" />
  <g
     id="g8"
     transform="translate(4,4)">
    <metadata     id="metadata13"><rdf:RDF><cc:Work         rdf:about=""><dc:format>image/svg+xml</dc:format><dc:type           rdf:resource="http://purl.org/dc/dcmitype/StillImage" /><dc:title /></cc:Work></rdf:RDF></metadata><defs     id="defs11" /><path     d="m 3,1 -3,3 0,6 c 0,0 0,1 1,1 l 2,0 2,4 5,0 2,-4 2,0 c 1,0 1,-1 1,-1 L 15,4 12,1 Z m 1,3 1,0 5,0 1,0 0,1 0,3 0,1 L 10,9 5,9 4,9 4,8 4,5 Z m 1,1 0,3 5,0 0,-3 z m -0.5,6 1.5,0 0,1 -1,0 z m 2.5,0 1,0 0,1 -1,0 z m 2,0 1.5,0 -0.5,1 -1,0 z M 5.5,13 7,13 7,14 6,14 Z M 8,13 9.5,13 9,14 8,14 Z"     id="rect7"     style="fill:#ffffff" />
  </g>
</svg>
