<?xml version="1.0" encoding="utf-8"?>
<!-- Generator: Adobe Illustrator 17.1.0, SVG Export Plug-In . SVG Version: 6.00 Build 0)  -->
<!DOCTYPE svg PUBLIC "-//W3C//DTD SVG 1.1//EN" "http://www.w3.org/Graphics/SVG/1.1/DTD/svg11.dtd">
<svg version="1.1"
	 id="svg2" xmlns:svg="http://www.w3.org/2000/svg" xmlns:cc="http://creativecommons.org/ns#" xmlns:dc="http://purl.org/dc/elements/1.1/" xmlns:rdf="http://www.w3.org/1999/02/22-rdf-syntax-ns#"
	 xmlns="http://www.w3.org/2000/svg" xmlns:xlink="http://www.w3.org/1999/xlink" x="0px" y="0px" width="19px" height="19px"
	 viewBox="0 0 19 19" enable-background="new 0 0 19 19" xml:space="preserve">
<ellipse id="ellipse4" fill="#FFFFFF" cx="9.5" cy="9.5" rx="9.5" ry="9.5"/>
<ellipse id="ellipse6" fill="#AB9483" cx="9.5" cy="9.5" rx="8.5" ry="8.5"/>
<g id="g8" transform="translate(4,4)">
	<path id="path10577" fill="#FFFFFF" d="M5.5,0.1c-1.2,0-2.5,0.1-3,0.4c0,0-0.5,1-0.5,2.5c0,2.5,1.5,3.5,1,7.5c0.5,0.5,4.5,0.5,5,0
		c-0.5-4,1-5,1-7.5c0-1.5-0.5-2.5-0.5-2.5C8,0.2,6.8,0.1,5.5,0.1z M5.4,0.9c1,0,2.1,0.1,2.6,0.4l0.2,1C7,3,4,3,2.8,2.2l0.2-1
		C3.4,1,4.4,0.9,5.4,0.9z M4.1,9.2C4.5,9.3,5,9.4,5.5,9.4s1-0.1,1.4-0.2C7,9.4,7,9.8,7,10c-0.5,0.5-2.5,0.5-3,0C4,9.8,4,9.4,4.1,9.2
		z"/>
</g>
</svg>
