<?xml version="1.0" encoding="utf-8"?>
<!-- Generator: Adobe Illustrator 17.1.0, SVG Export Plug-In . SVG Version: 6.00 Build 0)  -->
<!DOCTYPE svg PUBLIC "-//W3C//DTD SVG 1.1//EN" "http://www.w3.org/Graphics/SVG/1.1/DTD/svg11.dtd">
<svg version="1.1"
	 id="svg2" xmlns:svg="http://www.w3.org/2000/svg" xmlns:cc="http://creativecommons.org/ns#" xmlns:dc="http://purl.org/dc/elements/1.1/" xmlns:rdf="http://www.w3.org/1999/02/22-rdf-syntax-ns#"
	 xmlns="http://www.w3.org/2000/svg" xmlns:xlink="http://www.w3.org/1999/xlink" x="0px" y="0px" width="23px" height="23px"
	 viewBox="0 0 23 23" enable-background="new 0 0 23 23" xml:space="preserve">
<ellipse id="ellipse4" fill="#FFFFFF" cx="11.5" cy="11.5" rx="11.5" ry="11.5"/>
<ellipse id="ellipse6" fill="#AB9483" cx="11.5" cy="11.5" rx="10.5" ry="10.5"/>
<g id="g8" transform="translate(5,5)">
	<path id="path10577" fill="#FFFFFF" d="M6.6,0C6.2,0,3.5,0,3.1,0.7c0,0-0.4,1.8-0.4,3.1C2.6,6,4,8.6,3.5,12.1c0,1.3,6.2,1.3,6.2,0
		C9.3,8.6,10.6,6,10.6,3.8c0-1.3-0.4-3.1-0.4-3.1C9.7,0,7.1,0,6.6,0z M6.6,0.9c0.4,0,2.6,0,3.1,0.4c0,0,0.4,1.3,0.2,1.8
		c-1.1,0.7-5.5,0.7-6.6,0C3.1,2.6,3.5,1.3,3.5,1.3C4,0.9,6.2,0.9,6.6,0.9z M4.5,10.7c0.4,0.1,0.8,0.4,2.2,0.4c1.3,0,1.8-0.3,2.2-0.4
		c0,0.2,0,1,0,1.2c-0.4,0.4-4,0.4-4.4,0C4.4,11.7,4.4,10.9,4.5,10.7z"/>
</g>
</svg>
