<?xml version="1.0" encoding="utf-8"?>
<!-- Generator: Adobe Illustrator 17.1.0, SVG Export Plug-In . SVG Version: 6.00 Build 0)  -->
<!DOCTYPE svg PUBLIC "-//W3C//DTD SVG 1.1//EN" "http://www.w3.org/Graphics/SVG/1.1/DTD/svg11.dtd">
<svg version="1.1"
	 id="svg2" xmlns:svg="http://www.w3.org/2000/svg" xmlns:cc="http://creativecommons.org/ns#" xmlns:dc="http://purl.org/dc/elements/1.1/" xmlns:rdf="http://www.w3.org/1999/02/22-rdf-syntax-ns#"
	 xmlns="http://www.w3.org/2000/svg" xmlns:xlink="http://www.w3.org/1999/xlink" x="0px" y="0px" width="23px" height="23px"
	 viewBox="0 0 23 23" enable-background="new 0 0 23 23" xml:space="preserve">
<ellipse id="ellipse4" fill="#FFFFFF" cx="11.5" cy="11.5" rx="11.5" ry="11.5"/>
<ellipse id="ellipse6" fill="#A9A199" cx="11.5" cy="11.5" rx="10.5" ry="10.5"/>
<g id="g8" transform="translate(4.5,4)">
	<path id="circle5072" fill="#FFFFFF" d="M6.6,2.6h1.3v1.1L5.5,5.8L4.6,3.5h0.2c0,0,0.4,0,0.4-0.4S4.8,2.7,4.8,2.7
		c-0.6,0-1.2,0-1.8,0c0,0-0.4,0-0.4,0.4S3,3.5,3,3.5h0.6l1.1,2.9L3.4,7.6c-0.1,0-0.2-0.1-0.3-0.1c-0.5,0-0.9,0.4-0.9,0.9
		s0.4,0.9,0.9,0.9S4,8.9,4,8.4V8.3l4.3-3.5L9.6,8C9.3,8,9.3,8.2,9.3,8.4c0,0.5,0.4,0.9,0.9,0.9s0.9-0.4,0.9-0.9
		c0-0.4-0.3-0.8-0.7-0.9L8.8,3.9V2.6c0-0.9-0.9-0.9-0.9-0.9H6.6c0,0-0.4,0-0.4,0.4C6.2,2.6,6.6,2.6,6.6,2.6z M3.1,5.3
		C1.4,5.3,0,6.7,0,8.4s1.4,3.1,3.1,3.1s3.1-1.4,3.1-3.1c0-0.4-0.1-0.8-0.3-1.2L5.2,7.8C5.3,8,5.3,8.2,5.3,8.4c0,1.2-1,2.2-2.2,2.2
		s-2.2-1-2.2-2.2s1-2.2,2.2-2.2c0.4,0,0.7,0.1,1,0.2l0.2-0.1L3.9,5.4C3.6,5.3,3.4,5.3,3.1,5.3z M10.1,5.3c-0.1,0-0.2,0-0.3,0
		l0.3,0.9c1.2,0,2.1,1,2.1,2.2s-1,2.2-2.2,2.2s-2.2-1-2.2-2.2c0-0.6,0.2-1.2,0.6-1.6L8.2,6C7.5,6.5,7.1,7.4,7.1,8.4
		c0,1.7,1.4,3.1,3.1,3.1s3.1-1.4,3.1-3.1S11.8,5.3,10.1,5.3z"/>
	<g id="g5096">
	</g>
</g>
</svg>
