<svg viewBox="-296 189 23 23" width="23" height="23" data-reactid=".0.1.1.$bicycle-share-15=1svg17.0.0"><rect x="-295" y="190" rx="10.5" ry="10.5" width="21" height="21" stroke="#fff" style="stroke-linejoin:round;stroke-miterlimit:4px;" fill="#fff" stroke-width="2" data-reactid=".0.1.1.$bicycle-share-15=1svg17.0.0.0"></rect><rect x="-295" y="190" width="21" height="21" rx="10.5" ry="10.5" fill="#7f7874" data-reactid=".0.1.1.$bicycle-share-15=1svg17.0.0.1"></rect><path fill="#fff" d="m -282,194 c -0.55228,0 -1,0.44771 -1,1 0,0.55228 0.44772,1 1,1 0.55228,0 1,-0.44772 1,-1 0,-0.55229 -0.44772,-1 -1,-1 z m -1.85547,1.99414 c -0.13001,5.2e-4 -0.25472,0.0517 -0.34765,0.14258 l -2.64063,2.5 c -0.22558,0.21281 -0.20509,0.57751 0.043,0.76367 L -285,200.75 l 0,2.75 c -0.01,0.67616 1.00956,0.67616 1,0 l 0,-3 c 3e-4,-0.15738 -0.0735,-0.30571 -0.19922,-0.40039 l -0.76758,-0.57617 1.81799,-1.72116 0.74842,0.9985 c 0.0947,0.12571 0.24301,0.19952 0.40039,0.19922 l 1.5,0 c 0.67616,0.01 0.67616,-1.00956 0,-1 l -1.25,0 -0.75,-1 -0.59961,-0.80078 c -0.0901,-0.12362 -0.23188,-0.19918 -0.38477,-0.20508 z M -289,200 c -1.65685,0 -3,1.34315 -3,3 0,1.65685 1.34315,3 3,3 1.65685,0 3,-1.34315 3,-3 0,-1.65685 -1.34315,-3 -3,-3 z m 9,0 c -1.65685,0 -3,1.34315 -3,3 0,1.65685 1.34315,3 3,3 1.65685,0 3,-1.34315 3,-3 0,-1.65685 -1.34315,-3 -3,-3 z m -9,1 c 1.10457,0 2,0.89543 2,2 0,1.10457 -0.89543,2 -2,2 -1.10457,0 -2,-0.89543 -2,-2 0,-1.10457 0.89543,-2 2,-2 z m 9,0 c 1.10457,0 2,0.89543 2,2 0,1.10457 -0.89543,2 -2,2 -1.10457,0 -2,-0.89543 -2,-2 0,-1.10457 0.89543,-2 2,-2 z" data-reactid=".0.1.1.$bicycle-share-15=1svg17.0.0.3:$bicycle-share-15=1svg-0-fill"></path></svg>