<svg viewBox="-296 189 23 23" width="23" height="23" data-reactid=".0.1.1.$bicycle-15=1svg15.0.0"><rect x="-295" y="190" rx="10.5" ry="10.5" width="21" height="21" stroke="#fff" style="stroke-linejoin:round;stroke-miterlimit:4px;" fill="#fff" stroke-width="2" data-reactid=".0.1.1.$bicycle-15=1svg15.0.0.0"></rect><rect x="-295" y="190" width="21" height="21" rx="10.5" ry="10.5" fill="#7f7874" data-reactid=".0.1.1.$bicycle-15=1svg15.0.0.1"></rect><path fill="#fff" d="m -284.50003,195 c -0.67616,-0.01 -0.67616,1.00956 0,1 l 1.5,0 0,1.26562 -2.80273,2.33399 -0.97461,-2.59961 0.27734,0 c 0.67616,0.01 0.67616,-1.00956 0,-1 l -1.99997,0 c -0.67616,-0.01 -0.67616,1.00956 0,1 l 0.65234,0 0.89063,2.375 C -287.42477,199.14243 -287.94405,199 -288.5,199 c -1.92707,0 -3.5,1.57293 -3.5,3.5 0,1.92707 1.57293,3.5 3.5,3.5 1.92707,0 3.5,-1.57293 3.5,-3.5 0,-0.66989 -0.20035,-1.29112 -0.5293,-1.82422 l 2.82032,-2.34961 0.46289,1.16016 C -283.28865,200.09373 -284,201.21115 -284,202.5 c 0,1.92707 1.57293,3.5 3.5,3.5 1.92707,0 3.5,-1.57293 3.5,-3.5 0,-1.92707 -1.57293,-3.5 -3.5,-3.5 -0.28313,0 -0.55438,0.0434 -0.81836,0.10742 l -0.68167,-1.70508 0,-1.90234 c -3e-5,-0.27613 -0.22387,-0.49997 -0.5,-0.5 z m -4,5 c 0.59234,0 1.12757,0.21188 1.55469,0.55273 l -1.875,1.5625 c -0.51091,0.42727 0.12779,1.1945 0.64062,0.76954 l 1.875,-1.5625 c 0.1882,0.35176 0.30469,0.7488 0.30469,1.17773 0,1.38663 -1.11337,2.5 -2.5,2.5 -1.38663,0 -2.5,-1.11337 -2.5,-2.5 0,-1.38663 1.11337,-2.5 2.5,-2.5 z m 8,0 c 1.38663,0 2.5,1.11337 2.5,2.5 0,1.38663 -1.11337,2.5 -2.5,2.5 -1.38663,0 -2.5,-1.11337 -2.5,-2.5 0,-0.877 0.44681,-1.64206 1.125,-2.08789 l 0.91016,2.27344 c 0.24596,0.62314 1.18043,0.25012 0.92968,-0.3711 l -0.9082,-2.26953 c 0.14426,-0.0256 0.29143,-0.0449 0.44336,-0.0449 z" data-reactid=".0.1.1.$bicycle-15=1svg15.0.0.3:$bicycle-15=1svg-0-fill"></path></svg>