<svg viewBox="-298 191 19 19" width="19" height="19" data-reactid=".0.1.1.$bicycle-11=1svg14.0.0"><rect x="-297" y="192" rx="8.5" ry="8.5" width="17" height="17" stroke="#fff" style="stroke-linejoin:round;stroke-miterlimit:4px;" fill="#fff" stroke-width="2" data-reactid=".0.1.1.$bicycle-11=1svg14.0.0.0"></rect><rect x="-297" y="192" width="17" height="17" rx="8.5" ry="8.5" fill="#7f7874" data-reactid=".0.1.1.$bicycle-11=1svg14.0.0.1"></rect><path fill="#fff" d="m -287.5,196.00001 c -0.67616,-0.01 -0.67616,1.00956 0,1 l 0.5,0 0,0.71093 -2.74805,1.57032 -0.51367,-1.28125 0.71485,0 c 0.67616,0.01 0.67616,-1.00957 0,-1 l -2.02735,0 c -0.67616,-0.01 -0.67616,1.00956 0,1 l 0.23438,0 0.43164,1.07812 c -0.19075,-0.047 -0.38709,-0.0781 -0.5918,-0.0781 -1.37479,0 -2.5,1.12521 -2.5,2.5 0,1.37479 1.12521,2.5 2.5,2.5 1.37479,0 2.5,-1.12521 2.5,-2.5 0,-0.47135 -0.1399,-0.90777 -0.36914,-1.28516 l 2.4707,-1.41211 0.40235,0.4082 c -0.88229,0.38714 -1.50391,1.26825 -1.50391,2.28907 0,1.37479 1.12521,2.5 2.5,2.5 1.37479,0 2.5,-1.12521 2.5,-2.5 0,-1.29589 -1.00337,-2.35753 -2.26953,-2.47657 L -286,198.29298 l 0,-1.79297 c -3e-5,-0.27613 -0.22387,-0.49998 -0.5,-0.5 z m -4,4 c 0.83435,0 1.5,0.66565 1.5,1.5 0,0.83435 -0.66565,1.5 -1.5,1.5 -0.83435,0 -1.5,-0.66565 -1.5,-1.5 0,-0.83435 0.66565,-1.5 1.5,-1.5 z m 5.95508,0.004 0.002,0 c 0.0299,0.003 0.06,0.003 0.0898,0 0.81179,0.0249 1.45313,0.67776 1.45313,1.49609 0,0.83435 -0.66565,1.5 -1.5,1.5 -0.83435,0 -1.5,-0.66565 -1.5,-1.5 0,-0.81899 0.64235,-1.4722 1.45508,-1.4961 z" data-reactid=".0.1.1.$bicycle-11=1svg14.0.0.3:$bicycle-11=1svg-0-fill"></path></svg>