<svg xmlns="http://www.w3.org/2000/svg" width="26" height="22" viewBox="0 0 26 22">
  <title>br-federal</title>
  <rect width="26" height="22" fill="none"/>
  <g>
    <path d="M13,21.5a0.5,0.5,0,0,1-.35-0.14c-1.53-1.5-3-2-5.65-2-0.83,0-1.8.06-2.95,0.17l-0.39,0C1.77,19.52.5,18.1,0.5,16V3A0.5,0.5,0,0,1,1,2.5H25a0.5,0.5,0,0,1,.5.5V16a3.71,3.71,0,0,1-.89,2.54,3,3,0,0,1-2.26,1h0l-0.41,0a22.19,22.19,0,0,0-2.5-.15c-2.73,0-4.67.64-6.1,2A0.5,0.5,0,0,1,13,21.5Z" fill="#fff"/>
    <path d="M25,3V16a2.71,2.71,0,0,1-2.65,3L22,19a22.5,22.5,0,0,0-2.55-.16c-2.74,0-4.87.64-6.45,2.16-1.54-1.51-3.1-2.18-6-2.18-0.87,0-1.86.06-3,.18L3.66,19C2.14,19,1,18,1,16V3H25m0-1H1A1,1,0,0,0,0,3V16c0,2.4,1.47,4,3.66,4L4.1,20c1.14-.11,2.08-0.17,2.9-0.17,2.82,0,4.08.69,5.3,1.89a1,1,0,0,0,1.39,0c1.34-1.28,3.17-1.88,5.76-1.88a21.64,21.64,0,0,1,2.44.15l0.46,0A3.72,3.72,0,0,0,26,16V3a1,1,0,0,0-1-1h0Z" fill="#3a3836"/>
  </g>
</svg>
