<svg xmlns="http://www.w3.org/2000/svg" width="28" height="20" viewBox="0 0 28 20">
  <title>br-state</title>
  <rect width="28" height="20" fill="none"/>
  <g>
    <path d="M6,17.5a0.5,0.5,0,0,1-.45-0.28l-5-10A0.5,0.5,0,0,1,.79,6.55l13-6a0.5,0.5,0,0,1,.42,0l13,6a0.5,0.5,0,0,1,.24.68l-5,10a0.5,0.5,0,0,1-.45.28H6Z" fill="#fff"/>
    <path d="M14,1L27,7,22,17H6L1,7,14,1m0-1a1,1,0,0,0-.42.09l-13,6A1,1,0,0,0,.11,7.45l5,10A1,1,0,0,0,6,18H22a1,1,0,0,0,.89-0.55l5-10a1,1,0,0,0-.48-1.36l-13-6A1,1,0,0,0,14,0h0Z" fill="#3a3836"/>
  </g>
</svg>
