<?xml version="1.0" encoding="utf-8"?>
<!-- Generator: Adobe Illustrator 17.1.0, SVG Export Plug-In . SVG Version: 6.00 Build 0)  -->
<!DOCTYPE svg PUBLIC "-//W3C//DTD SVG 1.1//EN" "http://www.w3.org/Graphics/SVG/1.1/DTD/svg11.dtd">
<svg version="1.1"
	 id="svg2" xmlns:svg="http://www.w3.org/2000/svg" xmlns:cc="http://creativecommons.org/ns#" xmlns:dc="http://purl.org/dc/elements/1.1/" xmlns:rdf="http://www.w3.org/1999/02/22-rdf-syntax-ns#"
	 xmlns="http://www.w3.org/2000/svg" xmlns:xlink="http://www.w3.org/1999/xlink" x="0px" y="0px" width="23px" height="23px"
	 viewBox="0 0 23 23" enable-background="new 0 0 23 23" xml:space="preserve">
<path id="rect4" fill="#FFFFFF" d="M3,0h17c1.7,0,3,1.3,3,3v17c0,1.7-1.3,3-3,3H3c-1.7,0-3-1.3-3-3V3C0,1.3,1.3,0,3,0z"/>
<path id="rect6" fill="#9C8EA4" d="M3,1h17c1.1,0,2,0.9,2,2v17c0,1.1-0.9,2-2,2H3c-1.1,0-2-0.9-2-2V3C1,1.9,1.9,1,3,1z"/>
<g id="g8" transform="translate(5,5)">
	<path id="path8043" fill="#FFFFFF" d="M3.5,0C2.3,0,0.9,0.7,0.9,2.4v4.8v3.4c0,0,0,0.9,0.9,0.9v0.9c0,0,0,0.9,0.9,0.9
		s0.9-0.9,0.9-0.9v-0.9h6.2v0.9c0,0,0,0.9,0.9,0.9c0.9,0,0.9-0.9,0.9-0.9v-0.9c0,0,0.9,0,0.9-0.9V2.4c0-1.8-1.1-2.4-2.3-2.4H3.5z
		 M3.8,1.3h5.7c0.1,0,0.2,0.1,0.2,0.2S9.6,1.8,9.5,1.8H3.8c-0.1,0-0.2-0.1-0.2-0.2S3.6,1.3,3.8,1.3z M2.6,2.6h7.9
		c0.9,0,0.9,0.9,0.9,0.9v2.7c0,0,0,0.9-0.9,0.9H2.6c-0.9,0-0.9-0.9-0.9-0.9V3.5C1.8,3.5,1.8,2.6,2.6,2.6z M2.6,8.8
		c0.5,0,0.9,0.4,0.9,0.9s-0.4,0.9-0.9,0.9s-0.9-0.4-0.9-0.9S2.2,8.8,2.6,8.8z M10.6,8.8c0.5,0,0.9,0.4,0.9,0.9s-0.4,0.9-0.9,0.9
		c-0.5,0-0.9-0.4-0.9-0.9S10.1,8.8,10.6,8.8z"/>
</g>
</svg>
