<?xml version="1.0" encoding="utf-8"?>
<!-- Generator: Adobe Illustrator 17.1.0, SVG Export Plug-In . SVG Version: 6.00 Build 0)  -->
<!DOCTYPE svg PUBLIC "-//W3C//DTD SVG 1.1//EN" "http://www.w3.org/Graphics/SVG/1.1/DTD/svg11.dtd">
<svg version="1.1"
	 id="svg2" xmlns:svg="http://www.w3.org/2000/svg" xmlns:cc="http://creativecommons.org/ns#" xmlns:dc="http://purl.org/dc/elements/1.1/" xmlns:rdf="http://www.w3.org/1999/02/22-rdf-syntax-ns#"
	 xmlns="http://www.w3.org/2000/svg" xmlns:xlink="http://www.w3.org/1999/xlink" x="0px" y="0px" width="19px" height="19px"
	 viewBox="0 0 19 19" enable-background="new 0 0 19 19" xml:space="preserve">
<path id="rect4" fill="#FFFFFF" d="M3,0h13c1.7,0,3,1.3,3,3v13c0,1.7-1.3,3-3,3H3c-1.7,0-3-1.3-3-3V3C0,1.3,1.3,0,3,0z"/>
<path id="rect6" fill="#9C8EA4" d="M2,1h15c0.6,0,1,0.4,1,1v15c0,0.6-0.4,1-1,1H2c-0.6,0-1-0.4-1-1V2C1,1.4,1.4,1,2,1z"/>
<g id="g8" transform="translate(4,4)">
	<path id="path8043" fill="#FFFFFF" d="M3,0C2,0,1,0.5,1,2v4v3.5c0,0,0,0.5,0.5,0.5L2,10v0.5c0,0,0,0.5,0.5,0.5H3c0,0,0.5,0,0.5-0.5
		V10l4,0v0.5c0,0,0,0.5,0.5,0.5h0.5C9,11,9,10.5,9,10.5V10l0.5,0c0,0,0.5,0,0.5-0.5V6V2c0-1.5-1-2-2-2H3z M3.8,1h3.5
		c0.1,0,0.2,0.1,0.2,0.2S7.4,1.5,7.2,1.5H3.8c-0.1,0-0.2-0.1-0.2-0.2S3.6,1,3.8,1z M3,2h5c1,0,1,1,1,1v2c0,0,0,1-1,1H3C2,6,2,5,2,5
		V3C2,3,2,2,3,2z M2.8,7.5c0.4,0,0.8,0.3,0.8,0.8C3.5,8.7,3.2,9,2.8,9S2,8.7,2,8.2C2,7.8,2.3,7.5,2.8,7.5z M8.2,7.5
		C8.7,7.5,9,7.8,9,8.2C9,8.7,8.7,9,8.2,9C7.8,9,7.5,8.7,7.5,8.2C7.5,7.8,7.8,7.5,8.2,7.5z"/>
</g>
</svg>
