<svg viewBox="-4 -4 19 19" width="19" height="19" data-reactid=".0.1.1.$cafe-11=1svg4.0.0"><rect x="-3" y="-3" rx="8.5" ry="8.5" width="17" height="17" stroke="#fff" style="stroke-linejoin:round;stroke-miterlimit:4px;" fill="#fff" stroke-width="2" data-reactid=".0.1.1.$cafe-11=1svg4.0.0.0"></rect><rect x="-3" y="-3" width="17" height="17" rx="8.5" ry="8.5" fill="#a57453" data-reactid=".0.1.1.$cafe-11=1svg4.0.0.1"></rect><path fill="#fff" d="m 9,2.5 c 0,0 1,6 -3.5,6 C 1,8.5 2,2.5 2,2.5 2.5,2 8.5,2 9,2.5 Z" data-reactid=".0.1.1.$cafe-11=1svg4.0.0.3:$cafe-11=1svg-0-fill"></path><path fill="#fff" d="M 1.25,9 9.75,9 10,9.5 c -2,0.75 -7,0.75 -9,0 z" data-reactid=".0.1.1.$cafe-11=1svg4.0.0.3:$cafe-11=1svg-1-fill"></path><path fill="#fff" d="m 9,3.25 c 1.5,-0.5 2,0.25 2,1.25 0,1 -0.5,2 -2,2 C 7.5,6.5 8.5,5.75 8.5,5.75 8.5,5.75 10.25,6 10.25,4.5 10.25,3 8.5,4.25 8.5,4.25 Z" data-reactid=".0.1.1.$cafe-11=1svg4.0.0.3:$cafe-11=1svg-2-fill"></path></svg>