<?xml version="1.0" encoding="utf-8"?>
<!-- Generator: Adobe Illustrator 17.1.0, SVG Export Plug-In . SVG Version: 6.00 Build 0)  -->
<!DOCTYPE svg PUBLIC "-//W3C//DTD SVG 1.1//EN" "http://www.w3.org/Graphics/SVG/1.1/DTD/svg11.dtd">
<svg version="1.1"
	 id="svg2" xmlns:svg="http://www.w3.org/2000/svg" xmlns:cc="http://creativecommons.org/ns#" xmlns:dc="http://purl.org/dc/elements/1.1/" xmlns:rdf="http://www.w3.org/1999/02/22-rdf-syntax-ns#"
	 xmlns="http://www.w3.org/2000/svg" xmlns:xlink="http://www.w3.org/1999/xlink" x="0px" y="0px" width="19px" height="19px"
	 viewBox="0 0 19 19" enable-background="new 0 0 19 19" xml:space="preserve">
<ellipse id="ellipse4" fill="#FFFFFF" cx="9.5" cy="9.5" rx="9.5" ry="9.5"/>
<ellipse id="ellipse6" fill="#AB9483" cx="9.5" cy="9.5" rx="8.5" ry="8.5"/>
<g id="g8" transform="translate(4,3.5)">
	<path id="path9873" fill="#FFFFFF" d="M9,2.5c0,0,1,6-3.5,6S2,2.5,2,2.5C2.5,2,8.5,2,9,2.5z"/>
	<path id="path9940" fill="#FFFFFF" d="M1.2,9h8.5L10,9.5c-2,0.8-7,0.8-9,0L1.2,9z"/>
	<path id="path9946" fill="#FFFFFF" d="M9,3.2c1.5-0.5,2,0.2,2,1.2s-0.5,2-2,2S8.5,5.8,8.5,5.8s1.8,0.2,1.8-1.2S8.5,4.2,8.5,4.2
		L9,3.2z"/>
</g>
</svg>
