<?xml version="1.0" encoding="utf-8"?>
<!-- Generator: Adobe Illustrator 17.1.0, SVG Export Plug-In . SVG Version: 6.00 Build 0)  -->
<!DOCTYPE svg PUBLIC "-//W3C//DTD SVG 1.1//EN" "http://www.w3.org/Graphics/SVG/1.1/DTD/svg11.dtd">
<svg version="1.1"
	 id="svg2" xmlns:svg="http://www.w3.org/2000/svg" xmlns:cc="http://creativecommons.org/ns#" xmlns:dc="http://purl.org/dc/elements/1.1/" xmlns:rdf="http://www.w3.org/1999/02/22-rdf-syntax-ns#"
	 xmlns="http://www.w3.org/2000/svg" xmlns:xlink="http://www.w3.org/1999/xlink" x="0px" y="0px" width="23px" height="23px"
	 viewBox="0 0 23 23" enable-background="new 0 0 23 23" xml:space="preserve">
<ellipse id="ellipse4" fill="#FFFFFF" cx="11.5" cy="11.5" rx="11.5" ry="11.5"/>
<ellipse id="ellipse6" fill="#AB9483" cx="11.5" cy="11.5" rx="10.5" ry="10.5"/>
<g id="g8" transform="translate(5,4)">
	<path id="path9873" fill="#FFFFFF" d="M5.7,2.8C4.1,2.8,2.4,3,2,3.3c0,0-2,6.6,3.8,6.6c1.7,0,2.8-0.6,3.4-1.5l0,0
		c0.6-1,0.8-0.4,1.7-0.5s1.6-0.9,1.6-1.8c0-2.1-1.9-2.1-2.6-1.4C9.7,3.9,9.5,3.3,9.5,3.3C9,3,7.4,2.8,5.7,2.8z M10.6,5.1
		c0.2,0,0.5,0.1,0.6,0.2c0.2,0.2,0.5,0.9,0.1,1.5c-0.5,0.7-1.4,0.6-1.6,0c0.1-0.3,0.1-0.7,0.1-1C9.8,5.3,10.2,5.1,10.6,5.1z
		 M1.1,10.6L0.9,11c1.8,0.7,7.9,0.7,9.7,0l-0.2-0.4H1.1z"/>
</g>
</svg>
