<svg viewBox="-4 -4 23 23" width="23" height="23" data-reactid=".0.1.1.$cafe-15=1svg5.0.0"><rect x="-3" y="-3" rx="10.5" ry="10.5" width="21" height="21" stroke="#fff" style="stroke-linejoin:round;stroke-miterlimit:4px;" fill="#fff" stroke-width="2" data-reactid=".0.1.1.$cafe-15=1svg5.0.0.0"></rect><rect x="-3" y="-3" width="21" height="21" rx="10.5" ry="10.5" fill="#a57453" data-reactid=".0.1.1.$cafe-15=1svg5.0.0.1"></rect><path fill="#fff" d="m 6.5,3.1833442 c -1.8750002,-1e-7 -3.7499999,0.1821613 -4.25,0.5488281 0,0 -2.25000015,7.5175777 4.25,7.5175777 1.9726817,0 3.1305143,-0.69768 3.798828,-1.6621091 l -0.0059,0.017578 C 11.019422,8.5168306 11.22263,9.1501412 12.17574,9.072016 13.172398,8.990321 13.999959,7.9997503 13.999959,6.9997504 13.999959,4.6051925 11.832055,4.6430027 11.05074,5.4255315 10.943877,4.4597104 10.75,3.7321723 10.75,3.7321723 10.249999,3.3655055 8.3750003,3.1833442 6.5,3.1833442 Z m 5.527344,2.6054686 c 0.269297,0.00138 0.536068,0.092147 0.703125,0.2519532 0.278406,0.2663168 0.561958,0.981301 0.07226,1.6679687 -0.602009,0.8441639 -1.607954,0.6633027 -1.779293,-0.013672 0.06135,-0.3706316 0.09298,-0.7400974 0.09766,-1.1015625 0.03163,-0.567417 0.469011,-0.8069369 0.90625,-0.8046876 z M 1.2500001,11.968501 1,12.468501 c 2.0000002,0.749999 9.000001,0.749999 11,0 l -0.25,-0.5 -10.4999999,0 z" data-reactid=".0.1.1.$cafe-15=1svg5.0.0.3:$cafe-15=1svg-0-fill"></path></svg>