<svg viewBox="-296 189 23 23" width="23" height="23" data-reactid=".0.1.1.$campsite-15=1svg1.0.0"><rect x="-295" y="190" rx="10.5" ry="10.5" width="21" height="21" stroke="#fff" style="stroke-linejoin:round;stroke-miterlimit:4px;" fill="#fff" stroke-width="2" data-reactid=".0.1.1.$campsite-15=1svg1.0.0.0"></rect><rect x="-295" y="190" width="21" height="21" rx="10.5" ry="10.5" fill="#6b7f33" data-reactid=".0.1.1.$campsite-15=1svg1.0.0.1"></rect><path fill="#fff" d="M-285,194l-5.5,9h-0.5
	c-1,0-1,1-1,1v1c0,0,0,1,1,1h13c1,0,1-1,1-1v-1c0,0,0-1-1-1h-0.5l-5.5-9C-284.2,193.6-284.8,193.6-285,194z M-284.5,197.5l3.2,5.5
	h-6.5L-284.5,197.5z" data-reactid=".0.1.1.$campsite-15=1svg1.0.0.3:$campsite-15=1svg-0-fill"></path></svg>