<svg viewBox="-4 -4 19 19" width="19" height="19" data-reactid=".0.1.1.$campsite-11=1svg0.0.0"><rect x="-3" y="-3" rx="8.5" ry="8.5" width="17" height="17" stroke="#fff" style="stroke-linejoin:round;stroke-miterlimit:4px;" fill="#fff" stroke-width="2" data-reactid=".0.1.1.$campsite-11=1svg0.0.0.0"></rect><rect x="-3" y="-3" width="17" height="17" rx="8.5" ry="8.5" fill="#6b7f33" data-reactid=".0.1.1.$campsite-11=1svg0.0.0.1"></rect><path fill="#fff" d="M 5.5,0.5 1.5,7 0.5,7 C 0,7 0,7.3871263 0,7.3871263 L 0,8.5 C 0,9 0.5,9 0.5,9 l 10,0 C 11,9 11,8.5 11,8.5 L 11,7.3871263 C 11,7.3871263 11,7 10.5,7 c -0.333333,0 -1,0 -1,0 z m 0,3 2,3.5 -4,0 z" data-reactid=".0.1.1.$campsite-11=1svg0.0.0.3:$campsite-11=1svg-0-fill"></path></svg>