<svg viewBox="-4 -4 23 23" width="23" height="23" data-reactid=".0.1.1.$car-15=1svg19.0.0"><rect x="-3" y="-3" rx="10.5" ry="10.5" width="21" height="21" stroke="#fff" style="stroke-linejoin:round;stroke-miterlimit:4px;" fill="#fff" stroke-width="2" data-reactid=".0.1.1.$car-15=1svg19.0.0.0"></rect><rect x="-3" y="-3" width="21" height="21" rx="10.5" ry="10.5" fill="#7f7874" data-reactid=".0.1.1.$car-15=1svg19.0.0.1"></rect><path fill="#fff" d="M 3.5 2 C 3.5 2 2.3750001 2 2 3.5 L 1.5 5.5 C 1.5 5.5 0 6.5 0 8 L 0 11 C 0 11 -7.5555557e-09 12 1 12 L 2 12 L 2 13 C 1.9999999 14 3 14 3 14 L 3.5 14 C 3.5 14 4.5 14 4.5 13 L 4.5 12 L 10.5 12 L 10.5 13 C 10.5 14 11.5 14 11.5 14 L 12 14 C 12 14 13 14 13 13 L 13 12 L 14 12 C 15 12 15 11 15 11 L 15 8 C 15 6.5 13.5 5.5 13.5 5.5 L 13 3.5 C 12.624999 2 11.5 2 11.5 2 L 3.5 2 z M 3.25 3.5 L 11.75 3.5 L 12 4.5 C 12.375001 6 11 6 11 6 L 4 6 C 4 6 2.6250001 6 3 4.5 L 3.25 3.5 z M 3.25 8.5 A 1.25 1.25 0 0 1 4.5 9.75 A 1.25 1.25 0 0 1 3.25 11 A 1.25 1.25 0 0 1 2 9.75 A 1.25 1.25 0 0 1 3.25 8.5 z M 11.75 8.5 A 1.25 1.25 0 0 1 13 9.75 A 1.25 1.25 0 0 1 11.75 11 A 1.25 1.25 0 0 1 10.5 9.75 A 1.25 1.25 0 0 1 11.75 8.5 z " data-reactid=".0.1.1.$car-15=1svg19.0.0.3:$car-15=1svg-0-fill"></path></svg>