<svg viewBox="-4 -4 19 19" width="19" height="19" data-reactid=".0.1.1.$car-11=1svg18.0.0"><rect x="-3" y="-3" rx="8.5" ry="8.5" width="17" height="17" stroke="#fff" style="stroke-linejoin:round;stroke-miterlimit:4px;" fill="#fff" stroke-width="2" data-reactid=".0.1.1.$car-11=1svg18.0.0.0"></rect><rect x="-3" y="-3" width="17" height="17" rx="8.5" ry="8.5" fill="#7f7874" data-reactid=".0.1.1.$car-11=1svg18.0.0.1"></rect><path fill="#fff" d="M 2.5 1 C 2.5 1 1.75 1 1.5 2 L 1 4 C 1 4 0 4.5 0 5.5 L 0 8 C 0 8 0 9 1 9 L 1 9.5 C 1 10 1.5 10 1.5 10 L 2.5 10 C 2.5 10 3 10 3 9.5 L 3 9 L 8 9 L 8 9.5 C 8 10 8.5 10 8.5 10 L 9.5 10 C 9.5 10 10 10 10 9.5 L 10 9 C 11 9 11 8 11 8 L 11 5.5 C 11 4.5 10 4 10 4 L 9.5 2 C 9.244114 0.97645611 8.5 1 8.5 1 L 2.5 1 z M 2.5 2 L 8.5 2 L 8.75 3 C 9.0074763 4.0299052 8 4 8 4 L 3 4 C 3 4 1.9967854 4.0128585 2.25 3 L 2.5 2 z M 2 6 A 1 1 0 0 1 3 7 A 1 1 0 0 1 2 8 A 1 1 0 0 1 1 7 A 1 1 0 0 1 2 6 z M 9 6 A 1 1 0 0 1 10 7 A 1 1 0 0 1 9 8 A 1 1 0 0 1 8 7 A 1 1 0 0 1 9 6 z " data-reactid=".0.1.1.$car-11=1svg18.0.0.3:$car-11=1svg-0-fill"></path></svg>