<?xml version="1.0" encoding="utf-8"?>
<!-- Generator: Adobe Illustrator 17.1.0, SVG Export Plug-In . SVG Version: 6.00 Build 0)  -->
<!DOCTYPE svg PUBLIC "-//W3C//DTD SVG 1.1//EN" "http://www.w3.org/Graphics/SVG/1.1/DTD/svg11.dtd">
<svg version="1.1"
	 id="svg2" xmlns:svg="http://www.w3.org/2000/svg" xmlns:cc="http://creativecommons.org/ns#" xmlns:dc="http://purl.org/dc/elements/1.1/" xmlns:rdf="http://www.w3.org/1999/02/22-rdf-syntax-ns#"
	 xmlns="http://www.w3.org/2000/svg" xmlns:xlink="http://www.w3.org/1999/xlink" x="0px" y="0px" width="23px" height="23px"
	 viewBox="0 0 23 23" enable-background="new 0 0 23 23" xml:space="preserve">
<ellipse id="ellipse4" fill="#FFFFFF" cx="11.5" cy="11.5" rx="11.5" ry="11.5"/>
<ellipse id="ellipse6" fill="#A9A199" cx="11.5" cy="11.5" rx="10.5" ry="10.5"/>
<g id="g8" transform="translate(5,4.5)">
	<path id="path8522-6-8-5" fill="#FFFFFF" d="M3.1,1.8c0,0-1,0-1.3,1.3L1.3,4.9c0,0-1.3,0.9-1.3,2.2v2.6c0,0,0,0.9,0.9,0.9h0.9v0.9
		c0,0.9,0.9,0.9,0.9,0.9h0.4c0,0,0.9,0,0.9-0.9v-0.9h5.3v0.9c0,0.9,0.9,0.9,0.9,0.9h0.4c0,0,0.9,0,0.9-0.9v-0.9h0.9
		c0.9,0,0.9-0.9,0.9-0.9V7.1c0-1.3-1.3-2.2-1.3-2.2l-0.4-1.8c-0.3-1.3-1.3-1.3-1.3-1.3S3.1,1.8,3.1,1.8z M2.9,3.1h7.5L10.6,4
		c0.3,1.3-0.9,1.3-0.9,1.3H3.5c0,0-1.2,0-0.9-1.3L2.9,3.1z M2.9,7.5C3.5,7.5,4,8,4,8.6S3.5,9.7,2.9,9.7S1.8,9.2,1.8,8.6
		S2.3,7.5,2.9,7.5z M10.4,7.5c0.6,0,1.1,0.5,1.1,1.1S11,9.7,10.4,9.7S9.3,9.2,9.3,8.6S9.8,7.5,10.4,7.5z"/>
</g>
</svg>
