<svg viewBox="-4 -4 23 23" width="23" height="23" data-reactid=".0.1.1.$castle-15=1svg21.0.0"><rect x="-3" y="-3" rx="10.5" ry="10.5" width="21" height="21" stroke="#fff" style="stroke-linejoin:round;stroke-miterlimit:4px;" fill="#fff" stroke-width="2" data-reactid=".0.1.1.$castle-15=1svg21.0.0.0"></rect><rect x="-3" y="-3" width="21" height="21" rx="10.5" ry="10.5" fill="#7f7874" data-reactid=".0.1.1.$castle-15=1svg21.0.0.1"></rect><path fill="#fff" d="M3,3.5v-3v0v0C3,0.2,3.2,0,3.5,0h0C3.8,0,4,0.2,4,0.5v0v0V2h1V0.5C5,0.2,5.2,0,5.5,0h1C6.8,0,7,0.2,7,0.5V2h1V0.5
	C8,0.2,8.2,0,8.5,0h1C9.8,0,10,0.2,10,0.5V2h1V0.5v0v0C11,0.2,11.2,0,11.5,0h0C11.8,0,12,0.2,12,0.5v0v0v3C12,3.8,11.8,4,11.5,4h-8
	C3.2,4,3,3.8,3,3.5z M14,14.5c0,0.3-0.2,0.5-0.5,0.5h-12C1.2,15,1,14.8,1,14.5C1,14.2,1.2,14,1.5,14h1C2.8,14,3,13.8,3,13.5l0.8-8.1
	C3.9,5.2,4.1,5,4.4,5h6.3c0.3,0,0.5,0.2,0.5,0.5l0.8,8.1c0,0.3,0.2,0.5,0.5,0.5h1C13.8,14,14,14.2,14,14.5z M9,10.5
	C9,9.7,8.3,9,7.5,9h0C6.7,9,6,9.7,6,10.5V14h3V10.5z" data-reactid=".0.1.1.$castle-15=1svg21.0.0.3:$castle-15=1svg-0-fill"></path></svg>