<svg viewBox="-296 189 23 23" width="23" height="23" data-reactid=".0.1.1.$cemetery-15=1svg3.0.0"><rect x="-295" y="190" rx="10.5" ry="10.5" width="21" height="21" stroke="#fff" style="stroke-linejoin:round;stroke-miterlimit:4px;" fill="#fff" stroke-width="2" data-reactid=".0.1.1.$cemetery-15=1svg3.0.0.0"></rect><rect x="-295" y="190" width="21" height="21" rx="10.5" ry="10.5" fill="#6b7f33" data-reactid=".0.1.1.$cemetery-15=1svg3.0.0.1"></rect><path fill="#fff" d="M-285,194
	c-2,0-4,1-4,5v4h9v-4c0-3.4-2-5-4-5H-285z M-287,198h5v0.5h-5V198z M-287,199h5v0.5h-5V199z M-289,204c0,1.5-0.5,1.5-0.5,1.5v1.5h10
	v-1.5c0,0-0.5,0-0.5-1.5H-289z" data-reactid=".0.1.1.$cemetery-15=1svg3.0.0.3:$cemetery-15=1svg-0-fill"></path></svg>