<svg viewBox="-4 -4 19 19" width="19" height="19" data-reactid=".0.1.1.$cemetery-11=1svg2.0.0"><rect x="-3" y="-3" rx="8.5" ry="8.5" width="17" height="17" stroke="#fff" style="stroke-linejoin:round;stroke-miterlimit:4px;" fill="#fff" stroke-width="2" data-reactid=".0.1.1.$cemetery-11=1svg2.0.0.0"></rect><rect x="-3" y="-3" width="17" height="17" rx="8.5" ry="8.5" fill="#6b7f33" data-reactid=".0.1.1.$cemetery-11=1svg2.0.0.1"></rect><path fill="#fff" d="M 5.5 1 C 3.1020413 1 2 2.9375 2 5 L 2 7 L 9 7 L 9 5 C 9 3 7.8979574 1 5.5 1 z M 4 3.5 L 7 3.5 L 7 4 L 4 4 L 4 3.5 z M 4 4.5 L 7 4.5 L 7 5 L 4 5 L 4 4.5 z M 2 8 C 2 8 2 9 1.5 9 L 1.5 10 L 9.5 10 L 9.5 9 C 9 9 9 8 9 8 L 2 8 z " data-reactid=".0.1.1.$cemetery-11=1svg2.0.0.3:$cemetery-11=1svg-0-fill"></path></svg>