<?xml version="1.0" encoding="utf-8"?>
<!-- Generator: Adobe Illustrator 17.1.0, SVG Export Plug-In . SVG Version: 6.00 Build 0)  -->
<!DOCTYPE svg PUBLIC "-//W3C//DTD SVG 1.1//EN" "http://www.w3.org/Graphics/SVG/1.1/DTD/svg11.dtd">
<svg version="1.1"
	 id="svg2" xmlns:svg="http://www.w3.org/2000/svg" xmlns:cc="http://creativecommons.org/ns#" xmlns:dc="http://purl.org/dc/elements/1.1/" xmlns:rdf="http://www.w3.org/1999/02/22-rdf-syntax-ns#"
	 xmlns="http://www.w3.org/2000/svg" xmlns:xlink="http://www.w3.org/1999/xlink" x="0px" y="0px" width="23px" height="23px"
	 viewBox="0 0 23 23" enable-background="new 0 0 23 23" xml:space="preserve">
<ellipse id="ellipse4" fill="#FFFFFF" cx="11.5" cy="11.5" rx="11.5" ry="11.5"/>
<ellipse id="ellipse6" fill="#7E9A4C" cx="11.5" cy="11.5" rx="10.5" ry="10.5"/>
<g id="g8" transform="translate(5,5)">
	<path id="rect12479-9-1-9" fill="#FFFFFF" d="M6.2,0.9c-1.8,0-3.5,0.9-3.5,4.4v3.5h7.9V5.3c0-3-1.8-4.4-3.5-4.4L6.2,0.9z M4.4,4.4
		h4.4v0.4H4.4V4.4z M4.4,5.3h4.4v0.4H4.4V5.3z M2.6,9.7C2.6,11,2.2,11,2.2,11v1.3H11V11c0,0-0.4,0-0.4-1.3H2.6z"/>
</g>
</svg>
