<?xml version="1.0" encoding="utf-8"?>
<!-- Generator: Adobe Illustrator 17.1.0, SVG Export Plug-In . SVG Version: 6.00 Build 0)  -->
<!DOCTYPE svg PUBLIC "-//W3C//DTD SVG 1.1//EN" "http://www.w3.org/Graphics/SVG/1.1/DTD/svg11.dtd">
<svg version="1.1" id="ref_outlines" xmlns="http://www.w3.org/2000/svg" xmlns:xlink="http://www.w3.org/1999/xlink" x="0px"
	 y="0px" width="20px" height="14px" viewBox="0 0 20 14" enable-background="new 0 0 20 14" xml:space="preserve">
<g id="Layer_4_copy">
	<path fill="#BB4133" d="M10,0l8,2c1,0,2,1,2,2s0,5,0,6s-1,2-2,2l-8,2l-8-2c-1,0-2-1-2-2s0-5,0-6s1-2,2-2L10,0z"/>
	<path fill="#BB4133" d="M10,0l8,2c1,0,2,1,2,2s0,5,0,6s-1,2-2,2l-8,2l-8-2c-1,0-2-1-2-2s0-5,0-6s1-2,2-2L10,0z"/>
</g>
</svg>
