<?xml version="1.0" encoding="utf-8"?>
<!-- Generator: Adobe Illustrator 17.1.0, SVG Export Plug-In . SVG Version: 6.00 Build 0)  -->
<!DOCTYPE svg PUBLIC "-//W3C//DTD SVG 1.1//EN" "http://www.w3.org/Graphics/SVG/1.1/DTD/svg11.dtd">
<svg version="1.1" id="Layer_1" xmlns="http://www.w3.org/2000/svg" xmlns:xlink="http://www.w3.org/1999/xlink" x="0px" y="0px"
	 width="24px" height="12.9px" viewBox="1 1.1 24 12.9" enable-background="new 1 1.1 24 12.9" xml:space="preserve">
<g id="Layer_1_1_" display="none">
	<path display="inline" fill="#FFFFFF" d="M26,15c-1,0-25,0-26,0s-2-1-2-2S-2,0-2-1s1-2,2-2s25.3,0,26,0s2,1,2,2s0,13,0,14
		S27,15,26,15z"/>
	<path display="inline" fill="#276FB7" d="M16.9-6H0c-1,0-2-0.8-2-2c0-3.6,0-11,0-11c0-1,1-2,2-2h17c1,0,2.1,0.8,2.1,2
		c0,0.1,0,10.9,0,11C19-7,18-6,16.9-6z"/>
	<path display="inline" fill="#003399" d="M-0.2,6V0.8c0-0.2,0.1-0.3,0.4-0.4l12-1.9c0,0,0.1,0,0.3,0s0.3,0,0.3,0l12,1.9
		c0.3,0.1,0.4,0.2,0.4,0.4v10.4c0,0.2-0.1,0.3-0.4,0.4l-12,1.9c0,0-0.1,0-0.3,0s-0.3,0-0.3,0l-12-1.9c-0.3-0.1-0.4-0.2-0.4-0.4
		C-0.2,11.2-0.2,6-0.2,6z"/>
	<path display="inline" fill="#003399" d="M-1,6V0.3c0-0.2,0.2-0.4,0.5-0.5l13.2-2.1c0,0,0.1,0,0.3,0s0.3,0,0.3,0l13.2,2.1
		C26.8-0.1,27,0.1,27,0.3v11.4c0,0.2-0.2,0.4-0.5,0.5l-13.2,2.1c0,0-0.1,0-0.3,0s-0.3,0-0.3,0l-13.2-2.1C-0.8,12.1-1,11.9-1,11.7"/>
</g>
<g id="Layer_2" display="none">
	<path display="inline" fill="#FFFFFF" d="M26,15c-1,0-25,0-26,0s-2-1-2-2S-2,0-2-1s1-2,2-2s25.3,0,26,0s2,1,2,2s0,13,0,14
		S27,15,26,15z"/>
	<path display="inline" fill="#003399" d="M13-2l12,2c1,0,2,1,2,2s0,7,0,8s-1,2-2,2l-12,2L1,12c-1,0-2-1-2-2s0-7,0-8s1-2,2-2L13-2z"
		/>
</g>
<g id="Layer_4" display="none">
	<path display="inline" fill="#FFFFFF" d="M26,15c-1,0-25,0-26,0s-2-1-2-2S-2,0-2-1s1-2,2-2s25.3,0,26,0s2,1,2,2s0,13,0,14
		S27,15,26,15z"/>
	<path display="inline" fill="#003399" d="M13-2l12,2c1,0,2,1,2,2s0,7,0,8s-1,2-2,2l-12,2L1,12c-1,0-2-1-2-2s0-7,0-8s1-2,2-2L13-2z"
		/>
</g>
<g id="Layer_4_copy">
	<path fill="#AA2800" d="M13,1l10,2c1,0,2,1,2,2s0,4,0,5s-1,2-2,2l-10,2L3,12c-1,0-2-1-2-2s0-4,0-5s1-2,2-2L13,1z"/>
	<path fill="#AA2800" d="M13,1l10,2c1,0,2,1,2,2s0,4,0,5s-1,2-2,2l-10,2L3,12c-1,0-2-1-2-2s0-4,0-5s1-2,2-2L13,1z"/>
</g>
<g id="Layer_2_copy" display="none">
	<path display="inline" fill="#003399" d="M13-2l11,2c1,0,3,2,3,3c0,2,0,6.2,0,7c0,1-1,2-2,2l-12,2L1,12c-1,0-2-1-2-2s0-7,0-8
		s1-2,2-2L13-2z"/>
</g>
</svg>
