<svg xmlns="http://www.w3.org/2000/svg" width="28" height="16" viewBox="0 0 28 16">
  <title>ch-motorway</title>
  <g>
    <g>
      <path d="M2.9,13.49A2.61,2.61,0,0,1,.5,11V5A2.63,2.63,0,0,1,3,2.5l11-2,11.1,2A2.61,2.61,0,0,1,27.5,5v6A2.63,2.63,0,0,1,25,13.5l-11,2Z" fill="#d40000"/>
      <path d="M14,1L25,3a2.15,2.15,0,0,1,2,2v6a2.15,2.15,0,0,1-2,2L14,15,3,13a2.15,2.15,0,0,1-2-2V5A2.15,2.15,0,0,1,3,3L14,1m0-1L13.82,0,2.9,2A3.17,3.17,0,0,0,0,5v6a3.17,3.17,0,0,0,2.9,3l10.92,2L14,16l0.18,0L25.1,14A3.17,3.17,0,0,0,28,11V5a3.17,3.17,0,0,0-2.9-3L14.18,0,14,0h0Z" fill="#fff"/>
    </g>
    <g>
      <path d="M2.9,13.49A2.61,2.61,0,0,1,.5,11V5A2.63,2.63,0,0,1,3,2.5l11-2,11.1,2A2.61,2.61,0,0,1,27.5,5v6A2.63,2.63,0,0,1,25,13.5l-11,2Z" fill="#d40000"/>
      <path d="M14,1L25,3a2.15,2.15,0,0,1,2,2v6a2.15,2.15,0,0,1-2,2L14,15,3,13a2.15,2.15,0,0,1-2-2V5A2.15,2.15,0,0,1,3,3L14,1m0-1L13.82,0,2.9,2A3.17,3.17,0,0,0,0,5v6a3.17,3.17,0,0,0,2.9,3l10.92,2L14,16l0.18,0L25.1,14A3.17,3.17,0,0,0,28,11V5a3.17,3.17,0,0,0-2.9-3L14.18,0,14,0h0Z" fill="#fff"/>
    </g>
  </g>
</svg>
