<?xml version="1.0" encoding="utf-8"?>
<!-- Generator: Adobe Illustrator 17.1.0, SVG Export Plug-In . SVG Version: 6.00 Build 0)  -->
<!DOCTYPE svg PUBLIC "-//W3C//DTD SVG 1.1//EN" "http://www.w3.org/Graphics/SVG/1.1/DTD/svg11.dtd">
<svg version="1.1" id="Layer_1" xmlns="http://www.w3.org/2000/svg" xmlns:xlink="http://www.w3.org/1999/xlink" x="0px" y="0px"
	 width="26px" height="15px" viewBox="0 0 26 15" enable-background="new 0 0 26 15" xml:space="preserve">
<g id="Layer_1_1_" display="none">
	<path display="inline" fill="#FFFFFF" d="M28,18c-1,0-25,0-26,0s-2-1-2-2S0,3,0,2s1-2,2-2s25.3,0,26,0s2,1,2,2s0,13,0,14
		S29,18,28,18z"/>
	<path display="inline" fill="#276FB7" d="M18.9-3H2C1-3,0-3.8,0-5c0-3.6,0-11,0-11c0-1,1-2,2-2h17c1,0,2.1,0.8,2.1,2
		c0,0.1,0,10.9,0,11C21-4,20-3,18.9-3z"/>
	<path display="inline" fill="#003399" d="M1.8,9V3.8c0-0.2,0.1-0.3,0.4-0.4l12-1.9c0,0,0.1,0,0.3,0s0.3,0,0.3,0l12,1.9
		c0.3,0.1,0.4,0.2,0.4,0.4v10.4c0,0.2-0.1,0.3-0.4,0.4l-12,1.9c0,0-0.1,0-0.3,0s-0.3,0-0.3,0l-12-1.9c-0.3-0.1-0.4-0.2-0.4-0.4
		C1.8,14.2,1.8,9,1.8,9z"/>
	<path display="inline" fill="#003399" d="M1,9V3.3c0-0.2,0.2-0.4,0.5-0.5l13.2-2.1c0,0,0.1,0,0.3,0s0.3,0,0.3,0l13.2,2.1
		C28.8,2.9,29,3.1,29,3.3v11.4c0,0.2-0.2,0.4-0.5,0.5l-13.2,2.1c0,0-0.1,0-0.3,0s-0.3,0-0.3,0L1.5,15.2C1.2,15.1,1,14.9,1,14.7"/>
</g>
<g id="Layer_2" display="none">
	<path display="inline" fill="#FFFFFF" d="M28,18c-1,0-25,0-26,0s-2-1-2-2S0,3,0,2s1-2,2-2s25.3,0,26,0s2,1,2,2s0,13,0,14
		S29,18,28,18z"/>
	<path display="inline" fill="#003399" d="M15,1l12,2c1,0,2,1,2,2s0,7,0,8s-1,2-2,2l-12,2L3,15c-1,0-2-1-2-2s0-7,0-8s1-2,2-2L15,1z"
		/>
</g>
<g id="Layer_4" display="none">
	<path display="inline" fill="#FFFFFF" d="M28,18c-1,0-25,0-26,0s-2-1-2-2S0,3,0,2s1-2,2-2s25.3,0,26,0s2,1,2,2s0,13,0,14
		S29,18,28,18z"/>
	<path display="inline" fill="#003399" d="M15,1l12,2c1,0,2,1,2,2s0,7,0,8s-1,2-2,2l-12,2L3,15c-1,0-2-1-2-2s0-7,0-8s1-2,2-2L15,1z"
		/>
</g>
<g id="Layer_4_copy">
	<path fill="#AA2800" d="M13,0l11,2c1,0,2,1,2,2s0,6,0,7s-1,2-2,2l-11,2L2,13c-1,0-2-1-2-2s0-6,0-7s1-2,2-2L13,0z"/>
	<path fill="#AA2800" d="M13,0l11,2c1,0,2,1,2,2s0,6,0,7s-1,2-2,2l-11,2L2,13c-1,0-2-1-2-2s0-6,0-7s1-2,2-2L13,0z"/>
</g>
<g id="Layer_2_copy" display="none">
	<path display="inline" fill="#003399" d="M15,1l11,2c1,0,3,2,3,3c0,2,0,6.2,0,7c0,1-1,2-2,2l-12,2L3,15c-1,0-2-1-2-2s0-7,0-8
		s1-2,2-2L15,1z"/>
</g>
</svg>
