<svg xmlns="http://www.w3.org/2000/svg" width="30" height="17" viewBox="0 0 30 17"><title>rails-icons</title><path d="M30,1.5H8.56A3.67,3.67,0,0,0,5.58,3L0.52,10.1A2.75,2.75,0,0,0,.33,13,2.84,2.84,0,0,0,2.84,14.5h17l0.7-1.17,1.87-3.11h1.63L24.8,9.16l2.71-4L30,1.5h0Z" fill="#fff"/><polygon points="10.72 7.86 12.23 7.86 14.99 3.86 18.61 3.86 15.9 7.86 13.98 7.86 13.98 12.14 11.11 12.14 10.72 7.86" fill="#74c271"/><polygon points="20.08 3.86 25.49 3.86 22.78 7.86 21.06 7.86 18.49 12.14 14.66 12.14 20.08 3.86" fill="#74c271"/><path d="M11.55,4.75L10.67,6.06H8.29l-0.23.55-0.37.91L7.19,8.74H8.28l0.23,2.51H3.76L8.31,4.89a0.31,0.31,0,0,1,.25-0.14h3m1.68-.89H8.56a1.21,1.21,0,0,0-1,.52L2.51,11.45a0.43,0.43,0,0,0,.33.69H9.49L9.11,7.85H8.52L8.9,6.95h2.25l2.07-3.08h0Z" fill="#74c271"/></svg>