<?xml version="1.0" encoding="UTF-8" standalone="no"?>
<svg
   xmlns:dc="http://purl.org/dc/elements/1.1/"
   xmlns:cc="http://creativecommons.org/ns#"
   xmlns:rdf="http://www.w3.org/1999/02/22-rdf-syntax-ns#"
   xmlns:svg="http://www.w3.org/2000/svg"
   xmlns="http://www.w3.org/2000/svg"
   id="svg2"
   width="19"
   height="19"
   viewBox="0 0 19 19"
   version="1.1">
  <metadata
     id="metadata14">
    <rdf:RDF>
      <cc:Work
         rdf:about="">
        <dc:format>image/svg+xml</dc:format>
        <dc:type
           rdf:resource="http://purl.org/dc/dcmitype/StillImage" />
      </cc:Work>
    </rdf:RDF>
  </metadata>
  <defs
     id="defs12" />
  <ellipse
     id="ellipse4"
     ry="9.5"
     rx="9.5"
     cy="9.5"
     cx="9.5"
     style="fill:#ffffff;stroke:none;" />
  <ellipse
     id="ellipse6"
     rx="8.5"
     ry="8.5"
     cy="9.5"
     cx="9.5"
     style="fill:#a9a199;stroke:none;" />
  <g
     id="g8"
     transform="translate(4,4)">
      <defs     id="defs4766" />  <metadata     id="metadata4769">    <rdf:RDF>      <cc:Work         rdf:about="">        <dc:format>image/svg+xml</dc:format>        <dc:type           rdf:resource="http://purl.org/dc/dcmitype/StillImage" />        <dc:title />      </cc:Work>    </rdf:RDF>  </metadata>  <path     id="rect4952"     d="M 3 1 C 1.8954305 1 1 1.8954305 1 3 C 1 4.1045695 1.8954305 5 3 5 C 4.1045695 5 5 4.1045695 5 3 C 5 1.8954305 4.1045695 1 3 1 z M 5 3 C 5 4.1045695 5.8954305 5 7 5 C 8.1045695 5 9 4.1045695 9 3 C 9 1.8954305 8.1045695 1 7 1 C 5.8954305 1 5 1.8954305 5 3 z M 7 5 L 4.5 5 L 3 5 L 2 5 L 0.5 5 C 0.223 5 0 5.223 0 5.5 C 0 5.777 0.223 6 0.5 6 L 1 6 L 1 8 C 1 8.554 1.446 9 2 9 L 7 9 C 7.554 9 8 8.554 8 8 L 8 7 L 9.5 7.5 L 10 8 L 11 8 L 11 5 L 10 5 L 9.5 5.5 L 8 6 C 8 5.446 7.554 5 7 5 z M 3 2 C 3.5522847 2 4 2.4477153 4 3 C 4 3.5522847 3.5522847 4 3 4 C 2.4477153 4 2 3.5522847 2 3 C 2 2.4477153 2.4477153 2 3 2 z M 7 2 C 7.5522847 2 8 2.4477153 8 3 C 8 3.5522847 7.5522847 4 7 4 C 6.4477153 4 6 3.5522847 6 3 C 6 2.4477153 6.4477153 2 7 2 z "     style="opacity:1;fill:#ffffff;fill-opacity:1;stroke:none;stroke-width:0.99999994;stroke-linecap:round;stroke-linejoin:round;stroke-miterlimit:4;stroke-dasharray:none;stroke-dashoffset:0;stroke-opacity:1;marker:none" />
  </g>
</svg>
