<?xml version="1.0" encoding="utf-8"?>
<!-- Generator: Adobe Illustrator 17.1.0, SVG Export Plug-In . SVG Version: 6.00 Build 0)  -->
<!DOCTYPE svg PUBLIC "-//W3C//DTD SVG 1.1//EN" "http://www.w3.org/Graphics/SVG/1.1/DTD/svg11.dtd">
<svg version="1.1"
	 id="svg2" xmlns:svg="http://www.w3.org/2000/svg" xmlns:cc="http://creativecommons.org/ns#" xmlns:dc="http://purl.org/dc/elements/1.1/" xmlns:rdf="http://www.w3.org/1999/02/22-rdf-syntax-ns#"
	 xmlns="http://www.w3.org/2000/svg" xmlns:xlink="http://www.w3.org/1999/xlink" x="0px" y="0px" width="19px" height="19px"
	 viewBox="0 0 19 19" enable-background="new 0 0 19 19" xml:space="preserve">
<ellipse id="ellipse4" fill="#FFFFFF" cx="9.5" cy="9.5" rx="9.5" ry="9.5"/>
<ellipse id="ellipse6" fill="#A9A199" cx="9.5" cy="9.5" rx="8.5" ry="8.5"/>
<g id="g8" transform="translate(4,4)">
	<path id="rect4952" fill="#FFFFFF" d="M3,1C1.9,1,1,1.9,1,3s0.9,2,2,2s2-0.9,2-2S4.1,1,3,1z M5,3c0,1.1,0.9,2,2,2s2-0.9,2-2
		S8.1,1,7,1S5,1.9,5,3z M7,5H4.5H3H2H0.5C0.2,5,0,5.2,0,5.5S0.2,6,0.5,6H1v2c0,0.6,0.4,1,1,1h5c0.6,0,1-0.4,1-1V7l1.5,0.5L10,8h1V5
		h-1L9.5,5.5L8,6C8,5.4,7.6,5,7,5z M3,2c0.6,0,1,0.4,1,1S3.6,4,3,4S2,3.6,2,3S2.4,2,3,2z M7,2c0.6,0,1,0.4,1,1S7.6,4,7,4S6,3.6,6,3
		S6.4,2,7,2z"/>
</g>
</svg>
