<?xml version="1.0" encoding="utf-8"?>
<!-- Generator: Adobe Illustrator 17.1.0, SVG Export Plug-In . SVG Version: 6.00 Build 0)  -->
<!DOCTYPE svg PUBLIC "-//W3C//DTD SVG 1.1//EN" "http://www.w3.org/Graphics/SVG/1.1/DTD/svg11.dtd">
<svg version="1.1"
	 id="svg2" xmlns:svg="http://www.w3.org/2000/svg" xmlns:cc="http://creativecommons.org/ns#" xmlns:dc="http://purl.org/dc/elements/1.1/" xmlns:rdf="http://www.w3.org/1999/02/22-rdf-syntax-ns#"
	 xmlns="http://www.w3.org/2000/svg" xmlns:xlink="http://www.w3.org/1999/xlink" x="0px" y="0px" width="23px" height="23px"
	 viewBox="0 0 23 23" enable-background="new 0 0 23 23" xml:space="preserve">
<ellipse id="ellipse4" fill="#FFFFFF" cx="11.5" cy="11.5" rx="11.5" ry="11.5"/>
<ellipse id="ellipse6" fill="#A9A199" cx="11.5" cy="11.5" rx="10.5" ry="10.5"/>
<g id="g8" transform="translate(4,4)">
	<path id="rect4952" fill="#FFFFFF" d="M3.8,1.5C2.2,1.5,1,2.7,1,4.2c0,1,0.6,2,1.5,2.4V7H2H0.5C0.2,7,0,7.2,0,7.5V8
		c0,0.3,0.2,0.5,0.5,0.5H1V12c0,0.6,0.4,1,1,1h8c0.6,0,1-0.4,1-1V9.5l2,0.5l0.5,1H15V7h-1.5L13,8l-2,0.5V8c0-0.5-0.3-0.8-0.8-0.9
		V6.8C11.3,6.4,12,5.4,12,4.2c0-1.5-1.2-2.8-2.8-2.8S6.5,2.7,6.5,4.2c0,1,0.6,2,1.5,2.4V7H6.5H5V6.7c0.9-0.5,1.5-1.4,1.5-2.4
		C6.5,2.7,5.3,1.5,3.8,1.5z M3.8,3.5c0.4,0,0.7,0.3,0.8,0.8C4.5,4.7,4.2,5,3.8,5C3.3,5,3,4.7,3,4.2C3,3.8,3.3,3.5,3.8,3.5z M9.2,3.5
		c0.4,0,0.8,0.3,0.8,0.8S9.7,5,9.2,5C8.8,5,8.5,4.7,8.5,4.2S8.8,3.5,9.2,3.5z M3.5,8h5C8.8,8,9,8.2,9,8.5S8.8,9,8.5,9h-5
		C3.2,9,3,8.8,3,8.5S3.2,8,3.5,8z"/>
</g>
</svg>
