<svg viewBox="-296 189 23 23" width="23" height="23" data-reactid=".0.1.1.$college-15=1svg1.0.0"><rect x="-295" y="190" rx="10.5" ry="10.5" width="21" height="21" stroke="#fff" style="stroke-linejoin:round;stroke-miterlimit:4px;" fill="#fff" stroke-width="2" data-reactid=".0.1.1.$college-15=1svg1.0.0.0"></rect><rect x="-295" y="190" width="21" height="21" rx="10.5" ry="10.5" fill="#99833d" data-reactid=".0.1.1.$college-15=1svg1.0.0.1"></rect><path fill="#fff" d="M-284.5,194.5l-7.5,3.5l2,0.9v1.7c-0.6,0.2-1,0.8-1,1.4s0.4,1.2,1,1.4v0.1l-0.9,2.1c-0.3,0.9-0.1,1.9,1.4,1.9
	s1.7-1,1.4-1.9l-0.9-2.1c0.6-0.3,1-0.8,1-1.5s-0.4-1.2-1-1.4v-1.2l4.5,2.1l7.5-3.5L-284.5,194.5z M-280.1,201l-4.5,2l-2.4-1.1v0.1
	c0,0.7-0.3,1.3-0.8,1.8l0.6,1.4v0.1c0.1,0.4,0.2,0.8,0.1,1.2c0.7,0.3,1.5,0.5,2.5,0.5c3.3,0,4.5-2,4.5-3V201z" data-reactid=".0.1.1.$college-15=1svg1.0.0.3:$college-15=1svg-0-fill"></path></svg>