<svg viewBox="-298 191 19 19" width="19" height="19" data-reactid=".0.1.1.$college-11=1svg0.0.0"><rect x="-297" y="192" rx="8.5" ry="8.5" width="17" height="17" stroke="#fff" style="stroke-linejoin:round;stroke-miterlimit:4px;" fill="#fff" stroke-width="2" data-reactid=".0.1.1.$college-11=1svg0.0.0.0"></rect><rect x="-297" y="192" width="17" height="17" rx="8.5" ry="8.5" fill="#99833d" data-reactid=".0.1.1.$college-11=1svg0.0.0.1"></rect><path fill="#fff" d="M-292,202.3c0.3-0.2,0.5-0.5,0.5-0.8c0-0.4-0.2-0.7-0.6-0.9v-1.2l3.6,1.6l5.5-2.5l-5.5-2.5l-5.5,2.5l1.2,0.5v1.6
	c-0.4,0.2-0.6,0.5-0.6,0.9c0,0.3,0.2,0.6,0.5,0.8l-0.5,1.7c-0.3,1,0.5,1,0.5,1h1c0,0,0.8,0,0.5-1L-292,202.3z" data-reactid=".0.1.1.$college-11=1svg0.0.0.3:$college-11=1svg-0-fill"></path><path fill="#fff" d="M-290.5,201.2c0,0.1,0,0.2,0,0.3v0c0,0.4-0.2,0.8-0.4,1.1c0.2,0.4,0.4,0.8,0.4,1.4v0.6c0.5,0.2,1.2,0.4,2,0.4
	c2.5,0,3.5-1.5,3.5-1.5v-3l-3.5,1.6L-290.5,201.2z" data-reactid=".0.1.1.$college-11=1svg0.0.0.3:$college-11=1svg-1-fill"></path></svg>