<?xml version="1.0" encoding="utf-8"?>
<!-- Generator: Adobe Illustrator 17.1.0, SVG Export Plug-In . SVG Version: 6.00 Build 0)  -->
<!DOCTYPE svg PUBLIC "-//W3C//DTD SVG 1.1//EN" "http://www.w3.org/Graphics/SVG/1.1/DTD/svg11.dtd">
<svg version="1.1"
	 id="svg2" xmlns:svg="http://www.w3.org/2000/svg" xmlns:cc="http://creativecommons.org/ns#" xmlns:dc="http://purl.org/dc/elements/1.1/" xmlns:rdf="http://www.w3.org/1999/02/22-rdf-syntax-ns#"
	 xmlns="http://www.w3.org/2000/svg" xmlns:xlink="http://www.w3.org/1999/xlink" x="0px" y="0px" width="19px" height="19px"
	 viewBox="0 0 19 19" enable-background="new 0 0 19 19" xml:space="preserve">
<ellipse id="ellipse4" fill="#FFFFFF" cx="9.5" cy="9.5" rx="9.5" ry="9.5"/>
<ellipse id="ellipse6" fill="#B5A462" cx="9.5" cy="9.5" rx="8.5" ry="8.5"/>
<g id="g8" transform="translate(4,4)">
	<path id="path5831" fill="#FFFFFF" d="M5.5,1L0,3.5L1.2,4v1.6C0.8,5.7,0.6,6.1,0.6,6.5c0,0.3,0.2,0.6,0.5,0.8L0.5,9
		C0.2,10,1,10,1,10h1c0,0,0.8,0,0.5-1L2,7.3c0.3-0.2,0.5-0.5,0.5-0.8c0-0.4-0.2-0.7-0.6-0.9V4.4L5.5,6L11,3.5L5.5,1z M9,5.5L5.5,7.1
		l-2-0.9c0,0.1,0,0.2,0,0.3l0,0c0,0.4-0.2,0.8-0.4,1.1C3.3,8,3.5,8.4,3.5,9v0.6C4,9.8,4.7,10,5.5,10C8,10,9,8.5,9,8.5V5.5z"/>
</g>
</svg>
