<?xml version="1.0" encoding="utf-8"?>
<!-- Generator: Adobe Illustrator 17.1.0, SVG Export Plug-In . SVG Version: 6.00 Build 0)  -->
<!DOCTYPE svg PUBLIC "-//W3C//DTD SVG 1.1//EN" "http://www.w3.org/Graphics/SVG/1.1/DTD/svg11.dtd">
<svg version="1.1"
	 id="svg2" xmlns:svg="http://www.w3.org/2000/svg" xmlns:cc="http://creativecommons.org/ns#" xmlns:dc="http://purl.org/dc/elements/1.1/" xmlns:rdf="http://www.w3.org/1999/02/22-rdf-syntax-ns#"
	 xmlns="http://www.w3.org/2000/svg" xmlns:xlink="http://www.w3.org/1999/xlink" x="0px" y="0px" width="23px" height="23px"
	 viewBox="0 0 23 23" enable-background="new 0 0 23 23" xml:space="preserve">
<ellipse id="ellipse4" fill="#FFFFFF" cx="11.5" cy="11.5" rx="11.5" ry="11.5"/>
<ellipse id="ellipse6" fill="#B5A462" cx="11.5" cy="11.5" rx="10.5" ry="10.5"/>
<g id="g8" transform="translate(5,4.5)">
	<path id="path5992" fill="#FFFFFF" d="M6.6,0.9L0,4l1.8,0.8v4L1,10.7c-0.3,0.8-0.1,1.7,1.2,1.7s1.5-0.9,1.2-1.7L2.6,8.8V5.2l4,1.9
		L13.2,4L6.6,0.9z M10.6,6.6l-4,1.8l-2.2-1v0.1c0,0.6-0.2,1.2-0.7,1.6l0.5,1.3l0,0c0.1,0.3,0.1,0.7,0.1,1c0.6,0.3,1.3,0.5,2.2,0.5
		c2.9,0,4-1.8,4-2.6L10.6,6.6L10.6,6.6z"/>
	<g id="g6004" transform="translate(-3.6666667e-7,26.470588)">
	</g>
	<g id="g5998" transform="translate(-3.6666667e-7,26.470588)">
	</g>
	<circle id="path6065" fill="#FFFFFF" cx="2.2" cy="7.5" r="1.3"/>
</g>
</svg>
