<?xml version="1.0" encoding="utf-8"?>
<!-- Generator: Adobe Illustrator 17.1.0, SVG Export Plug-In . SVG Version: 6.00 Build 0)  -->
<!DOCTYPE svg PUBLIC "-//W3C//DTD SVG 1.1//EN" "http://www.w3.org/Graphics/SVG/1.1/DTD/svg11.dtd">
<svg version="1.1" id="ref_outlines" xmlns="http://www.w3.org/2000/svg" xmlns:xlink="http://www.w3.org/1999/xlink" x="0px"
	 y="0px" width="32px" height="14px" viewBox="0 0 32 14" enable-background="new 0 0 32 14" xml:space="preserve">
<g>
	<path fill="#F0CA64" d="M32,11.5c0,1.4-1.1,2.5-2.5,2.5h-26C2.1,14,1,12.9,1,11.5v-8C1,2.1,2.1,1,3.5,1h26C30.9,1,32,2.1,32,3.5
		V11.5z"/>
	<path fill="#3A3836" d="M29,1c1.1,0,2,1,2,2.1v8c0,1.1-0.9,1.9-2,1.9H3c-1.1,0-2-0.8-2-1.9v-8C1,2,1.9,1,3,1H29 M29,0H3
		C1.4,0,0,1.4,0,3.1v8C0,12.7,1.4,14,3,14h26c1.7,0,3-1.3,3-2.9v-8C32,1.4,30.7,0,29,0L29,0z"/>
</g>
</svg>
