<?xml version="1.0" encoding="utf-8"?>
<!-- Generator: Adobe Illustrator 17.1.0, SVG Export Plug-In . SVG Version: 6.00 Build 0)  -->
<!DOCTYPE svg PUBLIC "-//W3C//DTD SVG 1.1//EN" "http://www.w3.org/Graphics/SVG/1.1/DTD/svg11.dtd">
<svg version="1.1" xmlns="http://www.w3.org/2000/svg" xmlns:xlink="http://www.w3.org/1999/xlink" x="0px" y="0px" width="20px"
	 height="14px" viewBox="0 0 20 14" enable-background="new 0 0 20 14" xml:space="preserve">
<g id="shields">
	<g id="Layer_4_copy">
		<path fill="#005AA0" d="M10,0l8,2c1,0,2,1,2,2s0,5,0,6s-1,2-2,2l-8,2l-8-2c-1,0-2-1-2-2s0-5,0-6s1-2,2-2L10,0z"/>
		<path fill="#005AA0" d="M10,0l8,2c1,0,2,1,2,2s0,5,0,6s-1,2-2,2l-8,2l-8-2c-1,0-2-1-2-2s0-5,0-6s1-2,2-2L10,0z"/>
	</g>
</g>
<g id="shields_copy" display="none">
	<g display="inline">
		<path fill="#FFFFFF" d="M3,13.6c-1.4,0-2.5-1.1-2.5-2.5v-8c0-1.4,1.1-2.5,2.5-2.5h14c1.4,0,2.5,1.1,2.5,2.5v8
			c0,1.4-1.1,2.5-2.5,2.5H3z"/>
		<path fill="#3A3836" d="M17,1.1c1.1,0,2,0.9,2,2v8c0,1.1-0.9,2-2,2H3c-1.1,0-2-0.9-2-2v-8c0-1.1,0.9-2,2-2H17 M17,0.1H3
			c-1.7,0-3,1.3-3,3v8c0,1.7,1.3,3,3,3h14c1.7,0,3-1.3,3-3v-8C20,1.4,18.6,0.1,17,0.1L17,0.1z"/>
	</g>
</g>
</svg>
