<svg xmlns="http://www.w3.org/2000/svg" width="17" height="17" viewBox="0 0 17 17">
  <title>de-s-bahn</title>
  <circle cx="8.5" cy="8.5" r="8.5" fill="#fff"/>
  <path d="M6.83,5.5c0-.64.54-1.07,1.5-1.07a5.56,5.56,0,0,1,4.18,1.71V4.54A6.67,6.67,0,0,0,8.44,3.14c-1.82,0-3.75,1-3.75,2.89,0,3.86,5.89,2.89,5.89,5.25,0,0.64-.75,1.07-1.82,1.07a4.84,4.84,0,0,1-4.07-1.93v1.93a6.52,6.52,0,0,0,4.07,1.5c2.68,0,4.18-1.71,4.18-3.43C12.94,6.36,6.83,8,6.83,5.5Z" fill="#fff"/>
  <path d="M8.55,1A7.45,7.45,0,0,0,1,8.5,7.45,7.45,0,0,0,8.55,16,7.45,7.45,0,0,0,16,8.5,7.45,7.45,0,0,0,8.55,1ZM8.76,13.86a6.52,6.52,0,0,1-4.07-1.5V10.43a4.84,4.84,0,0,0,4.07,1.93c1,0,1.82-.43,1.82-1.07,0-2.36-5.89-1.39-5.89-5.25,0-1.93,1.82-2.89,3.75-2.89a6.67,6.67,0,0,1,4.07,1.39V6A6,6,0,0,0,8.33,4.32a1.29,1.29,0,0,0-1.5,1.07c0,2.46,6.11.86,6.11,4.93C12.94,12.14,11.44,13.86,8.76,13.86Z" fill="#799a55"/>
</svg>
