<svg xmlns="http://www.w3.org/2000/svg" width="17" height="32.97" viewBox="0 0 17 32.97">
  <title>de-s-bahn.de-u-bahn</title>
  <circle cx="8.5" cy="24.47" r="8.5" fill="#fff"/>
  <g>
    <path d="M14.15,0H2.95A2.9,2.9,0,0,0,0,2.9V14a2.93,2.93,0,0,0,2.9,3H14a2.9,2.9,0,0,0,2.9-2.9V2.9A2.76,2.76,0,0,0,14.15,0ZM16,14.1a1.9,1.9,0,0,1-1.9,1.9H2.95A2,2,0,0,1,1,14.1V2.9A2,2,0,0,1,2.95,1H14a2,2,0,0,1,2,1.9V14.1Z" fill="#fff"/>
    <path d="M14.15,1H2.95A2,2,0,0,0,1,2.9V14a2,2,0,0,0,1.9,2H14a1.9,1.9,0,0,0,1.9-1.9V2.9A1.81,1.81,0,0,0,14.15,1ZM12,9c0,2.2-1.3,4-3.5,4S5,11.2,5,9V5H7V9.5A1.6,1.6,0,0,0,8.55,11,1.6,1.6,0,0,0,10,9.5V5h2V9Z" fill="#5396c7"/>
    <path d="M10,9.5A1.6,1.6,0,0,1,8.55,11,1.6,1.6,0,0,1,7,9.5V5H5V9c0,2.2,1.3,4,3.5,4S12,11.2,12,9V5H10V9.5Z" fill="#fff"/>
  </g>
  <path d="M6.83,21.47c0-.64.54-1.07,1.5-1.07a5.56,5.56,0,0,1,4.18,1.71V20.51a6.67,6.67,0,0,0-4.07-1.39c-1.82,0-3.75,1-3.75,2.89,0,3.86,5.89,2.89,5.89,5.25,0,0.64-.75,1.07-1.82,1.07A4.84,4.84,0,0,1,4.69,26.4v1.93a6.52,6.52,0,0,0,4.07,1.5c2.68,0,4.18-1.71,4.18-3.43C12.94,22.33,6.83,23.94,6.83,21.47Z" fill="#fff"/>
  <path d="M8.55,17a7.5,7.5,0,0,0,0,15A7.5,7.5,0,0,0,8.55,17ZM8.76,29.83a6.52,6.52,0,0,1-4.07-1.5V26.4a4.84,4.84,0,0,0,4.07,1.93c1,0,1.82-.43,1.82-1.07,0-2.36-5.89-1.39-5.89-5.25,0-1.93,1.82-2.89,3.75-2.89a6.67,6.67,0,0,1,4.07,1.39V22A6,6,0,0,0,8.33,20.3a1.29,1.29,0,0,0-1.5,1.07c0,2.46,6.11.86,6.11,4.93C12.94,28.12,11.44,29.83,8.76,29.83Z" fill="#799a55"/>
</svg>
