<?xml version="1.0" encoding="utf-8"?>
<!-- Generator: Adobe Illustrator 17.1.0, SVG Export Plug-In . SVG Version: 6.00 Build 0)  -->
<!DOCTYPE svg PUBLIC "-//W3C//DTD SVG 1.1//EN" "http://www.w3.org/Graphics/SVG/1.1/DTD/svg11.dtd">
<svg version="1.1"
	 id="svg2" xmlns:svg="http://www.w3.org/2000/svg" xmlns:cc="http://creativecommons.org/ns#" xmlns:dc="http://purl.org/dc/elements/1.1/" xmlns:rdf="http://www.w3.org/1999/02/22-rdf-syntax-ns#" sodipodi:docname="u-bahn-11.svg" inkscape:version="0.91+devel+osxmenu r12911" xmlns:inkscape="http://www.inkscape.org/namespaces/inkscape" xmlns:sodipodi="http://sodipodi.sourceforge.net/DTD/sodipodi-0.dtd"
	 xmlns="http://www.w3.org/2000/svg" xmlns:xlink="http://www.w3.org/1999/xlink" x="0px" y="0px" width="17px" height="17px"
	 viewBox="0 0 17 17" enable-background="new 0 0 17 17" xml:space="preserve">
<sodipodi:namedview  inkscape:snap-bbox-edge-midpoints="true" inkscape:snap-intersection-paths="true" inkscape:window-x="104" inkscape:snap-smooth-nodes="true" inkscape:bbox-nodes="true" inkscape:snap-bbox="true" inkscape:object-nodes="true" inkscape:object-paths="true" inkscape:pageopacity="0" inkscape:document-units="px" inkscape:pageshadow="2" inkscape:current-layer="svg2" inkscape:window-y="75" inkscape:bbox-paths="true" inkscape:window-maximized="0" guidetolerance="10" gridtolerance="10" showgrid="true" pagecolor="#ffffff" objecttolerance="10" bordercolor="#666666" id="namedview8" showguides="false" inkscape:cy="8.1593928" inkscape:zoom="32" borderopacity="1" inkscape:cx="8.7062616">
	
		<inkscape:grid  type="xygrid" color="#ff0000" snapvisiblegridlinesonly="true" spacingy="0.5" spacingx="0.5" opacity="0.1254902" empspacing="2" id="grid2997" empopacity="0.25098039" empcolor="#0000ff" enabled="true" visible="true">
		</inkscape:grid>
</sodipodi:namedview>
<g id="g3007" transform="translate(-0.5,5.5)">
</g>
<g>
	<path fill="#FFFFFF" d="M14.1,0H2.9C1.3,0,0,1.3,0,2.9v11.1C0,15.7,1.3,17,2.9,17h11.1c1.6,0,2.9-1.3,2.9-2.9V2.9
		C17,1.3,15.7,0,14.1,0z M16,14.1c0,1.1-0.9,1.9-1.9,1.9H2.9C1.9,16,1,15.1,1,14.1V2.9C1,1.9,1.9,1,2.9,1h11.1C15.1,1,16,1.9,16,2.9
		V14.1z"/>
	<path fill="#5396C7" d="M14.1,1H2.9C1.9,1,1,1.9,1,2.9v11.1C1,15.1,1.9,16,2.9,16h11.1c1.1,0,1.9-0.9,1.9-1.9V2.9
		C16,1.9,15.1,1,14.1,1z M12,9c0,2.2-1.3,4-3.5,4S5,11.2,5,9V5h2v4.5C7,10,7.5,11,8.5,11S10,10,10,9.5V5h2V9z"/>
	<path fill="#FFFFFF" d="M10,9.5C10,10,9.5,11,8.5,11S7,10,7,9.5V5H5v4c0,2.2,1.3,4,3.5,4S12,11.2,12,9V5h-2V9.5z"/>
</g>
</svg>
