<?xml version="1.0" encoding="utf-8"?>
<!-- Generator: Adobe Illustrator 17.1.0, SVG Export Plug-In . SVG Version: 6.00 Build 0)  -->
<!DOCTYPE svg PUBLIC "-//W3C//DTD SVG 1.1//EN" "http://www.w3.org/Graphics/SVG/1.1/DTD/svg11.dtd">
<svg version="1.1"
	 id="svg5037" xmlns:svg="http://www.w3.org/2000/svg" xmlns:cc="http://creativecommons.org/ns#" xmlns:dc="http://purl.org/dc/elements/1.1/" xmlns:rdf="http://www.w3.org/1999/02/22-rdf-syntax-ns#"
	 xmlns="http://www.w3.org/2000/svg" xmlns:xlink="http://www.w3.org/1999/xlink" x="0px" y="0px" width="25px" height="18px"
	 viewBox="0 0 25 18" enable-background="new 0 0 25 18" xml:space="preserve">
<g id="layer1" transform="translate(-54.999985,-921.36219)">
	<g id="generic-md-2" transform="translate(-180,480)">
		<path id="rect3449" fill="#3A3836" d="M237.4,441.4h20.2c1.3,0,2.4,1.1,2.4,2.4V457c0,1.3-1.1,2.4-2.4,2.4h-20.2
			c-1.3,0-2.4-1.1-2.4-2.4v-13.2C235,442.4,236.1,441.4,237.4,441.4z"/>
		<path id="rect3451" fill="#FFFFFF" d="M237.2,442.4h20.6c0.7,0,1.2,0.6,1.2,1.2v13.5c0,0.7-0.5,1.2-1.2,1.2h-20.6
			c-0.7,0-1.2-0.6-1.2-1.2v-13.5C236,442.9,236.5,442.4,237.2,442.4z"/>
	</g>
</g>
</svg>
