<?xml version="1.0" encoding="utf-8"?>
<!-- Generator: Adobe Illustrator 17.1.0, SVG Export Plug-In . SVG Version: 6.00 Build 0)  -->
<!DOCTYPE svg PUBLIC "-//W3C//DTD SVG 1.1//EN" "http://www.w3.org/Graphics/SVG/1.1/DTD/svg11.dtd">
<svg version="1.1"
	 id="svg5037" xmlns:svg="http://www.w3.org/2000/svg" xmlns:cc="http://creativecommons.org/ns#" xmlns:dc="http://purl.org/dc/elements/1.1/" xmlns:rdf="http://www.w3.org/1999/02/22-rdf-syntax-ns#"
	 xmlns="http://www.w3.org/2000/svg" xmlns:xlink="http://www.w3.org/1999/xlink" x="0px" y="0px" width="21px" height="15px"
	 viewBox="0 0 21 15" enable-background="new 0 0 21 15" xml:space="preserve">
<g id="layer1" transform="translate(-54.999985,-924.36218)">
	<g id="generic-md-2" transform="translate(-180,480)">
		<path id="rect3449" fill="#3A3836" d="M237,444.4h17c1.1,0,2,0.9,2,2v11c0,1.1-0.9,2-2,2h-17c-1.1,0-2-0.9-2-2v-11
			C235,445.3,235.9,444.4,237,444.4z"/>
		<path id="rect3451" fill="#FFFFFF" d="M237,445.4h17c0.6,0,1,0.4,1,1v11c0,0.6-0.4,1-1,1h-17c-0.6,0-1-0.4-1-1v-11
			C236,445.8,236.4,445.4,237,445.4z"/>
	</g>
</g>
</svg>
