<?xml version="1.0" encoding="utf-8"?>
<!-- Generator: Adobe Illustrator 17.1.0, SVG Export Plug-In . SVG Version: 6.00 Build 0)  -->
<!DOCTYPE svg PUBLIC "-//W3C//DTD SVG 1.1//EN" "http://www.w3.org/Graphics/SVG/1.1/DTD/svg11.dtd">
<svg version="1.1"
	 id="svg4986" xmlns:svg="http://www.w3.org/2000/svg" xmlns:cc="http://creativecommons.org/ns#" xmlns:dc="http://purl.org/dc/elements/1.1/" xmlns:rdf="http://www.w3.org/1999/02/22-rdf-syntax-ns#"
	 xmlns="http://www.w3.org/2000/svg" xmlns:xlink="http://www.w3.org/1999/xlink" x="0px" y="0px" width="15px" height="15px"
	 viewBox="0 0 15 15" enable-background="new 0 0 15 15" xml:space="preserve">
<g id="layer1" transform="translate(-54.999985,-904.36218)">
	<g id="generic-md-1" transform="translate(-180,480)">
		<path id="rect3443" fill="#3A3836" d="M237,424.4h11c1.1,0,2,0.9,2,2v11c0,1.1-0.9,2-2,2h-11c-1.1,0-2-0.9-2-2v-11
			C235,425.3,235.9,424.4,237,424.4z"/>
		<path id="rect3445" fill="#FFFFFF" d="M237,425.4h11c0.6,0,1,0.4,1,1v11c0,0.6-0.4,1-1,1h-11c-0.6,0-1-0.4-1-1v-11
			C236,425.8,236.4,425.4,237,425.4z"/>
	</g>
</g>
</svg>
