<?xml version="1.0" encoding="utf-8"?>
<!-- Generator: Adobe Illustrator 17.1.0, SVG Export Plug-In . SVG Version: 6.00 Build 0)  -->
<!DOCTYPE svg PUBLIC "-//W3C//DTD SVG 1.1//EN" "http://www.w3.org/Graphics/SVG/1.1/DTD/svg11.dtd">
<svg version="1.1"
	 id="svg5088" xmlns:svg="http://www.w3.org/2000/svg" xmlns:cc="http://creativecommons.org/ns#" xmlns:dc="http://purl.org/dc/elements/1.1/" xmlns:rdf="http://www.w3.org/1999/02/22-rdf-syntax-ns#"
	 xmlns="http://www.w3.org/2000/svg" xmlns:xlink="http://www.w3.org/1999/xlink" x="0px" y="0px" width="39px" height="18px"
	 viewBox="0 0 39 18" enable-background="new 0 0 39 18" xml:space="preserve">
<g id="layer1" transform="translate(-54.999985,-941.36218)">
	<g id="generic-md-3" transform="translate(-180,480)">
		<path id="rect3455" fill="#3A3836" d="M237.4,461.4h34.3c1.3,0,2.4,1.1,2.4,2.4V477c0,1.3-1.1,2.4-2.4,2.4h-34.3
			c-1.3,0-2.4-1.1-2.4-2.4v-13.2C235,462.4,236.1,461.4,237.4,461.4z"/>
		<path id="rect3457" fill="#FFFFFF" d="M237.2,462.4h34.6c0.7,0,1.2,0.6,1.2,1.2v13.5c0,0.7-0.5,1.2-1.2,1.2h-34.6
			c-0.7,0-1.2-0.6-1.2-1.2v-13.5C236,462.9,236.5,462.4,237.2,462.4z"/>
	</g>
</g>
</svg>
