<svg viewBox="-296 189 23 23" width="23" height="23" data-reactid=".0.1.1.$dentist-15=1svg1.0.0"><rect x="-295" y="190" rx="10.5" ry="10.5" width="21" height="21" stroke="#fff" style="stroke-linejoin:round;stroke-miterlimit:4px;" fill="#fff" stroke-width="2" data-reactid=".0.1.1.$dentist-15=1svg1.0.0.0"></rect><rect x="-295" y="190" width="21" height="21" rx="10.5" ry="10.5" fill="#af5858" data-reactid=".0.1.1.$dentist-15=1svg1.0.0.1"></rect><path fill="#fff" d="M-287.7,207c-1.4,0-1.5-3.8-2-6.1c-0.4-1.9-1-5.5,1.3-5.9
	c2.2-0.4,2.3,1.4,3.9,1.4c1.6,0,1.6-1.8,3.9-1.4c2.3,0.4,1.6,3.9,1.3,5.9c-0.5,2.3-0.6,6.1-2,6.1s-1.6-2.9-3.2-2.9
	C-286.1,204.1-286.3,207-287.7,207z" data-reactid=".0.1.1.$dentist-15=1svg1.0.0.3:$dentist-15=1svg-0-fill"></path></svg>