<?xml version="1.0" encoding="utf-8"?>
<!-- Generator: Adobe Illustrator 17.0.0, SVG Export Plug-In . SVG Version: 6.00 Build 0)  -->
<!DOCTYPE svg PUBLIC "-//W3C//DTD SVG 1.1//EN" "http://www.w3.org/Graphics/SVG/1.1/DTD/svg11.dtd">
<svg version="1.1" id="Layer_1" xmlns="http://www.w3.org/2000/svg" xmlns:xlink="http://www.w3.org/1999/xlink" x="0px" y="0px"
	 width="19px" height="19px" viewBox="0 0 19 19" enable-background="new 0 0 19 19" xml:space="preserve">
<g>
	<path fill="#FFFFFF" d="M9.5,0C4.253,0,0,4.253,0,9.5S4.253,19,9.5,19S19,14.747,19,9.5S14.747,0,9.5,0z M9.5,18
		C4.806,18,1,14.194,1,9.5S4.806,1,9.5,1S18,4.806,18,9.5S14.194,18,9.5,18z"/>
	<path fill="#B28B8B" d="M9.5,1C4.806,1,1,4.806,1,9.5S4.806,18,9.5,18S18,14.194,18,9.5S14.194,1,9.5,1z M13,9.4
		c-0.3,1.5-0.7,4.1-1.6,4.1c-0.9,0-0.9-1.9-1.9-1.9c-0.9,0-0.9,1.9-1.9,1.9S6.3,10.9,6,9.4C5.7,8.1,5.3,5.8,6.8,5.5s1.6,0.9,2.7,0.9
		s1.1-1.2,2.7-0.9C13.7,5.8,13.3,8.1,13,9.4z"/>
	<path fill="#FFFFFF" d="M12.2,5.5c-1.6-0.3-1.6,0.9-2.7,0.9S8.3,5.2,6.8,5.5S5.7,8.1,6,9.4c0.3,1.5,0.6,4.1,1.6,4.1s1-1.9,1.9-1.9
		c1,0,1,1.9,1.9,1.9c0.9,0,1.3-2.6,1.6-4.1C13.3,8.1,13.7,5.8,12.2,5.5z"/>
</g>
</svg>
