<?xml version="1.0" encoding="utf-8"?>
<!-- Generator: Adobe Illustrator 17.1.0, SVG Export Plug-In . SVG Version: 6.00 Build 0)  -->
<!DOCTYPE svg PUBLIC "-//W3C//DTD SVG 1.1//EN" "http://www.w3.org/Graphics/SVG/1.1/DTD/svg11.dtd">
<svg version="1.1"
	 id="svg2" xmlns:svg="http://www.w3.org/2000/svg" xmlns:cc="http://creativecommons.org/ns#" xmlns:dc="http://purl.org/dc/elements/1.1/" xmlns:rdf="http://www.w3.org/1999/02/22-rdf-syntax-ns#"
	 xmlns="http://www.w3.org/2000/svg" xmlns:xlink="http://www.w3.org/1999/xlink" x="0px" y="0px" width="19px" height="19px"
	 viewBox="0 0 19 19" enable-background="new 0 0 19 19" xml:space="preserve">
<ellipse id="ellipse4" fill="#FFFFFF" cx="9.5" cy="9.5" rx="9.5" ry="9.5"/>
<ellipse id="ellipse6" fill="#B28B8B" cx="9.5" cy="9.5" rx="8.5" ry="8.5"/>
<g id="g8" transform="translate(4,4)">
	<path id="path3348" fill="#FFFFFF" d="M2,5.4C1.7,4.1,1.3,1.8,2.8,1.5s1.6,0.9,2.7,0.9s1.1-1.2,2.7-0.9C9.7,1.8,9.3,4.1,9,5.4
		C8.7,6.9,8.3,9.5,7.4,9.5S6.5,7.6,5.5,7.6c-0.9,0-0.9,1.9-1.9,1.9S2.3,6.9,2,5.4z"/>
	<path id="path3350" fill="#FFFFFF" d="M166,1179.9c-1,0-1.4-2.8-1.8-4.4c-0.3-1.4-0.7-3.8,0.9-4.1c1.6-0.3,1.7,1,2.8,1
		c1.2,0,1.2-1.3,2.8-1c1.7,0.3,1.2,2.7,0.9,4.1c-0.3,1.6-0.8,4.4-1.8,4.4s-0.8-2-2-2C166.8,1177.9,167,1179.9,166,1179.9L166,1179.9
		z"/>
</g>
</svg>
