<svg xmlns="http://www.w3.org/2000/svg" width="19" height="19" viewBox="0 0 19 19">
  <title>dentist-11</title>
  <path d="M9.5,1h0A8.5,8.5,0,0,1,18,9.5h0A8.5,8.5,0,0,1,9.5,18h0A8.5,8.5,0,0,1,1,9.5H1A8.5,8.5,0,0,1,9.5,1Z" fill="#fff" stroke="#fff" stroke-linejoin="round" stroke-width="2"/>
  <path d="M9.5,1h0A8.5,8.5,0,0,1,18,9.5h0A8.5,8.5,0,0,1,9.5,18h0A8.5,8.5,0,0,1,1,9.5H1A8.5,8.5,0,0,1,9.5,1Z" fill="#af5858"/>
  <path d="M6,9.38c-0.27-1.27-.68-3.59.87-3.84S8.4,6.47,9.5,6.47s1.13-1.19,2.66-.94S13.3,8.11,13,9.38c-0.31,1.49-.72,4.12-1.66,4.12s-0.84-1.87-1.87-1.87S8.56,13.5,7.63,13.5,6.28,10.87,6,9.38Z" fill="#fff"/>
</svg>
