<?xml version="1.0" encoding="UTF-8" standalone="no"?>
<svg
   xmlns:dc="http://purl.org/dc/elements/1.1/"
   xmlns:cc="http://creativecommons.org/ns#"
   xmlns:rdf="http://www.w3.org/1999/02/22-rdf-syntax-ns#"
   xmlns:svg="http://www.w3.org/2000/svg"
   xmlns="http://www.w3.org/2000/svg"
   id="svg2"
   width="19"
   height="19"
   viewBox="0 0 19 19"
   version="1.1">
  <metadata
     id="metadata14">
    <rdf:RDF>
      <cc:Work
         rdf:about="">
        <dc:format>image/svg+xml</dc:format>
        <dc:type
           rdf:resource="http://purl.org/dc/dcmitype/StillImage" />
      </cc:Work>
    </rdf:RDF>
  </metadata>
  <defs
     id="defs12" />
  <ellipse
     id="ellipse4"
     ry="9.5"
     rx="9.5"
     cy="9.5"
     cx="9.5"
     style="fill:#ffffff;stroke:none;" />
  <ellipse
     id="ellipse6"
     rx="8.5"
     ry="8.5"
     cy="9.5"
     cx="9.5"
     style="fill:#b28b8b;stroke:none;" />
  <g
     id="g8"
     transform="translate(4,4)">
    <metadata     id="metadata3356"><rdf:RDF><cc:Work         rdf:about=""><dc:format>image/svg+xml</dc:format><dc:type           rdf:resource="http://purl.org/dc/dcmitype/StillImage" /><dc:title /></cc:Work></rdf:RDF></metadata><defs     id="defs3354" /><path     id="path3348"     d="M 1.9672604,5.3799054 C 1.7020826,4.1111748 1.2860439,1.7892295 2.8358816,1.535296 4.3651047,1.2832366 4.3969636,2.4723201 5.4998408,2.4723201 6.603655,2.4723201 6.6336397,1.2822996 8.1619259,1.535296 9.7145742,1.7892295 9.2975992,4.110238 9.0333586,5.3799054 8.720392,6.8744588 8.3109122,9.5 7.3738884,9.5 6.4368647,9.5 6.5362744,7.6259519 5.4998408,7.6259519 4.5637539,7.6259519 4.5637539,9.5 3.6267299,9.5 2.6897059,9.5 2.2792892,6.8744588 1.9672604,5.3799054 Z"     enable-background="new    "     style="fill:#ffffff;fill-opacity:1;stroke-width:1" /><path     id="path3350"     d="m 166,1179.862 c -1,0 -1.438,-2.802 -1.771,-4.397 -0.283,-1.354 -0.727,-3.832 0.927,-4.103 1.632,-0.269 1.666,1 2.843,1 1.178,0 1.21,-1.27 2.841,-1 1.657,0.271 1.212,2.748 0.93,4.103 -0.334,1.595 -0.771,4.397 -1.771,4.397 -1,0 -0.822,-2 -2,-2 -1.183,0 -0.999,2 -1.999,2 z"     style="fill:#ffffff;fill-opacity:1" />
  </g>
</svg>
