<?xml version="1.0" encoding="utf-8"?>
<!-- Generator: Adobe Illustrator 17.1.0, SVG Export Plug-In . SVG Version: 6.00 Build 0)  -->
<!DOCTYPE svg PUBLIC "-//W3C//DTD SVG 1.1//EN" "http://www.w3.org/Graphics/SVG/1.1/DTD/svg11.dtd">
<svg version="1.1"
	 id="svg3122" xmlns:svg="http://www.w3.org/2000/svg" xmlns:cc="http://creativecommons.org/ns#" xmlns:dc="http://purl.org/dc/elements/1.1/" xmlns:rdf="http://www.w3.org/1999/02/22-rdf-syntax-ns#" sodipodi:docname="dlr.london-overground.london-underground.national-rail-15.svg" inkscape:version="0.91+devel+osxmenu r12911" xmlns:inkscape="http://www.inkscape.org/namespaces/inkscape" xmlns:sodipodi="http://sodipodi.sourceforge.net/DTD/sodipodi-0.dtd"
	 xmlns="http://www.w3.org/2000/svg" xmlns:xlink="http://www.w3.org/1999/xlink" x="0px" y="0px" width="75px" height="19px"
	 viewBox="0 0 75 19" enable-background="new 0 0 75 19" xml:space="preserve">
<path fill="#FFFFFF" d="M69,0h-7.2H60h-4c-1.7,0-3,1.3-3,3v1.5c-0.2-0.2-0.4-0.3-0.7-0.4C51,1,48-1,44.5-1S38,1,36.7,4.1
	c-0.5,0.2-0.9,0.5-1.2,0.9c-0.3-0.4-0.7-0.7-1.2-0.9C33,1,30-1,26.5-1S20,1,18.7,4.1c-0.5,0.2-0.9,0.5-1.2,0.9
	c-0.3-0.4-0.7-0.7-1.2-0.9C15,1,12-1,8.5-1S2,1,0.7,4.1C-0.3,4.5-1,5.4-1,6.5v2c0,1.1,0.7,2,1.7,2.4C2,13.9,5,16,8.5,16
	s6.5-2.1,7.8-5.1c0.5-0.2,0.9-0.5,1.2-0.9c0.3,0.4,0.7,0.7,1.2,0.9C20,13.9,23,16,26.5,16s6.5-2.1,7.8-5.1c0.5-0.2,0.9-0.5,1.2-0.9
	c0.3,0.4,0.7,0.7,1.2,0.9C38,13.9,41,16,44.5,16s6.5-2.1,7.8-5.1c0.3-0.1,0.5-0.2,0.7-0.4V12c0,1.7,1.3,3,3,3h7.2H65h4
	c1.7,0,3-1.3,3-3v-2V9V6V5V3C72,1.3,70.7,0,69,0z"/>
<g id="g9418" transform="translate(1,14)">
	<path id="path3346" inkscape:connector-curvature="0" fill="#9CC883" d="M7.5-13C3.9-13,1-10.1,1-6.5S3.9,0,7.5,0S14-2.9,14-6.5
		S11.1-13,7.5-13z M7.5-10.5c2.2,0,4,1.8,4,4l0,0c0,2.2-1.8,4-4,4l0,0c-2.2,0-4-1.8-4-4l0,0C3.5-8.7,5.3-10.5,7.5-10.5L7.5-10.5z"/>
	<path id="rect3363" fill="#5396C7" d="M0.5-8h14C14.8-8,15-7.8,15-7.5v2C15-5.2,14.8-5,14.5-5h-14C0.2-5,0-5.2,0-5.5v-2
		C0-7.8,0.2-8,0.5-8z"/>
</g>
<g id="g9423" transform="translate(19,14)">
	<path id="path9427" inkscape:connector-curvature="0" fill="#EEA66F" d="M7.5-13C3.9-13,1-10.1,1-6.5S3.9,0,7.5,0S14-2.9,14-6.5
		S11.1-13,7.5-13z M7.5-10.5c2.2,0,4,1.8,4,4l0,0c0,2.2-1.8,4-4,4l0,0c-2.2,0-4-1.8-4-4l0,0C3.5-8.7,5.3-10.5,7.5-10.5L7.5-10.5z"/>
	<path id="rect9429" fill="#5396C7" d="M0.5-8h14C14.8-8,15-7.8,15-7.5v2C15-5.2,14.8-5,14.5-5h-14C0.2-5,0-5.2,0-5.5v-2
		C0-7.8,0.2-8,0.5-8z"/>
</g>
<g id="g9431" transform="translate(37,14)">
	<path id="path9435" inkscape:connector-curvature="0" fill="#E97474" d="M7.5-13C3.9-13,1-10.1,1-6.5S3.9,0,7.5,0S14-2.9,14-6.5
		S11.1-13,7.5-13z M7.5-10.5c2.2,0,4,1.8,4,4l0,0c0,2.2-1.8,4-4,4l0,0c-2.2,0-4-1.8-4-4l0,0C3.5-8.7,5.3-10.5,7.5-10.5L7.5-10.5z"/>
	<path id="rect9437" fill="#5396C7" d="M0.5-8h14C14.8-8,15-7.8,15-7.5v2C15-5.2,14.8-5,14.5-5h-14C0.2-5,0-5.2,0-5.5v-2
		C0-7.8,0.2-8,0.5-8z"/>
</g>
<g id="g11681" transform="translate(55)">
	<path id="rect4778" fill="#E97474" d="M1,2h13c0.6,0,1,0.4,1,1v9c0,0.6-0.4,1-1,1H1c-0.6,0-1-0.4-1-1V3C0,2.4,0.4,2,1,2z"/>
	<path id="rect4780" inkscape:connector-curvature="0" fill="#FFFFFF" d="M5,2l4.8,3H0v1h9.4l-6,3H0v1h3.4l4.8,3H10l-4.8-3H15V9H5.6
		l6-3H15V5h-3.4L6.8,2H5z"/>
</g>
</svg>
