<?xml version="1.0" encoding="utf-8"?>
<!-- Generator: Adobe Illustrator 17.1.0, SVG Export Plug-In . SVG Version: 6.00 Build 0)  -->
<!DOCTYPE svg PUBLIC "-//W3C//DTD SVG 1.1//EN" "http://www.w3.org/Graphics/SVG/1.1/DTD/svg11.dtd">
<svg version="1.1"
	 id="svg2" xmlns:svg="http://www.w3.org/2000/svg" xmlns:cc="http://creativecommons.org/ns#" xmlns:dc="http://purl.org/dc/elements/1.1/" xmlns:rdf="http://www.w3.org/1999/02/22-rdf-syntax-ns#"
	 xmlns="http://www.w3.org/2000/svg" xmlns:xlink="http://www.w3.org/1999/xlink" x="0px" y="0px" width="23px" height="23px"
	 viewBox="0 0 23 23" enable-background="new 0 0 23 23" xml:space="preserve">
<ellipse id="ellipse4" fill="#FFFFFF" cx="11.5" cy="11.5" rx="11.5" ry="11.5"/>
<ellipse id="ellipse6" fill="#7E9A4C" cx="11.5" cy="11.5" rx="10.5" ry="10.5"/>
<g id="g8" transform="translate(5,5)">
	<g id="g4875" transform="matrix(1.3636281,0,0,1.3636281,2.1366667e-5,-6.5797112)">
		<path id="path4877" fill="#FFFFFF" d="M6.6,5.3c0,0-0.4,0-0.5,0.5L5.8,7.4l1.6,1.3h1.3c0.9,0,1-0.6,1-0.6L8.4,6.6
			C8,6.2,7.6,6.1,7.1,6.1V5.8C7.1,5.8,7.1,5.3,6.6,5.3z M2.8,5.5c0,0-0.3,0-0.7,0.2C1.7,5.8,1.3,6.2,1.3,6.8v2.5
			c0,1.1-0.5,1.3-0.6,1.3c0,0-0.6,0-0.6,0.6v1.5c0,0,0,0.5,0.5,0.5h0.2H1h0.3v-0.3v-0.2c0-0.2-0.2-0.4-0.3-0.4v-0.7
			c0.6,0,0.7-0.1,1-0.2l0.4,1.5c0,0.2,0.2,0.3,0.3,0.4h0.6l0,0h0.6v-0.5c0-0.5-0.6-0.5-0.6-0.5v-1.6h2.1l0.5,1.7
			c0.3,0.9,0.7,0.9,0.7,0.9h0.5h0.6v-0.5c0-0.5-0.6-0.5-0.6-0.5V9.7L5.2,8.1H2.3V6.8c0-0.3,0.1-0.3,0.2-0.3c0.1-0.1,0.3-0.1,0.3-0.1
			C3.4,6.4,3.4,5.5,2.8,5.5z M7.6,7.1c0.1,0,0.2,0.1,0.2,0.2S7.7,7.5,7.6,7.5S7.4,7.3,7.4,7.3C7.4,7.2,7.5,7.1,7.6,7.1z"/>
	</g>
</g>
</svg>
