<svg viewBox="-296 189 23 23" width="23" height="23" data-reactid=".0.1.1.$dog-park-15=1svg5.0.0"><rect x="-295" y="190" rx="10.5" ry="10.5" width="21" height="21" stroke="#fff" style="stroke-linejoin:round;stroke-miterlimit:4px;" fill="#fff" stroke-width="2" data-reactid=".0.1.1.$dog-park-15=1svg5.0.0.0"></rect><rect x="-295" y="190" width="21" height="21" rx="10.5" ry="10.5" fill="#6b7f33" data-reactid=".0.1.1.$dog-park-15=1svg5.0.0.1"></rect><path fill="#fff" d="
	M-281.8,193.7c0,0-0.6,0-0.7,0.8l-0.5,2.5l2.5,2h2c1.4,0,1.5-1,1.5-1l-2-2.2c-0.7-0.7-1.3-0.8-2-0.8v-0.5
	C-281,194.5-281,193.7-281.8,193.7z M-287.8,194c0,0-0.5,0-1.1,0.2s-1.2,0.9-1.2,1.9l0,3.9c0,1.7-0.7,2-1,2c0,0-1,0-1,1v2.2
	c0,0,0,0.8,0.8,0.8h0.2h0.5h0.5v-0.5v-0.2c0-0.4-0.2-0.6-0.5-0.7v-1.1c1,0,1.1-0.2,1.5-0.3l0.6,2.3c0.1,0.3,0.2,0.5,0.5,0.6h1h0h1
	v-0.8c0-0.8-1-0.8-1-0.8V202h3.3l0.8,2.6c0.4,1.4,1.1,1.4,1.1,1.4l0.8,0h1v-0.8c0-0.8-1-0.8-1-0.8v-4l-3-2.5h-4.5v-1.9
	c0-0.4,0.1-0.4,0.3-0.5c0.2-0.1,0.4-0.1,0.4-0.1C-286.8,195.5-286.8,194-287.8,194z M-280.3,196.5c0.1,0,0.3,0.1,0.3,0.2
	s-0.1,0.2-0.2,0.2s-0.2-0.1-0.2-0.2C-280.5,196.6-280.4,196.5-280.3,196.5z" data-reactid=".0.1.1.$dog-park-15=1svg5.0.0.3:$dog-park-15=1svg-0-fill"></path></svg>