<svg viewBox="-4 -4 19 19" width="19" height="19" data-reactid=".0.1.1.$drinking-water-11=1svg26.0.0"><rect x="-3" y="-3" rx="8.5" ry="8.5" width="17" height="17" stroke="#fff" style="stroke-linejoin:round;stroke-miterlimit:4px;" fill="#fff" stroke-width="2" data-reactid=".0.1.1.$drinking-water-11=1svg26.0.0.0"></rect><rect x="-3" y="-3" width="17" height="17" rx="8.5" ry="8.5" fill="#7f7874" data-reactid=".0.1.1.$drinking-water-11=1svg26.0.0.1"></rect><path fill="#fff" d="M 7,1 C 6.015786,1 5.030078,1.4197375 4.542969,2.2109375 4.055859,3.0020375 3.995983,3.8934 4,5 L 6,5 C 5.9965,4.0379 6.121979,3.455506 6.246094,3.2539059 6.370209,3.0564063 6.404024,3 6.982422,3 L 10,3 10,1 Z M 2,6 3,11 6,11 7,6 Z M 3,7 6,7 6,8 3,8 Z" data-reactid=".0.1.1.$drinking-water-11=1svg26.0.0.3:$drinking-water-11=1svg-0-fill"></path></svg>