<svg viewBox="-296 189 23 23" width="23" height="23" data-reactid=".0.1.1.$drinking-water-15=1svg27.0.0"><rect x="-295" y="190" rx="10.5" ry="10.5" width="21" height="21" stroke="#fff" style="stroke-linejoin:round;stroke-miterlimit:4px;" fill="#fff" stroke-width="2" data-reactid=".0.1.1.$drinking-water-15=1svg27.0.0.0"></rect><rect x="-295" y="190" width="21" height="21" rx="10.5" ry="10.5" fill="#7f7874" data-reactid=".0.1.1.$drinking-water-15=1svg27.0.0.1"></rect><path fill="#fff" d="M-283.5,193
	c-1.5,0-2.9,0.7-3.7,1.9c-0.7,1.2-0.8,2.5-0.8,4.1h3c0-2,0.1-2.2,0.3-2.5c0.2-0.3,0.7-0.5,1.2-0.5h4.5v-3H-283.5z M-289,208h5l1-7
	l-7,0L-289,208z M-289,202h5l-0.3,2h-4.4L-289,202z" data-reactid=".0.1.1.$drinking-water-15=1svg27.0.0.3:$drinking-water-15=1svg-0-fill"></path></svg>