<?xml version="1.0" encoding="utf-8"?>
<!-- Generator: Adobe Illustrator 17.1.0, SVG Export Plug-In . SVG Version: 6.00 Build 0)  -->
<!DOCTYPE svg PUBLIC "-//W3C//DTD SVG 1.1//EN" "http://www.w3.org/Graphics/SVG/1.1/DTD/svg11.dtd">
<svg version="1.1" id="Layer_1" xmlns="http://www.w3.org/2000/svg" xmlns:xlink="http://www.w3.org/1999/xlink" x="0px" y="0px"
	 width="26px" height="18px" viewBox="0 0 26 18" enable-background="new 0 0 26 18" xml:space="preserve">
<g id="svg5037" xmlns:rdf="http://www.w3.org/1999/02/22-rdf-syntax-ns#" xmlns:svg="http://www.w3.org/2000/svg" xmlns:dc="http://purl.org/dc/elements/1.1/" xmlns:cc="http://creativecommons.org/ns#" display="none">
	<g id="layer1" transform="translate(-54.999985,-924.36218)" display="inline">
		<g id="generic-md-2" transform="translate(-180,480)">
			<path id="rect3449" fill="#F0CA00" d="M237,444.4h17c1.1,0,2,0.9,2,2v11c0,1.1-0.9,2-2,2h-17c-1.1,0-2-0.9-2-2v-11
				C235,445.3,235.9,444.4,237,444.4z"/>
			<path id="rect3451" d="M237,445.4h17c0.6,0,1,0.4,1,1v11c0,0.6-0.4,1-1,1h-17c-0.6,0-1-0.4-1-1v-11
				C236,445.8,236.4,445.4,237,445.4z"/>
			<path id="rect3451_1_" fill="#F0CA00" d="M238,446.4h15c0.6,0,1,0.4,1,1v9c0,0.6-0.4,1-1,1h-15c-0.6,0-1-0.4-1-1v-9
				C237,446.8,237.4,446.4,238,446.4z"/>
		</g>
	</g>
</g>
<g id="svg5037_copy" xmlns:rdf="http://www.w3.org/1999/02/22-rdf-syntax-ns#" xmlns:svg="http://www.w3.org/2000/svg" xmlns:dc="http://purl.org/dc/elements/1.1/" xmlns:cc="http://creativecommons.org/ns#">
	<path id="rect3449_1_" fill="#007F00" d="M2,0h22c1.1,0,2,0.9,2,2v14c0,1.1-0.9,2-2,2H2c-1.1,0-2-0.9-2-2V2C0,0.9,0.9,0,2,0z"/>
	<path id="rect3449_2_" fill="#FFFFFF" d="M3,1h20c1.1,0,2,0.9,2,2v12c0,1.1-0.9,2-2,2H3c-1.1,0-2-0.9-2-2V3C1,1.9,1.9,1,3,1z"/>
	<g id="layer1_1_" transform="translate(-54.999985,-924.36218)">
		<g id="generic-md-2_1_" transform="translate(-180,480)">
			<path id="rect3451_2_" fill="#007F00" d="M238,446.4h20c0.6,0,1,0.4,1,1v12c0,0.6-0.4,1-1,1h-20c-0.6,0-1-0.4-1-1v-12
				C237,446.8,237.4,446.4,238,446.4z"/>
		</g>
	</g>
</g>
</svg>
