<svg viewBox="-4 -4 19 19" width="19" height="19" data-reactid=".0.1.1.$embassy-11=1svg28.0.0"><rect x="-3" y="-3" rx="8.5" ry="8.5" width="17" height="17" stroke="#fff" style="stroke-linejoin:round;stroke-miterlimit:4px;" fill="#fff" stroke-width="2" data-reactid=".0.1.1.$embassy-11=1svg28.0.0.0"></rect><rect x="-3" y="-3" width="17" height="17" rx="8.5" ry="8.5" fill="#7f7874" data-reactid=".0.1.1.$embassy-11=1svg28.0.0.1"></rect><path fill="#fff" d="M 5.5 1 C 4.5 1 3.5 2.5 3.5 2.5 L 3.5 6.5 C 3.5 6.5 4.666667 5 5.5 5 C 6.5 5 7.028175 6.5 8 6.5 C 8.971825 6.5 10 5 10 5 L 10 1 C 10 1 8.971825 2.5 8 2.5 C 7.028175 2.5 6.5 1 5.5 1 z M 2.5 1.5 A 0.5 0.50000006 0 0 0 2 2 L 2 8 C 2 9 1 9 1 9 L 1 10 L 4 10 L 4 9 C 4 9 3 9 3 8 L 3 6.5 L 3 2 A 0.5 0.50000006 0 0 0 2.5 1.5 z " data-reactid=".0.1.1.$embassy-11=1svg28.0.0.3:$embassy-11=1svg-0-fill"></path></svg>