<svg viewBox="-4 -4 23 23" width="23" height="23" data-reactid=".0.1.1.$embassy-15=1svg29.0.0"><rect x="-3" y="-3" rx="10.5" ry="10.5" width="21" height="21" stroke="#fff" style="stroke-linejoin:round;stroke-miterlimit:4px;" fill="#fff" stroke-width="2" data-reactid=".0.1.1.$embassy-15=1svg29.0.0.0"></rect><rect x="-3" y="-3" width="21" height="21" rx="10.5" ry="10.5" fill="#7f7874" data-reactid=".0.1.1.$embassy-15=1svg29.0.0.1"></rect><path fill="#fff" d="M 6.8164062 2 C 5.1585114 2 3.5 4 3.5 4 L 3.5 10 C 3.5 10 5.1585114 8 6.8164062 8 C 8.4128974 8 9.0256986 10 10.683594 10 C 12.341488 10 14 7.7773437 14 7.7773438 L 14 2 C 14 2 12.341488 4 10.683594 4 C 9.0256986 4 8.474301 2 6.8164062 2 z M 2.4355469 2.4726562 A 0.52777779 0.52777791 0 0 0 1.9453125 3 A 0.52777779 0.52777791 0 0 0 1.9453125 3.0371094 L 1.9453125 12.060547 C 1.6909026 13.488917 0.5 13.5 0.5 13.5 L 0.5 14 L 4.5 14 L 4.5 13.5 C 4.5 13.5 3 13.499999 3 11.5 L 3 9.9453125 L 3 3 A 0.52777779 0.52777791 0 0 0 2.4726562 2.4726562 A 0.52777779 0.52777791 0 0 0 2.4355469 2.4726562 z " data-reactid=".0.1.1.$embassy-15=1svg29.0.0.3:$embassy-15=1svg-0-fill"></path></svg>