<?xml version="1.0" encoding="utf-8"?>
<!-- Generator: Adobe Illustrator 17.1.0, SVG Export Plug-In . SVG Version: 6.00 Build 0)  -->
<!DOCTYPE svg PUBLIC "-//W3C//DTD SVG 1.1//EN" "http://www.w3.org/Graphics/SVG/1.1/DTD/svg11.dtd">
<svg version="1.1"
	 id="svg2" xmlns:svg="http://www.w3.org/2000/svg" xmlns:cc="http://creativecommons.org/ns#" xmlns:dc="http://purl.org/dc/elements/1.1/" xmlns:rdf="http://www.w3.org/1999/02/22-rdf-syntax-ns#"
	 xmlns="http://www.w3.org/2000/svg" xmlns:xlink="http://www.w3.org/1999/xlink" x="0px" y="0px" width="23px" height="23px"
	 viewBox="0 0 23 23" enable-background="new 0 0 23 23" xml:space="preserve">
<ellipse id="ellipse4" fill="#FFFFFF" cx="11.5" cy="11.5" rx="11.5" ry="11.5"/>
<ellipse id="ellipse6" fill="#A9A199" cx="11.5" cy="11.5" rx="10.5" ry="10.5"/>
<g id="g8" transform="translate(4,4)">
	<path id="path5391" fill="#FFFFFF" d="M6.8,2C5.2,2,3.5,4,3.5,4v6c0,0,1.7-2,3.3-2s2.2,2,3.9,2S14,7.8,14,7.8V2c0,0-1.7,2-3.3,2
		S8.5,2,6.8,2z M2.4,2.5C2.2,2.5,1.9,2.7,1.9,3l0,0v9c-0.3,1.4-1.4,1.4-1.4,1.4V14h4v-0.5c0,0-1.5,0-1.5-2V9.9V3
		C3,2.7,2.8,2.5,2.4,2.5C2.5,2.5,2.4,2.5,2.4,2.5z"/>
</g>
</svg>
