<svg viewBox="-296 189 23 23" width="23" height="23" data-reactid=".0.1.1.$fast-food-15=1svg7.0.0"><rect x="-295" y="190" rx="10.5" ry="10.5" width="21" height="21" stroke="#fff" style="stroke-linejoin:round;stroke-miterlimit:4px;" fill="#fff" stroke-width="2" data-reactid=".0.1.1.$fast-food-15=1svg7.0.0.0"></rect><rect x="-295" y="190" width="21" height="21" rx="10.5" ry="10.5" fill="#a57453" data-reactid=".0.1.1.$fast-food-15=1svg7.0.0.1"></rect><path fill="#fff" d="
	M-288,194c0,0-3,0-3,3l0,1.7l0.8,0.2h11.5l0.8-0.2l0-1.8c0-3-3-3-3.1-3H-288z M-286.5,195c0.3,0,0.5,0.2,0.5,0.4l0,0
	c0,0.3-0.2,0.5-0.4,0.5c-0.3,0-0.5-0.2-0.5-0.4C-287,195.3-286.8,195-286.5,195C-286.5,195-286.5,195-286.5,195z M-282.5,195
	L-282.5,195c0.3,0,0.5,0.2,0.5,0.4l0,0c0,0.3-0.2,0.5-0.4,0.5c-0.3,0-0.5-0.2-0.5-0.4C-283,195.3-282.8,195-282.5,195
	C-282.5,195-282.5,195-282.5,195z M-288.5,197L-288.5,197c0.3,0,0.5,0.2,0.5,0.4l0,0c0,0.3-0.2,0.5-0.4,0.5c-0.3,0-0.5-0.2-0.5-0.4
	C-289,197.3-288.8,197-288.5,197C-288.5,197-288.5,197-288.5,197z M-284.5,197c0.3,0,0.5,0.2,0.5,0.4l0,0c0,0.3-0.2,0.5-0.4,0.5
	c-0.3,0-0.5-0.2-0.5-0.4C-285,197.3-284.8,197-284.5,197C-284.5,197-284.5,197-284.5,197z M-280.5,197c0.3,0,0.5,0.2,0.5,0.4l0,0
	c0,0.3-0.2,0.5-0.4,0.5c-0.3,0-0.5-0.2-0.5-0.4C-281,197.3-280.8,197-280.5,197C-280.5,197-280.5,197-280.5,197L-280.5,197z
	 M-290.5,200c-0.8,0-1.5,0.7-1.5,1.5s0.7,1.5,1.5,1.5h12c0.8,0,1.5-0.7,1.5-1.5s-0.7-1.5-1.5-1.5H-290.5z M-290,204l-1,0.2l0,0.7
	c0,2,2,2,6.5,2s6.5,0,6.5-2l0-0.8l-1-0.2H-290z" data-reactid=".0.1.1.$fast-food-15=1svg7.0.0.3:$fast-food-15=1svg-0-fill"></path></svg>