<?xml version="1.0" encoding="utf-8"?>
<!-- Generator: Adobe Illustrator 17.1.0, SVG Export Plug-In . SVG Version: 6.00 Build 0)  -->
<!DOCTYPE svg PUBLIC "-//W3C//DTD SVG 1.1//EN" "http://www.w3.org/Graphics/SVG/1.1/DTD/svg11.dtd">
<svg version="1.1"
	 id="svg2" xmlns:svg="http://www.w3.org/2000/svg" xmlns:cc="http://creativecommons.org/ns#" xmlns:dc="http://purl.org/dc/elements/1.1/" xmlns:rdf="http://www.w3.org/1999/02/22-rdf-syntax-ns#"
	 xmlns="http://www.w3.org/2000/svg" xmlns:xlink="http://www.w3.org/1999/xlink" x="0px" y="0px" width="19px" height="19px"
	 viewBox="0 0 19 19" enable-background="new 0 0 19 19" xml:space="preserve">
<ellipse id="ellipse4" fill="#FFFFFF" cx="9.5" cy="9.5" rx="9.5" ry="9.5"/>
<ellipse id="ellipse6" fill="#AB9483" cx="9.5" cy="9.5" rx="8.5" ry="8.5"/>
<g id="g8" transform="translate(4,4)">
	<path id="rect3335-7" fill="#FFFFFF" d="M4.5,1h2c0,0,4,0,4,2.5V5h-10V3.5C0.5,1,4.5,1,4.5,1z"/>
	<path id="rect3353" fill="#FFFFFF" d="M0.5,6h10C10.8,6,11,6.2,11,6.5l0,0C11,6.8,10.8,7,10.5,7h-10C0.2,7,0,6.8,0,6.5l0,0
		C0,6.2,0.2,6,0.5,6z"/>
	<path id="rect7177" fill="#FFFFFF" d="M1,8h9c0.3,0,0.5,0.2,0.5,0.5v1c0,0.3-0.2,0.5-0.5,0.5H1c-0.3,0-0.5-0.2-0.5-0.5v-1
		C0.5,8.2,0.7,8,1,8z"/>
</g>
</svg>
