<svg viewBox="-298 191 19 19" width="19" height="19" data-reactid=".0.1.1.$fast-food-11=1svg6.0.0"><rect x="-297" y="192" rx="8.5" ry="8.5" width="17" height="17" stroke="#fff" style="stroke-linejoin:round;stroke-miterlimit:4px;" fill="#fff" stroke-width="2" data-reactid=".0.1.1.$fast-food-11=1svg6.0.0.0"></rect><rect x="-297" y="192" width="17" height="17" rx="8.5" ry="8.5" fill="#a57453" data-reactid=".0.1.1.$fast-food-11=1svg6.0.0.1"></rect><path fill="#fff" d="M-283.5,198.5c0-2.5-4-2.5-4-2.5h-2c0,0-4,0-4,2.5v1.5h10V198.5z" data-reactid=".0.1.1.$fast-food-11=1svg6.0.0.3:$fast-food-11=1svg-0-fill"></path><path fill="#fff" d="M-283.5,201h-10c-0.3,0-0.5,0.2-0.5,0.5s0.2,0.5,0.5,0.5h10c0.3,0,0.5-0.2,0.5-0.5S-283.2,201-283.5,201z" data-reactid=".0.1.1.$fast-food-11=1svg6.0.0.3:$fast-food-11=1svg-1-fill"></path><path fill="#fff" d="M-284,203h-9c-0.3,0-0.5,0.2-0.5,0.5v1c0,0.3,0.2,0.5,0.5,0.5h9c0.3,0,0.5-0.2,0.5-0.5v-1C-283.5,203.2-283.7,203-284,203z" data-reactid=".0.1.1.$fast-food-11=1svg6.0.0.3:$fast-food-11=1svg-2-fill"></path></svg>