<?xml version="1.0" encoding="utf-8"?>
<!-- Generator: Adobe Illustrator 17.1.0, SVG Export Plug-In . SVG Version: 6.00 Build 0)  -->
<!DOCTYPE svg PUBLIC "-//W3C//DTD SVG 1.1//EN" "http://www.w3.org/Graphics/SVG/1.1/DTD/svg11.dtd">
<svg version="1.1"
	 id="svg2" xmlns:svg="http://www.w3.org/2000/svg" xmlns:cc="http://creativecommons.org/ns#" xmlns:dc="http://purl.org/dc/elements/1.1/" xmlns:rdf="http://www.w3.org/1999/02/22-rdf-syntax-ns#"
	 xmlns="http://www.w3.org/2000/svg" xmlns:xlink="http://www.w3.org/1999/xlink" x="0px" y="0px" width="23px" height="23px"
	 viewBox="0 0 23 23" enable-background="new 0 0 23 23" xml:space="preserve">
<ellipse id="ellipse4" fill="#FFFFFF" cx="11.5" cy="11.5" rx="11.5" ry="11.5"/>
<ellipse id="ellipse6" fill="#AB9483" cx="11.5" cy="11.5" rx="10.5" ry="10.5"/>
<g id="g8" transform="translate(5,5.5)">
	<path id="rect3337" fill="#FFFFFF" d="M3.5,0c0,0-2.6,0-2.6,2.7v1.5l0.7,0.2h10.1l0.7-0.2V2.6C12.4,0,9.7,0,9.7,0H3.5z M4.9,0.9
		L4.9,0.9c0.2,0,0.4,0.2,0.5,0.4l0,0c0,0.2-0.2,0.5-0.4,0.5c-0.2,0-0.5-0.1-0.5-0.4C4.4,1.1,4.6,0.9,4.9,0.9
		C4.8,0.9,4.8,0.9,4.9,0.9z M8.4,0.9L8.4,0.9c0.2,0,0.4,0.2,0.5,0.4l0,0c0,0.2-0.2,0.5-0.4,0.5C8.2,1.8,8,1.6,8,1.4
		C7.9,1.1,8.1,0.9,8.4,0.9L8.4,0.9z M3.1,2.6L3.1,2.6c0.2,0,0.4,0.2,0.5,0.4l0,0c0,0.2-0.2,0.5-0.4,0.5S2.7,3.4,2.7,3.1
		C2.6,2.9,2.8,2.7,3.1,2.6L3.1,2.6L3.1,2.6z M6.6,2.6C6.8,2.6,7,2.8,7.1,3l0,0c0,0.2-0.2,0.5-0.4,0.5c-0.2,0-0.5-0.1-0.5-0.4
		C6.2,2.9,6.3,2.7,6.6,2.6L6.6,2.6z M10.1,2.6c0.2,0,0.4,0.2,0.5,0.4l0,0c0,0.2-0.2,0.5-0.4,0.5S9.7,3.4,9.7,3.1
		C9.7,2.9,9.9,2.7,10.1,2.6L10.1,2.6L10.1,2.6z M0.9,9v0.7c0,0,0,0.9,0.9,0.9h9.7c0.9,0,0.8-0.9,0.8-0.9V9l-0.7-0.2H6.2l-1.8,1.3
		L2.7,8.8H1.6L0.9,9z"/>
	<path id="rect7791" fill="#FFFFFF" d="M1.3,5.3h10.6c0.7,0,1.3,0.6,1.3,1.3s-0.6,1.3-1.3,1.3H7.5H6L4.4,9L2.9,7.9H1.3
		C0.6,7.9,0,7.3,0,6.6S0.6,5.3,1.3,5.3z"/>
</g>
</svg>
