<?xml version="1.0" encoding="utf-8"?>
<!-- Generator: Adobe Illustrator 17.1.0, SVG Export Plug-In . SVG Version: 6.00 Build 0)  -->
<!DOCTYPE svg PUBLIC "-//W3C//DTD SVG 1.1//EN" "http://www.w3.org/Graphics/SVG/1.1/DTD/svg11.dtd">
<svg version="1.1"
	 id="svg2" xmlns:svg="http://www.w3.org/2000/svg" xmlns:cc="http://creativecommons.org/ns#" xmlns:dc="http://purl.org/dc/elements/1.1/" xmlns:rdf="http://www.w3.org/1999/02/22-rdf-syntax-ns#"
	 xmlns="http://www.w3.org/2000/svg" xmlns:xlink="http://www.w3.org/1999/xlink" x="0px" y="0px" width="23px" height="23px"
	 viewBox="0 0 23 23" enable-background="new 0 0 23 23" xml:space="preserve">
<path id="rect4" fill="#FFFFFF" d="M3,0h17c1.7,0,3,1.3,3,3v17c0,1.7-1.3,3-3,3H3c-1.7,0-3-1.3-3-3V3C0,1.3,1.3,0,3,0z"/>
<path id="rect6" fill="#9C8EA4" d="M3,1h17c1.1,0,2,0.9,2,2v17c0,1.1-0.9,2-2,2H3c-1.1,0-2-0.9-2-2V3C1,1.9,1.9,1,3,1z"/>
<g id="g8" transform="translate(5,5)">
	<g id="g4838" transform="matrix(1.2032085,0,0,1.2032085,-2.2e-5,24.06417)">
		<path id="path4840" fill="#FFFFFF" d="M4.4-20c-0.4,0-0.7,0.3-0.7,0.7H3.3c-0.6,0-1.1,0.5-1.1,1.1v2.7l-1.1,0.6l1.8,2.9h0.4
			c0.6,0,1,0.2,1.3,0.4c0.4,0.2,0.6,0.3,0.9,0.3c0.3,0,0.5-0.1,0.9-0.3c0.4-0.2,0.7-0.4,1.3-0.4h0.4l1.8-2.9l-1.1-0.6v-2.7
			c0-0.6-0.5-1.1-1.1-1.1H7.3C7.3-19.7,7-20,6.6-20H4.4z M3.3-18.5h4.4c0.2,0,0.4,0.2,0.4,0.4v2.2l-2.6-1.5l-2.6,1.5v-2.2
			C2.9-18.4,3.1-18.5,3.3-18.5z M2.2-10.8c0,0-0.7,0-0.7,0.5c0,0.5,0.7,0.6,0.7,0.6h1c0.3,0,0.5,0.1,0.9,0.3C4.5-9.2,4.9-9,5.5-9
			s1-0.2,1.4-0.4c0.4-0.2,0.6-0.3,0.9-0.3h1c0,0,0.7,0,0.7-0.5c0-0.6-0.7-0.6-0.7-0.6h-1c-0.6,0-1,0.2-1.4,0.4
			c-0.4,0.2-0.6,0.3-0.9,0.3c-0.3,0-0.5-0.1-0.9-0.3c-0.4-0.2-0.8-0.4-1.4-0.4H2.2z"/>
	</g>
</g>
</svg>
