<?xml version="1.0" encoding="utf-8"?>
<!-- Generator: Adobe Illustrator 17.1.0, SVG Export Plug-In . SVG Version: 6.00 Build 0)  -->
<!DOCTYPE svg PUBLIC "-//W3C//DTD SVG 1.1//EN" "http://www.w3.org/Graphics/SVG/1.1/DTD/svg11.dtd">
<svg version="1.1"
	 id="svg2" xmlns:svg="http://www.w3.org/2000/svg" xmlns:cc="http://creativecommons.org/ns#" xmlns:dc="http://purl.org/dc/elements/1.1/" xmlns:rdf="http://www.w3.org/1999/02/22-rdf-syntax-ns#"
	 xmlns="http://www.w3.org/2000/svg" xmlns:xlink="http://www.w3.org/1999/xlink" x="0px" y="0px" width="19px" height="19px"
	 viewBox="0 0 19 19" enable-background="new 0 0 19 19" xml:space="preserve">
<path id="rect4" fill="#FFFFFF" d="M3,0h13c1.7,0,3,1.3,3,3v13c0,1.7-1.3,3-3,3H3c-1.7,0-3-1.3-3-3V3C0,1.3,1.3,0,3,0z"/>
<path id="rect6" fill="#9C8EA4" d="M2,1h15c0.6,0,1,0.4,1,1v15c0,0.6-0.4,1-1,1H2c-0.6,0-1-0.4-1-1V2C1,1.4,1.4,1,2,1z"/>
<g id="g8" transform="translate(4,4)">
	<path id="path4715" fill="#FFFFFF" d="M3.5,0C3.5,0,2,0,2,1.5v2.9L1,5l1.7,3h0.5c0.6,0,1.1,0.3,1.5,0.5c0.4,0.2,0.6,0.3,0.8,0.3
		s0.4-0.1,0.8-0.3C6.6,8.3,7.1,8.1,7.8,8h0.5L10,5L9,4.4V1.5C9,1.5,9,0,7.5,0H3.5z M3.5,1h4C7.5,1,8,1,8,1.5v2.4L5.5,2.5L3,3.9V1.5
		C3,1.5,3,1,3.5,1z M2.2,9c0,0-0.8,0-0.8,0.6s0.8,0.6,0.8,0.6h1c0.2,0,0.4,0.1,0.8,0.3C4.4,10.7,4.9,11,5.5,11s1.1-0.3,1.5-0.5
		s0.6-0.3,0.8-0.3h1c0,0,0.8,0,0.8-0.6S8.8,9,8.8,9h-1C7.1,9,6.6,9.3,6.3,9.5S5.7,9.8,5.5,9.8S5.1,9.7,4.7,9.5C4.4,9.3,3.9,9,3.2,9
		H2.2z"/>
</g>
</svg>
