<svg viewBox="-295 190 21 21" width="21" height="21" data-reactid=".0.1.1.$ferry-15=1svg11.0.0"><rect x="-294" y="191" rx="1" ry="1" width="19" height="19" stroke="#fff" style="stroke-linejoin:round;stroke-miterlimit:4px;" fill="#fff" stroke-width="2" data-reactid=".0.1.1.$ferry-15=1svg11.0.0.0"></rect><rect x="-294" y="191" width="19" height="19" rx="1" ry="1" fill="#8363a5" data-reactid=".0.1.1.$ferry-15=1svg11.0.0.1"></rect><path fill="#fff" d="M-286,193c-0.6,0-1,0.4-1,1h-0.5c-0.8,0-1.5,0.7-1.5,1.5v3.6l-1.5,0.9
	l2.5,4h0.5c0.8,0,1.3,0.3,1.8,0.6c0.5,0.3,0.8,0.4,1.2,0.4s0.7-0.2,1.2-0.4c0.5-0.3,1-0.6,1.8-0.6h0.5l2.5-4l-1.5-0.9v-3.6
	c0-0.8-0.7-1.5-1.5-1.5h-0.5c0-0.6-0.4-1-1-1H-286z M-287.5,195h6c0.3,0,0.5,0.2,0.5,0.5v3l-3.5-2l-3.5,2v-3
	C-288,195.2-287.8,195-287.5,195z M-289,205.5c0,0-1,0-1,0.8s1,0.8,1,0.8h1.4c0.4,0,0.7,0.2,1.2,0.4s1.1,0.6,1.9,0.6
	c0.8,0,1.4-0.3,1.9-0.6s0.8-0.4,1.2-0.4h1.4c0,0,1,0,1-0.8c0-0.8-1-0.8-1-0.8h-1.4c-0.8,0-1.4,0.3-1.9,0.6s-0.8,0.4-1.2,0.4
	c-0.4,0-0.7-0.2-1.2-0.4s-1.1-0.6-1.9-0.6H-289z" data-reactid=".0.1.1.$ferry-15=1svg11.0.0.3:$ferry-15=1svg-0-fill"></path></svg>