<svg viewBox="-4 -4 19 19" width="19" height="19" data-reactid=".0.1.1.$fire-station-11=1svg30.0.0"><rect x="-3" y="-3" rx="8.5" ry="8.5" width="17" height="17" stroke="#fff" style="stroke-linejoin:round;stroke-miterlimit:4px;" fill="#fff" stroke-width="2" data-reactid=".0.1.1.$fire-station-11=1svg30.0.0.0"></rect><rect x="-3" y="-3" width="17" height="17" rx="8.5" ry="8.5" fill="#7f7874" data-reactid=".0.1.1.$fire-station-11=1svg30.0.0.1"></rect><path fill="#fff" d="M 5.5,0 3.5,4 2,2 C 1.5949678,2.7120667 0,4.1666667 0,6 0,8.7001333 2.79994,11 5.5,11 8.20006,11 11,8.7001333 11,6 11,4.1666667 9.405032,2.7120667 9,2 L 7.5,4 Z m 0,5.5 c 0,0 2,1.5850333 2,3 0,0.6111111 -0.7777778,1.2777778 -2,1.2777778 -1.2222222,0 -2,-0.6666667 -2,-1.2777778 0,-1.3664445 2,-3 2,-3 z" data-reactid=".0.1.1.$fire-station-11=1svg30.0.0.3:$fire-station-11=1svg-0-fill"></path></svg>