<?xml version="1.0" encoding="utf-8"?>
<!-- Generator: Adobe Illustrator 17.1.0, SVG Export Plug-In . SVG Version: 6.00 Build 0)  -->
<!DOCTYPE svg PUBLIC "-//W3C//DTD SVG 1.1//EN" "http://www.w3.org/Graphics/SVG/1.1/DTD/svg11.dtd">
<svg version="1.1"
	 id="svg2" xmlns:svg="http://www.w3.org/2000/svg" xmlns:cc="http://creativecommons.org/ns#" xmlns:dc="http://purl.org/dc/elements/1.1/" xmlns:rdf="http://www.w3.org/1999/02/22-rdf-syntax-ns#"
	 xmlns="http://www.w3.org/2000/svg" xmlns:xlink="http://www.w3.org/1999/xlink" x="0px" y="0px" width="23px" height="23px"
	 viewBox="0 0 23 23" enable-background="new 0 0 23 23" xml:space="preserve">
<ellipse id="ellipse4" fill="#FFFFFF" cx="11.5" cy="11.5" rx="11.5" ry="11.5"/>
<ellipse id="ellipse6" fill="#A9A199" cx="11.5" cy="11.5" rx="10.5" ry="10.5"/>
<g id="g8" transform="translate(4,4)">
	<path id="path10041-3-3" fill="#FFFFFF" d="M7.5,0.5L5,4.5l-1.5-2c-0.6,1-2.7,3.3-2.7,5.8c0,3.7,3,6.7,6.7,6.7s6.7-3,6.7-6.7
		c0-2.5-2.1-4.8-2.7-5.8l-1.5,2L7.5,0.5z M7.5,7c0,0,2.5,2.6,2.5,4.5c0,0.8-0.8,2-2.5,2S5,12.3,5,11.5C5,9.6,7.5,7,7.5,7z"/>
</g>
</svg>
