<?xml version="1.0" encoding="UTF-8" standalone="no"?>
<svg
   xmlns:dc="http://purl.org/dc/elements/1.1/"
   xmlns:cc="http://creativecommons.org/ns#"
   xmlns:rdf="http://www.w3.org/1999/02/22-rdf-syntax-ns#"
   xmlns:svg="http://www.w3.org/2000/svg"
   xmlns="http://www.w3.org/2000/svg"
   id="svg2"
   width="23"
   height="23"
   viewBox="0 0 23 23"
   version="1.1">
  <metadata
     id="metadata14">
    <rdf:RDF>
      <cc:Work
         rdf:about="">
        <dc:format>image/svg+xml</dc:format>
        <dc:type
           rdf:resource="http://purl.org/dc/dcmitype/StillImage" />
      </cc:Work>
    </rdf:RDF>
  </metadata>
  <defs
     id="defs12" />
  <ellipse
     id="ellipse4"
     ry="11.5"
     rx="11.5"
     cy="11.5"
     cx="11.5"
     style="fill:#ffffff;stroke:none;" />
  <ellipse
     id="ellipse6"
     ry="10.5"
     rx="10.5"
     cy="11.5"
     cx="11.5"
     style="fill:#a9a199;stroke:none;" />
  <g
     id="g8"
     transform="translate(4.5,5)">
      <defs     id="defs4621" />  <metadata     id="metadata4624">    <rdf:RDF>      <cc:Work         rdf:about="">        <dc:format>image/svg+xml</dc:format>        <dc:type           rdf:resource="http://purl.org/dc/dcmitype/StillImage" />        <dc:title />      </cc:Work>    </rdf:RDF>  </metadata>  <path     id="path7262"     transform="scale(0.88235293)"     d="M 4 1 C 3.4545459 1 3 1.4545455 3 2 L 3 13 C 3 13 2.9999999 14 4 14 L 11 14 C 12 14 12 13 12 13 L 12 12 L 13 12 L 14 12 C 15 12 15 11 15 11 L 15 9.5 C 15 8.4090908 14 8.090691 14 7 L 14 4.5 C 14 3.5 13 3.0000002 12 3 L 12 2 C 12 0.99999997 11 1 11 1 L 4 1 z M 5 3 L 10 3 C 11 3 11 4 11 4 L 11 6 C 11 7.0000001 10 7 10 7 L 5 7 C 5 7 4 7.0000001 4 6 L 4 4 C 4 2.9999999 5 3 5 3 z M 5.5 4 L 5 4.25 L 5 4.5 L 5.5 4.5 L 5.5 6 L 6 6 L 6 4 L 5.5 4 z M 8 4 A 0.50000008 1 0 0 0 7.5 5 A 0.50000008 1 0 0 0 8 6 A 0.50000008 1 0 0 0 8.5 5 A 0.50000008 1 0 0 0 8 4 z M 9.5 4 A 0.4999997 1 0 0 0 9 5 A 0.4999997 1 0 0 0 9.5 6 A 0.4999997 1 0 0 0 10 5 A 0.4999997 1 0 0 0 9.5 4 z M 6.75 5.5 C 6.6115 5.5 6.5 5.6115 6.5 5.75 C 6.5 5.8885 6.6115 6 6.75 6 C 6.8885 6 7 5.8885 7 5.75 C 7 5.6115 6.8885 5.5 6.75 5.5 z M 12 7 L 13 7 L 13 7.5 C 13 8.5909093 14 8.9090908 14 10 L 14 10.5 C 14 11 13.5 11 13.5 11 L 12 11 L 12 7 z "     style="fill:#ffffff;fill-opacity:1;stroke-width:1.13333333" />
  </g>
</svg>
