<?xml version="1.0" encoding="utf-8"?>
<!-- Generator: Adobe Illustrator 17.1.0, SVG Export Plug-In . SVG Version: 6.00 Build 0)  -->
<!DOCTYPE svg PUBLIC "-//W3C//DTD SVG 1.1//EN" "http://www.w3.org/Graphics/SVG/1.1/DTD/svg11.dtd">
<svg version="1.1"
	 id="svg2" xmlns:svg="http://www.w3.org/2000/svg" xmlns:cc="http://creativecommons.org/ns#" xmlns:dc="http://purl.org/dc/elements/1.1/" xmlns:rdf="http://www.w3.org/1999/02/22-rdf-syntax-ns#"
	 xmlns="http://www.w3.org/2000/svg" xmlns:xlink="http://www.w3.org/1999/xlink" x="0px" y="0px" width="23px" height="23px"
	 viewBox="0 0 23 23" enable-background="new 0 0 23 23" xml:space="preserve">
<ellipse id="ellipse4" fill="#FFFFFF" cx="11.5" cy="11.5" rx="11.5" ry="11.5"/>
<ellipse id="ellipse6" fill="#A9A199" cx="11.5" cy="11.5" rx="10.5" ry="10.5"/>
<g id="g8" transform="translate(4.5,5)">
	<path id="path7262" fill="#FFFFFF" d="M3.5,0.9C3,0.9,2.6,1.3,2.6,1.8v9.7c0,0,0,0.9,0.9,0.9h6.2c0.9,0,0.9-0.9,0.9-0.9v-0.9h0.9
		h0.9c0.9,0,0.9-0.9,0.9-0.9V8.4c0-1-0.9-1.2-0.9-2.2V4c0-0.9-0.9-1.3-1.8-1.3V1.8c0-0.9-0.9-0.9-0.9-0.9H3.5z M4.4,2.6h4.4
		c0.9,0,0.9,0.9,0.9,0.9v1.8c0,0.9-0.9,0.9-0.9,0.9H4.4c0,0-0.9,0-0.9-0.9V3.5C3.5,2.6,4.4,2.6,4.4,2.6z M4.9,3.5L4.4,3.8V4h0.4v1.3
		h0.4V3.5H4.9z M7.1,3.5c-0.2,0-0.4,0.4-0.4,0.9s0.2,0.9,0.4,0.9c0.2,0,0.4-0.4,0.4-0.9S7.3,3.5,7.1,3.5z M8.4,3.5
		C8.2,3.5,8,3.9,8,4.4l0,0c0,0.5,0.2,0.9,0.4,0.9l0,0c0.2,0,0.4-0.4,0.4-0.9l0,0C8.8,3.9,8.6,3.5,8.4,3.5L8.4,3.5z M6,4.9
		C5.8,4.9,5.7,5,5.7,5.1s0.1,0.2,0.2,0.2s0.2-0.1,0.2-0.2C6.2,5,6.1,4.9,6,4.9z M10.6,6.2h0.9v0.4c0,1,0.9,1.2,0.9,2.2v0.4
		c0,0.4-0.4,0.4-0.4,0.4h-1.3L10.6,6.2L10.6,6.2z"/>
</g>
</svg>
