<?xml version="1.0" encoding="utf-8"?>
<!-- Generator: Adobe Illustrator 17.1.0, SVG Export Plug-In . SVG Version: 6.00 Build 0)  -->
<!DOCTYPE svg PUBLIC "-//W3C//DTD SVG 1.1//EN" "http://www.w3.org/Graphics/SVG/1.1/DTD/svg11.dtd">
<svg version="1.1"
	 id="svg2" xmlns:svg="http://www.w3.org/2000/svg" xmlns:cc="http://creativecommons.org/ns#" xmlns:dc="http://purl.org/dc/elements/1.1/" xmlns:rdf="http://www.w3.org/1999/02/22-rdf-syntax-ns#"
	 xmlns="http://www.w3.org/2000/svg" xmlns:xlink="http://www.w3.org/1999/xlink" x="0px" y="0px" width="19px" height="19px"
	 viewBox="0 0 19 19" enable-background="new 0 0 19 19" xml:space="preserve">
<ellipse id="ellipse4" fill="#FFFFFF" cx="9.5" cy="9.5" rx="9.5" ry="9.5"/>
<ellipse id="ellipse6" fill="#A9A199" cx="9.5" cy="9.5" rx="8.5" ry="8.5"/>
<g id="g8" transform="translate(4,4)">
	<path id="rect7223-2-4-9-3" fill="#FFFFFF" d="M2.5,1C2.5,1,2,1,2,1.5v8c0,0,0,0.5,0.5,0.5h5c0,0,0.5,0,0.5-0.5v-1h1.5c0,0,1,0,1-1
		v-3C10.5,3.8,9.6,3.3,9,3L8,2.5v-1C8,1,7.5,1,7.5,1H2.5z M3.5,2h3C6.5,2,7,2,7,2.5v2C7,5,6.5,5,6.5,5h-3C3,5,3,4.5,3,4.5v-2
		C3,2.5,3,2,3.5,2z M4.2,3C4.1,3,4,3.1,4,3.2v0.5C4,3.9,4.1,4,4.2,4s0.2-0.1,0.2-0.2V3.2C4.5,3.1,4.4,3,4.2,3z M5.8,3
		C5.6,3,5.5,3.1,5.5,3.2v0.5C5.5,3.9,5.6,4,5.8,4S6,3.9,6,3.8V3.2C6,3.1,5.9,3,5.8,3z M8,4h0.5l1,0.5V7C9.5,7.5,9,7.5,9,7.5H8V4z"/>
</g>
</svg>
