<svg viewBox="-4 -4 19 19" width="19" height="19" data-reactid=".0.1.1.$garden-11=1svg34.0.0"><rect x="-3" y="-3" rx="8.5" ry="8.5" width="17" height="17" stroke="#fff" style="stroke-linejoin:round;stroke-miterlimit:4px;" fill="#fff" stroke-width="2" data-reactid=".0.1.1.$garden-11=1svg34.0.0.0"></rect><rect x="-3" y="-3" width="17" height="17" rx="8.5" ry="8.5" fill="#7f7874" data-reactid=".0.1.1.$garden-11=1svg34.0.0.1"></rect><path fill="#fff" d="M 5.5,0 C 4,0 2.5,0.5 2.5,2 l 0,1.5 C 2.5,4.35452 3,5.301078 4,5.5 4.81732,5.662583 6.5,5.333731 6.5,3.5 6.5,2.666667 5.5,2 4.5,2 4,2 3.5,2 3.5,1.5 3.5,1.122348 4,1 4.5,1 L 6,1 C 6.292461,1 7,0.779297 6.5,0.279297 6.5,0.279297 5.989296,0 5.5,0 Z M 8,0.75 C 7.75,0.75 7.5,1 7.5,1.5 7.5,2 7,2 7,2 7,2 6.499809,2.00038 6.751953,2.515625 6.873718,2.764446 7,3.086086 7,3.5 7,4.534147 6.64338,5.113223 6,5.5 5.168281,6 6,6 6,6 7.410675,6 8.5,4.722225 8.5,3.5 l 0,-2 C 8.5,1 8.25,0.75 8,0.75 Z M 5,6.5 5,10 C 4.388889,8.777778 2.833333,7.277778 1,8.5 1,8.5 2.444444,11 5.5,11 8.555555,11 10,8.5 10,8.5 8.166666,7.277778 6.611111,8.777778 6,10 L 6,6.5 Z" data-reactid=".0.1.1.$garden-11=1svg34.0.0.3:$garden-11=1svg-0-fill"></path></svg>