<?xml version="1.0" encoding="utf-8"?>
<!-- Generator: Adobe Illustrator 17.1.0, SVG Export Plug-In . SVG Version: 6.00 Build 0)  -->
<!DOCTYPE svg PUBLIC "-//W3C//DTD SVG 1.1//EN" "http://www.w3.org/Graphics/SVG/1.1/DTD/svg11.dtd">
<svg version="1.1"
	 id="svg2" xmlns:svg="http://www.w3.org/2000/svg" xmlns:cc="http://creativecommons.org/ns#" xmlns:dc="http://purl.org/dc/elements/1.1/" xmlns:rdf="http://www.w3.org/1999/02/22-rdf-syntax-ns#"
	 xmlns="http://www.w3.org/2000/svg" xmlns:xlink="http://www.w3.org/1999/xlink" x="0px" y="0px" width="23px" height="23px"
	 viewBox="0 0 23 23" enable-background="new 0 0 23 23" xml:space="preserve">
<ellipse id="ellipse4" fill="#FFFFFF" cx="11.5" cy="11.5" rx="11.5" ry="11.5"/>
<ellipse id="ellipse6" fill="#A9A199" cx="11.5" cy="11.5" rx="10.5" ry="10.5"/>
<g id="g8" transform="translate(5,5)">
	<path id="path8375" fill="#FFFFFF" d="M6.6,0C4.8,0,3,0.6,3,2.4v1.8c0,1,0.6,2.2,1.8,2.4c1,0.2,3-0.2,3-2.4c0-0.7-0.5-1.5-1.2-1.5
		C5.1,2.6,4,2.3,4,1.8s1.2-0.9,2.6-0.9c0.4,0,0.9,0,1.3,0.1C8,0.4,7.3,0,6.6,0z M9.6,0.9C9.4,0.9,9.1,1.1,9,1.4
		c0.1,0.1,0.2,0.2,0.2,0.3c0,0.2-0.2,0.4-0.5,0.5c0,0.2-0.1,0.2-0.2,0.2S8.3,2.5,8.1,2.5C8,2.6,8,2.7,8.1,3s0.3,0.7,0.3,1.2
		c0,1.2-0.4,2-1.2,2.4c-1,0.6,0,0.6,0,0.6c1.7,0,3-1.5,3-3V1.8C10.2,1.2,9.9,0.9,9.6,0.9z M6.2,7.9L6,12c-0.7-1.4-2.5-3.2-5.1-1.4
		c0,0,2.1,2.6,5.7,2.6s5.7-2.6,5.7-2.6c-2.6-1.8-4.4,0-5.1,1.4L7.1,7.9c0,0,0-0.4-0.4-0.4S6.2,7.9,6.2,7.9z"/>
</g>
</svg>
