<svg xmlns="http://www.w3.org/2000/svg" width="37" height="17" viewBox="0 0 37 17"><title>dlr.national-rail-11</title><path d="M-1,3v9a3,3,0,0,0,3,3H15a3,3,0,0,0,3-3V10.5a1.61,1.61,0,0,0,.7.4,8.51,8.51,0,0,0,15.6,0A2.59,2.59,0,0,0,36,8.5v-2a2.59,2.59,0,0,0-1.7-2.4,8.51,8.51,0,0,0-15.6,0,1.61,1.61,0,0,0-.7.4V3a3,3,0,0,0-3-3H2A3,3,0,0,0-1,3ZM19,6.5A0.47,0.47,0,0,1,19.5,6h0.7A6.47,6.47,0,0,1,32.8,6h0.7a0.47,0.47,0,0,1,.5.5v2a0.47,0.47,0,0,1-.5.5H32.8A6.47,6.47,0,0,1,20.2,9H19.5A0.47,0.47,0,0,1,19,8.5v-2ZM16,5H6.2L11,2h4a0.94,0.94,0,0,1,1,1V5Zm0,4H12.6l-6-3H16V9ZM7.8,13l4.8-3H16v2a0.94,0.94,0,0,1-1,1H7.8ZM1,10h9.8L6,13H2a0.94,0.94,0,0,1-1-1V10ZM1,6H4.4l6,3H1V6ZM1,3A0.94,0.94,0,0,1,2,2H9.2L4.4,5H1V3Z" transform="translate(1 1)" fill="#fff"/><path d="M30.2,9H22.8A4,4,0,0,0,30.2,9Z" transform="translate(1 1)" fill="#fff"/><path d="M22.8,6h7.4A4,4,0,0,0,22.8,6Z" transform="translate(1 1)" fill="#fff"/><path d="M31.2,6h1.6A6.47,6.47,0,0,0,20.2,6h2.6a4,4,0,0,1,7.4,0h1Z" transform="translate(1 1)" fill="#5396c7"/><path d="M21.8,9H20.2A6.47,6.47,0,0,0,32.8,9H30.2a4,4,0,0,1-7.4,0h-1Z" transform="translate(1 1)" fill="#5396c7"/><path d="M19,6.5v2a0.47,0.47,0,0,0,.5.5h14A0.47,0.47,0,0,0,34,8.5v-2A0.47,0.47,0,0,0,33.5,6h-14A0.47,0.47,0,0,0,19,6.5Z" transform="translate(1 1)" fill="#5396c7"/><polygon points="5.4 7 2 7 2 10 11.4 10 5.4 7" fill="#e97474"/><path d="M1,3V5H4.4L9.2,2H2A0.94,0.94,0,0,0,1,3Z" transform="translate(1 1)" fill="#e97474"/><path d="M10.8,10H1v2a0.94,0.94,0,0,0,1,1H6Z" transform="translate(1 1)" fill="#e97474"/><path d="M12.6,10L7.8,13H15a0.94,0.94,0,0,0,1-1V10H12.6Z" transform="translate(1 1)" fill="#e97474"/><path d="M6.2,5H16V3a0.94,0.94,0,0,0-1-1H11Z" transform="translate(1 1)" fill="#e97474"/><polygon points="13.6 10 17 10 17 7 7.6 7 13.6 10" fill="#e97474"/></svg>