<svg xmlns="http://www.w3.org/2000/svg" width="60" height="34" viewBox="0 0 60 34"><title>rails-icons</title><path d="M55.8,6.64a8.49,8.49,0,0,0-15.6,0,2.79,2.79,0,0,0-1.2.92,2.79,2.79,0,0,0-1.2-.92,8.49,8.49,0,0,0-15.6,0,1.61,1.61,0,0,0-.7.4V5.53a3,3,0,0,0-3-3H5.5a3,3,0,0,0-3,3v9.07a3,3,0,0,0,3,3H15.72a8.32,8.32,0,0,0-2,2.87A2.61,2.61,0,0,0,12,22.92v2a2.61,2.61,0,0,0,1.7,2.42,8.49,8.49,0,0,0,15.6,0,2.32,2.32,0,0,0,1.21-.88,2.8,2.8,0,0,0,1.17.88,8.49,8.49,0,0,0,15.6,0A2.51,2.51,0,0,0,49,24.94v-2a2.61,2.61,0,0,0-1.7-2.42A8.39,8.39,0,0,0,46,18.38,8.37,8.37,0,0,0,55.8,13.5a2.51,2.51,0,0,0,1.7-2.42v-2A2.61,2.61,0,0,0,55.8,6.64Z" fill="#fff"/><path d="M30,6a3.92,3.92,0,0,0-3.7,2.52h7.4A3.92,3.92,0,0,0,30,6Z" fill="#fff"/><path d="M30,14.1a3.92,3.92,0,0,0,3.7-2.52H26.3A3.92,3.92,0,0,0,30,14.1Z" fill="#fff"/><path d="M33.7,11.58a4,4,0,0,1-7.4,0H23.7a6.46,6.46,0,0,0,12.6,0H33.7Z" fill="#9dc883"/><path d="M26.3,8.56a4,4,0,0,1,7.4,0h2.6a6.46,6.46,0,0,0-12.6,0h2.6Z" fill="#9dc883"/><path d="M23,11.58H37a0.47,0.47,0,0,0,.5-0.5v-2a0.47,0.47,0,0,0-.5-0.5H23a0.47,0.47,0,0,0-.5.5v2A0.47,0.47,0,0,0,23,11.58Z" fill="#5497c7"/><polygon points="13.9 8.56 4.5 8.56 4.5 11.58 7.9 11.58 13.9 8.56" fill="#e97475"/><path d="M5.5,15.61h7.2l-4.8-3H4.5v2A1,1,0,0,0,5.5,15.61Z" fill="#e97475"/><path d="M9.5,4.52h-4a1,1,0,0,0-1,1v2h9.8Z" fill="#e97475"/><path d="M19.5,7.55v-2a1,1,0,0,0-1-1H11.3l4.8,3h3.4Z" fill="#e97475"/><path d="M14.5,15.61h4a1,1,0,0,0,1-1v-2H9.7Z" fill="#e97475"/><polygon points="10.1 11.58 19.5 11.58 19.5 8.56 16.1 8.56 10.1 11.58" fill="#e97475"/><path d="M48,14.1a3.92,3.92,0,0,0,3.7-2.52H44.3A3.92,3.92,0,0,0,48,14.1Z" fill="#fff"/><path d="M48,6a3.92,3.92,0,0,0-3.7,2.52h7.4A3.92,3.92,0,0,0,48,6Z" fill="#fff"/><path d="M52.7,11.58h-1a4,4,0,0,1-7.4,0H41.7a6.46,6.46,0,0,0,12.6,0H52.7Z" fill="#eea76f"/><path d="M48,3.52a6.45,6.45,0,0,0-6.3,5h2.6a4,4,0,0,1,7.4,0h2.6A6.45,6.45,0,0,0,48,3.52Z" fill="#eea76f"/><path d="M55,8.56H41a0.47,0.47,0,0,0-.5.5v2a0.47,0.47,0,0,0,.5.5H55a0.47,0.47,0,0,0,.5-0.5v-2A0.47,0.47,0,0,0,55,8.56Z" fill="#5497c7"/><path d="M21.52,28a3.92,3.92,0,0,0,3.7-2.52h-7.4A3.92,3.92,0,0,0,21.52,28Z" fill="#fff"/><path d="M21.52,19.9a3.92,3.92,0,0,0-3.7,2.52h7.4A3.92,3.92,0,0,0,21.52,19.9Z" fill="#fff"/><path d="M26.22,25.44h-1a4,4,0,0,1-7.4,0h-2.6a6.46,6.46,0,0,0,12.6,0h-1.6Z" fill="#5497c7"/><path d="M21.52,17.38a6.45,6.45,0,0,0-6.3,5h2.6a4,4,0,0,1,7.4,0h2.6A6.45,6.45,0,0,0,21.52,17.38Z" fill="#5497c7"/><path d="M28.52,22.42h-14a0.47,0.47,0,0,0-.5.5v2a0.47,0.47,0,0,0,.5.5h14a0.47,0.47,0,0,0,.5-0.5v-2A0.47,0.47,0,0,0,28.52,22.42Z" fill="#5497c7"/><path d="M39,12.58a2.79,2.79,0,0,0,1.2.92,8.5,8.5,0,0,0,1.31,2.12,8.74,8.74,0,0,0-2-.25,8.61,8.61,0,0,0-3.4.7,8.32,8.32,0,0,0,1.7-2.57A2.79,2.79,0,0,0,39,12.58Z" fill="#fff"/><path d="M21.5,13.09a1.61,1.61,0,0,0,.7.4,8.39,8.39,0,0,0,1.26,2.1,8.74,8.74,0,0,0-1.94-.24H21.4a3.19,3.19,0,0,0,.1-0.77V13.09Z" fill="#fff"/><path d="M30.51,21.41a2.79,2.79,0,0,0-1.19-.9,8.39,8.39,0,0,0-1.26-2.1,8.74,8.74,0,0,0,1.94.24,8.61,8.61,0,0,0,3.4-.7,8.32,8.32,0,0,0-1.7,2.57A2.79,2.79,0,0,0,30.51,21.41Z" fill="#fff"/><path d="M47,22.92v2a0.47,0.47,0,0,1-.5.5H45.8a6.46,6.46,0,0,1-12.6,0H32.5a0.47,0.47,0,0,1-.5-0.5v-2a0.47,0.47,0,0,1,.5-0.5h0.7a6.46,6.46,0,0,1,12.6,0h0.7A0.47,0.47,0,0,1,47,22.92Z" fill="#fff"/><path d="M39.5,28a3.92,3.92,0,0,0,3.7-2.52H35.8A3.92,3.92,0,0,0,39.5,28Z" fill="#fff"/><path d="M39.5,19.9a3.92,3.92,0,0,0-3.7,2.52h7.4A3.92,3.92,0,0,0,39.5,19.9Z" fill="#fff"/><path d="M44.2,25.44h-1a4,4,0,0,1-7.4,0H33.2a6.46,6.46,0,0,0,12.6,0H44.2Z" fill="#9dc883"/><path d="M39.5,17.38a6.45,6.45,0,0,0-6.3,5h2.6a4,4,0,0,1,7.4,0h2.6A6.45,6.45,0,0,0,39.5,17.38Z" fill="#9dc883"/><path d="M46.5,22.42h-14a0.47,0.47,0,0,0-.5.5v2a0.47,0.47,0,0,0,.5.5h14a0.47,0.47,0,0,0,.5-0.5v-2A0.47,0.47,0,0,0,46.5,22.42Z" fill="#5497c7"/></svg>