<svg xmlns="http://www.w3.org/2000/svg" width="75" height="18" viewBox="0 0 75 18"><title>rails-icons</title><path d="M4.5,16.5h13a3,3,0,0,0,3-3V12a1.61,1.61,0,0,0,.7.4,8.51,8.51,0,0,0,15.6,0,2.73,2.73,0,0,0,1.2-.9,2.73,2.73,0,0,0,1.2.9,8.51,8.51,0,0,0,15.6,0,2.73,2.73,0,0,0,1.2-.9,2.73,2.73,0,0,0,1.2.9,8.51,8.51,0,0,0,15.6,0A2.59,2.59,0,0,0,74.5,10V8a2.59,2.59,0,0,0-1.7-2.4,8.51,8.51,0,0,0-15.6,0,2.73,2.73,0,0,0-1.2.9,2.73,2.73,0,0,0-1.2-.9,8.51,8.51,0,0,0-15.6,0,2.73,2.73,0,0,0-1.2.9,2.73,2.73,0,0,0-1.2-.9,8.51,8.51,0,0,0-15.6,0,1.61,1.61,0,0,0-.7.4V4.5a3,3,0,0,0-3-3H4.5a3,3,0,0,0-3,3v9A3,3,0,0,0,4.5,16.5Z" fill="#fff"/><path d="M65,15.5A6.5,6.5,0,1,0,58.5,9,6.49,6.49,0,0,0,65,15.5ZM65,13a4,4,0,0,1-4-4h0a4,4,0,0,1,4-4h0a4,4,0,0,1,4,4h0a4,4,0,0,1-4,4h0Z" fill="#e97475"/><path d="M72,10.5H58a0.47,0.47,0,0,1-.5-0.5V8A0.47,0.47,0,0,1,58,7.5H72a0.47,0.47,0,0,1,.5.5v2A0.47,0.47,0,0,1,72,10.5Z" fill="#5497c7"/><path d="M47,15.5A6.5,6.5,0,1,0,40.5,9,6.49,6.49,0,0,0,47,15.5ZM47,13a4,4,0,0,1-4-4h0a4,4,0,0,1,4-4h0a4,4,0,0,1,4,4h0a4,4,0,0,1-4,4h0Z" fill="#5497c7"/><path d="M54,10.5H40a0.47,0.47,0,0,1-.5-0.5V8A0.47,0.47,0,0,1,40,7.5H54a0.47,0.47,0,0,1,.5.5v2A0.47,0.47,0,0,1,54,10.5Z" fill="#5497c7"/><path d="M29,15.5A6.5,6.5,0,1,0,22.5,9,6.49,6.49,0,0,0,29,15.5ZM29,13a4,4,0,0,1-4-4h0a4,4,0,0,1,4-4h0a4,4,0,0,1,4,4h0a4,4,0,0,1-4,4h0Z" fill="#eea76f"/><path d="M36,10.5H22a0.47,0.47,0,0,1-.5-0.5V8A0.47,0.47,0,0,1,22,7.5H36a0.47,0.47,0,0,1,.5.5v2A0.47,0.47,0,0,1,36,10.5Z" fill="#5497c7"/><path d="M17.5,14.5H4.5a0.94,0.94,0,0,1-1-1v-9a0.94,0.94,0,0,1,1-1h13a0.94,0.94,0,0,1,1,1v9A0.94,0.94,0,0,1,17.5,14.5Z" fill="#e97475"/><path d="M13.5,14.5l-4.8-3h9.8v-1H9.1l6-3h3.4v-1H15.1l-4.8-3H8.5l4.8,3H3.5v1h9.4l-6,3H3.5v1H6.9l4.8,3h1.8Z" fill="#fff"/></svg>