<?xml version="1.0" encoding="utf-8"?>
<!-- Generator: Adobe Illustrator 17.1.0, SVG Export Plug-In . SVG Version: 6.00 Build 0)  -->
<!DOCTYPE svg PUBLIC "-//W3C//DTD SVG 1.1//EN" "http://www.w3.org/Graphics/SVG/1.1/DTD/svg11.dtd">
<svg version="1.1"
	 id="svg3122" xmlns:svg="http://www.w3.org/2000/svg" xmlns:cc="http://creativecommons.org/ns#" xmlns:dc="http://purl.org/dc/elements/1.1/" xmlns:rdf="http://www.w3.org/1999/02/22-rdf-syntax-ns#" sodipodi:docname="london-underground.national-rail-15.svg" inkscape:version="0.91+devel+osxmenu r12911" xmlns:inkscape="http://www.inkscape.org/namespaces/inkscape" xmlns:sodipodi="http://sodipodi.sourceforge.net/DTD/sodipodi-0.dtd"
	 xmlns="http://www.w3.org/2000/svg" xmlns:xlink="http://www.w3.org/1999/xlink" x="0px" y="0px" width="39px" height="19px"
	 viewBox="0 0 39 19" enable-background="new 0 0 39 19" xml:space="preserve">
<sodipodi:namedview  inkscape:window-width="1574" inkscape:window-height="735" inkscape:window-x="0" inkscape:bbox-nodes="true" inkscape:snap-bbox="true" inkscape:pageopacity="0" inkscape:document-units="px" inkscape:pageshadow="2" inkscape:current-layer="svg3122" inkscape:window-y="23" inkscape:bbox-paths="true" inkscape:window-maximized="0" guidetolerance="10" gridtolerance="10" showgrid="true" pagecolor="#ffffff" objecttolerance="10" bordercolor="#666666" id="namedview15168" showguides="false" inkscape:cy="-0.6572529" inkscape:zoom="11.313708" borderopacity="1" inkscape:cx="7.3859491">
	<inkscape:grid  type="xygrid" id="grid15788"></inkscape:grid>
</sodipodi:namedview>
<g>
	<path fill="#FFFFFF" d="M8.5,3.5c-1.7,0-3.1,1-3.7,2.5h7.4C11.6,4.5,10.2,3.5,8.5,3.5z"/>
	<path fill="#FFFFFF" d="M8.5,11.5c1.7,0,3.1-1,3.7-2.5H4.8C5.4,10.5,6.8,11.5,8.5,11.5z"/>
	<path fill="#FFFFFF" d="M33,0h-7.2H24h-4c-1.7,0-3,1.3-3,3v1.5c-0.2-0.2-0.4-0.3-0.7-0.4C15,1,12-1,8.5-1S2,1,0.7,4.1
		C-0.3,4.5-1,5.4-1,6.5v2c0,1.1,0.7,2,1.7,2.4C2,13.9,5,16,8.5,16s6.5-2.1,7.8-5.1c0.3-0.1,0.5-0.2,0.7-0.4V12c0,1.7,1.3,3,3,3h7.2
		H29h4c1.7,0,3-1.3,3-3v-2V9V6V5V3C36,1.3,34.7,0,33,0z M16,8.5C16,8.8,15.8,9,15.5,9h-0.7c-0.7,2.9-3.2,5-6.3,5s-5.6-2.1-6.3-5H1.5
		C1.2,9,1,8.8,1,8.5v-2C1,6.2,1.2,6,1.5,6h0.7c0.7-2.9,3.2-5,6.3-5s5.6,2.1,6.3,5h0.7C15.8,6,16,6.2,16,6.5V8.5z M19,3
		c0-0.6,0.4-1,1-1h4l4.8,3H19V3z M19,6h9.4l-6,3H19V6z M20,13c-0.6,0-1-0.4-1-1v-2h3.4l4.8,3H20z M34,12c0,0.6-0.4,1-1,1h-4l-4.8-3
		H34V12z M34,9h-9.4l6-3H34V9z M34,5h-3.4l-4.8-3H33c0.6,0,1,0.4,1,1V5z"/>
	<path fill="#E97474" d="M8.5,3.5c1.7,0,3.1,1,3.7,2.5h2.6c-0.7-2.9-3.2-5-6.3-5S2.9,3.1,2.2,6h2.6C5.4,4.5,6.8,3.5,8.5,3.5z"/>
	<path fill="#E97474" d="M8.5,11.5c-1.7,0-3.1-1-3.7-2.5H2.2c0.7,2.9,3.2,5,6.3,5s5.6-2.1,6.3-5h-2.6C11.6,10.5,10.2,11.5,8.5,11.5z
		"/>
	<path fill="#5396C7" d="M15.5,6h-0.7C14.9,6.5,15,7,15,7.5s-0.1,1-0.2,1.5h0.7C15.8,9,16,8.8,16,8.5v-2C16,6.2,15.8,6,15.5,6z"/>
	<path fill="#5396C7" d="M2.2,6H1.5C1.2,6,1,6.2,1,6.5v2C1,8.8,1.2,9,1.5,9h0.7C2.1,8.5,2,8,2,7.5S2.1,6.5,2.2,6z"/>
	<path fill="#5396C7" d="M4.5,7.5c0,0.5,0.1,1,0.3,1.5h7.4c0.2-0.5,0.3-1,0.3-1.5s-0.1-1-0.3-1.5H4.8C4.6,6.5,4.5,7,4.5,7.5z"/>
	<path fill="#5396C7" d="M4.5,7.5c0-0.5,0.1-1,0.3-1.5H2.2C2.1,6.5,2,7,2,7.5s0.1,1,0.2,1.5h2.6C4.6,8.5,4.5,8,4.5,7.5z"/>
	<path fill="#5396C7" d="M14.8,6h-2.6c0.2,0.5,0.3,1,0.3,1.5s-0.1,1-0.3,1.5h2.6C14.9,8.5,15,8,15,7.5S14.9,6.5,14.8,6z"/>
	<path fill="#E97474" d="M19,10v2c0,0.6,0.4,1,1,1h7.2l-4.8-3H19z"/>
	<polygon fill="#E97474" points="28.4,6 19,6 19,9 22.4,9 	"/>
	<path fill="#E97474" d="M29,13h4c0.6,0,1-0.4,1-1v-2h-9.8L29,13z"/>
	<path fill="#E97474" d="M24,2h-4c-0.6,0-1,0.4-1,1v2h9.8L24,2z"/>
	<polygon fill="#E97474" points="24.6,9 34,9 34,6 30.6,6 	"/>
	<path fill="#E97474" d="M33,2h-7.2l4.8,3H34V3C34,2.4,33.6,2,33,2z"/>
</g>
</svg>
