<svg xmlns="http://www.w3.org/2000/svg" width="56.04" height="18" viewBox="0 0 56.04 18"><title>rails-icons</title><path d="M3.5,16.5h13a3,3,0,0,0,3-3V12a1.61,1.61,0,0,0,.7.4,8.51,8.51,0,0,0,15.6,0,2.73,2.73,0,0,0,1.2-.9,2.73,2.73,0,0,0,1.2.9,8.51,8.51,0,0,0,15.6,0A2.59,2.59,0,0,0,55.5,10V8a2.59,2.59,0,0,0-1.7-2.4,8.51,8.51,0,0,0-15.6,0,2.73,2.73,0,0,0-1.2.9,2.73,2.73,0,0,0-1.2-.9,8.51,8.51,0,0,0-15.6,0,1.61,1.61,0,0,0-.7.4V4.5a3,3,0,0,0-3-3H3.5a3,3,0,0,0-3,3v9A3,3,0,0,0,3.5,16.5Z" fill="#fff"/><circle cx="46" cy="9" r="5" fill="#fff"/><path d="M46,15.5A6.5,6.5,0,1,0,39.5,9,6.49,6.49,0,0,0,46,15.5ZM46,13a4,4,0,0,1-4-4h0a4,4,0,0,1,4-4h0a4,4,0,0,1,4,4h0a4,4,0,0,1-4,4h0Z" fill="#eea76f"/><path d="M53,10.5H39a0.47,0.47,0,0,1-.5-0.5V8A0.47,0.47,0,0,1,39,7.5H53a0.47,0.47,0,0,1,.5.5v2A0.47,0.47,0,0,1,53,10.5Z" fill="#5497c7"/><circle cx="28" cy="9" r="5" fill="#fff"/><path d="M28,15.5A6.5,6.5,0,1,0,21.5,9,6.49,6.49,0,0,0,28,15.5ZM28,13a4,4,0,0,1-4-4h0a4,4,0,0,1,4-4h0a4,4,0,0,1,4,4h0a4,4,0,0,1-4,4h0Z" fill="#5497c7"/><path d="M35,10.5H21a0.47,0.47,0,0,1-.5-0.5V8A0.47,0.47,0,0,1,21,7.5H35a0.47,0.47,0,0,1,.5.5v2A0.47,0.47,0,0,1,35,10.5Z" fill="#5497c7"/><path d="M16.5,14.5H3.5a0.94,0.94,0,0,1-1-1v-9a0.94,0.94,0,0,1,1-1h13a0.94,0.94,0,0,1,1,1v9A0.94,0.94,0,0,1,16.5,14.5Z" fill="#e97475"/><path d="M12.5,14.5l-4.8-3h9.8v-1H8.1l6-3h3.4v-1H14.1l-4.8-3H7.5l4.8,3H2.5v1h9.4l-6,3H2.5v1H5.9l4.8,3h1.8Z" fill="#fff"/></svg>