<?xml version="1.0" encoding="utf-8"?>
<!-- Generator: Adobe Illustrator 17.1.0, SVG Export Plug-In . SVG Version: 6.00 Build 0)  -->
<!DOCTYPE svg PUBLIC "-//W3C//DTD SVG 1.1//EN" "http://www.w3.org/Graphics/SVG/1.1/DTD/svg11.dtd">
<svg version="1.1"
	 id="svg3122" xmlns:svg="http://www.w3.org/2000/svg" xmlns:cc="http://creativecommons.org/ns#" xmlns:dc="http://purl.org/dc/elements/1.1/" xmlns:rdf="http://www.w3.org/1999/02/22-rdf-syntax-ns#" sodipodi:docname="london-overground.london-underground.national-rail-15.svg" inkscape:version="0.91+devel+osxmenu r12911" xmlns:inkscape="http://www.inkscape.org/namespaces/inkscape" xmlns:sodipodi="http://sodipodi.sourceforge.net/DTD/sodipodi-0.dtd"
	 xmlns="http://www.w3.org/2000/svg" xmlns:xlink="http://www.w3.org/1999/xlink" x="0px" y="0px" width="57px" height="19px"
	 viewBox="0 0 57 19" enable-background="new 0 0 57 19" xml:space="preserve">
<sodipodi:namedview  inkscape:window-width="1441" inkscape:window-height="791" inkscape:window-x="0" inkscape:bbox-nodes="true" inkscape:snap-bbox="true" inkscape:pageopacity="0" inkscape:document-units="px" inkscape:pageshadow="2" inkscape:current-layer="svg3122" inkscape:window-y="23" inkscape:bbox-paths="true" inkscape:window-maximized="0" guidetolerance="10" gridtolerance="10" showgrid="true" pagecolor="#ffffff" objecttolerance="10" bordercolor="#666666" id="namedview15067" inkscape:cy="2.0705808" inkscape:zoom="15.556349" borderopacity="1" inkscape:cx="32.010855">
	<inkscape:grid  type="xygrid" id="grid13553"></inkscape:grid>
</sodipodi:namedview>
<path fill="#FFFFFF" d="M26.5,11.5c1.7,0,3.1-1,3.7-2.5h-7.4C23.4,10.5,24.8,11.5,26.5,11.5z"/>
<path fill="#FFFFFF" d="M8.5,3.5c-1.7,0-3.1,1-3.7,2.5h7.4C11.6,4.5,10.2,3.5,8.5,3.5z"/>
<path fill="#FFFFFF" d="M26.5,3.5c-1.7,0-3.1,1-3.7,2.5h7.4C29.6,4.5,28.2,3.5,26.5,3.5z"/>
<path fill="#FFFFFF" d="M8.5,11.5c1.7,0,3.1-1,3.7-2.5H4.8C5.4,10.5,6.8,11.5,8.5,11.5z"/>
<path fill="#FFFFFF" d="M51,0h-7.2H42h-4c-1.7,0-3,1.3-3,3v1.5c-0.2-0.2-0.4-0.3-0.7-0.4C33,1,30-1,26.5-1S20,1,18.7,4.1
	c-0.5,0.2-0.9,0.5-1.2,0.9c-0.3-0.4-0.7-0.7-1.2-0.9C15,1,12-1,8.5-1S2,1,0.7,4.1C-0.3,4.5-1,5.4-1,6.5v2c0,1.1,0.7,2,1.7,2.4
	C2,13.9,5,16,8.5,16s6.5-2.1,7.8-5.1c0.5-0.2,0.9-0.5,1.2-0.9c0.3,0.4,0.7,0.7,1.2,0.9C20,13.9,23,16,26.5,16s6.5-2.1,7.8-5.1
	c0.3-0.1,0.5-0.2,0.7-0.4V12c0,1.7,1.3,3,3,3h7.2H47h4c1.7,0,3-1.3,3-3v-2V9V6V5V3C54,1.3,52.7,0,51,0z M16,8.5
	C16,8.8,15.8,9,15.5,9h-0.7c-0.7,2.9-3.2,5-6.3,5s-5.6-2.1-6.3-5H1.5C1.2,9,1,8.8,1,8.5v-2C1,6.2,1.2,6,1.5,6h0.7
	c0.7-2.9,3.2-5,6.3-5s5.6,2.1,6.3,5h0.7C15.8,6,16,6.2,16,6.5V8.5z M34,8.5C34,8.8,33.8,9,33.5,9h-0.7c-0.7,2.9-3.2,5-6.3,5
	s-5.6-2.1-6.3-5h-0.7C19.2,9,19,8.8,19,8.5v-2C19,6.2,19.2,6,19.5,6h0.7c0.7-2.9,3.2-5,6.3-5s5.6,2.1,6.3,5h0.7
	C33.8,6,34,6.2,34,6.5V8.5z M37,3c0-0.6,0.4-1,1-1h4l4.8,3H37V3z M37,6h9.4l-6,3H37V6z M38,13c-0.6,0-1-0.4-1-1v-2h3.4l4.8,3H38z
	 M52,12c0,0.6-0.4,1-1,1h-4l-4.8-3H52V12z M52,9h-9.4l6-3H52V9z M52,5h-3.4l-4.8-3H51c0.6,0,1,0.4,1,1V5z"/>
<path fill="#EEA66F" d="M8.5,3.5c1.7,0,3.1,1,3.7,2.5h2.6c-0.7-2.9-3.2-5-6.3-5S2.9,3.1,2.2,6h2.6C5.4,4.5,6.8,3.5,8.5,3.5z"/>
<path fill="#EEA66F" d="M8.5,11.5c-1.7,0-3.1-1-3.7-2.5H2.2c0.7,2.9,3.2,5,6.3,5s5.6-2.1,6.3-5h-2.6C11.6,10.5,10.2,11.5,8.5,11.5z"
	/>
<path fill="#5396C7" d="M15.5,6h-0.7h-2.6H4.8H2.2H1.5C1.2,6,1,6.2,1,6.5v2C1,8.8,1.2,9,1.5,9h0.7h2.6h7.4h2.6h0.7
	C15.8,9,16,8.8,16,8.5v-2C16,6.2,15.8,6,15.5,6z"/>
<path fill="#E97474" d="M26.5,11.5c-1.7,0-3.1-1-3.7-2.5h-2.6c0.7,2.9,3.2,5,6.3,5s5.6-2.1,6.3-5h-2.6
	C29.6,10.5,28.2,11.5,26.5,11.5z"/>
<path fill="#E97474" d="M26.5,3.5c1.7,0,3.1,1,3.7,2.5h2.6c-0.7-2.9-3.2-5-6.3-5s-5.6,2.1-6.3,5h2.6C23.4,4.5,24.8,3.5,26.5,3.5z"/>
<path fill="#5396C7" d="M33.5,6h-0.7h-2.6h-7.4h-2.6h-0.7C19.2,6,19,6.2,19,6.5v2C19,8.8,19.2,9,19.5,9h0.7h2.6h7.4h2.6h0.7
	C33.8,9,34,8.8,34,8.5v-2C34,6.2,33.8,6,33.5,6z"/>
<path fill="#E97474" d="M47,13h4c0.6,0,1-0.4,1-1v-2h-9.8L47,13z"/>
<polygon fill="#E97474" points="46.4,6 37,6 37,9 40.4,9 "/>
<path fill="#E97474" d="M42,2h-4c-0.6,0-1,0.4-1,1v2h9.8L42,2z"/>
<path fill="#E97474" d="M37,10v2c0,0.6,0.4,1,1,1h7.2l-4.8-3H37z"/>
<path fill="#E97474" d="M51,2h-7.2l4.8,3H52V3C52,2.4,51.6,2,51,2z"/>
<polygon fill="#E97474" points="42.6,9 52,9 52,6 48.6,6 "/>
</svg>
