<?xml version="1.0" encoding="utf-8"?>
<!-- Generator: Adobe Illustrator 17.1.0, SVG Export Plug-In . SVG Version: 6.00 Build 0)  -->
<!DOCTYPE svg PUBLIC "-//W3C//DTD SVG 1.1//EN" "http://www.w3.org/Graphics/SVG/1.1/DTD/svg11.dtd">
<svg version="1.1"
	 id="svg3122" xmlns:svg="http://www.w3.org/2000/svg" xmlns:cc="http://creativecommons.org/ns#" xmlns:dc="http://purl.org/dc/elements/1.1/" xmlns:rdf="http://www.w3.org/1999/02/22-rdf-syntax-ns#" sodipodi:docname="dlr.london-underground.national-rail-15.svg" inkscape:version="0.91+devel+osxmenu r12911" xmlns:inkscape="http://www.inkscape.org/namespaces/inkscape" xmlns:sodipodi="http://sodipodi.sourceforge.net/DTD/sodipodi-0.dtd"
	 xmlns="http://www.w3.org/2000/svg" xmlns:xlink="http://www.w3.org/1999/xlink" x="0px" y="0px" width="57px" height="19px"
	 viewBox="0 0 57 19" enable-background="new 0 0 57 19" xml:space="preserve">
<path fill="#FFFFFF" d="M51,0h-7.2H42h-4c-1.7,0-3,1.3-3,3v1.5c-0.2-0.2-0.4-0.3-0.7-0.4C33,1,30-1,26.5-1S20,1,18.7,4.1
	c-0.5,0.2-0.9,0.5-1.2,0.9c-0.3-0.4-0.7-0.7-1.2-0.9C15,1,12-1,8.5-1S2,1,0.7,4.1C-0.3,4.5-1,5.4-1,6.5v2c0,1.1,0.7,2,1.7,2.4
	C2,13.9,5,16,8.5,16s6.5-2.1,7.8-5.1c0.5-0.2,0.9-0.5,1.2-0.9c0.3,0.4,0.7,0.7,1.2,0.9C20,13.9,23,16,26.5,16s6.5-2.1,7.8-5.1
	c0.3-0.1,0.5-0.2,0.7-0.4V12c0,1.7,1.3,3,3,3h7.2H47h4c1.7,0,3-1.3,3-3v-2V9V6V5V3C54,1.3,52.7,0,51,0z"/>
<sodipodi:namedview  inkscape:window-width="640" inkscape:window-height="480" inkscape:window-x="0" inkscape:bbox-nodes="true" inkscape:snap-bbox="true" inkscape:pageopacity="0" inkscape:document-units="px" inkscape:pageshadow="2" inkscape:current-layer="svg3122" inkscape:window-y="23" inkscape:bbox-paths="true" inkscape:window-maximized="0" guidetolerance="10" gridtolerance="10" showgrid="true" pagecolor="#ffffff" objecttolerance="10" bordercolor="#666666" id="namedview14839" inkscape:cy="0.75601635" inkscape:zoom="11" borderopacity="1" inkscape:cx="34.643832">
	<inkscape:grid  type="xygrid" id="grid9015"></inkscape:grid>
</sodipodi:namedview>
<g id="layer1" transform="translate(18,-1037.3622)">
</g>
<g id="g9208" transform="translate(1,-9)">
	<circle id="path5295" fill="#FFFFFF" cx="7.5" cy="16.5" r="5"/>
	<path id="path3346" inkscape:connector-curvature="0" fill="#9CC883" d="M7.5,10C3.9,10,1,12.9,1,16.5S3.9,23,7.5,23
		s6.5-2.9,6.5-6.5S11.1,10,7.5,10z M7.5,12.5c2.2,0,4,1.8,4,4l0,0c0,2.2-1.8,4-4,4l0,0c-2.2,0-4-1.8-4-4l0,0
		C3.5,14.3,5.3,12.5,7.5,12.5L7.5,12.5z"/>
	<path id="rect3363" fill="#5396C7" d="M0.5,15h14c0.3,0,0.5,0.2,0.5,0.5v2c0,0.3-0.2,0.5-0.5,0.5h-14C0.2,18,0,17.8,0,17.5v-2
		C0,15.2,0.2,15,0.5,15z"/>
</g>
<g id="g9213" transform="translate(19,-9)">
	<circle id="circle9215" fill="#FFFFFF" cx="7.5" cy="16.5" r="5"/>
	<path id="path9217" inkscape:connector-curvature="0" fill="#E97474" d="M7.5,10C3.9,10,1,12.9,1,16.5S3.9,23,7.5,23
		s6.5-2.9,6.5-6.5S11.1,10,7.5,10z M7.5,12.5c2.2,0,4,1.8,4,4l0,0c0,2.2-1.8,4-4,4l0,0c-2.2,0-4-1.8-4-4l0,0
		C3.5,14.3,5.3,12.5,7.5,12.5L7.5,12.5z"/>
	<path id="rect9219" fill="#5396C7" d="M0.5,15h14c0.3,0,0.5,0.2,0.5,0.5v2c0,0.3-0.2,0.5-0.5,0.5h-14C0.2,18,0,17.8,0,17.5v-2
		C0,15.2,0.2,15,0.5,15z"/>
</g>
<g id="g11681" transform="translate(37)">
	<path id="rect4778" fill="#E97474" d="M1,2h13c0.6,0,1,0.4,1,1v9c0,0.6-0.4,1-1,1H1c-0.6,0-1-0.4-1-1V3C0,2.4,0.4,2,1,2z"/>
	<path id="rect4780" inkscape:connector-curvature="0" fill="#FFFFFF" d="M5,2l4.8,3H0v1h9.4l-6,3H0v1h3.4l4.8,3H10l-4.8-3H15V9H5.6
		l6-3H15V5h-3.4L6.8,2H5z"/>
</g>
</svg>
