<?xml version="1.0" encoding="utf-8"?>
<!-- Generator: Adobe Illustrator 17.1.0, SVG Export Plug-In . SVG Version: 6.00 Build 0)  -->
<!DOCTYPE svg PUBLIC "-//W3C//DTD SVG 1.1//EN" "http://www.w3.org/Graphics/SVG/1.1/DTD/svg11.dtd">
<svg version="1.1"
	 id="svg2" xmlns:svg="http://www.w3.org/2000/svg" xmlns:cc="http://creativecommons.org/ns#" xmlns:dc="http://purl.org/dc/elements/1.1/" xmlns:rdf="http://www.w3.org/1999/02/22-rdf-syntax-ns#"
	 xmlns="http://www.w3.org/2000/svg" xmlns:xlink="http://www.w3.org/1999/xlink" x="0px" y="0px" width="19px" height="19px"
	 viewBox="0 0 19 19" enable-background="new 0 0 19 19" xml:space="preserve">
<ellipse id="ellipse4" fill="#FFFFFF" cx="9.5" cy="9.5" rx="9.5" ry="9.5"/>
<ellipse id="ellipse6" fill="#7E9A4C" cx="9.5" cy="9.5" rx="8.5" ry="8.5"/>
<g id="g8" transform="translate(4,4)">
	<path id="path11685" fill="#FFFFFF" d="M4,0.6C3.5,1.2,4.3,1.8,4.7,1.3l0.5-0.5l2.3,1.4L3.3,4.5C3,4.7,3,4.9,3.1,5.2L4,7.5l-1,2.8
		C2.9,10.7,3.2,11,3.5,11c0.2,0,0.4-0.1,0.5-0.3l0.9-2.8l0.9-0.3L6,8.1v2.4c0,0,0,0.5,0.5,0.5S7,10.5,7,10.5V8.1C7,8,7,7.9,6.9,7.8
		L5.7,4.4L8.2,3c0.2-0.1,0.3-0.3,0.3-0.5S8.3,2.1,8,1.9L4.9,0.1C4.7,0,4.6,0,4.6,0.1L4,0.6z M3,2C2.4,2,2,2.4,2,3s0.4,1,1,1
		s1-0.4,1-1S3.6,2,3,2z"/>
</g>
</svg>
