<?xml version="1.0" encoding="utf-8"?>
<!-- Generator: Adobe Illustrator 17.1.0, SVG Export Plug-In . SVG Version: 6.00 Build 0)  -->
<!DOCTYPE svg PUBLIC "-//W3C//DTD SVG 1.1//EN" "http://www.w3.org/Graphics/SVG/1.1/DTD/svg11.dtd">
<svg version="1.1"
	 id="svg2" xmlns:svg="http://www.w3.org/2000/svg" xmlns:cc="http://creativecommons.org/ns#" xmlns:dc="http://purl.org/dc/elements/1.1/" xmlns:rdf="http://www.w3.org/1999/02/22-rdf-syntax-ns#"
	 xmlns="http://www.w3.org/2000/svg" xmlns:xlink="http://www.w3.org/1999/xlink" x="0px" y="0px" width="23px" height="23px"
	 viewBox="0 0 23 23" enable-background="new 0 0 23 23" xml:space="preserve">
<ellipse id="ellipse4" fill="#FFFFFF" cx="11.5" cy="11.5" rx="11.5" ry="11.5"/>
<ellipse id="ellipse6" fill="#7E9A4C" cx="11.5" cy="11.5" rx="10.5" ry="10.5"/>
<g id="g8" transform="translate(4.5,4)">
	<path id="path11758" fill="#FFFFFF" d="M3.3,1L3.2,1.3L3,1.9C3,2,3,2,3,2.1c0,0.3,0.3,0.6,0.6,0.6s0.5-0.2,0.5-0.4l0,0l0.2-0.5
		l4.9,2L5.7,6.2C5.4,6.4,5.3,6.8,5.5,7.1L6.3,9l-1.2,3.4c-0.2,0.5,0.2,0.8,0.6,0.8c0.2,0,0.5-0.1,0.6-0.4l1.2-3.6l0.1,0.3v3.1
		c0,0,0,0.6,0.6,0.6s0.6-0.6,0.6-0.6V9.7c0-0.1,0-0.3-0.1-0.4l-1.2-3l2.4-1.7c0.2-0.1,0.4-0.3,0.4-0.5c0-0.3-0.1-0.5-0.3-0.5
		L3.6,0.9C3.6,0.9,3.4,0.8,3.3,1L3.3,1z M4.9,3.5c-0.7,0-1.3,0.6-1.3,1.3s0.6,1.3,1.3,1.3s1.3-0.6,1.3-1.3S5.6,3.5,4.9,3.5z"/>
</g>
</svg>
