<?xml version="1.0" encoding="utf-8"?>
<!-- Generator: Adobe Illustrator 17.1.0, SVG Export Plug-In . SVG Version: 6.00 Build 0)  -->
<!DOCTYPE svg PUBLIC "-//W3C//DTD SVG 1.1//EN" "http://www.w3.org/Graphics/SVG/1.1/DTD/svg11.dtd">
<svg version="1.1"
	 id="svg2" xmlns:svg="http://www.w3.org/2000/svg" xmlns:cc="http://creativecommons.org/ns#" xmlns:dc="http://purl.org/dc/elements/1.1/" xmlns:rdf="http://www.w3.org/1999/02/22-rdf-syntax-ns#"
	 xmlns="http://www.w3.org/2000/svg" xmlns:xlink="http://www.w3.org/1999/xlink" x="0px" y="0px" width="19px" height="19px"
	 viewBox="0 0 19 19" enable-background="new 0 0 19 19" xml:space="preserve">
<ellipse id="ellipse4" fill="#FFFFFF" cx="9.5" cy="9.5" rx="9.5" ry="9.5"/>
<ellipse id="ellipse6" fill="#A9A199" cx="9.5" cy="9.5" rx="8.5" ry="8.5"/>
<g id="g8" transform="translate(4,4)">
	<path id="rect7842-7" fill="#FFFFFF" d="M9.8,1.5c0,0-0.3,0-0.6,0.2C8.8,1.9,8.5,2.3,8.5,3H8.3H1l0.8,3.5C1.9,7,2.5,7,2.5,7h6
		c0,0,0,0.2-0.2,0.5S7.9,8,7.2,8H2C1.7,8,1.7,8.5,2,8.5h5.2c0.8,0,1.3-0.4,1.5-0.7C9,7.4,9,7,9,7V3c0-0.6,0.2-0.8,0.4-0.9
		C9.6,2,9.7,2,9.7,2l0,0h0.5c0.3,0,0.3-0.5,0-0.5H9.8L9.8,1.5z"/>
	<circle id="path4719" fill="#FFFFFF" cx="3.2" cy="9.2" r="0.8"/>
	<circle id="circle4721" fill="#FFFFFF" cx="7.2" cy="9.2" r="0.8"/>
</g>
</svg>
