<?xml version="1.0" encoding="utf-8"?>
<!-- Generator: Adobe Illustrator 17.1.0, SVG Export Plug-In . SVG Version: 6.00 Build 0)  -->
<!DOCTYPE svg PUBLIC "-//W3C//DTD SVG 1.1//EN" "http://www.w3.org/Graphics/SVG/1.1/DTD/svg11.dtd">
<svg version="1.1"
	 id="svg2" xmlns:svg="http://www.w3.org/2000/svg" xmlns:cc="http://creativecommons.org/ns#" xmlns:dc="http://purl.org/dc/elements/1.1/" xmlns:rdf="http://www.w3.org/1999/02/22-rdf-syntax-ns#"
	 xmlns="http://www.w3.org/2000/svg" xmlns:xlink="http://www.w3.org/1999/xlink" x="0px" y="0px" width="23px" height="23px"
	 viewBox="0 0 23 23" enable-background="new 0 0 23 23" xml:space="preserve">
<ellipse id="ellipse4" fill="#FFFFFF" cx="11.5" cy="11.5" rx="11.5" ry="11.5"/>
<ellipse id="ellipse6" fill="#A9A199" cx="11.5" cy="11.5" rx="10.5" ry="10.5"/>
<g id="g8" transform="translate(5,5)">
	<path id="path4776" fill="#FFFFFF" d="M11.2,0.4c0,0-0.5,0-1,0.3s-0.9,1-0.9,1.9H0.9L2.2,7c0.3,0.9,1.3,0.9,1.3,0.9h5.7v0.2
		c0,0,0,0.3-0.2,0.6C9,9,8.8,9.3,8.2,9.3H2.4c-0.9,0-0.9,1.4,0,1.3h1.1h4.4h0.2c1.1,0,1.8-0.6,2.1-1.2c0.3-0.6,0.3-1.2,0.3-1.2V7.9
		v-5c0-0.7,0.2-0.9,0.4-1c0.2-0.1,0.3-0.1,0.3-0.1h0.4c0,0,0.7,0,0.7-0.7s-0.7-0.7-0.7-0.7L11.2,0.4z M7.9,10.6
		C7.4,10.6,7,11,7,11.5s0.4,0.9,0.9,0.9s0.9-0.4,0.9-0.9S8.4,10.6,7.9,10.6z M3.5,10.6c-0.5,0-0.9,0.4-0.9,0.9s0.4,0.9,0.9,0.9
		s0.9-0.4,0.9-0.9S4,10.6,3.5,10.6z"/>
</g>
</svg>
