<svg viewBox="-296 189 23 23" width="23" height="23" data-reactid=".0.1.1.$grocery-15=1svg37.0.0"><rect x="-295" y="190" rx="10.5" ry="10.5" width="21" height="21" stroke="#fff" style="stroke-linejoin:round;stroke-miterlimit:4px;" fill="#fff" stroke-width="2" data-reactid=".0.1.1.$grocery-15=1svg37.0.0.0"></rect><rect x="-295" y="190" width="21" height="21" rx="10.5" ry="10.5" fill="#7f7874" data-reactid=".0.1.1.$grocery-15=1svg37.0.0.1"></rect><path fill="#fff" d="M-279.2,193.5
	c0,0-0.6,0-1.2,0.4c-0.5,0.3-1,1.1-1.1,2.1h-9.5l1.5,5c0.3,1,1.5,1,1.5,1h6.5v0.2c0,0,0,0.3-0.2,0.7s-0.3,0.6-1.1,0.6h-6.5
	c-1,0-1,1.5,0,1.5h1.2h5h0.2c1.2,0,2.1-0.7,2.4-1.4s0.3-1.3,0.3-1.3V202v-5.8c0-0.8,0.2-1,0.4-1.1s0.3-0.1,0.3-0.1h0.5
	c0,0,0.8,0,0.8-0.8s-0.8-0.8-0.8-0.8H-279.2z M-283,205c-0.6,0-1,0.4-1,1c0,0.6,0.4,1,1,1s1-0.4,1-1C-282,205.4-282.4,205-283,205z
	 M-288,205c-0.6,0-1,0.4-1,1c0,0.6,0.4,1,1,1s1-0.4,1-1C-287,205.4-287.4,205-288,205z" data-reactid=".0.1.1.$grocery-15=1svg37.0.0.3:$grocery-15=1svg-0-fill"></path></svg>