<?xml version="1.0" encoding="UTF-8" standalone="no"?>
<svg
   xmlns:dc="http://purl.org/dc/elements/1.1/"
   xmlns:cc="http://creativecommons.org/ns#"
   xmlns:rdf="http://www.w3.org/1999/02/22-rdf-syntax-ns#"
   xmlns:svg="http://www.w3.org/2000/svg"
   xmlns="http://www.w3.org/2000/svg"
   id="svg2"
   width="19"
   height="19"
   viewBox="0 0 19 19"
   version="1.1">
  <metadata
     id="metadata14">
    <rdf:RDF>
      <cc:Work
         rdf:about="">
        <dc:format>image/svg+xml</dc:format>
        <dc:type
           rdf:resource="http://purl.org/dc/dcmitype/StillImage" />
      </cc:Work>
    </rdf:RDF>
  </metadata>
  <defs
     id="defs12" />
  <ellipse
     id="ellipse4"
     ry="9.5"
     rx="9.5"
     cy="9.5"
     cx="9.5"
     style="fill:#ffffff;stroke:none;" />
  <ellipse
     id="ellipse6"
     rx="8.5"
     ry="8.5"
     cy="9.5"
     cx="9.5"
     style="fill:#a9a199;stroke:none;" />
  <g
     id="g8"
     transform="translate(4,4)">
      <defs     id="defs4766" />  <metadata     id="metadata4769">    <rdf:RDF>      <cc:Work         rdf:about="">        <dc:format>image/svg+xml</dc:format>        <dc:type           rdf:resource="http://purl.org/dc/dcmitype/StillImage" />        <dc:title />      </cc:Work>    </rdf:RDF>  </metadata>  <path     id="rect7842-7"     d="M 9.75,1.5 C 9.7464061,1.4999302 9.4323514,1.4941902 9.1191406,1.6875 8.804147,1.8819101 8.5,2.3013439 8.5,3 L 8.2539062,3 1,3 1.75,6.5 C 1.8571429,7 2.5,7 2.5,7 l 6,0 C 8.5,7 8.4973257,7.2466447 8.3476562,7.4960938 8.1979869,7.7455428 7.9305556,8 7.25,8 L 2,8 C 1.6619193,7.9952187 1.6619193,8.5047813 2,8.5 l 5.25,0 C 8.0694444,8.5 8.5520131,8.1294572 8.7773438,7.7539062 9.0026743,7.3783553 9,7 9,7 L 9,3 C 9,2.4330311 9.195853,2.2274649 9.3808594,2.1132812 9.5658657,1.9990977 9.7460938,2 9.7460938,2 c 0.0013,1.02e-5 0.0026,1.02e-5 0.00391,0 l 0.5,0 c 0.338081,0.00478 0.338081,-0.5047813 0,-0.5 l -0.4960938,0 z"     style="fill:#ffffff;fill-opacity:1" />  <circle     r="0.75"     cy="9.25"     cx="3.25"     id="path4719"     style="opacity:1;fill:#ffffff;fill-opacity:1;stroke:none;stroke-width:0.10000001;stroke-linecap:round;stroke-linejoin:round;stroke-miterlimit:4;stroke-dasharray:none;stroke-dashoffset:0;stroke-opacity:1;marker:none" />  <circle     style="opacity:1;fill:#ffffff;fill-opacity:1;stroke:none;stroke-width:0.10000001;stroke-linecap:round;stroke-linejoin:round;stroke-miterlimit:4;stroke-dasharray:none;stroke-dashoffset:0;stroke-opacity:1;marker:none"     id="circle4721"     cx="7.25"     cy="9.25"     r="0.75" />
  </g>
</svg>
