<?xml version="1.0" encoding="utf-8"?>
<!-- Generator: Adobe Illustrator 17.1.0, SVG Export Plug-In . SVG Version: 6.00 Build 0)  -->
<!DOCTYPE svg PUBLIC "-//W3C//DTD SVG 1.1//EN" "http://www.w3.org/Graphics/SVG/1.1/DTD/svg11.dtd">
<svg version="1.1"
	 id="svg2" xmlns:svg="http://www.w3.org/2000/svg" xmlns:cc="http://creativecommons.org/ns#" xmlns:dc="http://purl.org/dc/elements/1.1/" xmlns:rdf="http://www.w3.org/1999/02/22-rdf-syntax-ns#"
	 xmlns="http://www.w3.org/2000/svg" xmlns:xlink="http://www.w3.org/1999/xlink" x="0px" y="0px" width="19px" height="19px"
	 viewBox="0 0 19 19" enable-background="new 0 0 19 19" xml:space="preserve">
<ellipse id="ellipse4" fill="#FFFFFF" cx="9.5" cy="9.5" rx="9.5" ry="9.5"/>
<ellipse id="ellipse6" fill="#A9A199" cx="9.5" cy="9.5" rx="8.5" ry="8.5"/>
<g id="g8" transform="translate(4,4)">
	<path id="path6232" fill="#FFFFFF" d="M1.5,2C0.7,2,0,2.7,0,3.5v1C0,5,0.5,5,0.5,5h1C3,5,4,5.5,4,5.5S3,6,1.5,6h-1C0.5,6,0,6,0,6.5
		v1C0,8.3,0.7,9,1.5,9S3,8.3,3,7.5V6.9c0.8-0.2,1.6-0.5,2.2-0.7L8.5,8C10,8.8,11,8,11,8L6.5,5.5L11,3c0,0-1-0.8-2.5,0L5.2,4.9
		C4.6,4.6,3.8,4.3,3,4.1V3.5l0,0C3,2.7,2.3,2,1.5,2z M1.5,3C1.8,3,2,3.2,2,3.5S1.8,4,1.5,4S1,3.8,1,3.5S1.2,3,1.5,3z M5.2,5.2
		L5.2,5.2c0.2,0,0.3,0.1,0.3,0.2S5.4,5.8,5.2,5.8S5,5.6,5,5.5S5.1,5.3,5.2,5.2z M1.5,7C1.8,7,2,7.2,2,7.5S1.8,8,1.5,8S1,7.8,1,7.5
		S1.2,7,1.5,7z"/>
</g>
</svg>
