<?xml version="1.0" encoding="utf-8"?>
<!-- Generator: Adobe Illustrator 17.1.0, SVG Export Plug-In . SVG Version: 6.00 Build 0)  -->
<!DOCTYPE svg PUBLIC "-//W3C//DTD SVG 1.1//EN" "http://www.w3.org/Graphics/SVG/1.1/DTD/svg11.dtd">
<svg version="1.1"
	 id="svg2" xmlns:svg="http://www.w3.org/2000/svg" xmlns:cc="http://creativecommons.org/ns#" xmlns:dc="http://purl.org/dc/elements/1.1/" xmlns:rdf="http://www.w3.org/1999/02/22-rdf-syntax-ns#"
	 xmlns="http://www.w3.org/2000/svg" xmlns:xlink="http://www.w3.org/1999/xlink" x="0px" y="0px" width="23px" height="23px"
	 viewBox="0 0 23 23" enable-background="new 0 0 23 23" xml:space="preserve">
<ellipse id="ellipse4" fill="#FFFFFF" cx="11.5" cy="11.5" rx="11.5" ry="11.5"/>
<ellipse id="ellipse6" fill="#A9A199" cx="11.5" cy="11.5" rx="10.5" ry="10.5"/>
<g id="g8" transform="translate(5,4.5)">
	<path id="path6100" fill="#FFFFFF" d="M1.8,1.8C0.8,1.8,0,2.6,0,3.5v1.3c0,0.4,0.4,0.4,0.4,0.4h1.3h0.4c1.8,0,3.1,1.3,3.1,1.3
		S4,7.9,2.2,7.9H1.8H0.4c0,0-0.4,0-0.4,0.4v1.3c0,1,0.8,1.8,1.8,1.8s1.8-0.8,1.8-1.8V9c1.1-0.3,2.1-1,2.9-1.5l3.8,2.6
		c1.3,0.9,3.1,0.4,3.1,0.4l-5.7-4l5.7-4c0,0-1.8-0.5-3.1,0.4L6.4,5.7C5.6,5.2,4.6,4.6,3.5,4.2V3.5C3.5,2.6,2.7,1.8,1.8,1.8z
		 M1.8,2.6c0.5,0,0.9,0.4,0.9,0.9v0.9H1.8H0.9V3.5C0.9,3,1.3,2.6,1.8,2.6z M6.3,6.3c0.2,0,0.3,0.1,0.3,0.3l0,0
		c0,0.2-0.1,0.3-0.3,0.3l0,0C6.1,6.9,6,6.8,6,6.6C6,6.5,6.1,6.3,6.3,6.3z M0.9,8.8h0.9h0.9v0.9c0,0.5-0.4,0.9-0.9,0.9
		s-0.9-0.4-0.9-0.9C0.9,9.7,0.9,8.8,0.9,8.8z"/>
	<g id="g6359" transform="translate(0,-0.44117656)">
	</g>
	<g id="g6366" transform="rotate(-180,1.7647059,6.8382354)">
	</g>
</g>
</svg>
