<svg viewBox="-296 189 23 23" width="23" height="23" data-reactid=".0.1.1.$hairdresser-15=1svg39.0.0"><rect x="-295" y="190" rx="10.5" ry="10.5" width="21" height="21" stroke="#fff" style="stroke-linejoin:round;stroke-miterlimit:4px;" fill="#fff" stroke-width="2" data-reactid=".0.1.1.$hairdresser-15=1svg39.0.0.0"></rect><rect x="-295" y="190" width="21" height="21" rx="10.5" ry="10.5" fill="#7f7874" data-reactid=".0.1.1.$hairdresser-15=1svg39.0.0.1"></rect><path fill="#fff" d="M-290,195c-1.1,0-2,0.9-2,2v1.5c0,0.5,0.5,0.5,0.5,0.5h1.5h0.5c2,0,3.5,1.5,3.5,1.5s-1.5,1.5-3.5,1.5h-0.5
	h-1.5c0,0-0.5,0-0.5,0.5v1.5c0,1.1,0.9,2,2,2s2-0.9,2-2v-0.8c1.2-0.4,2.4-1.1,3.2-1.7l4.3,3c1.5,1.1,3.5,0.5,3.5,0.5l-6.5-4.5
	l6.5-4.5c0,0-2-0.6-3.5,0.5l-4.3,3c-0.8-0.6-2-1.3-3.2-1.7V197C-288,195.9-288.9,195-290,195z M-290,196c0.6,0,1,0.4,1,1v1h-1h-1v-1
	C-291,196.4-290.6,196-290,196z M-284.8,200.2c0.2,0,0.3,0.2,0.3,0.3c0,0,0,0,0,0c0,0.2-0.2,0.3-0.3,0.3c0,0,0,0,0,0
	c-0.2,0-0.3-0.2-0.3-0.3C-285.2,200.3-285,200.2-284.8,200.2z M-291,203h1h1v1c0,0.6-0.4,1-1,1s-1-0.4-1-1V203z" data-reactid=".0.1.1.$hairdresser-15=1svg39.0.0.3:$hairdresser-15=1svg-0-fill"></path></svg>