<svg viewBox="-4 -4 19 19" width="19" height="19" data-reactid=".0.1.1.$hairdresser-11=1svg38.0.0"><rect x="-3" y="-3" rx="8.5" ry="8.5" width="17" height="17" stroke="#fff" style="stroke-linejoin:round;stroke-miterlimit:4px;" fill="#fff" stroke-width="2" data-reactid=".0.1.1.$hairdresser-11=1svg38.0.0.0"></rect><rect x="-3" y="-3" width="17" height="17" rx="8.5" ry="8.5" fill="#7f7874" data-reactid=".0.1.1.$hairdresser-11=1svg38.0.0.1"></rect><path fill="#fff" d="M 1.5 2 A 1.5 1.5 0 0 0 0 3.5 L 0 4.5 C 0 5 0.5 5 0.5 5 L 1.5 5 C 3 5 4 5.5 4 5.5 C 4 5.5 3 6 1.5 6 L 0.5 6 C 0.5 6 1.4802974e-16 6 0 6.5 L 0 7.5 A 1.5 1.5 0 0 0 1.5 9 A 1.5 1.5 0 0 0 3 7.5 L 3 6.8847656 C 3.808196 6.7270055 4.5864906 6.4316405 5.2246094 6.1425781 L 8.5 8 C 10 8.75 11 8 11 8 L 6.5 5.5 L 11 3 C 11 3 10 2.25 8.5 3 L 5.2246094 4.8574219 C 4.5865585 4.5683903 3.8081416 4.273053 3 4.1152344 L 3 3.5039062 A 1.5 1.5 0 0 0 3 3.5 A 1.5 1.5 0 0 0 1.5 2 z M 1.5 3 A 0.5 0.5 0 0 1 2 3.5 A 0.5 0.5 0 0 1 1.5 4 A 0.5 0.5 0 0 1 1 3.5 A 0.5 0.5 0 0 1 1.5 3 z M 5.2324219 5.25 A 0.25 0.25 0 0 1 5.25 5.25 A 0.25 0.25 0 0 1 5.5 5.5 A 0.25 0.25 0 0 1 5.25 5.75 A 0.25 0.25 0 0 1 5 5.5 A 0.25 0.25 0 0 1 5.2324219 5.25 z M 1.5 7 A 0.5 0.5 0 0 1 2 7.5 A 0.5 0.5 0 0 1 1.5 8 A 0.5 0.5 0 0 1 1 7.5 A 0.5 0.5 0 0 1 1.5 7 z " data-reactid=".0.1.1.$hairdresser-11=1svg38.0.0.3:$hairdresser-11=1svg-0-fill"></path></svg>