<?xml version="1.0" encoding="UTF-8" standalone="no"?>
<svg
   xmlns:dc="http://purl.org/dc/elements/1.1/"
   xmlns:cc="http://creativecommons.org/ns#"
   xmlns:rdf="http://www.w3.org/1999/02/22-rdf-syntax-ns#"
   xmlns:svg="http://www.w3.org/2000/svg"
   xmlns="http://www.w3.org/2000/svg"
   id="svg2"
   width="23"
   height="23"
   viewBox="0 0 23 23"
   version="1.1">
  <metadata
     id="metadata14">
    <rdf:RDF>
      <cc:Work
         rdf:about="">
        <dc:format>image/svg+xml</dc:format>
        <dc:type
           rdf:resource="http://purl.org/dc/dcmitype/StillImage" />
      </cc:Work>
    </rdf:RDF>
  </metadata>
  <defs
     id="defs12" />
  <ellipse
     id="ellipse4"
     ry="11.5"
     rx="11.5"
     cy="11.5"
     cx="11.5"
     style="fill:#ffffff;stroke:none;" />
  <ellipse
     id="ellipse6"
     ry="10.5"
     rx="10.5"
     cy="11.5"
     cx="11.5"
     style="fill:#a9a199;stroke:none;" />
  <g
     id="g8"
     transform="translate(5,4.5)">
      <defs     id="defs4621" />  <metadata     id="metadata4624">    <rdf:RDF>      <cc:Work         rdf:about="">        <dc:format>image/svg+xml</dc:format>        <dc:type           rdf:resource="http://purl.org/dc/dcmitype/StillImage" />        <dc:title />      </cc:Work>    </rdf:RDF>  </metadata>  <path     id="path6100"     transform="scale(0.88235293)"     d="M 2 2 A 2 2 0 0 0 0 4 L 0 5.5 C 0 6 0.5 6 0.5 6 L 2 6 L 2.5 6 C 4.5454545 6 6 7.5 6 7.5 C 6 7.5 4.5454544 9 2.5 9 L 2 9 L 0.5 9 C 0.5 9 0 9 0 9.5 L 0 11 A 2 2 0 0 0 2 13 A 2 2 0 0 0 4 11 L 4 10.216797 C 5.2062657 9.8368061 6.3819379 9.1263956 7.2304688 8.5117188 L 11.5 11.5 C 13 12.55 15 12 15 12 L 8.5136719 7.5097656 L 15 3 C 15 3 13 2.4439555 11.5 3.5 L 7.2421875 6.4960938 C 6.3928847 5.8798723 5.211441 5.1648074 4 4.7832031 L 4 4 A 2 2 0 0 0 2 2 z M 2 3 A 1 1 0 0 1 3 4 L 3 5 L 2 5 L 1 5 L 1 4 A 1 1 0 0 1 2 3 z M 7.1582031 7.1582031 A 0.3409091 0.3409091 0 0 1 7.5 7.5 A 0.3409091 0.3409091 0 0 1 7.1582031 7.8417969 A 0.3409091 0.3409091 0 0 1 6.8183594 7.5 A 0.3409091 0.3409091 0 0 1 7.1582031 7.1582031 z M 1 10 L 2 10 L 3 10 L 3 11 A 1 1 0 0 1 2 12 A 1 1 0 0 1 1 11 L 1 10 z "     style="fill:#ffffff;fill-opacity:1;fill-rule:evenodd;stroke:none;stroke-width:1.00000012px;stroke-linecap:butt;stroke-linejoin:miter;stroke-opacity:1" />  <g     transform="translate(0,-0.44117656)"     id="g6359" />  <g     id="g6366"     transform="rotate(-180,1.7647059,6.8382354)" />
  </g>
</svg>
