<?xml version="1.0" encoding="utf-8"?>
<!-- Generator: Adobe Illustrator 17.1.0, SVG Export Plug-In . SVG Version: 6.00 Build 0)  -->
<!DOCTYPE svg PUBLIC "-//W3C//DTD SVG 1.1//EN" "http://www.w3.org/Graphics/SVG/1.1/DTD/svg11.dtd">
<svg version="1.1"
	 id="svg2" xmlns:svg="http://www.w3.org/2000/svg" xmlns:cc="http://creativecommons.org/ns#" xmlns:dc="http://purl.org/dc/elements/1.1/" xmlns:rdf="http://www.w3.org/1999/02/22-rdf-syntax-ns#"
	 xmlns="http://www.w3.org/2000/svg" xmlns:xlink="http://www.w3.org/1999/xlink" x="0px" y="0px" width="23px" height="23px"
	 viewBox="0 0 23 23" enable-background="new 0 0 23 23" xml:space="preserve">
<ellipse id="ellipse4" fill="#FFFFFF" cx="11.5" cy="11.5" rx="11.5" ry="11.5"/>
<ellipse id="ellipse6" fill="#A9A199" cx="11.5" cy="11.5" rx="10.5" ry="10.5"/>
<g id="g8" transform="translate(5,4.5)">
	<path id="path5263" fill="#FFFFFF" d="M6.6,0C4.9,0,3.5,1.4,3.5,3.1c0,1.5,1.1,2.8,2.6,3.1v0.9H5.3C4.8,7.1,4.4,7.5,4.4,8
		s0.4,0.9,0.9,0.9h0.9v2.6c-1-0.1-2-0.4-2.8-1.2C2.5,9.4,1.8,8,1.8,5.7c0-0.5-0.4-0.9-0.9-0.9C0.4,4.8,0,5.2,0,5.7
		c0,2.6,0.9,4.6,2.2,5.8s3,1.7,4.4,1.7c1.5,0,3.1-0.5,4.4-1.7s2.2-3.2,2.2-5.8c0.1-1.2-1.8-1.2-1.8,0c0,2.3-0.7,3.6-1.6,4.5
		C9,11,8,11.3,7.1,11.4V8.8H8c0.5,0,0.9-0.4,0.9-0.9s-0.5-0.8-1-0.8H7.1v-1C8.6,5.9,9.7,4.6,9.7,3S8.4,0,6.6,0z M6.6,1.8
		c0.7,0,1.3,0.6,1.3,1.3S7.3,4.4,6.6,4.4S5.3,3.8,5.3,3.1S5.9,1.8,6.6,1.8z"/>
</g>
</svg>
