<?xml version="1.0" encoding="utf-8"?>
<!-- Generator: Adobe Illustrator 17.1.0, SVG Export Plug-In . SVG Version: 6.00 Build 0)  -->
<!DOCTYPE svg PUBLIC "-//W3C//DTD SVG 1.1//EN" "http://www.w3.org/Graphics/SVG/1.1/DTD/svg11.dtd">
<svg version="1.1"
	 id="svg2" xmlns:svg="http://www.w3.org/2000/svg" xmlns:cc="http://creativecommons.org/ns#" xmlns:dc="http://purl.org/dc/elements/1.1/" xmlns:rdf="http://www.w3.org/1999/02/22-rdf-syntax-ns#"
	 xmlns="http://www.w3.org/2000/svg" xmlns:xlink="http://www.w3.org/1999/xlink" x="0px" y="0px" width="19px" height="19px"
	 viewBox="0 0 19 19" enable-background="new 0 0 19 19" xml:space="preserve">
<ellipse id="ellipse4" fill="#FFFFFF" cx="9.5" cy="9.5" rx="9.5" ry="9.5"/>
<ellipse id="ellipse6" fill="#A9A199" cx="9.5" cy="9.5" rx="8.5" ry="8.5"/>
<g id="g8" transform="translate(4,4)">
	<path id="path5263" fill="#FFFFFF" d="M5.5,0C4.1,0,3,1.1,3,2.5c0,1.2,0.8,2.2,2,2.4V6H4.5C4.2,6,4,6.2,4,6.5S4.2,7,4.5,7H5v2.5
		C4.3,9.4,3.5,9.1,2.9,8.6C2.1,7.9,1.5,6.8,1.5,5c0-0.4-0.3-0.8-0.7-0.8l0,0C0.3,4.2,0,4.6,0,5c0,2.2,0.8,3.7,1.9,4.7S4.3,11,5.5,11
		S8,10.6,9.1,9.7S11,7.2,11,5c0-0.4-0.3-0.8-0.7-0.8C9.8,4.2,9.5,4.6,9.5,5l0,0c0,1.8-0.6,2.9-1.4,3.6C7.5,9.1,6.7,9.4,6,9.5V7h0.5
		C6.8,7,7,6.8,7,6.5S6.8,6,6.5,6H6V4.9c1.2-0.2,2-1.3,2-2.4C8,1.1,6.9,0,5.5,0z M5.5,1.5c0.6,0,1,0.4,1,1s-0.4,1-1,1s-1-0.4-1-1
		S4.9,1.5,5.5,1.5z"/>
</g>
</svg>
