<?xml version="1.0" encoding="utf-8"?>
<!-- Generator: Adobe Illustrator 17.1.0, SVG Export Plug-In . SVG Version: 6.00 Build 0)  -->
<!DOCTYPE svg PUBLIC "-//W3C//DTD SVG 1.1//EN" "http://www.w3.org/Graphics/SVG/1.1/DTD/svg11.dtd">
<svg version="1.1"
	 id="svg2" xmlns:svg="http://www.w3.org/2000/svg" xmlns:cc="http://creativecommons.org/ns#" xmlns:dc="http://purl.org/dc/elements/1.1/" xmlns:rdf="http://www.w3.org/1999/02/22-rdf-syntax-ns#"
	 xmlns="http://www.w3.org/2000/svg" xmlns:xlink="http://www.w3.org/1999/xlink" x="0px" y="0px" width="19px" height="19px"
	 viewBox="0 0 19 19" enable-background="new 0 0 19 19" xml:space="preserve">
<path id="rect4" fill="#FFFFFF" d="M3,0h13c1.7,0,3,1.3,3,3v13c0,1.7-1.3,3-3,3H3c-1.7,0-3-1.3-3-3V3C0,1.3,1.3,0,3,0z"/>
<path id="rect6" fill="#9C8EA4" d="M2,1h15c0.6,0,1,0.4,1,1v15c0,0.6-0.4,1-1,1H2c-0.6,0-1-0.4-1-1V2C1,1.4,1.4,1,2,1z"/>
<g id="g8" transform="translate(4,4)">
	<path id="path10415" fill="#FFFFFF" d="M3,1C2.7,1,2.5,1.2,2.5,1.5S2.7,2,3,2h3v2H2.9h0C2.7,3.4,2.1,3,1.5,3C0.7,3,0,3.7,0,4.5
		S0.7,6,1.5,6c0.4,0,0.7-0.1,1-0.4l2,2.9c0.7,1,1.5,1,2,1H10c0,0,1,0,1-1v-1c0-0.5-0.5-1-0.5-1l-2-2c0,0-0.5-0.5-1-0.5H7V2h3
		c0.3,0,0.5-0.2,0.5-0.5S10.3,1,10,1H3z M1.5,4C1.8,4,2,4.2,2,4.5S1.8,5,1.5,5S1,4.8,1,4.5S1.2,4,1.5,4z M7.8,5c0,0,0.2,0,0.8,0.5
		L10,7H7.5C7.5,7,7,7,7,6.5v-1C7,5.5,7,5,7.5,5H7.8z"/>
</g>
</svg>
