<?xml version="1.0" encoding="UTF-8" standalone="no"?>
<svg
   xmlns:dc="http://purl.org/dc/elements/1.1/"
   xmlns:cc="http://creativecommons.org/ns#"
   xmlns:rdf="http://www.w3.org/1999/02/22-rdf-syntax-ns#"
   xmlns:svg="http://www.w3.org/2000/svg"
   xmlns="http://www.w3.org/2000/svg"
   id="svg2"
   width="19"
   height="19"
   viewBox="0 0 19 19"
   version="1.1">
  <metadata
     id="metadata14">
    <rdf:RDF>
      <cc:Work
         rdf:about="">
        <dc:format>image/svg+xml</dc:format>
        <dc:type
           rdf:resource="http://purl.org/dc/dcmitype/StillImage" />
      </cc:Work>
    </rdf:RDF>
  </metadata>
  <defs
     id="defs12" />
  <rect
     id="rect4"
     ry="3"
     rx="3"
     height="19"
     width="19"
     y="0"
     x="0"
     style="fill:#ffffff;stroke:none;" />
  <rect
     id="rect6"
     ry="1"
     rx="1"
     height="17"
     width="17"
     y="1"
     x="1"
     style="fill:#9c8ea4;stroke:none;" />
  <g
     id="g8"
     transform="translate(4,4)">
      <defs     id="defs4766" />  <metadata     id="metadata4769">    <rdf:RDF>      <cc:Work         rdf:about="">        <dc:format>image/svg+xml</dc:format>        <dc:type           rdf:resource="http://purl.org/dc/dcmitype/StillImage" />        <dc:title />      </cc:Work>    </rdf:RDF>  </metadata>  <path     id="path10415"     d="M 3,1 C 2.723,1 2.5,1.223 2.5,1.5 2.5,1.777 2.723558,1.9824329 3,2 l 3,0 0,2 -3.085938,0 -0.002,0 C 2.7004342,3.4014241 2.1348847,3.0009109 1.5,3 0.67157288,3 0,3.6715729 0,4.5 0,5.3284271 0.67157288,6 1.5,6 1.8793696,5.9992569 2.2443666,5.8547934 2.521484,5.5957031 L 4.5,8.5 c 0.6812375,1 1.5,1 2,1 l 3.535156,0 C 10.035156,9.5 11,9.4992114 11,8.5 l 0,-1 c 0,-0.5 -0.5,-1 -0.5,-1 l -2,-2 C 8.5,4.5 8,4 7.5,4 L 7,4 7,2 10,2 C 10.277,2 10.5,1.777 10.5,1.5 10.5,1.223 10.277,1 10,1 Z M 1.5,4 C 1.7761424,4 2,4.2238576 2,4.5 2,4.7761424 1.7761424,5 1.5,5 1.2238576,5 1,4.7761424 1,4.5 1,4.2238576 1.2238576,4 1.5,4 Z M 7.75,5 C 7.75,5 8,5 8.5,5.5 L 10,7 7.5,7 C 7.5,7 7,7 7,6.5 l 0,-1 C 7,5.5 7,5 7.5,5 Z"     style="opacity:1;fill:#ffffff;fill-opacity:1;stroke:none;stroke-width:1;stroke-linecap:round;stroke-linejoin:miter;stroke-miterlimit:4;stroke-dasharray:none;stroke-dashoffset:0;stroke-opacity:1" />
  </g>
</svg>
