<?xml version="1.0" encoding="utf-8"?>
<!-- Generator: Adobe Illustrator 17.1.0, SVG Export Plug-In . SVG Version: 6.00 Build 0)  -->
<!DOCTYPE svg PUBLIC "-//W3C//DTD SVG 1.1//EN" "http://www.w3.org/Graphics/SVG/1.1/DTD/svg11.dtd">
<svg version="1.1"
	 id="svg2" xmlns:svg="http://www.w3.org/2000/svg" xmlns:cc="http://creativecommons.org/ns#" xmlns:dc="http://purl.org/dc/elements/1.1/" xmlns:rdf="http://www.w3.org/1999/02/22-rdf-syntax-ns#"
	 xmlns="http://www.w3.org/2000/svg" xmlns:xlink="http://www.w3.org/1999/xlink" x="0px" y="0px" width="23px" height="23px"
	 viewBox="0 0 23 23" enable-background="new 0 0 23 23" xml:space="preserve">
<path id="rect4" fill="#FFFFFF" d="M3,0h17c1.7,0,3,1.3,3,3v17c0,1.7-1.3,3-3,3H3c-1.7,0-3-1.3-3-3V3C0,1.3,1.3,0,3,0z"/>
<path id="rect6" fill="#9C8EA4" d="M3,1h17c1.1,0,2,0.9,2,2v17c0,1.1-0.9,2-2,2H3c-1.1,0-2-0.9-2-2V3C1,1.9,1.9,1,3,1z"/>
<g id="g8" transform="translate(4,4)">
	<path id="path10415" fill="#FFFFFF" d="M3.5,1.8c-0.9,0-0.9,0.9,0,0.9h3.5v0.9C6.8,3.5,6.6,3.7,6.6,4v0.4H4.4H3.5h0
		C3.3,3.6,2.6,3.1,1.8,3.1C0.8,3.1,0,3.9,0,4.9s0.8,1.8,1.8,1.8c0.3,0,0.7-0.1,0.9-0.3l2.2,2.9c0.9,1.3,2.5,1.3,3.1,1.3h4.4
		c0,0,0.9,0,0.9-0.9V8.8c0-0.6-0.1-1-0.4-1.3l-2.6-2.6c0,0-0.5-0.4-1.1-0.4H8.4V4c0-0.2-0.2-0.4-0.4-0.4V2.6h3.5
		c0.9,0,0.9-0.9,0-0.9H3.5z M1.8,4c0.5,0,0.9,0.4,0.9,0.9S2.3,5.7,1.8,5.7S0.9,5.3,0.9,4.9C0.9,4.4,1.3,4,1.8,4z M8.8,5.3
		c0.4,0,0.7,0.3,0.9,0.4l2.2,2.2H8.8c0,0-0.9,0-0.9-0.9V6.2C7.9,6.2,7.9,5.3,8.8,5.3z"/>
</g>
</svg>
