<svg viewBox="-3 -3 21 21" width="21" height="21" data-reactid=".0.1.1.$heliport-15=1svg12.0.0"><rect x="-2" y="-2" rx="1" ry="1" width="19" height="19" stroke="#fff" style="stroke-linejoin:round;stroke-miterlimit:4px;" fill="#fff" stroke-width="2" data-reactid=".0.1.1.$heliport-15=1svg12.0.0.0"></rect><rect x="-2" y="-2" width="19" height="19" rx="1" ry="1" fill="#8363a5" data-reactid=".0.1.1.$heliport-15=1svg12.0.0.1"></rect><path fill="#fff" d="M 3.9999999,2.0000002 C 3,2.0000002 3,3.0000004 3.9999999,3.0000004 l 4.0000001,0 0,1 c -0.277,0 -0.4999999,0.2230002 -0.4999999,0.5 l 0,0.5 -2.5,0 -1.0292969,0 -0.039062,0 C 3.7040624,4.1200634 2.912204,3.5010661 2.0000001,3.5000004 0.89543048,3.5000004 0,4.3954308 0,5.5000005 0,6.6045701 0.89543048,7.5000006 2.0000001,7.5000006 2.3722464,7.499025 2.7368339,7.3941813 3.0527343,7.1972661 L 5.4999999,10.5 C 6.5073676,11.950493 8.3181816,12 9,12 l 5,0 c 0,0 1,0 1,-1 l 0,-0.994141 C 15,9.2734383 14.873989,8.873989 14.5,8.5000007 l -3,-3.0000002 c 0,0 -0.591616,-0.5000001 -1.273439,-0.5000001 l -0.7265608,0 0,-0.5 c 0,-0.2769998 -0.2230002,-0.5 -0.5000002,-0.5 l 0,-1 4,0 c 1,0 1,-1.0000002 0,-1.0000002 l -9.0000001,0 z M 2.0000001,4.5000004 C 2.5522846,4.5000004 3,4.9477157 3,5.5000005 c 0,0.5522848 -0.4477154,1 -0.9999999,1 -0.5522851,0 -1.0000001,-0.4477152 -1.00000018,-1 C 1,4.9477157 1.447715,4.5000004 2.0000001,4.5000004 Z m 8.0000009,1.5000001 c 0.499999,0 0.78956,0.323094 0.999998,0.5 l 2.5,2.5000003 -3.499998,0 c 0,0 -1.000001,0 -1.000001,-1.0000001 L 9,7.0000006 c 0,0 3e-7,-1 1.000001,-1.0000001 z" data-reactid=".0.1.1.$heliport-15=1svg12.0.0.3:$heliport-15=1svg-0-fill"></path></svg>