<svg xmlns="http://www.w3.org/2000/svg" width="20" height="17" viewBox="0 0 20 17"><title>rails-icons</title><path d="M10,16.5h0a10.28,10.28,0,0,1-7.26-2.86A7.29,7.29,0,0,1,.5,8.48c0-4.39,4.26-8,9.48-8h0a10.44,10.44,0,0,1,6.64,2.29A7.38,7.38,0,0,1,19.5,8.52C19.49,12.92,15.23,16.5,10,16.5Z" fill="#fff"/><path d="M10,1.5c4.69,0,8.49,3.15,8.48,7s-3.83,7-8.52,7-8.49-3.15-8.48-7,3.8-7,8.48-7h0Z" fill="#e97475"/><path d="M14.13,13H12.75a2.8,2.8,0,0,0-2.06-2.71V13H9.31V10.32A2.8,2.8,0,0,0,7.25,13H5.87A4.19,4.19,0,0,1,9.31,8.89V8.11A4.19,4.19,0,0,1,5.87,4H7.25A2.8,2.8,0,0,0,9.31,6.68V4h1.38V6.68A2.8,2.8,0,0,0,12.75,4h1.38a4.19,4.19,0,0,1-3.44,4.14V8.89A4.19,4.19,0,0,1,14.13,13Z" fill="#fff"/></svg>