<svg xmlns="http://www.w3.org/2000/svg" width="19" height="19" viewBox="0 0 19 19">
  <title>hospital-11</title>
  <path d="M9.5,1h0A8.5,8.5,0,0,1,18,9.5h0A8.5,8.5,0,0,1,9.5,18h0A8.5,8.5,0,0,1,1,9.5H1A8.5,8.5,0,0,1,9.5,1Z" fill="#fff" stroke="#fff" stroke-linejoin="round" stroke-width="2"/>
  <path d="M9.5,1h0A8.5,8.5,0,0,1,18,9.5h0A8.5,8.5,0,0,1,9.5,18h0A8.5,8.5,0,0,1,1,9.5H1A8.5,8.5,0,0,1,9.5,1Z" fill="#af5858"/>
  <path d="M14,8H11V5a1.08,1.08,0,0,0-1-1H9A1.08,1.08,0,0,0,8,5V8H5A1.08,1.08,0,0,0,4,9v1a1.08,1.08,0,0,0,1,1H8v3a1.08,1.08,0,0,0,1,1h1a1.08,1.08,0,0,0,1-1V11h3a1.08,1.08,0,0,0,1-1V9A1,1,0,0,0,14,8Z" fill="#fff"/>
</svg>
