<?xml version="1.0" encoding="utf-8"?>
<!-- Generator: Adobe Illustrator 17.1.0, SVG Export Plug-In . SVG Version: 6.00 Build 0)  -->
<!DOCTYPE svg PUBLIC "-//W3C//DTD SVG 1.1//EN" "http://www.w3.org/Graphics/SVG/1.1/DTD/svg11.dtd">
<svg version="1.1" id="Layer_1" xmlns="http://www.w3.org/2000/svg" xmlns:xlink="http://www.w3.org/1999/xlink" x="0px" y="0px"
	 width="19px" height="19px" viewBox="0 0 19 19" enable-background="new 0 0 19 19" xml:space="preserve">
<ellipse id="ellipse4" fill="#FFFFFF" cx="9.5" cy="9.5" rx="9.5" ry="9.5"/>
<ellipse id="ellipse6" fill="#B28B8B" cx="9.5" cy="9.5" rx="8.5" ry="8.5"/>
<g id="g8" transform="translate(4,4.5)">
	<path id="path6" inkscape:connector-curvature="0" fill="#FFFFFF" d="M10,3.5H7v-3c0-0.5-0.5-1-1-1H5c-0.5,0-1,0.5-1,1v3H1
		c-0.5,0-1,0.5-1,1v1c0,0.5,0.5,1,1,1h3v3c0,0.5,0.5,1,1,1h1c0.5,0,1-0.5,1-1v-3h3c0.5,0,1-0.5,1-1v-1C11,3.9,10.5,3.5,10,3.5z"/>
</g>
</svg>
