<svg viewBox="-296 189 23 23" width="23" height="23" data-reactid=".0.1.1.$hospital-15=1svg5.0.0"><rect x="-295" y="190" rx="10.5" ry="10.5" width="21" height="21" stroke="#fff" style="stroke-linejoin:round;stroke-miterlimit:4px;" fill="#fff" stroke-width="2" data-reactid=".0.1.1.$hospital-15=1svg5.0.0.0"></rect><rect x="-295" y="190" width="21" height="21" rx="10.5" ry="10.5" fill="#af5858" data-reactid=".0.1.1.$hospital-15=1svg5.0.0.1"></rect><path fill="#fff" d="M-285,194c-0.6,0-1,0.4-1,1v4h-4c-0.6,0-1,0.4-1,1v1c0,0.6,0.4,1,1,1h4v4
	c0,0.6,0.4,1,1,1h1c0.6,0,1-0.4,1-1v-4h4c0.6,0,1-0.4,1-1v-1c0-0.6-0.4-1-1-1h-4v-4c0-0.6-0.4-1-1-1H-285z" data-reactid=".0.1.1.$hospital-15=1svg5.0.0.3:$hospital-15=1svg-0-fill"></path></svg>