<?xml version="1.0" encoding="UTF-8" standalone="no"?>
<svg
   xmlns:dc="http://purl.org/dc/elements/1.1/"
   xmlns:cc="http://creativecommons.org/ns#"
   xmlns:rdf="http://www.w3.org/1999/02/22-rdf-syntax-ns#"
   xmlns:svg="http://www.w3.org/2000/svg"
   xmlns="http://www.w3.org/2000/svg"
   xmlns:sodipodi="http://sodipodi.sourceforge.net/DTD/sodipodi-0.dtd"
   xmlns:inkscape="http://www.inkscape.org/namespaces/inkscape"
   version="1.1"
   id="svg2"
   x="0px"
   y="0px"
   width="19"
   height="19"
   viewBox="0 0 19 19"
   enable-background="new 0 0 20 20"
   xml:space="preserve"
   inkscape:version="0.91 r13725"
   sodipodi:docname="hospital-11.svg"><metadata
     id="metadata12"><rdf:RDF><cc:Work
         rdf:about=""><dc:format>image/svg+xml</dc:format><dc:type
           rdf:resource="http://purl.org/dc/dcmitype/StillImage" /><dc:title></dc:title></cc:Work></rdf:RDF></metadata><defs
     id="defs10" /><sodipodi:namedview
     pagecolor="#ffffff"
     bordercolor="#666666"
     borderopacity="1"
     objecttolerance="10"
     gridtolerance="10"
     guidetolerance="10"
     inkscape:pageopacity="0"
     inkscape:pageshadow="2"
     inkscape:window-width="1207"
     inkscape:window-height="666"
     id="namedview8"
     showgrid="true"
     inkscape:zoom="24.842105"
     inkscape:cx="5.6930546"
     inkscape:cy="9.5"
     inkscape:window-x="169"
     inkscape:window-y="230"
     inkscape:window-maximized="0"
     inkscape:current-layer="svg2"><inkscape:grid
       type="xygrid"
       id="grid4140" /></sodipodi:namedview><ellipse
     id="ellipse4"
     fill="#FFFFFF"
     cx="9.5"
     cy="9.5"
     rx="9.5"
     ry="9.5" /><ellipse
     id="ellipse6"
     fill="#B28B8B"
     cx="9.5"
     cy="9.5"
     rx="8.5"
     ry="8.5" /><g
     id="g8"
     transform="translate(4,4.5)"><path
       d="m 10,3.5 -3,0 0,-3 C 7,0 6.5,-0.5 6,-0.5 l -1,0 c -0.5,0 -1,0.5 -1,1 l 0,3 -3,0 C 0.5,3.5 0,4 0,4.5 l 0,1 c 0,0.5 0.5,1 1,1 l 3,0 0,3 c 0,0.5 0.5,1 1,1 l 1,0 c 0.5,0 1,-0.5 1,-1 l 0,-3 3,0 c 0.5,0 1,-0.5 1,-1 l 0,-1 c 0,-0.6 -0.5,-1 -1,-1 z"
       id="path6"
       inkscape:connector-curvature="0"
       style="fill:#ffffff" /></g></svg>