<?xml version="1.0" encoding="utf-8"?>
<!-- Generator: Adobe Illustrator 17.1.0, SVG Export Plug-In . SVG Version: 6.00 Build 0)  -->
<!DOCTYPE svg PUBLIC "-//W3C//DTD SVG 1.1//EN" "http://www.w3.org/Graphics/SVG/1.1/DTD/svg11.dtd">
<svg version="1.1" id="Layer_1" xmlns="http://www.w3.org/2000/svg" xmlns:xlink="http://www.w3.org/1999/xlink" x="0px" y="0px"
	 width="26px" height="14px" viewBox="0 0 26 14" enable-background="new 0 0 26 14" xml:space="preserve">
<title>hr-state</title>
<g>
	<path fill="#0F58C5" d="M3,0.5h20c1.4,0,2.5,1.1,2.5,2.5v8c0,1.4-1.1,2.5-2.5,2.5H3c-1.4,0-2.5-1.1-2.5-2.5V3
		C0.5,1.6,1.6,0.5,3,0.5z"/>
	<path fill="#FFFFFF" d="M23,1c1.1,0,2,0.9,2,2c0,0,0,0.1,0,0.1v8c0,1-0.8,1.9-1.9,1.9c0,0-0.1,0-0.1,0H3c-1.1,0-2-0.8-2-1.9v-8
		C1,2,1.9,1.1,3,1H23 M23,0H3C1.3,0.1,0,1.4,0,3.1v8C0,12.7,1.4,14,3,14h20c1.6,0.1,2.9-1.2,3-2.8c0,0,0-0.1,0-0.1v-8
		C26,1.4,24.7,0.1,23,0C23.1,0,23,0,23,0L23,0z"/>
</g>
</svg>
