<svg xmlns="http://www.w3.org/2000/svg" width="20" height="20" viewBox="0 0 20 20">
  <title>hu-main</title>
  <rect width="20" height="20" fill="none"/>
  <g>
    <path d="M10,19.5a0.5,0.5,0,0,1-.19,0c-0.05,0-5.39-2.27-7-3A3.43,3.43,0,0,1,.5,13V3A0.5,0.5,0,0,1,1,2.5H19a0.5,0.5,0,0,1,.5.5V13a3.43,3.43,0,0,1-2.29,3.46c-1.62.74-7,3-7,3A0.5,0.5,0,0,1,10,19.5Z" fill="#393"/>
    <path d="M19,3V13a3,3,0,0,1-2,3c-1.63.74-7,3-7,3s-5.37-2.26-7-3a3,3,0,0,1-2-3V3H19m0-1H1A1,1,0,0,0,0,3V13a4,4,0,0,0,2.59,3.91c1.63,0.74,6.81,2.92,7,3a1,1,0,0,0,.77,0c0.22-.09,5.4-2.27,7-3A4,4,0,0,0,20,13V3a1,1,0,0,0-1-1h0Z" fill="#fff"/>
  </g>
</svg>
