<?xml version="1.0" encoding="utf-8"?>
<!-- Generator: Adobe Illustrator 17.1.0, SVG Export Plug-In . SVG Version: 6.00 Build 0)  -->
<!DOCTYPE svg PUBLIC "-//W3C//DTD SVG 1.1//EN" "http://www.w3.org/Graphics/SVG/1.1/DTD/svg11.dtd">
<svg version="1.1" id="Layer_1" xmlns="http://www.w3.org/2000/svg" xmlns:xlink="http://www.w3.org/1999/xlink" x="0px" y="0px"
	 width="19px" height="19px" viewBox="0 0 19 19" enable-background="new 0 0 19 19" xml:space="preserve">
<ellipse id="ellipse4" fill="#FFFFFF" cx="9.5" cy="9.5" rx="9.5" ry="9.5"/>
<ellipse id="ellipse6" fill="#A9A199" cx="9.5" cy="9.5" rx="8.5" ry="8.5"/>
<g id="g8" transform="translate(4,3.5)">
	<path id="rect3349" inkscape:connector-curvature="0" fill="#FFFFFF" d="M5.2,0.5c-0.4,0-0.8,0.3-0.8,0.8S4.8,2,5.2,2h-1
		C3.8,2,3.5,2.3,3.5,2.8s0.3,0.8,0.8,0.8h-1c-0.4,0-0.8,0.3-0.8,0.8S2.8,5,3.2,5h4.5c0.4,0,0.8-0.3,0.8-0.8S8.2,3.5,7.8,3.5h-1
		c0.4,0,0.8-0.3,0.8-0.8S7.2,2,6.8,2h-1c0.4,0,0.8-0.3,0.8-0.8S6.2,0.5,5.8,0.5H5.2z M3,5.5V7h0.5L4,11h3l0.5-4H8V5.5H3z"/>
</g>
</svg>
