<?xml version="1.0" encoding="utf-8"?>
<!-- Generator: Adobe Illustrator 17.1.0, SVG Export Plug-In . SVG Version: 6.00 Build 0)  -->
<!DOCTYPE svg PUBLIC "-//W3C//DTD SVG 1.1//EN" "http://www.w3.org/Graphics/SVG/1.1/DTD/svg11.dtd">
<svg version="1.1" id="Layer_1" xmlns="http://www.w3.org/2000/svg" xmlns:xlink="http://www.w3.org/1999/xlink" x="0px" y="0px"
	 width="23px" height="23px" viewBox="0 0 23 23" enable-background="new 0 0 23 23" xml:space="preserve">
<ellipse id="ellipse4" fill="#FFFFFF" cx="11.5" cy="11.5" rx="11.5" ry="11.5"/>
<ellipse id="ellipse6" fill="#A9A199" cx="11.5" cy="11.5" rx="10.5" ry="10.5"/>
<g id="g8" transform="translate(5,4)">
	<path id="rect3349" fill="#FFFFFF" d="M6.3,0.9c-0.5,0-0.9,0.4-0.9,0.9s0.4,0.9,0.9,0.9H5.1c-0.5,0-0.9,0.4-0.9,0.9
		s0.4,0.9,0.9,0.9H4c-0.5,0-0.9,0.4-0.9,0.9S3.5,6.2,4,6.2h5.3c0.5,0,0.9-0.4,0.9-0.9S9.8,4.4,9.3,4.4H8.1C8.6,4.4,9,4.1,9,3.6
		S8.6,2.7,8.1,2.7H6.9c0.5,0,0.9-0.4,0.9-0.9S7.4,0.9,6.9,0.9H6.3z M3.5,6.6v1.8h0.9l0.9,4.4h2.6l0.9-4.4h0.9V6.6H3.5z"/>
</g>
</svg>
