<svg viewBox="-4 -4 19 19" width="19" height="19" data-reactid=".0.1.1.$ice-cream-11=1svg42.0.0"><rect x="-3" y="-3" rx="8.5" ry="8.5" width="17" height="17" stroke="#fff" style="stroke-linejoin:round;stroke-miterlimit:4px;" fill="#fff" stroke-width="2" data-reactid=".0.1.1.$ice-cream-11=1svg42.0.0.0"></rect><rect x="-3" y="-3" width="17" height="17" rx="8.5" ry="8.5" fill="#7f7874" data-reactid=".0.1.1.$ice-cream-11=1svg42.0.0.1"></rect><path fill="#fff" d="M 5.25 0.5 C 4.8345 0.5 4.5 0.8345 4.5 1.25 C 4.5 1.6655 4.8345 2 5.25 2 L 4.25 2 C 3.8345 2 3.5 2.3345 3.5 2.75 C 3.5 3.1655 3.8345 3.5 4.25 3.5 L 3.25 3.5 C 2.8345 3.5 2.5 3.8345 2.5 4.25 C 2.5 4.6655 2.8345 5 3.25 5 L 7.75 5 C 8.1655 5 8.5 4.6655 8.5 4.25 C 8.5 3.8345 8.1655 3.5 7.75 3.5 L 6.75 3.5 C 7.1655 3.5 7.5 3.1655 7.5 2.75 C 7.5 2.3345 7.1655 2 6.75 2 L 5.75 2 C 6.1655 2 6.5 1.6655 6.5 1.25 C 6.5 0.8345 6.1655 0.5 5.75 0.5 L 5.25 0.5 z M 3 5.5 L 3 7 L 3.5 7 L 4 11 L 7 11 L 7.5 7 L 8 7 L 8 5.5 L 3 5.5 z " data-reactid=".0.1.1.$ice-cream-11=1svg42.0.0.3:$ice-cream-11=1svg-0-fill"></path></svg>