<svg viewBox="-296 189 23 23" width="23" height="23" data-reactid=".0.1.1.$ice-cream-15=1svg43.0.0"><rect x="-295" y="190" rx="10.5" ry="10.5" width="21" height="21" stroke="#fff" style="stroke-linejoin:round;stroke-miterlimit:4px;" fill="#fff" stroke-width="2" data-reactid=".0.1.1.$ice-cream-15=1svg43.0.0.0"></rect><rect x="-295" y="190" width="21" height="21" rx="10.5" ry="10.5" fill="#7f7874" data-reactid=".0.1.1.$ice-cream-15=1svg43.0.0.1"></rect><path fill="#fff" d="M-284.8,194
	c-0.6,0-1,0.4-1,1c0,0.6,0.4,1,1,1h-1.3c-0.6,0-1,0.4-1,1c0,0.6,0.4,1,1,1h-1.3c-0.6,0-1,0.4-1,1c0,0.6,0.4,1,1,1h6c0.6,0,1-0.4,1-1
	c0-0.6-0.4-1-1-1h-1.3c0.6,0,1-0.4,1-1c0-0.6-0.4-1-1-1h-1.3c0.6,0,1-0.4,1-1c0-0.6-0.4-1-1-1H-284.8z M-288,200.5v2h1l1,4.5h3
	l1-4.5h1v-2H-288z" data-reactid=".0.1.1.$ice-cream-15=1svg43.0.0.3:$ice-cream-15=1svg-0-fill"></path></svg>