<?xml version="1.0" encoding="UTF-8" standalone="no"?>
<svg
   xmlns:dc="http://purl.org/dc/elements/1.1/"
   xmlns:cc="http://creativecommons.org/ns#"
   xmlns:rdf="http://www.w3.org/1999/02/22-rdf-syntax-ns#"
   xmlns:svg="http://www.w3.org/2000/svg"
   xmlns="http://www.w3.org/2000/svg"
   xmlns:sodipodi="http://sodipodi.sourceforge.net/DTD/sodipodi-0.dtd"
   xmlns:inkscape="http://www.inkscape.org/namespaces/inkscape"
   id="svg2"
   width="19"
   height="19"
   viewBox="0 0 19 19"
   version="1.1"
   inkscape:version="0.91 r13725"
   sodipodi:docname="ice-cream-11.svg">
  <sodipodi:namedview
     pagecolor="#ffffff"
     bordercolor="#666666"
     borderopacity="1"
     objecttolerance="10"
     gridtolerance="10"
     guidetolerance="10"
     inkscape:pageopacity="0"
     inkscape:pageshadow="2"
     inkscape:window-width="803"
     inkscape:window-height="691"
     id="namedview11"
     showgrid="true"
     inkscape:zoom="24.842105"
     inkscape:cx="9.5"
     inkscape:cy="9.5"
     inkscape:window-x="538"
     inkscape:window-y="279"
     inkscape:window-maximized="0"
     inkscape:current-layer="svg2">
    <inkscape:grid
       type="xygrid"
       id="grid4139" />
  </sodipodi:namedview>
  <metadata
     id="metadata14">
    <rdf:RDF>
      <cc:Work
         rdf:about="">
        <dc:format>image/svg+xml</dc:format>
        <dc:type
           rdf:resource="http://purl.org/dc/dcmitype/StillImage" />
        <dc:title></dc:title>
      </cc:Work>
    </rdf:RDF>
  </metadata>
  <defs
     id="defs12" />
  <ellipse
     id="ellipse4"
     ry="9.5"
     rx="9.5"
     cy="9.5"
     cx="9.5"
     style="fill:#ffffff;stroke:none;" />
  <ellipse
     id="ellipse6"
     rx="8.5"
     ry="8.5"
     cy="9.5"
     cx="9.5"
     style="fill:#a9a199;stroke:none;" />
  <g
     id="g8"
     transform="translate(4,3.5)">
    <metadata
       id="metadata27">
      <rdf:RDF>
        <cc:Work
           rdf:about="">
          <dc:format>image/svg+xml</dc:format>
          <dc:type
             rdf:resource="http://purl.org/dc/dcmitype/StillImage" />
          <dc:title />
        </cc:Work>
      </rdf:RDF>
    </metadata>
    <defs
       id="defs25" />
    <path
       id="rect3349"
       d="M 5.25,0.5 C 4.8345,0.5 4.5,0.8345 4.5,1.25 4.5,1.6655 4.8345,2 5.25,2 l -1,0 C 3.8345,2 3.5,2.3345 3.5,2.75 3.5,3.1655 3.8345,3.5 4.25,3.5 l -1,0 C 2.8345,3.5 2.5,3.8345 2.5,4.25 2.5,4.6655 2.8345,5 3.25,5 l 4.5,0 C 8.1655,5 8.5,4.6655 8.5,4.25 8.5,3.8345 8.1655,3.5 7.75,3.5 l -1,0 C 7.1655,3.5 7.5,3.1655 7.5,2.75 7.5,2.3345 7.1655,2 6.75,2 l -1,0 C 6.1655,2 6.5,1.6655 6.5,1.25 6.5,0.8345 6.1655,0.5 5.75,0.5 l -0.5,0 z M 3,5.5 3,7 3.5,7 4,11 7,11 7.5,7 8,7 8,5.5 3,5.5 Z"
       style="opacity:1;fill:#ffffff;fill-opacity:1;stroke:none;stroke-width:1;stroke-linecap:round;stroke-linejoin:miter;stroke-miterlimit:4;stroke-dasharray:none;stroke-dashoffset:0;stroke-opacity:1"
       inkscape:connector-curvature="0" />
  </g>
</svg>
