<?xml version="1.0" encoding="utf-8"?>
<!-- Generator: Adobe Illustrator 17.1.0, SVG Export Plug-In . SVG Version: 6.00 Build 0)  -->
<!DOCTYPE svg PUBLIC "-//W3C//DTD SVG 1.1//EN" "http://www.w3.org/Graphics/SVG/1.1/DTD/svg11.dtd">
<svg version="1.1" xmlns="http://www.w3.org/2000/svg" xmlns:xlink="http://www.w3.org/1999/xlink" x="0px" y="0px" width="23px"
	 height="22px" viewBox="0 0 23 22" enable-background="new 0 0 23 22" xml:space="preserve">
<g id="shields">
	<rect y="2.7" fill="#3A3836" width="1" height="2"/>
	<g id="path4616_4_">
		<path fill="#F0CA64" d="M11.4,21.5c-3.8-0.7-10.9-4.2-10.9-12V3c0-0.3,0.2-0.5,0.5-0.5h21c0.3,0,0.5,0.2,0.5,0.5v6.5
			c0.1,7.5-8,11.4-10.9,12C11.6,21.5,11.5,21.5,11.4,21.5C11.5,21.5,11.4,21.5,11.4,21.5z"/>
		<path fill="#3A3836" d="M22,3v6.5c0.1,7.6-8.4,11.1-10.5,11.5C9.3,20.6,1,17.9,1,9.5V3H22 M22,2H1C0.4,2,0,2.4,0,3v6.5
			C0,17.7,7.4,21.2,11.3,22c0.1,0,0.1,0,0.2,0c0.1,0,0.1,0,0.2,0c1.3-0.3,4.1-1.3,6.5-3.3C21.4,16.2,23,13,23,9.5L23,3
			C23,2.4,22.6,2,22,2L22,2z"/>
	</g>
	<path id="path5547_3_" fill="none" stroke="#3A3836" stroke-linejoin="round" d="M0,3.5h23"/>
	<rect y="2" fill="#F0CA64" width="23" height="2"/>
	<path id="path4616_1_" fill="#F0CA64" stroke="#3A3836" stroke-linejoin="round" d="M0,2.5h2h6c1.1,0,2.2-0.7,3-1.5
		c0.8,0.7,1.9,1.5,3,1.5h6h3"/>
	<rect y="2.7" fill="#3A3836" width="1" height="2"/>
	<rect x="22" y="2.7" fill="#3A3836" width="1" height="2"/>
</g>
<g id="ref" display="none">
	<rect x="-1" y="7.8" display="inline" fill="none" width="24" height="6.5"/>
	<text transform="matrix(1 0 0 1 3.4276 14.1634)" display="inline" fill="#3A3836" font-family="'DINOffcPro-Bold'" font-size="9">45D</text>
</g>
<g id="ref_outlines" display="none">
	<g display="inline">
		<path fill="#3A3836" d="M6.8,14.2h-1l-1.2-3.9l-1.2,3.9h-1L0.7,7.8H2l1,4l1.2-4h0.9l1.2,4l1-4h1.3L6.8,14.2z"/>
		<path fill="#3A3836" d="M14.8,14.2h-1l-1.2-3.9l-1.2,3.9h-1L8.7,7.8H10l1,4l1.2-4h0.9l1.2,4l1-4h1.3L14.8,14.2z"/>
		<path fill="#3A3836" d="M20.6,13.3v0.9h-1.1v-0.9h-2.6v-1.1l2.2-4.4h1.3l-2.2,4.4h1.3V11h1.1v1.2h0.6v1.1H20.6z"/>
	</g>
</g>
</svg>
