<svg xmlns="http://www.w3.org/2000/svg" width="24" height="22" viewBox="0 0 24 22">
  <title>in-national</title>
  <g>
    <path d="M12,21.5C9.88,21.5.5,17.49,0.5,13V3A0.5,0.5,0,0,1,1,2.5H9c0.85,0,1.91-1,2.63-1.84A0.5,0.5,0,0,1,12,.5h0a0.5,0.5,0,0,1,.37.16c0.89,1,1.76,1.84,2.63,1.84h8a0.5,0.5,0,0,1,.5.5V13C23.5,17.49,14.12,21.5,12,21.5Z" fill="#f0ca64"/>
    <path d="M12,1c1,1,1.92,2,3,2h8V13c0,4-9,8-11,8S1,17,1,13V3H9c1,0,2.08-1,3-2m0-1h0a1,1,0,0,0-.74.32C10,1.71,9.33,2,9,2H1A1,1,0,0,0,0,3V13c0,4.83,9.72,9,12,9s12-4.13,12-9V3a1,1,0,0,0-1-1H15c-0.67,0-1.48-.83-2.26-1.68A1,1,0,0,0,12,0h0Z" fill="#3a3836"/>
  </g>
</svg>
