<svg xmlns="http://www.w3.org/2000/svg" width="20" height="22" viewBox="0 0 20 22">
  <title>in-national</title>
  <g>
    <path d="M10,21.5C7.87,21.5.5,17.4,0.5,13V3A0.5,0.5,0,0,1,1,2.5H7c0.85,0,1.91-1,2.63-1.84A0.5,0.5,0,0,1,10,.5h0a0.5,0.5,0,0,1,.37.16c0.89,1,1.76,1.84,2.63,1.84h6a0.5,0.5,0,0,1,.5.5V13C19.5,17.4,12.13,21.5,10,21.5Z" fill="#f0ca64"/>
    <path d="M10,1c1,1,1.92,2,3,2h6V13c0,4-7,8-9,8s-9-4-9-8V3H7c1,0,2.08-1,3-2m0-1h0a1,1,0,0,0-.74.32C8,1.71,7.33,2,7,2H1A1,1,0,0,0,0,3V13c0,2.78,2.59,5.13,4.14,6.28C6.21,20.87,8.68,22,10,22s3.74-1.13,5.83-2.68C17.39,18.17,20,15.81,20,13V3a1,1,0,0,0-1-1H13c-0.67,0-1.48-.83-2.26-1.68A1,1,0,0,0,10,0h0Z" fill="#3a3836"/>
  </g>
</svg>
