<svg xmlns="http://www.w3.org/2000/svg" width="16" height="22" viewBox="0 0 16 22">
  <title>in-national</title>
  <g>
    <path d="M8,21.5C5.64,21.5.5,17.25,0.5,13V3A0.5,0.5,0,0,1,1,2.5H5c0.85,0,1.91-1,2.63-1.84A0.5,0.5,0,0,1,8,.5H8a0.5,0.5,0,0,1,.37.16C9.26,1.63,10.13,2.5,11,2.5h4a0.5,0.5,0,0,1,.5.5V13C15.5,17.25,10.36,21.5,8,21.5Z" fill="#f0ca64"/>
    <path d="M8,1c1,1,1.92,2,3,2h4V13c0,4-5,8-7,8s-7-4-7-8V3H5C6,3,7.08,2,8,1M8,0H8a1,1,0,0,0-.74.32C6,1.71,5.33,2,5,2H1A1,1,0,0,0,0,3V13c0,4.35,5.2,9,8,9,2.5,0,8-4.33,8-9V3a1,1,0,0,0-1-1H11C10.33,2,9.52,1.17,8.74.32A1,1,0,0,0,8,0H8Z" fill="#3a3836"/>
  </g>
</svg>
