<?xml version="1.0" encoding="utf-8"?>
<!-- Generator: Adobe Illustrator 17.1.0, SVG Export Plug-In . SVG Version: 6.00 Build 0)  -->
<!DOCTYPE svg PUBLIC "-//W3C//DTD SVG 1.1//EN" "http://www.w3.org/Graphics/SVG/1.1/DTD/svg11.dtd">
<svg version="1.1" xmlns="http://www.w3.org/2000/svg" xmlns:xlink="http://www.w3.org/1999/xlink" x="0px" y="0px" width="18px"
	 height="22px" viewBox="0 0 18 22" enable-background="new 0 0 18 22" xml:space="preserve">
<g id="shields">
	<g id="path4616_3_">
		<path fill="#F0CA64" d="M9,21.5c0,0-0.1,0-0.1,0c-2.9-0.7-8.4-4.2-8.4-12V3c0-0.3,0.2-0.5,0.5-0.5h16c0.3,0,0.5,0.2,0.5,0.5v6.5
			c0.1,7.4-6.1,11.4-8.4,12C9.1,21.5,9,21.5,9,21.5z"/>
		<path fill="#3A3836" d="M17,3v6.5c0.1,7.6-6.4,11.1-8,11.5c-1.7-0.4-8-3.1-8-11.5V3H17 M17,2H1C0.4,2,0,2.4,0,3v6.5
			c0,3.8,1.3,7.1,3.7,9.5c2.2,2.2,4.6,2.9,5.1,3c0.1,0,0.2,0,0.2,0c0.1,0,0.2,0,0.3,0c1.8-0.5,8.8-4.1,8.7-12.5L18,3
			C18,2.4,17.6,2,17,2L17,2z"/>
	</g>
	<path id="path5547_2_" fill="none" stroke="#3A3836" stroke-linejoin="round" d="M0,3.5h18"/>
	<rect y="2" fill="#F0CA64" width="18" height="2"/>
	<path id="path4616_5_" fill="#F0CA64" stroke="#3A3836" stroke-linejoin="round" d="M0,2.5h6c1.1,0,2.2-0.7,3-1.5
		c0.8,0.7,1.9,1.5,3,1.5h6"/>
	<rect y="2.7" fill="#3A3836" width="1" height="2"/>
	<rect x="17" y="2.7" fill="#3A3836" width="1" height="2"/>
</g>
<g id="ref" display="none">
	<rect y="7.8" display="inline" fill="none" width="18" height="6.5"/>
	<text transform="matrix(1 0 0 1 3.6794 14.1634)" display="inline" fill="#3A3836" font-family="'DINOffcPro-Bold'" font-size="9">2D</text>
</g>
<g id="ref_outlines" display="none">
	<g display="inline">
		<path fill="#3A3836" d="M8.8,14.2h-1l-1.2-3.9l-1.2,3.9h-1L2.6,7.8h1.3l1,4l1.2-4H7l1.2,4l1-4h1.3L8.8,14.2z"/>
		<path fill="#3A3836" d="M14.6,13.3v0.9h-1.1v-0.9h-2.6v-1.1L13,7.8h1.3l-2.2,4.4h1.3V11h1.1v1.2h0.6v1.1H14.6z"/>
	</g>
</g>
</svg>
