<svg xmlns="http://www.w3.org/2000/svg" width="20" height="22" viewBox="0 0 20 22">
  <title>in-state</title>
  <rect x="-3" y="1" width="26" height="20" fill="none"/>
  <rect width="20" height="22" fill="none"/>
  <path d="M7,18c1,0,2.43.12,3,1,0.57-.88,2-1,3-1s5.17,0,5.75-3C19.43,11.47,18,10,18,8c0-2.94,1-4.06,1-5L17,1a7.34,7.34,0,0,1-3.5,1A7,7,0,0,1,10,1,7.12,7.12,0,0,1,6.5,2,6.74,6.74,0,0,1,3,1L1,3C1,4,2,5,2,8c0,2-1.35,3.44-.75,7C1.75,18,5.89,18,7,18Z" fill="#fff"/>
  <path d="M13.5,2A7,7,0,0,1,10,1,7.12,7.12,0,0,1,6.5,2,6.74,6.74,0,0,1,3,1L1,3a8.06,8.06,0,0,0,.57,2H18.43A9.05,9.05,0,0,0,19,3L17,1A7.34,7.34,0,0,1,13.5,2Z" fill="#393"/>
  <path d="M17,1l2,2c0,0.94-1,2.06-1,5,0,2,1.43,3.47.75,7-0.57,3-4.56,3-5.67,3H13c-1,0-2.43.12-3,1-0.57-.88-2-1-3-1s-5.25,0-5.75-3C0.65,11.44,2,10,2,8,2,5,1,4,1,3L3,1A6.74,6.74,0,0,0,6.5,2,7.12,7.12,0,0,0,10,1a7,7,0,0,0,3.5,1A7.34,7.34,0,0,0,17,1m0-1a1,1,0,0,0-.5.13,6.41,6.41,0,0,1-3,.87,6,6,0,0,1-3-.85,1,1,0,0,0-1,0A6.14,6.14,0,0,1,6.5,1a5.71,5.71,0,0,1-3-.85A1,1,0,0,0,2.29.29l-2,2A1,1,0,0,0,0,3,4.49,4.49,0,0,0,.37,4.57,8.84,8.84,0,0,1,1,8,7,7,0,0,1,.64,9.9a10.8,10.8,0,0,0-.38,5.26C0.51,16.6,1.7,19,7,19c1.58,0,2,.34,2.16.54a1,1,0,0,0,1.68,0C11,19.34,11.43,19,13,19h0.08c5.15,0,6.37-2.39,6.65-3.81a10.3,10.3,0,0,0-.37-5.36A6.64,6.64,0,0,1,19,8a9.23,9.23,0,0,1,.64-3.5A4.4,4.4,0,0,0,20,3a1,1,0,0,0-.29-0.71l-2-2A1,1,0,0,0,17,0h0Z" fill="#3a3836"/>
</svg>
