<svg viewBox="-298 191 19 19" width="19" height="19" data-reactid=".0.1.1.$information-11=1svg44.0.0"><rect x="-297" y="192" rx="8.5" ry="8.5" width="17" height="17" stroke="#fff" style="stroke-linejoin:round;stroke-miterlimit:4px;" fill="#fff" stroke-width="2" data-reactid=".0.1.1.$information-11=1svg44.0.0.0"></rect><rect x="-297" y="192" width="17" height="17" rx="8.5" ry="8.5" fill="#7f7874" data-reactid=".0.1.1.$information-11=1svg44.0.0.1"></rect><path fill="#fff" d="M-288.4,196
	c-0.6,0-1.1,0.5-1.1,1.1s0.5,1.1,1.1,1.1s1.1-0.5,1.1-1.1S-287.8,196-288.4,196z M-291,199v0.8c0,0,1.5,0,1.5,1.5v1.5
	c0,1.5-1.5,1.5-1.5,1.5v0.8h5.2v-0.8c0,0-1.2,0-1.2-1.5V200c0,0,0-1-1-1H-291z" data-reactid=".0.1.1.$information-11=1svg44.0.0.3:$information-11=1svg-0-fill"></path></svg>