<svg viewBox="-296 189 23 23" width="23" height="23" data-reactid=".0.1.1.$information-15=1svg45.0.0"><rect x="-295" y="190" rx="10.5" ry="10.5" width="21" height="21" stroke="#fff" style="stroke-linejoin:round;stroke-miterlimit:4px;" fill="#fff" stroke-width="2" data-reactid=".0.1.1.$information-15=1svg45.0.0.0"></rect><rect x="-295" y="190" width="21" height="21" rx="10.5" ry="10.5" fill="#7f7874" data-reactid=".0.1.1.$information-15=1svg45.0.0.1"></rect><path fill="#fff" d="M-284.5,194
	c-0.8,0-1.5,0.7-1.5,1.5s0.7,1.5,1.5,1.5s1.5-0.7,1.5-1.5S-283.7,194-284.5,194z M-288,198v1c0,0,2,0,2,2v2c0,2-2,2-2,2v1h7v-1
	c0,0-2,0-2-2v-4c0-0.5-0.5-1-1-1H-288z" data-reactid=".0.1.1.$information-15=1svg45.0.0.3:$information-15=1svg-0-fill"></path></svg>