<?xml version="1.0" encoding="utf-8"?>
<!-- Generator: Adobe Illustrator 17.1.0, SVG Export Plug-In . SVG Version: 6.00 Build 0)  -->
<!DOCTYPE svg PUBLIC "-//W3C//DTD SVG 1.1//EN" "http://www.w3.org/Graphics/SVG/1.1/DTD/svg11.dtd">
<svg version="1.1"
	 id="svg2" xmlns:svg="http://www.w3.org/2000/svg" xmlns:cc="http://creativecommons.org/ns#" xmlns:dc="http://purl.org/dc/elements/1.1/" xmlns:rdf="http://www.w3.org/1999/02/22-rdf-syntax-ns#"
	 xmlns="http://www.w3.org/2000/svg" xmlns:xlink="http://www.w3.org/1999/xlink" x="0px" y="0px" width="23px" height="23px"
	 viewBox="0 0 23 23" enable-background="new 0 0 23 23" xml:space="preserve">
<ellipse id="ellipse4" fill="#FFFFFF" cx="11.5" cy="11.5" rx="11.5" ry="11.5"/>
<ellipse id="ellipse6" fill="#A9A199" cx="11.5" cy="11.5" rx="10.5" ry="10.5"/>
<g id="g8" transform="translate(5,4.5)">
	<path id="path3291-2" fill="#FFFFFF" d="M11.5,0.8H6.2L4,3.5H1.8v8.8h9.7V0.8z M6.6,1.8h1.3v1.3H6.6V1.8z M8.8,1.8h1.3v1.3H8.8V1.8
		z M6.6,4.4c1.9,0,3.5,1.6,3.5,3.5s-1.6,3.5-3.5,3.5S3.1,9.9,3.1,7.9S4.7,4.4,6.6,4.4z M4,7.9c0,1.5,1.2,2.6,2.6,2.6
		s2.6-1.2,2.6-2.6C7.8,7.9,6.2,7.9,4,7.9z"/>
</g>
</svg>
