<svg viewBox="-4 -4 19 19" width="19" height="19" data-reactid=".0.1.1.$laundry-11=1svg46.0.0"><rect x="-3" y="-3" rx="8.5" ry="8.5" width="17" height="17" stroke="#fff" style="stroke-linejoin:round;stroke-miterlimit:4px;" fill="#fff" stroke-width="2" data-reactid=".0.1.1.$laundry-11=1svg46.0.0.0"></rect><rect x="-3" y="-3" width="17" height="17" rx="8.5" ry="8.5" fill="#7f7874" data-reactid=".0.1.1.$laundry-11=1svg46.0.0.1"></rect><path fill="#fff" d="M 5 0 L 4 2 L 2 2 C 2 2 1 2 1 3 L 1 10 C 1 10 1 11 2 11 L 9 11 C 10 11 10 10 10 10 L 10 1 C 10 0 9 0 9 0 L 5 0 z M 6 1 L 9 1 L 9 2 L 6 2 L 6 1 z M 5.5 4 A 2.5 2.5 0 0 1 8 6.5 A 2.5 2.5 0 0 1 5.5 9 A 2.5 2.5 0 0 1 3 6.5 A 2.5 2.5 0 0 1 5.5 4 z " data-reactid=".0.1.1.$laundry-11=1svg46.0.0.3:$laundry-11=1svg-0-fill"></path></svg>