<svg viewBox="-4 -4 23 23" width="23" height="23" data-reactid=".0.1.1.$laundry-15=1svg47.0.0"><rect x="-3" y="-3" rx="10.5" ry="10.5" width="21" height="21" stroke="#fff" style="stroke-linejoin:round;stroke-miterlimit:4px;" fill="#fff" stroke-width="2" data-reactid=".0.1.1.$laundry-15=1svg47.0.0.0"></rect><rect x="-3" y="-3" width="21" height="21" rx="10.5" ry="10.5" fill="#7f7874" data-reactid=".0.1.1.$laundry-15=1svg47.0.0.1"></rect><path fill="#fff" d="m 8,1.0000001 -2,2 -3,0 c 0,0 -1,0 -1,1 L 2,13 c 0,1 1,1 1,1 l 9,0 c 0,0 1,0 1,-1 L 13,2.0000001 c 0,-1.0000001 -1,-1 -1,-1 l -4,0 z m 0.5,1 2,0 c 0.277,0 0.5,0.223 0.5,0.5 0,0.277 -0.223,0.5 -0.5,0.5 l -2,0 c -0.277,0 -0.5,-0.223 -0.5,-0.5 0,-0.277 0.223,-0.5 0.5,-0.5 z m -1,4 c 1.6568543,0 3,1.3431458 3,2.9999999 0,1.656854 -1.3431457,3 -3,3 -1.6568543,0 -3,-1.343146 -3,-3 0,-1.6568541 1.3431457,-2.9999999 3,-2.9999999 z" data-reactid=".0.1.1.$laundry-15=1svg47.0.0.3:$laundry-15=1svg-0-fill"></path></svg>