<?xml version="1.0" encoding="utf-8"?>
<!-- Generator: Adobe Illustrator 17.1.0, SVG Export Plug-In . SVG Version: 6.00 Build 0)  -->
<!DOCTYPE svg PUBLIC "-//W3C//DTD SVG 1.1//EN" "http://www.w3.org/Graphics/SVG/1.1/DTD/svg11.dtd">
<svg version="1.1"
	 id="svg2" xmlns:svg="http://www.w3.org/2000/svg" xmlns:cc="http://creativecommons.org/ns#" xmlns:dc="http://purl.org/dc/elements/1.1/" xmlns:rdf="http://www.w3.org/1999/02/22-rdf-syntax-ns#"
	 xmlns="http://www.w3.org/2000/svg" xmlns:xlink="http://www.w3.org/1999/xlink" x="0px" y="0px" width="19px" height="19px"
	 viewBox="0 0 19 19" enable-background="new 0 0 19 19" xml:space="preserve">
<ellipse id="ellipse4" fill="#FFFFFF" cx="9.5" cy="9.5" rx="9.5" ry="9.5"/>
<ellipse id="ellipse6" fill="#A9A199" cx="9.5" cy="9.5" rx="8.5" ry="8.5"/>
<g id="g8" transform="translate(4,4)">
	<path id="path6122" fill="#FFFFFF" d="M0.3,1.6C0,1.6,0,2,0,2v5.5c0,0,0,0.5,0.5,0.6l4,1.1l0,0c0,0.4,0.3,0.8,0.8,0.8h0.5
		c0.4,0,0.8-0.3,0.8-0.8l0,0l4-1.1C11,8,11,7.5,11,7.5V2c0,0,0-0.5-0.5-0.4L5.5,3l-5-1.4C0.4,1.6,0.4,1.6,0.3,1.6z M1,2.5l4.2,1.2
		v4.8L1,7.3V2.5z M10,2.5v4.8L5.8,8.4V3.7L10,2.5z M2,4v0.5L4,5V4.5L2,4z M9,4L7,4.5V5l2-0.5V4z M2,5.5V6l2,0.5V6L2,5.5z M9,5.5L7,6
		v0.5L9,6V5.5z"/>
</g>
</svg>
