<?xml version="1.0" encoding="utf-8"?>
<!-- Generator: Adobe Illustrator 17.1.0, SVG Export Plug-In . SVG Version: 6.00 Build 0)  -->
<!DOCTYPE svg PUBLIC "-//W3C//DTD SVG 1.1//EN" "http://www.w3.org/Graphics/SVG/1.1/DTD/svg11.dtd">
<svg version="1.1"
	 id="svg2" xmlns:svg="http://www.w3.org/2000/svg" xmlns:cc="http://creativecommons.org/ns#" xmlns:dc="http://purl.org/dc/elements/1.1/" xmlns:rdf="http://www.w3.org/1999/02/22-rdf-syntax-ns#"
	 xmlns="http://www.w3.org/2000/svg" xmlns:xlink="http://www.w3.org/1999/xlink" x="0px" y="0px" width="23px" height="23px"
	 viewBox="0 0 23 23" enable-background="new 0 0 23 23" xml:space="preserve">
<ellipse id="ellipse4" fill="#FFFFFF" cx="11.5" cy="11.5" rx="11.5" ry="11.5"/>
<ellipse id="ellipse6" fill="#A9A199" cx="11.5" cy="11.5" rx="10.5" ry="10.5"/>
<g id="g8" transform="translate(5,5)">
	<path id="rect5810" fill="#FFFFFF" d="M0.4,2.5C0,2.5,0,2.9,0,2.9v6.6c0,0,0,0.6,0.6,0.8l4.7,1.3v0.2c0,0.3,0.2,0.6,0.6,0.6h1.5
		c0.3,0,0.6-0.2,0.6-0.6v-0.2l4.7-1.3c0.6-0.2,0.6-0.8,0.6-0.8V2.9c0,0,0-0.6-0.6-0.4l-6,1.6l-6-1.6C0.5,2.5,0.5,2.5,0.4,2.5z
		 M0.9,3.5l5.3,1.4v5.7L0.9,9.3V3.5z M12.4,3.5v5.7l-5.3,1.4V4.9L12.4,3.5z M2.2,5v0.4L4.4,6V5.6L2.2,5z M11,5L8.4,5.7v0.4L11,5.5V5
		z M2.2,5.9v0.4L4.8,7V6.6C4.9,6.6,2.2,5.9,2.2,5.9z M11,5.9L8.4,6.6V7L11,6.4V5.9z M2.2,6.8v0.4l1.3,0.4V7.1L2.2,6.8z M10.1,7
		L8.4,7.5v0.4l1.8-0.5L10.1,7L10.1,7z M2.2,7.7v0.4l2.6,0.7V8.4C4.9,8.4,2.2,7.7,2.2,7.7z M11,7.7L8.4,8.4v0.4L11,8.1V7.7z"/>
</g>
</svg>
