<svg viewBox="-4 -4 19 19" width="19" height="19" data-reactid=".0.1.1.$library-11=1svg48.0.0"><rect x="-3" y="-3" rx="8.5" ry="8.5" width="17" height="17" stroke="#fff" style="stroke-linejoin:round;stroke-miterlimit:4px;" fill="#fff" stroke-width="2" data-reactid=".0.1.1.$library-11=1svg48.0.0.0"></rect><rect x="-3" y="-3" width="17" height="17" rx="8.5" ry="8.5" fill="#7f7874" data-reactid=".0.1.1.$library-11=1svg48.0.0.1"></rect><path fill="#fff" d="M 0.3359375 1.6132812 C 0.0009765625 1.6176312 0 2 0 2 L 0 7.5 C 0 7.5 -0.01418 8.000754 0.5 8.140625 L 4.5039062 9.2285156 C 4.5036846 9.2360509 4.5 9.2424091 4.5 9.25 C 4.5 9.6655 4.8345 10 5.25 10 L 5.75 10 C 6.1655 10 6.5 9.6655 6.5 9.25 C 6.5 9.2424091 6.4963155 9.2360509 6.4960938 9.2285156 L 10.5 8.140625 C 11.01418 8.000754 11 7.5 11 7.5 L 11 2 C 11 2 11 1.5003547 10.5 1.6367188 L 5.5 3 L 0.5 1.6367188 C 0.4375 1.6196732 0.38378906 1.6126599 0.3359375 1.6132812 z M 1 2.5 L 5.25 3.6582031 L 5.25 8.4316406 L 1 7.2734375 L 1 2.5 z M 10 2.5 L 10 7.2734375 L 5.75 8.4316406 L 5.75 3.6582031 L 10 2.5 z M 2 3.9550781 L 2 4.4550781 L 4 5 L 4 4.5 L 2 3.9550781 z M 9 3.9550781 L 7 4.5 L 7 5 L 9 4.4550781 L 9 3.9550781 z M 2 5.5 L 2 6 L 4 6.5449219 L 4 6.0449219 L 2 5.5 z M 9 5.5 L 7 6.0449219 L 7 6.5449219 L 9 6 L 9 5.5 z " data-reactid=".0.1.1.$library-11=1svg48.0.0.3:$library-11=1svg-0-fill"></path></svg>