<?xml version="1.0" encoding="utf-8"?>
<!-- Generator: Adobe Illustrator 17.1.0, SVG Export Plug-In . SVG Version: 6.00 Build 0)  -->
<!DOCTYPE svg PUBLIC "-//W3C//DTD SVG 1.1//EN" "http://www.w3.org/Graphics/SVG/1.1/DTD/svg11.dtd">
<svg version="1.1"
	 id="svg4764" xmlns:svg="http://www.w3.org/2000/svg" xmlns:cc="http://creativecommons.org/ns#" xmlns:dc="http://purl.org/dc/elements/1.1/" xmlns:rdf="http://www.w3.org/1999/02/22-rdf-syntax-ns#" sodipodi:docname="light-11.svg" inkscape:version="0.91+devel+osxmenu r12911" xmlns:inkscape="http://www.inkscape.org/namespaces/inkscape" xmlns:sodipodi="http://sodipodi.sourceforge.net/DTD/sodipodi-0.dtd"
	 xmlns="http://www.w3.org/2000/svg" xmlns:xlink="http://www.w3.org/1999/xlink" x="0px" y="0px" width="17px" height="17px"
	 viewBox="0 0 17 17" enable-background="new 0 0 17 17" xml:space="preserve">
<sodipodi:namedview  fit-margin-bottom="0" inkscape:window-width="960" inkscape:window-height="1025" inkscape:snap-nodes="true" fit-margin-right="0" inkscape:snap-bbox-edge-midpoints="true" inkscape:window-x="80" inkscape:bbox-nodes="true" inkscape:snap-bbox="true" inkscape:object-nodes="true" inkscape:object-paths="true" inkscape:pageopacity="0.0" inkscape:guide-bbox="true" inkscape:document-units="px" inkscape:pageshadow="2" inkscape:current-layer="layer1" inkscape:window-y="23" inkscape:bbox-paths="true" inkscape:window-maximized="0" showgrid="true" pagecolor="#ffffff" bordercolor="#666666" id="base" showguides="false" inkscape:cy="6.7160366" inkscape:zoom="16" borderopacity="1.0" inkscape:cx="-0.3036093" fit-margin-left="0" fit-margin-top="0">
	
		<inkscape:grid  type="xygrid" color="#ff00ff" snapvisiblegridlinesonly="true" opacity="0.1254902" empspacing="2" id="grid4772" empopacity="0.25098039" originy="-0.93755378" empcolor="#ff00ff" enabled="true" visible="true" originx="-0.9999999">
		</inkscape:grid>
	<sodipodi:guide  orientation="0,1" id="guide4789" position="1.0000001,11.062447"></sodipodi:guide>
	<sodipodi:guide  orientation="1,0" id="guide4791" position="11.000001,9.0624466"></sodipodi:guide>
	<sodipodi:guide  orientation="0,1" id="guide4793" position="8.9999997,-0.93755378"></sodipodi:guide>
	<sodipodi:guide  orientation="1,0" id="guide4795" position="-0.9999999,8.0624466"></sodipodi:guide>
	<sodipodi:guide  orientation="0,1" id="guide4797" position="4.0000001,10.062447"></sodipodi:guide>
	<sodipodi:guide  orientation="1,0" id="guide4799" position="10.000001,6.0624463"></sodipodi:guide>
	<sodipodi:guide  orientation="0,1" id="guide4801" position="7.9999997,1.0624462"></sodipodi:guide>
	<sodipodi:guide  orientation="1,0" id="guide4803" position="1.0000001,4.0624463"></sodipodi:guide>
</sodipodi:namedview>
<g>
	<path fill="#FFFFFF" d="M14.1,0H2.9C1.3,0,0,1.3,0,2.9v11.1C0,15.7,1.3,17,2.9,17h11.1c1.6,0,2.9-1.3,2.9-2.9V2.9
		C17,1.3,15.7,0,14.1,0z M16,14.1c0,1.1-0.9,1.9-1.9,1.9H2.9C1.9,16,1,15.1,1,14.1V2.9C1,1.9,1.9,1,2.9,1h11.1C15.1,1,16,1.9,16,2.9
		V14.1z"/>
	<circle fill="#9C8EA4" cx="8.5" cy="9.4" r="0.5"/>
	<path fill="#9C8EA4" d="M14.1,1H2.9C1.9,1,1,1.9,1,2.9v11.1C1,15.1,1.9,16,2.9,16h11.1c1.1,0,1.9-0.9,1.9-1.9V2.9
		C16,1.9,15.1,1,14.1,1z M6,5.9c0-1,1-1,1-1l1,0v-1H7c-0.5,0-0.5-0.5-0.5-0.5s0-0.5,0.5-0.5h3c0.5,0,0.5,0.5,0.5,0.5s0,0.5-0.5,0.5
		H9v1h1c0,0,1,0,1,1v3c0,2-2,2-2,2H8c0,0-2,0-2-2V5.9z M10.5,13.9l-0.3-1H6.8l-0.3,1H5l0.8-2.5h1.5l-0.2,0.5h2.7l-0.2-0.5h1.5
		l0.8,2.5H10.5z"/>
	<polygon fill="#9C8EA4" points="10,7.9 10,6.4 8.5,5.9 7,6.4 7,7.9 8.5,7.9 	"/>
	<polygon fill="#FFFFFF" points="9.7,11.4 9.8,11.9 7.2,11.9 7.3,11.4 5.8,11.4 5,13.9 6.5,13.9 6.8,12.9 10.2,12.9 10.5,13.9 
		12,13.9 11.2,11.4 	"/>
	<path fill="#FFFFFF" d="M8,10.9h1c0,0,2,0,2-2v-3c0-1-1-1-1-1H9v-1h1c0.5,0,0.5-0.5,0.5-0.5s0-0.5-0.5-0.5H7
		c-0.5,0-0.5,0.5-0.5,0.5s0,0.5,0.5,0.5h1v1l-1,0c0,0-1,0-1,1v3C6,10.9,8,10.9,8,10.9z M8.5,9.9C8.2,9.9,8,9.7,8,9.4
		s0.2-0.5,0.5-0.5S9,9.2,9,9.4S8.8,9.9,8.5,9.9z M7,6.4l1.5-0.5L10,6.4v1.5H8.5H7V6.4z"/>
</g>
</svg>
