<?xml version="1.0" encoding="utf-8"?>
<!-- Generator: Adobe Illustrator 17.1.0, SVG Export Plug-In . SVG Version: 6.00 Build 0)  -->
<!DOCTYPE svg PUBLIC "-//W3C//DTD SVG 1.1//EN" "http://www.w3.org/Graphics/SVG/1.1/DTD/svg11.dtd">
<svg version="1.1"
	 id="svg2" xmlns:svg="http://www.w3.org/2000/svg" xmlns:cc="http://creativecommons.org/ns#" xmlns:dc="http://purl.org/dc/elements/1.1/" xmlns:rdf="http://www.w3.org/1999/02/22-rdf-syntax-ns#"
	 xmlns="http://www.w3.org/2000/svg" xmlns:xlink="http://www.w3.org/1999/xlink" x="0px" y="0px" width="23px" height="23px"
	 viewBox="0 0 23 23" enable-background="new 0 0 23 23" xml:space="preserve">
<ellipse id="ellipse4" fill="#FFFFFF" cx="11.5" cy="11.5" rx="11.5" ry="11.5"/>
<ellipse id="ellipse6" fill="#A9A199" cx="11.5" cy="11.5" rx="10.5" ry="10.5"/>
<g id="g8" transform="translate(5,4)">
	<path id="rect6507" fill="#FFFFFF" d="M0.4,2.2C0.2,2.2,0,2.4,0,2.6v6.6V11c0,0.2,0.2,0.4,0.4,0.4s0.4-0.2,0.4-0.4V9.7h11.5V11
		c0,0.2,0.2,0.4,0.4,0.4s0.4-0.2,0.4-0.4V9.3c0-0.2-0.2-0.4-0.4-0.4H0.9V2.6C0.9,2.4,0.7,2.2,0.4,2.2z M3.1,2.6
		C2.4,2.6,1.8,3.2,1.8,4l0,0c0,0.7,0.6,1.3,1.3,1.3l0,0c0.7,0,1.3-0.6,1.3-1.3l0,0C4.4,3.2,3.8,2.6,3.1,2.6L3.1,2.6z M6.2,3.5
		c-1.3,0-1.3,1.3-1.3,1.3v1.3H2.2C2,6.2,1.8,6.4,1.8,6.6v0.9c0,0.2,0.2,0.4,0.4,0.4h3.1h7.9V5.7c0-2.2-2.2-2.2-2.2-2.2
		S6.2,3.5,6.2,3.5z"/>
</g>
</svg>
