<?xml version="1.0" encoding="utf-8"?>
<!-- Generator: Adobe Illustrator 17.1.0, SVG Export Plug-In . SVG Version: 6.00 Build 0)  -->
<!DOCTYPE svg PUBLIC "-//W3C//DTD SVG 1.1//EN" "http://www.w3.org/Graphics/SVG/1.1/DTD/svg11.dtd">
<svg version="1.1"
	 id="svg3122" xmlns:svg="http://www.w3.org/2000/svg" xmlns:cc="http://creativecommons.org/ns#" xmlns:dc="http://purl.org/dc/elements/1.1/" xmlns:rdf="http://www.w3.org/1999/02/22-rdf-syntax-ns#" sodipodi:docname="london-overground-15.svg" inkscape:version="0.91+devel+osxmenu r12911" xmlns:inkscape="http://www.inkscape.org/namespaces/inkscape" xmlns:sodipodi="http://sodipodi.sourceforge.net/DTD/sodipodi-0.dtd"
	 xmlns="http://www.w3.org/2000/svg" xmlns:xlink="http://www.w3.org/1999/xlink" x="0px" y="0px" width="19px" height="19px"
	 viewBox="0 0 19 19" enable-background="new 0 0 19 19" xml:space="preserve">
<sodipodi:namedview  inkscape:snap-bbox-edge-midpoints="true" inkscape:snap-intersection-paths="true" inkscape:window-x="371" inkscape:snap-smooth-nodes="true" inkscape:bbox-nodes="true" inkscape:snap-bbox="true" inkscape:object-nodes="true" inkscape:object-paths="true" inkscape:pageopacity="0" inkscape:document-units="px" inkscape:pageshadow="2" inkscape:current-layer="svg3122" inkscape:window-y="42" inkscape:bbox-paths="true" inkscape:window-maximized="0" guidetolerance="10" gridtolerance="10" showgrid="true" pagecolor="#ffffff" objecttolerance="10" bordercolor="#666666" id="namedview14987" inkscape:cy="7.4359351" inkscape:zoom="24.428571" borderopacity="1" inkscape:cx="4.2395121">
	<inkscape:grid  type="xygrid" color="#ff0000" spacingy="0.5" spacingx="0.5" opacity="0.1254902" empspacing="2" id="grid3335">
		</inkscape:grid>
</sodipodi:namedview>
<g>
	<path fill="#FFFFFF" d="M7.5,3.5c-1.7,0-3.1,1-3.7,2.5h7.4C10.6,4.5,9.2,3.5,7.5,3.5z"/>
	<path fill="#FFFFFF" d="M7.5,11.5c1.7,0,3.1-1,3.7-2.5H3.8C4.4,10.5,5.8,11.5,7.5,11.5z"/>
	<path fill="#FFFFFF" d="M15.3,4.1C14,1,11-1,7.5-1S1,1-0.3,4.1C-1.3,4.5-2,5.4-2,6.5v2c0,1.1,0.7,2,1.7,2.4C1,13.9,4,16,7.5,16
		s6.5-2.1,7.8-5.1c1-0.3,1.7-1.3,1.7-2.4v-2C17,5.4,16.3,4.5,15.3,4.1z M15,8.5C15,8.8,14.8,9,14.5,9h-0.7c-0.7,2.9-3.2,5-6.3,5
		s-5.6-2.1-6.3-5H0.5C0.2,9,0,8.8,0,8.5v-2C0,6.2,0.2,6,0.5,6h0.7c0.7-2.9,3.2-5,6.3-5s5.6,2.1,6.3,5h0.7C14.8,6,15,6.2,15,6.5V8.5z
		"/>
	<path fill="#EEA66F" d="M7.5,11.5c-1.7,0-3.1-1-3.7-2.5H1.2c0.7,2.9,3.2,5,6.3,5s5.6-2.1,6.3-5h-2.6C10.6,10.5,9.2,11.5,7.5,11.5z"
		/>
	<path fill="#EEA66F" d="M7.5,3.5c1.7,0,3.1,1,3.7,2.5h2.6c-0.7-2.9-3.2-5-6.3-5S1.9,3.1,1.2,6h2.6C4.4,4.5,5.8,3.5,7.5,3.5z"/>
	<path fill="#5396C7" d="M14.5,6h-0.7h-2.6H3.8H1.2H0.5C0.2,6,0,6.2,0,6.5v2C0,8.8,0.2,9,0.5,9h0.7h2.6h7.4h2.6h0.7
		C14.8,9,15,8.8,15,8.5v-2C15,6.2,14.8,6,14.5,6z"/>
</g>
</svg>
