<?xml version="1.0" encoding="utf-8"?>
<!-- Generator: Adobe Illustrator 17.1.0, SVG Export Plug-In . SVG Version: 6.00 Build 0)  -->
<!DOCTYPE svg PUBLIC "-//W3C//DTD SVG 1.1//EN" "http://www.w3.org/Graphics/SVG/1.1/DTD/svg11.dtd">
<svg version="1.1"
	 id="svg3122" xmlns:svg="http://www.w3.org/2000/svg" xmlns:cc="http://creativecommons.org/ns#" xmlns:dc="http://purl.org/dc/elements/1.1/" xmlns:rdf="http://www.w3.org/1999/02/22-rdf-syntax-ns#" sodipodi:docname="london-underground-15.svg" inkscape:version="0.91+devel+osxmenu r12911" xmlns:inkscape="http://www.inkscape.org/namespaces/inkscape" xmlns:sodipodi="http://sodipodi.sourceforge.net/DTD/sodipodi-0.dtd"
	 xmlns="http://www.w3.org/2000/svg" xmlns:xlink="http://www.w3.org/1999/xlink" x="0px" y="0px" width="19px" height="19px"
	 viewBox="0 0 19 19" enable-background="new 0 0 19 19" xml:space="preserve">
<sodipodi:namedview  inkscape:snap-bbox-edge-midpoints="true" inkscape:snap-intersection-paths="true" inkscape:window-x="607" inkscape:snap-smooth-nodes="true" inkscape:bbox-nodes="true" inkscape:snap-bbox="true" inkscape:object-nodes="true" inkscape:object-paths="true" inkscape:pageopacity="0" inkscape:document-units="px" inkscape:pageshadow="2" inkscape:current-layer="svg3122" inkscape:window-y="49" inkscape:bbox-paths="true" inkscape:window-maximized="0" guidetolerance="10" gridtolerance="10" showgrid="true" pagecolor="#ffffff" objecttolerance="10" bordercolor="#666666" id="namedview15131" inkscape:cy="4.4596659" inkscape:zoom="26.222222" borderopacity="1" inkscape:cx="-0.80716509">
	<inkscape:grid  type="xygrid" color="#ff0000" spacingy="0.5" spacingx="0.5" opacity="0.1254902" empspacing="2" id="grid3335">
		</inkscape:grid>
</sodipodi:namedview>
<g>
	<path fill="#FFFFFF" d="M7.5,16c1.7,0,3.1-1,3.7-2.5H3.8C4.4,15,5.8,16,7.5,16z"/>
	<path fill="#FFFFFF" d="M7.5,8c-1.7,0-3.1,1-3.7,2.5h7.4C10.6,9,9.2,8,7.5,8z"/>
	<path fill="#FFFFFF" d="M15.3,8.6C14,5.6,11,3.5,7.5,3.5S1,5.6-0.3,8.6C-1.3,9-2,9.9-2,11v2c0,1.1,0.7,2,1.7,2.4
		C1,18.5,4,20.5,7.5,20.5s6.5-2,7.8-5.1c1-0.3,1.7-1.3,1.7-2.4v-2C17,9.9,16.3,9,15.3,8.6z M15,13c0,0.3-0.2,0.5-0.5,0.5h-0.7
		c-0.7,2.9-3.2,5-6.3,5s-5.6-2.1-6.3-5H0.5C0.2,13.5,0,13.3,0,13v-2c0-0.3,0.2-0.5,0.5-0.5h0.7c0.7-2.9,3.2-5,6.3-5s5.6,2.1,6.3,5
		h0.7c0.3,0,0.5,0.2,0.5,0.5V13z"/>
	<path fill="#E97474" d="M7.5,8c1.7,0,3.1,1,3.7,2.5h2.6c-0.7-2.9-3.2-5-6.3-5s-5.6,2.1-6.3,5h2.6C4.4,9,5.8,8,7.5,8z"/>
	<path fill="#E97474" d="M7.5,16c-1.7,0-3.1-1-3.7-2.5H1.2c0.7,2.9,3.2,5,6.3,5s5.6-2.1,6.3-5h-2.6C10.6,15,9.2,16,7.5,16z"/>
	<path fill="#5396C7" d="M14.5,10.5h-0.7c0.1,0.5,0.2,1,0.2,1.5s-0.1,1-0.2,1.5h0.7c0.3,0,0.5-0.2,0.5-0.5v-2
		C15,10.7,14.8,10.5,14.5,10.5z"/>
	<path fill="#5396C7" d="M3.5,12c0,0.5,0.1,1,0.3,1.5h7.4c0.2-0.5,0.3-1,0.3-1.5s-0.1-1-0.3-1.5H3.8C3.6,11,3.5,11.5,3.5,12z"/>
	<path fill="#5396C7" d="M1.2,10.5H0.5C0.2,10.5,0,10.7,0,11v2c0,0.3,0.2,0.5,0.5,0.5h0.7C1.1,13,1,12.5,1,12S1.1,11,1.2,10.5z"/>
	<path fill="#5396C7" d="M13.8,10.5h-2.6c0.2,0.5,0.3,1,0.3,1.5s-0.1,1-0.3,1.5h2.6c0.1-0.5,0.2-1,0.2-1.5S13.9,11,13.8,10.5z"/>
	<path fill="#5396C7" d="M3.5,12c0-0.5,0.1-1,0.3-1.5H1.2C1.1,11,1,11.5,1,12s0.1,1,0.2,1.5h2.6C3.6,13,3.5,12.5,3.5,12z"/>
</g>
</svg>
