<svg xmlns="http://www.w3.org/2000/svg" width="20" height="17" viewBox="0 0 20 17"><title>rails-icons</title><path d="M17.8,5.1A8.33,8.33,0,0,0,10,0,8.33,8.33,0,0,0,2.2,5.1,2.59,2.59,0,0,0,.5,7.5v2a2.59,2.59,0,0,0,1.7,2.4,8.51,8.51,0,0,0,15.6,0,2.49,2.49,0,0,0,1.7-2.4v-2A2.59,2.59,0,0,0,17.8,5.1ZM17.5,9.5a0.47,0.47,0,0,1-.5.5H16.3A6.47,6.47,0,0,1,3.7,10H3a0.47,0.47,0,0,1-.5-0.5v-2A0.47,0.47,0,0,1,3,7H3.7A6.47,6.47,0,0,1,16.3,7H17a0.47,0.47,0,0,1,.5.5v2Z" fill="#fff"/><path d="M10,12.5A3.92,3.92,0,0,0,13.7,10H6.3A3.92,3.92,0,0,0,10,12.5Z" fill="#fff"/><path d="M10,4.5A3.92,3.92,0,0,0,6.3,7h7.4A3.92,3.92,0,0,0,10,4.5Z" fill="#fff"/><path d="M14.7,10h-1a4,4,0,0,1-7.4,0H3.7a6.47,6.47,0,0,0,12.6,0H14.7Z" fill="#5497c7"/><path d="M10,2A6.43,6.43,0,0,0,3.7,7H6.3a4,4,0,0,1,7.4,0h2.6A6.43,6.43,0,0,0,10,2Z" fill="#5497c7"/><path d="M17,7H3a0.47,0.47,0,0,0-.5.5v2A0.47,0.47,0,0,0,3,10H17a0.47,0.47,0,0,0,.5-0.5v-2A0.47,0.47,0,0,0,17,7Z" fill="#5497c7"/></svg>