<?xml version="1.0" encoding="utf-8"?>
<!-- Generator: Adobe Illustrator 17.1.0, SVG Export Plug-In . SVG Version: 6.00 Build 0)  -->
<!DOCTYPE svg PUBLIC "-//W3C//DTD SVG 1.1//EN" "http://www.w3.org/Graphics/SVG/1.1/DTD/svg11.dtd">
<svg version="1.1"
	 id="svg3122" xmlns:svg="http://www.w3.org/2000/svg" xmlns:cc="http://creativecommons.org/ns#" xmlns:dc="http://purl.org/dc/elements/1.1/" xmlns:rdf="http://www.w3.org/1999/02/22-rdf-syntax-ns#" sodipodi:docname="london-overground.london-underground-15.svg" inkscape:version="0.91+devel+osxmenu r12911" xmlns:inkscape="http://www.inkscape.org/namespaces/inkscape" xmlns:sodipodi="http://sodipodi.sourceforge.net/DTD/sodipodi-0.dtd"
	 xmlns="http://www.w3.org/2000/svg" xmlns:xlink="http://www.w3.org/1999/xlink" x="0px" y="0px" width="39px" height="19px"
	 viewBox="0 0 39 19" enable-background="new 0 0 39 19" xml:space="preserve">
<path fill="#FFFFFF" d="M8.5,3.5c-1.7,0-3.1,1-3.7,2.5h7.4C11.6,4.5,10.2,3.5,8.5,3.5z"/>
<path fill="#FFFFFF" d="M26.5,3.5c-1.7,0-3.1,1-3.7,2.5h7.4C29.6,4.5,28.2,3.5,26.5,3.5z"/>
<path fill="#FFFFFF" d="M26.5,11.5c1.7,0,3.1-1,3.7-2.5h-7.4C23.4,10.5,24.8,11.5,26.5,11.5z"/>
<path fill="#FFFFFF" d="M8.5,11.5c1.7,0,3.1-1,3.7-2.5H4.8C5.4,10.5,6.8,11.5,8.5,11.5z"/>
<path fill="#FFFFFF" d="M34.3,4.1C33,1,30-1,26.5-1S20,1,18.7,4.1c-0.5,0.2-0.9,0.5-1.2,0.9c-0.3-0.4-0.7-0.7-1.2-0.9
	C15,1,12-1,8.5-1S2,1,0.7,4.1C-0.3,4.5-1,5.4-1,6.5v2c0,1.1,0.7,2,1.7,2.4C2,13.9,5,16,8.5,16s6.5-2.1,7.8-5.1
	c0.5-0.2,0.9-0.5,1.2-0.9c0.3,0.4,0.7,0.7,1.2,0.9C20,13.9,23,16,26.5,16s6.5-2.1,7.8-5.1c1-0.3,1.7-1.3,1.7-2.4v-2
	C36,5.4,35.3,4.5,34.3,4.1z M16,8.5C16,8.8,15.8,9,15.5,9h-0.7c-0.7,2.9-3.2,5-6.3,5s-5.6-2.1-6.3-5H1.5C1.2,9,1,8.8,1,8.5v-2
	C1,6.2,1.2,6,1.5,6h0.7c0.7-2.9,3.2-5,6.3-5s5.6,2.1,6.3,5h0.7C15.8,6,16,6.2,16,6.5V8.5z M34,8.5C34,8.8,33.8,9,33.5,9h-0.7
	c-0.7,2.9-3.2,5-6.3,5s-5.6-2.1-6.3-5h-0.7C19.2,9,19,8.8,19,8.5v-2C19,6.2,19.2,6,19.5,6h0.7c0.7-2.9,3.2-5,6.3-5s5.6,2.1,6.3,5
	h0.7C33.8,6,34,6.2,34,6.5V8.5z"/>
<path fill="#EEA66F" d="M8.5,11.5c-1.7,0-3.1-1-3.7-2.5H2.2c0.7,2.9,3.2,5,6.3,5s5.6-2.1,6.3-5h-2.6C11.6,10.5,10.2,11.5,8.5,11.5z"
	/>
<path fill="#EEA66F" d="M8.5,3.5c1.7,0,3.1,1,3.7,2.5h2.6c-0.7-2.9-3.2-5-6.3-5S2.9,3.1,2.2,6h2.6C5.4,4.5,6.8,3.5,8.5,3.5z"/>
<path fill="#5396C7" d="M15.5,6h-0.7h-2.6H4.8H2.2H1.5C1.2,6,1,6.2,1,6.5v2C1,8.8,1.2,9,1.5,9h0.7h2.6h7.4h2.6h0.7
	C15.8,9,16,8.8,16,8.5v-2C16,6.2,15.8,6,15.5,6z"/>
<path fill="#E97474" d="M26.5,11.5c-1.7,0-3.1-1-3.7-2.5h-2.6c0.7,2.9,3.2,5,6.3,5s5.6-2.1,6.3-5h-2.6
	C29.6,10.5,28.2,11.5,26.5,11.5z"/>
<path fill="#E97474" d="M26.5,3.5c1.7,0,3.1,1,3.7,2.5h2.6c-0.7-2.9-3.2-5-6.3-5s-5.6,2.1-6.3,5h2.6C23.4,4.5,24.8,3.5,26.5,3.5z"/>
<path fill="#5396C7" d="M33.5,6h-0.7h-2.6h-7.4h-2.6h-0.7C19.2,6,19,6.2,19,6.5v2C19,8.8,19.2,9,19.5,9h0.7h2.6h7.4h2.6h0.7
	C33.8,9,34,8.8,34,8.5v-2C34,6.2,33.8,6,33.5,6z"/>
</svg>
