<svg xmlns="http://www.w3.org/2000/svg" width="56.04" height="18" viewBox="0 0 56.04 18"><title>rails-icons</title><path d="M53.8,5.6a8.54,8.54,0,0,0-15.63,0A2.8,2.8,0,0,0,37,6.44a2.8,2.8,0,0,0-1.15-.84,8.54,8.54,0,0,0-15.63,0,2.74,2.74,0,0,0-1.2.9,2.74,2.74,0,0,0-1.2-.9A8.35,8.35,0,0,0,10,.5,8.35,8.35,0,0,0,2.2,5.6,2.59,2.59,0,0,0,.5,8v2a2.59,2.59,0,0,0,1.7,2.4,8.54,8.54,0,0,0,15.63,0,2.74,2.74,0,0,0,1.2-.9,2.74,2.74,0,0,0,1.2.9,8.54,8.54,0,0,0,15.63,0A2.32,2.32,0,0,0,37,11.58a2.81,2.81,0,0,0,1.13.82,8.54,8.54,0,0,0,15.63,0A2.49,2.49,0,0,0,55.5,10V8A2.59,2.59,0,0,0,53.8,5.6ZM53.5,10a0.47,0.47,0,0,1-.5.5h-0.7a6.49,6.49,0,0,1-12.63,0H39a0.47,0.47,0,0,1-.5-0.5V8A0.47,0.47,0,0,1,39,7.5h0.7a6.49,6.49,0,0,1,12.63,0H53a0.47,0.47,0,0,1,.5.5v2Z" fill="#fff"/><path d="M10,2.5A6.5,6.5,0,1,0,16.53,9,6.49,6.49,0,0,0,10,2.5ZM10,5a4,4,0,0,1,4,4h0a4,4,0,0,1-4,4h0A4,4,0,0,1,6,9H6a4,4,0,0,1,4-4h0Z" fill="#9dc883"/><path d="M3,7.5H17a0.47,0.47,0,0,1,.5.5v2a0.47,0.47,0,0,1-.5.5H3A0.47,0.47,0,0,1,2.5,10V8A0.47,0.47,0,0,1,3,7.5Z" fill="#5497c7"/><path d="M28.06,2.5A6.5,6.5,0,1,0,34.57,9,6.49,6.49,0,0,0,28.06,2.5Zm0,2.5a4,4,0,0,1,4,4h0a4,4,0,0,1-4,4h0a4,4,0,0,1-4-4h0a4,4,0,0,1,4-4h0Z" fill="#5497c7"/><path d="M21,7.5h14a0.47,0.47,0,0,1,.5.5v2a0.47,0.47,0,0,1-.5.5H21a0.47,0.47,0,0,1-.5-0.5V8A0.47,0.47,0,0,1,21,7.5Z" fill="#5497c7"/><path d="M46,13a3.93,3.93,0,0,0,3.71-2.5H42.27A3.93,3.93,0,0,0,46,13Z" fill="#fff"/><path d="M46,5a3.93,3.93,0,0,0-3.71,2.5h7.42A3.93,3.93,0,0,0,46,5Z" fill="#fff"/><path d="M50.69,10.5h-1a4,4,0,0,1-7.42,0H39.67a6.49,6.49,0,0,0,12.63,0h-1.6Z" fill="#e97475"/><path d="M46,2.5a6.45,6.45,0,0,0-6.31,5h2.61a4,4,0,0,1,7.42,0h2.61A6.45,6.45,0,0,0,46,2.5Z" fill="#e97475"/><path d="M53,7.5H39a0.47,0.47,0,0,0-.5.5v2a0.47,0.47,0,0,0,.5.5H53a0.47,0.47,0,0,0,.5-0.5V8A0.47,0.47,0,0,0,53,7.5Z" fill="#5497c7"/></svg>