<svg xmlns="http://www.w3.org/2000/svg" width="56.04" height="18" viewBox="0 0 56.04 18"><title>rails-icons</title><path d="M53.9,5.6a8.54,8.54,0,0,0-15.63,0,2.8,2.8,0,0,0-1.15.84A2.8,2.8,0,0,0,36,5.6a8.54,8.54,0,0,0-15.63,0,2.74,2.74,0,0,0-1.2.9,2.74,2.74,0,0,0-1.2-.9A8.35,8.35,0,0,0,10.12.5,8.35,8.35,0,0,0,2.3,5.6,2.59,2.59,0,0,0,.6,8v2a2.59,2.59,0,0,0,1.7,2.4,8.54,8.54,0,0,0,15.63,0,2.74,2.74,0,0,0,1.2-.9,2.74,2.74,0,0,0,1.2.9A8.54,8.54,0,0,0,36,12.4a2.32,2.32,0,0,0,1.16-.82,2.81,2.81,0,0,0,1.13.82,8.54,8.54,0,0,0,15.63,0A2.49,2.49,0,0,0,55.6,10V8A2.59,2.59,0,0,0,53.9,5.6ZM53.6,10a0.47,0.47,0,0,1-.5.5h-0.7a6.49,6.49,0,0,1-12.63,0h-0.7a0.47,0.47,0,0,1-.5-0.5V8a0.47,0.47,0,0,1,.5-0.5h0.7a6.49,6.49,0,0,1,12.63,0h0.7a0.47,0.47,0,0,1,.5.5v2Z" fill="#fff"/><path d="M10.12,2.5A6.5,6.5,0,1,0,16.63,9,6.49,6.49,0,0,0,10.12,2.5Zm0,2.5a4,4,0,0,1,4,4h0a4,4,0,0,1-4,4h0a4,4,0,0,1-4-4h0a4,4,0,0,1,4-4h0Z" fill="#eea76f"/><path d="M3.11,7.5h14a0.47,0.47,0,0,1,.5.5v2a0.47,0.47,0,0,1-.5.5h-14A0.47,0.47,0,0,1,2.6,10V8A0.47,0.47,0,0,1,3.11,7.5Z" fill="#5497c7"/><path d="M28.16,2.5A6.5,6.5,0,1,0,34.67,9,6.49,6.49,0,0,0,28.16,2.5Zm0,2.5a4,4,0,0,1,4,4h0a4,4,0,0,1-4,4h0a4,4,0,0,1-4-4h0a4,4,0,0,1,4-4h0Z" fill="#5497c7"/><path d="M21.14,7.5h14a0.47,0.47,0,0,1,.5.5v2a0.47,0.47,0,0,1-.5.5h-14a0.47,0.47,0,0,1-.5-0.5V8A0.47,0.47,0,0,1,21.14,7.5Z" fill="#5497c7"/><path d="M46.08,13a3.93,3.93,0,0,0,3.71-2.5H42.37A3.93,3.93,0,0,0,46.08,13Z" fill="#fff"/><path d="M46.08,5a3.93,3.93,0,0,0-3.71,2.5h7.42A3.93,3.93,0,0,0,46.08,5Z" fill="#fff"/><path d="M50.79,10.5h-1a4,4,0,0,1-7.42,0H39.77a6.49,6.49,0,0,0,12.63,0h-1.6Z" fill="#e97475"/><path d="M46.08,2.5a6.45,6.45,0,0,0-6.31,5h2.61a4,4,0,0,1,7.42,0h2.61A6.45,6.45,0,0,0,46.08,2.5Z" fill="#e97475"/><path d="M53.09,7.5h-14a0.47,0.47,0,0,0-.5.5v2a0.47,0.47,0,0,0,.5.5h14a0.47,0.47,0,0,0,.5-0.5V8A0.47,0.47,0,0,0,53.09,7.5Z" fill="#5497c7"/></svg>