<svg xmlns="http://www.w3.org/2000/svg" width="38" height="18" viewBox="0 0 38 18"><title>rails-icons</title><path d="M35.8,5.6a8.51,8.51,0,0,0-15.6,0,2.73,2.73,0,0,0-1.2.9,2.73,2.73,0,0,0-1.2-.9A8.33,8.33,0,0,0,10,.5,8.33,8.33,0,0,0,2.2,5.6,2.59,2.59,0,0,0,.5,8v2a2.59,2.59,0,0,0,1.7,2.4,8.51,8.51,0,0,0,15.6,0,2.73,2.73,0,0,0,1.2-.9,2.73,2.73,0,0,0,1.2.9,8.51,8.51,0,0,0,15.6,0A2.49,2.49,0,0,0,37.5,10V8A2.59,2.59,0,0,0,35.8,5.6Z" fill="#fff"/><path d="M10,2.5A6.5,6.5,0,1,0,16.5,9,6.49,6.49,0,0,0,10,2.5ZM10,5a4,4,0,0,1,4,4h0a4,4,0,0,1-4,4h0A4,4,0,0,1,6,9H6a4,4,0,0,1,4-4h0Z" fill="#9dc883"/><path d="M3,7.5H17a0.47,0.47,0,0,1,.5.5v2a0.47,0.47,0,0,1-.5.5H3A0.47,0.47,0,0,1,2.5,10V8A0.47,0.47,0,0,1,3,7.5Z" fill="#5497c7"/><path d="M28,2.5A6.5,6.5,0,1,0,34.5,9,6.49,6.49,0,0,0,28,2.5ZM28,5a4,4,0,0,1,4,4h0a4,4,0,0,1-4,4h0a4,4,0,0,1-4-4h0a4,4,0,0,1,4-4h0Z" fill="#5497c7"/><path d="M21,7.5H35a0.47,0.47,0,0,1,.5.5v2a0.47,0.47,0,0,1-.5.5H21a0.47,0.47,0,0,1-.5-0.5V8A0.47,0.47,0,0,1,21,7.5Z" fill="#5497c7"/></svg>