<?xml version="1.0" encoding="utf-8"?>
<!-- Generator: Adobe Illustrator 17.1.0, SVG Export Plug-In . SVG Version: 6.00 Build 0)  -->
<!DOCTYPE svg PUBLIC "-//W3C//DTD SVG 1.1//EN" "http://www.w3.org/Graphics/SVG/1.1/DTD/svg11.dtd">
<svg version="1.1"
	 id="svg3122" xmlns:svg="http://www.w3.org/2000/svg" xmlns:cc="http://creativecommons.org/ns#" xmlns:dc="http://purl.org/dc/elements/1.1/" xmlns:rdf="http://www.w3.org/1999/02/22-rdf-syntax-ns#" sodipodi:docname="dlr.london-underground-15.svg" inkscape:version="0.91+devel+osxmenu r12911" xmlns:inkscape="http://www.inkscape.org/namespaces/inkscape" xmlns:sodipodi="http://sodipodi.sourceforge.net/DTD/sodipodi-0.dtd"
	 xmlns="http://www.w3.org/2000/svg" xmlns:xlink="http://www.w3.org/1999/xlink" x="0px" y="0px" width="39px" height="19px"
	 viewBox="0 0 39 19" enable-background="new 0 0 39 19" xml:space="preserve">
<path fill="#FFFFFF" d="M34.3,4.1C33,1,30-1,26.5-1S20,1,18.7,4.1c-0.5,0.2-0.9,0.5-1.2,0.9c-0.3-0.4-0.7-0.7-1.2-0.9
	C15,1,12-1,8.5-1S2,1,0.7,4.1C-0.3,4.5-1,5.4-1,6.5v2c0,1.1,0.7,2,1.7,2.4C2,13.9,5,16,8.5,16s6.5-2.1,7.8-5.1
	c0.5-0.2,0.9-0.5,1.2-0.9c0.3,0.4,0.7,0.7,1.2,0.9C20,13.9,23,16,26.5,16s6.5-2.1,7.8-5.1c1-0.3,1.7-1.3,1.7-2.4v-2
	C36,5.4,35.3,4.5,34.3,4.1z"/>
<sodipodi:namedview  inkscape:window-width="640" inkscape:window-height="480" inkscape:window-x="0" inkscape:pageopacity="0" inkscape:document-units="px" inkscape:pageshadow="2" inkscape:current-layer="svg3122" inkscape:window-y="23" inkscape:window-maximized="0" guidetolerance="10" gridtolerance="10" showgrid="true" pagecolor="#ffffff" objecttolerance="10" bordercolor="#666666" id="namedview14796" inkscape:cy="9.0540568" inkscape:zoom="11.313708" borderopacity="1" inkscape:cx="16.293917">
	<inkscape:grid  type="xygrid" id="grid20931"></inkscape:grid>
</sodipodi:namedview>
<g id="g9324" transform="translate(1,-3)">
	<path id="path3346" inkscape:connector-curvature="0" fill="#9CC883" d="M7.5,4C3.9,4,1,6.9,1,10.5S3.9,17,7.5,17s6.5-2.9,6.5-6.5
		S11.1,4,7.5,4z M7.5,6.5c2.2,0,4,1.8,4,4l0,0c0,2.2-1.8,4-4,4l0,0c-2.2,0-4-1.8-4-4l0,0C3.5,8.3,5.3,6.5,7.5,6.5L7.5,6.5z"/>
	<path id="rect3363" fill="#5396C7" d="M0.5,9h14C14.8,9,15,9.2,15,9.5v2c0,0.3-0.2,0.5-0.5,0.5h-14C0.2,12,0,11.8,0,11.5v-2
		C0,9.2,0.2,9,0.5,9z"/>
</g>
<g id="g9329" transform="translate(19,-3)">
	<path id="path9333" inkscape:connector-curvature="0" fill="#E97474" d="M7.5,4C3.9,4,1,6.9,1,10.5S3.9,17,7.5,17s6.5-2.9,6.5-6.5
		S11.1,4,7.5,4z M7.5,6.5c2.2,0,4,1.8,4,4l0,0c0,2.2-1.8,4-4,4l0,0c-2.2,0-4-1.8-4-4l0,0C3.5,8.3,5.3,6.5,7.5,6.5L7.5,6.5z"/>
	<path id="rect9335" fill="#5396C7" d="M0.5,9h14C14.8,9,15,9.2,15,9.5v2c0,0.3-0.2,0.5-0.5,0.5h-14C0.2,12,0,11.8,0,11.5v-2
		C0,9.2,0.2,9,0.5,9z"/>
</g>
</svg>
