<svg xmlns="http://www.w3.org/2000/svg" width="20" height="17" viewBox="0 0 20 17"><title>rails-icons</title><path d="M10,16.56A2.46,2.46,0,0,1,8.49,16L1.38,10.45a2.48,2.48,0,0,1,0-3.9L8.48,1a2.45,2.45,0,0,1,3,0l7.11,5.58a2.48,2.48,0,0,1,0,3.9L11.52,16A2.46,2.46,0,0,1,10,16.56Z" fill="#e97475"/><path d="M4,8.73l5.65,4.43a0.52,0.52,0,0,0,.64,0L16,8.71a0.27,0.27,0,0,0,0-.42L10.16,3.72a0.26,0.26,0,0,0-.32,0L4,8.28A0.29,0.29,0,0,0,4,8.73Z" fill="#fff"/><path d="M10,1.95a1,1,0,0,1,.59.21L17.7,7.73a1,1,0,0,1,0,1.54l-7.1,5.58a1,1,0,0,1-1.18,0L2.3,9.27a1,1,0,0,1,0-1.54L9.41,2.15A1,1,0,0,1,10,1.95M10,0h0A2.89,2.89,0,0,0,8.23.62L1.12,6.2a2.94,2.94,0,0,0,0,4.61l7.11,5.58a2.87,2.87,0,0,0,3.55,0l7.1-5.58a2.94,2.94,0,0,0,0-4.61L11.78,0.62A2.89,2.89,0,0,0,10,0h0Z" fill="#fff"/><rect x="4.5" y="6.7" width="11" height="3.6" rx="0.49" ry="0.49" fill="#5396c7"/></svg>