<?xml version="1.0" encoding="utf-8"?>
<!-- Generator: Adobe Illustrator 17.1.0, SVG Export Plug-In . SVG Version: 6.00 Build 0)  -->
<!DOCTYPE svg PUBLIC "-//W3C//DTD SVG 1.1//EN" "http://www.w3.org/Graphics/SVG/1.1/DTD/svg11.dtd">
<svg version="1.1" id="Layer_1" xmlns="http://www.w3.org/2000/svg" xmlns:xlink="http://www.w3.org/1999/xlink" x="0px" y="0px"
	 width="23px" height="23px" viewBox="0 0 23 23" enable-background="new 0 0 23 23" xml:space="preserve">
<g>
	<path fill="#FFFFFF" d="M11.5,0C5.1,0,0,5.1,0,11.5S5.1,23,11.5,23S23,17.9,23,11.5S17.9,0,11.5,0z M11.5,22C5.7,22,1,17.3,1,11.5
		S5.7,1,11.5,1S22,5.7,22,11.5S17.3,22,11.5,22z"/>
	<path fill="#A9A199" d="M11.5,1C5.7,1,1,5.7,1,11.5S5.7,22,11.5,22S22,17.3,22,11.5S17.3,1,11.5,1z M11.5,17
		C10.7,15.9,8,11.8,8,9.9C8,7.1,9.9,6,11.5,6S15,7.1,15,9.9C15,11.9,12.2,15.9,11.5,17z"/>
	<path fill="#FFFFFF" d="M11.5,6C9.9,6,8,7.1,8,9.9c0,1.9,2.7,6,3.5,7.1c0.7-1.1,3.5-5.1,3.5-7.1C15,7.1,13.1,6,11.5,6z"/>
</g>
</svg>
