<?xml version="1.0" encoding="utf-8"?>
<!-- Generator: Adobe Illustrator 17.1.0, SVG Export Plug-In . SVG Version: 6.00 Build 0)  -->
<!DOCTYPE svg PUBLIC "-//W3C//DTD SVG 1.1//EN" "http://www.w3.org/Graphics/SVG/1.1/DTD/svg11.dtd">
<svg version="1.1" id="Layer_1" xmlns="http://www.w3.org/2000/svg" xmlns:xlink="http://www.w3.org/1999/xlink" x="0px" y="0px"
	 width="19px" height="19px" viewBox="0 0 19 19" enable-background="new 0 0 19 19" xml:space="preserve">
<g>
	<path fill="#FFFFFF" d="M9.5,0C4.3,0,0,4.3,0,9.5S4.3,19,9.5,19S19,14.7,19,9.5S14.7,0,9.5,0z M9.5,18C4.8,18,1,14.2,1,9.5
		S4.8,1,9.5,1S18,4.8,18,9.5S14.2,18,9.5,18z"/>
	<path fill="#A9A199" d="M9.5,1C4.8,1,1,4.8,1,9.5S4.8,18,9.5,18S18,14.2,18,9.5S14.2,1,9.5,1z M9.5,14c-0.7-0.9-3-4.2-3-5.7
		C6.5,6,8.1,5,9.5,5s2.9,1,2.9,3.3C12.5,9.9,10.2,13.1,9.5,14z"/>
	<path fill="#FFFFFF" d="M9.5,5c-1.4,0-3,1-3,3.3c0,1.6,2.3,4.8,3,5.7c0.6-0.9,2.9-4.1,2.9-5.7C12.5,6,10.9,5,9.5,5z"/>
</g>
</svg>
