<?xml version="1.0" encoding="utf-8"?>
<!-- Generator: Adobe Illustrator 17.1.0, SVG Export Plug-In . SVG Version: 6.00 Build 0)  -->
<!DOCTYPE svg PUBLIC "-//W3C//DTD SVG 1.1//EN" "http://www.w3.org/Graphics/SVG/1.1/DTD/svg11.dtd">
<svg version="1.1"
	 id="svg13031" xmlns:svg="http://www.w3.org/2000/svg" xmlns:cc="http://creativecommons.org/ns#" xmlns:dc="http://purl.org/dc/elements/1.1/" xmlns:rdf="http://www.w3.org/1999/02/22-rdf-syntax-ns#"
	 xmlns="http://www.w3.org/2000/svg" xmlns:xlink="http://www.w3.org/1999/xlink" x="0px" y="0px" width="32px" height="32px"
	 viewBox="0 0 32 32" enable-background="new 0 0 32 32" xml:space="preserve">
<g>
	<g id="path13603">
		<path fill="#8CCBF7" d="M13.4,27.3H4.8c-0.3,0-0.5-0.2-0.5-0.5s0.2-0.5,0.5-0.5h8.6c0.3,0,0.5,0.2,0.5,0.5
			C13.9,27.1,13.6,27.3,13.4,27.3z"/>
	</g>
	<g id="path13605">
		<path fill="#8CCBF7" d="M8.9,27.3c-0.1,0-0.2,0-0.3-0.1l-2.8-2.8c-0.2-0.2-0.2-0.5,0-0.7c0.2-0.2,0.5-0.2,0.7,0l2.5,2.5l2.5-2.5
			c0.2-0.2,0.5-0.2,0.7,0c0.2,0.2,0.2,0.5,0,0.7l-2.8,2.8C9.1,27.3,9,27.3,8.9,27.3z"/>
	</g>
	<g id="path13607">
		<path fill="#8CCBF7" d="M8.9,27.3c-0.3,0-0.5-0.2-0.5-0.5v-4.7c0-0.3,0.2-0.5,0.5-0.5s0.5,0.2,0.5,0.5v4.7
			C9.3,27.1,9.1,27.3,8.9,27.3z"/>
	</g>
	<g id="path14461">
		<path fill="#8CCBF7" d="M22.1,10.3h-7.5c-0.3,0-0.5-0.2-0.5-0.5s0.2-0.5,0.5-0.5h7.5c0.3,0,0.5,0.2,0.5,0.5
			C22.5,10.1,22.3,10.3,22.1,10.3z"/>
	</g>
	<g id="path14467">
		<path fill="#8CCBF7" d="M28.6,18.8h-2.8c-0.3,0-0.5-0.2-0.5-0.5s0.2-0.5,0.5-0.5h2.8c0.3,0,0.5,0.2,0.5,0.5S28.9,18.8,28.6,18.8z"
			/>
	</g>
	<g id="path15306">
		<path fill="#8CCBF7" d="M18.3,10.3c-0.2,0-0.3-0.1-0.4-0.2L16,7.3c-0.1-0.2-0.1-0.5,0.1-0.7c0.2-0.1,0.5-0.1,0.7,0.1L18.3,9
			l1.5-2.2c0.1-0.2,0.4-0.3,0.7-0.1c0.2,0.1,0.3,0.4,0.1,0.7l-1.9,2.8C18.6,10.3,18.4,10.3,18.3,10.3z"/>
	</g>
</g>
</svg>
