<?xml version="1.0" encoding="utf-8"?>
<!-- Generator: Adobe Illustrator 17.1.0, SVG Export Plug-In . SVG Version: 6.00 Build 0)  -->
<!DOCTYPE svg PUBLIC "-//W3C//DTD SVG 1.1//EN" "http://www.w3.org/Graphics/SVG/1.1/DTD/svg11.dtd">
<svg version="1.1"
	 id="Layer_1" xmlns:svg="http://www.w3.org/2000/svg" xmlns:cc="http://creativecommons.org/ns#" xmlns:dc="http://purl.org/dc/elements/1.1/" xmlns:rdf="http://www.w3.org/1999/02/22-rdf-syntax-ns#"
	 xmlns="http://www.w3.org/2000/svg" xmlns:xlink="http://www.w3.org/1999/xlink" x="0px" y="0px" width="16px" height="16px"
	 viewBox="0 0 16 16" enable-background="new 0 0 16 16" xml:space="preserve">
<g id="path13603">
	<path fill="#8CCBF7" d="M6.6,13.8H2.1c-0.1,0-0.2-0.1-0.2-0.2s0.1-0.2,0.2-0.2h4.5c0.1,0,0.2,0.1,0.2,0.2
		C6.8,13.7,6.7,13.8,6.6,13.8z"/>
</g>
<g id="path13605">
	<path fill="#8CCBF7" d="M4.2,13.8c-0.1,0-0.1,0-0.2-0.1l-1.5-1.5c-0.1-0.1-0.1-0.3,0-0.4c0.1-0.1,0.3-0.1,0.3,0l1.3,1.3l1.3-1.3
		c0.1-0.1,0.3-0.1,0.3,0C6,12,6,12.2,5.9,12.3l-1.5,1.5C4.3,13.8,4.3,13.8,4.2,13.8z"/>
</g>
<g id="path13607">
	<path fill="#8CCBF7" d="M4.2,13.8c-0.1,0-0.2-0.1-0.2-0.2v-2.5c0-0.1,0.1-0.2,0.2-0.2s0.2,0.1,0.2,0.2v2.5
		C4.4,13.7,4.3,13.8,4.2,13.8z"/>
</g>
<g id="path14461">
	<path fill="#8CCBF7" d="M11.1,4.9H7.2C7.1,4.9,7,4.8,7,4.7c0-0.1,0.1-0.2,0.2-0.2h3.9c0.1,0,0.2,0.1,0.2,0.2
		C11.4,4.8,11.3,4.9,11.1,4.9z"/>
</g>
<g id="path14467">
	<path fill="#8CCBF7" d="M14.6,9.4h-1.5c-0.1,0-0.2-0.1-0.2-0.2s0.1-0.2,0.2-0.2h1.5c0.1,0,0.2,0.1,0.2,0.2S14.7,9.4,14.6,9.4z"/>
</g>
<g id="path15306">
	<path fill="#8CCBF7" d="M9.1,4.9L9.1,4.9c-0.1,0-0.2,0-0.2-0.1L8,3.4C7.9,3.2,7.9,3.1,8,3c0.1-0.1,0.3,0,0.3,0.1l0.8,1.2l0.8-1.2
		C10,3,10.2,2.9,10.3,3c0.1,0.1,0.1,0.2,0.1,0.3l-1,1.5C9.3,4.9,9.2,4.9,9.1,4.9z"/>
</g>
</svg>
