<svg xmlns="http://www.w3.org/2000/svg" width="20" height="17" viewBox="0 0 20 17"><title>rails-icons</title><path d="M15.5,0H4.5A2.5,2.5,0,0,0,2,2.5v12A2.5,2.5,0,0,0,4.5,17h11A2.5,2.5,0,0,0,18,14.5V2.5A2.5,2.5,0,0,0,15.5,0h0Z" fill="#fff"/><path d="M12.85,1.94H4V4.23h7.89a2.08,2.08,0,0,1,2,2.16v8.54H16V5.35A3.29,3.29,0,0,0,12.85,1.94Z" fill="#eea76f"/><path d="M4,5.67H5.3a0.82,0.82,0,0,1,.82.82v8.45a0,0,0,0,1,0,0H4a0,0,0,0,1,0,0V5.67A0,0,0,0,1,4,5.67Z" fill="#eea76f"/><path d="M7.26,5.67h1.3a0.82,0.82,0,0,1,.82.82v8.45a0,0,0,0,1,0,0H7.26a0,0,0,0,1,0,0V5.67A0,0,0,0,1,7.26,5.67Z" fill="#eea76f"/><path d="M10.53,5.67h1.3a0.82,0.82,0,0,1,.82.82v8.45a0,0,0,0,1,0,0H10.53a0,0,0,0,1,0,0V5.67A0,0,0,0,1,10.53,5.67Z" fill="#eea76f"/></svg>