<svg xmlns="http://www.w3.org/2000/svg" width="20" height="17" viewBox="0 0 20 17"><title>rails-icons</title><path d="M15.5,0H4.5A2.5,2.5,0,0,0,2,2.5v12A2.5,2.5,0,0,0,4.5,17h11A2.5,2.5,0,0,0,18,14.5V2.5A2.5,2.5,0,0,0,15.5,0h0Z" fill="#fff"/><path d="M14.13,2H5.87A1.89,1.89,0,0,0,4,3.91v9.18A1.89,1.89,0,0,0,5.87,15h8.26A1.89,1.89,0,0,0,16,13.09V3.91A1.89,1.89,0,0,0,14.13,2h0Z" fill="#e97475"/><path d="M6.51,4.94H8.7L10,9.68l1.3-4.74h2.2l1.51,7H13.5l-1.14-5.3-1.6,5.3H9.24l-1.6-5.3L6.5,11.94H5" fill="#fafafa"/></svg>