<?xml version="1.0" encoding="utf-8"?>
<!-- Generator: Adobe Illustrator 17.1.0, SVG Export Plug-In . SVG Version: 6.00 Build 0)  -->
<!DOCTYPE svg PUBLIC "-//W3C//DTD SVG 1.1//EN" "http://www.w3.org/Graphics/SVG/1.1/DTD/svg11.dtd">
<svg version="1.1"
	 id="svg3253" xmlns:svg="http://www.w3.org/2000/svg" xmlns:cc="http://creativecommons.org/ns#" xmlns:dc="http://purl.org/dc/elements/1.1/" xmlns:rdf="http://www.w3.org/1999/02/22-rdf-syntax-ns#" sodipodi:docname="moscow-metro-15.svg" inkscape:version="0.91+devel+osxmenu r12911" xmlns:inkscape="http://www.inkscape.org/namespaces/inkscape" xmlns:sodipodi="http://sodipodi.sourceforge.net/DTD/sodipodi-0.dtd"
	 xmlns="http://www.w3.org/2000/svg" xmlns:xlink="http://www.w3.org/1999/xlink" x="0px" y="0px" width="17px" height="15px"
	 viewBox="0 0 17 15" enable-background="new 0 0 17 15" xml:space="preserve">
<sodipodi:namedview  inkscape:snap-nodes="true" inkscape:snap-bbox-edge-midpoints="true" inkscape:snap-intersection-paths="true" inkscape:window-x="-3" inkscape:snap-smooth-nodes="true" inkscape:bbox-nodes="true" inkscape:snap-bbox="true" inkscape:object-nodes="true" inkscape:object-paths="true" inkscape:pageopacity="0" inkscape:pageshadow="2" inkscape:current-layer="svg3253" inkscape:window-y="0" inkscape:bbox-paths="true" inkscape:window-maximized="0" guidetolerance="10" gridtolerance="10" showgrid="false" pagecolor="#ffffff" objecttolerance="10" bordercolor="#666666" id="namedview3259" inkscape:cy="-34.308238" inkscape:zoom="1" borderopacity="1" inkscape:cx="3.1089554">
	
		<inkscape:grid  type="xygrid" color="#ff0000" snapvisiblegridlinesonly="true" spacingy="0.5" spacingx="0.5" opacity="0.1254902" empspacing="2" id="grid3265" enabled="true" visible="true">
		</inkscape:grid>
</sodipodi:namedview>
<g>
	<path fill="#FFFFFF" d="M13.2,3.6C11.6,1.9,9.6,1,7.5,1c-4.3,0-8,3.9-8,8.5c0,2.4,1.1,4,1.2,4.1L1,14h0.5h12H14l0.3-0.4
		c0-0.1,1.2-1.8,1.2-4.1C15.5,7.4,14.7,5.2,13.2,3.6z M13.5,13h-12c0,0-1-1.4-1-3.5c0-3.9,3.1-7.5,7-7.5s7,3.6,7,7.5
		C14.5,11.5,13.5,13,13.5,13z"/>
	<path fill="#FFFFFF" d="M7.5,3c-3.3,0-6,3.1-6,6.5c0,1.3,0.4,2.1,0.6,2.5h10.8c0.2-0.5,0.6-1.3,0.6-2.5C13.5,6.1,10.8,3,7.5,3z
		 M12.5,11h-4v-1H10L9,7.5l-1.5,3L6,7.5L5,10h1.5v1h-4v-1h1l2-6l2,3.5l2-3.5l2,6h1V11z"/>
	<path fill="#5396C7" d="M7.5,2c-3.9,0-7,3.6-7,7.5c0,2.1,1,3.5,1,3.5h12c0,0,1-1.5,1-3.5C14.5,5.6,11.4,2,7.5,2z M12.9,12H2.1
		c-0.2-0.4-0.6-1.2-0.6-2.5c0-3.4,2.8-6.5,6-6.5s6,3.1,6,6.5C13.5,10.7,13.1,11.6,12.9,12z"/>
	<polygon fill="#E97474" points="9.5,4 7.5,7.5 5.5,4 3.5,10 2.5,10 2.5,11 6.5,11 6.5,10 5,10 6,7.5 7.5,10.5 9,7.5 10,10 8.5,10 
		8.5,11 12.5,11 12.5,10 11.5,10 	"/>
</g>
</svg>
