<svg viewBox="-4 -4 19 19" width="19" height="19" data-reactid=".0.1.1.$mountain-11=1svg8.0.0"><rect x="-3" y="-3" rx="8.5" ry="8.5" width="17" height="17" stroke="#fff" style="stroke-linejoin:round;stroke-miterlimit:4px;" fill="#fff" stroke-width="2" data-reactid=".0.1.1.$mountain-11=1svg8.0.0.0"></rect><rect x="-3" y="-3" width="17" height="17" rx="8.5" ry="8.5" fill="#6b7f33" data-reactid=".0.1.1.$mountain-11=1svg8.0.0.1"></rect><path fill="#fff" d="M 5.517578,1.2324219 C 5.316543,1.2262287 5.1270594,1.3279986 5.0234374,1.5 L 1.0234375,8.1601562 C 0.8006975,8.5296102 1.067892,8.9999049 1.5,9 L 9.4999999,9 C 9.9321089,8.9999067 10.199303,8.5296112 9.9765624,8.1601562 L 5.9765624,1.5 C 5.8793204,1.3385786 5.70624,1.2383824 5.517578,1.2324219 Z M 5.519528,2.1542969 8.4316405,7 7.7597655,7 6.4160155,5.7734375 5.5195311,7 4.6249999,5.7734375 3.2812499,7 2.6093749,7 5.5195311,2.1542969 Z" data-reactid=".0.1.1.$mountain-11=1svg8.0.0.3:$mountain-11=1svg-0-fill"></path></svg>