<svg viewBox="-4 -4 23 23" width="23" height="23" data-reactid=".0.1.1.$mountain-15=1svg9.0.0"><rect x="-3" y="-3" rx="10.5" ry="10.5" width="21" height="21" stroke="#fff" style="stroke-linejoin:round;stroke-miterlimit:4px;" fill="#fff" stroke-width="2" data-reactid=".0.1.1.$mountain-15=1svg9.0.0.0"></rect><rect x="-3" y="-3" width="21" height="21" rx="10.5" ry="10.5" fill="#6b7f33" data-reactid=".0.1.1.$mountain-15=1svg9.0.0.1"></rect><path fill="#fff" d="M7.5,2C7.2,2,7.1,2.2,6.9,2.4
	l-5.8,9.5C1,12,1,12.2,1,12.3C1,12.8,1.4,13,1.7,13h11.6c0.4,0,0.7-0.2,0.7-0.7c0-0.2,0-0.2-0.1-0.4L8.2,2.4C8,2.2,7.8,2,7.5,2z
	 M7.5,3.5L10.8,9H10L8.5,7.5L7.5,9l-1-1.5L5,9H4.1L7.5,3.5z" data-reactid=".0.1.1.$mountain-15=1svg9.0.0.3:$mountain-15=1svg-0-fill"></path></svg>