<svg xmlns="http://www.w3.org/2000/svg" width="19" height="19" viewBox="0 0 19 19">
  <title>museum-11</title>
  <path d="M9.5,1h0A8.5,8.5,0,0,1,18,9.5h0A8.5,8.5,0,0,1,9.5,18h0A8.5,8.5,0,0,1,1,9.5H1A8.5,8.5,0,0,1,9.5,1Z" fill="#fff" stroke="#fff" stroke-linejoin="round" stroke-width="2"/>
  <path d="M9.5,1h0A8.5,8.5,0,0,1,18,9.5h0A8.5,8.5,0,0,1,9.5,18h0A8.5,8.5,0,0,1,1,9.5H1A8.5,8.5,0,0,1,9.5,1Z" fill="#7f7874"/>
  <path d="M9.5,4L5,6V7h9V6ZM6,8v4L5,13v1h9V13l-1-1V8H6ZM7.49,9a0.5,0.5,0,0,1,.36.15L9.5,10.79l1.65-1.65A0.5,0.5,0,0,1,12,9.5v3a0.5,0.5,0,1,1-1,0s0,0,0,0V10.71L9.85,11.85a0.5,0.5,0,0,1-.71,0L8,10.71V12.5a0.5,0.5,0,1,1-1,0s0,0,0,0v-3A0.5,0.5,0,0,1,7.49,9Z" fill="#fff"/>
</svg>
