<?xml version="1.0" encoding="utf-8"?>
<!-- Generator: Adobe Illustrator 17.1.0, SVG Export Plug-In . SVG Version: 6.00 Build 0)  -->
<!DOCTYPE svg PUBLIC "-//W3C//DTD SVG 1.1//EN" "http://www.w3.org/Graphics/SVG/1.1/DTD/svg11.dtd">
<svg version="1.1"
	 id="svg2" xmlns:svg="http://www.w3.org/2000/svg" xmlns:cc="http://creativecommons.org/ns#" xmlns:dc="http://purl.org/dc/elements/1.1/" xmlns:rdf="http://www.w3.org/1999/02/22-rdf-syntax-ns#"
	 xmlns="http://www.w3.org/2000/svg" xmlns:xlink="http://www.w3.org/1999/xlink" x="0px" y="0px" width="23px" height="23px"
	 viewBox="0 0 23 23" enable-background="new 0 0 23 23" xml:space="preserve">
<ellipse id="ellipse4" fill="#FFFFFF" cx="11.5" cy="11.5" rx="11.5" ry="11.5"/>
<ellipse id="ellipse6" fill="#A9A199" cx="11.5" cy="11.5" rx="10.5" ry="10.5"/>
<g id="g8" transform="translate(4,4)">
	<path id="path7509" fill="#FFFFFF" d="M7.5,0L1,3.4V4h13V3.4L7.5,0z M2,5v5l-1,1.6V13h13v-1.4L13,10V5H2z M4.6,6
		c0.2,0,0.3,0.1,0.5,0.2l2.4,2.4l2.4-2.4c0.2-0.2,0.6-0.2,0.9,0C10.9,6.3,11,6.5,11,6.6v4.2c0,0.3-0.3,0.6-0.6,0.6s-0.6-0.3-0.6-0.6
		l0,0V8.1L7.9,9.9c-0.2,0.2-0.6,0.2-0.9,0L5.2,8.1v2.7c0,0.3-0.3,0.6-0.6,0.6c-0.3,0-0.6-0.3-0.6-0.6l0,0V6.6C4,6.3,4.3,6,4.6,6z"/>
</g>
</svg>
