<?xml version="1.0" encoding="utf-8"?>
<!-- Generator: Adobe Illustrator 17.1.0, SVG Export Plug-In . SVG Version: 6.00 Build 0)  -->
<!DOCTYPE svg PUBLIC "-//W3C//DTD SVG 1.1//EN" "http://www.w3.org/Graphics/SVG/1.1/DTD/svg11.dtd">
<svg version="1.1"
	 id="svg2" xmlns:svg="http://www.w3.org/2000/svg" xmlns:cc="http://creativecommons.org/ns#" xmlns:dc="http://purl.org/dc/elements/1.1/" xmlns:rdf="http://www.w3.org/1999/02/22-rdf-syntax-ns#"
	 xmlns="http://www.w3.org/2000/svg" xmlns:xlink="http://www.w3.org/1999/xlink" x="0px" y="0px" width="19px" height="19px"
	 viewBox="0 0 19 19" enable-background="new 0 0 19 19" xml:space="preserve">
<ellipse id="ellipse4" fill="#FFFFFF" cx="9.5" cy="9.5" rx="9.5" ry="9.5"/>
<ellipse id="ellipse6" fill="#A9A199" cx="9.5" cy="9.5" rx="8.5" ry="8.5"/>
<g id="g8" transform="translate(4,4)">
	<path id="path6818" fill="#FFFFFF" d="M5.5,0L1,2v1h9V2L5.5,0z M2,4v4L1,9v1h9V9L9,8V4H8.5h-6H2z M3.5,5c0.1,0,0.3,0.1,0.4,0.1
		l1.6,1.6l1.6-1.6C7.3,5,7.7,5,7.9,5.1C7.9,5.2,8,5.4,8,5.5v3C8,8.8,7.8,9,7.5,9S7,8.8,7,8.5l0,0V6.7L5.9,7.9C5.7,8,5.3,8,5.1,7.9
		L4,6.7v1.8C4,8.8,3.8,9,3.5,9S3,8.8,3,8.5l0,0v-3C3,5.2,3.2,5,3.5,5z"/>
	<path id="path6850" fill="#FFFFFF" d="M85.5,0.5l-4,1.5v1h8V2L85.5,0.5z M82.5,4H82v4l-0.5,1v1h8V9L89,8V4h-0.5H82.5z"/>
	<path id="path6852" fill="none" stroke="#FFFFFF" stroke-linecap="round" stroke-linejoin="round" d="M83.5,8.5v-3l2,2l2-2v3"/>
</g>
</svg>
