<?xml version="1.0" encoding="utf-8"?>
<!-- Generator: Adobe Illustrator 17.0.0, SVG Export Plug-In . SVG Version: 6.00 Build 0)  -->
<!DOCTYPE svg PUBLIC "-//W3C//DTD SVG 1.1//EN" "http://www.w3.org/Graphics/SVG/1.1/DTD/svg11.dtd">
<svg version="1.1"
	 id="svg2" xmlns:svg="http://www.w3.org/2000/svg" xmlns:cc="http://creativecommons.org/ns#" xmlns:dc="http://purl.org/dc/elements/1.1/" xmlns:rdf="http://www.w3.org/1999/02/22-rdf-syntax-ns#"
	 xmlns="http://www.w3.org/2000/svg" xmlns:xlink="http://www.w3.org/1999/xlink" x="0px" y="0px" width="19px" height="19px"
	 viewBox="0 0 19 19" enable-background="new 0 0 19 19" xml:space="preserve">
<g>
	<path fill="#FFFFFF" d="M9.5,0C4.253,0,0,4.253,0,9.5S4.253,19,9.5,19S19,14.747,19,9.5S14.747,0,9.5,0z M9.5,18
		C4.806,18,1,14.194,1,9.5S4.806,1,9.5,1S18,4.806,18,9.5S14.194,18,9.5,18z"/>
	<path fill="#A9A199" d="M11.1,9.1l-1.6,1.6L7.9,9.1C7.8,9.1,7.6,9,7.5,9C7.2,9,7,9.2,7,9.5v3C7,12.8,7.2,13,7.5,13S8,12.8,8,12.5
		v-1.8l1.1,1.2c0.2,0.1,0.6,0.1,0.8,0l1.1-1.2v1.8c0,0.3,0.2,0.5,0.5,0.5s0.5-0.2,0.5-0.5v-3c0-0.1-0.1-0.3-0.1-0.4
		C11.7,9,11.3,9,11.1,9.1z"/>
	<path fill="#A9A199" d="M9.5,1C4.806,1,1,4.806,1,9.5S4.806,18,9.5,18S18,14.194,18,9.5S14.194,1,9.5,1z M14,14H5v-1l1-1V8h0.5h6
		H13v4l1,1V14z M14,7H5V6l4.5-2L14,6V7z"/>
	<path fill="#FFFFFF" d="M13,8h-0.5h-6H6v4l-1,1v1h9v-1l-1-1V8z M12,12.5c0,0.3-0.2,0.5-0.5,0.5S11,12.8,11,12.5v-1.8l-1.1,1.2
		c-0.2,0.1-0.6,0.1-0.8,0L8,10.7v1.8C8,12.8,7.8,13,7.5,13S7,12.8,7,12.5v-3C7,9.2,7.2,9,7.5,9c0.1,0,0.3,0.1,0.4,0.1l1.6,1.6
		l1.6-1.6c0.2-0.1,0.6-0.1,0.8,0c0,0.1,0.1,0.3,0.1,0.4V12.5z"/>
	<polygon fill="#FFFFFF" points="5,6 5,7 14,7 14,6 9.5,4 	"/>
</g>
</svg>
