<?xml version="1.0" encoding="UTF-8" standalone="no"?>
<svg
   xmlns:dc="http://purl.org/dc/elements/1.1/"
   xmlns:cc="http://creativecommons.org/ns#"
   xmlns:rdf="http://www.w3.org/1999/02/22-rdf-syntax-ns#"
   xmlns:svg="http://www.w3.org/2000/svg"
   xmlns="http://www.w3.org/2000/svg"
   id="svg2"
   width="23"
   height="23"
   viewBox="0 0 23 23"
   version="1.1">
  <metadata
     id="metadata14">
    <rdf:RDF>
      <cc:Work
         rdf:about="">
        <dc:format>image/svg+xml</dc:format>
        <dc:type
           rdf:resource="http://purl.org/dc/dcmitype/StillImage" />
      </cc:Work>
    </rdf:RDF>
  </metadata>
  <defs
     id="defs12" />
  <ellipse
     id="ellipse4"
     ry="11.5"
     rx="11.5"
     cy="11.5"
     cx="11.5"
     style="fill:#ffffff;stroke:none;" />
  <ellipse
     id="ellipse6"
     ry="10.5"
     rx="10.5"
     cy="11.5"
     cx="11.5"
     style="fill:#a9a199;stroke:none;" />
  <g
     id="g8"
     transform="translate(4,4)">
    <metadata     id="metadata55370"><rdf:RDF><cc:Work         rdf:about=""><dc:format>image/svg+xml</dc:format><dc:type           rdf:resource="http://purl.org/dc/dcmitype/StillImage" /><dc:title /></cc:Work></rdf:RDF></metadata><defs     id="defs55368" /><path     id="path7509"     d="M 7.5,0 1,3.4453125 1,4 14,4 14,3.4453125 7.5,0 Z M 2,5 2,10 1,11.554688 1,13 14,13 14,11.554688 13,10 13,5 2,5 Z M 4.6152344,6 A 0.62506256,0.62506256 0 0 1 5.0664062,6.1835938 L 7.5,8.6171875 9.9335938,6.1835938 A 0.62506256,0.62506256 0 0 1 11,6.625 l 0,4.242188 a 0.62506256,0.62506256 0 1 1 -1.25,0 l 0,-2.7343755 -1.8085938,1.8085935 a 0.62506256,0.62506256 0 0 1 -0.8828124,0 L 5.25,8.1328125 l 0,2.7343755 a 0.62506256,0.62506256 0 1 1 -1.25,0 L 4,6.625 A 0.62506256,0.62506256 0 0 1 4.6152344,6 Z"     style="fill:#ffffff;fill-opacity:1;stroke-width:1" />
  </g>
</svg>
