<?xml version="1.0" encoding="utf-8"?>
<!-- Generator: Adobe Illustrator 17.1.0, SVG Export Plug-In . SVG Version: 6.00 Build 0)  -->
<!DOCTYPE svg PUBLIC "-//W3C//DTD SVG 1.1//EN" "http://www.w3.org/Graphics/SVG/1.1/DTD/svg11.dtd">
<svg version="1.1"
	 id="svg2" xmlns:svg="http://www.w3.org/2000/svg" xmlns:cc="http://creativecommons.org/ns#" xmlns:dc="http://purl.org/dc/elements/1.1/" xmlns:rdf="http://www.w3.org/1999/02/22-rdf-syntax-ns#"
	 xmlns="http://www.w3.org/2000/svg" xmlns:xlink="http://www.w3.org/1999/xlink" x="0px" y="0px" width="23px" height="23px"
	 viewBox="0 0 23 23" enable-background="new 0 0 23 23" xml:space="preserve">
<ellipse id="ellipse4" fill="#FFFFFF" cx="11.5" cy="11.5" rx="11.5" ry="11.5"/>
<ellipse id="ellipse6" fill="#A9A199" cx="11.5" cy="11.5" rx="10.5" ry="10.5"/>
<g id="g8" transform="translate(4,4)">
	<path id="path3340" fill="#FFFFFF" d="M13,1L5,2.5c0,0-1,0-1,1V10c0,0-0.3,0-0.5,0C2.1,10,1,11.1,1,12.5S2.1,15,3.5,15
		S6,13.9,6,12.5V7l6-1v2.5c0,0-0.3,0-0.5,0C10.1,8.5,9,9.6,9,11s1.1,2.5,2.5,2.5S14,12.4,14,11c0-1.3,0-2.6,0-3.9V1.5
		C14,1,13,1,13,1z M12,2.7v1.8l-6,1V3.7L12,2.7z"/>
</g>
</svg>
