<svg viewBox="-4 -4 19 19" width="19" height="19" data-reactid=".0.1.1.$music-11=1svg58.0.0"><rect x="-3" y="-3" rx="8.5" ry="8.5" width="17" height="17" stroke="#fff" style="stroke-linejoin:round;stroke-miterlimit:4px;" fill="#fff" stroke-width="2" data-reactid=".0.1.1.$music-11=1svg58.0.0.0"></rect><rect x="-3" y="-3" width="17" height="17" rx="8.5" ry="8.5" fill="#7f7874" data-reactid=".0.1.1.$music-11=1svg58.0.0.1"></rect><path fill="#fff" d="M 10,0 3,1.5 3,4 3,7 A 2,2 0 0 0 1,9 2,2 0 0 0 3,11 2,2 0 0 0 5,9 L 5,3.7148438 8,3.2851562 8,6 a 2,2 0 0 0 -2,2 2,2 0 0 0 2,2 2,2 0 0 0 2,-2 l 0,-5 0,-3 z" data-reactid=".0.1.1.$music-11=1svg58.0.0.3:$music-11=1svg-0-fill"></path></svg>