<svg viewBox="-4 -4 23 23" width="23" height="23" data-reactid=".0.1.1.$music-15=1svg59.0.0"><rect x="-3" y="-3" rx="10.5" ry="10.5" width="21" height="21" stroke="#fff" style="stroke-linejoin:round;stroke-miterlimit:4px;" fill="#fff" stroke-width="2" data-reactid=".0.1.1.$music-15=1svg59.0.0.0"></rect><rect x="-3" y="-3" width="21" height="21" rx="10.5" ry="10.5" fill="#7f7874" data-reactid=".0.1.1.$music-15=1svg59.0.0.1"></rect><path fill="#fff" d="M 13,1 5,2.5 c 0,0 -1,0 -1,1 L 4,10 c 0,0 -0.3320507,8.9e-5 -0.5,0 C 2.1192881,10 1,11.119288 1,12.5 1,13.880712 2.1192881,15 3.5,15 4.8807119,15 6,13.880712 6,12.5 L 6,7 12,6 12,8.5 c 0,0 -0.332051,8.92e-5 -0.5,0 C 10.119288,8.5 9,9.6192881 9,11 c 0,1.380712 1.119288,2.5 2.5,2.5 1.380712,0 2.5,-1.119288 2.5,-2.5 0,-1.3034638 0,-2.6069277 0,-3.9103915 L 14,1.5 C 14,1 13,1 13,1 Z M 12,2.7402344 12,4.5 6,5.5 6,3.7402344 Z" data-reactid=".0.1.1.$music-15=1svg59.0.0.3:$music-15=1svg-0-fill"></path></svg>