<svg xmlns="http://www.w3.org/2000/svg" width="23" height="22" viewBox="0 0 23 22">
  <title>mx-federal</title>
  <g>
    <path d="M11.5,21.5H11.39C8.12,20.75.5,18.21,0.5,10.5a0.5,0.5,0,0,1,.23-0.42A1.89,1.89,0,0,0,1.68,8.5,1.89,1.89,0,0,0,.73,6.92,0.5,0.5,0,0,1,.5,6.5V4A0.5,0.5,0,0,1,.7,3.6l4-3a0.5,0.5,0,0,1,.64,0A5,5,0,0,0,8.25,2,4.63,4.63,0,0,0,11.15.64a0.5,0.5,0,0,1,.67,0A5.44,5.44,0,0,0,14.75,2,4.63,4.63,0,0,0,17.66.64a0.5,0.5,0,0,1,.64,0l4,3a0.5,0.5,0,0,1,.2.4V6.5a0.5,0.5,0,0,1-.23.42,1.89,1.89,0,0,0-.95,1.58,1.89,1.89,0,0,0,.95,1.58,0.5,0.5,0,0,1,.23.41c0.12,8.28-10.77,11-10.88,11H11.5Z" fill="#fff"/>
    <path d="M18,1l4,3V6.5a2.28,2.28,0,0,0,0,4c0.1,7.2-8.82,10.1-10.5,10.5C9.71,20.6,1,18.5,1,10.5a2.28,2.28,0,0,0,0-4V4L5,1A5.41,5.41,0,0,0,8.25,2.5,5.13,5.13,0,0,0,11.5,1a5.71,5.71,0,0,0,3.25,1.5A5.14,5.14,0,0,0,18,1M5,0a1,1,0,0,0-.6.2l-4,3A1,1,0,0,0,0,4V6.5a1,1,0,0,0,.46.84A1.4,1.4,0,0,1,1.18,8.5,1.4,1.4,0,0,1,.46,9.66,1,1,0,0,0,0,10.5C0,13.19,1.1,19.69,11.28,22l0.22,0,0.23,0c0.11,0,11.39-2.81,11.27-11.49a1,1,0,0,0-.46-0.83,1.4,1.4,0,0,1-.72-1.16,1.4,1.4,0,0,1,.72-1.16A1,1,0,0,0,23,6.5V4a1,1,0,0,0-.4-0.8l-4-3a1,1,0,0,0-1.29.08A4.18,4.18,0,0,1,14.75,1.5,4.72,4.72,0,0,1,12.14.23a1,1,0,0,0-1.33,0A4.18,4.18,0,0,1,8.25,1.5,4.48,4.48,0,0,1,5.69.28,1,1,0,0,0,5,0H5Z" fill="#3a3836"/>
  </g>
  <path d="M0.55,4.5h22" fill="none" stroke="#3a3836" stroke-linecap="round" stroke-linejoin="round"/>
</svg>
