<svg xmlns="http://www.w3.org/2000/svg" width="28" height="22" viewBox="0 0 28 22">
  <title>mx-federal</title>
  <rect x="3.26" y="0.5" width="21.47" height="22" fill="#e6e6e6" fill-opacity="0"/>
  <g>
    <path d="M13.91,21.49c-4-.73-13.41-3.26-13.41-11a0.5,0.5,0,0,1,.27-0.44A1.87,1.87,0,0,0,2,8.5,1.87,1.87,0,0,0,.77,6.94,0.5,0.5,0,0,1,.5,6.5V4A0.5,0.5,0,0,1,.74,3.57l5-3a0.5,0.5,0,0,1,.56,0A6.92,6.92,0,0,0,10,2,6.55,6.55,0,0,0,13.69.6a0.5,0.5,0,0,1,.58,0A7.48,7.48,0,0,0,18,2,6.55,6.55,0,0,0,21.7.6a0.5,0.5,0,0,1,.56,0l5,3A0.5,0.5,0,0,1,27.5,4V6.5a0.5,0.5,0,0,1-.27.44A1.87,1.87,0,0,0,26,8.5a1.87,1.87,0,0,0,1.19,1.56,0.5,0.5,0,0,1,.27.44c0.15,8.3-13.27,11-13.41,11H13.91Z" fill="#fff"/>
    <path d="M22,1l5,3V6.5c-1.95,1-1.95,3,0,4C27.13,17.7,16.08,20.6,14,21c-2.21-.4-13-2.5-13-10.5,1.95-1,1.95-3,0-4V4L6,1a7.4,7.4,0,0,0,4,1.5A7,7,0,0,0,14,1a7.83,7.83,0,0,0,4,1.5A7,7,0,0,0,22,1M6,0a1,1,0,0,0-.51.14l-5,3A1,1,0,0,0,0,4V6.5a1,1,0,0,0,.54.89A1.43,1.43,0,0,1,1.46,8.5,1.43,1.43,0,0,1,.54,9.61,1,1,0,0,0,0,10.5C0,18.61,9.67,21.23,13.82,22L14,22l0.19,0c0.14,0,14-2.79,13.81-11.5a1,1,0,0,0-.54-0.87,1.43,1.43,0,0,1-.92-1.11,1.43,1.43,0,0,1,.92-1.11A1,1,0,0,0,28,6.5V4a1,1,0,0,0-.49-0.86l-5-3a1,1,0,0,0-1.12.06A6.05,6.05,0,0,1,18,1.5,7,7,0,0,1,14.56.17a1,1,0,0,0-1.17,0A6.05,6.05,0,0,1,10,1.5,6.38,6.38,0,0,1,6.61.21,1,1,0,0,0,6,0H6Z" fill="#3a3836"/>
  </g>
  <path d="M1,4.5H27" fill="none" stroke="#3a3836" stroke-linecap="round" stroke-linejoin="round"/>
</svg>
