<?xml version="1.0" encoding="utf-8"?>
<!-- Generator: Adobe Illustrator 17.1.0, SVG Export Plug-In . SVG Version: 6.00 Build 0)  -->
<!DOCTYPE svg PUBLIC "-//W3C//DTD SVG 1.1//EN" "http://www.w3.org/Graphics/SVG/1.1/DTD/svg11.dtd">
<svg version="1.1"
	 id="svg4845" xmlns:svg="http://www.w3.org/2000/svg" xmlns:cc="http://creativecommons.org/ns#" xmlns:dc="http://purl.org/dc/elements/1.1/" xmlns:rdf="http://www.w3.org/1999/02/22-rdf-syntax-ns#"
	 xmlns="http://www.w3.org/2000/svg" xmlns:xlink="http://www.w3.org/1999/xlink" x="0px" y="0px" width="17px" height="22px"
	 viewBox="0 0 17 22" enable-background="new 0 0 17 22" xml:space="preserve">
<g id="layer1" transform="translate(-1315,-1620.3622)">
	<rect id="rect5549" x="1315" y="1620.4" fill="#E6E6E6" fill-opacity="0" width="17" height="21"/>
	<path id="path4616" fill="#FFFFFF" stroke="#3A3836" stroke-linecap="round" stroke-linejoin="round" d="M1317.5,1620.9l-2,3v2.5
		c1.5,1,1.5,3,0,4c0,8,6.3,10.1,8,10.5c1.6-0.4,8.1-3.3,8-10.5c-1.5-1-1.5-3,0-4v-2.5l-2-3c-0.8,0.8-1.9,1.5-3,1.5s-2.2-0.8-3-1.5
		c-0.8,0.8-1.9,1.5-3,1.5S1318.2,1621.6,1317.5,1620.9z"/>
	<path id="path5547" fill="none" stroke="#3A3836" stroke-width="1.0307" stroke-linecap="round" stroke-linejoin="round" d="
		M1315.5,1624.9h15.9"/>
</g>
</svg>
