<?xml version="1.0" encoding="utf-8"?>
<!-- Generator: Adobe Illustrator 17.1.0, SVG Export Plug-In . SVG Version: 6.00 Build 0)  -->
<!DOCTYPE svg PUBLIC "-//W3C//DTD SVG 1.1//EN" "http://www.w3.org/Graphics/SVG/1.1/DTD/svg11.dtd">
<svg version="1.1"
	 id="svg4845" xmlns:svg="http://www.w3.org/2000/svg" xmlns:cc="http://creativecommons.org/ns#" xmlns:dc="http://purl.org/dc/elements/1.1/" xmlns:rdf="http://www.w3.org/1999/02/22-rdf-syntax-ns#"
	 xmlns="http://www.w3.org/2000/svg" xmlns:xlink="http://www.w3.org/1999/xlink" x="0px" y="0px" width="25px" height="26px"
	 viewBox="0 0 25 26" enable-background="new 0 0 25 26" xml:space="preserve">
<g id="layer1" transform="translate(-1315.0001,-1616.3622)">
	<rect id="rect5549-2" x="1317.3" y="1616.4" fill="#E6E6E6" fill-opacity="0" width="20.4" height="25"/>
	<path id="path4616-9" fill="#FFFFFF" stroke="#3A3836" stroke-linecap="round" stroke-linejoin="round" d="M1320.3,1616.9l-4.8,3.5
		v3c1.8,1.2,1.8,3.8,0,5c0,9.5,10,12,12,12.5c1.9-0.5,12.1-3.9,12-12.5c-1.8-1.2-1.8-3.8,0-5v-3l-4.8-3.5c-0.9,0.9-2.2,2-3.6,2
		s-2.7-1.1-3.6-2c-0.9,0.9-2.2,2-3.6,2S1321.2,1617.8,1320.3,1616.9z"/>
	<path id="path5547-6" fill="none" stroke="#3A3836" stroke-linecap="round" stroke-linejoin="round" d="M1316.1,1621.9h22.8"/>
</g>
</svg>
