<svg xmlns="http://www.w3.org/2000/svg" width="18" height="22" viewBox="0 0 18 22">
  <title>mx-federal</title>
  <g>
    <path d="M9,21.5H8.89A10.77,10.77,0,0,1,.5,10.5a0.5,0.5,0,0,1,.22-0.42,1.91,1.91,0,0,0,.9-1.58,1.91,1.91,0,0,0-.9-1.58A0.5,0.5,0,0,1,.5,6.5V4A0.5,0.5,0,0,1,.58,3.72l2-3A0.5,0.5,0,0,1,3,.5H3a0.5,0.5,0,0,1,.35.15A4.33,4.33,0,0,0,6,2,4,4,0,0,0,8.65.65a0.5,0.5,0,0,1,.68,0A4.44,4.44,0,0,0,12,2,4,4,0,0,0,14.65.65,0.5,0.5,0,0,1,15,.5h0a0.5,0.5,0,0,1,.37.22l2,3A0.5,0.5,0,0,1,17.5,4V6.5a0.5,0.5,0,0,1-.22.42,1.84,1.84,0,0,0,0,3.17,0.5,0.5,0,0,1,.22.41c0.1,7.24-6.17,10.44-8.38,11Z" fill="#fff"/>
    <path d="M15,1l2,3V6.5a2.34,2.34,0,0,0,0,4c0.1,7.2-6.4,10.1-8,10.5A10.25,10.25,0,0,1,1,10.5a2.34,2.34,0,0,0,0-4V4L3,1A4.81,4.81,0,0,0,6,2.5,4.57,4.57,0,0,0,9,1a5.08,5.08,0,0,0,3,1.5A4.57,4.57,0,0,0,15,1M9,0a1,1,0,0,0-.71.29A3.6,3.6,0,0,1,6,1.5,3.89,3.89,0,0,1,3.71.29,1,1,0,0,0,3,0H2.9a1,1,0,0,0-.73.44l-2,3A1,1,0,0,0,0,4V6.5a1,1,0,0,0,.45.83A1.42,1.42,0,0,1,1.12,8.5,1.42,1.42,0,0,1,.44,9.67,1,1,0,0,0,0,10.5,11.26,11.26,0,0,0,8.77,22L9,22a1,1,0,0,0,.24,0C11.55,21.39,18.1,18,18,10.49a1,1,0,0,0-.45-0.82,1.34,1.34,0,0,1,0-2.34A1,1,0,0,0,18,6.5V4a1,1,0,0,0-.17-0.55l-2-3A1,1,0,0,0,15.1,0H15a1,1,0,0,0-.71.29A3.6,3.6,0,0,1,12,1.5,4.08,4.08,0,0,1,9.66.25,1,1,0,0,0,9,0H9Z" fill="#3a3836"/>
  </g>
  <path d="M1,4.5H17" fill="none" stroke="#3a3836" stroke-linecap="round" stroke-linejoin="round"/>
</svg>
