<?xml version="1.0" encoding="utf-8"?>
<!-- Generator: Adobe Illustrator 17.1.0, SVG Export Plug-In . SVG Version: 6.00 Build 0)  -->
<!DOCTYPE svg PUBLIC "-//W3C//DTD SVG 1.1//EN" "http://www.w3.org/Graphics/SVG/1.1/DTD/svg11.dtd">
<svg version="1.1"
	 id="svg4845" xmlns:svg="http://www.w3.org/2000/svg" xmlns:cc="http://creativecommons.org/ns#" xmlns:dc="http://purl.org/dc/elements/1.1/" xmlns:rdf="http://www.w3.org/1999/02/22-rdf-syntax-ns#"
	 xmlns="http://www.w3.org/2000/svg" xmlns:xlink="http://www.w3.org/1999/xlink" x="0px" y="0px" width="20px" height="26px"
	 viewBox="0 0 20 26" enable-background="new 0 0 20 26" xml:space="preserve">
<g id="layer1" transform="translate(-1312.9956,-1618.3623)">
	<rect id="rect5549" x="1312.9" y="1618.3" fill="#E6E6E6" fill-opacity="0" width="20.4" height="25.2"/>
	<g id="g4707" transform="translate(0,-1)">
		<path id="path4616" fill="#FFFFFF" stroke="#3A3836" stroke-linecap="round" stroke-linejoin="round" d="M1315.9,1619.9l-2.4,3.5
			v3.1c1.8,1.2,1.8,3.7,0,4.9c0,9.6,7.5,12,9.5,12.5c1.9-0.5,9.6-3.8,9.5-12.5c-1.8-1.2-1.8-3.8,0-5v-3l-2.4-3.5
			c-0.9,0.9-2.2,2-3.6,2s-2.7-1.1-3.6-2c-0.9,0.9-2.2,2-3.6,2C1318.1,1621.9,1316.8,1620.8,1315.9,1619.9z"/>
		<path id="path5547" fill="none" stroke="#3A3836" stroke-linecap="round" stroke-linejoin="round" d="M1313.5,1624.9h19"/>
	</g>
</g>
</svg>
