<?xml version="1.0" encoding="utf-8"?>
<!-- Generator: Adobe Illustrator 17.1.0, SVG Export Plug-In . SVG Version: 6.00 Build 0)  -->
<!DOCTYPE svg PUBLIC "-//W3C//DTD SVG 1.1//EN" "http://www.w3.org/Graphics/SVG/1.1/DTD/svg11.dtd">
<svg version="1.1"
	 id="svg4845" xmlns:svg="http://www.w3.org/2000/svg" xmlns:cc="http://creativecommons.org/ns#" xmlns:dc="http://purl.org/dc/elements/1.1/" xmlns:rdf="http://www.w3.org/1999/02/22-rdf-syntax-ns#"
	 xmlns="http://www.w3.org/2000/svg" xmlns:xlink="http://www.w3.org/1999/xlink" x="0px" y="0px" width="30px" height="26px"
	 viewBox="0 0 30 26" enable-background="new 0 0 30 26" xml:space="preserve">
<g id="layer1" transform="translate(-1310.9983,-1616.3604)">
	<g id="g4147" transform="matrix(1.2081731,0,0,1.1998454,-273.01899,-329.21851)">
		<path id="path4616-9" fill="#FFFFFF" stroke="#3A3836" stroke-width="0.8306" stroke-linecap="round" stroke-linejoin="round" d="
			M1316.5,1621.9l-5,2.9v2.5c1.5,1,1.5,3,0,4c0,8,10.3,10.2,12,10.6c1.6-0.4,12.1-3.4,12-10.6c-1.5-1-1.5-3,0-4v-2.5l-5-2.9
			c-0.8,0.8-2.4,1.7-3.5,1.7s-2.8-0.9-3.5-1.7c-0.8,0.8-2.4,1.7-3.5,1.7S1317.3,1622.7,1316.5,1621.9z"/>
		<path id="path5547-6" fill="none" stroke="#3A3836" stroke-width="0.8306" stroke-linecap="round" stroke-linejoin="round" d="
			M1311.9,1626.9h23.2"/>
	</g>
</g>
</svg>
