<?xml version="1.0" encoding="utf-8"?>
<!-- Generator: Adobe Illustrator 17.1.0, SVG Export Plug-In . SVG Version: 6.00 Build 0)  -->
<!DOCTYPE svg PUBLIC "-//W3C//DTD SVG 1.1//EN" "http://www.w3.org/Graphics/SVG/1.1/DTD/svg11.dtd">
<svg version="1.1"
	 id="svg4845" xmlns:svg="http://www.w3.org/2000/svg" xmlns:cc="http://creativecommons.org/ns#" xmlns:dc="http://purl.org/dc/elements/1.1/" xmlns:rdf="http://www.w3.org/1999/02/22-rdf-syntax-ns#"
	 xmlns="http://www.w3.org/2000/svg" xmlns:xlink="http://www.w3.org/1999/xlink" x="0px" y="0px" width="37px" height="26px"
	 viewBox="0 0 37 26" enable-background="new 0 0 37 26" xml:space="preserve">
<g id="layer1" transform="translate(-1307.9993,-1616.3621)">
	<g id="g4147" transform="matrix(1.1998563,0,0,1.1904754,-261.51073,-313.82965)">
		<rect id="rect5549-2" x="1315" y="1621.4" fill="#E6E6E6" fill-opacity="0" width="17" height="21"/>
		<path id="path4616-9" fill="#FFFFFF" stroke="#3A3836" stroke-width="0.8367" stroke-linecap="round" stroke-linejoin="round" d="
			M1314.5,1621.8l-6,3.1v2.5c1.5,1,1.5,3,0,4c0,9,13.3,10.1,15,10.5c1.6-0.4,15.1-2.5,15-10.5c-1.5-1-1.5-3,0-4v-2.5l-6-3.1
			c-0.8,0.8-2.7,1.7-4.5,1.7c-1.6,0-3.8-0.9-4.5-1.7c-0.8,0.8-2.9,1.7-4.5,1.7C1317.3,1623.5,1315.3,1622.5,1314.5,1621.8z"/>
		<path id="path5547-6" fill="none" stroke="#3A3836" stroke-width="0.8367" stroke-linecap="round" stroke-linejoin="round" d="
			M1308.9,1626.8h29.2"/>
	</g>
	<rect id="rect5549" x="1312.7" y="1616.4" fill="#E6E6E6" fill-opacity="0" width="27.5" height="25"/>
</g>
</svg>
