<?xml version="1.0" encoding="utf-8"?>
<!-- Generator: Adobe Illustrator 17.1.0, SVG Export Plug-In . SVG Version: 6.00 Build 0)  -->
<!DOCTYPE svg PUBLIC "-//W3C//DTD SVG 1.1//EN" "http://www.w3.org/Graphics/SVG/1.1/DTD/svg11.dtd">
<svg version="1.1"
	 id="svg4845" xmlns:svg="http://www.w3.org/2000/svg" xmlns:cc="http://creativecommons.org/ns#" xmlns:dc="http://purl.org/dc/elements/1.1/" xmlns:rdf="http://www.w3.org/1999/02/22-rdf-syntax-ns#"
	 xmlns="http://www.w3.org/2000/svg" xmlns:xlink="http://www.w3.org/1999/xlink" x="0px" y="0px" width="25px" height="22px"
	 viewBox="0 0 25 22" enable-background="new 0 0 25 22" xml:space="preserve">
<g id="layer1" transform="translate(-1311,-1620.3622)">
	<g id="g4147" transform="translate(0,-1)">
		<rect id="rect5549-2" x="1315" y="1621.4" fill="#E6E6E6" fill-opacity="0" width="17" height="21"/>
		<path id="path4616-9" fill="#FFFFFF" stroke="#3A3836" stroke-linecap="round" stroke-linejoin="round" d="M1316.5,1621.9l-5,3
			v2.5c1.5,1,1.5,3,0,4c0,8,10.3,10.1,12,10.5c1.6-0.4,12.1-3.3,12-10.5c-1.5-1-1.5-3,0-4v-2.5l-5-3c-0.8,0.8-2.4,1.5-3.5,1.5
			s-2.8-0.8-3.5-1.5c-0.8,0.8-2.4,1.5-3.5,1.5S1317.2,1622.6,1316.5,1621.9z"/>
		<path id="path5547-6" fill="none" stroke="#3A3836" stroke-linecap="round" stroke-linejoin="round" d="M1312,1626.9h23"/>
	</g>
	<rect id="rect5549" x="1312" y="1620.4" fill="#E6E6E6" fill-opacity="0" width="23" height="21"/>
</g>
</svg>
