<?xml version="1.0" encoding="utf-8"?>
<!-- Generator: Adobe Illustrator 17.1.0, SVG Export Plug-In . SVG Version: 6.00 Build 0)  -->
<!DOCTYPE svg PUBLIC "-//W3C//DTD SVG 1.1//EN" "http://www.w3.org/Graphics/SVG/1.1/DTD/svg11.dtd">
<svg version="1.1"
	 id="svg4845" xmlns:svg="http://www.w3.org/2000/svg" xmlns:cc="http://creativecommons.org/ns#" xmlns:dc="http://purl.org/dc/elements/1.1/" xmlns:rdf="http://www.w3.org/1999/02/22-rdf-syntax-ns#"
	 xmlns="http://www.w3.org/2000/svg" xmlns:xlink="http://www.w3.org/1999/xlink" x="0px" y="0px" width="31px" height="22px"
	 viewBox="0 0 31 22" enable-background="new 0 0 31 22" xml:space="preserve">
<g id="layer1" transform="translate(-1308,-1620.3622)">
	<g id="g4147" transform="translate(0,-1)">
		<path id="path4616-9" fill="#FFFFFF" stroke="#3A3836" stroke-linecap="round" stroke-linejoin="round" d="M1314.5,1621.9l-6,3
			v2.5c1.5,1,1.5,3,0,4c0,9,13.3,10.1,15,10.5c1.6-0.4,15.1-2.5,15-10.5c-1.5-1-1.5-3,0-4v-2.5l-6-3c-0.8,0.8-3.4,1.5-4.5,1.5
			s-3.8-0.8-4.5-1.5c-0.8,0.8-3.4,1.5-4.5,1.5S1315.2,1622.6,1314.5,1621.9z"/>
		<path id="path5547-6" fill="none" stroke="#3A3836" stroke-linecap="round" stroke-linejoin="round" d="M1309,1626.9h29"/>
	</g>
</g>
</svg>
