<svg xmlns="http://www.w3.org/2000/svg" width="18" height="22" viewBox="0 0 18 22">
  <title>mx-state</title>
  <g>
    <path d="M9,21.5l-0.12,0C6,20.76.5,17.32,0.5,9.5V1A0.5,0.5,0,0,1,1,.5H17a0.5,0.5,0,0,1,.5.5V9.5a12.81,12.81,0,0,1-8.37,12Z" fill="#fff"/>
    <path d="M17,1V9.5A12.3,12.3,0,0,1,9,21c-1.68-.42-8-3.08-8-11.5V1H17m0-1H1A1,1,0,0,0,0,1V9.5A12.94,12.94,0,0,0,3.67,19a11.76,11.76,0,0,0,5.09,3,1,1,0,0,0,.5,0A13.21,13.21,0,0,0,18,9.49V1a1,1,0,0,0-1-1h0Z" fill="#3a3836"/>
  </g>
  <path d="M0,3.5H18" fill="none" stroke="#3a3836" stroke-linejoin="round"/>
</svg>
