<svg xmlns="http://www.w3.org/2000/svg" width="28" height="22" viewBox="0 0 28 22">
  <title>mx-state</title>
  <g>
    <path d="M13.92,21.49C13.38,21.41.5,19.31,0.5,9.5V1A0.5,0.5,0,0,1,1,.5H27a0.5,0.5,0,0,1,.5.5V9.5c0.14,8.09-11.18,11.63-13.42,12H13.92Z" fill="#fff"/>
    <path d="M27,1V9.5C27.13,17.08,16.6,20.58,14,21,11.27,20.58,1,17.92,1,9.5V1H27m0-1H1A1,1,0,0,0,0,1V9.5c0,3.91,2.06,7.23,6,9.6A23.36,23.36,0,0,0,13.85,22h0.31a24,24,0,0,0,7.9-3.21C26,16.26,28.06,13,28,9.48V1a1,1,0,0,0-1-1h0Z" fill="#3a3836"/>
  </g>
  <path d="M0,3.5H28" fill="none" stroke="#3a3836" stroke-linejoin="round"/>
</svg>
