<?xml version="1.0" encoding="utf-8"?>
<!-- Generator: Adobe Illustrator 17.1.0, SVG Export Plug-In . SVG Version: 6.00 Build 0)  -->
<!DOCTYPE svg PUBLIC "-//W3C//DTD SVG 1.1//EN" "http://www.w3.org/Graphics/SVG/1.1/DTD/svg11.dtd">
<svg version="1.1"
	 id="svg3122" xmlns:svg="http://www.w3.org/2000/svg" xmlns:cc="http://creativecommons.org/ns#" xmlns:dc="http://purl.org/dc/elements/1.1/" xmlns:rdf="http://www.w3.org/1999/02/22-rdf-syntax-ns#" sodipodi:docname="national-rail-15.svg" inkscape:version="0.91+devel+osxmenu r12911" xmlns:inkscape="http://www.inkscape.org/namespaces/inkscape" xmlns:sodipodi="http://sodipodi.sourceforge.net/DTD/sodipodi-0.dtd"
	 xmlns="http://www.w3.org/2000/svg" xmlns:xlink="http://www.w3.org/1999/xlink" x="0px" y="0px" width="17px" height="15px"
	 viewBox="0 0 17 15" enable-background="new 0 0 17 15" xml:space="preserve">
<path fill="#E97474" d="M0,10v2c0,0.6,0.4,1,1,1h7.2l-4.8-3H0z"/>
<polygon fill="#E97474" points="9.4,6 0,6 0,9 3.4,9 "/>
<path fill="#E97474" d="M10,13h4c0.6,0,1-0.4,1-1v-2H5.2L10,13z"/>
<path fill="#E97474" d="M5,2H1C0.4,2,0,2.4,0,3v2h9.8L5,2z"/>
<path fill="#E97474" d="M14,2H6.8l4.8,3H15V3C15,2.4,14.6,2,14,2z"/>
<polygon fill="#E97474" points="5.6,9 15,9 15,6 11.6,6 "/>
<path fill="#FFFFFF" d="M14,1H6.8H5H1c-1.1,0-2,0.9-2,2v2v1v3v1v2c0,1.1,0.9,2,2,2h7.2H10h4c1.1,0,2-0.9,2-2v-2V9V6V5V3
	C16,1.9,15.1,1,14,1z M0,3c0-0.6,0.4-1,1-1h4l4.8,3H0V3z M0,6h9.4l-6,3H0V6z M1,13c-0.6,0-1-0.4-1-1v-2h3.4l4.8,3H1z M15,12
	c0,0.6-0.4,1-1,1h-4l-4.8-3H15V12z M15,9H5.6l6-3H15V9z M15,5h-3.4L6.8,2H14c0.6,0,1,0.4,1,1V5z"/>
</svg>
