<svg xmlns="http://www.w3.org/2000/svg" width="23" height="20" viewBox="0 0 23 20">
  <title>nz-state</title>
  <g>
    <path d="M12,19.5H11.89C10,19.05.5,16.54,0.5,10c0-4.19,1.16-6.3,2.14-7.34A0.5,0.5,0,0,1,3,2.5H20a0.5,0.5,0,0,1,.35.15c1,1,2.15,3,2.15,7.35,0,6.56-8.65,9.05-10.38,9.48Z" fill="#d40000"/>
    <path d="M20,3c1,1,2,3.06,2,7,0,6-8,8.5-10,9-2-.46-11-3-11-9C1,6.06,2.06,4,3,3H20m0-1H3a1,1,0,0,0-.73.32C1.23,3.42,0,5.65,0,10c0,6.93,9.81,9.52,11.78,10L12,20a1,1,0,0,0,.24,0,21.85,21.85,0,0,0,6-2.56C21.37,15.44,23,12.88,23,10c0-4.47-1.25-6.66-2.29-7.71A1,1,0,0,0,20,2h0Z" fill="#fff"/>
  </g>
  <rect width="23" height="20" fill="none"/>
</svg>
