<?xml version="1.0" encoding="utf-8"?>
<!-- Generator: Adobe Illustrator 17.1.0, SVG Export Plug-In . SVG Version: 6.00 Build 0)  -->
<!DOCTYPE svg PUBLIC "-//W3C//DTD SVG 1.1//EN" "http://www.w3.org/Graphics/SVG/1.1/DTD/svg11.dtd">
<svg version="1.1" id="Layer_1" xmlns="http://www.w3.org/2000/svg" xmlns:xlink="http://www.w3.org/1999/xlink" x="0px" y="0px"
	 width="23px" height="22px" viewBox="0 0 23 22" enable-background="new 0 0 23 22" xml:space="preserve">
<g id="shields">
	<g id="path4616_2_">
		<path fill="#D40000" d="M11.3,21.3h-0.1c-0.1,0-9.8-2.1-10.7-10.4C0.2,7.7,2.6,1.1,2.8,0.8C2.9,0.7,3,0.6,3.2,0.6h16.3
			c0.2,0,0.4,0.1,0.4,0.3c0.3,0.6,2.9,5.9,2.5,9.8C21.6,19.2,11.5,21.3,11.3,21.3L11.3,21.3z"/>
		<path fill="#FFFFFF" d="M3.2,1.1L3.2,1.1h16.3c0,0,2.9,5.5,2.5,9.5c-0.8,7.8-9.8,10-10.7,10.2C9.5,20.5,1.7,18,1,10.9
			C0.7,7.7,3.2,1.1,3.2,1.1 M19.5,1.1L19.5,1.1 M19.5,0.2L19.5,0.2H3.2c-0.3,0-0.5,0.1-0.7,0.3C2,1-0.3,7.8,0,11
			c0.3,3.3,2.1,6.1,5.1,8.2c2.3,1.6,4.8,2.4,5.9,2.6c0.1,0,0.1,0,0.2,0c0.1,0,0.1,0,0.2,0c0.1,0,2.9-0.6,5.7-2.4
			c3.4-2.1,5.4-5.2,5.7-8.7c0.4-3.9-2-8.9-2.5-10C20.3,0.4,19.9,0.2,19.5,0.2L19.5,0.2z"/>
	</g>
</g>
<g id="Layer_4" display="none">
</g>
<g id="ref" display="none">
	<rect x="-1" y="7.8" display="inline" fill="none" width="24" height="6.5"/>
	<text transform="matrix(1 0 0 1 3.4276 14.1634)" display="inline" fill="#3A3836" font-family="'ArialMT'" font-size="9">45D</text>
</g>
<g id="ref_outlines" display="none">
	<g display="inline">
		<path fill="#3A3836" d="M6.8,14.2h-1l-1.2-3.9l-1.2,3.9h-1L0.7,7.8H2l1,4l1.2-4h0.9l1.2,4l1-4h1.3L6.8,14.2z"/>
		<path fill="#3A3836" d="M14.8,14.2h-1l-1.2-3.9l-1.2,3.9h-1L8.7,7.8H10l1,4l1.2-4h0.9l1.2,4l1-4h1.3L14.8,14.2z"/>
		<path fill="#3A3836" d="M20.6,13.3v0.9h-1.1v-0.9h-2.6v-1.1l2.2-4.4h1.3l-2.2,4.4h1.3V11h1.1v1.2h0.6v1.1H20.6z"/>
	</g>
</g>
<g id="not_needed" display="none">
</g>
</svg>
