<?xml version="1.0" encoding="utf-8"?>
<!-- Generator: Adobe Illustrator 17.1.0, SVG Export Plug-In . SVG Version: 6.00 Build 0)  -->
<!DOCTYPE svg PUBLIC "-//W3C//DTD SVG 1.1//EN" "http://www.w3.org/Graphics/SVG/1.1/DTD/svg11.dtd">
<svg version="1.1" id="Layer_1" xmlns="http://www.w3.org/2000/svg" xmlns:xlink="http://www.w3.org/1999/xlink" x="0px" y="0px"
	 width="18px" height="22px" viewBox="0 0 18 22" enable-background="new 0 0 18 22" xml:space="preserve">
<g id="shields">
	<g id="path4616_1_">
		<path fill="#D40000" d="M8.7,20.4c-0.1,0-7.5-1.7-8.1-8.3C0.4,9.4,1.9,4.2,2.1,4c0.1-0.1,0.2-0.1,0.3-0.1h13
			c0.1,0,0.3,0.1,0.4,0.2c0.2,0.5,1.9,4.7,1.6,7.8c-0.7,6.8-8.4,8.5-8.5,8.5C8.9,20.4,8.9,20.4,8.7,20.4C8.8,20.4,8.8,20.4,8.7,20.4
			z"/>
		<path fill="#FFFFFF" d="M2.4,4.2L2.4,4.2h13c0,0,1.9,4.4,1.6,7.6c-0.6,6.3-7.4,8-8.2,8.2c-1.4-0.3-7.3-2.3-7.8-8
			C0.8,9.4,2.3,4.2,2.4,4.2 M15.4,4.2L15.4,4.2 M15.4,3.4L15.4,3.4h-13C2.2,3.4,2,3.5,1.8,3.7C1.4,4.1,0,9.5,0.2,12.1
			c0.7,6.9,8.4,8.7,8.4,8.7c0.1,0,0.1,0,0.2,0c0.1,0,0.1,0,0.2,0c0.1,0,2.3-0.5,4.6-1.9c2.7-1.7,3.9-4.1,4.2-7
			c0.3-3.1-1.2-7.1-1.6-8C16,3.6,15.7,3.4,15.4,3.4L15.4,3.4z"/>
	</g>
</g>
<g id="Layer_4" display="none">
</g>
<g id="ref" display="none">
	<rect y="7.8" display="inline" fill="none" width="18" height="6.5"/>
	<text transform="matrix(1 0 0 1 3.6794 14.1634)" display="inline" fill="#3A3836" font-family="'ArialMT'" font-size="9">2D</text>
</g>
<g id="ref_outlines" display="none">
	<g display="inline">
		<path fill="#3A3836" d="M8.8,14.2h-1l-1.2-3.9l-1.2,3.9h-1L2.6,7.8h1.3l1,4l1.2-4H7l1.2,4l1-4h1.3L8.8,14.2z"/>
		<path fill="#3A3836" d="M14.6,13.3v0.9h-1.1v-0.9h-2.6v-1.1L13,7.8h1.3l-2.2,4.4h1.3V11h1.1v1.2h0.6v1.1H14.6z"/>
	</g>
</g>
<g id="shields_1_">
	<g id="path4616_2_">
		<path fill="#FFFFFF" d="M17.5-28.9L17.5-28.9"/>
	</g>
</g>
</svg>
