<svg xmlns="http://www.w3.org/2000/svg" width="18" height="20" viewBox="0 0 18 20">
  <title>nz-state</title>
  <g>
    <path d="M9,19.5H8.89C6.57,19,.54,16.22.5,10c0-3,1.09-6.16,2.13-7.33A0.5,0.5,0,0,1,3,2.5H15a0.5,0.5,0,0,1,.35.15C16.54,3.83,17.5,7.13,17.5,10c0,5.85-5.48,8.76-8.38,9.48Z" fill="#d40000"/>
    <path d="M15,3c1,1,2,4.08,2,7,0,6-6,8.5-8,9-2-.46-8-3-8-9C1,7.08,2,4.08,3,3H15m0-1H3a1,1,0,0,0-.75.34C1.13,3.61,0,6.82,0,10c0,6.54,6.35,9.41,8.78,10L9,20a1,1,0,0,0,.24,0c3-.76,8.76-3.82,8.76-10,0-3-1-6.42-2.29-7.71A1,1,0,0,0,15,2h0Z" fill="#fff"/>
  </g>
  <rect width="18" height="20" fill="none"/>
</svg>
