<svg xmlns="http://www.w3.org/2000/svg" width="20" height="17" viewBox="0 0 20 17"><title>rails-icons</title><path d="M16.75,15.54H3.34A2.75,2.75,0,0,1,.55,12.84V4.23A2.75,2.75,0,0,1,3.34,1.54H16.75a2.75,2.75,0,0,1,2.8,2.69v8.61A2.75,2.75,0,0,1,16.75,15.54Z" fill="#fff"/><path d="M10,14.75A6.12,6.12,0,0,1,4,8.5a6.12,6.12,0,0,1,6-6.25A6.12,6.12,0,0,1,16,8.5,6.12,6.12,0,0,1,10,14.75Zm0-12A5.62,5.62,0,0,0,4.54,8.5,5.62,5.62,0,0,0,10,14.25,5.62,5.62,0,0,0,15.46,8.5,5.62,5.62,0,0,0,10,2.75Z" fill="#e97475"/><polygon points="18.5 11 1.5 11 1.5 10 17.5 10 17.5 7 1.5 7 1.5 6 18.5 6 18.5 11" fill="#e97475"/></svg>