<?xml version="1.0" encoding="utf-8"?>
<!-- Generator: Adobe Illustrator 17.1.0, SVG Export Plug-In . SVG Version: 6.00 Build 0)  -->
<!DOCTYPE svg PUBLIC "-//W3C//DTD SVG 1.1//EN" "http://www.w3.org/Graphics/SVG/1.1/DTD/svg11.dtd">
<svg version="1.1"
	 id="Layer_1" inkscape:output_extension="org.inkscape.output.svg.inkscape" sodipodi:version="0.32" xmlns:svg="http://www.w3.org/2000/svg" xmlns:cc="http://creativecommons.org/ns#" xmlns:dc="http://purl.org/dc/elements/1.1/" xmlns:rdf="http://www.w3.org/1999/02/22-rdf-syntax-ns#" sodipodi:docname="rer-15.svg" inkscape:version="0.91+devel+osxmenu r12911" xmlns:inkscape="http://www.inkscape.org/namespaces/inkscape" xmlns:sodipodi="http://sodipodi.sourceforge.net/DTD/sodipodi-0.dtd"
	 xmlns="http://www.w3.org/2000/svg" xmlns:xlink="http://www.w3.org/1999/xlink" x="0px" y="0px" width="17px" height="17px"
	 viewBox="0 0 17 17" enable-background="new 0 0 17 17" xml:space="preserve">
<defs>
	
	
		<inkscape:perspective  inkscape:persp3d-origin="200 : 133.33333 : 1" sodipodi:type="inkscape:persp3d" inkscape:vp_x="0 : 200 : 1" inkscape:vp_y="0 : 1000 : 0" inkscape:vp_z="400 : 200 : 1" id="perspective10">
		</inkscape:perspective>
</defs>
<sodipodi:namedview  inkscape:snap-nodes="true" inkscape:snap-bbox-edge-midpoints="true" inkscape:snap-intersection-paths="true" inkscape:window-x="14" inkscape:snap-smooth-nodes="true" inkscape:bbox-nodes="true" inkscape:snap-bbox="true" inkscape:object-nodes="true" inkscape:object-paths="true" inkscape:pageopacity="0.0" inkscape:guide-bbox="true" inkscape:pageshadow="2" inkscape:current-layer="Layer_1" inkscape:window-y="0" inkscape:bbox-paths="true" inkscape:window-maximized="0" guidetolerance="10.0" gridtolerance="10.0" showgrid="true" pagecolor="#ffffff" objecttolerance="10.0" bordercolor="#666666" id="base" showguides="true" inkscape:cy="9.594617" inkscape:zoom="32" borderopacity="1.0" inkscape:cx="6.485116">
	
		<inkscape:grid  type="xygrid" color="#ff0000" snapvisiblegridlinesonly="true" spacingy="0.5" spacingx="0.5" opacity="0.1254902" empspacing="2" id="grid3201" enabled="true" visible="true">
		</inkscape:grid>
</sodipodi:namedview>
<defs>
	
	
		<inkscape:perspective  inkscape:persp3d-origin="200 : 133.33333 : 1" sodipodi:type="inkscape:persp3d" inkscape:vp_x="0 : 200 : 1" inkscape:vp_y="0 : 1000 : 0" inkscape:vp_z="400 : 200 : 1" id="perspective10">
		</inkscape:perspective>
</defs>
<sodipodi:namedview  inkscape:snap-nodes="true" inkscape:snap-bbox-edge-midpoints="true" inkscape:snap-intersection-paths="true" inkscape:window-x="14" inkscape:snap-smooth-nodes="true" inkscape:bbox-nodes="true" inkscape:snap-bbox="true" inkscape:object-nodes="true" inkscape:object-paths="true" inkscape:pageopacity="0.0" inkscape:guide-bbox="true" inkscape:pageshadow="2" inkscape:current-layer="Layer_1" inkscape:window-y="0" inkscape:bbox-paths="true" inkscape:window-maximized="0" guidetolerance="10.0" gridtolerance="10.0" showgrid="true" pagecolor="#ffffff" objecttolerance="10.0" bordercolor="#666666" id="base" showguides="true" inkscape:cy="9.594617" inkscape:zoom="32" borderopacity="1.0" inkscape:cx="6.485116">
	
		<inkscape:grid  type="xygrid" color="#ff0000" snapvisiblegridlinesonly="true" spacingy="0.5" spacingx="0.5" opacity="0.1254902" empspacing="2" id="grid3201" enabled="true" visible="true">
		</inkscape:grid>
</sodipodi:namedview>
<g>
	<path fill="#FFFFFF" d="M13.5,11.2L12.7,9c-0.1,0-0.1,0-0.2,0H12v2c0,0,0,0,0,0c0,0.3-0.2,0.5-0.5,0.5S11,11.3,11,11V8.6
		c0-0.1,0-0.1,0-0.2V6.1c0-0.1,0-0.2,0.1-0.4c0,0,0,0,0,0c0,0,0,0,0,0c0,0,0,0,0,0c0,0,0,0,0,0c0,0,0,0,0,0c0,0,0,0,0,0c0,0,0,0,0,0
		c0.1-0.1,0.2-0.1,0.3-0.1c0,0,0.1,0,0.1,0h0.9c0.5,0,1,0.2,1.3,0.4s0.7,0.8,0.7,1.3c0,0.5-0.2,1-0.5,1.3c-0.1,0.1-0.2,0.2-0.3,0.2
		l0.8,2.1v0c0,0.1,0,0.1,0,0.2c0.3-0.8,0.5-1.6,0.5-2.5C15,4.9,12.1,2,8.5,2S2,4.9,2,8.5S4.9,15,8.5,15c2.6,0,4.8-1.5,5.8-3.6
		c0,0-0.1,0.1-0.1,0.1C13.9,11.6,13.6,11.4,13.5,11.2z M6.2,11.5c-0.3,0.1-0.5,0-0.7-0.3L4.7,9C4.6,9,4.6,9,4.5,9H4v2c0,0,0,0,0,0
		c0,0.3-0.2,0.5-0.5,0.5S3,11.3,3,11V8.6c0-0.1,0-0.1,0-0.2V6.1C3,6,3,5.8,3.1,5.7c0,0,0,0,0,0c0,0,0,0,0,0c0,0,0,0,0,0c0,0,0,0,0,0
		c0,0,0,0,0,0c0,0,0,0,0,0c0,0,0,0,0,0c0.1-0.1,0.2-0.1,0.3-0.1c0,0,0.1,0,0.1,0h0.9c0.5,0,1,0.2,1.3,0.4s0.7,0.8,0.7,1.3
		c0,0.5-0.2,1-0.5,1.3C5.9,8.6,5.8,8.7,5.6,8.7l0.8,2.1c0,0,0,0,0,0C6.6,11.1,6.4,11.4,6.2,11.5z M9.5,8C9.8,8,10,8.2,10,8.5
		S9.8,9,9.5,9H8v1.5h1.5c0.3,0,0.5,0.2,0.5,0.5s-0.2,0.5-0.5,0.5H8c0,0-1,0-1-1v-4c0-1,1-1,1-1h1.5C9.8,5.5,10,5.7,10,6
		S9.8,6.5,9.5,6.5H8V8H9.5z"/>
	<path fill="#FFFFFF" d="M12.5,6.5H12V8h0.5c0.4,0,0.7-0.1,0.8-0.2s0.2-0.3,0.2-0.5c0-0.2-0.1-0.4-0.3-0.5S12.8,6.5,12.5,6.5z"/>
	<path fill="#FFFFFF" d="M4.5,6.5H4V8h0.5c0.4,0,0.7-0.1,0.8-0.2s0.2-0.3,0.2-0.5c0-0.2-0.1-0.4-0.3-0.5S4.8,6.5,4.5,6.5z"/>
	<path fill="#FFFFFF" d="M8.5,0C3.8,0,0,3.8,0,8.5S3.8,17,8.5,17S17,13.2,17,8.5S13.2,0,8.5,0z M8.5,16C4.4,16,1,12.6,1,8.5
		S4.4,1,8.5,1S16,4.4,16,8.5S12.6,16,8.5,16z"/>
	<path fill="#5396C7" d="M8.5,1C4.4,1,1,4.4,1,8.5S4.4,16,8.5,16S16,12.6,16,8.5S12.6,1,8.5,1z M14.3,11.4c-1.1,2.1-3.3,3.6-5.8,3.6
		C4.9,15,2,12.1,2,8.5S4.9,2,8.5,2S15,4.9,15,8.5c0,0.9-0.2,1.7-0.5,2.5C14.5,11.1,14.4,11.3,14.3,11.4z"/>
	<path fill="#5396C7" d="M9.5,6.5C9.8,6.5,10,6.3,10,6S9.8,5.5,9.5,5.5H8c0,0-1,0-1,1v4c0,1,1,1,1,1h1.5c0.3,0,0.5-0.2,0.5-0.5
		s-0.2-0.5-0.5-0.5H8V9h1.5C9.8,9,10,8.8,10,8.5S9.8,8,9.5,8H8V6.5H9.5z"/>
	<path fill="#5396C7" d="M6.5,10.8L5.6,8.7C5.8,8.7,5.9,8.6,6,8.5c0.4-0.3,0.5-0.8,0.5-1.3c0-0.5-0.3-1-0.7-1.3S5,5.5,4.5,5.5H3.6
		c0,0-0.1,0-0.1,0c-0.1,0-0.2,0-0.3,0.1c0,0,0,0,0,0c0,0,0,0,0,0c0,0,0,0,0,0c0,0,0,0,0,0c0,0,0,0,0,0c0,0,0,0,0,0c0,0,0,0,0,0
		C3,5.8,3,6,3,6.1v2.3c0,0.1,0,0.1,0,0.2V11c0,0.3,0.2,0.5,0.5,0.5S4,11.3,4,11c0,0,0,0,0,0V9h0.5c0.1,0,0.1,0,0.2,0l0.9,2.2
		c0.1,0.3,0.4,0.4,0.7,0.3C6.4,11.4,6.6,11.1,6.5,10.8C6.5,10.8,6.5,10.8,6.5,10.8z M5.3,7.8C5.2,7.9,4.9,8,4.5,8H4V6.5h0.5
		c0.3,0,0.5,0.1,0.7,0.2S5.5,7,5.5,7.2C5.5,7.5,5.4,7.7,5.3,7.8z"/>
	<path fill="#5396C7" d="M14.5,10.8L14.5,10.8l-0.8-2.1c0.1-0.1,0.2-0.1,0.3-0.2c0.4-0.3,0.5-0.8,0.5-1.3c0-0.5-0.3-1-0.7-1.3
		S13,5.5,12.5,5.5h-0.9c0,0-0.1,0-0.1,0c-0.1,0-0.2,0-0.3,0.1c0,0,0,0,0,0c0,0,0,0,0,0c0,0,0,0,0,0c0,0,0,0,0,0c0,0,0,0,0,0
		c0,0,0,0,0,0c0,0,0,0,0,0C11,5.8,11,6,11,6.1v2.3c0,0.1,0,0.1,0,0.2V11c0,0.3,0.2,0.5,0.5,0.5S12,11.3,12,11c0,0,0,0,0,0V9h0.5
		c0.1,0,0.1,0,0.2,0l0.9,2.2c0.1,0.3,0.4,0.4,0.6,0.3c0.1,0,0.1-0.1,0.1-0.1c0.1-0.1,0.1-0.2,0.2-0.4C14.5,10.9,14.5,10.9,14.5,10.8
		z M13.3,7.8C13.2,7.9,12.9,8,12.5,8H12V6.5h0.5c0.3,0,0.5,0.1,0.7,0.2s0.3,0.3,0.3,0.5C13.5,7.5,13.4,7.7,13.3,7.8z"/>
	<path fill="#5396C7" d="M14.3,11.4c0.1-0.1,0.2-0.2,0.2-0.4C14.4,11.1,14.4,11.3,14.3,11.4z"/>
</g>
</svg>
