<svg xmlns="http://www.w3.org/2000/svg" width="17" height="17" viewBox="0 0 17 17">
  <title>paris-metro</title>
  <path d="M8.5,0A8.5,8.5,0,1,0,17,8.5,8.49,8.49,0,0,0,8.5,0Zm0,16A7.55,7.55,0,0,1,1,8.5,7.55,7.55,0,0,1,8.5,1,7.55,7.55,0,0,1,16,8.5,7.55,7.55,0,0,1,8.5,16Z" fill="#fff"/>
  <path d="M8.5,2A6.5,6.5,0,1,0,15,8.5,6.49,6.49,0,0,0,8.5,2ZM12,11.7a0.79,0.79,0,0,1-.8.8,0.74,0.74,0,0,1-.8-0.8V7.3L9.1,9A0.91,0.91,0,0,1,7.9,9L6.5,7.3v4.4a0.79,0.79,0,0,1-.8.8A0.67,0.67,0,0,1,5,11.7V5.2a0.75,0.75,0,0,1,.5-0.7,0.78,0.78,0,0,1,.8.2L8.5,7.3l2.2-2.6a0.78,0.78,0,0,1,.8-0.2,0.87,0.87,0,0,1,.5.7v6.5Z" fill="#fff"/>
  <path d="M8.5,1A7.55,7.55,0,0,0,1,8.5,7.55,7.55,0,0,0,8.5,16,7.55,7.55,0,0,0,16,8.5,7.55,7.55,0,0,0,8.5,1Zm0,14.5a7,7,0,0,1-7-7,7,7,0,0,1,7-7,7,7,0,0,1,7,7A7,7,0,0,1,8.5,15.5Z" fill="#5396c7"/>
  <path d="M8.5,1.5a7,7,0,0,0-7,7,7,7,0,0,0,7,7,7,7,0,0,0,7-7A7,7,0,0,0,8.5,1.5ZM8.5,15A6.5,6.5,0,1,1,15,8.5,6.49,6.49,0,0,1,8.5,15Z" fill="#5396c7"/>
  <path d="M11.5,4.5a0.78,0.78,0,0,0-.8.2L8.5,7.3,6.3,4.8a0.67,0.67,0,0,0-.8-0.3,0.87,0.87,0,0,0-.5.7v6.5a0.79,0.79,0,0,0,.8.8,0.74,0.74,0,0,0,.8-0.8V7.3L7.9,9A0.78,0.78,0,0,0,9,9l1.4-1.7v4.4a0.79,0.79,0,0,0,.8.8,0.74,0.74,0,0,0,.8-0.8V5.2A0.87,0.87,0,0,0,11.5,4.5Z" fill="#5396c7"/>
</svg>
