<?xml version="1.0" encoding="utf-8"?>
<!-- Generator: Adobe Illustrator 17.1.0, SVG Export Plug-In . SVG Version: 6.00 Build 0)  -->
<!DOCTYPE svg PUBLIC "-//W3C//DTD SVG 1.1//EN" "http://www.w3.org/Graphics/SVG/1.1/DTD/svg11.dtd">
<svg version="1.1"
	 id="svg3042" xmlns:svg="http://www.w3.org/2000/svg" xmlns:cc="http://creativecommons.org/ns#" xmlns:dc="http://purl.org/dc/elements/1.1/" xmlns:rdf="http://www.w3.org/1999/02/22-rdf-syntax-ns#" sodipodi:docname="rer.transilien-15.svg" inkscape:version="0.91+devel+osxmenu r12911" xmlns:inkscape="http://www.inkscape.org/namespaces/inkscape" xmlns:sodipodi="http://sodipodi.sourceforge.net/DTD/sodipodi-0.dtd"
	 xmlns="http://www.w3.org/2000/svg" xmlns:xlink="http://www.w3.org/1999/xlink" x="0px" y="0px" width="35px" height="17px"
	 viewBox="0 0 35 17" enable-background="new 0 0 35 17" xml:space="preserve">
<sodipodi:namedview  inkscape:window-width="1562" inkscape:window-height="776" inkscape:window-x="64" inkscape:bbox-nodes="true" inkscape:snap-bbox="true" inkscape:pageopacity="0.0" inkscape:document-units="px" inkscape:pageshadow="2" inkscape:current-layer="layer1" inkscape:window-y="23" inkscape:bbox-paths="true" inkscape:window-maximized="0" showgrid="true" pagecolor="#ffffff" bordercolor="#666666" id="base" inkscape:cy="-1.5438045" inkscape:zoom="11.313709" borderopacity="1.0" inkscape:cx="12.722063">
	<inkscape:grid  type="xygrid" snapvisiblegridlinesonly="true" empspacing="2" id="grid2996" enabled="true" visible="true">
		</inkscape:grid>
</sodipodi:namedview>
<g>
	<path fill="#FFFFFF" d="M8.5-1C3.8-1,0,2.8,0,7.5S3.8,16,8.5,16S17,12.2,17,7.5S13.2-1,8.5-1z M8.5,15C4.4,15,1,11.6,1,7.5
		S4.4,0,8.5,0S16,3.4,16,7.5S12.6,15,8.5,15z"/>
	<path fill="#FFFFFF" d="M29,5.5v-1C29,4.2,28.8,4,28.5,4h-4C24.2,4,24,4.2,24,4.5v1C24,5.8,24.2,6,24.5,6h4C28.8,6,29,5.8,29,5.5z"
		/>
	<rect x="24" y="7" fill="#FFFFFF" width="1" height="1"/>
	<rect x="28" y="7" fill="#FFFFFF" width="1" height="1"/>
	<path fill="#FFFFFF" d="M31.6,1H21.4C20.6,1,20,1.6,20,2.4v10.2c0,0.8,0.6,1.4,1.4,1.4h10.2c0.8,0,1.4-0.6,1.4-1.4V2.4
		C33,1.6,32.4,1,31.6,1z M29,12l-1.2-2h-2.5L24,12h-1.5L24,9.5c-0.6,0-1-0.4-1-0.9V3.9C23,3.4,23.4,3,24,3h5c0.6,0,1,0.4,1,0.9v4.6
		c0,0.5-0.4,0.9-1,0.9l1.5,2.5H29z"/>
	<path fill="#FFFFFF" d="M31.6-1H21.4C19.5-1,18,0.5,18,2.4v10.2c0,1.9,1.5,3.4,3.4,3.4h10.2c1.9,0,3.4-1.5,3.4-3.4V2.4
		C35,0.5,33.5-1,31.6-1z M34,12.6c0,1.3-1.1,2.4-2.4,2.4H21.4c-1.3,0-2.4-1.1-2.4-2.4V2.4C19,1.1,20.1,0,21.4,0h10.2
		C32.9,0,34,1.1,34,2.4V12.6z"/>
	<path fill="#FFFFFF" d="M12.5,5.5H12V7h0.5c0.4,0,0.7-0.1,0.8-0.2s0.2-0.3,0.2-0.5c0-0.2-0.1-0.4-0.3-0.5C13,5.6,12.8,5.5,12.5,5.5
		z"/>
	<path fill="#FFFFFF" d="M8.5,1C4.9,1,2,3.9,2,7.5S4.9,14,8.5,14c2.6,0,4.8-1.5,5.8-3.6c0,0-0.1,0.1-0.1,0.1c-0.3,0.1-0.5,0-0.6-0.3
		L12.7,8c-0.1,0-0.1,0-0.2,0H12v2c0,0,0,0,0,0c0,0.3-0.2,0.5-0.5,0.5S11,10.3,11,10V7.6c0-0.1,0-0.1,0-0.2V5.1c0-0.1,0-0.2,0.1-0.4
		c0,0,0,0,0,0c0,0,0,0,0,0c0,0,0,0,0,0c0,0,0,0,0,0c0,0,0,0,0,0c0,0,0,0,0,0c0,0,0,0,0,0c0.1-0.1,0.2-0.1,0.3-0.1v0c0,0,0.1,0,0.1,0
		h0.9c0.5,0,1,0.2,1.3,0.4s0.7,0.8,0.7,1.3c0,0.5-0.2,1-0.5,1.3c-0.1,0.1-0.2,0.2-0.3,0.2l0.8,2.1c0,0,0,0,0,0c0,0.1,0,0.1,0,0.2
		C14.8,9.2,15,8.4,15,7.5C15,3.9,12.1,1,8.5,1z M6.2,10.5c-0.3,0.1-0.5,0-0.6-0.3L4.7,8C4.6,8,4.6,8,4.5,8H4v2c0,0,0,0,0,0
		c0,0.3-0.2,0.5-0.5,0.5S3,10.3,3,10V7.6c0-0.1,0-0.1,0-0.2V5.1c0-0.1,0-0.2,0.1-0.4c0,0,0,0,0,0c0,0,0,0,0,0c0,0,0,0,0,0
		c0,0,0,0,0,0c0,0,0,0,0,0c0,0,0,0,0,0c0,0,0,0,0,0c0.1-0.1,0.2-0.1,0.3-0.1v0c0,0,0.1,0,0.1,0h0.9c0.5,0,1,0.2,1.3,0.4
		s0.7,0.8,0.7,1.3c0,0.5-0.2,1-0.5,1.3C5.9,7.6,5.8,7.7,5.6,7.7l0.8,2.1c0,0,0,0,0,0C6.6,10.1,6.4,10.4,6.2,10.5z M9.5,7
		C9.8,7,10,7.2,10,7.5S9.8,8,9.5,8H8v1.5h1.5C9.8,9.5,10,9.7,10,10s-0.2,0.5-0.5,0.5H8c0,0-1,0-1-1v-4c0-1,1-1,1-1h1.5
		C9.8,4.5,10,4.7,10,5S9.8,5.5,9.5,5.5H8V7H9.5z"/>
	<path fill="#FFFFFF" d="M4.5,5.5H4V7h0.5c0.4,0,0.7-0.1,0.8-0.2s0.2-0.3,0.2-0.5c0-0.2-0.1-0.4-0.3-0.5C5,5.6,4.8,5.5,4.5,5.5z"/>
	<path fill="#5396C7" d="M8.5,0C4.4,0,1,3.4,1,7.5S4.4,15,8.5,15S16,11.6,16,7.5S12.6,0,8.5,0z M8.5,14.5c-3.9,0-7-3.1-7-7
		s3.1-7,7-7s7,3.1,7,7S12.4,14.5,8.5,14.5z"/>
	<path fill="#5396C7" d="M8.5,0.5c-3.9,0-7,3.1-7,7s3.1,7,7,7s7-3.1,7-7S12.4,0.5,8.5,0.5z M14.3,10.4c-1.1,2.1-3.3,3.6-5.8,3.6
		C4.9,14,2,11.1,2,7.5S4.9,1,8.5,1S15,3.9,15,7.5c0,0.9-0.2,1.7-0.5,2.5C14.5,10.1,14.4,10.3,14.3,10.4z"/>
	<path fill="#5396C7" d="M9.5,5.5C9.8,5.5,10,5.3,10,5S9.8,4.5,9.5,4.5H8c0,0-1,0-1,1v4c0,1,1,1,1,1h1.5c0.3,0,0.5-0.2,0.5-0.5
		S9.8,9.5,9.5,9.5H8V8h1.5C9.8,8,10,7.8,10,7.5S9.8,7,9.5,7H8V5.5H9.5z"/>
	<path fill="#5396C7" d="M6.5,9.8L5.6,7.7C5.8,7.7,5.9,7.6,6,7.5c0.4-0.3,0.5-0.8,0.5-1.3c0-0.5-0.3-1-0.7-1.3S5,4.5,4.5,4.5H3.6
		c0,0-0.1,0-0.1,0v0c-0.1,0-0.2,0-0.3,0.1c0,0,0,0,0,0c0,0,0,0,0,0c0,0,0,0,0,0c0,0,0,0,0,0c0,0,0,0,0,0c0,0,0,0,0,0c0,0,0,0,0,0
		C3,4.8,3,4.9,3,5.1v2.3c0,0.1,0,0.1,0,0.2V10c0,0.3,0.2,0.5,0.5,0.5S4,10.3,4,10c0,0,0,0,0,0V8h0.5c0.1,0,0.1,0,0.2,0l0.9,2.2
		c0.1,0.3,0.4,0.4,0.6,0.3C6.4,10.4,6.6,10.1,6.5,9.8C6.5,9.8,6.5,9.8,6.5,9.8z M5.3,6.8C5.2,6.9,4.9,7,4.5,7H4V5.5h0.5
		c0.3,0,0.5,0.1,0.7,0.2C5.4,5.9,5.5,6,5.5,6.2C5.5,6.5,5.4,6.7,5.3,6.8z"/>
	<path fill="#5396C7" d="M14.5,9.8l-0.8-2.1c0.1-0.1,0.2-0.1,0.3-0.2c0.4-0.3,0.5-0.8,0.5-1.3c0-0.5-0.3-1-0.7-1.3S13,4.5,12.5,4.5
		h-0.9c0,0-0.1,0-0.1,0v0c-0.1,0-0.2,0-0.3,0.1c0,0,0,0,0,0c0,0,0,0,0,0c0,0,0,0,0,0c0,0,0,0,0,0c0,0,0,0,0,0c0,0,0,0,0,0
		c0,0,0,0,0,0C11,4.8,11,4.9,11,5.1v2.3c0,0.1,0,0.1,0,0.2V10c0,0.3,0.2,0.5,0.5,0.5S12,10.3,12,10c0,0,0,0,0,0V8h0.5
		c0.1,0,0.1,0,0.2,0l0.9,2.2c0.1,0.3,0.4,0.4,0.6,0.3c0.1,0,0.1-0.1,0.1-0.1c0.1-0.1,0.1-0.2,0.2-0.4C14.5,9.9,14.5,9.9,14.5,9.8
		C14.5,9.8,14.5,9.8,14.5,9.8z M13.3,6.8C13.2,6.9,12.9,7,12.5,7H12V5.5h0.5c0.3,0,0.5,0.1,0.7,0.2c0.2,0.1,0.3,0.3,0.3,0.5
		C13.5,6.5,13.4,6.7,13.3,6.8z"/>
	<path fill="#5396C7" d="M14.5,10c-0.1,0.1-0.1,0.2-0.2,0.4C14.4,10.3,14.5,10.1,14.5,10z"/>
	<path fill="#5396C7" d="M30,8.6V3.9C30,3.4,29.6,3,29,3h-5c-0.6,0-1,0.4-1,0.9v4.6c0,0.5,0.4,0.9,1,0.9L22.5,12H24l1.2-2h2.5l1.2,2
		h1.5L29,9.5C29.6,9.5,30,9.1,30,8.6z M25,8h-1V7h1V8z M24.5,6C24.2,6,24,5.8,24,5.5v-1C24,4.2,24.2,4,24.5,4h4
		C28.8,4,29,4.2,29,4.5v1C29,5.8,28.8,6,28.5,6H24.5z M28,8V7h1v1H28z"/>
	<path fill="#5396C7" d="M31.6,0H21.4C20.1,0,19,1.1,19,2.4v10.2c0,1.3,1.1,2.4,2.4,2.4h10.2c1.3,0,2.4-1.1,2.4-2.4V2.4
		C34,1.1,32.9,0,31.6,0z M33,12.6c0,0.8-0.6,1.4-1.4,1.4H21.4c-0.8,0-1.4-0.6-1.4-1.4V2.4C20,1.6,20.6,1,21.4,1h10.2
		C32.4,1,33,1.6,33,2.4V12.6z"/>
</g>
</svg>
