<?xml version="1.0" encoding="utf-8"?>
<!-- Generator: Adobe Illustrator 17.1.0, SVG Export Plug-In . SVG Version: 6.00 Build 0)  -->
<!DOCTYPE svg PUBLIC "-//W3C//DTD SVG 1.1//EN" "http://www.w3.org/Graphics/SVG/1.1/DTD/svg11.dtd">
<svg version="1.1"
	 id="svg2" xmlns:svg="http://www.w3.org/2000/svg" xmlns:cc="http://creativecommons.org/ns#" xmlns:dc="http://purl.org/dc/elements/1.1/" xmlns:rdf="http://www.w3.org/1999/02/22-rdf-syntax-ns#"
	 xmlns="http://www.w3.org/2000/svg" xmlns:xlink="http://www.w3.org/1999/xlink" x="0px" y="0px" width="23px" height="23px"
	 viewBox="0 0 23 23" enable-background="new 0 0 23 23" xml:space="preserve">
<ellipse id="ellipse4" fill="#FFFFFF" cx="11.5" cy="11.5" rx="11.5" ry="11.5"/>
<ellipse id="ellipse6" fill="#7E9A4C" cx="11.5" cy="11.5" rx="10.5" ry="10.5"/>
<g id="g8" transform="translate(4,4)">
	<path id="path10181" fill="#FFFFFF" d="M7.5,0C7.4,0,7.3,0,7.2,0.1l-4,2.5c-0.3,0.2-0.3,0.6,0,0.8c0,0,0.9,0.5,2,0.8l-4,2.4
		C0.9,6.8,0.9,7.3,1.3,7.5c0,0,1.6,0.5,3.5,0.8l-3.6,1.8c-0.4,0.2-0.4,0.8,0,0.9c0,0,2.7,1.3,5.2,1.5v2C6.5,14.8,6.7,15,7,15h1
		c0.3,0,0.5-0.2,0.5-0.5v-2c2.5-0.2,5.2-1.5,5.2-1.5c0.4-0.2,0.4-0.7,0-0.9l-3.6-1.8C12,8,13.7,7.5,13.7,7.5
		c0.4-0.2,0.4-0.7,0.1-0.9l-4-2.4c1.1-0.3,2-0.8,2-0.8c0.3-0.2,0.3-0.6,0-0.8l-4-2.5C7.7,0,7.6,0,7.5,0z"/>
</g>
</svg>
