<?xml version="1.0" encoding="utf-8"?>
<!-- Generator: Adobe Illustrator 17.1.0, SVG Export Plug-In . SVG Version: 6.00 Build 0)  -->
<!DOCTYPE svg PUBLIC "-//W3C//DTD SVG 1.1//EN" "http://www.w3.org/Graphics/SVG/1.1/DTD/svg11.dtd">
<svg version="1.1"
	 id="svg2" xmlns:svg="http://www.w3.org/2000/svg" xmlns:cc="http://creativecommons.org/ns#" xmlns:dc="http://purl.org/dc/elements/1.1/" xmlns:rdf="http://www.w3.org/1999/02/22-rdf-syntax-ns#"
	 xmlns="http://www.w3.org/2000/svg" xmlns:xlink="http://www.w3.org/1999/xlink" x="0px" y="0px" width="19px" height="19px"
	 viewBox="0 0 19 19" enable-background="new 0 0 19 19" xml:space="preserve">
<ellipse id="ellipse4" fill="#FFFFFF" cx="9.5" cy="9.5" rx="9.5" ry="9.5"/>
<ellipse id="ellipse6" fill="#7E9A4C" cx="9.5" cy="9.5" rx="8.5" ry="8.5"/>
<g id="g8" transform="translate(4,4)">
	<path id="path10189" fill="#FFFFFF" d="M5.5,0C5.4,0,5.3,0,5.2,0.1l-3,2C1.9,2.3,2,2.9,2.4,3l1.5,0.4L1.2,5.1C0.9,5.3,1,5.9,1.4,6
		l2.4,0.7L1.3,8.1C0.9,8.3,0.9,8.9,1.4,9l3.1,0.3v1.2C4.5,10.8,4.7,11,5,11h1c0.3,0,0.5-0.2,0.5-0.5V9.2L9.6,9
		c0.4-0.1,0.5-0.7,0.1-0.9L7.3,6.7L9.6,6c0.4-0.1,0.5-0.7,0.1-0.9L7.2,3.4L8.6,3C9,2.9,9.1,2.3,8.8,2.1l-3-2C5.7,0,5.6,0,5.5,0z"/>
</g>
</svg>
