<svg xmlns="http://www.w3.org/2000/svg" width="18" height="26" viewBox="0 0 18 26">
  <title>pe-national</title>
  <rect width="18" height="26" fill="none"/>
  <path d="M6,19.5A4.37,4.37,0,0,1,9,21a4.38,4.38,0,0,1,3-1.5c1-.16,5-0.5,5-4.5s-2-4-2-7c0-2,.35-2.89,2-4L15,1a4.3,4.3,0,0,1-3,1A4.48,4.48,0,0,1,9,1,4.54,4.54,0,0,1,6,2,4.3,4.3,0,0,1,3,1L1,4A4.35,4.35,0,0,1,3,8c0,3-2,3-2,7S5.06,19.35,6,19.5Z" fill="#fff"/>
  <rect x="-1" y="2" width="20" height="20" fill="none"/>
  <path d="M12,2A4.48,4.48,0,0,1,9,1,4.54,4.54,0,0,1,6,2,4.3,4.3,0,0,1,3,1L1,4A4.21,4.21,0,0,1,2.92,7H15.05A3.68,3.68,0,0,1,17,4L15,1A4.3,4.3,0,0,1,12,2Z" fill="#bf423c"/>
  <path d="M15,1l2,3c-1.65,1.11-2,2-2,4,0,3,2,3,2,7s-4,4.34-5,4.5A4.38,4.38,0,0,0,9,21a4.37,4.37,0,0,0-3-1.5C5.06,19.35,1,19,1,15s2-4,2-7A4.35,4.35,0,0,0,1,4L3,1A4.3,4.3,0,0,0,6,2,4.54,4.54,0,0,0,9,1a4.48,4.48,0,0,0,3,1,4.3,4.3,0,0,0,3-1M3,0H2.88a1,1,0,0,0-.72.44l-2,3A1,1,0,0,0,.42,4.81,3.37,3.37,0,0,1,2,8a4.28,4.28,0,0,1-.77,2.49A7.94,7.94,0,0,0,0,15c0,3.08,1.9,4.92,5.64,5.46l0.2,0a3.39,3.39,0,0,1,2.33,1.07,1,1,0,0,0,1.67,0,3.35,3.35,0,0,1,2.33-1.07l0.19,0C16.1,19.9,18,18.07,18,15a8.1,8.1,0,0,0-1.24-4.56A4.26,4.26,0,0,1,16,8c0-1.75.28-2.31,1.56-3.17a1,1,0,0,0,.28-1.39l-2-3A1,1,0,0,0,15.13,0H15a1,1,0,0,0-.66.25A3.32,3.32,0,0,1,12,1,3.54,3.54,0,0,1,9.67.26a1,1,0,0,0-1.35,0A3.57,3.57,0,0,1,6,1,3.34,3.34,0,0,1,3.68.27,1,1,0,0,0,3,0H3Z" fill="#3a3836"/>
</svg>
