<svg xmlns="http://www.w3.org/2000/svg" width="22" height="26" viewBox="0 0 22 26">
  <title>pe-national</title>
  <rect width="22" height="26" fill="none"/>
  <path d="M8,19.5A4.37,4.37,0,0,1,11,21a4.38,4.38,0,0,1,3-1.5c1-.16,7-0.5,7-4.5s-2-4-2-7c0-2,.35-2.89,2-4L19,1a6.74,6.74,0,0,1-4,1.5A5.88,5.88,0,0,1,11,1,6,6,0,0,1,7,2.5,7,7,0,0,1,3,1L1,4A4.35,4.35,0,0,1,3,8c0,3-2,3-2,7S7.06,19.35,8,19.5Z" fill="#fff"/>
  <rect x="-2" y="3" width="26" height="20" fill="none"/>
  <rect x="-2" y="3" width="26" height="20" fill="none"/>
  <path d="M15,2.5A5.88,5.88,0,0,1,11,1,6,6,0,0,1,7,2.5,7,7,0,0,1,3,1L1,4A4.21,4.21,0,0,1,2.92,7H19.05A3.68,3.68,0,0,1,21,4L19,1A6.74,6.74,0,0,1,15,2.5Z" fill="#bf423c"/>
  <path d="M19,1l2,3c-1.65,1.11-2,2-2,4,0,3,2,3,2,7s-6,4.34-7,4.5A4.38,4.38,0,0,0,11,21a4.37,4.37,0,0,0-3-1.5C7.06,19.35,1,19,1,15s2-4,2-7A4.35,4.35,0,0,0,1,4L3,1A7,7,0,0,0,7,2.5,6,6,0,0,0,11,1a5.88,5.88,0,0,0,4,1.5A6.74,6.74,0,0,0,19,1M3,0a1,1,0,0,0-.83.45l-2,3A1,1,0,0,0,.42,4.81,3.37,3.37,0,0,1,2,8a4.28,4.28,0,0,1-.77,2.49A7.94,7.94,0,0,0,0,15c0,3,2.52,4.85,7.5,5.44l0.34,0a3.39,3.39,0,0,1,2.33,1.07,1,1,0,0,0,1.67,0,3.35,3.35,0,0,1,2.33-1.07l0.35,0C19.48,19.83,22,18,22,15a8.1,8.1,0,0,0-1.24-4.56A4.26,4.26,0,0,1,20,8c0-1.75.28-2.31,1.56-3.17a1,1,0,0,0,.28-1.39l-2-3A1,1,0,0,0,18.45.16l-0.27.18A5.36,5.36,0,0,1,15,1.5,4.89,4.89,0,0,1,11.67.26a1,1,0,0,0-1.35,0A5,5,0,0,1,7,1.5,5.15,5.15,0,0,1,4,.44l-0.47-.3A1,1,0,0,0,3,0H3Z" fill="#3a3836"/>
</svg>
