<svg xmlns="http://www.w3.org/2000/svg" width="23" height="22" viewBox="0 0 23 22">
  <title>mx-state</title>
  <g>
    <path d="M11.41,21.49C7.63,20.77.5,17.34,0.5,9.5V1A0.5,0.5,0,0,1,1,.5H22a0.5,0.5,0,0,1,.5.5V9.5c0.1,7.46-8,11.4-10.9,12H11.41Z" fill="#fff"/>
    <path d="M22,1V9.5c0.1,7.58-8.4,11.08-10.5,11.5C9.29,20.58,1,17.92,1,9.5V1H22m0-1H1A1,1,0,0,0,0,1V9.5C0,17.66,7.4,21.24,11.31,22l0.19,0,0.2,0a17.74,17.74,0,0,0,6.5-3.26C21.39,16.2,23,13,23,9.49V1a1,1,0,0,0-1-1h0Z" fill="#3a3836"/>
  </g>
  <path d="M0,3.5H23" fill="none" stroke="#3a3836" stroke-linejoin="round"/>
</svg>
