<?xml version="1.0" encoding="utf-8"?>
<!-- Generator: Adobe Illustrator 17.1.0, SVG Export Plug-In . SVG Version: 6.00 Build 0)  -->
<!DOCTYPE svg PUBLIC "-//W3C//DTD SVG 1.1//EN" "http://www.w3.org/Graphics/SVG/1.1/DTD/svg11.dtd">
<svg version="1.1"
	 id="svg2" xmlns:svg="http://www.w3.org/2000/svg" xmlns:cc="http://creativecommons.org/ns#" xmlns:dc="http://purl.org/dc/elements/1.1/" xmlns:rdf="http://www.w3.org/1999/02/22-rdf-syntax-ns#"
	 xmlns="http://www.w3.org/2000/svg" xmlns:xlink="http://www.w3.org/1999/xlink" x="0px" y="0px" width="23px" height="23px"
	 viewBox="0 0 23 23" enable-background="new 0 0 23 23" xml:space="preserve">
<ellipse id="ellipse4" fill="#FFFFFF" cx="11.5" cy="11.5" rx="11.5" ry="11.5"/>
<ellipse id="ellipse6" fill="#B28B8B" cx="11.5" cy="11.5" rx="10.5" ry="10.5"/>
<g id="g8" transform="translate(4,4)">
	<g id="g4825" transform="matrix(1.4402238,0,0,1.4402238,-0.43133104,-6.1720257)">
		<path id="path4199" fill="#FFFFFF" d="M3.7,5.7C1.9,5.7,1,7.9,2.3,9.2l3.5,3.5c2,2.1,5-1,2.9-2.9L5.2,6.3C4.9,5.9,4.3,5.7,3.7,5.7
			z M3.8,6.4c0.4,0,0.7,0.2,1,0.4l3.6,3.6c0.5,0.5-0.2,1.2-0.7,0.7L5.8,9.2l-1.2,1.2L2.8,8.7C1.9,7.9,2.5,6.4,3.8,6.4z"/>
	</g>
</g>
</svg>
