<svg viewBox="-298 191 19 19" width="19" height="19" data-reactid=".0.1.1.$pharmacy-11=1svg6.0.0"><rect x="-297" y="192" rx="8.5" ry="8.5" width="17" height="17" stroke="#fff" style="stroke-linejoin:round;stroke-miterlimit:4px;" fill="#fff" stroke-width="2" data-reactid=".0.1.1.$pharmacy-11=1svg6.0.0.0"></rect><rect x="-297" y="192" width="17" height="17" rx="8.5" ry="8.5" fill="#af5858" data-reactid=".0.1.1.$pharmacy-11=1svg6.0.0.1"></rect><path fill="#fff" d="M-291,196c-1.8,0-2.7,2.2-1.4,3.4
	l4.9,5c1.9,1.9,4.7-0.9,2.8-2.8l-4.9-5C-290,196.2-290.5,196-291,196z M-291,196.7c0.3,0,0.7,0.1,0.9,0.4l4.9,4.9
	c0.5,0.5-0.2,1.2-0.7,0.7l-2.5-2.5l-1.1,1.1l-2.5-2.5C-292.7,198.1-292.1,196.7-291,196.7z" data-reactid=".0.1.1.$pharmacy-11=1svg6.0.0.3:$pharmacy-11=1svg-0-fill"></path></svg>