<svg viewBox="-296 189 23 23" width="23" height="23" data-reactid=".0.1.1.$pharmacy-15=1svg7.0.0"><rect x="-295" y="190" rx="10.5" ry="10.5" width="21" height="21" stroke="#fff" style="stroke-linejoin:round;stroke-miterlimit:4px;" fill="#fff" stroke-width="2" data-reactid=".0.1.1.$pharmacy-15=1svg7.0.0.0"></rect><rect x="-295" y="190" width="21" height="21" rx="10.5" ry="10.5" fill="#af5858" data-reactid=".0.1.1.$pharmacy-15=1svg7.0.0.1"></rect><path fill="#fff" d="M-287,195c-2.7,0-4,3.2-2.1,5.1
	l4.9,4.9c2.8,3,7.1-1.4,4.2-4.2l-4.9-4.9C-285.5,195.3-286.2,195-287,195z M-287,196c0.5,0,1,0.2,1.4,0.6l5.1,5.1
	c0.7,0.7-0.3,1.8-1,1l-2.6-2.6l-1.7,1.7l-2.5-2.5C-289.7,198.1-288.8,196-287,196z" data-reactid=".0.1.1.$pharmacy-15=1svg7.0.0.3:$pharmacy-15=1svg-0-fill"></path></svg>