<?xml version="1.0" encoding="utf-8"?>
<!-- Generator: Adobe Illustrator 17.1.0, SVG Export Plug-In . SVG Version: 6.00 Build 0)  -->
<!DOCTYPE svg PUBLIC "-//W3C//DTD SVG 1.1//EN" "http://www.w3.org/Graphics/SVG/1.1/DTD/svg11.dtd">
<svg version="1.1"
	 id="svg2" xmlns:svg="http://www.w3.org/2000/svg" xmlns:cc="http://creativecommons.org/ns#" xmlns:dc="http://purl.org/dc/elements/1.1/" xmlns:rdf="http://www.w3.org/1999/02/22-rdf-syntax-ns#"
	 xmlns="http://www.w3.org/2000/svg" xmlns:xlink="http://www.w3.org/1999/xlink" x="0px" y="0px" width="19px" height="19px"
	 viewBox="0 0 19 19" enable-background="new 0 0 19 19" xml:space="preserve">
<ellipse id="ellipse4" fill="#FFFFFF" cx="9.5" cy="9.5" rx="9.5" ry="9.5"/>
<ellipse id="ellipse6" fill="#B28B8B" cx="9.5" cy="9.5" rx="8.5" ry="8.5"/>
<g id="g8" transform="translate(4,4)">
	<g id="g7">
	</g>
	<g id="g11">
	</g>
	<path id="path4756" fill="#FFFFFF" d="M3,1C1.2,1,0.3,3.2,1.6,4.4l5,5c1.9,2,4.8-0.9,2.8-2.8l-5-5C4,1.2,3.5,1,3,1z M3,1.7
		c0.3,0,0.7,0.1,0.9,0.4l5,5c0.5,0.5-0.2,1.2-0.7,0.7L5.7,5.3L4.6,6.4L2.1,3.9C1.3,3.1,1.9,1.7,3,1.7z"/>
</g>
</svg>
