<svg xmlns="http://www.w3.org/2000/svg" width="20" height="17" viewBox="0 0 20 17"><title>rails-icons</title><rect x="2.5" y="3.5" width="15" height="11" rx="1.5" ry="1.5" fill="#fff"/><path d="M16,15.5H4A2.5,2.5,0,0,1,1.5,13V5A2.5,2.5,0,0,1,4,2.5H16A2.5,2.5,0,0,1,18.5,5v8A2.5,2.5,0,0,1,16,15.5ZM4,4.5a0.5,0.5,0,0,0-.5.5v8a0.5,0.5,0,0,0,.5.5H16a0.5,0.5,0,0,0,.5-0.5V5A0.5,0.5,0,0,0,16,4.5H4Z" fill="#fff"/><rect x="3.75" y="3.5" width="12.47" height="11" fill="#fff"/><path d="M16.09,3.5H12.87L7.79,7.14h4.73l3.68,3.73L12.65,14.5h3.44a1.51,1.51,0,0,0,1.41-1.4V4.91A1.51,1.51,0,0,0,16.09,3.5h0Z" fill="#e97475"/><path d="M3.9,14.5H7.12l5.08-3.63H7.47L3.77,7.14,7.35,3.5H3.9A1.5,1.5,0,0,0,2.5,4.91v8.19A1.5,1.5,0,0,0,3.9,14.5h0Z" fill="#5396c7"/><path d="M8.6,7.48H8.15l2.77,2.81a0.58,0.58,0,0,0,.45.22h0.47L9.06,7.71A0.52,0.52,0,0,0,8.6,7.48h0Z" fill="#e97475"/></svg>