<svg viewBox="-4 -4 19 19" width="19" height="19" data-reactid=".0.1.1.$picnic-site-11=1svg12.0.0"><rect x="-3" y="-3" rx="8.5" ry="8.5" width="17" height="17" stroke="#fff" style="stroke-linejoin:round;stroke-miterlimit:4px;" fill="#fff" stroke-width="2" data-reactid=".0.1.1.$picnic-site-11=1svg12.0.0.0"></rect><rect x="-3" y="-3" width="17" height="17" rx="8.5" ry="8.5" fill="#6b7f33" data-reactid=".0.1.1.$picnic-site-11=1svg12.0.0.1"></rect><path fill="#fff" d="M 2.75 2 C 2.3345 2 2 2.3345 2 2.75 C 2 3.1655 2.3345 3.5 2.75 3.5 L 4 3.5 L 3.5390625 5 L 1.75 5 C 1.3345 5 1 5.3345 1 5.75 C 1 6.1655 1.3345 6.5 1.75 6.5 L 3.0761719 6.5 L 2 10 L 3 10 L 4.0761719 6.5 L 6.9238281 6.5 L 8 10 L 9 10 L 7.9238281 6.5 L 9.25 6.5 C 9.6655 6.5 10 6.1655 10 5.75 C 10 5.3345 9.6655 5 9.25 5 L 7.4609375 5 L 7 3.5 L 8.25 3.5 C 8.6655 3.5 9 3.1655 9 2.75 C 9 2.3345 8.6655 2 8.25 2 L 2.75 2 z M 5 3.5 L 6 3.5 L 6.4609375 5 L 4.5390625 5 L 5 3.5 z " data-reactid=".0.1.1.$picnic-site-11=1svg12.0.0.3:$picnic-site-11=1svg-0-fill"></path></svg>