<?xml version="1.0" encoding="UTF-8" standalone="no"?>
<svg
   xmlns:dc="http://purl.org/dc/elements/1.1/"
   xmlns:cc="http://creativecommons.org/ns#"
   xmlns:rdf="http://www.w3.org/1999/02/22-rdf-syntax-ns#"
   xmlns:svg="http://www.w3.org/2000/svg"
   xmlns="http://www.w3.org/2000/svg"
   id="svg2"
   width="19"
   height="19"
   viewBox="0 0 19 19"
   version="1.1">
  <metadata
     id="metadata14">
    <rdf:RDF>
      <cc:Work
         rdf:about="">
        <dc:format>image/svg+xml</dc:format>
        <dc:type
           rdf:resource="http://purl.org/dc/dcmitype/StillImage" />
      </cc:Work>
    </rdf:RDF>
  </metadata>
  <defs
     id="defs12" />
  <ellipse
     id="ellipse4"
     ry="9.5"
     rx="9.5"
     cy="9.5"
     cx="9.5"
     style="fill:#ffffff;stroke:none;" />
  <ellipse
     id="ellipse6"
     rx="8.5"
     ry="8.5"
     cy="9.5"
     cx="9.5"
     style="fill:#a9a199;stroke:none;" />
  <g
     id="g8"
     transform="translate(4,4)">
    <metadata     id="metadata8"><rdf:RDF><cc:Work         rdf:about=""><dc:format>image/svg+xml</dc:format><dc:type           rdf:resource="http://purl.org/dc/dcmitype/StillImage" /><dc:title /></cc:Work></rdf:RDF></metadata><defs     id="defs6" /><path     id="path8846-6"     d="M 5.5 0 L 3.6992188 1.4003906 L 3.6992188 2.5 L 7.3007812 2.5 L 7.3007812 1.5 L 5.5 0 z M 3.421875 3 L 2.5 4 L 2.5 9 L 8.5 9 L 8.5 4 L 7.578125 3 L 3.421875 3 z M 0.75 4 C 0.33578644 4 0 4.3357864 0 4.75 L 0 9 L 1.5 9 L 1.5 4.75 C 1.5 4.3357864 1.1642136 4 0.75 4 z M 10.25 4 C 9.8357864 4 9.5 4.3357864 9.5 4.75 L 9.5 9 L 11 9 L 11 4.75 C 11 4.3357864 10.664214 4 10.25 4 z "     style="fill:#ffffff;fill-opacity:1" />
  </g>
</svg>
