<svg viewBox="-4 -4 19 19" width="19" height="19" data-reactid=".0.1.1.$place-of-worship-11=1svg60.0.0"><rect x="-3" y="-3" rx="8.5" ry="8.5" width="17" height="17" stroke="#fff" style="stroke-linejoin:round;stroke-miterlimit:4px;" fill="#fff" stroke-width="2" data-reactid=".0.1.1.$place-of-worship-11=1svg60.0.0.0"></rect><rect x="-3" y="-3" width="17" height="17" rx="8.5" ry="8.5" fill="#7f7874" data-reactid=".0.1.1.$place-of-worship-11=1svg60.0.0.1"></rect><path fill="#fff" d="M 5.5 0 L 3.6992188 1.4003906 L 3.6992188 2.5 L 7.3007812 2.5 L 7.3007812 1.5 L 5.5 0 z M 3.421875 3 L 2.5 4 L 2.5 9 L 8.5 9 L 8.5 4 L 7.578125 3 L 3.421875 3 z M 0.75 4 C 0.33578644 4 0 4.3357864 0 4.75 L 0 9 L 1.5 9 L 1.5 4.75 C 1.5 4.3357864 1.1642136 4 0.75 4 z M 10.25 4 C 9.8357864 4 9.5 4.3357864 9.5 4.75 L 9.5 9 L 11 9 L 11 4.75 C 11 4.3357864 10.664214 4 10.25 4 z " data-reactid=".0.1.1.$place-of-worship-11=1svg60.0.0.3:$place-of-worship-11=1svg-0-fill"></path></svg>