<svg viewBox="-4 -4 23 23" width="23" height="23" data-reactid=".0.1.1.$place-of-worship-15=1svg61.0.0"><rect x="-3" y="-3" rx="10.5" ry="10.5" width="21" height="21" stroke="#fff" style="stroke-linejoin:round;stroke-miterlimit:4px;" fill="#fff" stroke-width="2" data-reactid=".0.1.1.$place-of-worship-15=1svg61.0.0.0"></rect><rect x="-3" y="-3" width="21" height="21" rx="10.5" ry="10.5" fill="#7f7874" data-reactid=".0.1.1.$place-of-worship-15=1svg61.0.0.1"></rect><path fill="#fff" d="m 7.5,0 -2,2 0,2 4,0 0,-2 z M 5.5,4.5 4,6 11,6 9.5,4.5 Z M 2,6.5 c -0.5522847,0 -1,0.4477153 -1,1 L 1,13 3,13 3,7.5 C 3,6.9477153 2.5522847,6.5 2,6.5 Z m 2,0 0,6.5 7,0 0,-6.5 z m 9,0 c -0.552285,0 -1,0.4477153 -1,1 l 0,5.5 2,0 0,-5.5 c 0,-0.5522847 -0.447715,-1 -1,-1 z" data-reactid=".0.1.1.$place-of-worship-15=1svg61.0.0.3:$place-of-worship-15=1svg-0-fill"></path></svg>