<?xml version="1.0" encoding="utf-8"?>
<!-- Generator: Adobe Illustrator 17.1.0, SVG Export Plug-In . SVG Version: 6.00 Build 0)  -->
<!DOCTYPE svg PUBLIC "-//W3C//DTD SVG 1.1//EN" "http://www.w3.org/Graphics/SVG/1.1/DTD/svg11.dtd">
<svg version="1.1"
	 id="svg2" xmlns:svg="http://www.w3.org/2000/svg" xmlns:cc="http://creativecommons.org/ns#" xmlns:dc="http://purl.org/dc/elements/1.1/" xmlns:rdf="http://www.w3.org/1999/02/22-rdf-syntax-ns#"
	 xmlns="http://www.w3.org/2000/svg" xmlns:xlink="http://www.w3.org/1999/xlink" x="0px" y="0px" width="23px" height="23px"
	 viewBox="0 0 23 23" enable-background="new 0 0 23 23" xml:space="preserve">
<ellipse id="ellipse4" fill="#FFFFFF" cx="11.5" cy="11.5" rx="11.5" ry="11.5"/>
<ellipse id="ellipse6" fill="#7E9A4C" cx="11.5" cy="11.5" rx="10.5" ry="10.5"/>
<g id="g8" transform="translate(4,4)">
	<path id="path5205" fill="#FFFFFF" d="M3.5,1.5L1,3.5v9c0,0.7,1,0.7,1,0V12h3v0.5c0,0.7,1,0.7,1,0V8V6V3.5L3.5,1.5z M6.5,6.1v2
		c0.3,0,0.5,0.2,0.8,0.4C7.7,8.9,8,9.4,8.4,10s0.8,1.3,1.4,1.9c0.5,0.5,1.2,1,2.2,1c0,0-0.5,0-0.5-0.8v-1.5
		c-0.1-0.1-0.2-0.2-0.3-0.2c-0.4-0.3-0.7-0.9-1.1-1.5C9.7,8.3,9.3,7.6,8.7,7C8.1,6.5,7.4,6.2,6.5,6.1z M2,8h3v1H2V8z M2,10h3v1H2V10
		z M12,11v1.2c0,0,0,0.8,1,0.8s1-0.8,1-0.8V11H12z"/>
	<path id="path5209" fill="#FFFFFF" d="M1,7.8V6.5h3.9v1.3H1z"/>
	<path id="path5213" fill="#FFFFFF" d="M0,0"/>
	<path id="path5239" fill="#FFFFFF" d="M0,0"/>
	<ellipse id="path4804" fill="#FFFFFF" cx="3.5" cy="5.5" rx="1.5" ry="1.5"/>
</g>
</svg>
