<svg viewBox="-4 -4 19 19" width="19" height="19" data-reactid=".0.1.1.$playground-11=1svg14.0.0"><rect x="-3" y="-3" rx="8.5" ry="8.5" width="17" height="17" stroke="#fff" style="stroke-linejoin:round;stroke-miterlimit:4px;" fill="#fff" stroke-width="2" data-reactid=".0.1.1.$playground-11=1svg14.0.0.0"></rect><rect x="-3" y="-3" width="17" height="17" rx="8.5" ry="8.5" fill="#6b7f33" data-reactid=".0.1.1.$playground-11=1svg14.0.0.1"></rect><path fill="#fff" d="M 3 1 L 1 2.5 L 1 9.5 C 1 9.5 1 10 1.5 10 C 2 10 2 9.5 2 9.5 L 2 9 L 4 9 L 4 9.5 C 4 9.5 4 10 4.5 10 C 5 10 5 9.5 5 9.5 L 5 6.5 C 5.487815 6.5 5.7239705 6.6254583 5.9765625 6.8535156 C 6.2291555 7.0815729 6.468051 7.453089 6.734375 7.890625 C 7.000699 8.328161 7.2932591 8.8315189 7.7675781 9.2597656 C 8.2418981 9.6880123 8.928112 10 9.75 10 L 10 10 L 10 8.5 L 9.75 8.5 C 9.262185 8.5 9.0260305 8.3745417 8.7734375 8.1464844 C 8.5208455 7.9184271 8.281949 7.546911 8.015625 7.109375 C 7.749301 6.671839 7.4567409 6.1684811 6.9824219 5.7402344 C 6.5081019 5.3119877 5.821888 5 5 5 L 5 2.5 L 3 1 z M 2 6 L 4 6 L 4 7 L 2 7 L 2 6 z M 2 7.5 L 4 7.5 L 4 8.5 L 2 8.5 L 2 7.5 z " data-reactid=".0.1.1.$playground-11=1svg14.0.0.3:$playground-11=1svg-0-fill"></path></svg>