<svg viewBox="-296 189 23 23" width="23" height="23" data-reactid=".0.1.1.$playground-15=1svg15.0.0"><rect x="-295" y="190" rx="10.5" ry="10.5" width="21" height="21" stroke="#fff" style="stroke-linejoin:round;stroke-miterlimit:4px;" fill="#fff" stroke-width="2" data-reactid=".0.1.1.$playground-15=1svg15.0.0.0"></rect><rect x="-295" y="190" width="21" height="21" rx="10.5" ry="10.5" fill="#6b7f33" data-reactid=".0.1.1.$playground-15=1svg15.0.0.1"></rect><path fill="#fff" d="m -288.5,194.5 -2.5,2 0,9 c 0,0 0,0.5 0.5,0.5 0.5,0 0.5,-0.5 0.5,-0.5 l 0,-0.5 3,0 0,0.5 c 0,0 0,0.5 0.5,0.5 0.5,0 0.5,-0.5 0.5,-0.5 l 0,-4.45581 c 0.49898,0 1.00078,0.25542 1.30078,0.55542 0.4,0.3 0.69961,0.9 1.09961,1.5 0.4,0.6 0.80039,1.30039 1.40039,1.90039 0.5,0.5 1.19922,1 2.19922,1 l 1.5,0 0,-2 c -2.5,0 -3.04895,-1.44355 -3.40039,-2 -0.4,-0.6 -0.80039,-1.30039 -1.40039,-1.90039 C -283.90078,199.49961 -285,199 -286,199 l 0,-2.5 z m -1.5,6.5 3,0 0,1 -3,0 z m 0,2 3,0 0,1 -3,0 z" data-reactid=".0.1.1.$playground-15=1svg15.0.0.3:$playground-15=1svg-0-fill"></path></svg>