<?xml version="1.0" encoding="utf-8"?>
<!-- Generator: Adobe Illustrator 17.1.0, SVG Export Plug-In . SVG Version: 6.00 Build 0)  -->
<!DOCTYPE svg PUBLIC "-//W3C//DTD SVG 1.1//EN" "http://www.w3.org/Graphics/SVG/1.1/DTD/svg11.dtd">
<svg version="1.1"
	 id="svg2" xmlns:svg="http://www.w3.org/2000/svg" xmlns:cc="http://creativecommons.org/ns#" xmlns:dc="http://purl.org/dc/elements/1.1/" xmlns:rdf="http://www.w3.org/1999/02/22-rdf-syntax-ns#"
	 xmlns="http://www.w3.org/2000/svg" xmlns:xlink="http://www.w3.org/1999/xlink" x="0px" y="0px" width="19px" height="19px"
	 viewBox="0 0 19 19" enable-background="new 0 0 19 19" xml:space="preserve">
<ellipse id="ellipse4" fill="#FFFFFF" cx="9.5" cy="9.5" rx="9.5" ry="9.5"/>
<ellipse id="ellipse6" fill="#7E9A4C" cx="9.5" cy="9.5" rx="8.5" ry="8.5"/>
<g id="g8" transform="translate(4,4)">
	<path id="path5096" fill="#FFFFFF" d="M3,1L1,2.5v7c0,0,0,0.5,0.5,0.5S2,9.5,2,9.5V9h2v0.5c0,0,0,0.5,0.5,0.5S5,9.5,5,9.5v-3
		c0.5,0,0.7,0.1,1,0.4c0.3,0.2,0.5,0.6,0.8,1s0.6,0.9,1,1.4C8.3,9.7,9,10,9.8,10H10V8.5H9.8c-0.5,0-0.7-0.1-1-0.4
		C8.5,7.9,8.3,7.5,8,7.1S7.5,6.2,7,5.7C6.5,5.3,5.8,5,5,5V2.5L3,1z M3,3c0.6,0,1,0.4,1,1S3.6,5,3,5S2,4.6,2,4S2.4,3,3,3z M2,6h2v2H2
		V6z"/>
</g>
</svg>
