<?xml version="1.0" encoding="utf-8"?>
<!-- Generator: Adobe Illustrator 17.1.0, SVG Export Plug-In . SVG Version: 6.00 Build 0)  -->
<!DOCTYPE svg PUBLIC "-//W3C//DTD SVG 1.1//EN" "http://www.w3.org/Graphics/SVG/1.1/DTD/svg11.dtd">
<svg version="1.1"
	 id="svg2" xmlns:svg="http://www.w3.org/2000/svg" xmlns:cc="http://creativecommons.org/ns#" xmlns:dc="http://purl.org/dc/elements/1.1/" xmlns:rdf="http://www.w3.org/1999/02/22-rdf-syntax-ns#"
	 xmlns="http://www.w3.org/2000/svg" xmlns:xlink="http://www.w3.org/1999/xlink" x="0px" y="0px" width="23px" height="23px"
	 viewBox="0 0 23 23" enable-background="new 0 0 23 23" xml:space="preserve">
<ellipse id="ellipse4" fill="#FFFFFF" cx="11.5" cy="11.5" rx="11.5" ry="11.5"/>
<ellipse id="ellipse6" fill="#A9A199" cx="11.5" cy="11.5" rx="10.5" ry="10.5"/>
<g id="g8" transform="translate(4,4)">
	<path id="rect4718" fill="#FFFFFF" d="M5.5,1L6,2h5l0.5-1H5.5z M6,2.5v1.2c0,0,0,2.8,2.5,2.8S11,3.8,11,3.8V2.5H6z M2,4
		C1.4,4,1,4.4,1,5v4c0,0.6,0.6,1.1,1.2,1L5,9.4V14l5.9-6.9C10.7,7,10.6,7,10.4,7H6.5L3,7.8V5C3,4.4,2.5,4,2,4z M11.7,7.7L6.4,14H12
		V8.6C12,8.2,11.9,8,11.7,7.7z"/>
</g>
</svg>
