<?xml version="1.0" encoding="utf-8"?>
<!-- Generator: Adobe Illustrator 17.1.0, SVG Export Plug-In . SVG Version: 6.00 Build 0)  -->
<!DOCTYPE svg PUBLIC "-//W3C//DTD SVG 1.1//EN" "http://www.w3.org/Graphics/SVG/1.1/DTD/svg11.dtd">
<svg version="1.1"
	 id="svg2" xmlns:svg="http://www.w3.org/2000/svg" xmlns:cc="http://creativecommons.org/ns#" xmlns:dc="http://purl.org/dc/elements/1.1/" xmlns:rdf="http://www.w3.org/1999/02/22-rdf-syntax-ns#"
	 xmlns="http://www.w3.org/2000/svg" xmlns:xlink="http://www.w3.org/1999/xlink" x="0px" y="0px" width="19px" height="19px"
	 viewBox="0 0 19 19" enable-background="new 0 0 19 19" xml:space="preserve">
<ellipse id="ellipse4" fill="#FFFFFF" cx="9.5" cy="9.5" rx="9.5" ry="9.5"/>
<ellipse id="ellipse6" fill="#A9A199" cx="9.5" cy="9.5" rx="8.5" ry="8.5"/>
<g id="g8" transform="translate(4,4)">
	<path id="circle4929" fill="#FFFFFF" d="M4.5,0.5l0.5,1h3l0.5-1H4.5z M5,2v1c0,0.8,0.7,1.5,1.5,1.5S8,3.8,8,3V2H5z M1.8,3
		C1,3,1,3.8,1,3.8v3c0,0.5,0.5,0.9,1,0.7l2-0.6V10l4-5H5c0,0-0.2,0-0.4,0.1L2.5,5.7v-2C2.5,3.8,2.5,3,1.8,3z M8.8,5.4L5,10h4V6
		C9,5.8,8.9,5.6,8.8,5.4z"/>
</g>
</svg>
