<svg viewBox="-4 -4 19 19" width="19" height="19" data-reactid=".0.1.1.$police-11=1svg62.0.0"><rect x="-3" y="-3" rx="8.5" ry="8.5" width="17" height="17" stroke="#fff" style="stroke-linejoin:round;stroke-miterlimit:4px;" fill="#fff" stroke-width="2" data-reactid=".0.1.1.$police-11=1svg62.0.0.0"></rect><rect x="-3" y="-3" width="17" height="17" rx="8.5" ry="8.5" fill="#7f7874" data-reactid=".0.1.1.$police-11=1svg62.0.0.1"></rect><path fill="#fff" d="m 4.5,0.5 0.5,1 3,0 0.5,-1 z M 5,2 5,3 C 5,3.8284271 5.6715729,4.5 6.5,4.5 7.3284271,4.5 8,3.8284271 8,3 L 8,2 Z M 1.75,3 C 1,3 1,3.75 1,3.75 l 0,3 c 5.63e-4,0.5060345 0.4917804,0.8663252 0.9746094,0.7148438 L 4,6.8261719 4,10 8,5 5,5 c 0,0 -0.1945181,-8e-7 -0.4238281,0.072266 L 2.5,5.7265625 2.5,3.75 C 2.5,3.75 2.5,3 1.75,3 Z M 8.7714844,5.3886719 5,10 9,10 9,6 C 9,5.7647841 8.9064124,5.5590809 8.7714844,5.3886719 Z" data-reactid=".0.1.1.$police-11=1svg62.0.0.3:$police-11=1svg-0-fill"></path></svg>