<svg viewBox="-4 -4 23 23" width="23" height="23" data-reactid=".0.1.1.$post-15=1svg65.0.0"><rect x="-3" y="-3" rx="10.5" ry="10.5" width="21" height="21" stroke="#fff" style="stroke-linejoin:round;stroke-miterlimit:4px;" fill="#fff" stroke-width="2" data-reactid=".0.1.1.$post-15=1svg65.0.0.0"></rect><rect x="-3" y="-3" width="21" height="21" rx="10.5" ry="10.5" fill="#7f7874" data-reactid=".0.1.1.$post-15=1svg65.0.0.1"></rect><path fill="#fff" d="m 1,2.5 c -0.96949151,0 -0.5,0.5 0,1 l 6.5,5 6.5,-5 c 0.5,-0.5 0.881356,-1 0,-1 z M 0,5.171875 0,12 c 0,0.616949 0.47118645,1 1,1 l 13,0 c 0.616949,0 1,-0.471186 1,-1 l 0,-6.828125 c 0.01563,-0.5078125 -1.121094,0.3068964 -3,1.778466 -1.878906,1.4715696 -4.5,3.6 -4.5,3.6 0,0 -2.625,-2.1303835 -4.5,-3.6 C 1.125,5.4807245 0,4.671875 0,5.171875 Z" data-reactid=".0.1.1.$post-15=1svg65.0.0.3:$post-15=1svg-0-fill"></path></svg>