<svg viewBox="-4 -4 23 23" width="23" height="23" data-reactid=".0.1.1.$prison-15=1svg67.0.0"><rect x="-3" y="-3" rx="10.5" ry="10.5" width="21" height="21" stroke="#fff" style="stroke-linejoin:round;stroke-miterlimit:4px;" fill="#fff" stroke-width="2" data-reactid=".0.1.1.$prison-15=1svg67.0.0.0"></rect><rect x="-3" y="-3" width="21" height="21" rx="10.5" ry="10.5" fill="#7f7874" data-reactid=".0.1.1.$prison-15=1svg67.0.0.1"></rect><path fill="#fff" d="M 3.5 1 L 3.5 14 L 12 14 L 12 1 L 3.5 1 z M 9.5 2 L 11 2 L 11 5.5 L 9.5 5.5 L 9.5 2 z M 4.5 2.0546875 L 6 2.0546875 L 6 7 L 4.5 7 L 4.5 2.0546875 z M 7 2.0546875 L 8.5 2.0546875 L 8.5 7 L 7 7 L 7 2.0546875 z M 10.25 6.5 A 0.75 0.75 0 0 1 11 7.25 A 0.75 0.75 0 0 1 10.25 8 A 0.75 0.75 0 0 1 9.5 7.25 A 0.75 0.75 0 0 1 10.25 6.5 z M 7 8 L 8.4726562 8 L 8.5 13 L 7.0273438 13 L 7 8 z M 4.5 8.1660156 L 6 8.1660156 L 6 13 L 4.5 13 L 4.5 8.1660156 z M 9.5 9 L 11 9 L 11 13 L 9.5 13 L 9.5 9 z " data-reactid=".0.1.1.$prison-15=1svg67.0.0.3:$prison-15=1svg-0-fill"></path></svg>