<svg viewBox="-4 -4 19 19" width="19" height="19" data-reactid=".0.1.1.$prison-11=1svg66.0.0"><rect x="-3" y="-3" rx="8.5" ry="8.5" width="17" height="17" stroke="#fff" style="stroke-linejoin:round;stroke-miterlimit:4px;" fill="#fff" stroke-width="2" data-reactid=".0.1.1.$prison-11=1svg66.0.0.0"></rect><rect x="-3" y="-3" width="17" height="17" rx="8.5" ry="8.5" fill="#7f7874" data-reactid=".0.1.1.$prison-11=1svg66.0.0.1"></rect><path fill="#fff" d="M 2 1 L 2 10 L 9 10 L 9 1 L 2 1 z M 3 2 L 4 2 L 4 5 L 3 5 L 3 2 z M 5 2 L 6 2 L 6 5 L 5 5 L 5 2 z M 7 2 L 8 2 L 8 4 L 7 4 L 7 2 z M 7.5 5 A 0.5 0.5 0 0 1 8 5.5 A 0.5 0.5 0 0 1 7.5 6 A 0.5 0.5 0 0 1 7 5.5 A 0.5 0.5 0 0 1 7.5 5 z M 3 6 L 4 6 L 4 9 L 3 9 L 3 6 z M 5 6 L 6 6 L 6 9 L 5 9 L 5 6 z M 7 7 L 8 7 L 8 9 L 7 9 L 7 7 z " data-reactid=".0.1.1.$prison-11=1svg66.0.0.3:$prison-11=1svg-0-fill"></path></svg>