<?xml version="1.0" encoding="utf-8"?>
<!-- Generator: Adobe Illustrator 17.1.0, SVG Export Plug-In . SVG Version: 6.00 Build 0)  -->
<!DOCTYPE svg PUBLIC "-//W3C//DTD SVG 1.1//EN" "http://www.w3.org/Graphics/SVG/1.1/DTD/svg11.dtd">
<svg version="1.1"
	 id="svg2" xmlns:svg="http://www.w3.org/2000/svg" xmlns:cc="http://creativecommons.org/ns#" xmlns:dc="http://purl.org/dc/elements/1.1/" xmlns:rdf="http://www.w3.org/1999/02/22-rdf-syntax-ns#"
	 xmlns="http://www.w3.org/2000/svg" xmlns:xlink="http://www.w3.org/1999/xlink" x="0px" y="0px" width="23px" height="23px"
	 viewBox="0 0 23 23" enable-background="new 0 0 23 23" xml:space="preserve">
<ellipse id="ellipse4" fill="#FFFFFF" cx="11.5" cy="11.5" rx="11.5" ry="11.5"/>
<ellipse id="ellipse6" fill="#A9A199" cx="11.5" cy="11.5" rx="10.5" ry="10.5"/>
<g id="g8" transform="translate(4,4)">
	<path id="rect3607" fill="#FFFFFF" d="M3.5,1v13H12V1H3.5z M9.5,2H11v3.5H9.5V2z M4.5,2.1H6V7H4.5V2.1z M7,2.1h1.5V7H7V2.1z
		 M10.2,6.5c0.4,0,0.8,0.3,0.8,0.8S10.7,8,10.2,8l0,0C9.8,8,9.5,7.7,9.5,7.2l0,0C9.5,6.8,9.8,6.5,10.2,6.5z M7,8h1.5v5H7V8z
		 M4.5,8.2H6V13H4.5V8.2z M9.5,9H11v4H9.5V9z"/>
</g>
</svg>
