<?xml version="1.0" encoding="utf-8"?>
<!-- Generator: Adobe Illustrator 17.1.0, SVG Export Plug-In . SVG Version: 6.00 Build 0)  -->
<!DOCTYPE svg PUBLIC "-//W3C//DTD SVG 1.1//EN" "http://www.w3.org/Graphics/SVG/1.1/DTD/svg11.dtd">
<svg version="1.1"
	 id="svg2" xmlns:svg="http://www.w3.org/2000/svg" xmlns:cc="http://creativecommons.org/ns#" xmlns:dc="http://purl.org/dc/elements/1.1/" xmlns:rdf="http://www.w3.org/1999/02/22-rdf-syntax-ns#"
	 xmlns="http://www.w3.org/2000/svg" xmlns:xlink="http://www.w3.org/1999/xlink" x="0px" y="0px" width="23px" height="23px"
	 viewBox="0 0 23 23" enable-background="new 0 0 23 23" xml:space="preserve">
<path id="rect4" fill="#FFFFFF" d="M3,0h17c1.7,0,3,1.3,3,3v17c0,1.7-1.3,3-3,3H3c-1.7,0-3-1.3-3-3V3C0,1.3,1.3,0,3,0z"/>
<path id="rect6" fill="#9C8EA4" d="M3,1h17c1.1,0,2,0.9,2,2v17c0,1.1-0.9,2-2,2H3c-1.1,0-2-0.9-2-2V3C1,1.9,1.9,1,3,1z"/>
<g id="g8" transform="translate(4,4)">
	<path id="path14245" fill="#FFFFFF" d="M5.5,0C5,0,5,0.5,5,0.5v1C5,1.8,5.2,2,5.5,2S6,1.8,6,1.5V1h1v2H6c0,0-2,0-2,2v3c0,3,3,3,3,3
		h1c0,0,3,0,3-3V5c0-2-2-2-2-2H8V1h1v0.5C9,1.8,9.2,2,9.5,2S10,1.8,10,1.5v-1C10,0,9.5,0,9.5,0H5.5z M7.5,4l2,0.8L10,6.5
		C10.1,7,9.5,7,9.5,7h-4c0,0-0.6,0-0.5-0.5l0.5-1.7L7.5,4z M7.5,8C7.8,8,8,8.2,8,8.5S7.8,9,7.5,9S7,8.8,7,8.5S7.2,8,7.5,8z M4.1,12
		L3,15h1.5l0.4-1h5.2l0.4,1H12l-1.1-3H9.4l0.4,1H5.2l0.4-1H4.1z"/>
</g>
</svg>
