<?xml version="1.0" encoding="utf-8"?>
<!-- Generator: Adobe Illustrator 17.1.0, SVG Export Plug-In . SVG Version: 6.00 Build 0)  -->
<!DOCTYPE svg PUBLIC "-//W3C//DTD SVG 1.1//EN" "http://www.w3.org/Graphics/SVG/1.1/DTD/svg11.dtd">
<svg version="1.1"
	 id="svg2" xmlns:svg="http://www.w3.org/2000/svg" xmlns:cc="http://creativecommons.org/ns#" xmlns:dc="http://purl.org/dc/elements/1.1/" xmlns:rdf="http://www.w3.org/1999/02/22-rdf-syntax-ns#"
	 xmlns="http://www.w3.org/2000/svg" xmlns:xlink="http://www.w3.org/1999/xlink" x="0px" y="0px" width="23px" height="23px"
	 viewBox="0 0 23 23" enable-background="new 0 0 23 23" xml:space="preserve">
<path id="rect4" fill="#FFFFFF" d="M3,0h17c1.7,0,3,1.3,3,3v17c0,1.7-1.3,3-3,3H3c-1.7,0-3-1.3-3-3V3C0,1.3,1.3,0,3,0z"/>
<path id="rect6" fill="#9C8EA4" d="M3,1h17c1.1,0,2,0.9,2,2v17c0,1.1-0.9,2-2,2H3c-1.1,0-2-0.9-2-2V3C1,1.9,1.9,1,3,1z"/>
<g id="g8" transform="translate(4,4)">
	<g id="g14137" transform="matrix(1.3636364,0,0,1.3636364,13.136364,0)">
		<path id="path14003" fill="#FFFFFF" d="M-7.1,0c0,0-1.1,0-1.1,1.1V7c0,1.1,1.1,1.1,1.1,1.1h5.9c0,0,1.1,0,1.1-1.1V1.1
			c0,0,0-1.1-1.1-1.1H-7.1z M-5.4,0.4h2.6c0.1,0,0.2,0.1,0.2,0.2s-0.1,0.2-0.2,0.2h-2.6c-0.1,0-0.2-0.1-0.2-0.2S-5.5,0.4-5.4,0.4z
			 M-6.7,1.5h2.2v3.7h-2.2c-0.7,0-0.7-0.7-0.7-0.7V2.2C-7.4,1.5-6.7,1.5-6.7,1.5z M-3.8,1.5h2.2c0,0,0.7,0,0.7,0.7v2.2
			c0,0.7-0.7,0.7-0.7,0.7h-2.2V1.5z M-6,5.9c0.4,0,0.7,0.3,0.7,0.7S-5.6,7.3-6,7.3S-6.7,7-6.7,6.6S-6.4,5.9-6,5.9z M-2.3,5.9
			c0.4,0,0.7,0.3,0.7,0.7s-0.3,0.7-0.7,0.7S-3,7-3,6.6S-2.7,5.9-2.3,5.9z M-6.6,8.8L-7.4,11h1.1l0.3-0.7h3.9l0.3,0.7h1.1l-0.8-2.2
			h-1.1l0.3,0.7h-3.3l0.3-0.7H-6.6z"/>
	</g>
</g>
</svg>
