<svg viewBox="-3 -3 17 17" width="17" height="17" data-reactid=".0.1.1.$rail-metro-11=1svg7.0.0"><rect x="-2" y="-2" rx="1" ry="1" width="15" height="15" stroke="#fff" style="stroke-linejoin:round;stroke-miterlimit:4px;" fill="#fff" stroke-width="2" data-reactid=".0.1.1.$rail-metro-11=1svg7.0.0.0"></rect><rect x="-2" y="-2" width="15" height="15" rx="1" ry="1" fill="#8363a5" data-reactid=".0.1.1.$rail-metro-11=1svg7.0.0.1"></rect><path fill="#fff" d="M 3.5 0 C 3 0 3 0.5 3 0.5 L 2 5 L 2 6 C 2 7.024394 3 7 3 7 L 8 7 C 8 7 9 7 9 6 L 9 5 L 8 0.5 C 8 0.5 8 0 7.5 0 L 3.5 0 z M 4 1 L 7 1 L 7.5 4 L 3.5 4 L 4 1 z M 3.5 5 A 0.5 0.5 0 0 1 4 5.5 A 0.5 0.5 0 0 1 3.5 6 A 0.5 0.5 0 0 1 3 5.5 A 0.5 0.5 0 0 1 3.5 5 z M 5.25 5 L 5.75 5 C 5.8885 5 6 5.1115 6 5.25 C 6 5.3885 5.8885 5.5 5.75 5.5 L 5.25 5.5 C 5.1115 5.5 5 5.3885 5 5.25 C 5 5.1115 5.1115 5 5.25 5 z M 7.5 5 A 0.5 0.5 0 0 1 8 5.5 A 0.5 0.5 0 0 1 7.5 6 A 0.5 0.5 0 0 1 7 5.5 A 0.5 0.5 0 0 1 7.5 5 z M 3 8 L 2 11 L 3.5 11 L 3.8339844 10 L 7.1660156 10 L 7.5 11 L 9 11 L 8 8 L 6.5 8 L 6.8339844 9 L 4.1660156 9 L 4.5 8 L 3 8 z " data-reactid=".0.1.1.$rail-metro-11=1svg7.0.0.3:$rail-metro-11=1svg-0-fill"></path></svg>