<?xml version="1.0" encoding="utf-8"?>
<!-- Generator: Adobe Illustrator 17.1.0, SVG Export Plug-In . SVG Version: 6.00 Build 0)  -->
<!DOCTYPE svg PUBLIC "-//W3C//DTD SVG 1.1//EN" "http://www.w3.org/Graphics/SVG/1.1/DTD/svg11.dtd">
<svg version="1.1"
	 id="svg2" xmlns:svg="http://www.w3.org/2000/svg" xmlns:cc="http://creativecommons.org/ns#" xmlns:dc="http://purl.org/dc/elements/1.1/" xmlns:rdf="http://www.w3.org/1999/02/22-rdf-syntax-ns#"
	 xmlns="http://www.w3.org/2000/svg" xmlns:xlink="http://www.w3.org/1999/xlink" x="0px" y="0px" width="23px" height="23px"
	 viewBox="0 0 23 23" enable-background="new 0 0 23 23" xml:space="preserve">
<path id="rect4" fill="#FFFFFF" d="M3,0h17c1.7,0,3,1.3,3,3v17c0,1.7-1.3,3-3,3H3c-1.7,0-3-1.3-3-3V3C0,1.3,1.3,0,3,0z"/>
<path id="rect6" fill="#9C8EA4" d="M3,1h17c1.1,0,2,0.9,2,2v17c0,1.1-0.9,2-2,2H3c-1.1,0-2-0.9-2-2V3C1,1.9,1.9,1,3,1z"/>
<g id="g8" transform="translate(4,4)">
	<path id="path5258" fill="#FFFFFF" d="M5.5,0c0,0-0.8,0-1,1L3,6.5V10c0,1,1,1,1,1h7c0,0,1,0,1-1V6.5L10.5,1c-0.3-1-1-1-1-1H5.5z
		 M6.5,1.5h2c0,0,0.5,0,0.8,1L10,6c0.2,1-1,1-1,1H6c0,0-1.2,0-1-1l0.8-3.5C6,1.5,6.5,1.5,6.5,1.5z M5,8c0.6,0,1,0.4,1,1s-0.4,1-1,1
		S4,9.6,4,9S4.4,8,5,8z M6.8,8h1.5c0.1,0,0.2,0.1,0.2,0.2S8.4,8.5,8.2,8.5H6.8c-0.1,0-0.2-0.1-0.2-0.2S6.6,8,6.8,8z M10,8
		c0.6,0,1,0.4,1,1s-0.4,1-1,1S9,9.6,9,9S9.4,8,10,8z M4.1,12L3,15h1.5l0.4-1h5.2l0.4,1H12l-1.1-3H9.4l0.4,1H5.2l0.4-1H4.1z"/>
</g>
</svg>
