<?xml version="1.0" encoding="utf-8"?>
<!-- Generator: Adobe Illustrator 17.1.0, SVG Export Plug-In . SVG Version: 6.00 Build 0)  -->
<!DOCTYPE svg PUBLIC "-//W3C//DTD SVG 1.1//EN" "http://www.w3.org/Graphics/SVG/1.1/DTD/svg11.dtd">
<svg version="1.1"
	 id="svg2" xmlns:svg="http://www.w3.org/2000/svg" xmlns:cc="http://creativecommons.org/ns#" xmlns:dc="http://purl.org/dc/elements/1.1/" xmlns:rdf="http://www.w3.org/1999/02/22-rdf-syntax-ns#"
	 xmlns="http://www.w3.org/2000/svg" xmlns:xlink="http://www.w3.org/1999/xlink" x="0px" y="0px" width="19px" height="19px"
	 viewBox="0 0 19 19" enable-background="new 0 0 19 19" xml:space="preserve">
<path id="rect4" fill="#FFFFFF" d="M3,0h13c1.7,0,3,1.3,3,3v13c0,1.7-1.3,3-3,3H3c-1.7,0-3-1.3-3-3V3C0,1.3,1.3,0,3,0z"/>
<path id="rect6" fill="#9C8EA4" d="M2,1h15c0.6,0,1,0.4,1,1v15c0,0.6-0.4,1-1,1H2c-0.6,0-1-0.4-1-1V2C1,1.4,1.4,1,2,1z"/>
<g id="g8" transform="translate(4,4)">
	<path id="path14200" fill="#FFFFFF" d="M3.5,0C3,0,3,0.5,3,0.5L2,5v1c0,1,1,1,1,1h5c0,0,1,0,1-1V5L8,0.5C8,0.5,8,0,7.5,0H3.5z M4,1
		h3l0.5,3h-4L4,1z M3.5,5C3.8,5,4,5.2,4,5.5S3.8,6,3.5,6S3,5.8,3,5.5S3.2,5,3.5,5z M5.2,5h0.5C5.9,5,6,5.1,6,5.2S5.9,5.5,5.8,5.5
		H5.2C5.1,5.5,5,5.4,5,5.2S5.1,5,5.2,5z M7.5,5C7.8,5,8,5.2,8,5.5S7.8,6,7.5,6S7,5.8,7,5.5S7.2,5,7.5,5z M3,8l-1,3h1.5l0.3-1h3.3
		l0.3,1H9L8,8H6.5l0.3,1H4.2l0.3-1H3z"/>
</g>
</svg>
