<svg viewBox="-3 -3 17 17" width="17" height="17" data-reactid=".0.1.1.$rail-11=1svg5.0.0"><rect x="-2" y="-2" rx="1" ry="1" width="15" height="15" stroke="#fff" style="stroke-linejoin:round;stroke-miterlimit:4px;" fill="#fff" stroke-width="2" data-reactid=".0.1.1.$rail-11=1svg5.0.0.0"></rect><rect x="-2" y="-2" width="15" height="15" rx="1" ry="1" fill="#8363a5" data-reactid=".0.1.1.$rail-11=1svg5.0.0.1"></rect><path fill="#fff" d="M 3.001,0 C 3.001,0 2,0 2,1.001 l 0,4.9995 c 0,1.001 1.001,1.001 1.001,1.001 l 2.49975,0 2.49975,0 c 0,0 1.001,0 1.001,-1.001 l 0,-4.9995 c 0,0 0,-1.001 -1.001,-1.001 L 3.001,0 Z m 0.5005,1.001 1.49875,0 0,3.00025 -1.49875,0 C 3.22375,4.00125 3.001,3.7785 3.001,3.50075 l 0,-2.002 C 3.001,1.22375 3.22375,1.001 3.5015,1.001 Z m 2.49975,0 1.49875,0 c 0.27775,0 0.5005,0.22275 0.5005,0.5005 l 0,1.99925 c 0,0.27775 -0.22275,0.5005 -0.5005,0.5005 l -1.49875,0 0,-3.00025 z M 3.5015,4.9995 c 0.275,0 0.5005,0.22275 0.5005,0.5005 0,0.27775 -0.22275,0.5005 -0.5005,0.5005 C 3.2265,6.0005 3.001,5.77775 3.001,5.5 3.001,5.22225 3.22375,4.9995 3.5015,4.9995 Z m 3.9985,0 C 7.775,4.9995 8.0005,5.22225 8.0005,5.5 8.0005,5.77775 7.77775,6.0005 7.5,6.0005 7.225,6.0005 6.9995,5.77775 6.9995,5.5 6.9995,5.22225 7.225,4.9995 7.5,4.9995 Z M 3.001,7.99975 2,11 3.49875,11 3.8315,9.999 l 3.333,0 L 7.49725,11 8.996,11 7.995,7.99975 l -1.49875,0 0.33275,1.001 -2.6675,0 0.33275,-1.001 -1.49325,0 z" data-reactid=".0.1.1.$rail-11=1svg5.0.0.3:$rail-11=1svg-0-fill"></path></svg>