<?xml version="1.0" encoding="utf-8"?>
<!-- Generator: Adobe Illustrator 17.1.0, SVG Export Plug-In . SVG Version: 6.00 Build 0)  -->
<!DOCTYPE svg PUBLIC "-//W3C//DTD SVG 1.1//EN" "http://www.w3.org/Graphics/SVG/1.1/DTD/svg11.dtd">
<svg version="1.1"
	 id="svg4764" xmlns:svg="http://www.w3.org/2000/svg" xmlns:cc="http://creativecommons.org/ns#" xmlns:dc="http://purl.org/dc/elements/1.1/" xmlns:rdf="http://www.w3.org/1999/02/22-rdf-syntax-ns#" sodipodi:docname="rail-11.svg" inkscape:version="0.91+devel+osxmenu r12911" xmlns:inkscape="http://www.inkscape.org/namespaces/inkscape" xmlns:sodipodi="http://sodipodi.sourceforge.net/DTD/sodipodi-0.dtd"
	 xmlns="http://www.w3.org/2000/svg" xmlns:xlink="http://www.w3.org/1999/xlink" x="0px" y="0px" width="21px" height="21px"
	 viewBox="0 0 21 21" enable-background="new 0 0 21 21" xml:space="preserve">
<path fill="#FFFFFF" d="M17,1H4C2.3,1,1,2.3,1,4v13c0,1.7,1.3,3,3,3h13c1.7,0,3-1.3,3-3V4C20,2.3,18.7,1,17,1z M19,17
	c0,1.1-0.9,2-2,2H4c-1.1,0-2-0.9-2-2V4c0-1.1,0.9-2,2-2h13c1.1,0,2,0.9,2,2V17z"/>
<circle fill="#9C8EA4" cx="12.5" cy="10.5" r="0.5"/>
<path fill="#9C8EA4" d="M8,6.5v2C8,8.8,8.2,9,8.5,9H10V6H8.5C8.2,6,8,6.2,8,6.5z"/>
<circle fill="#9C8EA4" cx="8.5" cy="10.5" r="0.5"/>
<path fill="#9C8EA4" d="M17,2H4C2.9,2,2,2.9,2,4v13c0,1.1,0.9,2,2,2h13c1.1,0,2-0.9,2-2V4C19,2.9,18.1,2,17,2z M12.5,16l-0.3-1H8.8
	l-0.3,1H7l1-3h1.5l-0.3,1h2.7l-0.3-1H13l1,3H12.5z M14,11c0,1-1,1-1,1h-2.5H8c0,0-1,0-1-1V6c0-1,1-1,1-1h5c1,0,1,1,1,1V11z"/>
<path fill="#9C8EA4" d="M12.5,6H11v3h1.5C12.8,9,13,8.8,13,8.5v-2C13,6.2,12.8,6,12.5,6z"/>
<polygon fill="#FFFFFF" points="11.5,13 11.8,14 9.2,14 9.5,13 8,13 7,16 8.5,16 8.8,15 12.2,15 12.5,16 14,16 13,13 "/>
<path fill="#FFFFFF" d="M13,5H8c0,0-1,0-1,1v5c0,1,1,1,1,1h2.5H13c0,0,1,0,1-1V6C14,6,14,5,13,5z M8.5,11C8.2,11,8,10.8,8,10.5
	S8.2,10,8.5,10S9,10.2,9,10.5S8.8,11,8.5,11z M10,9H8.5C8.2,9,8,8.8,8,8.5v-2C8,6.2,8.2,6,8.5,6H10V9z M12.5,11
	c-0.3,0-0.5-0.2-0.5-0.5s0.2-0.5,0.5-0.5s0.5,0.2,0.5,0.5S12.8,11,12.5,11z M13,8.5C13,8.8,12.8,9,12.5,9H11V6h1.5
	C12.8,6,13,6.2,13,6.5V8.5z"/>
</svg>
