<?xml version="1.0" encoding="UTF-8" standalone="no"?>
<svg
   xmlns:dc="http://purl.org/dc/elements/1.1/"
   xmlns:cc="http://creativecommons.org/ns#"
   xmlns:rdf="http://www.w3.org/1999/02/22-rdf-syntax-ns#"
   xmlns:svg="http://www.w3.org/2000/svg"
   xmlns="http://www.w3.org/2000/svg"
   id="svg2"
   width="24"
   height="24"
   viewBox="0 0 24 24"
   version="1.1">
  <metadata
     id="metadata14">
    <rdf:RDF>
      <cc:Work
         rdf:about="">
        <dc:format>image/svg+xml</dc:format>
        <dc:type
           rdf:resource="http://purl.org/dc/dcmitype/StillImage" />
      </cc:Work>
    </rdf:RDF>
  </metadata>
  <defs
     id="defs12" />
  <rect
     id="rect4"
     ry="3"
     rx="3"
     height="24"
     width="24"
     y="0"
     x="0"
     style="fill:#ffffff;stroke:none;" />
  <rect
     id="rect6"
     ry="2"
     rx="2"
     height="20"
     width="20"
     y="2"
     x="2"
     style="fill:#9c8ea4;stroke:none;" />
  <g
     id="g8"
     transform="translate(4.5,4)">
    <metadata     id="metadata8"><rdf:RDF><cc:Work         rdf:about=""><dc:format>image/svg+xml</dc:format><dc:type           rdf:resource="http://purl.org/dc/dcmitype/StillImage" /><dc:title /></cc:Work></rdf:RDF></metadata><defs     id="defs6" /><path     id="path14245"     d="M 5.5 0 C 5 0 5 0.5 5 0.5 L 5 1.5 C 5 1.777 5.223 2 5.5 2 C 5.777 2 6 1.777 6 1.5 L 6 1 L 7 1 L 7 3 L 6 3 C 6 3 4 3 4 5 L 4 8 C 4 11 7 11 7 11 L 8 11 C 8 11 11 11 11 8 L 11 5 C 11 3 9 3 9 3 L 8 3 L 8 1 L 9 1 L 9 1.5 C 9 1.777 9.223 2 9.5 2 C 9.777 2 10 1.777 10 1.5 L 10 0.5 C 10 0 9.5 0 9.5 0 L 5.5 0 z M 7.5 4 L 9.5449219 4.7734375 L 10 6.5 C 10.131579 7 9.5 7 9.5 7 L 5.5 7 C 5.5 7 4.8684211 7 5 6.5 L 5.4550781 4.7734375 L 7.5 4 z M 7.5 8 C 7.7761424 8 8 8.2238576 8 8.5 C 8 8.7761424 7.7761424 9 7.5 9 C 7.2238576 9 7 8.7761424 7 8.5 C 7 8.2238576 7.2238576 8 7.5 8 z M 4.125 12 L 3 15 L 4.5 15 L 4.875 14 L 10.125 14 L 10.5 15 L 12 15 L 10.875 12 L 9.375 12 L 9.75 13 L 5.25 13 L 5.625 12 L 4.125 12 z "     style="opacity:1;fill:#ffffff;fill-opacity:1;stroke:none;stroke-width:1;stroke-linecap:round;stroke-linejoin:miter;stroke-miterlimit:4;stroke-dasharray:none;stroke-dashoffset:0;stroke-opacity:1" />
  </g>
</svg>
