<?xml version="1.0" encoding="UTF-8" standalone="no"?>
<svg
   xmlns:dc="http://purl.org/dc/elements/1.1/"
   xmlns:cc="http://creativecommons.org/ns#"
   xmlns:rdf="http://www.w3.org/1999/02/22-rdf-syntax-ns#"
   xmlns:svg="http://www.w3.org/2000/svg"
   xmlns="http://www.w3.org/2000/svg"
   id="svg2"
   width="24"
   height="24"
   viewBox="0 0 24 24"
   version="1.1">
  <metadata
     id="metadata14">
    <rdf:RDF>
      <cc:Work
         rdf:about="">
        <dc:format>image/svg+xml</dc:format>
        <dc:type
           rdf:resource="http://purl.org/dc/dcmitype/StillImage" />
      </cc:Work>
    </rdf:RDF>
  </metadata>
  <defs
     id="defs12" />
  <ellipse
     id="ellipse4"
     ry="12"
     rx="12"
     cy="12"
     cx="12"
     style="fill:#ffffff;stroke:none;" />
  <ellipse
     id="ellipse6"
     ry="10"
     rx="10"
     cy="12"
     cx="12"
     style="fill:#a9a199;stroke:none;" />
  <g
     id="g8"
     transform="translate(4.5,5.5)">
    <metadata     id="metadata8"><rdf:RDF><cc:Work         rdf:about=""><dc:format>image/svg+xml</dc:format><dc:type           rdf:resource="http://purl.org/dc/dcmitype/StillImage" /><dc:title /></cc:Work></rdf:RDF></metadata><defs     id="defs6" /><path     d="M 6.7941176,0 C 3,0 0,3 0,6.7941176 c 0,3.7941174 3,6.7941174 6.7941176,6.7941174 2.1176471,0 4.4117644,-0.705882 5.6470584,-2.294117 C 11.647059,11.823529 10.147059,12.441176 9,12.441176 c -2.9117647,0 -5.1176471,-2.9117642 -5.1176471,-5.8235289 0,-2.9117647 2.2058824,-5.4705883 5.1176471,-5.4705883 1.058824,0 2.558824,0.6176471 3.441176,1.1470588 C 11.205882,0.70588235 8.9117647,0 6.7941176,0 Z M 11,3 10,5.5 7,5.5 9.5,7 8.5,10 11,8.5 13.5,10 12.5,7 15,5.5 l -3,0 z"     id="path7552-2-1"     style="fill:#ffffff;fill-opacity:1" />
  </g>
</svg>
