<svg viewBox="-4 -4 23 23" width="23" height="23" data-reactid=".0.1.1.$religious-muslim-15=1svg73.0.0"><rect x="-3" y="-3" rx="10.5" ry="10.5" width="21" height="21" stroke="#fff" style="stroke-linejoin:round;stroke-miterlimit:4px;" fill="#fff" stroke-width="2" data-reactid=".0.1.1.$religious-muslim-15=1svg73.0.0.0"></rect><rect x="-3" y="-3" width="21" height="21" rx="10.5" ry="10.5" fill="#7f7874" data-reactid=".0.1.1.$religious-muslim-15=1svg73.0.0.1"></rect><path fill="#fff" d="M 6.7941176,0 C 3,0 0,3 0,6.7941176 c 0,3.7941174 3,6.7941174 6.7941176,6.7941174 2.1176471,0 4.4117644,-0.705882 5.6470584,-2.294117 C 11.647059,11.823529 10.147059,12.441176 9,12.441176 c -2.9117647,0 -5.1176471,-2.9117642 -5.1176471,-5.8235289 0,-2.9117647 2.2058824,-5.4705883 5.1176471,-5.4705883 1.058824,0 2.558824,0.6176471 3.441176,1.1470588 C 11.205882,0.70588235 8.9117647,0 6.7941176,0 Z M 11,3 10,5.5 7,5.5 9.5,7 8.5,10 11,8.5 13.5,10 12.5,7 15,5.5 l -3,0 z" data-reactid=".0.1.1.$religious-muslim-15=1svg73.0.0.3:$religious-muslim-15=1svg-0-fill"></path></svg>