<?xml version="1.0" encoding="utf-8"?>
<!-- Generator: Adobe Illustrator 17.1.0, SVG Export Plug-In . SVG Version: 6.00 Build 0)  -->
<!DOCTYPE svg PUBLIC "-//W3C//DTD SVG 1.1//EN" "http://www.w3.org/Graphics/SVG/1.1/DTD/svg11.dtd">
<svg version="1.1"
	 id="svg2" xmlns:svg="http://www.w3.org/2000/svg" xmlns:cc="http://creativecommons.org/ns#" xmlns:dc="http://purl.org/dc/elements/1.1/" xmlns:rdf="http://www.w3.org/1999/02/22-rdf-syntax-ns#"
	 xmlns="http://www.w3.org/2000/svg" xmlns:xlink="http://www.w3.org/1999/xlink" x="0px" y="0px" width="23px" height="23px"
	 viewBox="0 0 23 23" enable-background="new 0 0 23 23" xml:space="preserve">
<ellipse id="ellipse4" fill="#FFFFFF" cx="11.5" cy="11.5" rx="11.5" ry="11.5"/>
<ellipse id="ellipse6" fill="#A9A199" cx="11.5" cy="11.5" rx="10.5" ry="10.5"/>
<g id="g8" transform="translate(4.5,4.5)">
	<path id="path7552-2-1" fill="#FFFFFF" d="M6.8,0C3,0,0,3,0,6.8s3,6.8,6.8,6.8c2.1,0,4.4-0.7,5.6-2.3c-0.8,0.5-2.3,1.1-3.4,1.1
		c-2.9,0-5.1-2.9-5.1-5.8S6.1,1.1,9,1.1c1.1,0,2.6,0.6,3.4,1.1C11.2,0.7,8.9,0,6.8,0z M11,3l-1,2.5H7L9.5,7l-1,3L11,8.5l2.5,1.5
		l-1-3L15,5.5h-3L11,3z"/>
</g>
</svg>
