<svg viewBox="-4 -4 19 19" width="19" height="19" data-reactid=".0.1.1.$restaurant-11=1svg8.0.0"><rect x="-3" y="-3" rx="8.5" ry="8.5" width="17" height="17" stroke="#fff" style="stroke-linejoin:round;stroke-miterlimit:4px;" fill="#fff" stroke-width="2" data-reactid=".0.1.1.$restaurant-11=1svg8.0.0.0"></rect><rect x="-3" y="-3" width="17" height="17" rx="8.5" ry="8.5" fill="#a57453" data-reactid=".0.1.1.$restaurant-11=1svg8.0.0.1"></rect><path fill="#fff" d="M 2.25 0 L 1.75 3.5 C 1.6792893 3.9949747 2.9907703 4.900071 3 5.5 L 3 11 L 4 11 L 4 5.5 C 4 4.9 5.3207107 3.9949747 5.25 3.5 L 4.75 0 L 4.25 0 L 4.5 2.75 L 3.75 3.25 L 3.75 0 L 3.25 0 L 3.25 3.25 L 2.5 2.75 L 2.75 0 L 2.25 0 z M 9 0 C 7.5 0 7.006423 1.724243 7 3 L 7 6 L 8 6 L 8 11 L 9 11 L 9 0 z " data-reactid=".0.1.1.$restaurant-11=1svg8.0.0.3:$restaurant-11=1svg-0-fill"></path></svg>