<svg xmlns="http://www.w3.org/2000/svg" width="32" height="20" viewBox="0 0 32 20">
  <title>ro-county</title>
  <rect width="32" height="20" fill="none"/>
  <g>
    <path d="M15.9,19.49c-0.47-.09-11.44-2.28-13.11-3A3.43,3.43,0,0,1,.5,13V2.5h31V13a3.43,3.43,0,0,1-2.29,3.46c-1.67.76-12.64,2.94-13.11,3l-0.1,0Z" fill="#0f58c5"/>
    <path d="M31,3V13a3,3,0,0,1-2,3c-1.63.74-13,3-13,3S4.63,16.74,3,16a3,3,0,0,1-2-3V3H31m1-1H0V13a4,4,0,0,0,2.59,3.91c1.69,0.77,12,2.84,13.22,3.07L16,20l0.19,0c1.18-.23,11.53-2.3,13.22-3.07A4,4,0,0,0,32,13V2h0Z" fill="#fff"/>
  </g>
</svg>
