<?xml version="1.0" encoding="utf-8"?>
<!-- Generator: Adobe Illustrator 17.1.0, SVG Export Plug-In . SVG Version: 6.00 Build 0)  -->
<!DOCTYPE svg PUBLIC "-//W3C//DTD SVG 1.1//EN" "http://www.w3.org/Graphics/SVG/1.1/DTD/svg11.dtd">
<svg version="1.1" xmlns="http://www.w3.org/2000/svg" xmlns:xlink="http://www.w3.org/1999/xlink" x="0px" y="0px" width="34px"
	 height="22px" viewBox="0 0 34 22" enable-background="new 0 0 34 22" xml:space="preserve">
<g id="shields" display="none">
</g>
<g id="Layer_4">
	<g id="path4616_6_">
		<path fill="#F0CA64" d="M17,21.5c0,0-0.1,0-0.1,0c-0.1,0-0.4-0.1-0.6-0.1C5.8,19.3,0.5,15.6,0.5,10.5c0,0,0,0,0-0.1
			c0-0.4,0-4,0-6.4V1c0-0.2,0.1-0.4,0.3-0.5c0.1,0,0.1,0,0.2,0c0.1,0,0.3,0.1,0.4,0.1C1.9,1.2,5.1,2.5,8,2.5c1.4,0,2.8-0.5,4.3-1
			c1.5-0.5,3.1-1,4.7-1c1.6,0,3.1,0.5,4.6,1c1.4,0.5,2.8,1,4.1,1c0.1,0,0.2,0,0.3,0c2.8-0.1,5.9-1.3,6.7-1.9
			c0.1-0.1,0.2-0.1,0.3-0.1c0.1,0,0.2,0,0.2,0.1c0.2,0.1,0.3,0.3,0.3,0.4v3c0,2,0,5.8,0,6.5c0.1,4.7-5.5,8.5-16,10.9l-0.4,0.1
			C17.1,21.5,17,21.5,17,21.5z"/>
		<path fill="#3A3836" d="M33,1v3c0,0-0.1,5.7,0,6.5c0.1,7.2-14.4,10.1-16,10.5c-1.7-0.4-16-2.5-16-10.5C1,10.5,1,4,1,4V1
			c0.7,0.7,4,2,7,2s6-2,9-2c3,0,5.8,2,8.7,2c0.1,0,0.2,0,0.3,0C28.8,2.9,32,1.7,33,1 M1,0C0.9,0,0.7,0,0.6,0.1C0.2,0.2,0,0.6,0,1v3
			c0,2.3,0,5.9,0,6.4c0,0,0,0.1,0,0.1c0,5.4,5.4,9.2,16.1,11.3c0.3,0.1,0.5,0.1,0.6,0.1c0.1,0,0.2,0,0.2,0c0.1,0,0.2,0,0.2,0
			c0.1,0,0.2-0.1,0.4-0.1C31.2,18.7,34,13.9,34,10.5c0,0,0,0,0-0.1c0-0.6,0-4.1,0-6.4l0-3c0-0.4-0.2-0.7-0.5-0.9C33.3,0,33.2,0,33,0
			c-0.2,0-0.4,0.1-0.6,0.2C31.6,0.8,28.6,1.9,26,2c-0.1,0-0.2,0-0.2,0c-1.3,0-2.6-0.5-3.9-0.9C20.3,0.5,18.7,0,17,0
			c-1.7,0-3.3,0.5-4.8,1.1C10.7,1.5,9.3,2,8,2C5.1,2,2.1,0.7,1.7,0.3C1.5,0.1,1.3,0,1,0L1,0z"/>
	</g>
	<path id="path5547_3_" fill="#F0CA64" stroke="#3A3836" stroke-linecap="round" stroke-linejoin="round" d="M1,6.5H33"/>
</g>
<g id="ref" display="none">
</g>
<g id="ref_outlines" display="none">
</g>
</svg>
