<svg xmlns="http://www.w3.org/2000/svg" width="26" height="20" viewBox="0 0 26 20">
  <title>ro-county</title>
  <rect width="26" height="20" fill="none"/>
  <g>
    <path d="M12.87,19.48c-0.34-.09-8.43-2.28-10.08-3A3.43,3.43,0,0,1,.5,13V2.5h25V13a3.43,3.43,0,0,1-2.29,3.46c-1.65.75-9.73,2.94-10.08,3l-0.13,0Z" fill="#0f58c5"/>
    <path d="M25,3V13a3,3,0,0,1-2,3c-1.63.74-10,3-10,3S4.63,16.74,3,16a3,3,0,0,1-2-3V3H25m1-1H0V13a4,4,0,0,0,2.59,3.91c1.66,0.76,9.29,2.82,10.15,3.06L13,20,13.26,20c0.86-.23,8.5-2.3,10.15-3.06A4,4,0,0,0,26,13V2h0Z" fill="#fff"/>
  </g>
</svg>
