<?xml version="1.0" encoding="utf-8"?>
<!-- Generator: Adobe Illustrator 17.1.0, SVG Export Plug-In . SVG Version: 6.00 Build 0)  -->
<!DOCTYPE svg PUBLIC "-//W3C//DTD SVG 1.1//EN" "http://www.w3.org/Graphics/SVG/1.1/DTD/svg11.dtd">
<svg version="1.1" xmlns="http://www.w3.org/2000/svg" xmlns:xlink="http://www.w3.org/1999/xlink" x="0px" y="0px" width="23px"
	 height="22px" viewBox="0 0 23 22" enable-background="new 0 0 23 22" xml:space="preserve">
<g id="shields" display="none">
	<g id="path4616-9" display="inline">
		<path fill="#FFFFFF" d="M11.5,21.5c0,0-0.1,0-0.1,0c-3.3-0.7-10.9-3.3-10.9-11c0-0.2,0.1-0.3,0.2-0.4c0.6-0.4,0.9-1,0.9-1.6
			S1.3,7.3,0.7,6.9C0.6,6.8,0.5,6.7,0.5,6.5V4c0-0.2,0.1-0.3,0.2-0.4l4-3C4.8,0.5,4.9,0.5,5,0.5c0.1,0,0.2,0,0.3,0.1
			C6,1.3,7.3,2,8.2,2c0.9,0,2-0.5,2.9-1.4c0.1-0.1,0.2-0.1,0.3-0.1c0.1,0,0.2,0,0.3,0.1C12.3,1,13.6,2,14.8,2c0.9,0,2-0.5,2.9-1.4
			c0.1-0.1,0.2-0.1,0.3-0.1c0.1,0,0.2,0,0.3,0.1l4,3c0.1,0.1,0.2,0.2,0.2,0.4v2.5c0,0.2-0.1,0.3-0.2,0.4c-0.6,0.4-0.9,1-0.9,1.6
			s0.3,1.2,0.9,1.6c0.1,0.1,0.2,0.2,0.2,0.4c0.1,8.3-10.8,11-10.9,11C11.6,21.5,11.5,21.5,11.5,21.5z"/>
		<path fill="#3A3836" d="M18,1l4,3v2.5c-1.6,1-1.6,3,0,4c0.1,7.2-8.8,10.1-10.5,10.5C9.7,20.6,1,18.5,1,10.5c1.6-1,1.6-3,0-4V4l4-3
			c0.7,0.7,2.1,1.5,3.2,1.5c1.2,0,2.4-0.7,3.2-1.5c0.8,0.7,2.1,1.5,3.3,1.5C15.9,2.5,17.2,1.8,18,1 M5,0C4.8,0,4.6,0.1,4.4,0.2l-4,3
			C0.1,3.4,0,3.7,0,4v2.5c0,0.3,0.2,0.7,0.5,0.8c0.5,0.3,0.7,0.7,0.7,1.2S0.9,9.4,0.5,9.7C0.2,9.8,0,10.2,0,10.5
			c0,2.7,1.1,9.2,11.3,11.5c0.1,0,0.1,0,0.2,0c0.1,0,0.2,0,0.2,0c0.1,0,11.4-2.8,11.3-11.5c0-0.3-0.2-0.6-0.5-0.8
			c-0.5-0.3-0.7-0.7-0.7-1.2s0.3-0.9,0.7-1.2C22.8,7.2,23,6.8,23,6.5V4c0-0.3-0.1-0.6-0.4-0.8l-4-3C18.4,0.1,18.2,0,18,0
			c-0.2,0-0.5,0.1-0.7,0.3c-0.8,0.7-1.8,1.2-2.6,1.2c-0.7,0-1.7-0.5-2.6-1.3C12,0.1,11.7,0,11.5,0c-0.2,0-0.5,0.1-0.7,0.3
			C10,1,9,1.5,8.3,1.5c-0.8,0-1.9-0.6-2.6-1.2C5.5,0.1,5.2,0,5,0L5,0z"/>
	</g>
	<path id="path5547-6" display="inline" fill="none" stroke="#3A3836" stroke-linecap="round" stroke-linejoin="round" d="M0.5,4.5
		h22"/>
</g>
<g id="Layer_4">
	<g id="path4616_1_">
		<path fill="#F0CA64" d="M11.5,21.5c0,0-0.1,0-0.1,0c-6.9-1.6-10.9-5.6-10.9-11c0,0,0,0,0-0.1c0-0.4,0-4,0-6.4l0-3
			c0-0.2,0.1-0.4,0.3-0.5c0.1,0,0.1,0,0.2,0c0.1,0,0.3,0.1,0.4,0.1C2,1.3,3.6,2,5,2c0.6,0,1.5-0.3,2.4-0.6C8.6,1,10,0.5,11.5,0.5
			c1.4,0,2.6,0.4,3.7,0.8C16.2,1.7,17.1,2,18,2c1.5,0,3-0.7,3.6-1.4c0.1-0.1,0.2-0.1,0.4-0.1c0.1,0,0.1,0,0.2,0
			c0.2,0.1,0.3,0.3,0.3,0.5v3c0,2,0,5.8,0,6.5c0.1,8.2-10.8,11-10.9,11C11.6,21.5,11.5,21.5,11.5,21.5z"/>
		<path fill="#3A3836" d="M22,1v3c0,0-0.1,5.7,0,6.5c0.1,7.2-8.9,10.1-10.5,10.5C9.8,20.6,1,18.5,1,10.5C1,10.5,1,4,1,4l0-3
			c0.7,0.7,2.4,1.5,4,1.5C6.6,2.5,9,1,11.5,1s4.4,1.5,6.5,1.5C19.6,2.5,21.2,1.8,22,1 M1,0C0.9,0,0.7,0,0.6,0.1C0.2,0.2,0,0.6,0,1
			l0,3c0,2.3,0,5.9,0,6.4c0,0,0,0.1,0,0.1c0,5.6,4.1,9.8,11.3,11.5c0.1,0,0.2,0,0.2,0c0.1,0,0.2,0,0.2,0c3.9-1,11.4-4.7,11.3-11.5
			c0,0,0,0,0-0.1c0-0.6,0-4.1,0-6.4l0-3c0-0.4-0.2-0.8-0.6-0.9C22.3,0,22.1,0,22,0c-0.3,0-0.5,0.1-0.7,0.3c-0.6,0.6-1.9,1.2-3.3,1.2
			c-0.8,0-1.7-0.3-2.6-0.6C14.2,0.5,13,0,11.5,0c-1.6,0-3,0.5-4.3,0.9C6.4,1.2,5.6,1.5,5,1.5c-1.4,0-2.8-0.7-3.3-1.2
			C1.5,0.1,1.3,0,1,0L1,0z"/>
	</g>
	<path id="path5547_1_" fill="#F0CA64" stroke="#3A3836" stroke-linecap="round" stroke-linejoin="round" d="M1,6.5H22"/>
</g>
<g id="ref" display="none">
	<rect x="-1" y="7.8" display="inline" fill="none" width="24" height="6.5"/>
	<text transform="matrix(1 0 0 1 3.4276 14.1634)" display="inline" fill="#3A3836" font-family="'DINOffcPro-Bold'" font-size="9">45D</text>
</g>
<g id="ref_outlines" display="none">
	<g display="inline">
		<path fill="#3A3836" d="M6.8,14.2h-1l-1.2-3.9l-1.2,3.9h-1L0.7,7.8H2l1,4l1.2-4h0.9l1.2,4l1-4h1.3L6.8,14.2z"/>
		<path fill="#3A3836" d="M14.8,14.2h-1l-1.2-3.9l-1.2,3.9h-1L8.7,7.8H10l1,4l1.2-4h0.9l1.2,4l1-4h1.3L14.8,14.2z"/>
		<path fill="#3A3836" d="M20.6,13.3v0.9h-1.1v-0.9h-2.6v-1.1l2.2-4.4h1.3l-2.2,4.4h1.3V11h1.1v1.2h0.6v1.1H20.6z"/>
	</g>
</g>
</svg>
