<?xml version="1.0" encoding="utf-8"?>
<!-- Generator: Adobe Illustrator 17.1.0, SVG Export Plug-In . SVG Version: 6.00 Build 0)  -->
<!DOCTYPE svg PUBLIC "-//W3C//DTD SVG 1.1//EN" "http://www.w3.org/Graphics/SVG/1.1/DTD/svg11.dtd">
<svg version="1.1" xmlns="http://www.w3.org/2000/svg" xmlns:xlink="http://www.w3.org/1999/xlink" x="0px" y="0px" width="28px"
	 height="22px" viewBox="0 0 28 22" enable-background="new 0 0 28 22" xml:space="preserve">
<g id="shields" display="none">
	<g id="path4616-9_1_" display="inline">
		<path fill="#FFFFFF" d="M13.9,21.5c-4-0.7-13.4-3.3-13.4-11c0-0.2,0.1-0.4,0.3-0.4C1.5,9.7,2,9.1,2,8.5S1.5,7.3,0.8,6.9
			C0.6,6.9,0.5,6.7,0.5,6.5V4c0-0.2,0.1-0.3,0.2-0.4l5-3c0.1,0,0.2-0.1,0.3-0.1c0.1,0,0.2,0,0.3,0.1C7.2,1.3,8.8,2,10,2
			c1.4,0,2.8-0.7,3.7-1.4c0.1-0.1,0.2-0.1,0.3-0.1c0.1,0,0.2,0,0.3,0.1C15.1,1.1,16.6,2,18,2c1.4,0,2.8-0.7,3.7-1.4
			c0.1-0.1,0.2-0.1,0.3-0.1c0.1,0,0.2,0,0.3,0.1l5,3c0.2,0.1,0.2,0.3,0.2,0.4v2.5c0,0.2-0.1,0.4-0.3,0.4c-0.8,0.4-1.2,1-1.2,1.6
			s0.4,1.2,1.2,1.6c0.2,0.1,0.3,0.3,0.3,0.4c0.1,8.3-13.3,11-13.4,11C14.1,21.5,14,21.5,13.9,21.5C14,21.5,13.9,21.5,13.9,21.5z"/>
		<path fill="#3A3836" d="M22,1l5,3v2.5c-1.9,1-1.9,3,0,4c0.1,7.2-10.9,10.1-13,10.5c-2.2-0.4-13-2.5-13-10.5c1.9-1,1.9-3,0-4V4l5-3
			c0.9,0.7,2.6,1.5,4,1.5c1.4,0,3-0.7,4-1.5c1,0.7,2.6,1.5,4,1.5C19.4,2.5,21,1.8,22,1 M6,0C5.8,0,5.6,0,5.5,0.1l-5,3
			C0.2,3.3,0,3.6,0,4v2.5c0,0.4,0.2,0.7,0.5,0.9c0.6,0.3,0.9,0.7,0.9,1.1S1.1,9.3,0.5,9.6C0.2,9.8,0,10.1,0,10.5
			C0,18.6,9.7,21.2,13.8,22c0.1,0,0.1,0,0.2,0c0.1,0,0.1,0,0.2,0c0.1,0,14-2.8,13.8-11.5c0-0.4-0.2-0.7-0.5-0.9
			c-0.6-0.3-0.9-0.7-0.9-1.1s0.3-0.8,0.9-1.1C27.8,7.2,28,6.9,28,6.5V4c0-0.4-0.2-0.7-0.5-0.9l-5-3C22.4,0,22.2,0,22,0
			c-0.2,0-0.4,0.1-0.6,0.2C20.4,1,19,1.5,18,1.5c-1.3,0-2.7-0.8-3.4-1.3C14.4,0.1,14.2,0,14,0c-0.2,0-0.4,0.1-0.6,0.2
			C12.4,1,11,1.5,10,1.5c-1.1,0-2.6-0.7-3.4-1.3C6.4,0.1,6.2,0,6,0L6,0z"/>
	</g>
	<path id="path5547-6_1_" display="inline" fill="none" stroke="#3A3836" stroke-linecap="round" stroke-linejoin="round" d="M1,4.5
		h26"/>
</g>
<g id="Layer_4">
	<g id="path4616_3_">
		<path fill="#0F58C5" d="M14,21.5c0,0-0.1,0-0.1,0l-0.3-0.1C2.8,19,0.5,14.2,0.5,10.5c0,0,0,0,0-0.1c0-0.4,0-4,0-6.4V1
			c0-0.2,0.1-0.4,0.3-0.5c0.1,0,0.1,0,0.2,0c0.1,0,0.3,0.1,0.4,0.1C1.9,1.2,5.3,2,7,2c0.6,0,1.4-0.3,2.3-0.6C10.6,1,12.2,0.5,14,0.5
			c1.7,0,3.4,0.5,4.8,0.9C20,1.7,21.1,2,22,2c1.6,0,4-0.7,4.6-1.4c0.1-0.1,0.2-0.1,0.4-0.1c0.1,0,0.1,0,0.2,0
			c0.2,0.1,0.3,0.3,0.3,0.5v3c0,2,0,5.8,0,6.5c0.1,7.1-10.2,10.2-13.4,11C14.1,21.5,14,21.5,14,21.5z"/>
		<path fill="#FFFFFF" d="M27,1v3c0,0-0.1,5.7,0,6.5c0.1,7.2-11.4,10.1-13,10.5c-1.7-0.4-13-2.5-13-10.5C1,10.5,1,4,1,4V1
			c0.7,0.7,4.4,1.5,6,1.5c1.6,0,4-1.5,7-1.5s5.9,1.5,8,1.5C23.6,2.5,26.2,1.8,27,1 M1,0C0.9,0,0.7,0,0.6,0.1C0.2,0.2,0,0.6,0,1v3
			c0,2.3,0,5.9,0,6.4c0,0,0,0.1,0,0.1c0,3.8,2.3,8.9,13.5,11.4l0.3,0.1c0.1,0,0.2,0,0.2,0c0.1,0,0.2,0,0.2,0
			C26.8,18.8,28,12.9,28,10.5c0,0,0,0,0-0.1c0-0.6,0-4.1,0-6.4l0-3c0-0.4-0.2-0.8-0.6-0.9C27.3,0,27.1,0,27,0
			c-0.3,0-0.5,0.1-0.7,0.3c-0.5,0.5-2.8,1.2-4.3,1.2c-0.8,0-1.9-0.3-3.1-0.6C17.5,0.5,15.8,0,14,0c-1.9,0-3.5,0.5-4.8,1
			C8.3,1.3,7.5,1.5,7,1.5c-1.6,0-4.8-0.8-5.3-1.2C1.5,0.1,1.3,0,1,0L1,0z"/>
	</g>
	<path id="path5547_2_" fill="#0F58C5" stroke="#FFFFFF" stroke-linejoin="round" d="M0,6.5h28"/>
</g>
<g id="ref" display="none">
	<rect x="-1" y="7.8" display="inline" fill="none" width="30" height="6.5"/>
	<text transform="matrix(1 0 0 1 4.119 14.1634)" display="inline" fill="#3A3836" font-family="'DINOffcPro-Bold'" font-size="9">200D</text>
</g>
<g id="ref_outlines" display="none">
	<g display="inline">
		<path fill="#3A3836" d="M7.4,14.2h-1l-1.2-3.9L4,14.2h-1L1.2,7.8h1.3l1,4l1.2-4h0.9l1.2,4l1-4h1.3L7.4,14.2z"/>
		<path fill="#3A3836" d="M15.4,14.2h-1l-1.2-3.9L12,14.2h-1L9.2,7.8h1.3l1,4l1.2-4h0.9l1.2,4l1-4h1.3L15.4,14.2z"/>
		<path fill="#3A3836" d="M21.2,13.3v0.9H20v-0.9h-2.6v-1.1l2.2-4.4h1.3l-2.2,4.4H20V11h1.1v1.2h0.6v1.1H21.2z"/>
		<path fill="#3A3836" d="M26,13.3v0.9h-1.1v-0.9h-2.6v-1.1l2.2-4.4h1.3l-2.2,4.4h1.3V11H26v1.2h0.6v1.1H26z"/>
	</g>
</g>
</svg>
