<svg xmlns="http://www.w3.org/2000/svg" width="26" height="20" viewBox="0 0 26 20">
  <title>ro-national</title>
  <g>
    <path d="M13,19.5a0.5,0.5,0,0,1-.42-0.26A4.23,4.23,0,0,0,9,17.5c-3.16,0-8.5-1.06-8.5-5A5.54,5.54,0,0,1,1,10.12,4.63,4.63,0,0,0,1.5,8,4.27,4.27,0,0,0,.59,5.29,0.5,0.5,0,0,1,.65,4.65l4-4A0.5,0.5,0,0,1,5.28.58,14.57,14.57,0,0,0,12.82,2.5H13A15,15,0,0,0,20.74.57a0.5,0.5,0,0,1,.61.07l4,4a0.5,0.5,0,0,1,.06.64A4.27,4.27,0,0,0,24.5,8,4.63,4.63,0,0,0,25,10.12a5.54,5.54,0,0,1,.55,2.36c0,4-5.34,5-8.5,5a4.27,4.27,0,0,0-3.58,1.78,0.5,0.5,0,0,1-.42.22h0Z" fill="#dc0000"/>
    <path d="M21,1l4,4a4.79,4.79,0,0,0-1,3,5.12,5.12,0,0,0,.5,2.34,5,5,0,0,1,.5,2.15C25,16,20,17,17,17a4.77,4.77,0,0,0-4,2,4.7,4.7,0,0,0-4-2c-3,0-8-1-8-4.52a5,5,0,0,1,.5-2.15A5.12,5.12,0,0,0,2,8,4.79,4.79,0,0,0,1,5L5,1a15,15,0,0,0,7.82,2H13a15.57,15.57,0,0,0,8-2m0-1a1,1,0,0,0-.52.14A14.62,14.62,0,0,1,13,2H12.82A14,14,0,0,1,5.56.17,1,1,0,0,0,4.29.29l-4,4A1,1,0,0,0,.18,5.58,3.77,3.77,0,0,1,1,8,4.11,4.11,0,0,1,.6,9.91,6,6,0,0,0,0,12.48C0,16.84,5.66,18,9,18a3.76,3.76,0,0,1,3.13,1.49A1,1,0,0,0,13,20h0a1,1,0,0,0,.83-0.45A3.74,3.74,0,0,1,17,18c7.1,0,9-3.47,9-5.52a6,6,0,0,0-.6-2.58A4.11,4.11,0,0,1,25,8a3.77,3.77,0,0,1,.82-2.42,1,1,0,0,0-.11-1.28l-4-4A1,1,0,0,0,21,0h0Z" fill="#fff"/>
  </g>
</svg>
