<svg xmlns="http://www.w3.org/2000/svg" width="20" height="20" viewBox="0 0 20 20">
  <title>ro-national</title>
  <g>
    <path d="M10,19.5a0.5,0.5,0,0,1-.42-0.26A4.23,4.23,0,0,0,6,17.5c-3.19,0-5.5-2.11-5.5-5A5.54,5.54,0,0,1,1,10.12,4.63,4.63,0,0,0,1.5,8,4.27,4.27,0,0,0,.59,5.29,0.5,0.5,0,0,1,.65,4.65l4-4A0.5,0.5,0,0,1,5.28.58,9.28,9.28,0,0,0,10.16,2.5h0A8.1,8.1,0,0,0,14.22.9l0.53-.32a0.5,0.5,0,0,1,.61.07l4,4a0.5,0.5,0,0,1,.06.64A4.27,4.27,0,0,0,18.5,8,4.63,4.63,0,0,0,19,10.12a5.54,5.54,0,0,1,.55,2.36c0,2.91-2.31,5-5.5,5a4.27,4.27,0,0,0-3.58,1.78,0.5,0.5,0,0,1-.42.22h0Z" fill="#dc0000"/>
    <path d="M15,1l4,4a4.79,4.79,0,0,0-1,3,5.12,5.12,0,0,0,.5,2.34,5,5,0,0,1,.5,2.15C19,15.23,16.74,17,14,17a4.77,4.77,0,0,0-4,2,4.7,4.7,0,0,0-4-2c-2.74,0-5-1.77-5-4.52a5,5,0,0,1,.5-2.15A5.12,5.12,0,0,0,2,8,4.79,4.79,0,0,0,1,5L5,1a9.73,9.73,0,0,0,5.16,2h0C12,3,13.68,1.79,15,1m0-1a1,1,0,0,0-.52.14L14,0.47A7.77,7.77,0,0,1,10.21,2,8.85,8.85,0,0,1,5.57.18,1,1,0,0,0,5,0a1,1,0,0,0-.71.29l-4,4A1,1,0,0,0,.18,5.58,3.77,3.77,0,0,1,1,8,4.11,4.11,0,0,1,.6,9.91,6,6,0,0,0,0,12.48C0,15.63,2.58,18,6,18a3.76,3.76,0,0,1,3.13,1.49A1,1,0,0,0,10,20h0a1,1,0,0,0,.83-0.45A3.74,3.74,0,0,1,14,18c3.42,0,6-2.37,6-5.52a6,6,0,0,0-.6-2.58A4.11,4.11,0,0,1,19,8a3.77,3.77,0,0,1,.82-2.42,1,1,0,0,0-.11-1.28l-4-4A1,1,0,0,0,15,0h0Z" fill="#fff"/>
  </g>
</svg>
