<?xml version="1.0" encoding="utf-8"?>
<!-- Generator: Adobe Illustrator 17.1.0, SVG Export Plug-In . SVG Version: 6.00 Build 0)  -->
<!DOCTYPE svg PUBLIC "-//W3C//DTD SVG 1.1//EN" "http://www.w3.org/Graphics/SVG/1.1/DTD/svg11.dtd">
<svg version="1.1" xmlns="http://www.w3.org/2000/svg" xmlns:xlink="http://www.w3.org/1999/xlink" x="0px" y="0px" width="18px"
	 height="22px" viewBox="0 0 18 22" enable-background="new 0 0 18 22" xml:space="preserve">
<g id="shields" display="none">
</g>
<g id="Layer_4">
	<g id="path4616">
		<path fill="#D40000" d="M9,21.5c0,0-0.1,0-0.1,0c-1.4-0.3-8.4-2.4-8.4-11c0,0,0,0,0-0.1c0-0.4,0-4,0-6.4l0-3
			c0-0.2,0.1-0.4,0.3-0.5c0.1,0,0.1,0,0.2,0c0.1,0,0.3,0.1,0.4,0.1l0.1,0.1C2.1,1.4,2.7,2,4,2c0.7,0,1.4-0.3,2.1-0.6
			C6.9,1,7.9,0.6,9,0.5c1.2,0,2.1,0.5,2.8,0.8C12.4,1.7,13.1,2,14,2c1.3,0,1.8-0.5,2.5-1.2l0.1-0.1c0.1-0.1,0.2-0.1,0.4-0.1
			c0.1,0,0.1,0,0.2,0c0.2,0.1,0.3,0.3,0.3,0.5v3c0,2,0,5.8,0,6.5c0.1,7.3-6.2,10.5-8.4,11C9.1,21.5,9,21.5,9,21.5z"/>
		<path fill="#FFFFFF" d="M17,1v3c0,0-0.1,5.7,0,6.5c0.1,7.2-6.4,10.1-8,10.5c-1.7-0.4-8-2.5-8-10.5C1,10.5,1,4,1,4l0-3
			c0.7,0.7,1.4,1.5,3,1.5S7,1.1,9,1c2.2,0.1,2.9,1.5,5,1.5C15.6,2.5,16.2,1.8,17,1 M1,0C0.9,0,0.7,0,0.6,0.1C0.2,0.2,0,0.6,0,1l0,3
			c0,2.3,0,5.9,0,6.4c0,0,0,0.1,0,0.1c0,9,7.3,11.1,8.8,11.5c0.1,0,0.2,0,0.2,0c0.1,0,0.2,0,0.2,0c2.3-0.6,8.9-3.9,8.8-11.5
			c0,0,0,0,0-0.1c0-0.6,0-4.1,0-6.4l0-3c0-0.4-0.2-0.8-0.6-0.9C17.3,0,17.1,0,17,0c-0.3,0-0.5,0.1-0.7,0.3l-0.1,0.1
			c-0.7,0.7-1.1,1.1-2.2,1.1c-0.8,0-1.4-0.3-2-0.6C11.2,0.5,10.3,0,9,0c0,0,0,0,0,0c0,0,0,0-0.1,0c-1.2,0.1-2.2,0.5-3,0.9
			C5.2,1.2,4.6,1.5,4,1.5c-1.1,0-1.5-0.4-2.1-1.1L1.7,0.3C1.5,0.1,1.3,0,1,0L1,0z"/>
	</g>
	<path id="path5547" fill="#D40000" stroke="#FFFFFF" stroke-linecap="round" stroke-linejoin="round" d="M1,6.5H17"/>
</g>
<g id="ref" display="none">
	<rect y="7.8" display="inline" fill="none" width="18" height="6.5"/>
	<text transform="matrix(1 0 0 1 3.6794 14.1634)" display="inline" fill="#3A3836" font-family="'DINOffcPro-Bold'" font-size="9">2D</text>
</g>
<g id="ref_outlines" display="none">
	<g display="inline">
		<path fill="#3A3836" d="M8.8,14.2h-1l-1.2-3.9l-1.2,3.9h-1L2.6,7.8h1.3l1,4l1.2-4H7l1.2,4l1-4h1.3L8.8,14.2z"/>
		<path fill="#3A3836" d="M14.6,13.3v0.9h-1.1v-0.9h-2.6v-1.1L13,7.8h1.3l-2.2,4.4h1.3V11h1.1v1.2h0.6v1.1H14.6z"/>
	</g>
</g>
</svg>
