<?xml version="1.0" encoding="utf-8"?>
<!-- Generator: Adobe Illustrator 17.0.0, SVG Export Plug-In . SVG Version: 6.00 Build 0)  -->
<!DOCTYPE svg PUBLIC "-//W3C//DTD SVG 1.1//EN" "http://www.w3.org/Graphics/SVG/1.1/DTD/svg11.dtd">
<svg version="1.1"
	 id="svg2" xmlns:svg="http://www.w3.org/2000/svg" xmlns:cc="http://creativecommons.org/ns#" xmlns:dc="http://purl.org/dc/elements/1.1/" xmlns:rdf="http://www.w3.org/1999/02/22-rdf-syntax-ns#"
	 xmlns="http://www.w3.org/2000/svg" xmlns:xlink="http://www.w3.org/1999/xlink" x="0px" y="0px" width="23px" height="23px"
	 viewBox="0 0 23 23" enable-background="new 0 0 23 23" xml:space="preserve">
<g>
	<path fill="#FFFFFF" d="M11.5,0C5.149,0,0,5.149,0,11.5S5.149,23,11.5,23S23,17.851,23,11.5S17.851,0,11.5,0z M11.5,22
		C5.701,22,1,17.299,1,11.5S5.701,1,11.5,1S22,5.701,22,11.5S17.299,22,11.5,22z"/>
	<path fill="#A9A199" d="M13.5,8.5c-0.6,0-1,0.4-1,1s0.4,1,1,1s1-0.4,1-1S14.1,8.5,13.5,8.5z"/>
	<path fill="#A9A199" d="M11.5,1C5.701,1,1,5.701,1,11.5S5.701,22,11.5,22S22,17.299,22,11.5S17.299,1,11.5,1z M8,16.5
		c-0.8,0.8-2.5,1-2.5,1s0.3-1.8,1-2.5L7,14.5L8.5,16L8,16.5z M17.5,6.9c0,2.2-1.5,5.1-4,7v1.6c0,1.2-0.9,1.8-1.8,2.2l-1.2,0.6v-1.4
		v-1.4L9,14l-1.5-1.5H6H4.6l0.6-1.2c0.5-0.9,1.1-1.8,2.3-1.8h1.6c2-2.5,4.9-4,7-4h1.4V6.9z"/>
	<path fill="#FFFFFF" d="M9.1,9.5H7.5c-1.2,0-1.8,0.9-2.3,1.8l-0.6,1.2H6h1.5L9,14l1.5,1.5v1.4v1.4l1.2-0.6c0.9-0.4,1.8-1,1.8-2.2
		v-1.6c2.5-1.9,4-4.8,4-7V5.5h-1.4C14,5.5,11.1,7,9.1,9.5z M13.5,10.5c-0.6,0-1-0.4-1-1s0.4-1,1-1s1,0.4,1,1S14.1,10.5,13.5,10.5z"
		/>
	<path fill="#FFFFFF" d="M6.5,15c-0.7,0.7-1,2.5-1,2.5s1.7-0.2,2.5-1L8.5,16L7,14.5L6.5,15z"/>
</g>
</svg>
