<?xml version="1.0" encoding="utf-8"?>
<!-- Generator: Adobe Illustrator 17.1.0, SVG Export Plug-In . SVG Version: 6.00 Build 0)  -->
<!DOCTYPE svg PUBLIC "-//W3C//DTD SVG 1.1//EN" "http://www.w3.org/Graphics/SVG/1.1/DTD/svg11.dtd">
<svg version="1.1"
	 id="svg2" xmlns:svg="http://www.w3.org/2000/svg" xmlns:cc="http://creativecommons.org/ns#" xmlns:dc="http://purl.org/dc/elements/1.1/" xmlns:rdf="http://www.w3.org/1999/02/22-rdf-syntax-ns#"
	 xmlns="http://www.w3.org/2000/svg" xmlns:xlink="http://www.w3.org/1999/xlink" x="0px" y="0px" width="23px" height="23px"
	 viewBox="0 0 23 23" enable-background="new 0 0 23 23" xml:space="preserve">
<ellipse id="ellipse4" fill="#FFFFFF" cx="11.5" cy="11.5" rx="11.5" ry="11.5"/>
<ellipse id="ellipse6" fill="#A9A199" cx="11.5" cy="11.5" rx="10.5" ry="10.5"/>
<g id="g8" transform="translate(3.5,4.5)">
	<path id="path7143" fill="#FFFFFF" d="M12.6,1c-2.1,0-5,1.5-7,4H4C2.8,5,2.2,5.9,1.7,6.8L1.1,8h1.4H4l1.5,1.5L7,11v1.4v1.4l1.2-0.6
		c0.9-0.4,1.8-1,1.8-2.2V9.4c2.5-1.9,4-4.8,4-7V1H12.6z M10,4c0.6,0,1,0.4,1,1l0,0c0,0.6-0.4,1-1,1l0,0C9.4,6,9,5.6,9,5l0,0
		C9,4.4,9.4,4,10,4L10,4z M3.5,10L3,10.5C2.3,11.2,2,13,2,13s1.7-0.2,2.5-1L5,11.5L3.5,10z"/>
	<path id="path7816" fill="#FFFFFF" d="M82.6,1c-2.9,0-7.1,2.7-8.6,7l3,3c4.3-1.4,7-5.7,7-8.6V1H82.6z"/>
	<path id="path7818" fill="#FFFFFF" d="M76.8,8.2l-1.3,1.3l1.3,1.6v1.4V14l1.4-0.7c0.9-0.5,1.4-1,1.4-2.2V8.9l-1.2,0.9L76.8,8.2z"/>
	<circle id="circle7820" fill="#FFFFFF" cx="80" cy="5" r="1"/>
	<path id="path7822" fill="#FFFFFF" d="M73.5,10L73,10.5c-0.7,0.7-1,2.5-1,2.5s1.7-0.2,2.5-1l0.5-0.5L73.5,10z"/>
	<path id="path7824" fill="#FFFFFF" d="M76.8,8.2l-1.3,1.3L74,8h-1.4h-1.4l0.6-1.2C72.2,5.9,72.8,5,74,5h2.1l-0.9,1.6L76.8,8.2z"/>
</g>
</svg>
