<svg viewBox="-3 -3 17 17" width="17" height="17" data-reactid=".0.1.1.$rocket-11=1svg0.0.0"><rect x="-2" y="-2" rx="1" ry="1" width="15" height="15" stroke="#fff" style="stroke-linejoin:round;stroke-miterlimit:4px;" fill="#fff" stroke-width="2" data-reactid=".0.1.1.$rocket-11=1svg0.0.0.0"></rect><rect x="-2" y="-2" width="15" height="15" rx="1" ry="1" fill="#8363a5" data-reactid=".0.1.1.$rocket-11=1svg0.0.0.1"></rect><path fill="#fff" d="M 9 1 C 7.4879756 1 5.407655 2.1458844 4.0488281 4 L 3 4 C 2.19877 4.0000006 1.816225 4.3675417 1.5 5 L 1 6 L 2 6 L 3 6 L 4 7 L 5 8 L 5 9 L 5 10 L 6 9.5 C 6.632455 9.183773 7 8.8012293 7 8 L 7 6.9511719 C 8.8541156 5.592345 10 3.5120244 10 2 L 10 1 L 9 1 z M 7.5 3 A 0.5 0.5 0 0 1 8 3.5 A 0.5 0.5 0 0 1 7.5 4 A 0.5 0.5 0 0 1 7 3.5 A 0.5 0.5 0 0 1 7.5 3 z M 2.75 7.25 L 2.5 7.5 C 2 8 2 9 2 9 C 2 9 2.9447573 9.055243 3.5 8.5 L 3.75 8.25 L 2.75 7.25 z " data-reactid=".0.1.1.$rocket-11=1svg0.0.0.3:$rocket-11=1svg-0-fill"></path></svg>