<?xml version="1.0" encoding="utf-8"?>
<!-- Generator: Adobe Illustrator 17.1.0, SVG Export Plug-In . SVG Version: 6.00 Build 0)  -->
<!DOCTYPE svg PUBLIC "-//W3C//DTD SVG 1.1//EN" "http://www.w3.org/Graphics/SVG/1.1/DTD/svg11.dtd">
<svg version="1.1"
	 id="svg2" xmlns:svg="http://www.w3.org/2000/svg" xmlns:cc="http://creativecommons.org/ns#" xmlns:dc="http://purl.org/dc/elements/1.1/" xmlns:rdf="http://www.w3.org/1999/02/22-rdf-syntax-ns#"
	 xmlns="http://www.w3.org/2000/svg" xmlns:xlink="http://www.w3.org/1999/xlink" x="0px" y="0px" width="19px" height="19px"
	 viewBox="0 0 19 19" enable-background="new 0 0 19 19" xml:space="preserve">
<ellipse id="ellipse4" fill="#FFFFFF" cx="9.5" cy="9.5" rx="9.5" ry="9.5"/>
<ellipse id="ellipse6" fill="#A9A199" cx="9.5" cy="9.5" rx="8.5" ry="8.5"/>
<g id="g8" transform="translate(4,4)">
	<path id="path7143" fill="#FFFFFF" d="M9,1C7.5,1,5.4,2.1,4,4H3C2.2,4,1.8,4.4,1.5,5L1,6h1h1l1,1l1,1v1v1l1-0.5C6.6,9.2,7,8.8,7,8
		V7c1.9-1.4,3-3.4,3-5V1H9z M7.5,3C7.8,3,8,3.2,8,3.5S7.8,4,7.5,4S7,3.8,7,3.5S7.2,3,7.5,3z M2.8,7.2L2.5,7.5C2,8,2,9,2,9
		s0.9,0.1,1.5-0.5l0.2-0.2L2.8,7.2z"/>
</g>
</svg>
