<?xml version="1.0" encoding="UTF-8" standalone="no"?>
<svg
   xmlns:dc="http://purl.org/dc/elements/1.1/"
   xmlns:cc="http://creativecommons.org/ns#"
   xmlns:rdf="http://www.w3.org/1999/02/22-rdf-syntax-ns#"
   xmlns:svg="http://www.w3.org/2000/svg"
   xmlns="http://www.w3.org/2000/svg"
   id="svg2"
   width="23"
   height="23"
   viewBox="0 0 23 23"
   version="1.1">
  <metadata
     id="metadata14">
    <rdf:RDF>
      <cc:Work
         rdf:about="">
        <dc:format>image/svg+xml</dc:format>
        <dc:type
           rdf:resource="http://purl.org/dc/dcmitype/StillImage" />
      </cc:Work>
    </rdf:RDF>
  </metadata>
  <defs
     id="defs12" />
  <ellipse
     id="ellipse4"
     ry="11.5"
     rx="11.5"
     cy="11.5"
     cx="11.5"
     style="fill:#ffffff;stroke:none;" />
  <ellipse
     id="ellipse6"
     ry="10.5"
     rx="10.5"
     cy="11.5"
     cx="11.5"
     style="fill:#a9a199;stroke:none;" />
  <g
     id="g8"
     transform="translate(3.5,4.5)">
    <metadata     id="metadata8"><rdf:RDF><cc:Work         rdf:about=""><dc:format>image/svg+xml</dc:format><dc:type           rdf:resource="http://purl.org/dc/dcmitype/StillImage" /><dc:title /></cc:Work></rdf:RDF></metadata><defs     id="defs6" /><path     id="path7143"     d="M 12.554688 1 C 10.410605 1 7.5335873 2.4710378 5.6015625 5 L 4 5 C 2.8426678 5.0000003 2.1794297 5.8637948 1.7226562 6.7773438 L 1.1113281 8 L 2.5546875 8 L 4 8 L 5.5 9.5 L 7 11 L 7 12.445312 L 7 13.888672 L 8.2226562 13.277344 C 9.1362068 12.820574 10 12.157331 10 11 L 10 9.3984375 C 12.528962 7.4664127 14 4.5893935 14 2.4453125 L 14 1 L 12.554688 1 z M 10 4 A 0.99999982 0.99999982 0 0 1 11 5 A 0.99999982 0.99999982 0 0 1 10 6 A 0.99999982 0.99999982 0 0 1 9 5 A 0.99999982 0.99999982 0 0 1 10 4 z M 3.5 10 L 3 10.5 C 2.2777774 11.222222 2 13 2 13 C 2 13 3.6979854 12.802014 4.5 12 L 5 11.5 L 3.5 10 z "     style="fill:#ffffff;fill-opacity:1;stroke-width:1" /><path     style="fill:#ffffff;fill-opacity:1;stroke-width:1"     d="m 82.555555,0.9999998 c -2.888889,0 -7.111111,2.6666668 -8.555555,7 L 77,11 c 4.333333,-1.444445 7,-5.666667 7,-8.5555558 l 0,-1.4444444 z"     id="path7816" /><path     style="fill:#ffffff;fill-opacity:1;stroke-width:1"     d="M 76.777778,8.2222218 75.5,9.4999998 l 1.277778,1.6111112 0,1.444444 0,1.444444 1.444444,-0.722222 c 0.913546,-0.456772 1.444444,-1.009336 1.444444,-2.166666 l 0,-2.166667 -1.238498,0.9281682 z"     id="path7818" /><circle     style="opacity:1;fill:#ffffff;fill-opacity:1;stroke:none;stroke-width:0.49999997;stroke-linecap:round;stroke-linejoin:round;stroke-miterlimit:4;stroke-dasharray:none;stroke-dashoffset:0;stroke-opacity:1;marker:none"     id="circle7820"     cx="80"     cy="5"     r="0.99999982" /><path     style="fill:#ffffff;fill-opacity:1;fill-rule:evenodd;stroke:none;stroke-width:1px;stroke-linecap:butt;stroke-linejoin:miter;stroke-opacity:1"     d="M 73.5,9.9999998 73,10.5 c -0.722223,0.722222 -1,2.5 -1,2.5 0,0 1.697985,-0.197986 2.5,-1 L 75,11.5 Z"     id="path7822" /><path     id="path7824"     d="M 76.777778,8.2222232 75.5,9.4999998 l -1.5,-1.5 -1.444443,0 -1.444446,0 0.61111,-1.2222218 C 72.178994,5.8642291 72.842668,5.0000001 74,4.9999998 l 2.055552,-6e-7 -0.928166,1.5718313 z"     style="fill:#ffffff;fill-opacity:1;stroke-width:1" />
  </g>
</svg>
