<?xml version="1.0" encoding="utf-8"?>
<!-- Generator: Adobe Illustrator 17.1.0, SVG Export Plug-In . SVG Version: 6.00 Build 0)  -->
<!DOCTYPE svg PUBLIC "-//W3C//DTD SVG 1.1//EN" "http://www.w3.org/Graphics/SVG/1.1/DTD/svg11.dtd">
<svg version="1.1" id="Layer_1" xmlns="http://www.w3.org/2000/svg" xmlns:xlink="http://www.w3.org/1999/xlink" x="0px" y="0px"
	 width="20px" height="14px" viewBox="0 0 20 14" enable-background="new 0 0 20 14" xml:space="preserve">
<g id="shields">
	<g>
		<path fill="#0F58C5" d="M3,13.5c-1.4,0-2.5-1.1-2.5-2.5V3c0-1.4,1.1-2.5,2.5-2.5h14c1.4,0,2.5,1.1,2.5,2.5v8
			c0,1.4-1.1,2.5-2.5,2.5H3z"/>
		<path fill="#FFFFFF" d="M17,1c1.1,0,2,0.9,2,2v8c0,1.1-0.9,2-2,2H3c-1.1,0-2-0.9-2-2V3c0-1.1,0.9-2,2-2L17,1 M17,0H3
			C1.3,0,0,1.3,0,3v8c0,1.7,1.3,3,3,3h14c1.7,0,3-1.3,3-3V3C20,1.3,18.6,0,17,0L17,0z"/>
	</g>
</g>
<g id="not_needed" display="none">
</g>
</svg>
