<svg xmlns="http://www.w3.org/2000/svg" width="20" height="17" viewBox="0 0 20 17"><title>rails-icons</title><rect x="1.5" y="1.71" width="17" height="13" rx="2.5" ry="2.5" fill="#fff"/><path d="M13.13,6.27a3.8,3.8,0,0,0-2.19.48,1.16,1.16,0,0,0-.7.54l-0.4,4.36,0.56,0.59,0.38,0.27a3.59,3.59,0,0,0,2.41.6,2.73,2.73,0,0,0,1.42-.29c0.25-.13.45-0.17,0.45,0l0,0.33H17.5l0-3.49V6.27H15.07V6.67A3.58,3.58,0,0,0,13.13,6.27Zm0,1.4a1.5,1.5,0,0,1,.71.17,1.93,1.93,0,0,1,1.09,1.54,2.14,2.14,0,0,1-1.05,2.07,1.83,1.83,0,0,1-2.54-1.55,2.07,2.07,0,0,1,1-2A1.68,1.68,0,0,1,13.14,7.66Z" fill="#5396c7"/><path d="M2.5,3.21V8l0,5.13H5l0-.47c0.09-.26.06,0,0.39,0.21a6.91,6.91,0,0,0,.89.26,4.83,4.83,0,0,0,3.59-.64,3.12,3.12,0,0,0,1.37-2.86,3,3,0,0,0-.34-1.47,3.57,3.57,0,0,0-2.62-2,4.7,4.7,0,0,0-2.4.11C5.62,6.35,5.29,6.56,5,6.65V3.21H2.5ZM7.18,7.67a1.88,1.88,0,0,1,1.63.74,2.18,2.18,0,0,1-.57,2.9A1.76,1.76,0,0,1,5.58,9.84,1.82,1.82,0,0,1,7.18,7.67Z" fill="#454545"/></svg>