<?xml version="1.0" encoding="utf-8"?>
<!-- Generator: Adobe Illustrator 17.1.0, SVG Export Plug-In . SVG Version: 6.00 Build 0)  -->
<!DOCTYPE svg PUBLIC "-//W3C//DTD SVG 1.1//EN" "http://www.w3.org/Graphics/SVG/1.1/DTD/svg11.dtd">
<svg version="1.1"
	 id="svg2" xmlns:svg="http://www.w3.org/2000/svg" xmlns:cc="http://creativecommons.org/ns#" xmlns:dc="http://purl.org/dc/elements/1.1/" xmlns:rdf="http://www.w3.org/1999/02/22-rdf-syntax-ns#"
	 xmlns="http://www.w3.org/2000/svg" xmlns:xlink="http://www.w3.org/1999/xlink" x="0px" y="0px" width="23px" height="23px"
	 viewBox="0 0 23 23" enable-background="new 0 0 23 23" xml:space="preserve">
<ellipse id="ellipse4" fill="#FFFFFF" cx="11.5" cy="11.5" rx="11.5" ry="11.5"/>
<ellipse id="ellipse6" fill="#B5A462" cx="11.5" cy="11.5" rx="10.5" ry="10.5"/>
<g id="g8" transform="translate(4,4)">
	<path id="path6911" fill="#FFFFFF" d="M10.9,1.3c-0.1,0-0.2,0.1-0.4,0.2l-4,4C6,6,6,7,6,7v1h1c0.5,0,1,0,1.5-0.5c0,0,2.5-2.5,4-4
		c0,0,0.5-0.5,0-1l-1-1C11.5,1.5,11.2,1.2,10.9,1.3z M1.7,3.9C1.3,3.8,1,4.1,1,4.6V11l5,2c0,1,1,1,1,1h1c0,0,1,0,1-1l5-2V4.6
		c0-0.4-0.2-0.7-0.5-0.7L9.2,8.2L8.7,8.7C8.5,8.9,8.3,9,8,9v3.5H7V9H6C5.4,9,5,8.6,5,8V5.2L2.1,4.1C2,4,1.8,3.9,1.7,3.9z M7.2,5.5
		l1.2,1.2L8.1,7.1C7.8,7.5,7.3,7.5,7,7.5H6.5V7c0-0.3,0.1-0.9,0.4-1.1L7.2,5.5z"/>
</g>
</svg>
