<?xml version="1.0" encoding="utf-8"?>
<!-- Generator: Adobe Illustrator 17.1.0, SVG Export Plug-In . SVG Version: 6.00 Build 0)  -->
<!DOCTYPE svg PUBLIC "-//W3C//DTD SVG 1.1//EN" "http://www.w3.org/Graphics/SVG/1.1/DTD/svg11.dtd">
<svg version="1.1"
	 id="svg2" xmlns:svg="http://www.w3.org/2000/svg" xmlns:cc="http://creativecommons.org/ns#" xmlns:dc="http://purl.org/dc/elements/1.1/" xmlns:rdf="http://www.w3.org/1999/02/22-rdf-syntax-ns#"
	 xmlns="http://www.w3.org/2000/svg" xmlns:xlink="http://www.w3.org/1999/xlink" x="0px" y="0px" width="23px" height="23px"
	 viewBox="0 0 23 23" enable-background="new 0 0 23 23" xml:space="preserve">
<ellipse id="ellipse4" fill="#FFFFFF" cx="11.5" cy="11.5" rx="11.5" ry="11.5"/>
<ellipse id="ellipse6" fill="#A9A199" cx="11.5" cy="11.5" rx="10.5" ry="10.5"/>
<g id="g8" transform="translate(4,4)">
	<path id="rect4696" fill="#FFFFFF" d="M6.4,1c0,0-0.5,0-1.1,0.2S4,1.8,3.9,2.7L3.5,5H1v2v4c0,0,0,2,2,2h9c2,0,2-2,2-2V7V5h-2.5
		l-0.4-2.3C11,1.8,10.3,1.4,9.7,1.2C9.1,1,8.6,1,8.6,1H6.4z M6.4,2h2.2c0,0,0.4,0,0.8,0.1c0.4,0.1,0.7,0.3,0.7,0.7L10.5,5h-6
		l0.4-2.2C5,2.4,5.3,2.2,5.6,2.1S6.4,2,6.4,2z M5.5,7h4C9.8,7,10,7.2,10,7.5S9.8,8,9.5,8h-4C5.2,8,5,7.8,5,7.5S5.2,7,5.5,7z"/>
</g>
</svg>
