<svg viewBox="-4 -4 23 23" width="23" height="23" data-reactid=".0.1.1.$shop-15=1svg75.0.0"><rect x="-3" y="-3" rx="10.5" ry="10.5" width="21" height="21" stroke="#fff" style="stroke-linejoin:round;stroke-miterlimit:4px;" fill="#fff" stroke-width="2" data-reactid=".0.1.1.$shop-15=1svg75.0.0.0"></rect><rect x="-3" y="-3" width="21" height="21" rx="10.5" ry="10.5" fill="#7f7874" data-reactid=".0.1.1.$shop-15=1svg75.0.0.1"></rect><path fill="#fff" d="m 6.3828125,1 c 0,0 -0.5152046,-0.003938 -1.078125,0.1816406 C 4.7417671,1.3672188 4.0310503,1.8136987 3.8886719,2.6679688 L 3.5,5 1,5 1,7 1,11 c 0,0 0,2 2,2 l 9,0 c 2,0 2,-2 2,-2 L 14,7 14,5 11.5,5 11.111329,2.6679688 C 10.968951,1.8136987 10.258233,1.3672188 9.695313,1.1816406 9.1323926,0.9960625 8.617188,1 8.617188,1 Z m 0,1 2.2343755,0 c 0,0 0.3806287,0.00394 0.765625,0.1308594 0.3849963,0.1269218 0.672893,0.3056756 0.740234,0.7011718 L 10.484376,5 4.515625,5 4.8769531,2.8320312 C 4.9429081,2.4363013 5.2321912,2.2577812 5.6171875,2.1308594 6.0021838,2.0039375 6.3828125,2 6.3828125,2 Z M 5.5,7 9.5,7 C 9.777,7 10,7.223 10,7.5 10,7.777 9.777,8 9.5,8 l -4,0 C 5.223,8 5,7.777 5,7.5 5,7.223 5.223,7 5.5,7 Z" data-reactid=".0.1.1.$shop-15=1svg75.0.0.3:$shop-15=1svg-0-fill"></path></svg>