<?xml version="1.0" encoding="UTF-8" standalone="no"?>
<svg
   xmlns:dc="http://purl.org/dc/elements/1.1/"
   xmlns:cc="http://creativecommons.org/ns#"
   xmlns:rdf="http://www.w3.org/1999/02/22-rdf-syntax-ns#"
   xmlns:svg="http://www.w3.org/2000/svg"
   xmlns="http://www.w3.org/2000/svg"
   id="svg2"
   width="19"
   height="19"
   viewBox="0 0 19 19"
   version="1.1">
  <metadata
     id="metadata14">
    <rdf:RDF>
      <cc:Work
         rdf:about="">
        <dc:format>image/svg+xml</dc:format>
        <dc:type
           rdf:resource="http://purl.org/dc/dcmitype/StillImage" />
      </cc:Work>
    </rdf:RDF>
  </metadata>
  <defs
     id="defs12" />
  <ellipse
     id="ellipse4"
     ry="9.5"
     rx="9.5"
     cy="9.5"
     cx="9.5"
     style="fill:#ffffff;stroke:none;" />
  <ellipse
     id="ellipse6"
     rx="8.5"
     ry="8.5"
     cy="9.5"
     cx="9.5"
     style="fill:#a9a199;stroke:none;" />
  <g
     id="g8"
     transform="translate(4,4)">
    <metadata     id="metadata8"><rdf:RDF><cc:Work         rdf:about=""><dc:format>image/svg+xml</dc:format><dc:type           rdf:resource="http://purl.org/dc/dcmitype/StillImage" /><dc:title /></cc:Work></rdf:RDF></metadata><defs     id="defs6" /><path     id="rect4696"     d="M 5,1 C 4.4095549,1 3.9341421,1.1693219 3.6015625,1.4414062 3.2689829,1.7134907 3.0935885,2.0670525 3.015625,2.3789062 L 2.609375,4 1,4 1,6 1,8 c 0,1.1079999 0.892,2 2,2 l 5,0 c 1.108,0 2,-0.8920001 2,-2 L 10,6 10,4 8.390625,4 7.984375,2.3789062 C 7.8140876,1.6977567 7.2660792,1.3293475 6.8339844,1.1679688 6.4018896,1.0065899 6.0117188,1 6.0117188,1 l -0.00586,0 z m 0,1 0.9882812,0 c 0,0 0.2388225,0.00938 0.4960938,0.1054688 0.2572713,0.096086 0.4590018,0.2266325 0.53125,0.515625 L 7.359375,4 3.640625,4 3.984375,2.6210938 C 4.0207439,2.475618 4.0955377,2.328427 4.234375,2.2148438 4.3732123,2.1012604 4.5904451,2 5,2 Z m -0.5,3 2,0 C 6.777,5 7,5.223 7,5.5 7,5.777 6.777,6 6.5,6 l -2,0 C 4.223,6 4,5.777 4,5.5 4,5.223 4.223,5 4.5,5 Z"     style="opacity:1;fill:#ffffff;fill-opacity:1;stroke:none;stroke-width:0.5;stroke-linecap:round;stroke-linejoin:round;stroke-miterlimit:4;stroke-dasharray:none;stroke-dashoffset:0;stroke-opacity:1;marker:none" />
  </g>
</svg>
