<?xml version="1.0" encoding="utf-8"?>
<!-- Generator: Adobe Illustrator 17.1.0, SVG Export Plug-In . SVG Version: 6.00 Build 0)  -->
<!DOCTYPE svg PUBLIC "-//W3C//DTD SVG 1.1//EN" "http://www.w3.org/Graphics/SVG/1.1/DTD/svg11.dtd">
<svg version="1.1"
	 id="svg2" xmlns:svg="http://www.w3.org/2000/svg" xmlns:cc="http://creativecommons.org/ns#" xmlns:dc="http://purl.org/dc/elements/1.1/" xmlns:rdf="http://www.w3.org/1999/02/22-rdf-syntax-ns#"
	 xmlns="http://www.w3.org/2000/svg" xmlns:xlink="http://www.w3.org/1999/xlink" x="0px" y="0px" width="19px" height="19px"
	 viewBox="0 0 19 19" enable-background="new 0 0 19 19" xml:space="preserve">
<ellipse id="ellipse4" fill="#FFFFFF" cx="9.5" cy="9.5" rx="9.5" ry="9.5"/>
<ellipse id="ellipse6" fill="#A9A199" cx="9.5" cy="9.5" rx="8.5" ry="8.5"/>
<g id="g8" transform="translate(4,4)">
	<path id="rect4696" fill="#FFFFFF" d="M5,1C4.4,1,3.9,1.2,3.6,1.4S3.1,2.1,3,2.4L2.6,4H1v2v2c0,1.1,0.9,2,2,2h5c1.1,0,2-0.9,2-2V6
		V4H8.4L8,2.4c-0.2-0.7-0.7-1-1.2-1.2C6.4,1,6,1,6,1l0,0H5z M5,2h1c0,0,0.2,0,0.5,0.1C6.7,2.2,6.9,2.3,7,2.6L7.4,4H3.6L4,2.6
		c0-0.1,0.1-0.3,0.2-0.4S4.6,2,5,2z M4.5,5h2C6.8,5,7,5.2,7,5.5S6.8,6,6.5,6h-2C4.2,6,4,5.8,4,5.5S4.2,5,4.5,5z"/>
</g>
</svg>
