<svg xmlns="http://www.w3.org/2000/svg" width="22" height="16" viewBox="0 0 22 16">
  <title>si-motorway</title>
  <g>
    <g>
      <path d="M2.93,13.52A2.64,2.64,0,0,1,.5,11V5a2.64,2.64,0,0,1,2.43-2.5L11,0.5l8.08,2A2.64,2.64,0,0,1,21.5,5v6a2.64,2.64,0,0,1-2.43,2.5l-8.08,2Z" fill="#393"/>
      <path d="M11,1l8,2a2.15,2.15,0,0,1,2,2v6a2.15,2.15,0,0,1-2,2l-8,2L3,13a2.15,2.15,0,0,1-2-2V5A2.15,2.15,0,0,1,3,3l8-2m0-1L10.75,0,2.86,2A3.17,3.17,0,0,0,0,5v6a3.17,3.17,0,0,0,2.86,3l7.89,2L11,16,11.23,16l7.91-2A3.17,3.17,0,0,0,22,11V5a3.17,3.17,0,0,0-2.86-3L11.23,0,11,0h0Z" fill="#fff"/>
    </g>
    <g>
      <path d="M2.93,13.52A2.64,2.64,0,0,1,.5,11V5a2.64,2.64,0,0,1,2.43-2.5L11,0.5l8.08,2A2.64,2.64,0,0,1,21.5,5v6a2.64,2.64,0,0,1-2.43,2.5l-8.08,2Z" fill="#393"/>
      <path d="M11,1l8,2a2.15,2.15,0,0,1,2,2v6a2.15,2.15,0,0,1-2,2l-8,2L3,13a2.15,2.15,0,0,1-2-2V5A2.15,2.15,0,0,1,3,3l8-2m0-1L10.75,0,2.86,2A3.17,3.17,0,0,0,0,5v6a3.17,3.17,0,0,0,2.86,3l7.89,2L11,16,11.23,16l7.91-2A3.17,3.17,0,0,0,22,11V5a3.17,3.17,0,0,0-2.86-3L11.23,0,11,0h0Z" fill="#fff"/>
    </g>
  </g>
</svg>
