<svg xmlns="http://www.w3.org/2000/svg" width="20" height="17" viewBox="0 0 20 17"><title>rails-icons</title><path d="M15.5,0h-11A2.5,2.5,0,0,0,2,2.5v12A2.5,2.5,0,0,0,4.49,17h11A2.5,2.5,0,0,0,18,14.5V2.5A2.5,2.5,0,0,0,15.5,0h0Z" fill="#fff"/><path d="M14.13,2H5.87A1.89,1.89,0,0,0,4,3.91v9.18A1.89,1.89,0,0,0,5.87,15h8.26A1.89,1.89,0,0,0,16,13.09V3.91A1.89,1.89,0,0,0,14.13,2h0Z" fill="#59c3b4"/><path d="M12,9.53H7.95a0.78,0.78,0,0,1-.73-0.94,7.58,7.58,0,0,1,.36-2.24C7.76,5.79,8.07,5.1,10,5.1s2.23,0.69,2.41,1.25a7.57,7.57,0,0,1,.36,2.24,0.78,0.78,0,0,1-.73.94h0Zm-0.72.88a0.36,0.36,0,1,1,.73,0A0.36,0.36,0,1,1,11.33,10.41Zm-3,.37a0.37,0.37,0,1,1,.37-0.38A0.37,0.37,0,0,1,8.31,10.79ZM13.5,9.3a8,8,0,0,0-1.09-4.14A3.65,3.65,0,0,0,10,4.54a3.62,3.62,0,0,0-2.41.63A8,8,0,0,0,6.5,9.3c0,0.73,0,2,.72,2H7.71L7.1,12.53H8.31l0.24-1.25h2.9l0.24,1.25H12.9l-0.6-1.25h0.48c0.72,0,.72-1.25.72-2" fill="#fff"/></svg>