<?xml version="1.0" encoding="utf-8"?>
<!-- Generator: Adobe Illustrator 17.1.0, SVG Export Plug-In . SVG Version: 6.00 Build 0)  -->
<!DOCTYPE svg PUBLIC "-//W3C//DTD SVG 1.1//EN" "http://www.w3.org/Graphics/SVG/1.1/DTD/svg11.dtd">
<svg version="1.1" xmlns="http://www.w3.org/2000/svg" xmlns:xlink="http://www.w3.org/1999/xlink" x="0px" y="0px" width="38px"
	 height="14px" viewBox="0 0 38 14" enable-background="new 0 0 38 14" xml:space="preserve">
<g id="shields">
</g>
<g id="not_needed">
	<g>
		<path fill="#0F58C5" d="M38,11.5c0,1.4-1.1,2.5-2.5,2.5h-32C2.1,14,1,12.9,1,11.5v-8C1,2.1,2.1,1,3.5,1h32C36.9,1,38,2.1,38,3.5
			V11.5z"/>
		<path fill="#FFFFFF" d="M35,1c1.1,0,2,1,2,2.1v8c0,1.1-0.9,1.9-2,1.9H3c-1.1,0-2-0.8-2-1.9v-8C1,2,1.9,1,3,1H35 M35,0H3
			C1.4,0,0,1.4,0,3.1v8C0,12.7,1.4,14,3,14h32c1.7,0,3-1.3,3-2.9v-8C38,1.4,36.7,0,35,0L35,0z"/>
	</g>
</g>
</svg>
