<?xml version="1.0" encoding="UTF-8" standalone="no"?>
<svg
   xmlns:dc="http://purl.org/dc/elements/1.1/"
   xmlns:cc="http://creativecommons.org/ns#"
   xmlns:rdf="http://www.w3.org/1999/02/22-rdf-syntax-ns#"
   xmlns:svg="http://www.w3.org/2000/svg"
   xmlns="http://www.w3.org/2000/svg"
   id="svg2"
   width="19"
   height="19"
   viewBox="0 0 19 19"
   version="1.1">
  <metadata
     id="metadata14">
    <rdf:RDF>
      <cc:Work
         rdf:about="">
        <dc:format>image/svg+xml</dc:format>
        <dc:type
           rdf:resource="http://purl.org/dc/dcmitype/StillImage" />
      </cc:Work>
    </rdf:RDF>
  </metadata>
  <defs
     id="defs12" />
  <ellipse
     id="ellipse4"
     ry="9.5"
     rx="9.5"
     cy="9.5"
     cx="9.5"
     style="fill:#ffffff;stroke:none;" />
  <ellipse
     id="ellipse6"
     rx="8.5"
     ry="8.5"
     cy="9.5"
     cx="9.5"
     style="fill:#a9a199;stroke:none;" />
  <g
     id="g8"
     transform="translate(4,4)">
    <metadata     id="metadata10"><rdf:RDF><cc:Work         rdf:about=""><dc:format>image/svg+xml</dc:format><dc:type           rdf:resource="http://purl.org/dc/dcmitype/StillImage" /><dc:title /></cc:Work></rdf:RDF></metadata><defs     id="defs8" /><path     d="m 8.5,3 0,-1.6697248 -0.6399083,-0.57798162 -4.7201834,0 L 2.5,1.3302752 2.5,3 1,3 0.42201835,3.6422018 l 0,5.7798165 L 1,10 l 9,0 0.577982,-0.5779817 0,-5.7798165 L 10,3 Z M 4,2 7,2 7,3 4,3 Z M 2.5,4 4,4 4,9 2.5,9 M 7,9 7,4 l 1.5,0 0,5 z"     id="path17"     style="fill:#ffffff;fill-opacity:1" /><path     d="M0,0v-2h-4v2h-3v6H3V0H0z M-3-1h2v1h-2V-1z   M-5,1h1v4h-1 M1,5H0V1h1V5z"     fill="#454545"     display="none"     id="path19"     style="fill:#ffffff;fill-opacity:1" /><path     d="M0,0h-2v-1c0-0.6-0.4-1-1-1h-2  c-0.6,0-1,0.4-1,1v1h-2c-0.6,0-1,0.4-1,1v4c0,0.6,0.4,1,1,1h8c0.6,0,1-0.4,1-1V1C1,0.4,0.6,0,0,0z M-6,5h-1V1h1V5z M-3,0h-2v-1h2V0z   M-1,5h-1V1h1V5z"     fill="#454545"     display="none"     id="path21"     style="fill:#ffffff;fill-opacity:1" />
  </g>
</svg>
