<svg viewBox="-4 -4 23 23" width="23" height="23" data-reactid=".0.1.1.$suitcase-15=1svg79.0.0"><rect x="-3" y="-3" rx="10.5" ry="10.5" width="21" height="21" stroke="#fff" style="stroke-linejoin:round;stroke-miterlimit:4px;" fill="#fff" stroke-width="2" data-reactid=".0.1.1.$suitcase-15=1svg79.0.0.0"></rect><rect x="-3" y="-3" width="21" height="21" rx="10.5" ry="10.5" fill="#7f7874" data-reactid=".0.1.1.$suitcase-15=1svg79.0.0.1"></rect><path fill="#fff" d="M 11,4 11,2 C 11,1 10,1 10,1 L 5.0497046,1 C 5.0497046,1 3.9458423,1.00147 4,2 L 4,4 2,4 C 2,4 1,4 1,5 l 0,7 c 0,1 1,1 1,1 l 11,0 c 0,0 1,0 1,-1 L 14,5 C 14,4 13,4 13,4 Z m -5.5,-1.5 4,0 0,1.5 -4,0 z" data-reactid=".0.1.1.$suitcase-15=1svg79.0.0.3:$suitcase-15=1svg-0-fill"></path></svg>