<?xml version="1.0" encoding="utf-8"?>
<!-- Generator: Adobe Illustrator 17.1.0, SVG Export Plug-In . SVG Version: 6.00 Build 0)  -->
<!DOCTYPE svg PUBLIC "-//W3C//DTD SVG 1.1//EN" "http://www.w3.org/Graphics/SVG/1.1/DTD/svg11.dtd">
<svg version="1.1"
	 id="svg2" xmlns:svg="http://www.w3.org/2000/svg" xmlns:cc="http://creativecommons.org/ns#" xmlns:dc="http://purl.org/dc/elements/1.1/" xmlns:rdf="http://www.w3.org/1999/02/22-rdf-syntax-ns#"
	 xmlns="http://www.w3.org/2000/svg" xmlns:xlink="http://www.w3.org/1999/xlink" x="0px" y="0px" width="23px" height="23px"
	 viewBox="0 0 23 23" enable-background="new 0 0 23 23" xml:space="preserve">
<ellipse id="ellipse4" fill="#FFFFFF" cx="11.5" cy="11.5" rx="11.5" ry="11.5"/>
<ellipse id="ellipse6" fill="#A9A199" cx="11.5" cy="11.5" rx="10.5" ry="10.5"/>
<g id="g8" transform="translate(4,4)">
	<path id="path16388" fill="#FFFFFF" d="M10.1,2C10,2,9.7,2.1,9.7,2.1L6.4,3.8C5.9,4,5.7,4.7,6,5.1l1,1.4l-4,2L5,10l2.5-1.5L10,10
		l1-1L8,5l2.6-1.5c0.5-0.3,0.4-0.7,0.4-1C11,2.3,10.6,2,10.1,2z M7.5,10L5,11.5L2.5,10L0,11.5V13l2.5-1.5L5,13l2.5-1.5L10,13l2-1.5
		l3,1.5v-1.5L12,10l-2,1.5L7.5,10z"/>
	<circle id="path3338" fill="#FFFFFF" cx="12.2" cy="6.8" r="1.8"/>
</g>
</svg>
