<?xml version="1.0" encoding="utf-8"?>
<!-- Generator: Adobe Illustrator 17.1.0, SVG Export Plug-In . SVG Version: 6.00 Build 0)  -->
<!DOCTYPE svg PUBLIC "-//W3C//DTD SVG 1.1//EN" "http://www.w3.org/Graphics/SVG/1.1/DTD/svg11.dtd">
<svg version="1.1"
	 id="svg2" xmlns:svg="http://www.w3.org/2000/svg" xmlns:cc="http://creativecommons.org/ns#" xmlns:dc="http://purl.org/dc/elements/1.1/" xmlns:rdf="http://www.w3.org/1999/02/22-rdf-syntax-ns#"
	 xmlns="http://www.w3.org/2000/svg" xmlns:xlink="http://www.w3.org/1999/xlink" x="0px" y="0px" width="19px" height="19px"
	 viewBox="0 0 19 19" enable-background="new 0 0 19 19" xml:space="preserve">
<ellipse id="ellipse4" fill="#FFFFFF" cx="9.5" cy="9.5" rx="9.5" ry="9.5"/>
<ellipse id="ellipse6" fill="#A9A199" cx="9.5" cy="9.5" rx="8.5" ry="8.5"/>
<g id="g8" transform="translate(4,4)">
	<path id="path8421-9-1-0-7" fill="#FFFFFF" d="M8,0.5L7.3,1L4.6,2.6C4.3,2.7,4.2,3.2,4.4,3.5l0.6,1l-2.5,2l1,1l2-1l2,1l1-1L5.5,3
		l3-1.5v-1H8z M2,8L0,9v1l2-1l1.5,1l2-1l2,1L9,9l2,1V9L9,8L7.5,9l-2-1l-2,1L2,8z"/>
	<circle id="path3338" fill="#FFFFFF" cx="9" cy="4" r="1"/>
</g>
</svg>
