<svg xmlns="http://www.w3.org/2000/svg" width="20" height="17" viewBox="0 0 20 17"><title>rails-icons</title><path d="M5.45,3.52C2.18,6.79,1.58,11.51,4.12,14S11.37,16,14.64,12.71s3.87-8,1.34-10.53S8.72,0.24,5.45,3.52h0Z" fill="#fff"/><path d="M7.29,10.07l0.39,0.86h3.49l0.07,0,0.09,0,0.07,0,0.08-.05,0.07-.06,0,0,0,0h0l0.83-.79,0.72-.7,0.1-.1L13.43,9l0.12,0h0.93l1.74-1.68H12.1l-0.17,0-0.16.07-0.13.13-0.79.77L10.07,9l0,0h0v0l-0.06,0L9.84,9.2l-0.13,0H6.44l0.37,0.83H7.29" fill="#5497c7"/><path d="M16.4,7.56L15,8.88l-0.11.2-0.06.1,0,0.11-0.12.2-0.11.21-0.26.38-0.14.18L14,10.44l-0.16.16-0.15.17-0.16.16,0,0,0,0-0.07.09-0.09.07,0,0,0,0-0.17.16-0.18.14-0.09.07,0,0,0,0L12.32,12l-0.39.23-0.41.2-0.21.08-0.2.09-0.43.14-0.21.05-0.21.05-0.22,0-0.21,0-0.22,0H9.49l-0.1,0H9.2l-0.4,0-0.36-.05-0.19,0-0.17,0-0.33-.11L7.58,12.6l-0.15-.07-0.29-.17-0.27-.21L6.74,12l-0.11-.11L6.4,11.66l-0.1-.14-0.08-.13-0.09-.15L6,11.07l-0.12-.32-0.1-.35,0-.18,0-.18,0-.39V9.46l0-.19H3.52l0,0.25V10l0,0.24,0,0.23,0.06,0.23,0.06,0.22,0.07,0.23,0.07,0.21,0.09,0.21L4,11.78,4.14,12l0.12,0.18,0.14,0.19,0.14,0.18,0.17,0.18,0.16,0.15L5.05,13l0.18,0.14,0.2,0.14,0.2,0.12,0.21,0.11,0.44,0.2,0.46,0.14L7,13.93,7.22,14l0.25,0,0.27,0,0.28,0,0.29,0,0.64,0,0.32,0,0.32,0,0.3-.06,0.32-.07,0.3-.09,0.32-.1,0.3-.12,0.3-.13,0.6-.29L12.29,13l0.3-.18,0.28-.19,0.3-.2,0.13-.12,0.14-.11L13.57,12l0.14-.11,0.12-.13L14,11.69l0.12-.13,0.13-.12,0.23-.27,0.22-.27,0.21-.29,0.22-.29L15.29,10l0.19-.32,0-.09,0,0,0,0,0.09-.16L15.83,9,16,8.68l0.15-.36,0.14-.38,0.13-.38h0Z" fill="#9dc883"/><path d="M11.33,6.44L13,6.52,12.33,5.26H8.83l-0.17.05-0.16.1-0.15.14-0.82.78L6.8,7.05l-0.11.07-0.11.05H6.51l-0.06,0H5.56L3.82,8.91H7.9L8,8.87l0.09,0,0.15-.09,0.07-.05,0.07-.05,0.79-.77,0.78-.75L10,7,10.17,7l0.13,0h3.27l-0.38-.83H10.26l-0.16.05-0.15.08-0.12.13L9.14,7,9,7.12,8.9,7.17l-0.11,0H8.18L9,7.56" fill="#9dc883"/><path d="M3.61,8.67L5,7.33l0.21-.42L5.43,6.5l0.25-.39,0.13-.19L6,5.76l0.3-.35,0.33-.32,0.35-.32L7.3,4.49l0.37-.27L8.07,4l0.4-.21,0.42-.16L9.3,3.47l0.43-.1,0.44-.07,0.46,0h0.56l0.19,0,0.19,0,0.35,0.08,0.35,0.12,0.31,0.14,0.14,0.08,0.15,0.1L13.13,4l0.26,0.24L13.5,4.41l0.11,0.14L13.8,4.82,14,5.12,14,5.27l0.07,0.17,0.09,0.33,0,0.17,0,0.19,0,0.39V6.93H16.5V6.41l0-.25,0-.23,0-.24,0-.23-0.06-.23L16.26,5,16.17,4.8l-0.09-.21L16,4.4l-0.11-.19L15.6,3.84l-0.14-.18L15.31,3.5l-0.18-.17L15,3.17,14.78,3l-0.19-.13-0.21-.13-0.21-.11L14,2.55l-0.22-.08-0.23-.09-0.23-.07L13,2.24l-0.24,0-0.27,0-0.26,0L12,2.1H11.7l-0.65,0-0.63.08L9.8,2.34l-0.61.19-0.61.23L8,3.06l-0.59.35-0.56.41L6.56,4l-0.27.23L6,4.5l-0.24.26L5.54,5l-0.22.28-0.22.28-0.2.31-0.21.3L4.5,6.5l-0.18.32-0.16.35L4,7.52l-0.14.37-0.14.38-0.11.4h0Z" fill="#5497c7"/></svg>