<svg viewBox="-4 -4 23 23" width="23" height="23" data-reactid=".0.1.1.$theatre-15=1svg83.0.0"><rect x="-3" y="-3" rx="10.5" ry="10.5" width="21" height="21" stroke="#fff" style="stroke-linejoin:round;stroke-miterlimit:4px;" fill="#fff" stroke-width="2" data-reactid=".0.1.1.$theatre-15=1svg83.0.0.0"></rect><rect x="-3" y="-3" width="21" height="21" rx="10.5" ry="10.5" fill="#7f7874" data-reactid=".0.1.1.$theatre-15=1svg83.0.0.1"></rect><path fill="#fff" d="M 2 1 C 2 1 1 1 1 2 L 1 7.1582031 C 1 8.8884985 1.3540084 11 4.5 11 L 5 11 L 5 8 L 2.5 9 C 2.5 9 2.5 6.5 5 6.5 L 5 5 C 5 4.2921519 5.0867924 3.6791339 5.5 3.2246094 C 5.8815049 2.8049576 6.5046044 1.9674083 8.15625 2.7539062 L 9 3.3027344 L 9 2 C 9 2 9 1 8 1 C 7.2921519 1 6.0224473 2 5 2 C 3.9775528 2 2.786498 0.999998 2 1 z M 3 3 A 1.0000001 1.0000001 0 0 1 4 4 A 1.0000001 1.0000001 0 0 1 3 5 A 1.0000001 1.0000001 0 0 1 2 4 A 1.0000001 1.0000001 0 0 1 3 3 z M 7 4 C 7 4 6 4 6 5 L 6 10 C 6 12 7 14 10 14 C 13 14 14 12 14 10 L 14 5 C 14 4 13 4 13 4 C 12.292152 4 11.022447 5 10 5 C 8.9775527 5 7.7864979 4 7 4 z M 8 6 A 1.0000001 1.0000001 0 0 1 9 7 A 1.0000001 1.0000001 0 0 1 8 8 A 1.0000001 1.0000001 0 0 1 7 7 A 1.0000001 1.0000001 0 0 1 8 6 z M 12 6 A 1.0000001 1.0000001 0 0 1 13 7 A 1.0000001 1.0000001 0 0 1 12 8 A 1.0000001 1.0000001 0 0 1 11 7 A 1.0000001 1.0000001 0 0 1 12 6 z M 7.5 10 L 10 10 L 12.5 10 C 12.5 10 12.5 12.5 10 12.5 C 7.5 12.5 7.5 10 7.5 10 z " data-reactid=".0.1.1.$theatre-15=1svg83.0.0.3:$theatre-15=1svg-0-fill"></path></svg>