<?xml version="1.0" encoding="utf-8"?>
<!-- Generator: Adobe Illustrator 17.1.0, SVG Export Plug-In . SVG Version: 6.00 Build 0)  -->
<!DOCTYPE svg PUBLIC "-//W3C//DTD SVG 1.1//EN" "http://www.w3.org/Graphics/SVG/1.1/DTD/svg11.dtd">
<svg version="1.1"
	 id="svg2" xmlns:svg="http://www.w3.org/2000/svg" xmlns:cc="http://creativecommons.org/ns#" xmlns:dc="http://purl.org/dc/elements/1.1/" xmlns:rdf="http://www.w3.org/1999/02/22-rdf-syntax-ns#"
	 xmlns="http://www.w3.org/2000/svg" xmlns:xlink="http://www.w3.org/1999/xlink" x="0px" y="0px" width="19px" height="19px"
	 viewBox="0 0 19 19" enable-background="new 0 0 19 19" xml:space="preserve">
<ellipse id="ellipse4" fill="#FFFFFF" cx="9.5" cy="9.5" rx="9.5" ry="9.5"/>
<ellipse id="ellipse6" fill="#A9A199" cx="9.5" cy="9.5" rx="8.5" ry="8.5"/>
<g id="g8" transform="translate(4,4)">
	<path id="path6370" fill="#FFFFFF" d="M0.6,0.7C0.3,0.7,0,1,0,1.3V5c0,1.4,0.6,3,3,3h0.5V6.2H1.2C1.2,6.2,1.5,5,3,5
		c0.3,0,0.4,0,0.6,0.1V3.7c0-0.6,0.2-1,0.6-1.3C4.5,2.1,4.8,2,5.4,2H6V1.4c0-0.3-0.2-0.7-0.5-0.7C4.9,0.7,4.3,1.3,3,1.3
		C2,1.3,1.2,0.7,0.6,0.7z M1.8,2.5c0.4,0,0.8,0.3,0.8,0.8S2.2,4,1.8,4S1,3.7,1,3.2S1.3,2.5,1.8,2.5z M5.5,3C5.2,3,4.9,3.4,4.9,3.7
		v3.7c0,1.4,0.6,3,3,3s3-1.7,3-3V3.7C11,3.4,10.8,3,10.5,3C9.9,3,8.9,3.5,8,3.5S6.1,3,5.5,3z M6.8,5c0.4,0,0.8,0.3,0.8,0.8
		S7.2,6.5,6.8,6.5S6,6.2,6,5.8S6.3,5,6.8,5z M9.2,5C9.7,5,10,5.3,10,5.8S9.7,6.5,9.2,6.5S8.5,6.2,8.5,5.8S8.8,5,9.2,5z M6.2,8.1h3.7
		c0,0-0.3,1.2-1.8,1.2S6.2,8.1,6.2,8.1z"/>
</g>
</svg>
