<?xml version="1.0" encoding="utf-8"?>
<!-- Generator: Adobe Illustrator 17.1.0, SVG Export Plug-In . SVG Version: 6.00 Build 0)  -->
<!DOCTYPE svg PUBLIC "-//W3C//DTD SVG 1.1//EN" "http://www.w3.org/Graphics/SVG/1.1/DTD/svg11.dtd">
<svg version="1.1"
	 id="svg2" xmlns:svg="http://www.w3.org/2000/svg" xmlns:cc="http://creativecommons.org/ns#" xmlns:dc="http://purl.org/dc/elements/1.1/" xmlns:rdf="http://www.w3.org/1999/02/22-rdf-syntax-ns#"
	 xmlns="http://www.w3.org/2000/svg" xmlns:xlink="http://www.w3.org/1999/xlink" x="0px" y="0px" width="23px" height="23px"
	 viewBox="0 0 23 23" enable-background="new 0 0 23 23" xml:space="preserve">
<ellipse id="ellipse4" fill="#FFFFFF" cx="11.5" cy="11.5" rx="11.5" ry="11.5"/>
<ellipse id="ellipse6" fill="#A9A199" cx="11.5" cy="11.5" rx="10.5" ry="10.5"/>
<g id="g8" transform="translate(4,4)">
	<path id="path6342-3" fill="#FFFFFF" d="M2,1c0,0-1,0-1,1v5.2C1,8.9,1.4,11,4.5,11H5V8L2.5,9c0,0,0-2.5,2.5-2.5V5
		c0-0.7,0.1-1.3,0.5-1.8c0.4-0.4,1-1.3,2.7-0.5L9,3.3V2c0,0,0-1-1-1C7.3,1,6,2,5,2S2.8,1,2,1z M3,3c0.6,0,1,0.4,1,1S3.6,5,3,5
		S2,4.6,2,4S2.4,3,3,3z M7,4c0,0-1,0-1,1v5c0,2,1,4,4,4s4-2,4-4V5c0-1-1-1-1-1c-0.7,0-2,1-3,1S7.8,4,7,4z M8,6c0.6,0,1,0.4,1,1
		S8.6,8,8,8S7,7.6,7,7S7.4,6,8,6z M12,6c0.6,0,1,0.4,1,1s-0.4,1-1,1s-1-0.4-1-1S11.4,6,12,6z M7.5,10H10h2.5c0,0,0,2.5-2.5,2.5
		S7.5,10,7.5,10z"/>
</g>
</svg>
