<svg viewBox="-4 -4 19 19" width="19" height="19" data-reactid=".0.1.1.$toilet-11=1svg84.0.0"><rect x="-3" y="-3" rx="8.5" ry="8.5" width="17" height="17" stroke="#fff" style="stroke-linejoin:round;stroke-miterlimit:4px;" fill="#fff" stroke-width="2" data-reactid=".0.1.1.$toilet-11=1svg84.0.0.0"></rect><rect x="-3" y="-3" width="17" height="17" rx="8.5" ry="8.5" fill="#7f7874" data-reactid=".0.1.1.$toilet-11=1svg84.0.0.1"></rect><path fill="#fff" d="M 3.3007812 0 A 1.2 1.2 0 0 0 2.0996094 1.1992188 A 1.2 1.2 0 0 0 3.3007812 2.4003906 A 1.2 1.2 0 0 0 4.5 1.1992188 A 1.2 1.2 0 0 0 3.3007812 0 z M 8.8007812 0 A 1.2 1.2 0 0 0 7.5996094 1.1992188 A 1.2 1.2 0 0 0 8.8007812 2.4003906 A 1.2 1.2 0 0 0 10 1.1992188 A 1.2 1.2 0 0 0 8.8007812 0 z M 2.5 3 L 0 8.5 L 2.5 8.5 L 2.5 11 L 4 11 L 4 8.5 L 6.5 8.5 L 4 3 L 2.5 3 z M 7 3 C 6.7 3 6.5 3.2 6.5 3.5 L 6.5 6.5 C 6.5 6.8 6.7 7 7 7 L 7.1992188 7 L 7.5 7 L 7.5 8.5 L 8 8.5 L 8 11 L 9.5 11 L 9.5 8.5 L 10 8.5 L 10 7 L 10.5 7 C 10.8 7 11 6.8 11 6.5 L 11 3.5 C 11 3.2 10.8 3 10.5 3 L 10.400391 3 L 10 3 L 9 3 L 8.5 3 L 7.5 3 L 7 3 z " data-reactid=".0.1.1.$toilet-11=1svg84.0.0.3:$toilet-11=1svg-0-fill"></path></svg>