<svg xmlns="http://www.w3.org/2000/svg" width="20" height="17" viewBox="0 0 20 17"><title>rails-icons</title><rect x="2.94" y="1.17" width="15" height="15" rx="1.68" ry="1.68" fill="#fff"/><path d="M16.93,14.49a0.67,0.67,0,0,1-.68.68H4.61a0.68,0.68,0,0,1-.68-0.68V2.84a0.68,0.68,0,0,1,.68-0.68H16.25a0.67,0.67,0,0,1,.68.68V14.49Z" fill="#5497c7"/><path d="M10.44,10.36c-0.36,0-.65-0.09-0.65-0.39a2.11,2.11,0,0,1,.65-1.16A2.11,2.11,0,0,1,11.09,10C11.09,10.26,10.79,10.36,10.44,10.36Zm0,0.88c1.07,0,1.51-.36,1.51-0.9a3.47,3.47,0,0,0-1.09-1.9c0.86-.78,2-1.37,2.43-0.92s0,2-1.2,3.71l1.6,0.46c1.34-2.41,1.63-4.78.69-5.41-0.73-.51-2.56.49-3.94,1.77C9,6.76,7.21,5.76,6.48,6.27c-0.94.64-.65,3,0.7,5.41l1.6-.46C7.57,9.55,7.07,8,7.59,7.52S9.15,7.66,10,8.44a3.42,3.42,0,0,0-1.11,1.9C8.91,10.88,9.36,11.24,10.44,11.24Z" fill="#fff"/></svg>