<svg xmlns="http://www.w3.org/2000/svg" width="19" height="19" viewBox="0 0 19 19">
  <title>town-hall-11</title>
  <path d="M9.5,1h0A8.5,8.5,0,0,1,18,9.5h0A8.5,8.5,0,0,1,9.5,18h0A8.5,8.5,0,0,1,1,9.5H1A8.5,8.5,0,0,1,9.5,1Z" fill="#fff" stroke="#fff" stroke-linejoin="round" stroke-width="2"/>
  <path d="M9.5,1h0A8.5,8.5,0,0,1,18,9.5h0A8.5,8.5,0,0,1,9.5,18h0A8.5,8.5,0,0,1,1,9.5H1A8.5,8.5,0,0,1,9.5,1Z" fill="#7f7874"/>
  <path d="M9.5,4L5,6V7h9V6ZM6,8v4L5,13v1h9V13l-1-1V8H6ZM7,9H8v3H7V9ZM9,9h1v3H9V9Zm2,0h1v3H11V9Z" fill="#fff"/>
</svg>
