<?xml version="1.0" encoding="utf-8"?>
<!-- Generator: Adobe Illustrator 17.0.0, SVG Export Plug-In . SVG Version: 6.00 Build 0)  -->
<!DOCTYPE svg PUBLIC "-//W3C//DTD SVG 1.1//EN" "http://www.w3.org/Graphics/SVG/1.1/DTD/svg11.dtd">
<svg version="1.1"
	 id="svg2484" xmlns:dc="http://purl.org/dc/elements/1.1/" xmlns:cc="http://creativecommons.org/ns#" xmlns:rdf="http://www.w3.org/1999/02/22-rdf-syntax-ns#" xmlns:svg="http://www.w3.org/2000/svg" xmlns:sodipodi="http://sodipodi.sourceforge.net/DTD/sodipodi-0.dtd" xmlns:inkscape="http://www.inkscape.org/namespaces/inkscape" sodipodi:version="0.32" inkscape:output_extension="org.inkscape.output.svg.inkscape" sodipodi:docname="transilien-11.svg" inkscape:version="0.91+devel+osxmenu r12911"
	 xmlns="http://www.w3.org/2000/svg" xmlns:xlink="http://www.w3.org/1999/xlink" x="0px" y="0px" width="17px" height="17px"
	 viewBox="-1 -1 17 17" enable-background="new -1 -1 17 17" xml:space="preserve">
<g id="g3038_1_" transform="matrix(0.0581986,0,0,0.0581986,-1116.1461,991.08678)" inkscape:label="Calque 1">
	<g id="g3040_1_">
		<g id="g3042_1_" transform="translate(346.23962,22.336208)">
			<g id="g3044_1_" transform="translate(-597.84164,-361.66719)" inkscape:label="Calque 1">
				<g id="g3046_1_">
					<g id="g3048_1_" transform="matrix(1.0136364,0,0,1.0136364,-6.3061891,-6.3640296)">
					</g>
				</g>
			</g>
		</g>
	</g>
</g>
<sodipodi:namedview  inkscape:snap-intersection-paths="true" id="base" inkscape:zoom="32" inkscape:cx="1.8227414" showgrid="true" inkscape:cy="7.947028" bordercolor="#666666" borderopacity="1.0" pagecolor="#ffffff" inkscape:bbox-paths="true" inkscape:snap-bbox="true" inkscape:current-layer="layer1" inkscape:pageopacity="0.0" inkscape:window-y="1" inkscape:window-x="8" inkscape:snap-nodes="true" inkscape:object-paths="true" inkscape:document-units="px" inkscape:bbox-nodes="true" inkscape:snap-smooth-nodes="true" inkscape:pageshadow="2" inkscape:window-maximized="0" inkscape:object-nodes="true" inkscape:snap-bbox-edge-midpoints="true">
	
		<inkscape:grid  color="#ff0000" type="xygrid" opacity="0.1254902" id="grid2991" visible="true" empspacing="2" spacingy="0.5" enabled="true" spacingx="0.5" snapvisiblegridlinesonly="true">
		</inkscape:grid>
</sodipodi:namedview>
<g id="g3038" transform="matrix(0.0581986,0,0,0.0581986,-1116.1461,991.08678)" inkscape:label="Calque 1">
	<g id="g3040">
		<g id="g3042" transform="translate(346.23962,22.336208)">
			<g id="g3044" transform="translate(-597.84164,-361.66719)" inkscape:label="Calque 1">
				<g id="g3046">
					<g id="g3048" transform="matrix(1.0136364,0,0,1.0136364,-6.3061891,-6.3640296)">
					</g>
				</g>
			</g>
		</g>
	</g>
</g>
<path fill="#FFFFFF" d="M12.609-1H2.391C0.521-1-1,0.521-1,2.391v10.221C-1,14.48,0.521,16,2.391,16h10.219
	C14.479,16,16,14.48,16,12.611V2.391C16,0.521,14.479-1,12.609-1z M15,12.611C15,13.926,13.924,15,12.609,15H2.391
	C1.075,15,0,13.926,0,12.611V2.391C0,1.075,1.075,0,2.391,0h10.219C13.924,0,15,1.075,15,2.391V12.611z"/>
<rect x="5" y="7" fill="#FFFFFF" width="1" height="1"/>
<path fill="#FFFFFF" d="M10,5.5v-1C10,4.223,9.777,4,9.5,4h-4C5.223,4,5,4.223,5,4.5v1C5,5.777,5.223,6,5.5,6h4
	C9.777,6,10,5.777,10,5.5z"/>
<rect x="9" y="7" fill="#FFFFFF" width="1" height="1"/>
<path fill="#FFFFFF" d="M12.609,1H2.391C1.612,1,1,1.612,1,2.391v10.221C1,13.39,1.612,14,2.391,14h10.219
	C13.388,14,14,13.39,14,12.611V2.391C14,1.612,13.388,1,12.609,1z M10,12l-1.25-2h-2.5L5,12H3.5L5,9.516c-0.554,0-1-0.42-1-0.938
	V3.937C4,3.42,4.446,3,5,3h5c0.554,0,1,0.421,1,0.938v4.641c0,0.517-0.446,0.938-1,0.938L11.5,12H10z"/>
<path fill="#5396C7" d="M12.609,0H2.391C1.075,0,0,1.075,0,2.391v10.221C0,13.926,1.075,15,2.391,15h10.219
	C13.924,15,15,13.926,15,12.611V2.391C15,1.075,13.924,0,12.609,0z M14,12.611C14,13.39,13.388,14,12.609,14H2.391
	C1.612,14,1,13.39,1,12.611V2.391C1,1.612,1.612,1,2.391,1h10.219C13.388,1,14,1.612,14,2.391V12.611z"/>
<path fill="#5396C7" d="M11,8.578V3.937C11,3.42,10.554,3,10,3H5C4.446,3,4,3.42,4,3.937v4.641c0,0.517,0.446,0.938,1,0.938L3.5,12
	H5l1.25-2h2.5L10,12h1.5L10,9.516C10.554,9.516,11,9.095,11,8.578z M6,8H5V7h1V8z M5.5,6C5.223,6,5,5.777,5,5.5v-1
	C5,4.223,5.223,4,5.5,4h4C9.777,4,10,4.223,10,4.5v1C10,5.777,9.777,6,9.5,6H5.5z M9,8V7h1v1H9z"/>
</svg>
