<?xml version="1.0" encoding="utf-8"?>
<!-- Generator: Adobe Illustrator 17.1.0, SVG Export Plug-In . SVG Version: 6.00 Build 0)  -->
<!DOCTYPE svg PUBLIC "-//W3C//DTD SVG 1.1//EN" "http://www.w3.org/Graphics/SVG/1.1/DTD/svg11.dtd">
<svg version="1.1"
	 id="svg2484" inkscape:output_extension="org.inkscape.output.svg.inkscape" sodipodi:version="0.32" xmlns:svg="http://www.w3.org/2000/svg" xmlns:cc="http://creativecommons.org/ns#" xmlns:dc="http://purl.org/dc/elements/1.1/" xmlns:rdf="http://www.w3.org/1999/02/22-rdf-syntax-ns#" sodipodi:docname="transilien-11.svg" inkscape:version="0.91+devel+osxmenu r12911" xmlns:inkscape="http://www.inkscape.org/namespaces/inkscape" xmlns:sodipodi="http://sodipodi.sourceforge.net/DTD/sodipodi-0.dtd"
	 xmlns="http://www.w3.org/2000/svg" xmlns:xlink="http://www.w3.org/1999/xlink" x="0px" y="0px" width="17px" height="17px"
	 viewBox="0 0 17 17" enable-background="new 0 0 17 17" xml:space="preserve">
<g id="g3038_1_" transform="matrix(0.0581986,0,0,0.0581986,-1116.1461,991.08678)" inkscape:label="Calque 1">
	<g id="g3040_1_">
		<g id="g3042_1_" transform="translate(346.23962,22.336208)">
			<g id="g3044_1_" transform="translate(-597.84164,-361.66719)" inkscape:label="Calque 1">
				<g id="g3046_1_">
					<g id="g3048_1_" transform="matrix(1.0136364,0,0,1.0136364,-6.3061891,-6.3640296)">
					</g>
				</g>
			</g>
		</g>
	</g>
</g>
<sodipodi:namedview  inkscape:snap-nodes="true" inkscape:snap-bbox-edge-midpoints="true" inkscape:snap-intersection-paths="true" inkscape:window-x="8" inkscape:snap-smooth-nodes="true" inkscape:bbox-nodes="true" inkscape:snap-bbox="true" inkscape:object-nodes="true" inkscape:object-paths="true" inkscape:pageopacity="0.0" inkscape:document-units="px" inkscape:pageshadow="2" inkscape:current-layer="layer1" inkscape:window-y="1" inkscape:bbox-paths="true" inkscape:window-maximized="0" showgrid="true" pagecolor="#ffffff" bordercolor="#666666" id="base" inkscape:cy="7.947028" inkscape:zoom="32" borderopacity="1.0" inkscape:cx="1.8227414">
	
		<inkscape:grid  type="xygrid" color="#ff0000" snapvisiblegridlinesonly="true" spacingy="0.5" spacingx="0.5" opacity="0.1254902" empspacing="2" id="grid2991" enabled="true" visible="true">
		</inkscape:grid>
</sodipodi:namedview>
<g id="g3038" transform="matrix(0.0581986,0,0,0.0581986,-1116.1461,991.08678)" inkscape:label="Calque 1">
	<g id="g3040">
		<g id="g3042" transform="translate(346.23962,22.336208)">
			<g id="g3044" transform="translate(-597.84164,-361.66719)" inkscape:label="Calque 1">
				<g id="g3046">
					<g id="g3048" transform="matrix(1.0136364,0,0,1.0136364,-6.3061891,-6.3640296)">
					</g>
				</g>
			</g>
		</g>
	</g>
</g>
<path fill="#FFFFFF" d="M12.6-1H2.4C0.5-1-1,0.5-1,2.4v10.2c0,1.9,1.5,3.4,3.4,3.4h10.2c1.9,0,3.4-1.5,3.4-3.4V2.4
	C16,0.5,14.5-1,12.6-1z M15,12.6c0,1.3-1.1,2.4-2.4,2.4H2.4C1.1,15,0,13.9,0,12.6V2.4C0,1.1,1.1,0,2.4,0h10.2C13.9,0,15,1.1,15,2.4
	V12.6z"/>
<rect x="5" y="7" fill="#FFFFFF" width="1" height="1"/>
<path fill="#FFFFFF" d="M10,5.5v-1C10,4.2,9.8,4,9.5,4h-4C5.2,4,5,4.2,5,4.5v1C5,5.8,5.2,6,5.5,6h4C9.8,6,10,5.8,10,5.5z"/>
<rect x="9" y="7" fill="#FFFFFF" width="1" height="1"/>
<path fill="#FFFFFF" d="M12.6,1H2.4C1.6,1,1,1.6,1,2.4v10.2C1,13.4,1.6,14,2.4,14h10.2c0.8,0,1.4-0.6,1.4-1.4V2.4
	C14,1.6,13.4,1,12.6,1z M10,12l-1.2-2H6.2L5,12H3.5L5,9.5c-0.6,0-1-0.4-1-0.9V3.9C4,3.4,4.4,3,5,3h5c0.6,0,1,0.4,1,0.9v4.6
	c0,0.5-0.4,0.9-1,0.9l1.5,2.5H10z"/>
<path fill="#5396C7" d="M12.6,0H2.4C1.1,0,0,1.1,0,2.4v10.2C0,13.9,1.1,15,2.4,15h10.2c1.3,0,2.4-1.1,2.4-2.4V2.4
	C15,1.1,13.9,0,12.6,0z M14,12.6c0,0.8-0.6,1.4-1.4,1.4H2.4C1.6,14,1,13.4,1,12.6V2.4C1,1.6,1.6,1,2.4,1h10.2C13.4,1,14,1.6,14,2.4
	V12.6z"/>
<path fill="#5396C7" d="M11,8.6V3.9C11,3.4,10.6,3,10,3H5C4.4,3,4,3.4,4,3.9v4.6c0,0.5,0.4,0.9,1,0.9L3.5,12H5l1.2-2h2.5l1.2,2h1.5
	L10,9.5C10.6,9.5,11,9.1,11,8.6z M6,8H5V7h1V8z M5.5,6C5.2,6,5,5.8,5,5.5v-1C5,4.2,5.2,4,5.5,4h4C9.8,4,10,4.2,10,4.5v1
	C10,5.8,9.8,6,9.5,6H5.5z M9,8V7h1v1H9z"/>
</svg>
