<?xml version="1.0" encoding="utf-8"?>
<!-- Generator: Adobe Illustrator 17.1.0, SVG Export Plug-In . SVG Version: 6.00 Build 0)  -->
<!DOCTYPE svg PUBLIC "-//W3C//DTD SVG 1.1//EN" "http://www.w3.org/Graphics/SVG/1.1/DTD/svg11.dtd">
<svg version="1.1"
	 id="svg3844" xmlns:svg="http://www.w3.org/2000/svg" xmlns:cc="http://creativecommons.org/ns#" xmlns:dc="http://purl.org/dc/elements/1.1/" xmlns:rdf="http://www.w3.org/1999/02/22-rdf-syntax-ns#" sodipodi:docname="us-highway-truck-3-large.svg" inkscape:version="0.91 r13725" xmlns:inkscape="http://www.inkscape.org/namespaces/inkscape" xmlns:sodipodi="http://sodipodi.sourceforge.net/DTD/sodipodi-0.dtd"
	 xmlns="http://www.w3.org/2000/svg" xmlns:xlink="http://www.w3.org/1999/xlink" x="0px" y="0px" width="30px" height="35px"
	 viewBox="0 0 30 35" enable-background="new 0 0 30 35" xml:space="preserve">
<sodipodi:namedview  fit-margin-bottom="0" inkscape:window-width="1920" inkscape:window-height="1031" inkscape:snap-global="true" fit-margin-right="0" inkscape:window-x="-277" inkscape:snap-smooth-nodes="false" inkscape:bbox-nodes="true" inkscape:snap-bbox="true" inkscape:object-nodes="true" inkscape:pageopacity="0.0" inkscape:document-units="px" inkscape:pageshadow="2" inkscape:current-layer="layer1" inkscape:window-y="55" inkscape:bbox-paths="false" inkscape:window-maximized="0" showgrid="true" pagecolor="#ffffff" bordercolor="#666666" id="base" inkscape:cy="16.717177" inkscape:zoom="16.000001" borderopacity="1.0" inkscape:cx="-4.4375382" fit-margin-left="0" fit-margin-top="0">
	
		<inkscape:grid  type="xygrid" snapvisiblegridlinesonly="true" spacingy="0.5px" spacingx="0.5px" empspacing="2" id="grid3875" originy="-125" enabled="true" visible="true" originx="-296.00001">
		</inkscape:grid>
</sodipodi:namedview>
<g id="layer1" transform="translate(-296.00001,-892.36218)" inkscape:groupmode="layer" inkscape:label="Layer 1">
	<rect id="rect3803" x="299.5" y="892.4" fill="none" width="23" height="35"/>
	<path id="rect4807" fill="#FFFFFF" d="M301.5,892.4h19c0.6,0,1,0.4,1,1v6c0,0.6-0.4,1-1,1h-19c-0.6,0-1-0.4-1-1v-6
		C300.5,892.8,300.9,892.4,301.5,892.4z"/>
	<path id="path5308" inkscape:connector-curvature="0" fill="#3A3836" d="M315.4,893.6c-0.5,0-0.9,0.1-1.2,0.3
		c-0.3,0.2-0.6,0.6-0.8,1c-0.2,0.4-0.3,0.9-0.3,1.5c0,0.9,0.2,1.6,0.6,2.1c0.4,0.5,0.9,0.7,1.6,0.7c0.5,0,0.9-0.1,1.2-0.2v-0.8
		c-0.2,0.1-0.4,0.1-0.6,0.2c-0.2,0-0.4,0.1-0.6,0.1c-0.5,0-0.8-0.2-1.1-0.5c-0.2-0.3-0.4-0.9-0.4-1.5c0-0.6,0.1-1.1,0.4-1.5
		s0.6-0.5,1-0.5c0.2,0,0.4,0,0.6,0.1c0.2,0.1,0.3,0.1,0.5,0.2l0.3-0.7C316.3,893.7,315.8,893.6,315.4,893.6L315.4,893.6z
		 M301.3,893.7v0.8h1.4v4.7h0.8v-4.7h1.4v-0.8H301.3z M305.1,893.7v5.5h0.8V897h0.8l1.1,2.2h0.9l-1.3-2.4c0.6-0.3,0.9-0.8,0.9-1.5
		c0-0.5-0.1-0.9-0.4-1.2c-0.3-0.3-0.7-0.4-1.3-0.4H305.1L305.1,893.7z M308.9,893.7v3.5c0,0.6,0.2,1.1,0.5,1.5
		c0.3,0.4,0.8,0.5,1.4,0.5c0.4,0,0.7-0.1,1-0.2c0.3-0.2,0.5-0.4,0.6-0.7c0.1-0.3,0.2-0.7,0.2-1.1v-3.5h-0.8v3.5
		c0,0.9-0.4,1.3-1.1,1.3c-0.4,0-0.6-0.1-0.8-0.3c-0.2-0.2-0.3-0.5-0.3-1v-3.5H308.9z M317.1,893.7v5.5h0.8v-2l0.5-0.4l1.5,2.5h0.9
		l-1.8-3.1c0.4-0.5,0.9-1.3,1.8-2.4h-0.9l-1.3,1.7c-0.2,0.3-0.4,0.6-0.6,0.9v-2.6L317.1,893.7L317.1,893.7z M305.9,894.4h0.5
		c0.3,0,0.6,0.1,0.8,0.2c0.2,0.1,0.3,0.4,0.3,0.7c0,0.3-0.1,0.5-0.2,0.7c-0.2,0.2-0.4,0.2-0.8,0.2h-0.5V894.4z"/>
	
		<path id="path3799-7-8" sodipodi:nodetypes="ccsscssccscsc" inkscape:connector-curvature="0" fill="#FFFFFF" stroke="#3A3836" stroke-width="1" stroke-linecap="round" stroke-linejoin="round" d="
		M302.5,901.4l-6,3.1c0.6,0.6,2.4,1.8,1.2,4.3c-1.2,2.5-1.8,6.1,0.6,8.6c3,3.1,11.5,0.6,12.7,3.1c1.2-2.5,9.7,0,12.7-3.1
		c2.4-2.5,1.8-6.1,0.6-8.6c-1.2-2.5,0.6-3.7,1.2-4.3l-6-3.1c0,0-1.8,1.8-4.2,1.8c-2.4,0-4.2-1.8-4.2-1.8s-1.8,1.8-4.2,1.8
		S302.5,901.4,302.5,901.4z"/>
</g>
</svg>
