<?xml version="1.0" encoding="utf-8"?>
<!-- Generator: Adobe Illustrator 17.1.0, SVG Export Plug-In . SVG Version: 6.00 Build 0)  -->
<!DOCTYPE svg PUBLIC "-//W3C//DTD SVG 1.1//EN" "http://www.w3.org/Graphics/SVG/1.1/DTD/svg11.dtd">
<svg version="1.1"
	 id="svg3844" xmlns:svg="http://www.w3.org/2000/svg" xmlns:cc="http://creativecommons.org/ns#" xmlns:dc="http://purl.org/dc/elements/1.1/" xmlns:rdf="http://www.w3.org/1999/02/22-rdf-syntax-ns#"
	 xmlns="http://www.w3.org/2000/svg" xmlns:xlink="http://www.w3.org/1999/xlink" x="0px" y="0px" width="27px" height="35px"
	 viewBox="0 0 27 35" enable-background="new 0 0 27 35" xml:space="preserve">
<g id="layer1" transform="translate(-296.00001,-892.36218)">
	<rect id="rect3803" x="298" y="892.4" fill="none" width="23" height="35"/>
	<g id="g10245" transform="matrix(1.2111104,0,0,1.2042548,-65.338678,-185.07776)">
		<path id="rect4807" fill="#FFFFFF" d="M301.7,894.7h15.7c0.5,0,0.8,0.4,0.8,0.8v5c0,0.5-0.4,0.8-0.8,0.8h-15.7
			c-0.5,0-0.8-0.4-0.8-0.8v-5C300.8,895.1,301.2,894.7,301.7,894.7z"/>
		<g id="text4837" transform="matrix(0.92169959,0,0,1.0849522,0,0.14679344)">
			<path id="path5308" fill="#3A3836" d="M339.7,825.4c-0.4,0-0.8,0.1-1.1,0.3c-0.3,0.2-0.5,0.4-0.7,0.8c-0.2,0.3-0.2,0.7-0.2,1.1
				c0,0.7,0.2,1.2,0.5,1.6c0.3,0.4,0.8,0.6,1.4,0.6c0.4,0,0.8-0.1,1.1-0.2V829c-0.2,0.1-0.4,0.1-0.5,0.1c-0.2,0-0.3,0.1-0.5,0.1
				c-0.4,0-0.7-0.1-0.9-0.4c-0.2-0.3-0.3-0.7-0.3-1.2c0-0.5,0.1-0.9,0.3-1.2c0.2-0.3,0.5-0.4,0.9-0.4c0.2,0,0.3,0,0.5,0.1
				c0.2,0,0.3,0.1,0.4,0.2l0.2-0.6C340.5,825.5,340.1,825.4,339.7,825.4z M327.1,825.5v0.6h1.2v3.6h0.7v-3.6h1.2v-0.6
				C330.3,825.5,327.1,825.5,327.1,825.5z M330.6,825.5v4.2h0.7V828h0.7l1,1.7h0.8l-1.2-1.9c0.5-0.2,0.8-0.6,0.8-1.1
				c0-0.4-0.1-0.7-0.4-0.9s-0.7-0.3-1.2-0.3C331.7,825.5,330.6,825.5,330.6,825.5z M333.9,825.5v2.7c0,0.5,0.1,0.9,0.4,1.1
				c0.3,0.3,0.7,0.4,1.2,0.4c0.3,0,0.7-0.1,0.9-0.2c0.3-0.1,0.4-0.3,0.6-0.5c0.1-0.2,0.2-0.5,0.2-0.8v-2.7h-0.7v2.6c0,0.7-0.3,1-1,1
				c-0.3,0-0.6-0.1-0.7-0.2c-0.2-0.2-0.2-0.4-0.2-0.8v-2.7C334.6,825.5,333.9,825.5,333.9,825.5z M341.3,825.5v4.2h0.7v-1.6l0.4-0.3
				l1.3,1.9h0.8l-1.6-2.4c0.3-0.4,0.8-1,1.6-1.8h-0.8l-1.1,1.3c-0.2,0.2-0.4,0.4-0.6,0.7v-2C341.9,825.5,341.3,825.5,341.3,825.5z
				 M331.2,826.1h0.5c0.3,0,0.5,0.1,0.7,0.2s0.2,0.3,0.2,0.5c0,0.2-0.1,0.4-0.2,0.5s-0.4,0.2-0.7,0.2h-0.5V826.1z"/>
		</g>
		<path id="path3799-7" fill="#FFFFFF" stroke="#3A3836" stroke-width="0.828" stroke-linecap="round" stroke-linejoin="round" d="
			M303.5,902.1l-4.8,2.5c0.6,0.5,2.4,1.5,1.2,3.6c-1.2,2-1.8,5.1,0.6,7.1c3,2.5,7.8,0.5,8.9,2.5c1.2-2,6,0,8.9-2.5
			c2.4-2,1.8-5.1,0.6-7.1s0.6-3.1,1.2-3.6l-4.8-2.5c0,0-1.2,1.5-3,1.5s-3-1.5-3-1.5s-1.2,1.5-3,1.5
			C304.7,903.6,303.5,902.1,303.5,902.1L303.5,902.1z"/>
	</g>
</g>
</svg>
