<?xml version="1.0" encoding="utf-8"?>
<!-- Generator: Adobe Illustrator 17.1.0, SVG Export Plug-In . SVG Version: 6.00 Build 0)  -->
<!DOCTYPE svg PUBLIC "-//W3C//DTD SVG 1.1//EN" "http://www.w3.org/Graphics/SVG/1.1/DTD/svg11.dtd">
<svg version="1.1"
	 id="svg3844" xmlns:svg="http://www.w3.org/2000/svg" xmlns:cc="http://creativecommons.org/ns#" xmlns:dc="http://purl.org/dc/elements/1.1/" xmlns:rdf="http://www.w3.org/1999/02/22-rdf-syntax-ns#"
	 xmlns="http://www.w3.org/2000/svg" xmlns:xlink="http://www.w3.org/1999/xlink" x="0px" y="0px" width="27px" height="21px"
	 viewBox="0 0 27 21" enable-background="new 0 0 27 21" xml:space="preserve">
<g id="layer1" transform="translate(-300.00005,-897.36213)">
	<path id="path3799-7" fill="#FFFFFF" stroke="#3A3836" stroke-linecap="round" stroke-linejoin="round" d="M306.3,897.9l-5.8,3.1
		c0.7,0.6,2.9,1.8,1.4,4.3c-1.4,2.5-2.2,6.1,0.7,8.6c3.6,3.1,9.4,0.6,10.8,3.1c1.4-2.5,7.2,0,10.8-3.1c2.9-2.5,2.2-6.1,0.7-8.6
		c-1.4-2.5,0.7-3.7,1.4-4.3l-5.8-3.1c0,0-1.4,1.8-3.6,1.8c-2.2,0-3.6-1.8-3.6-1.8s-1.4,1.8-3.6,1.8S306.3,897.9,306.3,897.9
		L306.3,897.9z"/>
</g>
</svg>
