<?xml version="1.0" encoding="utf-8"?>
<!-- Generator: Adobe Illustrator 17.0.0, SVG Export Plug-In . SVG Version: 6.00 Build 0)  -->
<!DOCTYPE svg PUBLIC "-//W3C//DTD SVG 1.1//EN" "http://www.w3.org/Graphics/SVG/1.1/DTD/svg11.dtd">
<svg version="1.1"
	 id="svg3844" xmlns:dc="http://purl.org/dc/elements/1.1/" xmlns:cc="http://creativecommons.org/ns#" xmlns:rdf="http://www.w3.org/1999/02/22-rdf-syntax-ns#" xmlns:svg="http://www.w3.org/2000/svg"
	 xmlns="http://www.w3.org/2000/svg" xmlns:xlink="http://www.w3.org/1999/xlink" x="0px" y="0px" width="17px" height="31px"
	 viewBox="0 0 17 31" enable-background="new 0 0 17 31" xml:space="preserve">
<g>
	<path fill="#FFFFFF" d="M4.052,2.914C4.204,2.808,4.28,2.63,4.28,2.379c0-0.227-0.083-0.391-0.248-0.492
		C3.87,1.785,3.61,1.734,3.253,1.734H2.569v1.335h0.76C3.659,3.069,3.9,3.017,4.052,2.914z"/>
	<path fill="#FFFFFF" d="M3.368,3.71h-0.8v1.53h0.839c0.33,0,0.579-0.063,0.747-0.188c0.17-0.128,0.254-0.328,0.254-0.601
		c0-0.251-0.086-0.437-0.258-0.558S3.719,3.71,3.368,3.71z"/>
	<path fill="#FFFFFF" d="M16,0H1C0.448,0,0,0.448,0,1v5c0,0.552,0.448,1,1,1h15c0.552,0,1-0.448,1-1V1C17,0.448,16.552,0,16,0z
		 M4.786,5.537C4.484,5.782,4.063,5.904,3.524,5.904H1.779V1.073v0v0h1.434c0.665,0,1.145,0.097,1.441,0.291
		C4.951,1.558,5.1,1.864,5.1,2.283c0,0.282-0.073,0.516-0.218,0.704C4.736,3.174,4.527,3.292,4.254,3.34v0.033
		c0.339,0.064,0.588,0.191,0.747,0.38C5.161,3.94,5.242,4.195,5.242,4.516C5.242,4.95,5.09,5.291,4.786,5.537z M10.033,4.199
		c0,0.357-0.077,0.67-0.231,0.938C9.65,5.404,9.428,5.61,9.138,5.756C8.849,5.899,8.503,5.97,8.1,5.97
		c-0.599,0-1.065-0.159-1.398-0.476S6.203,4.741,6.203,4.186V1.073h0.793V4.13c0,0.399,0.093,0.693,0.278,0.882
		c0.185,0.189,0.469,0.284,0.852,0.284c0.745,0,1.117-0.391,1.117-1.173v-3.05h0.79h0V4.199z M13.588,5.604
		c-0.311,0.245-0.739,0.367-1.285,0.367s-0.993-0.085-1.341-0.254V4.969c0.22,0.104,0.454,0.185,0.701,0.245
		c0.249,0.059,0.48,0.089,0.694,0.089c0.313,0,0.543-0.06,0.691-0.178c0.15-0.119,0.225-0.279,0.225-0.479
		c0-0.181-0.068-0.334-0.205-0.459C12.93,4.06,12.648,3.912,12.22,3.74c-0.441-0.178-0.751-0.382-0.932-0.611
		c-0.181-0.229-0.271-0.504-0.271-0.826c0-0.403,0.143-0.72,0.43-0.952c0.286-0.231,0.671-0.347,1.153-0.347
		c0.463,0,0.923,0.101,1.381,0.304L13.73,1.952c-0.43-0.181-0.813-0.271-1.15-0.271c-0.256,0-0.449,0.056-0.582,0.169
		c-0.132,0.11-0.198,0.257-0.198,0.439c0,0.126,0.026,0.234,0.079,0.324c0.053,0.088,0.14,0.172,0.261,0.251
		s0.339,0.184,0.654,0.314c0.355,0.148,0.615,0.285,0.78,0.413c0.165,0.128,0.286,0.272,0.363,0.433
		c0.077,0.161,0.116,0.35,0.116,0.568l0,0C14.054,5.022,13.899,5.359,13.588,5.604z M15.4,5.882
		c-0.088,0.092-0.216,0.139-0.384,0.139s-0.295-0.046-0.384-0.139S14.5,5.662,14.5,5.5c0-0.164,0.044-0.291,0.133-0.378
		c0.088-0.088,0.216-0.132,0.384-0.132c0.17,0,0.299,0.046,0.387,0.139c0.088,0.09,0.133,0.214,0.133,0.372
		C15.536,5.66,15.491,5.787,15.4,5.882z"/>
	<path fill="#3A3836" d="M15.016,4.99c-0.167,0-0.295,0.044-0.384,0.132C14.544,5.209,14.5,5.336,14.5,5.5
		c0,0.162,0.044,0.289,0.133,0.382s0.216,0.139,0.384,0.139s0.295-0.046,0.384-0.139c0.091-0.095,0.136-0.222,0.136-0.382
		c0-0.158-0.044-0.282-0.133-0.372C15.315,5.036,15.186,4.99,15.016,4.99z"/>
	<polygon fill="#3A3836" points="2.569,3.069 2.569,3.069 2.569,3.069 	"/>
	<path fill="#3A3836" d="M4.254,3.373V3.34c0.273-0.048,0.482-0.166,0.628-0.354C5.027,2.799,5.1,2.565,5.1,2.283
		c0-0.419-0.149-0.725-0.446-0.919C4.359,1.17,3.878,1.073,3.213,1.073H1.779v4.831h1.745c0.54,0,0.96-0.122,1.262-0.367
		C5.09,5.291,5.242,4.95,5.242,4.516c0-0.322-0.08-0.576-0.241-0.763C4.842,3.564,4.593,3.437,4.254,3.373z M2.569,1.734h0.684
		c0.357,0,0.617,0.051,0.78,0.152C4.198,1.988,4.28,2.152,4.28,2.379c0,0.251-0.076,0.43-0.228,0.535
		C3.9,3.017,3.659,3.069,3.329,3.069h-0.76v0l0,0h0V1.734z M4.155,5.052C3.987,5.177,3.738,5.24,3.408,5.24H2.569V3.71h0.8
		c0.35,0,0.611,0.061,0.783,0.182S4.409,4.199,4.409,4.45C4.409,4.723,4.324,4.924,4.155,5.052z"/>
	<path fill="#3A3836" d="M9.243,1.073v3.05c0,0.782-0.372,1.173-1.117,1.173c-0.383,0-0.667-0.095-0.852-0.284
		C7.089,4.823,6.996,4.529,6.996,4.13V1.073H6.203v3.113c0,0.555,0.166,0.991,0.499,1.308S7.501,5.97,8.1,5.97
		c0.403,0,0.749-0.072,1.038-0.215C9.428,5.61,9.65,5.404,9.802,5.138c0.154-0.269,0.231-0.582,0.231-0.938V1.073h0H9.243z"/>
	<path fill="#3A3836" d="M13.939,4.024c-0.077-0.161-0.198-0.305-0.363-0.433c-0.165-0.128-0.425-0.265-0.78-0.413
		c-0.315-0.13-0.533-0.235-0.654-0.314s-0.208-0.163-0.261-0.251c-0.053-0.09-0.079-0.198-0.079-0.324
		c0-0.183,0.066-0.329,0.198-0.439c0.132-0.112,0.326-0.169,0.582-0.169c0.337,0,0.72,0.09,1.15,0.271l0.251-0.644
		c-0.458-0.203-0.919-0.304-1.381-0.304c-0.482,0-0.867,0.116-1.153,0.347c-0.286,0.231-0.43,0.549-0.43,0.952
		c0,0.322,0.09,0.597,0.271,0.826c0.181,0.229,0.491,0.433,0.932,0.611c0.427,0.172,0.709,0.32,0.846,0.446
		c0.137,0.126,0.205,0.279,0.205,0.459c0,0.201-0.075,0.36-0.225,0.479c-0.148,0.119-0.378,0.178-0.691,0.178
		c-0.214,0-0.445-0.03-0.694-0.089c-0.247-0.06-0.48-0.141-0.701-0.245v0.747c0.348,0.17,0.795,0.254,1.341,0.254
		s0.975-0.122,1.285-0.367s0.466-0.582,0.466-1.011l0,0C14.054,4.374,14.016,4.185,13.939,4.024z"/>
	<path fill="#FFFFFF" stroke="#3A3836" stroke-linecap="round" stroke-linejoin="round" d="M16.5,10.5l-3-2.5c0,0-1,1.5-2.5,1.5
		S8.5,8,8.5,8S7.5,9.5,6,9.5S3.5,8,3.5,8l-3,2.5C1,11,2.5,12,1.5,14S0,19,2,21c2.5,2.5,5.5,0.5,6.5,2.5c1-2,4,0,6.5-2.5
		c2-2,1.5-5,0.5-7S16,11,16.5,10.5z"/>
</g>
</svg>
