<?xml version="1.0" encoding="utf-8"?>
<!-- Generator: Adobe Illustrator 17.1.0, SVG Export Plug-In . SVG Version: 6.00 Build 0)  -->
<!DOCTYPE svg PUBLIC "-//W3C//DTD SVG 1.1//EN" "http://www.w3.org/Graphics/SVG/1.1/DTD/svg11.dtd">
<svg version="1.1"
	 id="svg3844" xmlns:svg="http://www.w3.org/2000/svg" xmlns:cc="http://creativecommons.org/ns#" xmlns:dc="http://purl.org/dc/elements/1.1/" xmlns:rdf="http://www.w3.org/1999/02/22-rdf-syntax-ns#"
	 xmlns="http://www.w3.org/2000/svg" xmlns:xlink="http://www.w3.org/1999/xlink" x="0px" y="0px" width="17px" height="31px"
	 viewBox="0 0 17 31" enable-background="new 0 0 17 31" xml:space="preserve">
<path fill="#3A3836" d="M15,5c-0.2,0-0.3,0-0.4,0.1c-0.1,0.1-0.1,0.2-0.1,0.4c0,0.2,0,0.3,0.1,0.4S14.8,6,15,6s0.3,0,0.4-0.1
	c0.1-0.1,0.1-0.2,0.1-0.4c0-0.2,0-0.3-0.1-0.4C15.3,5,15.2,5,15,5z"/>
<path fill="#3A3836" d="M2.6,3.1L2.6,3.1L2.6,3.1z"/>
<path fill="#3A3836" d="M4.3,3.4L4.3,3.4C4.5,3.3,4.7,3.2,4.9,3C5,2.8,5.1,2.6,5.1,2.3c0-0.4-0.1-0.7-0.4-0.9
	C4.4,1.2,3.9,1.1,3.2,1.1H1.8v4.8h1.7c0.5,0,1-0.1,1.3-0.4c0.3-0.2,0.5-0.6,0.5-1c0-0.3-0.1-0.6-0.2-0.8C4.8,3.6,4.6,3.4,4.3,3.4z
	 M2.6,1.7h0.7c0.4,0,0.6,0.1,0.8,0.2C4.2,2,4.3,2.2,4.3,2.4c0,0.3-0.1,0.4-0.2,0.5C3.9,3,3.7,3.1,3.3,3.1H2.6l0,0l0,0l0,0V1.7z
	 M4.2,5.1C4,5.2,3.7,5.2,3.4,5.2H2.6V3.7h0.8c0.3,0,0.6,0.1,0.8,0.2C4.3,4,4.4,4.2,4.4,4.4C4.4,4.7,4.3,4.9,4.2,5.1z"/>
<path fill="#3A3836" d="M9.2,1.1v3.1c0,0.8-0.4,1.2-1.1,1.2C7.7,5.3,7.5,5.2,7.3,5C7.1,4.8,7,4.5,7,4.1V1.1H6.2v3.1
	c0,0.6,0.2,1,0.5,1.3S7.5,6,8.1,6c0.4,0,0.7-0.1,1-0.2c0.3-0.1,0.5-0.4,0.7-0.6C10,4.9,10,4.6,10,4.2V1.1l0,0H9.2z"/>
<path fill="#3A3836" d="M13.9,4c-0.1-0.2-0.2-0.3-0.4-0.4s-0.4-0.3-0.8-0.4c-0.3-0.1-0.5-0.2-0.7-0.3s-0.2-0.2-0.3-0.3
	c-0.1-0.1-0.1-0.2-0.1-0.3c0-0.2,0.1-0.3,0.2-0.4c0.1-0.1,0.3-0.2,0.6-0.2c0.3,0,0.7,0.1,1.1,0.3L14,1.3C13.5,1.1,13.1,1,12.6,1
	c-0.5,0-0.9,0.1-1.2,0.3S11,1.9,11,2.3c0,0.3,0.1,0.6,0.3,0.8c0.2,0.2,0.5,0.4,0.9,0.6c0.4,0.2,0.7,0.3,0.8,0.4s0.2,0.3,0.2,0.5
	c0,0.2-0.1,0.4-0.2,0.5c-0.1,0.1-0.4,0.2-0.7,0.2c-0.2,0-0.4,0-0.7-0.1C11.4,5.2,11.2,5.1,11,5v0.7C11.3,5.9,11.8,6,12.3,6
	s1-0.1,1.3-0.4s0.5-0.6,0.5-1l0,0C14.1,4.4,14,4.2,13.9,4z"/>
<path fill="#FFFFFF" stroke="#3A3836" stroke-linecap="round" stroke-linejoin="round" d="M16.5,10.5l-3-2.5c0,0-1,1.5-2.5,1.5
	S8.5,8,8.5,8S7.5,9.5,6,9.5S3.5,8,3.5,8l-3,2.5C1,11,2.5,12,1.5,14S0,19,2,21c2.5,2.5,5.5,0.5,6.5,2.5c1-2,4,0,6.5-2.5
	c2-2,1.5-5,0.5-7S16,11,16.5,10.5z"/>
<rect opacity="0" fill="none" width="17" height="31"/>
<g>
	<path fill="#FFFFFF" d="M3.4,3.7H2.6v1.5h0.8c0.3,0,0.6-0.1,0.7-0.2c0.2-0.1,0.3-0.3,0.3-0.6c0-0.3-0.1-0.4-0.3-0.6
		S3.7,3.7,3.4,3.7z"/>
	<path fill="#FFFFFF" d="M3.3,3.1c0.3,0,0.6-0.1,0.7-0.2c0.2-0.1,0.2-0.3,0.2-0.5C4.3,2.2,4.2,2,4,1.9C3.9,1.8,3.6,1.7,3.3,1.7H2.6
		v1.3H3.3z"/>
	<path fill="#FFFFFF" d="M16,0H1C0.4,0,0,0.4,0,1v5c0,0.6,0.4,1,1,1h15c0.6,0,1-0.4,1-1V1C17,0.4,16.6,0,16,0z M4.8,5.5
		C4.5,5.8,4.1,5.9,3.5,5.9H1.8V1.1h1.4c0.7,0,1.1,0.1,1.4,0.3C5,1.6,5.1,1.9,5.1,2.3C5.1,2.6,5,2.8,4.9,3C4.7,3.2,4.5,3.3,4.3,3.3v0
		C4.6,3.4,4.8,3.6,5,3.8c0.2,0.2,0.2,0.4,0.2,0.8C5.2,5,5.1,5.3,4.8,5.5z M10,4.2c0,0.4-0.1,0.7-0.2,0.9C9.6,5.4,9.4,5.6,9.1,5.8
		C8.8,5.9,8.5,6,8.1,6C7.5,6,7,5.8,6.7,5.5S6.2,4.7,6.2,4.2V1.1H7v3.1C7,4.5,7.1,4.8,7.3,5c0.2,0.2,0.5,0.3,0.9,0.3
		c0.7,0,1.1-0.4,1.1-1.2v-3H10h0V4.2z M13.6,5.6C13.3,5.8,12.8,6,12.3,6s-1-0.1-1.3-0.3V5c0.2,0.1,0.5,0.2,0.7,0.2
		c0.2,0.1,0.5,0.1,0.7,0.1c0.3,0,0.5-0.1,0.7-0.2c0.1-0.1,0.2-0.3,0.2-0.5c0-0.2-0.1-0.3-0.2-0.5c-0.1-0.1-0.4-0.3-0.8-0.4
		c-0.4-0.2-0.8-0.4-0.9-0.6C11.1,2.9,11,2.6,11,2.3c0-0.4,0.1-0.7,0.4-1C11.7,1.1,12.1,1,12.6,1c0.5,0,0.9,0.1,1.4,0.3L13.7,2
		c-0.4-0.2-0.8-0.3-1.1-0.3c-0.3,0-0.4,0.1-0.6,0.2c-0.1,0.1-0.2,0.3-0.2,0.4c0,0.1,0,0.2,0.1,0.3c0.1,0.1,0.1,0.2,0.3,0.3
		s0.3,0.2,0.7,0.3c0.4,0.1,0.6,0.3,0.8,0.4c0.2,0.1,0.3,0.3,0.4,0.4c0.1,0.2,0.1,0.4,0.1,0.6l0,0C14.1,5,13.9,5.4,13.6,5.6z
		 M15.4,5.9C15.3,6,15.2,6,15,6s-0.3,0-0.4-0.1s-0.1-0.2-0.1-0.4c0-0.2,0-0.3,0.1-0.4C14.7,5,14.8,5,15,5c0.2,0,0.3,0,0.4,0.1
		c0.1,0.1,0.1,0.2,0.1,0.4C15.5,5.7,15.5,5.8,15.4,5.9z"/>
</g>
</svg>
