<?xml version="1.0" encoding="utf-8"?>
<!-- Generator: Adobe Illustrator 17.1.0, SVG Export Plug-In . SVG Version: 6.00 Build 0)  -->
<!DOCTYPE svg PUBLIC "-//W3C//DTD SVG 1.1//EN" "http://www.w3.org/Graphics/SVG/1.1/DTD/svg11.dtd">
<svg version="1.1"
	 id="svg3844" xmlns:svg="http://www.w3.org/2000/svg" xmlns:cc="http://creativecommons.org/ns#" xmlns:dc="http://purl.org/dc/elements/1.1/" xmlns:rdf="http://www.w3.org/1999/02/22-rdf-syntax-ns#"
	 xmlns="http://www.w3.org/2000/svg" xmlns:xlink="http://www.w3.org/1999/xlink" x="0px" y="0px" width="20px" height="21px"
	 viewBox="0 0 20 21" enable-background="new 0 0 20 21" xml:space="preserve">
<path id="path3799" fill="#FFFFFF" stroke="#3A3836" stroke-width="1" stroke-linecap="round" stroke-linejoin="round" d="M4.1,0.5
	L0.5,3.6c0.6,0.6,2.4,1.8,1.2,4.3c-1.2,2.5-1.8,6.1,0.6,8.6c3,3.1,6.5,0.6,7.7,3.1c1.2-2.5,4.8,0,7.7-3.1c2.4-2.5,1.8-6.1,0.6-8.6
	s0.6-3.7,1.2-4.3l-3.6-3.1c0,0-1.2,1.8-3,1.8s-3-1.8-3-1.8S8.8,2.3,7,2.3C5.2,2.3,4.1,0.5,4.1,0.5z"/>
</svg>
