<svg xmlns="http://www.w3.org/2000/svg" width="26" height="38" viewBox="0 0 26 38">
  <title>us-highway-alternate</title>
  <g>
    <path d="M13,27.5a0.5,0.5,0,0,1-.38-0.17c-0.57-.65-3.08-0.78-4-0.82l-0.38,0c-1.6-.08-4.59-0.22-6.08-1.81-2.61-2.78-1.58-5.84-.58-7.9S1.49,13.67.7,12.9a0.57,0.57,0,0,1-.17-0.4,0.53,0.53,0,0,1,.16-0.39l3-2.5a0.5,0.5,0,0,1,.68,0A6.46,6.46,0,0,0,8.5,11a6.56,6.56,0,0,0,4.14-1.35A0.5,0.5,0,0,1,13,9.5h0a0.5,0.5,0,0,1,.35.15A6.52,6.52,0,0,0,17.5,11a6.41,6.41,0,0,0,4.13-1.35,0.5,0.5,0,0,1,.68,0l3,2.5a0.5,0.5,0,0,1,0,.74c-0.83.8-1.91,1.85-.9,3.92s2,5.11-.58,7.9c-1.49,1.59-4.48,1.73-6.08,1.81l-0.38,0c-0.95,0-3.46.17-4,.82A0.5,0.5,0,0,1,13,27.5Z" fill="#fff"/>
    <path d="M22,10l3,2.5c-0.78.76-2.19,2.06-1,4.5s1.69,5-.5,7.33c-1.44,1.53-4.57,1.59-6,1.67-1.16.06-3.76,0.16-4.5,1-0.74-.84-3.34-0.94-4.5-1-1.43-.07-4.56-0.14-6-1.67C0.31,22,.81,19.45,2,17s-0.23-3.74-1-4.5L4,10a6.94,6.94,0,0,0,4.5,1.5A7,7,0,0,0,13,10a7,7,0,0,0,4.5,1.5A6.84,6.84,0,0,0,22,10m0-1a1,1,0,0,0-.72.3,6,6,0,0,1-3.77,1.2,6.1,6.1,0,0,1-3.79-1.21A1,1,0,0,0,13,9h0a1,1,0,0,0-.71.3A6.11,6.11,0,0,1,8.5,10.5,6,6,0,0,1,4.71,9.3a1,1,0,0,0-1.35-.07l-3,2.5A1,1,0,0,0,.3,13.22l0,0C1.1,14,2,14.82,1.11,16.56,0,18.75-1.05,22,1.77,25c1.63,1.74,4.75,1.89,6.42,2H8.57c2.82,0.14,3.52.47,3.68,0.66A1,1,0,0,0,13,28h0a1,1,0,0,0,.75-0.34c0.16-.18.86-0.51,3.68-0.66H17.8c1.67-.08,4.79-0.23,6.42-2,2.83-3,1.74-6.27.67-8.46-0.85-1.75,0-2.57.76-3.3l0,0a1,1,0,0,0-.06-1.49l-3-2.5A1,1,0,0,0,22,9h0Z" fill="#3a3836"/>
  </g>
  <rect y="9" width="26" height="20" fill="none"/>
  <rect width="26" height="38" fill="none"/>
  <path d="M3.92,0H22.08A0.88,0.88,0,0,1,23,.86V7.14a0.88,0.88,0,0,1-.92.86H3.92A0.88,0.88,0,0,1,3,7.14V0.86A0.88,0.88,0,0,1,3.92,0Z" fill="#fff"/>
  <g>
    <path d="M9.25,7L8.9,5.94H6.77L6.41,7H5.19L7.37,1H8.28l2.18,6H9.25ZM7.86,2.77L7.1,5H8.59Z" fill="#3a3836"/>
    <path d="M11.21,7V1h1.17V6h2.71V7H11.21Z" fill="#3a3836"/>
    <path d="M17.65,2V7H16.48V2H14.92V1h4.29V2H17.65Z" fill="#3a3836"/>
    <path d="M19,7V5.75h1.25V7H19Z" fill="#3a3836"/>
  </g>
</svg>
