<svg xmlns="http://www.w3.org/2000/svg" width="26" height="38" viewBox="0 0 26 38">
  <title>us-highway-bypass</title>
  <g>
    <path d="M13,27.5a0.5,0.5,0,0,1-.38-0.17c-0.57-.65-3.08-0.78-4-0.82l-0.38,0c-1.6-.08-4.59-0.22-6.08-1.81-2.61-2.78-1.58-5.84-.58-7.9S1.49,13.67.7,12.9a0.57,0.57,0,0,1-.17-0.4,0.53,0.53,0,0,1,.16-0.39l3-2.5a0.5,0.5,0,0,1,.68,0A6.46,6.46,0,0,0,8.5,11a6.56,6.56,0,0,0,4.14-1.35A0.5,0.5,0,0,1,13,9.5h0a0.5,0.5,0,0,1,.35.15A6.52,6.52,0,0,0,17.5,11a6.41,6.41,0,0,0,4.13-1.35,0.5,0.5,0,0,1,.68,0l3,2.5a0.5,0.5,0,0,1,0,.74c-0.83.8-1.91,1.85-.9,3.92s2,5.11-.58,7.9c-1.49,1.59-4.48,1.73-6.08,1.81l-0.38,0c-0.95,0-3.46.17-4,.82A0.5,0.5,0,0,1,13,27.5Z" fill="#fff"/>
    <path d="M22,10l3,2.5c-0.78.76-2.19,2.06-1,4.5s1.69,5-.5,7.33c-1.44,1.53-4.57,1.59-6,1.67-1.16.06-3.76,0.16-4.5,1-0.74-.84-3.34-0.94-4.5-1-1.43-.07-4.56-0.14-6-1.67C0.31,22,.81,19.45,2,17s-0.23-3.74-1-4.5L4,10a6.94,6.94,0,0,0,4.5,1.5A7,7,0,0,0,13,10a7,7,0,0,0,4.5,1.5A6.84,6.84,0,0,0,22,10m0-1a1,1,0,0,0-.72.3,6,6,0,0,1-3.77,1.2,6.1,6.1,0,0,1-3.79-1.21A1,1,0,0,0,13,9h0a1,1,0,0,0-.71.3A6.11,6.11,0,0,1,8.5,10.5,6,6,0,0,1,4.71,9.3a1,1,0,0,0-1.35-.07l-3,2.5A1,1,0,0,0,.3,13.22l0,0C1.1,14,2,14.82,1.11,16.56,0,18.75-1.05,22,1.77,25c1.63,1.74,4.75,1.89,6.42,2H8.57c2.82,0.14,3.52.47,3.68,0.66A1,1,0,0,0,13,28h0a1,1,0,0,0,.75-0.34c0.16-.18.86-0.51,3.68-0.66H17.8c1.67-.08,4.79-0.23,6.42-2,2.83-3,1.74-6.27.67-8.46-0.85-1.75,0-2.57.76-3.3l0,0a1,1,0,0,0-.06-1.49l-3-2.5A1,1,0,0,0,22,9h0Z" fill="#3a3836"/>
  </g>
  <rect y="9" width="26" height="20" fill="none"/>
  <rect width="26" height="38" fill="none"/>
  <path d="M0.92,0H25.08A0.88,0.88,0,0,1,26,.86V7.14a0.88,0.88,0,0,1-.92.86H0.92A0.88,0.88,0,0,1,0,7.14V0.86A0.88,0.88,0,0,1,.92,0Z" fill="#fff"/>
  <g>
    <path d="M5,5.27A3.15,3.15,0,0,1,5,6.1a1.17,1.17,0,0,1-.3.51,1.18,1.18,0,0,1-.47.29A2.27,2.27,0,0,1,3.49,7H2V1H3.5a2.34,2.34,0,0,1,.7.09,1.08,1.08,0,0,1,.46.28,1.17,1.17,0,0,1,.29.47A2.62,2.62,0,0,1,5,2.6,2.22,2.22,0,0,1,5,3.17a1.08,1.08,0,0,1-.28.47l-0.14.12-0.17.09a1.11,1.11,0,0,1,.33.22,1.08,1.08,0,0,1,.28.5A3.08,3.08,0,0,1,5,5.27Zm-1-2.61A1,1,0,0,0,3.94,2a0.66,0.66,0,0,0-.53-0.18H2.94V3.48H3.41a0.64,0.64,0,0,0,.53-0.19A1,1,0,0,0,4.09,2.66Zm0,2.55a1.19,1.19,0,0,0-.17-0.72,0.65,0.65,0,0,0-.55-0.21H2.94V6.14H3.39a0.67,0.67,0,0,0,.55-0.21A1.18,1.18,0,0,0,4.11,5.21Z" fill="#3a3836"/>
    <path d="M7.39,4.64V7H6.45V4.64L5.29,1h1L6.92,3.38,7.52,1h1Z" fill="#3a3836"/>
    <path d="M8.2,5V4.14H9.9V5H8.2Z" fill="#3a3836"/>
    <path d="M13.41,2.83A2.15,2.15,0,0,1,13,4.21a1.44,1.44,0,0,1-1.18.44H11.31V7H10.37V1h1.5A1.44,1.44,0,0,1,13,1.45,2.17,2.17,0,0,1,13.41,2.83Zm-0.94,0a1.67,1.67,0,0,0-.13-0.71,0.5,0.5,0,0,0-.5-0.26H11.31V3.79h0.53a0.51,0.51,0,0,0,.5-0.26A1.64,1.64,0,0,0,12.47,2.83Z" fill="#3a3836"/>
    <path d="M16.2,7L16,5.8H14.57L14.33,7h-1l1.47-6h0.92l1.45,6h-1ZM15.26,2.45L14.75,5h1Z" fill="#3a3836"/>
    <path d="M20.67,5.33a3.27,3.27,0,0,1-.08.78,1.1,1.1,0,0,1-.31.54,1.39,1.39,0,0,1-.47.29,2,2,0,0,1-.69.11A1.57,1.57,0,0,1,18,6.65a1.17,1.17,0,0,1-.3-0.51,2.88,2.88,0,0,1-.08-0.77h0.94a1.94,1.94,0,0,0,0,.4,0.6,0.6,0,0,0,.13.27,0.55,0.55,0,0,0,.17.11,0.65,0.65,0,0,0,.26,0A0.57,0.57,0,0,0,19.56,6a0.6,0.6,0,0,0,.13-0.26,2,2,0,0,0,0-.4,3.08,3.08,0,0,0,0-.39,0.68,0.68,0,0,0-.08-0.26,0.59,0.59,0,0,0-.17-0.18,1.35,1.35,0,0,0-.29-0.14l-0.71-.29a1.8,1.8,0,0,1-.39-0.21,0.91,0.91,0,0,1-.26-0.29,1.36,1.36,0,0,1-.14-0.42,3.21,3.21,0,0,1,0-.59,2,2,0,0,1,.12-0.73,1.35,1.35,0,0,1,.37-0.54,1.49,1.49,0,0,1,.45-0.26A1.62,1.62,0,0,1,19.13,1a1.5,1.5,0,0,1,1.08.36,1.21,1.21,0,0,1,.33.55,2.74,2.74,0,0,1,.09.75H19.68a2.35,2.35,0,0,0,0-.36A0.59,0.59,0,0,0,19.54,2a0.49,0.49,0,0,0-.42-0.18,0.56,0.56,0,0,0-.24,0,0.51,0.51,0,0,0-.16.12,0.89,0.89,0,0,0-.16.59,2.41,2.41,0,0,0,0,.31,0.54,0.54,0,0,0,.07.21,0.53,0.53,0,0,0,.15.16,1.14,1.14,0,0,0,.26.13l0.71,0.29a2,2,0,0,1,.45.24,1,1,0,0,1,.28.33,1.5,1.5,0,0,1,.14.46A4.3,4.3,0,0,1,20.67,5.33Z" fill="#3a3836"/>
    <path d="M24.38,5.33a3.27,3.27,0,0,1-.08.78,1.1,1.1,0,0,1-.31.54,1.39,1.39,0,0,1-.47.29,2,2,0,0,1-.69.11,1.57,1.57,0,0,1-1.16-.39,1.17,1.17,0,0,1-.3-0.51,2.88,2.88,0,0,1-.08-0.77h0.94a1.94,1.94,0,0,0,0,.4,0.6,0.6,0,0,0,.13.27,0.55,0.55,0,0,0,.17.11,0.65,0.65,0,0,0,.26,0A0.57,0.57,0,0,0,23.28,6a0.6,0.6,0,0,0,.13-0.26,2,2,0,0,0,0-.4,3.08,3.08,0,0,0,0-.39,0.68,0.68,0,0,0-.08-0.26,0.59,0.59,0,0,0-.17-0.18,1.35,1.35,0,0,0-.29-0.14l-0.71-.29a1.8,1.8,0,0,1-.39-0.21,0.91,0.91,0,0,1-.26-0.29,1.36,1.36,0,0,1-.14-0.42,3.21,3.21,0,0,1,0-.59,2,2,0,0,1,.12-0.73,1.35,1.35,0,0,1,.37-0.54,1.49,1.49,0,0,1,.45-0.26A1.62,1.62,0,0,1,22.84,1a1.5,1.5,0,0,1,1.08.36,1.21,1.21,0,0,1,.33.55,2.74,2.74,0,0,1,.09.75H23.4a2.35,2.35,0,0,0,0-.36A0.59,0.59,0,0,0,23.25,2a0.49,0.49,0,0,0-.42-0.18,0.56,0.56,0,0,0-.24,0,0.51,0.51,0,0,0-.16.12,0.89,0.89,0,0,0-.16.59,2.41,2.41,0,0,0,0,.31,0.54,0.54,0,0,0,.07.21,0.53,0.53,0,0,0,.15.16,1.14,1.14,0,0,0,.26.13l0.71,0.29a2,2,0,0,1,.45.24,1,1,0,0,1,.28.33,1.5,1.5,0,0,1,.14.46A4.3,4.3,0,0,1,24.38,5.33Z" fill="#3a3836"/>
  </g>
</svg>
