<?xml version="1.0" encoding="utf-8"?>
<!-- Generator: Adobe Illustrator 17.1.0, SVG Export Plug-In . SVG Version: 6.00 Build 0)  -->
<!DOCTYPE svg PUBLIC "-//W3C//DTD SVG 1.1//EN" "http://www.w3.org/Graphics/SVG/1.1/DTD/svg11.dtd">
<svg version="1.1"
	 id="svg3844" xmlns:svg="http://www.w3.org/2000/svg" xmlns:cc="http://creativecommons.org/ns#" xmlns:dc="http://purl.org/dc/elements/1.1/" xmlns:rdf="http://www.w3.org/1999/02/22-rdf-syntax-ns#" sodipodi:docname="us-highway-truck-3-small.svg" inkscape:version="0.91 r13725" xmlns:inkscape="http://www.inkscape.org/namespaces/inkscape" xmlns:sodipodi="http://sodipodi.sourceforge.net/DTD/sodipodi-0.dtd"
	 xmlns="http://www.w3.org/2000/svg" xmlns:xlink="http://www.w3.org/1999/xlink" x="0px" y="0px" width="25px" height="31px"
	 viewBox="0 0 25 31" enable-background="new 0 0 25 31" xml:space="preserve">
<sodipodi:namedview  fit-margin-bottom="0" inkscape:window-width="1920" inkscape:window-height="1031" inkscape:snap-global="true" fit-margin-right="0" inkscape:window-x="-204" inkscape:snap-smooth-nodes="false" inkscape:bbox-nodes="true" inkscape:snap-bbox="true" inkscape:object-nodes="true" inkscape:pageopacity="0.0" inkscape:document-units="px" inkscape:pageshadow="2" inkscape:current-layer="layer1" inkscape:window-y="194" inkscape:bbox-paths="false" inkscape:window-maximized="0" showgrid="true" pagecolor="#ffffff" bordercolor="#666666" id="base" inkscape:cy="15.323988" inkscape:zoom="16.000001" borderopacity="1.0" inkscape:cx="0.0057592963" fit-margin-left="0" fit-margin-top="0">
	
		<inkscape:grid  type="xygrid" snapvisiblegridlinesonly="true" spacingy="0.5px" spacingx="0.5px" empspacing="2" id="grid3875" originy="-127" enabled="true" visible="true" originx="-299">
		</inkscape:grid>
</sodipodi:namedview>
<rect id="rect3803" fill="none" width="25" height="31"/>
<g id="text4837" transform="matrix(0.92169959,0,0,1.0849522,2,0)">
	<path id="path5308" inkscape:connector-curvature="0" fill="#3A3836" d="M15.3,1.1c-0.4,0-0.8,0.1-1.1,0.3
		c-0.3,0.2-0.5,0.4-0.7,0.8c-0.2,0.3-0.2,0.7-0.2,1.1c0,0.7,0.2,1.2,0.5,1.6c0.3,0.4,0.8,0.6,1.4,0.6c0.4,0,0.8-0.1,1.1-0.2V4.6
		c-0.2,0.1-0.4,0.1-0.5,0.1c-0.2,0-0.3,0.1-0.5,0.1c-0.4,0-0.7-0.1-0.9-0.4C14.1,4.2,14,3.8,14,3.3c0-0.5,0.1-0.9,0.3-1.2
		c0.2-0.3,0.5-0.4,0.9-0.4c0.2,0,0.3,0,0.5,0.1c0.2,0,0.3,0.1,0.4,0.2l0.2-0.6C16.1,1.2,15.7,1.1,15.3,1.1z M2.7,1.2v0.6H4v3.6h0.7
		V1.8h1.2V1.2C5.9,1.2,2.7,1.2,2.7,1.2z M6.1,1.2v4.2h0.7V3.7h0.7l1,1.7h0.8L8.1,3.5c0.5-0.2,0.8-0.6,0.8-1.1c0-0.4-0.1-0.7-0.4-0.9
		C8.3,1.3,7.9,1.2,7.3,1.2C7.3,1.2,6.1,1.2,6.1,1.2z M9.5,1.2v2.7c0,0.5,0.1,0.9,0.4,1.1c0.3,0.3,0.7,0.4,1.2,0.4
		c0.3,0,0.7-0.1,0.9-0.2c0.3-0.1,0.4-0.3,0.6-0.5c0.1-0.2,0.2-0.5,0.2-0.8V1.2h-0.7v2.6c0,0.7-0.3,1-1,1c-0.3,0-0.6-0.1-0.7-0.2
		c-0.2-0.2-0.2-0.4-0.2-0.8V1.2C10.2,1.2,9.5,1.2,9.5,1.2z M16.9,1.2v4.2h0.7V3.8l0.4-0.3l1.3,1.9h0.8L18.4,3c0.3-0.4,0.8-1,1.6-1.8
		h-0.8l-1.1,1.3c-0.2,0.2-0.4,0.4-0.6,0.7v-2C17.5,1.2,16.9,1.2,16.9,1.2z M6.8,1.7h0.5c0.3,0,0.5,0.1,0.7,0.2s0.2,0.3,0.2,0.5
		c0,0.2-0.1,0.4-0.2,0.5C7.9,3.1,7.6,3.1,7.3,3.1H6.8V1.7z"/>
</g>
<g>
	<path fill="#FFFFFF" d="M9.4,2.1C9.2,2,9,1.9,8.7,1.9H8.3v1.5h0.4c0.3,0,0.5-0.1,0.6-0.2c0.1-0.1,0.2-0.3,0.2-0.6
		C9.6,2.4,9.5,2.2,9.4,2.1z"/>
	<path fill="#FFFFFF" d="M20,0H5C4.4,0,4,0.4,4,1v5c0,0.6,0.4,1,1,1h15c0.6,0,1-0.4,1-1V1C21,0.4,20.6,0,20,0z M7.4,1.9H6.3v3.9H5.7
		V1.9H4.5V1.3h2.9V1.9z M9.8,5.8L8.9,4H8.3v1.8H7.7V1.3h1.1c0.5,0,0.9,0.1,1.1,0.3c0.2,0.2,0.4,0.6,0.4,1c0,0.6-0.2,1-0.8,1.2l1.1,2
		H9.8z M13.8,4.2c0,0.3-0.1,0.6-0.2,0.9c-0.1,0.3-0.3,0.4-0.5,0.6c-0.2,0.1-0.5,0.2-0.8,0.2c-0.5,0-0.9-0.1-1.1-0.4
		c-0.3-0.3-0.4-0.7-0.4-1.2V1.3h0.6v2.9c0,0.4,0.1,0.7,0.2,0.8c0.1,0.2,0.4,0.3,0.7,0.3c0.6,0,0.9-0.4,0.9-1.1V1.3h0.6V4.2z
		 M15.2,4.8c0.2,0.3,0.5,0.4,0.9,0.4c0.2,0,0.3,0,0.5-0.1c0.2,0,0.3-0.1,0.5-0.2v0.6c-0.3,0.1-0.6,0.2-1,0.2c-0.6,0-1-0.2-1.3-0.6
		c-0.3-0.4-0.5-1-0.5-1.7c0-0.5,0.1-0.9,0.2-1.2c0.1-0.4,0.4-0.6,0.6-0.8c0.3-0.2,0.6-0.3,1-0.3c0.4,0,0.8,0.1,1.1,0.3L17,2.1
		C16.8,2,16.7,2,16.5,1.9c-0.1-0.1-0.3-0.1-0.5-0.1c-0.4,0-0.6,0.2-0.9,0.5C15,2.6,14.9,3,14.9,3.6C14.9,4.1,15,4.5,15.2,4.8z
		 M19.8,5.8l-1.2-2.1l-0.4,0.4v1.7h-0.6V1.3h0.6v2.2c0.2-0.2,0.3-0.5,0.5-0.7l1-1.5h0.7c-0.7,0.9-1.2,1.6-1.5,2l1.5,2.6H19.8z"/>
</g>
<path id="path3799-7-8" sodipodi:nodetypes="ccsscssccscsc" inkscape:connector-curvature="0" fill="#FFFFFF" stroke="#3A3836" stroke-linecap="round" stroke-linejoin="round" d="
	M5.5,8l-5,2.5C1,11,2.5,12,1.5,14S0,19,2,21c2.5,2.5,9.5,0.5,10.5,2.5c1-2,8,0,10.5-2.5c2-2,1.5-5,0.5-7s0.5-3,1-3.5l-5-2.5
	c0,0-1.5,1.5-3.5,1.5S12.5,8,12.5,8S11,9.5,9,9.5S5.5,8,5.5,8z"/>
</svg>
