<?xml version="1.0" encoding="utf-8"?>
<!-- Generator: Adobe Illustrator 17.1.0, SVG Export Plug-In . SVG Version: 6.00 Build 0)  -->
<!DOCTYPE svg PUBLIC "-//W3C//DTD SVG 1.1//EN" "http://www.w3.org/Graphics/SVG/1.1/DTD/svg11.dtd">
<svg version="1.1"
	 id="svg3844" xmlns:svg="http://www.w3.org/2000/svg" xmlns:cc="http://creativecommons.org/ns#" xmlns:dc="http://purl.org/dc/elements/1.1/" xmlns:rdf="http://www.w3.org/1999/02/22-rdf-syntax-ns#" sodipodi:docname="us-highway-business-3-large.svg" inkscape:version="0.91 r13725" xmlns:inkscape="http://www.inkscape.org/namespaces/inkscape" xmlns:sodipodi="http://sodipodi.sourceforge.net/DTD/sodipodi-0.dtd"
	 xmlns="http://www.w3.org/2000/svg" xmlns:xlink="http://www.w3.org/1999/xlink" x="0px" y="0px" width="30px" height="37px"
	 viewBox="0 0 30 37" enable-background="new 0 0 30 37" xml:space="preserve">
<sodipodi:namedview  fit-margin-bottom="0" inkscape:window-width="1280" inkscape:window-height="751" inkscape:snap-global="true" inkscape:snap-nodes="false" fit-margin-right="0" inkscape:window-x="70" inkscape:snap-smooth-nodes="false" inkscape:bbox-nodes="true" inkscape:snap-bbox="true" inkscape:object-nodes="true" inkscape:pageopacity="0.0" inkscape:guide-bbox="true" inkscape:document-units="px" inkscape:pageshadow="2" inkscape:current-layer="layer1" inkscape:window-y="181" inkscape:bbox-paths="false" inkscape:window-maximized="0" showgrid="true" pagecolor="#ffffff" bordercolor="#666666" id="base" showguides="true" inkscape:cy="20.557481" inkscape:zoom="11.313708" borderopacity="1.0" inkscape:cx="5.6112358" fit-margin-left="0" fit-margin-top="0">
	
		<inkscape:grid  type="xygrid" snapvisiblegridlinesonly="true" spacingy="0.5px" spacingx="0.5px" empspacing="2" id="grid3875" originy="-127" enabled="true" visible="true" originx="-297.00001">
		</inkscape:grid>
	<sodipodi:guide  orientation="0,1" id="guide10363" position="12.999984,34.999997"></sodipodi:guide>
</sodipodi:namedview>
<path id="path3799-7" sodipodi:nodetypes="ccsscssccscsc" inkscape:connector-curvature="0" fill="#FFFFFF" stroke="#3A3836" stroke-width="1" stroke-linecap="round" stroke-linejoin="round" d="
	M6.5,10.5l-6,3.1c0.6,0.6,2.4,1.8,1.2,4.3c-1.2,2.5-1.8,6.1,0.6,8.6c3,3.1,11.5,0.6,12.7,3.1c1.2-2.5,9.7,0,12.7-3.1
	c2.4-2.5,1.8-6.1,0.6-8.6c-1.2-2.5,0.6-3.7,1.2-4.3l-6-3.1c0,0-1.8,1.8-4.2,1.8c-2.4,0-4.2-1.8-4.2-1.8s-1.8,1.8-4.2,1.8
	S6.5,10.5,6.5,10.5z"/>
<g>
	<g id="text4827" transform="matrix(1.016077,0,0,0.98417739,31.720966,5.0902439e-6)">
		<path id="path4152" inkscape:connector-curvature="0" fill="#3A3836" d="M-9.4,7c0-0.2,0.1-0.4,0.2-0.5C-9.1,6.4-9,6.4-8.8,6.4
			c0.2,0,0.4,0.1,0.5,0.2C-8.2,6.7-8.1,6.8-8.1,7c0,0.2-0.1,0.4-0.2,0.5c-0.1,0.1-0.3,0.2-0.5,0.2s-0.3-0.1-0.5-0.2
			C-9.3,7.4-9.4,7.2-9.4,7z"/>
	</g>
	<path id="path5855" inkscape:connector-curvature="0" fill="#3A3836" d="M6.9,1.6h1.7c0.8,0,1.4,0.1,1.7,0.3
		c0.4,0.2,0.5,0.6,0.5,1.1c0,0.3-0.1,0.6-0.3,0.8c-0.2,0.2-0.4,0.4-0.8,0.4v0c0.4,0.1,0.7,0.2,0.9,0.5C11,5,11.1,5.3,11.1,5.7
		c0,0.5-0.2,0.9-0.5,1.2C10.2,7.2,9.7,7.4,9,7.4H6.9V1.6L6.9,1.6z M7.9,4h0.9c0.4,0,0.7-0.1,0.9-0.2c0.2-0.1,0.3-0.3,0.3-0.6
		c0-0.3-0.1-0.5-0.3-0.6C9.4,2.4,9.1,2.4,8.7,2.4H7.9L7.9,4L7.9,4z M7.9,4.8v1.8h1c0.4,0,0.7-0.1,0.9-0.2C10,6.2,10.1,6,10.1,5.6
		c0-0.3-0.1-0.5-0.3-0.7S9.3,4.8,8.8,4.8H7.9z"/>
	<path id="path5857" inkscape:connector-curvature="0" fill="#3A3836" d="M16.8,1.6v3.8c0,0.4-0.1,0.8-0.3,1.1
		c-0.2,0.3-0.4,0.6-0.8,0.7c-0.3,0.2-0.8,0.3-1.2,0.3c-0.7,0-1.3-0.2-1.7-0.6S12.2,6,12.2,5.3V1.6h1v3.7c0,0.5,0.1,0.8,0.3,1.1
		c0.2,0.2,0.6,0.3,1,0.3c0.9,0,1.3-0.5,1.3-1.4V1.6H16.8L16.8,1.6z"/>
	<path id="path5859" inkscape:connector-curvature="0" fill="#3A3836" d="M21.7,5.8c0,0.5-0.2,0.9-0.6,1.2c-0.4,0.3-0.9,0.4-1.5,0.4
		c-0.7,0-1.2-0.1-1.6-0.3V6.3c0.3,0.1,0.5,0.2,0.8,0.3c0.3,0.1,0.6,0.1,0.8,0.1c0.4,0,0.7-0.1,0.8-0.2c0.2-0.1,0.3-0.3,0.3-0.6
		c0-0.2-0.1-0.4-0.2-0.6c-0.2-0.2-0.5-0.3-1-0.5c-0.5-0.2-0.9-0.5-1.1-0.7c-0.2-0.3-0.3-0.6-0.3-1c0-0.5,0.2-0.9,0.5-1.1
		c0.3-0.3,0.8-0.4,1.4-0.4c0.6,0,1.1,0.1,1.7,0.4l-0.3,0.8c-0.5-0.2-1-0.3-1.4-0.3c-0.3,0-0.5,0.1-0.7,0.2C19,2.7,19,2.8,19,3
		c0,0.2,0,0.3,0.1,0.4c0.1,0.1,0.2,0.2,0.3,0.3c0.1,0.1,0.4,0.2,0.8,0.4c0.4,0.2,0.7,0.3,0.9,0.5c0.2,0.2,0.3,0.3,0.4,0.5
		C21.6,5.3,21.7,5.5,21.7,5.8L21.7,5.8z"/>
</g>
<g>
	<path fill="#FFFFFF" d="M8.8,4.8h-1v1.8h1c0.4,0,0.7-0.1,0.9-0.2C10,6.2,10.1,6,10.1,5.6c0-0.3-0.1-0.5-0.3-0.7S9.3,4.8,8.8,4.8z"
		/>
	<path fill="#FFFFFF" d="M8.8,4c0.4,0,0.7-0.1,0.9-0.2c0.2-0.1,0.3-0.3,0.3-0.6c0-0.3-0.1-0.5-0.3-0.6C9.4,2.4,9.1,2.4,8.7,2.4H7.9
		V4H8.8z"/>
	<path fill="#FFFFFF" d="M24.5,0h-19c-0.6,0-1,0.4-1,1v7c0,0.6,0.4,1,1,1h19c0.6,0,1-0.4,1-1V1C25.5,0.4,25.1,0,24.5,0z M10.5,6.9
		C10.2,7.2,9.7,7.4,9,7.4H6.9V1.6h1.7c0.8,0,1.4,0.1,1.7,0.3c0.4,0.2,0.5,0.6,0.5,1.1c0,0.3-0.1,0.6-0.3,0.8
		c-0.2,0.2-0.4,0.4-0.8,0.4v0c0.4,0.1,0.7,0.2,0.9,0.5C11,5,11.1,5.3,11.1,5.7C11.1,6.2,10.9,6.6,10.5,6.9z M16.8,5.3
		c0,0.4-0.1,0.8-0.3,1.1c-0.2,0.3-0.4,0.6-0.8,0.7c-0.3,0.2-0.8,0.3-1.2,0.3c-0.7,0-1.3-0.2-1.7-0.6c-0.4-0.4-0.6-0.9-0.6-1.6V1.6h1
		v3.7c0,0.5,0.1,0.8,0.3,1.1c0.2,0.2,0.6,0.3,1,0.3c0.9,0,1.3-0.5,1.3-1.4V1.6h0.9h0V5.3z M21.1,7c-0.4,0.3-0.9,0.4-1.5,0.4
		c-0.7,0-1.2-0.1-1.6-0.3V6.3c0.3,0.1,0.5,0.2,0.8,0.3c0.3,0.1,0.6,0.1,0.8,0.1c0.4,0,0.7-0.1,0.8-0.2c0.2-0.1,0.3-0.3,0.3-0.6
		c0-0.2-0.1-0.4-0.2-0.6c-0.2-0.2-0.5-0.3-1-0.5c-0.5-0.2-0.9-0.5-1.1-0.7c-0.2-0.3-0.3-0.6-0.3-1c0-0.5,0.2-0.9,0.5-1.1
		c0.3-0.3,0.8-0.4,1.4-0.4c0.6,0,1.1,0.1,1.7,0.4l-0.3,0.8c-0.5-0.2-1-0.3-1.4-0.3c-0.3,0-0.5,0.1-0.7,0.2C19,2.7,19,2.8,19,3
		c0,0.2,0,0.3,0.1,0.4c0.1,0.1,0.2,0.2,0.3,0.3s0.4,0.2,0.8,0.4c0.4,0.2,0.7,0.3,0.9,0.5c0.2,0.2,0.3,0.3,0.4,0.5
		c0.1,0.2,0.1,0.4,0.1,0.7l0,0C21.7,6.3,21.5,6.7,21.1,7z M23.3,7.4c-0.1,0.1-0.3,0.2-0.5,0.2c-0.2,0-0.4-0.1-0.5-0.2
		c-0.1-0.1-0.2-0.3-0.2-0.5c0-0.2,0.1-0.3,0.2-0.5c0.1-0.1,0.3-0.2,0.5-0.2c0.2,0,0.4,0.1,0.5,0.2c0.1,0.1,0.2,0.3,0.2,0.4
		C23.4,7.1,23.4,7.2,23.3,7.4z"/>
</g>
<rect id="rect3803-4" x="0" opacity="0" fill="none" width="30" height="37"/>
</svg>
