<?xml version="1.0" encoding="utf-8"?>
<!-- Generator: Adobe Illustrator 17.1.0, SVG Export Plug-In . SVG Version: 6.00 Build 0)  -->
<!DOCTYPE svg PUBLIC "-//W3C//DTD SVG 1.1//EN" "http://www.w3.org/Graphics/SVG/1.1/DTD/svg11.dtd">
<svg version="1.1"
	 id="svg3844" xmlns:svg="http://www.w3.org/2000/svg" xmlns:cc="http://creativecommons.org/ns#" xmlns:dc="http://purl.org/dc/elements/1.1/" xmlns:rdf="http://www.w3.org/1999/02/22-rdf-syntax-ns#"
	 xmlns="http://www.w3.org/2000/svg" xmlns:xlink="http://www.w3.org/1999/xlink" x="0px" y="0px" width="21px" height="31px"
	 viewBox="0 0 21 31" enable-background="new 0 0 21 31" xml:space="preserve">
<g id="layer1" transform="translate(-300.00001,-894.36218)">
	<rect id="rect3803" x="301" y="894.4" fill="#3A3836" fill-opacity="0" width="17" height="31"/>
	<path id="path3799-7" fill="#FFFFFF" stroke="#3A3836" stroke-linecap="round" stroke-linejoin="round" d="M304.9,902.4l-4.4,2.5
		c0.6,0.5,2.2,1.5,1.1,3.5s-1.7,5,0.6,7c2.8,2.5,7.2,0.5,8.3,2.5c1.1-2,5.6,0,8.3-2.5c2.2-2,1.7-5,0.6-7c-1.1-2,0.6-3,1.1-3.5
		l-4.4-2.5c0,0-1.1,1.5-2.8,1.5c-1.7,0-2.8-1.5-2.8-1.5s-1.1,1.5-2.8,1.5S304.9,902.4,304.9,902.4z"/>
	<path id="rect4807" fill="#FFFFFF" d="M303,894.4h15c0.6,0,1,0.4,1,1v5c0,0.6-0.4,1-1,1h-15c-0.6,0-1-0.4-1-1v-5
		C302,894.8,302.4,894.4,303,894.4z"/>
	<g id="text4827" transform="matrix(1.016077,0,0,0.98417739,1,-2.2171876e-6)">
		<path id="path4146" fill="#3A3836" d="M302.5,914.8l-0.5-1.4h-1.9l-0.5,1.4h-0.9l1.9-5h0.9l1.9,5H302.5z M301.8,912.7l-0.5-1.4
			c0-0.1-0.1-0.2-0.1-0.4c-0.1-0.2-0.1-0.3-0.1-0.4c-0.1,0.3-0.2,0.6-0.3,0.9l-0.5,1.3H301.8z"/>
		<path id="path4148" fill="#3A3836" d="M303.8,914.8v-5h0.8v4.3h2.1v0.7L303.8,914.8L303.8,914.8z"/>
		<path id="path4150" fill="#3A3836" d="M308.8,914.8h-0.8v-4.3h-1.5v-0.7h3.8v0.7h-1.5L308.8,914.8L308.8,914.8z"/>
		<path id="path4152" fill="#3A3836" d="M310,914.3c0-0.2,0-0.3,0.1-0.4c0.1-0.1,0.2-0.1,0.4-0.1c0.2,0,0.3,0,0.4,0.1
			c0.1,0.1,0.1,0.2,0.1,0.4c0,0.2,0,0.3-0.1,0.4c-0.1,0.1-0.2,0.1-0.4,0.1c-0.2,0-0.3,0-0.4-0.1C310.1,914.6,310,914.5,310,914.3z"
			/>
	</g>
</g>
</svg>
