<?xml version="1.0" encoding="utf-8"?>
<!-- Generator: Adobe Illustrator 17.1.0, SVG Export Plug-In . SVG Version: 6.00 Build 0)  -->
<!DOCTYPE svg PUBLIC "-//W3C//DTD SVG 1.1//EN" "http://www.w3.org/Graphics/SVG/1.1/DTD/svg11.dtd">
<svg version="1.1"
	 id="svg3844" xmlns:svg="http://www.w3.org/2000/svg" xmlns:cc="http://creativecommons.org/ns#" xmlns:dc="http://purl.org/dc/elements/1.1/" xmlns:rdf="http://www.w3.org/1999/02/22-rdf-syntax-ns#"
	 xmlns="http://www.w3.org/2000/svg" xmlns:xlink="http://www.w3.org/1999/xlink" x="0px" y="0px" width="23px" height="35px"
	 viewBox="0 0 23 35" enable-background="new 0 0 23 35" xml:space="preserve">
<g id="text4837" transform="scale(0.92169959,1.0849522)">
</g>
<rect id="rect3803" y="0" fill="none" width="23" height="35"/>
<path id="path3799" fill="#FFFFFF" stroke="#3A3836" stroke-linecap="round" stroke-linejoin="round" d="M5.2,8.5l-3.8,3.1
	c0.6,0.6,2.5,1.8,1.2,4.3S0.9,22,3.4,24.4c3.1,3.1,6.9,0.6,8.1,3.1c1.2-2.5,5,0,8.1-3.1c2.5-2.5,1.9-6.1,0.6-8.6s0.6-3.7,1.2-4.3
	l-3.8-3.1c0,0-1.2,1.8-3.1,1.8s-3.1-1.8-3.1-1.8s-1.2,1.8-3.1,1.8S5.3,8.5,5.2,8.5L5.2,8.5z"/>
<rect id="rect3803-4" y="0" fill="none" width="23" height="35"/>
<g id="text4837-4" transform="matrix(0.92169959,0,0,1.0849522,0,0.14679344)">
	<path id="path5308-2" fill="#3A3836" d="M17.2,1c-0.5,0-0.9,0.1-1.3,0.3c-0.4,0.2-0.6,0.5-0.8,0.9c-0.2,0.4-0.3,0.9-0.3,1.4
		c0,0.8,0.2,1.5,0.6,1.9c0.4,0.4,1,0.7,1.7,0.7c0.5,0,1-0.1,1.4-0.2V5.3c-0.2,0.1-0.4,0.1-0.6,0.2c-0.2,0-0.4,0.1-0.6,0.1
		c-0.5,0-0.9-0.2-1.1-0.5c-0.3-0.3-0.4-0.8-0.4-1.4c0-0.6,0.1-1.1,0.4-1.4c0.3-0.3,0.6-0.5,1.1-0.5c0.2,0,0.4,0,0.6,0.1
		C18,1.9,18.2,1.9,18.3,2l0.3-0.7C18.2,1.1,17.7,1,17.2,1z M2,1.1v0.7h1.5v4.3h0.8V1.8h1.5V1.1C5.8,1.1,2,1.1,2,1.1z M6.1,1.1v5H7
		v-2h0.8l1.2,2h0.9L8.5,3.9c0.7-0.3,1-0.7,1-1.3C9.5,2,9.3,1.7,9,1.4C8.7,1.2,8.2,1.1,7.6,1.1C7.6,1.1,6.1,1.1,6.1,1.1z M10.2,1.1
		v3.3c0,0.6,0.2,1,0.5,1.4C11,6,11.5,6.2,12.2,6.2c0.4,0,0.8-0.1,1.1-0.2c0.3-0.2,0.5-0.4,0.7-0.6c0.2-0.3,0.2-0.6,0.2-1V1.1h-0.8
		v3.2c0,0.8-0.4,1.2-1.2,1.2c-0.4,0-0.7-0.1-0.9-0.3C11.1,5,11,4.7,11,4.3V1.1C11,1.1,10.2,1.1,10.2,1.1z M19.1,1.1v5h0.8V4.2
		l0.5-0.4L22,6.1h1l-2-2.8c0.4-0.4,1-1.2,1.9-2.2H22l-1.4,1.6c-0.2,0.3-0.5,0.5-0.7,0.8V1.1C19.9,1.1,19.1,1.1,19.1,1.1z M7,1.8h0.5
		c0.4,0,0.7,0.1,0.8,0.2c0.2,0.1,0.3,0.3,0.3,0.6c0,0.3-0.1,0.5-0.3,0.6C8.2,3.3,7.9,3.4,7.5,3.4H7V1.8z"/>
</g>
<g>
	<path fill="#FFFFFF" d="M7.7,2.3C7.5,2.1,7.3,2.1,6.9,2.1H6.4v1.8h0.5c0.4,0,0.6-0.1,0.8-0.2S8,3.2,8,2.9C8,2.6,7.9,2.4,7.7,2.3z"
		/>
	<path fill="#FFFFFF" d="M21,0H2C1.4,0,1,0.4,1,1v6c0,0.6,0.4,1,1,1h19c0.6,0,1-0.4,1-1V1C22,0.4,21.6,0,21,0z M5.4,2.1H4v4.7H3.2
		V2.1H1.8V1.3h3.5V2.1z M8.3,6.8L7.2,4.6H6.4v2.2H5.6V1.3H7c0.6,0,1.1,0.1,1.3,0.4C8.6,2,8.7,2.4,8.7,2.9c0,0.7-0.3,1.2-0.9,1.5
		l1.3,2.4H8.3z M13.1,4.9c0,0.4-0.1,0.8-0.2,1.1c-0.1,0.3-0.4,0.5-0.6,0.7c-0.3,0.2-0.6,0.2-1,0.2c-0.6,0-1-0.2-1.4-0.5
		S9.4,5.5,9.4,4.8V1.3h0.8v3.5c0,0.5,0.1,0.8,0.3,1c0.2,0.2,0.5,0.3,0.8,0.3c0.7,0,1.1-0.4,1.1-1.3V1.3h0.8V4.9z M14.8,5.6
		c0.2,0.3,0.6,0.5,1.1,0.5c0.2,0,0.4,0,0.6-0.1c0.2,0,0.4-0.1,0.6-0.2v0.8c-0.4,0.2-0.8,0.2-1.2,0.2c-0.7,0-1.2-0.2-1.6-0.7
		C13.8,5.6,13.6,5,13.6,4c0-0.6,0.1-1.1,0.3-1.5c0.2-0.4,0.4-0.8,0.8-1c0.3-0.2,0.7-0.3,1.2-0.3v0c0.5,0,0.9,0.1,1.3,0.4l-0.3,0.7
		c-0.2-0.1-0.3-0.2-0.5-0.2C16.2,2,16,2,15.8,2c-0.4,0-0.8,0.2-1,0.5c-0.3,0.4-0.4,0.9-0.4,1.5C14.4,4.7,14.6,5.2,14.8,5.6z
		 M20.3,6.8l-1.5-2.5l-0.5,0.4v2h-0.8V1.3l0,0h0.8v2.6c0.2-0.3,0.4-0.6,0.6-0.9l1.3-1.7h0.9c-0.8,1.1-1.4,1.9-1.8,2.4l1.8,3.1H20.3z
		"/>
</g>
</svg>
