<?xml version="1.0" encoding="utf-8"?>
<!-- Generator: Adobe Illustrator 17.1.0, SVG Export Plug-In . SVG Version: 6.00 Build 0)  -->
<!DOCTYPE svg PUBLIC "-//W3C//DTD SVG 1.1//EN" "http://www.w3.org/Graphics/SVG/1.1/DTD/svg11.dtd">
<svg version="1.1"
	 id="svg3844" xmlns:svg="http://www.w3.org/2000/svg" xmlns:cc="http://creativecommons.org/ns#" xmlns:dc="http://purl.org/dc/elements/1.1/" xmlns:rdf="http://www.w3.org/1999/02/22-rdf-syntax-ns#"
	 xmlns="http://www.w3.org/2000/svg" xmlns:xlink="http://www.w3.org/1999/xlink" x="0px" y="0px" width="27px" height="37px"
	 viewBox="0 0 27 37" enable-background="new 0 0 27 37" xml:space="preserve">
<g id="layer1" transform="translate(-297.00004,-888.36218)">
	<path id="path3799-7" fill="#FFFFFF" stroke="#3A3836" stroke-linecap="round" stroke-linejoin="round" d="M303.3,898.9l-5.8,3.1
		c0.7,0.6,2.9,1.8,1.4,4.3c-1.4,2.5-2.2,6.1,0.7,8.6c3.6,3.1,9.4,0.6,10.8,3.1c1.4-2.5,7.2,0,10.8-3.1c2.9-2.5,2.2-6.1,0.7-8.6
		c-1.4-2.5,0.7-3.7,1.4-4.3l-5.8-3.1c0,0-1.4,1.8-3.6,1.8c-2.2,0-3.6-1.8-3.6-1.8s-1.4,1.8-3.6,1.8
		C304.7,900.7,303.3,898.9,303.3,898.9z"/>
	<g id="text4827-8" transform="matrix(1.2192924,0,0,1.1810129,-60.89998,-184.57244)">
	</g>
	<g id="g10281" transform="translate(1.00002)">
		<rect id="rect3803-4" x="299" y="890.4" fill="none" width="21" height="35"/>
	</g>
	<g id="g10543">
		<path id="rect4807-3-8" fill="#FFFFFF" d="M301,888.4h19c0.6,0,1,0.4,1,1v7c0,0.6-0.4,1-1,1h-19c-0.6,0-1-0.4-1-1v-7
			C300,888.8,300.4,888.4,301,888.4z"/>
		<path id="path4146" fill="#3A3836" d="M305.6,889.9l-2.3,6h1.1l0.6-1.6h2.3l0.6,1.6h1.1l-2.3-6H305.6z M309.6,889.9v5.9h3.6V895
			h-2.6v-5.1H309.6z M312.8,889.9v0.8h1.8v5.1h1v-5.1h1.8v-0.8H312.8z M306.1,890.7c0,0.1,0.1,0.3,0.2,0.5c0.1,0.2,0.1,0.4,0.2,0.5
			l0.6,1.6h-1.8l0.6-1.5C305.9,891.4,306.1,891,306.1,890.7z M317.7,894.6c-0.2,0-0.4,0.1-0.5,0.2s-0.2,0.3-0.2,0.5
			c0,0.2,0.1,0.3,0.2,0.5s0.3,0.2,0.5,0.2c0.2,0,0.4-0.1,0.5-0.2c0.1-0.1,0.2-0.3,0.2-0.5c0-0.2-0.1-0.3-0.2-0.4
			C318.1,894.7,317.9,894.6,317.7,894.6z"/>
	</g>
</g>
</svg>
