<svg xmlns="http://www.w3.org/2000/svg" width="38" height="20" viewBox="0 0 38 20">
  <title>us-highway-duplex</title>
  <g>
    <path d="M19,18.5a0.5,0.5,0,0,1-.41-0.22c-0.21-.31-1-0.83-4.27-0.83-0.61,0-1.2,0-1.68,0l-0.9,0H11.47l-0.57,0c-3.63-.14-7.5-0.46-8.76-1.8-2.62-2.78-1.58-5.84-.58-7.9S1.49,4.67.7,3.9A0.57,0.57,0,0,1,.52,3.5,0.53,0.53,0,0,1,.68,3.12l3-2.5A0.5,0.5,0,0,1,4.3.6c1.78,1.33,5.63,1.9,7.2,1.9S16.84,2,18.7.6a0.5,0.5,0,0,1,.61,0C21.16,2,25,2.5,26.5,2.5s5.39-.57,7.19-1.9a0.5,0.5,0,0,1,.62,0l3,2.5a0.5,0.5,0,0,1,0,.74c-0.83.8-1.91,1.85-.9,3.92s2,5.11-.58,7.9c-1.26,1.34-5.14,1.66-8.76,1.8l-0.57,0H26.24l-0.87,0-1.59,0c-3.32,0-4.16.51-4.37,0.82a0.5,0.5,0,0,1-.41.22h0Z" fill="#fff"/>
    <path d="M34,1l3,2.5c-0.78.76-2.19,2.06-1,4.5s1.69,5-.5,7.33c-1.44,1.53-7.57,1.59-9,1.67H26.24c-0.53,0-1.45,0-2.46,0-1.92,0-4.19.15-4.78,1-0.6-.89-2.79-1-4.68-1-1.06,0-2,.05-2.58.05H11.5c-1.43-.07-7.56-0.14-9-1.67C0.31,13,.81,10.45,2,8S1.78,4.26,1,3.5L4,1c2,1.47,6,2,7.5,2S17,2.53,19,1c2,1.53,6,2,7.5,2S32,2.47,34,1m0-1a1,1,0,0,0-.59.2C31.69,1.46,28,2,26.5,2S21.26,1.47,19.61.21a1,1,0,0,0-1.22,0C16.74,1.47,13.09,2,11.5,2S6.28,1.46,4.6.2a1,1,0,0,0-1.24,0l-3,2.5A1,1,0,0,0,.3,4.22l0,0C1.1,5,2,5.82,1.11,7.56,0,9.75-1.05,13,1.77,16c1.38,1.47,5.19,1.81,9.11,2l0.57,0h0.29l0.91,0c0.48,0,1.06,0,1.67,0,3.4,0,3.83.58,3.85,0.61A1,1,0,0,0,19,19h0a1,1,0,0,0,.83-0.44c0-.06.55-0.6,4-0.6l1.58,0,0.88,0h0.31l0.57,0c3.92-.15,7.73-0.49,9.11-2,2.83-3,1.74-6.27.67-8.46-0.85-1.75,0-2.57.76-3.3l0,0a1,1,0,0,0-.06-1.49l-3-2.5A1,1,0,0,0,34,0h0Z" fill="#3a3836"/>
  </g>
  <rect width="32" height="20" fill="none"/>
  <rect width="38" height="20" fill="none"/>
</svg>
