<?xml version="1.0" encoding="utf-8"?>
<!-- Generator: Adobe Illustrator 17.1.0, SVG Export Plug-In . SVG Version: 6.00 Build 0)  -->
<!DOCTYPE svg PUBLIC "-//W3C//DTD SVG 1.1//EN" "http://www.w3.org/Graphics/SVG/1.1/DTD/svg11.dtd">
<svg version="1.1"
	 id="svg3844" xmlns:svg="http://www.w3.org/2000/svg" xmlns:cc="http://creativecommons.org/ns#" xmlns:dc="http://purl.org/dc/elements/1.1/" xmlns:rdf="http://www.w3.org/1999/02/22-rdf-syntax-ns#"
	 xmlns="http://www.w3.org/2000/svg" xmlns:xlink="http://www.w3.org/1999/xlink" x="0px" y="0px" width="28px" height="17px"
	 viewBox="0 0 28 17" enable-background="new 0 0 28 17" xml:space="preserve">
<rect id="rect3803" fill="none" width="28" height="17"/>
<path id="path3799-7" fill="#FFFFFF" stroke="#3A3836" stroke-linecap="round" stroke-linejoin="round" d="M6.1,1L0.5,3.5
	C1.1,4,2.8,5,1.6,7s-1.7,5,0.6,7C5,16.5,12.9,14.5,14,16.5c1.1-2,9,0,11.8-2.5c2.2-2,1.7-5,0.6-7s0.6-3,1.1-3.5L21.9,1
	c0,0-1.7,1.5-3.9,1.5S14,1,14,1s-1.7,1.5-3.9,1.5S6.1,1,6.1,1L6.1,1z"/>
</svg>
