<?xml version="1.0" encoding="utf-8"?>
<!-- Generator: Adobe Illustrator 17.1.0, SVG Export Plug-In . SVG Version: 6.00 Build 0)  -->
<!DOCTYPE svg PUBLIC "-//W3C//DTD SVG 1.1//EN" "http://www.w3.org/Graphics/SVG/1.1/DTD/svg11.dtd">
<svg version="1.1"
	 id="svg3844" xmlns:svg="http://www.w3.org/2000/svg" xmlns:cc="http://creativecommons.org/ns#" xmlns:dc="http://purl.org/dc/elements/1.1/" xmlns:rdf="http://www.w3.org/1999/02/22-rdf-syntax-ns#"
	 xmlns="http://www.w3.org/2000/svg" xmlns:xlink="http://www.w3.org/1999/xlink" x="0px" y="0px" width="27px" height="35px"
	 viewBox="0 0 27 35" enable-background="new 0 0 27 35" xml:space="preserve">
<rect id="rect3803" y="0" fill="none" width="27" height="35"/>
<g id="text4837" transform="matrix(0.92169959,0,0,1.0849522,0,0.14679344)">
	<path id="path5308" fill="#3A3836" d="M19.4,1c-0.5,0-0.9,0.1-1.3,0.3c-0.4,0.2-0.6,0.5-0.8,0.9C17,2.6,17,3.1,17,3.6
		c0,0.8,0.2,1.5,0.6,1.9c0.4,0.4,1,0.7,1.7,0.7c0.5,0,1-0.1,1.4-0.2V5.3c-0.2,0.1-0.4,0.1-0.6,0.2c-0.2,0-0.4,0.1-0.6,0.1
		c-0.5,0-0.9-0.2-1.1-0.5c-0.3-0.3-0.4-0.8-0.4-1.4c0-0.6,0.1-1.1,0.4-1.4c0.3-0.3,0.6-0.5,1.1-0.5c0.2,0,0.4,0,0.6,0.1
		c0.2,0.1,0.4,0.1,0.5,0.2l0.3-0.7C20.4,1.1,19.9,1,19.4,1z M4.2,1.1v0.7h1.5v4.3h0.8V1.8H8V1.1C8,1.1,4.2,1.1,4.2,1.1z M8.3,1.1v5
		h0.8v-2h0.8l1.2,2h0.9l-1.4-2.2c0.7-0.3,1-0.7,1-1.3c0-0.5-0.2-0.9-0.5-1.1c-0.3-0.2-0.8-0.4-1.5-0.4C9.7,1.1,8.3,1.1,8.3,1.1z
		 M12.3,1.1v3.3c0,0.6,0.2,1,0.5,1.4c0.3,0.3,0.8,0.5,1.5,0.5c0.4,0,0.8-0.1,1.1-0.2c0.3-0.2,0.5-0.4,0.7-0.6c0.2-0.3,0.2-0.6,0.2-1
		V1.1h-0.8v3.2c0,0.8-0.4,1.2-1.2,1.2c-0.4,0-0.7-0.1-0.9-0.3c-0.2-0.2-0.3-0.5-0.3-0.9V1.1C13.2,1.1,12.3,1.1,12.3,1.1z M21.3,1.1
		v5h0.8V4.2l0.5-0.4l1.6,2.3h1l-2-2.8c0.4-0.4,1-1.2,1.9-2.2h-0.9l-1.4,1.6c-0.2,0.3-0.5,0.5-0.7,0.8V1.1
		C22.1,1.1,21.3,1.1,21.3,1.1z M9.1,1.8h0.5c0.4,0,0.7,0.1,0.8,0.2c0.2,0.1,0.3,0.3,0.3,0.6c0,0.3-0.1,0.5-0.3,0.6
		c-0.2,0.1-0.5,0.2-0.8,0.2H9.1V1.8z"/>
</g>
<path id="path3799-7" fill="#FFFFFF" stroke="#3A3836" stroke-width="0.828" stroke-linecap="round" stroke-linejoin="round" d="
	M6.3,8.9L0.5,12c0.7,0.6,2.9,1.8,1.4,4.3c-1.4,2.5-2.2,6.1,0.7,8.6c3.6,3.1,9.4,0.6,10.8,3.1c1.4-2.5,7.2,0,10.8-3.1
	c2.9-2.5,2.2-6.1,0.7-8.6s0.7-3.7,1.4-4.3l-5.8-3.1c0,0-1.4,1.8-3.6,1.8s-3.6-1.8-3.6-1.8s-1.4,1.8-3.6,1.8
	C7.7,10.7,6.3,8.9,6.3,8.9L6.3,8.9z"/>
<g>
	<path fill="#FFFFFF" d="M9.7,2.3C9.5,2.1,9.3,2.1,8.9,2.1H8.4v1.8h0.5c0.4,0,0.6-0.1,0.8-0.2S10,3.2,10,2.9C10,2.6,9.9,2.4,9.7,2.3
		z"/>
	<path fill="#FFFFFF" d="M23,0H4C3.4,0,3,0.4,3,1v6c0,0.6,0.4,1,1,1h19c0.6,0,1-0.4,1-1V1C24,0.4,23.6,0,23,0z M7.4,2.1H6v4.7H5.2
		V2.1H3.8V1.3h3.5V2.1z M10.3,6.8L9.2,4.6H8.4v2.2H7.6V1.3H9c0.6,0,1.1,0.1,1.3,0.4c0.3,0.3,0.4,0.7,0.4,1.2c0,0.7-0.3,1.2-0.9,1.5
		l1.3,2.4H10.3z M15.1,4.9c0,0.4-0.1,0.8-0.2,1.1c-0.1,0.3-0.4,0.5-0.6,0.7c-0.3,0.2-0.6,0.2-1,0.2c-0.6,0-1-0.2-1.4-0.5
		s-0.5-0.9-0.5-1.5V1.3h0.8v3.5c0,0.5,0.1,0.8,0.3,1c0.2,0.2,0.5,0.3,0.8,0.3c0.7,0,1.1-0.4,1.1-1.3V1.3h0.8V4.9z M16.8,5.6
		c0.2,0.3,0.6,0.5,1.1,0.5c0.2,0,0.4,0,0.6-0.1c0.2,0,0.4-0.1,0.6-0.2v0.8c-0.4,0.2-0.8,0.2-1.2,0.2c-0.7,0-1.2-0.2-1.6-0.7
		C15.8,5.6,15.6,5,15.6,4c0-0.6,0.1-1.1,0.3-1.5c0.2-0.4,0.4-0.8,0.8-1c0.3-0.2,0.7-0.3,1.2-0.3v0c0.5,0,0.9,0.1,1.3,0.4l-0.3,0.7
		c-0.2-0.1-0.3-0.2-0.5-0.2C18.2,2,18,2,17.8,2c-0.4,0-0.8,0.2-1,0.5c-0.3,0.4-0.4,0.9-0.4,1.5C16.4,4.7,16.6,5.2,16.8,5.6z
		 M22.3,6.8l-1.5-2.5l-0.5,0.4v2h-0.8V1.3l0,0h0.8v2.6c0.2-0.3,0.4-0.6,0.6-0.9l1.3-1.7h0.9c-0.8,1.1-1.4,1.9-1.8,2.4l1.8,3.1H22.3z
		"/>
</g>
</svg>
