<?xml version="1.0" encoding="utf-8"?>
<!-- Generator: Adobe Illustrator 17.1.0, SVG Export Plug-In . SVG Version: 6.00 Build 0)  -->
<!DOCTYPE svg PUBLIC "-//W3C//DTD SVG 1.1//EN" "http://www.w3.org/Graphics/SVG/1.1/DTD/svg11.dtd">
<svg version="1.1"
	 id="svg3844" xmlns:svg="http://www.w3.org/2000/svg" xmlns:cc="http://creativecommons.org/ns#" xmlns:dc="http://purl.org/dc/elements/1.1/" xmlns:rdf="http://www.w3.org/1999/02/22-rdf-syntax-ns#"
	 xmlns="http://www.w3.org/2000/svg" xmlns:xlink="http://www.w3.org/1999/xlink" x="0px" y="0px" width="21px" height="31px"
	 viewBox="0 0 21 31" enable-background="new 0 0 21 31" xml:space="preserve">
<rect id="rect3803" fill="none" width="21" height="31"/>
<g id="text4837" transform="scale(0.92169959,1.0849522)">
	<path id="path5308" fill="#3A3836" d="M15.3,1.1c-0.4,0-0.8,0.1-1.1,0.3c-0.3,0.2-0.5,0.4-0.7,0.8c-0.2,0.3-0.2,0.7-0.2,1.1
		c0,0.7,0.2,1.2,0.5,1.6c0.3,0.4,0.8,0.6,1.4,0.6c0.4,0,0.8-0.1,1.1-0.2V4.6c-0.2,0.1-0.4,0.1-0.5,0.1c-0.2,0-0.3,0.1-0.5,0.1
		c-0.4,0-0.7-0.1-0.9-0.4C14.1,4.2,14,3.8,14,3.3c0-0.5,0.1-0.9,0.3-1.2c0.2-0.3,0.5-0.4,0.9-0.4c0.2,0,0.3,0,0.5,0.1
		c0.2,0,0.3,0.1,0.4,0.2l0.2-0.6C16.1,1.2,15.7,1.1,15.3,1.1z M2.7,1.2v0.6H4v3.6h0.7V1.8h1.2V1.2C5.9,1.2,2.7,1.2,2.7,1.2z
		 M6.1,1.2v4.2h0.7V3.7h0.7l1,1.7h0.8L8.1,3.5c0.5-0.2,0.8-0.6,0.8-1.1c0-0.4-0.1-0.7-0.4-0.9C8.3,1.3,7.9,1.2,7.3,1.2
		C7.3,1.2,6.1,1.2,6.1,1.2z M9.5,1.2v2.7c0,0.5,0.1,0.9,0.4,1.1c0.3,0.3,0.7,0.4,1.2,0.4c0.3,0,0.7-0.1,0.9-0.2
		c0.3-0.1,0.4-0.3,0.6-0.5c0.1-0.2,0.2-0.5,0.2-0.8V1.2h-0.7v2.6c0,0.7-0.3,1-1,1c-0.3,0-0.6-0.1-0.7-0.2c-0.2-0.2-0.2-0.4-0.2-0.8
		V1.2C10.2,1.2,9.5,1.2,9.5,1.2z M16.9,1.2v4.2h0.7V3.8l0.4-0.3l1.3,1.9h0.8L18.4,3c0.3-0.4,0.8-1,1.6-1.8h-0.8l-1.1,1.3
		c-0.2,0.2-0.4,0.4-0.6,0.7v-2C17.5,1.2,16.9,1.2,16.9,1.2z M6.8,1.7h0.5c0.3,0,0.5,0.1,0.7,0.2s0.2,0.3,0.2,0.5
		c0,0.2-0.1,0.4-0.2,0.5C7.9,3.1,7.6,3.1,7.3,3.1H6.8V1.7z"/>
</g>
<path id="path3799-7" fill="#FFFFFF" stroke="#3A3836" stroke-linecap="round" stroke-linejoin="round" d="M4.9,8l-4.4,2.5
	C1.1,11,2.7,12,1.6,14s-1.7,5,0.6,7c2.8,2.5,7.2,0.5,8.3,2.5c1.1-2,5.6,0,8.3-2.5c2.2-2,1.7-5,0.6-7c-1.1-2,0.6-3,1.1-3.5L16.1,8
	c0,0-1.1,1.5-2.8,1.5c-1.7,0-2.8-1.5-2.8-1.5S9.4,9.5,7.7,9.5S4.9,8,4.9,8z"/>
<g>
	<path fill="#FFFFFF" d="M7.4,2.1C7.2,2,7,1.9,6.7,1.9H6.3v1.5h0.4c0.3,0,0.5-0.1,0.6-0.2c0.1-0.1,0.2-0.3,0.2-0.6
		C7.6,2.4,7.5,2.2,7.4,2.1z"/>
	<path fill="#FFFFFF" d="M18,0H3C2.4,0,2,0.4,2,1v5c0,0.6,0.4,1,1,1h15c0.6,0,1-0.4,1-1V1C19,0.4,18.6,0,18,0z M5.4,1.9H4.3v3.9H3.7
		V1.9H2.5V1.3h2.9V1.9z M7.8,5.8L6.9,4H6.3v1.8H5.7V1.3h1.1c0.5,0,0.9,0.1,1.1,0.3c0.2,0.2,0.4,0.6,0.4,1c0,0.6-0.2,1-0.8,1.2l1.1,2
		H7.8z M11.8,4.2c0,0.3-0.1,0.6-0.2,0.9c-0.1,0.3-0.3,0.4-0.5,0.6c-0.2,0.1-0.5,0.2-0.8,0.2c-0.5,0-0.9-0.1-1.1-0.4
		C8.9,5.1,8.7,4.7,8.7,4.2V1.3h0.6v2.9c0,0.4,0.1,0.7,0.2,0.8c0.1,0.2,0.4,0.3,0.7,0.3c0.6,0,0.9-0.4,0.9-1.1V1.3h0.6V4.2z
		 M13.2,4.8c0.2,0.3,0.5,0.4,0.9,0.4c0.2,0,0.3,0,0.5-0.1c0.2,0,0.3-0.1,0.5-0.2v0.6c-0.3,0.1-0.6,0.2-1,0.2c-0.6,0-1-0.2-1.3-0.6
		c-0.3-0.4-0.5-1-0.5-1.7c0-0.5,0.1-0.9,0.2-1.2c0.1-0.4,0.4-0.6,0.6-0.8c0.3-0.2,0.6-0.3,1-0.3c0.4,0,0.8,0.1,1.1,0.3L15,2.1
		C14.8,2,14.7,2,14.5,1.9c-0.1-0.1-0.3-0.1-0.5-0.1c-0.4,0-0.6,0.2-0.9,0.5C13,2.6,12.9,3,12.9,3.6C12.9,4.1,13,4.5,13.2,4.8z
		 M17.8,5.8l-1.2-2.1l-0.4,0.4v1.7h-0.6V1.3h0.6v2.2c0.2-0.2,0.3-0.5,0.5-0.7l1-1.5h0.7c-0.7,0.9-1.2,1.6-1.5,2l1.5,2.6H17.8z"/>
</g>
</svg>
