<?xml version="1.0" encoding="utf-8"?>
<!-- Generator: Adobe Illustrator 17.1.0, SVG Export Plug-In . SVG Version: 6.00 Build 0)  -->
<!DOCTYPE svg PUBLIC "-//W3C//DTD SVG 1.1//EN" "http://www.w3.org/Graphics/SVG/1.1/DTD/svg11.dtd">
<svg version="1.1"
	 id="svg3844" xmlns:svg="http://www.w3.org/2000/svg" xmlns:cc="http://creativecommons.org/ns#" xmlns:dc="http://purl.org/dc/elements/1.1/" xmlns:rdf="http://www.w3.org/1999/02/22-rdf-syntax-ns#"
	 xmlns="http://www.w3.org/2000/svg" xmlns:xlink="http://www.w3.org/1999/xlink" x="0px" y="0px" width="29px" height="17px"
	 viewBox="0 0 29 17" enable-background="new 0 0 29 17" xml:space="preserve">
<rect id="rect3803" fill="none" width="29" height="17"/>
<path id="path3799-7" fill="#FFFFFF" stroke="#3A3836" stroke-linecap="round" stroke-linejoin="round" d="M6.3,1L0.5,3.5
	C1.1,4,2.8,5,1.7,7c-1.2,2-1.8,5,0.6,7c2.9,2.5,11.1,0.5,12.3,2.5c1.2-2,9.3,0,12.3-2.5c2.3-2,1.8-5,0.6-7s0.6-3,1.2-3.5l-6-2.5
	c0,0-1.8,1.5-4.1,1.5S14.5,1,14.5,1s-1.8,1.5-4.1,1.5S6.3,1,6.3,1L6.3,1z"/>
</svg>
