<?xml version="1.0" encoding="utf-8"?>
<!-- Generator: Adobe Illustrator 17.1.0, SVG Export Plug-In . SVG Version: 6.00 Build 0)  -->
<!DOCTYPE svg PUBLIC "-//W3C//DTD SVG 1.1//EN" "http://www.w3.org/Graphics/SVG/1.1/DTD/svg11.dtd">
<svg version="1.1"
	 id="svg3844" xmlns:svg="http://www.w3.org/2000/svg" xmlns:cc="http://creativecommons.org/ns#" xmlns:dc="http://purl.org/dc/elements/1.1/" xmlns:rdf="http://www.w3.org/1999/02/22-rdf-syntax-ns#" sodipodi:docname="us-highway-truck-3-small.svg" inkscape:version="0.91 r13725" xmlns:inkscape="http://www.inkscape.org/namespaces/inkscape" xmlns:sodipodi="http://sodipodi.sourceforge.net/DTD/sodipodi-0.dtd"
	 xmlns="http://www.w3.org/2000/svg" xmlns:xlink="http://www.w3.org/1999/xlink" x="0px" y="0px" width="25px" height="31px"
	 viewBox="0 0 25 31" enable-background="new 0 0 25 31" xml:space="preserve">
<sodipodi:namedview  fit-margin-bottom="0" inkscape:window-width="1920" inkscape:window-height="1031" inkscape:snap-global="true" fit-margin-right="0" inkscape:window-x="-204" inkscape:snap-smooth-nodes="false" inkscape:bbox-nodes="true" inkscape:snap-bbox="true" inkscape:object-nodes="true" inkscape:pageopacity="0.0" inkscape:document-units="px" inkscape:pageshadow="2" inkscape:current-layer="layer1" inkscape:window-y="194" inkscape:bbox-paths="false" inkscape:window-maximized="0" showgrid="true" pagecolor="#ffffff" bordercolor="#666666" id="base" inkscape:cy="15.323988" inkscape:zoom="16.000001" borderopacity="1.0" inkscape:cx="0.0057592963" fit-margin-left="0" fit-margin-top="0">
	
		<inkscape:grid  type="xygrid" snapvisiblegridlinesonly="true" spacingy="0.5px" spacingx="0.5px" empspacing="2" id="grid3875" originy="-127" enabled="true" visible="true" originx="-299">
		</inkscape:grid>
</sodipodi:namedview>
<g id="layer1" transform="translate(-299.00001,-894.36218)" inkscape:groupmode="layer" inkscape:label="Layer 1">
	<rect id="rect3803" x="303" y="894.4" fill="#3A3836" fill-opacity="0" width="17" height="31"/>
	<path id="rect4807" fill="#FFFFFF" d="M304,894.4h15c0.6,0,1,0.4,1,1v5c0,0.6-0.4,1-1,1h-15c-0.6,0-1-0.4-1-1v-5
		C303,894.8,303.4,894.4,304,894.4z"/>
	<g id="text4837" transform="matrix(0.92169959,0,0,1.0849522,2,0)">
		<path id="path5308" inkscape:connector-curvature="0" fill="#3A3836" d="M339.7,825.4c-0.4,0-0.8,0.1-1.1,0.3
			c-0.3,0.2-0.5,0.4-0.7,0.8c-0.2,0.3-0.2,0.7-0.2,1.1c0,0.7,0.2,1.2,0.5,1.6c0.3,0.4,0.8,0.6,1.4,0.6c0.4,0,0.8-0.1,1.1-0.2V829
			c-0.2,0.1-0.4,0.1-0.5,0.1c-0.2,0-0.3,0.1-0.5,0.1c-0.4,0-0.7-0.1-0.9-0.4c-0.2-0.3-0.3-0.7-0.3-1.2c0-0.5,0.1-0.9,0.3-1.2
			c0.2-0.3,0.5-0.4,0.9-0.4c0.2,0,0.3,0,0.5,0.1c0.2,0,0.3,0.1,0.4,0.2l0.2-0.6C340.5,825.5,340.1,825.4,339.7,825.4z M327.1,825.5
			v0.6h1.2v3.6h0.7v-3.6h1.2v-0.6C330.3,825.5,327.1,825.5,327.1,825.5z M330.6,825.5v4.2h0.7V828h0.7l1,1.7h0.8l-1.2-1.9
			c0.5-0.2,0.8-0.6,0.8-1.1c0-0.4-0.1-0.7-0.4-0.9c-0.3-0.2-0.7-0.3-1.2-0.3C331.7,825.5,330.6,825.5,330.6,825.5z M333.9,825.5v2.7
			c0,0.5,0.1,0.9,0.4,1.1c0.3,0.3,0.7,0.4,1.2,0.4c0.3,0,0.7-0.1,0.9-0.2c0.3-0.1,0.4-0.3,0.6-0.5c0.1-0.2,0.2-0.5,0.2-0.8v-2.7
			h-0.7v2.6c0,0.7-0.3,1-1,1c-0.3,0-0.6-0.1-0.7-0.2c-0.2-0.2-0.2-0.4-0.2-0.8v-2.7C334.6,825.5,333.9,825.5,333.9,825.5z
			 M341.3,825.5v4.2h0.7v-1.6l0.4-0.3l1.3,1.9h0.8l-1.6-2.4c0.3-0.4,0.8-1,1.6-1.8h-0.8l-1.1,1.3c-0.2,0.2-0.4,0.4-0.6,0.7v-2
			C341.9,825.5,341.3,825.5,341.3,825.5z M331.2,826.1h0.5c0.3,0,0.5,0.1,0.7,0.2s0.2,0.3,0.2,0.5c0,0.2-0.1,0.4-0.2,0.5
			c-0.1,0.1-0.4,0.2-0.7,0.2h-0.5V826.1z"/>
	</g>
	
		<path id="path3799-7-8" sodipodi:nodetypes="ccsscssccscsc" inkscape:connector-curvature="0" fill="#FFFFFF" stroke="#3A3836" stroke-linecap="round" stroke-linejoin="round" d="
		M304.5,902.4l-5,2.5c0.5,0.5,2,1.5,1,3.5s-1.5,5,0.5,7c2.5,2.5,9.5,0.5,10.5,2.5c1-2,8,0,10.5-2.5c2-2,1.5-5,0.5-7s0.5-3,1-3.5
		l-5-2.5c0,0-1.5,1.5-3.5,1.5s-3.5-1.5-3.5-1.5s-1.5,1.5-3.5,1.5S304.5,902.4,304.5,902.4z"/>
</g>
</svg>
