<?xml version="1.0" encoding="UTF-8" standalone="no"?>
<svg
   xmlns:dc="http://purl.org/dc/elements/1.1/"
   xmlns:cc="http://creativecommons.org/ns#"
   xmlns:rdf="http://www.w3.org/1999/02/22-rdf-syntax-ns#"
   xmlns:svg="http://www.w3.org/2000/svg"
   xmlns="http://www.w3.org/2000/svg"
   version="1.1"
   id="svg3844"
   height="18"
   width="17">
  <defs
     id="defs3846" />
  <metadata
     id="metadata3849">
    <rdf:RDF>
      <cc:Work
         rdf:about="">
        <dc:format>image/svg+xml</dc:format>
        <dc:type
           rdf:resource="http://purl.org/dc/dcmitype/StillImage" />
        <dc:title />
      </cc:Work>
    </rdf:RDF>
  </metadata>
  <g
     transform="translate(-301,-901.36218)"
     id="layer1">
    <path
       id="path3799"
       transform="translate(301,901.36218)"
       d="m 3.5,1 -3,2.5 C 1,4 2.5,5 1.5,7 0.5,9 0,12 2,14 c 2.5,2.5 5.5,0.5 6.5,2.5 1,-2 4,0 6.5,-2.5 2,-2 1.5,-5 0.5,-7 -1,-2 0.5,-3 1,-3.5 L 13.5,1 c 0,0 -1,1.5 -2.5,1.5 C 9.5,2.5 8.5,1 8.5,1 8.5,1 7.5,2.5 6,2.5 4.5,2.5 3.5,1 3.5,1 Z"
       clip-path="none"
       style="color:#3a3836;display:inline;overflow:visible;visibility:visible;opacity:1;fill:#ffffff;fill-opacity:1;fill-rule:evenodd;stroke:#3a3836;stroke-width:1;stroke-linecap:round;stroke-linejoin:round;marker:none;enable-background:accumulate" />
    <rect
       y="901.36218"
       x="301"
       height="18"
       width="17"
       id="rect3803"
       style="color:#3a3836;fill:#3a3836;fill-opacity:1;fill-rule:nonzero;stroke:none;stroke-width:1;marker:none;visibility:visible;display:inline;overflow:visible;enable-background:accumulate;opacity:0" />
  </g>
</svg>
