<svg xmlns="http://www.w3.org/2000/svg" width="26" height="38" viewBox="0 0 26 38">
  <title>us-highway-truck</title>
  <g>
    <path d="M13,27.5a0.5,0.5,0,0,1-.38-0.17c-0.57-.65-3.08-0.78-4-0.82l-0.38,0c-1.6-.08-4.59-0.22-6.08-1.81-2.61-2.78-1.58-5.84-.58-7.9S1.49,13.67.7,12.9a0.57,0.57,0,0,1-.17-0.4,0.53,0.53,0,0,1,.16-0.39l3-2.5a0.5,0.5,0,0,1,.68,0A6.46,6.46,0,0,0,8.5,11a6.56,6.56,0,0,0,4.14-1.35A0.5,0.5,0,0,1,13,9.5h0a0.5,0.5,0,0,1,.35.15A6.52,6.52,0,0,0,17.5,11a6.41,6.41,0,0,0,4.13-1.35,0.5,0.5,0,0,1,.68,0l3,2.5a0.5,0.5,0,0,1,0,.74c-0.83.8-1.91,1.85-.9,3.92s2,5.11-.58,7.9c-1.49,1.59-4.48,1.73-6.08,1.81l-0.38,0c-0.95,0-3.46.17-4,.82A0.5,0.5,0,0,1,13,27.5Z" fill="#fff"/>
    <path d="M22,10l3,2.5c-0.78.76-2.19,2.06-1,4.5s1.69,5-.5,7.33c-1.44,1.53-4.57,1.59-6,1.67-1.16.06-3.76,0.16-4.5,1-0.74-.84-3.34-0.94-4.5-1-1.43-.07-4.56-0.14-6-1.67C0.31,22,.81,19.45,2,17s-0.23-3.74-1-4.5L4,10a6.94,6.94,0,0,0,4.5,1.5A7,7,0,0,0,13,10a7,7,0,0,0,4.5,1.5A6.84,6.84,0,0,0,22,10m0-1a1,1,0,0,0-.72.3,6,6,0,0,1-3.77,1.2,6.1,6.1,0,0,1-3.79-1.21A1,1,0,0,0,13,9h0a1,1,0,0,0-.71.3A6.11,6.11,0,0,1,8.5,10.5,6,6,0,0,1,4.71,9.3a1,1,0,0,0-1.35-.07l-3,2.5A1,1,0,0,0,.3,13.22l0,0C1.1,14,2,14.82,1.11,16.56,0,18.75-1.05,22,1.77,25c1.63,1.74,4.75,1.89,6.42,2H8.57c2.82,0.14,3.52.47,3.68,0.66A1,1,0,0,0,13,28h0a1,1,0,0,0,.75-0.34c0.16-.18.86-0.51,3.68-0.66H17.8c1.67-.08,4.79-0.23,6.42-2,2.83-3,1.74-6.27.67-8.46-0.85-1.75,0-2.57.76-3.3l0,0a1,1,0,0,0-.06-1.49l-3-2.5A1,1,0,0,0,22,9h0Z" fill="#3a3836"/>
  </g>
  <rect y="9" width="26" height="20" fill="none"/>
  <rect width="26" height="38" fill="none"/>
  <path d="M3.92,0H22.08A0.88,0.88,0,0,1,23,.86V7.14a0.88,0.88,0,0,1-.92.86H3.92A0.88,0.88,0,0,1,3,7.14V0.86A0.88,0.88,0,0,1,3.92,0Z" fill="#fff"/>
  <g>
    <path d="M5.68,1.85V7H4.73V1.85h-1V1H6.68V1.85h-1Z" fill="#3a3836"/>
    <path d="M9.62,7L8.83,4.53H8.3V7H7.36V1H8.88a1.47,1.47,0,0,1,1.18.42,2.07,2.07,0,0,1,.35,1.35,2.79,2.79,0,0,1-.14.95,1.11,1.11,0,0,1-.55.61L10.6,7h-1ZM9.46,2.76a2.91,2.91,0,0,0,0-.35,1,1,0,0,0-.08-0.29,0.45,0.45,0,0,0-.18-0.2,0.57,0.57,0,0,0-.3-0.07H8.3V3.68H8.88a0.58,0.58,0,0,0,.3-0.07,0.45,0.45,0,0,0,.18-0.2,1,1,0,0,0,.08-0.29A2.93,2.93,0,0,0,9.46,2.76Z" fill="#3a3836"/>
    <path d="M14.29,5.51a1.68,1.68,0,0,1-.11.62,1.46,1.46,0,0,1-.3.48,1.64,1.64,0,0,1-2.23,0,1.45,1.45,0,0,1-.3-0.48,1.67,1.67,0,0,1-.11-0.62V1h0.94V5.56a0.62,0.62,0,0,0,.17.48,0.59,0.59,0,0,0,.42.16A0.58,0.58,0,0,0,13.19,6a0.63,0.63,0,0,0,.17-0.48V1h0.94V5.51Z" fill="#3a3836"/>
    <path d="M18.22,5.39a2.33,2.33,0,0,1-.14.73,1.39,1.39,0,0,1-.35.54,1.31,1.31,0,0,1-.45.29,1.66,1.66,0,0,1-.59.09A1.48,1.48,0,0,1,16,6.9a1.54,1.54,0,0,1-.46-0.37,1.34,1.34,0,0,1-.24-0.39,2.48,2.48,0,0,1-.13-0.52,5.83,5.83,0,0,1-.06-0.7q0-.4,0-0.93t0-.93a5.83,5.83,0,0,1,.06-0.7,2.48,2.48,0,0,1,.13-0.52,1.34,1.34,0,0,1,.24-0.39A1.54,1.54,0,0,1,16,1.08a1.47,1.47,0,0,1,.7-0.15,1.66,1.66,0,0,1,.6.1,1.35,1.35,0,0,1,.45.29,1.33,1.33,0,0,1,.34.53,2.42,2.42,0,0,1,.13.73H17.28a2.23,2.23,0,0,0,0-.32A0.68,0.68,0,0,0,17.13,2,0.5,0.5,0,0,0,17,1.84a0.56,0.56,0,0,0-.27-0.06,0.52,0.52,0,0,0-.27.06,0.53,0.53,0,0,0-.17.16,1.49,1.49,0,0,0-.18.69Q16,3.17,16,4t0,1.29a1.49,1.49,0,0,0,.18.69,0.53,0.53,0,0,0,.17.16,0.52,0.52,0,0,0,.27.06A0.56,0.56,0,0,0,17,6.14,0.5,0.5,0,0,0,17.13,6a0.77,0.77,0,0,0,.1-0.27,2.24,2.24,0,0,0,0-.32h0.94Z" fill="#3a3836"/>
    <path d="M21.37,7l-1-2.46-0.45.92V7H19V1h0.94V3.81L21.25,1H22.2L21,3.48,22.38,7h-1Z" fill="#3a3836"/>
  </g>
</svg>
