<?xml version="1.0" encoding="utf-8"?>
<!-- Generator: Adobe Illustrator 17.1.0, SVG Export Plug-In . SVG Version: 6.00 Build 0)  -->
<!DOCTYPE svg PUBLIC "-//W3C//DTD SVG 1.1//EN" "http://www.w3.org/Graphics/SVG/1.1/DTD/svg11.dtd">
<svg version="1.1"
	 id="svg3844" xmlns:svg="http://www.w3.org/2000/svg" xmlns:cc="http://creativecommons.org/ns#" xmlns:dc="http://purl.org/dc/elements/1.1/" xmlns:rdf="http://www.w3.org/1999/02/22-rdf-syntax-ns#" sodipodi:docname="us-highway-business-2-small.svg" inkscape:version="0.91 r13725" xmlns:inkscape="http://www.inkscape.org/namespaces/inkscape" xmlns:sodipodi="http://sodipodi.sourceforge.net/DTD/sodipodi-0.dtd"
	 xmlns="http://www.w3.org/2000/svg" xmlns:xlink="http://www.w3.org/1999/xlink" x="0px" y="0px" width="25px" height="31px"
	 viewBox="0 0 25 31" enable-background="new 0 0 25 31" xml:space="preserve">
<sodipodi:namedview  fit-margin-bottom="0" inkscape:window-width="1542" inkscape:window-height="864" inkscape:snap-global="true" fit-margin-right="0" inkscape:window-x="43" inkscape:snap-smooth-nodes="false" inkscape:bbox-nodes="true" inkscape:snap-bbox="true" inkscape:object-nodes="true" inkscape:pageopacity="0.0" inkscape:document-units="px" inkscape:pageshadow="2" inkscape:current-layer="layer1" inkscape:window-y="0" inkscape:bbox-paths="false" inkscape:window-maximized="0" showgrid="true" pagecolor="#ffffff" bordercolor="#666666" id="base" inkscape:cy="17.934212" inkscape:zoom="15.999999" borderopacity="1.0" inkscape:cx="2.8850537" fit-margin-left="0" fit-margin-top="0">
	
		<inkscape:grid  type="xygrid" snapvisiblegridlinesonly="true" spacingy="0.5px" spacingx="0.5px" empspacing="2" id="grid3875" originy="-127" enabled="true" visible="true" originx="-300">
		</inkscape:grid>
</sodipodi:namedview>
<g id="layer1" transform="translate(-300.00001,-894.36218)" inkscape:groupmode="layer" inkscape:label="Layer 1">
	<rect id="rect3803" x="300" y="894.4" fill="#3A3836" fill-opacity="0" width="25" height="31"/>
	<path id="rect4807-3" fill="#FFFFFF" d="M305,894.4h15c0.6,0,1,0.4,1,1v5c0,0.6-0.4,1-1,1h-15c-0.6,0-1-0.4-1-1v-5
		C304,894.8,304.4,894.4,305,894.4z"/>
	<g id="text4827" transform="matrix(1.016077,0,0,0.98417739,3,0)">
		<path id="path4152" inkscape:connector-curvature="0" fill="#3A3836" d="M310.5,914.3c0-0.2,0-0.3,0.1-0.4
			c0.1-0.1,0.2-0.1,0.4-0.1c0.2,0,0.3,0,0.4,0.1c0.1,0.1,0.1,0.2,0.1,0.4c0,0.2,0,0.3-0.1,0.4c-0.1,0.1-0.2,0.1-0.4,0.1
			s-0.3,0-0.4-0.1C310.6,914.6,310.5,914.5,310.5,914.3z"/>
	</g>
	<g id="text5850" transform="translate(-28.720966,-5.0902439e-6)">
		<path id="path5855" inkscape:connector-curvature="0" fill="#3A3836" d="M334.5,895.4h1.4c0.7,0,1.1,0.1,1.4,0.3
			c0.3,0.2,0.4,0.5,0.4,0.9c0,0.3-0.1,0.5-0.2,0.7c-0.1,0.2-0.4,0.3-0.6,0.4v0c0.3,0.1,0.6,0.2,0.7,0.4c0.2,0.2,0.2,0.4,0.2,0.8
			c0,0.4-0.2,0.8-0.5,1c-0.3,0.2-0.7,0.4-1.3,0.4h-1.7V895.4L334.5,895.4z M335.3,897.4h0.8c0.3,0,0.6-0.1,0.7-0.2
			c0.2-0.1,0.2-0.3,0.2-0.5c0-0.2-0.1-0.4-0.2-0.5c-0.2-0.1-0.4-0.2-0.8-0.2h-0.7L335.3,897.4L335.3,897.4z M335.3,898.1v1.5h0.8
			c0.3,0,0.6-0.1,0.7-0.2c0.2-0.1,0.3-0.3,0.3-0.6c0-0.3-0.1-0.4-0.3-0.6s-0.4-0.2-0.8-0.2H335.3z"/>
		<path id="path5857" inkscape:connector-curvature="0" fill="#3A3836" d="M342.8,895.4v3.1c0,0.4-0.1,0.7-0.2,0.9
			c-0.2,0.3-0.4,0.5-0.7,0.6c-0.3,0.1-0.6,0.2-1,0.2c-0.6,0-1.1-0.2-1.4-0.5s-0.5-0.8-0.5-1.3v-3.1h0.8v3.1c0,0.4,0.1,0.7,0.3,0.9
			c0.2,0.2,0.5,0.3,0.9,0.3c0.7,0,1.1-0.4,1.1-1.2v-3H342.8L342.8,895.4z"/>
		<path id="path5859" inkscape:connector-curvature="0" fill="#3A3836" d="M346.8,899c0,0.4-0.2,0.8-0.5,1c-0.3,0.2-0.7,0.4-1.3,0.4
			c-0.5,0-1-0.1-1.3-0.3v-0.7c0.2,0.1,0.5,0.2,0.7,0.2c0.2,0.1,0.5,0.1,0.7,0.1c0.3,0,0.5-0.1,0.7-0.2c0.1-0.1,0.2-0.3,0.2-0.5
			c0-0.2-0.1-0.3-0.2-0.5c-0.1-0.1-0.4-0.3-0.8-0.4c-0.4-0.2-0.8-0.4-0.9-0.6c-0.2-0.2-0.3-0.5-0.3-0.8c0-0.4,0.1-0.7,0.4-1
			c0.3-0.2,0.7-0.3,1.2-0.3c0.5,0,0.9,0.1,1.4,0.3l-0.3,0.6c-0.4-0.2-0.8-0.3-1.1-0.3c-0.3,0-0.4,0.1-0.6,0.2
			c-0.1,0.1-0.2,0.3-0.2,0.4c0,0.1,0,0.2,0.1,0.3c0.1,0.1,0.1,0.2,0.3,0.3s0.3,0.2,0.7,0.3c0.4,0.1,0.6,0.3,0.8,0.4
			c0.2,0.1,0.3,0.3,0.4,0.4C346.7,898.5,346.8,898.7,346.8,899L346.8,899z"/>
	</g>
	
		<path id="path3799-7-8" sodipodi:nodetypes="ccsscssccscsc" inkscape:connector-curvature="0" fill="#FFFFFF" stroke="#3A3836" stroke-linecap="round" stroke-linejoin="round" d="
		M305.5,902.4l-5,2.5c0.5,0.5,2,1.5,1,3.5s-1.5,5,0.5,7c2.5,2.5,9.5,0.5,10.5,2.5c1-2,8,0,10.5-2.5c2-2,1.5-5,0.5-7s0.5-3,1-3.5
		l-5-2.5c0,0-1.5,1.5-3.5,1.5s-3.5-1.5-3.5-1.5s-1.5,1.5-3.5,1.5S305.5,902.4,305.5,902.4z"/>
</g>
</svg>
