<?xml version="1.0" encoding="utf-8"?>
<!-- Generator: Adobe Illustrator 17.1.0, SVG Export Plug-In . SVG Version: 6.00 Build 0)  -->
<!DOCTYPE svg PUBLIC "-//W3C//DTD SVG 1.1//EN" "http://www.w3.org/Graphics/SVG/1.1/DTD/svg11.dtd">
<svg version="1.1"
	 id="svg3844" xmlns:svg="http://www.w3.org/2000/svg" xmlns:cc="http://creativecommons.org/ns#" xmlns:dc="http://purl.org/dc/elements/1.1/" xmlns:rdf="http://www.w3.org/1999/02/22-rdf-syntax-ns#"
	 xmlns="http://www.w3.org/2000/svg" xmlns:xlink="http://www.w3.org/1999/xlink" x="0px" y="0px" width="27px" height="37px"
	 viewBox="0 0 27 37" enable-background="new 0 0 27 37" xml:space="preserve">
<g id="layer1" transform="translate(-297.00002,-888.36218)">
	<g id="g10365">
		<g id="text5850" transform="translate(-30.720966,-5.0000051)">
			<g id="g10355" transform="matrix(1.2,0,0,1.2,-68.244193,-179.57244)">
				<path id="rect4807-3" fill="#FFFFFF" d="M333.3,894.1h15.8c0.5,0,0.8,0.4,0.8,0.8v5.8c0,0.5-0.4,0.8-0.8,0.8h-15.8
					c-0.5,0-0.8-0.4-0.8-0.8v-5.8C332.5,894.5,332.8,894.1,333.3,894.1z"/>
				<g id="text4827" transform="matrix(1.016077,0,0,0.98417739,31.720966,5.0902439e-6)">
					<path id="path4152" fill="#3A3836" d="M310.5,914.3c0-0.2,0-0.3,0.1-0.4c0.1-0.1,0.2-0.1,0.4-0.1c0.2,0,0.3,0,0.4,0.1
						c0.1,0.1,0.1,0.2,0.1,0.4c0,0.2,0,0.3-0.1,0.4c-0.1,0.1-0.2,0.1-0.4,0.1s-0.3,0-0.4-0.1C310.6,914.6,310.5,914.5,310.5,914.3z"
						/>
				</g>
				<path id="path5855" fill="#3A3836" d="M334.5,895.4h1.4c0.7,0,1.1,0.1,1.4,0.3c0.3,0.2,0.4,0.5,0.4,0.9c0,0.3-0.1,0.5-0.2,0.7
					c-0.1,0.2-0.4,0.3-0.6,0.4v0c0.3,0.1,0.6,0.2,0.7,0.4c0.2,0.2,0.2,0.4,0.2,0.8c0,0.4-0.2,0.8-0.5,1c-0.3,0.2-0.7,0.4-1.3,0.4
					h-1.7V895.4L334.5,895.4z M335.3,897.4h0.8c0.3,0,0.6-0.1,0.7-0.2c0.2-0.1,0.2-0.3,0.2-0.5c0-0.2-0.1-0.4-0.2-0.5
					c-0.2-0.1-0.4-0.2-0.8-0.2h-0.7L335.3,897.4L335.3,897.4z M335.3,898.1v1.5h0.8c0.3,0,0.6-0.1,0.7-0.2c0.2-0.1,0.3-0.3,0.3-0.6
					c0-0.3-0.1-0.4-0.3-0.6s-0.4-0.2-0.8-0.2H335.3z"/>
				<path id="path5857" fill="#3A3836" d="M342.8,895.4v3.1c0,0.4-0.1,0.7-0.2,0.9c-0.2,0.3-0.4,0.5-0.7,0.6c-0.3,0.1-0.6,0.2-1,0.2
					c-0.6,0-1.1-0.2-1.4-0.5s-0.5-0.8-0.5-1.3v-3.1h0.8v3.1c0,0.4,0.1,0.7,0.3,0.9c0.2,0.2,0.5,0.3,0.9,0.3c0.7,0,1.1-0.4,1.1-1.2
					v-3H342.8L342.8,895.4z"/>
				<path id="path5859" fill="#3A3836" d="M346.8,899c0,0.4-0.2,0.8-0.5,1c-0.3,0.2-0.7,0.4-1.3,0.4c-0.5,0-1-0.1-1.3-0.3v-0.7
					c0.2,0.1,0.5,0.2,0.7,0.2c0.2,0.1,0.5,0.1,0.7,0.1c0.3,0,0.5-0.1,0.7-0.2c0.1-0.1,0.2-0.3,0.2-0.5c0-0.2-0.1-0.3-0.2-0.5
					c-0.1-0.1-0.4-0.3-0.8-0.4c-0.4-0.2-0.8-0.4-0.9-0.6c-0.2-0.2-0.3-0.5-0.3-0.8c0-0.4,0.1-0.7,0.4-1c0.3-0.2,0.7-0.3,1.2-0.3
					c0.5,0,0.9,0.1,1.4,0.3l-0.3,0.6c-0.4-0.2-0.8-0.3-1.1-0.3c-0.3,0-0.4,0.1-0.6,0.2c-0.1,0.1-0.2,0.3-0.2,0.4
					c0,0.1,0,0.2,0.1,0.3c0.1,0.1,0.1,0.2,0.3,0.3s0.3,0.2,0.7,0.3c0.4,0.1,0.6,0.3,0.8,0.4c0.2,0.1,0.3,0.3,0.4,0.4
					C346.7,898.5,346.8,898.7,346.8,899L346.8,899z"/>
			</g>
		</g>
		<g id="g10281" transform="translate(1)">
			<path id="path3799" fill="#FFFFFF" stroke="#3A3836" stroke-linecap="round" stroke-linejoin="round" d="M301.4,898.9l-4.9,3.1
				c0.8,0.6,3.2,1.8,1.6,4.3s-2.4,6.1,0.8,8.6c4.1,3.1,8.9,0.6,10.6,3.1c1.6-2.5,6.5,0,10.6-3.1c3.2-2.5,2.4-6.1,0.8-8.6
				s0.8-3.7,1.6-4.3l-4.9-3.1c0,0-1.6,1.8-4.1,1.8s-4.1-1.8-4.1-1.8s-1.6,1.8-4.1,1.8C303,900.7,301.4,898.9,301.4,898.9
				L301.4,898.9z"/>
			<rect id="rect3803-4" x="299" y="890.4" fill="none" width="21" height="35"/>
		</g>
	</g>
</g>
</svg>
