<?xml version="1.0" encoding="utf-8"?>
<!-- Generator: Adobe Illustrator 17.1.0, SVG Export Plug-In . SVG Version: 6.00 Build 0)  -->
<!DOCTYPE svg PUBLIC "-//W3C//DTD SVG 1.1//EN" "http://www.w3.org/Graphics/SVG/1.1/DTD/svg11.dtd">
<svg version="1.1"
	 id="svg3844" xmlns:svg="http://www.w3.org/2000/svg" xmlns:cc="http://creativecommons.org/ns#" xmlns:dc="http://purl.org/dc/elements/1.1/" xmlns:rdf="http://www.w3.org/1999/02/22-rdf-syntax-ns#"
	 xmlns="http://www.w3.org/2000/svg" xmlns:xlink="http://www.w3.org/1999/xlink" x="0px" y="0px" width="21px" height="31px"
	 viewBox="0 0 21 31" enable-background="new 0 0 21 31" xml:space="preserve">
<g id="layer1" transform="translate(-300.00001,-894.36218)">
	<rect id="rect3803" x="301" y="894.4" fill="#3A3836" fill-opacity="0" width="17" height="31"/>
	<path id="path3799-7" fill="#FFFFFF" stroke="#3A3836" stroke-linecap="round" stroke-linejoin="round" d="M304.9,902.4l-4.4,2.5
		c0.6,0.5,2.2,1.5,1.1,3.5s-1.7,5,0.6,7c2.8,2.5,7.2,0.5,8.3,2.5c1.1-2,5.6,0,8.3-2.5c2.2-2,1.7-5,0.6-7c-1.1-2,0.6-3,1.1-3.5
		l-4.4-2.5c0,0-1.1,1.5-2.8,1.5c-1.7,0-2.8-1.5-2.8-1.5s-1.1,1.5-2.8,1.5S304.9,902.4,304.9,902.4z"/>
	<path id="rect4807-3" fill="#FFFFFF" d="M303,894.4h15c0.6,0,1,0.4,1,1v5c0,0.6-0.4,1-1,1h-15c-0.6,0-1-0.4-1-1v-5
		C302,894.8,302.4,894.4,303,894.4z"/>
	<g id="text4827" transform="matrix(1.016077,0,0,0.98417739,1,0)">
		<path id="path4152" fill="#3A3836" d="M310.5,914.3c0-0.2,0-0.3,0.1-0.4c0.1-0.1,0.2-0.1,0.4-0.1c0.2,0,0.3,0,0.4,0.1
			c0.1,0.1,0.1,0.2,0.1,0.4c0,0.2,0,0.3-0.1,0.4c-0.1,0.1-0.2,0.1-0.4,0.1s-0.3,0-0.4-0.1C310.6,914.6,310.5,914.5,310.5,914.3z"/>
	</g>
	<g id="text5850" transform="translate(-30.720966,-5.0902439e-6)">
		<path id="path5855" fill="#3A3836" d="M334.5,895.4h1.4c0.7,0,1.1,0.1,1.4,0.3c0.3,0.2,0.4,0.5,0.4,0.9c0,0.3-0.1,0.5-0.2,0.7
			c-0.1,0.2-0.4,0.3-0.6,0.4v0c0.3,0.1,0.6,0.2,0.7,0.4c0.2,0.2,0.2,0.4,0.2,0.8c0,0.4-0.2,0.8-0.5,1c-0.3,0.2-0.7,0.4-1.3,0.4h-1.7
			V895.4L334.5,895.4z M335.3,897.4h0.8c0.3,0,0.6-0.1,0.7-0.2c0.2-0.1,0.2-0.3,0.2-0.5c0-0.2-0.1-0.4-0.2-0.5
			c-0.2-0.1-0.4-0.2-0.8-0.2h-0.7L335.3,897.4L335.3,897.4z M335.3,898.1v1.5h0.8c0.3,0,0.6-0.1,0.7-0.2c0.2-0.1,0.3-0.3,0.3-0.6
			c0-0.3-0.1-0.4-0.3-0.6s-0.4-0.2-0.8-0.2H335.3z"/>
		<path id="path5857" fill="#3A3836" d="M342.8,895.4v3.1c0,0.4-0.1,0.7-0.2,0.9c-0.2,0.3-0.4,0.5-0.7,0.6c-0.3,0.1-0.6,0.2-1,0.2
			c-0.6,0-1.1-0.2-1.4-0.5s-0.5-0.8-0.5-1.3v-3.1h0.8v3.1c0,0.4,0.1,0.7,0.3,0.9c0.2,0.2,0.5,0.3,0.9,0.3c0.7,0,1.1-0.4,1.1-1.2v-3
			H342.8L342.8,895.4z"/>
		<path id="path5859" fill="#3A3836" d="M346.8,899c0,0.4-0.2,0.8-0.5,1c-0.3,0.2-0.7,0.4-1.3,0.4c-0.5,0-1-0.1-1.3-0.3v-0.7
			c0.2,0.1,0.5,0.2,0.7,0.2c0.2,0.1,0.5,0.1,0.7,0.1c0.3,0,0.5-0.1,0.7-0.2c0.1-0.1,0.2-0.3,0.2-0.5c0-0.2-0.1-0.3-0.2-0.5
			c-0.1-0.1-0.4-0.3-0.8-0.4c-0.4-0.2-0.8-0.4-0.9-0.6c-0.2-0.2-0.3-0.5-0.3-0.8c0-0.4,0.1-0.7,0.4-1c0.3-0.2,0.7-0.3,1.2-0.3
			c0.5,0,0.9,0.1,1.4,0.3l-0.3,0.6c-0.4-0.2-0.8-0.3-1.1-0.3c-0.3,0-0.4,0.1-0.6,0.2c-0.1,0.1-0.2,0.3-0.2,0.4c0,0.1,0,0.2,0.1,0.3
			c0.1,0.1,0.1,0.2,0.3,0.3s0.3,0.2,0.7,0.3c0.4,0.1,0.6,0.3,0.8,0.4c0.2,0.1,0.3,0.3,0.4,0.4C346.7,898.5,346.8,898.7,346.8,899
			L346.8,899z"/>
	</g>
</g>
</svg>
