<?xml version="1.0" encoding="utf-8"?>
<!-- Generator: Adobe Illustrator 17.1.0, SVG Export Plug-In . SVG Version: 6.00 Build 0)  -->
<!DOCTYPE svg PUBLIC "-//W3C//DTD SVG 1.1//EN" "http://www.w3.org/Graphics/SVG/1.1/DTD/svg11.dtd">
<svg version="1.1"
	 id="svg3844" xmlns:svg="http://www.w3.org/2000/svg" xmlns:cc="http://creativecommons.org/ns#" xmlns:dc="http://purl.org/dc/elements/1.1/" xmlns:rdf="http://www.w3.org/1999/02/22-rdf-syntax-ns#"
	 xmlns="http://www.w3.org/2000/svg" xmlns:xlink="http://www.w3.org/1999/xlink" x="0px" y="0px" width="21px" height="31px"
	 viewBox="0 0 21 31" enable-background="new 0 0 21 31" xml:space="preserve">
<g>
	<path fill="#FFFFFF" d="M7,2.1C6.9,1.9,6.9,1.8,6.9,1.7C6.8,2,6.7,2.3,6.6,2.6L6.1,3.9h1.5L7.1,2.5C7.1,2.5,7,2.3,7,2.1z"/>
	<path fill="#FFFFFF" d="M18,0H3C2.4,0,2,0.4,2,1v5c0,0.6,0.4,1,1,1h15c0.6,0,1-0.4,1-1V1C19,0.4,18.6,0,18,0z M8.3,6L7.8,4.6h-2
		L5.4,6H4.5l1.9-5h0.9l1.9,5H8.3z M12.7,6h-3l0,0V1h0.8v4.2h2.2V6z M14.7,6h-0.8V1.7h-1.5V1h3.8v0.7h-1.5C14.7,1.7,14.7,6,14.7,6z
		 M16.9,5.9C16.8,6,16.7,6,16.5,6s-0.3,0-0.4-0.1S16,5.7,16,5.5s0-0.3,0.1-0.4S16.3,5,16.5,5s0.3,0,0.4,0.1S17,5.3,17,5.5
		S17,5.8,16.9,5.9z"/>
</g>
<rect id="rect3803" fill="none" width="21" height="31"/>
<path id="path3799-7" fill="#FFFFFF" stroke="#3A3836" stroke-linecap="round" stroke-linejoin="round" d="M4.9,8l-4.4,2.5
	C1.1,11,2.7,12,1.6,14s-1.7,5,0.6,7c2.8,2.5,7.2,0.5,8.3,2.5c1.1-2,5.6,0,8.3-2.5c2.2-2,1.7-5,0.6-7s0.6-3,1.1-3.5L16.1,8
	c0,0-1.1,1.5-2.8,1.5S10.5,8,10.5,8S9.4,9.5,7.7,9.5S4.9,8,4.9,8z"/>
<g id="text4827" transform="matrix(1.016077,0,0,0.98417739,1,-2.2171876e-6)">
	<path id="path4146" fill="#3A3836" d="M7.2,6.1L6.7,4.7H4.8L4.3,6.1H3.4l1.9-5h0.9l1.9,5H7.2z M6.5,4L6,2.6c0-0.1,0-0.2-0.1-0.4
		C5.8,2,5.8,1.8,5.8,1.7C5.7,2,5.6,2.3,5.5,2.6L5,4H6.5z"/>
	<path id="path4148" fill="#3A3836" d="M8.6,6.1V1h0.8v4.3h2.1V6L8.6,6.1L8.6,6.1z"/>
	<path id="path4150" fill="#3A3836" d="M13.5,6.1h-0.8V1.7h-1.5V1H15v0.7h-1.5V6.1L13.5,6.1z"/>
	<path id="path4152" fill="#3A3836" d="M14.8,5.6c0-0.2,0-0.3,0.1-0.4s0.2-0.1,0.4-0.1s0.3,0,0.4,0.1c0.1,0.1,0.1,0.2,0.1,0.4
		s0,0.3-0.1,0.4s-0.2,0.1-0.4,0.1S15,6.1,14.9,6C14.8,5.9,14.8,5.8,14.8,5.6z"/>
</g>
</svg>
