<?xml version="1.0" encoding="utf-8"?>
<!-- Generator: Adobe Illustrator 17.1.0, SVG Export Plug-In . SVG Version: 6.00 Build 0)  -->
<!DOCTYPE svg PUBLIC "-//W3C//DTD SVG 1.1//EN" "http://www.w3.org/Graphics/SVG/1.1/DTD/svg11.dtd">
<svg version="1.1"
	 id="svg3844" xmlns:svg="http://www.w3.org/2000/svg" xmlns:cc="http://creativecommons.org/ns#" xmlns:dc="http://purl.org/dc/elements/1.1/" xmlns:rdf="http://www.w3.org/1999/02/22-rdf-syntax-ns#"
	 xmlns="http://www.w3.org/2000/svg" xmlns:xlink="http://www.w3.org/1999/xlink" x="0px" y="0px" width="27px" height="17px"
	 viewBox="0 0 27 17" enable-background="new 0 0 27 17" xml:space="preserve">
<rect id="rect3803" fill="none" width="27" height="17"/>
<path id="path3799-7" fill="#FFFFFF" stroke="#3A3836" stroke-linecap="round" stroke-linejoin="round" d="M5.9,1L0.5,3.5
	C1,4,2.7,5,1.6,7C0.5,9,0,12,2.1,14c2.7,2.5,10.3,0.5,11.4,2.5c1.1-2,8.7,0,11.4-2.5c2.2-2,1.6-5,0.5-7s0.5-3,1.1-3.5L21.1,1
	c0,0-1.6,1.5-3.8,1.5c-2.2,0-3.8-1.5-3.8-1.5s-1.6,1.5-3.8,1.5S5.9,1,5.9,1L5.9,1z"/>
</svg>
