<?xml version="1.0" encoding="utf-8"?>
<!-- Generator: Adobe Illustrator 17.1.0, SVG Export Plug-In . SVG Version: 6.00 Build 0)  -->
<!DOCTYPE svg PUBLIC "-//W3C//DTD SVG 1.1//EN" "http://www.w3.org/Graphics/SVG/1.1/DTD/svg11.dtd">
<svg version="1.1"
	 id="svg3844" xmlns:svg="http://www.w3.org/2000/svg" xmlns:cc="http://creativecommons.org/ns#" xmlns:dc="http://purl.org/dc/elements/1.1/" xmlns:rdf="http://www.w3.org/1999/02/22-rdf-syntax-ns#"
	 xmlns="http://www.w3.org/2000/svg" xmlns:xlink="http://www.w3.org/1999/xlink" x="0px" y="0px" width="17px" height="31px"
	 viewBox="0 0 17 31" enable-background="new 0 0 17 31" xml:space="preserve">
<rect id="rect3803" fill="none" width="17" height="31"/>
<g id="text4837" transform="scale(0.92169959,1.0849522)">
	<path id="path5308" fill="#3A3836" d="M13.1,1.1c-0.4,0-0.8,0.1-1.1,0.3c-0.3,0.2-0.5,0.4-0.7,0.8c-0.2,0.3-0.2,0.7-0.2,1.1
		c0,0.7,0.2,1.2,0.5,1.6c0.3,0.4,0.8,0.6,1.4,0.6c0.4,0,0.8-0.1,1.1-0.2V4.6c-0.2,0.1-0.4,0.1-0.5,0.1c-0.2,0-0.3,0.1-0.5,0.1
		c-0.4,0-0.7-0.1-0.9-0.4c-0.2-0.3-0.3-0.7-0.3-1.2c0-0.5,0.1-0.9,0.3-1.2c0.2-0.3,0.5-0.4,0.9-0.4c0.2,0,0.3,0,0.5,0.1
		c0.2,0,0.3,0.1,0.4,0.2l0.2-0.6C13.9,1.2,13.5,1.1,13.1,1.1z M0.6,1.2v0.6h1.2v3.6h0.7V1.8h1.2V1.2H0.6z M4,1.2v4.2h0.7V3.7h0.7
		l1,1.7h0.8L5.9,3.5c0.5-0.2,0.8-0.6,0.8-1.1c0-0.4-0.1-0.7-0.4-0.9C6.1,1.3,5.7,1.2,5.2,1.2H4z M7.3,1.2v2.7c0,0.5,0.1,0.9,0.4,1.1
		C8,5.3,8.4,5.4,9,5.4c0.3,0,0.7-0.1,0.9-0.2c0.3-0.1,0.4-0.3,0.6-0.5c0.1-0.2,0.2-0.5,0.2-0.8V1.2H10v2.6c0,0.7-0.3,1-1,1
		c-0.3,0-0.6-0.1-0.7-0.2C8.1,4.4,8,4.2,8,3.8V1.2H7.3z M14.7,1.2v4.2h0.7V3.8l0.4-0.3l1.3,1.9h0.8L16.3,3c0.3-0.4,0.8-1,1.6-1.8
		h-0.8l-1.1,1.3c-0.2,0.2-0.4,0.4-0.6,0.7v-2H14.7z M4.7,1.7h0.5c0.3,0,0.5,0.1,0.7,0.2C6,2,6,2.2,6,2.4C6,2.6,6,2.8,5.8,2.9
		C5.7,3.1,5.5,3.1,5.1,3.1H4.7V1.7z"/>
</g>
<path id="path3799" fill="#FFFFFF" stroke="#3A3836" stroke-linecap="round" stroke-linejoin="round" d="M3.5,8l-3,2.5
	C1,11,2.5,12,1.5,14S0,19,2,21c2.5,2.5,5.5,0.5,6.5,2.5c1-2,4,0,6.5-2.5c2-2,1.5-5,0.5-7s0.5-3,1-3.5l-3-2.5c0,0-1,1.5-2.5,1.5
	S8.5,8,8.5,8S7.5,9.5,6,9.5S3.5,8,3.5,8z"/>
<g>
	<path fill="#FFFFFF" d="M5.4,2.1C5.2,2,5,1.9,4.7,1.9H4.3v1.5h0.4c0.3,0,0.5-0.1,0.6-0.2c0.1-0.1,0.2-0.3,0.2-0.6
		C5.6,2.4,5.5,2.2,5.4,2.1z"/>
	<path fill="#FFFFFF" d="M16,0H1C0.4,0,0,0.4,0,1v5c0,0.6,0.4,1,1,1h15c0.6,0,1-0.4,1-1V1C17,0.4,16.6,0,16,0z M3.4,1.9H2.3v3.9H1.7
		V1.9H0.5V1.3h2.9V1.9z M5.8,5.8L4.9,4H4.3v1.8H3.7V1.3h1.1c0.5,0,0.9,0.1,1.1,0.3c0.2,0.2,0.4,0.6,0.4,1c0,0.6-0.2,1-0.8,1.2l1.1,2
		H5.8z M9.8,4.2c0,0.3-0.1,0.6-0.2,0.9C9.5,5.3,9.3,5.5,9.1,5.7C8.9,5.8,8.6,5.9,8.3,5.9c-0.5,0-0.9-0.1-1.1-0.4
		C6.9,5.1,6.7,4.7,6.7,4.2V1.3h0.6v2.9c0,0.4,0.1,0.7,0.2,0.8C7.7,5.2,8,5.2,8.3,5.2c0.6,0,0.9-0.4,0.9-1.1V1.3h0.6V4.2z M11.2,4.8
		c0.2,0.3,0.5,0.4,0.9,0.4c0.2,0,0.3,0,0.5-0.1c0.2,0,0.3-0.1,0.5-0.2v0.6c-0.3,0.1-0.6,0.2-1,0.2c-0.6,0-1-0.2-1.3-0.6
		c-0.3-0.4-0.5-1-0.5-1.7c0-0.5,0.1-0.9,0.2-1.2c0.1-0.4,0.4-0.6,0.6-0.8c0.3-0.2,0.6-0.3,1-0.3c0.4,0,0.8,0.1,1.1,0.3L13,2.1
		C12.8,2,12.7,2,12.5,1.9c-0.1-0.1-0.3-0.1-0.5-0.1c-0.4,0-0.6,0.2-0.9,0.5C11,2.6,10.9,3,10.9,3.6C10.9,4.1,11,4.5,11.2,4.8z
		 M15.8,5.8l-1.2-2.1l-0.4,0.4v1.7h-0.6V1.3h0.6v2.2c0.2-0.2,0.3-0.5,0.5-0.7l1-1.5h0.7c-0.7,0.9-1.2,1.6-1.5,2l1.5,2.6H15.8z"/>
</g>
</svg>
