<?xml version="1.0" encoding="utf-8"?>
<!-- Generator: Adobe Illustrator 17.1.0, SVG Export Plug-In . SVG Version: 6.00 Build 0)  -->
<!DOCTYPE svg PUBLIC "-//W3C//DTD SVG 1.1//EN" "http://www.w3.org/Graphics/SVG/1.1/DTD/svg11.dtd">
<svg version="1.1"
	 id="svg3844" xmlns:svg="http://www.w3.org/2000/svg" xmlns:cc="http://creativecommons.org/ns#" xmlns:dc="http://purl.org/dc/elements/1.1/" xmlns:rdf="http://www.w3.org/1999/02/22-rdf-syntax-ns#"
	 xmlns="http://www.w3.org/2000/svg" xmlns:xlink="http://www.w3.org/1999/xlink" x="0px" y="0px" width="34px" height="22px"
	 viewBox="0 0 34 22" enable-background="new 0 0 34 22" xml:space="preserve">
<path id="path3799-7" fill="#FFFFFF" stroke="#3A3836" stroke-linecap="round" stroke-linejoin="round" d="M7.4,2.5L0.5,5.6
	c0.7,0.6,2.8,1.8,1.4,4.3s-2.1,6.1,0.7,8.6c3.4,3,13,0.5,14.4,3c1.4-2.5,11,0,14.4-3.1c2.8-2.5,2.1-6.1,0.7-8.6
	c-1.4-2.5,0.7-3.7,1.4-4.3l-6.9-3.1c0,0-2.1,1.8-4.8,1.8S17,2.5,17,2.5s-2.1,1.8-4.8,1.8S7.4,2.5,7.4,2.5L7.4,2.5z"/>
</svg>
