<?xml version="1.0" encoding="utf-8"?>
<!-- Generator: Adobe Illustrator 17.1.0, SVG Export Plug-In . SVG Version: 6.00 Build 0)  -->
<!DOCTYPE svg PUBLIC "-//W3C//DTD SVG 1.1//EN" "http://www.w3.org/Graphics/SVG/1.1/DTD/svg11.dtd">
<svg version="1.1"
	 id="svg3844" xmlns:svg="http://www.w3.org/2000/svg" xmlns:cc="http://creativecommons.org/ns#" xmlns:dc="http://purl.org/dc/elements/1.1/" xmlns:rdf="http://www.w3.org/1999/02/22-rdf-syntax-ns#"
	 xmlns="http://www.w3.org/2000/svg" xmlns:xlink="http://www.w3.org/1999/xlink" x="0px" y="0px" width="21px" height="31px"
	 viewBox="0 0 21 31" enable-background="new 0 0 21 31" xml:space="preserve">
<g id="layer1" transform="translate(-299.00001,-894.36218)">
	<rect id="rect3803" x="301" y="894.4" fill="#3A3836" fill-opacity="0" width="17" height="31"/>
	<path id="rect4807" fill="#FFFFFF" d="M302,894.4h15c0.6,0,1,0.4,1,1v5c0,0.6-0.4,1-1,1h-15c-0.6,0-1-0.4-1-1v-5
		C301,894.8,301.4,894.4,302,894.4z"/>
	<g id="text4837" transform="scale(0.92169959,1.0849522)">
		<path id="path5308" fill="#3A3836" d="M339.7,825.4c-0.4,0-0.8,0.1-1.1,0.3c-0.3,0.2-0.5,0.4-0.7,0.8c-0.2,0.3-0.2,0.7-0.2,1.1
			c0,0.7,0.2,1.2,0.5,1.6c0.3,0.4,0.8,0.6,1.4,0.6c0.4,0,0.8-0.1,1.1-0.2V829c-0.2,0.1-0.4,0.1-0.5,0.1c-0.2,0-0.3,0.1-0.5,0.1
			c-0.4,0-0.7-0.1-0.9-0.4c-0.2-0.3-0.3-0.7-0.3-1.2c0-0.5,0.1-0.9,0.3-1.2c0.2-0.3,0.5-0.4,0.9-0.4c0.2,0,0.3,0,0.5,0.1
			c0.2,0,0.3,0.1,0.4,0.2l0.2-0.6C340.5,825.5,340.1,825.4,339.7,825.4z M327.1,825.5v0.6h1.2v3.6h0.7v-3.6h1.2v-0.6
			C330.3,825.5,327.1,825.5,327.1,825.5z M330.6,825.5v4.2h0.7V828h0.7l1,1.7h0.8l-1.2-1.9c0.5-0.2,0.8-0.6,0.8-1.1
			c0-0.4-0.1-0.7-0.4-0.9c-0.3-0.2-0.7-0.3-1.2-0.3C331.7,825.5,330.6,825.5,330.6,825.5z M333.9,825.5v2.7c0,0.5,0.1,0.9,0.4,1.1
			c0.3,0.3,0.7,0.4,1.2,0.4c0.3,0,0.7-0.1,0.9-0.2c0.3-0.1,0.4-0.3,0.6-0.5c0.1-0.2,0.2-0.5,0.2-0.8v-2.7h-0.7v2.6c0,0.7-0.3,1-1,1
			c-0.3,0-0.6-0.1-0.7-0.2c-0.2-0.2-0.2-0.4-0.2-0.8v-2.7C334.6,825.5,333.9,825.5,333.9,825.5z M341.3,825.5v4.2h0.7v-1.6l0.4-0.3
			l1.3,1.9h0.8l-1.6-2.4c0.3-0.4,0.8-1,1.6-1.8h-0.8l-1.1,1.3c-0.2,0.2-0.4,0.4-0.6,0.7v-2C341.9,825.5,341.3,825.5,341.3,825.5z
			 M331.2,826.1h0.5c0.3,0,0.5,0.1,0.7,0.2s0.2,0.3,0.2,0.5c0,0.2-0.1,0.4-0.2,0.5c-0.1,0.1-0.4,0.2-0.7,0.2h-0.5V826.1z"/>
	</g>
	<path id="path3799-7" fill="#FFFFFF" stroke="#3A3836" stroke-linecap="round" stroke-linejoin="round" d="M303.9,902.4l-4.4,2.5
		c0.6,0.5,2.2,1.5,1.1,3.5s-1.7,5,0.6,7c2.8,2.5,7.2,0.5,8.3,2.5c1.1-2,5.6,0,8.3-2.5c2.2-2,1.7-5,0.6-7c-1.1-2,0.6-3,1.1-3.5
		l-4.4-2.5c0,0-1.1,1.5-2.8,1.5c-1.7,0-2.8-1.5-2.8-1.5s-1.1,1.5-2.8,1.5S303.9,902.4,303.9,902.4z"/>
</g>
</svg>
