<?xml version="1.0" encoding="utf-8"?>
<!-- Generator: Adobe Illustrator 17.1.0, SVG Export Plug-In . SVG Version: 6.00 Build 0)  -->
<!DOCTYPE svg PUBLIC "-//W3C//DTD SVG 1.1//EN" "http://www.w3.org/Graphics/SVG/1.1/DTD/svg11.dtd">
<svg version="1.1"
	 id="svg3844" xmlns:svg="http://www.w3.org/2000/svg" xmlns:cc="http://creativecommons.org/ns#" xmlns:dc="http://purl.org/dc/elements/1.1/" xmlns:rdf="http://www.w3.org/1999/02/22-rdf-syntax-ns#"
	 xmlns="http://www.w3.org/2000/svg" xmlns:xlink="http://www.w3.org/1999/xlink" x="0px" y="0px" width="21px" height="18px"
	 viewBox="0 0 21 18" enable-background="new 0 0 21 18" xml:space="preserve">
<g id="layer1" transform="translate(-300,-901.36213)">
	<path id="path3799-7" fill="#FFFFFF" stroke="#3A3836" stroke-width="1" stroke-linecap="round" stroke-linejoin="round" d="
		M304.9,902.4l-4.4,2.5c0.6,0.5,2.2,1.5,1.1,3.5s-1.7,5,0.6,7c2.8,2.5,7.2,0.5,8.3,2.5c1.1-2,5.6,0,8.3-2.5c2.2-2,1.7-5,0.6-7
		s0.6-3,1.1-3.5l-4.4-2.5c0,0-1.1,1.5-2.8,1.5c-1.7,0-2.8-1.5-2.8-1.5s-1.1,1.5-2.8,1.5C306.1,903.9,304.9,902.4,304.9,902.4z"/>
</g>
</svg>
