<?xml version="1.0" encoding="utf-8"?>
<!-- Generator: Adobe Illustrator 17.1.0, SVG Export Plug-In . SVG Version: 6.00 Build 0)  -->
<!DOCTYPE svg PUBLIC "-//W3C//DTD SVG 1.1//EN" "http://www.w3.org/Graphics/SVG/1.1/DTD/svg11.dtd">
<svg version="1.1"
	 id="svg3844" xmlns:svg="http://www.w3.org/2000/svg" xmlns:cc="http://creativecommons.org/ns#" xmlns:dc="http://purl.org/dc/elements/1.1/" xmlns:rdf="http://www.w3.org/1999/02/22-rdf-syntax-ns#" sodipodi:docname="us-highway-truck-3-large.svg" inkscape:version="0.91 r13725" xmlns:inkscape="http://www.inkscape.org/namespaces/inkscape" xmlns:sodipodi="http://sodipodi.sourceforge.net/DTD/sodipodi-0.dtd"
	 xmlns="http://www.w3.org/2000/svg" xmlns:xlink="http://www.w3.org/1999/xlink" x="0px" y="0px" width="30px" height="35px"
	 viewBox="0 0 30 35" enable-background="new 0 0 30 35" xml:space="preserve">
<sodipodi:namedview  fit-margin-bottom="0" inkscape:window-width="1920" inkscape:window-height="1031" inkscape:snap-global="true" fit-margin-right="0" inkscape:window-x="-277" inkscape:snap-smooth-nodes="false" inkscape:bbox-nodes="true" inkscape:snap-bbox="true" inkscape:object-nodes="true" inkscape:pageopacity="0.0" inkscape:document-units="px" inkscape:pageshadow="2" inkscape:current-layer="layer1" inkscape:window-y="55" inkscape:bbox-paths="false" inkscape:window-maximized="0" showgrid="true" pagecolor="#ffffff" bordercolor="#666666" id="base" inkscape:cy="16.717177" inkscape:zoom="16.000001" borderopacity="1.0" inkscape:cx="-4.4375382" fit-margin-left="0" fit-margin-top="0">
	
		<inkscape:grid  type="xygrid" snapvisiblegridlinesonly="true" spacingy="0.5px" spacingx="0.5px" empspacing="2" id="grid3875" originy="-125" enabled="true" visible="true" originx="-296.00001">
		</inkscape:grid>
</sodipodi:namedview>
<rect id="rect3803" y="0" fill="none" width="30" height="35"/>
<path id="path5308" inkscape:connector-curvature="0" fill="#3A3836" d="M19.4,1.2c-0.5,0-0.9,0.1-1.2,0.3c-0.3,0.2-0.6,0.6-0.8,1
	C17.2,3,17.1,3.5,17.1,4c0,0.9,0.2,1.6,0.6,2.1c0.4,0.5,0.9,0.7,1.6,0.7c0.5,0,0.9-0.1,1.2-0.2V5.8C20.3,5.9,20.1,6,19.9,6
	c-0.2,0-0.4,0.1-0.6,0.1c-0.5,0-0.8-0.2-1.1-0.5c-0.2-0.3-0.4-0.9-0.4-1.5c0-0.6,0.1-1.1,0.4-1.5s0.6-0.5,1-0.5c0.2,0,0.4,0,0.6,0.1
	c0.2,0.1,0.3,0.1,0.5,0.2l0.3-0.7C20.3,1.3,19.8,1.2,19.4,1.2L19.4,1.2z M5.3,1.3v0.8h1.4v4.7h0.8V2.1h1.4V1.3H5.3z M9.1,1.3v5.5
	h0.8V4.6h0.8l1.1,2.2h0.9l-1.3-2.4c0.6-0.3,0.9-0.8,0.9-1.5c0-0.5-0.1-0.9-0.4-1.2c-0.3-0.3-0.7-0.4-1.3-0.4H9.1L9.1,1.3z M12.9,1.3
	v3.5c0,0.6,0.2,1.1,0.5,1.5c0.3,0.4,0.8,0.5,1.4,0.5c0.4,0,0.7-0.1,1-0.2c0.3-0.2,0.5-0.4,0.6-0.7c0.1-0.3,0.2-0.7,0.2-1.1V1.3h-0.8
	v3.5c0,0.9-0.4,1.3-1.1,1.3c-0.4,0-0.6-0.1-0.8-0.3c-0.2-0.2-0.3-0.5-0.3-1V1.3H12.9z M21.1,1.3v5.5h0.8v-2l0.5-0.4l1.5,2.5h0.9
	l-1.8-3.1c0.4-0.5,0.9-1.3,1.8-2.4h-0.9l-1.3,1.7c-0.2,0.3-0.4,0.6-0.6,0.9V1.3L21.1,1.3L21.1,1.3z M9.9,2.1h0.5
	c0.3,0,0.6,0.1,0.8,0.2c0.2,0.1,0.3,0.4,0.3,0.7c0,0.3-0.1,0.5-0.2,0.7c-0.2,0.2-0.4,0.2-0.8,0.2H9.9V2.1z"/>
<g>
	<path fill="#FFFFFF" d="M11.2,2.3c-0.2-0.1-0.4-0.2-0.8-0.2H9.9v1.8h0.5c0.4,0,0.6-0.1,0.8-0.2s0.2-0.4,0.2-0.7
		C11.5,2.6,11.4,2.4,11.2,2.3z"/>
	<path fill="#FFFFFF" d="M24.5,0h-19c-0.6,0-1,0.4-1,1v6c0,0.6,0.4,1,1,1h19c0.6,0,1-0.4,1-1V1C25.5,0.4,25.1,0,24.5,0z M8.9,2.1
		H7.5v4.7H6.7V2.1H5.3V1.3h3.5V2.1z M11.8,6.8l-1.1-2.2H9.9v2.2H9.1V1.3h1.3c0.6,0,1.1,0.1,1.3,0.4c0.3,0.3,0.4,0.7,0.4,1.2
		c0,0.7-0.3,1.2-0.9,1.5l1.3,2.4H11.8z M16.6,4.9c0,0.4-0.1,0.8-0.2,1.1c-0.1,0.3-0.4,0.5-0.6,0.7c-0.3,0.2-0.6,0.2-1,0.2
		c-0.6,0-1-0.2-1.4-0.5s-0.5-0.9-0.5-1.5V1.3h0.8v3.5c0,0.5,0.1,0.8,0.3,1c0.2,0.2,0.5,0.3,0.8,0.3c0.7,0,1.1-0.4,1.1-1.3V1.3h0.8
		V4.9z M18.3,5.6c0.2,0.3,0.6,0.5,1.1,0.5c0.2,0,0.4,0,0.6-0.1c0.2,0,0.4-0.1,0.6-0.2v0.8c-0.4,0.2-0.8,0.2-1.2,0.2
		c-0.7,0-1.2-0.2-1.6-0.7C17.3,5.6,17.1,5,17.1,4c0-0.6,0.1-1.1,0.3-1.5c0.2-0.4,0.4-0.8,0.8-1c0.3-0.2,0.7-0.3,1.2-0.3v0
		c0.5,0,0.9,0.1,1.3,0.4l-0.3,0.7c-0.2-0.1-0.3-0.2-0.5-0.2C19.7,2,19.5,2,19.3,2c-0.4,0-0.8,0.2-1,0.5c-0.3,0.4-0.4,0.9-0.4,1.5
		C17.9,4.7,18.1,5.2,18.3,5.6z M23.8,6.8l-1.5-2.5l-0.5,0.4v2h-0.8V1.3l0,0h0.8v2.6c0.2-0.3,0.4-0.6,0.6-0.9l1.3-1.7h0.9
		c-0.8,1.1-1.4,1.9-1.8,2.4l1.8,3.1H23.8z"/>
</g>
<path id="path3799-7-8" sodipodi:nodetypes="ccsscssccscsc" inkscape:connector-curvature="0" fill="#FFFFFF" stroke="#3A3836" stroke-width="1" stroke-linecap="round" stroke-linejoin="round" d="
	M6.5,9l-6,3.1c0.6,0.6,2.4,1.8,1.2,4.3c-1.2,2.5-1.8,6.1,0.6,8.6C5.3,28,13.8,25.5,15,28c1.2-2.5,9.7,0,12.7-3.1
	c2.4-2.5,1.8-6.1,0.6-8.6c-1.2-2.5,0.6-3.7,1.2-4.3l-6-3.1c0,0-1.8,1.8-4.2,1.8C16.8,10.8,15,9,15,9s-1.8,1.8-4.2,1.8S6.5,9,6.5,9z"
	/>
</svg>
