<?xml version="1.0" encoding="utf-8"?>
<!-- Generator: Adobe Illustrator 17.1.0, SVG Export Plug-In . SVG Version: 6.00 Build 0)  -->
<!DOCTYPE svg PUBLIC "-//W3C//DTD SVG 1.1//EN" "http://www.w3.org/Graphics/SVG/1.1/DTD/svg11.dtd">
<svg version="1.1"
	 id="svg3844" xmlns:svg="http://www.w3.org/2000/svg" xmlns:cc="http://creativecommons.org/ns#" xmlns:dc="http://purl.org/dc/elements/1.1/" xmlns:rdf="http://www.w3.org/1999/02/22-rdf-syntax-ns#" sodipodi:docname="us-highway-alternate-3-small.svg" inkscape:version="0.91 r13725" xmlns:inkscape="http://www.inkscape.org/namespaces/inkscape" xmlns:sodipodi="http://sodipodi.sourceforge.net/DTD/sodipodi-0.dtd"
	 xmlns="http://www.w3.org/2000/svg" xmlns:xlink="http://www.w3.org/1999/xlink" x="0px" y="0px" width="25px" height="31px"
	 viewBox="0 0 25 31" enable-background="new 0 0 25 31" xml:space="preserve">
<sodipodi:namedview  fit-margin-bottom="0" inkscape:window-width="1574" inkscape:window-height="852" inkscape:snap-global="true" fit-margin-right="0" inkscape:window-x="-10" inkscape:snap-smooth-nodes="false" inkscape:bbox-nodes="true" inkscape:snap-bbox="true" inkscape:object-nodes="true" inkscape:pageopacity="0.0" inkscape:document-units="px" inkscape:pageshadow="2" inkscape:current-layer="layer1" inkscape:window-y="122" inkscape:bbox-paths="false" inkscape:window-maximized="0" showgrid="true" pagecolor="#ffffff" bordercolor="#666666" id="base" inkscape:cy="15.359208" inkscape:zoom="16" borderopacity="1.0" inkscape:cx="-8.8738388" fit-margin-left="0" fit-margin-top="0">
	
		<inkscape:grid  type="xygrid" snapvisiblegridlinesonly="true" spacingy="0.5px" spacingx="0.5px" empspacing="2" id="grid3875" originy="-127" enabled="true" visible="true" originx="-300">
		</inkscape:grid>
</sodipodi:namedview>
<path id="path3799-7-8" sodipodi:nodetypes="ccsscssccscsc" inkscape:connector-curvature="0" fill="#FFFFFF" stroke="#3A3836" stroke-linecap="round" stroke-linejoin="round" d="
	M5.5,8l-5,2.5C1,11,2.5,12,1.5,14S0,19,2,21c2.5,2.5,9.5,0.5,10.5,2.5c1-2,8,0,10.5-2.5c2-2,1.5-5,0.5-7s0.5-3,1-3.5l-5-2.5
	c0,0-1.5,1.5-3.5,1.5S12.5,8,12.5,8S11,9.5,9,9.5S5.5,8,5.5,8z"/>
<rect id="rect3803" fill="none" width="25" height="31"/>
<path id="path4146" inkscape:connector-curvature="0" fill="#3A3836" d="M10.3,6L9.8,4.6h-2L7.4,6H6.5l1.9-5h0.9l1.9,5H10.3z
	 M9.6,3.9L9.1,2.5c0,0-0.1-0.2-0.1-0.4C8.9,1.9,8.9,1.8,8.9,1.7C8.8,2,8.7,2.3,8.6,2.6L8.1,3.9H9.6z"/>
<path id="path4148" inkscape:connector-curvature="0" fill="#3A3836" d="M11.7,6V1h0.8v4.2h2.2V6H11.7L11.7,6z"/>
<path id="path4150" inkscape:connector-curvature="0" fill="#3A3836" d="M16.7,6h-0.8V1.7h-1.5V1h3.8v0.7h-1.5V6L16.7,6z"/>
<path id="path4152" inkscape:connector-curvature="0" fill="#3A3836" d="M18,5.5c0-0.2,0-0.3,0.1-0.4S18.3,5,18.5,5s0.3,0,0.4,0.1
	S19,5.3,19,5.5s0,0.3-0.1,0.4S18.7,6,18.5,6s-0.3,0-0.4-0.1S18,5.7,18,5.5z"/>
<g>
	<path fill="#FFFFFF" d="M9,2.1C8.9,1.9,8.9,1.8,8.9,1.7C8.8,2,8.7,2.3,8.6,2.6L8.1,3.9h1.5L9.1,2.5C9.1,2.5,9,2.3,9,2.1z"/>
	<path fill="#FFFFFF" d="M20,0H5C4.4,0,4,0.4,4,1v5c0,0.6,0.4,1,1,1h15c0.6,0,1-0.4,1-1V1C21,0.4,20.6,0,20,0z M10.3,6L9.8,4.6h-2
		L7.4,6H6.5l1.9-5h0.9l1.9,5H10.3z M14.7,6h-3l0,0V1h0.8v4.2h2.2V6z M16.7,6h-0.8V1.7h-1.5V1h3.8v0.7h-1.5V6z M18.9,5.9
		C18.8,6,18.7,6,18.5,6s-0.3,0-0.4-0.1S18,5.7,18,5.5s0-0.3,0.1-0.4S18.3,5,18.5,5s0.3,0,0.4,0.1S19,5.3,19,5.5S19,5.8,18.9,5.9z"/>
</g>
</svg>
