<?xml version="1.0" encoding="utf-8"?>
<!-- Generator: Adobe Illustrator 17.1.0, SVG Export Plug-In . SVG Version: 6.00 Build 0)  -->
<!DOCTYPE svg PUBLIC "-//W3C//DTD SVG 1.1//EN" "http://www.w3.org/Graphics/SVG/1.1/DTD/svg11.dtd">
<svg version="1.1"
	 id="svg3844" xmlns:svg="http://www.w3.org/2000/svg" xmlns:cc="http://creativecommons.org/ns#" xmlns:dc="http://purl.org/dc/elements/1.1/" xmlns:rdf="http://www.w3.org/1999/02/22-rdf-syntax-ns#" sodipodi:docname="us-highway-alternate-3-small.svg" inkscape:version="0.91 r13725" xmlns:inkscape="http://www.inkscape.org/namespaces/inkscape" xmlns:sodipodi="http://sodipodi.sourceforge.net/DTD/sodipodi-0.dtd"
	 xmlns="http://www.w3.org/2000/svg" xmlns:xlink="http://www.w3.org/1999/xlink" x="0px" y="0px" width="25px" height="31px"
	 viewBox="0 0 25 31" enable-background="new 0 0 25 31" xml:space="preserve">
<sodipodi:namedview  fit-margin-bottom="0" inkscape:window-width="1574" inkscape:window-height="852" inkscape:snap-global="true" fit-margin-right="0" inkscape:window-x="-10" inkscape:snap-smooth-nodes="false" inkscape:bbox-nodes="true" inkscape:snap-bbox="true" inkscape:object-nodes="true" inkscape:pageopacity="0.0" inkscape:document-units="px" inkscape:pageshadow="2" inkscape:current-layer="layer1" inkscape:window-y="122" inkscape:bbox-paths="false" inkscape:window-maximized="0" showgrid="true" pagecolor="#ffffff" bordercolor="#666666" id="base" inkscape:cy="15.359208" inkscape:zoom="16" borderopacity="1.0" inkscape:cx="-8.8738388" fit-margin-left="0" fit-margin-top="0">
	
		<inkscape:grid  type="xygrid" snapvisiblegridlinesonly="true" spacingy="0.5px" spacingx="0.5px" empspacing="2" id="grid3875" originy="-127" enabled="true" visible="true" originx="-300">
		</inkscape:grid>
</sodipodi:namedview>
<g id="layer1" transform="translate(-300.00001,-894.36218)" inkscape:groupmode="layer" inkscape:label="Layer 1">
	
		<path id="path3799-7-8" sodipodi:nodetypes="ccsscssccscsc" inkscape:connector-curvature="0" fill="#FFFFFF" stroke="#3A3836" stroke-linecap="round" stroke-linejoin="round" d="
		M305.5,902.4l-5,2.5c0.5,0.5,2,1.5,1,3.5s-1.5,5,0.5,7c2.5,2.5,9.5,0.5,10.5,2.5c1-2,8,0,10.5-2.5c2-2,1.5-5,0.5-7s0.5-3,1-3.5
		l-5-2.5c0,0-1.5,1.5-3.5,1.5s-3.5-1.5-3.5-1.5s-1.5,1.5-3.5,1.5S305.5,902.4,305.5,902.4z"/>
	<rect id="rect3803" x="303" y="894.4" fill="#3A3836" fill-opacity="0" width="17" height="31"/>
	<path id="rect4807" fill="#FFFFFF" d="M305,894.4h15c0.6,0,1,0.4,1,1v5c0,0.6-0.4,1-1,1h-15c-0.6,0-1-0.4-1-1v-5
		C304,894.8,304.4,894.4,305,894.4z"/>
	<g id="text4827" transform="matrix(1.016077,0,0,0.98417739,3,-2.2171876e-6)">
		<path id="path4146" inkscape:connector-curvature="0" fill="#3A3836" d="M302.5,914.8l-0.5-1.4h-1.9l-0.5,1.4h-0.9l1.9-5h0.9
			l1.9,5H302.5z M301.8,912.7l-0.5-1.4c0-0.1-0.1-0.2-0.1-0.4c-0.1-0.2-0.1-0.3-0.1-0.4c-0.1,0.3-0.2,0.6-0.3,0.9l-0.5,1.3H301.8z"
			/>
		<path id="path4148" inkscape:connector-curvature="0" fill="#3A3836" d="M303.8,914.8v-5h0.8v4.3h2.1v0.7L303.8,914.8L303.8,914.8
			z"/>
		<path id="path4150" inkscape:connector-curvature="0" fill="#3A3836" d="M308.8,914.8h-0.8v-4.3h-1.5v-0.7h3.8v0.7h-1.5
			L308.8,914.8L308.8,914.8z"/>
		<path id="path4152" inkscape:connector-curvature="0" fill="#3A3836" d="M310,914.3c0-0.2,0-0.3,0.1-0.4c0.1-0.1,0.2-0.1,0.4-0.1
			c0.2,0,0.3,0,0.4,0.1c0.1,0.1,0.1,0.2,0.1,0.4c0,0.2,0,0.3-0.1,0.4c-0.1,0.1-0.2,0.1-0.4,0.1c-0.2,0-0.3,0-0.4-0.1
			C310.1,914.6,310,914.5,310,914.3z"/>
	</g>
</g>
</svg>
