<svg xmlns="http://www.w3.org/2000/svg" width="26" height="20" viewBox="0 0 26 20">
  <title>us-highway</title>
  <g>
    <path d="M13,18.5a0.5,0.5,0,0,1-.38-0.17c-0.57-.65-3.09-0.78-4-0.82l-0.37,0c-1.6-.08-4.59-0.22-6.08-1.81-2.62-2.78-1.58-5.84-.58-7.9S1.49,4.67.7,3.9A0.57,0.57,0,0,1,.52,3.5,0.53,0.53,0,0,1,.68,3.12l3-2.5a0.5,0.5,0,0,1,.68,0A6.46,6.46,0,0,0,8.5,2,6.56,6.56,0,0,0,12.64.65,0.5,0.5,0,0,1,13,.5h0a0.5,0.5,0,0,1,.35.15A6.52,6.52,0,0,0,17.5,2,6.41,6.41,0,0,0,21.63.65a0.5,0.5,0,0,1,.68,0l3,2.5a0.5,0.5,0,0,1,0,.74c-0.83.8-1.91,1.85-.9,3.92s2,5.11-.58,7.9c-1.49,1.59-4.48,1.73-6.08,1.81l-0.37,0c-0.95,0-3.46.17-4,.82A0.5,0.5,0,0,1,13,18.5Z" fill="#fff"/>
    <path d="M22,1l3,2.5c-0.78.76-2.19,2.06-1,4.5s1.69,5-.5,7.33c-1.44,1.53-4.57,1.59-6,1.67-1.16.06-3.76,0.16-4.5,1-0.74-.84-3.34-0.94-4.5-1-1.43-.07-4.56-0.14-6-1.67C0.31,13,.81,10.45,2,8S1.78,4.26,1,3.5L4,1A6.94,6.94,0,0,0,8.5,2.5,7,7,0,0,0,13,1a7,7,0,0,0,4.5,1.5A6.84,6.84,0,0,0,22,1m0-1a1,1,0,0,0-.72.3A6,6,0,0,1,17.5,1.5,6.1,6.1,0,0,1,13.71.29,1,1,0,0,0,13,0h0a1,1,0,0,0-.71.3A6.11,6.11,0,0,1,8.5,1.5,6,6,0,0,1,4.71.3,1,1,0,0,0,3.36.23l-3,2.5A1,1,0,0,0,.3,4.22l0,0C1.1,5,2,5.82,1.11,7.56,0,9.75-1.05,13,1.77,16c1.63,1.74,4.75,1.89,6.42,2H8.57c2.82,0.14,3.52.47,3.68,0.66A1,1,0,0,0,13,19h0a1,1,0,0,0,.75-0.34c0.16-.18.86-0.51,3.68-0.66H17.8c1.67-.08,4.79-0.23,6.42-2,2.83-3,1.74-6.27.67-8.46-0.85-1.75,0-2.57.76-3.3l0,0a1,1,0,0,0-.06-1.49l-3-2.5A1,1,0,0,0,22,0h0Z" fill="#3a3836"/>
  </g>
  <rect width="26" height="20" fill="none"/>
</svg>
