<?xml version="1.0" encoding="utf-8"?>
<!-- Generator: Adobe Illustrator 17.1.0, SVG Export Plug-In . SVG Version: 6.00 Build 0)  -->
<!DOCTYPE svg PUBLIC "-//W3C//DTD SVG 1.1//EN" "http://www.w3.org/Graphics/SVG/1.1/DTD/svg11.dtd">
<svg version="1.1"
	 id="svg3844" xmlns:svg="http://www.w3.org/2000/svg" xmlns:cc="http://creativecommons.org/ns#" xmlns:dc="http://purl.org/dc/elements/1.1/" xmlns:rdf="http://www.w3.org/1999/02/22-rdf-syntax-ns#"
	 xmlns="http://www.w3.org/2000/svg" xmlns:xlink="http://www.w3.org/1999/xlink" x="0px" y="0px" width="21px" height="31px"
	 viewBox="0 0 21 31" enable-background="new 0 0 21 31" xml:space="preserve">
<rect id="rect3803" fill="none" width="21" height="31"/>
<path id="path3799-7" fill="#FFFFFF" stroke="#3A3836" stroke-linecap="round" stroke-linejoin="round" d="M4.9,8l-4.4,2.5
	C1.1,11,2.7,12,1.6,14s-1.7,5,0.6,7c2.8,2.5,7.2,0.5,8.3,2.5c1.1-2,5.6,0,8.3-2.5c2.2-2,1.7-5,0.6-7c-1.1-2,0.6-3,1.1-3.5L16.1,8
	c0,0-1.1,1.5-2.8,1.5c-1.7,0-2.8-1.5-2.8-1.5S9.4,9.5,7.7,9.5S4.9,8,4.9,8z"/>
<g id="text4827" transform="matrix(1.016077,0,0,0.98417739,1,0)">
	<path id="path4152" fill="#3A3836" d="M15.3,5.6c0-0.2,0-0.3,0.1-0.4c0.1-0.1,0.2-0.1,0.4-0.1c0.2,0,0.3,0,0.4,0.1
		c0.1,0.1,0.1,0.2,0.1,0.4c0,0.2,0,0.3-0.1,0.4c-0.1,0.1-0.2,0.1-0.4,0.1s-0.3,0-0.4-0.1C15.3,5.9,15.3,5.8,15.3,5.6z"/>
</g>
<g id="text5850" transform="translate(-30.720966,-5.0902439e-6)">
	<path id="path5855" fill="#3A3836" d="M34.5,1.1h1.4c0.7,0,1.1,0.1,1.4,0.3c0.3,0.2,0.4,0.5,0.4,0.9c0,0.3-0.1,0.5-0.2,0.7
		c-0.1,0.2-0.4,0.3-0.6,0.4v0c0.3,0.1,0.6,0.2,0.7,0.4C37.9,3.9,38,4.2,38,4.5c0,0.4-0.2,0.8-0.5,1c-0.3,0.2-0.7,0.4-1.3,0.4h-1.7
		V1.1L34.5,1.1z M35.3,3.1H36c0.3,0,0.6-0.1,0.7-0.2C36.9,2.8,37,2.6,37,2.4c0-0.2-0.1-0.4-0.2-0.5c-0.2-0.1-0.4-0.2-0.8-0.2h-0.7
		L35.3,3.1L35.3,3.1z M35.3,3.7v1.5h0.8c0.3,0,0.6-0.1,0.7-0.2c0.2-0.1,0.3-0.3,0.3-0.6c0-0.3-0.1-0.4-0.3-0.6s-0.4-0.2-0.8-0.2
		H35.3z"/>
	<path id="path5857" fill="#3A3836" d="M42.8,1.1v3.1c0,0.4-0.1,0.7-0.2,0.9c-0.2,0.3-0.4,0.5-0.7,0.6c-0.3,0.1-0.6,0.2-1,0.2
		c-0.6,0-1.1-0.2-1.4-0.5s-0.5-0.8-0.5-1.3V1.1h0.8v3.1c0,0.4,0.1,0.7,0.3,0.9c0.2,0.2,0.5,0.3,0.9,0.3c0.7,0,1.1-0.4,1.1-1.2v-3
		H42.8L42.8,1.1z"/>
	<path id="path5859" fill="#3A3836" d="M46.8,4.6c0,0.4-0.2,0.8-0.5,1C46,5.8,45.6,6,45,6c-0.5,0-1-0.1-1.3-0.3V5
		c0.2,0.1,0.5,0.2,0.7,0.2c0.2,0.1,0.5,0.1,0.7,0.1c0.3,0,0.5-0.1,0.7-0.2C45.9,5,46,4.8,46,4.6c0-0.2-0.1-0.3-0.2-0.5
		c-0.1-0.1-0.4-0.3-0.8-0.4c-0.4-0.2-0.8-0.4-0.9-0.6c-0.2-0.2-0.3-0.5-0.3-0.8c0-0.4,0.1-0.7,0.4-1C44.5,1.1,44.8,1,45.3,1
		c0.5,0,0.9,0.1,1.4,0.3L46.5,2c-0.4-0.2-0.8-0.3-1.1-0.3c-0.3,0-0.4,0.1-0.6,0.2c-0.1,0.1-0.2,0.3-0.2,0.4c0,0.1,0,0.2,0.1,0.3
		c0.1,0.1,0.1,0.2,0.3,0.3s0.3,0.2,0.7,0.3c0.4,0.1,0.6,0.3,0.8,0.4c0.2,0.1,0.3,0.3,0.4,0.4C46.7,4.2,46.8,4.4,46.8,4.6L46.8,4.6z"
		/>
</g>
<g>
	<path fill="#FFFFFF" d="M5.4,3.7H4.6v1.5h0.8c0.3,0,0.6-0.1,0.7-0.2c0.2-0.1,0.3-0.3,0.3-0.6c0-0.3-0.1-0.4-0.3-0.6
		S5.7,3.7,5.4,3.7z"/>
	<path fill="#FFFFFF" d="M5.3,3.1c0.3,0,0.6-0.1,0.7-0.2c0.2-0.1,0.2-0.3,0.2-0.5C6.3,2.2,6.2,2,6,1.9C5.9,1.8,5.6,1.7,5.3,1.7H4.6
		v1.3H5.3z"/>
	<path fill="#FFFFFF" d="M18,0H3C2.4,0,2,0.4,2,1v5c0,0.6,0.4,1,1,1h15c0.6,0,1-0.4,1-1V1C19,0.4,18.6,0,18,0z M6.8,5.5
		C6.5,5.8,6.1,5.9,5.5,5.9H3.8V1.1h1.4c0.7,0,1.1,0.1,1.4,0.3C7,1.6,7.1,1.9,7.1,2.3C7.1,2.6,7,2.8,6.9,3C6.7,3.2,6.5,3.3,6.3,3.3v0
		C6.6,3.4,6.8,3.6,7,3.8c0.2,0.2,0.2,0.4,0.2,0.8C7.2,5,7.1,5.3,6.8,5.5z M12,4.2c0,0.4-0.1,0.7-0.2,0.9c-0.2,0.3-0.4,0.5-0.7,0.6
		c-0.3,0.1-0.6,0.2-1,0.2C9.5,6,9,5.8,8.7,5.5S8.2,4.7,8.2,4.2V1.1H9v3.1C9,4.5,9.1,4.8,9.3,5c0.2,0.2,0.5,0.3,0.9,0.3
		c0.7,0,1.1-0.4,1.1-1.2v-3H12h0V4.2z M15.6,5.6C15.3,5.8,14.8,6,14.3,6s-1-0.1-1.3-0.3V5c0.2,0.1,0.5,0.2,0.7,0.2
		c0.2,0.1,0.5,0.1,0.7,0.1c0.3,0,0.5-0.1,0.7-0.2c0.1-0.1,0.2-0.3,0.2-0.5c0-0.2-0.1-0.3-0.2-0.5c-0.1-0.1-0.4-0.3-0.8-0.4
		c-0.4-0.2-0.8-0.4-0.9-0.6C13.1,2.9,13,2.6,13,2.3c0-0.4,0.1-0.7,0.4-1C13.7,1.1,14.1,1,14.6,1c0.5,0,0.9,0.1,1.4,0.3L15.7,2
		c-0.4-0.2-0.8-0.3-1.1-0.3c-0.3,0-0.4,0.1-0.6,0.2c-0.1,0.1-0.2,0.3-0.2,0.4c0,0.1,0,0.2,0.1,0.3c0.1,0.1,0.1,0.2,0.3,0.3
		s0.3,0.2,0.7,0.3c0.4,0.1,0.6,0.3,0.8,0.4c0.2,0.1,0.3,0.3,0.4,0.4c0.1,0.2,0.1,0.4,0.1,0.6l0,0C16.1,5,15.9,5.4,15.6,5.6z
		 M17.4,5.9C17.3,6,17.2,6,17,6s-0.3,0-0.4-0.1s-0.1-0.2-0.1-0.4c0-0.2,0-0.3,0.1-0.4C16.7,5,16.8,5,17,5c0.2,0,0.3,0,0.4,0.1
		c0.1,0.1,0.1,0.2,0.1,0.4C17.5,5.7,17.5,5.8,17.4,5.9z"/>
</g>
</svg>
