<?xml version="1.0" encoding="UTF-8" standalone="no"?>
<!-- Created with Inkscape (http://www.inkscape.org/) -->

<svg
   xmlns:dc="http://purl.org/dc/elements/1.1/"
   xmlns:cc="http://creativecommons.org/ns#"
   xmlns:rdf="http://www.w3.org/1999/02/22-rdf-syntax-ns#"
   xmlns:svg="http://www.w3.org/2000/svg"
   xmlns="http://www.w3.org/2000/svg"
   xmlns:sodipodi="http://sodipodi.sourceforge.net/DTD/sodipodi-0.dtd"
   xmlns:inkscape="http://www.inkscape.org/namespaces/inkscape"
   width="30"
   height="37"
   id="svg3844"
   version="1.1"
   inkscape:version="0.91 r13725"
   sodipodi:docname="us-highway-alternate-3-large.svg"
   viewBox="0 0 30 37">
  <defs
     id="defs3846" />
  <sodipodi:namedview
     id="base"
     pagecolor="#ffffff"
     bordercolor="#666666"
     borderopacity="1.0"
     inkscape:pageopacity="0.0"
     inkscape:pageshadow="2"
     inkscape:zoom="11.313708"
     inkscape:cx="1.6466225"
     inkscape:cy="20.353534"
     inkscape:document-units="px"
     inkscape:current-layer="layer1"
     showgrid="true"
     inkscape:snap-bbox="true"
     fit-margin-top="0"
     fit-margin-left="0"
     fit-margin-right="0"
     fit-margin-bottom="0"
     inkscape:window-width="1280"
     inkscape:window-height="751"
     inkscape:window-x="73"
     inkscape:window-y="145"
     inkscape:window-maximized="0"
     inkscape:object-nodes="true"
     inkscape:bbox-paths="false"
     inkscape:bbox-nodes="true"
     inkscape:snap-global="true"
     inkscape:snap-smooth-nodes="false">
    <inkscape:grid
       type="xygrid"
       id="grid3875"
       empspacing="2"
       visible="true"
       enabled="true"
       snapvisiblegridlinesonly="true"
       originx="-297.00004"
       originy="-127"
       spacingy="0.5px"
       spacingx="0.5px" />
  </sodipodi:namedview>
  <metadata
     id="metadata3849">
    <rdf:RDF>
      <cc:Work
         rdf:about="">
        <dc:format>image/svg+xml</dc:format>
        <dc:type
           rdf:resource="http://purl.org/dc/dcmitype/StillImage" />
        <dc:title />
      </cc:Work>
    </rdf:RDF>
  </metadata>
  <g
     inkscape:label="Layer 1"
     inkscape:groupmode="layer"
     id="layer1"
     transform="translate(-297.00004,-888.36218)">
    <path
       style="color:#3a3836;display:inline;overflow:visible;visibility:visible;opacity:1;fill:#ffffff;fill-opacity:1;fill-rule:evenodd;stroke:#3a3836;stroke-width:0.99999994;stroke-linecap:round;stroke-linejoin:round;marker:none;enable-background:accumulate"
       clip-path="none"
       d="m 303.54169,898.86211 -6.04168,3.06452 c 0.60417,0.61291 2.41667,1.83872 1.20833,4.29034 -1.20833,2.45163 -1.81251,6.12906 0.60417,8.58068 3.02084,3.06453 11.4792,0.61291 12.68753,3.06453 1.20835,-2.45162 9.6667,0 12.68754,-3.06453 2.41667,-2.45162 1.8125,-6.12905 0.60417,-8.58068 -1.20834,-2.45162 0.60416,-3.67743 1.20833,-4.29034 l -6.04168,-3.06452 c 0,0 -1.8125,1.83871 -4.22917,1.83871 -2.41668,0 -4.22919,-1.83871 -4.22919,-1.83871 0,0 -1.8125,1.83871 -4.22917,1.83871 -2.41667,0 -4.22918,-1.83871 -4.22918,-1.83871 z"
       id="path3799-7-9"
       inkscape:connector-curvature="0"
       sodipodi:nodetypes="ccsscssccscsc" />
    <g
       id="text4827-8"
       style="color:#000000;font-style:normal;font-variant:normal;font-weight:600;font-stretch:normal;font-size:7.5px;line-height:125%;font-family:'Open Sans';-inkscape-font-specification:'Open Sans Semi-Bold';text-indent:0;text-align:start;text-decoration:none;text-decoration-line:none;text-decoration-style:solid;text-decoration-color:#000000;letter-spacing:0px;word-spacing:0px;text-transform:none;direction:ltr;block-progression:tb;writing-mode:lr-tb;baseline-shift:baseline;text-anchor:start;white-space:normal;clip-rule:nonzero;visibility:visible;isolation:auto;mix-blend-mode:normal;color-interpolation:sRGB;color-interpolation-filters:linearRGB;solid-color:#000000;solid-opacity:1;fill:#3a3836;fill-opacity:1;fill-rule:nonzero;stroke:none;stroke-width:0.83333331px;stroke-linecap:butt;stroke-linejoin:miter;stroke-miterlimit:4;stroke-dasharray:none;stroke-dashoffset:0;stroke-opacity:1;marker:none;color-rendering:auto;image-rendering:auto;shape-rendering:auto;text-rendering:auto"
       transform="matrix(1.2192924,0,0,1.1810129,-60.89998,-184.57244)" />
    <g
       id="g10281"
       transform="translate(2.5000563,0)">
      <rect
         y="890.36212"
         x="299"
         height="35.000057"
         width="21"
         id="rect3803-4"
         style="color:#3a3836;display:inline;overflow:visible;visibility:visible;opacity:0;fill:none;fill-opacity:1;fill-rule:nonzero;stroke:none;stroke-width:1;marker:none;enable-background:accumulate" />
    </g>
    <g
       id="g10543"
       transform="translate(1.5000363,0)">
      <rect
         style="color:#3a3836;font-style:normal;font-variant:normal;font-weight:600;font-stretch:normal;font-size:medium;line-height:150%;font-family:'Open Sans';-inkscape-font-specification:'Open Sans Semi-Bold';text-indent:0;text-align:start;text-decoration:none;text-decoration-line:none;text-decoration-style:solid;text-decoration-color:#000000;letter-spacing:0px;word-spacing:normal;text-transform:none;direction:ltr;block-progression:tb;writing-mode:lr-tb;baseline-shift:baseline;text-anchor:start;white-space:normal;clip-rule:nonzero;display:inline;overflow:visible;visibility:visible;opacity:1;isolation:auto;mix-blend-mode:normal;color-interpolation:sRGB;color-interpolation-filters:linearRGB;solid-color:#3a3836;solid-opacity:1;fill:#ffffff;fill-opacity:1;fill-rule:evenodd;stroke:none;stroke-width:0.99999988;stroke-linecap:round;stroke-linejoin:round;stroke-miterlimit:4;stroke-dasharray:none;stroke-dashoffset:0;stroke-opacity:1;marker:none;color-rendering:auto;image-rendering:auto;shape-rendering:auto;text-rendering:auto;enable-background:accumulate"
         id="rect4807-3-8"
         width="20.999998"
         height="9.0000067"
         x="300"
         y="888.36224"
         rx="1"
         ry="0.99999732" />
      <path
         id="path4146"
         transform="translate(301,894.36218)"
         d="m 4.5898438,-4.5117188 -2.2890626,5.9511719 1.0546876,0 0.5976562,-1.64453122 2.3398438,0 0.6113281,1.64453122 1.0644531,0 -2.2910156,-5.9511719 -1.0878906,0 z m 3.9667968,0.023438 0,5.9277343 3.5917974,0 0,-0.8300781 -2.5917974,0 0,-5.0976562 -1,0 z m 3.2226564,0 0,0.8320312 1.798828,0 0,5.0957031 1.001953,0 0,-5.0957031 1.798828,0 0,-0.8320312 -4.599609,0 z M 5.1308594,-3.677734 c 0.027887,0.1081267 0.077797,0.2792321 0.1503906,0.5117188 0.075347,0.2324733 0.1339146,0.4035987 0.1757812,0.5117187 l 0.5722657,1.6132813 -1.7832031,0 0.5527343,-1.5449219 C 4.9438681,-2.9806108 5.055426,-3.345241 5.1308594,-3.6777344 Z M 16.71875,0.27539062 c -0.200953,1e-8 -0.352944,0.0527898 -0.458984,0.15820313 -0.10606,0.10543333 -0.160157,0.25773812 -0.160157,0.45507813 0,0.19463332 0.0541,0.34619792 0.160157,0.45703122 0.10604,0.1108334 0.258031,0.1660157 0.458984,0.1660157 0.200933,0 0.354878,-0.055182 0.460938,-0.1660157 0.108839,-0.1135333 0.164062,-0.2650979 0.164062,-0.45703122 0,-0.18924001 -0.05411,-0.3391523 -0.160156,-0.44726563 C 17.077534,0.33057292 16.922477,0.27539062 16.71875,0.27539062 Z"
         style="font-style:normal;font-variant:normal;font-weight:600;font-stretch:normal;font-size:7.5px;line-height:125%;font-family:'Open Sans';-inkscape-font-specification:'Open Sans Semi-Bold';letter-spacing:-0.2px;word-spacing:0px;fill:#3a3836;fill-opacity:1;stroke:none;stroke-width:1px;stroke-linecap:butt;stroke-linejoin:miter;stroke-opacity:1"
         inkscape:connector-curvature="0" />
    </g>
  </g>
</svg>
