<?xml version="1.0" encoding="utf-8"?>
<!-- Generator: Adobe Illustrator 17.1.0, SVG Export Plug-In . SVG Version: 6.00 Build 0)  -->
<!DOCTYPE svg PUBLIC "-//W3C//DTD SVG 1.1//EN" "http://www.w3.org/Graphics/SVG/1.1/DTD/svg11.dtd">
<svg version="1.1"
	 id="svg3844" xmlns:svg="http://www.w3.org/2000/svg" xmlns:cc="http://creativecommons.org/ns#" xmlns:dc="http://purl.org/dc/elements/1.1/" xmlns:rdf="http://www.w3.org/1999/02/22-rdf-syntax-ns#"
	 xmlns="http://www.w3.org/2000/svg" xmlns:xlink="http://www.w3.org/1999/xlink" x="0px" y="0px" width="17px" height="31px"
	 viewBox="0 0 17 31" enable-background="new 0 0 17 31" xml:space="preserve">
<rect id="rect3803" fill="none" width="17" height="31"/>
<g id="text4827" transform="scale(1.016077,0.98417739)">
	<path id="path4146" fill="#3A3836" d="M6.2,6.1L5.7,4.7H3.8L3.3,6.1H2.5l1.9-5h0.9l1.9,5H6.2z M5.5,4L5,2.6c0-0.1,0-0.2-0.1-0.4
		C4.8,2,4.8,1.8,4.8,1.7C4.7,2,4.6,2.3,4.5,2.6L4.1,4H5.5z"/>
	<path id="path4148" fill="#3A3836" d="M7.6,6.1V1h0.8v4.3h2.1V6L7.6,6.1L7.6,6.1z"/>
	<path id="path4150" fill="#3A3836" d="M12.5,6.1h-0.8V1.7h-1.5V1H14v0.7h-1.5V6.1L12.5,6.1z"/>
	<path id="path4152" fill="#3A3836" d="M13.8,5.6c0-0.2,0-0.3,0.1-0.4c0.1-0.1,0.2-0.1,0.4-0.1s0.3,0,0.4,0.1
		c0.1,0.1,0.1,0.2,0.1,0.4c0,0.2,0,0.3-0.1,0.4s-0.2,0.1-0.4,0.1S14,6.1,13.9,6C13.8,5.9,13.8,5.8,13.8,5.6z"/>
</g>
<path id="path3799-8" fill="#FFFFFF" stroke="#3A3836" stroke-linecap="round" stroke-linejoin="round" d="M3.5,8l-3,2.5
	C1,11,2.5,12,1.5,14S0,19,2,21c2.5,2.5,5.5,0.5,6.5,2.5c1-2,4,0,6.5-2.5c2-2,1.5-5,0.5-7s0.5-3,1-3.5l-3-2.5c0,0-1,1.5-2.5,1.5
	S8.5,8,8.5,8S7.5,9.5,6,9.5S3.5,8,3.5,8z"/>
<g>
	<path fill="#FFFFFF" d="M5,2.1C4.9,1.9,4.9,1.8,4.9,1.7C4.8,2,4.7,2.3,4.6,2.6L4.1,3.9h1.5L5.1,2.5C5.1,2.5,5,2.3,5,2.1z"/>
	<path fill="#FFFFFF" d="M16,0H1C0.4,0,0,0.4,0,1v5c0,0.6,0.4,1,1,1h15c0.6,0,1-0.4,1-1V1C17,0.4,16.6,0,16,0z M6.3,6L5.8,4.6h-2
		L3.4,6H2.5l1.9-5h0.9l1.9,5H6.3z M10.7,6h-3l0,0V1h0.8v4.2h2.2V6z M12.7,6h-0.8V1.7h-1.5V1h3.8v0.7h-1.5V6z M14.9,5.9
		C14.8,6,14.7,6,14.5,6s-0.3,0-0.4-0.1C14,5.8,14,5.7,14,5.5s0-0.3,0.1-0.4S14.3,5,14.5,5s0.3,0,0.4,0.1C15,5.2,15,5.3,15,5.5
		S15,5.8,14.9,5.9z"/>
</g>
</svg>
