<?xml version="1.0" encoding="utf-8"?>
<!-- Generator: Adobe Illustrator 17.1.0, SVG Export Plug-In . SVG Version: 6.00 Build 0)  -->
<!DOCTYPE svg PUBLIC "-//W3C//DTD SVG 1.1//EN" "http://www.w3.org/Graphics/SVG/1.1/DTD/svg11.dtd">
<svg version="1.1"
	 id="svg3844" xmlns:svg="http://www.w3.org/2000/svg" xmlns:cc="http://creativecommons.org/ns#" xmlns:dc="http://purl.org/dc/elements/1.1/" xmlns:rdf="http://www.w3.org/1999/02/22-rdf-syntax-ns#"
	 xmlns="http://www.w3.org/2000/svg" xmlns:xlink="http://www.w3.org/1999/xlink" x="0px" y="0px" width="37px" height="22px"
	 viewBox="0 0 37 22" enable-background="new 0 0 37 22" xml:space="preserve">
<path id="path3799-7" fill="#FFFFFF" stroke="#3A3836" stroke-linecap="round" stroke-linejoin="round" d="M8,2.5L0.5,5.6
	c0.8,0.6,3,1.8,1.5,4.3c-1.5,2.5-2.2,6.1,0.8,8.6C6.5,21.5,17,19,18.5,21.5c1.5-2.5,12,0,15.8-3.1c3-2.5,2.2-6.1,0.8-8.6
	c-1.5-2.5,0.8-3.7,1.5-4.3L29,2.5c0,0-2.2,1.8-5.2,1.8s-5.3-1.8-5.3-1.8s-2.2,1.8-5.2,1.8S8,2.5,8,2.5L8,2.5z"/>
</svg>
