<?xml version="1.0" encoding="utf-8"?>
<!-- Generator: Adobe Illustrator 17.1.0, SVG Export Plug-In . SVG Version: 6.00 Build 0)  -->
<!DOCTYPE svg PUBLIC "-//W3C//DTD SVG 1.1//EN" "http://www.w3.org/Graphics/SVG/1.1/DTD/svg11.dtd">
<svg version="1.1"
	 id="svg3844" xmlns:svg="http://www.w3.org/2000/svg" xmlns:cc="http://creativecommons.org/ns#" xmlns:dc="http://purl.org/dc/elements/1.1/" xmlns:rdf="http://www.w3.org/1999/02/22-rdf-syntax-ns#" sodipodi:docname="us-highway-alternate-3-large.svg" inkscape:version="0.91 r13725" xmlns:inkscape="http://www.inkscape.org/namespaces/inkscape" xmlns:sodipodi="http://sodipodi.sourceforge.net/DTD/sodipodi-0.dtd"
	 xmlns="http://www.w3.org/2000/svg" xmlns:xlink="http://www.w3.org/1999/xlink" x="0px" y="0px" width="30px" height="37px"
	 viewBox="0 0 30 37" enable-background="new 0 0 30 37" xml:space="preserve">
<sodipodi:namedview  fit-margin-bottom="0" inkscape:window-width="1280" inkscape:window-height="751" inkscape:snap-global="true" fit-margin-right="0" inkscape:window-x="73" inkscape:snap-smooth-nodes="false" inkscape:bbox-nodes="true" inkscape:snap-bbox="true" inkscape:object-nodes="true" inkscape:pageopacity="0.0" inkscape:document-units="px" inkscape:pageshadow="2" inkscape:current-layer="layer1" inkscape:window-y="145" inkscape:bbox-paths="false" inkscape:window-maximized="0" showgrid="true" pagecolor="#ffffff" bordercolor="#666666" id="base" inkscape:cy="20.353534" inkscape:zoom="11.313708" borderopacity="1.0" inkscape:cx="1.6466225" fit-margin-left="0" fit-margin-top="0">
	
		<inkscape:grid  type="xygrid" snapvisiblegridlinesonly="true" spacingy="0.5px" spacingx="0.5px" empspacing="2" id="grid3875" originy="-127" enabled="true" visible="true" originx="-297.00004">
		</inkscape:grid>
</sodipodi:namedview>
<path id="path3799-7-9" sodipodi:nodetypes="ccsscssccscsc" inkscape:connector-curvature="0" fill="#FFFFFF" stroke="#3A3836" stroke-width="1" stroke-linecap="round" stroke-linejoin="round" d="
	M6.5,10.5l-6,3.1c0.6,0.6,2.4,1.8,1.2,4.3c-1.2,2.5-1.8,6.1,0.6,8.6c3,3.1,11.5,0.6,12.7,3.1c1.2-2.5,9.7,0,12.7-3.1
	c2.4-2.5,1.8-6.1,0.6-8.6c-1.2-2.5,0.6-3.7,1.2-4.3l-6-3.1c0,0-1.8,1.8-4.2,1.8c-2.4,0-4.2-1.8-4.2-1.8s-1.8,1.8-4.2,1.8
	S6.5,10.5,6.5,10.5z"/>
<g id="text4827-8" transform="matrix(1.2192924,0,0,1.1810129,-60.89998,-184.57244)">
</g>
<g id="g10281" transform="translate(2.5000563,0)">
	<rect id="rect3803-4" x="-2.5" y="0" fill="none" width="30" height="37"/>
</g>
<path id="path4146" inkscape:connector-curvature="0" fill="#3A3836" d="M10.1,1.5l-2.3,6h1.1l0.6-1.6h2.3l0.6,1.6h1.1l-2.3-6H10.1z
	 M14.1,1.5v5.9h3.6V6.6h-2.6V1.5H14.1z M17.3,1.5v0.8h1.8v5.1h1V2.3h1.8V1.5H17.3z M10.6,2.3c0,0.1,0.1,0.3,0.2,0.5
	c0.1,0.2,0.1,0.4,0.2,0.5L11.5,5H9.7l0.6-1.5C10.4,3,10.6,2.7,10.6,2.3z M22.2,6.3c-0.2,0-0.4,0.1-0.5,0.2c-0.1,0.1-0.2,0.3-0.2,0.5
	c0,0.2,0.1,0.3,0.2,0.5c0.1,0.1,0.3,0.2,0.5,0.2c0.2,0,0.4-0.1,0.5-0.2c0.1-0.1,0.2-0.3,0.2-0.5c0-0.2-0.1-0.3-0.2-0.4
	C22.6,6.3,22.4,6.3,22.2,6.3z"/>
<g>
	<path fill="#FFFFFF" d="M10.8,2.8c-0.1-0.2-0.1-0.4-0.2-0.5c-0.1,0.3-0.2,0.7-0.3,1.1L9.7,5h1.8L11,3.3C10.9,3.2,10.9,3.1,10.8,2.8
		z"/>
	<path fill="#FFFFFF" d="M24.5,0h-19c-0.6,0-1,0.4-1,1v7c0,0.6,0.4,1,1,1h19c0.6,0,1-0.4,1-1V1C25.5,0.4,25.1,0,24.5,0z M12.4,7.4
		l-0.6-1.6H9.5L8.9,7.4H7.8l2.3-6h1.1l2.3,6H12.4z M17.6,7.4h-3.6V1.5h1v5.1h2.6V7.4z M20.1,7.4h-1V2.3h-1.8V1.5h4.6v0.8h-1.8V7.4z
		 M22.7,7.3c-0.1,0.1-0.3,0.2-0.5,0.2s-0.4-0.1-0.5-0.2c-0.1-0.1-0.2-0.3-0.2-0.5c0-0.2,0.1-0.3,0.2-0.5c0.1-0.1,0.3-0.2,0.5-0.2
		c0.2,0,0.4,0.1,0.5,0.2c0.1,0.1,0.2,0.3,0.2,0.4C22.8,7.1,22.8,7.2,22.7,7.3z"/>
</g>
</svg>
