<svg xmlns="http://www.w3.org/2000/svg" width="20" height="20" viewBox="0 0 20 20">
  <title>us-highway</title>
  <rect width="20" height="20" fill="none"/>
  <g>
    <path d="M10,18.5a0.5,0.5,0,0,1-.38-0.17A3.59,3.59,0,0,0,7,17.5a6.36,6.36,0,0,1-4.84-1.82c-2.61-2.78-1.58-5.84-.58-7.9S1.48,4.66.69,3.89a0.56,0.56,0,0,1-.17-0.4A0.52,0.52,0,0,1,.68,3.11l3-2.49A0.5,0.5,0,0,1,4,.5H4.05a0.5,0.5,0,0,1,.34.2A3.39,3.39,0,0,0,7,2,3.65,3.65,0,0,0,9.62.67a0.5,0.5,0,0,1,.76,0A3.56,3.56,0,0,0,13,2,3.53,3.53,0,0,0,15.62.68a0.5,0.5,0,0,1,.7-0.06l3,2.49a0.5,0.5,0,0,1,0,.74c-0.83.8-1.91,1.85-.9,3.93s2,5.11-.58,7.9a6.31,6.31,0,0,1-4.79,1.82,3.65,3.65,0,0,0-2.7.83A0.5,0.5,0,0,1,10,18.5Z" fill="#fff"/>
    <path d="M16,1l3,2.49A3.45,3.45,0,0,0,18,8c1.2,2.45,1.69,5-.5,7.33A5.87,5.87,0,0,1,13,17a4,4,0,0,0-3,1,4,4,0,0,0-3-1,5.87,5.87,0,0,1-4.5-1.67C0.31,13,.81,10.45,2,8S1.78,4.25,1,3.49L4,1A3.86,3.86,0,0,0,7,2.5,4.13,4.13,0,0,0,10,1a4,4,0,0,0,3,1.5A4,4,0,0,0,16,1m0-1a1,1,0,0,0-.77.36A3,3,0,0,1,13,1.5,3.07,3.07,0,0,1,10.76.35a1,1,0,0,0-1.51,0A3.15,3.15,0,0,1,7,1.5,2.88,2.88,0,0,1,4.79.4,1,1,0,0,0,4.11,0H4a1,1,0,0,0-.64.23l-3,2.49A1,1,0,0,0,.3,4.21l0,0C1.1,5,2,5.82,1.11,7.56c-0.62,1.26-2.49,5.1.66,8.46A6.81,6.81,0,0,0,6.9,18H6.95a3.2,3.2,0,0,1,2.3.66,1,1,0,0,0,1.5,0,3.2,3.2,0,0,1,2.3-.66H13.1a6.81,6.81,0,0,0,5.13-2c3.16-3.36,1.29-7.2.67-8.46-0.85-1.75,0-2.58.77-3.32A1,1,0,0,0,20,3.47a1,1,0,0,0-.34-0.75l-3-2.49A1,1,0,0,0,16,0h0Z" fill="#3a3836"/>
  </g>
</svg>
