<svg xmlns="http://www.w3.org/2000/svg" width="20" height="38" viewBox="0 0 20 38">
  <title>us-highway-bypass</title>
  <path d="M0.92,0H19.08A0.88,0.88,0,0,1,20,.86V7.14a0.88,0.88,0,0,1-.92.86H0.92A0.88,0.88,0,0,1,0,7.14V0.86A0.88,0.88,0,0,1,.92,0Z" fill="#fff"/>
  <rect width="20" height="38" fill="none"/>
  <g>
    <path d="M10,27.5a0.5,0.5,0,0,1-.38-0.17A3.54,3.54,0,0,0,7,26.5a6.36,6.36,0,0,1-4.84-1.82c-2.61-2.78-1.58-5.84-.58-7.9S1.48,13.66.69,12.89a0.56,0.56,0,0,1-.17-0.4,0.52,0.52,0,0,1,.16-0.38l3-2.5A0.5,0.5,0,0,1,4,9.5H4.05a0.5,0.5,0,0,1,.34.2A3.39,3.39,0,0,0,7,11,3.65,3.65,0,0,0,9.62,9.67,0.5,0.5,0,0,1,10,9.5h0a0.5,0.5,0,0,1,.38.17A3.56,3.56,0,0,0,13,11a3.53,3.53,0,0,0,2.64-1.32,0.5,0.5,0,0,1,.7-0.07l3,2.5a0.5,0.5,0,0,1,0,.74c-0.83.8-1.91,1.85-.9,3.93s2,5.11-.58,7.9a6.31,6.31,0,0,1-4.79,1.82c-1.19.06-2.11,0.16-2.7,0.83A0.5,0.5,0,0,1,10,27.5Z" fill="#fff"/>
    <path d="M16,10l3,2.49A3.45,3.45,0,0,0,18,17c1.2,2.45,1.69,5-.5,7.33A5.87,5.87,0,0,1,13,26a4,4,0,0,0-3,1,4,4,0,0,0-3-1,5.87,5.87,0,0,1-4.5-1.67C0.31,22,.81,19.45,2,17s-0.23-3.75-1-4.51L4,10a3.86,3.86,0,0,0,3,1.5A4.13,4.13,0,0,0,10,10a4,4,0,0,0,3,1.5A4,4,0,0,0,16,10m0-1a1,1,0,0,0-.77.36A3,3,0,0,1,13,10.5a3.07,3.07,0,0,1-2.22-1.15,1,1,0,0,0-1.51,0A3.15,3.15,0,0,1,7,10.5,2.88,2.88,0,0,1,4.79,9.4,1,1,0,0,0,4.11,9H4a1,1,0,0,0-.64.23l-3,2.49A1,1,0,0,0,.3,13.21l0,0C1.1,14,2,14.82,1.11,16.56c-0.62,1.26-2.49,5.1.66,8.46A6.81,6.81,0,0,0,6.9,27H6.95a3.2,3.2,0,0,1,2.3.66,1,1,0,0,0,1.5,0,3.2,3.2,0,0,1,2.3-.66H13.1a6.81,6.81,0,0,0,5.13-2c3.16-3.36,1.29-7.2.67-8.46-0.85-1.75,0-2.58.77-3.32A1,1,0,0,0,20,12.47a1,1,0,0,0-.34-0.75l-3-2.49A1,1,0,0,0,16,9h0Z" fill="#3a3836"/>
  </g>
  <g>
    <path d="M6.09,3.92L6.36,4.07,6.54,4.23a1.32,1.32,0,0,1,.28.46,1.72,1.72,0,0,1,.09.57A1.89,1.89,0,0,1,6.79,6a1.47,1.47,0,0,1-.37.54,1.67,1.67,0,0,1-.58.34A2.25,2.25,0,0,1,5.08,7H2.58V1H5a2.36,2.36,0,0,1,.76.12,1.69,1.69,0,0,1,.58.33A1.46,1.46,0,0,1,6.7,2a1.71,1.71,0,0,1,.13.68A1.36,1.36,0,0,1,6.09,3.92Zm-1.2-.5a0.82,0.82,0,0,0,.57-0.18,0.64,0.64,0,0,0,.21-0.5,0.64,0.64,0,0,0-.21-0.5A0.82,0.82,0,0,0,4.89,2H3.75V3.42H4.89ZM5,5.94a0.8,0.8,0,0,0,.57-0.2A0.71,0.71,0,0,0,5.75,5.2a0.69,0.69,0,0,0-.21-0.54A0.81,0.81,0,0,0,5,4.47H3.75V5.94H5Z" fill="#3a3836"/>
    <path d="M10.39,4.53V7H9.23V4.53L7.43,1H8.7L9.82,3.41,10.92,1h1.27Z" fill="#3a3836"/>
    <path d="M17.2,2.86a1.93,1.93,0,0,1-.13.72,1.73,1.73,0,0,1-1,1,2.22,2.22,0,0,1-.83.15H14.08V7H12.91V1h2.32a2.24,2.24,0,0,1,.83.15,1.79,1.79,0,0,1,.62.4,1.77,1.77,0,0,1,.39.6A1.93,1.93,0,0,1,17.2,2.86ZM16,2.86a0.8,0.8,0,0,0-.23-0.6A0.86,0.86,0,0,0,15.17,2H14.08V3.68h1.09a0.87,0.87,0,0,0,.63-0.22A0.78,0.78,0,0,0,16,2.86Z" fill="#3a3836"/>
    <path d="M16.3,7V5.74h1.25V7H16.3Z" fill="#3a3836"/>
  </g>
</svg>
