<?xml version="1.0" encoding="utf-8"?>
<!-- Generator: Adobe Illustrator 17.1.0, SVG Export Plug-In . SVG Version: 6.00 Build 0)  -->
<!DOCTYPE svg PUBLIC "-//W3C//DTD SVG 1.1//EN" "http://www.w3.org/Graphics/SVG/1.1/DTD/svg11.dtd">
<svg version="1.1"
	 id="svg3844" xmlns:svg="http://www.w3.org/2000/svg" xmlns:cc="http://creativecommons.org/ns#" xmlns:dc="http://purl.org/dc/elements/1.1/" xmlns:rdf="http://www.w3.org/1999/02/22-rdf-syntax-ns#"
	 xmlns="http://www.w3.org/2000/svg" xmlns:xlink="http://www.w3.org/1999/xlink" x="0px" y="0px" width="23px" height="35px"
	 viewBox="0 0 23 35" enable-background="new 0 0 23 35" xml:space="preserve">
<g id="layer1" transform="translate(-298,-890.36218)">
	<g id="text4837" transform="scale(0.92169959,1.0849522)">
	</g>
	<g id="g10281">
		<rect id="rect3803" x="301" y="894.4" fill="#3A3836" fill-opacity="0" width="17" height="31"/>
		<path id="path3799" fill="#FFFFFF" stroke="#3A3836" stroke-linecap="round" stroke-linejoin="round" d="M303.2,898.9l-3.8,3.1
			c0.6,0.6,2.5,1.8,1.2,4.3s-1.9,6.1,0.6,8.6c3.1,3.1,6.9,0.6,8.1,3.1c1.2-2.5,5,0,8.1-3.1c2.5-2.5,1.9-6.1,0.6-8.6s0.6-3.7,1.2-4.3
			l-3.8-3.1c0,0-1.2,1.8-3.1,1.8s-3.1-1.8-3.1-1.8s-1.2,1.8-3.1,1.8S303.3,898.9,303.2,898.9L303.2,898.9z"/>
		<rect id="rect3803-4" x="298" y="890.4" fill="none" width="23" height="35"/>
		<g id="g10245" transform="matrix(1.2111104,0,0,1.2042548,-65.338668,-187.07768)">
			<path id="rect4807-4" fill="#FFFFFF" d="M301.7,894.7h15.7c0.5,0,0.8,0.4,0.8,0.8v5c0,0.5-0.4,0.8-0.8,0.8h-15.7
				c-0.5,0-0.8-0.4-0.8-0.8v-5C300.8,895.1,301.2,894.7,301.7,894.7z"/>
			<g id="text4837-4" transform="matrix(0.92169959,0,0,1.0849522,0,0.14679344)">
				<path id="path5308-2" fill="#3A3836" d="M339.7,825.4c-0.4,0-0.8,0.1-1.1,0.3c-0.3,0.2-0.5,0.4-0.7,0.8
					c-0.2,0.3-0.2,0.7-0.2,1.1c0,0.7,0.2,1.2,0.5,1.6c0.3,0.4,0.8,0.6,1.4,0.6c0.4,0,0.8-0.1,1.1-0.2V829c-0.2,0.1-0.4,0.1-0.5,0.1
					c-0.2,0-0.3,0.1-0.5,0.1c-0.4,0-0.7-0.1-0.9-0.4c-0.2-0.3-0.3-0.7-0.3-1.2c0-0.5,0.1-0.9,0.3-1.2c0.2-0.3,0.5-0.4,0.9-0.4
					c0.2,0,0.3,0,0.5,0.1c0.2,0,0.3,0.1,0.4,0.2l0.2-0.6C340.5,825.5,340.1,825.4,339.7,825.4z M327.1,825.5v0.6h1.2v3.6h0.7v-3.6
					h1.2v-0.6C330.3,825.5,327.1,825.5,327.1,825.5z M330.6,825.5v4.2h0.7V828h0.7l1,1.7h0.8l-1.2-1.9c0.5-0.2,0.8-0.6,0.8-1.1
					c0-0.4-0.1-0.7-0.4-0.9s-0.7-0.3-1.2-0.3C331.7,825.5,330.6,825.5,330.6,825.5z M333.9,825.5v2.7c0,0.5,0.1,0.9,0.4,1.1
					c0.3,0.3,0.7,0.4,1.2,0.4c0.3,0,0.7-0.1,0.9-0.2c0.3-0.1,0.4-0.3,0.6-0.5c0.1-0.2,0.2-0.5,0.2-0.8v-2.7h-0.7v2.6
					c0,0.7-0.3,1-1,1c-0.3,0-0.6-0.1-0.7-0.2c-0.2-0.2-0.2-0.4-0.2-0.8v-2.7C334.6,825.5,333.9,825.5,333.9,825.5z M341.3,825.5v4.2
					h0.7v-1.6l0.4-0.3l1.3,1.9h0.8l-1.6-2.4c0.3-0.4,0.8-1,1.6-1.8h-0.8l-1.1,1.3c-0.2,0.2-0.4,0.4-0.6,0.7v-2
					C341.9,825.5,341.3,825.5,341.3,825.5z M331.2,826.1h0.5c0.3,0,0.5,0.1,0.7,0.2s0.2,0.3,0.2,0.5c0,0.2-0.1,0.4-0.2,0.5
					s-0.4,0.2-0.7,0.2h-0.5V826.1z"/>
			</g>
		</g>
	</g>
</g>
</svg>
