<?xml version="1.0" encoding="utf-8"?>
<!-- Generator: Adobe Illustrator 17.1.0, SVG Export Plug-In . SVG Version: 6.00 Build 0)  -->
<!DOCTYPE svg PUBLIC "-//W3C//DTD SVG 1.1//EN" "http://www.w3.org/Graphics/SVG/1.1/DTD/svg11.dtd">
<svg version="1.1"
	 id="svg3844" xmlns:svg="http://www.w3.org/2000/svg" xmlns:cc="http://creativecommons.org/ns#" xmlns:dc="http://purl.org/dc/elements/1.1/" xmlns:rdf="http://www.w3.org/1999/02/22-rdf-syntax-ns#" sodipodi:docname="us-highway-business-1-large.svg" inkscape:version="0.91 r13725" xmlns:inkscape="http://www.inkscape.org/namespaces/inkscape" xmlns:sodipodi="http://sodipodi.sourceforge.net/DTD/sodipodi-0.dtd"
	 xmlns="http://www.w3.org/2000/svg" xmlns:xlink="http://www.w3.org/1999/xlink" x="0px" y="0px" width="21px" height="37px"
	 viewBox="0 0 21 37" enable-background="new 0 0 21 37" xml:space="preserve">
<sodipodi:namedview  fit-margin-bottom="0" inkscape:window-width="1280" inkscape:window-height="751" inkscape:snap-global="true" fit-margin-right="0" inkscape:window-x="49" inkscape:snap-smooth-nodes="false" inkscape:bbox-nodes="true" inkscape:snap-bbox="true" inkscape:object-nodes="true" inkscape:pageopacity="0.0" inkscape:document-units="px" inkscape:pageshadow="2" inkscape:current-layer="layer1" inkscape:window-y="188" inkscape:bbox-paths="false" inkscape:window-maximized="0" showgrid="true" pagecolor="#ffffff" bordercolor="#666666" id="base" inkscape:cy="18.225514" inkscape:zoom="11.313708" borderopacity="1.0" inkscape:cx="6.6045205" fit-margin-left="0" fit-margin-top="0">
	
		<inkscape:grid  type="xygrid" snapvisiblegridlinesonly="true" spacingy="0.5px" spacingx="0.5px" empspacing="2" id="grid3875" originy="-127" enabled="true" visible="true" originx="-295.50003">
		</inkscape:grid>
</sodipodi:namedview>
<g id="text4827-8" transform="matrix(1.016077,0,0,0.98417739,31.720966,5.0902439e-6)">
	<path id="path4152-9" inkscape:connector-curvature="0" fill="#3A3836" d="M-13.8,7c0-0.2,0.1-0.4,0.2-0.5c0.1-0.1,0.3-0.2,0.5-0.2
		c0.2,0,0.4,0.1,0.5,0.2c0.1,0.1,0.2,0.3,0.2,0.5c0,0.2-0.1,0.4-0.2,0.5c-0.1,0.1-0.3,0.2-0.5,0.2s-0.3-0.1-0.5-0.2
		C-13.7,7.4-13.8,7.2-13.8,7z"/>
</g>
<path id="path5855-7" inkscape:connector-curvature="0" fill="#3A3836" d="M2.4,1.6h1.7c0.8,0,1.4,0.1,1.7,0.3
	C6.2,2.2,6.4,2.5,6.4,3c0,0.3-0.1,0.6-0.3,0.8C6,4.1,5.7,4.3,5.4,4.3v0c0.4,0.1,0.7,0.2,0.9,0.5C6.5,5,6.6,5.3,6.6,5.7
	c0,0.5-0.2,0.9-0.5,1.2C5.7,7.2,5.2,7.4,4.5,7.4H2.4V1.6L2.4,1.6z M3.4,4h0.9C4.7,4,5,3.9,5.2,3.8c0.2-0.1,0.3-0.3,0.3-0.6
	c0-0.3-0.1-0.5-0.3-0.6C4.9,2.4,4.6,2.4,4.2,2.4H3.4L3.4,4L3.4,4z M3.4,4.8v1.8h1c0.4,0,0.7-0.1,0.9-0.2C5.5,6.2,5.6,6,5.6,5.6
	c0-0.3-0.1-0.5-0.3-0.7C5.1,4.8,4.8,4.8,4.3,4.8H3.4z"/>
<path id="path5857-5" inkscape:connector-curvature="0" fill="#3A3836" d="M12.3,1.6v3.8c0,0.4-0.1,0.8-0.3,1.1
	c-0.2,0.3-0.4,0.6-0.8,0.7c-0.3,0.2-0.8,0.3-1.2,0.3c-0.7,0-1.3-0.2-1.7-0.6C7.9,6.5,7.7,6,7.7,5.3V1.6h1v3.7c0,0.5,0.1,0.8,0.3,1.1
	c0.2,0.2,0.6,0.3,1,0.3c0.9,0,1.3-0.5,1.3-1.4V1.6H12.3L12.3,1.6z"/>
<path id="path5859-4" inkscape:connector-curvature="0" fill="#3A3836" d="M17.2,5.8c0,0.5-0.2,0.9-0.6,1.2
	c-0.4,0.3-0.9,0.4-1.5,0.4c-0.7,0-1.2-0.1-1.6-0.3V6.3c0.3,0.1,0.5,0.2,0.8,0.3c0.3,0.1,0.6,0.1,0.8,0.1c0.4,0,0.7-0.1,0.8-0.2
	c0.2-0.1,0.3-0.3,0.3-0.6c0-0.2-0.1-0.4-0.2-0.6c-0.2-0.2-0.5-0.3-1-0.5c-0.5-0.2-0.9-0.5-1.1-0.7c-0.2-0.3-0.3-0.6-0.3-1
	c0-0.5,0.2-0.9,0.5-1.1c0.3-0.3,0.8-0.4,1.4-0.4c0.6,0,1.1,0.1,1.7,0.4l-0.3,0.8c-0.5-0.2-1-0.3-1.4-0.3c-0.3,0-0.5,0.1-0.7,0.2
	c-0.2,0.1-0.2,0.3-0.2,0.5c0,0.2,0,0.3,0.1,0.4c0.1,0.1,0.2,0.2,0.3,0.3C15,3.8,15.3,4,15.7,4.1c0.4,0.2,0.7,0.3,0.9,0.5
	c0.2,0.2,0.3,0.3,0.4,0.5C17.1,5.3,17.2,5.5,17.2,5.8L17.2,5.8z"/>
<rect id="rect3803-4" x="0" y="0" fill="none" width="21" height="37"/>
<path id="path3799-4" sodipodi:nodetypes="ccsscssccscsc" inkscape:connector-curvature="0" fill="#FFFFFF" stroke="#3A3836" stroke-width="1" stroke-linecap="round" stroke-linejoin="round" d="
	M4.1,10.5l-3.6,3.1c0.6,0.6,2.4,1.8,1.2,4.3c-1.2,2.5-1.8,6.1,0.6,8.6c3,3.1,6.5,0.6,7.7,3.1c1.2-2.5,4.8,0,7.7-3.1
	c2.4-2.5,1.8-6.1,0.6-8.6s0.6-3.7,1.2-4.3l-3.6-3.1c0,0-1.2,1.8-3,1.8s-3-1.8-3-1.8s-1.2,1.8-3,1.8C5.3,12.3,4.1,10.5,4.1,10.5z"/>
<g>
	<path fill="#FFFFFF" d="M4.3,4.8h-1v1.8h1c0.4,0,0.7-0.1,0.9-0.2C5.5,6.2,5.6,6,5.6,5.6c0-0.3-0.1-0.5-0.3-0.7S4.8,4.8,4.3,4.8z"/>
	<path fill="#FFFFFF" d="M4.3,4C4.7,4,5,3.9,5.2,3.8c0.2-0.1,0.3-0.3,0.3-0.6c0-0.3-0.1-0.5-0.3-0.6C4.9,2.4,4.6,2.4,4.2,2.4H3.4V4
		H4.3z"/>
	<path fill="#FFFFFF" d="M20,0H1C0.4,0,0,0.4,0,1v7c0,0.6,0.4,1,1,1h19c0.6,0,1-0.4,1-1V1C21,0.4,20.6,0,20,0z M6,6.9
		C5.7,7.2,5.2,7.4,4.5,7.4H2.4V1.6h1.7c0.8,0,1.4,0.1,1.7,0.3C6.2,2.2,6.4,2.5,6.4,3c0,0.3-0.1,0.6-0.3,0.8C6,4.1,5.7,4.3,5.4,4.3v0
		c0.4,0.1,0.7,0.2,0.9,0.5C6.5,5,6.6,5.3,6.6,5.7C6.6,6.2,6.4,6.6,6,6.9z M12.3,5.3c0,0.4-0.1,0.8-0.3,1.1c-0.2,0.3-0.4,0.6-0.8,0.7
		c-0.3,0.2-0.8,0.3-1.2,0.3c-0.7,0-1.3-0.2-1.7-0.6C7.9,6.5,7.7,6,7.7,5.3V1.6h1v3.7c0,0.5,0.1,0.8,0.3,1.1c0.2,0.2,0.6,0.3,1,0.3
		c0.9,0,1.3-0.5,1.3-1.4V1.6h0.9h0V5.3z M16.6,7c-0.4,0.3-0.9,0.4-1.5,0.4c-0.7,0-1.2-0.1-1.6-0.3V6.3c0.3,0.1,0.5,0.2,0.8,0.3
		c0.3,0.1,0.6,0.1,0.8,0.1c0.4,0,0.7-0.1,0.8-0.2c0.2-0.1,0.3-0.3,0.3-0.6c0-0.2-0.1-0.4-0.2-0.6c-0.2-0.2-0.5-0.3-1-0.5
		c-0.5-0.2-0.9-0.5-1.1-0.7c-0.2-0.3-0.3-0.6-0.3-1c0-0.5,0.2-0.9,0.5-1.1c0.3-0.3,0.8-0.4,1.4-0.4c0.6,0,1.1,0.1,1.7,0.4l-0.3,0.8
		c-0.5-0.2-1-0.3-1.4-0.3c-0.3,0-0.5,0.1-0.7,0.2c-0.2,0.1-0.2,0.3-0.2,0.5c0,0.2,0,0.3,0.1,0.4c0.1,0.1,0.2,0.2,0.3,0.3
		s0.4,0.2,0.8,0.4c0.4,0.2,0.7,0.3,0.9,0.5c0.2,0.2,0.3,0.3,0.4,0.5c0.1,0.2,0.1,0.4,0.1,0.7l0,0C17.2,6.3,17,6.7,16.6,7z M18.8,7.4
		c-0.1,0.1-0.3,0.2-0.5,0.2c-0.2,0-0.4-0.1-0.5-0.2c-0.1-0.1-0.2-0.3-0.2-0.5c0-0.2,0.1-0.3,0.2-0.5c0.1-0.1,0.3-0.2,0.5-0.2
		c0.2,0,0.4,0.1,0.5,0.2c0.1,0.1,0.2,0.3,0.2,0.4C18.9,7.1,18.9,7.2,18.8,7.4z"/>
</g>
</svg>
