<?xml version="1.0" encoding="utf-8"?>
<!-- Generator: Adobe Illustrator 17.1.0, SVG Export Plug-In . SVG Version: 6.00 Build 0)  -->
<!DOCTYPE svg PUBLIC "-//W3C//DTD SVG 1.1//EN" "http://www.w3.org/Graphics/SVG/1.1/DTD/svg11.dtd">
<svg version="1.1"
	 id="svg3844" xmlns:svg="http://www.w3.org/2000/svg" xmlns:cc="http://creativecommons.org/ns#" xmlns:dc="http://purl.org/dc/elements/1.1/" xmlns:rdf="http://www.w3.org/1999/02/22-rdf-syntax-ns#"
	 xmlns="http://www.w3.org/2000/svg" xmlns:xlink="http://www.w3.org/1999/xlink" x="0px" y="0px" width="30px" height="21px"
	 viewBox="0 0 30 21" enable-background="new 0 0 30 21" xml:space="preserve">
<path id="path3799-7" fill="#FFFFFF" stroke="#3A3836" stroke-linecap="round" stroke-linejoin="round" d="M6.5,0.5l-6,3.1
	c0.6,0.6,2.4,1.8,1.2,4.3s-1.8,6.1,0.6,8.6c3,3.1,11.5,0.6,12.7,3.1c1.2-2.5,9.7,0,12.7-3.1c2.4-2.5,1.8-6.1,0.6-8.6
	c-1.2-2.5,0.6-3.7,1.2-4.3l-6-3.1c0,0-1.8,1.8-4.2,1.8s-4.2-1.8-4.2-1.8s-1.8,1.8-4.2,1.8S6.5,0.5,6.5,0.5z"/>
</svg>
