<?xml version="1.0" encoding="utf-8"?>
<!-- Generator: Adobe Illustrator 17.0.0, SVG Export Plug-In . SVG Version: 6.00 Build 0)  -->
<!DOCTYPE svg PUBLIC "-//W3C//DTD SVG 1.1//EN" "http://www.w3.org/Graphics/SVG/1.1/DTD/svg11.dtd">
<svg version="1.1"
	 id="svg3844" xmlns:dc="http://purl.org/dc/elements/1.1/" xmlns:cc="http://creativecommons.org/ns#" xmlns:rdf="http://www.w3.org/1999/02/22-rdf-syntax-ns#" xmlns:svg="http://www.w3.org/2000/svg"
	 xmlns="http://www.w3.org/2000/svg" xmlns:xlink="http://www.w3.org/1999/xlink" x="0px" y="0px" width="21px" height="37px"
	 viewBox="0 0 21 37" enable-background="new 0 0 21 37" xml:space="preserve">
<g>
	<path fill="#FFFFFF" d="M6.227,2.834C6.154,2.602,6.104,2.431,6.076,2.323C6.001,2.655,5.891,3.019,5.746,3.414L5.193,4.959h1.783
		L6.403,3.345C6.361,3.237,6.302,3.067,6.227,2.834z"/>
	<path fill="#FFFFFF" d="M20,0H1C0.448,0,0,0.448,0,1v7c0,0.552,0.448,1,1,1h19c0.552,0,1-0.448,1-1V1C21,0.448,20.552,0,20,0z
		 M7.851,7.44L7.24,5.794H4.9L4.301,7.44H3.246l2.29-5.953h1.088l2.29,5.953H7.851z M13.094,7.44H9.502l0,0V1.512h1v5.097h2.591
		V7.44z M15.526,7.44h-1.001V2.343h-1.8V1.512h4.601v0.831h-1.8V7.44z M18.126,7.346c-0.106,0.111-0.26,0.166-0.461,0.166
		c-0.201,0-0.354-0.055-0.46-0.166c-0.106-0.111-0.159-0.264-0.159-0.458c0-0.197,0.053-0.349,0.159-0.454
		c0.106-0.105,0.26-0.158,0.46-0.158c0.204,0,0.359,0.055,0.465,0.166c0.106,0.108,0.159,0.257,0.159,0.446
		C18.29,7.08,18.235,7.232,18.126,7.346z"/>
	<path fill="#FFFFFF" stroke="#3A3836" stroke-linecap="round" stroke-linejoin="round" d="M20.5,13.564L16.75,10.5
		c0,0-1.25,1.839-3.125,1.839S10.5,10.5,10.5,10.5s-1.25,1.839-3.125,1.839S4.25,10.5,4.25,10.5h0L0.5,13.564
		c0.625,0.613,2.5,1.839,1.25,4.29s-1.875,6.129,0.625,8.581C5.5,29.5,9.25,27.048,10.5,29.5c1.25-2.452,5,0,8.125-3.065
		c2.5-2.452,1.875-6.129,0.625-8.581S19.875,14.177,20.5,13.564z"/>
	<path fill="#3A3836" d="M5.536,1.488L3.246,7.44h1.055L4.9,5.794h2.34L7.851,7.44h1.063l-2.29-5.953H5.536z M5.193,4.959
		l0.553-1.545c0.145-0.395,0.255-0.758,0.331-1.091c0.028,0.108,0.078,0.278,0.151,0.511c0.075,0.233,0.134,0.403,0.176,0.511
		l0.573,1.614H5.193z"/>
	<polygon fill="#3A3836" points="10.503,1.512 9.502,1.512 9.502,7.44 9.502,7.44 13.094,7.44 13.094,6.609 10.503,6.609 	"/>
	<polygon fill="#3A3836" points="17.326,1.512 12.725,1.512 12.725,2.343 14.525,2.343 14.525,7.44 15.526,7.44 15.526,2.343
		17.326,2.343 	"/>
	<path fill="#3A3836" d="M17.666,6.276c-0.201,0-0.354,0.053-0.46,0.158c-0.106,0.105-0.159,0.257-0.159,0.454
		c0,0.195,0.053,0.347,0.159,0.458c0.106,0.111,0.26,0.166,0.46,0.166c0.201,0,0.354-0.055,0.461-0.166
		c0.109-0.114,0.163-0.266,0.163-0.458c0-0.189-0.053-0.338-0.159-0.446C18.025,6.331,17.87,6.276,17.666,6.276z"/>
</g>
</svg>
