<?xml version="1.0" encoding="utf-8"?>
<!-- Generator: Adobe Illustrator 17.1.0, SVG Export Plug-In . SVG Version: 6.00 Build 0)  -->
<!DOCTYPE svg PUBLIC "-//W3C//DTD SVG 1.1//EN" "http://www.w3.org/Graphics/SVG/1.1/DTD/svg11.dtd">
<svg version="1.1"
	 id="svg3844" xmlns:svg="http://www.w3.org/2000/svg" xmlns:cc="http://creativecommons.org/ns#" xmlns:dc="http://purl.org/dc/elements/1.1/" xmlns:rdf="http://www.w3.org/1999/02/22-rdf-syntax-ns#" sodipodi:docname="us-highway-business-2-small.svg" inkscape:version="0.91 r13725" xmlns:inkscape="http://www.inkscape.org/namespaces/inkscape" xmlns:sodipodi="http://sodipodi.sourceforge.net/DTD/sodipodi-0.dtd"
	 xmlns="http://www.w3.org/2000/svg" xmlns:xlink="http://www.w3.org/1999/xlink" x="0px" y="0px" width="25px" height="31px"
	 viewBox="0 0 25 31" enable-background="new 0 0 25 31" xml:space="preserve">
<sodipodi:namedview  fit-margin-bottom="0" inkscape:window-width="1542" inkscape:window-height="864" inkscape:snap-global="true" fit-margin-right="0" inkscape:window-x="43" inkscape:snap-smooth-nodes="false" inkscape:bbox-nodes="true" inkscape:snap-bbox="true" inkscape:object-nodes="true" inkscape:pageopacity="0.0" inkscape:document-units="px" inkscape:pageshadow="2" inkscape:current-layer="layer1" inkscape:window-y="0" inkscape:bbox-paths="false" inkscape:window-maximized="0" showgrid="true" pagecolor="#ffffff" bordercolor="#666666" id="base" inkscape:cy="17.934212" inkscape:zoom="15.999999" borderopacity="1.0" inkscape:cx="2.8850537" fit-margin-left="0" fit-margin-top="0">
	
		<inkscape:grid  type="xygrid" snapvisiblegridlinesonly="true" spacingy="0.5px" spacingx="0.5px" empspacing="2" id="grid3875" originy="-127" enabled="true" visible="true" originx="-300">
		</inkscape:grid>
</sodipodi:namedview>
<rect id="rect3803" fill="none" width="25" height="31"/>
<g>
	<g id="text4827" transform="matrix(1.016077,0,0,0.98417739,3,0)">
		<path id="path4152" inkscape:connector-curvature="0" fill="#3A3836" d="M15.3,5.6c0-0.2,0-0.3,0.1-0.4c0.1-0.1,0.2-0.1,0.4-0.1
			c0.2,0,0.3,0,0.4,0.1c0.1,0.1,0.1,0.2,0.1,0.4c0,0.2,0,0.3-0.1,0.4c-0.1,0.1-0.2,0.1-0.4,0.1s-0.3,0-0.4-0.1
			C15.3,5.9,15.3,5.8,15.3,5.6z"/>
	</g>
	<g id="text5850" transform="translate(-28.720966,-5.0902439e-6)">
		<path id="path5855" inkscape:connector-curvature="0" fill="#3A3836" d="M34.5,1.1h1.4c0.7,0,1.1,0.1,1.4,0.3
			c0.3,0.2,0.4,0.5,0.4,0.9c0,0.3-0.1,0.5-0.2,0.7c-0.1,0.2-0.4,0.3-0.6,0.4v0c0.3,0.1,0.6,0.2,0.7,0.4C37.9,3.9,38,4.2,38,4.5
			c0,0.4-0.2,0.8-0.5,1c-0.3,0.2-0.7,0.4-1.3,0.4h-1.7V1.1L34.5,1.1z M35.3,3.1H36c0.3,0,0.6-0.1,0.7-0.2C36.9,2.8,37,2.6,37,2.4
			c0-0.2-0.1-0.4-0.2-0.5c-0.2-0.1-0.4-0.2-0.8-0.2h-0.7L35.3,3.1L35.3,3.1z M35.3,3.7v1.5h0.8c0.3,0,0.6-0.1,0.7-0.2
			c0.2-0.1,0.3-0.3,0.3-0.6c0-0.3-0.1-0.4-0.3-0.6s-0.4-0.2-0.8-0.2H35.3z"/>
		<path id="path5857" inkscape:connector-curvature="0" fill="#3A3836" d="M42.8,1.1v3.1c0,0.4-0.1,0.7-0.2,0.9
			c-0.2,0.3-0.4,0.5-0.7,0.6c-0.3,0.1-0.6,0.2-1,0.2c-0.6,0-1.1-0.2-1.4-0.5s-0.5-0.8-0.5-1.3V1.1h0.8v3.1c0,0.4,0.1,0.7,0.3,0.9
			c0.2,0.2,0.5,0.3,0.9,0.3c0.7,0,1.1-0.4,1.1-1.2v-3H42.8L42.8,1.1z"/>
		<path id="path5859" inkscape:connector-curvature="0" fill="#3A3836" d="M46.8,4.6c0,0.4-0.2,0.8-0.5,1C46,5.8,45.6,6,45,6
			c-0.5,0-1-0.1-1.3-0.3V5c0.2,0.1,0.5,0.2,0.7,0.2c0.2,0.1,0.5,0.1,0.7,0.1c0.3,0,0.5-0.1,0.7-0.2C45.9,5,46,4.8,46,4.6
			c0-0.2-0.1-0.3-0.2-0.5c-0.1-0.1-0.4-0.3-0.8-0.4c-0.4-0.2-0.8-0.4-0.9-0.6c-0.2-0.2-0.3-0.5-0.3-0.8c0-0.4,0.1-0.7,0.4-1
			C44.5,1.1,44.8,1,45.3,1c0.5,0,0.9,0.1,1.4,0.3L46.5,2c-0.4-0.2-0.8-0.3-1.1-0.3c-0.3,0-0.4,0.1-0.6,0.2c-0.1,0.1-0.2,0.3-0.2,0.4
			c0,0.1,0,0.2,0.1,0.3c0.1,0.1,0.1,0.2,0.3,0.3s0.3,0.2,0.7,0.3c0.4,0.1,0.6,0.3,0.8,0.4c0.2,0.1,0.3,0.3,0.4,0.4
			C46.7,4.2,46.8,4.4,46.8,4.6L46.8,4.6z"/>
	</g>
</g>
<g>
	<path fill="#FFFFFF" d="M7.4,3.7H6.6v1.5h0.8c0.3,0,0.6-0.1,0.7-0.2c0.2-0.1,0.3-0.3,0.3-0.6c0-0.3-0.1-0.4-0.3-0.6
		S7.7,3.7,7.4,3.7z"/>
	<path fill="#FFFFFF" d="M7.3,3.1c0.3,0,0.6-0.1,0.7-0.2c0.2-0.1,0.2-0.3,0.2-0.5C8.3,2.2,8.2,2,8,1.9C7.9,1.8,7.6,1.7,7.3,1.7H6.6
		v1.3H7.3z"/>
	<path fill="#FFFFFF" d="M20,0H5C4.4,0,4,0.4,4,1v5c0,0.6,0.4,1,1,1h15c0.6,0,1-0.4,1-1V1C21,0.4,20.6,0,20,0z M8.8,5.5
		C8.5,5.8,8.1,5.9,7.5,5.9H5.8V1.1h1.4c0.7,0,1.1,0.1,1.4,0.3C9,1.6,9.1,1.9,9.1,2.3C9.1,2.6,9,2.8,8.9,3C8.7,3.2,8.5,3.3,8.3,3.3v0
		C8.6,3.4,8.8,3.6,9,3.8c0.2,0.2,0.2,0.4,0.2,0.8C9.2,5,9.1,5.3,8.8,5.5z M14,4.2c0,0.4-0.1,0.7-0.2,0.9c-0.2,0.3-0.4,0.5-0.7,0.6
		c-0.3,0.1-0.6,0.2-1,0.2c-0.6,0-1.1-0.2-1.4-0.5s-0.5-0.8-0.5-1.3V1.1H11v3.1c0,0.4,0.1,0.7,0.3,0.9c0.2,0.2,0.5,0.3,0.9,0.3
		c0.7,0,1.1-0.4,1.1-1.2v-3H14h0V4.2z M17.6,5.6C17.3,5.8,16.8,6,16.3,6s-1-0.1-1.3-0.3V5c0.2,0.1,0.5,0.2,0.7,0.2
		c0.2,0.1,0.5,0.1,0.7,0.1c0.3,0,0.5-0.1,0.7-0.2c0.1-0.1,0.2-0.3,0.2-0.5c0-0.2-0.1-0.3-0.2-0.5c-0.1-0.1-0.4-0.3-0.8-0.4
		c-0.4-0.2-0.8-0.4-0.9-0.6C15.1,2.9,15,2.6,15,2.3c0-0.4,0.1-0.7,0.4-1C15.7,1.1,16.1,1,16.6,1c0.5,0,0.9,0.1,1.4,0.3L17.7,2
		c-0.4-0.2-0.8-0.3-1.1-0.3c-0.3,0-0.4,0.1-0.6,0.2c-0.1,0.1-0.2,0.3-0.2,0.4c0,0.1,0,0.2,0.1,0.3c0.1,0.1,0.1,0.2,0.3,0.3
		s0.3,0.2,0.7,0.3c0.4,0.1,0.6,0.3,0.8,0.4c0.2,0.1,0.3,0.3,0.4,0.4c0.1,0.2,0.1,0.4,0.1,0.6l0,0C18.1,5,17.9,5.4,17.6,5.6z
		 M19.4,5.9C19.3,6,19.2,6,19,6s-0.3,0-0.4-0.1s-0.1-0.2-0.1-0.4c0-0.2,0-0.3,0.1-0.4C18.7,5,18.8,5,19,5c0.2,0,0.3,0,0.4,0.1
		c0.1,0.1,0.1,0.2,0.1,0.4C19.5,5.7,19.5,5.8,19.4,5.9z"/>
</g>
<path id="path3799-7-8" sodipodi:nodetypes="ccsscssccscsc" inkscape:connector-curvature="0" fill="#FFFFFF" stroke="#3A3836" stroke-linecap="round" stroke-linejoin="round" d="
	M5.5,8l-5,2.5C1,11,2.5,12,1.5,14S0,19,2,21c2.5,2.5,9.5,0.5,10.5,2.5c1-2,8,0,10.5-2.5c2-2,1.5-5,0.5-7s0.5-3,1-3.5l-5-2.5
	c0,0-1.5,1.5-3.5,1.5S12.5,8,12.5,8S11,9.5,9,9.5S5.5,8,5.5,8z"/>
</svg>
