<?xml version="1.0" encoding="utf-8"?>
<!-- Generator: Adobe Illustrator 17.1.0, SVG Export Plug-In . SVG Version: 6.00 Build 0)  -->
<!DOCTYPE svg PUBLIC "-//W3C//DTD SVG 1.1//EN" "http://www.w3.org/Graphics/SVG/1.1/DTD/svg11.dtd">
<svg version="1.1"
	 id="svg3844" xmlns:svg="http://www.w3.org/2000/svg" xmlns:cc="http://creativecommons.org/ns#" xmlns:dc="http://purl.org/dc/elements/1.1/" xmlns:rdf="http://www.w3.org/1999/02/22-rdf-syntax-ns#"
	 xmlns="http://www.w3.org/2000/svg" xmlns:xlink="http://www.w3.org/1999/xlink" x="0px" y="0px" width="27px" height="37px"
	 viewBox="0 0 27 37" enable-background="new 0 0 27 37" xml:space="preserve">
<path id="path3799-7" fill="#FFFFFF" stroke="#3A3836" stroke-linecap="round" stroke-linejoin="round" d="M6.3,10.5l-5.8,3.1
	c0.7,0.6,2.9,1.8,1.4,4.3c-1.4,2.5-2.2,6.1,0.7,8.6c3.6,3.1,9.4,0.6,10.8,3.1c1.4-2.5,7.2,0,10.8-3.1c2.9-2.5,2.2-6.1,0.7-8.6
	c-1.4-2.5,0.7-3.7,1.4-4.3l-5.8-3.1c0,0-1.4,1.8-3.6,1.8c-2.2,0-3.6-1.8-3.6-1.8s-1.4,1.8-3.6,1.8C7.7,12.3,6.3,10.5,6.3,10.5z"/>
<g id="text4827-8" transform="matrix(1.2192924,0,0,1.1810129,-60.89998,-184.57244)">
</g>
<g id="g10281" transform="translate(1.00002)">
	<rect id="rect3803-4" x="-1" y="0" fill="none" width="27" height="37"/>
</g>
<path id="path4146" fill="#3A3836" d="M8.6,1.5l-2.3,6h1.1L8,5.8h2.3l0.6,1.6H12l-2.3-6H8.6z M12.6,1.5v5.9h3.6V6.6h-2.6V1.5H12.6z
	 M15.8,1.5v0.8h1.8v5.1h1V2.3h1.8V1.5H15.8z M9.1,2.3c0,0.1,0.1,0.3,0.2,0.5c0.1,0.2,0.1,0.4,0.2,0.5L10,5H8.2l0.6-1.5
	C8.9,3,9.1,2.7,9.1,2.3z M20.7,6.3c-0.2,0-0.4,0.1-0.5,0.2c-0.1,0.1-0.2,0.3-0.2,0.5c0,0.2,0.1,0.3,0.2,0.5c0.1,0.1,0.3,0.2,0.5,0.2
	c0.2,0,0.4-0.1,0.5-0.2c0.1-0.1,0.2-0.3,0.2-0.5c0-0.2-0.1-0.3-0.2-0.4C21.1,6.3,20.9,6.3,20.7,6.3z"/>
<g>
	<path fill="#FFFFFF" d="M9.3,2.8C9.2,2.6,9.2,2.4,9.1,2.3C9.1,2.7,8.9,3,8.8,3.4L8.2,5H10L9.5,3.3C9.4,3.2,9.4,3.1,9.3,2.8z"/>
	<path fill="#FFFFFF" d="M23,0H4C3.4,0,3,0.4,3,1v7c0,0.6,0.4,1,1,1h19c0.6,0,1-0.4,1-1V1C24,0.4,23.6,0,23,0z M10.9,7.4l-0.6-1.6H8
		L7.4,7.4H6.3l2.3-6h1.1l2.3,6H10.9z M16.1,7.4h-3.6V1.5h1v5.1h2.6V7.4z M18.6,7.4h-1V2.3h-1.8V1.5h4.6v0.8h-1.8V7.4z M21.2,7.3
		c-0.1,0.1-0.3,0.2-0.5,0.2s-0.4-0.1-0.5-0.2c-0.1-0.1-0.2-0.3-0.2-0.5c0-0.2,0.1-0.3,0.2-0.5c0.1-0.1,0.3-0.2,0.5-0.2
		c0.2,0,0.4,0.1,0.5,0.2c0.1,0.1,0.2,0.3,0.2,0.4C21.3,7.1,21.3,7.2,21.2,7.3z"/>
</g>
</svg>
