<?xml version="1.0" encoding="utf-8"?>
<!-- Generator: Adobe Illustrator 17.1.0, SVG Export Plug-In . SVG Version: 6.00 Build 0)  -->
<!DOCTYPE svg PUBLIC "-//W3C//DTD SVG 1.1//EN" "http://www.w3.org/Graphics/SVG/1.1/DTD/svg11.dtd">
<svg version="1.1"
	 id="svg3844" xmlns:svg="http://www.w3.org/2000/svg" xmlns:cc="http://creativecommons.org/ns#" xmlns:dc="http://purl.org/dc/elements/1.1/" xmlns:rdf="http://www.w3.org/1999/02/22-rdf-syntax-ns#"
	 xmlns="http://www.w3.org/2000/svg" xmlns:xlink="http://www.w3.org/1999/xlink" x="0px" y="0px" width="21px" height="37px"
	 viewBox="0 0 21 37" enable-background="new 0 0 21 37" xml:space="preserve">
<g>
	<path fill="#FFFFFF" d="M6.2,2.8C6.2,2.6,6.1,2.4,6.1,2.3C6,2.7,5.9,3,5.7,3.4L5.2,5H7L6.4,3.3C6.4,3.2,6.3,3.1,6.2,2.8z"/>
	<path fill="#FFFFFF" d="M20,0H1C0.4,0,0,0.4,0,1v7c0,0.6,0.4,1,1,1h19c0.6,0,1-0.4,1-1V1C21,0.4,20.6,0,20,0z M7.9,7.4L7.2,5.8H4.9
		L4.3,7.4H3.2l2.3-6h1.1l2.3,6H7.9z M13.1,7.4H9.5l0,0V1.5h1v5.1h2.6L13.1,7.4L13.1,7.4z M15.5,7.4h-1V2.3h-1.8V1.5h4.6v0.8h-1.8
		V7.4z M18.1,7.3c-0.1,0.1-0.3,0.2-0.5,0.2s-0.4-0.1-0.5-0.2C17.1,7.2,17,7.1,17,6.9c0-0.2,0.1-0.3,0.2-0.5s0.3-0.2,0.5-0.2
		c0.2,0,0.4,0.1,0.5,0.2c0.1,0.1,0.2,0.3,0.2,0.4C18.3,7.1,18.2,7.2,18.1,7.3z"/>
	<path fill="#FFFFFF" stroke="#3A3836" stroke-linecap="round" stroke-linejoin="round" d="M20.5,13.6l-3.8-3.1c0,0-1.2,1.8-3.1,1.8
		s-3.1-1.8-3.1-1.8s-1.2,1.8-3.1,1.8s-3.1-1.8-3.1-1.8l0,0l-3.8,3.1c0.6,0.6,2.5,1.8,1.2,4.3s-1.9,6.1,0.6,8.6
		c3.1,3.1,6.9,0.6,8.1,3.1c1.2-2.5,5,0,8.1-3.1c2.5-2.5,1.9-6.1,0.6-8.6S19.9,14.2,20.5,13.6z"/>
	<path fill="#3A3836" d="M5.5,1.5l-2.3,6h1.1l0.6-1.6h2.3l0.6,1.6h1.1l-2.3-6L5.5,1.5L5.5,1.5z M5.2,5l0.6-1.5C5.9,3,6,2.7,6.1,2.3
		c0,0.1,0.1,0.3,0.2,0.5c0.1,0.2,0.1,0.4,0.2,0.5L7,5C7,5,5.2,5,5.2,5z"/>
	<polygon fill="#3A3836" points="10.5,1.5 9.5,1.5 9.5,7.4 9.5,7.4 13.1,7.4 13.1,6.6 10.5,6.6 	"/>
	<polygon fill="#3A3836" points="17.3,1.5 12.7,1.5 12.7,2.3 14.5,2.3 14.5,7.4 15.5,7.4 15.5,2.3 17.3,2.3 	"/>
	<path fill="#3A3836" d="M17.7,6.3c-0.2,0-0.4,0.1-0.5,0.2C17.1,6.5,17,6.7,17,6.9c0,0.2,0.1,0.3,0.2,0.5s0.3,0.2,0.5,0.2
		c0.2,0,0.4-0.1,0.5-0.2c0.1-0.1,0.2-0.3,0.2-0.5c0-0.2-0.1-0.3-0.2-0.4C18,6.3,17.9,6.3,17.7,6.3z"/>
</g>
</svg>
