<?xml version="1.0" encoding="utf-8"?>
<!-- Generator: Adobe Illustrator 17.1.0, SVG Export Plug-In . SVG Version: 6.00 Build 0)  -->
<!DOCTYPE svg PUBLIC "-//W3C//DTD SVG 1.1//EN" "http://www.w3.org/Graphics/SVG/1.1/DTD/svg11.dtd">
<svg version="1.1"
	 id="svg3844" xmlns:svg="http://www.w3.org/2000/svg" xmlns:cc="http://creativecommons.org/ns#" xmlns:dc="http://purl.org/dc/elements/1.1/" xmlns:rdf="http://www.w3.org/1999/02/22-rdf-syntax-ns#" sodipodi:docname="us-highway-business-1-large.svg" inkscape:version="0.91 r13725" xmlns:inkscape="http://www.inkscape.org/namespaces/inkscape" xmlns:sodipodi="http://sodipodi.sourceforge.net/DTD/sodipodi-0.dtd"
	 xmlns="http://www.w3.org/2000/svg" xmlns:xlink="http://www.w3.org/1999/xlink" x="0px" y="0px" width="20px" height="37px"
	 viewBox="0 0 20 37" enable-background="new 0 0 20 37" xml:space="preserve">
<sodipodi:namedview  fit-margin-bottom="0" inkscape:window-width="1280" inkscape:window-height="751" inkscape:snap-global="true" fit-margin-right="0" inkscape:window-x="49" inkscape:snap-smooth-nodes="false" inkscape:bbox-nodes="true" inkscape:snap-bbox="true" inkscape:object-nodes="true" inkscape:pageopacity="0.0" inkscape:document-units="px" inkscape:pageshadow="2" inkscape:current-layer="layer1" inkscape:window-y="188" inkscape:bbox-paths="false" inkscape:window-maximized="0" showgrid="true" pagecolor="#ffffff" bordercolor="#666666" id="base" inkscape:cy="18.225514" inkscape:zoom="11.313708" borderopacity="1.0" inkscape:cx="6.6045205" fit-margin-left="0" fit-margin-top="0">
	
		<inkscape:grid  type="xygrid" snapvisiblegridlinesonly="true" spacingy="0.5px" spacingx="0.5px" empspacing="2" id="grid3875" originy="-127" enabled="true" visible="true" originx="-295.50003">
		</inkscape:grid>
</sodipodi:namedview>
<g id="text5850-5" transform="translate(-35.220904,-5.0000051)">
	<g id="g10355" transform="matrix(1.2,0,0,1.2,-68.244193,-179.57244)">
		<path id="rect4807-3-8" fill="#FFFFFF" d="M87,153.8h15.8c0.5,0,0.8,0.4,0.8,0.8v5.8c0,0.5-0.4,0.8-0.8,0.8H87
			c-0.5,0-0.8-0.4-0.8-0.8v-5.8C86.2,154.2,86.5,153.8,87,153.8z"/>
		<g id="text4827-8" transform="matrix(1.016077,0,0,0.98417739,31.720966,5.0902439e-6)">
			<path id="path4152-9" inkscape:connector-curvature="0" fill="#3A3836" d="M68.1,162.1c0-0.2,0-0.3,0.1-0.4
				c0.1-0.1,0.2-0.1,0.4-0.1c0.2,0,0.3,0,0.4,0.1s0.1,0.2,0.1,0.4s0,0.3-0.1,0.4c-0.1,0.1-0.2,0.1-0.4,0.1s-0.3,0-0.4-0.1
				C68.2,162.4,68.1,162.3,68.1,162.1z"/>
		</g>
		<path id="path5855-7" inkscape:connector-curvature="0" fill="#3A3836" d="M88.2,155.1h1.4c0.7,0,1.1,0.1,1.4,0.3s0.4,0.5,0.4,0.9
			c0,0.3-0.1,0.5-0.2,0.7s-0.4,0.3-0.6,0.4l0,0c0.3,0.1,0.6,0.2,0.7,0.4c0.2,0.2,0.2,0.4,0.2,0.8c0,0.4-0.2,0.8-0.5,1
			s-0.7,0.4-1.3,0.4H88v-4.9H88.2z M89,157.1h0.8c0.3,0,0.6-0.1,0.7-0.2c0.2-0.1,0.2-0.3,0.2-0.5s-0.1-0.4-0.2-0.5
			c-0.2-0.1-0.4-0.2-0.8-0.2H89V157.1L89,157.1z M89,157.8v1.5h0.8c0.3,0,0.6-0.1,0.7-0.2c0.2-0.1,0.3-0.3,0.3-0.6s-0.1-0.4-0.3-0.6
			s-0.4-0.2-0.8-0.2L89,157.8L89,157.8z"/>
		<path id="path5857-5" inkscape:connector-curvature="0" fill="#3A3836" d="M96.5,155.1v3.1c0,0.4-0.1,0.7-0.2,0.9
			c-0.2,0.3-0.4,0.5-0.7,0.6c-0.3,0.1-0.6,0.2-1,0.2c-0.6,0-1.1-0.2-1.4-0.5s-0.5-0.8-0.5-1.3V155h0.8v3.1c0,0.4,0.1,0.7,0.3,0.9
			c0.2,0.2,0.5,0.3,0.9,0.3c0.7,0,1.1-0.4,1.1-1.2v-3H96.5L96.5,155.1z"/>
		<path id="path5859-4" inkscape:connector-curvature="0" fill="#3A3836" d="M100.5,158.7c0,0.4-0.2,0.8-0.5,1s-0.7,0.4-1.3,0.4
			c-0.5,0-1-0.1-1.3-0.3v-0.7c0.2,0.1,0.5,0.2,0.7,0.2c0.2,0.1,0.5,0.1,0.7,0.1c0.3,0,0.5-0.1,0.7-0.2c0.1-0.1,0.2-0.3,0.2-0.5
			s-0.1-0.3-0.2-0.5c-0.1-0.1-0.4-0.3-0.8-0.4c-0.4-0.2-0.8-0.4-0.9-0.6c-0.2-0.2-0.3-0.5-0.3-0.8c0-0.4,0.1-0.7,0.4-1
			c0.3-0.2,0.7-0.3,1.2-0.3s0.9,0.1,1.4,0.3l-0.3,0.6c-0.4-0.2-0.8-0.3-1.1-0.3c-0.3,0-0.4,0.1-0.6,0.2c-0.1,0.1-0.2,0.3-0.2,0.4
			c0,0.1,0,0.2,0.1,0.3s0.1,0.2,0.3,0.3s0.3,0.2,0.7,0.3c0.4,0.1,0.6,0.3,0.8,0.4c0.2,0.1,0.3,0.3,0.4,0.4
			C100.4,158.2,100.5,158.4,100.5,158.7L100.5,158.7z"/>
	</g>
</g>
<rect id="rect3803-4" x="0" y="2" fill="none" width="21" height="35"/>
<path id="path3799-4" sodipodi:nodetypes="ccsscssccscsc" inkscape:connector-curvature="0" fill="#FFFFFF" stroke="#3A3836" stroke-linecap="round" stroke-linejoin="round" d="
	M4.1,10.5l-3.6,3.1c0.6,0.6,2.4,1.8,1.2,4.3c-1.2,2.5-1.8,6.1,0.6,8.6c3,3.1,6.5,0.6,7.7,3.1c1.2-2.5,4.8,0,7.7-3.1
	c2.4-2.5,1.8-6.1,0.6-8.6s0.6-3.7,1.2-4.3l-3.6-3.1c0,0-1.2,1.8-3,1.8s-3-1.8-3-1.8s-1.2,1.8-3,1.8C5.3,12.3,4.1,10.5,4.1,10.5z"/>
</svg>
