<?xml version="1.0" encoding="utf-8"?>
<!-- Generator: Adobe Illustrator 17.1.0, SVG Export Plug-In . SVG Version: 6.00 Build 0)  -->
<!DOCTYPE svg PUBLIC "-//W3C//DTD SVG 1.1//EN" "http://www.w3.org/Graphics/SVG/1.1/DTD/svg11.dtd">
<svg version="1.1"
	 id="svg3844" xmlns:svg="http://www.w3.org/2000/svg" xmlns:cc="http://creativecommons.org/ns#" xmlns:dc="http://purl.org/dc/elements/1.1/" xmlns:rdf="http://www.w3.org/1999/02/22-rdf-syntax-ns#"
	 xmlns="http://www.w3.org/2000/svg" xmlns:xlink="http://www.w3.org/1999/xlink" x="0px" y="0px" width="32px" height="22px"
	 viewBox="0 0 32 22" enable-background="new 0 0 32 22" xml:space="preserve">
<g id="layer1" transform="translate(-299,-896.36217)">
	<path id="path3799-7" fill="#FFFFFF" stroke="#3A3836" stroke-linecap="round" stroke-linejoin="round" d="M306,898.9l-6.5,3.1
		c0.6,0.6,2.6,1.8,1.3,4.3c-1.3,2.5-1.9,6.1,0.6,8.6c3.2,3.1,12.3,0.6,13.6,3.1c1.3-2.5,10.3,0,13.6-3.1c2.6-2.5,1.9-6.1,0.6-8.6
		c-1.3-2.5,0.6-3.7,1.3-4.3l-6.5-3.1c0,0-1.9,1.8-4.5,1.8s-4.5-1.8-4.5-1.8s-1.9,1.8-4.5,1.8S306,898.9,306,898.9z"/>
</g>
</svg>
