<svg xmlns="http://www.w3.org/2000/svg" width="20" height="38" viewBox="0 0 20 38">
  <title>us-highway-truck</title>
  <path d="M0.92,0H19.08A0.88,0.88,0,0,1,20,.86V7.14a0.88,0.88,0,0,1-.92.86H0.92A0.88,0.88,0,0,1,0,7.14V0.86A0.88,0.88,0,0,1,.92,0Z" fill="#fff"/>
  <rect width="20" height="38" fill="none"/>
  <g>
    <path d="M10,27.5a0.5,0.5,0,0,1-.38-0.17A3.54,3.54,0,0,0,7,26.5a6.36,6.36,0,0,1-4.84-1.82c-2.61-2.78-1.58-5.84-.58-7.9S1.48,13.66.69,12.89a0.56,0.56,0,0,1-.17-0.4,0.52,0.52,0,0,1,.16-0.38l3-2.5A0.5,0.5,0,0,1,4,9.5H4.05a0.5,0.5,0,0,1,.34.2A3.39,3.39,0,0,0,7,11,3.65,3.65,0,0,0,9.62,9.67,0.5,0.5,0,0,1,10,9.5h0a0.5,0.5,0,0,1,.38.17A3.56,3.56,0,0,0,13,11a3.53,3.53,0,0,0,2.64-1.32,0.5,0.5,0,0,1,.7-0.07l3,2.5a0.5,0.5,0,0,1,0,.74c-0.83.8-1.91,1.85-.9,3.93s2,5.11-.58,7.9a6.31,6.31,0,0,1-4.79,1.82c-1.19.06-2.11,0.16-2.7,0.83A0.5,0.5,0,0,1,10,27.5Z" fill="#fff"/>
    <path d="M16,10l3,2.49A3.45,3.45,0,0,0,18,17c1.2,2.45,1.69,5-.5,7.33A5.87,5.87,0,0,1,13,26a4,4,0,0,0-3,1,4,4,0,0,0-3-1,5.87,5.87,0,0,1-4.5-1.67C0.31,22,.81,19.45,2,17s-0.23-3.75-1-4.51L4,10a3.86,3.86,0,0,0,3,1.5A4.13,4.13,0,0,0,10,10a4,4,0,0,0,3,1.5A4,4,0,0,0,16,10m0-1a1,1,0,0,0-.77.36A3,3,0,0,1,13,10.5a3.07,3.07,0,0,1-2.22-1.15,1,1,0,0,0-1.51,0A3.15,3.15,0,0,1,7,10.5,2.88,2.88,0,0,1,4.79,9.4,1,1,0,0,0,4.11,9H4a1,1,0,0,0-.64.23l-3,2.49A1,1,0,0,0,.3,13.21l0,0C1.1,14,2,14.82,1.11,16.56c-0.62,1.26-2.49,5.1.66,8.46A6.81,6.81,0,0,0,6.9,27H6.95a3.2,3.2,0,0,1,2.3.66,1,1,0,0,0,1.5,0,3.2,3.2,0,0,1,2.3-.66H13.1a6.81,6.81,0,0,0,5.13-2c3.16-3.36,1.29-7.2.67-8.46-0.85-1.75,0-2.58.77-3.32A1,1,0,0,0,20,12.47a1,1,0,0,0-.34-0.75l-3-2.49A1,1,0,0,0,16,9h0Z" fill="#3a3836"/>
  </g>
  <g>
    <path d="M2.68,1.85V7H1.73V1.85h-1V1H3.68V1.85h-1Z" fill="#3a3836"/>
    <path d="M6.62,7L5.83,4.53H5.3V7H4.36V1H5.88a1.47,1.47,0,0,1,1.18.42A2.07,2.07,0,0,1,7.4,2.76a2.79,2.79,0,0,1-.14.95,1.11,1.11,0,0,1-.55.61L7.6,7h-1ZM6.46,2.76a2.91,2.91,0,0,0,0-.35,1,1,0,0,0-.08-0.29,0.45,0.45,0,0,0-.18-0.2,0.57,0.57,0,0,0-.3-0.07H5.3V3.68H5.88a0.58,0.58,0,0,0,.3-0.07,0.45,0.45,0,0,0,.18-0.2,1,1,0,0,0,.08-0.29A2.93,2.93,0,0,0,6.46,2.76Z" fill="#3a3836"/>
    <path d="M11.29,5.51a1.68,1.68,0,0,1-.11.62,1.46,1.46,0,0,1-.3.48A1.49,1.49,0,0,1,9.77,7a1.5,1.5,0,0,1-1.12-.44,1.45,1.45,0,0,1-.3-0.48,1.67,1.67,0,0,1-.11-0.62V1H9.19V5.56A0.62,0.62,0,0,0,9.36,6a0.59,0.59,0,0,0,.42.16A0.58,0.58,0,0,0,10.19,6a0.63,0.63,0,0,0,.17-0.48V1h0.94V5.51Z" fill="#3a3836"/>
    <path d="M15.22,5.39a2.33,2.33,0,0,1-.14.73,1.39,1.39,0,0,1-.35.54,1.31,1.31,0,0,1-.45.29,1.66,1.66,0,0,1-.59.09A1.48,1.48,0,0,1,13,6.9a1.54,1.54,0,0,1-.46-0.37,1.34,1.34,0,0,1-.24-0.39,2.48,2.48,0,0,1-.13-0.52,5.83,5.83,0,0,1-.06-0.7q0-.4,0-0.93t0-.93a5.83,5.83,0,0,1,.06-0.7,2.48,2.48,0,0,1,.13-0.52,1.34,1.34,0,0,1,.24-0.39A1.54,1.54,0,0,1,13,1.08a1.47,1.47,0,0,1,.7-0.15,1.66,1.66,0,0,1,.6.1,1.35,1.35,0,0,1,.45.29,1.33,1.33,0,0,1,.34.53,2.42,2.42,0,0,1,.13.73H14.28a2.23,2.23,0,0,0,0-.32A0.68,0.68,0,0,0,14.13,2,0.5,0.5,0,0,0,14,1.84a0.56,0.56,0,0,0-.27-0.06,0.52,0.52,0,0,0-.27.06,0.53,0.53,0,0,0-.17.16,1.49,1.49,0,0,0-.18.69Q13,3.17,13,4t0,1.29a1.49,1.49,0,0,0,.18.69,0.53,0.53,0,0,0,.17.16,0.52,0.52,0,0,0,.27.06A0.56,0.56,0,0,0,14,6.14,0.5,0.5,0,0,0,14.13,6a0.77,0.77,0,0,0,.1-0.27,2.24,2.24,0,0,0,0-.32h0.94Z" fill="#3a3836"/>
    <path d="M18.37,7l-1-2.46-0.45.92V7H16V1h0.94V3.81L18.25,1H19.2L18,3.48,19.38,7h-1Z" fill="#3a3836"/>
  </g>
</svg>
