<?xml version="1.0" encoding="utf-8"?>
<!-- Generator: Adobe Illustrator 17.1.0, SVG Export Plug-In . SVG Version: 6.00 Build 0)  -->
<!DOCTYPE svg PUBLIC "-//W3C//DTD SVG 1.1//EN" "http://www.w3.org/Graphics/SVG/1.1/DTD/svg11.dtd">
<svg version="1.1"
	 id="svg3844" xmlns:svg="http://www.w3.org/2000/svg" xmlns:cc="http://creativecommons.org/ns#" xmlns:dc="http://purl.org/dc/elements/1.1/" xmlns:rdf="http://www.w3.org/1999/02/22-rdf-syntax-ns#"
	 xmlns="http://www.w3.org/2000/svg" xmlns:xlink="http://www.w3.org/1999/xlink" x="0px" y="0px" width="27px" height="37px"
	 viewBox="0 0 27 37" enable-background="new 0 0 27 37" xml:space="preserve">
<g id="text4827" transform="matrix(1.016077,0,0,0.98417739,31.720966,5.0902439e-6)">
	<path id="path4152" fill="#3A3836" d="M-10.8,7c0-0.2,0.1-0.4,0.2-0.5c0.1-0.1,0.3-0.2,0.5-0.2c0.2,0,0.4,0.1,0.5,0.2
		C-9.7,6.7-9.6,6.8-9.6,7c0,0.2-0.1,0.4-0.2,0.5c-0.1,0.1-0.3,0.2-0.5,0.2s-0.3-0.1-0.5-0.2C-10.8,7.4-10.8,7.2-10.8,7z"/>
</g>
<path id="path5855" fill="#3A3836" d="M5.4,1.6h1.7c0.8,0,1.4,0.1,1.7,0.3C9.2,2.2,9.4,2.5,9.4,3c0,0.3-0.1,0.6-0.3,0.8
	C9,4.1,8.7,4.3,8.4,4.3v0c0.4,0.1,0.7,0.2,0.9,0.5C9.5,5,9.6,5.3,9.6,5.7c0,0.5-0.2,0.9-0.5,1.2C8.7,7.2,8.2,7.4,7.5,7.4H5.4V1.6
	L5.4,1.6z M6.4,4h0.9C7.7,4,8,3.9,8.2,3.8c0.2-0.1,0.3-0.3,0.3-0.6c0-0.3-0.1-0.5-0.3-0.6C7.9,2.4,7.6,2.4,7.2,2.4H6.4L6.4,4L6.4,4z
	 M6.4,4.8v1.8h1c0.4,0,0.7-0.1,0.9-0.2C8.5,6.2,8.6,6,8.6,5.6c0-0.3-0.1-0.5-0.3-0.7S7.8,4.8,7.3,4.8H6.4z"/>
<path id="path5857" fill="#3A3836" d="M15.3,1.6v3.8c0,0.4-0.1,0.8-0.3,1.1c-0.2,0.3-0.4,0.6-0.8,0.7c-0.3,0.2-0.8,0.3-1.2,0.3
	c-0.7,0-1.3-0.2-1.7-0.6S10.7,6,10.7,5.3V1.6h1v3.7c0,0.5,0.1,0.8,0.3,1.1c0.2,0.2,0.6,0.3,1,0.3c0.9,0,1.3-0.5,1.3-1.4V1.6H15.3
	L15.3,1.6z"/>
<path id="path5859" fill="#3A3836" d="M20.2,5.8c0,0.5-0.2,0.9-0.6,1.2c-0.4,0.3-0.9,0.4-1.5,0.4c-0.7,0-1.2-0.1-1.6-0.3V6.3
	c0.3,0.1,0.5,0.2,0.8,0.3c0.3,0.1,0.6,0.1,0.8,0.1c0.4,0,0.7-0.1,0.8-0.2c0.2-0.1,0.3-0.3,0.3-0.6c0-0.2-0.1-0.4-0.2-0.6
	c-0.2-0.2-0.5-0.3-1-0.5c-0.5-0.2-0.9-0.5-1.1-0.7c-0.2-0.3-0.3-0.6-0.3-1c0-0.5,0.2-0.9,0.5-1.1c0.3-0.3,0.8-0.4,1.4-0.4
	c0.6,0,1.1,0.1,1.7,0.4l-0.3,0.8c-0.5-0.2-1-0.3-1.4-0.3c-0.3,0-0.5,0.1-0.7,0.2c-0.2,0.1-0.2,0.3-0.2,0.5c0,0.2,0,0.3,0.1,0.4
	c0.1,0.1,0.2,0.2,0.3,0.3C18,3.8,18.3,4,18.7,4.1c0.4,0.2,0.7,0.3,0.9,0.5c0.2,0.2,0.3,0.3,0.4,0.5C20.1,5.3,20.2,5.5,20.2,5.8
	L20.2,5.8z"/>
<path id="path3799" fill="#FFFFFF" stroke="#3A3836" stroke-linecap="round" stroke-linejoin="round" d="M5.4,10.5l-4.9,3.1
	c0.8,0.6,3.2,1.8,1.6,4.3s-2.4,6.1,0.8,8.6c4.1,3.1,8.9,0.6,10.6,3.1c1.6-2.5,6.5,0,10.6-3.1c3.2-2.5,2.4-6.1,0.8-8.6
	s0.8-3.7,1.6-4.3l-4.9-3.1c0,0-1.6,1.8-4.1,1.8s-4.1-1.8-4.1-1.8s-1.6,1.8-4.1,1.8C7,12.3,5.4,10.5,5.4,10.5L5.4,10.5z"/>
<rect id="rect3803-4" x="0" y="0" opacity="0" fill="none" width="27" height="37"/>
<g>
	<path fill="#FFFFFF" d="M7.3,4.8h-1v1.8h1c0.4,0,0.7-0.1,0.9-0.2C8.5,6.2,8.6,6,8.6,5.6c0-0.3-0.1-0.5-0.3-0.7S7.8,4.8,7.3,4.8z"/>
	<path fill="#FFFFFF" d="M7.3,4C7.7,4,8,3.9,8.2,3.8c0.2-0.1,0.3-0.3,0.3-0.6c0-0.3-0.1-0.5-0.3-0.6C7.9,2.4,7.6,2.4,7.2,2.4H6.4V4
		H7.3z"/>
	<path fill="#FFFFFF" d="M23,0H4C3.4,0,3,0.4,3,1v7c0,0.6,0.4,1,1,1h19c0.6,0,1-0.4,1-1V1C24,0.4,23.6,0,23,0z M9,6.9
		C8.7,7.2,8.2,7.4,7.5,7.4H5.4V1.6h1.7c0.8,0,1.4,0.1,1.7,0.3C9.2,2.2,9.4,2.5,9.4,3c0,0.3-0.1,0.6-0.3,0.8C9,4.1,8.7,4.3,8.4,4.3v0
		c0.4,0.1,0.7,0.2,0.9,0.5C9.5,5,9.6,5.3,9.6,5.7C9.6,6.2,9.4,6.6,9,6.9z M15.3,5.3c0,0.4-0.1,0.8-0.3,1.1c-0.2,0.3-0.4,0.6-0.8,0.7
		c-0.3,0.2-0.8,0.3-1.2,0.3c-0.7,0-1.3-0.2-1.7-0.6c-0.4-0.4-0.6-0.9-0.6-1.6V1.6h1v3.7c0,0.5,0.1,0.8,0.3,1.1
		c0.2,0.2,0.6,0.3,1,0.3c0.9,0,1.3-0.5,1.3-1.4V1.6h0.9h0V5.3z M19.6,7c-0.4,0.3-0.9,0.4-1.5,0.4c-0.7,0-1.2-0.1-1.6-0.3V6.3
		c0.3,0.1,0.5,0.2,0.8,0.3c0.3,0.1,0.6,0.1,0.8,0.1c0.4,0,0.7-0.1,0.8-0.2c0.2-0.1,0.3-0.3,0.3-0.6c0-0.2-0.1-0.4-0.2-0.6
		c-0.2-0.2-0.5-0.3-1-0.5c-0.5-0.2-0.9-0.5-1.1-0.7c-0.2-0.3-0.3-0.6-0.3-1c0-0.5,0.2-0.9,0.5-1.1c0.3-0.3,0.8-0.4,1.4-0.4
		c0.6,0,1.1,0.1,1.7,0.4l-0.3,0.8c-0.5-0.2-1-0.3-1.4-0.3c-0.3,0-0.5,0.1-0.7,0.2c-0.2,0.1-0.2,0.3-0.2,0.5c0,0.2,0,0.3,0.1,0.4
		c0.1,0.1,0.2,0.2,0.3,0.3s0.4,0.2,0.8,0.4c0.4,0.2,0.7,0.3,0.9,0.5c0.2,0.2,0.3,0.3,0.4,0.5c0.1,0.2,0.1,0.4,0.1,0.7l0,0
		C20.2,6.3,20,6.7,19.6,7z M21.8,7.4c-0.1,0.1-0.3,0.2-0.5,0.2c-0.2,0-0.4-0.1-0.5-0.2c-0.1-0.1-0.2-0.3-0.2-0.5
		c0-0.2,0.1-0.3,0.2-0.5c0.1-0.1,0.3-0.2,0.5-0.2c0.2,0,0.4,0.1,0.5,0.2c0.1,0.1,0.2,0.3,0.2,0.4C21.9,7.1,21.9,7.2,21.8,7.4z"/>
</g>
</svg>
