<?xml version="1.0" encoding="utf-8"?>
<!-- Generator: Adobe Illustrator 17.1.0, SVG Export Plug-In . SVG Version: 6.00 Build 0)  -->
<!DOCTYPE svg PUBLIC "-//W3C//DTD SVG 1.1//EN" "http://www.w3.org/Graphics/SVG/1.1/DTD/svg11.dtd">
<svg version="1.1"
	 id="svg3844" xmlns:svg="http://www.w3.org/2000/svg" xmlns:cc="http://creativecommons.org/ns#" xmlns:dc="http://purl.org/dc/elements/1.1/" xmlns:rdf="http://www.w3.org/1999/02/22-rdf-syntax-ns#" sodipodi:docname="us-interstate-duplex-5-large.svg" inkscape:version="0.91 r13725" xmlns:inkscape="http://www.inkscape.org/namespaces/inkscape" xmlns:sodipodi="http://sodipodi.sourceforge.net/DTD/sodipodi-0.dtd"
	 xmlns="http://www.w3.org/2000/svg" xmlns:xlink="http://www.w3.org/1999/xlink" x="0px" y="0px" width="43px" height="29px"
	 viewBox="0 0 43 29" enable-background="new 0 0 43 29" xml:space="preserve">
<sodipodi:namedview  fit-margin-bottom="0" inkscape:window-width="1280" inkscape:window-height="751" inkscape:showpageshadow="true" inkscape:snap-nodes="true" fit-margin-right="0" inkscape:snap-bbox-edge-midpoints="false" inkscape:snap-intersection-paths="false" inkscape:snap-bbox-midpoints="false" inkscape:window-x="25" inkscape:snap-smooth-nodes="true" inkscape:bbox-nodes="true" inkscape:snap-bbox="true" inkscape:object-nodes="true" inkscape:object-paths="true" inkscape:pageopacity="0" inkscape:guide-bbox="true" inkscape:document-units="px" inkscape:pageshadow="2" inkscape:current-layer="svg3844" inkscape:window-y="80" inkscape:bbox-paths="true" inkscape:window-maximized="0" guidetolerance="10" gridtolerance="10" showgrid="true" pagecolor="#ffffff" objecttolerance="10" bordercolor="#666666" id="namedview5316" showguides="false" inkscape:cy="10.206235" inkscape:zoom="11.313709" borderopacity="1" inkscape:cx="17.211132" borderlayer="true" fit-margin-left="0" fit-margin-top="0">
	
		<inkscape:grid  type="xygrid" snapvisiblegridlinesonly="true" spacingy="0.5px" spacingx="0.5px" empspacing="2" id="grid5480" originy="-2" enabled="true" visible="true" originx="3">
		</inkscape:grid>
	<sodipodi:guide  orientation="1,0" id="guide5601" position="17.000097,16.49839"></sodipodi:guide>
	<sodipodi:guide  orientation="1,0" id="guide5603" position="7.5000968,16.49839"></sodipodi:guide>
	<sodipodi:guide  orientation="0,1" id="guide9216" position="26.500097,13.99839"></sodipodi:guide>
</sodipodi:namedview>
<path id="path9494-5-2" inkscape:connector-curvature="0" fill="#FFFFFF" d="M4.1,0.7L3.5,1.3c0,0-0.6,0.7-1.3,1.7S1,5.5,1,7v4.7
	c0,3.6,1.3,6.4,3.3,8.4s4.6,3.3,7.1,4.2C16.5,26,21.5,26,21.5,26s5,0,10.1-1.7c2.5-0.9,5.1-2.2,7.1-4.2s3.3-4.8,3.3-8.4V7
	c0-1.5-0.7-2.9-1.3-3.9s-1.3-1.7-1.3-1.7l-0.5-0.6l-0.7,0.4c0,0-4.5,2.3-8.1,2.3c-3.6,0-8.1-2.3-8.1-2.3l-0.5-0.2L21,1.1
	c0,0-4.5,2.3-8.1,2.3S4.8,1.1,4.8,1.1L4.1,0.7z M21.5,3.1c0.7,0.3,4.5,2.3,8.6,2.3c3.8,0,7.2-1.7,8.3-2.2c0.2,0.2,0.3,0.3,0.6,0.9
	c0.5,0.9,1,2,1,2.9v4.7c0,3.1-1.1,5.3-2.8,7s-4,2.9-6.3,3.7C26.2,24,21.5,24,21.5,24s-4.7,0-9.4-1.6c-2.3-0.8-4.6-2-6.3-3.7
	S3,14.8,3,11.7V7c0-0.9,0.5-2,1-2.9c0.3-0.5,0.4-0.6,0.6-0.9c1,0.5,4.5,2.2,8.3,2.2C17,5.4,20.8,3.4,21.5,3.1z"/>
<path id="path9494-5" sodipodi:nodetypes="cccccc" inkscape:connector-curvature="0" fill="#5396C7" d="M2,11.7
	C2,25,21.5,25,21.5,25S41,25,41,11.7V7H2V11.7z"/>
<path id="path9499-8" sodipodi:nodetypes="ccscsccc" inkscape:connector-curvature="0" fill="#E97474" d="M2,7c0-2.4,2.3-5,2.3-5
	s4.6,2.4,8.6,2.4c4,0,8.6-2.4,8.6-2.4s4.6,2.4,8.6,2.4c4,0,8.6-2.4,8.6-2.4S41,4.6,41,7H2z"/>
<rect id="rect5252" x="2" y="7" fill="#FFFFFF" width="39" height="1"/>
<rect id="rect4161" fill="none" width="43" height="29"/>
</svg>
