<svg xmlns="http://www.w3.org/2000/svg" width="20" height="22" viewBox="0 0 20 22">
  <title>us-interstate</title>
  <path d="M17,1a7.74,7.74,0,0,1,2,4V7c0,9.28-9,12-9,12S1,16.37,1,7V5A7.41,7.41,0,0,1,3,1,4.07,4.07,0,0,0,6.53,3,4,4,0,0,0,10,1a4,4,0,0,0,3.46,2A4.08,4.08,0,0,0,17,1m0-1H16.85a1,1,0,0,0-.74.52A3.07,3.07,0,0,1,13.46,2,2.94,2.94,0,0,1,10.89.54,1,1,0,0,0,10,0h0a1,1,0,0,0-.89.55A3,3,0,0,1,6.53,2,3.07,3.07,0,0,1,3.85.53,1,1,0,0,0,3.12,0H3a1,1,0,0,0-.7.28A8.3,8.3,0,0,0,0,5V7C0,17,9.62,19.93,9.72,20a1,1,0,0,0,.57,0c0.1,0,9.71-3,9.71-12.93V5A8.56,8.56,0,0,0,17.71.3,1,1,0,0,0,17,0h0Z" fill="#fff"/>
  <path d="M1,7c0,9.34,9,12,9,12s9-2.69,9-12V6H1V7Z" fill="#226c99"/>
  <path d="M1,5A7.41,7.41,0,0,1,3,1,4.07,4.07,0,0,0,6.53,3,4,4,0,0,0,10,1a4,4,0,0,0,3.46,2A4.08,4.08,0,0,0,17,1a7.74,7.74,0,0,1,2,4H1Z" fill="#cc526f"/>
  <rect x="1" y="5" width="18" height="1" fill="#fff"/>
  <rect width="20" height="22" fill="none"/>
</svg>
