<svg xmlns="http://www.w3.org/2000/svg" width="26" height="22" viewBox="0 0 26 22">
  <title>us-interstate</title>
  <path d="M23,1a5.44,5.44,0,0,1,2,4V7c0,9.27-12,12-12,12S1,16.34,1,7V5A5.4,5.4,0,0,1,3,1,6.8,6.8,0,0,0,8,3a7,7,0,0,0,5-2,7.06,7.06,0,0,0,5,2,6.91,6.91,0,0,0,5-2M3,0a1,1,0,0,0-.58.19A6.38,6.38,0,0,0,0,5V7c0,4.18,2.24,7.76,6.48,10.35A22.94,22.94,0,0,0,12.78,20L13,20l0.22,0a23.17,23.17,0,0,0,6.3-2.64C23.76,14.74,26,11.17,26,7V5A6.42,6.42,0,0,0,23.58.19a1,1,0,0,0-1.33.15A5.9,5.9,0,0,1,18,2,6,6,0,0,1,13.74.33,1,1,0,0,0,13,0h0a1,1,0,0,0-.74.33A6,6,0,0,1,8,2,5.9,5.9,0,0,1,3.76.35,1,1,0,0,0,3,0H3Z" fill="#fff"/>
  <path d="M1,7c0,9.32,12,12,12,12S25,16.25,25,7V6H1V7Z" fill="#226c99"/>
  <path d="M1,5A5.39,5.39,0,0,1,3,1,6.8,6.8,0,0,0,8,3a7,7,0,0,0,5-2,7.06,7.06,0,0,0,5,2,6.91,6.91,0,0,0,5-2,5.43,5.43,0,0,1,2,4H1Z" fill="#cc526f"/>
  <rect x="1" y="5" width="24" height="1" fill="#fff"/>
  <rect width="26" height="22" fill="none"/>
</svg>
