<?xml version="1.0" encoding="utf-8"?>
<svg version="1.1"
	 id="svg3844" xmlns:dc="http://purl.org/dc/elements/1.1/" xmlns:cc="http://creativecommons.org/ns#" xmlns:rdf="http://www.w3.org/1999/02/22-rdf-syntax-ns#" xmlns:svg="http://www.w3.org/2000/svg" xmlns:sodipodi="http://sodipodi.sourceforge.net/DTD/sodipodi-0.dtd" xmlns:inkscape="http://www.inkscape.org/namespaces/inkscape" sodipodi:docname="us-interstate-1-small.svg" inkscape:version="0.91+devel+osxmenu r12911"
	 xmlns="http://www.w3.org/2000/svg" xmlns:xlink="http://www.w3.org/1999/xlink" x="0px" y="0px" width="19px" height="23px"
	 viewBox="-1 -1 19 23" enable-background="new -1 -1 19 23" xml:space="preserve">
<path fill="#E97474" d="M12.25,2.886c-1.75,0-3.75-2-3.75-2s-2,2-3.75,2s-3.75-2-3.75-2c-0.371,1.22-1,2-1,4h17c0-2-1-4-1-4
	S14,2.886,12.25,2.886z"/>
<path fill="#5396C7" d="M8.5,19.886c0,0,8.5-4,8.5-12v-2H0v2C0,15.886,8.5,19.886,8.5,19.886z"/>
<path fill="#FFFFFF" d="M16.894,0.439l-0.62-1.241l-0.981,0.981c-0.665,0.66-2.078,1.707-3.043,1.707c-1.09,0-2.6-1.264-3.043-1.707
	L8.5-0.528L7.793,0.179C7.13,0.838,5.716,1.886,4.75,1.886c-1.09,0-2.6-1.264-3.043-1.707L0.528-1L0.043,0.595
	C-0.048,0.894-0.16,1.173-0.28,1.468C-0.617,2.304-1,3.251-1,4.886v1v2c0,3.554,1.578,6.918,4.565,9.728
	c2.215,2.085,4.417,3.133,4.51,3.177l0.426,0.2l0.426-0.2c0.093-0.044,2.294-1.092,4.51-3.177C16.422,14.804,18,11.44,18,7.886v-2
	v-1C18,2.675,16.94,0.529,16.894,0.439z M1,0.886c0,0,2,2,3.75,2s3.75-2,3.75-2s2,2,3.75,2s3.75-2,3.75-2s1,2,1,4H0
	C0,2.886,0.629,2.106,1,0.886z M17,7.886c0,8-8.5,12-8.5,12s-8.5-4-8.5-12v-2h17V7.886z"/>
</svg>
