<?xml version="1.0" encoding="utf-8"?>
<!-- Generator: Adobe Illustrator 17.1.0, SVG Export Plug-In . SVG Version: 6.00 Build 0)  -->
<!DOCTYPE svg PUBLIC "-//W3C//DTD SVG 1.1//EN" "http://www.w3.org/Graphics/SVG/1.1/DTD/svg11.dtd">
<svg version="1.1"
	 id="svg3844" xmlns:svg="http://www.w3.org/2000/svg" xmlns:cc="http://creativecommons.org/ns#" xmlns:dc="http://purl.org/dc/elements/1.1/" xmlns:rdf="http://www.w3.org/1999/02/22-rdf-syntax-ns#" sodipodi:docname="us-interstate-duplex-4-large.svg" inkscape:version="0.91 r13725" xmlns:inkscape="http://www.inkscape.org/namespaces/inkscape" xmlns:sodipodi="http://sodipodi.sourceforge.net/DTD/sodipodi-0.dtd"
	 xmlns="http://www.w3.org/2000/svg" xmlns:xlink="http://www.w3.org/1999/xlink" x="0px" y="0px" width="40px" height="29px"
	 viewBox="0 0 40 29" enable-background="new 0 0 40 29" xml:space="preserve">
<sodipodi:namedview  fit-margin-bottom="0" inkscape:window-width="1548" inkscape:window-height="955" inkscape:showpageshadow="true" inkscape:snap-nodes="true" fit-margin-right="0" inkscape:snap-bbox-edge-midpoints="true" inkscape:snap-intersection-paths="false" inkscape:window-x="47" inkscape:snap-smooth-nodes="true" inkscape:snap-bbox="true" inkscape:object-nodes="true" inkscape:object-paths="true" inkscape:pageopacity="0" inkscape:guide-bbox="true" inkscape:document-units="px" inkscape:pageshadow="2" inkscape:current-layer="svg3844" inkscape:window-y="47" inkscape:bbox-paths="true" inkscape:window-maximized="0" guidetolerance="10" gridtolerance="10" showgrid="true" pagecolor="#ffffff" objecttolerance="10" bordercolor="#666666" id="namedview5316" showguides="false" inkscape:cy="9.0843092" inkscape:zoom="11.313709" borderopacity="1" inkscape:cx="-7.5019871" borderlayer="true" fit-margin-left="0" fit-margin-top="0">
	
		<inkscape:grid  type="xygrid" snapvisiblegridlinesonly="true" spacingy="0.5px" spacingx="0.5px" empspacing="2" id="grid5480" originy="0.9983899" enabled="true" visible="true" originx="4.000001">
		</inkscape:grid>
	<sodipodi:guide  orientation="1,0" id="guide5601" position="14.000001,17.49839"></sodipodi:guide>
	<sodipodi:guide  orientation="1,0" id="guide5603" position="4.500001,17.49839"></sodipodi:guide>
	<sodipodi:guide  orientation="0,1" id="guide9216" position="23.500001,14.99839"></sodipodi:guide>
</sodipodi:namedview>
<path id="path9494-5-2" inkscape:connector-curvature="0" fill="#FFFFFF" d="M3.9,0.7L3.3,1.4C3.3,1.4,1,4,1,7v4.7
	c0,3.3,1.3,5.9,3.1,7.9s4.2,3.3,6.5,4.3c4.7,1.9,9.3,2.2,9.3,2.2l0.1,0l0.1,0c0,0,4.6-0.3,9.3-2.2c2.3-0.9,4.7-2.3,6.5-4.3
	c1.8-2,3.1-4.6,3.1-7.9V7c0-3-2.3-5.6-2.3-5.6l-0.5-0.7l-0.7,0.4c0,0-4.2,2.3-7.4,2.3s-7.4-2.3-7.4-2.3L20,0.8l-0.5,0.3
	c0,0-4.2,2.3-7.4,2.3S4.6,1.1,4.6,1.1L3.9,0.7z M20,3.1c0.7,0.4,4.2,2.3,7.9,2.3c3.5,0,6.5-1.6,7.6-2.1C36,4,37,5.6,37,7v4.7
	c0,2.8-1,4.8-2.5,6.5s-3.7,2.9-5.8,3.8c-4.3,1.7-8.5,2-8.6,2c-0.1,0-4.4-0.3-8.6-2c-2.2-0.9-4.3-2.1-5.8-3.8C4,16.5,3,14.5,3,11.7V7
	c0-1.4,1-3,1.5-3.7c1.1,0.6,4.1,2.1,7.6,2.1C15.8,5.4,19.3,3.5,20,3.1z"/>
<rect id="rect3933-5" x="2" y="4.4" fill="#3A3836" fill-opacity="0" width="36" height="20.6"/>
<path id="path9494-5" sodipodi:nodetypes="cccccc" inkscape:connector-curvature="0" fill="#5396C7" d="M2,11.7C2,23.8,20,25,20,25
	s18-1.2,18-13.3V7H2V11.7z"/>
<path id="path9499-8" sodipodi:nodetypes="ccscsccc" inkscape:connector-curvature="0" fill="#E97474" d="M2,7c0-2.4,2.1-5,2.1-5
	s4.2,2.4,7.9,2.4C15.8,4.4,20,2,20,2s4.2,2.4,7.9,2.4c3.7,0,7.9-2.4,7.9-2.4S38,4.6,38,7H2z"/>
<rect id="rect5252" x="2" y="7" fill="#FFFFFF" width="36" height="1"/>
<rect id="rect4161" fill="none" width="40" height="29"/>
</svg>
