<?xml version="1.0" encoding="UTF-8" standalone="no"?>
<!-- Created with Inkscape (http://www.inkscape.org/) -->

<svg
   xmlns:dc="http://purl.org/dc/elements/1.1/"
   xmlns:cc="http://creativecommons.org/ns#"
   xmlns:rdf="http://www.w3.org/1999/02/22-rdf-syntax-ns#"
   xmlns:svg="http://www.w3.org/2000/svg"
   xmlns="http://www.w3.org/2000/svg"
   xmlns:sodipodi="http://sodipodi.sourceforge.net/DTD/sodipodi-0.dtd"
   xmlns:inkscape="http://www.inkscape.org/namespaces/inkscape"
   version="1.1"
   width="36"
   height="25"
   id="svg3844"
   inkscape:version="0.91 r13725"
   sodipodi:docname="us-interstate-duplex-5-small.svg"
   viewBox="0 0 36 25">
  <sodipodi:namedview
     pagecolor="#ffffff"
     bordercolor="#666666"
     borderopacity="1"
     objecttolerance="10"
     gridtolerance="10"
     guidetolerance="10"
     inkscape:pageopacity="0"
     inkscape:pageshadow="2"
     inkscape:window-width="1280"
     inkscape:window-height="751"
     id="namedview5316"
     showgrid="true"
     inkscape:zoom="16"
     inkscape:cx="14.419703"
     inkscape:cy="7.7607911"
     inkscape:window-x="78"
     inkscape:window-y="107"
     inkscape:window-maximized="0"
     inkscape:current-layer="svg3844"
     inkscape:snap-bbox="true"
     showguides="false"
     inkscape:guide-bbox="true"
     inkscape:object-paths="true"
     fit-margin-top="0"
     fit-margin-left="0"
     fit-margin-right="0"
     fit-margin-bottom="0"
     inkscape:snap-intersection-paths="false"
     inkscape:object-nodes="true"
     borderlayer="true"
     inkscape:bbox-paths="true"
     inkscape:snap-bbox-edge-midpoints="true"
     inkscape:snap-nodes="true"
     inkscape:snap-smooth-nodes="true"
     inkscape:document-units="px"
     inkscape:showpageshadow="true">
    <inkscape:grid
       type="xygrid"
       id="grid5480"
       empspacing="2"
       visible="true"
       enabled="true"
       snapvisiblegridlinesonly="true"
       spacingx="0.5px"
       spacingy="0.5px"
       originx="2.9999999"
       originy="-1" />
    <sodipodi:guide
       orientation="1,0"
       position="17.000097,17.49839"
       id="guide5601" />
    <sodipodi:guide
       orientation="1,0"
       position="7.5000967,17.49839"
       id="guide5603" />
    <sodipodi:guide
       position="26.500097,14.99839"
       orientation="0,1"
       id="guide9216" />
  </sodipodi:namedview>
  <defs
     id="defs3846" />
  <metadata
     id="metadata3849">
    <rdf:RDF>
      <cc:Work
         rdf:about="">
        <dc:format>image/svg+xml</dc:format>
        <dc:type
           rdf:resource="http://purl.org/dc/dcmitype/StillImage" />
        <dc:title></dc:title>
      </cc:Work>
    </rdf:RDF>
  </metadata>
  <path
     style="color:#000000;font-style:normal;font-variant:normal;font-weight:normal;font-stretch:normal;font-size:medium;line-height:normal;font-family:sans-serif;text-indent:0;text-align:start;text-decoration:none;text-decoration-line:none;text-decoration-style:solid;text-decoration-color:#000000;letter-spacing:normal;word-spacing:normal;text-transform:none;direction:ltr;block-progression:tb;writing-mode:lr-tb;baseline-shift:baseline;text-anchor:start;white-space:normal;clip-rule:nonzero;display:inline;overflow:visible;visibility:visible;opacity:1;isolation:auto;mix-blend-mode:normal;color-interpolation:sRGB;color-interpolation-filters:linearRGB;solid-color:#000000;solid-opacity:1;fill:#ffffff;fill-opacity:1;fill-rule:evenodd;stroke:none;stroke-width:2;stroke-linecap:butt;stroke-linejoin:miter;stroke-miterlimit:4;stroke-dasharray:none;stroke-dashoffset:0;stroke-opacity:1;color-rendering:auto;image-rendering:auto;shape-rendering:auto;text-rendering:auto;enable-background:accumulate"
     d="M 3.4960938,0.66210623 3.015625,1.503903 C 2.7418513,1.9822093 2.2852543,2.4708136 1.8378906,3.1679656 1.3905269,3.8651175 1,4.8025992 1,5.9999968 l 0,4 c 0,2.9924242 1.1266241,5.3483552 2.78125,7.0546882 1.6546259,1.706332 3.7976225,2.794812 5.8945312,3.515624 C 13.869599,22.011934 18,21.999997 18,21.999997 c 0,0 4.130401,0.01194 8.324219,-1.429688 2.096909,-0.720812 4.239905,-1.809292 5.894531,-3.515624 C 33.873376,15.348352 35,12.992421 35,9.9999968 l 0,-4 C 35,3.3723925 32.845703,1.3144499 32.845703,1.3144499 L 32.322266,0.75780933 31.648438,1.1171843 c 0,0 -3.700488,1.8828125 -6.589844,1.8828125 -2.889355,0 -6.589844,-1.8828125 -6.589844,-1.8828125 L 18,0.86718433 17.53125,1.1171843 c 0,0 -3.700489,1.8828125 -6.589844,1.8828125 -2.8893555,0 -6.5898435,-1.8828125 -6.5898435,-1.8828125 L 3.4960938,0.66210623 Z M 18,3.0917937 c 0.646028,0.3392441 3.7245,1.9082031 7.058594,1.9082031 3.072485,0 5.739755,-1.2631075 6.722656,-1.7578125 C 32.230231,3.8450408 33,4.9617886 33,5.9999968 l 0,4 c 0,2.5075762 -0.873376,4.2766452 -2.21875,5.6640622 -1.345374,1.387418 -3.202377,2.361438 -5.105469,3.015626 C 21.869599,19.98806 18,19.999997 18,19.999997 c 0,0 -3.869599,-0.01194 -7.675781,-1.320312 C 8.4211275,18.025497 6.5641241,17.051477 5.21875,15.664059 3.8733759,14.276642 3,12.507573 3,9.9999968 l 0,-4 C 3,5.197394 3.2020488,4.7458382 3.5214844,4.2480437 3.7044557,3.9629091 3.9753138,3.5789022 4.2246094,3.2441374 5.2122977,3.7408773 7.87329,4.9999968 10.941406,4.9999968 14.2755,4.9999968 17.353972,3.4310378 18,3.0917937 Z"
     id="path9494-5-2"
     inkscape:connector-curvature="0" />
  <rect
     style="color:#3a3836;display:inline;overflow:visible;visibility:visible;opacity:0;fill:#3a3836;fill-opacity:1;fill-rule:nonzero;stroke:none;stroke-width:1;marker:none;enable-background:accumulate"
     id="rect3933-5"
     width="31.999998"
     height="17"
     x="2.0000024"
     y="4" />
  <path
     style="fill:#5396c7;fill-opacity:1;fill-rule:evenodd;stroke:none;stroke-width:0.89973527px;stroke-linecap:butt;stroke-linejoin:miter;stroke-opacity:1"
     d="m 2,10 c -1e-7,11 15.999999,11 15.999999,11 0,0 16.000001,0 16,-11 l 0,-3.9999995 L 2,6.0000004 Z"
     id="path9494-5"
     inkscape:connector-curvature="0"
     sodipodi:nodetypes="cccccc" />
  <path
     style="fill:#e97474;fill-opacity:1;fill-rule:evenodd;stroke:none;stroke-width:0.89973527px;stroke-linecap:butt;stroke-linejoin:miter;stroke-opacity:1"
     d="M 2,6.0000004 C 2,4 3.1839243,3.2202137 3.8823521,2 c 0,0 3.7647062,2 7.0588239,2 3.294117,0 7.058823,-2 7.058823,-2 0,0 3.764706,2 7.058823,2 3.294118,0 7.058825,-2 7.058825,-2 0,0 1.882352,2 1.882352,4.0000004 z"
     id="path9499-8"
     inkscape:connector-curvature="0"
     sodipodi:nodetypes="ccscsccc" />
  <rect
     style="opacity:1;fill:#ffffff;fill-opacity:1;stroke:none;stroke-width:1;stroke-miterlimit:4;stroke-dasharray:none;stroke-opacity:1"
     id="rect5252"
     width="31.999998"
     height="0.99999958"
     x="2.0000024"
     y="6" />
  <rect
     style="opacity:0;fill:none;fill-opacity:1;stroke:none;stroke-width:2;stroke-linecap:round;stroke-linejoin:round;stroke-miterlimit:4;stroke-dasharray:none;stroke-opacity:1"
     id="rect4161"
     width="36"
     height="25"
     x="0"
     y="0" />
</svg>
