<?xml version="1.0" encoding="utf-8"?>
<!-- Generator: Adobe Illustrator 17.1.0, SVG Export Plug-In . SVG Version: 6.00 Build 0)  -->
<!DOCTYPE svg PUBLIC "-//W3C//DTD SVG 1.1//EN" "http://www.w3.org/Graphics/SVG/1.1/DTD/svg11.dtd">
<svg version="1.1"
	 id="svg3844" xmlns:svg="http://www.w3.org/2000/svg" xmlns:cc="http://creativecommons.org/ns#" xmlns:dc="http://purl.org/dc/elements/1.1/" xmlns:rdf="http://www.w3.org/1999/02/22-rdf-syntax-ns#" sodipodi:docname="us-interstate-business-3-large.svg" inkscape:version="0.91 r13725" xmlns:inkscape="http://www.inkscape.org/namespaces/inkscape" xmlns:sodipodi="http://sodipodi.sourceforge.net/DTD/sodipodi-0.dtd"
	 xmlns="http://www.w3.org/2000/svg" xmlns:xlink="http://www.w3.org/1999/xlink" x="0px" y="0px" width="35px" height="29px"
	 viewBox="0 0 35 29" enable-background="new 0 0 35 29" xml:space="preserve">
<sodipodi:namedview  fit-margin-bottom="0" inkscape:window-width="1585" inkscape:window-height="961" inkscape:showpageshadow="true" inkscape:snap-nodes="true" fit-margin-right="0" inkscape:snap-bbox-edge-midpoints="false" inkscape:snap-intersection-paths="false" inkscape:window-x="93" inkscape:snap-smooth-nodes="true" inkscape:bbox-nodes="true" inkscape:snap-bbox="true" inkscape:object-nodes="true" inkscape:object-paths="true" inkscape:pageopacity="0" inkscape:guide-bbox="true" inkscape:document-units="px" inkscape:pageshadow="2" inkscape:current-layer="svg3844" inkscape:window-y="6" inkscape:bbox-paths="true" inkscape:window-maximized="0" guidetolerance="10" gridtolerance="10" showgrid="true" pagecolor="#ffffff" objecttolerance="10" bordercolor="#666666" id="namedview5316" showguides="false" inkscape:cy="30.344042" inkscape:zoom="11.313708" borderopacity="1" inkscape:cx="-5.2699749" borderlayer="true" fit-margin-left="0" fit-margin-top="0">
	
		<inkscape:grid  type="xygrid" snapvisiblegridlinesonly="true" spacingy="0.5px" spacingx="0.5px" empspacing="2" id="grid5480" originy="3" enabled="true" visible="true" originx="7">
		</inkscape:grid>
	<sodipodi:guide  orientation="1,0" id="guide5601" position="17,19.5"></sodipodi:guide>
	<sodipodi:guide  orientation="1,0" id="guide5603" position="7.5,19.5"></sodipodi:guide>
	<sodipodi:guide  orientation="0,1" id="guide9216" position="26.5,17"></sodipodi:guide>
</sodipodi:namedview>
<path id="path9494-5-9" inkscape:connector-curvature="0" fill="#FFFFFF" d="M31.5,0.6l-0.9,0.6c0,0-3.6,2.3-6.3,2.3
	s-6.3-2.3-6.3-2.3l-0.6-0.4l-0.6,0.4c0,0-3.6,2.3-6.3,2.3S4.4,1.1,4.4,1.1L3.6,0.6L3,1.4c0,0-1.9,2.6-2,5.4c0,0,0,0,0,0l0,0v3.6
	c0,5.9,4.2,9.8,8.2,12.2s8,3.3,8,3.3l0.2,0.1l0.2-0.1c0,0,4-0.9,8-3.3c4-2.4,8.2-6.3,8.2-12.2V7V6.8l0,0c-0.1-2-1-3.8-2-5.4
	L31.5,0.6L31.5,0.6z M17.5,3.1c0.7,0.5,3.6,2.3,6.8,2.3c2.9,0,5.3-1.4,6.4-2.1c0.6,1.2,1.2,2.3,1.2,3.6V7v3.5c0,5-3.5,8.3-7.3,10.5
	c-3.5,2.1-6.9,2.9-7.2,3c-0.3-0.1-3.7-0.9-7.2-3C6.5,18.8,3,15.4,3,10.5V7c0,0,0,0,0-0.1l0,0v0c0-1.4,0.7-2.7,1.2-3.5
	C5.3,4,7.7,5.5,10.7,5.5C13.9,5.5,16.8,3.6,17.5,3.1z"/>
<path id="path9494-5" sodipodi:nodetypes="cccccc" inkscape:connector-curvature="0" fill="#7E9A4C" d="M2,10.5
	C2,21.4,17.5,25,17.5,25S33,21.4,33,10.5V6.9H2V10.5z"/>
<path id="path9499-8" sodipodi:nodetypes="ccscsccc" inkscape:connector-curvature="0" fill="#7E9A4C" d="M2,7c0-2.4,1.8-5,1.8-5
	s3.6,2.5,6.8,2.5S17.5,2,17.5,2s3.6,2.5,6.8,2.5S31.2,2,31.2,2S33,4.6,33,7H2z"/>
<rect id="rect5252" x="2" y="7" fill="#FFFFFF" width="31" height="1"/>
<rect id="rect4162" fill="none" width="35" height="29"/>
</svg>
