<?xml version="1.0" encoding="utf-8"?>
<!-- Generator: Adobe Illustrator 17.1.0, SVG Export Plug-In . SVG Version: 6.00 Build 0)  -->
<!DOCTYPE svg PUBLIC "-//W3C//DTD SVG 1.1//EN" "http://www.w3.org/Graphics/SVG/1.1/DTD/svg11.dtd">
<svg version="1.1"
	 id="svg3844" xmlns:svg="http://www.w3.org/2000/svg" xmlns:cc="http://creativecommons.org/ns#" xmlns:dc="http://purl.org/dc/elements/1.1/" xmlns:rdf="http://www.w3.org/1999/02/22-rdf-syntax-ns#" sodipodi:docname="us-interstate-2-large.svg" inkscape:version="0.91 r13725" xmlns:inkscape="http://www.inkscape.org/namespaces/inkscape" xmlns:sodipodi="http://sodipodi.sourceforge.net/DTD/sodipodi-0.dtd"
	 xmlns="http://www.w3.org/2000/svg" xmlns:xlink="http://www.w3.org/1999/xlink" x="0px" y="0px" width="29px" height="29px"
	 viewBox="0 0 29 29" enable-background="new 0 0 29 29" xml:space="preserve">
<sodipodi:namedview  fit-margin-bottom="0" inkscape:window-width="1553" inkscape:window-height="1023" inkscape:snap-nodes="true" fit-margin-right="0" inkscape:snap-bbox-edge-midpoints="false" inkscape:window-x="28" inkscape:snap-smooth-nodes="true" inkscape:bbox-nodes="true" inkscape:snap-bbox="true" inkscape:object-nodes="true" inkscape:object-paths="true" inkscape:pageopacity="0" inkscape:guide-bbox="true" inkscape:document-units="px" inkscape:pageshadow="2" inkscape:current-layer="svg3844" inkscape:window-y="0" inkscape:bbox-paths="true" inkscape:window-maximized="0" guidetolerance="10" gridtolerance="10" showgrid="true" pagecolor="#ffffff" objecttolerance="10" bordercolor="#666666" id="namedview5316" showguides="true" inkscape:cy="16.933336" inkscape:zoom="11.313708" borderopacity="1" inkscape:cx="-1.8859351" fit-margin-left="0" fit-margin-top="0">
	
		<inkscape:grid  type="xygrid" snapvisiblegridlinesonly="true" spacingy="0.5px" spacingx="0.5px" empspacing="2" id="grid3070" originy="-1" enabled="true" visible="true" originx="8.8817842e-16">
		</inkscape:grid>
</sodipodi:namedview>
<path id="path9494-5-1" inkscape:connector-curvature="0" fill="#FFFFFF" d="M3,0.3L2.5,1.6C2.1,2.9,1,4.3,1,6.9v0.8v0.2v2.5
	c0,5.3,3.4,9.2,6.6,11.7s6.5,3.8,6.5,3.8l0.4,0.1l0.4-0.1c0,0,3.2-1.3,6.5-3.8S28,15.7,28,10.4V7.9V7.8V6.9c0-2.8-1.6-5.5-1.6-5.5
	l-0.6-1l-0.9,0.8c0,0-0.7,0.6-1.7,1.1S21,3.3,20,3.3s-2.2-0.5-3.2-1.1s-1.7-1.1-1.7-1.1l-0.6-0.5l-0.6,0.5c0,0-0.7,0.6-1.7,1.1
	S10,3.3,9,3.3S6.7,2.8,5.8,2.3S4.1,1.2,4.1,1.2L3,0.3z M14.5,3.1C14.8,3.4,15,3.6,15.8,4c1.1,0.6,2.6,1.3,4.2,1.3s3.1-0.7,4.2-1.3
	c0.5-0.3,0.5-0.4,0.9-0.6C25.5,4.3,26,5.6,26,6.9v0.8v0.2v2.5c0,4.4-2.9,7.8-5.9,10.1c-2.7,2.1-5.1,3.1-5.6,3.3
	c-0.5-0.2-2.9-1.2-5.6-3.3C5.9,18.2,3,14.8,3,10.4V7.9V7.8V6.9c0-1.6,0.4-2.5,0.9-3.5C4.2,3.7,4.3,3.7,4.8,4C5.9,4.7,7.4,5.3,9,5.3
	s3.1-0.7,4.2-1.3C14,3.6,14.2,3.4,14.5,3.1z"/>
<path id="path9494-5" sodipodi:nodetypes="cccccc" inkscape:connector-curvature="0" fill="#5396C7" d="M2,10.5
	C2,20.2,14.5,25,14.5,25S27,20.2,27,10.5V7.8H2V10.5z"/>
<path id="path9499-8" sodipodi:nodetypes="ccscsccc" inkscape:connector-curvature="0" fill="#E97474" d="M2,7c0-2.4,0.9-3.5,1.5-5
	c0,0,2.9,2.4,5.5,2.4c2.6,0,5.5-2.4,5.5-2.4s2.9,2.4,5.5,2.4c2.6,0,5.5-2.4,5.5-2.4S27,4.6,27,7H2z"/>
<rect id="rect5252" x="2" y="7" fill="#FFFFFF" width="25" height="1"/>
<rect id="rect4179" fill="none" width="29" height="29"/>
</svg>
