<?xml version="1.0" encoding="utf-8"?>
<!-- Generator: Adobe Illustrator 17.1.0, SVG Export Plug-In . SVG Version: 6.00 Build 0)  -->
<!DOCTYPE svg PUBLIC "-//W3C//DTD SVG 1.1//EN" "http://www.w3.org/Graphics/SVG/1.1/DTD/svg11.dtd">
<svg version="1.1"
	 id="svg3844" xmlns:svg="http://www.w3.org/2000/svg" xmlns:cc="http://creativecommons.org/ns#" xmlns:dc="http://purl.org/dc/elements/1.1/" xmlns:rdf="http://www.w3.org/1999/02/22-rdf-syntax-ns#" sodipodi:docname="us-interstate-business-2-small.svg" inkscape:version="0.91 r13725" xmlns:inkscape="http://www.inkscape.org/namespaces/inkscape" xmlns:sodipodi="http://sodipodi.sourceforge.net/DTD/sodipodi-0.dtd"
	 xmlns="http://www.w3.org/2000/svg" xmlns:xlink="http://www.w3.org/1999/xlink" x="0px" y="0px" width="25px" height="25px"
	 viewBox="0 0 25 25" enable-background="new 0 0 25 25" xml:space="preserve">
<sodipodi:namedview  fit-margin-bottom="0" inkscape:window-width="1552" inkscape:window-height="942" inkscape:snap-nodes="false" fit-margin-right="0" inkscape:snap-bbox-edge-midpoints="false" inkscape:window-x="78" inkscape:snap-smooth-nodes="true" inkscape:bbox-nodes="true" inkscape:snap-bbox="true" inkscape:object-nodes="true" inkscape:object-paths="true" inkscape:pageopacity="0" inkscape:guide-bbox="true" inkscape:document-units="px" inkscape:pageshadow="2" inkscape:current-layer="svg3844" inkscape:window-y="44" inkscape:bbox-paths="true" inkscape:window-maximized="0" guidetolerance="10" gridtolerance="10" showgrid="true" pagecolor="#ffffff" objecttolerance="10" bordercolor="#666666" id="namedview5316" showguides="true" inkscape:cy="9.3428882" inkscape:zoom="22.627416" borderopacity="1" inkscape:cx="1.08306" fit-margin-left="0" fit-margin-top="0">
	
		<inkscape:grid  type="xygrid" snapvisiblegridlinesonly="true" spacingy="0.5px" spacingx="0.5px" empspacing="2" id="grid3070" originy="0" enabled="true" visible="true" originx="8.8817842e-16">
		</inkscape:grid>
</sodipodi:namedview>
<path id="path9494-5-0" inkscape:connector-curvature="0" fill="#FFFFFF" fill-opacity="0.9412" d="M2.8,0.3L2.3,1.6
	C1.9,2.6,1,3.7,1,5.9v3c0,4.4,2.9,7.7,5.6,9.8s5.5,3.1,5.5,3.1l0.4,0.1l0.4-0.1c0,0,2.7-1,5.5-3.1S24,13.4,24,8.9v-3
	c0-2.4-1.4-4.5-1.4-4.5l-0.6-1l-0.9,0.7c0,0-0.6,0.4-1.4,0.9s-1.9,0.9-2.6,0.9s-1.8-0.4-2.6-0.9c-0.8-0.5-1.4-0.9-1.4-0.9l-0.6-0.5
	l-0.6,0.5c0,0-0.6,0.4-1.4,0.9S8.6,2.9,7.9,2.9S6,2.5,5.2,2.1S3.9,1.2,3.9,1.2L2.8,0.3z M12.5,3.1c0.3,0.2,0.4,0.3,1,0.7
	c1,0.5,2.2,1.1,3.6,1.1s2.7-0.6,3.6-1.1c0.4-0.2,0.4-0.2,0.6-0.4C21.7,4.1,22,5,22,5.9v3c0,3.6-2.4,6.3-4.9,8.2
	c-2.2,1.7-4.2,2.5-4.6,2.7c-0.5-0.2-2.4-1-4.6-2.7C5.4,15.2,3,12.5,3,8.9v-3c0-1.2,0.3-1.8,0.7-2.5c0.3,0.2,0.2,0.2,0.6,0.4
	c1,0.5,2.2,1.1,3.6,1.1s2.7-0.6,3.6-1.1C12.1,3.5,12.2,3.3,12.5,3.1z"/>
<rect id="rect3933-5" y="6" fill="#3A3836" fill-opacity="0" width="21" height="17"/>
<path id="path9494-5" sodipodi:nodetypes="cccccc" inkscape:connector-curvature="0" fill="#7E9A4C" d="M2,9c0,8,10.5,12,10.5,12
	S23,17,23,9V6H2V9z"/>
<path id="path9499-8" sodipodi:nodetypes="ccscsccc" inkscape:connector-curvature="0" fill="#7E9A4C" d="M2,6c0-2,0.8-2.8,1.2-4
	c0,0,2.5,2,4.6,2s4.6-2,4.6-2s2.5,2,4.6,2s4.6-2,4.6-2S23,4,23,6H2z"/>
<rect id="rect5252" x="2" y="6" fill="#FFFFFF" width="21" height="1"/>
<rect id="rect4201" fill-opacity="0" width="25" height="25"/>
</svg>
