<?xml version="1.0" encoding="utf-8"?>
<!-- Generator: Adobe Illustrator 17.1.0, SVG Export Plug-In . SVG Version: 6.00 Build 0)  -->
<!DOCTYPE svg PUBLIC "-//W3C//DTD SVG 1.1//EN" "http://www.w3.org/Graphics/SVG/1.1/DTD/svg11.dtd">
<svg version="1.1"
	 id="svg3844" xmlns:svg="http://www.w3.org/2000/svg" xmlns:cc="http://creativecommons.org/ns#" xmlns:dc="http://purl.org/dc/elements/1.1/" xmlns:rdf="http://www.w3.org/1999/02/22-rdf-syntax-ns#" sodipodi:docname="us-interstate-1-large.svg" inkscape:version="0.91 r13725" xmlns:inkscape="http://www.inkscape.org/namespaces/inkscape" xmlns:sodipodi="http://sodipodi.sourceforge.net/DTD/sodipodi-0.dtd"
	 xmlns="http://www.w3.org/2000/svg" xmlns:xlink="http://www.w3.org/1999/xlink" x="0px" y="0px" width="25px" height="29px"
	 viewBox="0 0 25 29" enable-background="new 0 0 25 29" xml:space="preserve">
<sodipodi:namedview  fit-margin-bottom="0" inkscape:window-width="1513" inkscape:window-height="896" fit-margin-right="0" inkscape:snap-intersection-paths="true" inkscape:window-x="-2" inkscape:snap-smooth-nodes="true" inkscape:snap-bbox="true" inkscape:object-nodes="true" inkscape:object-paths="true" inkscape:pageopacity="0" inkscape:guide-bbox="true" inkscape:document-units="px" inkscape:pageshadow="2" inkscape:current-layer="svg3844" inkscape:window-y="31" inkscape:window-maximized="0" guidetolerance="10" gridtolerance="10" showgrid="true" pagecolor="#ffffff" objecttolerance="10" bordercolor="#666666" id="namedview5316" showguides="true" inkscape:cy="18.500364" inkscape:zoom="15.999999" borderopacity="1" inkscape:cx="-6.5657913" fit-margin-left="0" fit-margin-top="0">
	
		<inkscape:grid  type="xygrid" snapvisiblegridlinesonly="true" spacingy="0.5px" spacingx="0.5px" empspacing="2" id="grid3070" originy="0" enabled="true" visible="true" originx="0">
		</inkscape:grid>
	<sodipodi:guide  orientation="0,1" id="guide5261" position="0.265625,11.5"></sodipodi:guide>
</sodipodi:namedview>
<path id="path9494-1" inkscape:connector-curvature="0" fill="#FFFFFF" d="M2.8,0L2.3,1.6C1.9,2.9,1,4.3,1,6.9v3.5
	c0,10.4,11.1,15.4,11.1,15.4l0.4,0.2l0.4-0.2c0,0,11.1-5,11.1-15.4V6.9c0-2.8-1.3-5.4-1.3-5.4l-0.6-1.3l-1,1c0,0-0.6,0.5-1.4,1.1
	s-1.9,1-2.6,1s-1.8-0.5-2.6-1s-1.4-1.1-1.4-1.1l-0.7-0.7l-0.7,0.7c0,0-0.6,0.5-1.4,1.1c-0.8,0.6-1.9,1-2.6,1s-1.8-0.5-2.6-1
	S3.9,1.2,3.9,1.2L2.8,0z M12.5,3.2c0.3,0.3,0.4,0.4,0.9,0.8c1,0.7,2.2,1.4,3.7,1.4c1.5,0,2.7-0.7,3.7-1.4c0.3-0.2,0.3-0.2,0.5-0.4
	C21.6,4.5,22,5.7,22,6.9v3.5c0,8.4-8.3,12.8-9.5,13.4c-1.2-0.6-9.5-5-9.5-13.4V6.9c0-1.5,0.3-2.4,0.7-3.4c0.2,0.2,0.2,0.2,0.5,0.4
	c1,0.7,2.2,1.4,3.7,1.4s2.7-0.7,3.7-1.4C12.1,3.6,12.2,3.4,12.5,3.2z"/>
<rect id="rect3933-5" x="2" y="4.4" fill="#3A3836" fill-opacity="0" width="21" height="20.6"/>
<path id="path9494" sodipodi:nodetypes="cccccc" inkscape:connector-curvature="0" fill="#5396C7" d="M2,10.5
	C2,20.2,12.5,25,12.5,25S23,20.2,23,10.5V7H2L2,10.5z"/>
<path id="path9499" sodipodi:nodetypes="ccscsccc" inkscape:connector-curvature="0" fill="#E97474" d="M2,7c0-2.4,0.8-3.5,1.2-5
	c0,0,2.5,2.4,4.6,2.4S12.5,2,12.5,2s2.5,2.4,4.6,2.4S21.8,2,21.8,2S23,4.6,23,7H2z"/>
<rect id="rect5252" x="2" y="7" fill="#FFFFFF" width="21" height="1"/>
<rect id="rect4157" fill="none" width="25" height="29"/>
</svg>
