<svg xmlns="http://www.w3.org/2000/svg" width="32" height="22" viewBox="0 0 32 22">
  <title>us-interstate</title>
  <path d="M1,7c0,9.32,15,12,15,12S31,16.25,31,7V6H1V7Z" fill="#226c99"/>
  <path d="M1,5A5.39,5.39,0,0,1,3,1,8.1,8.1,0,0,0,8.5,3,14.57,14.57,0,0,0,16,1a14.57,14.57,0,0,0,7.5,2A8.17,8.17,0,0,0,29,1a5.43,5.43,0,0,1,2,4H1Z" fill="#cc526f"/>
  <rect x="1" y="5" width="24" height="1" fill="#fff"/>
  <path d="M29,1a5.44,5.44,0,0,1,2,4c0,0.5,0,1.54,0,2-0.17,9.25-15.25,12-15.25,12S1,16.32,1,7V5A5.39,5.39,0,0,1,3,1,8.1,8.1,0,0,0,8.5,3,14.57,14.57,0,0,0,16,1a14.57,14.57,0,0,0,7.5,2A8.17,8.17,0,0,0,29,1m0-1a1,1,0,0,0-.7.29A7.15,7.15,0,0,1,23.5,2,13.75,13.75,0,0,1,16.55.17a1,1,0,0,0-1.11,0A13.75,13.75,0,0,1,8.5,2,7.08,7.08,0,0,1,3.71.3,1,1,0,0,0,2.42.19,6.37,6.37,0,0,0,0,5V7c0,4.22,2.74,7.8,7.93,10.38A31.86,31.86,0,0,0,15.57,20l0.18,0,0.18,0a33.68,33.68,0,0,0,7.82-2.6C29.07,14.78,31.92,11.2,32,7c0-.28,0-0.79,0-1.25C32,5.47,32,5.2,32,5A6.44,6.44,0,0,0,29.58.19,1,1,0,0,0,29,0h0Z" fill="#fff"/>
  <rect width="32" height="22" fill="none"/>
</svg>
