<?xml version="1.0" encoding="utf-8"?>
<!-- Generator: Adobe Illustrator 17.1.0, SVG Export Plug-In . SVG Version: 6.00 Build 0)  -->
<!DOCTYPE svg PUBLIC "-//W3C//DTD SVG 1.1//EN" "http://www.w3.org/Graphics/SVG/1.1/DTD/svg11.dtd">
<svg version="1.1"
	 id="svg3844" xmlns:svg="http://www.w3.org/2000/svg" xmlns:cc="http://creativecommons.org/ns#" xmlns:dc="http://purl.org/dc/elements/1.1/" xmlns:rdf="http://www.w3.org/1999/02/22-rdf-syntax-ns#" sodipodi:docname="us-interstate-duplex-5-small.svg" inkscape:version="0.91 r13725" xmlns:inkscape="http://www.inkscape.org/namespaces/inkscape" xmlns:sodipodi="http://sodipodi.sourceforge.net/DTD/sodipodi-0.dtd"
	 xmlns="http://www.w3.org/2000/svg" xmlns:xlink="http://www.w3.org/1999/xlink" x="0px" y="0px" width="36px" height="25px"
	 viewBox="0 0 36 25" enable-background="new 0 0 36 25" xml:space="preserve">
<sodipodi:namedview  fit-margin-bottom="0" inkscape:window-width="1280" inkscape:window-height="751" inkscape:showpageshadow="true" inkscape:snap-nodes="true" fit-margin-right="0" inkscape:snap-bbox-edge-midpoints="true" inkscape:snap-intersection-paths="false" inkscape:window-x="78" inkscape:snap-smooth-nodes="true" inkscape:snap-bbox="true" inkscape:object-nodes="true" inkscape:object-paths="true" inkscape:pageopacity="0" inkscape:guide-bbox="true" inkscape:document-units="px" inkscape:pageshadow="2" inkscape:current-layer="svg3844" inkscape:window-y="107" inkscape:bbox-paths="true" inkscape:window-maximized="0" guidetolerance="10" gridtolerance="10" showgrid="true" pagecolor="#ffffff" objecttolerance="10" bordercolor="#666666" id="namedview5316" showguides="false" inkscape:cy="7.7607911" inkscape:zoom="16" borderopacity="1" inkscape:cx="14.419703" borderlayer="true" fit-margin-left="0" fit-margin-top="0">
	
		<inkscape:grid  type="xygrid" snapvisiblegridlinesonly="true" spacingy="0.5px" spacingx="0.5px" empspacing="2" id="grid5480" originy="-1" enabled="true" visible="true" originx="2.9999999">
		</inkscape:grid>
	<sodipodi:guide  orientation="1,0" id="guide5601" position="17.000097,17.49839"></sodipodi:guide>
	<sodipodi:guide  orientation="1,0" id="guide5603" position="7.5000967,17.49839"></sodipodi:guide>
	<sodipodi:guide  orientation="0,1" id="guide9216" position="26.500097,14.99839"></sodipodi:guide>
</sodipodi:namedview>
<path id="path9494-5-2" inkscape:connector-curvature="0" fill="#FFFFFF" d="M3.5,0.7L3,1.5C2.7,2,2.3,2.5,1.8,3.2S1,4.8,1,6v4
	c0,3,1.1,5.3,2.8,7.1s3.8,2.8,5.9,3.5C13.9,22,18,22,18,22s4.1,0,8.3-1.4c2.1-0.7,4.2-1.8,5.9-3.5C33.9,15.3,35,13,35,10V6
	c0-2.6-2.2-4.7-2.2-4.7l-0.5-0.6l-0.7,0.4c0,0-3.7,1.9-6.6,1.9s-6.6-1.9-6.6-1.9L18,0.9l-0.5,0.2c0,0-3.7,1.9-6.6,1.9
	S4.4,1.1,4.4,1.1L3.5,0.7z M18,3.1C18.6,3.4,21.7,5,25.1,5c3.1,0,5.7-1.3,6.7-1.8C32.2,3.8,33,5,33,6v4c0,2.5-0.9,4.3-2.2,5.7
	c-1.3,1.4-3.2,2.4-5.1,3C21.9,20,18,20,18,20s-3.9,0-7.7-1.3c-1.9-0.7-3.8-1.6-5.1-3C3.9,14.3,3,12.5,3,10V6c0-0.8,0.2-1.3,0.5-1.8
	C3.7,4,4,3.6,4.2,3.2C5.2,3.7,7.9,5,10.9,5C14.3,5,17.4,3.4,18,3.1z"/>
<rect id="rect3933-5" x="2" y="4" fill="#3A3836" fill-opacity="0" width="32" height="17"/>
<path id="path9494-5" sodipodi:nodetypes="cccccc" inkscape:connector-curvature="0" fill="#5396C7" d="M2,10c0,11,16,11,16,11
	s16,0,16-11V6H2V10z"/>
<path id="path9499-8" sodipodi:nodetypes="ccscsccc" inkscape:connector-curvature="0" fill="#E97474" d="M2,6c0-2,1.2-2.8,1.9-4
	c0,0,3.8,2,7.1,2S18,2,18,2s3.8,2,7.1,2s7.1-2,7.1-2S34,4,34,6H2z"/>
<rect id="rect5252" x="2" y="6" fill="#FFFFFF" width="32" height="1"/>
<rect id="rect4161" fill="none" width="36" height="25"/>
</svg>
