<svg xmlns="http://www.w3.org/2000/svg" width="38" height="22" viewBox="0 0 38 22">
  <title>us-interstate</title>
  <path d="M35,1a5.15,5.15,0,0,1,2,4s0,1.5,0,2c0,9.26-18,12-18,12S1,16.32,1,7V5A5.39,5.39,0,0,1,3,1s2.5,2,8,2c6.5,0,8-2,8-2s1.5,2,8,2c5.53,0,8-2,8-2M19,0A1,1,0,0,0,18.2.4h0S16.71,2,11,2C6,2,3.64.23,3.62,0.21A1,1,0,0,0,3,0a1,1,0,0,0-.58.18A6.37,6.37,0,0,0,0,5V7C0,17.06,18.08,19.84,18.85,20h0.29C19.92,19.84,38,17,38,7c0-1.14,0-1.7,0-2h0A6.16,6.16,0,0,0,35.58.19a1,1,0,0,0-1.2,0S32,2,27,2C21.27,2,19.79.39,19.78,0.37A1,1,0,0,0,19,0h0Z" fill="#fff"/>
  <path d="M1,7c0,9.32,18,12,18,12S37,16.25,37,7V6H1V7Z" fill="#226c99"/>
  <path d="M1,5A5.39,5.39,0,0,1,3,1s2.5,2,8,2c6.5,0,8-2,8-2s1.5,2,8,2c5.53,0,8-2,8-2a5.43,5.43,0,0,1,2,4H1Z" fill="#cc526f"/>
  <rect x="1" y="5" width="36" height="1" fill="#fff"/>
  <rect width="38" height="22" fill="none"/>
</svg>
