<?xml version="1.0" encoding="utf-8"?>
<!-- Generator: Adobe Illustrator 17.1.0, SVG Export Plug-In . SVG Version: 6.00 Build 0)  -->
<!DOCTYPE svg PUBLIC "-//W3C//DTD SVG 1.1//EN" "http://www.w3.org/Graphics/SVG/1.1/DTD/svg11.dtd">
<svg version="1.1"
	 id="svg3844" xmlns:svg="http://www.w3.org/2000/svg" xmlns:cc="http://creativecommons.org/ns#" xmlns:dc="http://purl.org/dc/elements/1.1/" xmlns:rdf="http://www.w3.org/1999/02/22-rdf-syntax-ns#" sodipodi:docname="us-interstate-1-small.svg" inkscape:version="0.91 r13725" xmlns:inkscape="http://www.inkscape.org/namespaces/inkscape" xmlns:sodipodi="http://sodipodi.sourceforge.net/DTD/sodipodi-0.dtd"
	 xmlns="http://www.w3.org/2000/svg" xmlns:xlink="http://www.w3.org/1999/xlink" x="0px" y="0px" width="21px" height="25px"
	 viewBox="0 0 21 25" enable-background="new 0 0 21 25" xml:space="preserve">
<sodipodi:namedview  fit-margin-bottom="0" inkscape:window-width="1581" inkscape:window-height="809" fit-margin-right="0" inkscape:snap-intersection-paths="true" inkscape:window-x="27" inkscape:snap-smooth-nodes="true" inkscape:snap-bbox="true" inkscape:object-nodes="true" inkscape:object-paths="true" inkscape:pageopacity="0" inkscape:guide-bbox="true" inkscape:document-units="px" inkscape:pageshadow="2" inkscape:current-layer="svg3844" inkscape:window-y="127" inkscape:window-maximized="0" guidetolerance="10" gridtolerance="10" showgrid="true" pagecolor="#ffffff" objecttolerance="10" bordercolor="#666666" id="namedview5316" showguides="true" inkscape:cy="14.497206" inkscape:zoom="22.627416" borderopacity="1" inkscape:cx="1.9598262" fit-margin-left="0" fit-margin-top="0">
	
		<inkscape:grid  type="xygrid" snapvisiblegridlinesonly="true" spacingy="0.5px" spacingx="0.5px" empspacing="2" id="grid3070" originy="1px" enabled="true" visible="true" originx="1px">
		</inkscape:grid>
</sodipodi:namedview>
<path id="path9494-1" inkscape:connector-curvature="0" fill="#FFFFFF" d="M2.5,0L2,1.6c-0.3,1-1,2.1-1,4.3v3
	c0,8.7,9.1,12.9,9.1,12.9l0.4,0.2l0.4-0.2c0,0,9.1-4.2,9.1-12.9v-3c0-2.3-1.1-4.4-1.1-4.4l-0.6-1.2l-1,1c0,0-0.4,0.4-1.1,0.9
	s-1.5,0.8-2,0.8c-0.5,0-1.3-0.4-2-0.8s-1.1-0.9-1.1-0.9l-0.7-0.7L9.8,1.2c0,0-0.4,0.4-1.1,0.9s-1.5,0.8-2,0.8s-1.3-0.4-2-0.8
	S3.7,1.2,3.7,1.2L2.5,0z M10.5,3.2c0.2,0.2,0.3,0.3,0.6,0.5c0.8,0.6,1.8,1.2,3.1,1.2s2.3-0.6,3.1-1.2c0.1-0.1,0.1-0.1,0.2-0.2
	C17.8,4.2,18,5.1,18,5.9v3c0,6.7-6.4,10.3-7.5,10.9C9.4,19.2,3,15.6,3,8.9v-3c0-1.1,0.2-1.7,0.4-2.3c0.1,0.1,0.1,0.1,0.2,0.2
	c0.8,0.6,1.8,1.2,3.1,1.2s2.3-0.6,3.1-1.2C10.2,3.4,10.3,3.4,10.5,3.2z"/>
<rect id="rect3933-5" y="5" fill="#3A3836" fill-opacity="0" width="17" height="17"/>
<path id="path9494" sodipodi:nodetypes="cccccc" inkscape:connector-curvature="0" fill="#5396C7" d="M2,9c0,8,8.5,12,8.5,12
	S19,17,19,9V6H2V9z"/>
<path id="path9499" sodipodi:nodetypes="ccscsccc" inkscape:connector-curvature="0" fill="#E97474" d="M2,6c0-2,0.6-2.8,1-4
	c0,0,2,2,3.8,2s3.8-2,3.8-2s2,2,3.8,2S18,2,18,2s1,2,1,4H2z"/>
<rect id="rect5252" x="2" y="6" fill="#FFFFFF" width="17" height="1"/>
<rect id="rect4156" fill="none" width="21" height="25"/>
</svg>
