<?xml version="1.0" encoding="utf-8"?>
<!-- Generator: Adobe Illustrator 17.1.0, SVG Export Plug-In . SVG Version: 6.00 Build 0)  -->
<!DOCTYPE svg PUBLIC "-//W3C//DTD SVG 1.1//EN" "http://www.w3.org/Graphics/SVG/1.1/DTD/svg11.dtd">
<svg version="1.1"
	 id="svg3844" xmlns:svg="http://www.w3.org/2000/svg" xmlns:cc="http://creativecommons.org/ns#" xmlns:dc="http://purl.org/dc/elements/1.1/" xmlns:rdf="http://www.w3.org/1999/02/22-rdf-syntax-ns#" sodipodi:docname="us-interstate-duplex-4-small.svg" inkscape:version="0.91 r13725" xmlns:inkscape="http://www.inkscape.org/namespaces/inkscape" xmlns:sodipodi="http://sodipodi.sourceforge.net/DTD/sodipodi-0.dtd"
	 xmlns="http://www.w3.org/2000/svg" xmlns:xlink="http://www.w3.org/1999/xlink" x="0px" y="0px" width="34px" height="25px"
	 viewBox="0 0 34 25" enable-background="new 0 0 34 25" xml:space="preserve">
<sodipodi:namedview  fit-margin-bottom="0" inkscape:window-width="1280" inkscape:window-height="751" inkscape:showpageshadow="true" inkscape:snap-nodes="true" fit-margin-right="0" inkscape:snap-bbox-edge-midpoints="true" inkscape:snap-intersection-paths="false" inkscape:window-x="115" inkscape:snap-smooth-nodes="true" inkscape:snap-bbox="true" inkscape:object-nodes="true" inkscape:object-paths="true" inkscape:pageopacity="0" inkscape:guide-bbox="true" inkscape:document-units="px" inkscape:pageshadow="2" inkscape:current-layer="svg3844" inkscape:window-y="70" inkscape:bbox-paths="true" inkscape:window-maximized="0" guidetolerance="10" gridtolerance="10" showgrid="true" pagecolor="#ffffff" objecttolerance="10" bordercolor="#666666" id="namedview5316" showguides="false" inkscape:cy="6.3233416" inkscape:zoom="11.313709" borderopacity="1" inkscape:cx="-4.1572373" borderlayer="true" fit-margin-left="0" fit-margin-top="0">
	
		<inkscape:grid  type="xygrid" snapvisiblegridlinesonly="true" spacingy="0.5px" spacingx="0.5px" empspacing="2" id="grid5480" originy="1.9983899" enabled="true" visible="true" originx="4.0000968">
		</inkscape:grid>
	<sodipodi:guide  orientation="1,0" id="guide5601" position="14.000097,18.49839"></sodipodi:guide>
	<sodipodi:guide  orientation="1,0" id="guide5603" position="4.5000968,18.49839"></sodipodi:guide>
	<sodipodi:guide  orientation="0,1" id="guide9216" position="23.500097,15.99839"></sodipodi:guide>
</sodipodi:namedview>
<path id="path9494-5-5" inkscape:connector-curvature="0" fill="#FFFFFF" d="M3.4,0.6L2.9,1.5C2.6,2,2.2,2.5,1.8,3.2S1,4.8,1,6v4
	c0,2.8,1.1,5,2.6,6.6s3.6,2.8,5.5,3.6c3.9,1.6,7.8,1.8,7.8,1.8l0.1,0l0.1,0c0,0,3.9-0.2,7.8-1.8c2-0.8,4-1.9,5.5-3.6
	C31.9,15,33,12.7,33,10V6c0-2.6-2-4.7-2-4.7l-0.5-0.6l-0.7,0.4c0,0-3.5,1.9-6.1,1.9s-6.1-1.9-6.1-1.9L17,0.8l-0.5,0.3
	c0,0-3.5,1.9-6.1,1.9S4.3,1.1,4.3,1.1L3.4,0.6z M17,3.1C17.7,3.5,20.5,5,23.6,5c2.9,0,5.3-1.2,6.3-1.7C30.3,3.9,31,5,31,6v4
	c0,2.3-0.8,3.9-2.1,5.3s-3,2.4-4.8,3.1c-3.5,1.4-7,1.7-7.1,1.7c-0.1,0-3.6-0.3-7.1-1.7c-1.8-0.7-3.5-1.7-4.8-3.1S3,12.2,3,10V6
	c0-0.8,0.2-1.3,0.5-1.8C3.7,4,3.9,3.6,4.1,3.3C5.1,3.8,7.5,5,10.4,5C13.5,5,16.3,3.5,17,3.1z"/>
<rect id="rect3933-5" x="2" y="4" fill="#3A3836" fill-opacity="0" width="30" height="17"/>
<path id="path9494-5" sodipodi:nodetypes="cccccc" inkscape:connector-curvature="0" fill="#5396C7" d="M2,10c0,10,15,11,15,11
	s15-1,15-11V6H2L2,10z"/>
<path id="path9499-8" sodipodi:nodetypes="ccscsccc" inkscape:connector-curvature="0" fill="#E97474" d="M2,6c0-2,1.1-2.8,1.8-4
	c0,0,3.5,2,6.6,2S17,2,17,2s3.5,2,6.6,2s6.6-2,6.6-2S32,4,32,6H2z"/>
<rect id="rect5252" x="2" y="6" fill="#FFFFFF" width="30" height="1"/>
<rect id="rect4161" x="0" fill="none" width="34" height="25"/>
</svg>
