<?xml version="1.0" encoding="utf-8"?>
<!-- Generator: Adobe Illustrator 17.1.0, SVG Export Plug-In . SVG Version: 6.00 Build 0)  -->
<!DOCTYPE svg PUBLIC "-//W3C//DTD SVG 1.1//EN" "http://www.w3.org/Graphics/SVG/1.1/DTD/svg11.dtd">
<svg version="1.1"
	 id="svg3844" xmlns:svg="http://www.w3.org/2000/svg" xmlns:cc="http://creativecommons.org/ns#" xmlns:dc="http://purl.org/dc/elements/1.1/" xmlns:rdf="http://www.w3.org/1999/02/22-rdf-syntax-ns#" sodipodi:docname="us-interstate-3-small.svg" inkscape:version="0.91 r13725" xmlns:inkscape="http://www.inkscape.org/namespaces/inkscape" xmlns:sodipodi="http://sodipodi.sourceforge.net/DTD/sodipodi-0.dtd"
	 xmlns="http://www.w3.org/2000/svg" xmlns:xlink="http://www.w3.org/1999/xlink" x="0px" y="0px" width="30px" height="25px"
	 viewBox="0 0 30 25" enable-background="new 0 0 30 25" xml:space="preserve">
<sodipodi:namedview  fit-margin-bottom="0" inkscape:window-width="1552" inkscape:window-height="938" inkscape:showpageshadow="true" inkscape:snap-nodes="true" fit-margin-right="0" inkscape:snap-bbox-edge-midpoints="true" inkscape:snap-intersection-paths="false" inkscape:window-x="108" inkscape:snap-smooth-nodes="true" inkscape:snap-bbox="true" inkscape:object-nodes="true" inkscape:object-paths="true" inkscape:pageopacity="0" inkscape:guide-bbox="true" inkscape:document-units="px" inkscape:pageshadow="2" inkscape:current-layer="svg3844" inkscape:window-y="17" inkscape:bbox-paths="true" inkscape:window-maximized="0" guidetolerance="10" gridtolerance="10" showgrid="true" pagecolor="#ffffff" objecttolerance="10" bordercolor="#666666" id="namedview5316" showguides="false" inkscape:cy="14.8612" inkscape:zoom="22.627418" borderopacity="1" inkscape:cx="14.598272" borderlayer="true" fit-margin-left="0" fit-margin-top="0">
	
		<inkscape:grid  type="xygrid" snapvisiblegridlinesonly="true" spacingy="0.5px" spacingx="0.5px" empspacing="2" id="grid5480" originy="1.9983899" enabled="true" visible="true" originx="4.0000968">
		</inkscape:grid>
	<sodipodi:guide  orientation="1,0" id="guide5601" position="14.000097,18.49839"></sodipodi:guide>
	<sodipodi:guide  orientation="1,0" id="guide5603" position="4.5000968,18.49839"></sodipodi:guide>
	<sodipodi:guide  orientation="0,1" id="guide9216" position="23.500097,15.99839"></sodipodi:guide>
</sodipodi:namedview>
<path id="path9494-5-6" inkscape:connector-curvature="0" fill="#FFFFFF" d="M3.1,0.5l-0.5,1C2.2,2.5,1,3.7,1,6v3
	c0,5,3.6,8.3,7,10.2s6.8,2.7,6.8,2.7L15,22l0.2-0.1c0,0,3.4-0.8,6.8-2.7S29,14,29,9V6c0-2.5-1.7-4.6-1.7-4.6l-0.6-0.7l-0.8,0.5
	c0,0-3,1.8-5.2,1.8s-5.2-1.8-5.2-1.8L15,0.8l-0.5,0.4c0,0-3,1.8-5.2,1.8S4.1,1.1,4.1,1.1L3.1,0.5z M15,3.1C15.7,3.6,18,5,20.7,5
	c2.4,0,4.4-1.1,5.4-1.7C26.5,4,27,5,27,6v3c0,4-2.9,6.7-6,8.5c-2.9,1.7-5.7,2.4-6,2.4c-0.3-0.1-3.1-0.8-6-2.4C5.9,15.7,3,13,3,9V6
	c0-1.2,0.4-1.9,0.9-2.7C4.9,3.9,6.8,5,9.3,5C12,5,14.3,3.6,15,3.1z"/>
<rect id="rect3933-5" x="2" y="4" fill="#3A3836" fill-opacity="0" width="26" height="17"/>
<path id="path9494-5" sodipodi:nodetypes="cccccc" inkscape:connector-curvature="0" fill="#5396C7" d="M2,9c0,9,13,12,13,12
	s13-3,13-12V6H2L2,9z"/>
<path id="path9499-8" sodipodi:nodetypes="ccscsccc" inkscape:connector-curvature="0" fill="#E97474" d="M2,6c0-2,1-2.8,1.5-4
	c0,0,3.1,2,5.7,2S15,2,15,2s3.1,2,5.7,2s5.7-2,5.7-2S28,4,28,6H2z"/>
<rect id="rect5252" x="2" y="6" fill="#FFFFFF" width="26" height="1"/>
<rect id="rect4161" fill="none" width="30" height="25"/>
</svg>
