<?xml version="1.0" encoding="UTF-8" standalone="no"?>
<!-- Created with Inkscape (http://www.inkscape.org/) -->

<svg
   xmlns:dc="http://purl.org/dc/elements/1.1/"
   xmlns:cc="http://creativecommons.org/ns#"
   xmlns:rdf="http://www.w3.org/1999/02/22-rdf-syntax-ns#"
   xmlns:svg="http://www.w3.org/2000/svg"
   xmlns="http://www.w3.org/2000/svg"
   xmlns:sodipodi="http://sodipodi.sourceforge.net/DTD/sodipodi-0.dtd"
   xmlns:inkscape="http://www.inkscape.org/namespaces/inkscape"
   version="1.1"
   width="29"
   height="29"
   id="svg3844"
   inkscape:version="0.91 r13725"
   sodipodi:docname="us-interstate-business-2-large.svg"
   viewBox="0 0 29 29">
  <sodipodi:namedview
     pagecolor="#ffffff"
     bordercolor="#666666"
     borderopacity="1"
     objecttolerance="10"
     gridtolerance="10"
     guidetolerance="10"
     inkscape:pageopacity="0"
     inkscape:pageshadow="2"
     inkscape:window-width="1553"
     inkscape:window-height="1023"
     id="namedview5316"
     showgrid="true"
     inkscape:zoom="11.313708"
     inkscape:cx="-14.702246"
     inkscape:cy="16.933336"
     inkscape:window-x="28"
     inkscape:window-y="0"
     inkscape:window-maximized="0"
     inkscape:current-layer="svg3844"
     inkscape:snap-bbox="true"
     fit-margin-top="0"
     fit-margin-left="0"
     fit-margin-right="0"
     fit-margin-bottom="0"
     showguides="true"
     inkscape:guide-bbox="true"
     inkscape:bbox-paths="true"
     inkscape:object-paths="true"
     inkscape:bbox-nodes="true"
     inkscape:snap-bbox-edge-midpoints="false"
     inkscape:object-nodes="true"
     inkscape:snap-smooth-nodes="true"
     inkscape:snap-nodes="true"
     inkscape:document-units="px">
    <inkscape:grid
       type="xygrid"
       id="grid3070"
       empspacing="2"
       visible="true"
       enabled="true"
       snapvisiblegridlinesonly="true"
       spacingx="0.5px"
       spacingy="0.5px"
       originx="8.8817842e-16"
       originy="-1" />
  </sodipodi:namedview>
  <defs
     id="defs3846" />
  <metadata
     id="metadata3849">
    <rdf:RDF>
      <cc:Work
         rdf:about="">
        <dc:format>image/svg+xml</dc:format>
        <dc:type
           rdf:resource="http://purl.org/dc/dcmitype/StillImage" />
        <dc:title></dc:title>
      </cc:Work>
    </rdf:RDF>
  </metadata>
  <path
     style="color:#000000;font-style:normal;font-variant:normal;font-weight:normal;font-stretch:normal;font-size:medium;line-height:normal;font-family:sans-serif;text-indent:0;text-align:start;text-decoration:none;text-decoration-line:none;text-decoration-style:solid;text-decoration-color:#000000;letter-spacing:normal;word-spacing:normal;text-transform:none;direction:ltr;block-progression:tb;writing-mode:lr-tb;baseline-shift:baseline;text-anchor:start;white-space:normal;clip-rule:nonzero;display:inline;overflow:visible;visibility:visible;opacity:1;isolation:auto;mix-blend-mode:normal;color-interpolation:sRGB;color-interpolation-filters:linearRGB;solid-color:#000000;solid-opacity:1;fill:#ffffff;fill-opacity:1;fill-rule:evenodd;stroke:none;stroke-width:2;stroke-linecap:butt;stroke-linejoin:miter;stroke-miterlimit:4;stroke-dasharray:none;stroke-dashoffset:0;stroke-opacity:1;color-rendering:auto;image-rendering:auto;shape-rendering:auto;text-rendering:auto;enable-background:accumulate"
     d="M 3.0195312,0.26171875 2.5332031,1.5820312 C 2.0588454,2.8661476 1,4.2519558 1,6.9277344 l 0,0.8417968 0,0.1582032 0,2.4746096 c 0,5.272358 3.3841304,9.165887 6.6367188,11.685547 3.2525882,2.519659 6.5019532,3.771484 6.5019532,3.771484 L 14.5,26 14.861328,25.859375 c 0,0 3.249365,-1.251825 6.501953,-3.771484 C 24.61587,19.568231 28,15.674702 28,10.402344 L 28,7.9277344 28,7.7695312 28,6.9277344 C 28,4.1017052 26.398437,1.4316406 26.398438,1.4316406 L 25.810547,0.40039062 24.892578,1.15625 c 0,0 -0.671575,0.5532871 -1.652344,1.1152344 -0.980768,0.5619473 -2.251536,1.078125 -3.224609,1.078125 -0.973074,0 -2.245261,-0.5161324 -3.226563,-1.078125 C 15.807761,1.7094917 15.134766,1.15625 15.134766,1.15625 L 14.5,0.6328125 13.865234,1.15625 c 0,0 -0.672996,0.5532417 -1.654296,1.1152344 -0.981301,0.5619926 -2.2534884,1.078125 -3.226563,1.078125 -0.973074,0 -2.2438407,-0.5161777 -3.2246094,-1.078125 C 4.7789969,1.7095371 4.1074219,1.15625 4.1074219,1.15625 L 3.0195312,0.26171875 Z M 14.5,3.1289062 c 0.318735,0.2419621 0.534498,0.441457 1.294922,0.8769532 1.133129,0.6489448 2.620248,1.34375 4.220703,1.34375 1.600455,0 3.086065,-0.6947598 4.21875,-1.34375 C 24.744803,3.7134013 24.77343,3.6529933 25.105469,3.4179688 25.502319,4.3039296 26,5.5815288 26,6.9277344 l 0,0.8417968 0,0.1582032 0,2.4746096 c 0,4.411851 -2.86587,7.781532 -5.863281,10.103515 C 17.428036,22.604175 14.997318,23.623077 14.5,23.826172 14.002682,23.623077 11.571964,22.604175 8.8632812,20.505859 5.8658696,18.183876 3,14.814195 3,10.402344 L 3,7.9277344 3,7.7695312 3,6.9277344 c 0,-1.5843778 0.4373492,-2.501414 0.90625,-3.5039063 0.3306231,0.2335561 0.3552559,0.2931881 0.859375,0.5820313 1.1326851,0.6489902 2.618295,1.34375 4.21875,1.34375 1.600455,0 3.087574,-0.6948052 4.220703,-1.34375 C 13.965502,3.5703632 14.181265,3.3708683 14.5,3.1289062 Z"
     id="path9494-5-1"
     inkscape:connector-curvature="0" />
  <path
     style="fill:#7e9a4c;fill-opacity:1;fill-rule:evenodd;stroke:none;stroke-width:0.89973539px;stroke-linecap:butt;stroke-linejoin:miter;stroke-opacity:1"
     d="M 2,10.473685 C 2,20.157894 14.5,25 14.5,25 14.5,25 27,20.157894 27,10.473685 l 0,-2.6315792 -25,-10e-8 z"
     id="path9494-5"
     inkscape:connector-curvature="0"
     sodipodi:nodetypes="cccccc" />
  <path
     style="fill:#7e9a4c;fill-opacity:1;fill-rule:evenodd;stroke:none;stroke-width:0.89973539px;stroke-linecap:butt;stroke-linejoin:miter;stroke-opacity:1"
     d="M 2,7 C 2,4.5789469 2.9249413,3.4771008 3.4705882,2 c 0,0 2.9411765,2.4210526 5.5147059,2.4210526 C 11.558824,4.4210526 14.5,2 14.5,2 c 0,0 2.941177,2.4210526 5.514706,2.4210526 C 22.588234,4.4210526 25.529412,2 25.529412,2 25.529412,2 27,4.5789469 27,7 Z"
     id="path9499-8"
     inkscape:connector-curvature="0"
     sodipodi:nodetypes="ccscsccc" />
  <rect
     style="opacity:1;fill:#ffffff;fill-opacity:1;stroke:none;stroke-width:0.99999994;stroke-miterlimit:4;stroke-dasharray:none;stroke-opacity:1"
     id="rect5252"
     width="25"
     height="1"
     x="2"
     y="7" />
  <rect
     style="opacity:0;fill:none;fill-opacity:1;stroke:none;stroke-width:2;stroke-linecap:round;stroke-linejoin:round;stroke-miterlimit:4;stroke-dasharray:none;stroke-opacity:1"
     id="rect4179"
     width="29"
     height="29"
     x="0"
     y="0" />
</svg>
