<?xml version="1.0" encoding="utf-8"?>
<!-- Generator: Adobe Illustrator 17.1.0, SVG Export Plug-In . SVG Version: 6.00 Build 0)  -->
<!DOCTYPE svg PUBLIC "-//W3C//DTD SVG 1.1//EN" "http://www.w3.org/Graphics/SVG/1.1/DTD/svg11.dtd">
<svg version="1.1"
	 id="svg5088" xmlns:svg="http://www.w3.org/2000/svg" xmlns:cc="http://creativecommons.org/ns#" xmlns:dc="http://purl.org/dc/elements/1.1/" xmlns:rdf="http://www.w3.org/1999/02/22-rdf-syntax-ns#"
	 xmlns="http://www.w3.org/2000/svg" xmlns:xlink="http://www.w3.org/1999/xlink" x="0px" y="0px" width="29px" height="15px"
	 viewBox="0 0 29 15" enable-background="new 0 0 29 15" xml:space="preserve">
<g id="layer1" transform="translate(-54.999985,-943.36218)">
	<g id="generic-md-3" transform="translate(-180,480)">
		<path id="rect3455" fill="#3A3836" d="M242,463.4h15c3.9,0,7,3.1,7,7v1c0,3.9-3.1,7-7,7h-15c-3.9,0-7-3.1-7-7v-1
			C235,466.5,238.1,463.4,242,463.4z"/>
		<path id="rect3457" fill="#FFFFFF" d="M242,464.4h15c3.3,0,6,2.7,6,6v1c0,3.3-2.7,6-6,6h-15c-3.3,0-6-2.7-6-6v-1
			C236,467,238.7,464.4,242,464.4z"/>
	</g>
</g>
</svg>
