<svg viewBox="-298 191 19 19" width="19" height="19" data-reactid=".0.1.1.$veterinary-11=1svg88.0.0"><rect x="-297" y="192" rx="8.5" ry="8.5" width="17" height="17" stroke="#fff" style="stroke-linejoin:round;stroke-miterlimit:4px;" fill="#fff" stroke-width="2" data-reactid=".0.1.1.$veterinary-11=1svg88.0.0.0"></rect><rect x="-297" y="192" width="17" height="17" rx="8.5" ry="8.5" fill="#7f7874" data-reactid=".0.1.1.$veterinary-11=1svg88.0.0.1"></rect><path fill="#fff" d="M-288.5,199c-1.6,0-2.2,1.5-2.4,2.9c-1,0.5-1.6,1-1.6,1c-0.6,0.6-0.6,1.5-0.1,2.1s1.5,0.6,2.1,0.1
	c0,0,0,0,0.1,0c0,0,0.8-0.7,2-0.7s2,0.7,2,0.7c0.6,0.6,1.5,0.5,2.1,0s0.5-1.5,0-2.1c0,0-0.6-0.6-1.6-1
	C-286.3,200.5-286.9,199-288.5,199z" data-reactid=".0.1.1.$veterinary-11=1svg88.0.0.3:$veterinary-11=1svg-0-fill"></path><path fill="#fff" d="M-284,198.1c0.5,0.3,0.6,1.2,0.2,2c-0.4,0.8-1.2,1.1-1.8,0.8s-0.6-1.2-0.2-2
	C-285.3,198.2-284.5,197.8-284,198.1z" data-reactid=".0.1.1.$veterinary-11=1svg88.0.0.3:$veterinary-11=1svg-1-fill"></path><path fill="#fff" d="M-293,198.1c-0.5,0.3-0.6,1.2-0.2,2s1.2,1.1,1.8,0.8s0.6-1.2,0.2-2S-292.5,197.8-293,198.1z" data-reactid=".0.1.1.$veterinary-11=1svg88.0.0.3:$veterinary-11=1svg-2-fill"></path><path fill="#fff" d="M-286,195.6c0.5,0.3,0.6,1.2,0.2,2c-0.4,0.8-1.2,1.1-1.8,0.8s-0.6-1.2-0.2-2
	C-287.3,195.7-286.5,195.3-286,195.6z" data-reactid=".0.1.1.$veterinary-11=1svg88.0.0.3:$veterinary-11=1svg-3-fill"></path><path fill="#fff" d="M-291,195.6c-0.5,0.3-0.6,1.2-0.2,2c0.4,0.8,1.2,1.1,1.8,0.8s0.6-1.2,0.2-2
	C-289.7,195.7-290.5,195.3-291,195.6z" data-reactid=".0.1.1.$veterinary-11=1svg88.0.0.3:$veterinary-11=1svg-4-fill"></path></svg>