<svg viewBox="-296 189 23 23" width="23" height="23" data-reactid=".0.1.1.$veterinary-15=1svg89.0.0"><rect x="-295" y="190" rx="10.5" ry="10.5" width="21" height="21" stroke="#fff" style="stroke-linejoin:round;stroke-miterlimit:4px;" fill="#fff" stroke-width="2" data-reactid=".0.1.1.$veterinary-15=1svg89.0.0.0"></rect><rect x="-295" y="190" width="21" height="21" rx="10.5" ry="10.5" fill="#7f7874" data-reactid=".0.1.1.$veterinary-15=1svg89.0.0.1"></rect><path fill="#fff" d="M-284.5,199c-2.5,0-3,2.3-3,3.5c0,0,0,0,0,0c-1.1,0.4-1.7,0.9-1.7,0.9c-0.9,0.7-1,1.9-0.4,2.8
	c0.7,0.9,1.9,1,2.8,0.4c0,0,0.9-0.7,2.3-0.7s2.3,0.7,2.3,0.7c0.8,0.7,2.1,0.6,2.8-0.3c0.7-0.8,0.6-2.1-0.3-2.8c0,0-0.1-0.1-0.1-0.1
	c0,0-0.7-0.5-1.7-0.9c0,0,0,0,0,0C-281.5,201.3-282,199-284.5,199z" data-reactid=".0.1.1.$veterinary-15=1svg89.0.0.3:$veterinary-15=1svg-0-fill"></path><path fill="#fff" d="M-290,197c-0.8,0.2-1.2,1.3-0.9,2.4c0.3,1.1,1.1,1.8,1.9,1.6c0.8-0.2,1.2-1.3,0.9-2.4
	C-288.4,197.5-289.2,196.8-290,197z" data-reactid=".0.1.1.$veterinary-15=1svg89.0.0.3:$veterinary-15=1svg-1-fill"></path><path fill="#fff" d="M-279,197c0.8,0.2,1.2,1.3,0.9,2.4c-0.3,1.1-1.1,1.8-1.9,1.6c-0.8-0.2-1.2-1.3-0.9-2.4
	S-279.8,196.8-279,197z" data-reactid=".0.1.1.$veterinary-15=1svg89.0.0.3:$veterinary-15=1svg-2-fill"></path><path fill="#fff" d="M-287,194c-0.8,0.1-1.2,1.1-0.9,2.2c0.3,1.1,1.1,1.9,1.9,1.8c0.8-0.1,1.2-1.1,0.9-2.2
	C-285.4,194.7-286.2,193.9-287,194z" data-reactid=".0.1.1.$veterinary-15=1svg89.0.0.3:$veterinary-15=1svg-3-fill"></path><path fill="#fff" d="M-282,194c0.8,0.1,1.2,1.1,0.9,2.2c-0.3,1.1-1.1,1.9-1.9,1.8s-1.2-1.1-0.9-2.2
	C-283.6,194.7-282.8,193.9-282,194z" data-reactid=".0.1.1.$veterinary-15=1svg89.0.0.3:$veterinary-15=1svg-4-fill"></path></svg>