<svg viewBox="-296 189 23 23" width="23" height="23" data-reactid=".0.1.1.$volcano-15=1svg17.0.0"><rect x="-295" y="190" rx="10.5" ry="10.5" width="21" height="21" stroke="#fff" style="stroke-linejoin:round;stroke-miterlimit:4px;" fill="#fff" stroke-width="2" data-reactid=".0.1.1.$volcano-15=1svg17.0.0.0"></rect><rect x="-295" y="190" width="21" height="21" rx="10.5" ry="10.5" fill="#6b7f33" data-reactid=".0.1.1.$volcano-15=1svg17.0.0.1"></rect><path fill="#fff" d="m -283.51559,193.99996 c -0.14643,0.005 -0.2835,0.0731 -0.375,0.1875 l -1.66016,2.07422 -1.60547,-1.52344 c -0.43586,-0.40112 -1.08386,0.15455 -0.75391,0.64648 l 1.66602,2.40039 c 0.1913,0.27561 0.59438,0.28835 0.80273,0.0254 0.16626,-0.20983 0.44141,-0.67773 0.94141,-0.67773 0.5,0 0.7929,0.49067 0.94141,0.67773 0.17496,0.22039 0.49725,0.25305 0.71289,0.0723 l 1.66797,-1.40039 c 0.4408,-0.37414 6.4e-4,-1.07349 -0.52735,-0.83789 l -1.29492,0.58203 0,-1.72656 c 1.1e-4,-0.28235 -0.23341,-0.50879 -0.51562,-0.5 z m -3.48438,5 -2.92383,5.92383 c -0.0769,0.0769 -0.0762,0.23092 -0.0762,0.38476 0,0.53846 0.38372,0.69141 0.69141,0.69141 l 9.61718,0 c 0.38462,0 0.69141,-0.15295 0.69141,-0.69141 0,-0.15384 7.9e-4,-0.23092 -0.0762,-0.38476 l -2.92377,-5.92383 c -0.5,0 -1,0.5 -1,1 l 0,0.5 c 0,0.277 -0.223,0.5 -0.5,0.5 -0.277,0 -0.5,-0.223 -0.5,-0.5 l 0,-0.5 a 0.5,0.5 0 0 0 -0.5,-0.5 0.5,0.5 0 0 0 -0.5,0.5 l 0,2 c 0,0.277 -0.223,0.5 -0.5,0.5 -0.277,0 -0.5,-0.223 -0.5,-0.5 l 0,-2 c 0,-0.5 -0.5,-1 -1,-1 z" data-reactid=".0.1.1.$volcano-15=1svg17.0.0.3:$volcano-15=1svg-0-fill"></path></svg>