<?xml version="1.0" encoding="utf-8"?>
<!-- Generator: Adobe Illustrator 17.1.0, SVG Export Plug-In . SVG Version: 6.00 Build 0)  -->
<!DOCTYPE svg PUBLIC "-//W3C//DTD SVG 1.1//EN" "http://www.w3.org/Graphics/SVG/1.1/DTD/svg11.dtd">
<svg version="1.1"
	 id="svg3122" xmlns:svg="http://www.w3.org/2000/svg" xmlns:cc="http://creativecommons.org/ns#" xmlns:dc="http://purl.org/dc/elements/1.1/" xmlns:rdf="http://www.w3.org/1999/02/22-rdf-syntax-ns#" sodipodi:docname="washington-metro-11.svg" inkscape:version="0.91+devel+osxmenu r12911" xmlns:inkscape="http://www.inkscape.org/namespaces/inkscape" xmlns:sodipodi="http://sodipodi.sourceforge.net/DTD/sodipodi-0.dtd"
	 xmlns="http://www.w3.org/2000/svg" xmlns:xlink="http://www.w3.org/1999/xlink" x="0px" y="0px" width="17px" height="17px"
	 viewBox="0 0 17 17" enable-background="new 0 0 17 17" xml:space="preserve">
<sodipodi:namedview  inkscape:snap-bbox-edge-midpoints="true" inkscape:snap-intersection-paths="true" inkscape:window-x="0" inkscape:snap-smooth-nodes="true" inkscape:bbox-nodes="true" inkscape:snap-bbox="true" inkscape:object-nodes="true" inkscape:object-paths="true" inkscape:pageopacity="0" inkscape:document-units="px" inkscape:pageshadow="2" inkscape:current-layer="layer1" inkscape:window-y="23" inkscape:bbox-paths="true" inkscape:window-maximized="0" guidetolerance="10" gridtolerance="10" showgrid="false" pagecolor="#ffffff" objecttolerance="10" bordercolor="#666666" id="namedview3085" inkscape:cy="8.3314862" inkscape:zoom="1" borderopacity="1" inkscape:cx="11.006751">
	<inkscape:grid  type="xygrid" color="#ff0000" spacingy="0.5" spacingx="0.5" opacity="0.1254902" empspacing="2" id="grid3087">
		</inkscape:grid>
</sodipodi:namedview>
<g>
	<path fill="#FFFFFF" d="M14.1,0H2.9C1.3,0,0,1.3,0,2.9v11.1C0,15.7,1.3,17,2.9,17h11.1c1.6,0,2.9-1.3,2.9-2.9V2.9
		C17,1.3,15.7,0,14.1,0z M16,14.1c0,1.1-0.9,1.9-1.9,1.9H2.9C1.9,16,1,15.1,1,14.1V2.9C1,1.9,1.9,1,2.9,1h11.1C15.1,1,16,1.9,16,2.9
		V14.1z"/>
	<path fill="#8363a5" d="M14.1,1H2.9C1.9,1,1,1.9,1,2.9v11.1C1,15.1,1.9,16,2.9,16h11.1c1.1,0,1.9-0.9,1.9-1.9V2.9
		C16,1.9,15.1,1,14.1,1z M13,13h-1.8V5.9L9.4,13H7.6L5.8,5.9V13H4V4h2.7l1.8,6.3L10.3,4H13V13z"/>
	<polygon fill="#FFFFFF" points="8.5,10.3 6.7,4 4,4 4,13 5.8,13 5.8,5.9 7.6,13 9.4,13 11.2,5.9 11.2,13 13,13 13,4 10.3,4 	"/>
</g>
</svg>
