<svg xmlns="http://www.w3.org/2000/svg" width="20" height="20" viewBox="0 0 20 20">
  <title>za-national</title>
  <g>
    <path d="M5,17.5a0.5,0.5,0,0,1-.46-0.31l-4-10a0.5,0.5,0,0,1,.19-0.6l9-6a0.5,0.5,0,0,1,.55,0l9,6a0.5,0.5,0,0,1,.19.6l-4,10a0.5,0.5,0,0,1-.46.31H5Z" fill="#0f58c5"/>
    <path d="M10,1l9,6L15,17H5L1,7l9-6m0-1a1,1,0,0,0-.55.17l-9,6a1,1,0,0,0-.37,1.2l4,10A1,1,0,0,0,5,18H15a1,1,0,0,0,.93-0.63l4-10a1,1,0,0,0-.37-1.2l-9-6A1,1,0,0,0,10,0h0Z" fill="#fff"/>
  </g>
  <rect width="20" height="20" fill="none"/>
</svg>
