<?xml version="1.0" encoding="utf-8"?>
<!-- Generator: Adobe Illustrator 17.1.0, SVG Export Plug-In . SVG Version: 6.00 Build 0)  -->
<!DOCTYPE svg PUBLIC "-//W3C//DTD SVG 1.1//EN" "http://www.w3.org/Graphics/SVG/1.1/DTD/svg11.dtd">
<svg version="1.1"
	 id="svg2" xmlns:svg="http://www.w3.org/2000/svg" xmlns:cc="http://creativecommons.org/ns#" xmlns:dc="http://purl.org/dc/elements/1.1/" xmlns:rdf="http://www.w3.org/1999/02/22-rdf-syntax-ns#"
	 xmlns="http://www.w3.org/2000/svg" xmlns:xlink="http://www.w3.org/1999/xlink" x="0px" y="0px" width="19px" height="19px"
	 viewBox="0 0 19 19" enable-background="new 0 0 19 19" xml:space="preserve">
<ellipse id="ellipse4" fill="#FFFFFF" cx="9.5" cy="9.5" rx="9.5" ry="9.5"/>
<ellipse id="ellipse6" fill="#7E9A4C" cx="9.5" cy="9.5" rx="8.5" ry="8.5"/>
<g id="g8" transform="translate(4,4)">
	<circle id="ellipse16334" fill="#FFFFFF" cx="-12.5" cy="6.5" r="0"/>
	<path id="circle17441" fill="#FFFFFF" d="M8,2C7.1,2,6.5,2.5,6.2,3.1C6.2,3.1,5.5,4,5,4H3C2.5,4,2,4.5,2,4.5l-2,2V7h0.5l1.2-1.2
		L1.9,6c0,0-0.7,1.3-0.7,2.6C1.2,9,1.8,9,1.8,9h0.5c0,0,0.2,0,0-0.2L2,8.5C2,8,2.6,7.5,3,7c0,0,0,0.6,0,1.2C3,8.6,3.2,9,3.5,9H4
		c0,0,0.2,0,0-0.2L3.8,8.5C3.5,8.1,4.2,7,4.2,7H6l0.5,1.5C6.7,9,7,9,7,9h1c0.2,0,0.7-0.2,0.2-0.5L8,8.3V7l0,0c1,0,1.1-1.3,1.5-1.7
		l0.7-0.1C10.5,5.3,11,5,11,4.5V4L9.8,3l0,0C9.4,2.4,8.7,2,8,2z"/>
</g>
</svg>
