<svg viewBox="-298 191 19 19" width="19" height="19" data-reactid=".0.1.1.$zoo-11=1svg18.0.0"><rect x="-297" y="192" rx="8.5" ry="8.5" width="17" height="17" stroke="#fff" style="stroke-linejoin:round;stroke-miterlimit:4px;" fill="#fff" stroke-width="2" data-reactid=".0.1.1.$zoo-11=1svg18.0.0.0"></rect><rect x="-297" y="192" width="17" height="17" rx="8.5" ry="8.5" fill="#6b7f33" data-reactid=".0.1.1.$zoo-11=1svg18.0.0.1"></rect><path fill="#fff" d="M-286,197c-0.9,0-1.5,0.5-1.8,1.1c0,0-0.7,0.9-1.2,0.9h-2c-0.5,0-1,0.5-1,0.5l-2,2v0.5h0.5l1.2-1.2l0.2,0.2
	c0,0-0.7,1.3-0.7,2.6c0,0.5,0.5,0.5,0.5,0.5h0.5c0,0,0.2,0,0-0.2l-0.2-0.2c0-0.5,0.6-1,1-1.5c0,0,0,0.6,0,1.2c0,0.3,0.2,0.8,0.5,0.8
	h0.5c0,0,0.2,0,0-0.2l-0.2-0.2c-0.2-0.4,0.5-1.5,0.5-1.5h1.8l0.5,1.5c0.2,0.5,0.5,0.5,0.5,0.5h1c0.2,0,0.7-0.2,0.2-0.5l-0.2-0.2V202
	v0c1,0,1.1-1.3,1.5-1.7l0.7-0.1c0.2,0,0.8-0.2,0.8-0.8V199l-1.2-1l0,0C-284.6,197.4-285.3,197-286,197z" data-reactid=".0.1.1.$zoo-11=1svg18.0.0.3:$zoo-11=1svg-0-fill"></path></svg>