<?xml version="1.0" encoding="utf-8"?>
<!-- Generator: Adobe Illustrator 17.1.0, SVG Export Plug-In . SVG Version: 6.00 Build 0)  -->
<!DOCTYPE svg PUBLIC "-//W3C//DTD SVG 1.1//EN" "http://www.w3.org/Graphics/SVG/1.1/DTD/svg11.dtd">
<svg version="1.1"
	 id="svg2" xmlns:svg="http://www.w3.org/2000/svg" xmlns:cc="http://creativecommons.org/ns#" xmlns:dc="http://purl.org/dc/elements/1.1/" xmlns:rdf="http://www.w3.org/1999/02/22-rdf-syntax-ns#"
	 xmlns="http://www.w3.org/2000/svg" xmlns:xlink="http://www.w3.org/1999/xlink" x="0px" y="0px" width="23px" height="23px"
	 viewBox="0 0 23 23" enable-background="new 0 0 23 23" xml:space="preserve">
<ellipse id="ellipse4" fill="#FFFFFF" cx="11.5" cy="11.5" rx="11.5" ry="11.5"/>
<ellipse id="ellipse6" fill="#7E9A4C" cx="11.5" cy="11.5" rx="10.5" ry="10.5"/>
<g id="g8" transform="translate(4,4)">
	<path id="path17499" fill="#FFFFFF" d="M8.4,3.9C8.4,3.9,7.7,5,7,5H4.5C3.8,5,3.2,5.4,2.7,5.9L0.5,8C0.2,8.3,0,8.8,0,9
		c0,0.5,0,1,0,1s1,0,1-1V8.5l1-1h0.5l0.2,0.3c0,0-1,1.8-1,3.5C1.7,12,2.4,12,2.4,12h0.7c0,0,0.3,0,0-0.3l-0.3-0.3
		C2.7,10.6,3.5,9.7,4,9c0,0,0,1.2,0,2c0,0.4,0.3,1,0.7,1h0.7c0,0,0.3,0,0-0.3L5,11.3c-0.3-0.6,0.5-2.8,0.5-2.8C6.8,8.5,7,9,8.5,9
		l0.4,2.3C9,12,9.5,12,9.5,12H11c0.3,0,1-0.3,0.3-0.8L11,11V9c1.2-0.2,2-1,2-2h1c0.3,0,1,0,1-0.5v-1l-1.7-1.7
		C12.5,3.1,12,2.5,11,2.5C9.5,2.5,8.9,3.1,8.4,3.9z"/>
</g>
</svg>
