<?xml version="1.0" encoding="UTF-8" standalone="no"?>
<!-- Created with Inkscape (http://www.inkscape.org/) -->

<svg
   xmlns:dc="http://purl.org/dc/elements/1.1/"
   xmlns:cc="http://creativecommons.org/ns#"
   xmlns:rdf="http://www.w3.org/1999/02/22-rdf-syntax-ns#"
   xmlns:svg="http://www.w3.org/2000/svg"
   xmlns="http://www.w3.org/2000/svg"
   xmlns:sodipodi="http://sodipodi.sourceforge.net/DTD/sodipodi-0.dtd"
   xmlns:inkscape="http://www.inkscape.org/namespaces/inkscape"
   version="1.1"
   width="15"
   height="15"
   id="svg4619"
   inkscape:version="0.91+devel+osxmenu r12911"
   sodipodi:docname="ferry-15.svg"
   viewBox="0 0 13.23525 13.23525">
  <sodipodi:namedview
     pagecolor="#ffffff"
     bordercolor="#666666"
     borderopacity="1"
     objecttolerance="10"
     gridtolerance="10"
     guidetolerance="10"
     inkscape:pageopacity="0"
     inkscape:pageshadow="2"
     inkscape:window-width="1008"
     inkscape:window-height="728"
     id="namedview3382"
     inkscape:document-units="px"
     showgrid="false"
     inkscape:zoom="16"
     inkscape:cx="36.574996"
     inkscape:cy="7.7271989"
     inkscape:current-layer="svg4619"
     inkscape:snap-bbox="true"
     inkscape:bbox-paths="true"
     inkscape:bbox-nodes="true"
     inkscape:snap-bbox-edge-midpoints="true"
     inkscape:snap-bbox-midpoints="true"
     inkscape:object-paths="true"
     inkscape:snap-intersection-paths="true"
     inkscape:object-nodes="true"
     inkscape:snap-smooth-nodes="true"
     inkscape:window-x="0"
     inkscape:window-y="0"
     inkscape:window-maximized="0"
     scale-x="1e-05"
     showguides="false"
     inkscape:guide-bbox="true">
    <inkscape:grid
       type="xygrid"
       id="grid3333"
       spacingx="0.441175"
       spacingy="0.441175"
       empspacing="2"
       color="#ff0000"
       opacity="0.1254902" />
    <sodipodi:guide
       position="6.617625,13.676425"
       orientation="1,0"
       id="guide4828" />
  </sodipodi:namedview>
  <defs
     id="defs4621" />
  <metadata
     id="metadata4624">
    <rdf:RDF>
      <cc:Work
         rdf:about="">
        <dc:format>image/svg+xml</dc:format>
        <dc:type
           rdf:resource="http://purl.org/dc/dcmitype/StillImage" />
        <dc:title></dc:title>
      </cc:Work>
    </rdf:RDF>
  </metadata>
  <g
     style="stroke-width:0.73333335"
     transform="matrix(1.2032085,0,0,1.2032085,-2.2e-5,24.06417)"
     id="g4838">
    <path
       style="fill:#000000;fill-opacity:1;stroke-width:1.00000334"
       d="M 26,0 C 25.446,0 25,0.44599998 25,1 L 24.5,1 C 23.677649,1 23,1.6776487 23,2.5 L 23,6.125 21.5,7 l 2.5,4 0.5,0 c 0.796621,0 1.33823,0.316583 1.818359,0.572266 0.48013,0.255682 0.830588,0.423828 1.181641,0.423828 0.351053,0 0.701511,-0.168146 1.181641,-0.423828 C 29.16177,11.316583 29.703379,11 30.5,11 L 31,11 33.5,7 32,6.125 32,2.5 C 32,1.6776487 31.324304,1 30.501953,1 L 30,1 C 30,0.44599998 29.554,0 29,0 l -3,0 z m -1.5,2.0019531 6.001953,0 C 30.787602,2.0019531 31,2.2143514 31,2.5 L 31,5.5410156 27.5,3.5 24,5.5410156 24,2.5 C 24,2.2143514 24.214351,2.0019531 24.5,2.0019531 Z M 23,12.5 c 0,0 -1,0 -1,0.75 0,0.75 1,0.751953 1,0.751953 l 1.431641,0 c 0.356005,0 0.70737,0.16211 1.1875,0.412109 C 26.09927,14.664063 26.708331,15 27.5,15 c 0.791669,0 1.40073,-0.335937 1.880859,-0.585938 0.48013,-0.249999 0.831495,-0.412109 1.1875,-0.412109 l 1.431641,0 c 0,0 1,-10e-4 1,-0.75 C 33,12.500976 32,12.5 32,12.5 l -1.431641,0 c -0.791669,0 -1.40073,0.335937 -1.880859,0.585938 C 28.207371,13.335937 27.856005,13.5 27.5,13.5 27.143995,13.5 26.792629,13.335937 26.3125,13.085938 25.832371,12.835937 25.22331,12.5 24.431641,12.5 L 23,12.5 Z"
       transform="matrix(0.73333092,0,0,0.73333092,-14.6666,-20)"
       id="path4840"
       inkscape:connector-curvature="0" />
  </g>
</svg>
