<?xml version="1.0" encoding="utf-8"?>
<!-- Generator: Adobe Illustrator 17.0.0, SVG Export Plug-In . SVG Version: 6.00 Build 0)  -->
<!DOCTYPE svg PUBLIC "-//W3C//DTD SVG 1.1//EN" "http://www.w3.org/Graphics/SVG/1.1/DTD/svg11.dtd">
<svg version="1.1"
	 id="svg4148" xmlns:dc="http://purl.org/dc/elements/1.1/" xmlns:cc="http://creativecommons.org/ns#" xmlns:rdf="http://www.w3.org/1999/02/22-rdf-syntax-ns#" xmlns:svg="http://www.w3.org/2000/svg"
	 xmlns="http://www.w3.org/2000/svg" xmlns:xlink="http://www.w3.org/1999/xlink" x="0px" y="0px" width="20px" height="50px"
	 viewBox="0 0 20 50" enable-background="new 0 0 20 50" xml:space="preserve">
<g id="path5366_1_" opacity="0.2353">
	<ellipse fill="#3A3836" cx="10" cy="26.971" rx="8.99" ry="4.995"/>
</g>
<g id="path5359_1_">
	<path fill="#E6E6E6" d="M19.49,10.353c0,6.24-9.49,17.079-9.49,17.079S0.51,16.593,0.51,10.353C0.51,4.911,4.759,0.5,10,0.5
		S19.49,4.911,19.49,10.353z"/>
	<path fill="#666666" d="M10,27.93c-0.144,0-0.28-0.063-0.376-0.171C9.231,27.311,0.01,16.707,0.01,10.353C0.01,4.644,4.491,0,10,0
		s9.99,4.644,9.99,10.353c0,6.354-9.221,16.958-9.614,17.406C10.28,27.868,10.144,27.93,10,27.93z M10,0.999
		c-4.957,0-8.991,4.196-8.991,9.354C1.009,15.64,8.25,24.579,10,26.66c1.748-2.079,8.991-11.022,8.991-16.307
		C18.99,5.195,14.957,0.999,10,0.999z"/>
</g>
<g id="path5990_1_">
	<circle fill="#FFFFFF" cx="10" cy="9.989" r="3.496"/>
	<path fill="#666666" d="M10,13.985c-2.203,0-3.995-1.792-3.995-3.995S7.797,5.993,10,5.993s3.997,1.794,3.997,3.997
		S12.203,13.985,10,13.985z M10,6.992c-1.652,0-2.996,1.344-2.996,2.997c0,1.652,1.344,2.996,2.996,2.996
		c1.654,0,2.997-1.344,2.997-2.996C12.997,8.336,11.653,6.992,10,6.992z"/>
</g>
</svg>
