<?xml version="1.0" encoding="UTF-8" standalone="no"?>
<svg
   xmlns:dc="http://purl.org/dc/elements/1.1/"
   xmlns:cc="http://creativecommons.org/ns#"
   xmlns:rdf="http://www.w3.org/1999/02/22-rdf-syntax-ns#"
   xmlns:svg="http://www.w3.org/2000/svg"
   xmlns="http://www.w3.org/2000/svg"
   id="svg2"
   width="40"
   height="40"
   viewBox="0 0 20 20"
   version="1.1">
  <metadata
     id="metadata14">
    <rdf:RDF>
      <cc:Work
         rdf:about="">
        <dc:format>image/svg+xml</dc:format>
        <dc:type
           rdf:resource="http://purl.org/dc/dcmitype/StillImage" />
      </cc:Work>
    </rdf:RDF>
  </metadata>
  <defs
     id="defs12" />
  <rect
     id="rect4"
     ry="3"
     rx="3"
     height="20"
     width="20"
     y="0"
     x="0"
     style="fill:#ffffff;stroke:none;" />
  <rect
     id="rect6"
     ry="2"
     rx="2"
     height="16"
     width="16"
     y="2"
     x="2"
     style="fill:#9c8ea4;stroke:none;" />
  <g
     id="g8"
     transform="translate(4.5,4)">
    <metadata     id="metadata8"><rdf:RDF><cc:Work         rdf:about=""><dc:format>image/svg+xml</dc:format><dc:type           rdf:resource="http://purl.org/dc/dcmitype/StillImage" /><dc:title /></cc:Work></rdf:RDF></metadata><defs     id="defs6" /><path     id="path14200"     d="M 3.5 0 C 3 0 3 0.5 3 0.5 L 2 5 L 2 6 C 2 7.024394 3 7 3 7 L 8 7 C 8 7 9 7 9 6 L 9 5 L 8 0.5 C 8 0.5 8 0 7.5 0 L 3.5 0 z M 4 1 L 7 1 L 7.5 4 L 3.5 4 L 4 1 z M 3.5 5 A 0.5 0.5 0 0 1 4 5.5 A 0.5 0.5 0 0 1 3.5 6 A 0.5 0.5 0 0 1 3 5.5 A 0.5 0.5 0 0 1 3.5 5 z M 5.25 5 L 5.75 5 C 5.8885 5 6 5.1115 6 5.25 C 6 5.3885 5.8885 5.5 5.75 5.5 L 5.25 5.5 C 5.1115 5.5 5 5.3885 5 5.25 C 5 5.1115 5.1115 5 5.25 5 z M 7.5 5 A 0.5 0.5 0 0 1 8 5.5 A 0.5 0.5 0 0 1 7.5 6 A 0.5 0.5 0 0 1 7 5.5 A 0.5 0.5 0 0 1 7.5 5 z M 3 8 L 2 11 L 3.5 11 L 3.8339844 10 L 7.1660156 10 L 7.5 11 L 9 11 L 8 8 L 6.5 8 L 6.8339844 9 L 4.1660156 9 L 4.5 8 L 3 8 z "     style="opacity:1;fill:#ffffff;fill-opacity:1;stroke:none;stroke-width:1;stroke-linecap:round;stroke-linejoin:miter;stroke-miterlimit:4;stroke-dasharray:none;stroke-dashoffset:0;stroke-opacity:1" />
  </g>
</svg>
