<?xml version="1.0" encoding="UTF-8" standalone="no"?>
<svg
   xmlns:dc="http://purl.org/dc/elements/1.1/"
   xmlns:cc="http://creativecommons.org/ns#"
   xmlns:rdf="http://www.w3.org/1999/02/22-rdf-syntax-ns#"
   xmlns:svg="http://www.w3.org/2000/svg"
   xmlns="http://www.w3.org/2000/svg"
   xmlns:sodipodi="http://sodipodi.sourceforge.net/DTD/sodipodi-0.dtd"
   xmlns:inkscape="http://www.inkscape.org/namespaces/inkscape"
   id="svg2"
   height="15"
   width="15"
   version="1.1"
   inkscape:version="0.91+devel+osxmenu r12911"
   sodipodi:docname="dog-park-15.svg"
   viewBox="0 0 13.235294 13.235294">
  <sodipodi:namedview
     pagecolor="#ffffff"
     bordercolor="#666666"
     borderopacity="1"
     objecttolerance="10"
     gridtolerance="10"
     guidetolerance="10"
     inkscape:pageopacity="0"
     inkscape:pageshadow="2"
     inkscape:window-width="640"
     inkscape:window-height="480"
     id="namedview3432"
     inkscape:document-units="px"
     showgrid="false"
     inkscape:zoom="22.627417"
     inkscape:cx="5.0980521"
     inkscape:cy="8.6770708"
     inkscape:current-layer="svg2"
     fit-margin-top="0"
     fit-margin-left="0"
     fit-margin-right="0"
     fit-margin-bottom="0"
     inkscape:snap-bbox="true"
     inkscape:bbox-paths="true"
     inkscape:bbox-nodes="true"
     inkscape:object-paths="true"
     inkscape:snap-bbox-edge-midpoints="false"
     inkscape:snap-intersection-paths="true"
     inkscape:object-nodes="true"
     inkscape:snap-smooth-nodes="true"
     inkscape:snap-nodes="true">
    <inkscape:grid
       type="xygrid"
       id="grid4873"
       spacingx="0.44117647"
       spacingy="0.44117647"
       empspacing="2"
       color="#ff3f3f"
       opacity="0.07058824" />
  </sodipodi:namedview>
  <metadata
     id="metadata15">
    <rdf:RDF>
      <cc:Work
         rdf:about="">
        <dc:format>image/svg+xml</dc:format>
        <dc:type
           rdf:resource="http://purl.org/dc/dcmitype/StillImage" />
        <dc:title></dc:title>
      </cc:Work>
    </rdf:RDF>
  </metadata>
  <defs
     id="defs13" />
  <g
     style="stroke-width:0.73333782"
     transform="matrix(1.3636281,0,0,1.3636281,2.1366667e-5,-6.5797112)"
     id="g4875">
    <path
       style="opacity:1;fill:#000000;fill-opacity:1;stroke:none;stroke-width:1.00000012;stroke-linecap:round;stroke-linejoin:round;stroke-miterlimit:4;stroke-dasharray:none;stroke-dashoffset:0;stroke-opacity:1;marker:none"
       d="m 10.226562,0.72460938 c 0,0 -0.5723646,0.004399 -0.726562,0.77539062 L 9,4 l 2.5,2 2,0 C 14.863628,6 15,5 15,5 L 12.955078,2.7695312 C 12.303259,2.0589872 11.681814,2 11,2 l 0,-0.5 c 0,0 -6.68e-4,-0.78320318 -0.773438,-0.77539062 z M 4.25,1 c 0,0 -0.5121353,-0.0101132 -1.0585938,0.2382812 -0.5464579,0.2484013 -1.1894531,0.9181981 -1.1894531,1.875 L 2,7 c 0,1.7271789 -0.7026702,2 -1,2 0,0 -1,-4e-7 -1,1 l 0,2.25 C 0,12.25 4.4469786e-7,13 0.75,13 L 1,13 1.5,13 2,13 2,12.5 2,12.25 C 2,11.875 1.7499999,11.6875 1.5,11.59375 L 1.5,10.5 c 1,0 1.0962986,-0.150223 1.4863281,-0.349609 l 0.5546875,2.27539 C 3.6122964,12.717721 3.7875305,12.928362 4,13 l 1,0 0.039063,0 L 6,13 6,12.25 C 6,11.500001 5,11.5 5,11.5 L 5,9 l 3.2597656,0 0.828125,2.623047 c 0.4357473,1.381444 1.1386714,1.375 1.1386714,1.375 L 11,13 l 1,0 0,-0.75 C 12,11.5 11,11.5 11,11.5 L 11,7.5 8,5 3.5019531,5 l 0,-1.8867188 c 0,-0.4068262 0.1031364,-0.4172594 0.3066407,-0.5097656 C 4.0120981,2.5110096 4.25,2.5 4.25,2.5 5.2351183,2.4852294 5.2351183,1.0147706 4.25,1 Z m 7.494665,2.5 C 11.884169,3.4955033 12,3.6119284 12,3.75 12,3.8880716 11.888071,4.0000005 11.75,4 11.611929,4.0000005 11.5,3.8880716 11.5,3.75 11.499675,3.6185116 11.601259,3.5046224 11.744665,3.5 Z"
       transform="matrix(0.64706274,0,0,0.64706274,-1.5668984e-5,4.8251508)"
       id="path4877"
       inkscape:connector-curvature="0"
       sodipodi:nodetypes="ccccccccccccccccccccccccccccccccccccccccccccccccccccc" />
  </g>
</svg>
