<?xml version="1.0" encoding="utf-8"?>
<!-- Generator: Adobe Illustrator 18.0.0, SVG Export Plug-In . SVG Version: 6.00 Build 0)  -->
<!DOCTYPE svg PUBLIC "-//W3C//DTD SVG 1.0//EN" "http://www.w3.org/TR/2001/REC-SVG-20010904/DTD/svg10.dtd">
<svg version="1.0" id="Layer_1" xmlns="http://www.w3.org/2000/svg" xmlns:xlink="http://www.w3.org/1999/xlink" x="0px" y="0px"
	 width="18px" height="18px" viewBox="0 0 18 18" enable-background="new 0 0 18 18" xml:space="preserve">
<path fill="#F8F4F0" d="M18,9c0,4.9704494-4.0293045,9-9,9c-4.9707046,0-9-4.0295506-9-9c0-4.9707003,4.0292954-9,9-9
	C13.9706955,0,18,4.0292997,18,9"/>
<path opacity="0.8" fill="#AA9561" d="M16.0003605,8.9964361c0,3.8661108-3.1342478,6.9999104-7.0003586,6.9999104
	s-7.0003209-3.1337996-7.0003209-6.9999104c0-3.8662915,3.1342101-7.0000901,7.0003209-7.0000901
	S16.0003605,5.1301446,16.0003605,8.9964361"/>
<path fill="#FFFFFF" d="M10.7142944,10.9606409c0.4750061,0,0.8571472-0.3603516,0.8571472-0.8035889V5.7641988
	c0-0.4430237-0.3821411-0.8035583-0.8571472-0.8035583H7.2857056c-0.4750366,0-0.8571472,0.3605347-0.8571472,0.8035583v4.3928533
	c0,0.4432373,0.3821106,0.8035889,0.8571472,0.8035889L6,13.532052h1.2857056l0.8571472-1.7142639h1.7142944l0.8571472,1.7142639H12
	L10.7142944,10.9606409z M7.2857056,6.246346c0-0.2373047,0.1912842-0.4285583,0.4285889-0.4285583h2.5714111
	c0.2373047,0,0.4285889,0.1912537,0.4285889,0.4285583v0.8571472c0,0.2375183-0.1912842,0.4285583-0.4285889,0.4285583H7.7142944
	c-0.2373047,0-0.4285889-0.19104-0.4285889-0.4285583V6.246346z"/>
<circle opacity="0.8" fill="#AA9561" cx="9" cy="9.2463465" r="0.75"/>
</svg>
