<?xml version="1.0" encoding="utf-8"?>
<!-- Generator: Adobe Illustrator 18.0.0, SVG Export Plug-In . SVG Version: 6.00 Build 0)  -->
<!DOCTYPE svg PUBLIC "-//W3C//DTD SVG 1.0//EN" "http://www.w3.org/TR/2001/REC-SVG-20010904/DTD/svg10.dtd">
<svg version="1.0" id="Layer_1" xmlns="http://www.w3.org/2000/svg" xmlns:xlink="http://www.w3.org/1999/xlink" x="0px" y="0px"
	 width="18px" height="18px" viewBox="0 0 18 18" enable-background="new 0 0 18 18" xml:space="preserve">
<path fill="#F8F4F0" d="M18,9c0,4.9704494-4.0293045,9-9,9c-4.9707041,0-9-4.0295506-9-9c0-4.9707003,4.0292959-9,9-9
	C13.9706955,0,18,4.0292997,18,9"/>
<path opacity="0.7" fill="#46819B" d="M16.0003605,8.9964361c0,3.8661108-3.1342478,6.9999104-7.0003586,6.9999104
	s-7.0003204-3.1337996-7.0003204-6.9999104c0-3.866291,3.1342096-7.0000901,7.0003204-7.0000901
	S16.0003605,5.1301451,16.0003605,8.9964361"/>
<path fill="#FFFFFF" d="M9.0016785,4.1534505c-2.0882568,0-3.7818909,1.6482239-3.7818909,3.6774902v4.1814275
	c0,0.3041382,0.2500305,0.5539856,0.5768127,0.5539856h6.4106445c0.3267517,0,0.5812683-0.2498474,0.5812683-0.5539856V7.8309407
	C12.7885132,5.8016744,11.0948486,4.1534505,9.0016785,4.1534505z M7.1085205,11.3773584
	c-0.3449707,0-0.6308899-0.2815247-0.6308899-0.6311035c0-0.3449707,0.2859192-0.6309204,0.6308899-0.6309204
	c0.349823,0,0.6358032,0.2859497,0.6358032,0.6309204C7.7443237,11.0958338,7.4583435,11.3773584,7.1085205,11.3773584z
	 M8.5795898,9.202096H6.4776306V7.9400411c0-1.221283,0.8760681-2.2337036,2.0292664-2.4697876
	c0.018158-0.0046387,0.0545349,0.004425,0.0726929,0V9.202096z M10.8948975,11.3773584
	c-0.3449402,0-0.635376-0.2815247-0.635376-0.6311035c0-0.3449707,0.2904358-0.6309204,0.635376-0.6309204
	c0.349823,0,0.6313477,0.2859497,0.6313477,0.6309204C11.5262451,11.0958338,11.2447205,11.3773584,10.8948975,11.3773584z
	 M11.5262451,9.202096H9.4242249V5.4702535c1.1895447,0.2041626,2.1020203,1.221283,2.1020203,2.4697876V9.202096z"/>
</svg>
