<?xml version="1.0" encoding="utf-8"?>
<!-- Generator: Adobe Illustrator 18.0.0, SVG Export Plug-In . SVG Version: 6.00 Build 0)  -->
<!DOCTYPE svg PUBLIC "-//W3C//DTD SVG 1.0//EN" "http://www.w3.org/TR/2001/REC-SVG-20010904/DTD/svg10.dtd">
<svg version="1.0" id="Layer_1" xmlns="http://www.w3.org/2000/svg" xmlns:xlink="http://www.w3.org/1999/xlink" x="0px" y="0px"
	 width="36px" height="16px" viewBox="0 0 36 16" enable-background="new 0 0 36 16" xml:space="preserve">
<path fill="#F8F4F0" d="M17,8c0,4.4184542-3.5815525,8-8,8c-4.4184523,0-8-3.5815458-8-8c0-4.4184456,3.5815477-8,8-8
	C13.4184475,0,17,3.5815544,17,8"/>
<path fill="#F8F4F0" d="M2,5h14c1.1044998,0,2,0.8955002,2,2v2c0,1.1044998-0.8955002,2-2,2H2C0.8955,11,0,10.1044998,0,9V7
	C0,5.8955002,0.8955,5,2,5"/>
<path opacity="0.7" fill="#F02A10" d="M9,2C5.6865001,2,3,4.6865001,3,8s2.6865001,6,6,6s6-2.6864996,6-6S12.3135004,2,9,2 M9,4.5
	c1.9330978,0,3.5,1.5669041,3.5,3.5c0,1.9331045-1.5669022,3.5-3.5,3.5c-1.9331026,0-3.5-1.5668955-3.5-3.5
	C5.5,6.0669041,7.0668974,4.5,9,4.5"/>
<path fill="#4C72AA" d="M2.5,7h13C15.775897,7,16,7.2241044,16,7.5v1C16,8.7759037,15.775897,9,15.5,9h-13
	C2.2240977,9,2,8.7759037,2,8.5v-1C2,7.2241044,2.2240977,7,2.5,7"/>
<path fill="#F8F4F0" d="M35,8c0,4.4184542-3.5815525,8-8,8c-4.4184532,0-8-3.5815458-8-8c0-4.4184456,3.5815468-8,8-8
	C31.4184475,0,35,3.5815544,35,8"/>
<path fill="#F8F4F0" d="M20,5h14c1.1044998,0,2,0.8955002,2,2v2c0,1.1044998-0.8955002,2-2,2H20c-1.1044998,0-2-0.8955002-2-2V7
	C18,5.8955002,18.8955002,5,20,5"/>
<path opacity="0.7" fill="#FF9701" d="M27,2c-3.3134995,0-6,2.6865001-6,6s2.6865005,6,6,6s6-2.6864996,6-6S30.3134995,2,27,2
	 M27,4.5c1.9330978,0,3.5,1.5669041,3.5,3.5c0,1.9331045-1.5669022,3.5-3.5,3.5c-1.9331036,0-3.5-1.5668955-3.5-3.5
	C23.5,6.0669041,25.0668964,4.5,27,4.5"/>
<path fill="#4C72AA" d="M20.5,7h13C33.775898,7,34,7.2241044,34,7.5v1C34,8.7759037,33.775898,9,33.5,9h-13
	C20.2240982,9,20,8.7759037,20,8.5v-1C20,7.2241044,20.2240982,7,20.5,7"/>
</svg>
