<?xml version="1.0" encoding="utf-8"?>
<!-- Generator: Adobe Illustrator 18.0.0, SVG Export Plug-In . SVG Version: 6.00 Build 0)  -->
<!DOCTYPE svg PUBLIC "-//W3C//DTD SVG 1.0//EN" "http://www.w3.org/TR/2001/REC-SVG-20010904/DTD/svg10.dtd">
<svg version="1.0" id="Layer_1" xmlns="http://www.w3.org/2000/svg" xmlns:xlink="http://www.w3.org/1999/xlink" x="0px" y="0px"
	 width="34px" height="18px" viewBox="0 0 34 18" enable-background="new 0 0 34 18" xml:space="preserve">
<path fill="#F8F4F0" d="M18,9.0447035C18,4.0495539,13.8151999,0,9.0219994,0C4.0495501,0,0,4.0495539,0,9.0447035
	C0,13.994154,4.0495501,18,9.0219994,18C13.9951,18,18,14.0166035,18,9.0447035"/>
<path fill="#14489E" d="M16.0002518,9.0346537c0-3.8849998-3.2551517-7.0344-6.9826517-7.0344
	c-3.8679504,0-7.0173483,3.1494-7.0173483,7.0344c0,3.8496504,3.1493979,6.9651003,7.0173483,6.9651003
	C12.885252,15.999754,16.0002518,12.9016037,16.0002518,9.0346537"/>
<path fill="#FFFFFF" d="M15.0002518,9c0,3.3135004-2.6864996,6-6,6c-3.3137021,0-6-2.6864996-6-6s2.6862979-6,6-6
	C12.3137522,3,15.0002518,5.6865001,15.0002518,9"/>
<path fill="#104E81" d="M16.0002518,9.0346537C16.0002518,5.1496539,12.7451,2,9.0176001,2
	C5.1496496,2,2.0002518,5.1496539,2.0002518,9.0346537C2.0002518,12.8840532,5.1496496,16,9.0176001,16
	C12.885252,16,16.0002518,12.9016037,16.0002518,9.0346537"/>
<path fill="#FFFFFF" d="M15.0002518,9c0,3.3135004-2.6864996,6-6,6c-3.3137021,0-6-2.6864996-6-6s2.6862979-6,6-6
	C12.3137522,3,15.0002518,5.6865001,15.0002518,9"/>
<polygon fill="#104E81" points="12.2502518,11.7857141 12.2502518,6.2142859 11.7859659,5.2857141 10.8573942,5.2857141 
	9.0002518,9 7.1431088,5.2857141 6.2145376,5.2857141 5.7502518,6.2142859 5.7502518,11.7857141 7.1431088,12.7142859 
	7.1431088,8.0714283 8.5359659,10.8571424 9.4645376,10.8571424 10.8573942,8.0714283 10.8573942,12.7142859 "/>
<path fill="#F8F4F0" d="M33.999752,9.0444536C33.999752,4.0495539,29.8151989,0,25.0234489,0
	C20.0505486,0,16,4.0495539,16,9.0444536C16,13.9712038,20.0505486,18,25.0234489,18
	C29.9953499,18,33.999752,14.0161037,33.999752,9.0444536"/>
<path fill="#104E81" d="M32.0002518,9c0-3.8850002-3.2551517-7.034646-6.9822025-7.034646C21.15065,1.965354,18,5.1149998,18,9
	c0,3.8320532,3.15065,6.9648533,7.0180492,6.9648533C28.8855,15.9648533,32.0002518,12.8669538,32.0002518,9"/>
<path fill="#FFFFFF" d="M31.0002518,9.0434542c0,3.2648993-2.6963024,5.9562998-5.9822025,5.9562998
	C21.7136497,14.999754,19,12.3254538,19,9.0434542c0-3.3166504,2.7136497-6.0437002,6.0180492-6.0437002
	C28.3039494,2.999754,31.0002518,5.7439036,31.0002518,9.0434542"/>
<polygon fill="#104E81" points="24.1501484,6.452404 24.1501484,11.5788536 26.2751484,11.5788536 26.2751484,10.702404 
	25,10.702404 25,9.4272537 26.2751484,9.4272537 26.2751484,8.1523533 25,8.1523533 25,7.3022537 26.2751484,7.3022537 
	26.2751484,6.452404 "/>
<path fill="#104E81" d="M27.1999493,6.452404v5.0998497h0.8500996V9.8523035l0.8500996,0.4513998v1.2485504l0.8501034-0.8498497
	V9.8523035l-0.8501034-0.8498497h0.8501034V7.3022537L28.9001484,6.452404h-0.8500996H27.1999493z M28.0500488,7.3022537h0.8500996
	v0.8500996L28.0500488,8.577404V7.3022537z"/>
<path fill="#104E81" d="M21.0471497,6.452404v0.0529499L20.25,7.3022537v3.4001503l0.8500996,0.8498497V9.8523035
	l0.8500996,1.2751503v0.4247999h1.2749004v-0.4247999l-1.2749004-2.125h1.2749004V8.1523533V6.452404H21.0471497z
	 M21.5251503,7.3022537H22.375L21.9501991,8.577404h-0.8500996L21.5251503,7.3022537z"/>
</svg>
