<?xml version="1.0" encoding="utf-8"?>
<!-- Generator: Adobe Illustrator 18.0.0, SVG Export Plug-In . SVG Version: 6.00 Build 0)  -->
<!DOCTYPE svg PUBLIC "-//W3C//DTD SVG 1.0//EN" "http://www.w3.org/TR/2001/REC-SVG-20010904/DTD/svg10.dtd">
<svg version="1.0" id="Layer_1" xmlns="http://www.w3.org/2000/svg" xmlns:xlink="http://www.w3.org/1999/xlink" x="0px" y="0px"
	 width="18px" height="18px" viewBox="0 0 18 18" enable-background="new 0 0 18 18" xml:space="preserve">
<path fill="#F8F4F0" d="M9,0c4.9706964,0,9,4.0295534,9,9c0,4.9704533-4.0293036,9-9,9c-4.9707031,0-9-4.0295467-9-9
	C0,4.0295534,4.0292969,0,9,0"/>
<path opacity="0.6" fill="#895FB1" d="M9,2c3.8660975,0,7,3.1340971,7,7c0,3.8659077-3.1339025,7-7,7c-3.8661027,0-7-3.1340923-7-7
	C2,5.1340971,5.1338973,2,9,2"/>
<path fill="#FFFFFF" d="M12.5839748,12.3759623C12.812789,12.719183,12.6624994,13,12.25,13h-6.5
	c-0.4124999,0-0.562789-0.280817-0.3339748-0.6240377l0.1679497-0.2519245C5.8127885,11.780817,6.3375001,11.5,6.75,11.5h4.5
	c0.4124994,0,0.937211,0.280817,1.1660252,0.6240377L12.5839748,12.3759623z"/>
<rect x="6.5" y="6" fill="#FFFFFF" width="5" height="5.5"/>
<path fill="#FFFFFF" d="M5.4160252,5.1240377C5.187211,4.780817,5.3375001,4.5,5.75,4.5h6.5
	c0.4124994,0,0.562789,0.280817,0.3339748,0.6240377l-0.1679497,0.2519245C12.187211,5.719183,11.6624994,6,11.25,6h-4.5
	C6.3375001,6,5.8127885,5.719183,5.5839748,5.3759623L5.4160252,5.1240377z"/>
<g opacity="0.6">
	<path fill="#895FB1" d="M8.5,10.5C8.5,10.7749996,8.2749996,11,8,11l0,0c-0.2750001,0-0.5-0.2250004-0.5-0.5V6.9866538
		c0-0.2750001,0.2249999-0.5,0.5-0.5l0,0c0.2749996,0,0.5,0.2249999,0.5,0.5V10.5z"/>
</g>
<g opacity="0.6">
	<path fill="#895FB1" d="M10.5,10.5c0,0.2749996-0.2250004,0.5-0.5,0.5l0,0c-0.2750006,0-0.5-0.2250004-0.5-0.5V7.0158858
		c0-0.2750001,0.2249994-0.5,0.5-0.5l0,0c0.2749996,0,0.5,0.2249999,0.5,0.5V10.5z"/>
</g>
<path fill="#FFFFFF" d="M5.4160256,5.1240377C5.187212,4.780817,5.3375006,4.5,5.7500005,4.5h6.5000005
	c0.4124994,0,0.562788,0.280817,0.3339748,0.6240377l-0.1679497,0.2519245C12.187212,5.719183,11.6625004,6,11.250001,6H6.7500005
	c-0.4124999,0-0.937211-0.280817-1.1660252-0.6240377L5.4160256,5.1240377z"/>
</svg>
