<?xml version="1.0" encoding="utf-8"?>
<!-- Generator: Adobe Illustrator 18.0.0, SVG Export Plug-In . SVG Version: 6.00 Build 0)  -->
<!DOCTYPE svg PUBLIC "-//W3C//DTD SVG 1.0//EN" "http://www.w3.org/TR/2001/REC-SVG-20010904/DTD/svg10.dtd">
<svg version="1.0" id="Layer_1" xmlns="http://www.w3.org/2000/svg" xmlns:xlink="http://www.w3.org/1999/xlink" x="0px" y="0px"
	 width="6px" height="6px" viewBox="0 0 6 6" enable-background="new 0 0 6 6" xml:space="preserve">
<path fill="#F8F4F0" d="M6,3c0-1.6666666-1.3999996-3-3-3C1.3333334,0,0,1.3333334,0,3c0,1.6333332,1.3666667,3,3,3
	C4.666667,6,6,4.666667,6,3"/>
<path fill="#104E81" d="M5.3333335,3c0-1.3-1.0999999-2.3333333-2.3333335-2.3333333C1.7333333,0.6666667,0.6666667,1.7,0.6666667,3
	c0,1.2666669,1.0666666,2.3333335,2.3333333,2.3333335C4.3000002,5.3333335,5.3333335,4.3000002,5.3333335,3"/>
<path fill="#F8F4F0" d="M5,3c0,1.1000004-0.8999996,2-2,2S1,4.1000004,1,3s0.9-2,2-2S5,1.9,5,3"/>
<polygon fill="#104E81" points="2.7333333,2.1666667 2.7333333,3.8666668 3.4333334,3.8666668 3.4333334,3.5666666 3,3.5666666 
	3,3.1333332 3.4333334,3.1333332 3.4333334,2.7333333 3,2.7333333 3,2.4333334 3.4333334,2.4333334 3.4333334,2.1666667 "/>
<path fill="#104E81" d="M3.7333333,2.1666667v1.7h0.3V3.3L4.333333,3.4666667v0.3999999l0.3000002-0.2666667V3.3L4.3000002,3
	h0.2999997V2.4333334L4.3000002,2.1666667H4H3.7333333z M4.0333338,2.4333334h0.2999997v0.3L4.0333338,2.8666666V2.4333334z"/>
<path fill="#104E81" d="M1.6666667,2.1666667L1.6666667,2.1666667L1.4333334,2.4333334v1.1333337l0.3000001,0.2666667V3.3
	L2,3.7000003v0.1333332h0.4333334V3.7000003L2,3h0.4333334V2.7333333V2.1666667H1.6666667z M1.8333334,2.4333334h0.2666668
	L2,2.8666668H1.7L1.8333334,2.4333334z"/>
</svg>
