<?xml version="1.0" encoding="utf-8"?>
<!-- Generator: Adobe Illustrator 18.0.0, SVG Export Plug-In . SVG Version: 6.00 Build 0)  -->
<!DOCTYPE svg PUBLIC "-//W3C//DTD SVG 1.0//EN" "http://www.w3.org/TR/2001/REC-SVG-20010904/DTD/svg10.dtd">
<svg version="1.0" id="Layer_1" xmlns="http://www.w3.org/2000/svg" xmlns:xlink="http://www.w3.org/1999/xlink" x="0px" y="0px"
	 width="33px" height="29px" viewBox="0 0 33 29" enable-background="new 0 0 33 29" xml:space="preserve">
<g>
	<path fill="#FFFFFF" d="M16.758049,0.80154c3.613739,2.3382001,8.2901402,2.3382001,10.6285801,0L32.0630264,5.47788
		c-4.6763973,4.6763997,4.676342,10.6283398-2.3381977,17.855278c-4.6766396,4.677-9.565979,1.2756004-13.1791801,4.677
		c-3.6138-3.6134987-8.2901392,0-13.1794796-4.677C-3.860831,16.1062202,5.704309,10.1542797,1.0279689,5.47788"/>
	<path fill="#999999" d="M16.5336494,29l-0.3887997-0.3918018c-1.5392408-1.5493259-3.290041-1.6484699-5.3173809-1.7628975
		c-2.3914795-0.1345482-5.10114-0.2873421-7.8527403-2.9370995c-4.2588596-4.2881298-2.9914799-8.2880764-1.9739999-11.5024242
		c0.8197199-2.588069,1.46688-4.63275-0.37326-6.4862728l-0.41862-0.4209833L6.1469889,0.0174l0.3832202,0.3861229
		c1.0242,1.0307689,2.5991998,1.5986249,4.4352603,1.5986249c1.8799791,0,3.8273392-0.5944396,5.4846592-1.6741458
		l0.3079205-0.2005833l0.3076191,0.2005833c1.65732,1.0797062,3.6049805,1.6741458,5.4846611,1.6741458
		c1.8365993,0,3.4109993-0.5678562,4.4352589-1.5986249L27.3863297,0l5.4779358,5.5159206l-0.4007378,0.4035835
		c-1.8562794,1.8700166-1.2252007,3.9306479-0.4266014,6.5414333c0.9785423,3.197794,2.1961212,7.176836-1.9057198,11.431921
		c-2.6830177,2.7022552-5.4550781,2.884594-7.9007969,3.0450611c-2.0302811,0.1333389-3.7834206,0.2483711-5.2960205,1.682663
		L16.5336494,29z M1.8268689,5.5534396c1.8252,2.2378936,1.02714,4.7572083,0.25374,7.1992497
		c-1.01982,3.2214165-2.0748,6.551403,1.6866,10.3395271c2.4404399,2.3500271,4.8211203,2.4845142,7.1232595,2.6137466
		c1.9259405,0.1085682,3.9137402,0.2207012,5.667181,1.7322655c1.7194195-1.3847504,3.6887398-1.5139809,5.5991993-1.6390438
		c2.3554802-0.1551495,4.7909393-0.3156166,7.1669407-2.7069683c3.6280766-3.7645016,2.6123981-7.0844574,1.6294785-10.2956038
		c-0.7541409-2.4647589-1.5322189-5.0079379,0.3263397-7.2620835l-3.9137383-3.9409189
		c-1.2202206,1.0035812-2.9068813,1.5502313-4.8155403,1.5502313c-1.9792805,0-4.0224609-0.5888209-5.7922802-1.6638147
		c-1.7695198,1.0749937-3.8129997,1.6638147-5.7925797,1.6638147c-1.9180803,0-3.6114602-0.5519667-4.8328204-1.5647314
		L1.8268689,5.5534396z"/>
</g>
</svg>
