<?xml version="1.0" encoding="utf-8"?>
<!-- Generator: Adobe Illustrator 18.0.0, SVG Export Plug-In . SVG Version: 6.00 Build 0)  -->
<!DOCTYPE svg PUBLIC "-//W3C//DTD SVG 1.0//EN" "http://www.w3.org/TR/2001/REC-SVG-20010904/DTD/svg10.dtd">
<svg version="1.0" id="Layer_1" xmlns="http://www.w3.org/2000/svg" xmlns:xlink="http://www.w3.org/1999/xlink" x="0px" y="0px"
	 width="32px" height="24px" viewBox="0 0 32 24" enable-background="new 0 0 32 24" xml:space="preserve">
<g>
	<defs>
		<rect id="SVGID_1_" width="32" height="24"/>
	</defs>
	<clipPath id="SVGID_2_">
		<use xlink:href="#SVGID_1_"  overflow="visible"/>
	</clipPath>
	<g clip-path="url(#SVGID_2_)">
		<defs>
			<rect id="SVGID_3_" width="32" height="24"/>
		</defs>
		<clipPath id="SVGID_4_">
			<use xlink:href="#SVGID_3_"  overflow="visible"/>
		</clipPath>
		<path clip-path="url(#SVGID_4_)" fill="#999999" d="M32,12c0,6.6699028-7.1286507,12-16,12S0,18.6699028,0,12
			C0,5.3301039,7.1286502,0,16,0S32,5.3301039,32,12 M15.9902496,1C7.7097001,1,0.9846,5.9199038,0.9846,12
			c0,6.0801029,6.7251,11,15.0056496,11c8.2804985,0,15.0053482-4.9198971,15.0053482-11
			C30.9955978,5.9199038,24.2707481,1,15.9902496,1"/>
		<path clip-path="url(#SVGID_4_)" fill="#FFFFFF" d="M0.9846,12c0-6.0800962,6.7251-11,15.0056496-11
			c8.2804985,0,15.0053482,4.9199038,15.0053482,11c0,6.0801029-6.7248497,11-15.0053482,11
			C7.7097001,23,0.9846,18.0801029,0.9846,12"/>
	</g>
</g>
</svg>
