<?xml version="1.0" encoding="utf-8"?>
<!-- Generator: Adobe Illustrator 18.0.0, SVG Export Plug-In . SVG Version: 6.00 Build 0)  -->
<!DOCTYPE svg PUBLIC "-//W3C//DTD SVG 1.0//EN" "http://www.w3.org/TR/2001/REC-SVG-20010904/DTD/svg10.dtd">
<svg version="1.0" id="Layer_1" xmlns="http://www.w3.org/2000/svg" xmlns:xlink="http://www.w3.org/1999/xlink" x="0px" y="0px"
	 width="18px" height="18px" viewBox="0 0 18 18" enable-background="new 0 0 18 18" xml:space="preserve">
<path fill="#F8F4F0" d="M0,4.5C0,2,2,0,4.5,0h9C16,0,18,2,18,4.5v9c0,2.5-2,4.5-4.5,4.5h-9C2,18,0,16,0,13.5V4.5z"/>
<path opacity="0.7" fill="#F02A10" enable-background="new    " d="M13.1999998,8H11
	c-0.5,0-0.8000002-0.0999999-0.8999996-0.1999998C9.8999996,7.6999998,9.8000002,7.5999999,9.8000002,7.5
	C9.6000004,6.8000002,9.1999998,4.6999998,9.1999998,4.5999999c0,0.0999999-0.3000002,2.2999997-0.6000004,2.9000001
	c0,0.0999999-0.1000004,0.1999998-0.3000002,0.4000001C8.1999998,8,7.9000001,8,7.4000001,8H1.7l5.4000006-4h5.8000002
	l-2.3000002,1.6999998h5.8000011L13.1999998,8"/>
<path fill="#4C72AA" d="M5.1999998,10h2.1999998c0.5,0,0.8000002,0.1000004,0.8999996,0.1999998
	C8.499999,10.3000002,8.499999,10.5,8.5999994,10.5999994C8.7999992,11.2999992,9.1999998,13.3999996,9.1999998,13.5
	c0-0.1000004,0.3000002-2.3000002,0.6000004-2.8999996c0-0.1000004,0.1000004-0.1999998,0.3000002-0.3999996
	C10.3000002,10.1000004,10.5,10.000001,11,10.000001h5.7000008l-5.5,4H5.5l2.3000002-1.6999998H2.0999999L5.1999998,10"/>
</svg>
