<?xml version="1.0" encoding="UTF-8" standalone="no"?>
<!-- Created with Inkscape (http://www.inkscape.org/) -->

<svg
   xmlns:dc="http://purl.org/dc/elements/1.1/"
   xmlns:cc="http://creativecommons.org/ns#"
   xmlns:rdf="http://www.w3.org/1999/02/22-rdf-syntax-ns#"
   xmlns:svg="http://www.w3.org/2000/svg"
   xmlns="http://www.w3.org/2000/svg"
   xmlns:sodipodi="http://sodipodi.sourceforge.net/DTD/sodipodi-0.dtd"
   xmlns:inkscape="http://www.inkscape.org/namespaces/inkscape"
   version="1.1"
   width="11"
   height="11"
   id="svg4764"
   inkscape:version="0.91+devel+osxmenu r12911"
   sodipodi:docname="college-11.svg"
   viewBox="0 0 11 11">
  <sodipodi:namedview
     pagecolor="#ffffff"
     bordercolor="#666666"
     borderopacity="1"
     objecttolerance="10"
     gridtolerance="10"
     guidetolerance="10"
     inkscape:pageopacity="0"
     inkscape:pageshadow="2"
     inkscape:window-width="943"
     inkscape:window-height="728"
     id="namedview3401"
     inkscape:document-units="px"
     showgrid="true"
     inkscape:zoom="45.254834"
     inkscape:cx="-8.5211732"
     inkscape:cy="5.7835192"
     inkscape:current-layer="svg4764"
     inkscape:snap-bbox="true"
     inkscape:bbox-paths="true"
     inkscape:bbox-nodes="true"
     inkscape:snap-bbox-edge-midpoints="true"
     inkscape:snap-bbox-midpoints="true"
     inkscape:object-paths="true"
     inkscape:snap-intersection-paths="true"
     inkscape:object-nodes="true"
     inkscape:snap-smooth-nodes="true"
     inkscape:window-x="0"
     inkscape:window-y="0"
     inkscape:window-maximized="0"
     showguides="false"
     inkscape:guide-bbox="true">
    <inkscape:grid
       type="xygrid"
       id="grid3333"
       spacingx="0.5"
       spacingy="0.5"
       color="#f20000"
       opacity="0.1254902"
       empspacing="2" />
    <sodipodi:guide
       position="5.5,10"
       orientation="1,0"
       id="guide5798" />
  </sodipodi:namedview>
  <defs
     id="defs4766" />
  <metadata
     id="metadata4769">
    <rdf:RDF>
      <cc:Work
         rdf:about="">
        <dc:format>image/svg+xml</dc:format>
        <dc:type
           rdf:resource="http://purl.org/dc/dcmitype/StillImage" />
        <dc:title />
      </cc:Work>
    </rdf:RDF>
  </metadata>
  <path
     style="fill:#000000;fill-opacity:1;fill-rule:evenodd;stroke:none;stroke-width:1px;stroke-linecap:butt;stroke-linejoin:miter;stroke-opacity:1"
     d="M 5.5 1 L 0 3.5 L 1.1523438 4.0234375 L 1.1523438 5.5761719 C 0.79131975 5.7277214 0.55649462 6.0811141 0.55664062 6.4726562 C 0.55759062 6.8060494 0.72936575 7.1156868 1.0117188 7.2929688 L 0.5 9 C 0.200229 10 1 10 1 10 L 2 10 C 2 10 2.801513 10 2.5 9 L 1.9941406 7.3222656 C 2.3049936 7.1524133 2.498814 6.8268847 2.5 6.4726562 C 2.500605 6.0799306 2.2647898 5.7254369 1.9023438 5.5742188 L 1.9023438 4.3652344 L 5.5 6 L 11 3.5 L 5.5 1 z M 9 5.5078125 L 5.5 7.0976562 L 3.4628906 6.171875 C 3.4823706 6.270158 3.50016 6.3697984 3.5 6.4746094 L 3.5 6.4765625 C 3.498603 6.8931958 3.3369655 7.2675443 3.1015625 7.5957031 C 3.2785065 8.0105636 3.5 8.3814116 3.5 9 L 3.5 9.6074219 C 4.01774 9.8287042 4.669117 10 5.5 10 C 8 10 9 8.5 9 8.5 L 9 5.5078125 z "
     id="path5831" />
</svg>
