<?xml version="1.0" encoding="UTF-8" standalone="no"?>
<!-- Generator: Adobe Illustrator 17.1.0, SVG Export Plug-In . SVG Version: 6.00 Build 0)  -->

<svg
   xmlns:dc="http://purl.org/dc/elements/1.1/"
   xmlns:cc="http://creativecommons.org/ns#"
   xmlns:rdf="http://www.w3.org/1999/02/22-rdf-syntax-ns#"
   xmlns:svg="http://www.w3.org/2000/svg"
   xmlns="http://www.w3.org/2000/svg"
   xmlns:sodipodi="http://sodipodi.sourceforge.net/DTD/sodipodi-0.dtd"
   xmlns:inkscape="http://www.inkscape.org/namespaces/inkscape"
   version="1.1"
   id="svg4764"
   x="0px"
   y="0px"
   viewBox="0 0 11 11"
   enable-background="new 0 0 11 11"
   xml:space="preserve"
   inkscape:version="0.91 r13725"
   sodipodi:docname="school-11.svg"><metadata
     id="metadata8"><rdf:RDF><cc:Work
         rdf:about=""><dc:format>image/svg+xml</dc:format><dc:type
           rdf:resource="http://purl.org/dc/dcmitype/StillImage" /><dc:title></dc:title></cc:Work></rdf:RDF></metadata><defs
     id="defs6" /><sodipodi:namedview
     pagecolor="#ffffff"
     bordercolor="#666666"
     borderopacity="1"
     objecttolerance="10"
     gridtolerance="10"
     guidetolerance="10"
     inkscape:pageopacity="0"
     inkscape:pageshadow="2"
     inkscape:window-width="1051"
     inkscape:window-height="747"
     id="namedview4"
     showgrid="true"
     inkscape:snap-bbox="true"
     inkscape:bbox-paths="true"
     inkscape:snap-bbox-edge-midpoints="true"
     inkscape:snap-bbox-midpoints="true"
     inkscape:bbox-nodes="true"
     inkscape:object-paths="true"
     inkscape:snap-intersection-paths="true"
     inkscape:object-nodes="true"
     inkscape:snap-smooth-nodes="true"
     inkscape:zoom="41.661967"
     inkscape:cx="8.0725037"
     inkscape:cy="4.6132289"
     inkscape:window-x="-7"
     inkscape:window-y="0"
     inkscape:window-maximized="0"
     inkscape:current-layer="g3354"
     showguides="false"><inkscape:grid
       type="xygrid"
       id="grid3336"
       spacingx="0.5"
       spacingy="0.5"
       color="#da0002"
       opacity="0.1254902"
       empspacing="2" /></sodipodi:namedview><g
     id="g3354"
     transform="matrix(0.64705882,0,0,0.64705882,9.0588235,3.5)"><path
       style="opacity:1;fill:#000000;fill-opacity:1;stroke:none;stroke-width:1;stroke-linecap:round;stroke-linejoin:miter;stroke-miterlimit:4;stroke-dasharray:none;stroke-dashoffset:0;stroke-opacity:1"
       d="m 0.5,2 0,2 0,7 L 1,11 1,4 3.5,4 3.5,2 1,2 Z M 6.4999998,1.4999999 4.5,3 4.5,6 2,6 l 0,5 9,0 0,-5 -2.5,0 0,-3 z M 6.4648438,3.5 c 0.5073454,-0.017625 0.9473975,0.3476852 1.0234374,0.8496094 l 0.00781,0.0625 C 7.5438158,4.9559663 7.1465248,5.4375838 6.6035156,5.4941406 6.0607177,5.5502882 5.573128,5.1609118 5.5078125,4.6191406 5.4431,4.0773569 5.8246333,3.5837101 6.3652344,3.5097656 6.3982537,3.5048498 6.4314985,3.5015905 6.4648438,3.5 Z M 3,7.5 4,7.5 4,9 3,9 Z m 3,0 1,0 L 7,9 6,9 Z m 3,0 1,0 0,1.5 -1,0 z"
       transform="matrix(1.5454546,0,0,1.5454546,-14,-5.4090909)"
       id="rect3336"
       inkscape:connector-curvature="0"
       sodipodi:nodetypes="ccccccccccccccccccccccccccccccccccccccccc" /></g></svg>
