<?xml version="1.0" encoding="UTF-8" standalone="no"?>
<!-- Generator: Adobe Illustrator 17.1.0, SVG Export Plug-In . SVG Version: 6.00 Build 0)  -->

<svg
   xmlns:dc="http://purl.org/dc/elements/1.1/"
   xmlns:cc="http://creativecommons.org/ns#"
   xmlns:rdf="http://www.w3.org/1999/02/22-rdf-syntax-ns#"
   xmlns:svg="http://www.w3.org/2000/svg"
   xmlns="http://www.w3.org/2000/svg"
   xmlns:sodipodi="http://sodipodi.sourceforge.net/DTD/sodipodi-0.dtd"
   xmlns:inkscape="http://www.inkscape.org/namespaces/inkscape"
   version="1.1"
   id="svg4764"
   x="0px"
   y="0px"
   viewBox="0 0 11 11"
   enable-background="new 0 0 11 11"
   xml:space="preserve"
   inkscape:version="0.91 r13725"
   sodipodi:docname="school-11.svg"><metadata
     id="metadata8"><rdf:RDF><cc:Work
         rdf:about=""><dc:format>image/svg+xml</dc:format><dc:type
           rdf:resource="http://purl.org/dc/dcmitype/StillImage" /><dc:title></dc:title></cc:Work></rdf:RDF></metadata><defs
     id="defs6" /><sodipodi:namedview
     pagecolor="#ffffff"
     bordercolor="#666666"
     borderopacity="1"
     objecttolerance="10"
     gridtolerance="10"
     guidetolerance="10"
     inkscape:pageopacity="0"
     inkscape:pageshadow="2"
     inkscape:window-width="1051"
     inkscape:window-height="747"
     id="namedview4"
     showgrid="false"
     inkscape:snap-bbox="true"
     inkscape:bbox-paths="true"
     inkscape:snap-bbox-edge-midpoints="true"
     inkscape:snap-bbox-midpoints="true"
     inkscape:bbox-nodes="true"
     inkscape:object-paths="true"
     inkscape:snap-intersection-paths="true"
     inkscape:object-nodes="true"
     inkscape:snap-smooth-nodes="true"
     inkscape:zoom="83.323934"
     inkscape:cx="5.9674594"
     inkscape:cy="7.236045"
     inkscape:window-x="-7"
     inkscape:window-y="0"
     inkscape:window-maximized="0"
     inkscape:current-layer="g3354"><inkscape:grid
       type="xygrid"
       id="grid3336"
       spacingx="0.5"
       spacingy="0.5"
       color="#da0002"
       opacity="0.1254902"
       empspacing="2" /></sodipodi:namedview><g
     id="g3354"
     transform="matrix(0.64705882,0,0,0.64705882,9.0588235,3.5)"><path
       style="opacity:1;fill:#000000;fill-opacity:1;stroke:none;stroke-width:0;stroke-linecap:round;stroke-linejoin:round;stroke-miterlimit:4;stroke-dasharray:none;stroke-dashoffset:0;stroke-opacity:1"
       d="m -10.909091,-0.77272753 -2.318182,5.40909103 0,1.5454546 6.1818184,0 L -5.5,8.5 l 1.5454546,-2.3181819 6.1818184,0 0,-1.5454546 -1.54545456,-3.86363645 -2.31818194,2.31818185 -2.3181819,0 0,-2.31818185 1.5454546,-1.54545458 -1.5454546,0 L -5.5,0.77272705 l -1.5454546,-1.54545458 -3.8636364,0 z M -5.5,8.5 l 2.3181819,-0.7727273 6.1818184,0 0,-0.7274502 L -3.1818181,6.9545454 -5.5,8.5 Z m 0,0 -2.3181819,-1.5454546 -6.1818181,0 0,0.7727273 6.1818181,0 L -5.5,8.5 Z"
       id="rect4194"
       inkscape:connector-curvature="0" /><path
       sodipodi:nodetypes="ccccccccccc"
       inkscape:connector-curvature="0"
       id="rect4296"
       d="M 1.4545453,-3.8636365 0.68181806,-3.0909092 2.2272728,-1.5454545 3,-2.3181818 Z m -1.54545445,1.5454545 -3.09090915,3.09090912 5e-7,1.54545498 1.5454542,-3e-7 3.0909092,-3.0909091 z"
       style="opacity:1;fill:#000000;fill-opacity:1;stroke:#ffffff;stroke-width:0;stroke-linecap:round;stroke-linejoin:round;stroke-miterlimit:4;stroke-dasharray:none;stroke-dashoffset:0;stroke-opacity:1" /></g></svg>
