<?xml version="1.0" encoding="UTF-8" standalone="no"?>
<svg
   xmlns:dc="http://purl.org/dc/elements/1.1/"
   xmlns:cc="http://creativecommons.org/ns#"
   xmlns:rdf="http://www.w3.org/1999/02/22-rdf-syntax-ns#"
   xmlns:svg="http://www.w3.org/2000/svg"
   xmlns="http://www.w3.org/2000/svg"
   id="svg2"
   width="48"
   height="48"
   viewBox="0 0 24 24"
   version="1.1">
  <metadata
     id="metadata14">
    <rdf:RDF>
      <cc:Work
         rdf:about="">
        <dc:format>image/svg+xml</dc:format>
        <dc:type
           rdf:resource="http://purl.org/dc/dcmitype/StillImage" />
      </cc:Work>
    </rdf:RDF>
  </metadata>
  <defs
     id="defs12" />
  <ellipse
     id="ellipse4"
     ry="12"
     rx="12"
     cy="12"
     cx="12"
     style="fill:#ffffff;stroke:none;" />
  <ellipse
     id="ellipse6"
     ry="10"
     rx="10"
     cy="12"
     cx="12"
     style="fill:#b5a462;stroke:none;" />
  <g
     id="g8"
     transform="translate(4.5,4.5)">
      <defs     id="defs4621" />  <metadata     id="metadata4624">    <rdf:RDF>      <cc:Work         rdf:about="">        <dc:format>image/svg+xml</dc:format>        <dc:type           rdf:resource="http://purl.org/dc/dcmitype/StillImage" />        <dc:title />      </cc:Work>    </rdf:RDF>  </metadata>  <path     id="path5992"     transform="scale(0.88235293)"     d="M 7.5 1 L 0 4.5 L 2 5.4335938 L 2 10 L 1.09375 12.095703 C 0.7515604 13 1.0000001 14 2.5 14 C 3.9999995 14 4.1769542 13 3.9042969 12.095703 L 3 10 L 3 5.9003906 L 7.5 8 L 15 4.5 L 7.5 1 z M 12 7.5 L 7.5 9.5 L 4.9960938 8.3886719 A 2.5 2.5 0 0 1 5 8.5 A 2.5 2.5 0 0 1 4.2226562 10.310547 L 4.8457031 11.751953 L 4.8613281 11.806641 C 4.9685868 12.162353 5.0301833 12.564183 4.9960938 12.978516 C 5.6490218 13.285791 6.4607707 13.5 7.5 13.5 C 10.772728 13.5 12 11.499999 12 10.5 L 12 7.5 z "     style="fill:#ffffff;fill-opacity:1;fill-rule:evenodd;stroke:none;stroke-width:1.00000012px;stroke-linecap:butt;stroke-linejoin:miter;stroke-opacity:1" />  <g     transform="translate(-3.6666667e-7,26.470588)"     style="stroke:#ffffff;stroke-width:1.7647059;stroke-miterlimit:4;stroke-dasharray:none;stroke-opacity:1"     id="g6004" />  <g     transform="translate(-3.6666667e-7,26.470588)"     id="g5998" />  <circle     r="1.3235295"     cy="7.5"     cx="2.205883"     id="path6065"     style="opacity:1;fill:#ffffff;fill-opacity:1;stroke:none;stroke-width:1.7647059;stroke-linecap:round;stroke-linejoin:round;stroke-miterlimit:4;stroke-dasharray:none;stroke-dashoffset:0;stroke-opacity:1;marker:none" />
  </g>
</svg>
