<?xml version="1.0" encoding="utf-8"?>
<!-- Generator: Adobe Illustrator 18.0.0, SVG Export Plug-In . SVG Version: 6.00 Build 0)  -->
<!DOCTYPE svg PUBLIC "-//W3C//DTD SVG 1.0//EN" "http://www.w3.org/TR/2001/REC-SVG-20010904/DTD/svg10.dtd">
<svg version="1.0" id="Layer_1" xmlns="http://www.w3.org/2000/svg" xmlns:xlink="http://www.w3.org/1999/xlink" x="0px" y="0px"
	 width="18px" height="18px" viewBox="0 0 18 18" enable-background="new 0 0 18 18" xml:space="preserve">
<path fill="#F8F4F0" d="M9,0c4.9706964,0,9,4.0295534,9,9c0,4.9704533-4.0293036,9-9,9c-4.9707031,0-9-4.0295467-9-9
	C0,4.0295534,4.0292969,0,9,0"/>
<path opacity="0.6" fill="#895FB1" d="M9,2c3.8660975,0,7,3.1340971,7,7c0,3.8659077-3.1339025,7-7,7c-3.8661027,0-7-3.1340923-7-7
	C2,5.1340971,5.1338973,2,9,2"/>
<path fill="#F8F4F0" d="M9.5558214,9.0859261c-0.3390045,0.1759653-0.8937387,0.1759653-1.2327433,0L4.3896866,7.0442386
	C4.0506821,6.8682728,4.0679665,6.6053452,4.4280958,6.4599547l3.8565731-1.5569663
	c0.3601294-0.145391,0.9494324-0.145391,1.3095617,0l3.8565731,1.5569663
	c0.3601294,0.1453905,0.3774137,0.408318,0.0384092,0.5842838L9.5558214,9.0859261z"/>
<rect x="4.75" y="7" fill="#F8F4F0" width="1" height="3.1756916"/>
<path fill="#F8F4F0" d="M10.246582,10.4172363c-0.4780273,0.2485352-0.9746094,0.3007812-1.3071289,0.3007812
	s-0.8291016-0.0522461-1.3076172-0.3010254l-0.3851624-0.1999207C7.2468567,10.228302,7.25,10.2387085,7.25,10.25
	c0,0.5957336-0.2656555,1.1246948-0.6789246,1.4910889C6.8270569,12.4885864,7.8146973,13.0462952,9,13.0462952
	c1.3545227,0,2.4509277-0.7283325,2.4923096-1.6358948H11.5V9.7666626L10.246582,10.4172363z"/>
<circle fill="#F8F4F0" cx="5.25" cy="10.25" r="1"/>
</svg>
