<?xml version="1.0" encoding="utf-8"?>
<!-- Generator: Adobe Illustrator 18.0.0, SVG Export Plug-In . SVG Version: 6.00 Build 0)  -->
<!DOCTYPE svg PUBLIC "-//W3C//DTD SVG 1.0//EN" "http://www.w3.org/TR/2001/REC-SVG-20010904/DTD/svg10.dtd">
<svg version="1.0" id="Layer_1" xmlns="http://www.w3.org/2000/svg" xmlns:xlink="http://www.w3.org/1999/xlink" x="0px" y="0px"
	 width="18px" height="18px" viewBox="0 0 18 18" enable-background="new 0 0 18 18" xml:space="preserve">
<path fill="#F8F4F0" d="M9,0c5,0,9,4,9,9s-4,9-9,9s-9-4-9-9S4,0,9,0"/>
<path opacity="0.6" fill="#C24246" enable-background="new    " d="M9,2c3.8999996,0,7,3.0999999,7,7s-3.1000004,7-7,7
	s-7-3.1000004-7-7S5.0999999,2,9,2"/>
<path fill="#FFFFFF" d="M12.6000004,9.1000004c0.3999996,2.8999996-1.3999996,4.5-3,4.6999998
	C8,14.1000004,6.4000001,13,6.3000002,10.8999996C6.0999999,8.1999998,9,7.8000002,7.3000002,4.6999998
	C6.5999999,3.5999999,12,5.1999998,12.6000004,9.1000004z"/>
<ellipse transform="matrix(0.2118027 -0.9773124 0.9773124 0.2118027 -2.658762 17.2947311)" opacity="0.6" fill="#C24246" enable-background="new    " cx="9.3927794" cy="10.2957096" rx="2.0999727" ry="1.3999817"/>
</svg>
