<?xml version="1.0" encoding="utf-8"?>
<svg version="1.1" id="Layer_1" xmlns="http://www.w3.org/2000/svg" xmlns:xlink="http://www.w3.org/1999/xlink" x="0px" y="0px"
	 width="72" height="72" viewBox="0 0 36 36" enable-background="new 0 0 36 36" xml:space="preserve">
<path fill="#F8F4F0" d="M18,0c9.941,0,18,8.059,18,18c0,9.941-8.059,18-18,18C8.059,36,0,27.941,0,18C0,8.059,8.059,0,18,0"/>
<path opacity="0.9" fill="#8F8483" d="M18,4c7.732,0,14,6.268,14,14c0,7.732-6.268,14-14,14c-7.732,0-14-6.268-14-14
	C4,10.268,10.268,4,18,4"/>
<path fill="#FFFFFF" d="M22.993,21.053c-2.757,2.757-7.228,2.757-9.985,0c-2.757-2.757-2.757-7.228,0-9.985
	c2.757-2.757,7.228-2.757,9.985,0C25.75,13.825,25.75,18.296,22.993,21.053"/>
<rect x="14.47" y="17.523" transform="matrix(-0.7071 0.7071 -0.7071 -0.7071 45.6149 23.2123)" fill="#FFFFFF" width="7.061" height="7.061"/>
<circle opacity="0.9" fill="#8F8483" cx="18" cy="16" r="3"/>
</svg>
