<?xml version="1.0" encoding="utf-8"?>
<svg version="1.1" id="Layer_1" xmlns="http://www.w3.org/2000/svg" xmlns:xlink="http://www.w3.org/1999/xlink" x="0px" y="0px"
	 width="72" height="72" viewBox="0 0 36 36" enable-background="new 0 0 36 36" xml:space="preserve">
<path fill="#F8F4F0" d="M18,0c9.941,0,18,8.059,18,18c0,9.941-8.059,18-18,18C8.059,36,0,27.941,0,18C0,8.059,8.059,0,18,0"/>
<path opacity="0.9" fill="#8F8483" d="M18,4c7.732,0,14,6.268,14,14c0,7.732-6.268,14-14,14c-7.732,0-14-6.268-14-14
	C4,10.268,10.268,4,18,4"/>
<circle fill="#FFFFFF" cx="18" cy="12" r="4"/>
<g>
	<path fill="#FFFFFF" d="M11.061,17.944c0,0,0.017,0.196,0.047,0.538c0.015,0.169,0.026,0.397,0.076,0.565
		c0.051,0.19,0.063,0.391,0.148,0.634c0.085,0.238,0.138,0.508,0.27,0.764c0.106,0.267,0.239,0.536,0.404,0.8
		c0.141,0.277,0.355,0.521,0.544,0.783c0.217,0.243,0.43,0.494,0.683,0.708c0.232,0.234,0.514,0.415,0.773,0.607
		c0.275,0.174,0.545,0.342,0.828,0.469c0.269,0.152,0.56,0.232,0.818,0.341c0.273,0.069,0.52,0.17,0.762,0.202
		c0.475,0.105,0.877,0.132,1.153,0.14C17.842,24.499,18,24.5,18,24.5l0.125,0.001c0.829,0.007,1.496,0.685,1.489,1.514
		c-0.007,0.829-0.685,1.496-1.514,1.489c-0.032,0-0.069-0.002-0.101-0.004c0,0-0.234-0.018-0.645-0.049
		c-0.407-0.041-0.988-0.124-1.652-0.321c-0.339-0.078-0.682-0.232-1.053-0.364c-0.355-0.171-0.743-0.323-1.106-0.554
		c-0.376-0.207-0.737-0.463-1.097-0.732c-0.345-0.287-0.705-0.57-1.008-0.913c-0.325-0.321-0.601-0.686-0.871-1.045
		c-0.242-0.378-0.499-0.739-0.673-1.13c-0.199-0.379-0.354-0.759-0.474-1.13c-0.146-0.362-0.204-0.726-0.289-1.052
		c-0.084-0.323-0.102-0.667-0.144-0.946c-0.045-0.302-0.036-0.494-0.041-0.668c-0.006-0.344-0.009-0.54-0.009-0.54
		c-0.011-0.587,0.456-1.072,1.043-1.083C10.543,16.963,11.011,17.394,11.061,17.944z"/>
</g>
<g>
	<path fill="#FFFFFF" d="M27.061,18.056c0,0-0.003,0.197-0.009,0.54c-0.004,0.174,0.004,0.365-0.041,0.668
		c-0.041,0.279-0.06,0.623-0.144,0.946c-0.085,0.326-0.143,0.69-0.289,1.052c-0.12,0.371-0.275,0.752-0.474,1.13
		c-0.174,0.391-0.431,0.753-0.673,1.13c-0.27,0.358-0.546,0.723-0.871,1.045c-0.304,0.343-0.664,0.626-1.008,0.913
		c-0.359,0.269-0.721,0.525-1.097,0.732c-0.363,0.231-0.751,0.383-1.106,0.554c-0.371,0.132-0.714,0.286-1.053,0.364
		c-0.665,0.196-1.245,0.28-1.652,0.321C18.234,27.482,18,27.5,18,27.5c-0.827,0.062-1.548-0.557-1.61-1.384
		c-0.062-0.827,0.557-1.548,1.384-1.61c0.032-0.002,0.065-0.004,0.097-0.004L18,24.5c0,0,0.158-0.001,0.434-0.004
		c0.276-0.008,0.678-0.034,1.153-0.14c0.242-0.032,0.489-0.133,0.762-0.202c0.258-0.109,0.549-0.189,0.818-0.341
		c0.282-0.127,0.553-0.295,0.828-0.469c0.259-0.191,0.541-0.373,0.773-0.607c0.254-0.214,0.467-0.464,0.683-0.708
		c0.188-0.262,0.403-0.507,0.544-0.783c0.165-0.264,0.298-0.533,0.404-0.8c0.132-0.256,0.185-0.527,0.27-0.764
		c0.085-0.243,0.097-0.444,0.148-0.634c0.05-0.168,0.061-0.396,0.076-0.565c0.03-0.343,0.047-0.538,0.047-0.538
		c0.051-0.585,0.566-1.018,1.151-0.967C26.649,17.026,27.069,17.504,27.061,18.056z"/>
</g>
<line fill="#6A6465" stroke="#FFFFFF" stroke-width="3" stroke-miterlimit="10" x1="18" y1="26.25" x2="18" y2="13"/>
<circle fill="#8F8483" cx="18" cy="12" r="1.5"/>
</svg>
