<?xml version="1.0" encoding="utf-8"?>
<!-- Generator: Adobe Illustrator 18.0.0, SVG Export Plug-In . SVG Version: 6.00 Build 0)  -->
<!DOCTYPE svg PUBLIC "-//W3C//DTD SVG 1.0//EN" "http://www.w3.org/TR/2001/REC-SVG-20010904/DTD/svg10.dtd">
<svg version="1.0" id="Layer_1" xmlns="http://www.w3.org/2000/svg" xmlns:xlink="http://www.w3.org/1999/xlink" x="0px" y="0px"
	 width="40px" height="39px" viewBox="0 0 40 39" enable-background="new 0 0 40 39" xml:space="preserve">
<path display="none" fill="#FFFFFF" d="M20.3597355,39.9755325c-5.9629803-0.6043854-11.3599005-3.6742706-15.197175-8.6434383
	c-3.5772519-4.6432419-5.4458566-10.5295105-5.127646-16.1510239c0.1609313-4.9104433,1.866657-9.8659096,4.8006706-13.906724
	L5.5321426,0.315161l1.1720476,0.1531761c0.6317954,0.0827053,1.2263403,0.1972203,1.7812004,0.3068415l0.0499105,0.0097876
	c0.5022707,0.0968973,1.0215845,0.1972203,1.5279951,0.2618185l0.0727968,0.0092982l0.071579,0.0141921
	c1.0727129,0.2182636,2.1904669,0.3288636,3.3218555,0.3288636c2.04317,0,4.2168388-0.3410982,6.4601383-1.0135069
	l0.5977097-0.1791133l0.592598,0.1947734c0.7094612,0.2334345,1.4644508,0.3572477,2.2637501,0.4888911l0.1611748,0.0264266
	l0.0591621,0.0137026c1.2548275,0.2857981,2.5634594,0.4311442,3.8891335,0.4311442
	c2.039032,0,4.1956558-0.3210336,6.5930691-0.9812078L35.5259895,0l0.800518,1.1916413
	c2.3445816,3.4907508,3.8372726,7.1385922,4.4366875,10.8422241l0.0124168,0.0768328l0.0063286,0.077322
	c0.1726189,2.0646963,0.3031158,3.9341288,0.1507072,5.9009504c-0.3802948,5.034256-2.982708,10.2309875-7.3271217,14.6295395
	c-3.9166451,3.9610443-8.6893177,6.6702538-12.7673798,7.2477226L20.5993061,40L20.3597355,39.9755325z M4.7605977,13.0302439
	c-0.278769,1.7901535-0.2683001,3.4843893,0.0289726,5.1414309l0.0119295,0.0670452l0.0075474,0.0675335
	c1.1462402,10.380249,8.9315662,16.4710789,15.7734585,17.0177174c8.5712357-1.784771,16.2513828-11.4001179,15.8681698-19.9461689
	l-0.0019493-0.0900459c0-0.7634335-0.044796-1.4955473-0.1412125-2.2575121H4.7605977z M34.5708694,7.5555449
	c-0.3262444-0.7081337-0.7153053-1.4275231-1.1666908-2.1557212c-1.929472,0.4663796-3.8961926,0.702261-5.8648624,0.702261
	c-1.838171,0-3.6824303-0.2070079-5.4816456-0.6156406c-0.4343452-0.0866203-0.8433685-0.2207103-1.2041855-0.3396297
	c-0.1319599-0.0430655-0.2563705-0.0841737-0.3756695-0.120388c-2.2111607,0.7184105-4.6538601,1.1011062-7.050787,1.1011062
	c-1.2847729,0-2.5520153-0.1086426-3.7671566-0.3239698C9.1561403,5.7296662,8.6643381,5.629343,8.1886053,5.5319567
	C7.99651,5.492806,7.8080668,5.454145,7.620841,5.4174414c-0.4309354,0.6528335-0.8255944,1.371244-1.1756992,2.1381035H34.5708694z
	"/>
<path fill="#F8F4F0" d="M19.9109764,38.9813652c-5.8254213-0.5919418-11.1003656-3.5997162-14.853157-8.4701176
	c-3.5044556-4.5584927-5.3350797-10.3347073-5.0236859-15.848546C0.1921431,9.8290806,1.864027,4.9621115,4.7396088,0.9935994
	l0.5224791-0.7209235l0.8789139,0.1152497c0.6171875,0.08092,1.2024808,0.1937175,1.749063,0.3021013l0.0525885,0.0102989
	C8.4524717,0.798901,8.9795771,0.9004188,9.501812,0.9671164l0.0545368,0.0073564l0.0538063,0.0107893
	c1.1053371,0.2251047,2.2562027,0.3393735,3.4207029,0.3393735c2.0913763,0,4.3130083-0.3486916,6.602809-1.0367566
	l0.4482231-0.1343762l0.4443245,0.1461464c0.7459812,0.2457025,1.5555077,0.3790979,2.338253,0.5080794l0.1463223,0.0245212
	l0.0443115,0.0098085c1.2908592,0.2952353,2.6364975,0.4448147,3.9994221,0.4448147
	c2.0843163,0,4.2840366-0.3276033,6.7247849-1.0014461L34.8140411,0l0.6003914,0.8955145
	c2.3039207,3.4373827,3.7703209,7.0258164,4.3578033,10.6652536l0.0094948,0.0573797l0.0046272,0.0583611
	c0.1706696,2.0470304,0.2999496,3.8988714,0.1504631,5.8321238c-0.3715324,4.9272919-2.9228172,10.0227985-7.1839638,14.3458881
	c-3.7851734,3.8365879-8.5680714,6.5648174-12.4830112,7.119978L20.0908966,39L19.9109764,38.9813652z"/>
<path opacity="0.7" fill="#46819B" d="M37.9444389,14.7404366c0.4484596,10.0263844-8.496769,20.338871-17.7337646,22.101799
	c-9.6854553-0.587719-16.8433514-9.4238281-17.8827095-18.8550377c-0.4488313-2.5085354-0.2990997-5.0093193,0.2990968-7.517849
	h34.8685493C37.7947044,11.9457254,37.9444389,13.2717438,37.9444389,14.7404366"/>
<path opacity="0.6" fill="#A80415" d="M21.998373,2.959259c3.8743458,0.8812757,7.8981285,0.7381504,11.7725506-0.4447434
	c1.3387909,1.9134357,2.5351791,4.1280375,3.1337471,6.4861412H14.2499046H3.0682189L3.2179544,8.555913
	C3.8161478,6.6425529,4.7138119,4.7218037,5.9028993,3.102309l0.2991042-0.436991
	c1.1894536,0.1431253,2.2364788,0.436991,3.2761898,0.5874233c3.2831841,0.5877934,6.8584328,0.293859,9.9845505-0.7382257
	l0.4488335-0.14305C20.6595058,2.5145156,21.2504444,2.8084433,21.998373,2.959259"/>
</svg>
