<?xml version="1.0" encoding="utf-8"?>
<!-- Generator: Adobe Illustrator 18.0.0, SVG Export Plug-In . SVG Version: 6.00 Build 0)  -->
<!DOCTYPE svg PUBLIC "-//W3C//DTD SVG 1.0//EN" "http://www.w3.org/TR/2001/REC-SVG-20010904/DTD/svg10.dtd">
<svg version="1.0" id="Layer_1" xmlns="http://www.w3.org/2000/svg" xmlns:xlink="http://www.w3.org/1999/xlink" x="0px" y="0px"
	 width="18px" height="18px" viewBox="0 0 18 18" enable-background="new 0 0 18 18" xml:space="preserve">
<path fill="#F8F4F0" d="M18,9.0447035C18,4.0495539,13.8151999,0,9.0219994,0C4.0495501,0,0,4.0495539,0,9.0447035
	C0,13.994154,4.0495501,18,9.0219994,18C13.9951,18,18,14.0166035,18,9.0447035"/>
<path fill="#14489E" d="M16.0002518,9.0346537c0-3.8849998-3.2551517-7.0344-6.9826517-7.0344
	c-3.8679504,0-7.0173483,3.1494-7.0173483,7.0344c0,3.8496504,3.1493979,6.9651003,7.0173483,6.9651003
	C12.885252,15.999754,16.0002518,12.9016037,16.0002518,9.0346537"/>
<path fill="#FFFFFF" d="M15.0002518,9c0,3.3135004-2.6864996,6-6,6c-3.3137021,0-6-2.6864996-6-6s2.6862979-6,6-6
	C12.3137522,3,15.0002518,5.6865001,15.0002518,9"/>
<path fill="#104E81" d="M16.0002518,9.0346537C16.0002518,5.1496539,12.7451,2,9.0176001,2
	C5.1496496,2,2.0002518,5.1496539,2.0002518,9.0346537C2.0002518,12.8840532,5.1496496,16,9.0176001,16
	C12.885252,16,16.0002518,12.9016037,16.0002518,9.0346537"/>
<path fill="#FFFFFF" d="M15.0002518,9c0,3.3135004-2.6864996,6-6,6c-3.3137021,0-6-2.6864996-6-6s2.6862979-6,6-6
	C12.3137522,3,15.0002518,5.6865001,15.0002518,9"/>
<polygon fill="#104E81" points="12.2502518,11.7857141 12.2502518,6.2142859 11.7859659,5.2857141 10.8573942,5.2857141 
	9.0002518,9 7.1431088,5.2857141 6.2145376,5.2857141 5.7502518,6.2142859 5.7502518,11.7857141 7.1431088,12.7142859 
	7.1431088,8.0714283 8.5359659,10.8571424 9.4645376,10.8571424 10.8573942,8.0714283 10.8573942,12.7142859 "/>
</svg>
