<?xml version="1.0" encoding="utf-8"?>
<!-- Generator: Adobe Illustrator 18.0.0, SVG Export Plug-In . SVG Version: 6.00 Build 0)  -->
<!DOCTYPE svg PUBLIC "-//W3C//DTD SVG 1.0//EN" "http://www.w3.org/TR/2001/REC-SVG-20010904/DTD/svg10.dtd">
<svg version="1.0" id="Layer_1" xmlns="http://www.w3.org/2000/svg" xmlns:xlink="http://www.w3.org/1999/xlink" x="0px" y="0px"
	 width="18px" height="16px" viewBox="0 0 18 16" enable-background="new 0 0 18 16" xml:space="preserve">
<path fill="#F8F4F0" d="M2,1h14c1.1044998,0,2,0.8954999,2,2v10c0,1.1044998-0.8955002,2-2,2H2C0.8955,15,0,14.1044998,0,13V3
	C0,1.8954999,0.8955,1,2,1"/>
<path opacity="0.7" fill="#F02A10" d="M3,3h12c0.5527468,0,1,0.448,1,1v8c0,0.552-0.4472532,1-1,1H3c-0.5527532,0-1-0.448-1-1V4
	C2,3.448,2.4472468,3,3,3"/>
<rect x="2" y="5.75" fill="#FFFFFF" width="14" height="1.25"/>
<rect x="2" y="9" fill="#FFFFFF" width="14" height="1.25"/>
<polygon fill="#FFFFFF" points="5.5,3 10,6.5 5.5,9.5 10,13 12.5,13 8,9.5 12.5,6.5 8,3 "/>
</svg>
