<?xml version="1.0" encoding="utf-8"?>
<svg version="1.1" id="Layer_1" xmlns="http://www.w3.org/2000/svg" xmlns:xlink="http://www.w3.org/1999/xlink" x="0px" y="0px"
	 width="36" height="36" viewBox="0 0 36 36" enable-background="new 0 0 36 36" xml:space="preserve">
<path fill="#F8F4F0" d="M18,0c9.941,0,18,8.059,18,18c0,9.941-8.059,18-18,18C8.059,36,0,27.941,0,18C0,8.059,8.059,0,18,0"/>
<path opacity="0.35" fill="#C94300" d="M18,4c7.732,0,14,6.268,14,14c0,7.732-6.268,14-14,14c-7.732,0-14-6.268-14-14
	C4,10.268,10.268,4,18,4"/>
<g>
	<path fill="#FFFFFF" d="M22.064,11.843c0.059,0.823,0.781,1.544,1.604,1.604l1.346,0.097c0.823,0.059,0.871,0.361,0.106,0.672
		l-1.251,0.508c-0.764,0.31-1.228,1.22-1.03,2.021l0.324,1.31c0.198,0.801-0.075,0.94-0.606,0.309l-0.87-1.032
		c-0.531-0.631-1.539-0.791-2.24-0.355l-1.146,0.713c-0.7,0.436-0.917,0.219-0.481-0.481l0.713-1.146
		c0.436-0.7,0.276-1.708-0.355-2.24l-1.032-0.87c-0.631-0.531-0.492-0.804,0.309-0.606l1.31,0.324
		c0.801,0.198,1.71-0.265,2.021-1.03l0.508-1.251c0.31-0.764,0.613-0.716,0.672,0.106L22.064,11.843z"/>
</g>
<path fill="#FFFFFF" d="M14.07,9.8c-0.92,0.44-1.77,1.04-2.51,1.78c-3.54,3.54-3.54,9.31,0,12.85c1.72,1.71,4,2.65,6.43,2.65
	s4.71-0.94,6.42-2.65c0.74-0.74,1.34-1.58,1.78-2.5c-0.11,0.13-0.23,0.25-0.35,0.37c-1.44,1.45-3.4,2.24-5.51,2.24l0,0
	c-2.29,0-4.57-0.96-6.24-2.63c-3.35-3.35-3.52-8.62-0.4-11.76C13.82,10.03,13.94,9.91,14.07,9.8z"/>
</svg>
