<?xml version="1.0" encoding="utf-8"?>
<!-- Generator: Adobe Illustrator 18.0.0, SVG Export Plug-In . SVG Version: 6.00 Build 0)  -->
<!DOCTYPE svg PUBLIC "-//W3C//DTD SVG 1.0//EN" "http://www.w3.org/TR/2001/REC-SVG-20010904/DTD/svg10.dtd">
<svg version="1.0" id="Layer_1" xmlns="http://www.w3.org/2000/svg" xmlns:xlink="http://www.w3.org/1999/xlink" x="0px" y="0px"
	 width="18px" height="18px" viewBox="0 0 18 18" enable-background="new 0 0 18 18" xml:space="preserve">
<path fill="#F8F4F0" d="M9,0c4.9706964,0,9,4.0295534,9,9c0,4.9704533-4.0293036,9-9,9c-4.9707031,0-9-4.0295467-9-9
	C0,4.0295534,4.0292969,0,9,0"/>
<path opacity="0.4" fill="#C94300" d="M9,2c3.8660975,0,7,3.1340971,7,7c0,3.8659077-3.1339025,7-7,7c-3.8661027,0-7-3.1340923-7-7
	C2,5.1340971,5.1338973,2,9,2"/>
<g>
	<path fill="#FFFFFF" d="M8.999999,4.8167095l3.7009621,6.4102516H5.2990394L8.999999,4.8167095 M9,3.8254998
		c-0.1812496,0-0.3625002,0.1190786-0.5,0.3572361l-4,6.9282002c-0.2750001,0.4763145-0.0500002,0.866025,0.5,0.866025h8
		c0.5500002,0,0.7749996-0.3897104,0.5-0.866025l-4-6.9282002C9.3625002,3.9445784,9.1812496,3.8254998,9,3.8254998L9,3.8254998z"/>
	<path fill="#FFFFFF" d="M12.7009611,6.7730389L9,13.1832876L5.2990394,6.7730389H12.7009611 M13,6.0230389H5
		c-0.5500002,0-0.7750001,0.3897099-0.5,0.866025l4,6.9281998c0.1374998,0.2381582,0.3187504,0.3572369,0.5,0.3572369
		s0.3625002-0.1190786,0.5-0.3572369l4-6.9281998C13.7749996,6.4127488,13.5500002,6.0230389,13,6.0230389L13,6.0230389z"/>
</g>
</svg>
