<?xml version="1.0" encoding="utf-8"?>
<svg version="1.1" id="Layer_1" xmlns="http://www.w3.org/2000/svg" xmlns:xlink="http://www.w3.org/1999/xlink" x="0px" y="0px"
	 width="36" height="36" viewBox="0 0 36 36" enable-background="new 0 0 36 36" xml:space="preserve">
<path fill="#F8F4F0" d="M18,0c9.941,0,18,8.059,18,18c0,9.941-8.059,18-18,18C8.059,36,0,27.941,0,18C0,8.059,8.059,0,18,0"/>
<path opacity="0.35" fill="#C94300" d="M18,4c7.732,0,14,6.268,14,14c0,7.732-6.268,14-14,14c-7.732,0-14-6.268-14-14
	C4,10.268,10.268,4,18,4"/>
<g>
	<g>
		<path fill="#FFFFFF" d="M18,9.633l7.402,12.821H10.598L18,9.633 M18,7.651c-0.362,0-0.725,0.238-1,0.714L9,22.222
			c-0.55,0.953-0.1,1.732,1,1.732h16c1.1,0,1.55-0.779,1-1.732L19,8.365C18.725,7.889,18.362,7.651,18,7.651L18,7.651z"/>
	</g>
	<g>
		<path fill="#FFFFFF" d="M25.402,13.546L18,26.367l-7.402-12.82H25.402 M26,12.046H10c-1.1,0-1.55,0.779-1,1.732l8,13.856
			c0.275,0.476,0.638,0.714,1,0.714s0.725-0.238,1-0.714l8-13.856C27.55,12.825,27.1,12.046,26,12.046L26,12.046z"/>
	</g>
</g>
</svg>
