<?xml version="1.0" encoding="utf-8"?>
<!-- Generator: Adobe Illustrator 18.0.0, SVG Export Plug-In . SVG Version: 6.00 Build 0)  -->
<!DOCTYPE svg PUBLIC "-//W3C//DTD SVG 1.1//EN" "http://www.w3.org/Graphics/SVG/1.1/DTD/svg11.dtd">
<svg version="1.1" id="Layer_1" xmlns="http://www.w3.org/2000/svg" xmlns:xlink="http://www.w3.org/1999/xlink" x="0px" y="0px"
	 viewBox="0 0 36 18" enable-background="new 0 0 36 18" xml:space="preserve">
<path fill="#F8F4F0" d="M18,9c0-5-4.2-9-9-9c-5,0-9,4-9,9c0,4.9,4.1,9,9,9C14,18,18,14,18,9"/>
<path fill="#104E81" d="M16,9c0-3.9-3.3-7-7-7C5.2,2,2,5.1,2,9c0,3.8,3.2,7,7,7C12.9,16,16,12.9,16,9"/>
<path fill="#F8F4F0" d="M15,9c0,3.3-2.7,6-6,6c-3.3,0-6-2.7-6-6c0-3.3,2.7-6,6-6C12.3,3,15,5.7,15,9"/>
<polygon fill="#104E81" points="8.2,6.5 8.2,11.6 10.3,11.6 10.3,10.7 9,10.7 9,9.4 10.3,9.4 10.3,8.2 9,8.2 9,7.3 10.3,7.3 
	10.3,6.5 "/>
<path fill="#104E81" d="M11.2,6.5v5.1h0.9V9.9l0.9,0.5v1.2l0.9-0.8V9.9L12.9,9h0.9V7.3l-0.9-0.8h-0.9H11.2z M12.1,7.3h0.9v0.9
	l-0.9,0.4V7.3z"/>
<path fill="#104E81" d="M5,6.5L5,6.5L4.3,7.3v3.4l0.9,0.8V9.9L6,11.1v0.4h1.3v-0.4L6,9h1.3V8.2V6.5H5z M5.5,7.3h0.8L6,8.6H5.1
	L5.5,7.3z"/>
<path fill="#F8F4F0" d="M21.1,0C19.4,0,18,1.4,18,3.1v11.8c0,1.7,1.4,3.1,3.1,3.1h11.8c1.7,0,3.1-1.4,3.1-3.1V3.1
	C36,1.4,34.6,0,32.9,0H21.1z"/>
<path fill="#0079AC" d="M22.4,2C21.1,2,20,3.1,20,4.4v9.2c0,1.3,1.1,2.4,2.4,2.4h9.2c1.3,0,2.4-1.1,2.4-2.4V4.4
	C34,3.1,32.9,2,31.6,2H22.4z M22.4,3h9.2C32.4,3,33,3.6,33,4.4v9.2c0,0.8-0.6,1.4-1.4,1.4h-9.2c-0.8,0-1.4-0.6-1.4-1.4V4.4
	C21,3.6,21.6,3,22.4,3"/>
<path fill="#0079AC" d="M25,4c-0.6,0-1,0.4-1,0.9v5.1c0,0.5,0.4,0.9,1,0.9l-1.5,3H25l1-2h2l1,2h1.5L29,11c0.6,0,1-0.4,1-0.9V4.9
	C30,4.4,29.6,4,29,4H25z M25.5,5h3C28.8,5,29,5.2,29,5.5v1C29,6.8,28.8,7,28.5,7h-3C25.2,7,25,6.8,25,6.5v-1C25,5.2,25.2,5,25.5,5
	 M25,8h1v1h-1V8z M28,8h1v1h-1V8z"/>
</svg>
