<?xml version="1.0" encoding="utf-8"?>
<!-- Generator: Adobe Illustrator 18.0.0, SVG Export Plug-In . SVG Version: 6.00 Build 0)  -->
<!DOCTYPE svg PUBLIC "-//W3C//DTD SVG 1.1//EN" "http://www.w3.org/Graphics/SVG/1.1/DTD/svg11.dtd">
<svg version="1.1" id="Layer_1" xmlns="http://www.w3.org/2000/svg" xmlns:xlink="http://www.w3.org/1999/xlink" x="0px" y="0px"
	 viewBox="0 0 6 6" enable-background="new 0 0 6 6" xml:space="preserve">
<g>
	<defs>
		<rect id="SVGID_1_" width="3" height="3"/>
	</defs>
	<clipPath id="SVGID_2_">
		<use xlink:href="#SVGID_1_"  overflow="visible"/>
	</clipPath>
	<polygon opacity="0.6" clip-path="url(#SVGID_2_)" fill="#895FB1" points="3.2,0.2 2.8,-0.2 1.5,1.1 0.2,-0.2 -0.2,0.2 1.1,1.5 
		-0.2,2.8 0.2,3.2 1.5,1.8 2.8,3.2 3.2,2.8 1.8,1.5 	"/>
</g>
<g>
	<defs>
		<rect id="SVGID_3_" y="3" width="3" height="3"/>
	</defs>
	<clipPath id="SVGID_4_">
		<use xlink:href="#SVGID_3_"  overflow="visible"/>
	</clipPath>
	<polygon opacity="0.6" clip-path="url(#SVGID_4_)" fill="#895FB1" points="3.2,3.2 2.8,2.8 1.5,4.1 0.2,2.8 -0.2,3.2 1.1,4.5 
		-0.2,5.8 0.2,6.2 1.5,4.8 2.8,6.2 3.2,5.8 1.8,4.5 	"/>
</g>
<g>
	<defs>
		<rect id="SVGID_5_" x="3" width="3" height="3"/>
	</defs>
	<clipPath id="SVGID_6_">
		<use xlink:href="#SVGID_5_"  overflow="visible"/>
	</clipPath>
	<polygon opacity="0.6" clip-path="url(#SVGID_6_)" fill="#895FB1" points="6.2,0.2 5.8,-0.2 4.5,1.1 3.2,-0.2 2.8,0.2 4.1,1.5 
		2.8,2.8 3.2,3.2 4.5,1.8 5.8,3.2 6.2,2.8 4.8,1.5 	"/>
</g>
<g>
	<defs>
		<rect id="SVGID_7_" x="3" y="3" width="3" height="3"/>
	</defs>
	<clipPath id="SVGID_8_">
		<use xlink:href="#SVGID_7_"  overflow="visible"/>
	</clipPath>
	<polygon opacity="0.6" clip-path="url(#SVGID_8_)" fill="#895FB1" points="6.2,3.2 5.8,2.8 4.5,4.1 3.2,2.8 2.8,3.2 4.1,4.5 
		2.8,5.8 3.2,6.2 4.5,4.8 5.8,6.2 6.2,5.8 4.8,4.5 	"/>
</g>
</svg>
