<?xml version="1.0" encoding="utf-8"?>
<!-- Generator: Adobe Illustrator 18.0.0, SVG Export Plug-In . SVG Version: 6.00 Build 0)  -->
<!DOCTYPE svg PUBLIC "-//W3C//DTD SVG 1.0//EN" "http://www.w3.org/TR/2001/REC-SVG-20010904/DTD/svg10.dtd">
<svg version="1.0" id="Layer_1" xmlns="http://www.w3.org/2000/svg" xmlns:xlink="http://www.w3.org/1999/xlink" x="0px" y="0px"
	 width="18px" height="18px" viewBox="0 0 18 18" enable-background="new 0 0 18 18" xml:space="preserve">
<g>
	<path fill="#F8F4F0" d="M9,0c4.9706964,0,9,4.0295534,9,9c0,4.9704533-4.0293036,9-9,9c-4.9707031,0-9-4.0295467-9-9
		C0,4.0295534,4.0292969,0,9,0"/>
</g>
<g opacity="0.6">
	<path fill="#895FB1" d="M9,2c3.8660975,0,7,3.1340971,7,7c0,3.8659077-3.1339025,7-7,7c-3.8661027,0-7-3.1340923-7-7
		C2,5.1340971,5.1338973,2,9,2"/>
</g>
<g>
	<g>
		<g id="XMLID_1_">
			<g>
				<path fill="#FFFFFF" d="M12.0011959,4.9945693l0.7071075,0.7071066c0.3889084,0.3889089,0.3889084,1.0253048,0,1.4142137
					L8.3984871,11.425705c-0.3889084,0.3889093-1.1455131,0.7990313-1.6829143,0.9121685l-1.5273504,0.1767759l0.1803122-1.5238152
					C5.4816718,10.453433,5.888258,9.6932936,6.2771668,9.3043852l4.3098159-4.3098159
					C10.9758911,4.6056604,11.6122875,4.6056604,12.0011959,4.9945693z"/>
			</g>
			<g>
				<path fill="none" stroke="#FFFFFF" stroke-miterlimit="10" d="M6.7155728,12.3378735
					c0.5374012-0.1131372,1.2940059-0.5232592,1.6829143-0.9121685l4.3098164-4.3098154
					c0.3889084-0.3889089,0.3889084-1.0253048,0-1.4142137l-0.7071075-0.7071066
					c-0.3889084-0.3889089-1.0253048-0.3889089-1.4142132,0L6.2771668,9.3043852
					c-0.3889089,0.3889084-0.795495,1.1490479-0.9086323,1.6864491l-0.1803122,1.5238152L6.7155728,12.3378735z"/>
			</g>
		</g>
	</g>
	<g opacity="0.6">
		<path fill="#895FB1" d="M8.0156231,10.3972692l3.1754217-3.1754217c0.1944542-0.1944542,0.1944532-0.5126519-0.000001-0.7071056
			l-0.000001-0.000001c-0.1944542-0.1944537-0.5126524-0.1944532-0.7071056,0.000001L7.308516,9.6901627
			c-0.1944537,0.1944542-0.1944542,0.5126514,0,0.7071056l0.000001,0.000001
			C7.5029707,10.5917234,7.8211684,10.5917234,8.0156231,10.3972692z"/>
	</g>
</g>
</svg>
