<?xml version="1.0" encoding="utf-8"?>
<!-- Generator: Adobe Illustrator 18.0.0, SVG Export Plug-In . SVG Version: 6.00 Build 0)  -->
<!DOCTYPE svg PUBLIC "-//W3C//DTD SVG 1.0//EN" "http://www.w3.org/TR/2001/REC-SVG-20010904/DTD/svg10.dtd">
<svg version="1.0" id="Layer_1" xmlns="http://www.w3.org/2000/svg" xmlns:xlink="http://www.w3.org/1999/xlink" x="0px" y="0px"
	 width="29px" height="29px" viewBox="0 0 29 29" enable-background="new 0 0 29 29" xml:space="preserve">
<g>
	<g id="XMLID_1_">
		<g>
			<path fill="#FFFFFF" d="M18.3099995,25.7999992c-1.8899994,0.1200008-2.6499996,0.25-4.3399992,1.6400013
				C12.2399998,25.9300003,11.46,25.8099995,9.5600004,25.7099991C7.29,25.5799999,6.1199999,25.4400005,3.72,23.0900002
				C0.01,19.2999992,1.05,15.9700003,2.05,12.75c0.77-2.4399996,1.55-4.96-0.25-7.1999998l4.25-3.9700003
				C7.25,2.5899999,7.7399998,3.1400001,9.6300001,3.1400001c1.96,0,2.79-0.5800002,4.5299997-1.6600001
				c1.75,1.0799999,2.5799999,1.6600001,4.5300007,1.6600001c1.8899994,0,3.5499992-0.5400002,4.75-1.5500001l3.8599987,3.9400001
				c-1.8299999,2.2599998-1.0599995,4.7999997-0.3199997,7.27c0.9700012,3.21,1.9700012,6.5299997-1.6000004,10.29
				C23.0300007,25.4799995,20.6299992,25.6399994,18.3099995,25.7999992z"/>
			<path fill="#999999" d="M25.3799992,23.0900002c3.5700016-3.7600002,2.5700016-7.0799999,1.6000004-10.29
				c-0.7399998-2.4700003-1.5100002-5.0100002,0.3199997-7.27L23.4400005,1.59
				c-1.2000008,1.0099999-2.8600006,1.5500001-4.75,1.5500001c-1.9500008,0-2.7800007-0.5800002-4.5300007-1.6600001
				c-1.7399998,1.0799999-2.5699997,1.6600001-4.5299997,1.6600001C7.7399998,3.1400001,7.25,2.5899999,6.0500002,1.58
				L1.8,5.5500002c1.8,2.2399998,1.02,4.7600002,0.25,7.1999998C1.05,15.9700003,0.01,19.2999992,3.72,23.0900002
				C6.1199999,25.4400005,7.29,25.5799999,9.5600004,25.7099991c1.8999996,0.1000004,2.6799994,0.2200012,4.4099998,1.7300014
				c1.6899996-1.3900013,2.4499998-1.5200005,4.3399992-1.6400013
				C20.6299992,25.6399994,23.0300007,25.4799995,25.3799992,23.0900002z M2.9300001,23.9099998
				c-4.1999998-4.289999-2.95-8.29-1.9400001-11.5C1.8,9.8199997,2.4300001,7.77,0.62,5.9200001L0.21,5.5l5.8499999-5.48
				L6.4400001,0.4c1.0099998,1.03,1.3800001,1.6,3.1900001,1.6c1.8599997,0,2.5900002-0.59,4.2299995-1.67l0.3000002-0.2
				l0.3100004,0.2C16.1000004,1.41,16.8400002,2,18.6900005,2c1.8199997,0,3.3699989-0.5700001,4.3799992-1.6L23.4599991,0
				l5.4100018,5.52l-0.4000015,0.4000001C26.6399994,7.79,27.2600002,9.8500004,28.0499992,12.46
				c0.9700012,3.1999998,2.1700001,7.1799994-1.8799992,11.4299994c-2.6399994,2.710001-5.3799992,2.8900013-7.7900009,3.0500011
				c-2,0.1299992-2.5499992,0.25-4.039999,1.6800003L13.9399996,29l-0.3799992-0.3899994
				C12.04,27.0599995,11.5,26.9599991,9.5,26.8500004C7.1399999,26.7099991,5.6500001,26.5599995,2.9300001,23.9099998z"/>
		</g>
		<g>
		</g>
	</g>
</g>
</svg>
