<?xml version="1.0" encoding="UTF-8" standalone="no"?>
<!-- Generator: Adobe Illustrator 17.1.0, SVG Export Plug-In . SVG Version: 6.00 Build 0)  -->

<svg
   xmlns:dc="http://purl.org/dc/elements/1.1/"
   xmlns:cc="http://creativecommons.org/ns#"
   xmlns:rdf="http://www.w3.org/1999/02/22-rdf-syntax-ns#"
   xmlns:svg="http://www.w3.org/2000/svg"
   xmlns="http://www.w3.org/2000/svg"
   xmlns:sodipodi="http://sodipodi.sourceforge.net/DTD/sodipodi-0.dtd"
   xmlns:inkscape="http://www.inkscape.org/namespaces/inkscape"
   version="1.1"
   id="svg4764"
   inkscape:version="0.91+devel+osxmenu r12911"
   sodipodi:docname="alcohol-shop-11.svg"
   x="0px"
   y="0px"
   width="11"
   height="11"
   viewBox="0 0 9.7058824 9.7058824"
   xml:space="preserve"><metadata
     id="metadata9"><rdf:RDF><cc:Work
         rdf:about=""><dc:format>image/svg+xml</dc:format><dc:type
           rdf:resource="http://purl.org/dc/dcmitype/StillImage" /><dc:title /></cc:Work></rdf:RDF></metadata><defs
     id="defs7" /><style
     type="text/css"
     id="style3" /><sodipodi:namedview
     inkscape:window-x="-15"
     inkscape:window-y="0"
     inkscape:window-width="1280"
     inkscape:pageopacity="0"
     inkscape:window-height="755"
     inkscape:current-layer="svg4764"
     inkscape:window-maximized="0"
     inkscape:document-units="px"
     inkscape:pageshadow="2"
     id="namedview3363"
     gridtolerance="10"
     borderopacity="1"
     bordercolor="#666666"
     inkscape:cx="1.3510573"
     guidetolerance="10"
     showgrid="true"
     pagecolor="#ffffff"
     inkscape:cy="5.4513742"
     objecttolerance="10"
     inkscape:zoom="45.254834"
     inkscape:object-paths="true"
     inkscape:snap-intersection-paths="true"
     inkscape:object-nodes="true"
     inkscape:snap-bbox="true"
     inkscape:snap-smooth-nodes="true"
     inkscape:bbox-paths="true"><inkscape:grid
       type="xygrid"
       id="grid3337"
       spacingx="0.44117647"
       spacingy="0.44117647"
       color="#d30029"
       opacity="0.1254902"
       empspacing="2" /></sodipodi:namedview><path
     style="fill:#000000;stroke-width:1.13333321"
     d="M 3 0 C 2.723 0 2.5 0.223 2.5 0.5 C 2.5 0.777 2.723 1 3 1 C 3 2.0000001 1 3.9999999 1 5 L 1 9.0292969 C 1 9.9998854 1.9707031 10 1.9707031 10 L 5 10 C 5 10 6 9.9999999 6 9 L 6 5 C 6 4.0571909 4.0000001 1.942809 4 1 C 4.277 1 4.5 0.777 4.5 0.5 C 4.5 0.223 4.277 -7.4014868e-17 4 0 L 3 0 z M 6.75 4 L 7 5.5 C 7.164399 6.4863938 8.25 6.5 8.25 6.5 L 8.25 8.75 C 8.25 9.25 7.5 9.5 7.5 9.5 L 7.5 10 L 9.5 10 L 9.5 9.5 C 9.5 9.5 8.75 9.25 8.75 8.75 L 8.75 6.5 C 8.75 6.5 9.8333332 6.4999999 10 5.5 L 10.25 4 L 6.75 4 z M 7.75 4.5 L 9.25 4.5 L 9 5.5 L 8 5.5 L 7.75 4.5 z M 3.5 5 A 1.4999999 1.9999997 0 0 1 5 7 A 1.4999999 1.9999997 0 0 1 3.5 9 A 1.4999999 1.9999997 0 0 1 2 7 A 1.4999999 1.9999997 0 0 1 3.5 5 z "
     transform="scale(0.88235295)"
     id="path5715" /></svg>
