<?xml version="1.0" encoding="UTF-8" standalone="no"?>
<!-- Generator: Adobe Illustrator 17.1.0, SVG Export Plug-In . SVG Version: 6.00 Build 0)  -->

<svg
   xmlns:dc="http://purl.org/dc/elements/1.1/"
   xmlns:cc="http://creativecommons.org/ns#"
   xmlns:rdf="http://www.w3.org/1999/02/22-rdf-syntax-ns#"
   xmlns:svg="http://www.w3.org/2000/svg"
   xmlns="http://www.w3.org/2000/svg"
   xmlns:sodipodi="http://sodipodi.sourceforge.net/DTD/sodipodi-0.dtd"
   xmlns:inkscape="http://www.inkscape.org/namespaces/inkscape"
   version="1.1"
   id="svg4619"
   inkscape:version="0.91 r13725"
   sodipodi:docname="alcohol-shop-15.svg"
   x="0px"
   y="0px"
   viewBox="0 0 15 15"
   enable-background="new 0 0 15 15"
   xml:space="preserve"><metadata
     id="metadata14"><rdf:RDF><cc:Work
         rdf:about=""><dc:format>image/svg+xml</dc:format><dc:type
           rdf:resource="http://purl.org/dc/dcmitype/StillImage" /><dc:title /></cc:Work></rdf:RDF></metadata><defs
     id="defs12" /><sodipodi:namedview
     inkscape:snap-bbox="true"
     inkscape:bbox-paths="true"
     inkscape:bbox-nodes="true"
     inkscape:window-x="0"
     inkscape:window-y="23"
     inkscape:window-width="1280"
     inkscape:object-paths="true"
     inkscape:pageopacity="0"
     inkscape:window-height="755"
     inkscape:current-layer="svg4619"
     inkscape:window-maximized="0"
     inkscape:document-units="px"
     inkscape:pageshadow="2"
     id="namedview3369"
     gridtolerance="10"
     borderopacity="1"
     bordercolor="#666666"
     inkscape:cx="9.4088893"
     guidetolerance="10"
     showgrid="true"
     pagecolor="#ffffff"
     inkscape:cy="6.7110546"
     objecttolerance="10"
     inkscape:zoom="39.265224"
     inkscape:snap-intersection-paths="true"
     inkscape:object-nodes="true"
     inkscape:snap-smooth-nodes="true"
     inkscape:snap-bbox-edge-midpoints="true"><inkscape:grid
       type="xygrid"
       id="grid3387"
       spacingx="0.5"
       spacingy="0.5"
       empspacing="2"
       color="#e0001a"
       opacity="0.1254902" /></sodipodi:namedview><path
     style="fill:#000000;fill-opacity:1"
     d="M 3.9852935,0 C 3.9852935,0 3,0 3,1 L 3,4 1,5.970587 1,13.5 c 0,0 0,1 1,1 l 5,0 c 0.013507,0 1.0234377,0 1,-1 L 8,6 6,4 6,1 C 6,0 5,0 5,0 Z M 9,6 9,9.5 c 0,1 1,1 1,1 l 1,0 0,3 -0.5,0 c -1,0 -1,1 -1,1 l 4,0 c 0,0 0,-1 -1,-1 l -0.5,0 0,-3 1,0 c 0.511764,0 1,-0.488235 1,-1 L 14,6 13.147059,6 10,6 Z"
     id="path5792"
     inkscape:connector-curvature="0"
     sodipodi:nodetypes="cscccsssccscccscccsccsccsscccc" /></svg>
