<?xml version="1.0" encoding="UTF-8" standalone="no"?>
<!-- Generator: Adobe Illustrator 17.1.0, SVG Export Plug-In . SVG Version: 6.00 Build 0)  -->

<svg
   xmlns:dc="http://purl.org/dc/elements/1.1/"
   xmlns:cc="http://creativecommons.org/ns#"
   xmlns:rdf="http://www.w3.org/1999/02/22-rdf-syntax-ns#"
   xmlns:svg="http://www.w3.org/2000/svg"
   xmlns="http://www.w3.org/2000/svg"
   xmlns:sodipodi="http://sodipodi.sourceforge.net/DTD/sodipodi-0.dtd"
   xmlns:inkscape="http://www.inkscape.org/namespaces/inkscape"
   version="1.1"
   id="svg4619"
   sodipodi:docname="art-gallery-17.svg"
   inkscape:version="0.91 r13725"
   x="0px"
   y="0px"
   viewBox="0 0 17 17"
   enable-background="new 0 0 17 17"
   xml:space="preserve"><metadata
     id="metadata9"><rdf:RDF><cc:Work
         rdf:about=""><dc:format>image/svg+xml</dc:format><dc:type
           rdf:resource="http://purl.org/dc/dcmitype/StillImage" /><dc:title /></cc:Work></rdf:RDF></metadata><defs
     id="defs7" /><sodipodi:namedview
     id="namedview3346"
     inkscape:current-layer="svg4619"
     inkscape:window-height="731"
     inkscape:pageopacity="0"
     inkscape:window-width="952"
     inkscape:window-y="0"
     inkscape:pageshadow="2"
     inkscape:document-units="px"
     inkscape:window-maximized="0"
     inkscape:window-x="-2"
     inkscape:cx="8.159792"
     borderopacity="1"
     objecttolerance="10"
     bordercolor="#666666"
     gridtolerance="10"
     showgrid="true"
     inkscape:cy="8.5220222"
     inkscape:zoom="39.265224"
     guidetolerance="10"
     pagecolor="#ffffff"
     inkscape:object-paths="true"
     inkscape:snap-intersection-paths="true"
     inkscape:object-nodes="true"
     inkscape:snap-bbox="true"
     inkscape:bbox-paths="true"
     inkscape:bbox-nodes="true"
     inkscape:snap-bbox-edge-midpoints="true"
     inkscape:snap-bbox-midpoints="true"
     inkscape:snap-smooth-nodes="true"><inkscape:grid
       type="xygrid"
       id="grid3432"
       spacingx="0.5"
       spacingy="0.5"
       color="#ee00ff"
       opacity="0.1254902"
       empspacing="2" /></sodipodi:namedview><path
     d="M 15.474177,5.3218641 C 14.317027,3.7885657 12.728746,2.5680611 10.5,2 8.2712543,1.4319389 5.249909,1.2076508 3.5,2 1.750091,2.7923491 0,4.1999998 0,6 c 0,3 4.7618933,2.8865457 4.2432283,4.921487 -0.419871,1.647334 0.34778,3.494145 2.576525,4.062207 2.228746,0.56806 4.5581757,0.336207 6.3080857,-0.456141 C 14.877747,13.735203 17,12 17,10 17,8.1 16.631328,6.8551624 15.474177,5.3218641 Z M 3.2190263,6.8421479 C 2.6376143,6.693958 2.3487993,6.2075569 2.4969893,5.626145 c 0.14819,-0.5814119 0.634591,-0.8702266 1.216003,-0.7220367 0.581412,0.1481899 0.870227,0.634591 0.722037,1.2160029 -0.14819,0.5814118 -0.634591,0.8702265 -1.216003,0.7220367 z m 3.040007,-1.8050918 c -0.581412,-0.1481899 -0.870226,-0.634591 -0.722036,-1.2160028 0.148189,-0.5814119 0.634591,-0.8702266 1.216002,-0.7220368 0.581412,0.1481898 0.870227,0.634591 0.722037,1.2160029 -0.14819,0.5814119 -0.634591,0.8702265 -1.216003,0.7220367 z m 1.054687,8.0085969 c -0.775216,-0.197586 -1.280642,-1.048788 -1.083056,-1.824003 0.197587,-0.775216 1.048789,-1.2806421 1.824005,-1.083055 0.775216,0.197586 1.280641,1.048788 1.083055,1.824004 -0.197587,0.775216 -1.048789,1.280642 -1.824004,1.083054 z M 9.7740943,5.4169869 C 9.1926823,5.2687971 8.9038673,4.7823959 9.0520573,4.200984 9.2002473,3.6195721 9.6866483,3.3307575 10.26806,3.4789473 c 0.581412,0.1481899 0.870227,0.634591 0.722037,1.2160028 -0.14819,0.5814119 -0.634591,0.8702266 -1.2160027,0.7220368 z m 2.4225487,0.6174577 c 0.14819,-0.5814119 0.634592,-0.8702266 1.216003,-0.7220367 0.581412,0.1481898 0.870227,0.6345909 0.722037,1.2160028 -0.14819,0.5814119 -0.634591,0.8702266 -1.216002,0.7220368 -0.581413,-0.1481898 -0.870227,-0.634591 -0.722038,-1.2160029 z m 1.434617,4.4935374 c -0.581411,-0.14819 -0.870226,-0.6345915 -0.722036,-1.2160034 0.14819,-0.5814119 0.63459,-0.8702266 1.216003,-0.7220368 0.581411,0.1481899 0.870226,0.634591 0.722036,1.2160029 -0.148189,0.5814123 -0.63459,0.8702263 -1.216003,0.7220373 z"
     id="path5"
     style="fill:#000000;fill-opacity:1"
     inkscape:connector-curvature="0"
     sodipodi:nodetypes="sssssssssssssssssssssssssssssssssssssss" /></svg>
