<?xml version="1.0" encoding="UTF-8" standalone="no"?>
<!-- Generator: Adobe Illustrator 17.1.0, SVG Export Plug-In . SVG Version: 6.00 Build 0)  -->

<svg
   xmlns:dc="http://purl.org/dc/elements/1.1/"
   xmlns:cc="http://creativecommons.org/ns#"
   xmlns:rdf="http://www.w3.org/1999/02/22-rdf-syntax-ns#"
   xmlns:svg="http://www.w3.org/2000/svg"
   xmlns="http://www.w3.org/2000/svg"
   xmlns:sodipodi="http://sodipodi.sourceforge.net/DTD/sodipodi-0.dtd"
   xmlns:inkscape="http://www.inkscape.org/namespaces/inkscape"
   version="1.1"
   id="svg4619"
   inkscape:version="0.91 r13725"
   sodipodi:docname="bakery-17.svg"
   x="0px"
   y="0px"
   viewBox="0 0 17 17"
   enable-background="new 0 0 17 17"
   xml:space="preserve"><metadata
     id="metadata8"><rdf:RDF><cc:Work
         rdf:about=""><dc:format>image/svg+xml</dc:format><dc:type
           rdf:resource="http://purl.org/dc/dcmitype/StillImage" /><dc:title></dc:title></cc:Work></rdf:RDF></metadata><defs
     id="defs6" /><sodipodi:namedview
     inkscape:object-nodes="true"
     inkscape:snap-bbox="true"
     inkscape:bbox-paths="true"
     inkscape:bbox-nodes="true"
     inkscape:window-x="0"
     inkscape:window-y="23"
     inkscape:window-width="950"
     inkscape:object-paths="true"
     inkscape:pageopacity="0"
     inkscape:window-height="721"
     inkscape:current-layer="svg4619"
     inkscape:window-maximized="0"
     inkscape:document-units="px"
     inkscape:pageshadow="2"
     id="namedview3358"
     gridtolerance="10"
     borderopacity="1"
     bordercolor="#666666"
     inkscape:cx="6.0391741"
     guidetolerance="10"
     showgrid="false"
     pagecolor="#ffffff"
     inkscape:cy="9.5679978"
     objecttolerance="10"
     inkscape:zoom="27.764706"
     inkscape:snap-intersection-paths="true"><inkscape:grid
       type="xygrid"
       id="grid3438"
       spacingx="0.5"
       spacingy="0.5"
       color="#f20016"
       opacity="0.1254902"
       empspacing="2" /></sodipodi:namedview><path
     id="path5230"
     style="fill:#000000;fill-opacity:1"
     inkscape:connector-curvature="0"
     d="M 7,3 C 7,3 6,3 6,4 l 1,6 c 0,0 0,1 1,1 l 1,0 c 1,0 1,-1 1,-1 L 11,4 C 11,3 10,3 10,3 Z m 4,6.5 c 0,0 0,1 1,1 l 1.5,0 L 15,6 C 15,6 14.5,4.5 13,4.5 l -1,0 z m 3.5,1 c 0,0 0.5,1 1.5,1 l 1,0 L 17,9 C 17,9 17,8.5 16.5,8 16,7.5 15.5,7.5 15.5,7.5 Z"
     sodipodi:nodetypes="cccssccccczccsccczcczcc" /><path
     id="path5230-5"
     style="fill:#000000;fill-opacity:1"
     inkscape:connector-curvature="0"
     d="m 6,9.5 c 0,0 0,1 -1,1 L 3.5,10.5 2,6 C 2,6 2.5,4.5 4,4.5 l 1,0 z m -3.5,1 c 0,0 -0.5,1 -1.5,1 L 0,11.5 0,9 C 0,9 0,8.5 0.5,8 1,7.5 1.5,7.5 1.5,7.5 Z"
     sodipodi:nodetypes="czccsccczcczcc" /></svg>
