<?xml version="1.0" encoding="UTF-8" standalone="no"?>
<!-- Generator: Adobe Illustrator 17.1.0, SVG Export Plug-In . SVG Version: 6.00 Build 0)  -->

<svg
   xmlns:dc="http://purl.org/dc/elements/1.1/"
   xmlns:cc="http://creativecommons.org/ns#"
   xmlns:rdf="http://www.w3.org/1999/02/22-rdf-syntax-ns#"
   xmlns:svg="http://www.w3.org/2000/svg"
   xmlns="http://www.w3.org/2000/svg"
   xmlns:sodipodi="http://sodipodi.sourceforge.net/DTD/sodipodi-0.dtd"
   xmlns:inkscape="http://www.inkscape.org/namespaces/inkscape"
   version="1.1"
   id="svg4619"
   inkscape:version="0.91 r13725"
   sodipodi:docname="bank-15.svg"
   x="0px"
   y="0px"
   viewBox="0 0 15 15"
   enable-background="new 0 0 15 15"
   xml:space="preserve"><metadata
     id="metadata29"><rdf:RDF><cc:Work
         rdf:about=""><dc:format>image/svg+xml</dc:format><dc:type
           rdf:resource="http://purl.org/dc/dcmitype/StillImage" /><dc:title /></cc:Work></rdf:RDF></metadata><defs
     id="defs27" /><sodipodi:namedview
     inkscape:window-width="1215"
     inkscape:pageopacity="0"
     inkscape:window-height="750"
     inkscape:current-layer="svg4619"
     inkscape:document-units="px"
     inkscape:pageshadow="2"
     id="namedview3370"
     gridtolerance="10"
     borderopacity="1"
     bordercolor="#666666"
     inkscape:cx="6.3111984"
     guidetolerance="10"
     showgrid="false"
     pagecolor="#ffffff"
     inkscape:cy="7.4771021"
     objecttolerance="10"
     inkscape:zoom="1"
     inkscape:snap-bbox="true"
     inkscape:bbox-paths="true"
     inkscape:bbox-nodes="true"
     inkscape:snap-bbox-edge-midpoints="true"
     inkscape:snap-bbox-midpoints="true"
     inkscape:object-paths="true"
     inkscape:snap-intersection-paths="true"
     inkscape:object-nodes="true"
     inkscape:snap-smooth-nodes="true"
     inkscape:window-x="0"
     inkscape:window-y="0"
     inkscape:window-maximized="0"><inkscape:grid
       type="xygrid"
       id="grid3446"
       spacingx="0.5"
       spacingy="0.5"
       color="#d1001a"
       opacity="0.1254902"
       empspacing="2" /></sodipodi:namedview><path
     d="m 0,4 0,7 13,0 0.05,-7 z m 1,1 0.9,0 c 0,0 0,0.9 -0.9,0.9 z m 10.1,0.1 0.9,0 0,0.9 c 0,0 -0.9,0 -0.9,-0.9 z m 2.4,-0.6 0,7 L 0,11.55 0,12 13.55,12 14,12 14,4.5 Z m -7,1.4 C 7.4445442,5.8997956 8.2103516,6.7057429 8.2103516,7.7 8.2103516,8.6942571 7.4445442,9.5002044 6.5,9.5 5.5554558,9.5002043 4.7896485,8.694257 4.7896485,7.7 4.7896485,6.705743 5.5554558,5.8997957 6.5,5.9 Z m 8,0.1 0,6.5 L 1,12.5 1,13 14.55,13 15,13 15,6 Z M 1,9.1 c 0,0 0.9,0 0.9,0.9 L 1,10 Z m 11,0 0,0.9 -0.9,0 c 0,0 0,-0.9 0.9,-0.9 z"
     id="rect5"
     style="fill:#000000"
     inkscape:connector-curvature="0"
     sodipodi:nodetypes="ccccccccccccccccccccccscsccccccccccccccccc" /><g
     id="g9" /></svg>