<?xml version="1.0" encoding="UTF-8" standalone="no"?>
<!-- Generator: Adobe Illustrator 17.1.0, SVG Export Plug-In . SVG Version: 6.00 Build 0)  -->

<svg
   xmlns:dc="http://purl.org/dc/elements/1.1/"
   xmlns:cc="http://creativecommons.org/ns#"
   xmlns:rdf="http://www.w3.org/1999/02/22-rdf-syntax-ns#"
   xmlns:svg="http://www.w3.org/2000/svg"
   xmlns="http://www.w3.org/2000/svg"
   xmlns:sodipodi="http://sodipodi.sourceforge.net/DTD/sodipodi-0.dtd"
   xmlns:inkscape="http://www.inkscape.org/namespaces/inkscape"
   version="1.1"
   id="svg4764"
   inkscape:version="0.91+devel+osxmenu r12911"
   sodipodi:docname="bank-11.svg"
   x="0px"
   y="0px"
   viewBox="0 0 11 11"
   enable-background="new 0 0 11 11"
   xml:space="preserve"><metadata
     id="metadata13"><rdf:RDF><cc:Work
         rdf:about=""><dc:format>image/svg+xml</dc:format><dc:type
           rdf:resource="http://purl.org/dc/dcmitype/StillImage" /><dc:title /></cc:Work></rdf:RDF></metadata><defs
     id="defs11" /><sodipodi:namedview
     inkscape:window-x="-3"
     inkscape:window-y="0"
     inkscape:window-width="871"
     inkscape:pageopacity="0"
     inkscape:window-height="745"
     inkscape:current-layer="svg4764"
     inkscape:window-maximized="0"
     inkscape:document-units="px"
     inkscape:pageshadow="2"
     id="namedview3364"
     gridtolerance="10"
     borderopacity="1"
     bordercolor="#666666"
     inkscape:cx="4.5887043"
     guidetolerance="10"
     showgrid="false"
     pagecolor="#ffffff"
     inkscape:cy="0.28848052"
     objecttolerance="10"
     inkscape:zoom="30.341309"
     inkscape:snap-bbox="true"
     inkscape:bbox-paths="true"
     inkscape:bbox-nodes="true"
     inkscape:snap-bbox-edge-midpoints="true"
     inkscape:snap-bbox-midpoints="true"
     inkscape:object-paths="true"
     inkscape:snap-intersection-paths="true"
     inkscape:object-nodes="true"
     inkscape:snap-smooth-nodes="true"><inkscape:grid
       type="xygrid"
       id="grid3442"
       spacingx="0.5"
       spacingy="0.5"
       color="#c4001f"
       opacity="0.1254902"
       empspacing="2" /></sodipodi:namedview><g
     id="g5"
     transform="translate(0,-0.5)"><path
       d="M 0 2 L 0 9 L 10 9 L 10 2 L 0 2 z M 1 3 L 2 3 L 1 4 L 1 3 z M 8 3 L 9 3 L 9 4 L 8 3 z M 10.5 3 L 10.5 9.5 L 1 9.5 L 1 10 L 10.5 10 L 11 10 L 11 9.5 L 11 3 L 10.5 3 z M 4.9453125 3.5019531 A 1.5 2 0 0 1 6.4824219 5.1972656 L 6.4941406 5.3222656 A 1.5 2 0 0 1 5.15625 7.4882812 A 1.5 2 0 0 1 3.5117188 5.7402344 A 1.5 2 0 0 1 4.796875 3.5175781 A 1.5 2 0 0 1 4.9453125 3.5019531 z M 1 7 L 2 8 L 1 8 L 1 7 z M 9 7 L 9 8 L 8 8 L 9 7 z "
       transform="translate(0,0.5)"
       id="path7"
       style="fill:#000000" /></g></svg>
