<?xml version="1.0" encoding="UTF-8" standalone="no"?>
<!-- Created with Inkscape (http://www.inkscape.org/) -->

<svg
   xmlns:dc="http://purl.org/dc/elements/1.1/"
   xmlns:cc="http://creativecommons.org/ns#"
   xmlns:rdf="http://www.w3.org/1999/02/22-rdf-syntax-ns#"
   xmlns:svg="http://www.w3.org/2000/svg"
   xmlns="http://www.w3.org/2000/svg"
   xmlns:sodipodi="http://sodipodi.sourceforge.net/DTD/sodipodi-0.dtd"
   xmlns:inkscape="http://www.inkscape.org/namespaces/inkscape"
   version="1.1"
   width="15"
   height="15"
   id="svg4619"
   inkscape:version="0.91 r13725"
   sodipodi:docname="bicycle-15.svg"
   viewBox="0 0 13.235294 13.235294">
  <sodipodi:namedview
     pagecolor="#ffffff"
     bordercolor="#666666"
     borderopacity="1"
     objecttolerance="10"
     gridtolerance="10"
     guidetolerance="10"
     inkscape:pageopacity="0"
     inkscape:pageshadow="2"
     inkscape:window-width="1280"
     inkscape:window-height="755"
     id="namedview3364"
     inkscape:document-units="px"
     showgrid="true"
     inkscape:snap-bbox="true"
     inkscape:object-paths="true"
     inkscape:object-nodes="true"
     inkscape:snap-intersection-paths="true"
     inkscape:snap-smooth-nodes="true"
     inkscape:zoom="29.105263"
     inkscape:cx="11.636547"
     inkscape:cy="11.108713"
     inkscape:window-x="0"
     inkscape:window-y="23"
     inkscape:window-maximized="0"
     inkscape:current-layer="svg4619">
    <inkscape:grid
       type="xygrid"
       id="grid3368"
       spacingx="0.44117647"
       spacingy="0.44117647"
       color="#ff0000"
       opacity="0.1254902"
       empspacing="2" />
  </sodipodi:namedview>
  <defs
     id="defs4621" />
  <metadata
     id="metadata4624">
    <rdf:RDF>
      <cc:Work
         rdf:about="">
        <dc:format>image/svg+xml</dc:format>
        <dc:type
           rdf:resource="http://purl.org/dc/dcmitype/StillImage" />
        <dc:title></dc:title>
      </cc:Work>
    </rdf:RDF>
  </metadata>
  <path
     style="fill:#000000;fill-opacity:1"
     d="m 8.8235295,1.7647059 0,0.882353 0.8823529,0.2804019 0,1.4843039 -4.4117647,0 0,-0.8823529 0.8823529,0 0,-0.4411765 -0.8823529,-0.4411764 -1.7647059,0 0,0.8823529 0.8823529,0 0,0.8823529 -1.0402573,1.9196383 c 0,0 -0.423565,-0.1093444 -0.6560662,-0.1093444 -1.4493465,0 -2.62426485,1.1749184 -2.62426485,2.6242648 0,1.4493456 1.17491835,2.6242646 2.62426485,2.6242646 1.4493465,0 2.6242649,-1.174919 2.6242649,-2.6242646 0.291585,0 0.5831699,0 0.8747549,0 l 2.1868876,-3.4990198 1.3121325,0 0.4647129,0.9294272 C 8.9291933,6.4783355 7.9639709,7.540428 7.9639709,8.8463234 c 0,1.4493376 1.1749274,2.6242646 2.6242641,2.6242646 1.449338,0 2.624265,-1.174927 2.624265,-2.6242646 0,-1.2591134 -0.894489,-2.3151351 -2.077543,-2.5695925 l -0.546722,-1.3668047 0,-2.0046763 c 0,0 0,-0.480238 -0.441176,-0.6993675 C 9.7058826,1.9867529 8.8235295,1.7647059 8.8235295,1.7647059 Z m -3.9212009,3.5825978 2.6242648,0 -1.7495099,2.6242642 -0.601394,0 C 4.9901802,7.4544222 4.6619197,6.9956219 4.2189262,6.6867722 Z M 2.7154412,7.3155023 c 0.8454507,0 1.5308212,0.6853701 1.5308212,1.5308211 0,0.84545 -0.6853705,1.5308206 -1.5308212,1.5308206 -0.8454506,0 -1.5308211,-0.6853706 -1.5308211,-1.5308206 0,-0.845451 0.6853705,-1.5308211 1.5308211,-1.5308211 z m 7.8727938,0 c 0.845451,0 1.530821,0.6853701 1.530821,1.5308211 0,0.84545 -0.68537,1.5308206 -1.530821,1.5308206 -0.8454502,0 -1.5308202,-0.6853706 -1.5308202,-1.5308206 0,-0.845451 0.68537,-1.5308211 1.5308202,-1.5308211 z"
     inkscape:connector-curvature="0"
     id="path5430"
     sodipodi:nodetypes="ccccccccccccccssscccccsssccczcccccccscssssssss" />
</svg>
