<?xml version="1.0" encoding="UTF-8" standalone="no"?>
<!-- Created with Inkscape (http://www.inkscape.org/) -->

<svg
   xmlns:dc="http://purl.org/dc/elements/1.1/"
   xmlns:cc="http://creativecommons.org/ns#"
   xmlns:rdf="http://www.w3.org/1999/02/22-rdf-syntax-ns#"
   xmlns:svg="http://www.w3.org/2000/svg"
   xmlns="http://www.w3.org/2000/svg"
   xmlns:sodipodi="http://sodipodi.sourceforge.net/DTD/sodipodi-0.dtd"
   xmlns:inkscape="http://www.inkscape.org/namespaces/inkscape"
   version="1.1"
   width="15"
   height="15"
   id="svg4619"
   inkscape:version="0.91 r13725"
   sodipodi:docname="clothing-store-15.svg"
   viewBox="0 0 15 15">
  <sodipodi:namedview
     pagecolor="#ffffff"
     bordercolor="#666666"
     borderopacity="1"
     objecttolerance="10"
     gridtolerance="10"
     guidetolerance="10"
     inkscape:pageopacity="0"
     inkscape:pageshadow="2"
     inkscape:window-width="1027"
     inkscape:window-height="755"
     id="namedview3395"
     inkscape:document-units="px"
     showgrid="false"
     inkscape:zoom="18.401414"
     inkscape:cx="5.0009851"
     inkscape:cy="14.813201"
     inkscape:current-layer="svg4619"
     inkscape:window-x="1"
     inkscape:window-y="0"
     inkscape:window-maximized="0"
     inkscape:snap-bbox="true"
     inkscape:bbox-paths="true"
     inkscape:bbox-nodes="true"
     inkscape:snap-bbox-edge-midpoints="true"
     inkscape:snap-bbox-midpoints="true"
     inkscape:snap-nodes="true"
     inkscape:object-paths="true"
     inkscape:snap-intersection-paths="true"
     inkscape:object-nodes="true"
     inkscape:snap-smooth-nodes="true">
    <inkscape:grid
       type="xygrid"
       id="grid3333"
       spacingx="0.5"
       spacingy="0.5"
       color="#ff0000"
       opacity="0.1254902"
       empspacing="2" />
  </sodipodi:namedview>
  <defs
     id="defs4621" />
  <metadata
     id="metadata4624">
    <rdf:RDF>
      <cc:Work
         rdf:about="">
        <dc:format>image/svg+xml</dc:format>
        <dc:type
           rdf:resource="http://purl.org/dc/dcmitype/StillImage" />
        <dc:title />
      </cc:Work>
    </rdf:RDF>
  </metadata>
  <path
     style="opacity:1;fill:#000000;fill-opacity:1;stroke:none;stroke-width:1;stroke-linecap:round;stroke-linejoin:miter;stroke-miterlimit:4;stroke-dasharray:none;stroke-dashoffset:0;stroke-opacity:1"
     d="m 7,0.5 c -0.5522847,0 -1,0.44771525 -1,1 7.308e-4,0.3929195 0.2314943,0.7489982 0.5898438,0.9101562 L 6.5,2.5 c 0,0 -2.6599369,2.7214078 -4,4 l 0,1 1.5,0 0.5,3 5,0 0.5,-3 1.5,0 0,-1 L 7.75,2.7851562 7.3964844,2.4160156 C 7.3964844,2.4160156 6.9963217,1.9999868 7,2 6.7238576,2 6.5,1.7761424 6.5,1.5 6.5,1.2238576 6.7238576,1 7,1 7.2761424,1 7.5,1.2238576 7.5,1.5 L 8,1.5 C 8,0.94771525 7.5522847,0.5 7,0.5 Z M 7,3 9.5,5.5 c 0,0 -0.5,1 -1,1 l -3,0 c -0.5,0 -1,-1 -1,-1 z M 4.5,11 3,15 11.142578,15 9.5,11 Z"
     id="rect3334-2"
     inkscape:connector-curvature="0"
     sodipodi:nodetypes="sccccccccccccccssccsccssccccccc" />
</svg>
