<?xml version="1.0" encoding="UTF-8" standalone="no"?>
<!-- Created with Inkscape (http://www.inkscape.org/) -->

<svg
   xmlns:dc="http://purl.org/dc/elements/1.1/"
   xmlns:cc="http://creativecommons.org/ns#"
   xmlns:rdf="http://www.w3.org/1999/02/22-rdf-syntax-ns#"
   xmlns:svg="http://www.w3.org/2000/svg"
   xmlns="http://www.w3.org/2000/svg"
   xmlns:sodipodi="http://sodipodi.sourceforge.net/DTD/sodipodi-0.dtd"
   xmlns:inkscape="http://www.inkscape.org/namespaces/inkscape"
   version="1.1"
   width="11"
   height="11"
   id="svg4764"
   inkscape:version="0.91 r13725"
   sodipodi:docname="clothing-store-11.svg"
   viewBox="0 0 11 11">
  <sodipodi:namedview
     pagecolor="#ffffff"
     bordercolor="#666666"
     borderopacity="1"
     objecttolerance="10"
     gridtolerance="10"
     guidetolerance="10"
     inkscape:pageopacity="0"
     inkscape:pageshadow="2"
     inkscape:window-width="975"
     inkscape:window-height="755"
     id="namedview3389"
     inkscape:document-units="px"
     showgrid="false"
     inkscape:zoom="15.324813"
     inkscape:cx="29.279809"
     inkscape:cy="7.1983084"
     inkscape:current-layer="svg4764"
     inkscape:snap-bbox="true"
     inkscape:bbox-paths="true"
     inkscape:bbox-nodes="true"
     inkscape:snap-bbox-edge-midpoints="true"
     inkscape:snap-bbox-midpoints="true"
     inkscape:object-paths="true"
     inkscape:object-nodes="true"
     inkscape:snap-intersection-paths="true"
     inkscape:snap-smooth-nodes="true"
     inkscape:window-x="0"
     inkscape:window-y="0"
     inkscape:window-maximized="0"
     showguides="false">
    <inkscape:grid
       type="xygrid"
       id="grid3333"
       spacingx="0.5"
       spacingy="0.5"
       color="#ff0000"
       opacity="0.1254902"
       empspacing="2" />
  </sodipodi:namedview>
  <defs
     id="defs4766" />
  <metadata
     id="metadata4769">
    <rdf:RDF>
      <cc:Work
         rdf:about="">
        <dc:format>image/svg+xml</dc:format>
        <dc:type
           rdf:resource="http://purl.org/dc/dcmitype/StillImage" />
        <dc:title />
      </cc:Work>
    </rdf:RDF>
  </metadata>
  <path
     style="opacity:1;fill:#000000;fill-opacity:1;stroke:none;stroke-width:1;stroke-linecap:round;stroke-linejoin:miter;stroke-miterlimit:4;stroke-dasharray:none;stroke-dashoffset:0;stroke-opacity:1"
     d="m 5.5,0 c -0.5522847,0 -1,0.44771525 -1,1 0,0.4056441 0.2447067,0.7513468 0.5917969,0.9082031 L 5,2 2,4.9042969 2,5.5 l 1,0 0.5,2 4,0 0.5,-2 1,0 L 9,4.9042969 6,2 5.5,1.5 C 5.2238576,1.5 5,1.2761424 5,1 5,0.72385763 5.2238576,0.5 5.5,0.5 5.7761424,0.5 6,0.72385763 6,1 L 6.5,1 C 6.5,0.44771525 6.0522847,0 5.5,0 Z m 0,2.3652344 1.8574219,1.796875 C 7.1682472,4.552087 6.965169,4.8827359 6.5,5 l -2,0 C 4.034831,4.8827359 3.8317528,4.552087 3.6425781,4.1621094 Z M 3.5,8 l -1,3 6,0 -1,-3 z"
     id="rect3334-2"
     inkscape:connector-curvature="0"
     sodipodi:nodetypes="ssccccccccccccssccsccccccccccc" />
</svg>
