<?xml version="1.0" encoding="UTF-8" standalone="no"?>
<!-- Created with Inkscape (http://www.inkscape.org/) -->

<svg
   xmlns:dc="http://purl.org/dc/elements/1.1/"
   xmlns:cc="http://creativecommons.org/ns#"
   xmlns:rdf="http://www.w3.org/1999/02/22-rdf-syntax-ns#"
   xmlns:svg="http://www.w3.org/2000/svg"
   xmlns="http://www.w3.org/2000/svg"
   xmlns:sodipodi="http://sodipodi.sourceforge.net/DTD/sodipodi-0.dtd"
   xmlns:inkscape="http://www.inkscape.org/namespaces/inkscape"
   version="1.1"
   width="11"
   height="11"
   id="svg4764"
   inkscape:version="0.91 r13725"
   sodipodi:docname="grocery-11.svg"
   viewBox="0 0 11 11">
  <sodipodi:namedview
     pagecolor="#ffffff"
     bordercolor="#666666"
     borderopacity="1"
     objecttolerance="10"
     gridtolerance="10"
     guidetolerance="10"
     inkscape:pageopacity="0"
     inkscape:pageshadow="2"
     inkscape:window-width="998"
     inkscape:window-height="731"
     id="namedview3392"
     inkscape:document-units="px"
     showgrid="false"
     inkscape:zoom="25.911204"
     inkscape:cx="6.8876227"
     inkscape:cy="9.77128"
     inkscape:window-x="0"
     inkscape:window-y="23"
     inkscape:window-maximized="0"
     inkscape:current-layer="svg4764"
     inkscape:snap-bbox="true"
     inkscape:bbox-paths="true"
     inkscape:bbox-nodes="true"
     inkscape:snap-bbox-edge-midpoints="true"
     inkscape:object-paths="true"
     inkscape:snap-intersection-paths="true"
     inkscape:object-nodes="true"
     inkscape:snap-smooth-nodes="true">
    <inkscape:grid
       type="xygrid"
       id="grid3333"
       spacingx="0.5"
       spacingy="0.5"
       color="#ff0000"
       opacity="0.1254902"
       empspacing="2" />
  </sodipodi:namedview>
  <defs
     id="defs4766" />
  <metadata
     id="metadata4769">
    <rdf:RDF>
      <cc:Work
         rdf:about="">
        <dc:format>image/svg+xml</dc:format>
        <dc:type
           rdf:resource="http://purl.org/dc/dcmitype/StillImage" />
        <dc:title></dc:title>
      </cc:Work>
    </rdf:RDF>
  </metadata>
  <path
     style="fill:#000000;fill-opacity:1"
     d="M 10.388889,0.45143369 C 9.5,0.5 9.2513406,1 9.2534876,2 6.5,2 0,2 0,2 L 2,7 9,7 9,8 1.5,8 C 1,8 1,8.4999998 1.5,8.5 l 1.2625454,4e-7 5.4874546,0 L 9.5,8.5 C 9.8055549,8.4999999 10,8.3055555 10,8 L 10,7.3888888 10,2.5 10,2 C 10,1.6111112 10,1 10.5,1 L 11,1 11,0.45143369 Z M 8.25,8.5 c -0.5062689,0 -0.9166667,0.4659778 -0.9166667,0.9722222 0,0.5062445 0.4103978,0.9166668 0.9166667,0.9166668 0.506269,0 0.916667,-0.4104223 0.916667,-0.9166668 C 9.166667,8.9659778 8.756269,8.5 8.25,8.5 Z m -5.4874546,0 c -0.5062689,0 -0.9292121,0.4659778 -0.9292121,0.9722222 0,0.5062445 0.4103978,0.9166668 0.9166667,0.9166668 0.5062689,0 0.9166667,-0.4104223 0.9166667,-0.9166668 C 3.6666667,8.9659778 3.2688143,8.5 2.7625454,8.5 Z"
     inkscape:connector-curvature="0"
     id="rect7842-7"
     sodipodi:nodetypes="ccccccssccssccczcccssssssssss" />
</svg>
