<?xml version="1.0" encoding="UTF-8" standalone="no"?>
<!-- Created with Inkscape (http://www.inkscape.org/) -->

<svg
   xmlns:dc="http://purl.org/dc/elements/1.1/"
   xmlns:cc="http://creativecommons.org/ns#"
   xmlns:rdf="http://www.w3.org/1999/02/22-rdf-syntax-ns#"
   xmlns:svg="http://www.w3.org/2000/svg"
   xmlns="http://www.w3.org/2000/svg"
   xmlns:sodipodi="http://sodipodi.sourceforge.net/DTD/sodipodi-0.dtd"
   xmlns:inkscape="http://www.inkscape.org/namespaces/inkscape"
   version="1.1"
   width="15"
   height="15"
   id="svg4619"
   inkscape:version="0.91 r13725"
   sodipodi:docname="hairdresser-15.svg"
   viewBox="0 0 13.235294 13.235294">
  <sodipodi:namedview
     pagecolor="#ffffff"
     bordercolor="#666666"
     borderopacity="1"
     objecttolerance="10"
     gridtolerance="10"
     guidetolerance="10"
     inkscape:pageopacity="0"
     inkscape:pageshadow="2"
     inkscape:window-width="976"
     inkscape:window-height="697"
     id="namedview3356"
     inkscape:document-units="px"
     showgrid="true"
     inkscape:snap-bbox="true"
     inkscape:bbox-paths="true"
     inkscape:object-paths="true"
     inkscape:snap-intersection-paths="true"
     inkscape:object-nodes="true"
     inkscape:zoom="33.497594"
     inkscape:cx="7.7154919"
     inkscape:cy="5.7947594"
     inkscape:window-x="188"
     inkscape:window-y="52"
     inkscape:window-maximized="0"
     inkscape:current-layer="svg4619">
    <inkscape:grid
       type="xygrid"
       id="grid3358"
       color="#ff0000"
       opacity="0.1254902"
       spacingx="0.44117647"
       spacingy="0.44117647"
       empspacing="2" />
  </sodipodi:namedview>
  <defs
     id="defs4621" />
  <metadata
     id="metadata4624">
    <rdf:RDF>
      <cc:Work
         rdf:about="">
        <dc:format>image/svg+xml</dc:format>
        <dc:type
           rdf:resource="http://purl.org/dc/dcmitype/StillImage" />
        <dc:title></dc:title>
      </cc:Work>
    </rdf:RDF>
  </metadata>
  <path
     style="fill:#000000;fill-opacity:1"
     d="m 1.567817,1.6988161 c -0.80547081,0 -1.4584339,0.6609267 -1.4584339,1.4762713 0,0.8153446 0.65296309,1.4762712 1.4584339,1.4762712 0.259085,0 0.4727697,-0.1107212 0.6836415,-0.2305936 l 0.7747938,0.6919286 0,3.3678175 -0.8203699,0.7841948 C 2.0078649,9.1628457 1.8050978,9.0801719 1.567817,9.0801719 c -0.80547081,0 -1.4584339,0.6609265 -1.4584339,1.4762731 0,0.815343 0.65296309,1.47627 1.4584339,1.47627 0.8054709,0 1.4584353,-0.660927 1.4584353,-1.47627 0,-0.119574 -0.064508,-0.211256 -0.091149,-0.322862 L 13.235294,1.765919 10.572066,1.7647058 8.3527096,2.6470588 5.1227542,5.2972273 2.9351029,3.4980954 c 0.026655,-0.1121968 0.091149,-0.2031348 0.091149,-0.323008 0,-0.8153446 -0.6529631,-1.4762713 -1.4584353,-1.4762713 z m 6.4718023,6.0435595 -1.8230428,1.5223303 2.5800043,1.7647061 2.2193572,0.882353 2.219353,0 z"
     inkscape:connector-curvature="0"
     id="path3595"
     sodipodi:nodetypes="sssccccssssccccccsscccccc" />
</svg>
