<?xml version="1.0" encoding="UTF-8" standalone="no"?>
<!-- Created with Inkscape (http://www.inkscape.org/) -->

<svg
   xmlns:dc="http://purl.org/dc/elements/1.1/"
   xmlns:cc="http://creativecommons.org/ns#"
   xmlns:rdf="http://www.w3.org/1999/02/22-rdf-syntax-ns#"
   xmlns:svg="http://www.w3.org/2000/svg"
   xmlns="http://www.w3.org/2000/svg"
   xmlns:sodipodi="http://sodipodi.sourceforge.net/DTD/sodipodi-0.dtd"
   xmlns:inkscape="http://www.inkscape.org/namespaces/inkscape"
   version="1.1"
   width="17"
   height="17"
   id="svg4619"
   inkscape:version="0.91+devel+osxmenu r12911"
   sodipodi:docname="harbor-17.svg"
   viewBox="0 0 15 15">
  <sodipodi:namedview
     pagecolor="#000000"
     bordercolor="#666666"
     borderopacity="1"
     objecttolerance="10"
     gridtolerance="10"
     guidetolerance="10"
     inkscape:pageopacity="0"
     inkscape:pageshadow="2"
     inkscape:window-width="640"
     inkscape:window-height="480"
     id="namedview3358"
     inkscape:document-units="px"
     showgrid="false"
     inkscape:zoom="35.941176"
     inkscape:cx="5.0220949"
     inkscape:cy="8.2495908"
     inkscape:current-layer="svg4619" />
  <defs
     id="defs4621" />
  <metadata
     id="metadata4624">
    <rdf:RDF>
      <cc:Work
         rdf:about="">
        <dc:format>image/svg+xml</dc:format>
        <dc:type
           rdf:resource="http://purl.org/dc/dcmitype/StillImage" />
        <dc:title />
      </cc:Work>
    </rdf:RDF>
  </metadata>
  <path style="fill:#000000;fill-opacity:1"
     d="m 13.076923,0 -1.307692,0.6538462 -0.653846,0.6538461 -0.653847,1.3076923 0,1.3076923 0.122531,0.5313154 L 2.2884615,12.75 C 1.3076923,11.769231 1.3076923,9.1538462 2.6153846,7.8461538 l 1.3076923,1.3076924 0,-5.2307693 -1.9615384,1.9615385 C 0.6538462,7.1923077 0,7.8461538 0,9.8076923 L 0,11.769231 0,17 5.2307692,17 7.1923077,17 C 8.5,17 9.8076923,16.346154 11.115385,15.038462 l 0.653846,-0.653847 1.307692,-1.307692 -1.307692,0 -3.9230772,0 1.3076924,1.307692 C 7.8461538,15.692308 5.2307692,15.692308 4.25,14.711538 l 8.295673,-8.2956072 0.53125,0.122923 1.307692,0 L 15.692308,5.8850077 16.346154,5.2311615 17,3.9234692 17,2.6157769 16.346154,1.3080846 15.692308,0.6542385 14.384615,3.923e-4 l -1.307692,0 z m 0,1.9615385 0.653846,0 0.653846,0 0.653847,0.6538461 0,0.6538462 0,0.6538461 -0.653847,0.6538462 -0.653846,0 -0.653846,0 -0.653846,-0.6538462 0,-0.6538461 0,-0.6538462 0.653846,-0.6538461 z"
     inkscape:connector-curvature="0"
     id="path7366"
      />
</svg>
