<?xml version="1.0" encoding="UTF-8" standalone="no"?>
<!-- Created with Inkscape (http://www.inkscape.org/) -->

<svg
   xmlns:dc="http://purl.org/dc/elements/1.1/"
   xmlns:cc="http://creativecommons.org/ns#"
   xmlns:rdf="http://www.w3.org/1999/02/22-rdf-syntax-ns#"
   xmlns:svg="http://www.w3.org/2000/svg"
   xmlns="http://www.w3.org/2000/svg"
   xmlns:sodipodi="http://sodipodi.sourceforge.net/DTD/sodipodi-0.dtd"
   xmlns:inkscape="http://www.inkscape.org/namespaces/inkscape"
   version="1.1"
   width="15"
   height="15"
   id="svg4619"
   inkscape:version="0.91 r13725"
   sodipodi:docname="harbor-15.svg"
   viewBox="0 0 13.235294 13.235294">
  <sodipodi:namedview
     pagecolor="#ffffff"
     bordercolor="#666666"
     borderopacity="1"
     objecttolerance="10"
     gridtolerance="10"
     guidetolerance="10"
     inkscape:pageopacity="0"
     inkscape:pageshadow="2"
     inkscape:window-width="850"
     inkscape:window-height="755"
     id="namedview3358"
     inkscape:document-units="px"
     showgrid="false"
     inkscape:zoom="1"
     inkscape:cx="8.8479822"
     inkscape:cy="8.2754177"
     inkscape:current-layer="svg4619"
     inkscape:snap-bbox="true"
     inkscape:bbox-paths="true"
     inkscape:bbox-nodes="true"
     inkscape:object-paths="true"
     inkscape:snap-intersection-paths="true"
     inkscape:object-nodes="true"
     inkscape:snap-smooth-nodes="true"
     inkscape:window-x="380"
     inkscape:window-y="0"
     inkscape:window-maximized="0">
    <inkscape:grid
       type="xygrid"
       id="grid3333"
       spacingx="0.44117647"
       spacingy="0.44117647"
       color="#ff0000"
       opacity="0.1254902"
       empspacing="2" />
  </sodipodi:namedview>
  <defs
     id="defs4621" />
  <metadata
     id="metadata4624">
    <rdf:RDF>
      <cc:Work
         rdf:about="">
        <dc:format>image/svg+xml</dc:format>
        <dc:type
           rdf:resource="http://purl.org/dc/dcmitype/StillImage" />
        <dc:title />
      </cc:Work>
    </rdf:RDF>
  </metadata>
  <path
     style="opacity:1;fill:#000000;fill-opacity:1;stroke:none;stroke-width:1;stroke-linecap:round;stroke-linejoin:miter;stroke-miterlimit:4;stroke-dasharray:none;stroke-dashoffset:0;stroke-opacity:1"
     d="m 6.6577538,0.88235285 c -1.2404267,0 -2.2459895,1.00556425 -2.2459895,2.24598935 0.00153,0.8009961 0.42931,1.5406162 1.1229948,1.9411143 L 5.2941177,10.588235 2.6470589,9.2647059 2.6470589,7.5 3.0882353,7.5 2.6470589,6.6176471 0.88235295,5.213903 l 0,4.4919794 5.29411775,3.5294116 0.8823529,0 5.2941174,-3.5294116 0,-4.4919794 L 10.588235,6.6176471 10.147059,7.5 l 0.441176,0 0,1.7647059 L 7.9411766,10.588235 7.7807491,5.0716497 C 8.4751109,4.6707596 8.9031083,3.9301222 8.9037433,3.1283422 c 0,-1.2404251 -1.0055635,-2.24598935 -2.2459895,-2.24598935 z m 0,1.12299465 c 0.6202132,0 1.1229953,0.5027816 1.1229953,1.1229947 0,0.6202131 -0.5027821,1.1229946 -1.1229953,1.1229946 -0.6202127,0 -1.1229947,-0.5027815 -1.1229947,-1.1229946 0,-0.6202131 0.502782,-1.1229947 1.1229947,-1.1229947 z"
     id="path3334-7-9"
     inkscape:connector-curvature="0"
     sodipodi:nodetypes="sccccccccccccccccccccssssss" />
</svg>
