<?xml version="1.0" encoding="UTF-8" standalone="no"?>
<!-- Created with Inkscape (http://www.inkscape.org/) -->

<svg
   xmlns:dc="http://purl.org/dc/elements/1.1/"
   xmlns:cc="http://creativecommons.org/ns#"
   xmlns:rdf="http://www.w3.org/1999/02/22-rdf-syntax-ns#"
   xmlns:svg="http://www.w3.org/2000/svg"
   xmlns="http://www.w3.org/2000/svg"
   xmlns:sodipodi="http://sodipodi.sourceforge.net/DTD/sodipodi-0.dtd"
   xmlns:inkscape="http://www.inkscape.org/namespaces/inkscape"
   version="1.1"
   width="15"
   height="15"
   id="svg4619"
   xml:space="preserve"
   inkscape:version="0.91 r13725"
   sodipodi:docname="laundry-15.svg"
   viewBox="0 0 13.235294 13.235294"><sodipodi:namedview
     pagecolor="#ffffff"
     bordercolor="#666666"
     borderopacity="1"
     objecttolerance="10"
     gridtolerance="10"
     guidetolerance="10"
     inkscape:pageopacity="0"
     inkscape:pageshadow="2"
     inkscape:window-width="903"
     inkscape:window-height="632"
     id="namedview3429"
     inkscape:document-units="px"
     showgrid="false"
     inkscape:zoom="25.41425"
     inkscape:cx="6.5044247"
     inkscape:cy="7.7760514"
     inkscape:current-layer="svg4619"
     inkscape:snap-bbox="true"
     inkscape:bbox-paths="true"
     inkscape:bbox-nodes="true"
     inkscape:snap-bbox-edge-midpoints="true"
     inkscape:snap-intersection-paths="true"
     inkscape:object-paths="true"
     inkscape:object-nodes="true"
     inkscape:snap-smooth-nodes="true"
     inkscape:window-x="37"
     inkscape:window-y="15"
     inkscape:window-maximized="0"><inkscape:grid
       type="xygrid"
       id="grid3333"
       spacingx="0.44117647"
       spacingy="0.44117647"
       color="#ff0000"
       opacity="0.1254902"
       empspacing="2" /></sodipodi:namedview><metadata
     id="metadata3166"><rdf:RDF><cc:Work
         rdf:about=""><dc:format>image/svg+xml</dc:format><dc:type
           rdf:resource="http://purl.org/dc/dcmitype/StillImage" /><dc:title></dc:title></cc:Work></rdf:RDF></metadata><defs
     id="defs3164" /><path
     style="fill:#000000;fill-opacity:1"
     d="M 13 0.9453125 L 6.5 1 L 4 4 L 2 4 L 2 15 L 13 15 L 13 0.9453125 z M 7.5 2 L 9 2 L 9 3.5 L 7.5 3.5 L 7.5 2 z M 10 2 L 11.5 2 L 11.5 3.5 L 10 3.5 L 10 2 z M 7.5 6 A 4 4 0 0 1 11.5 10 A 4 4 0 0 1 7.5 14 A 4 4 0 0 1 3.5 10 A 4 4 0 0 1 7.5 6 z M 4.5 10 C 4.5000001 11.656854 5.8431458 13 7.5 13 C 9.1568542 13 10.5 11.656854 10.5 10 C 8.7905467 9.98997 7.0000001 10 4.5 10 z "
     transform="scale(0.88235295,0.88235295)"
     id="path3291-2" /></svg>