<?xml version="1.0" encoding="UTF-8" standalone="no"?>
<!-- Created with Inkscape (http://www.inkscape.org/) -->

<svg
   xmlns:dc="http://purl.org/dc/elements/1.1/"
   xmlns:cc="http://creativecommons.org/ns#"
   xmlns:rdf="http://www.w3.org/1999/02/22-rdf-syntax-ns#"
   xmlns:svg="http://www.w3.org/2000/svg"
   xmlns="http://www.w3.org/2000/svg"
   xmlns:sodipodi="http://sodipodi.sourceforge.net/DTD/sodipodi-0.dtd"
   xmlns:inkscape="http://www.inkscape.org/namespaces/inkscape"
   version="1.1"
   width="17"
   height="17"
   id="svg4619"
   xml:space="preserve"
   inkscape:version="0.91+devel+osxmenu r12911"
   sodipodi:docname="laundry-17.svg"
   viewBox="0 0 15 15"><sodipodi:namedview
     pagecolor="#000000"
     bordercolor="#666666"
     borderopacity="1"
     objecttolerance="10"
     gridtolerance="10"
     guidetolerance="10"
     inkscape:pageopacity="0"
     inkscape:pageshadow="2"
     inkscape:window-width="640"
     inkscape:window-height="480"
     id="namedview3429"
     inkscape:document-units="px"
     showgrid="false"
     inkscape:zoom="25.41425"
     inkscape:cx="7.9320977"
     inkscape:cy="9.1262628"
     inkscape:current-layer="svg4619" /><metadata
     id="metadata3166"><rdf:RDF><cc:Work
         rdf:about=""><dc:format>image/svg+xml</dc:format><dc:type
           rdf:resource="http://purl.org/dc/dcmitype/StillImage" /></cc:Work></rdf:RDF></metadata><defs
     id="defs3164" /><path style="fill:#000000;fill-opacity:1"
     d="m 8.0825892,0 -3.8325893,3.6428571 -2.4285714,0 0,13.3571429 13.3571435,0 0,-16.05133929 L 14.22991,0 8.0825892,0 Z M 9.1071425,1.2142857 10.321429,2.4285714 9.1071425,3.6428571 7.8928571,2.4285714 9.1071425,1.2142857 Z m 3.6428575,0 1.214285,1.2142857 L 12.75,3.6428571 11.535714,2.4285714 12.75,1.2142857 Z M 8.4999999,6.0714286 c 2.3472101,0 4.2499991,1.9027898 4.2499991,4.2500004 0,2.34721 -1.902789,4.25 -4.2499991,4.25 -2.3472101,0 -4.25,-1.90279 -4.25,-4.25 0,-2.3472106 1.9027899,-4.2500004 4.25,-4.2500004 z M 6.0714285,10.321429 c 0,1.341262 1.0873085,2.428571 2.4285714,2.428571 1.3412626,0 2.4285711,-1.087309 2.4285711,-2.428571 l -2.4285711,0 -2.4285714,0 z"
     inkscape:connector-curvature="0"
     id="path3291"
      /></svg>
