<?xml version="1.0" encoding="UTF-8" standalone="no"?>
<!-- Created with Inkscape (http://www.inkscape.org/) -->

<svg
   xmlns:dc="http://purl.org/dc/elements/1.1/"
   xmlns:cc="http://creativecommons.org/ns#"
   xmlns:rdf="http://www.w3.org/1999/02/22-rdf-syntax-ns#"
   xmlns:svg="http://www.w3.org/2000/svg"
   xmlns="http://www.w3.org/2000/svg"
   xmlns:sodipodi="http://sodipodi.sourceforge.net/DTD/sodipodi-0.dtd"
   xmlns:inkscape="http://www.inkscape.org/namespaces/inkscape"
   version="1.1"
   width="15"
   height="15"
   id="svg4619"
   xml:space="preserve"
   inkscape:version="0.91 r13725"
   sodipodi:docname="laundry-15.svg"
   viewBox="0 0 13.235294 13.235294"><sodipodi:namedview
     pagecolor="#ffffff"
     bordercolor="#666666"
     borderopacity="1"
     objecttolerance="10"
     gridtolerance="10"
     guidetolerance="10"
     inkscape:pageopacity="0"
     inkscape:pageshadow="2"
     inkscape:window-width="975"
     inkscape:window-height="757"
     id="namedview3429"
     inkscape:document-units="px"
     showgrid="false"
     inkscape:zoom="25.41425"
     inkscape:cx="7.1439301"
     inkscape:cy="9.2553187"
     inkscape:current-layer="svg4619"
     inkscape:snap-bbox="true"
     inkscape:bbox-paths="true"
     inkscape:bbox-nodes="true"
     inkscape:snap-bbox-edge-midpoints="true"
     inkscape:snap-intersection-paths="true"
     inkscape:object-paths="true"
     inkscape:object-nodes="true"
     inkscape:snap-smooth-nodes="true"
     inkscape:window-x="1"
     inkscape:window-y="0"
     inkscape:window-maximized="0"><inkscape:grid
       type="xygrid"
       id="grid3333"
       spacingx="0.44117647"
       spacingy="0.44117647"
       color="#ff0000"
       opacity="0.1254902"
       empspacing="2" /></sodipodi:namedview><metadata
     id="metadata3166"><rdf:RDF><cc:Work
         rdf:about=""><dc:format>image/svg+xml</dc:format><dc:type
           rdf:resource="http://purl.org/dc/dcmitype/StillImage" /><dc:title /></cc:Work></rdf:RDF></metadata><defs
     id="defs3164" /><path
     style="fill:#000000;fill-opacity:1"
     d="M 13,0.9453125 7,0.99999989 4.5,3.9999999 2,4 2.0000001,14 13,14 Z M 7.5,2 9,2 9,3.5 7.5,3.5 Z m 2.5,0 1.5,0 0,1.5 -1.5,0 z M 7.5,4.9999999 c 2.209139,0 4,1.790861 4,4 C 11.5,11.209139 9.709139,13 7.5,13 c -2.209139,0 -4,-1.790861 -4,-4.0000001 0,-2.209139 1.790861,-4 4,-4 z m -3,4 C 4.5000001,10.656854 5.8431458,12 7.5,12 c 1.6568542,0 3,-1.343146 3,-3.0000001 -1.7094533,-0.01003 -3.4999999,0 -6,0 z"
     transform="scale(0.88235295,0.88235295)"
     id="path3291-2"
     inkscape:connector-curvature="0"
     sodipodi:nodetypes="cccccccccccccccccssssscscc" /></svg>