<?xml version="1.0" encoding="UTF-8" standalone="no"?>
<!-- Created with Inkscape (http://www.inkscape.org/) -->

<svg
   xmlns:dc="http://purl.org/dc/elements/1.1/"
   xmlns:cc="http://creativecommons.org/ns#"
   xmlns:rdf="http://www.w3.org/1999/02/22-rdf-syntax-ns#"
   xmlns:svg="http://www.w3.org/2000/svg"
   xmlns="http://www.w3.org/2000/svg"
   xmlns:sodipodi="http://sodipodi.sourceforge.net/DTD/sodipodi-0.dtd"
   xmlns:inkscape="http://www.inkscape.org/namespaces/inkscape"
   version="1.1"
   width="11"
   height="11"
   id="svg4764"
   inkscape:version="0.91 r13725"
   sodipodi:docname="lodging-11.svg"
   viewBox="0 0 11 11">
  <sodipodi:namedview
     pagecolor="#ffffff"
     bordercolor="#666666"
     borderopacity="1"
     objecttolerance="10"
     gridtolerance="10"
     guidetolerance="10"
     inkscape:pageopacity="0"
     inkscape:pageshadow="2"
     inkscape:window-width="1013"
     inkscape:window-height="652"
     id="namedview3364"
     inkscape:document-units="px"
     showgrid="false"
     inkscape:zoom="30.341309"
     inkscape:cx="6.4345727"
     inkscape:cy="4.3057155"
     inkscape:window-x="0"
     inkscape:window-y="23"
     inkscape:window-maximized="0"
     inkscape:current-layer="svg4764"
     inkscape:snap-bbox="true"
     inkscape:bbox-paths="true"
     inkscape:bbox-nodes="true"
     inkscape:object-paths="true"
     inkscape:snap-intersection-paths="true"
     inkscape:object-nodes="true"
     inkscape:snap-smooth-nodes="true">
    <inkscape:grid
       type="xygrid"
       id="grid3333"
       spacingx="0.5"
       spacingy="0.5"
       color="#ff0000"
       opacity="0.1254902"
       empspacing="2" />
  </sodipodi:namedview>
  <defs
     id="defs4766" />
  <metadata
     id="metadata4769">
    <rdf:RDF>
      <cc:Work
         rdf:about="">
        <dc:format>image/svg+xml</dc:format>
        <dc:type
           rdf:resource="http://purl.org/dc/dcmitype/StillImage" />
        <dc:title></dc:title>
      </cc:Work>
    </rdf:RDF>
  </metadata>
  <path
     style="fill:#000000;fill-opacity:1"
     d="M 1.5 2 A 1.5 1.5 0 0 0 0 3.5 A 1.5 1.5 0 0 0 1.5 5 A 1.5 1.5 0 0 0 3 3.5 A 1.5 1.5 0 0 0 1.5 2 z M 4 3 C 4 4.222215 2.8333225 6 1 6 L 0.5 6 C 0.5 6 0 6 0 6.5 C 0 7 0.5 7 0.5 7 L 11 7 L 11 5.1660156 C 11 4.5549081 10.83288 3 7.7773438 3 L 4 3 z M 0.5 8 C 0.1944463 8 0 8.1944463 0 8.5 C -0.00014671 9.1054853 3.6140072e-20 9.4772587 0 10 C 0 10.305554 0.1944463 10.5 0.5 10.5 C 0.8055538 10.5 1 10.305554 1 10 L 1 9.5 L 10 9.5 L 10 10 C 10 10.305554 10.194447 10.5 10.5 10.5 C 10.805554 10.5 11 10.305554 11 10 L 11 8.5 C 11 8.1944463 10.805554 8 10.5 8 L 0.5 8 z "
     id="path4536-6" />
</svg>
