<?xml version="1.0" encoding="UTF-8" standalone="no"?>
<!-- Generator: Adobe Illustrator 17.1.0, SVG Export Plug-In . SVG Version: 6.00 Build 0)  -->

<svg
   xmlns:dc="http://purl.org/dc/elements/1.1/"
   xmlns:cc="http://creativecommons.org/ns#"
   xmlns:rdf="http://www.w3.org/1999/02/22-rdf-syntax-ns#"
   xmlns:svg="http://www.w3.org/2000/svg"
   xmlns="http://www.w3.org/2000/svg"
   xmlns:sodipodi="http://sodipodi.sourceforge.net/DTD/sodipodi-0.dtd"
   xmlns:inkscape="http://www.inkscape.org/namespaces/inkscape"
   version="1.1"
   id="svg4619"
   x="0px"
   y="0px"
   viewBox="0 0 15 15"
   enable-background="new 0 0 15 15"
   xml:space="preserve"
   inkscape:version="0.91+devel+osxmenu r12911"
   sodipodi:docname="museum-17.svg"><metadata
     id="metadata55370"><rdf:RDF><cc:Work
         rdf:about=""><dc:format>image/svg+xml</dc:format><dc:type
           rdf:resource="http://purl.org/dc/dcmitype/StillImage" /></cc:Work></rdf:RDF></metadata><defs
     id="defs55368" /><sodipodi:namedview
     pagecolor="#ffffff"
     bordercolor="#666666"
     borderopacity="1"
     objecttolerance="10"
     gridtolerance="10"
     guidetolerance="10"
     inkscape:pageopacity="0"
     inkscape:pageshadow="2"
     inkscape:window-width="640"
     inkscape:window-height="480"
     id="namedview55366"
     showgrid="true"
     inkscape:snap-bbox="true"
     inkscape:snap-intersection-paths="true"
     inkscape:snap-nodes="true"
     inkscape:object-paths="true"
     inkscape:object-nodes="true"
     inkscape:snap-smooth-nodes="true"
     inkscape:zoom="23.588235"
     inkscape:cx="6.8042394"
     inkscape:cy="11.509975"
     inkscape:current-layer="svg4619"><inkscape:grid
       type="xygrid"
       id="grid55917" /></sodipodi:namedview><path
     style="fill:#000000;fill-opacity:1"
     id="rect7645-6-5-0-1"
     d="M 8.5,0 2,4 15,4 Z M 3.4,5.7 C 2.7,5.7 2,6.4 2,7 l 0,7 0,2.3 C 2,16.8 2.3,17 2.7,17 l 11.6,0 C 14.7,17 15,16.8 15,16.3 L 15,14.2 15,7 C 15,6.4 14.2,5.7 13.5,5.7 Z m 3,2.1 c 0.7,0 0.7,0 1.4,1.4 L 8.5,10.6 9.2,9.2 C 9.9,7.8 9.9,7.8 10.6,7.8 11.3,7.8 12,8.5 12,9.2 l 0,5 c 0,0.5 -0.2,0.7 -0.7,0.7 -0.5,0 -0.7,-0.2 -0.7,-0.7 l 0,-4.1 -1.4,2.7 c -0.4,0.7 -1,0.7 -1.4,0 l -1.4,-2.7 0,4.1 c 0,0.5 -0.2,0.7 -0.7,0.7 C 5.2,14.9 5,14.7 5,14.2 l 0,-1 0,-3.9 C 5,8.5 5.7,7.8 6.4,7.8 Z"
     inkscape:connector-curvature="0"
     sodipodi:nodetypes="ccccssccssccssssscssssssccccssscss" /></svg>
