<?xml version="1.0" encoding="UTF-8" standalone="no"?>
<!-- Generator: Adobe Illustrator 17.1.0, SVG Export Plug-In . SVG Version: 6.00 Build 0)  -->

<svg
   xmlns:dc="http://purl.org/dc/elements/1.1/"
   xmlns:cc="http://creativecommons.org/ns#"
   xmlns:rdf="http://www.w3.org/1999/02/22-rdf-syntax-ns#"
   xmlns:svg="http://www.w3.org/2000/svg"
   xmlns="http://www.w3.org/2000/svg"
   xmlns:sodipodi="http://sodipodi.sourceforge.net/DTD/sodipodi-0.dtd"
   xmlns:inkscape="http://www.inkscape.org/namespaces/inkscape"
   version="1.1"
   id="svg4619"
   x="0px"
   y="0px"
   viewBox="0 0 15 15"
   enable-background="new 0 0 15 15"
   xml:space="preserve"
   inkscape:version="0.91 r13725"
   sodipodi:docname="museum-15.svg"><metadata
     id="metadata55370"><rdf:RDF><cc:Work
         rdf:about=""><dc:format>image/svg+xml</dc:format><dc:type
           rdf:resource="http://purl.org/dc/dcmitype/StillImage" /><dc:title></dc:title></cc:Work></rdf:RDF></metadata><defs
     id="defs55368" /><sodipodi:namedview
     pagecolor="#ffffff"
     bordercolor="#666666"
     borderopacity="1"
     objecttolerance="10"
     gridtolerance="10"
     guidetolerance="10"
     inkscape:pageopacity="0"
     inkscape:pageshadow="2"
     inkscape:window-width="983"
     inkscape:window-height="692"
     id="namedview55366"
     showgrid="true"
     inkscape:snap-bbox="true"
     inkscape:snap-intersection-paths="true"
     inkscape:snap-nodes="true"
     inkscape:object-paths="true"
     inkscape:object-nodes="true"
     inkscape:snap-smooth-nodes="true"
     inkscape:zoom="26.652486"
     inkscape:cx="5.9260688"
     inkscape:cy="7.8512257"
     inkscape:current-layer="svg4619"
     inkscape:window-x="278"
     inkscape:window-y="47"
     inkscape:window-maximized="0"><inkscape:grid
       type="xygrid"
       id="grid55917"
       spacingx="0.5"
       spacingy="0.5"
       color="#ff0000"
       opacity="0.1254902"
       empspacing="2" /></sodipodi:namedview><path
     style="fill:#000000;fill-opacity:1"
     id="rect7645-6-5-0-0"
     inkscape:connector-curvature="0"
     d="M 7,1.5 2,5 13,5 8,1.5 c 0,0 -0.477809,-0.4937448 -1,0 z M 2.5,6 C 1.8888399,6 2,6.5 2,6.5 l 0,5.066667 0,1.711111 0,1.222222 11,0 0,-1.222222 0,-1.711111 L 13,6.5 C 13,6.5 13.111111,6 12.5,6 Z m 2.0666667,1.0444444 1.1,0 C 6.0333333,7.0444444 6.4,7.7777778 6.4,7.7777778 L 7.5,9.977778 8.6,7.7777778 C 8.8444444,7.4111111 8.9666667,7.0444444 9.3333333,7.0444444 l 1.0999997,0 c 0.366667,0 0.733334,0.3666667 0.733334,0.7333334 l 0,5.0111112 c 0,0.366667 -0.366667,0.733333 -0.733334,0.733333 C 10.066667,13.522222 9.7,13.155556 9.7,12.788889 l 0,-4.2777779 -1.1,2.1999999 c -0.1222222,0.366667 -0.3666667,0.855556 -1.1,0.855556 -0.7333333,0 -0.9777778,-0.488889 -1.1,-0.855556 L 5.3,8.5111111 5.3,12.666667 C 5.3,13.033333 4.9333333,13.4 4.5666667,13.4 4.2,13.4 3.7111111,13.155556 3.7111111,12.788889 l 0,-2.077778 0,-2.9333332 c 0,-0.3666667 0.3666667,-0.7333334 0.8555556,-0.7333334 z"
     sodipodi:nodetypes="cccccsccccccccsssscccssssssccsccssscss" /></svg>