<?xml version="1.0" encoding="utf-8"?>
<!-- Generator: Adobe Illustrator 17.1.0, SVG Export Plug-In . SVG Version: 6.00 Build 0)  -->
<!DOCTYPE svg PUBLIC "-//W3C//DTD SVG 1.1//EN" "http://www.w3.org/Graphics/SVG/1.1/DTD/svg11.dtd">
<svg version="1.1"
	 id="svg4764" xmlns:cc="http://creativecommons.org/ns#" xmlns:svg="http://www.w3.org/2000/svg" xmlns:inkscape="http://www.inkscape.org/namespaces/inkscape" xmlns:rdf="http://www.w3.org/1999/02/22-rdf-syntax-ns#" xmlns:dc="http://purl.org/dc/elements/1.1/"
	 xmlns="http://www.w3.org/2000/svg" xmlns:xlink="http://www.w3.org/1999/xlink" x="0px" y="0px" viewBox="0 0 11 11"
	 enable-background="new 0 0 11 11" xml:space="preserve">
<path style="fill:#000000;fill-opacity:1" id="rect7645-6-5-0-0" inkscape:connector-curvature="0" d="M5.5,0L1.2,2.4h8.5L5.5,0z M1.8,3.7c-0.3,0-0.6,0.3-0.6,0.6v4.3
	v1.2L0,11h11L9.8,9.8V8.6V4.3c0-0.3-0.3-0.6-0.6-0.6H1.8z M3.1,4.9c0.3,0,0.6,0,0.9,0s0.6,0.6,0.6,0.6l0.9,1.8l0.9-1.8
	C6.6,5.2,6.7,4.9,7,4.9s0.6,0,0.9,0c0.3,0,0.6,0.3,0.6,0.6v3.1c0,0.3-0.3,0.6-0.6,0.6S7.3,8.9,7.3,8.6V6.1L6.4,7.9
	C6.3,8.2,6.1,8.6,5.5,8.6S4.7,8.2,4.6,7.9L3.7,6.1v2.4c0,0.3-0.3,0.6-0.6,0.6S2.4,8.9,2.4,8.6V7.9V5.5C2.4,5.2,2.7,4.9,3.1,4.9z"/>
</svg>
