<?xml version="1.0" encoding="UTF-8" standalone="no"?>
<!-- Generator: Adobe Illustrator 17.1.0, SVG Export Plug-In . SVG Version: 6.00 Build 0)  -->

<svg
   xmlns:dc="http://purl.org/dc/elements/1.1/"
   xmlns:cc="http://creativecommons.org/ns#"
   xmlns:rdf="http://www.w3.org/1999/02/22-rdf-syntax-ns#"
   xmlns:svg="http://www.w3.org/2000/svg"
   xmlns="http://www.w3.org/2000/svg"
   xmlns:sodipodi="http://sodipodi.sourceforge.net/DTD/sodipodi-0.dtd"
   xmlns:inkscape="http://www.inkscape.org/namespaces/inkscape"
   version="1.1"
   id="svg4764"
   x="0px"
   y="0px"
   viewBox="0 0 11 11"
   enable-background="new 0 0 11 11"
   xml:space="preserve"
   inkscape:version="0.91 r13725"
   sodipodi:docname="museum-11.svg"><metadata
     id="metadata54819"><rdf:RDF><cc:Work
         rdf:about=""><dc:format>image/svg+xml</dc:format><dc:type
           rdf:resource="http://purl.org/dc/dcmitype/StillImage" /><dc:title></dc:title></cc:Work></rdf:RDF></metadata><defs
     id="defs54817" /><sodipodi:namedview
     pagecolor="#ffffff"
     bordercolor="#666666"
     borderopacity="1"
     objecttolerance="10"
     gridtolerance="10"
     guidetolerance="10"
     inkscape:pageopacity="0"
     inkscape:pageshadow="2"
     inkscape:window-width="957"
     inkscape:window-height="714"
     id="namedview54815"
     showgrid="false"
     inkscape:snap-bbox="true"
     inkscape:object-paths="true"
     inkscape:snap-intersection-paths="true"
     inkscape:object-nodes="true"
     inkscape:snap-smooth-nodes="true"
     inkscape:zoom="1"
     inkscape:cx="5.0494467"
     inkscape:cy="6.6159423"
     inkscape:current-layer="svg4764"
     inkscape:bbox-paths="true"
     inkscape:bbox-nodes="true"
     inkscape:snap-bbox-edge-midpoints="true"
     inkscape:window-x="0"
     inkscape:window-y="0"
     inkscape:window-maximized="0"><inkscape:grid
       type="xygrid"
       id="grid55915"
       spacingx="0.5"
       spacingy="0.5"
       color="#ff0000"
       opacity="0.1254902"
       empspacing="2" /></sodipodi:namedview><path
     style="fill:#000000;fill-opacity:1"
     id="rect7645-6-5-0-0"
     inkscape:connector-curvature="0"
     d="M 5.5,0 1,3 10,3 Z m -4,4 C 0.99995994,4 1,4.5 1,4.5 l 0,4.1 0,1.4 0,1 9,0 0,-1 0,-1.4 0,-4.1 C 10,4.5 10,4 9.5,4 Z m 1.6,0.9 0.9,0 c 0.3,0 0.6,0.6 0.6,0.6 L 5.5,7.3 6.4,5.5 C 6.6,5.2 6.7,4.9 7,4.9 l 0.9,0 c 0.3,0 0.6,0.3 0.6,0.6 l 0,4.1 C 8.5,9.9 8.2,10.2 7.9,10.2 7.6,10.2 7.3,9.9 7.3,9.6 L 7.3,6.1 6.4,7.9 C 6.3,8.2 6.1,8.6 5.5,8.6 4.9,8.6 4.7,8.2 4.6,7.9 l -0.9,-1.8 0,3.4 c 0,0.3 -0.3,0.6 -0.6,0.6 -0.3,0 -0.7,-0.2 -0.7,-0.5 l 0,-1.7 0,-2.4 C 2.4,5.2 2.7,4.9 3.1,4.9 Z"
     sodipodi:nodetypes="ccccsccccccccsssscccssssssccsccssscss" /></svg>
