<?xml version="1.0" encoding="UTF-8" standalone="no"?>
<!-- Generator: Adobe Illustrator 17.1.0, SVG Export Plug-In . SVG Version: 6.00 Build 0)  -->

<svg
   xmlns:dc="http://purl.org/dc/elements/1.1/"
   xmlns:cc="http://creativecommons.org/ns#"
   xmlns:rdf="http://www.w3.org/1999/02/22-rdf-syntax-ns#"
   xmlns:svg="http://www.w3.org/2000/svg"
   xmlns="http://www.w3.org/2000/svg"
   xmlns:sodipodi="http://sodipodi.sourceforge.net/DTD/sodipodi-0.dtd"
   xmlns:inkscape="http://www.inkscape.org/namespaces/inkscape"
   version="1.1"
   id="svg4764"
   x="0px"
   y="0px"
   viewBox="0 0 11 11"
   enable-background="new 0 0 11 11"
   xml:space="preserve"
   inkscape:version="0.91 r13725"
   sodipodi:docname="prison-11.svg"><metadata
     id="metadata8"><rdf:RDF><cc:Work
         rdf:about=""><dc:format>image/svg+xml</dc:format><dc:type
           rdf:resource="http://purl.org/dc/dcmitype/StillImage" /><dc:title></dc:title></cc:Work></rdf:RDF></metadata><defs
     id="defs6" /><sodipodi:namedview
     pagecolor="#ffffff"
     bordercolor="#666666"
     borderopacity="1"
     objecttolerance="10"
     gridtolerance="10"
     guidetolerance="10"
     inkscape:pageopacity="0"
     inkscape:pageshadow="2"
     inkscape:window-width="915"
     inkscape:window-height="705"
     id="namedview4"
     showgrid="true"
     inkscape:snap-bbox="true"
     inkscape:bbox-paths="true"
     inkscape:bbox-nodes="true"
     inkscape:snap-bbox-edge-midpoints="true"
     inkscape:object-paths="true"
     inkscape:snap-intersection-paths="true"
     inkscape:object-nodes="true"
     inkscape:snap-smooth-nodes="true"
     inkscape:snap-bbox-midpoints="true"
     inkscape:zoom="32.334065"
     inkscape:cx="6.140865"
     inkscape:cy="5.5603576"
     inkscape:window-x="0"
     inkscape:window-y="0"
     inkscape:window-maximized="0"
     inkscape:current-layer="svg4764"><inkscape:grid
       type="xygrid"
       id="grid3336"
       spacingx="0.5"
       spacingy="0.5"
       color="#ff0000"
       opacity="0.1254902"
       empspacing="2" /></sodipodi:namedview><path
     style="opacity:1;fill:#000000;fill-opacity:1;stroke:none;stroke-width:1;stroke-linecap:round;stroke-linejoin:miter;stroke-miterlimit:4;stroke-dasharray:none;stroke-dashoffset:0;stroke-opacity:1"
     d="M 1.25 1 C 0.8345 1 0.5 1.3345 0.5 1.75 L 0.5 9.25 C 0.5 9.6655 0.8345 10 1.25 10 C 1.6655 10 2 9.6655 2 9.25 L 2 8.5 L 3.5 8.5 L 3.5 9.25 C 3.5 9.6655 3.8345 10 4.25 10 C 4.6655 10 5 9.6655 5 9.25 L 5 8.5 L 6.5 8.5 L 6.5 9.25 C 6.5 9.6655 6.8345 10 7.25 10 C 7.6655 10 8 9.6655 8 9.25 L 8 8.5 L 9.5 8.5 L 9.5 9.25 C 9.5 9.6655 9.8345 10 10.25 10 C 10.6655 10 11 9.6655 11 9.25 L 11 1.75 C 11 1.3345 10.6655 1 10.25 1 C 9.8345 1 9.5 1.3345 9.5 1.75 L 9.5 3 L 8 3 L 8 1.75 C 8 1.3345 7.6655 1 7.25 1 C 6.8345 1 6.5 1.3345 6.5 1.75 L 6.5 3 L 5 3 L 5 1.75 C 5 1.3345 4.6655 1 4.25 1 C 3.8345 1 3.5 1.3345 3.5 1.75 L 3.5 3 L 2 3 L 2 1.75 C 2 1.3345 1.6655 1 1.25 1 z M 2 4.5 L 3.5 4.5 L 3.5 7 L 2 7 L 2 4.5 z M 5 4.5 L 6.5 4.5 L 6.5 7 L 5 7 L 5 4.5 z M 8 4.5 L 9.5 4.5 L 9.5 7 L 8 7 L 8 4.5 z "
     id="rect3340" /></svg>
