<?xml version="1.0" encoding="UTF-8" standalone="no"?>
<!-- Generator: Adobe Illustrator 17.1.0, SVG Export Plug-In . SVG Version: 6.00 Build 0)  -->

<svg
   xmlns:dc="http://purl.org/dc/elements/1.1/"
   xmlns:cc="http://creativecommons.org/ns#"
   xmlns:rdf="http://www.w3.org/1999/02/22-rdf-syntax-ns#"
   xmlns:svg="http://www.w3.org/2000/svg"
   xmlns="http://www.w3.org/2000/svg"
   xmlns:sodipodi="http://sodipodi.sourceforge.net/DTD/sodipodi-0.dtd"
   xmlns:inkscape="http://www.inkscape.org/namespaces/inkscape"
   version="1.1"
   id="svg4619"
   x="0px"
   y="0px"
   viewBox="0 0 15 15"
   enable-background="new 0 0 15 15"
   xml:space="preserve"
   inkscape:version="0.91 r13725"
   sodipodi:docname="rocket-15.svg"><metadata
     id="metadata8"><rdf:RDF><cc:Work
         rdf:about=""><dc:format>image/svg+xml</dc:format><dc:type
           rdf:resource="http://purl.org/dc/dcmitype/StillImage" /><dc:title></dc:title></cc:Work></rdf:RDF></metadata><defs
     id="defs6" /><sodipodi:namedview
     pagecolor="#ffffff"
     bordercolor="#666666"
     borderopacity="1"
     objecttolerance="10"
     gridtolerance="10"
     guidetolerance="10"
     inkscape:pageopacity="0"
     inkscape:pageshadow="2"
     inkscape:window-width="980"
     inkscape:window-height="760"
     id="namedview4"
     showgrid="false"
     inkscape:snap-bbox="true"
     inkscape:bbox-paths="true"
     inkscape:bbox-nodes="true"
     inkscape:snap-bbox-edge-midpoints="true"
     inkscape:snap-bbox-midpoints="true"
     inkscape:object-paths="true"
     inkscape:snap-intersection-paths="true"
     inkscape:object-nodes="true"
     inkscape:snap-smooth-nodes="true"
     inkscape:zoom="44.500587"
     inkscape:cx="3.7635088"
     inkscape:cy="6.3560286"
     inkscape:window-x="-3"
     inkscape:window-y="0"
     inkscape:window-maximized="0"
     inkscape:current-layer="svg4619"><inkscape:grid
       type="xygrid"
       id="grid3336"
       spacingx="0.5"
       spacingy="0.5"
       empspacing="2"
       color="#ff0000"
       opacity="0.1254902" /></sodipodi:namedview><path
     style="fill:#000000;fill-opacity:1"
     id="path3088-77"
     inkscape:connector-curvature="0"
     d="M 13.852869,0 C 12.441015,-0.08824087 9.6173072,0.6176861 6.6171176,3.6178757 3.9698915,6.176861 3,9.5 3,9.5 3,10.382409 4.7058322,12 5.5,12 5.5,12 8.8231394,10.941868 11.382125,8.3828828 14.117592,5.6474158 14.647037,3.0001896 15,1.1471313 L 15,0 Z m -2.735467,3.8825983 c 0.617686,0.6176861 0.617686,1.5883357 0,2.1177809 -0.617686,0.6176861 -1.5883357,0.6176861 -2.1177809,0 -0.6176861,-0.6176861 -0.6176861,-1.5883356 0,-2.1177809 0.6176861,-0.5294452 1.5883359,-0.5294452 2.1177809,0 z M 1.5,5 0,8.5 2.5,8.5 4,5 Z m 9,5.5 -3.5,2 0,2.5 3.5,-2 z"
     sodipodi:nodetypes="ccccscccsccsscccccccccc" /></svg>