<?xml version="1.0" encoding="UTF-8" standalone="no"?>
<!-- Generator: Adobe Illustrator 17.1.0, SVG Export Plug-In . SVG Version: 6.00 Build 0)  -->

<svg
   xmlns:dc="http://purl.org/dc/elements/1.1/"
   xmlns:cc="http://creativecommons.org/ns#"
   xmlns:rdf="http://www.w3.org/1999/02/22-rdf-syntax-ns#"
   xmlns:svg="http://www.w3.org/2000/svg"
   xmlns="http://www.w3.org/2000/svg"
   xmlns:sodipodi="http://sodipodi.sourceforge.net/DTD/sodipodi-0.dtd"
   xmlns:inkscape="http://www.inkscape.org/namespaces/inkscape"
   version="1.1"
   id="svg4619"
   x="0px"
   y="0px"
   viewBox="0 0 15 15"
   enable-background="new 0 0 15 15"
   xml:space="preserve"
   inkscape:version="0.91+devel+osxmenu r12911"
   sodipodi:docname="rocket-15.svg"><metadata
     id="metadata8"><rdf:RDF><cc:Work
         rdf:about=""><dc:format>image/svg+xml</dc:format><dc:type
           rdf:resource="http://purl.org/dc/dcmitype/StillImage" /><dc:title /></cc:Work></rdf:RDF></metadata><defs
     id="defs6" /><sodipodi:namedview
     pagecolor="#ffffff"
     bordercolor="#666666"
     borderopacity="1"
     objecttolerance="10"
     gridtolerance="10"
     guidetolerance="10"
     inkscape:pageopacity="0"
     inkscape:pageshadow="2"
     inkscape:window-width="980"
     inkscape:window-height="760"
     id="namedview4"
     showgrid="false"
     inkscape:snap-bbox="true"
     inkscape:bbox-paths="true"
     inkscape:bbox-nodes="true"
     inkscape:snap-bbox-edge-midpoints="true"
     inkscape:snap-bbox-midpoints="true"
     inkscape:object-paths="true"
     inkscape:snap-intersection-paths="true"
     inkscape:object-nodes="true"
     inkscape:snap-smooth-nodes="true"
     inkscape:zoom="16"
     inkscape:cx="0.944177"
     inkscape:cy="10.108309"
     inkscape:window-x="-3"
     inkscape:window-y="0"
     inkscape:window-maximized="0"
     inkscape:current-layer="svg4619"><inkscape:grid
       type="xygrid"
       id="grid3336"
       spacingx="0.5"
       spacingy="0.5"
       empspacing="2"
       color="#ff0000"
       opacity="0.1254902" /></sodipodi:namedview><path
     style="fill:#000000;fill-opacity:1;stroke-width:1"
     d="M 12.554688 1 C 10.410605 1 7.5335873 2.4710378 5.6015625 5 L 4 5 C 2.8426678 5.0000003 2.1794297 5.8637948 1.7226562 6.7773438 L 1.1113281 8 L 2.5546875 8 L 4 8 L 5.5 9.5 L 7 11 L 7 12.445312 L 7 13.888672 L 8.2226562 13.277344 C 9.1362068 12.820574 10 12.157331 10 11 L 10 9.3984375 C 12.528962 7.4664127 14 4.5893935 14 2.4453125 L 14 1 L 12.554688 1 z M 10 4 A 0.99999982 0.99999982 0 0 1 11 5 A 0.99999982 0.99999982 0 0 1 10 6 A 0.99999982 0.99999982 0 0 1 9 5 A 0.99999982 0.99999982 0 0 1 10 4 z M 3.5 10 L 3 10.5 C 2.2777774 11.222222 2 13 2 13 C 2 13 3.6979854 12.802014 4.5 12 L 5 11.5 L 3.5 10 z "
     id="path7143" /><path
     sodipodi:nodetypes="cccccc"
     inkscape:connector-curvature="0"
     id="path7816"
     d="m 82.555555,0.9999998 c -2.888889,0 -7.111111,2.6666668 -8.555555,7 L 77,11 c 4.333333,-1.444445 7,-5.666667 7,-8.5555558 l 0,-1.4444444 z"
     style="fill:#000000;fill-opacity:1;stroke-width:1" /><path
     sodipodi:nodetypes="cccccssccc"
     inkscape:connector-curvature="0"
     id="path7818"
     d="M 76.777778,8.2222218 75.5,9.4999998 l 1.277778,1.6111112 0,1.444444 0,1.444444 1.444444,-0.722222 c 0.913546,-0.456772 1.444444,-1.009336 1.444444,-2.166666 l 0,-2.166667 -1.238498,0.9281682 z"
     style="fill:#000000;fill-opacity:1;stroke-width:1" /><circle
     r="0.99999982"
     cy="5"
     cx="80"
     id="circle7820"
     style="opacity:1;fill:#ffffff;fill-opacity:1;stroke:none;stroke-width:0.49999997;stroke-linecap:round;stroke-linejoin:round;stroke-miterlimit:4;stroke-dasharray:none;stroke-dashoffset:0;stroke-opacity:1;marker:none" /><path
     sodipodi:nodetypes="cscscc"
     inkscape:connector-curvature="0"
     id="path7822"
     d="M 73.5,9.9999998 73,10.5 c -0.722223,0.722222 -1,2.5 -1,2.5 0,0 1.697985,-0.197986 2.5,-1 L 75,11.5 Z"
     style="fill:#000000;fill-opacity:1;fill-rule:evenodd;stroke:none;stroke-width:1px;stroke-linecap:butt;stroke-linejoin:miter;stroke-opacity:1" /><path
     sodipodi:nodetypes="cccccssccc"
     inkscape:connector-curvature="0"
     style="fill:#000000;fill-opacity:1;stroke-width:1"
     d="M 76.777778,8.2222232 75.5,9.4999998 l -1.5,-1.5 -1.444443,0 -1.444446,0 0.61111,-1.2222218 C 72.178994,5.8642291 72.842668,5.0000001 74,4.9999998 l 2.055552,-6e-7 -0.928166,1.5718313 z"
     id="path7824" /></svg>