<?xml version="1.0" encoding="utf-8"?>
<!-- Generator: Adobe Illustrator 17.1.0, SVG Export Plug-In . SVG Version: 6.00 Build 0)  -->
<!DOCTYPE svg PUBLIC "-//W3C//DTD SVG 1.1//EN" "http://www.w3.org/Graphics/SVG/1.1/DTD/svg11.dtd">
<svg version="1.1"
	 id="svg4764" xmlns:cc="http://creativecommons.org/ns#" xmlns:svg="http://www.w3.org/2000/svg" xmlns:inkscape="http://www.inkscape.org/namespaces/inkscape" xmlns:rdf="http://www.w3.org/1999/02/22-rdf-syntax-ns#" xmlns:dc="http://purl.org/dc/elements/1.1/"
	 xmlns="http://www.w3.org/2000/svg" xmlns:xlink="http://www.w3.org/1999/xlink" x="0px" y="0px" viewBox="0 0 11 11"
	 enable-background="new 0 0 11 11" xml:space="preserve">
<path style="fill:#000000;fill-opacity:1" id="rect13131-6-6" inkscape:connector-curvature="0" d="M3.9,0.3c-0.6,0-1.1,0.6-1.2,1.2L2.4,3.4H1.2C0.9,3.4,0.6,3.7,0.6,4
	L0,10.1c0,0.3,0.3,0.6,0.6,0.6h9.8c0.3,0,0.6-0.3,0.6-0.6L10.4,4c0-0.3-0.3-0.6-0.6-0.6H8.5L8.3,1.5C8.3,0.9,7.7,0.3,7.1,0.3H3.9z
	 M3.9,0.9h3.2c0.3,0,0.6,0.3,0.6,0.6l0.2,1.8H3.1l0.2-1.8C3.3,1.2,3.6,0.9,3.9,0.9z"/>
</svg>
