<?xml version="1.0" encoding="UTF-8" standalone="no"?>
<!-- Generator: Adobe Illustrator 17.1.0, SVG Export Plug-In . SVG Version: 6.00 Build 0)  -->

<svg
   xmlns:dc="http://purl.org/dc/elements/1.1/"
   xmlns:cc="http://creativecommons.org/ns#"
   xmlns:rdf="http://www.w3.org/1999/02/22-rdf-syntax-ns#"
   xmlns:svg="http://www.w3.org/2000/svg"
   xmlns="http://www.w3.org/2000/svg"
   xmlns:sodipodi="http://sodipodi.sourceforge.net/DTD/sodipodi-0.dtd"
   xmlns:inkscape="http://www.inkscape.org/namespaces/inkscape"
   version="1.1"
   id="svg4619"
   x="0px"
   y="0px"
   viewBox="0 0 15 15"
   enable-background="new 0 0 15 15"
   xml:space="preserve"
   inkscape:version="0.91 r13725"
   sodipodi:docname="shop-15.svg"><metadata
     id="metadata8"><rdf:RDF><cc:Work
         rdf:about=""><dc:format>image/svg+xml</dc:format><dc:type
           rdf:resource="http://purl.org/dc/dcmitype/StillImage" /><dc:title></dc:title></cc:Work></rdf:RDF></metadata><defs
     id="defs6" /><sodipodi:namedview
     pagecolor="#ffffff"
     bordercolor="#666666"
     borderopacity="1"
     objecttolerance="10"
     gridtolerance="10"
     guidetolerance="10"
     inkscape:pageopacity="0"
     inkscape:pageshadow="2"
     inkscape:window-width="883"
     inkscape:window-height="658"
     id="namedview4"
     showgrid="false"
     inkscape:snap-bbox="true"
     inkscape:bbox-paths="true"
     inkscape:bbox-nodes="true"
     inkscape:snap-bbox-edge-midpoints="true"
     inkscape:snap-bbox-midpoints="true"
     inkscape:snap-nodes="true"
     inkscape:object-paths="true"
     inkscape:snap-intersection-paths="true"
     inkscape:object-nodes="true"
     inkscape:snap-smooth-nodes="true"
     inkscape:zoom="1"
     inkscape:cx="12.048387"
     inkscape:cy="7.8961179"
     inkscape:window-x="327"
     inkscape:window-y="11"
     inkscape:window-maximized="0"
     inkscape:current-layer="svg4619"><inkscape:grid
       type="xygrid"
       id="grid3336"
       spacingx="0.5"
       spacingy="0.5"
       empspacing="2"
       color="#ff0000"
       opacity="0.1254902" /></sodipodi:namedview><path
     style="fill:#000000;fill-opacity:1"
     id="rect13131-6-6"
     inkscape:connector-curvature="0"
     d="m 5.5727273,1.3522729 c -0.7227273,0 -1.325,0.7296766 -1.4454546,1.4593532 L 4,5 2.5,5 C 2.1386364,5 2,5.1351617 2,5.5 l -1,8 C 1,13.864838 1.1386364,14 1.5,14 l 12.022727,0 C 13.884091,14 14,13.864838 14,13.5 l -1,-8 C 13,5.1351617 12.861254,5.0088832 12.5,5 L 11,5 10.872727,2.8116261 c 0,-0.7296766 -0.722727,-1.4593532 -1.4454543,-1.4593532 z m 0.1204545,1.2045454 3.6136364,0 c 0.3613636,0 0.602273,0.2374344 0.602273,0.6022728 L 10,5 5,5 5.0909091,3.1590911 c 0,-0.3648384 0.2409091,-0.6022728 0.6022727,-0.6022728 z"
     sodipodi:nodetypes="sccsccssccsccssssccccs" /></svg>
