<?xml version="1.0" encoding="UTF-8" standalone="no"?>
<!-- Generator: Adobe Illustrator 17.1.0, SVG Export Plug-In . SVG Version: 6.00 Build 0)  -->

<svg
   xmlns:dc="http://purl.org/dc/elements/1.1/"
   xmlns:cc="http://creativecommons.org/ns#"
   xmlns:rdf="http://www.w3.org/1999/02/22-rdf-syntax-ns#"
   xmlns:svg="http://www.w3.org/2000/svg"
   xmlns="http://www.w3.org/2000/svg"
   xmlns:sodipodi="http://sodipodi.sourceforge.net/DTD/sodipodi-0.dtd"
   xmlns:inkscape="http://www.inkscape.org/namespaces/inkscape"
   version="1.1"
   id="svg4619"
   x="0px"
   y="0px"
   viewBox="0 0 15 15"
   enable-background="new 0 0 15 15"
   xml:space="preserve"
   inkscape:version="0.91 r13725"
   sodipodi:docname="theatre-15.svg"><metadata
     id="metadata8"><rdf:RDF><cc:Work
         rdf:about=""><dc:format>image/svg+xml</dc:format><dc:type
           rdf:resource="http://purl.org/dc/dcmitype/StillImage" /><dc:title></dc:title></cc:Work></rdf:RDF></metadata><defs
     id="defs6" /><sodipodi:namedview
     pagecolor="#ffffff"
     bordercolor="#666666"
     borderopacity="1"
     objecttolerance="10"
     gridtolerance="10"
     guidetolerance="10"
     inkscape:pageopacity="0"
     inkscape:pageshadow="2"
     inkscape:window-width="909"
     inkscape:window-height="763"
     id="namedview4"
     showgrid="false"
     inkscape:snap-bbox="true"
     inkscape:bbox-paths="true"
     inkscape:bbox-nodes="true"
     inkscape:snap-bbox-edge-midpoints="true"
     inkscape:snap-bbox-midpoints="false"
     inkscape:snap-intersection-paths="true"
     inkscape:object-paths="true"
     inkscape:object-nodes="true"
     inkscape:snap-smooth-nodes="true"
     inkscape:snap-global="true"
     inkscape:snap-nodes="true"
     inkscape:snap-others="false"
     inkscape:zoom="44.500587"
     inkscape:cx="7.3073954"
     inkscape:cy="7.558584"
     inkscape:window-x="16"
     inkscape:window-y="0"
     inkscape:window-maximized="0"
     inkscape:current-layer="svg4619"><inkscape:grid
       type="xygrid"
       id="grid3336"
       spacingx="0.5"
       spacingy="0.5"
       color="#ff0000"
       opacity="0.1254902"
       empspacing="2" /></sodipodi:namedview><path
     style="fill:#000000;fill-opacity:1"
     id="path6342-3"
     inkscape:connector-curvature="0"
     d="M 1.7864978,0.708186 C 1.3932489,0.708186 1,1.1014349 1,1.4946838 L 1,7.1574686 C 1,8.887764 1.3540084,11 4.5,11 L 5,11 5,8 2.5,9 C 2.5,9 2.5,6.5 5,6.5 L 5,5 C 5,4.2921519 5.0867924,3.6786947 5.5,3.2241702 5.8815049,2.8045184 6.5054851,1.9665806 8.1571307,2.7530786 l 1.0224472,0.5505484 0,-1.8089452 c 0,-0.3932489 -0.3932489,-0.7864978 -0.7864979,-0.7864978 -0.7078481,0 -2.2808438,1.0224472 -3.3032911,1.0224472 -1.0224472,0 -2.5167931,-1.0224472 -3.3032911,-1.0224452 z M 3,3 C 3.5505485,3 4,3.4494516 4,4 4,4.5505486 3.5505485,5 3,5 2.4494515,5 2,4.5505486 2,4 2,3.4494516 2.4494515,3 3,3 Z M 6.7864978,3.8653163 C 6.3932489,3.8653163 6,4.2585653 6,4.6518142 L 6,10 c 0,1.730295 0.9437974,4.089789 4.089789,4.089789 3.145991,0 4.089789,-2.359494 4.089789,-4.089789 l 0,-5.3481858 c 0,-0.3932489 -0.393249,-0.7864979 -0.786498,-0.7864979 C 12.685232,3.8653163 11.022447,5 10,5 8.9775527,5 7.5729957,3.8653163 6.7864978,3.8653163 Z m 1.2583967,2.0448945 c 0.5505484,0 1.0224472,0.4718987 1.0224472,1.0224473 0,0.5505484 -0.4718988,1.0224472 -1.0224472,1.0224472 -0.5505486,0 -1.0224473,-0.4718988 -1.0224473,-1.0224472 0,-0.5505486 0.4718987,-1.0224473 1.0224473,-1.0224473 z m 4.0897885,0 c 0.550549,0 1.022448,0.4718987 1.022448,1.0224473 0,0.5505484 -0.471899,1.0224472 -1.022448,1.0224472 -0.550548,0 -1.022447,-0.4718988 -1.022447,-1.0224472 0,-0.5505486 0.471899,-1.0224473 1.022447,-1.0224473 z M 7.5,10 l 2.5,0 2.5,0 c 0,0 -0.455106,2.5 -2.5,2.5 C 8.0337553,12.5 7.5,10 7.5,10 Z"
     sodipodi:nodetypes="csssccccssccssscssssssssssssssssssssssssscccs" /></svg>