<?xml version="1.0" encoding="UTF-8" standalone="no"?>
<!-- Generator: Adobe Illustrator 17.1.0, SVG Export Plug-In . SVG Version: 6.00 Build 0)  -->

<svg
   xmlns:dc="http://purl.org/dc/elements/1.1/"
   xmlns:cc="http://creativecommons.org/ns#"
   xmlns:rdf="http://www.w3.org/1999/02/22-rdf-syntax-ns#"
   xmlns:svg="http://www.w3.org/2000/svg"
   xmlns="http://www.w3.org/2000/svg"
   xmlns:sodipodi="http://sodipodi.sourceforge.net/DTD/sodipodi-0.dtd"
   xmlns:inkscape="http://www.inkscape.org/namespaces/inkscape"
   version="1.1"
   id="svg4619"
   x="0px"
   y="0px"
   viewBox="0 0 15 15"
   enable-background="new 0 0 15 15"
   xml:space="preserve"
   inkscape:version="0.91 r13725"
   sodipodi:docname="town-hall-15.svg"><metadata
     id="metadata8"><rdf:RDF><cc:Work
         rdf:about=""><dc:format>image/svg+xml</dc:format><dc:type
           rdf:resource="http://purl.org/dc/dcmitype/StillImage" /><dc:title></dc:title></cc:Work></rdf:RDF></metadata><defs
     id="defs6" /><sodipodi:namedview
     pagecolor="#ffffff"
     bordercolor="#666666"
     borderopacity="1"
     objecttolerance="10"
     gridtolerance="10"
     guidetolerance="10"
     inkscape:pageopacity="0"
     inkscape:pageshadow="2"
     inkscape:window-width="902"
     inkscape:window-height="679"
     id="namedview4"
     showgrid="false"
     inkscape:snap-bbox="true"
     inkscape:bbox-paths="true"
     inkscape:bbox-nodes="true"
     inkscape:snap-bbox-edge-midpoints="true"
     inkscape:snap-bbox-midpoints="true"
     inkscape:object-paths="true"
     inkscape:snap-intersection-paths="true"
     inkscape:object-nodes="true"
     inkscape:snap-smooth-nodes="true"
     inkscape:zoom="44.500587"
     inkscape:cx="10.013316"
     inkscape:cy="9.3625198"
     inkscape:window-x="19"
     inkscape:window-y="0"
     inkscape:window-maximized="0"
     inkscape:current-layer="svg4619"><inkscape:grid
       type="xygrid"
       id="grid3336"
       spacingx="0.5"
       spacingy="0.5"
       empspacing="2"
       color="#ff0000"
       opacity="0.1254902" /></sodipodi:namedview><path
     style="fill:#000000;fill-opacity:1"
     d="M 7.5644531 0 L 2 3 L 13 3 L 7.5644531 0 z M 3.1113281 4.4511719 C 1.8760621 4.4511719 1.8398437 5.7226562 1.8398438 5.7226562 L 1.8398438 11.193359 L 1.8398438 12.71875 L 0.5 14 L 14.5 14 L 13.287109 12.71875 L 13.287109 11.193359 L 13.287109 5.7226562 C 13.287109 5.7226562 13.287519 4.4511719 12.015625 4.4511719 L 3.1113281 4.4511719 z M 4.2578125 6 L 5 6.5 L 5 12 L 3.5 12 L 3.5 6.5 L 4.2578125 6 z M 7.7382812 6 L 8.5 6.5 L 8.5 12 L 7 12 L 7 6.5 L 7.7382812 6 z M 11.25 6 L 12 6.5 L 12 12 L 10.5 12 L 10.5 6.5 L 11.25 6 z "
     id="rect7645-6-5-0-0-5" /></svg>
