<?xml version="1.0" encoding="UTF-8" standalone="no"?> <!-- Created with Inkscape (http://www.inkscape.org/) -->  <svg xmlns:dc="http://purl.org/dc/elements/1.1/" xmlns:cc="http://creativecommons.org/ns#" xmlns:rdf="http://www.w3.org/1999/02/22-rdf-syntax-ns#" xmlns:svg="http://www.w3.org/2000/svg" xmlns="http://www.w3.org/2000/svg" xmlns:inkscape="http://www.inkscape.org/namespaces/inkscape" version="1.1" width="17" height="17" id="svg4619"> <defs id="defs4621" /> <metadata id="metadata4624"> <rdf:RDF> <cc:Work rdf:about=""> <dc:format>image/svg+xml</dc:format> <dc:type rdf:resource="http://purl.org/dc/dcmitype/StillImage" /> <dc:title /> </cc:Work> </rdf:RDF> </metadata>    <path d="m 113.32353,1292.3622 c -0.21182,0 -0.38235,0.1705 -0.38235,0.3824 0,0.2118 0.17053,0.3823 0.38235,0.3823 l 3.05882,0 -0.38235,2.2353 0,0.9411 -5,1.5294 0,1.5295 5,0 0,3.4118 -2,0.8235 0,0.7647 7,0 0,-0.7647 -2,-0.8235 0,-3.4118 5,0 0,-1.5295 -5,-1.5294 0,-0.9411 -0.38235,-2.2353 3.05882,0 c 0.21182,0 0.38235,-0.1705 0.38235,-0.3823 0,-0.2119 -0.17053,-0.3824 -0.38235,-0.3824 z" inkscape:connector-curvature="0" id="path6220" style="fill:#000000;fill-opacity:1;stroke:none;display:inline" />     </svg>