<?xml version="1.0" encoding="UTF-8" standalone="no"?>
<!-- Created with Inkscape (http://www.inkscape.org/) -->

<svg
   xmlns:dc="http://purl.org/dc/elements/1.1/"
   xmlns:cc="http://creativecommons.org/ns#"
   xmlns:rdf="http://www.w3.org/1999/02/22-rdf-syntax-ns#"
   xmlns:svg="http://www.w3.org/2000/svg"
   xmlns="http://www.w3.org/2000/svg"
   xmlns:sodipodi="http://sodipodi.sourceforge.net/DTD/sodipodi-0.dtd"
   xmlns:inkscape="http://www.inkscape.org/namespaces/inkscape"
   version="1.1"
   width="11"
   height="11"
   id="svg4764"
   inkscape:version="0.91+devel+osxmenu r12911"
   sodipodi:docname="airfield-11.svg"
   viewBox="0 0 11 11">
  <sodipodi:namedview
     pagecolor="#ffffff"
     bordercolor="#666666"
     borderopacity="1"
     objecttolerance="10"
     gridtolerance="10"
     guidetolerance="10"
     inkscape:pageopacity="0"
     inkscape:pageshadow="2"
     inkscape:window-width="1602"
     inkscape:window-height="829"
     id="namedview3340"
     inkscape:document-units="px"
     showgrid="false"
     inkscape:zoom="21.454545"
     inkscape:cx="-0.32627119"
     inkscape:cy="5.5"
     inkscape:window-x="0"
     inkscape:window-y="23"
     inkscape:window-maximized="0"
     inkscape:current-layer="svg4764" />
  <defs
     id="defs4766" />
  <metadata
     id="metadata4769">
    <rdf:RDF>
      <cc:Work
         rdf:about="">
        <dc:format>image/svg+xml</dc:format>
        <dc:type
           rdf:resource="http://purl.org/dc/dcmitype/StillImage" />
        <dc:title />
      </cc:Work>
    </rdf:RDF>
  </metadata>
  <path
     d="m 2.75,0.91666666 c -0.1692778,0 -0.3055556,0.13627774 -0.3055556,0.30555554 0,0.1692778 0.1362778,0.3055556 0.3055556,0.3055556 l 2.4444444,0 L 4.8888889,2.75 l 0,1.2222222 L 0,5.1944444 l 0,1.2222222 4.8888889,0 0,2.4444445 -1.2222222,0.6111111 0,0.6111108 3.6666666,0 0,-0.6111108 -1.2222222,-0.6111111 0,-2.4444445 4.8888889,0 0,-1.2222222 -4.8888889,-1.2222222 0,-1.2222222 -0.3055555,-1.2222222 2.4444444,0 c 0.1692778,0 0.3055556,-0.1362778 0.3055556,-0.3055556 0,-0.1692778 -0.1362778,-0.30555554 -0.3055556,-0.30555554 z"
     inkscape:connector-curvature="0"
     id="path6200"
     style="display:inline;fill:#000000;fill-opacity:1;stroke:none;stroke-width:1.22222221" />
</svg>
