<?xml version="1.0" encoding="UTF-8" standalone="no"?> <!-- Created with Inkscape (http://www.inkscape.org/) -->  <svg xmlns:dc="http://purl.org/dc/elements/1.1/" xmlns:cc="http://creativecommons.org/ns#" xmlns:rdf="http://www.w3.org/1999/02/22-rdf-syntax-ns#" xmlns:svg="http://www.w3.org/2000/svg" xmlns="http://www.w3.org/2000/svg" xmlns:inkscape="http://www.inkscape.org/namespaces/inkscape" version="1.1" width="17" height="17" id="svg4619"> <defs id="defs4621" /> <metadata id="metadata4624"> <rdf:RDF> <cc:Work rdf:about=""> <dc:format>image/svg+xml</dc:format> <dc:type rdf:resource="http://purl.org/dc/dcmitype/StillImage" /> <dc:title /> </cc:Work> </rdf:RDF> </metadata>   <path d="m 582.5,1076.3622 -0.5,0.5 0,3 -2,2.5 0,8 6,0 0,-8 -2,-2.5 0,-3 -0.5,-0.5 -1,0 z m 4.5,6 0,3 c 0,0 0,1 1,1 l 1,0 0,3 -1.5,0.5 -0.5,0.5 5,0 -0.5,-0.5 -1.5,-0.5 0,-3 1,0 c 1,0 1,-1 1,-1 l 0,-3 -5,0 z" inkscape:connector-curvature="0" id="path5792" style="color:#000000;fill:#000000;fill-opacity:1;fill-rule:nonzero;stroke:none;stroke-width:0.99999988;marker:none;visibility:visible;display:inline;overflow:visible;enable-background:accumulate" />    </svg>