<?xml version="1.0" encoding="UTF-8" standalone="no"?>
<!-- Created with Inkscape (http://www.inkscape.org/) -->

<svg
   xmlns:dc="http://purl.org/dc/elements/1.1/"
   xmlns:cc="http://creativecommons.org/ns#"
   xmlns:rdf="http://www.w3.org/1999/02/22-rdf-syntax-ns#"
   xmlns:svg="http://www.w3.org/2000/svg"
   xmlns="http://www.w3.org/2000/svg"
   xmlns:sodipodi="http://sodipodi.sourceforge.net/DTD/sodipodi-0.dtd"
   xmlns:inkscape="http://www.inkscape.org/namespaces/inkscape"
   version="1.1"
   width="11"
   height="11"
   id="svg4764"
   inkscape:version="0.91+devel+osxmenu r12911"
   sodipodi:docname="america-football-11.svg"
   viewBox="0 0 11 11">
  <sodipodi:namedview
     pagecolor="#ffffff"
     bordercolor="#666666"
     borderopacity="1"
     objecttolerance="10"
     gridtolerance="10"
     guidetolerance="10"
     inkscape:pageopacity="0"
     inkscape:pageshadow="2"
     inkscape:window-width="1549"
     inkscape:window-height="833"
     id="namedview3375"
     inkscape:document-units="px"
     showgrid="true"
     inkscape:zoom="21.454545"
     inkscape:cx="-0.32627119"
     inkscape:cy="5.5"
     inkscape:window-x="0"
     inkscape:window-y="23"
     inkscape:window-maximized="0"
     inkscape:current-layer="svg4764">
    <inkscape:grid
       type="xygrid"
       id="grid3385" />
  </sodipodi:namedview>
  <defs
     id="defs4766" />
  <metadata
     id="metadata4769">
    <rdf:RDF>
      <cc:Work
         rdf:about="">
        <dc:format>image/svg+xml</dc:format>
        <dc:type
           rdf:resource="http://purl.org/dc/dcmitype/StillImage" />
        <dc:title />
      </cc:Work>
    </rdf:RDF>
  </metadata>
  <path
     d="M 5.5000002,1.8333333 C 1.5277779,1.8333333 1.35e-7,5.5 1.35e-7,5.5 1.35e-7,5.5 1.5277779,9.1666667 5.5000002,9.1666667 9.4722224,9.1666667 11,5.5 11,5.5 11,5.5 9.4722224,1.8333333 5.5000002,1.8333333 Z m -1.2222223,3.0555556 1.2222223,0 0.611111,0 1.2222223,0 0.6111112,0 0.6111111,0 c 0.1692777,0 0.3055555,0.1362777 0.3055555,0.3055555 C 8.8611113,5.3637222 8.7248335,5.5 8.5555558,5.5 l -0.6111111,0 -0.6111112,0 -1.2222223,0 -0.611111,0 -1.2222223,0 -0.611111,0 -0.9166667,0 C 2.5807223,5.5 2.4444446,5.3637222 2.4444446,5.1944444 c 0,-0.1692778 0.1362777,-0.3055555 0.3055556,-0.3055555 l 0.9166667,0 z"
     inkscape:connector-curvature="0"
     id="path11300-6"
     style="color:#000000;display:inline;overflow:visible;visibility:visible;fill:#000000;fill-opacity:1;fill-rule:nonzero;stroke:none;stroke-width:2.44444442;marker:none;enable-background:accumulate" />
</svg>
