<?xml version="1.0" encoding="UTF-8" standalone="no"?> <!-- Created with Inkscape (http://www.inkscape.org/) -->  <svg xmlns:dc="http://purl.org/dc/elements/1.1/" xmlns:cc="http://creativecommons.org/ns#" xmlns:rdf="http://www.w3.org/1999/02/22-rdf-syntax-ns#" xmlns:svg="http://www.w3.org/2000/svg" xmlns="http://www.w3.org/2000/svg" xmlns:inkscape="http://www.inkscape.org/namespaces/inkscape" version="1.1" width="11" height="11" id="svg4764"> <defs id="defs4766" /> <metadata id="metadata4769"> <rdf:RDF> <cc:Work rdf:about=""> <dc:format>image/svg+xml</dc:format> <dc:type rdf:resource="http://purl.org/dc/dcmitype/StillImage" /> <dc:title /> </cc:Work> </rdf:RDF> </metadata>    <path d="m 0,0 c -3.25,0 -4.5,3 -4.5,3 0,0 1.25,3 4.5,3 3.25,0 4.5,-3 4.5,-3 0,0 -1.25,-3 -4.5,-3 z m -1,2.5 1,0 0.5,0 1,0 0.5,0 0.5,0 c 0.1385,0 0.25,0.1115 0.25,0.25 0,0.1385 -0.1115,0.25 -0.25,0.25 l -0.5,0 -0.5,0 -1,0 -0.5,0 -1,0 -0.5,0 -0.75,0 c -0.1385,0 -0.25,-0.1115 -0.25,-0.25 0,-0.1385 0.1115,-0.25 0.25,-0.25 l 0.75,0 z" inkscape:connector-curvature="0" id="path11300-6" style="color:#000000;fill:#000000;fill-opacity:1;fill-rule:nonzero;stroke:none;stroke-width:2;marker:none;visibility:visible;display:inline;overflow:visible;enable-background:accumulate" />    </svg>