<?xml version="1.0" encoding="UTF-8" standalone="no"?> <!-- Created with Inkscape (http://www.inkscape.org/) -->  <svg xmlns:dc="http://purl.org/dc/elements/1.1/" xmlns:cc="http://creativecommons.org/ns#" xmlns:rdf="http://www.w3.org/1999/02/22-rdf-syntax-ns#" xmlns:svg="http://www.w3.org/2000/svg" xmlns="http://www.w3.org/2000/svg" version="1.1" width="17" height="17" id="svg4619"> <defs id="defs4621" /> <metadata id="metadata4624"> <rdf:RDF> <cc:Work rdf:about=""> <dc:format>image/svg+xml</dc:format> <dc:type rdf:resource="http://purl.org/dc/dcmitype/StillImage" /> <dc:title></dc:title> </cc:Work> </rdf:RDF> </metadata>    <path d="m 470.5,243 c -3.88889,0 -6.5,3.44444 -6.5,5 0,1.5 0.99999,2.5 2.5,2.5 1.55556,0 3,0.33333 3,1.5 0,1.55556 1.44444,2.5 3,2.5 4.5,0 6.5,-2.77778 6.5,-5.5 0,-5.5 -4.634,-6 -8.5,-6 z m -1.5,1.5 c 0.55228,0 1,0.44772 1,1 0,0.55228 -0.44772,1 -1,1 -0.55228,0 -1,-0.44772 -1,-1 0,-0.55228 0.44772,-1 1,-1 z m 3,0 c 0.55227,0 1,0.44773 1,1 0,0.55227 -0.44773,1 -1,1 -0.55227,0 -1,-0.44773 -1,-1 0,-0.55227 0.44773,-1 1,-1 z m 3,1.5 c 0.54462,0 0.96875,0.45538 0.96875,1 0,0.54462 -0.42413,0.96875 -0.96875,0.96875 -0.54462,0 -1,-0.42413 -1,-0.96875 0,-0.54462 0.45538,-1 1,-1 z m -8,1 c 0.55229,0 1,0.44771 1,1 0,0.55229 -0.44771,1 -1,1 -0.55229,0 -1,-0.44771 -1,-1 0,-0.55229 0.44771,-1 1,-1 z m 5.25,3.5 c 0.69035,0 1.25,0.55965 1.25,1.25 0,0.69035 -0.55965,1.25 -1.25,1.25 -0.69035,0 -1.25,-0.55965 -1.25,-1.25 0,-0.69035 0.55965,-1.25 1.25,-1.25 z" transform="matrix(1.2857143,0,0,1.2857143,-275.57143,981.93363)" id="path6511-1" style="color:#000000;fill:#000000;fill-opacity:1;stroke:none;stroke-width:0.9999997;marker:none;visibility:visible;display:inline;overflow:visible;enable-background:accumulate" />     </svg>