<?xml version="1.0" encoding="UTF-8" standalone="no"?>
<!-- Created with Inkscape (http://www.inkscape.org/) -->

<svg
   xmlns:dc="http://purl.org/dc/elements/1.1/"
   xmlns:cc="http://creativecommons.org/ns#"
   xmlns:rdf="http://www.w3.org/1999/02/22-rdf-syntax-ns#"
   xmlns:svg="http://www.w3.org/2000/svg"
   xmlns="http://www.w3.org/2000/svg"
   xmlns:sodipodi="http://sodipodi.sourceforge.net/DTD/sodipodi-0.dtd"
   xmlns:inkscape="http://www.inkscape.org/namespaces/inkscape"
   version="1.1"
   width="11"
   height="11"
   id="svg4764"
   inkscape:version="0.91+devel+osxmenu r12911"
   sodipodi:docname="art-gallery-11.svg"
   viewBox="0 0 11 11">
  <sodipodi:namedview
     pagecolor="#ffffff"
     bordercolor="#666666"
     borderopacity="1"
     objecttolerance="10"
     gridtolerance="10"
     guidetolerance="10"
     inkscape:pageopacity="0"
     inkscape:pageshadow="2"
     inkscape:window-width="1738"
     inkscape:window-height="861"
     id="namedview3340"
     inkscape:document-units="px"
     showgrid="false"
     inkscape:zoom="21.454545"
     inkscape:cx="-0.46610169"
     inkscape:cy="5.5"
     inkscape:window-x="0"
     inkscape:window-y="23"
     inkscape:window-maximized="0"
     inkscape:current-layer="svg4764" />
  <defs
     id="defs4766" />
  <metadata
     id="metadata4769">
    <rdf:RDF>
      <cc:Work
         rdf:about="">
        <dc:format>image/svg+xml</dc:format>
        <dc:type
           rdf:resource="http://purl.org/dc/dcmitype/StillImage" />
        <dc:title />
      </cc:Work>
    </rdf:RDF>
  </metadata>
  <path
     d="M 4.8888889,0.61111111 C 1.8333333,0.61111111 0,2.4444445 0,4.2777778 0,5.5 0.6111111,6.7222222 2.4444444,6.7222222 c 1.2222223,0 1.2222223,0.3055556 1.2222223,1.2222223 0,1.8333333 1.8333333,2.4444445 3.0555555,2.4444445 C 9.777778,10.388889 11,7.6388889 11,5.5 11,1.2222222 7.9264533,0.61111111 4.8888889,0.61111111 Z M 4.125,1.8333333 c 0.4218744,0 0.7638889,0.3419778 0.7638889,0.7638889 0,0.4219111 -0.3420145,0.7638889 -0.7638889,0.7638889 -0.4218744,0 -0.7638889,-0.3419778 -0.7638889,-0.7638889 0,-0.4219111 0.3420145,-0.7638889 0.7638889,-0.7638889 z m 2.4444444,0 c 0.4218745,0 0.7638889,0.3419778 0.7638889,0.7638889 0,0.4219111 -0.3420144,0.7638889 -0.7638889,0.7638889 -0.4218744,0 -0.7638888,-0.3419778 -0.7638888,-0.7638889 0,-0.4219111 0.3420144,-0.7638889 0.7638888,-0.7638889 z M 1.9861111,2.75 C 2.4079856,2.75 2.75,3.0919778 2.75,3.5138889 2.75,3.9358 2.4079856,4.2777778 1.9861111,4.2777778 1.5642367,4.2777778 1.2222222,3.9358 1.2222222,3.5138889 1.2222222,3.0919778 1.5642367,2.75 1.9861111,2.75 Z M 9.013889,3.0555556 c 0.421874,0 0.763889,0.3419777 0.763889,0.7638889 0,0.4219111 -0.342015,0.7638888 -0.763889,0.7638888 C 8.5920144,4.5833333 8.25,4.2413556 8.25,3.8194445 8.25,3.3975333 8.5920144,3.0555556 9.013889,3.0555556 Z M 6.1111111,6.1111111 c 0.6750089,0 1.2222222,0.5471889 1.2222222,1.2222222 0,0.6750334 -0.5472133,1.2222223 -1.2222222,1.2222223 -0.6750089,0 -1.2222222,-0.5471889 -1.2222222,-1.2222223 0,-0.6750333 0.5472133,-1.2222222 1.2222222,-1.2222222 z"
     inkscape:connector-curvature="0"
     id="path6558"
     style="color:#000000;display:inline;overflow:visible;visibility:visible;fill:#000000;fill-opacity:1;stroke:none;stroke-width:1.22222185;marker:none;enable-background:accumulate" />
</svg>
