<?xml version="1.0" encoding="UTF-8" standalone="no"?> <!-- Created with Inkscape (http://www.inkscape.org/) -->  <svg xmlns:dc="http://purl.org/dc/elements/1.1/" xmlns:cc="http://creativecommons.org/ns#" xmlns:rdf="http://www.w3.org/1999/02/22-rdf-syntax-ns#" xmlns:svg="http://www.w3.org/2000/svg" xmlns="http://www.w3.org/2000/svg" xmlns:inkscape="http://www.inkscape.org/namespaces/inkscape" version="1.1" width="12" height="11" id="svg4764"> <defs id="defs4766" /> <metadata id="metadata4769"> <rdf:RDF> <cc:Work rdf:about=""> <dc:format>image/svg+xml</dc:format> <dc:type rdf:resource="http://purl.org/dc/dcmitype/StillImage" /> <dc:title /> </cc:Work> </rdf:RDF> </metadata>   <path d="m 366,1292.3622 c -2.5,0 -4,1.5 -4,3 0,1 0.5,2 2,2 1,0 1,0.25 1,1 0,1.5 1.5,2 2.5,2 2.5,0 3.5,-2.25 3.5,-4 0,-3.5 -2.51472,-4 -5,-4 z m -0.625,1 c 0.34517,0 0.625,0.2798 0.625,0.625 0,0.3452 -0.27983,0.625 -0.625,0.625 -0.34517,0 -0.625,-0.2798 -0.625,-0.625 0,-0.3452 0.27983,-0.625 0.625,-0.625 z m 2,0 c 0.34517,0 0.625,0.2798 0.625,0.625 0,0.3452 -0.27983,0.625 -0.625,0.625 -0.34517,0 -0.625,-0.2798 -0.625,-0.625 0,-0.3452 0.27983,-0.625 0.625,-0.625 z m -3.75,0.75 c 0.34517,0 0.625,0.2798 0.625,0.625 0,0.3452 -0.27983,0.625 -0.625,0.625 -0.34517,0 -0.625,-0.2798 -0.625,-0.625 0,-0.3452 0.27983,-0.625 0.625,-0.625 z m 5.75,0.25 c 0.34517,0 0.625,0.2798 0.625,0.625 0,0.3452 -0.27983,0.625 -0.625,0.625 -0.34517,0 -0.625,-0.2798 -0.625,-0.625 0,-0.3452 0.27983,-0.625 0.625,-0.625 z m -2.375,2.5 c 0.55228,0 1,0.4477 1,1 0,0.5523 -0.44772,1 -1,1 -0.55228,0 -1,-0.4477 -1,-1 0,-0.5523 0.44772,-1 1,-1 z" inkscape:connector-curvature="0" id="path6558" style="color:#000000;fill:#000000;fill-opacity:1;stroke:none;stroke-width:0.9999997;marker:none;visibility:visible;display:inline;overflow:visible;enable-background:accumulate" />   </svg>