<?xml version="1.0" encoding="UTF-8" standalone="no"?> <!-- Created with Inkscape (http://www.inkscape.org/) -->  <svg xmlns:dc="http://purl.org/dc/elements/1.1/" xmlns:cc="http://creativecommons.org/ns#" xmlns:rdf="http://www.w3.org/1999/02/22-rdf-syntax-ns#" xmlns:svg="http://www.w3.org/2000/svg" xmlns="http://www.w3.org/2000/svg" xmlns:inkscape="http://www.inkscape.org/namespaces/inkscape" version="1.1" width="17" height="17" id="svg4619"> <defs id="defs4621" /> <metadata id="metadata4624"> <rdf:RDF> <cc:Work rdf:about=""> <dc:format>image/svg+xml</dc:format> <dc:type rdf:resource="http://purl.org/dc/dcmitype/StillImage" /> <dc:title /> </cc:Work> </rdf:RDF> </metadata>   <path d="m 0,0 c -0.9999997,0 -1.5,0.5 -1.5,1.5 l 0.9999997,4 0.5000003,0.5 0.9999995,0 0.500001,-0.5 0.999999,-4 c 0,-1 -0.5,-1.5 -1.5,-1.5 z m -2.5000005,1.5 -1.9999997,1 1.4999997,3.5 1.0000002,0 0.4999996,-0.5 z m 6,0 -1,4 0.5,0.5 1,0 1.5,-3.5 z m -8.5,2 -0.5,0.5 -0.5,1.5 0,1.5 0.5,0 1.5,-1 z m 11,0 -1,2.5 1,1 1,0 0,-1.5 -0.5,-1.5 z" inkscape:connector-curvature="0" id="path5230" style="color:#000000;fill:#000000;fill-opacity:1;fill-rule:nonzero;stroke:none;stroke-width:0;marker:none;visibility:visible;display:inline;overflow:visible;enable-background:accumulate" />    </svg>