<?xml version="1.0" encoding="UTF-8" standalone="no"?>
<!-- Created with Inkscape (http://www.inkscape.org/) -->

<svg
   xmlns:dc="http://purl.org/dc/elements/1.1/"
   xmlns:cc="http://creativecommons.org/ns#"
   xmlns:rdf="http://www.w3.org/1999/02/22-rdf-syntax-ns#"
   xmlns:svg="http://www.w3.org/2000/svg"
   xmlns="http://www.w3.org/2000/svg"
   xmlns:sodipodi="http://sodipodi.sourceforge.net/DTD/sodipodi-0.dtd"
   xmlns:inkscape="http://www.inkscape.org/namespaces/inkscape"
   version="1.1"
   width="17"
   height="17"
   id="svg4619"
   inkscape:version="0.91+devel+osxmenu r12911"
   sodipodi:docname="bakery-17.svg"
   viewBox="0 0 17 17">
  <sodipodi:namedview
     pagecolor="#ffffff"
     bordercolor="#666666"
     borderopacity="1"
     objecttolerance="10"
     gridtolerance="10"
     guidetolerance="10"
     inkscape:pageopacity="0"
     inkscape:pageshadow="2"
     inkscape:window-width="1564"
     inkscape:window-height="739"
     id="namedview3358"
     inkscape:document-units="px"
     showgrid="true"
     inkscape:snap-bbox="true"
     inkscape:object-paths="true"
     inkscape:snap-intersection-paths="true"
     inkscape:bbox-paths="true"
     inkscape:bbox-nodes="true"
     inkscape:object-nodes="true"
     inkscape:zoom="39.265224"
     inkscape:cx="3.7781598"
     inkscape:cy="10.623592"
     inkscape:window-x="0"
     inkscape:window-y="23"
     inkscape:window-maximized="0"
     inkscape:current-layer="svg4619">
    <inkscape:grid
       type="xygrid"
       id="grid3438" />
  </sodipodi:namedview>
  <defs
     id="defs4621" />
  <metadata
     id="metadata4624">
    <rdf:RDF>
      <cc:Work
         rdf:about="">
        <dc:format>image/svg+xml</dc:format>
        <dc:type
           rdf:resource="http://purl.org/dc/dcmitype/StillImage" />
        <dc:title />
      </cc:Work>
    </rdf:RDF>
  </metadata>
  <path
     d="M 7.8461545,2.8461538 C 6.5384625,2.8461538 5.884616,3.5 5.884616,4.8076923 l 1.307692,5.2307697 0.6538465,0.653846 1.3076917,0 0.653847,-0.653846 1.3076918,-5.2307697 C 11.115385,3.5 10.461539,2.8461538 9.1538462,2.8461538 Z M 4.576923,4.8076923 1.9615389,6.1153846 3.923077,10.692308 l 1.3076924,0 0.6538457,-0.653846 z m 7.846154,0 -1.307692,5.2307697 0.653846,0.653846 1.307692,0 1.961539,-4.5769234 z M 1.3076924,7.423077 0.6538462,8.076923 0,10.038462 0,12 0.6538462,12 2.6153846,10.692308 Z m 14.3846156,0 -1.307692,3.269231 L 15.692308,12 l 1.307693,0 0,-1.961538 -0.653847,-1.961539 z"
     inkscape:connector-curvature="0"
     id="path5230"
     style="color:#000000;display:inline;overflow:visible;visibility:visible;fill:#000000;fill-opacity:1;fill-rule:nonzero;stroke:none;stroke-width:0;marker:none;enable-background:accumulate" />
</svg>
