<?xml version="1.0" encoding="UTF-8" standalone="no"?>
<!-- Created with Inkscape (http://www.inkscape.org/) -->

<svg
   xmlns:dc="http://purl.org/dc/elements/1.1/"
   xmlns:cc="http://creativecommons.org/ns#"
   xmlns:rdf="http://www.w3.org/1999/02/22-rdf-syntax-ns#"
   xmlns:svg="http://www.w3.org/2000/svg"
   xmlns="http://www.w3.org/2000/svg"
   xmlns:sodipodi="http://sodipodi.sourceforge.net/DTD/sodipodi-0.dtd"
   xmlns:inkscape="http://www.inkscape.org/namespaces/inkscape"
   version="1.1"
   width="17"
   height="17"
   id="svg4619"
   inkscape:version="0.91+devel+osxmenu r12911"
   sodipodi:docname="baseball-17.svg"
   viewBox="0 0 17 17">
  <sodipodi:namedview
     pagecolor="#ffffff"
     bordercolor="#666666"
     borderopacity="1"
     objecttolerance="10"
     gridtolerance="10"
     guidetolerance="10"
     inkscape:pageopacity="0"
     inkscape:pageshadow="2"
     inkscape:window-width="1324"
     inkscape:window-height="873"
     id="namedview3340"
     inkscape:document-units="px"
     showgrid="true"
     inkscape:snap-bbox="true"
     inkscape:snap-intersection-paths="true"
     inkscape:object-paths="true"
     inkscape:object-nodes="true"
     inkscape:snap-smooth-nodes="true"
     inkscape:zoom="27.764706"
     inkscape:cx="13.571819"
     inkscape:cy="6.5348205"
     inkscape:window-x="0"
     inkscape:window-y="23"
     inkscape:window-maximized="0"
     inkscape:current-layer="svg4619">
    <inkscape:grid
       type="xygrid"
       id="grid3342" />
  </sodipodi:namedview>
  <defs
     id="defs4621" />
  <metadata
     id="metadata4624">
    <rdf:RDF>
      <cc:Work
         rdf:about="">
        <dc:format>image/svg+xml</dc:format>
        <dc:type
           rdf:resource="http://purl.org/dc/dcmitype/StillImage" />
        <dc:title />
      </cc:Work>
    </rdf:RDF>
  </metadata>
  <path
     d="m 2.6153846,0 c 0,0 -1.3076923,0 -1.9615384,0.6538462 C 0,1.3076923 0,2.6153846 0,2.6153846 3.2692308,7.1923077 9.2580954,10.646969 10.461539,11.769231 l 3.391826,3.1467 -0.776442,0.776377 0,1.307692 1.307692,0 1.307693,-1.307692 L 17,14.384615 l 0,-1.307692 -1.307692,0 -0.776443,0.776508 -3.146634,-3.391892 C 8.6803177,7.1494154 7.1923077,3.2692308 2.6153846,0 Z m 2.2884616,11.769231 c -0.9027785,0 -1.6346154,0.731784 -1.6346154,1.634615 0,0.902831 0.7318369,1.634616 1.6346154,1.634616 0.9027784,0 1.6346153,-0.731785 1.6346153,-1.634616 0,-0.902831 -0.7318369,-1.634615 -1.6346153,-1.634615 z"
     inkscape:connector-curvature="0"
     id="path20837"
     style="color:#000000;display:inline;overflow:visible;visibility:visible;fill:#000000;fill-opacity:1;fill-rule:nonzero;stroke:none;stroke-width:2.61538458;marker:none;enable-background:accumulate"
     sodipodi:nodetypes="cscccccccccccccsssss" />
</svg>
