<?xml version="1.0" encoding="UTF-8" standalone="no"?> <!-- Created with Inkscape (http://www.inkscape.org/) -->  <svg xmlns:dc="http://purl.org/dc/elements/1.1/" xmlns:cc="http://creativecommons.org/ns#" xmlns:rdf="http://www.w3.org/1999/02/22-rdf-syntax-ns#" xmlns:svg="http://www.w3.org/2000/svg" xmlns="http://www.w3.org/2000/svg" xmlns:inkscape="http://www.inkscape.org/namespaces/inkscape" version="1.1" width="11" height="11" id="svg4764"> <defs id="defs4766" /> <metadata id="metadata4769"> <rdf:RDF> <cc:Work rdf:about=""> <dc:format>image/svg+xml</dc:format> <dc:type rdf:resource="http://purl.org/dc/dcmitype/StillImage" /> <dc:title /> </cc:Work> </rdf:RDF> </metadata>    <path d="m 0,0 -2,2 0,4.5 c 0,0.25 0.25,0.5 0.5,0.5 l 1.5,0 1,1 1,1 1,0 1,-1 1,-1 1.5,0 c 0.25,0 0.5,-0.25 0.5,-0.5 l 0,-4.5 -2,-2 -5,0 z m 0,2 5,0 0,3 -5,0 0,-3 z m 0.6875,0.6875 0,1.625 3.625,0 0,-1.625 -3.625,0 z m 0.3125,3.3125 1,0 0,1 1,0 0,-1 1,0 0,1 -1,1 -1,0 -1,-1 0,-1 z" inkscape:connector-curvature="0" id="rect5769-7-3" style="color:#000000;fill:#000000;fill-opacity:1;fill-rule:nonzero;stroke:none;stroke-width:1;marker:none;visibility:visible;display:inline;overflow:visible;enable-background:accumulate" />    </svg>