<?xml version="1.0" encoding="UTF-8" standalone="no"?>
<!-- Created with Inkscape (http://www.inkscape.org/) -->

<svg
   xmlns:dc="http://purl.org/dc/elements/1.1/"
   xmlns:cc="http://creativecommons.org/ns#"
   xmlns:rdf="http://www.w3.org/1999/02/22-rdf-syntax-ns#"
   xmlns:svg="http://www.w3.org/2000/svg"
   xmlns="http://www.w3.org/2000/svg"
   xmlns:sodipodi="http://sodipodi.sourceforge.net/DTD/sodipodi-0.dtd"
   xmlns:inkscape="http://www.inkscape.org/namespaces/inkscape"
   version="1.1"
   width="17"
   height="17"
   id="svg4619"
   inkscape:version="0.91+devel+osxmenu r12911"
   sodipodi:docname="bicycle-17.svg"
   viewBox="0 0 17 17">
  <sodipodi:namedview
     pagecolor="#ffffff"
     bordercolor="#666666"
     borderopacity="1"
     objecttolerance="10"
     gridtolerance="10"
     guidetolerance="10"
     inkscape:pageopacity="0"
     inkscape:pageshadow="2"
     inkscape:window-width="1662"
     inkscape:window-height="856"
     id="namedview3364"
     inkscape:document-units="px"
     showgrid="true"
     inkscape:snap-bbox="true"
     inkscape:object-paths="true"
     inkscape:object-nodes="true"
     inkscape:snap-intersection-paths="true"
     inkscape:snap-smooth-nodes="true"
     inkscape:zoom="26.162951"
     inkscape:cx="2.6324414"
     inkscape:cy="8.8854307"
     inkscape:window-x="0"
     inkscape:window-y="23"
     inkscape:window-maximized="0"
     inkscape:current-layer="svg4619">
    <inkscape:grid
       type="xygrid"
       id="grid3368" />
  </sodipodi:namedview>
  <defs
     id="defs4621" />
  <metadata
     id="metadata4624">
    <rdf:RDF>
      <cc:Work
         rdf:about="">
        <dc:format>image/svg+xml</dc:format>
        <dc:type
           rdf:resource="http://purl.org/dc/dcmitype/StillImage" />
        <dc:title />
      </cc:Work>
    </rdf:RDF>
  </metadata>
  <path
     d="m 11.466666,2.3866664 0,1.1466666 1.146668,0.5733334 0,1.72 -5.733334,0 0,-1.1466667 1.1466666,0 0,-0.5733333 L 6.88,3.533333 l -2.2933334,0 0,1.1466667 1.1466667,0 0,1.1466667 L 4.3,8.263333 c 0,0 -0.5552274,-0.1433333 -0.86,-0.1433333 C 1.5401338,8.1199997 0,9.6601335 0,11.56 0,13.459865 1.5401338,15 3.44,15 5.3398661,15 6.88,13.459865 6.88,11.56 l 1.1466666,0 2.8666674,-4.586667 1.72,0 0.609166,1.2183334 C 11.585255,8.4559386 10.32,9.8481754 10.32,11.56 c 0,1.899854 1.540146,3.44 3.44,3.44 1.899854,0 3.44,-1.540146 3.44,-3.44 0,-1.6505009 -1.172535,-3.0347798 -2.723334,-3.3683336 L 13.76,6.3999997 13.76,3.533333 13.186666,2.9599997 Z m -5.1599994,4.5866666 3.44,0 -2.2933333,3.44 -0.7883333,0 C 6.4218264,9.7354351 5.9915282,9.1340199 5.4108333,8.7291663 Z M 3.44,9.553333 c 1.1082534,0 2.0066666,0.898413 2.0066666,2.006667 0,1.108253 -0.8984132,2.006666 -2.0066666,2.006666 -1.1082534,0 -2.0066666,-0.898413 -2.0066666,-2.006666 0,-1.108254 0.8984132,-2.006667 2.0066666,-2.006667 z m 10.32,0 c 1.108254,0 2.006666,0.898413 2.006666,2.006667 0,1.108253 -0.898412,2.006666 -2.006666,2.006666 -1.108254,0 -2.006666,-0.898413 -2.006666,-2.006666 0,-1.108254 0.898412,-2.006667 2.006666,-2.006667 z"
     inkscape:connector-curvature="0"
     id="path5430"
     style="color:#000000;display:inline;overflow:visible;visibility:visible;fill:#000000;fill-opacity:1;fill-rule:nonzero;stroke:none;stroke-width:1.14666665;marker:none;enable-background:accumulate"
     sodipodi:nodetypes="ccccccccccccccssscccccssscccccccccccscssssssss" />
</svg>
