<?xml version="1.0" encoding="UTF-8" standalone="no"?>
<!-- Created with Inkscape (http://www.inkscape.org/) -->

<svg
   xmlns:dc="http://purl.org/dc/elements/1.1/"
   xmlns:cc="http://creativecommons.org/ns#"
   xmlns:rdf="http://www.w3.org/1999/02/22-rdf-syntax-ns#"
   xmlns:svg="http://www.w3.org/2000/svg"
   xmlns="http://www.w3.org/2000/svg"
   xmlns:sodipodi="http://sodipodi.sourceforge.net/DTD/sodipodi-0.dtd"
   xmlns:inkscape="http://www.inkscape.org/namespaces/inkscape"
   version="1.1"
   width="17"
   height="17"
   id="svg4619"
   inkscape:version="0.91+devel+osxmenu r12911"
   sodipodi:docname="bus-17.svg"
   viewBox="0 0 17 17">
  <sodipodi:namedview
     pagecolor="#ffffff"
     bordercolor="#666666"
     borderopacity="1"
     objecttolerance="10"
     gridtolerance="10"
     guidetolerance="10"
     inkscape:pageopacity="0"
     inkscape:pageshadow="2"
     inkscape:window-width="640"
     inkscape:window-height="480"
     id="namedview3352"
     inkscape:document-units="px"
     showgrid="false"
     inkscape:zoom="35.941176"
     inkscape:cx="5.0220949"
     inkscape:cy="8.2495908"
     inkscape:current-layer="svg4619" />
  <defs
     id="defs4621" />
  <metadata
     id="metadata4624">
    <rdf:RDF>
      <cc:Work
         rdf:about="">
        <dc:format>image/svg+xml</dc:format>
        <dc:type
           rdf:resource="http://purl.org/dc/dcmitype/StillImage" />
        <dc:title />
      </cc:Work>
    </rdf:RDF>
  </metadata>
  <path
     d="m 4.5769231,0 0,1.3076923 -1.9615385,0 c -0.6538461,0 -1.3076923,0.6538462 -1.3076923,1.3076923 l 0,13.0769234 1.3076923,0 0,1.307692 2.6153846,0 0,-1.307692 6.5384618,0 0,1.307692 2.615385,0 0,-1.307692 1.307692,0 0,-13.0769234 c 0,-0.6538461 -0.653847,-1.3076923 -1.307692,-1.3076923 l -1.961538,0 0,-1.3076923 -7.8461549,0 z m -0.6538462,2.6153846 9.1538471,0 0,5.2307692 -9.1538472,0 0,-5.2307692 z M 4.903846,11.115385 c 0.5416594,0 0.9807694,0.43911 0.9807694,0.980769 0,0.541659 -0.43911,0.980769 -0.9807694,0.980769 -0.5416591,0 -0.9807691,-0.43911 -0.9807691,-0.980769 0,-0.541659 0.43911,-0.980769 0.9807691,-0.980769 z m 7.192308,0 c 0.541659,0 0.980769,0.43911 0.980769,0.980769 0,0.541659 -0.439109,0.980769 -0.980769,0.980769 -0.54166,0 -0.98077,-0.43911 -0.98077,-0.980769 0,-0.541659 0.43911,-0.980769 0.98077,-0.980769 z"
     id="path8522-6-8-58"
     style="color:#000000;display:inline;overflow:visible;visibility:visible;fill:#000000;fill-opacity:1;fill-rule:nonzero;stroke:none;stroke-width:2.61538458;marker:none;enable-background:accumulate"
     inkscape:connector-curvature="0" />
</svg>
