<?xml version="1.0" encoding="UTF-8" standalone="no"?>
<!-- Created with Inkscape (http://www.inkscape.org/) -->

<svg
   xmlns:dc="http://purl.org/dc/elements/1.1/"
   xmlns:cc="http://creativecommons.org/ns#"
   xmlns:rdf="http://www.w3.org/1999/02/22-rdf-syntax-ns#"
   xmlns:svg="http://www.w3.org/2000/svg"
   xmlns="http://www.w3.org/2000/svg"
   xmlns:sodipodi="http://sodipodi.sourceforge.net/DTD/sodipodi-0.dtd"
   xmlns:inkscape="http://www.inkscape.org/namespaces/inkscape"
   version="1.1"
   width="11"
   height="11"
   id="svg4764"
   inkscape:version="0.91+devel+osxmenu r12911"
   sodipodi:docname="bus-11.svg"
   viewBox="0 0 11 11">
  <sodipodi:namedview
     pagecolor="#ffffff"
     bordercolor="#666666"
     borderopacity="1"
     objecttolerance="10"
     gridtolerance="10"
     guidetolerance="10"
     inkscape:pageopacity="0"
     inkscape:pageshadow="2"
     inkscape:window-width="640"
     inkscape:window-height="480"
     id="namedview3346"
     inkscape:document-units="px"
     showgrid="false"
     inkscape:zoom="55.545455"
     inkscape:cx="3.2495908"
     inkscape:cy="6.0581015"
     inkscape:current-layer="svg4764" />
  <defs
     id="defs4766" />
  <metadata
     id="metadata4769">
    <rdf:RDF>
      <cc:Work
         rdf:about="">
        <dc:format>image/svg+xml</dc:format>
        <dc:type
           rdf:resource="http://purl.org/dc/dcmitype/StillImage" />
        <dc:title />
      </cc:Work>
    </rdf:RDF>
  </metadata>
  <path
     d="m 3.6666666,0 0,1.2222222 -2.4444444,0 c 0,0 0,5.9073667 0,8.5555556 l 1.2222222,0 0,1.2222222 1.2222222,0 0,-1.2222222 3.6666667,0 0,1.2222222 1.2222222,0 0,-1.2222222 1.2222223,0 c 0,-2.6481889 0,-8.5555556 0,-8.5555556 l -2.4444445,0 0,-1.2222222 z m -1.2222222,2.4444444 6.1111111,0 0,3.6666667 -6.1111111,0 z m 0.6111111,4.8888889 c 0.3385556,0 0.6111111,0.2725556 0.6111111,0.6111111 0,0.3385556 -0.2725555,0.6111112 -0.6111111,0.6111112 C 2.717,8.5555556 2.4444444,8.283 2.4444444,7.9444444 2.4444444,7.6058889 2.717,7.3333333 3.0555555,7.3333333 Z m 4.8888889,0 c 0.3385556,0 0.6111111,0.2725556 0.6111111,0.6111111 0,0.3385556 -0.2725555,0.6111112 -0.6111111,0.6111112 -0.3385555,0 -0.6111111,-0.2725556 -0.6111111,-0.6111112 0,-0.3385555 0.2725556,-0.6111111 0.6111111,-0.6111111 z"
     inkscape:connector-curvature="0"
     id="path8522-6-8-5"
     style="color:#000000;display:inline;overflow:visible;visibility:visible;fill:#000000;fill-opacity:1;fill-rule:nonzero;stroke:none;stroke-width:2.44444442;marker:none;enable-background:accumulate" />
</svg>
