<?xml version="1.0" encoding="UTF-8" standalone="no"?> <!-- Created with Inkscape (http://www.inkscape.org/) -->  <svg xmlns:dc="http://purl.org/dc/elements/1.1/" xmlns:cc="http://creativecommons.org/ns#" xmlns:rdf="http://www.w3.org/1999/02/22-rdf-syntax-ns#" xmlns:svg="http://www.w3.org/2000/svg" xmlns="http://www.w3.org/2000/svg" xmlns:inkscape="http://www.inkscape.org/namespaces/inkscape" version="1.1" width="12" height="11" viewBox="-402.5 403.5 12 12" id="svg4764" xml:space="preserve"><metadata id="metadata27"><rdf:RDF><cc:Work rdf:about=""><dc:format>image/svg+xml</dc:format><dc:type rdf:resource="http://purl.org/dc/dcmitype/StillImage" /><dc:title /></cc:Work></rdf:RDF></metadata><defs id="defs25" /><path d="m -398.5,1445.8622 -1,3 -1,1 0,3 1,0 0,1 1,0 0,-1 5,0 0,1 1,0 0,-1 1,0 0,-3 -1,-1 -1,-3 z m 1,1 3,0 0.66667,2 -4.33334,0 z m -1.5,4 c 0.27614,0 0.5,0.2239 0.5,0.5 0,0.2761 -0.22386,0.5 -0.5,0.5 -0.27614,0 -0.5,-0.2239 -0.5,-0.5 0,-0.2761 0.22386,-0.5 0.5,-0.5 z m 6,0 c 0.27614,0 0.5,0.2239 0.5,0.5 0,0.2761 -0.22386,0.5 -0.5,0.5 -0.27614,0 -0.5,-0.2239 -0.5,-0.5 0,-0.2761 0.22386,-0.5 0.5,-0.5 z" inkscape:connector-curvature="0" id="path8522-6-8" style="color:#000000;fill:#000000;fill-opacity:1;fill-rule:nonzero;stroke:none;stroke-width:2;marker:none;visibility:visible;display:inline;overflow:visible;enable-background:accumulate" /></svg>