<?xml version="1.0" encoding="UTF-8" standalone="no"?> <!-- Created with Inkscape (http://www.inkscape.org/) -->  <svg xmlns:dc="http://purl.org/dc/elements/1.1/" xmlns:cc="http://creativecommons.org/ns#" xmlns:rdf="http://www.w3.org/1999/02/22-rdf-syntax-ns#" xmlns:svg="http://www.w3.org/2000/svg" xmlns="http://www.w3.org/2000/svg" xmlns:inkscape="http://www.inkscape.org/namespaces/inkscape" version="1.1" width="17" height="17" viewBox="-402.5 403.5 18 18" id="svg4619" xml:space="preserve"><metadata id="metadata3166"><rdf:RDF><cc:Work rdf:about=""><dc:format>image/svg+xml</dc:format><dc:type rdf:resource="http://purl.org/dc/dcmitype/StillImage" /><dc:title /></cc:Work></rdf:RDF></metadata><defs id="defs3164" />  <path d="M 6.0000001,2.9999951 3,7.4999951 3,13 l 2,0 0,1 2,0 0,-1 5,0 0,1 1,0 1,0 0,-1 2,0 0,-5.3125049 -3,-4.6875 z m 0.9999999,2 5,0 L 13.5,7 5.5,7 z M 6,9 7,10 6,11 5,10 z m 7,0 1,1 -1,1 -1,-1 z" inkscape:connector-curvature="0" transform="matrix(1.3076923,0,0,1.3076923,1.0769264,1005.6699)" id="path8522-6-8" style="color:#000000;fill:#000000;fill-opacity:1;fill-rule:nonzero;stroke:none;stroke-width:2;marker:none;visibility:visible;display:inline;overflow:visible;enable-background:accumulate" /></svg>