<?xml version="1.0" encoding="UTF-8" standalone="no"?>
<!-- Created with Inkscape (http://www.inkscape.org/) -->

<svg
   xmlns:dc="http://purl.org/dc/elements/1.1/"
   xmlns:cc="http://creativecommons.org/ns#"
   xmlns:rdf="http://www.w3.org/1999/02/22-rdf-syntax-ns#"
   xmlns:svg="http://www.w3.org/2000/svg"
   xmlns="http://www.w3.org/2000/svg"
   xmlns:sodipodi="http://sodipodi.sourceforge.net/DTD/sodipodi-0.dtd"
   xmlns:inkscape="http://www.inkscape.org/namespaces/inkscape"
   version="1.1"
   width="17"
   height="17"
   id="svg4619"
   inkscape:version="0.91+devel+osxmenu r12911"
   sodipodi:docname="cinema-17.svg"
   viewBox="0 0 17 17">
  <sodipodi:namedview
     pagecolor="#ffffff"
     bordercolor="#666666"
     borderopacity="1"
     objecttolerance="10"
     gridtolerance="10"
     guidetolerance="10"
     inkscape:pageopacity="0"
     inkscape:pageshadow="2"
     inkscape:window-width="640"
     inkscape:window-height="480"
     id="namedview3359"
     inkscape:document-units="px"
     showgrid="false"
     inkscape:zoom="35.941176"
     inkscape:cx="5.0220949"
     inkscape:cy="8.2495908"
     inkscape:current-layer="svg4619" />
  <defs
     id="defs4621" />
  <metadata
     id="metadata4624">
    <rdf:RDF>
      <cc:Work
         rdf:about="">
        <dc:format>image/svg+xml</dc:format>
        <dc:type
           rdf:resource="http://purl.org/dc/dcmitype/StillImage" />
        <dc:title />
      </cc:Work>
    </rdf:RDF>
  </metadata>
  <path
     d="m 14.52946,0 -2.190832,0.6389436 1.06499,2.8907805 2.09955,-0.6086389 z M 10.999787,1.004127 8.1395406,1.8256623 9.2349507,4.7163155 12.09521,3.8947802 Z M 6.8311195,2.1908457 4.3055861,2.9210852 5.4009962,5.8117384 7.9265424,5.0814989 Z M 2.9971778,3.2862686 0.2235284,4.2669668 1.4968317,6.8135734 4.0621559,6.1769218 Z m -1.5003461,3.5273048 0,8.9131236 C 1.4968317,16.363348 2.1334834,17 2.770135,17 l 12.733033,0 c 0.636652,0 1.273304,-0.636652 1.273304,-1.273303 l 0,-8.9131236 z m 2.5466067,2.5466067 10.1864266,0 0,2.5466069 -10.1864266,0 z"
     inkscape:connector-curvature="0"
     id="rect7568-8-4-7"
     style="color:#000000;display:inline;overflow:visible;visibility:visible;fill:#000000;fill-opacity:1;fill-rule:nonzero;stroke:none;stroke-width:2.54660654;marker:none;enable-background:accumulate" />
</svg>
