<?xml version="1.0" encoding="UTF-8" standalone="no"?> <!-- Created with Inkscape (http://www.inkscape.org/) -->  <svg xmlns:dc="http://purl.org/dc/elements/1.1/" xmlns:cc="http://creativecommons.org/ns#" xmlns:rdf="http://www.w3.org/1999/02/22-rdf-syntax-ns#" xmlns:svg="http://www.w3.org/2000/svg" xmlns="http://www.w3.org/2000/svg" xmlns:inkscape="http://www.inkscape.org/namespaces/inkscape" version="1.1" width="17" height="17" id="svg4619"> <defs id="defs4621" /> <metadata id="metadata4624"> <rdf:RDF> <cc:Work rdf:about=""> <dc:format>image/svg+xml</dc:format> <dc:type rdf:resource="http://purl.org/dc/dcmitype/StillImage" /> <dc:title /> </cc:Work> </rdf:RDF> </metadata> <path d="m 0,0 -1.72059,0.5018 0.8364,2.2703 1.6489,-0.478 z m -2.77206,0.7886 -2.24632,0.6452 0.86029,2.2702 2.24633,-0.6452 z m -3.2739,0.932 -1.98345,0.5735 0.86029,2.2702 1.98346,-0.5735 z m -3.01102,0.8603 -2.17831,0.7702 1,2 2.0147,-0.5 z m -1.17831,2.7702 0,7 c 0,0.5 0.5,1 1,1 l 10,0 c 0.5,0 1,-0.5 1,-1 l 0,-7 z m 2,2 8,0 0,2 -8,0 z" inkscape:connector-curvature="0" id="rect7568-8-4-7" style="color:#000000;fill:#000000;fill-opacity:1;fill-rule:nonzero;stroke:none;stroke-width:2;marker:none;visibility:visible;display:inline;overflow:visible;enable-background:accumulate" /> </svg>