<?xml version="1.0" encoding="UTF-8" standalone="no"?>
<!-- Generator: Adobe Illustrator 15.1.0, SVG Export Plug-In . SVG Version: 6.00 Build 0)  -->

<svg
   xmlns:dc="http://purl.org/dc/elements/1.1/"
   xmlns:cc="http://creativecommons.org/ns#"
   xmlns:rdf="http://www.w3.org/1999/02/22-rdf-syntax-ns#"
   xmlns:svg="http://www.w3.org/2000/svg"
   xmlns="http://www.w3.org/2000/svg"
   xmlns:sodipodi="http://sodipodi.sourceforge.net/DTD/sodipodi-0.dtd"
   xmlns:inkscape="http://www.inkscape.org/namespaces/inkscape"
   version="1.1"
   id="svg4764"
   sodipodi:docname="dentist-11.svg"
   inkscape:version="0.91+devel+osxmenu r12911"
   x="0px"
   y="0px"
   width="11"
   height="11"
   enable-background="new 0 0 12 12"
   xml:space="preserve"
   viewBox="0 0 11 11"><metadata
     id="metadata3356"><rdf:RDF><cc:Work
         rdf:about=""><dc:format>image/svg+xml</dc:format><dc:type
           rdf:resource="http://purl.org/dc/dcmitype/StillImage" /><dc:title></dc:title></cc:Work></rdf:RDF></metadata><defs
     id="defs3354" /><sodipodi:namedview
     pagecolor="#ffffff"
     bordercolor="#666666"
     borderopacity="1"
     objecttolerance="10"
     gridtolerance="10"
     guidetolerance="10"
     inkscape:pageopacity="0"
     inkscape:pageshadow="2"
     inkscape:window-width="1737"
     inkscape:window-height="936"
     id="namedview3352"
     inkscape:document-units="px"
     showgrid="true"
     inkscape:snap-bbox="true"
     inkscape:object-paths="true"
     inkscape:bbox-nodes="true"
     inkscape:object-nodes="true"
     inkscape:snap-smooth-nodes="true"
     inkscape:zoom="39.333333"
     inkscape:cx="1.2476721"
     inkscape:cy="5.9873325"
     inkscape:window-x="0"
     inkscape:window-y="23"
     inkscape:window-maximized="0"
     inkscape:current-layer="svg4764"><inkscape:grid
       type="xygrid"
       id="grid3358" /></sodipodi:namedview><path
     enable-background="new    "
     d="M 0.64248295,5.33487 C 0.2778635,3.5903655 -0.2941897,0.3976906 1.8368372,0.04853202 3.939519,-0.29804971 3.9833248,1.3369401 5.4997811,1.3369401 c 1.5177446,0 1.5589736,-1.6362782 3.6603669,-1.28840808 C 11.29504,0.3976906 10.721699,3.5890771 10.358368,5.33487 9.928039,7.3898807 9.3650042,11 8.0765965,11 6.788189,11 6.9248773,8.4231839 5.4997811,8.4231839 4.2126615,8.4231839 4.2126615,11 2.9242535,11 1.6358455,11 1.0715228,7.3898807 0.64248295,5.33487 Z"
     id="path3348"
     inkscape:connector-curvature="0"
     style="opacity:1;fill:#000000;stroke:none;stroke-width:2.57681608;stroke-linecap:round;stroke-linejoin:round"
     sodipodi:nodetypes="ccsccsssc" /><path
     d="m 166,1179.862 c -1,0 -1.438,-2.802 -1.771,-4.397 -0.283,-1.354 -0.727,-3.832 0.927,-4.103 1.632,-0.269 1.666,1 2.843,1 1.178,0 1.21,-1.27 2.841,-1 1.657,0.271 1.212,2.748 0.93,4.103 -0.334,1.595 -0.771,4.397 -1.771,4.397 -1,0 -0.822,-2 -2,-2 -1.183,0 -0.999,2 -1.999,2 z"
     id="path3350"
     inkscape:connector-curvature="0"
     style="fill:#49484a" /></svg>