<?xml version="1.0" encoding="UTF-8" standalone="no"?> <!-- Created with Inkscape (http://www.inkscape.org/) -->  <svg xmlns:dc="http://purl.org/dc/elements/1.1/" xmlns:cc="http://creativecommons.org/ns#" xmlns:rdf="http://www.w3.org/1999/02/22-rdf-syntax-ns#" xmlns:svg="http://www.w3.org/2000/svg" xmlns="http://www.w3.org/2000/svg" xmlns:inkscape="http://www.inkscape.org/namespaces/inkscape" version="1.1" width="12" height="11" id="svg2"> <metadata id="metadata15"> <rdf:RDF> <cc:Work rdf:about=""> <dc:format>image/svg+xml</dc:format> <dc:type rdf:resource="http://purl.org/dc/dcmitype/StillImage" /> </cc:Work> </rdf:RDF> </metadata> <defs id="defs13" /> <path d="M 4,3 3,4 3,6 3,7 2,10 3,10 3.725,8.55 4,8 4,10 5,10 5,8 6.5,8 6,10 7,10 7.5,8.5 8,8.5 8,10 9,10 9,8 9,7 6,5 4,5 4,4 5,3 z" inkscape:connector-curvature="0" id="path6" style="fill:#000000" /> <path d="M 9,6 10,6 11,5 11,4 10,4 9,3 9,3 9,2 8,2 7.5,3.5 7,5 z" inkscape:connector-curvature="0" id="path8" style="fill:#000000" /> </svg>