<?xml version="1.0" encoding="UTF-8" standalone="no"?>
<!-- Created with Inkscape (http://www.inkscape.org/) -->

<svg
   xmlns:dc="http://purl.org/dc/elements/1.1/"
   xmlns:cc="http://creativecommons.org/ns#"
   xmlns:rdf="http://www.w3.org/1999/02/22-rdf-syntax-ns#"
   xmlns:svg="http://www.w3.org/2000/svg"
   xmlns="http://www.w3.org/2000/svg"
   xmlns:sodipodi="http://sodipodi.sourceforge.net/DTD/sodipodi-0.dtd"
   xmlns:inkscape="http://www.inkscape.org/namespaces/inkscape"
   version="1.1"
   width="17"
   height="17"
   id="svg4619"
   inkscape:version="0.91+devel+osxmenu r12911"
   sodipodi:docname="entrance-17.svg"
   viewBox="0 0 17 17">
  <sodipodi:namedview
     pagecolor="#ffffff"
     bordercolor="#666666"
     borderopacity="1"
     objecttolerance="10"
     gridtolerance="10"
     guidetolerance="10"
     inkscape:pageopacity="0"
     inkscape:pageshadow="2"
     inkscape:window-width="640"
     inkscape:window-height="480"
     id="namedview3358"
     inkscape:document-units="px"
     showgrid="false"
     inkscape:zoom="35.941176"
     inkscape:cx="5.0220949"
     inkscape:cy="8.2495908"
     inkscape:current-layer="svg4619" />
  <defs
     id="defs4621" />
  <metadata
     id="metadata4624">
    <rdf:RDF>
      <cc:Work
         rdf:about="">
        <dc:format>image/svg+xml</dc:format>
        <dc:type
           rdf:resource="http://purl.org/dc/dcmitype/StillImage" />
        <dc:title />
      </cc:Work>
    </rdf:RDF>
  </metadata>
  <path
     d="M 3.680665,0.00980188 C 3.0815807,0.12350558 2.608076,0.70692278 2.6187776,1.3167402 l 0,3.920815 2.6138766,0 0,-2.6138767 9.1485678,0 0,11.7624445 -9.1485678,0 0,-2.613876 -2.6138766,0 0,3.920815 C 2.6189069,16.377375 3.2414399,16.999869 3.9257159,17 l 11.7624451,0 c 0.684276,-1.31e-4 1.306809,-0.622625 1.306938,-1.306938 l 0,-14.3763218 C 16.99497,0.63242728 16.372437,0.00993258 15.688161,0.00980188 l -11.7624451,0 c -0.081443,-0.013069 -0.1636074,-0.013069 -0.2450509,0 z m 2.8589275,3.92081502 0,2.6138766 -6.5346915,0 0,3.9208145 6.5346915,0 0,2.613877 6.5346915,-4.5742841 -6.5346915,-4.574284 z"
     id="rect3795"
     style="color:#000000;font-style:normal;font-variant:normal;font-weight:normal;font-stretch:normal;font-size:medium;line-height:normal;font-family:Sans;-inkscape-font-specification:Sans;text-indent:0;text-align:start;text-decoration:none;text-decoration-line:none;letter-spacing:normal;word-spacing:normal;text-transform:none;direction:ltr;block-progression:tb;writing-mode:lr-tb;baseline-shift:baseline;text-anchor:start;display:inline;overflow:visible;visibility:visible;fill:#000000;fill-opacity:1;stroke:none;stroke-width:2.61410904;marker:none;enable-background:accumulate"
     inkscape:connector-curvature="0" />
</svg>
