<?xml version="1.0" encoding="UTF-8" standalone="no"?> <!-- Created with Inkscape (http://www.inkscape.org/) -->  <svg xmlns:dc="http://purl.org/dc/elements/1.1/" xmlns:cc="http://creativecommons.org/ns#" xmlns:rdf="http://www.w3.org/1999/02/22-rdf-syntax-ns#" xmlns:svg="http://www.w3.org/2000/svg" xmlns="http://www.w3.org/2000/svg" xmlns:inkscape="http://www.inkscape.org/namespaces/inkscape" version="1.1" width="12" height="11" id="svg4764"> <defs id="defs4766" /> <metadata id="metadata4769"> <rdf:RDF> <cc:Work rdf:about=""> <dc:format>image/svg+xml</dc:format> <dc:type rdf:resource="http://purl.org/dc/dcmitype/StillImage" /> <dc:title /> </cc:Work> </rdf:RDF> </metadata> <path d="m 130.5,1339.3622 c -0.277,0 -0.5,0.223 -0.5,0.5 l 0,3.5 -1,0.5 1,2 0,1 2,0.5 1.5,-0.5 1.5,0.5 2,-0.5 0,-1 1,-2 -1,-0.4687 0,-3.5313 c 0,-0.277 -0.223,-0.5 -0.5,-0.5 l -1,0 -4,0 z m 0.5,1 5,0 0,2.5625 -2.5,-1.5625 -2.5,1.5 z m -0.5,7.4995 -1.5,0.4688 0,1.0312 0.15625,-0.062 1.34375,-0.4375 1.5,0.5 1.5,-0.5 1.5,0.5 1.5,-0.5 1.5,0.5 0,-1.0312 -1.5,-0.4688 -1.5,0.4688 -1.5,-0.4688 -1.5,0.4688 z" inkscape:connector-curvature="0" id="path30937" style="color:#000000;fill:#000000;fill-opacity:1;fill-rule:nonzero;stroke:none;stroke-width:2;marker:none;visibility:visible;display:inline;overflow:visible;enable-background:accumulate" /> </svg>