<?xml version="1.0" encoding="UTF-8" standalone="no"?>
<!-- Created with Inkscape (http://www.inkscape.org/) -->

<svg
   xmlns:dc="http://purl.org/dc/elements/1.1/"
   xmlns:cc="http://creativecommons.org/ns#"
   xmlns:rdf="http://www.w3.org/1999/02/22-rdf-syntax-ns#"
   xmlns:svg="http://www.w3.org/2000/svg"
   xmlns="http://www.w3.org/2000/svg"
   xmlns:sodipodi="http://sodipodi.sourceforge.net/DTD/sodipodi-0.dtd"
   xmlns:inkscape="http://www.inkscape.org/namespaces/inkscape"
   version="1.1"
   width="17"
   height="17"
   id="svg4619"
   inkscape:version="0.91+devel+osxmenu r12911"
   sodipodi:docname="ferry-17.svg"
   viewBox="0 0 17 17">
  <sodipodi:namedview
     pagecolor="#ffffff"
     bordercolor="#666666"
     borderopacity="1"
     objecttolerance="10"
     gridtolerance="10"
     guidetolerance="10"
     inkscape:pageopacity="0"
     inkscape:pageshadow="2"
     inkscape:window-width="640"
     inkscape:window-height="480"
     id="namedview3382"
     inkscape:document-units="px"
     showgrid="false"
     inkscape:zoom="35.941176"
     inkscape:cx="5.0220949"
     inkscape:cy="9.3625205"
     inkscape:current-layer="svg4619" />
  <defs
     id="defs4621" />
  <metadata
     id="metadata4624">
    <rdf:RDF>
      <cc:Work
         rdf:about="">
        <dc:format>image/svg+xml</dc:format>
        <dc:type
           rdf:resource="http://purl.org/dc/dcmitype/StillImage" />
        <dc:title />
      </cc:Work>
    </rdf:RDF>
  </metadata>
  <path
     d="M 6.8548387,0 C 6.3064516,0 5.7580645,0.5483871 5.7580645,1.0967742 l -1.290311,0 c -0.5003922,0 -0.9354825,0.5964258 -0.9354825,1.0967742 l 0.032245,3.8387097 -2.1935484,1.0967742 2.1935484,3.8387097 0,1.645161 2.7419354,1.096774 2.1935485,-1.096774 2.1935481,1.096774 2.741936,-1.096774 0,-1.645161 2.193548,-3.8387097 -2.193548,-1.0967742 0,-3.8387097 c 0,-0.5003484 -0.402834,-1.0967742 -0.903227,-1.0967742 l -1.290322,0 C 11.241935,0.5483871 10.693548,0 10.145161,0 Z m -2.1935484,2.1935484 7.6774197,0 0,3.3386903 L 8.5000001,3.2903226 4.6612903,5.5322387 Z M 3.5645162,14.258065 1.3709678,15.354839 1.3709678,17 3.5645162,15.903226 6.3064516,17 8.5000001,15.903226 10.693548,17 13.435484,16.064013 15.629032,17 l 0,-1.645161 -2.193548,-1.096774 -2.741936,1.096774 -2.1935479,-1.096774 -2.1935485,1.096774 z"
     inkscape:connector-curvature="0"
     id="path30964"
     style="color:#000000;display:inline;overflow:visible;visibility:visible;fill:#000000;fill-opacity:1;fill-rule:nonzero;stroke:none;stroke-width:2.19354844;marker:none;enable-background:accumulate" />
</svg>
