<?xml version="1.0" encoding="UTF-8" standalone="no"?> <!-- Created with Inkscape (http://www.inkscape.org/) -->  <svg xmlns:dc="http://purl.org/dc/elements/1.1/" xmlns:cc="http://creativecommons.org/ns#" xmlns:rdf="http://www.w3.org/1999/02/22-rdf-syntax-ns#" xmlns:svg="http://www.w3.org/2000/svg" xmlns="http://www.w3.org/2000/svg" xmlns:inkscape="http://www.inkscape.org/namespaces/inkscape" version="1.1" width="17" height="17" id="svg4619"> <defs id="defs4621" /> <metadata id="metadata4624"> <rdf:RDF> <cc:Work rdf:about=""> <dc:format>image/svg+xml</dc:format> <dc:type rdf:resource="http://purl.org/dc/dcmitype/StillImage" /> <dc:title /> </cc:Work> </rdf:RDF> </metadata> <path d="m 0,0 c -0.5,0 -1,0.5 -1,1 l 0,11 c 0,0.5 0.5,1 1,1 l 6,0 c 0.5,0 1,-0.5 1,-1 l 0,-3 c 0.16385,0 0.25,0 0.25,0 0.13687,0 0.25,0.096 0.25,0.25 0,0.19 0,0.5724 0,0.75 0,0.5 0.5,1 1,1 0.12942,0 0.34431,0 0.5,0 0.5,0 1,-0.4072 1,-1 0,-0.8426 0,-2.7778 0,-3.5 0,-1 -1,-1 -1,-1.9998 l 0,-1.5 -1,0 -1,-1.0002 0,-0.9998 c 0,-0.5 -0.5,-1 -1,-1 z m 0,1.5 6,0 0,2.5 -6,0 z m 7,3.5 1,0 c 0,1 1,1 1,2 l 0,2.75 c 0,0.25 -0.24998,0.25 -0.24998,0.25 0,0 -0.25002,0 -0.25,-0.25 0,0 0,-0.4201 0,-0.75 0,-0.5906 -0.49938,-1.0014 -1,-1 l -0.50009,-2e-4 z" inkscape:connector-curvature="0" id="rect7223-2-4-9-4-2-3" style="color:#000000;fill:#000000;fill-opacity:1;fill-rule:nonzero;stroke:none;stroke-width:2;marker:none;visibility:visible;display:inline;overflow:visible;enable-background:accumulate" /> </svg>