<?xml version="1.0" encoding="UTF-8" standalone="no"?>
<!-- Created with Inkscape (http://www.inkscape.org/) -->

<svg
   xmlns:dc="http://purl.org/dc/elements/1.1/"
   xmlns:cc="http://creativecommons.org/ns#"
   xmlns:rdf="http://www.w3.org/1999/02/22-rdf-syntax-ns#"
   xmlns:svg="http://www.w3.org/2000/svg"
   xmlns="http://www.w3.org/2000/svg"
   xmlns:sodipodi="http://sodipodi.sourceforge.net/DTD/sodipodi-0.dtd"
   xmlns:inkscape="http://www.inkscape.org/namespaces/inkscape"
   version="1.1"
   width="11"
   height="11"
   id="svg4764"
   inkscape:version="0.91+devel+osxmenu r12911"
   sodipodi:docname="fuel-11.svg"
   viewBox="0 0 11 11">
  <sodipodi:namedview
     pagecolor="#ffffff"
     bordercolor="#666666"
     borderopacity="1"
     objecttolerance="10"
     gridtolerance="10"
     guidetolerance="10"
     inkscape:pageopacity="0"
     inkscape:pageshadow="2"
     inkscape:window-width="640"
     inkscape:window-height="480"
     id="namedview3400"
     inkscape:document-units="px"
     showgrid="false"
     inkscape:zoom="55.545455"
     inkscape:cx="3.2495908"
     inkscape:cy="6.0581015"
     inkscape:current-layer="svg4764" />
  <defs
     id="defs4766" />
  <metadata
     id="metadata4769">
    <rdf:RDF>
      <cc:Work
         rdf:about="">
        <dc:format>image/svg+xml</dc:format>
        <dc:type
           rdf:resource="http://purl.org/dc/dcmitype/StillImage" />
        <dc:title />
      </cc:Work>
    </rdf:RDF>
  </metadata>
  <path
     d="M 1.8333333,0 C 1.4947655,0 1.2222222,0.2725556 1.2222222,0.6111111 l 0,9.7777779 C 1.2222222,10.694444 1.5277778,11 1.8333333,11 l 4.8888889,0 c 0.3055556,0 0.6111111,-0.305556 0.6111111,-0.611111 l 0,-0.6111112 1.5277778,0 c 0.6111111,0 0.9166667,-0.3055556 0.9166667,-0.9166667 l 0,-3.3611111 c 0,-0.6111111 -1.2222223,-1.2222222 -1.2222223,-1.8333333 l 0,-0.3055556 0,-0.9166667 -1.2222222,-1.2222222 0,-0.6111111 C 7.3333333,0.2725556 7.0607778,0 6.7222222,0 L 1.8333333,0 Z m 0.6111111,1.2222222 3.6666667,0 0,2.4444445 -3.6666667,0 0,-2.4444445 z m 4.8888889,1.8333334 0.6111111,0 0,0.9166666 c 0,0.6111111 1.2222222,1.2222222 1.2222222,1.8333334 l 0,2.75 0,0.3055555 c 0,0.3055556 -0.3055555,0.3055556 -0.3055555,0.3055556 l -0.9166667,0 0,-1.8333334 -0.6111111,0 0,-4.2777777 z"
     inkscape:connector-curvature="0"
     id="rect7223-2-4-9-3"
     style="color:#000000;display:inline;overflow:visible;visibility:visible;fill:#000000;fill-opacity:1;fill-rule:nonzero;stroke:none;stroke-width:2.44444442;marker:none;enable-background:accumulate" />
</svg>
