<?xml version="1.0" encoding="UTF-8" standalone="no"?> <!-- Created with Inkscape (http://www.inkscape.org/) -->  <svg xmlns:dc="http://purl.org/dc/elements/1.1/" xmlns:cc="http://creativecommons.org/ns#" xmlns:rdf="http://www.w3.org/1999/02/22-rdf-syntax-ns#" xmlns:svg="http://www.w3.org/2000/svg" xmlns="http://www.w3.org/2000/svg" xmlns:inkscape="http://www.inkscape.org/namespaces/inkscape" version="1.1" width="17" height="17" id="svg4619"> <defs id="defs4621" /> <metadata id="metadata4624"> <rdf:RDF> <cc:Work rdf:about=""> <dc:format>image/svg+xml</dc:format> <dc:type rdf:resource="http://purl.org/dc/dcmitype/StillImage" /> <dc:title /> </cc:Work> </rdf:RDF> </metadata>     <path d="m 0,0 c -0.26113,0 -0.38235,0 -0.38235,0.3823 l 0,10.2758 c -1.52942,0.047 -2,1.0772 -2,1.8419 0,0.3823 0.5,0.5 0.5,0.5 l 8,0 c 0,0 0.5,-0.1177 0.5,-0.5 0,-1.9118 -0.85294,-3.5 -2,-3.5 -1.20237,0 -1.51531,2.3025 -2.70589,2.4706 -0.52207,0.074 -1.02653,-0.2641 -1.52941,-0.5257 l 0,-6.3567 5.35295,-2.2941 -4.96935,-2.1297 c -0.28787,-0.1234 -0.57468,-0.1644 -0.76595,-0.1644 z" inkscape:connector-curvature="0" id="rect8138-7-4" style="color:#000000;fill:#000000;fill-opacity:1;fill-rule:nonzero;stroke:none;stroke-width:2;marker:none;visibility:visible;display:inline;overflow:visible;enable-background:accumulate" />     </svg>