<?xml version="1.0" encoding="UTF-8" standalone="no"?>
<!-- Created with Inkscape (http://www.inkscape.org/) -->

<svg
   xmlns:dc="http://purl.org/dc/elements/1.1/"
   xmlns:cc="http://creativecommons.org/ns#"
   xmlns:rdf="http://www.w3.org/1999/02/22-rdf-syntax-ns#"
   xmlns:svg="http://www.w3.org/2000/svg"
   xmlns="http://www.w3.org/2000/svg"
   xmlns:sodipodi="http://sodipodi.sourceforge.net/DTD/sodipodi-0.dtd"
   xmlns:inkscape="http://www.inkscape.org/namespaces/inkscape"
   version="1.1"
   width="11"
   height="11"
   id="svg4764"
   inkscape:version="0.91+devel+osxmenu r12911"
   sodipodi:docname="grocery-11.svg"
   viewBox="0 0 11 11">
  <sodipodi:namedview
     pagecolor="#ffffff"
     bordercolor="#666666"
     borderopacity="1"
     objecttolerance="10"
     gridtolerance="10"
     guidetolerance="10"
     inkscape:pageopacity="0"
     inkscape:pageshadow="2"
     inkscape:window-width="640"
     inkscape:window-height="480"
     id="namedview3392"
     inkscape:document-units="px"
     showgrid="false"
     inkscape:zoom="28.181818"
     inkscape:cx="5.5"
     inkscape:cy="5.5"
     inkscape:window-x="0"
     inkscape:window-y="23"
     inkscape:window-maximized="0"
     inkscape:current-layer="svg4764" />
  <defs
     id="defs4766" />
  <metadata
     id="metadata4769">
    <rdf:RDF>
      <cc:Work
         rdf:about="">
        <dc:format>image/svg+xml</dc:format>
        <dc:type
           rdf:resource="http://purl.org/dc/dcmitype/StillImage" />
        <dc:title />
      </cc:Work>
    </rdf:RDF>
  </metadata>
  <path
     d="M 10,2 C 9.70834,2 9.44955,2.082 9.26562,2.2657 9.0817,2.4496 9,2.7084 9,3 L 1.5,3 2.5,7 9,7 9,8 2.86742,8 c -0.5,0 -0.5,0.5 0,0.5 l 0.88258,0 4.5,0 0.75,0 C 9.25,8.5 9.5,8.25 9.5,8 l 0,-0.5 0,-4 0,-0.5 C 9.5,3 9.5433,2.6755 9.60937,2.6094 9.67547,2.5434 9.79166,2.5 10,2.5 c 0.0555,0 0.5,0 0.5,0 l 0,-0.5 c 0,0 -0.4314,0 -0.5,0 z M 8.25,8.5 C 7.83578,8.5 7.5,8.8358 7.5,9.25 7.5,9.6642 7.83578,10 8.25,10 8.66422,10 9,9.6642 9,9.25 9,8.8358 8.66422,8.5 8.25,8.5 Z m -4.5,0 C 3.33578,8.5 3,8.8358 3,9.25 3,9.6642 3.33578,10 3.75,10 4.16422,10 4.5,9.6642 4.5,9.25 4.5,8.8358 4.16422,8.5 3.75,8.5 Z"
     inkscape:connector-curvature="0"
     id="rect7842-7"
     style="color:#000000;display:inline;overflow:visible;visibility:visible;fill:#000000;fill-opacity:1;stroke:none;stroke-width:2;marker:none;enable-background:accumulate" />
</svg>
