<?xml version="1.0" encoding="UTF-8" standalone="no"?>
<!-- Created with Inkscape (http://www.inkscape.org/) -->

<svg
   xmlns:dc="http://purl.org/dc/elements/1.1/"
   xmlns:cc="http://creativecommons.org/ns#"
   xmlns:rdf="http://www.w3.org/1999/02/22-rdf-syntax-ns#"
   xmlns:svg="http://www.w3.org/2000/svg"
   xmlns="http://www.w3.org/2000/svg"
   xmlns:sodipodi="http://sodipodi.sourceforge.net/DTD/sodipodi-0.dtd"
   xmlns:inkscape="http://www.inkscape.org/namespaces/inkscape"
   version="1.1"
   width="11"
   height="11"
   id="svg4764"
   inkscape:version="0.91+devel+osxmenu r12911"
   sodipodi:docname="grocery-11.svg"
   viewBox="0 0 11 11">
  <sodipodi:namedview
     pagecolor="#ffffff"
     bordercolor="#666666"
     borderopacity="1"
     objecttolerance="10"
     gridtolerance="10"
     guidetolerance="10"
     inkscape:pageopacity="0"
     inkscape:pageshadow="2"
     inkscape:window-width="640"
     inkscape:window-height="480"
     id="namedview3392"
     inkscape:document-units="px"
     showgrid="false"
     inkscape:zoom="28.181818"
     inkscape:cx="1.0645161"
     inkscape:cy="3.7612903"
     inkscape:window-x="0"
     inkscape:window-y="23"
     inkscape:window-maximized="0"
     inkscape:current-layer="svg4764" />
  <defs
     id="defs4766" />
  <metadata
     id="metadata4769">
    <rdf:RDF>
      <cc:Work
         rdf:about="">
        <dc:format>image/svg+xml</dc:format>
        <dc:type
           rdf:resource="http://purl.org/dc/dcmitype/StillImage" />
        <dc:title />
      </cc:Work>
    </rdf:RDF>
  </metadata>
  <path
     d="m 10.388889,0.61111111 c -0.356473,0 -0.672772,0.10022222 -0.897576,0.32474445 C 9.266522,1.1606222 9.166667,1.4769333 9.166667,1.8333333 l -9.166667,0 1.2222222,4.8888889 7.9444448,0 0,1.2222223 -7.4953759,0 c -0.6111111,0 -0.6111111,0.6111111 0,0.6111111 l 1.0787089,0 5.5,0 0.916667,0 c 0.305555,0 0.611111,-0.3055556 0.611111,-0.6111111 l 0,-0.6111112 0,-4.8888888 0,-0.6111112 c 0,0 0.05292,-0.3966111 0.133674,-0.4774 0.08079,-0.080667 0.222799,-0.1337111 0.477437,-0.1337111 0.06783,0 0.611111,0 0.611111,0 l 0,-0.61111109 c 0,0 -0.527267,0 -0.611111,0 z M 8.25,8.5555556 c -0.5062689,0 -0.9166667,0.4104222 -0.9166667,0.9166666 0,0.5062445 0.4103978,0.9166668 0.9166667,0.9166668 0.506269,0 0.916667,-0.4104223 0.916667,-0.9166668 0,-0.5062444 -0.410398,-0.9166666 -0.916667,-0.9166666 z m -5.5,0 c -0.5062689,0 -0.9166667,0.4104222 -0.9166667,0.9166666 0,0.5062445 0.4103978,0.9166668 0.9166667,0.9166668 0.5062689,0 0.9166667,-0.4104223 0.9166667,-0.9166668 0,-0.5062444 -0.4103978,-0.9166666 -0.9166667,-0.9166666 z"
     inkscape:connector-curvature="0"
     id="rect7842-7"
     style="color:#000000;display:inline;overflow:visible;visibility:visible;fill:#000000;fill-opacity:1;stroke:none;stroke-width:2.44444442;marker:none;enable-background:accumulate" />
</svg>
