<?xml version="1.0" encoding="UTF-8" standalone="no"?>
<!-- Created with Inkscape (http://www.inkscape.org/) -->

<svg
   xmlns:dc="http://purl.org/dc/elements/1.1/"
   xmlns:cc="http://creativecommons.org/ns#"
   xmlns:rdf="http://www.w3.org/1999/02/22-rdf-syntax-ns#"
   xmlns:svg="http://www.w3.org/2000/svg"
   xmlns="http://www.w3.org/2000/svg"
   xmlns:sodipodi="http://sodipodi.sourceforge.net/DTD/sodipodi-0.dtd"
   xmlns:inkscape="http://www.inkscape.org/namespaces/inkscape"
   version="1.1"
   width="11"
   height="11"
   id="svg4764"
   inkscape:version="0.91+devel+osxmenu r12911"
   sodipodi:docname="hairdresser-11.svg"
   viewBox="0 0 11 11">
  <sodipodi:namedview
     pagecolor="#ffffff"
     bordercolor="#666666"
     borderopacity="1"
     objecttolerance="10"
     gridtolerance="10"
     guidetolerance="10"
     inkscape:pageopacity="0"
     inkscape:pageshadow="2"
     inkscape:window-width="640"
     inkscape:window-height="480"
     id="namedview3340"
     inkscape:document-units="px"
     showgrid="true"
     inkscape:snap-bbox="true"
     inkscape:bbox-paths="true"
     inkscape:bbox-nodes="true"
     inkscape:zoom="47.250268"
     inkscape:cx="4.4722484"
     inkscape:cy="6.0689204"
     inkscape:window-x="0"
     inkscape:window-y="23"
     inkscape:window-maximized="0"
     inkscape:current-layer="svg4764">
    <inkscape:grid
       type="xygrid"
       id="grid3342" />
  </sodipodi:namedview>
  <defs
     id="defs4766" />
  <metadata
     id="metadata4769">
    <rdf:RDF>
      <cc:Work
         rdf:about="">
        <dc:format>image/svg+xml</dc:format>
        <dc:type
           rdf:resource="http://purl.org/dc/dcmitype/StillImage" />
        <dc:title />
      </cc:Work>
    </rdf:RDF>
  </metadata>
  <path
     d="M 1.2222221,1.2222223 C 0.54720748,1.2222223 -1e-7,1.7694112 -1e-7,2.4444445 c 0,0.6750333 0.54720758,1.2222222 1.2222222,1.2222222 0.2171225,0 0.396198,-0.091667 0.5729166,-0.1909111 l 0.6493056,0.5728556 0,2.7882555 -0.6875,0.6492444 C 1.5909987,7.4017778 1.4210719,7.3333333 1.2222221,7.3333333 0.54720748,7.3333333 -1e-7,7.8805222 -1e-7,8.5555555 c 0,0.6750333 0.54720758,1.2222222 1.2222222,1.2222222 0.6750146,0 1.2222222,-0.5471889 1.2222222,-1.2222222 0,-0.099 -0.054055,-0.1749 -0.076389,-0.2673 L 11,1.2222223 l -3.0555558,0 L 4.2013887,4.2013889 2.3680554,2.7118667 c 0.022334,-0.092889 0.076389,-0.1681777 0.076389,-0.2674222 0,-0.6750333 -0.5472076,-1.2222222 -1.2222222,-1.2222222 z m 5.423611,5.0035333 -1.5277778,1.2603555 2.8263889,2.2916666 3.0555558,0 z"
     inkscape:connector-curvature="0"
     id="path3595"
     style="color:#000000;display:inline;overflow:visible;visibility:visible;fill:#000000;fill-opacity:1;fill-rule:nonzero;stroke:none;stroke-width:4.88888884;marker:none;enable-background:accumulate" />
</svg>
