<?xml version="1.0" encoding="UTF-8" standalone="no"?>
<!-- Created with Inkscape (http://www.inkscape.org/) -->

<svg
   xmlns:dc="http://purl.org/dc/elements/1.1/"
   xmlns:cc="http://creativecommons.org/ns#"
   xmlns:rdf="http://www.w3.org/1999/02/22-rdf-syntax-ns#"
   xmlns:svg="http://www.w3.org/2000/svg"
   xmlns="http://www.w3.org/2000/svg"
   xmlns:sodipodi="http://sodipodi.sourceforge.net/DTD/sodipodi-0.dtd"
   xmlns:inkscape="http://www.inkscape.org/namespaces/inkscape"
   version="1.1"
   width="17"
   height="17"
   id="svg4619"
   inkscape:version="0.91+devel+osxmenu r12911"
   sodipodi:docname="hairdresser-17.svg"
   viewBox="0 0 17 17">
  <sodipodi:namedview
     pagecolor="#ffffff"
     bordercolor="#666666"
     borderopacity="1"
     objecttolerance="10"
     gridtolerance="10"
     guidetolerance="10"
     inkscape:pageopacity="0"
     inkscape:pageshadow="2"
     inkscape:window-width="640"
     inkscape:window-height="480"
     id="namedview3356"
     inkscape:document-units="px"
     showgrid="true"
     inkscape:snap-bbox="true"
     inkscape:bbox-paths="true"
     inkscape:object-paths="true"
     inkscape:snap-intersection-paths="true"
     inkscape:object-nodes="true"
     inkscape:zoom="11.843188"
     inkscape:cx="3.9153442"
     inkscape:cy="4.7347107"
     inkscape:window-x="0"
     inkscape:window-y="23"
     inkscape:window-maximized="0"
     inkscape:current-layer="svg4619">
    <inkscape:grid
       type="xygrid"
       id="grid3358" />
  </sodipodi:namedview>
  <defs
     id="defs4621" />
  <metadata
     id="metadata4624">
    <rdf:RDF>
      <cc:Work
         rdf:about="">
        <dc:format>image/svg+xml</dc:format>
        <dc:type
           rdf:resource="http://purl.org/dc/dcmitype/StillImage" />
        <dc:title />
      </cc:Work>
    </rdf:RDF>
  </metadata>
  <path
     d="M 2,0 C 0.56406,0 -0.6,1.1641 -0.6,2.6 -0.6,4.0359 0.56406,5.2 2,5.2 2.474455,5.2 2.917093,5.0564 3.3,4.8344 L 6.55,7.15 3.3,9.4656 C 2.917093,9.2436 2.474455,9.1 2,9.1 c -1.43594,0 -2.6,1.1641 -2.6,2.6 0,1.4359 1.16406,2.6 2.6,2.6 1.43594,0 2.6,-1.1641 2.6,-2.6 0,-0.2378 -0.02144,-0.4718 -0.08125,-0.6906 L 18.9,0.65 17.6,0 14.228125,0 12.4,1.3 7.078125,5.1187 4.51875,3.2906 C 4.57856,3.0718 4.6,2.8378 4.6,2.6 4.6,1.1641 3.43594,0 2,0 Z M 11.709375,8.4906 8.90625,10.4812 12.4,13 l 1.828125,1.3 3.371875,0 1.3,-0.65 z"
     inkscape:connector-curvature="0"
     id="path3187-0"
     style="color:#000000;display:inline;overflow:visible;visibility:visible;fill:#000000;fill-opacity:1;fill-rule:nonzero;stroke:none;stroke-width:4;marker:none;enable-background:accumulate"
     sodipodi:nodetypes="csscccsssscccccccsccccccccc" />
</svg>
