<?xml version="1.0" encoding="UTF-8" standalone="no"?>
<!-- Created with Inkscape (http://www.inkscape.org/) -->

<svg
   xmlns:dc="http://purl.org/dc/elements/1.1/"
   xmlns:cc="http://creativecommons.org/ns#"
   xmlns:rdf="http://www.w3.org/1999/02/22-rdf-syntax-ns#"
   xmlns:svg="http://www.w3.org/2000/svg"
   xmlns="http://www.w3.org/2000/svg"
   xmlns:sodipodi="http://sodipodi.sourceforge.net/DTD/sodipodi-0.dtd"
   xmlns:inkscape="http://www.inkscape.org/namespaces/inkscape"
   version="1.1"
   width="17"
   height="17"
   id="svg4619"
   inkscape:version="0.91+devel+osxmenu r12911"
   sodipodi:docname="hairdresser-17.svg"
   viewBox="0 0 17 17">
  <sodipodi:namedview
     pagecolor="#ffffff"
     bordercolor="#666666"
     borderopacity="1"
     objecttolerance="10"
     gridtolerance="10"
     guidetolerance="10"
     inkscape:pageopacity="0"
     inkscape:pageshadow="2"
     inkscape:window-width="640"
     inkscape:window-height="480"
     id="namedview3356"
     inkscape:document-units="px"
     showgrid="true"
     inkscape:snap-bbox="true"
     inkscape:bbox-paths="true"
     inkscape:object-paths="true"
     inkscape:snap-intersection-paths="true"
     inkscape:object-nodes="true"
     inkscape:zoom="11.843188"
     inkscape:cx="-6.6392463"
     inkscape:cy="3.9747802"
     inkscape:window-x="0"
     inkscape:window-y="23"
     inkscape:window-maximized="0"
     inkscape:current-layer="svg4619">
    <inkscape:grid
       type="xygrid"
       id="grid3358" />
  </sodipodi:namedview>
  <defs
     id="defs4621" />
  <metadata
     id="metadata4624">
    <rdf:RDF>
      <cc:Work
         rdf:about="">
        <dc:format>image/svg+xml</dc:format>
        <dc:type
           rdf:resource="http://purl.org/dc/dcmitype/StillImage" />
        <dc:title />
      </cc:Work>
    </rdf:RDF>
  </metadata>
  <path
     d="M 2.2666667,2.2666666 C 1.0148215,2.2666666 0,3.281523 0,4.5333333 0,5.7851436 1.0148215,6.8 2.2666667,6.8 2.6802941,6.8 3.0661837,6.6748103 3.4,6.4812717 L 6.2333333,8.5 3.4,10.518728 C 3.0661837,10.32519 2.6802941,10.2 2.2666667,10.2 1.0148215,10.2 0,11.214857 0,12.466666 c 0,1.25181 1.0148215,2.266667 2.2666667,2.266667 1.2518451,0 2.2666666,-1.014857 2.2666666,-2.266667 0,-0.207312 -0.018691,-0.411312 -0.070833,-0.602061 L 17,2.8333333 15.866667,2.2666666 l -2.939584,0 L 11.333333,3.4 6.69375,6.729123 4.4625,5.1353949 c 0.052142,-0.1907488 0.070833,-0.3947488 0.070833,-0.6020616 0,-1.2518103 -1.0148215,-2.2666667 -2.2666666,-2.2666667 z M 10.73125,9.6687282 8.2875,11.404123 11.333333,13.6 l 1.59375,1.133333 2.939584,0 L 17,14.166666 Z"
     inkscape:connector-curvature="0"
     id="path3187-0"
     style="color:#000000;display:inline;overflow:visible;visibility:visible;fill:#000000;fill-opacity:1;fill-rule:nonzero;stroke:none;stroke-width:3.48717952;marker:none;enable-background:accumulate"
     sodipodi:nodetypes="csscccsssscccccccsccccccccc" />
</svg>
