<?xml version="1.0" encoding="UTF-8" standalone="no"?> <!-- Created with Inkscape (http://www.inkscape.org/) -->  <svg xmlns:dc="http://purl.org/dc/elements/1.1/" xmlns:cc="http://creativecommons.org/ns#" xmlns:rdf="http://www.w3.org/1999/02/22-rdf-syntax-ns#" xmlns:svg="http://www.w3.org/2000/svg" xmlns="http://www.w3.org/2000/svg" xmlns:inkscape="http://www.inkscape.org/namespaces/inkscape" version="1.1" width="17" height="17" id="svg4619"> <defs id="defs4621" /> <metadata id="metadata4624"> <rdf:RDF> <cc:Work rdf:about=""> <dc:format>image/svg+xml</dc:format> <dc:type rdf:resource="http://purl.org/dc/dcmitype/StillImage" /> <dc:title /> </cc:Work> </rdf:RDF> </metadata>    <path d="m 0,0 -1,0.5 -0.5,0.5 -0.5,1 0,1 0.0937,0.4063 -6.3437,6.3437 c -0.75,-0.75 -0.75,-2.75 0.25,-3.75 l 1,1 0,-4 -1.5,1.5 c -1,1 -1.5,1.5 -1.5,3 l 0,1.5 0,4 4,0 1.5,0 c 1,0 2,-0.5 3,-1.5 l 0.5,-0.5 1,-1 -1,0 -3,0 1,1 c -1,1 -3,1 -3.75,0.25 l 6.34375,-6.3437 0.40625,0.094 1,0 1,-0.5 0.5,-0.5 0.5,-1 0,-1 -0.5,-1 -0.5,-0.5 -1,-0.5 -1,0 z m 0,1.5 0.5,0 0.5,0 0.5,0.5 0,0.5 0,0.5 -0.5,0.5 -0.5,0 -0.5,0 -0.5,-0.5 0,-0.5 0,-0.5 0.5,-0.5 z" inkscape:connector-curvature="0" id="path7366" style="color:#000000;fill:#000000;fill-opacity:1;fill-rule:nonzero;stroke:none;stroke-width:2;marker:none;visibility:visible;display:inline;overflow:visible;enable-background:accumulate" />    </svg>