<?xml version="1.0" encoding="UTF-8" standalone="no"?>
<!-- Created with Inkscape (http://www.inkscape.org/) -->

<svg
   xmlns:dc="http://purl.org/dc/elements/1.1/"
   xmlns:cc="http://creativecommons.org/ns#"
   xmlns:rdf="http://www.w3.org/1999/02/22-rdf-syntax-ns#"
   xmlns:svg="http://www.w3.org/2000/svg"
   xmlns="http://www.w3.org/2000/svg"
   xmlns:sodipodi="http://sodipodi.sourceforge.net/DTD/sodipodi-0.dtd"
   xmlns:inkscape="http://www.inkscape.org/namespaces/inkscape"
   version="1.1"
   width="17"
   height="17"
   id="svg4619"
   inkscape:version="0.91+devel+osxmenu r12911"
   sodipodi:docname="heliport-17.svg"
   viewBox="0 0 17 17">
  <sodipodi:namedview
     pagecolor="#ffffff"
     bordercolor="#666666"
     borderopacity="1"
     objecttolerance="10"
     gridtolerance="10"
     guidetolerance="10"
     inkscape:pageopacity="0"
     inkscape:pageshadow="2"
     inkscape:window-width="640"
     inkscape:window-height="480"
     id="namedview3340"
     inkscape:document-units="px"
     showgrid="true"
     inkscape:snap-bbox="true"
     inkscape:bbox-nodes="true"
     inkscape:bbox-paths="true"
     inkscape:zoom="55.529412"
     inkscape:cx="11.444952"
     inkscape:cy="5.1887495"
     inkscape:window-x="0"
     inkscape:window-y="23"
     inkscape:window-maximized="0"
     inkscape:current-layer="svg4619">
    <inkscape:grid
       type="xygrid"
       id="grid3342" />
  </sodipodi:namedview>
  <defs
     id="defs4621" />
  <metadata
     id="metadata4624">
    <rdf:RDF>
      <cc:Work
         rdf:about="">
        <dc:format>image/svg+xml</dc:format>
        <dc:type
           rdf:resource="http://purl.org/dc/dcmitype/StillImage" />
        <dc:title />
      </cc:Work>
    </rdf:RDF>
  </metadata>
  <path
     d="M 8.1944398,12 13.22222,12 C 13.61111,12 14,11.6111 14,11.2222 l 0,-2.3332995 c 0,-0.7778 -0.37392,-1.1517 -0.77778,-1.5556 0,0 -0.51852,-0.5185 -0.77778,-0.7777 -0.25925,-0.2593 -0.77777,-0.5556 -1.55555,-0.5556 l -1.8888902,0 0,-2 3.2222202,0 c 0.43088,0 0.77778,-0.1247 0.77778,-0.5556 0,-0.4308 -0.29135,-0.4444 -0.72223,-0.4444 l -7.3333302,0 c -0.43089,0 -0.83333,0.014 -0.83333,0.4444 0,0.4309 0.34939,0.5092 0.77778,0.5556 l 3.11111,0 0,2 -0.77778,0 -3.32986,0 c -0.26914,-0.4643 -0.76156,-0.7778 -1.3368,-0.7778 -0.85911,0 -1.5555599,0.6964 -1.5555599,1.5556 0,0.8591 0.6964499,1.5555 1.5555599,1.5555 0.4488,0 0.83413,-0.2063 1.11805,-0.5104 l 2.77083,2.6214995 c 0.80962,0.766 1.36112,1.5556 1.75,1.5556 z m -5.63888,-5.9999995 c 0.42955,0 0.77777,0.3482 0.77777,0.7778 0,0.4295 -0.34822,0.7777 -0.77777,0.7777 -0.42956,0 -0.77778,-0.3482 -0.77778,-0.7777 0,-0.4296 0.34822,-0.7778 0.77778,-0.7778 z"
     inkscape:connector-curvature="0"
     id="rect9361-7"
     style="color:#000000;display:inline;overflow:visible;visibility:visible;fill:#000000;fill-opacity:1;fill-rule:nonzero;stroke:none;stroke-width:2;marker:none;enable-background:accumulate" />
</svg>
