<?xml version="1.0" encoding="UTF-8" standalone="no"?>
<!-- Created with Inkscape (http://www.inkscape.org/) -->

<svg
   xmlns:dc="http://purl.org/dc/elements/1.1/"
   xmlns:cc="http://creativecommons.org/ns#"
   xmlns:rdf="http://www.w3.org/1999/02/22-rdf-syntax-ns#"
   xmlns:svg="http://www.w3.org/2000/svg"
   xmlns="http://www.w3.org/2000/svg"
   xmlns:sodipodi="http://sodipodi.sourceforge.net/DTD/sodipodi-0.dtd"
   xmlns:inkscape="http://www.inkscape.org/namespaces/inkscape"
   version="1.1"
   width="11"
   height="11"
   id="svg4764"
   inkscape:version="0.91+devel+osxmenu r12911"
   sodipodi:docname="heliport-11.svg"
   viewBox="0 0 11 11">
  <sodipodi:namedview
     pagecolor="#ffffff"
     bordercolor="#666666"
     borderopacity="1"
     objecttolerance="10"
     gridtolerance="10"
     guidetolerance="10"
     inkscape:pageopacity="0"
     inkscape:pageshadow="2"
     inkscape:window-width="640"
     inkscape:window-height="480"
     id="namedview3340"
     inkscape:document-units="px"
     showgrid="false"
     inkscape:zoom="21.454545"
     inkscape:cx="1.7711864"
     inkscape:cy="9.2288136"
     inkscape:window-x="0"
     inkscape:window-y="23"
     inkscape:window-maximized="0"
     inkscape:current-layer="svg4764" />
  <defs
     id="defs4766" />
  <metadata
     id="metadata4769">
    <rdf:RDF>
      <cc:Work
         rdf:about="">
        <dc:format>image/svg+xml</dc:format>
        <dc:type
           rdf:resource="http://purl.org/dc/dcmitype/StillImage" />
        <dc:title />
      </cc:Work>
    </rdf:RDF>
  </metadata>
  <path
     d="m 6,8 3.875,0 c 0.25,0 0.5,-0.25 0.5,-0.5 l 0,-1.5 c 0,-0.5 -0.24038,-0.7404 -0.5,-1 0,0 -0.33334,-0.3333 -0.5,-0.5 C 9.20834,4.3334 8.875,4 8.375,4 l -1,0 0,-1 1.5,0 1,0 c 0.27699,0 0.5,-0.223 0.5,-0.5 0,-0.277 -0.22301,-0.5 -0.5,-0.5 l -1,0 -1.5,0 -0.5,0 -2,0 -0.5,0 -0.5,0 c -0.277,0 -0.5,0.223 -0.5,0.5 0,0.277 0.223,0.5 0.5,0.5 l 0.5,0 0.5,0 1.5,0 0,1 -1,0 -2.14062,0 C 3.06135,3.7016 2.7448,3.5 2.375,3.5 c -0.55228,0 -1,0.4477 -1,1 0,0.5523 0.44772,1 1,1 0.28852,0 0.53623,-0.1326 0.71875,-0.3281 L 4.875,7 C 5.375,7.5132 5.75,8 6,8 Z M 2.375,4 c 0.27614,0 0.5,0.2238 0.5,0.5 0,0.2762 -0.22386,0.5 -0.5,0.5 -0.27614,0 -0.5,-0.2238 -0.5,-0.5 0,-0.2762 0.22386,-0.5 0.5,-0.5 z"
     inkscape:connector-curvature="0"
     id="rect9361-1"
     style="color:#000000;display:inline;overflow:visible;visibility:visible;fill:#000000;fill-opacity:1;fill-rule:nonzero;stroke:none;stroke-width:2;marker:none;enable-background:accumulate" />
</svg>
