<?xml version="1.0" encoding="UTF-8" standalone="no"?>
<!-- Created with Inkscape (http://www.inkscape.org/) -->

<svg
   xmlns:dc="http://purl.org/dc/elements/1.1/"
   xmlns:cc="http://creativecommons.org/ns#"
   xmlns:rdf="http://www.w3.org/1999/02/22-rdf-syntax-ns#"
   xmlns:svg="http://www.w3.org/2000/svg"
   xmlns="http://www.w3.org/2000/svg"
   xmlns:sodipodi="http://sodipodi.sourceforge.net/DTD/sodipodi-0.dtd"
   xmlns:inkscape="http://www.inkscape.org/namespaces/inkscape"
   version="1.1"
   width="17"
   height="17"
   id="svg4619"
   xml:space="preserve"
   inkscape:version="0.91+devel+osxmenu r12911"
   sodipodi:docname="ice-cream-17.svg"
   viewBox="0 0 17 17"><sodipodi:namedview
     pagecolor="#ffffff"
     bordercolor="#666666"
     borderopacity="1"
     objecttolerance="10"
     gridtolerance="10"
     guidetolerance="10"
     inkscape:pageopacity="0"
     inkscape:pageshadow="2"
     inkscape:window-width="640"
     inkscape:window-height="480"
     id="namedview3342"
     inkscape:document-units="px"
     showgrid="true"
     inkscape:snap-bbox="false"
     inkscape:bbox-paths="true"
     inkscape:bbox-nodes="true"
     inkscape:object-paths="true"
     inkscape:snap-intersection-paths="true"
     inkscape:object-nodes="true"
     inkscape:zoom="9.8163059"
     inkscape:cx="0.075697927"
     inkscape:cy="12.123826"
     inkscape:window-x="0"
     inkscape:window-y="23"
     inkscape:window-maximized="0"
     inkscape:current-layer="svg4619"><inkscape:grid
       type="xygrid"
       id="grid3344" /></sodipodi:namedview><metadata
     id="metadata23"><rdf:RDF><cc:Work
         rdf:about=""><dc:format>image/svg+xml</dc:format><dc:type
           rdf:resource="http://purl.org/dc/dcmitype/StillImage" /></cc:Work></rdf:RDF></metadata><defs
     id="defs21" /><path
     d="m 10.44,6 c 0.48,-0.532 0.78,-1.229 0.78,-2.001 0,-1.656 -1.343,-3 -3,-3 -1.657,0 -3,1.344 -3,3 C 5.22,4.771 5.52,5.468 6,6 l 4.44,0 z"
     inkscape:connector-curvature="0"
     id="path12"
     style="fill:#000000" /><path
     d="m 11.22,6 1.774,0 c 0.48,-0.532 0.78,-1.229 0.78,-2.001 0,-1.656 -1.343,-3 -3,-3 -0.117,0 -0.387,-0.013 -0.5,0 0.817,0.733 1.5,1.819 1.5,3 0,0.706 -0.197,1.393 -0.554,2.001 z"
     inkscape:connector-curvature="0"
     id="path14"
     style="fill:#000000" /><path
     d="M 13,7 6,7 c 0,0 2.439,5.9 2.5,6 0.128,0.344 0.5,1 1,1 0.5,0 0.871,-0.656 1,-1 C 10.561,12.9 13,7 13,7 Z"
     inkscape:connector-curvature="0"
     id="path16"
     style="fill:#000000" /></svg>