<?xml version="1.0" encoding="UTF-8" standalone="no"?>
<!-- Created with Inkscape (http://www.inkscape.org/) -->

<svg
   xmlns:dc="http://purl.org/dc/elements/1.1/"
   xmlns:cc="http://creativecommons.org/ns#"
   xmlns:rdf="http://www.w3.org/1999/02/22-rdf-syntax-ns#"
   xmlns:svg="http://www.w3.org/2000/svg"
   xmlns="http://www.w3.org/2000/svg"
   xmlns:sodipodi="http://sodipodi.sourceforge.net/DTD/sodipodi-0.dtd"
   xmlns:inkscape="http://www.inkscape.org/namespaces/inkscape"
   version="1.1"
   width="11"
   height="11"
   id="svg4764"
   xml:space="preserve"
   inkscape:version="0.91+devel+osxmenu r12911"
   sodipodi:docname="ice-cream-11.svg"
   viewBox="0 0 11 11"><sodipodi:namedview
     pagecolor="#ffffff"
     bordercolor="#666666"
     borderopacity="1"
     objecttolerance="10"
     gridtolerance="10"
     guidetolerance="10"
     inkscape:pageopacity="0"
     inkscape:pageshadow="2"
     inkscape:window-width="640"
     inkscape:window-height="480"
     id="namedview3393"
     inkscape:document-units="px"
     showgrid="true"
     inkscape:object-paths="true"
     inkscape:snap-intersection-paths="true"
     inkscape:snap-bbox="true"
     inkscape:bbox-paths="true"
     inkscape:bbox-nodes="true"
     inkscape:zoom="27.772727"
     inkscape:cx="2.8818785"
     inkscape:cy="8.212497"
     inkscape:current-layer="svg4764"><inkscape:grid
       type="xygrid"
       id="grid3404" /></sodipodi:namedview><metadata
     id="metadata27"><rdf:RDF><cc:Work
         rdf:about=""><dc:format>image/svg+xml</dc:format><dc:type
           rdf:resource="http://purl.org/dc/dcmitype/StillImage" /></cc:Work></rdf:RDF></metadata><defs
     id="defs25" /><path
     style="fill:#000000;stroke-width:1.22434783"
     d="M 6.7542391,0 C 6.7089381,0 6.6691851,0.0166817 6.6251084,0.0191304 7.2678909,0.63252867 7.6725001,1.49248 7.6725001,2.4486957 c 0,0.6782886 -0.2035099,1.3076034 -0.5500004,1.8365217 l 1.2363049,0 C 8.8718062,3.8371061 9.2029348,3.1845287 9.2029348,2.4486957 9.2029348,1.0970157 8.1059191,0 6.7542391,0 Z M 4.245761,0.0717394 c -1.35168,0 -2.4486958,1.0970155 -2.4486958,2.4486957 0.00122,0.1787548 0.021828,0.3535686 0.059783,0.5213043 0.00612,0.029384 0.020182,0.056702 0.026304,0.086086 0.036731,0.1395757 0.081095,0.2779653 0.1410879,0.4065218 0.00735,0.015916 0.016567,0.029518 0.023913,0.045434 0.069788,0.1408 0.1496386,0.2768557 0.2439134,0.4017392 0.00122,0.00122 0.00356,0.00234 0.00479,0.00479 0.1028452,0.1334539 0.2194068,0.2592364 0.3467389,0.3706522 l 3.2067395,0 C 6.3633281,3.9088453 6.6944566,3.2562679 6.6944566,2.5204348 6.6944566,1.6168662 6.1998201,0.8349287 5.4701088,0.41130435 5.3048218,0.31458085 5.1253398,0.23928348 4.9392389,0.18173913 4.9123029,0.17316913 4.8837039,0.16394813 4.8555439,0.15782643 4.6608728,0.10517953 4.4587977,0.07174013 4.2457613,0.07174013 Z M 3.0811957,5.4904348 C 4.3055434,8.5513043 4.9177173,11 5.5298914,11 6.1420653,11 6.7542392,8.5513043 7.978587,5.4904348 l -4.8973913,0 z"
     id="path16"
     inkscape:connector-curvature="0" /></svg>