<?xml version="1.0" encoding="UTF-8" standalone="no"?>
<!-- Created with Inkscape (http://www.inkscape.org/) -->

<svg
   xmlns:dc="http://purl.org/dc/elements/1.1/"
   xmlns:cc="http://creativecommons.org/ns#"
   xmlns:rdf="http://www.w3.org/1999/02/22-rdf-syntax-ns#"
   xmlns:svg="http://www.w3.org/2000/svg"
   xmlns="http://www.w3.org/2000/svg"
   xmlns:sodipodi="http://sodipodi.sourceforge.net/DTD/sodipodi-0.dtd"
   xmlns:inkscape="http://www.inkscape.org/namespaces/inkscape"
   version="1.1"
   width="17"
   height="17"
   id="svg4619"
   xml:space="preserve"
   inkscape:version="0.91+devel+osxmenu r12911"
   sodipodi:docname="ice-cream-17.svg"
   viewBox="0 0 17 17"><sodipodi:namedview
     pagecolor="#ffffff"
     bordercolor="#666666"
     borderopacity="1"
     objecttolerance="10"
     gridtolerance="10"
     guidetolerance="10"
     inkscape:pageopacity="0"
     inkscape:pageshadow="2"
     inkscape:window-width="640"
     inkscape:window-height="480"
     id="namedview3342"
     inkscape:document-units="px"
     showgrid="true"
     inkscape:snap-bbox="false"
     inkscape:bbox-paths="true"
     inkscape:bbox-nodes="true"
     inkscape:object-paths="true"
     inkscape:snap-intersection-paths="true"
     inkscape:object-nodes="true"
     inkscape:zoom="9.8163059"
     inkscape:cx="-12.658217"
     inkscape:cy="11.206984"
     inkscape:window-x="0"
     inkscape:window-y="23"
     inkscape:window-maximized="0"
     inkscape:current-layer="svg4619"><inkscape:grid
       type="xygrid"
       id="grid3344" /></sodipodi:namedview><metadata
     id="metadata23"><rdf:RDF><cc:Work
         rdf:about=""><dc:format>image/svg+xml</dc:format><dc:type
           rdf:resource="http://purl.org/dc/dcmitype/StillImage" /></cc:Work></rdf:RDF></metadata><defs
     id="defs21" /><path
     style="fill:#000000;stroke-width:1.30691516"
     d="m 6.8318958,0.00755111 c -2.1655583,0 -3.9207453,1.75649389 -3.9207453,3.92074529 0,1.0089385 0.3911556,1.9211039 1.0184749,2.6163828 l 5.801988,0 C 10.358932,5.8494003 10.752641,4.9372349 10.752641,3.9282964 c 0,-2.1642514 -1.7551866,-3.92074529 -3.9207452,-3.92074529 z m 2.6827506,0 c 1.0677486,0.9579688 1.9603716,2.37727859 1.9603716,3.92074529 0,0.9226821 -0.255809,1.8217784 -0.722377,2.6163828 l 2.317734,0 c 0.627319,-0.6952789 1.018475,-1.6074443 1.018475,-2.6163828 0,-2.1642514 -1.755188,-3.92074529 -3.920747,-3.92074529 -0.15291,0 -0.5057766,-0.01699 -0.6534566,0 z M 3.9296254,7.8515943 c 0,0 3.1875659,7.7107987 3.2672878,7.8414907 C 7.3641983,16.142664 7.8503704,17 8.5038284,17 c 0.653457,0 1.138323,-0.857336 1.306915,-1.306915 0.07972,-0.130692 3.2672886,-7.8414907 3.2672886,-7.8414907 l -9.1484066,0 z"
     id="path12"
     inkscape:connector-curvature="0" /></svg>