<?xml version="1.0" encoding="UTF-8" standalone="no"?> <!-- Created with Inkscape (http://www.inkscape.org/) -->  <svg xmlns:dc="http://purl.org/dc/elements/1.1/" xmlns:cc="http://creativecommons.org/ns#" xmlns:rdf="http://www.w3.org/1999/02/22-rdf-syntax-ns#" xmlns:svg="http://www.w3.org/2000/svg" xmlns="http://www.w3.org/2000/svg" xmlns:inkscape="http://www.inkscape.org/namespaces/inkscape" version="1.1" width="12" height="11" viewBox="-402.5 403.5 12 12" id="svg4764" xml:space="preserve"><metadata id="metadata27"><rdf:RDF><cc:Work rdf:about=""><dc:format>image/svg+xml</dc:format><dc:type rdf:resource="http://purl.org/dc/dcmitype/StillImage" /></cc:Work></rdf:RDF></metadata><defs id="defs25" /><path d="m -396.5,1444.8622 -2,2 -1,0 0,7 7,0 0,-9 -1,0 z m 0,1 1,0 0,1 -1,0 z m 2,0 1,0 0,1 -1,0 z m -2,2 1,0 2,2 0,1 -2,2 -1,0 -2,-2 0,-1 z m -1,2 0,1 1,0 0,1 1,0 0,-1 1,0 0,-1 z" inkscape:connector-curvature="0" id="path3291" style="fill:#454545" /></svg>