<?xml version="1.0" encoding="UTF-8" standalone="no"?>
<!-- Created with Inkscape (http://www.inkscape.org/) -->

<svg
   xmlns:dc="http://purl.org/dc/elements/1.1/"
   xmlns:cc="http://creativecommons.org/ns#"
   xmlns:rdf="http://www.w3.org/1999/02/22-rdf-syntax-ns#"
   xmlns:svg="http://www.w3.org/2000/svg"
   xmlns="http://www.w3.org/2000/svg"
   xmlns:sodipodi="http://sodipodi.sourceforge.net/DTD/sodipodi-0.dtd"
   xmlns:inkscape="http://www.inkscape.org/namespaces/inkscape"
   version="1.1"
   width="11"
   height="11"
   id="svg4764"
   inkscape:version="0.91+devel+osxmenu r12911"
   sodipodi:docname="lodging-11.svg"
   viewBox="0 0 11 11">
  <sodipodi:namedview
     pagecolor="#ffffff"
     bordercolor="#666666"
     borderopacity="1"
     objecttolerance="10"
     gridtolerance="10"
     guidetolerance="10"
     inkscape:pageopacity="0"
     inkscape:pageshadow="2"
     inkscape:window-width="640"
     inkscape:window-height="480"
     id="namedview3364"
     inkscape:document-units="px"
     showgrid="false"
     inkscape:zoom="21.454545"
     inkscape:cx="5.5"
     inkscape:cy="5.5"
     inkscape:window-x="0"
     inkscape:window-y="23"
     inkscape:window-maximized="0"
     inkscape:current-layer="svg4764" />
  <defs
     id="defs4766" />
  <metadata
     id="metadata4769">
    <rdf:RDF>
      <cc:Work
         rdf:about="">
        <dc:format>image/svg+xml</dc:format>
        <dc:type
           rdf:resource="http://purl.org/dc/dcmitype/StillImage" />
        <dc:title />
      </cc:Work>
    </rdf:RDF>
  </metadata>
  <path
     d="M 2,2 C 1.44771,2 1,2.4477 1,3 1,3.5523 1.44771,4 2,4 2.55228,4 3,3.5523 3,3 3,2.4477 2.55228,2 2,2 Z M 4,3 C 4,4 3.5,5 2,5 L 1.25,5 C 1.1237,5 0.99935,5 1,5.25 1.00017,5.318 1,5.5579 1,5.75 1,6 1.19428,6 1.25,6 L 10,6 10,4.5 C 10,4 10,3 7.5,3 Z M 1.5,7 C 1.25,7 1,7.25 1,7.5 0.99988,7.9954 1,8.0723 1,8.5 1,8.75 1.25,9 1.5,9 1.75,9 2,8.75 2,8.5 L 2,8 9,8 9,8.5 C 9,8.75 9.25,9 9.5,9 9.75,9 10,8.75 10,8.5 l 0,-1 C 10,7.25 9.75,7 9.5,7 Z"
     inkscape:connector-curvature="0"
     id="path4536-6"
     style="color:#000000;display:inline;overflow:visible;visibility:visible;fill:#000000;fill-opacity:1;stroke:none;stroke-width:2;marker:none;enable-background:accumulate" />
</svg>
