<?xml version="1.0" encoding="UTF-8" standalone="no"?> <!-- Created with Inkscape (http://www.inkscape.org/) -->  <svg xmlns:dc="http://purl.org/dc/elements/1.1/" xmlns:cc="http://creativecommons.org/ns#" xmlns:rdf="http://www.w3.org/1999/02/22-rdf-syntax-ns#" xmlns:svg="http://www.w3.org/2000/svg" xmlns="http://www.w3.org/2000/svg" xmlns:inkscape="http://www.inkscape.org/namespaces/inkscape" version="1.1" width="17" height="17" id="svg4619"> <defs id="defs4621" /> <metadata id="metadata4624"> <rdf:RDF> <cc:Work rdf:about=""> <dc:format>image/svg+xml</dc:format> <dc:type rdf:resource="http://purl.org/dc/dcmitype/StillImage" /> <dc:title /> </cc:Work> </rdf:RDF> </metadata>     <path d="m 195.44444,1148.3622 c 0,0 -1.44444,1.7223 -1.44444,2.5 l 0,7.5 -1,0 c -0.43092,0 -1,0.5136 -1,0.9445 l 0,1.5555 -1,0 c -0.5,0 -1,0.5 -1,1 l 0,0.5 11,0 0,-0.5 c 0,-0.5 -0.5,-1 -1,-1 l -1,0 0,-1.5 c 0,-0.5 -0.5,-1 -1,-1 l -1,0 0,-7.5 c 0,-0.7777 -1.55556,-2.5 -1.55556,-2.5 z" inkscape:connector-curvature="0" id="path11719-5" style="color:#000000;fill:#000000;fill-opacity:1;stroke:none;stroke-width:3;marker:none;visibility:visible;display:inline;overflow:visible;enable-background:accumulate" />     </svg>