<?xml version="1.0" encoding="utf-8"?>
<!-- Generator: Adobe Illustrator 17.1.0, SVG Export Plug-In . SVG Version: 6.00 Build 0)  -->
<!DOCTYPE svg PUBLIC "-//W3C//DTD SVG 1.1//EN" "http://www.w3.org/Graphics/SVG/1.1/DTD/svg11.dtd">
<svg version="1.1"
	 id="svg4619" xmlns:cc="http://creativecommons.org/ns#" xmlns:svg="http://www.w3.org/2000/svg" xmlns:rdf="http://www.w3.org/1999/02/22-rdf-syntax-ns#" xmlns:dc="http://purl.org/dc/elements/1.1/"
	 xmlns="http://www.w3.org/2000/svg" xmlns:xlink="http://www.w3.org/1999/xlink" x="0px" y="0px" viewBox="0 0 17 17"
	 enable-background="new 0 0 17 17" xml:space="preserve">
<path id="rect7645-6-5-0-1" d="M8.5,0L2.1,4.2h12.8L8.5,0z M3.5,5.7C2.8,5.7,2.1,6.4,2.1,7v7.2l-1.4,2.1C0.7,16.8,1,17,1.4,17h14.2
	c0.4,0,0.7-0.2,0.7-0.7l-1.4-2.1V7c0-0.6-0.7-1.3-1.4-1.3H3.5z M6.4,7.8c0.7,0,0.7,0,1.4,1.4l0.7,1.4l0.7-1.4
	c0.7-1.4,0.7-1.4,1.4-1.4S12,8.5,12,9.2v5c0,0.5-0.2,0.7-0.7,0.7c-0.5,0-0.7-0.2-0.7-0.7v-4.1l-1.4,2.7c-0.4,0.7-1,0.7-1.4,0
	l-1.4-2.7v4.1c0,0.5-0.2,0.7-0.7,0.7S5,14.7,5,14.2v-1l0-3.9C5,8.5,5.7,7.8,6.4,7.8z"/>
</svg>
