<?xml version="1.0" encoding="UTF-8" standalone="no"?> <!-- Created with Inkscape (http://www.inkscape.org/) -->  <svg xmlns:dc="http://purl.org/dc/elements/1.1/" xmlns:cc="http://creativecommons.org/ns#" xmlns:rdf="http://www.w3.org/1999/02/22-rdf-syntax-ns#" xmlns:svg="http://www.w3.org/2000/svg" xmlns="http://www.w3.org/2000/svg" xmlns:inkscape="http://www.inkscape.org/namespaces/inkscape" version="1.1" width="17" height="17" id="svg4619"> <defs id="defs4621" /> <metadata id="metadata4624"> <rdf:RDF> <cc:Work rdf:about=""> <dc:format>image/svg+xml</dc:format> <dc:type rdf:resource="http://purl.org/dc/dcmitype/StillImage" /> <dc:title /> </cc:Work> </rdf:RDF> </metadata>      <path d="m 547.5,243 -0.75,0.75 0,7.5 -0.75,0 c -1.24264,0 -2.25,1.00733 -2.25,2.25 0,1.24267 1.00736,2.25 2.25,2.25 1.24263,0 2.25,-1.00733 2.25,-2.25 l 0,-6.5 5.25,0 0,4.25 -0.75,0 c -1.24264,0 -2.25,1.00733 -2.25,2.25 0,1.24267 1.00736,2.25 2.25,2.25 1.24264,0 2.25,-1.00733 2.25,-2.25 l 0,-9.75 -0.75,-0.75 -6.75,0 z" inkscape:connector-curvature="0" transform="matrix(1.3333333,0,0,1.3333333,-325,970.36219)" id="path7627" style="fill:#454545;display:inline" />      </svg>