<?xml version="1.0" encoding="utf-8"?>
<!-- Generator: Adobe Illustrator 17.1.0, SVG Export Plug-In . SVG Version: 6.00 Build 0)  -->
<!DOCTYPE svg PUBLIC "-//W3C//DTD SVG 1.1//EN" "http://www.w3.org/Graphics/SVG/1.1/DTD/svg11.dtd">
<svg version="1.1"
	 id="svg4619" xmlns:cc="http://creativecommons.org/ns#" xmlns:svg="http://www.w3.org/2000/svg" xmlns:inkscape="http://www.inkscape.org/namespaces/inkscape" xmlns:rdf="http://www.w3.org/1999/02/22-rdf-syntax-ns#" xmlns:dc="http://purl.org/dc/elements/1.1/"
	 xmlns="http://www.w3.org/2000/svg" xmlns:xlink="http://www.w3.org/1999/xlink" x="0px" y="0px" viewBox="0 0 17 17"
	 enable-background="new 0 0 17 17" xml:space="preserve">
<path id="path14594" inkscape:connector-curvature="0" d="M8.5,0.1C6,0.1,3.9,0.9,3.9,2v3.3c0,1.1,2,2,4.6,2s4.6-0.9,4.6-2V2
	C13.1,0.9,11,0.1,8.5,0.1z M3.9,7.2v8.5c0,0,1.3,1.3,4.6,1.3c3.3,0,4.6-1.3,4.6-1.3V7.2c0,1.1-2,2-4.6,2S3.9,8.3,3.9,7.2z M6.5,10.5
	c0.6,0.1,1.3,0.2,2,0.2s1.4-0.1,2-0.2v3.9c-0.6,0.1-1.3,0.2-2,0.2s-1.4-0.1-2-0.2V10.5z"/>
</svg>
