<?xml version="1.0" encoding="utf-8"?>
<!-- Generator: Adobe Illustrator 17.1.0, SVG Export Plug-In . SVG Version: 6.00 Build 0)  -->
<!DOCTYPE svg PUBLIC "-//W3C//DTD SVG 1.1//EN" "http://www.w3.org/Graphics/SVG/1.1/DTD/svg11.dtd">
<svg version="1.1"
	 id="svg4619" xmlns:cc="http://creativecommons.org/ns#" xmlns:svg="http://www.w3.org/2000/svg" xmlns:inkscape="http://www.inkscape.org/namespaces/inkscape" xmlns:rdf="http://www.w3.org/1999/02/22-rdf-syntax-ns#" xmlns:dc="http://purl.org/dc/elements/1.1/"
	 xmlns="http://www.w3.org/2000/svg" xmlns:xlink="http://www.w3.org/1999/xlink" x="0px" y="0px" viewBox="0 0 17 17"
	 enable-background="new 0 0 17 17" xml:space="preserve">
<path id="path3025" inkscape:connector-curvature="0" d="M9.9,1.2c-0.8,0-1.4,0.6-1.4,1.4C8.5,3.4,9.2,4,9.9,4
	c0.8,0,1.4-0.6,1.4-1.4C11.4,1.8,10.7,1.2,9.9,1.2z M4.9,3.4c-0.8,0-1.4,0.6-1.4,1.4c0,0.8,0.6,1.4,1.4,1.4s1.4-0.6,1.4-1.4
	C6.3,4.1,5.7,3.4,4.9,3.4z M10.8,4.6L9.7,8.7l-3.8,1l-1.9-3l-1.2,0l-1,4l-1.8,0.5v2.3l3.5-1l-1.1,1.9c-0.2,0.4-0.1,0.9,0.3,1.2
	c0.4,0.2,0.9,0.1,1.2-0.3L5.9,12l1.8-0.5l-2,4.3h5.6l-2.1-4.7l1.5-0.4l2.6,2.6c0.3,0.3,0.9,0.3,1.2,0c0.3-0.3,0.3-0.9,0-1.2
	l-1.9-1.9L17,9.1V6.8l-3.1,0.8L12,4.6H10.8z"/>
</svg>
