<?xml version="1.0" encoding="utf-8"?>
<!-- Generator: Adobe Illustrator 17.1.0, SVG Export Plug-In . SVG Version: 6.00 Build 0)  -->
<!DOCTYPE svg PUBLIC "-//W3C//DTD SVG 1.1//EN" "http://www.w3.org/Graphics/SVG/1.1/DTD/svg11.dtd">
<svg version="1.1"
	 id="svg4764" xmlns:cc="http://creativecommons.org/ns#" xmlns:svg="http://www.w3.org/2000/svg" xmlns:inkscape="http://www.inkscape.org/namespaces/inkscape" xmlns:rdf="http://www.w3.org/1999/02/22-rdf-syntax-ns#" xmlns:dc="http://purl.org/dc/elements/1.1/"
	 xmlns="http://www.w3.org/2000/svg" xmlns:xlink="http://www.w3.org/1999/xlink" x="0px" y="0px" viewBox="0 0 11 11"
	 enable-background="new 0 0 11 11" xml:space="preserve">
<path id="path4129" inkscape:connector-curvature="0" d="M7.1,0C6.5,0,6,0.5,6,1.1s0.5,1.1,1.1,1.1s1.1-0.5,1.1-1.1S7.8,0,7.1,0z
	 M3.9,1.1c-0.6,0-1.1,0.5-1.1,1.1c0,0.6,0.5,1.1,1.1,1.1S5,2.8,5,2.2C5,1.6,4.5,1.1,3.9,1.1z M7.1,3.3L6.6,6.5L4.3,6.7L3.9,4.4H2.8
	L1.7,7L0.6,7.2v1.6c1.6-0.2,3.1-0.3,4.7-0.5L3.9,11h3.3L5.8,8.2c1.6-0.2,3.1-0.3,4.7-0.5V6.1L9.2,6.2l-1-2.9H7.1z"/>
</svg>
