<?xml version="1.0" encoding="UTF-8" standalone="no"?> <!-- Created with Inkscape (http://www.inkscape.org/) -->  <svg xmlns:dc="http://purl.org/dc/elements/1.1/" xmlns:cc="http://creativecommons.org/ns#" xmlns:rdf="http://www.w3.org/1999/02/22-rdf-syntax-ns#" xmlns:svg="http://www.w3.org/2000/svg" xmlns="http://www.w3.org/2000/svg" xmlns:inkscape="http://www.inkscape.org/namespaces/inkscape" version="1.1" width="17" height="17" id="svg4619"> <defs id="defs4621" /> <metadata id="metadata4624"> <rdf:RDF> <cc:Work rdf:about=""> <dc:format>image/svg+xml</dc:format> <dc:type rdf:resource="http://purl.org/dc/dcmitype/StillImage" /> <dc:title /> </cc:Work> </rdf:RDF> </metadata>     <path d="m 430,1124.8622 -1,0.5 0,1 5,0 0,-1 -1,-0.5 z m -1,2.5 c -0.0333,0.1627 0,0.3274 0,0.5 0,1.3807 1.11931,2.5 2.5,2.5 1.38069,0 2.5,-1.1193 2.5,-2.5 0,-0.1726 0,-0.5 0,-0.5 z m 0,4 c -1.08333,0 -1.98585,1.7917 -2,2.875 l 0,4.125 1.53125,0 4.46875,-7 z m 5.5,0 -4.46875,7 5.96875,0 0,-4.125 c 0,-1.0834 -0.41666,-2.875 -1.5,-2.875 z" inkscape:connector-curvature="0" id="rect7805-5-4" style="color:#000000;fill:#000000;fill-opacity:1;stroke:none;stroke-width:2;marker:none;visibility:visible;display:inline;overflow:visible;enable-background:accumulate" />     </svg>