<?xml version="1.0" encoding="utf-8"?>
<!-- Generator: Adobe Illustrator 17.1.0, SVG Export Plug-In . SVG Version: 6.00 Build 0)  -->
<!DOCTYPE svg PUBLIC "-//W3C//DTD SVG 1.1//EN" "http://www.w3.org/Graphics/SVG/1.1/DTD/svg11.dtd">
<svg version="1.1"
	 id="svg4619" xmlns:cc="http://creativecommons.org/ns#" xmlns:svg="http://www.w3.org/2000/svg" xmlns:inkscape="http://www.inkscape.org/namespaces/inkscape" xmlns:rdf="http://www.w3.org/1999/02/22-rdf-syntax-ns#" xmlns:dc="http://purl.org/dc/elements/1.1/"
	 xmlns="http://www.w3.org/2000/svg" xmlns:xlink="http://www.w3.org/1999/xlink" x="0px" y="0px" viewBox="0 0 17 17"
	 enable-background="new 0 0 17 17" xml:space="preserve">
<path id="rect7805-5-4" inkscape:connector-curvature="0" d="M6.6,0L5.4,0.7v1.3h6.3V0.7L10.4,0H6.6z M5.4,3.2c0,0.2,0,0.4,0,0.6
	C5.4,5.5,6.8,7,8.5,7s3.1-1.4,3.1-3.1c0-0.2,0-0.6,0-0.6H5.4z M5.4,8.2c-1.4,0-2.5,2.3-2.5,3.6V17h1.9l5.6-8.8H5.4z M12.3,8.2
	L6.7,17h7.5v-5.2C14.2,10.5,13.6,8.2,12.3,8.2z"/>
</svg>
