<?xml version="1.0" encoding="UTF-8" standalone="no"?> <!-- Created with Inkscape (http://www.inkscape.org/) -->  <svg xmlns:dc="http://purl.org/dc/elements/1.1/" xmlns:cc="http://creativecommons.org/ns#" xmlns:rdf="http://www.w3.org/1999/02/22-rdf-syntax-ns#" xmlns:svg="http://www.w3.org/2000/svg" xmlns="http://www.w3.org/2000/svg" xmlns:inkscape="http://www.inkscape.org/namespaces/inkscape" version="1.1" width="17" height="17" id="svg4619"> <defs id="defs4621" /> <metadata id="metadata4624"> <rdf:RDF> <cc:Work rdf:about=""> <dc:format>image/svg+xml</dc:format> <dc:type rdf:resource="http://purl.org/dc/dcmitype/StillImage" /> <dc:title /> </cc:Work> </rdf:RDF> </metadata>     <path d="m 0,0 c -0.5,0 -0.5,0.5 -0.5,0.5 l 0,2.5 0,5.5 0,2 c 0,0 0,0.5 0.5,0.5 0.10655,0 0.29254,0 0.5,0 0.5,0 0.5,-0.5 0.5,-0.5 l 0,-1.5 1.5,0 0,1.5 c 0,0 0,0.5 0.5,0.5 0.13055,0 0.41998,0 0.5,0 0.5,0 0.5,-0.5 0.5,-0.5 l 0,-1.5 1.5,0 0,1.5 c 0,0 0,0.5 0.5,0.5 0.15024,0 0.40981,0 0.5,0 0.5,0 0.5,-0.5 0.5,-0.5 l 0,-1.5 1.5,0 0,1.5 c 0,0 0,0.5 0.5,0.5 0.19083,0 0.38799,0 0.5,0 0.5,0 0.5,-0.5 0.5,-0.5 l 0,-10 c 0,0 0,-0.5 -0.5,-0.5 -0.17136,0 -0.39867,0 -0.5,0 -0.5,0 -0.5,0.5 -0.5,0.5 l 0,2 -1.5,0 0,-2 c 0,0 0,-0.5 -0.5,-0.5 -0.0919,0 -0.34778,0 -0.5,0 -0.5,0 -0.5,0.5 -0.5,0.5 l 0,2 -1.5,0 0,-2 c 0,0 0,-0.5 -0.5,-0.5 -0.0981,0 -0.33377,0 -0.5,0 -0.5,0 -0.5,0.5 -0.5,0.5 l 0,2 -1.5,0 0,-2 c 0,0 0,-0.5 -0.5,-0.5 -0.19276,0 -0.38691,0 -0.5,0 z m 1,4 1.5,0 0,3.5 -1.5,0 z m 3,0 1.5,0 0,3.5 -1.5,0 z m 3,0 1.5,0 0,3.5 -1.5,0 z" inkscape:connector-curvature="0" id="rect4496-2-0" style="color:#000000;fill:#000000;fill-opacity:1;stroke:none;stroke-width:1;marker:none;visibility:visible;display:inline;overflow:visible;enable-background:accumulate" />     </svg>