<?xml version="1.0" encoding="utf-8"?>
<!-- Generator: Adobe Illustrator 17.1.0, SVG Export Plug-In . SVG Version: 6.00 Build 0)  -->
<!DOCTYPE svg PUBLIC "-//W3C//DTD SVG 1.1//EN" "http://www.w3.org/Graphics/SVG/1.1/DTD/svg11.dtd">
<svg version="1.1"
	 id="svg4619" xmlns:cc="http://creativecommons.org/ns#" xmlns:svg="http://www.w3.org/2000/svg" xmlns:rdf="http://www.w3.org/1999/02/22-rdf-syntax-ns#" xmlns:dc="http://purl.org/dc/elements/1.1/"
	 xmlns="http://www.w3.org/2000/svg" xmlns:xlink="http://www.w3.org/1999/xlink" x="0px" y="0px" viewBox="0 0 17 17"
	 enable-background="new 0 0 17 17" xml:space="preserve">
<path id="rect3109-8" d="M8.5,0.1c-3.2,0-5.9,2.5-5.9,5.7c0,2.2,0,4.5,0,6.5c0,0.5,0.4,0.9,0.9,0.9h9.9c0.5,0,0.9-0.4,0.9-0.9V5.8
	C14.4,2.6,11.7,0.1,8.5,0.1z M7.7,2.1c0,0,0.1,0,0.1,0v5.8H4.6v-2C4.6,4.1,5.9,2.5,7.7,2.1z M9.2,2.1C11,2.4,12.4,4,12.4,5.9v2H9.2
	V2.1z M4.6,9.8h2v2h-2V9.8z M10.5,9.8h2v2h-2V9.8z M3.9,14.4v1.3H2.6V17h5.2v-2.6H3.9z M9.2,14.4V17h5.2v-1.3h-1.3v-1.3H9.2z"/>
</svg>
