<?xml version="1.0" encoding="UTF-8" standalone="no"?> <!-- Created with Inkscape (http://www.inkscape.org/) -->  <svg xmlns:dc="http://purl.org/dc/elements/1.1/" xmlns:cc="http://creativecommons.org/ns#" xmlns:rdf="http://www.w3.org/1999/02/22-rdf-syntax-ns#" xmlns:svg="http://www.w3.org/2000/svg" xmlns="http://www.w3.org/2000/svg" version="1.1" width="11" height="11" id="svg4764"> <defs id="defs4766" /> <metadata id="metadata4769"> <rdf:RDF> <cc:Work rdf:about=""> <dc:format>image/svg+xml</dc:format> <dc:type rdf:resource="http://purl.org/dc/dcmitype/StillImage" /> <dc:title></dc:title> </cc:Work> </rdf:RDF> </metadata>  <path d="M 5,1 4,2 4,7 4,8 9,8 9,7 9,2 8,1 5,1 z M 6,2 7,2 8,3 8,4 5,4 5,3 6,2 z M 5,6 6,6 6,7 5,7 5,6 z M 7,6 8,6 8,7 7,7 7,6 z M 4,8.5 4,9 3,9 3,10 6,10 6,9 6,8.5 4,8.5 z M 6.96875,8.5 7,9 l 0,1 3,0 0,-1 -1,0 0,-0.5 -2.03125,0 z" id="path3108" style="fill:#000000;fill-opacity:1;stroke:none" /> </svg>