<?xml version="1.0" encoding="UTF-8" standalone="no"?> <!-- Created with Inkscape (http://www.inkscape.org/) -->  <svg xmlns:dc="http://purl.org/dc/elements/1.1/" xmlns:cc="http://creativecommons.org/ns#" xmlns:rdf="http://www.w3.org/1999/02/22-rdf-syntax-ns#" xmlns:svg="http://www.w3.org/2000/svg" xmlns="http://www.w3.org/2000/svg" xmlns:inkscape="http://www.inkscape.org/namespaces/inkscape" version="1.1" width="11" height="11" id="svg4764"> <defs id="defs4766" /> <metadata id="metadata4769"> <rdf:RDF> <cc:Work rdf:about=""> <dc:format>image/svg+xml</dc:format> <dc:type rdf:resource="http://purl.org/dc/dcmitype/StillImage" /> <dc:title /> </cc:Work> </rdf:RDF> </metadata>     <path d="m 0,0 c -2.20914,0 -4,1.7909 -4,4 0,2.2091 1.79086,4 4,4 0.71498,0 1.38793,-0.2026 1.96875,-0.5312 -0.15181,0.02 -0.31145,0.031 -0.46875,0.031 -1.93297,0 -3.5,-1.567 -3.5,-3.5 0,-1.933 1.56703,-3.5 3.5,-3.5 0.1573,0 0.31694,0.011 0.46875,0.031 -0.656459,-0.3737 -1.214844,-0.5308 -1.96875,-0.5308 z m 3,1.5 -1,1.5 -1,0 1,1.5 -0.5,1.5 1.5,-1 1.5,1 -0.5,-1.5 1,-1.5 -1,0 z" inkscape:connector-curvature="0" id="path16908" style="color:#000000;fill:#000000;fill-opacity:1;fill-rule:nonzero;stroke:none;stroke-width:2;marker:none;visibility:visible;display:inline;overflow:visible;enable-background:accumulate" />    </svg>