<?xml version="1.0" encoding="utf-8"?>
<!-- Generator: Adobe Illustrator 17.1.0, SVG Export Plug-In . SVG Version: 6.00 Build 0)  -->
<!DOCTYPE svg PUBLIC "-//W3C//DTD SVG 1.1//EN" "http://www.w3.org/Graphics/SVG/1.1/DTD/svg11.dtd">
<svg version="1.1"
	 id="svg4764" xmlns:cc="http://creativecommons.org/ns#" xmlns:svg="http://www.w3.org/2000/svg" xmlns:inkscape="http://www.inkscape.org/namespaces/inkscape" xmlns:rdf="http://www.w3.org/1999/02/22-rdf-syntax-ns#" xmlns:dc="http://purl.org/dc/elements/1.1/"
	 xmlns="http://www.w3.org/2000/svg" xmlns:xlink="http://www.w3.org/1999/xlink" x="0px" y="0px" viewBox="0 0 11 11"
	 enable-background="new 0 0 11 11" xml:space="preserve">
<path id="path16908" inkscape:connector-curvature="0" d="M4.9,0C2.2,0,0,2.2,0,4.9s2.2,4.9,4.9,4.9c0.9,0,1.7-0.2,2.4-0.6
	c-0.2,0-0.4,0-0.6,0c-2.4,0-4.3-1.9-4.3-4.3s1.9-4.3,4.3-4.3c0.2,0,0.4,0,0.6,0C6.5,0.2,5.8,0,4.9,0z M8.5,1.8L7.3,3.7H6.1l1.2,1.8
	L6.7,7.3l1.8-1.2l1.8,1.2L9.8,5.5L11,3.7H9.8L8.5,1.8z"/>
</svg>
