<?xml version="1.0" encoding="utf-8"?>
<!-- Generator: Adobe Illustrator 17.1.0, SVG Export Plug-In . SVG Version: 6.00 Build 0)  -->
<!DOCTYPE svg PUBLIC "-//W3C//DTD SVG 1.1//EN" "http://www.w3.org/Graphics/SVG/1.1/DTD/svg11.dtd">
<svg version="1.1"
	 id="svg4619" xmlns:cc="http://creativecommons.org/ns#" xmlns:svg="http://www.w3.org/2000/svg" xmlns:inkscape="http://www.inkscape.org/namespaces/inkscape" xmlns:rdf="http://www.w3.org/1999/02/22-rdf-syntax-ns#" xmlns:dc="http://purl.org/dc/elements/1.1/"
	 xmlns="http://www.w3.org/2000/svg" xmlns:xlink="http://www.w3.org/1999/xlink" x="0px" y="0px" viewBox="0 0 17 17"
	 enable-background="new 0 0 17 17" xml:space="preserve">
<path id="path7552-2-1" inkscape:connector-curvature="0" d="M7.7,0C3.4,0,0,3.4,0,7.7s3.4,7.7,7.7,7.7c2.4,0,5-0.8,6.4-2.6
	c-0.9,0.6-2.6,1.3-3.9,1.3c-3.3,0-5.8-3.3-5.8-6.6s2.5-6.2,5.8-6.2c1.2,0,2.9,0.7,3.9,1.3C12.7,0.8,10.1,0,7.7,0z M12.3,3.4
	l-0.9,3.1H7.7L11,8l-1.3,3.6l3-2.1l2.8,2.1L14,8.1l3-1.7h-3.4L12.3,3.4z"/>
</svg>
