<?xml version="1.0" encoding="utf-8"?>
<!-- Generator: Adobe Illustrator 17.1.0, SVG Export Plug-In . SVG Version: 6.00 Build 0)  -->
<!DOCTYPE svg PUBLIC "-//W3C//DTD SVG 1.1//EN" "http://www.w3.org/Graphics/SVG/1.1/DTD/svg11.dtd">
<svg version="1.1"
	 id="svg4619" xmlns:cc="http://creativecommons.org/ns#" xmlns:svg="http://www.w3.org/2000/svg" xmlns:inkscape="http://www.inkscape.org/namespaces/inkscape" xmlns:rdf="http://www.w3.org/1999/02/22-rdf-syntax-ns#" xmlns:dc="http://purl.org/dc/elements/1.1/"
	 xmlns="http://www.w3.org/2000/svg" xmlns:xlink="http://www.w3.org/1999/xlink" x="0px" y="0px" viewBox="0 0 17 17"
	 enable-background="new 0 0 17 17" xml:space="preserve">
<path id="rect6396-83" inkscape:connector-curvature="0" d="M4.2,0H3c0,1.6,0,3.9,0,5.5c0,0.9,1.2,0.9,1.2,1.8v8.5
	c0,0.5,0.6,1.2,1.2,1.2s1.2-0.6,1.2-1.2V7.3c0-0.9,1.2-0.9,1.2-1.8c0-1.6,0-3.9,0-5.5H6.7v3.6H6.1V0H4.9v3.6H4.2V0z M14,0
	c-0.9,0-2.4,0.6-3,1.8c-0.5,0.9-0.6,3-0.6,4.2v3.6c0,0.6,0.7,1.2,1.2,1.2v4.9c0,0.6,0.6,1.2,1.2,1.2c0.6,0,1.2-0.6,1.2-1.2V0z"/>
</svg>
