<?xml version="1.0" encoding="UTF-8" standalone="no"?> <!-- Created with Inkscape (http://www.inkscape.org/) -->  <svg xmlns:dc="http://purl.org/dc/elements/1.1/" xmlns:cc="http://creativecommons.org/ns#" xmlns:rdf="http://www.w3.org/1999/02/22-rdf-syntax-ns#" xmlns:svg="http://www.w3.org/2000/svg" xmlns="http://www.w3.org/2000/svg" xmlns:inkscape="http://www.inkscape.org/namespaces/inkscape" version="1.1" width="17" height="17" id="svg4619"> <defs id="defs4621" /> <metadata id="metadata4624"> <rdf:RDF> <cc:Work rdf:about=""> <dc:format>image/svg+xml</dc:format> <dc:type rdf:resource="http://purl.org/dc/dcmitype/StillImage" /> <dc:title /> </cc:Work> </rdf:RDF> </metadata>   <path d="m 0,0 c -1.155098,-0.047 -3.488705,0.4888 -6,3 -2.152538,2.1525 -3,5 -3,5 0,0.7174 1.2824874,2 2,2 0,0 2.847462,-0.8474 5,-3 2.234442,-2.2344 2.679746,-4.496 3,-6 l 0,-1 z m -2.232233,3.2323 c 0.488155,0.4881 0.488155,1.2796 0,1.7677 -0.488155,0.4882 -1.279612,0.4882 -1.767767,0 -0.488155,-0.4881 -0.488155,-1.2796 0,-1.7677 0.488155,-0.4882 1.279612,-0.4882 1.767767,0 z M 5,1041.3622 l -1.5,3 2.25,0 1.25,-3 z m 7,5 -3,1.25 0,2.25 3,-1.5 z" inkscape:connector-curvature="0" id="path3088-77" style="fill:#000000;fill-opacity:1;stroke:none" />   </svg>