<?xml version="1.0" encoding="utf-8"?>
<!-- Generator: Adobe Illustrator 17.1.0, SVG Export Plug-In . SVG Version: 6.00 Build 0)  -->
<!DOCTYPE svg PUBLIC "-//W3C//DTD SVG 1.1//EN" "http://www.w3.org/Graphics/SVG/1.1/DTD/svg11.dtd">
<svg version="1.1"
	 id="svg4619" xmlns:cc="http://creativecommons.org/ns#" xmlns:svg="http://www.w3.org/2000/svg" xmlns:inkscape="http://www.inkscape.org/namespaces/inkscape" xmlns:rdf="http://www.w3.org/1999/02/22-rdf-syntax-ns#" xmlns:dc="http://purl.org/dc/elements/1.1/"
	 xmlns="http://www.w3.org/2000/svg" xmlns:xlink="http://www.w3.org/1999/xlink" x="0px" y="0px" viewBox="0 0 17 17"
	 enable-background="new 0 0 17 17" xml:space="preserve">
<path id="path17507" inkscape:connector-curvature="0" d="M9.9,1.2c-0.8,0-1.4,0.6-1.4,1.4S9.1,4,9.9,4c0.8,0,1.4-0.6,1.4-1.4
	S10.7,1.2,9.9,1.2z M3.5,2.3C2.7,2.3,2,2.9,2,3.7s0.6,1.4,1.4,1.4s1.4-0.6,1.4-1.4S4.2,2.3,3.5,2.3z M11,4.6c-0.3,0-0.8,0.1-1.3,0.4
	L7,6.9c-0.7,0.5-0.1,1.4,0.6,1l1.8-1.2c0,0,0.5,0.4,0.7,1.2l0,2.1l-1.8,4.9c-0.2,0.6,0.2,0.9,0.6,0.9c0.3,0,0.5-0.2,0.7-0.5l2.3-5.1
	c0,0,0.4,2.3,2.1,2.3c1,0,1.8,0,2.4,0s0.6-0.6,0.6-0.6s0-0.6-0.6-0.6c-0.4,0-1.8,0-2.3,0c0,0-0.6,0-0.6-1.1c0-0.8-0.9-2.8-1.1-3.4
	V6.2l2.8,1.6c0.8,0.5,1.4-0.4,0.7-1l-3-1.7C12.4,4.8,11.8,4.6,11,4.6L11,4.6z M3,5.7c-0.4,0-0.6,0.2-0.8,0.4L0.3,7.9
	C0.1,8.1,0,8.3,0,8.6c0,0.4,0.6,0.6,1,0.3l1.6-1.6c0.4,0,0.8,0,0.8,0.6v2.4l-1.3,3.4c-0.4,0.9,1,1.2,1.3,0.4l1.3-3.4
	c0,0,0.4,0.6,1.3,0.6h2.5c0.8,0,0.8-1.1,0-1.1H6.2c0,0-0.6,0-0.6-0.6V8.8c0-1.7-0.6-3.1-1.4-3.1H3z"/>
</svg>
