<?xml version="1.0" encoding="UTF-8" standalone="no"?> <!-- Created with Inkscape (http://www.inkscape.org/) -->  <svg xmlns:dc="http://purl.org/dc/elements/1.1/" xmlns:cc="http://creativecommons.org/ns#" xmlns:rdf="http://www.w3.org/1999/02/22-rdf-syntax-ns#" xmlns:svg="http://www.w3.org/2000/svg" xmlns="http://www.w3.org/2000/svg" xmlns:inkscape="http://www.inkscape.org/namespaces/inkscape" version="1.1" width="17" height="17" id="svg4619"> <defs id="defs4621" /> <metadata id="metadata4624"> <rdf:RDF> <cc:Work rdf:about=""> <dc:format>image/svg+xml</dc:format> <dc:type rdf:resource="http://purl.org/dc/dcmitype/StillImage" /> <dc:title /> </cc:Work> </rdf:RDF> </metadata>     <path d="m 0,0 c -0.76471,0 -1.61475,0.7502 -1.76471,1.5 l -0.5,2.5 -1,0 c -0.38235,0 -1,0.6177 -1,1 l -1,8.2353 c 0,0.3823 0.5,0.7647 1,0.7647 l 11,0 c 0.5,0 1,-0.3824 1,-0.7647 l -1,-8.2353 c 0,-0.3823 -0.61765,-1 -1,-1 l -1,0 -0.5,-2.5 c -0.14996,-0.7498 -0.99999,-1.5 -1.7647,-1.5 z m 0,0.7647 2.47059,0 c 0.38236,0 0.92503,0.3604 1,0.7353 l 0.5,2.5 -5.4706,0 0.50001,-2.5 c 0.075,-0.3749 0.61764,-0.7353 1,-0.7353 z" inkscape:connector-curvature="0" id="rect13131-6-2" style="color:#000000;fill:#000000;fill-opacity:1;fill-rule:nonzero;stroke:none;stroke-width:2;marker:none;visibility:visible;display:inline;overflow:visible;enable-background:accumulate" />     </svg>