<?xml version="1.0" encoding="UTF-8" standalone="no"?> <!-- Created with Inkscape (http://www.inkscape.org/) -->  <svg xmlns:dc="http://purl.org/dc/elements/1.1/" xmlns:cc="http://creativecommons.org/ns#" xmlns:rdf="http://www.w3.org/1999/02/22-rdf-syntax-ns#" xmlns:svg="http://www.w3.org/2000/svg" xmlns="http://www.w3.org/2000/svg" xmlns:inkscape="http://www.inkscape.org/namespaces/inkscape" version="1.1" width="11" height="11" id="svg4764"> <defs id="defs4766" /> <metadata id="metadata4769"> <rdf:RDF> <cc:Work rdf:about=""> <dc:format>image/svg+xml</dc:format> <dc:type rdf:resource="http://purl.org/dc/dcmitype/StillImage" /> <dc:title /> </cc:Work> </rdf:RDF> </metadata>     <path d="m 0,0 c -0.5,0 -0.92565,0.5056 -1,1 l -0.17188,1.5 -1,0 c -0.25,0 -0.5,0.25 -0.5,0.5 l -0.5,5 c 0,0.25 0.25,0.5 0.5,0.5 l 8,0 c 0.25,0 0.5,-0.25 0.5,-0.5 l -0.5,-5 c 0,-0.25 -0.25,-0.5 -0.5,-0.5 l -1,0 -0.17187,-1.5 c -0.0569,-0.4967 -0.5,-1 -1,-1 z m 0,0.5 2.65625,0 c 0.25,0 0.4679,0.2199 0.5,0.5 l 0.17187,1.5 -4,0 0.17188,-1.5 c 0.0285,-0.2483 0.25,-0.5 0.5,-0.5 z" inkscape:connector-curvature="0" id="rect13131-6-6" style="color:#000000;fill:#000000;fill-opacity:1;fill-rule:nonzero;stroke:none;stroke-width:2;marker:none;visibility:visible;display:inline;overflow:visible;enable-background:accumulate" />    </svg>