<?xml version="1.0" encoding="utf-8"?>
<!-- Generator: Adobe Illustrator 17.1.0, SVG Export Plug-In . SVG Version: 6.00 Build 0)  -->
<!DOCTYPE svg PUBLIC "-//W3C//DTD SVG 1.1//EN" "http://www.w3.org/Graphics/SVG/1.1/DTD/svg11.dtd">
<svg version="1.1"
	 id="svg4619" xmlns:cc="http://creativecommons.org/ns#" xmlns:svg="http://www.w3.org/2000/svg" xmlns:inkscape="http://www.inkscape.org/namespaces/inkscape" xmlns:rdf="http://www.w3.org/1999/02/22-rdf-syntax-ns#" xmlns:dc="http://purl.org/dc/elements/1.1/"
	 xmlns="http://www.w3.org/2000/svg" xmlns:xlink="http://www.w3.org/1999/xlink" x="0px" y="0px" viewBox="0 0 17 17"
	 enable-background="new 0 0 17 17" xml:space="preserve">
<path id="path17" inkscape:connector-curvature="0" d="M15.7,3.9h-3.9V2.6c0-0.7-0.6-1.3-1.3-1.3H6.5c-0.7,0-1.3,0.6-1.3,1.3v1.3
	H1.3C0.6,3.9,0,4.5,0,5.2v9.1c0,0.7,0.6,1.3,1.3,1.3h14.4c0.7,0,1.3-0.6,1.3-1.3V5.2C17,4.5,16.4,3.9,15.7,3.9z M6.5,2.6h3.9v1.3
	H6.5V2.6z M3.9,14.4H2.6V5.2h1.3V14.4z M14.4,14.4h-1.3V5.2h1.3V14.4z"/>
</svg>
