<?xml version="1.0" encoding="UTF-8" standalone="no"?> <!-- Created with Inkscape (http://www.inkscape.org/) -->  <svg xmlns:dc="http://purl.org/dc/elements/1.1/" xmlns:cc="http://creativecommons.org/ns#" xmlns:rdf="http://www.w3.org/1999/02/22-rdf-syntax-ns#" xmlns:svg="http://www.w3.org/2000/svg" xmlns="http://www.w3.org/2000/svg" xmlns:inkscape="http://www.inkscape.org/namespaces/inkscape" version="1.1" width="17" height="17" id="svg4619"> <defs id="defs4621" /> <metadata id="metadata4624"> <rdf:RDF> <cc:Work rdf:about=""> <dc:format>image/svg+xml</dc:format> <dc:type rdf:resource="http://purl.org/dc/dcmitype/StillImage" /> <dc:title /> </cc:Work> </rdf:RDF> </metadata>     <path d="m 0,0 c -0.11423,0 -0.31333,0.048 -0.40625,0.094 l -2.875,1.4063 c -0.38453,0.182 -0.53485,0.7521 -0.28125,1.0937 l 0.875,1.1875 -3.71875,2.1563 2,0.8125 2.15625,-0.875 2.15625,0.875 0.84375,-0.875 -2.59375,-3.4688 2.1875,-1.125 c 0.43476,-0.2174 0.42006,-0.5902 0.375,-0.8125 -0.0427,-0.2107 -0.32173,-0.4687 -0.71875,-0.4687 z m 1.75,2.375 c -0.82843,0 -1.5,0.6716 -1.5,1.5 0,0.8284 0.67157,1.5 1.5,1.5 0.82843,0 1.5,-0.6716 1.5,-1.5 0,-0.8284 -0.67157,-1.5 -1.5,-1.5 z m -4,4.5 -2,1 -2.5,-0.9375 -2,0.9375 0,1.5 2,-1 2.5,1 2,-1.0625 2,1.0625 2,-1.0625 2.5,1.0625 0,-1.5 -2.5,-1 -2,1 -2,-1 z" inkscape:connector-curvature="0" id="path16388" style="color:#000000;fill:#000000;fill-opacity:1;fill-rule:nonzero;stroke:none;stroke-width:2;marker:none;visibility:visible;display:inline;overflow:visible;enable-background:accumulate" />     </svg>