<?xml version="1.0" encoding="utf-8"?>
<!-- Generator: Adobe Illustrator 17.1.0, SVG Export Plug-In . SVG Version: 6.00 Build 0)  -->
<!DOCTYPE svg PUBLIC "-//W3C//DTD SVG 1.1//EN" "http://www.w3.org/Graphics/SVG/1.1/DTD/svg11.dtd">
<svg version="1.1"
	 id="svg4619" xmlns:cc="http://creativecommons.org/ns#" xmlns:svg="http://www.w3.org/2000/svg" xmlns:inkscape="http://www.inkscape.org/namespaces/inkscape" xmlns:rdf="http://www.w3.org/1999/02/22-rdf-syntax-ns#" xmlns:dc="http://purl.org/dc/elements/1.1/"
	 xmlns="http://www.w3.org/2000/svg" xmlns:xlink="http://www.w3.org/1999/xlink" x="0px" y="0px" viewBox="0 0 17 17"
	 enable-background="new 0 0 17 17" xml:space="preserve">
<path id="path16388" inkscape:connector-curvature="0" d="M11.4,2.4c-0.1,0-0.4,0.1-0.5,0.1L7.2,4.3c-0.5,0.2-0.7,1-0.4,1.4l1.1,1.6
	l-4.9,2.8l2.6,1.1l2.8-1.1l2.8,1.1l1.1-1.1L9,5.5L11.9,4c0.6-0.3,0.5-0.8,0.5-1.1C12.3,2.7,12,2.4,11.4,2.4L11.4,2.4z M13.7,5.5
	c-1.1,0-2,0.9-2,2s0.9,2,2,2s2-0.9,2-2S14.8,5.5,13.7,5.5z M8.5,11.4l-2.6,1.3l-3.3-1.2L0,12.7v2l2.6-1.3l3.3,1.3l2.6-1.4l2.6,1.4
	l2.6-1.4l3.3,1.4v-2l-3.3-1.3l-2.6,1.3L8.5,11.4z"/>
</svg>
