<?xml version="1.0" encoding="UTF-8" standalone="no"?> <!-- Created with Inkscape (http://www.inkscape.org/) -->  <svg xmlns:dc="http://purl.org/dc/elements/1.1/" xmlns:cc="http://creativecommons.org/ns#" xmlns:rdf="http://www.w3.org/1999/02/22-rdf-syntax-ns#" xmlns:svg="http://www.w3.org/2000/svg" xmlns="http://www.w3.org/2000/svg" xmlns:inkscape="http://www.inkscape.org/namespaces/inkscape" version="1.1" width="17" height="17" id="svg4619"> <defs id="defs4621" /> <metadata id="metadata4624"> <rdf:RDF> <cc:Work rdf:about=""> <dc:format>image/svg+xml</dc:format> <dc:type rdf:resource="http://purl.org/dc/dcmitype/StillImage" /> <dc:title /> </cc:Work> </rdf:RDF> </metadata> <path d="m 0,0 c -0.38889,0 -0.78125,0.3924 -0.78125,0.7813 l 0,5.5 c 0,1.7236 0.76389,3.7812 3.875,3.7812 0.27897,0 -0.11909,-0.027 0.125,-0.062 l 0,-2 -2.5,0 c 0,0 0.5555,-2 2.5,-2 l 0,-1.6562 c 0,-0.713 0.10973,-1.454 0.5,-1.8443 0.39026,-0.3903 0.88818,-1.308 2.5,-0.5005 l 1,0.5005 0,-1.7182 c 0,-0.3889 -0.39236,-0.7813 -0.78125,-0.7813 -0.72222,0 -2.21875,1 -3.21875,1 -1,0 -2.49653,-1 -3.21875,-1 z m 1.21875,2 c 0.55228,0 1,0.4477 1,1 0,0.5523 -0.44772,1 -1,1 -0.55228,0 -1,-0.4477 -1,-1 0,-0.5523 0.44772,-1 1,-1 z m 3.78125,1 c -0.36665,0 -0.78125,0.3924 -0.78125,0.7813 l 0,5.2187 c 0,1.7236 0.88889,4 4,4 3.11111,0 4,-2.2764 4,-4 l 0,-5.2187 c 0,-0.3889 -0.4146,-0.7813 -0.78125,-0.7813 -0.72222,0 -2.21875,1 -3.21875,1 -1,0 -2.49653,-1 -3.21875,-1 z m 1.21875,2 c 0.55228,0 1,0.4477 1,1 0,0.5523 -0.44772,1 -1,1 -0.55228,0 -1,-0.4477 -1,-1 0,-0.5523 0.44772,-1 1,-1 z m 4,0 c 0.55228,0 1,0.4477 1,1 0,0.5523 -0.44772,1 -1,1 -0.55228,0 -1,-0.4477 -1,-1 0,-0.5523 0.44772,-1 1,-1 z m -4.5,4 2.5625,0 2.4375,0 c 0,0 -0.55555,2 -2.5,2 -1.94444,0 -2.5,-2 -2.5,-2 z" inkscape:connector-curvature="0" id="path6342-3" style="color:#000000;fill:#000000;fill-opacity:1;fill-rule:nonzero;stroke:none;stroke-width:0.055;marker:none;visibility:visible;display:inline;overflow:visible;enable-background:accumulate" /> </svg>