<?xml version="1.0" encoding="utf-8"?>
<!-- Generator: Adobe Illustrator 17.1.0, SVG Export Plug-In . SVG Version: 6.00 Build 0)  -->
<!DOCTYPE svg PUBLIC "-//W3C//DTD SVG 1.1//EN" "http://www.w3.org/Graphics/SVG/1.1/DTD/svg11.dtd">
<svg version="1.1"
	 id="svg4764" xmlns:cc="http://creativecommons.org/ns#" xmlns:svg="http://www.w3.org/2000/svg" xmlns:inkscape="http://www.inkscape.org/namespaces/inkscape" xmlns:rdf="http://www.w3.org/1999/02/22-rdf-syntax-ns#" xmlns:dc="http://purl.org/dc/elements/1.1/"
	 xmlns="http://www.w3.org/2000/svg" xmlns:xlink="http://www.w3.org/1999/xlink" x="0px" y="0px" viewBox="0 0 11 11"
	 enable-background="new 0 0 11 11" xml:space="preserve">
<path id="path6370" inkscape:connector-curvature="0" d="M0.6,0.7C0.3,0.7,0,1,0,1.3v3.7c0,1.4,0.6,3,3,3c0.2,0,0.4,0,0.6,0V6.2H1.2
	c0,0,0.3-1.2,1.8-1.2c0.3,0,0.4,0,0.6,0.1V3.7c0-0.6,0.2-1,0.6-1.3c0.3-0.3,0.7-0.5,1.3-0.5h0.6V1.3c0-0.3-0.3-0.6-0.6-0.6
	C4.9,0.7,4.3,1.3,3,1.3C2,1.3,1.2,0.7,0.6,0.7z M1.8,3.1c0.3,0,0.6,0.3,0.6,0.6S2.2,4.3,1.8,4.3S1.2,4.1,1.2,3.7S1.5,3.1,1.8,3.1z
	 M5.5,3.1c-0.3,0-0.6,0.3-0.6,0.6v3.7c0,1.4,0.6,3,3,3s3-1.7,3-3V3.7c0-0.3-0.3-0.6-0.6-0.6c-0.6,0-1.5,0.6-2.4,0.6S6.1,3.1,5.5,3.1
	z M6.7,5.5c0.3,0,0.6,0.3,0.6,0.6c0,0.3-0.3,0.6-0.6,0.6S6.1,6.5,6.1,6.2C6.1,5.8,6.4,5.5,6.7,5.5z M9.1,5.5c0.3,0,0.6,0.3,0.6,0.6
	c0,0.3-0.3,0.6-0.6,0.6S8.5,6.5,8.5,6.2C8.5,5.8,8.8,5.5,9.1,5.5z M6.1,8h3.7c0,0-0.3,1.2-1.8,1.2S6.1,8,6.1,8z"/>
</svg>
