<?xml version="1.0" encoding="utf-8"?>
<!-- Generator: Adobe Illustrator 17.1.0, SVG Export Plug-In . SVG Version: 6.00 Build 0)  -->
<!DOCTYPE svg PUBLIC "-//W3C//DTD SVG 1.1//EN" "http://www.w3.org/Graphics/SVG/1.1/DTD/svg11.dtd">
<svg version="1.1"
	 id="svg4619" xmlns:cc="http://creativecommons.org/ns#" xmlns:svg="http://www.w3.org/2000/svg" xmlns:inkscape="http://www.inkscape.org/namespaces/inkscape" xmlns:rdf="http://www.w3.org/1999/02/22-rdf-syntax-ns#" xmlns:dc="http://purl.org/dc/elements/1.1/"
	 xmlns="http://www.w3.org/2000/svg" xmlns:xlink="http://www.w3.org/1999/xlink" x="0px" y="0px" viewBox="0 0 17 17"
	 enable-background="new 0 0 17 17" xml:space="preserve">
<path id="path6342-3" inkscape:connector-curvature="0" d="M1,0C0.5,0,0,0.5,0,1v7.2c0,2.2,1,4.9,5,4.9c0.4,0-0.2,0,0.2-0.1v-2.6H2
	c0,0,0.7-2.6,3.3-2.6V5.7c0-0.9,0.1-1.9,0.7-2.4C6.4,2.7,7,1.6,9.1,2.6l1.3,0.7V1c0-0.5-0.5-1-1-1C8.5,0,6.5,1.3,5.2,1.3S2,0,1,0
	L1,0z M2.6,2.6c0.7,0,1.3,0.6,1.3,1.3S3.3,5.2,2.6,5.2S1.3,4.6,1.3,3.9S1.9,2.6,2.6,2.6z M7.5,3.9c-0.5,0-1,0.5-1,1v6.8
	c0,2.2,1.2,5.2,5.2,5.2s5.2-3,5.2-5.2V4.9c0-0.5-0.5-1-1-1c-0.9,0-2.9,1.3-4.2,1.3S8.5,3.9,7.5,3.9z M9.1,6.5c0.7,0,1.3,0.6,1.3,1.3
	c0,0.7-0.6,1.3-1.3,1.3S7.8,8.5,7.8,7.8C7.8,7.1,8.4,6.5,9.1,6.5z M14.3,6.5c0.7,0,1.3,0.6,1.3,1.3c0,0.7-0.6,1.3-1.3,1.3
	c-0.7,0-1.3-0.6-1.3-1.3C13,7.1,13.6,6.5,14.3,6.5z M8.5,11.7h3.3H15c0,0-0.7,2.6-3.3,2.6C9.2,14.3,8.5,11.7,8.5,11.7z"/>
</svg>
