<?xml version="1.0" encoding="utf-8"?>
<!-- Generator: Adobe Illustrator 17.1.0, SVG Export Plug-In . SVG Version: 6.00 Build 0)  -->
<!DOCTYPE svg PUBLIC "-//W3C//DTD SVG 1.1//EN" "http://www.w3.org/Graphics/SVG/1.1/DTD/svg11.dtd">
<svg version="1.1"
	 id="svg4619" xmlns:cc="http://creativecommons.org/ns#" xmlns:svg="http://www.w3.org/2000/svg" xmlns:rdf="http://www.w3.org/1999/02/22-rdf-syntax-ns#" xmlns:dc="http://purl.org/dc/elements/1.1/"
	 xmlns="http://www.w3.org/2000/svg" xmlns:xlink="http://www.w3.org/1999/xlink" x="0px" y="0px" viewBox="0 0 17 17"
	 enable-background="new 0 0 17 17" xml:space="preserve">
<path id="rect7645-6-5-0-1-2" d="M8.5,0.1L1.3,4h14.3L8.5,0.1z M2.6,5.3C2,5.3,1.3,5.9,1.3,6.5v6.6L0,16.3C0,16.8,0.3,17,0.7,17
	h15.6c0.3,0,0.7-0.2,0.7-0.7l-1.3-3.3V6.5c0-0.6-0.7-1.2-1.3-1.2H2.6z M4.6,6.6l0.7,0.7v2v3.9H3.9V9.2v-2L4.6,6.6z M8.5,6.6l0.7,0.7
	v2v3.9H7.8V9.2v-2L8.5,6.6z M12.4,6.6L13,7.2v2v3.9h-1.3V9.2v-2L12.4,6.6z"/>
</svg>
