<?xml version="1.0" encoding="UTF-8" standalone="no"?>
<!-- Created with Inkscape (http://www.inkscape.org/) -->

<svg
   xmlns:dc="http://purl.org/dc/elements/1.1/"
   xmlns:cc="http://creativecommons.org/ns#"
   xmlns:rdf="http://www.w3.org/1999/02/22-rdf-syntax-ns#"
   xmlns:svg="http://www.w3.org/2000/svg"
   xmlns="http://www.w3.org/2000/svg"
   xmlns:sodipodi="http://sodipodi.sourceforge.net/DTD/sodipodi-0.dtd"
   xmlns:inkscape="http://www.inkscape.org/namespaces/inkscape"
   version="1.1"
   width="11"
   height="11"
   id="svg4764"
   inkscape:version="0.91+devel+osxmenu r12911"
   sodipodi:docname="zoo-11.svg"
   viewBox="0 0 11 11">
  <sodipodi:namedview
     pagecolor="#ffffff"
     bordercolor="#666666"
     borderopacity="1"
     objecttolerance="10"
     gridtolerance="10"
     guidetolerance="10"
     inkscape:pageopacity="0"
     inkscape:pageshadow="2"
     inkscape:window-width="640"
     inkscape:window-height="480"
     id="namedview3394"
     inkscape:document-units="px"
     showgrid="false"
     inkscape:zoom="21.454545"
     inkscape:cx="5.5"
     inkscape:cy="5.5"
     inkscape:window-x="0"
     inkscape:window-y="23"
     inkscape:window-maximized="0"
     inkscape:current-layer="svg4764" />
  <defs
     id="defs4766" />
  <metadata
     id="metadata4769">
    <rdf:RDF>
      <cc:Work
         rdf:about="">
        <dc:format>image/svg+xml</dc:format>
        <dc:type
           rdf:resource="http://purl.org/dc/dcmitype/StillImage" />
        <dc:title />
      </cc:Work>
    </rdf:RDF>
  </metadata>
  <path
     d="M 8,0 C 7,1.5 7.10789,3.0026 6,4 4.94168,4.9528 2.5,4.6257 2.5,6 l 0,0.5 C 2.5,7 3,7.4758 3,8 L 3,8.5 C 3,9.25 2.75,9.25 2.5,10 L 3,10 4,8.5 4,10 l 0.5,0 0,-3 1,0 0,3 L 6,10 6,7.5 7,7.5 7.5,10 8,10 7.5,6 c 0,-0.466 0,-1 0,-1.5 l 1,-3.5 1,0 c 0,-0.1667 0,-0.8333 0,-1 z"
     inkscape:connector-curvature="0"
     id="path10518"
     style="color:#000000;display:inline;overflow:visible;visibility:visible;fill:#000000;fill-opacity:1;fill-rule:nonzero;stroke:none;stroke-width:2;marker:none;enable-background:accumulate" />
</svg>
