<?xml version="1.0" encoding="UTF-8" standalone="no"?>
<!-- Generator: Adobe Illustrator 17.1.0, SVG Export Plug-In . SVG Version: 6.00 Build 0)  -->

<svg
   xmlns:dc="http://purl.org/dc/elements/1.1/"
   xmlns:cc="http://creativecommons.org/ns#"
   xmlns:rdf="http://www.w3.org/1999/02/22-rdf-syntax-ns#"
   xmlns:svg="http://www.w3.org/2000/svg"
   xmlns="http://www.w3.org/2000/svg"
   xmlns:sodipodi="http://sodipodi.sourceforge.net/DTD/sodipodi-0.dtd"
   xmlns:inkscape="http://www.inkscape.org/namespaces/inkscape"
   version="1.1"
   id="svg4619"
   inkscape:version="0.91 r13725"
   sodipodi:docname="airfield-17.svg"
   x="0px"
   y="0px"
   viewBox="0 0 17 17"
   enable-background="new 0 0 17 17"
   xml:space="preserve"><metadata
     id="metadata8"><rdf:RDF><cc:Work
         rdf:about=""><dc:format>image/svg+xml</dc:format><dc:type
           rdf:resource="http://purl.org/dc/dcmitype/StillImage" /><dc:title></dc:title></cc:Work></rdf:RDF></metadata><defs
     id="defs6" /><sodipodi:namedview
     inkscape:window-x="0"
     inkscape:window-y="23"
     inkscape:window-width="1280"
     inkscape:pageopacity="0"
     inkscape:window-height="755"
     inkscape:current-layer="svg4619"
     inkscape:window-maximized="0"
     inkscape:document-units="px"
     inkscape:pageshadow="2"
     id="namedview3346"
     gridtolerance="10"
     borderopacity="1"
     bordercolor="#666666"
     inkscape:cx="8.1270969"
     guidetolerance="10"
     showgrid="true"
     pagecolor="#ffffff"
     inkscape:cy="9.0765581"
     objecttolerance="10"
     inkscape:zoom="27.764706"
     inkscape:snap-intersection-paths="true"
     inkscape:snap-bbox="true"
     inkscape:object-nodes="true"><inkscape:grid
       type="xygrid"
       id="grid3336"
       spacingx="0.5"
       spacingy="0.5"
       empspacing="2"
       color="#b70036"
       opacity="0.1254902" /></sodipodi:namedview><path
       style="fill:#000000;fill-opacity:1"
     d="M 16.5,11 17,9.5 10,7 10,4 C 10,2 9,1 9,1 l 3.5,0 C 12.8,1 13,0.8 13,0.5 13,0.2 12.8,0 12.5,0 l -8,0 C 4.2,0 4,0.2 4,0.5 4,0.8 4.2,1 4.5,1 L 8,1 C 8,1 7,2 7,4 L 7,7 0,9.5 0.5,11 7,10.5 l 0,4 -3.5,1.5 0.5,1 9,0 0.5,-1 -3.5,-1.5 0,-4 z"
     id="path4"
     inkscape:connector-curvature="0"
     sodipodi:nodetypes="cccscsssssscscccccccccccc" /></svg>