<?xml version="1.0" encoding="UTF-8" standalone="no"?>
<!-- Created with Inkscape (http://www.inkscape.org/) -->

<svg
   xmlns:dc="http://purl.org/dc/elements/1.1/"
   xmlns:cc="http://creativecommons.org/ns#"
   xmlns:rdf="http://www.w3.org/1999/02/22-rdf-syntax-ns#"
   xmlns:svg="http://www.w3.org/2000/svg"
   xmlns="http://www.w3.org/2000/svg"
   xmlns:sodipodi="http://sodipodi.sourceforge.net/DTD/sodipodi-0.dtd"
   xmlns:inkscape="http://www.inkscape.org/namespaces/inkscape"
   version="1.1"
   width="15"
   height="15"
   id="svg4619"
   xml:space="preserve"
   inkscape:version="0.91+devel+osxmenu r12911"
   sodipodi:docname="car-15.svg"
   viewBox="0 0 13.235294 13.235294"><sodipodi:namedview
     pagecolor="#ffffff"
     bordercolor="#666666"
     borderopacity="1"
     objecttolerance="10"
     gridtolerance="10"
     guidetolerance="10"
     inkscape:pageopacity="0"
     inkscape:pageshadow="2"
     inkscape:window-width="1247"
     inkscape:window-height="755"
     id="namedview3388"
     inkscape:document-units="px"
     showgrid="true"
     inkscape:object-paths="true"
     inkscape:snap-intersection-paths="true"
     inkscape:object-nodes="true"
     inkscape:snap-smooth-nodes="true"
     inkscape:zoom="32"
     inkscape:cx="10.680203"
     inkscape:cy="6.3955438"
     inkscape:window-x="0"
     inkscape:window-y="23"
     inkscape:window-maximized="0"
     inkscape:current-layer="svg4619"
     inkscape:snap-bbox="true"
     inkscape:bbox-paths="true"
     inkscape:bbox-nodes="true"
     inkscape:snap-bbox-edge-midpoints="true"
     inkscape:snap-bbox-midpoints="true"
     showguides="true"
     inkscape:guide-bbox="true"><inkscape:grid
       type="xygrid"
       id="grid3390"
       spacingx="0.44117647"
       spacingy="0.44117647"
       color="#ff0000"
       opacity="0.1254902"
       empspacing="2" /></sodipodi:namedview><metadata
     id="metadata3166"><rdf:RDF><cc:Work
         rdf:about=""><dc:format>image/svg+xml</dc:format><dc:type
           rdf:resource="http://purl.org/dc/dcmitype/StillImage" /><dc:title></dc:title></cc:Work></rdf:RDF></metadata><defs
     id="defs3164" /><path
     inkscape:connector-curvature="0"
     style="fill:#000000;fill-opacity:1;stroke-width:0.88235289"
     d="m 3.0882353,1.7647058 c 0,0 -0.992647,0 -1.3235294,1.3235294 L 1.3235294,4.8529411 C 1.3235294,4.8529411 0,5.735294 0,7.0588234 l 0,2.6470588 c 0,0 0,0.8823528 0.88235294,0.8823528 l 0.88235296,0 -1e-7,0.882353 c -1e-7,0.882353 0.882353,0.882353 0.882353,0.882353 l 0.4411764,0 c 0,0 0.882353,0 0.882353,-0.882353 l 0,-0.882353 5.2941173,0 0,0.882353 c 0,0.882353 0.8823525,0.882353 0.8823525,0.882353 l 0.441177,0 c 0,0 0.882353,0 0.882353,-0.882353 l 0,-0.882353 0.882353,0 c 0.882353,0 0.882353,-0.8823528 0.882353,-0.8823528 l 0,-2.6470588 c 0,-1.3235294 -1.323529,-2.2058823 -1.323529,-2.2058823 L 11.470588,3.0882352 C 11.139705,1.7647058 10.147059,1.7647058 10.147059,1.7647058 Z m -0.2205883,1.3235294 7.5,0 0.220588,0.8823529 C 10.919118,5.2941175 9.7058823,5.2941175 9.7058823,5.2941175 l -6.1764705,0 c 0,0 -1.2132353,0 -0.882353,-1.3235294 z"
     id="path8522-6-8-5"
     sodipodi:nodetypes="cccccccccccccccccccccccccccccccc" /><circle
     style="opacity:1;fill:#ffffff;fill-opacity:1;stroke:none;stroke-width:2.32197142;stroke-linecap:round;stroke-linejoin:round;stroke-miterlimit:4;stroke-dasharray:none;stroke-dashoffset:0;stroke-opacity:1;marker:none"
     id="path8180"
     cx="2.8676469"
     cy="8.6029415"
     r="1.1029412" /><circle
     r="1.1029412"
     cy="8.6029415"
     cx="10.367647"
     id="circle8190"
     style="opacity:1;fill:#ffffff;fill-opacity:1;stroke:none;stroke-width:2.32197142;stroke-linecap:round;stroke-linejoin:round;stroke-miterlimit:4;stroke-dasharray:none;stroke-dashoffset:0;stroke-opacity:1;marker:none" /></svg>