<?xml version="1.0" encoding="UTF-8" standalone="no"?>
<!-- Created with Inkscape (http://www.inkscape.org/) -->

<svg
   xmlns:dc="http://purl.org/dc/elements/1.1/"
   xmlns:cc="http://creativecommons.org/ns#"
   xmlns:rdf="http://www.w3.org/1999/02/22-rdf-syntax-ns#"
   xmlns:svg="http://www.w3.org/2000/svg"
   xmlns="http://www.w3.org/2000/svg"
   xmlns:sodipodi="http://sodipodi.sourceforge.net/DTD/sodipodi-0.dtd"
   xmlns:inkscape="http://www.inkscape.org/namespaces/inkscape"
   version="1.1"
   width="11"
   height="11"
   id="svg4764"
   xml:space="preserve"
   inkscape:version="0.91 r13725"
   sodipodi:docname="car-11.svg"
   viewBox="0 0 11 11"><sodipodi:namedview
     pagecolor="#ffffff"
     bordercolor="#666666"
     borderopacity="1"
     objecttolerance="10"
     gridtolerance="10"
     guidetolerance="10"
     inkscape:pageopacity="0"
     inkscape:pageshadow="2"
     inkscape:window-width="955"
     inkscape:window-height="761"
     id="namedview3382"
     inkscape:document-units="px"
     showgrid="false"
     inkscape:zoom="39.276568"
     inkscape:cx="4.125625"
     inkscape:cy="5.6990449"
     inkscape:current-layer="svg4764"
     inkscape:snap-bbox="true"
     inkscape:bbox-paths="true"
     inkscape:bbox-nodes="true"
     inkscape:snap-bbox-edge-midpoints="true"
     inkscape:snap-bbox-midpoints="true"
     inkscape:object-paths="true"
     inkscape:snap-intersection-paths="true"
     inkscape:object-nodes="true"
     inkscape:snap-smooth-nodes="true"
     inkscape:window-x="0"
     inkscape:window-y="0"
     inkscape:window-maximized="0"><inkscape:grid
       type="xygrid"
       id="grid3333"
       spacingx="0.5"
       spacingy="0.5"
       color="#fb0000"
       opacity="0.1254902"
       empspacing="2" /></sodipodi:namedview><metadata
     id="metadata27"><rdf:RDF><cc:Work
         rdf:about=""><dc:format>image/svg+xml</dc:format><dc:type
           rdf:resource="http://purl.org/dc/dcmitype/StillImage" /><dc:title></dc:title></cc:Work></rdf:RDF></metadata><defs
     id="defs25" /><path
     style="fill:#000000;fill-opacity:1"
     d="M 2.5 0.5 L 1.5 4.5 L 0 5.5 L 0 9 L 1.5 9 L 1.5 10.5 L 3 10.5 L 3 9 L 8 9 L 8 10.5 L 9.5 10.5 L 9.5 9 L 11 9 L 11 5.5 L 9.5 4.5 L 8.5 0.5 L 2.5 0.5 z M 3.5 2 L 7.5 2 L 8 4 L 3 4 L 3.5 2 z M 2.7226562 6 A 0.75 0.75 0 0 1 3.4921875 6.6367188 L 3.4960938 6.6835938 A 0.75 0.75 0 0 1 2.828125 7.4960938 A 0.75 0.75 0 0 1 2.0058594 6.8398438 A 0.75 0.75 0 0 1 2.6484375 6.0078125 A 0.75 0.75 0 0 1 2.7226562 6 z M 8.2226562 6 A 0.75 0.75 0 0 1 8.9921875 6.6367188 L 8.9960938 6.6835938 A 0.75 0.75 0 0 1 8.328125 7.4960938 A 0.75 0.75 0 0 1 7.5058594 6.8398438 A 0.75 0.75 0 0 1 8.1484375 6.0078125 A 0.75 0.75 0 0 1 8.2226562 6 z "
     id="path8522-6-8" /></svg>