<?xml version="1.0" encoding="UTF-8" standalone="no"?>
<!-- Created with Inkscape (http://www.inkscape.org/) -->

<svg
   xmlns:dc="http://purl.org/dc/elements/1.1/"
   xmlns:cc="http://creativecommons.org/ns#"
   xmlns:rdf="http://www.w3.org/1999/02/22-rdf-syntax-ns#"
   xmlns:svg="http://www.w3.org/2000/svg"
   xmlns="http://www.w3.org/2000/svg"
   xmlns:sodipodi="http://sodipodi.sourceforge.net/DTD/sodipodi-0.dtd"
   xmlns:inkscape="http://www.inkscape.org/namespaces/inkscape"
   version="1.1"
   width="11"
   height="11"
   id="svg4764"
   xml:space="preserve"
   inkscape:version="0.91+devel+osxmenu r12911"
   sodipodi:docname="car-11.svg"
   viewBox="0 0 11 11"><sodipodi:namedview
     pagecolor="#000000"
     bordercolor="#666666"
     borderopacity="1"
     objecttolerance="10"
     gridtolerance="10"
     guidetolerance="10"
     inkscape:pageopacity="0"
     inkscape:pageshadow="2"
     inkscape:window-width="640"
     inkscape:window-height="480"
     id="namedview3382"
     inkscape:document-units="px"
     showgrid="false"
     inkscape:zoom="55.545455"
     inkscape:cx="3.2495908"
     inkscape:cy="6.0581015"
     inkscape:current-layer="svg4764" /><metadata
     id="metadata27"><rdf:RDF><cc:Work
         rdf:about=""><dc:format>image/svg+xml</dc:format><dc:type
           rdf:resource="http://purl.org/dc/dcmitype/StillImage" /><dc:title /></cc:Work></rdf:RDF></metadata><defs
     id="defs25" /><path style="fill:#000000;fill-opacity:1"
     d="M 2.4444444,0.6111111 1.2222222,4.2777778 0,5.5 l 0,3.6666667 1.2222222,0 0,1.2222223 1.2222222,0 0,-1.2222223 6.1111112,0 0,1.2222223 1.2222222,0 0,-1.2222223 1.2222222,0 L 11,5.5 9.7777778,4.2777778 8.5555556,0.6111111 Z m 1.2222223,1.2222222 3.6666666,0 0.8148189,2.4444445 -5.2963044,0 z M 1.8333333,6.7222222 c 0.3375045,0 0.6111111,0.2736556 0.6111111,0.6111111 0,0.3374556 -0.2736066,0.6111112 -0.6111111,0.6111112 -0.3375044,0 -0.6111111,-0.2736556 -0.6111111,-0.6111112 0,-0.3374555 0.2736067,-0.6111111 0.6111111,-0.6111111 z m 7.3333334,0 c 0.3375044,0 0.6111111,0.2736556 0.6111111,0.6111111 0,0.3374556 -0.2736067,0.6111112 -0.6111111,0.6111112 -0.3375045,0 -0.6111111,-0.2736556 -0.6111111,-0.6111112 0,-0.3374555 0.2736066,-0.6111111 0.6111111,-0.6111111 z"
     inkscape:connector-curvature="0"
     id="path8522-6-8"
      /></svg>
