<?xml version="1.0" encoding="UTF-8" standalone="no"?>
<!-- Created with Inkscape (http://www.inkscape.org/) -->

<svg
   xmlns:dc="http://purl.org/dc/elements/1.1/"
   xmlns:cc="http://creativecommons.org/ns#"
   xmlns:rdf="http://www.w3.org/1999/02/22-rdf-syntax-ns#"
   xmlns:svg="http://www.w3.org/2000/svg"
   xmlns="http://www.w3.org/2000/svg"
   xmlns:sodipodi="http://sodipodi.sourceforge.net/DTD/sodipodi-0.dtd"
   xmlns:inkscape="http://www.inkscape.org/namespaces/inkscape"
   version="1.1"
   width="15"
   height="15"
   id="svg4619"
   inkscape:version="0.91+devel+osxmenu r12911"
   sodipodi:docname="entrance-15.svg"
   viewBox="0 0 13.235294 13.235294">
  <sodipodi:namedview
     pagecolor="#ffffff"
     bordercolor="#666666"
     borderopacity="1"
     objecttolerance="10"
     gridtolerance="10"
     guidetolerance="10"
     inkscape:pageopacity="1"
     inkscape:pageshadow="2"
     inkscape:window-width="640"
     inkscape:window-height="480"
     id="namedview3358"
     inkscape:document-units="px"
     showgrid="true"
     inkscape:zoom="25.41425"
     inkscape:cx="2.9668058"
     inkscape:cy="6.6320715"
     inkscape:current-layer="svg4619"
     inkscape:snap-bbox="true"
     inkscape:bbox-paths="true"
     inkscape:bbox-nodes="true"
     inkscape:object-paths="true"
     inkscape:snap-intersection-paths="true"
     inkscape:object-nodes="true">
    <inkscape:grid
       type="xygrid"
       id="grid5808" />
  </sodipodi:namedview>
  <defs
     id="defs4621" />
  <metadata
     id="metadata4624">
    <rdf:RDF>
      <cc:Work
         rdf:about="">
        <dc:format>image/svg+xml</dc:format>
        <dc:type
           rdf:resource="http://purl.org/dc/dcmitype/StillImage" />
        <dc:title />
      </cc:Work>
    </rdf:RDF>
  </metadata>
  <path
     inkscape:connector-curvature="0"
     style="opacity:1;fill:#000000;fill-opacity:1;stroke:none;stroke-width:2.32197142;stroke-linecap:round;stroke-linejoin:round;stroke-miterlimit:4;stroke-dasharray:none;stroke-dashoffset:0;stroke-opacity:1;marker:none"
     d="m 0.88235293,1.7647059 0,9.7058821 c 0,0 0,0.882353 0.88235297,0.882353 l 9.7058821,0 c 0,0 0.882353,0 0.882353,-0.882353 l 0,-2.6470587 c 0,0 0,-0.8823529 -0.882353,-0.8823529 l -2.6470585,6e-7 c 0,0 -2e-7,-1.7647063 -2e-7,-2.6470594 0,-0.8823529 -0.8823529,-0.8823529 -0.8823529,-0.8823529 l -2.6470587,0 -1e-7,-2.6470588 c 0,0 0,-0.88235297 -0.8823529,-0.88235297 l -2.6470588,0 c 0,0 -0.88235297,0 -0.88235297,0.88235297 z"
     id="rect4696"
     sodipodi:nodetypes="ccccccccscccscc" />
</svg>
