<?xml version="1.0" encoding="UTF-8" standalone="no"?>
<!-- Created with Inkscape (http://www.inkscape.org/) -->

<svg
   xmlns:dc="http://purl.org/dc/elements/1.1/"
   xmlns:cc="http://creativecommons.org/ns#"
   xmlns:rdf="http://www.w3.org/1999/02/22-rdf-syntax-ns#"
   xmlns:svg="http://www.w3.org/2000/svg"
   xmlns="http://www.w3.org/2000/svg"
   xmlns:sodipodi="http://sodipodi.sourceforge.net/DTD/sodipodi-0.dtd"
   xmlns:inkscape="http://www.inkscape.org/namespaces/inkscape"
   version="1.1"
   width="15"
   height="15"
   id="svg4619"
   inkscape:version="0.91+devel+osxmenu r12911"
   sodipodi:docname="heliport-15.svg"
   viewBox="0 0 13.235294 13.235294">
  <sodipodi:namedview
     pagecolor="#ffffff"
     bordercolor="#666666"
     borderopacity="1"
     objecttolerance="10"
     gridtolerance="10"
     guidetolerance="10"
     inkscape:pageopacity="0"
     inkscape:pageshadow="2"
     inkscape:window-width="1060"
     inkscape:window-height="735"
     id="namedview3340"
     inkscape:document-units="px"
     showgrid="true"
     inkscape:snap-bbox="true"
     inkscape:bbox-nodes="true"
     inkscape:bbox-paths="true"
     inkscape:zoom="27.764706"
     inkscape:cx="9.3568921"
     inkscape:cy="8.0589293"
     inkscape:window-x="6"
     inkscape:window-y="0"
     inkscape:window-maximized="0"
     inkscape:current-layer="svg4619"
     inkscape:snap-bbox-edge-midpoints="true"
     inkscape:snap-bbox-midpoints="true"
     inkscape:snap-intersection-paths="true"
     inkscape:object-paths="true"
     inkscape:object-nodes="true"
     inkscape:snap-smooth-nodes="true">
    <inkscape:grid
       type="xygrid"
       id="grid3342"
       spacingx="0.5"
       spacingy="0.5"
       color="#e90000"
       opacity="0.1254902"
       empspacing="2" />
  </sodipodi:namedview>
  <defs
     id="defs4621" />
  <metadata
     id="metadata4624">
    <rdf:RDF>
      <cc:Work
         rdf:about="">
        <dc:format>image/svg+xml</dc:format>
        <dc:type
           rdf:resource="http://purl.org/dc/dcmitype/StillImage" />
        <dc:title></dc:title>
      </cc:Work>
    </rdf:RDF>
  </metadata>
  <path
     style="opacity:1;fill:#000000;fill-opacity:1;stroke:none;stroke-width:0.88235289;stroke-linecap:round;stroke-linejoin:miter;stroke-miterlimit:4;stroke-dasharray:none;stroke-dashoffset:0;stroke-opacity:1"
     d="m 3.6871656,1.0080209 c -0.3332887,0 -0.6016042,0.2683155 -0.6016042,0.6016043 0,0.3332887 0.2689869,0.5804673 0.6016042,0.6016042 l 3.1096258,0 0,2.4064172 -3.213027,0 -0.0024,0 C 3.3267256,3.8974349 2.6462515,3.4155339 1.8823528,3.414438 c -0.99677068,0 -1.80481288,0.8080422 -1.80481288,1.8048129 0,0.9967706 0.8080422,1.8048129 1.80481288,1.8048129 0.4564608,-8.942e-4 0.8956283,-0.1747139 1.2290583,-0.4864536 l 2.3805674,3.4944748 c 0.8772956,1.287797 1.8048129,1.203209 2.4064174,1.203209 l 4.2535291,0 c 0,0 1.160909,-9.49e-4 1.160909,-1.203209 l 0,-1.2032084 c 0,-0.6016043 -0.601604,-1.2032085 -0.601604,-1.2032085 L 10.304813,5.2192509 c 0,0 -0.6016041,-0.6016043 -1.2032091,-0.6016043 l -1.101604,0 0,-2.4064172 4.1096251,0 c 0.333289,0 0.601605,-0.2683155 0.601605,-0.6016042 0,-0.3332888 -0.268316,-0.6016043 -0.601605,-0.6016043 z M 1.8823528,4.6176466 c 0.3322569,0 0.6016043,0.2693473 0.6016043,0.6016043 0,0.332257 -0.2693474,0.6016043 -0.6016043,0.6016043 -0.3322569,0 -0.6016044,-0.2693473 -0.6016044,-0.6016043 0,-0.332257 0.2693475,-0.6016043 0.6016044,-0.6016043 z m 7.5200541,1.2032086 c 0,0 0.300802,0 0.9024061,0.6016042 l 1.804812,1.8048129 -3.0080211,0 c 0,0 -0.601604,0 -0.601604,-0.6016042 l 0,-1.2032087 c 0,0 0,-0.6016042 0.601604,-0.6016042 z"
     id="path10415"
     inkscape:connector-curvature="0"
     sodipodi:nodetypes="ssccccccsccsscssccsccssssssssscsccccsc" />
</svg>
