<?xml version="1.0" encoding="UTF-8" standalone="no"?>
<!-- Created with Inkscape (http://www.inkscape.org/) -->

<svg
   xmlns:dc="http://purl.org/dc/elements/1.1/"
   xmlns:cc="http://creativecommons.org/ns#"
   xmlns:rdf="http://www.w3.org/1999/02/22-rdf-syntax-ns#"
   xmlns:svg="http://www.w3.org/2000/svg"
   xmlns="http://www.w3.org/2000/svg"
   xmlns:sodipodi="http://sodipodi.sourceforge.net/DTD/sodipodi-0.dtd"
   xmlns:inkscape="http://www.inkscape.org/namespaces/inkscape"
   version="1.1"
   width="17"
   height="17"
   id="svg4619"
   inkscape:version="0.91 r13725"
   sodipodi:docname="heliport-17.svg"
   viewBox="0 0 17 17">
  <sodipodi:namedview
     pagecolor="#ffffff"
     bordercolor="#666666"
     borderopacity="1"
     objecttolerance="10"
     gridtolerance="10"
     guidetolerance="10"
     inkscape:pageopacity="0"
     inkscape:pageshadow="2"
     inkscape:window-width="1060"
     inkscape:window-height="735"
     id="namedview3340"
     inkscape:document-units="px"
     showgrid="true"
     inkscape:snap-bbox="true"
     inkscape:bbox-nodes="true"
     inkscape:bbox-paths="true"
     inkscape:zoom="27.764706"
     inkscape:cx="9.807104"
     inkscape:cy="8.7792683"
     inkscape:window-x="6"
     inkscape:window-y="0"
     inkscape:window-maximized="0"
     inkscape:current-layer="svg4619"
     inkscape:snap-bbox-edge-midpoints="true"
     inkscape:snap-bbox-midpoints="true"
     inkscape:snap-intersection-paths="true"
     inkscape:object-paths="true"
     inkscape:object-nodes="true"
     inkscape:snap-smooth-nodes="true">
    <inkscape:grid
       type="xygrid"
       id="grid3342"
       spacingx="0.5"
       spacingy="0.5"
       color="#e90000"
       opacity="0.1254902"
       empspacing="2" />
  </sodipodi:namedview>
  <defs
     id="defs4621" />
  <metadata
     id="metadata4624">
    <rdf:RDF>
      <cc:Work
         rdf:about="">
        <dc:format>image/svg+xml</dc:format>
        <dc:type
           rdf:resource="http://purl.org/dc/dcmitype/StillImage" />
        <dc:title></dc:title>
      </cc:Work>
    </rdf:RDF>
  </metadata>
  <path
     style="opacity:1;fill:#000000;fill-opacity:1;stroke:none;stroke-width:1;stroke-linecap:round;stroke-linejoin:miter;stroke-miterlimit:4;stroke-dasharray:none;stroke-dashoffset:0;stroke-opacity:1"
     d="M 4.75 2.5 C 4.3345 2.5 4 2.8345 4 3.25 C 4 3.6655 4.3345 4 4.75 4 L 9 4 L 9 6 L 4.4980469 6 A 2.5 2.5 0 0 0 2.546875 5 A 2.5 2.5 0 0 0 2.4101562 5.0019531 A 2.5 2.5 0 0 0 2.1601562 5.0234375 A 2.5 2.5 0 0 0 0.017578125 7.7988281 A 2.5 2.5 0 0 0 2.7597656 9.9863281 A 2.5 2.5 0 0 0 4.6816406 8.7128906 L 10 14 L 14.947266 14 C 17.001211 14 17 11.999404 17 11.957031 L 17 9.0761719 L 13.939453 6 L 11 6 L 11 4 L 14.75 4 C 15.1655 4 15.5 3.6655 15.5 3.25 C 15.5 2.8345 15.1655 2.5 14.75 2.5 L 4.75 2.5 z M 2.4648438 6.5 A 1 1 0 0 1 3.4882812 7.3496094 L 3.4960938 7.4121094 A 1 1 0 0 1 2.6035156 8.4941406 A 1 1 0 0 1 1.5078125 7.6191406 A 1 1 0 0 1 2.3652344 6.5097656 A 1 1 0 0 1 2.4648438 6.5 z M 13 7 L 16 10 L 13 10 L 13 7 z "
     id="path3355" />
</svg>
