<?xml version="1.0" encoding="UTF-8" standalone="no"?>
<!-- Generator: Adobe Illustrator 17.1.0, SVG Export Plug-In . SVG Version: 6.00 Build 0)  -->

<svg
   xmlns:dc="http://purl.org/dc/elements/1.1/"
   xmlns:cc="http://creativecommons.org/ns#"
   xmlns:rdf="http://www.w3.org/1999/02/22-rdf-syntax-ns#"
   xmlns:svg="http://www.w3.org/2000/svg"
   xmlns="http://www.w3.org/2000/svg"
   xmlns:sodipodi="http://sodipodi.sourceforge.net/DTD/sodipodi-0.dtd"
   xmlns:inkscape="http://www.inkscape.org/namespaces/inkscape"
   version="1.1"
   id="svg4764"
   x="0px"
   y="0px"
   viewBox="0 0 11 11"
   enable-background="new 0 0 11 11"
   xml:space="preserve"
   inkscape:version="0.91+devel+osxmenu r12911"
   sodipodi:docname="rail-11.svg"><metadata
     id="metadata8"><rdf:RDF><cc:Work
         rdf:about=""><dc:format>image/svg+xml</dc:format><dc:type
           rdf:resource="http://purl.org/dc/dcmitype/StillImage" /><dc:title /></cc:Work></rdf:RDF></metadata><defs
     id="defs6" /><sodipodi:namedview
     pagecolor="#ffffff"
     bordercolor="#666666"
     borderopacity="1"
     objecttolerance="10"
     gridtolerance="10"
     guidetolerance="10"
     inkscape:pageopacity="0"
     inkscape:pageshadow="2"
     inkscape:window-width="980"
     inkscape:window-height="744"
     id="namedview4"
     showgrid="true"
     inkscape:snap-bbox="true"
     inkscape:bbox-paths="true"
     inkscape:bbox-nodes="true"
     inkscape:snap-bbox-edge-midpoints="true"
     inkscape:snap-bbox-midpoints="true"
     inkscape:object-paths="true"
     inkscape:snap-intersection-paths="true"
     inkscape:object-nodes="true"
     inkscape:snap-smooth-nodes="true"
     inkscape:zoom="45.254834"
     inkscape:cx="1.766141"
     inkscape:cy="5.249295"
     inkscape:window-x="2"
     inkscape:window-y="0"
     inkscape:window-maximized="0"
     inkscape:current-layer="svg4764"
     showguides="false"><inkscape:grid
       type="xygrid"
       id="grid3336"
       empspacing="2"
       spacingx="0.5"
       spacingy="0.5"
       color="#ee0007"
       opacity="0.1254902" /></sodipodi:namedview><g
     id="g14137"
     transform="translate(10)"><path
       style="fill:#000000;fill-opacity:1;fill-rule:evenodd;stroke:none;stroke-width:1px;stroke-linecap:butt;stroke-linejoin:miter;stroke-opacity:1"
       d="M 3 0 C 3 0 2 0 2 1 L 2 6 C 2 7 3 7 3 7 L 5.5 7 L 8 7 C 8 7 9 7 9 6 L 9 1 C 9 1 9 0 8 0 L 3 0 z M 3.5 1 L 5 1 L 5 4 L 3.5 4 C 3.223 4 3 3.777 3 3.5 L 3 1.5 C 3 1.223 3.223 1 3.5 1 z M 6 1 L 7.5 1 C 7.777 1 8 1.223 8 1.5 L 8 3.5 C 8 3.777 7.777 4 7.5 4 L 6 4 L 6 1 z M 3.5 5 A 0.5 0.5 0 0 1 4 5.5 A 0.5 0.5 0 0 1 3.5 6 A 0.5 0.5 0 0 1 3 5.5 A 0.5 0.5 0 0 1 3.5 5 z M 7.5 5 A 0.5 0.5 0 0 1 8 5.5 A 0.5 0.5 0 0 1 7.5 6 A 0.5 0.5 0 0 1 7 5.5 A 0.5 0.5 0 0 1 7.5 5 z M 3 8 L 2 11 L 3.5 11 L 3.8339844 10 L 7.1660156 10 L 7.5 11 L 9 11 L 8 8 L 6.5 8 L 6.8339844 9 L 4.1660156 9 L 4.5 8 L 3 8 z "
       transform="translate(-10)"
       id="path14003" /></g></svg>