<?xml version="1.0" encoding="utf-8"?>
<!-- Generator: Adobe Illustrator 17.1.0, SVG Export Plug-In . SVG Version: 6.00 Build 0)  -->
<!DOCTYPE svg PUBLIC "-//W3C//DTD SVG 1.1//EN" "http://www.w3.org/Graphics/SVG/1.1/DTD/svg11.dtd">
<svg version="1.1"
	 id="svg4619" xmlns:cc="http://creativecommons.org/ns#" xmlns:svg="http://www.w3.org/2000/svg" xmlns:rdf="http://www.w3.org/1999/02/22-rdf-syntax-ns#" xmlns:dc="http://purl.org/dc/elements/1.1/"
	 xmlns="http://www.w3.org/2000/svg" xmlns:xlink="http://www.w3.org/1999/xlink" x="0px" y="0px" viewBox="0 0 17 17"
	 enable-background="new 0 0 17 17" xml:space="preserve">
<path style="fill:#000000;fill-opacity:1" id="rect4041" d="M6.5,0v1.3H5.9c-1.1,0-2,0.9-2,2v6.5v1.3c0,1.1,0.9,2,2,2h5.2c1.1,0,2-0.9,2-2V9.8V3.3c0-1.1-0.9-2-2-2h-0.7
	V0H6.5z M6.5,2.6h3.9c0.7,0,1.3,0.6,1.3,1.3v0.7v0.3v1.6H5.2V4.9V4.6V3.9C5.2,3.2,5.8,2.6,6.5,2.6z M5.2,9.2h2v2h-2V9.2z M9.8,9.2h2
	v2h-2V9.2z M3.9,14.4v1.3H2.6V17h5.2v-2.6H3.9z M9.2,14.4V17h5.2v-1.3h-1.3v-1.3H9.2z"/>
</svg>
