<?xml version="1.0" encoding="UTF-8" standalone="no"?>
<!-- Generator: Adobe Illustrator 17.1.0, SVG Export Plug-In . SVG Version: 6.00 Build 0)  -->

<svg
   xmlns:dc="http://purl.org/dc/elements/1.1/"
   xmlns:cc="http://creativecommons.org/ns#"
   xmlns:rdf="http://www.w3.org/1999/02/22-rdf-syntax-ns#"
   xmlns:svg="http://www.w3.org/2000/svg"
   xmlns="http://www.w3.org/2000/svg"
   xmlns:sodipodi="http://sodipodi.sourceforge.net/DTD/sodipodi-0.dtd"
   xmlns:inkscape="http://www.inkscape.org/namespaces/inkscape"
   version="1.1"
   id="svg4619"
   x="0px"
   y="0px"
   viewBox="0 0 15 15"
   enable-background="new 0 0 15 15"
   xml:space="preserve"
   inkscape:version="0.91+devel+osxmenu r12911"
   sodipodi:docname="rail-15.svg"><metadata
     id="metadata8"><rdf:RDF><cc:Work
         rdf:about=""><dc:format>image/svg+xml</dc:format><dc:type
           rdf:resource="http://purl.org/dc/dcmitype/StillImage" /><dc:title /></cc:Work></rdf:RDF></metadata><defs
     id="defs6" /><sodipodi:namedview
     pagecolor="#ffffff"
     bordercolor="#666666"
     borderopacity="1"
     objecttolerance="10"
     gridtolerance="10"
     guidetolerance="10"
     inkscape:pageopacity="0"
     inkscape:pageshadow="2"
     inkscape:window-width="1192"
     inkscape:window-height="749"
     id="namedview4"
     showgrid="false"
     inkscape:snap-bbox="true"
     inkscape:bbox-paths="true"
     inkscape:bbox-nodes="true"
     inkscape:snap-bbox-edge-midpoints="true"
     inkscape:snap-bbox-midpoints="true"
     inkscape:object-paths="true"
     inkscape:snap-intersection-paths="true"
     inkscape:object-nodes="true"
     inkscape:snap-smooth-nodes="true"
     inkscape:zoom="22.627417"
     inkscape:cx="9.5428718"
     inkscape:cy="5.5140115"
     inkscape:window-x="30"
     inkscape:window-y="0"
     inkscape:window-maximized="0"
     inkscape:current-layer="svg4619"><inkscape:grid
       type="xygrid"
       id="grid3336"
       spacingx="0.5"
       spacingy="0.5"
       empspacing="2"
       color="#ff0000"
       opacity="0.1254902" /></sodipodi:namedview><g
     id="g14137"
     transform="matrix(1.3636364,0,0,1.3636364,13.136364,0)"
     style="stroke-width:0.73333335"><path
       style="fill:#000000;fill-opacity:1;fill-rule:evenodd;stroke:none;stroke-width:1px;stroke-linecap:butt;stroke-linejoin:miter;stroke-opacity:1"
       d="M 3.5 0 C 3.5 0 2 -2.4545453e-08 2 1.5 L 2 9.5 C 2 11 3.5 11 3.5 11 L 11.5 11 C 11.5 11 13 11 13 9.5 L 13 1.5 C 13 1.5 13 0 11.5 0 L 3.5 0 z M 5.75 0.5 L 9.25 0.5 C 9.3885 0.5 9.5 0.6115 9.5 0.75 C 9.5 0.8885 9.3885 1 9.25 1 L 5.75 1 C 5.6115 1 5.5 0.8885 5.5 0.75 C 5.5 0.6115 5.6115 0.5 5.75 0.5 z M 4 2 L 7 2 L 7 7 L 4 7 C 3 7 3 6 3 6 L 3 3 C 3 2 4 2 4 2 z M 8 2 L 11 2 C 11 2 12 1.9992004 12 3 L 12 6 C 12 7 11 7 11 7 L 8 7 L 8 2 z M 5 8 A 0.99999998 0.99999998 0 0 1 6 9 A 0.99999998 0.99999998 0 0 1 5 10 A 0.99999998 0.99999998 0 0 1 4 9 A 0.99999998 0.99999998 0 0 1 5 8 z M 10 8 A 0.99999998 0.99999998 0 0 1 11 9 A 0.99999998 0.99999998 0 0 1 10 10 A 0.99999998 0.99999998 0 0 1 9 9 A 0.99999998 0.99999998 0 0 1 10 8 z M 4.125 12 L 3 15 L 4.5 15 L 4.875 14 L 10.125 14 L 10.5 15 L 12 15 L 10.875 12 L 9.375 12 L 9.75 13 L 5.25 13 L 5.625 12 L 4.125 12 z "
       transform="matrix(0.73333331,0,0,0.73333331,-9.6333333,0)"
       id="path14003" /></g></svg>