<?xml version="1.0" encoding="utf-8"?>
<!-- Generator: Adobe Illustrator 17.1.0, SVG Export Plug-In . SVG Version: 6.00 Build 0)  -->
<!DOCTYPE svg PUBLIC "-//W3C//DTD SVG 1.1//EN" "http://www.w3.org/Graphics/SVG/1.1/DTD/svg11.dtd">
<svg version="1.1"
	 id="svg4764" xmlns:cc="http://creativecommons.org/ns#" xmlns:svg="http://www.w3.org/2000/svg" xmlns:rdf="http://www.w3.org/1999/02/22-rdf-syntax-ns#" xmlns:dc="http://purl.org/dc/elements/1.1/"
	 xmlns="http://www.w3.org/2000/svg" xmlns:xlink="http://www.w3.org/1999/xlink" x="0px" y="0px" viewBox="0 0 11 11"
	 enable-background="new 0 0 11 11" xml:space="preserve">
<path style="fill:#000000;fill-opacity:1" id="path3248" d="M4.3,0.1L2.5,1.3L1.3,3.7v4.8h8.5V3.7L8.5,1.3L6.7,0.1H4.3z M4.3,1.3h0.6v3.6H2.5l0.6-1.8L4.3,1.3z M6.1,1.3
	h0.6l1.2,1.8l0.6,1.8H6.1V1.3z M2.5,6.2h1.2v1.2H2.5V6.2z M7.3,6.2h1.2v1.2H7.3V6.2z M2.5,9.2v0.6H1.3V11h3.6V9.2H2.5z M6.1,9.2V11
	h3.6V9.8H8.5V9.2H6.1z"/>
</svg>
