<?xml version="1.0" encoding="UTF-8" standalone="no"?>
<!-- Generator: Adobe Illustrator 17.1.0, SVG Export Plug-In . SVG Version: 6.00 Build 0)  -->

<svg
   xmlns:dc="http://purl.org/dc/elements/1.1/"
   xmlns:cc="http://creativecommons.org/ns#"
   xmlns:rdf="http://www.w3.org/1999/02/22-rdf-syntax-ns#"
   xmlns:svg="http://www.w3.org/2000/svg"
   xmlns="http://www.w3.org/2000/svg"
   xmlns:sodipodi="http://sodipodi.sourceforge.net/DTD/sodipodi-0.dtd"
   xmlns:inkscape="http://www.inkscape.org/namespaces/inkscape"
   version="1.1"
   id="svg4764"
   x="0px"
   y="0px"
   viewBox="0 0 11 11"
   enable-background="new 0 0 11 11"
   xml:space="preserve"
   inkscape:version="0.91 r13725"
   sodipodi:docname="rail-light-11.svg"><metadata
     id="metadata8"><rdf:RDF><cc:Work
         rdf:about=""><dc:format>image/svg+xml</dc:format><dc:type
           rdf:resource="http://purl.org/dc/dcmitype/StillImage" /><dc:title></dc:title></cc:Work></rdf:RDF></metadata><defs
     id="defs6" /><sodipodi:namedview
     pagecolor="#ffffff"
     bordercolor="#666666"
     borderopacity="1"
     objecttolerance="10"
     gridtolerance="10"
     guidetolerance="10"
     inkscape:pageopacity="0"
     inkscape:pageshadow="2"
     inkscape:window-width="860"
     inkscape:window-height="706"
     id="namedview4"
     showgrid="false"
     inkscape:snap-bbox="true"
     inkscape:bbox-paths="true"
     inkscape:bbox-nodes="true"
     inkscape:snap-bbox-edge-midpoints="true"
     inkscape:snap-bbox-midpoints="true"
     inkscape:snap-nodes="true"
     inkscape:object-paths="true"
     inkscape:snap-intersection-paths="true"
     inkscape:object-nodes="true"
     inkscape:snap-smooth-nodes="true"
     inkscape:zoom="30.341309"
     inkscape:cx="2.6983227"
     inkscape:cy="5.7081456"
     inkscape:window-x="0"
     inkscape:window-y="0"
     inkscape:window-maximized="0"
     inkscape:current-layer="svg4764"><inkscape:grid
       type="xygrid"
       id="grid3336"
       color="#fd000d"
       opacity="0.1254902"
       empspacing="2"
       spacingx="0.5"
       spacingy="0.5" /></sodipodi:namedview><path
     style="opacity:1;fill:#000000;fill-opacity:1;stroke:none;stroke-width:1;stroke-linecap:round;stroke-linejoin:miter;stroke-miterlimit:4;stroke-dasharray:none;stroke-dashoffset:0;stroke-opacity:1"
     d="M 3.5,0.5 3.5,1 3.5,1.5 4,1.5 4,1 5,1 5,2.1074219 4.503906,2.2050781 3,2.5 l -0.5,5 6,0 L 8,2.5292969 6,2.0976562 6,1 l 1,0 0,0.5 0.5,0 0,-1 -3.5,0 -0.5,0 z M 5.5,3 7,3.5 7,5 5.5,5.5 4,5 4,3.5 5.5,3 Z M 4.482422,6 C 4.735774,5.99112 4.955676,6.1732558 4.994141,6.4238281 l 0.00391,0.03125 C 5.023067,6.7273881 4.824674,6.9692813 4.552734,6.9980469 4.280975,7.0266909 4.036559,6.831853 4.003906,6.5605469 3.970366,6.2892755 4.16088,6.041346 4.431641,6.0039062 4.448491,6.0017463 4.465442,6.00044 4.482422,6 Z M 6.484375,6.044922 C 6.737727,6.0360419 6.957629,6.2181777 6.996094,6.46875 L 7,6.5 C 7.02389,6.7715861 6.825799,7.0122449 6.554688,7.0410156 6.282929,7.0696596 6.038512,6.8748217 6.005859,6.6035156 5.973469,6.3329553 6.163688,6.0862795 6.433594,6.0488281 c 0.01685,-0.00217 0.033801,-0.00347 0.050781,-0.00391 z M 3.5,8 3.166016,9 2.5,9 2.5,10 2.833984,10 2.5,11 3.5,11 3.833984,10 7.166016,10 7.5,11 8.5,11 8.166016,10 8.5,10 8.5,9 7.833984,9 7.5,8 6.5,8 6.833984,9 4.166016,9 4.5,8 3.5,8 Z"
     id="rect3338"
     inkscape:connector-curvature="0" /></svg>
