<?xml version="1.0" encoding="UTF-8" standalone="no"?>
<!-- Created with Inkscape (http://www.inkscape.org/) -->

<svg
   xmlns:dc="http://purl.org/dc/elements/1.1/"
   xmlns:cc="http://creativecommons.org/ns#"
   xmlns:rdf="http://www.w3.org/1999/02/22-rdf-syntax-ns#"
   xmlns:svg="http://www.w3.org/2000/svg"
   xmlns="http://www.w3.org/2000/svg"
   xmlns:sodipodi="http://sodipodi.sourceforge.net/DTD/sodipodi-0.dtd"
   xmlns:inkscape="http://www.inkscape.org/namespaces/inkscape"
   version="1.1"
   width="15"
   height="15"
   id="svg4619"
   inkscape:version="0.91+devel+osxmenu r12911"
   sodipodi:docname="cafe-15.svg"
   viewBox="0 0 13.235294 13.235294">
  <sodipodi:namedview
     pagecolor="#ffffff"
     bordercolor="#666666"
     borderopacity="1"
     objecttolerance="10"
     gridtolerance="10"
     guidetolerance="10"
     inkscape:pageopacity="0"
     inkscape:pageshadow="2"
     inkscape:window-width="1263"
     inkscape:window-height="749"
     id="namedview3364"
     inkscape:document-units="px"
     showgrid="true"
     inkscape:zoom="22.627417"
     inkscape:cx="-0.92902328"
     inkscape:cy="12.110867"
     inkscape:current-layer="svg4619"
     inkscape:snap-bbox="true"
     inkscape:bbox-paths="true"
     inkscape:bbox-nodes="true"
     inkscape:snap-bbox-midpoints="true"
     inkscape:snap-bbox-edge-midpoints="true"
     inkscape:object-paths="true"
     inkscape:snap-intersection-paths="true"
     inkscape:object-nodes="true"
     inkscape:snap-smooth-nodes="true"
     showguides="false"
     inkscape:window-x="0"
     inkscape:window-y="0"
     inkscape:window-maximized="0"
     inkscape:guide-bbox="true"
     inkscape:showpageshadow="false"
     showborder="true"
     inkscape:snap-global="false">
    <inkscape:grid
       type="xygrid"
       id="grid3333"
       spacingy="0.44117647"
       spacingx="0.44117647"
       color="#ff0000"
       opacity="0.1254902"
       empspacing="2" />
    <sodipodi:guide
       position="6.6176471,13.235294"
       orientation="1,0"
       id="guide10548" />
    <sodipodi:guide
       position="0,6.6176471"
       orientation="0,1"
       id="guide10550" />
    <sodipodi:guide
       position="0,13.235294"
       orientation="1,0"
       id="guide10552" />
    <sodipodi:guide
       position="13.235294,13.235294"
       orientation="1,0"
       id="guide10554" />
    <sodipodi:guide
       position="0,0"
       orientation="0,1"
       id="guide10556" />
  </sodipodi:namedview>
  <defs
     id="defs4621" />
  <metadata
     id="metadata4624">
    <rdf:RDF>
      <cc:Work
         rdf:about="">
        <dc:format>image/svg+xml</dc:format>
        <dc:type
           rdf:resource="http://purl.org/dc/dcmitype/StillImage" />
        <dc:title></dc:title>
      </cc:Work>
    </rdf:RDF>
  </metadata>
  <path
     style="fill:#000000;fill-rule:evenodd;stroke:none;stroke-width:1px;stroke-linecap:butt;stroke-linejoin:miter;stroke-opacity:1"
     d="m 5.735294,2.8090533 c -1.6544119,-10e-8 -3.3088234,0.1607306 -3.7499999,0.4842601 0,0 -1.98529422666666,6.633157 3.7499999,6.633157 1.7406015,0 2.7622185,-0.6156 3.3519071,-1.4665671 l -0.00517,0.01551 C 9.7230555,7.5150707 9.9023566,8.0738741 10.743336,8.0049401 11.62274,7.9328567 12.352941,7.0588234 12.352941,6.1764705 12.352941,4.0636253 10.440085,4.0969873 9.750689,4.7874539 9.6563619,3.9352588 9.485294,3.2933134 9.485294,3.2933134 9.0441167,2.9697839 7.389706,2.8090533 5.735294,2.8090533 Z m 4.877068,2.2989429 c 0.237615,0.00122 0.473001,0.081306 0.620405,0.2223116 0.245652,0.2349854 0.495845,0.8658538 0.06376,1.4717371 C 10.765343,7.5468954 9.8777443,7.387312 9.7265628,6.7899815 9.7806952,6.4629537 9.8086022,6.1369544 9.8127299,5.8180146 9.8406405,5.3173526 10.226563,5.1060115 10.612362,5.1079962 Z M 1.1029412,10.560662 0.88235293,11.001838 c 1.76470597,0.661764 7.94117727,0.661764 9.70588207,0 l -0.220588,-0.441176 -9.2647058,0 z"
     id="path9873"
     inkscape:connector-curvature="0" />
</svg>
