<?xml version="1.0" encoding="UTF-8" standalone="no"?>
<!-- Generator: Adobe Illustrator 15.1.0, SVG Export Plug-In . SVG Version: 6.00 Build 0)  -->

<svg
   xmlns:dc="http://purl.org/dc/elements/1.1/"
   xmlns:cc="http://creativecommons.org/ns#"
   xmlns:rdf="http://www.w3.org/1999/02/22-rdf-syntax-ns#"
   xmlns:svg="http://www.w3.org/2000/svg"
   xmlns="http://www.w3.org/2000/svg"
   xmlns:sodipodi="http://sodipodi.sourceforge.net/DTD/sodipodi-0.dtd"
   xmlns:inkscape="http://www.inkscape.org/namespaces/inkscape"
   version="1.1"
   id="svg4764"
   sodipodi:docname="dentist-11.svg"
   inkscape:version="0.91+devel+osxmenu r12911"
   x="0px"
   y="0px"
   width="11"
   height="11"
   enable-background="new 0 0 12 12"
   xml:space="preserve"
   viewBox="0 0 11 11"><metadata
     id="metadata3356"><rdf:RDF><cc:Work
         rdf:about=""><dc:format>image/svg+xml</dc:format><dc:type
           rdf:resource="http://purl.org/dc/dcmitype/StillImage" /><dc:title></dc:title></cc:Work></rdf:RDF></metadata><defs
     id="defs3354" /><sodipodi:namedview
     pagecolor="#ffffff"
     bordercolor="#666666"
     borderopacity="1"
     objecttolerance="10"
     gridtolerance="10"
     guidetolerance="10"
     inkscape:pageopacity="0"
     inkscape:pageshadow="2"
     inkscape:window-width="1737"
     inkscape:window-height="936"
     id="namedview3352"
     inkscape:document-units="px"
     showgrid="true"
     inkscape:snap-bbox="true"
     inkscape:object-paths="true"
     inkscape:bbox-nodes="true"
     inkscape:object-nodes="true"
     inkscape:snap-smooth-nodes="true"
     inkscape:zoom="39.333333"
     inkscape:cx="-3.1379212"
     inkscape:cy="5.7585189"
     inkscape:window-x="0"
     inkscape:window-y="23"
     inkscape:window-maximized="0"
     inkscape:current-layer="svg4764"><inkscape:grid
       type="xygrid"
       id="grid3358" /></sodipodi:namedview><path
     style="fill:#000000;fill-opacity:1;stroke-width:1"
     enable-background="new    "
     d="M 1.5256679,5.3648936 C 1.2273429,3.9375717 0.75929934,1.3253832 2.5028668,1.039708 4.2232428,0.75614115 4.259084,2.0938601 5.4998209,2.0938601 c 1.241791,0 1.2755238,-1.33877309 2.9948457,-1.0541521 C 10.241396,1.3253832 9.7722991,3.9365177 9.4750284,5.3648936 9.122941,7.0462661 8.6622762,10 7.6081244,10 6.5539728,10 6.6658087,7.8916959 5.4998209,7.8916959 4.4467231,7.8916959 4.4467231,10 3.3925711,10 2.3384191,10 1.8767004,7.0462661 1.5256679,5.3648936 Z"
     id="path3348"
     inkscape:connector-curvature="0"
     sodipodi:nodetypes="ccsccsssc" /><path
     style="fill:#000000;fill-opacity:1"
     d="m 166,1179.862 c -1,0 -1.438,-2.802 -1.771,-4.397 -0.283,-1.354 -0.727,-3.832 0.927,-4.103 1.632,-0.269 1.666,1 2.843,1 1.178,0 1.21,-1.27 2.841,-1 1.657,0.271 1.212,2.748 0.93,4.103 -0.334,1.595 -0.771,4.397 -1.771,4.397 -1,0 -0.822,-2 -2,-2 -1.183,0 -0.999,2 -1.999,2 z"
     id="path3350"
     inkscape:connector-curvature="0" /></svg>
