<?xml version="1.0" encoding="UTF-8" standalone="no"?>
<svg
   xmlns:dc="http://purl.org/dc/elements/1.1/"
   xmlns:cc="http://creativecommons.org/ns#"
   xmlns:rdf="http://www.w3.org/1999/02/22-rdf-syntax-ns#"
   xmlns:svg="http://www.w3.org/2000/svg"
   xmlns="http://www.w3.org/2000/svg"
   xmlns:sodipodi="http://sodipodi.sourceforge.net/DTD/sodipodi-0.dtd"
   xmlns:inkscape="http://www.inkscape.org/namespaces/inkscape"
   width="12"
   height="24"
   id="svg2"
   version="1.1"
   inkscape:version="0.91+devel+osxmenu r12911"
   sodipodi:docname="s-bahn.u-bahn-11.svg"
   viewBox="0 0 12 24">
  <metadata
     id="metadata12">
    <rdf:RDF>
      <cc:Work
         rdf:about="">
        <dc:format>image/svg+xml</dc:format>
        <dc:type
           rdf:resource="http://purl.org/dc/dcmitype/StillImage" />
        <dc:title />
      </cc:Work>
    </rdf:RDF>
  </metadata>
  <defs
     id="defs10" />
  <sodipodi:namedview
     pagecolor="#ffffff"
     bordercolor="#666666"
     borderopacity="1"
     objecttolerance="10"
     gridtolerance="10"
     guidetolerance="10"
     inkscape:pageopacity="0"
     inkscape:pageshadow="2"
     inkscape:window-width="1280"
     inkscape:window-height="756"
     id="namedview8"
     showgrid="true"
     inkscape:zoom="27.220354"
     inkscape:cx="10.806898"
     inkscape:cy="13.819573"
     inkscape:window-x="0"
     inkscape:window-y="23"
     inkscape:window-maximized="0"
     inkscape:current-layer="svg2"
     inkscape:document-units="px">
    <inkscape:grid
       type="xygrid"
       id="grid3028" />
  </sodipodi:namedview>
  <rect
     style="opacity:1;fill:#ffffff;fill-opacity:1;stroke:none;stroke-width:2;stroke-linecap:round;stroke-linejoin:round;stroke-miterlimit:4;stroke-dasharray:none;stroke-dashoffset:0;stroke-opacity:1;marker:none"
     id="rect38553"
     width="8.5728407"
     height="8.5728407"
     x="1.7135798"
     y="1.7135798" />
  <circle
     style="opacity:1;fill:#ffffff;fill-opacity:1;stroke:none;stroke-width:2;stroke-linecap:round;stroke-linejoin:round;stroke-miterlimit:4;stroke-dasharray:none;stroke-dashoffset:0;stroke-opacity:1;marker:none"
     id="path38551"
     cx="6"
     cy="18"
     r="4.5305114" />
  <g
     id="g3046">
    <g
       id="g3007">
      <path
         style="fill:#3377a7;fill-opacity:1"
         d="M 1 1 L 1 11 L 11 11 L 11 1 L 1 1 z M 3 2 L 4.5 2 L 4.5 7 C 4.5 8 5.28125 8.5 6 8.5 C 6.71875 8.5 7.5 8 7.5 7 L 7.5 2 L 9 2 C 9 2 8.99586 5.4691074 9 7.5 C 9 9 7.5 10 6 10 C 4.5 10 3 9 3 7.5 L 3 2 z "
         id="rect3272" />
    </g>
    <g
       transform="translate(-4,-5)"
       id="g3041">
      <path
         style="fill:#799a55;fill-opacity:1"
         d="M 6 13 C 3.2423145 13 1 15.242314 1 18 C 1 20.757716 3.2423145 23 6 23 C 8.7577158 23 11.00006 20.757716 11 18 C 11 15.242314 8.7577158 13 6 13 z M 6 14 C 7.130199 14 7.695298 14.381441 8.5 15 L 8.5 16.5 C 7.803797 15.755937 6.993091 14.98038 6 15 C 5.0063159 15.01963 4.4999845 15.384705 4.5058594 15.960938 C 4.5216608 17.510788 9.00003 16.498222 9 19.5 C 9 20.711573 7.980109 22 6 22 C 4.8969258 22 3.6962027 21.62387 3 21 L 3 19.5 C 3.6600364 20.449367 4.7884267 21 6 21 C 6.741411 21 7.5097656 20.491142 7.5097656 20.039062 C 7.5097656 18.529106 3 19.447589 3 16.5 C 3 14.953918 4.6437613 14 6 14 z "
         transform="translate(4,5)"
         id="path5-0-4" />
    </g>
  </g>
</svg>
