<?xml version="1.0" encoding="UTF-8" standalone="no"?>
<svg
   xmlns:dc="http://purl.org/dc/elements/1.1/"
   xmlns:cc="http://creativecommons.org/ns#"
   xmlns:rdf="http://www.w3.org/1999/02/22-rdf-syntax-ns#"
   xmlns:svg="http://www.w3.org/2000/svg"
   xmlns="http://www.w3.org/2000/svg"
   version="1.1"
   id="svg4845"
   viewBox="0 0 20 26"
   height="26"
   width="20">
  <defs
     id="defs4847" />
  <metadata
     id="metadata4850">
    <rdf:RDF>
      <cc:Work
         rdf:about="">
        <dc:format>image/svg+xml</dc:format>
        <dc:type
           rdf:resource="http://purl.org/dc/dcmitype/StillImage" />
        <dc:title />
      </cc:Work>
    </rdf:RDF>
  </metadata>
  <g
     transform="translate(-1312.9956,-1618.3623)"
     id="layer1">
    <rect
       y="1618.2622"
       x="1312.8933"
       height="25.200005"
       width="20.400137"
       id="rect5549"
       style="color:#3a3836;clip-rule:nonzero;display:inline;overflow:visible;visibility:visible;opacity:1;isolation:auto;mix-blend-mode:normal;color-interpolation:sRGB;color-interpolation-filters:linearRGB;solid-color:#3a3836;solid-opacity:1;fill:#e6e6e6;fill-opacity:0;fill-rule:evenodd;stroke:none;stroke-width:1.00000012;stroke-linecap:round;stroke-linejoin:round;stroke-miterlimit:4;stroke-dasharray:none;stroke-dashoffset:0;stroke-opacity:1;marker:none;color-rendering:auto;image-rendering:auto;shape-rendering:auto;text-rendering:auto;enable-background:accumulate" />
    <g
       transform="translate(0,-1)"
       id="g4707">
      <path
         style="color:#3a3836;display:inline;overflow:visible;visibility:visible;fill:#ffffff;fill-opacity:1;fill-rule:evenodd;stroke:#3a3836;stroke-width:1;stroke-linecap:round;stroke-linejoin:round;stroke-miterlimit:4;stroke-dasharray:none;marker:none;enable-background:accumulate"
         id="path4616"
         d="m 1315.8728,1619.8623 -2.3728,3.4999 0,3.1001 c 1.7818,1.2 1.7818,3.6999 0,4.8999 0,9.6 7.51,11.9985 9.4962,12.5001 1.9205,-0.4851 9.5959,-3.8234 9.5038,-12.5001 -1.7818,-1.2 -1.7818,-3.8 0,-5 l 0,-3 -2.3727,-3.4999 c -0.891,0.9 -2.2273,1.9999 -3.5636,1.9999 -1.3363,0 -2.6727,-1.0999 -3.5636,-1.9999 -0.891,0.9 -2.2273,1.9999 -3.5637,1.9999 -1.3363,0 -2.6728,-1.0999 -3.5636,-1.9999 z" />
      <path
         style="fill:none;fill-rule:evenodd;stroke:#3a3836;stroke-width:1;stroke-linecap:round;stroke-linejoin:round;stroke-miterlimit:4;stroke-dasharray:none;stroke-opacity:1"
         d="m 1313.4952,1624.8623 18.9865,0"
         id="path5547" />
    </g>
  </g>
</svg>
