<?xml version="1.0" encoding="UTF-8" standalone="no"?>
<svg
   xmlns:dc="http://purl.org/dc/elements/1.1/"
   xmlns:cc="http://creativecommons.org/ns#"
   xmlns:rdf="http://www.w3.org/1999/02/22-rdf-syntax-ns#"
   xmlns:svg="http://www.w3.org/2000/svg"
   xmlns="http://www.w3.org/2000/svg"
   version="1.1"
   id="svg4845"
   viewBox="0 0 37 26"
   height="26"
   width="37">
  <defs
     id="defs4847" />
  <metadata
     id="metadata4850">
    <rdf:RDF>
      <cc:Work
         rdf:about="">
        <dc:format>image/svg+xml</dc:format>
        <dc:type
           rdf:resource="http://purl.org/dc/dcmitype/StillImage" />
        <dc:title />
      </cc:Work>
    </rdf:RDF>
  </metadata>
  <g
     transform="translate(-1307.9993,-1616.3621)"
     id="layer1">
    <g
       style="stroke-width:0.83671039"
       transform="matrix(1.1998563,0,0,1.1904754,-261.51073,-313.82965)"
       id="g4147">
      <rect
         style="color:#3a3836;clip-rule:nonzero;display:inline;overflow:visible;visibility:visible;opacity:1;isolation:auto;mix-blend-mode:normal;color-interpolation:sRGB;color-interpolation-filters:linearRGB;solid-color:#3a3836;solid-opacity:1;fill:#e6e6e6;fill-opacity:0;fill-rule:evenodd;stroke:none;stroke-width:0.83671039;stroke-linecap:round;stroke-linejoin:round;stroke-miterlimit:4;stroke-dasharray:none;stroke-dashoffset:0;stroke-opacity:1;marker:none;color-rendering:auto;image-rendering:auto;shape-rendering:auto;text-rendering:auto;enable-background:accumulate"
         id="rect5549-2"
         width="17"
         height="21"
         x="1315"
         y="1621.3622" />
      <path
         style="color:#3a3836;display:inline;overflow:visible;visibility:visible;fill:#ffffff;fill-opacity:1;fill-rule:evenodd;stroke:#3a3836;stroke-width:0.83671039;stroke-linecap:round;stroke-linejoin:round;marker:none;enable-background:accumulate"
         id="path4616-9"
         d="m 1314.5,1621.7822 -6,3.08 0,2.5 c 1.5,1 1.5,3 0,4 0,9 13.328,10.082 15,10.5 1.6168,-0.4042 15.0859,-2.5 15,-10.5 -1.5,-1 -1.5,-3 0,-4 l 0,-2.5 -6,-3.08 c -0.75,0.75 -2.7485,1.68 -4.5,1.68 -1.5822,0 -3.75,-0.93 -4.5,-1.68 -0.75,0.75 -2.9162,1.68 -4.5,1.68 -1.75,0 -3.75,-0.93 -4.5,-1.68 z" />
      <path
         style="fill:none;fill-rule:evenodd;stroke:#3a3836;stroke-width:0.83671039px;stroke-linecap:round;stroke-linejoin:round;stroke-opacity:1"
         d="m 1308.9157,1626.8206 29.1701,0"
         id="path5547-6" />
    </g>
    <rect
       y="1616.3622"
       x="1312.6888"
       height="24.999983"
       width="27.526958"
       id="rect5549"
       style="color:#3a3836;clip-rule:nonzero;display:inline;overflow:visible;visibility:visible;opacity:1;isolation:auto;mix-blend-mode:normal;color-interpolation:sRGB;color-interpolation-filters:linearRGB;solid-color:#3a3836;solid-opacity:1;fill:#e6e6e6;fill-opacity:0;fill-rule:evenodd;stroke:none;stroke-width:1;stroke-linecap:round;stroke-linejoin:round;stroke-miterlimit:4;stroke-dasharray:none;stroke-dashoffset:0;stroke-opacity:1;marker:none;color-rendering:auto;image-rendering:auto;shape-rendering:auto;text-rendering:auto;enable-background:accumulate" />
  </g>
</svg>
