<?xml version="1.0" encoding="UTF-8" standalone="no"?>
<svg
   xmlns:dc="http://purl.org/dc/elements/1.1/"
   xmlns:cc="http://creativecommons.org/ns#"
   xmlns:rdf="http://www.w3.org/1999/02/22-rdf-syntax-ns#"
   xmlns:svg="http://www.w3.org/2000/svg"
   xmlns="http://www.w3.org/2000/svg"
   version="1.1"
   id="svg4845"
   viewBox="0 0 21 22"
   height="22"
   width="21">
  <defs
     id="defs4847" />
  <metadata
     id="metadata4850">
    <rdf:RDF>
      <cc:Work
         rdf:about="">
        <dc:format>image/svg+xml</dc:format>
        <dc:type
           rdf:resource="http://purl.org/dc/dcmitype/StillImage" />
        <dc:title />
      </cc:Work>
    </rdf:RDF>
  </metadata>
  <g
     transform="translate(-1315,-1620.3622)"
     id="layer1">
    <rect
       y="1620.3622"
       x="1317"
       height="21"
       width="17"
       id="rect5549-2"
       style="color:#3a3836;clip-rule:nonzero;display:inline;overflow:visible;visibility:visible;opacity:1;isolation:auto;mix-blend-mode:normal;color-interpolation:sRGB;color-interpolation-filters:linearRGB;solid-color:#3a3836;solid-opacity:1;fill:#e6e6e6;fill-opacity:0;fill-rule:evenodd;stroke:none;stroke-width:1;stroke-linecap:round;stroke-linejoin:round;stroke-miterlimit:4;stroke-dasharray:none;stroke-dashoffset:0;stroke-opacity:1;marker:none;color-rendering:auto;image-rendering:auto;shape-rendering:auto;text-rendering:auto;enable-background:accumulate" />
    <path
       d="m 1319.5,1620.8622 -4,3 0,2.5 c 1.5,1 1.5,3 0,4 0,8 8.328,10.082 10,10.5 1.6168,-0.4042 10.0776,-3.2694 10,-10.5 -1.5,-1 -1.5,-3 0,-4 l 0,-2.5 -4,-3 c -0.75,0.75 -1.875,1.5 -3,1.5 -1.125,0 -2.25,-0.75 -3,-1.5 -0.75,0.75 -1.875,1.5 -3,1.5 -1.125,0 -2.25,-0.75 -3,-1.5 z"
       id="path4616-9"
       style="color:#3a3836;display:inline;overflow:visible;visibility:visible;fill:#ffffff;fill-opacity:1;fill-rule:evenodd;stroke:#3a3836;stroke-width:1;stroke-linecap:round;stroke-linejoin:round;marker:none;enable-background:accumulate" />
    <path
       id="path5547-6"
       d="m 1316,1624.8623 19,0"
       style="fill:none;fill-rule:evenodd;stroke:#3a3836;stroke-width:1px;stroke-linecap:round;stroke-linejoin:round;stroke-opacity:1" />
  </g>
</svg>
