<?xml version="1.0" encoding="UTF-8" standalone="no"?>
<svg
   xmlns:dc="http://purl.org/dc/elements/1.1/"
   xmlns:cc="http://creativecommons.org/ns#"
   xmlns:rdf="http://www.w3.org/1999/02/22-rdf-syntax-ns#"
   xmlns:svg="http://www.w3.org/2000/svg"
   xmlns="http://www.w3.org/2000/svg"
   version="1.1"
   id="svg4845"
   viewBox="0 0 31 22"
   height="22"
   width="31">
  <defs
     id="defs4847" />
  <metadata
     id="metadata4850">
    <rdf:RDF>
      <cc:Work
         rdf:about="">
        <dc:format>image/svg+xml</dc:format>
        <dc:type
           rdf:resource="http://purl.org/dc/dcmitype/StillImage" />
        <dc:title />
      </cc:Work>
    </rdf:RDF>
  </metadata>
  <g
     transform="translate(-1308,-1620.3622)"
     id="layer1">
    <g
       transform="translate(0,-1)"
       id="g4147">
      <path
         style="color:#3a3836;display:inline;overflow:visible;visibility:visible;fill:#ffffff;fill-opacity:1;fill-rule:evenodd;stroke:#3a3836;stroke-width:1;stroke-linecap:round;stroke-linejoin:round;marker:none;enable-background:accumulate"
         id="path4616-9"
         d="m 1314.5,1621.8622 -6,3 0,2.5 c 1.5,1 1.5,3 0,4 0,9 13.328,10.082 15,10.5 1.6168,-0.4042 15.0859,-2.5 15,-10.5 -1.5,-1 -1.5,-3 0,-4 l 0,-2.5 -6,-3 c -0.75,0.75 -3.375,1.5 -4.5,1.5 -1.125,0 -3.75,-0.75 -4.5,-1.5 -0.75,0.75 -3.375,1.5 -4.5,1.5 -1.125,0 -3.75,-0.75 -4.5,-1.5 z" />
      <path
         style="fill:none;fill-rule:evenodd;stroke:#3a3836;stroke-width:1px;stroke-linecap:round;stroke-linejoin:round;stroke-opacity:1"
         d="m 1309,1626.8634 29,0"
         id="path5547-6" />
    </g>
  </g>
</svg>
