<?xml version="1.0" encoding="UTF-8" standalone="no"?>
<svg
   xmlns:dc="http://purl.org/dc/elements/1.1/"
   xmlns:cc="http://creativecommons.org/ns#"
   xmlns:rdf="http://www.w3.org/1999/02/22-rdf-syntax-ns#"
   xmlns:svg="http://www.w3.org/2000/svg"
   xmlns="http://www.w3.org/2000/svg"
   viewBox="0 0 26.99999 21"
   version="1.1"
   id="svg3844"
   height="21"
   width="26.99999">
  <defs
     id="defs3846" />
  <metadata
     id="metadata3849">
    <rdf:RDF>
      <cc:Work
         rdf:about="">
        <dc:format>image/svg+xml</dc:format>
        <dc:type
           rdf:resource="http://purl.org/dc/dcmitype/StillImage" />
        <dc:title />
      </cc:Work>
    </rdf:RDF>
  </metadata>
  <g
     transform="translate(-300.00005,-897.36213)"
     id="layer1">
    <path
       id="path3799-7"
       d="m 306.27781,897.8621 -5.7778,3.06453 c 0.72224,0.6129 2.88891,1.83871 1.44445,4.29034 -1.44445,2.45162 -2.16667,6.12906 0.72223,8.58068 3.61112,3.06453 9.38891,0.6129 10.83335,3.06453 1.44445,-2.45163 7.22225,0 10.83337,-3.06453 2.8889,-2.45162 2.16667,-6.12906 0.72222,-8.58068 -1.44445,-2.45163 0.72222,-3.67744 1.44445,-4.29034 l -5.77779,-3.06453 c 0,0 -1.44446,1.83872 -3.61113,1.83872 -2.16667,0 -3.61112,-1.83872 -3.61112,-1.83872 0,0 -1.44444,1.83872 -3.6111,1.83872 -2.16668,0 -3.61113,-1.83872 -3.61113,-1.83872 z"
       clip-path="none"
       style="color:#3a3836;display:inline;overflow:visible;visibility:visible;opacity:1;fill:#ffffff;fill-opacity:1;fill-rule:evenodd;stroke:#3a3836;stroke-width:1;stroke-linecap:round;stroke-linejoin:round;marker:none;enable-background:accumulate" />
  </g>
</svg>
