<?xml version="1.0" encoding="UTF-8" standalone="no"?>
<svg
   xmlns:dc="http://purl.org/dc/elements/1.1/"
   xmlns:cc="http://creativecommons.org/ns#"
   xmlns:rdf="http://www.w3.org/1999/02/22-rdf-syntax-ns#"
   xmlns:svg="http://www.w3.org/2000/svg"
   xmlns="http://www.w3.org/2000/svg"
   viewBox="0 0 27 37"
   version="1.1"
   id="svg3844"
   height="37"
   width="27">
  <defs
     id="defs3846" />
  <metadata
     id="metadata3849">
    <rdf:RDF>
      <cc:Work
         rdf:about="">
        <dc:format>image/svg+xml</dc:format>
        <dc:type
           rdf:resource="http://purl.org/dc/dcmitype/StillImage" />
        <dc:title />
      </cc:Work>
    </rdf:RDF>
  </metadata>
  <g
     transform="translate(-297.00004,-888.36218)"
     id="layer1">
    <path
       id="path3799-7"
       d="M 303.27779,898.8621 297.5,901.92663 c 0.72224,0.6129 2.88891,1.83871 1.44446,4.29034 -1.44446,2.45162 -2.16668,6.12906 0.72222,8.58068 3.61111,3.06453 9.3889,0.6129 10.83335,3.06453 1.44446,-2.45163 7.22223,0 10.83336,-3.06453 2.88889,-2.45162 2.16667,-6.12906 0.72222,-8.58068 -1.44445,-2.45163 0.72222,-3.67744 1.44445,-4.29034 l -5.7778,-3.06453 c 0,0 -1.44444,1.83872 -3.61111,1.83872 -2.16666,0 -3.61112,-1.83872 -3.61112,-1.83872 0,0 -1.44445,1.83872 -3.61111,1.83872 -2.16668,0 -3.61113,-1.83872 -3.61113,-1.83872 z"
       clip-path="none"
       style="color:#3a3836;display:inline;overflow:visible;visibility:visible;opacity:1;fill:#ffffff;fill-opacity:1;fill-rule:evenodd;stroke:#3a3836;stroke-width:1;stroke-linecap:round;stroke-linejoin:round;marker:none;enable-background:accumulate" />
    <g
       transform="matrix(1.2192924,0,0,1.1810129,-60.89998,-184.57244)"
       style="color:#000000;font-style:normal;font-variant:normal;font-weight:600;font-stretch:normal;font-size:7.5px;line-height:125%;font-family:'Open Sans';-inkscape-font-specification:'Open Sans Semi-Bold';text-indent:0;text-align:start;text-decoration:none;text-decoration-line:none;text-decoration-style:solid;text-decoration-color:#000000;letter-spacing:0px;word-spacing:0px;text-transform:none;direction:ltr;block-progression:tb;writing-mode:lr-tb;baseline-shift:baseline;text-anchor:start;white-space:normal;clip-rule:nonzero;visibility:visible;isolation:auto;mix-blend-mode:normal;color-interpolation:sRGB;color-interpolation-filters:linearRGB;solid-color:#000000;solid-opacity:1;fill:#3a3836;fill-opacity:1;fill-rule:nonzero;stroke:none;stroke-width:0.83333331px;stroke-linecap:butt;stroke-linejoin:miter;stroke-miterlimit:4;stroke-dasharray:none;stroke-dashoffset:0;stroke-opacity:1;marker:none;color-rendering:auto;image-rendering:auto;shape-rendering:auto;text-rendering:auto"
       id="text4827-8" />
    <g
       transform="translate(1.00002)"
       id="g10281">
      <rect
         style="color:#3a3836;display:inline;overflow:visible;visibility:visible;opacity:0;fill:none;fill-opacity:1;fill-rule:nonzero;stroke:none;stroke-width:1;marker:none;enable-background:accumulate"
         id="rect3803-4"
         width="21"
         height="35.000057"
         x="299"
         y="890.36212" />
    </g>
    <g
       id="g10543">
      <rect
         ry="0.99999732"
         rx="1"
         y="888.36224"
         x="300"
         height="9.0000067"
         width="20.999998"
         id="rect4807-3-8"
         style="color:#3a3836;font-style:normal;font-variant:normal;font-weight:600;font-stretch:normal;font-size:medium;line-height:150%;font-family:'Open Sans';-inkscape-font-specification:'Open Sans Semi-Bold';text-indent:0;text-align:start;text-decoration:none;text-decoration-line:none;text-decoration-style:solid;text-decoration-color:#000000;letter-spacing:0px;word-spacing:normal;text-transform:none;direction:ltr;block-progression:tb;writing-mode:lr-tb;baseline-shift:baseline;text-anchor:start;white-space:normal;clip-rule:nonzero;display:inline;overflow:visible;visibility:visible;opacity:1;isolation:auto;mix-blend-mode:normal;color-interpolation:sRGB;color-interpolation-filters:linearRGB;solid-color:#3a3836;solid-opacity:1;fill:#ffffff;fill-opacity:1;fill-rule:evenodd;stroke:none;stroke-width:0.99999988;stroke-linecap:round;stroke-linejoin:round;stroke-miterlimit:4;stroke-dasharray:none;stroke-dashoffset:0;stroke-opacity:1;marker:none;color-rendering:auto;image-rendering:auto;shape-rendering:auto;text-rendering:auto;enable-background:accumulate" />
      <path
         style="font-style:normal;font-variant:normal;font-weight:600;font-stretch:normal;font-size:7.5px;line-height:125%;font-family:'Open Sans';-inkscape-font-specification:'Open Sans Semi-Bold';letter-spacing:-0.2px;word-spacing:0px;fill:#3a3836;fill-opacity:1;stroke:none;stroke-width:1px;stroke-linecap:butt;stroke-linejoin:miter;stroke-opacity:1"
         d="m 4.5898438,-4.5117188 -2.2890626,5.9511719 1.0546876,0 0.5976562,-1.64453122 2.3398438,0 0.6113281,1.64453122 1.0644531,0 -2.2910156,-5.9511719 -1.0878906,0 z m 3.9667968,0.023438 0,5.9277343 3.5917974,0 0,-0.8300781 -2.5917974,0 0,-5.0976562 -1,0 z m 3.2226564,0 0,0.8320312 1.798828,0 0,5.0957031 1.001953,0 0,-5.0957031 1.798828,0 0,-0.8320312 -4.599609,0 z M 5.1308594,-3.677734 c 0.027887,0.1081267 0.077797,0.2792321 0.1503906,0.5117188 0.075347,0.2324733 0.1339146,0.4035987 0.1757812,0.5117187 l 0.5722657,1.6132813 -1.7832031,0 0.5527343,-1.5449219 C 4.9438681,-2.9806108 5.055426,-3.345241 5.1308594,-3.6777344 Z M 16.71875,0.27539062 c -0.200953,1e-8 -0.352944,0.0527898 -0.458984,0.15820313 -0.10606,0.10543333 -0.160157,0.25773812 -0.160157,0.45507813 0,0.19463332 0.0541,0.34619792 0.160157,0.45703122 0.10604,0.1108334 0.258031,0.1660157 0.458984,0.1660157 0.200933,0 0.354878,-0.055182 0.460938,-0.1660157 0.108839,-0.1135333 0.164062,-0.2650979 0.164062,-0.45703122 0,-0.18924001 -0.05411,-0.3391523 -0.160156,-0.44726563 C 17.077534,0.33057292 16.922477,0.27539062 16.71875,0.27539062 Z"
         transform="translate(301,894.36218)"
         id="path4146" />
    </g>
  </g>
</svg>
