<?xml version="1.0" encoding="UTF-8" standalone="no"?>
<svg
   xmlns:dc="http://purl.org/dc/elements/1.1/"
   xmlns:cc="http://creativecommons.org/ns#"
   xmlns:rdf="http://www.w3.org/1999/02/22-rdf-syntax-ns#"
   xmlns:svg="http://www.w3.org/2000/svg"
   xmlns="http://www.w3.org/2000/svg"
   viewBox="0 0 30 21"
   version="1.1"
   id="svg3844"
   height="21"
   width="30">
  <defs
     id="defs3846" />
  <metadata
     id="metadata3849">
    <rdf:RDF>
      <cc:Work
         rdf:about="">
        <dc:format>image/svg+xml</dc:format>
        <dc:type
           rdf:resource="http://purl.org/dc/dcmitype/StillImage" />
        <dc:title />
      </cc:Work>
    </rdf:RDF>
  </metadata>
  <g
     transform="translate(-299.00002,-897.36209)"
     id="layer1">
    <rect
       y="900.36218"
       x="299"
       height="18"
       width="21"
       id="rect3803"
       style="color:#3a3836;display:inline;overflow:visible;visibility:visible;opacity:0;fill:#3a3836;fill-opacity:1;fill-rule:nonzero;stroke:none;stroke-width:1;marker:none;enable-background:accumulate" />
    <path
       id="path3799-7"
       d="m 305.54167,897.86208 -6.04168,3.06452 c 0.60417,0.61291 2.41667,1.83872 1.20833,4.29034 -1.20833,2.45163 -1.81251,6.12906 0.60417,8.58068 3.02084,3.06453 11.4792,0.61291 12.68753,3.06453 1.20835,-2.45162 9.6667,0 12.68754,-3.06453 2.41667,-2.45162 1.8125,-6.12905 0.60417,-8.58068 -1.20834,-2.45162 0.60416,-3.67743 1.20833,-4.29034 l -6.04168,-3.06452 c 0,0 -1.8125,1.83871 -4.22917,1.83871 -2.41668,0 -4.22919,-1.83871 -4.22919,-1.83871 0,0 -1.8125,1.83871 -4.22917,1.83871 -2.41667,0 -4.22918,-1.83871 -4.22918,-1.83871 z"
       clip-path="none"
       style="color:#3a3836;display:inline;overflow:visible;visibility:visible;opacity:1;fill:#ffffff;fill-opacity:1;fill-rule:evenodd;stroke:#3a3836;stroke-width:0.99999994;stroke-linecap:round;stroke-linejoin:round;marker:none;enable-background:accumulate" />
  </g>
</svg>
