<?xml version="1.0" encoding="UTF-8" standalone="no"?>
<svg
   xmlns:dc="http://purl.org/dc/elements/1.1/"
   xmlns:cc="http://creativecommons.org/ns#"
   xmlns:rdf="http://www.w3.org/1999/02/22-rdf-syntax-ns#"
   xmlns:svg="http://www.w3.org/2000/svg"
   xmlns="http://www.w3.org/2000/svg"
   viewBox="0 0 21 37"
   version="1.1"
   id="svg3844"
   height="37"
   width="21">
  <defs
     id="defs3846" />
  <metadata
     id="metadata3849">
    <rdf:RDF>
      <cc:Work
         rdf:about="">
        <dc:format>image/svg+xml</dc:format>
        <dc:type
           rdf:resource="http://purl.org/dc/dcmitype/StillImage" />
        <dc:title />
      </cc:Work>
    </rdf:RDF>
  </metadata>
  <g
     transform="translate(-299,-888.36218)"
     id="layer1">
    <g
       id="g10365"
       transform="translate(-0.99998)">
      <g
         style="color:#000000;font-style:normal;font-variant:normal;font-weight:600;font-stretch:normal;font-size:6.76705217px;line-height:150%;font-family:'Open Sans';-inkscape-font-specification:'Open Sans Semi-Bold';text-indent:0;text-align:start;text-decoration:none;text-decoration-line:none;text-decoration-style:solid;text-decoration-color:#000000;letter-spacing:0px;word-spacing:normal;text-transform:none;direction:ltr;block-progression:tb;writing-mode:lr-tb;baseline-shift:baseline;text-anchor:start;white-space:normal;clip-rule:nonzero;display:inline;overflow:visible;visibility:visible;opacity:1;isolation:auto;mix-blend-mode:normal;color-interpolation:sRGB;color-interpolation-filters:linearRGB;solid-color:#000000;solid-opacity:1;fill:#3a3836;fill-opacity:1;fill-rule:nonzero;stroke:none;stroke-width:4;stroke-linecap:round;stroke-linejoin:bevel;stroke-miterlimit:4;stroke-dasharray:none;stroke-dashoffset:0;stroke-opacity:1;marker:none;color-rendering:auto;image-rendering:auto;shape-rendering:auto;text-rendering:auto;enable-background:accumulate"
         id="text5850-5"
         transform="translate(-30.720966,-5.0000051)">
        <g
           id="g10355"
           transform="matrix(1.2,0,0,1.2,-68.244193,-179.57244)"
           style="stroke-width:3.33333325">
          <rect
             ry="0.83333111"
             rx="0.83333331"
             y="894.11224"
             x="332.47095"
             height="7.5000052"
             width="17.499998"
             id="rect4807-3-8"
             style="color:#3a3836;clip-rule:nonzero;display:inline;overflow:visible;visibility:visible;opacity:1;isolation:auto;mix-blend-mode:normal;color-interpolation:sRGB;color-interpolation-filters:linearRGB;solid-color:#3a3836;solid-opacity:1;fill:#ffffff;fill-opacity:1;fill-rule:evenodd;stroke:none;stroke-width:0.83333325;stroke-linecap:round;stroke-linejoin:round;stroke-miterlimit:4;stroke-dasharray:none;stroke-dashoffset:0;stroke-opacity:1;marker:none;color-rendering:auto;image-rendering:auto;shape-rendering:auto;text-rendering:auto;enable-background:accumulate" />
        </g>
      </g>
      <g
         id="g10281"
         transform="translate(1)">
        <path
           id="path3799"
           d="m 303.25,898.86211 -3.75001,3.06453 c 0.62499,0.6129 2.5,1.83872 1.24999,4.29034 -1.24999,2.45162 -1.87501,6.12906 0.625,8.58068 3.12501,3.06453 6.87503,0.61291 8.12502,3.06453 1.25001,-2.45162 5.00002,0 8.12503,-3.06453 2.50001,-2.45162 1.87501,-6.12906 0.62501,-8.58068 -1.25001,-2.45162 0.625,-3.67744 1.25,-4.29034 l -3.75001,-3.06453 c 0,0 -1.25001,1.83872 -3.12501,1.83872 -1.87501,0 -3.12502,-1.83872 -3.12502,-1.83872 0,0 -1.24999,1.83872 -3.125,1.83872 -1.87501,0 -3.12501,-1.83872 -3.12501,-1.83872 z"
           clip-path="none"
           style="color:#3a3836;display:inline;overflow:visible;visibility:visible;opacity:1;fill:#ffffff;fill-opacity:1;fill-rule:evenodd;stroke:#3a3836;stroke-width:1;stroke-linecap:round;stroke-linejoin:round;marker:none;enable-background:accumulate" />
        <rect
           y="890.36212"
           x="299"
           height="35.000057"
           width="21"
           id="rect3803-4"
           style="color:#3a3836;display:inline;overflow:visible;visibility:visible;opacity:0;fill:none;fill-opacity:1;fill-rule:nonzero;stroke:none;stroke-width:1;marker:none;enable-background:accumulate" />
      </g>
    </g>
    <g
       id="text4827"
       style="font-style:normal;font-variant:normal;font-weight:600;font-stretch:normal;font-size:7.5px;line-height:125%;font-family:'Open Sans';-inkscape-font-specification:'Open Sans Semi-Bold';letter-spacing:0px;word-spacing:0px;fill:#3a3836;fill-opacity:1;stroke:none;stroke-width:0.83333331px;stroke-linecap:butt;stroke-linejoin:miter;stroke-opacity:1"
       transform="matrix(1.2192924,0,0,1.1810129,-61.953609,-184.58462)">
      <path
         id="path4146"
         style="font-style:normal;font-variant:normal;font-weight:600;font-stretch:normal;font-size:7.5px;font-family:'Open Sans';-inkscape-font-specification:'Open Sans Semi-Bold';letter-spacing:-0.2px;fill:#3a3836;fill-opacity:1;stroke-width:0.83333331px"
         d="m 302.47453,914.79707 -0.50128,-1.39394 -1.91924,0 -0.49097,1.39394 -0.86521,0 1.87805,-5.04016 0.89267,0 1.87805,5.04016 -0.87207,0 z m -0.71757,-2.10121 -0.47037,-1.36648 q -0.0515,-0.13733 -0.1442,-0.43259 -0.0893,-0.29528 -0.12361,-0.43261 -0.0928,0.4223 -0.27123,0.92357 l -0.45321,1.30811 1.46262,0 z" />
      <path
         id="path4148"
         style="font-style:normal;font-variant:normal;font-weight:600;font-stretch:normal;font-size:7.5px;font-family:'Open Sans';-inkscape-font-specification:'Open Sans Semi-Bold';letter-spacing:-0.2px;fill:#3a3836;fill-opacity:1;stroke-width:0.83333331px"
         d="m 303.82859,914.79707 0,-5.01956 0.82057,0 0,4.31572 2.12525,0 0,0.70384 -2.94582,0 z" />
      <path
         id="path4150"
         style="font-style:normal;font-variant:normal;font-weight:600;font-stretch:normal;font-size:7.5px;font-family:'Open Sans';-inkscape-font-specification:'Open Sans Semi-Bold';letter-spacing:-0.2px;fill:#3a3836;fill-opacity:1;stroke-width:0.83333331px"
         d="m 308.76893,914.79707 -0.82059,0 0,-4.31573 -1.47633,0 0,-0.70383 3.77325,0 0,0.70383 -1.47633,0 0,4.31573 z" />
      <path
         id="path4152"
         style="font-style:normal;font-variant:normal;font-weight:600;font-stretch:normal;font-size:7.5px;font-family:'Open Sans';-inkscape-font-specification:'Open Sans Semi-Bold';letter-spacing:-0.2px;fill:#3a3836;fill-opacity:1;stroke-width:0.83333331px"
         d="m 310.01587,914.32926 q 0,-0.25064 0.13047,-0.38455 0.13046,-0.13389 0.37767,-0.13389 0.25063,0 0.38111,0.14077 0.13046,0.13732 0.13046,0.37767 0,0.24377 -0.1339,0.38797 -0.13047,0.14077 -0.37767,0.14077 -0.24721,0 -0.37767,-0.14077 -0.13047,-0.14077 -0.13047,-0.38797 z" />
    </g>
  </g>
</svg>
