<?xml version="1.0" encoding="utf-8"?>
<svg version="1.1"
	 id="svg3844" xmlns:dc="http://purl.org/dc/elements/1.1/" xmlns:cc="http://creativecommons.org/ns#" xmlns:rdf="http://www.w3.org/1999/02/22-rdf-syntax-ns#" xmlns:svg="http://www.w3.org/2000/svg" xmlns:sodipodi="http://sodipodi.sourceforge.net/DTD/sodipodi-0.dtd" xmlns:inkscape="http://www.inkscape.org/namespaces/inkscape" sodipodi:docname="us-interstate-1-large.svg" inkscape:version="0.91+devel+osxmenu r12911"
	 xmlns="http://www.w3.org/2000/svg" xmlns:xlink="http://www.w3.org/1999/xlink" x="0px" y="0px" width="46" height="54"
	 viewBox="-1 -1 23 27" enable-background="new -1 -1 23 27" xml:space="preserve">
<path fill="#5396C7" d="M10.5,23.86c0,0,10.5-4.842,10.5-14.526V5.86H0v3.474C0,19.018,10.5,23.86,10.5,23.86z"/>
<path fill="#E97474" d="M15.132,3.281c-2.162,0-4.632-2.421-4.632-2.421S8.029,3.281,5.868,3.281c-2.162,0-4.632-2.421-4.632-2.421
	C0.777,2.338,0,3.439,0,5.86h21c0-2.421-1.235-5-1.235-5S17.294,3.281,15.132,3.281z"/>
<path fill="#FFFFFF" d="M20.667,0.428l-0.604-1.26l-0.997,0.977h0c-0.609,0.594-2.503,2.136-3.933,2.136
	c-1.431,0-3.367-1.581-3.932-2.135L10.5-0.54L9.8,0.146C9.192,0.74,7.298,2.281,5.868,2.281C4.436,2.281,2.5,0.7,1.935,0.146
	L0.766-1L0.28,0.564C0.17,0.919,0.036,1.259-0.106,1.619C-0.525,2.683-1,3.89-1,5.86v1h1h21h1v-1
	C22,3.242,20.721,0.542,20.667,0.428z M0,5.86c0-2.421,0.777-3.523,1.235-5c0,0,2.471,2.421,4.632,2.421
	c2.162,0,4.632-2.421,4.632-2.421s2.471,2.421,4.632,2.421c2.162,0,4.632-2.421,4.632-2.421S21,3.439,21,5.86H0z"/>
<path fill="#FFFFFF" d="M-1,5.86v3.474c0,1.763,0.351,3.483,1,5.137c0.915,2.331,2.44,4.527,4.572,6.493
	c1.413,1.303,2.816,2.264,3.855,2.896c0.953,0.58,1.6,0.883,1.654,0.908l0.419,0.193l0.419-0.193
	c0.054-0.025,0.701-0.328,1.654-0.908c1.039-0.632,2.442-1.593,3.855-2.896c2.132-1.966,3.657-4.163,4.572-6.493
	c0.649-1.654,1-3.374,1-5.137V5.86H-1z M0,6.86h21v2.474c0,9.684-10.5,14.526-10.5,14.526S0,19.018,0,9.334V6.86z"/>
</svg>
