<?xml version="1.0" encoding="utf-8"?>
<svg version="1.1"
	 id="svg3844" xmlns:dc="http://purl.org/dc/elements/1.1/" xmlns:cc="http://creativecommons.org/ns#" xmlns:rdf="http://www.w3.org/1999/02/22-rdf-syntax-ns#" xmlns:svg="http://www.w3.org/2000/svg" xmlns:sodipodi="http://sodipodi.sourceforge.net/DTD/sodipodi-0.dtd" xmlns:inkscape="http://www.inkscape.org/namespaces/inkscape" sodipodi:docname="us-interstate-2-large.svg" inkscape:version="0.91+devel+osxmenu r12911"
	 xmlns="http://www.w3.org/2000/svg" xmlns:xlink="http://www.w3.org/1999/xlink" x="0px" y="0px" width="27px" height="27px"
	 viewBox="-1 -1 27 27" enable-background="new -1 -1 27 27" xml:space="preserve">
<path fill="#E97474" d="M23.529,0.663c0,0-2.941,2.421-5.515,2.421S12.5,0.663,12.5,0.663S9.559,3.084,6.985,3.084
	S1.471,0.663,1.471,0.663C0.925,2.14,0,3.242,0,5.663h25C25,3.242,23.529,0.663,23.529,0.663z"/>
<path fill="#5396C7" d="M12.5,23.663c0,0,12.5-4.842,12.5-14.526V6.663H0v2.474C0,18.82,12.5,23.663,12.5,23.663z"/>
<polygon fill="#FFFFFF" points="-0.5,6.5 -0.5,6 -1,6 -1,7 -0.5,7 "/>
<path fill="#FFFFFF" d="M24.398,0.167L23.81-0.864L22.894-0.11c-0.745,0.611-3.072,2.193-4.879,2.193
	c-1.817,0-4.138-1.583-4.879-2.193L12.5-0.633L11.864-0.11C11.121,0.5,8.793,2.084,6.985,2.084S2.85,0.5,2.105-0.11L1.02-1
	L0.533,0.316c-0.13,0.351-0.288,0.689-0.456,1.047C-0.428,2.439-1,3.659-1,5.663v1v2.474c0,10.251,12.602,15.251,13.139,15.459
	l0.361,0.14l0.361-0.14C13.398,24.387,26,19.388,26,9.136V6.663v-1C26,3.007,24.464,0.282,24.398,0.167z M1.471,0.663
	c0,0,2.941,2.421,5.515,2.421S12.5,0.663,12.5,0.663s2.941,2.421,5.515,2.421s5.515-2.421,5.515-2.421S25,3.242,25,5.663H0
	C0,3.242,0.925,2.14,1.471,0.663z M25,6.663v2.474c0,9.684-12.5,14.526-12.5,14.526S0,18.82,0,9.136V6.663H25z"/>
</svg>
