<?xml version="1.0" encoding="utf-8"?>
<!-- Generator: Adobe Illustrator 17.0.0, SVG Export Plug-In . SVG Version: 6.00 Build 0)  -->
<!DOCTYPE svg PUBLIC "-//W3C//DTD SVG 1.1//EN" "http://www.w3.org/Graphics/SVG/1.1/DTD/svg11.dtd">
<svg version="1.1"
	 id="svg3844" xmlns:dc="http://purl.org/dc/elements/1.1/" xmlns:cc="http://creativecommons.org/ns#" xmlns:rdf="http://www.w3.org/1999/02/22-rdf-syntax-ns#" xmlns:svg="http://www.w3.org/2000/svg" xmlns:sodipodi="http://sodipodi.sourceforge.net/DTD/sodipodi-0.dtd" xmlns:inkscape="http://www.inkscape.org/namespaces/inkscape" sodipodi:docname="us-interstate-business-3-large.svg" inkscape:version="0.91+devel+osxmenu r12911"
	 xmlns="http://www.w3.org/2000/svg" xmlns:xlink="http://www.w3.org/1999/xlink" x="0px" y="0px" width="66" height="52"
	 viewBox="-1 -1 33 26" enable-background="new -1 -1 33 26" xml:space="preserve">
<path fill="#7E9A4C" d="M15.5,23.384c0,0,15.5-3.618,15.5-14.481V6.384H0v2.519C0,19.766,15.5,23.384,15.5,23.384z"/>
<path fill="#7E9A4C" d="M22.338,2.883c-3.191,0-6.838-2.499-6.838-2.499s-3.647,2.499-6.838,2.499c-3.191,0-6.838-2.499-6.838-2.499
	S0,2.985,0,5.384h31c0-2.399-1.824-5-1.824-5S25.529,2.883,22.338,2.883z"/>
<path fill="#FFFFFF" d="M29.995-0.19l-0.567-0.809l-0.816,0.557c-0.034,0.023-3.437,2.325-6.274,2.325
	c-2.849,0-6.239-2.301-6.273-2.324l-0.564-0.387l-0.566,0.386c-0.034,0.023-3.437,2.325-6.274,2.325
	c-2.848,0-6.239-2.301-6.273-2.324L1.573-1L1.005-0.19C0.923-0.073-1,2.7-1,5.384v1v2.519c0,4.817,2.851,9.028,8.246,12.178
	c3.96,2.312,7.863,3.239,8.027,3.277l0.227,0.053l0.227-0.053c0.164-0.038,4.067-0.965,8.027-3.277C29.149,17.931,32,13.72,32,8.903
	V6.384v-1C32,2.7,30.077-0.073,29.995-0.19z M31,8.903c0,10.863-15.5,14.481-15.5,14.481S0,19.766,0,8.903V6.384h31V8.903z M0,5.384
	c0-2.399,1.824-5,1.824-5s3.647,2.499,6.838,2.499c3.191,0,6.838-2.499,6.838-2.499s3.647,2.499,6.838,2.499
	c3.191,0,6.838-2.499,6.838-2.499S31,2.985,31,5.384H0z"/>
</svg>
