<?xml version="1.0" encoding="utf-8"?>
<!-- Generator: Adobe Illustrator 17.0.0, SVG Export Plug-In . SVG Version: 6.00 Build 0)  -->
<!DOCTYPE svg PUBLIC "-//W3C//DTD SVG 1.1//EN" "http://www.w3.org/Graphics/SVG/1.1/DTD/svg11.dtd">
<svg version="1.1"
	 id="svg3844" xmlns:dc="http://purl.org/dc/elements/1.1/" xmlns:cc="http://creativecommons.org/ns#" xmlns:rdf="http://www.w3.org/1999/02/22-rdf-syntax-ns#" xmlns:svg="http://www.w3.org/2000/svg" xmlns:sodipodi="http://sodipodi.sourceforge.net/DTD/sodipodi-0.dtd" xmlns:inkscape="http://www.inkscape.org/namespaces/inkscape" sodipodi:docname="us-interstate-business-1-small.svg" inkscape:version="0.91+devel+osxmenu r12911"
	 xmlns="http://www.w3.org/2000/svg" xmlns:xlink="http://www.w3.org/1999/xlink" x="0px" y="0px" width="38" height="44"
	 viewBox="-1 -1 19 22" enable-background="new -1 -1 19 22" xml:space="preserve">
<path fill="#7E9A4C" d="M8.5,19.89c0,0,8.5-4,8.5-12v-2H0v2C0,15.89,8.5,19.89,8.5,19.89z"/>
<path fill="#7E9A4C" d="M16,0.89c0,0-2,2-3.75,2s-3.75-2-3.75-2s-2,2-3.75,2S1,0.89,1,0.89c-0.371,1.22-1,2-1,4h17
	C17,2.89,16,0.89,16,0.89z"/>
<path fill="#FFFFFF" d="M16.894,0.443l-0.62-1.241l-0.981,0.981c-0.665,0.66-2.078,1.707-3.043,1.707c-1.09,0-2.6-1.264-3.043-1.707
	L8.5-0.524L7.793,0.183C7.13,0.843,5.716,1.89,4.75,1.89c-1.09,0-2.6-1.264-3.043-1.707L0.528-0.996L0.043,0.6
	C-0.048,0.898-0.16,1.178-0.28,1.473C-0.617,2.309-1,3.256-1,4.89v1v2c0,3.554,1.578,6.918,4.565,9.728
	c2.215,2.085,4.417,3.133,4.51,3.177l0.426,0.2l0.426-0.2c0.093-0.044,2.294-1.092,4.51-3.177C16.422,14.808,18,11.444,18,7.89v-2
	v-1C18,2.68,16.94,0.533,16.894,0.443z M17,7.89c0,8-8.5,12-8.5,12s-8.5-4-8.5-12v-2h17V7.89z M0,4.89c0-2,0.629-2.78,1-4
	c0,0,2,2,3.75,2s3.75-2,3.75-2s2,2,3.75,2s3.75-2,3.75-2s1,2,1,4H0z"/>
</svg>
