<?xml version="1.0" encoding="utf-8"?>
<!-- Generator: Adobe Illustrator 17.0.0, SVG Export Plug-In . SVG Version: 6.00 Build 0)  -->
<!DOCTYPE svg PUBLIC "-//W3C//DTD SVG 1.1//EN" "http://www.w3.org/Graphics/SVG/1.1/DTD/svg11.dtd">
<svg version="1.1"
	 id="svg3844" xmlns:dc="http://purl.org/dc/elements/1.1/" xmlns:cc="http://creativecommons.org/ns#" xmlns:rdf="http://www.w3.org/1999/02/22-rdf-syntax-ns#" xmlns:svg="http://www.w3.org/2000/svg" xmlns:sodipodi="http://sodipodi.sourceforge.net/DTD/sodipodi-0.dtd" xmlns:inkscape="http://www.inkscape.org/namespaces/inkscape" sodipodi:docname="us-interstate-business-2-large.svg" inkscape:version="0.91+devel+osxmenu r12911"
	 xmlns="http://www.w3.org/2000/svg" xmlns:xlink="http://www.w3.org/1999/xlink" x="0px" y="0px" width="27px" height="26px"
	 viewBox="-1 -1 27 26" enable-background="new -1 -1 27 26" xml:space="preserve">
<path fill="#7E9A4C" d="M12.5,23.666c0,0,12.5-4.842,12.5-14.526V6.666H0V9.14C0,18.824,12.5,23.666,12.5,23.666z"/>
<path fill="#7E9A4C" d="M23.529,0.666c0,0-2.941,2.421-5.515,2.421S12.5,0.666,12.5,0.666S9.559,3.087,6.985,3.087
	S1.471,0.666,1.471,0.666C0.925,2.143,0,3.245,0,5.666h25C25,3.245,23.529,0.666,23.529,0.666z"/>
<path fill="#FFFFFF" d="M24.398,0.171L23.81-0.86l-0.916,0.754c-0.745,0.61-3.072,2.194-4.88,2.194
	c-1.817,0-4.138-1.583-4.879-2.193L12.5-0.629l-0.636,0.523c-0.744,0.61-3.071,2.193-4.879,2.193c-1.817,0-4.138-1.583-4.879-2.193
	L1.02-1L0.533,0.32c-0.13,0.351-0.288,0.689-0.456,1.047C-0.428,2.443-1,3.663-1,5.666v1V9.14c0,10.251,12.602,15.251,13.139,15.459
	l0.361,0.14l0.361-0.14C13.398,24.391,26,19.391,26,9.14V6.666v-1C26,3.01,24.464,0.285,24.398,0.171z M25,9.14
	c0,9.684-12.5,14.526-12.5,14.526S0,18.824,0,9.14V6.666h25V9.14z M0,5.666c0-2.421,0.925-3.523,1.471-5
	c0,0,2.941,2.421,5.515,2.421S12.5,0.666,12.5,0.666s2.941,2.421,5.515,2.421s5.515-2.421,5.515-2.421S25,3.245,25,5.666H0z"/>
</svg>
