<?xml version="1.0" encoding="utf-8"?>
<!-- Generator: Adobe Illustrator 17.0.0, SVG Export Plug-In . SVG Version: 6.00 Build 0)  -->
<!DOCTYPE svg PUBLIC "-//W3C//DTD SVG 1.1//EN" "http://www.w3.org/Graphics/SVG/1.1/DTD/svg11.dtd">
<svg version="1.1"
	 id="svg3844" xmlns:dc="http://purl.org/dc/elements/1.1/" xmlns:cc="http://creativecommons.org/ns#" xmlns:rdf="http://www.w3.org/1999/02/22-rdf-syntax-ns#" xmlns:svg="http://www.w3.org/2000/svg" xmlns:sodipodi="http://sodipodi.sourceforge.net/DTD/sodipodi-0.dtd" xmlns:inkscape="http://www.inkscape.org/namespaces/inkscape" sodipodi:docname="us-interstate-duplex-5-large.svg" inkscape:version="0.91+devel+osxmenu r12911"
	 xmlns="http://www.w3.org/2000/svg" xmlns:xlink="http://www.w3.org/1999/xlink" x="0px" y="0px" width="82" height="54"
	 viewBox="-1 -1 41 27" enable-background="new -1 -1 41 27" xml:space="preserve">
<path fill="#5396C7" d="M19.43,23.25c0,0,19.5,0,19.5-13.316V6.25h-39v3.684C-0.07,23.25,19.43,23.25,19.43,23.25z"/>
<path fill="#E97474" d="M36.636,0.25c0,0-4.588,2.421-8.603,2.421S19.43,0.25,19.43,0.25s-4.588,2.421-8.603,2.421
	S2.224,0.25,2.224,0.25s-2.294,2.579-2.294,5h39C38.93,2.828,36.636,0.25,36.636,0.25z"/>
<polygon fill="#FFFFFF" points="39.5,5 39.5,5.5 39.5,6 40,6 40,5 "/>
<path fill="#FFFFFF" d="M39.43,5.75v-0.5h0.5c0-2.77-2.443-5.548-2.547-5.665L36.863-1L36.17-0.635
	c-0.044,0.023-4.424,2.306-8.137,2.306c-3.724,0-8.093-2.282-8.136-2.305l-0.466-0.246l-0.467,0.246
	c-0.044,0.023-4.424,2.306-8.137,2.306S2.734-0.612,2.691-0.635L1.998-1L1.477-0.415C1.373-0.298-1.07,2.48-1.07,5.25v1v3.684
	c0,14.152,20.295,14.316,20.5,14.316s20.5-0.164,20.5-14.316V6.25h-0.5V5.75z M-0.07,5.25c0-2.421,2.294-5,2.294-5
	s4.588,2.421,8.603,2.421S19.43,0.25,19.43,0.25s4.588,2.421,8.603,2.421s8.603-2.421,8.603-2.421s2.294,2.579,2.294,5H-0.07z
	 M38.93,9.934c0,13.316-19.5,13.316-19.5,13.316s-19.5,0-19.5-13.316V6.25h39V9.934z"/>
</svg>
