<?xml version="1.0" encoding="utf-8"?>
<!-- Generator: Adobe Illustrator 17.0.0, SVG Export Plug-In . SVG Version: 6.00 Build 0)  -->
<!DOCTYPE svg PUBLIC "-//W3C//DTD SVG 1.1//EN" "http://www.w3.org/Graphics/SVG/1.1/DTD/svg11.dtd">
<svg version="1.1"
	 id="svg3844" xmlns:dc="http://purl.org/dc/elements/1.1/" xmlns:cc="http://creativecommons.org/ns#" xmlns:rdf="http://www.w3.org/1999/02/22-rdf-syntax-ns#" xmlns:svg="http://www.w3.org/2000/svg" xmlns:sodipodi="http://sodipodi.sourceforge.net/DTD/sodipodi-0.dtd" xmlns:inkscape="http://www.inkscape.org/namespaces/inkscape" sodipodi:docname="us-interstate-business-1-large.svg" inkscape:version="0.91+devel+osxmenu r12911"
	 xmlns="http://www.w3.org/2000/svg" xmlns:xlink="http://www.w3.org/1999/xlink" x="0px" y="0px" width="23px" height="26px"
	 viewBox="-1 -1 23 26" enable-background="new -1 -1 23 26" xml:space="preserve">
<path fill="#7E9A4C" d="M21,9.334V6.86H0v2.474v0c0,7.737,6.698,12.38,9.393,13.936c0.205,0.119,0.386,0.219,0.541,0.302
	c0.355,0.19,0.567,0.289,0.567,0.289s0.212-0.099,0.567-0.289c0.154-0.083,0.335-0.183,0.541-0.302
	C14.302,21.714,21,17.071,21,9.334L21,9.334z"/>
<path fill="#7E9A4C" d="M20.626,3.281c-0.364-1.379-0.861-2.421-0.861-2.421s-2.471,2.421-4.632,2.421
	c-2.162,0-4.632-2.421-4.632-2.421S8.029,3.281,5.868,3.281c-2.162,0-4.632-2.421-4.632-2.421C0.98,1.684,0.629,2.398,0.365,3.281
	C0.156,3.983,0,4.789,0,5.86h21C21,4.977,20.835,4.074,20.626,3.281z"/>
<path fill="#FFFFFF" d="M21.593,3.027c-0.383-1.454-0.904-2.551-0.926-2.597l-0.603-1.262l-0.999,0.979
	c-0.61,0.595-2.503,2.135-3.932,2.135c-1.43,0-3.324-1.542-3.933-2.136l-0.7-0.683L9.8,0.146C9.192,0.74,7.298,2.281,5.868,2.281
	C4.436,2.281,2.5,0.7,1.935,0.146L0.766-1L0.28,0.564C0.17,0.92,0.036,1.262-0.104,1.623C-0.271,2.05-0.443,2.491-0.593,2.996
	C-0.871,3.925-1,4.836-1,5.86v1v2.474c0,1.231,0.181,2.44,0.5,3.623c0.138,0.51,0.304,1.015,0.5,1.514
	c0.915,2.331,2.44,4.527,4.572,6.493c1.351,1.246,2.696,2.182,3.719,2.814l0.136,0.083c0.135,0.082,0.263,0.159,0.385,0.23
	c0.172,0.1,0.334,0.192,0.476,0.27c0.466,0.256,0.757,0.392,0.793,0.408l0.199,0.092l0.219,0.101l0.219-0.101l0.199-0.092
	c0.036-0.016,0.327-0.152,0.793-0.408c0.142-0.078,0.304-0.17,0.476-0.27c0.122-0.071,0.25-0.147,0.385-0.23l0.136-0.083
	c1.023-0.632,2.368-1.568,3.719-2.814c2.132-1.966,3.657-4.163,4.572-6.493c0.196-0.499,0.362-1.003,0.5-1.514
	c0.319-1.183,0.5-2.392,0.5-3.623V6.86v-1C22,5.005,21.863,4.051,21.593,3.027z M21,9.334L21,9.334
	c0,7.737-6.698,12.38-9.393,13.936c-0.205,0.119-0.386,0.219-0.541,0.302c-0.355,0.19-0.567,0.289-0.567,0.289
	s-0.212-0.099-0.567-0.289c-0.154-0.083-0.335-0.183-0.541-0.302C6.698,21.714,0,17.071,0,9.334v0V6.86h21V9.334z M21,5.86H0
	c0-1.071,0.156-1.877,0.365-2.579C0.629,2.398,0.98,1.684,1.235,0.86c0,0,2.471,2.421,4.632,2.421c2.162,0,4.632-2.421,4.632-2.421
	s2.471,2.421,4.632,2.421c2.162,0,4.632-2.421,4.632-2.421s0.498,1.042,0.861,2.421C20.835,4.074,21,4.977,21,5.86z"/>
</svg>
