<?xml version="1.0" encoding="utf-8"?>
<!-- Generator: Adobe Illustrator 17.0.0, SVG Export Plug-In . SVG Version: 6.00 Build 0)  -->
<!DOCTYPE svg PUBLIC "-//W3C//DTD SVG 1.1//EN" "http://www.w3.org/Graphics/SVG/1.1/DTD/svg11.dtd">
<svg version="1.1"
	 id="svg3122" xmlns:dc="http://purl.org/dc/elements/1.1/" xmlns:cc="http://creativecommons.org/ns#" xmlns:rdf="http://www.w3.org/1999/02/22-rdf-syntax-ns#" xmlns:svg="http://www.w3.org/2000/svg" xmlns:sodipodi="http://sodipodi.sourceforge.net/DTD/sodipodi-0.dtd" xmlns:inkscape="http://www.inkscape.org/namespaces/inkscape" sodipodi:docname="dlr.london-underground-15.svg" inkscape:version="0.91+devel+osxmenu r12911"
	 xmlns="http://www.w3.org/2000/svg" xmlns:xlink="http://www.w3.org/1999/xlink" x="0px" y="0px" width="78" height="38"
	 viewBox="-2 -2 39 19" enable-background="new -2 -2 39 19" xml:space="preserve">
<path fill="#FFFFFF" d="M34.302,4.132C32.982,1.05,29.953-1,26.5-1s-6.482,2.05-7.802,5.132C18.215,4.296,17.8,4.605,17.5,5.005
	c-0.3-0.4-0.715-0.71-1.198-0.873C14.982,1.05,11.953-1,8.5-1S2.018,1.05,0.698,4.132C-0.288,4.467-1,5.402-1,6.5v2
	c0,1.098,0.712,2.033,1.698,2.368C2.018,13.95,5.047,16,8.5,16s6.482-2.05,7.802-5.132c0.483-0.164,0.898-0.473,1.198-0.873
	c0.3,0.4,0.715,0.71,1.198,0.873C20.018,13.95,23.047,16,26.5,16s6.482-2.05,7.802-5.132C35.288,10.533,36,9.598,36,8.5v-2
	C36,5.402,35.288,4.467,34.302,4.132z"/>
<sodipodi:namedview  id="namedview14796" inkscape:zoom="11.313708" inkscape:cx="16.293917" showgrid="true" gridtolerance="10" inkscape:cy="9.0540568" objecttolerance="10" guidetolerance="10" bordercolor="#666666" borderopacity="1" pagecolor="#ffffff" inkscape:current-layer="svg3122" inkscape:pageopacity="0" inkscape:window-y="23" inkscape:window-x="0" inkscape:window-width="640" inkscape:document-units="px" inkscape:pageshadow="2" inkscape:window-height="480" inkscape:window-maximized="0">
	<inkscape:grid  type="xygrid" id="grid20931"></inkscape:grid>
</sodipodi:namedview>
<g id="g9324" transform="translate(1,-3)">
	<path id="path3346" inkscape:connector-curvature="0" fill="#9CC883" d="M7.5,4C3.91,4,1,6.91,1,10.5S3.91,17,7.5,17
		s6.5-2.91,6.5-6.5S11.09,4,7.5,4z M7.5,6.5c2.209,0,4,1.791,4,4l0,0c0,2.209-1.791,4-4,4h0c-2.209,0-4-1.791-4-4l0,0
		C3.5,8.291,5.291,6.5,7.5,6.5C7.5,6.5,7.5,6.5,7.5,6.5z"/>
	<path id="rect3363" fill="#5396C7" d="M0.5,9h14C14.776,9,15,9.224,15,9.5v2c0,0.276-0.224,0.5-0.5,0.5h-14
		C0.224,12,0,11.776,0,11.5v-2C0,9.224,0.224,9,0.5,9z"/>
</g>
<g id="g9329" transform="translate(19,-3)">
	<path id="path9333" inkscape:connector-curvature="0" fill="#E97474" d="M7.5,4C3.91,4,1,6.91,1,10.5S3.91,17,7.5,17
		s6.5-2.91,6.5-6.5S11.09,4,7.5,4z M7.5,6.5c2.209,0,4,1.791,4,4l0,0c0,2.209-1.791,4-4,4h0c-2.209,0-4-1.791-4-4l0,0
		C3.5,8.291,5.291,6.5,7.5,6.5C7.5,6.5,7.5,6.5,7.5,6.5z"/>
	<path id="rect9335" fill="#5396C7" d="M0.5,9h14C14.776,9,15,9.224,15,9.5v2c0,0.276-0.224,0.5-0.5,0.5h-14
		C0.224,12,0,11.776,0,11.5v-2C0,9.224,0.224,9,0.5,9z"/>
</g>
</svg>
