<?xml version="1.0" encoding="utf-8"?>
<svg version="1.1"
	 id="svg4764" xmlns:dc="http://purl.org/dc/elements/1.1/" xmlns:cc="http://creativecommons.org/ns#" xmlns:rdf="http://www.w3.org/1999/02/22-rdf-syntax-ns#" xmlns:svg="http://www.w3.org/2000/svg"
	 xmlns="http://www.w3.org/2000/svg" xmlns:xlink="http://www.w3.org/1999/xlink" x="0px" y="0px" width="34" height="34"
	 viewBox="0 0 17 17" enable-background="new 0 0 17 17" xml:space="preserve">
<g>
	<path fill="#FFFFFF" d="M14.062,0H2.938C1.318,0,0,1.318,0,2.938v11.125C0,15.682,1.318,17,2.938,17h11.125
		C15.682,17,17,15.682,17,14.062V2.938C17,1.318,15.682,0,14.062,0z M16,14.062C16,15.133,15.133,16,14.062,16H2.938
		C1.867,16,1,15.133,1,14.062V2.938C1,1.867,1.867,1,2.938,1h11.125C15.133,1,16,1.867,16,2.938V14.062z"/>
	<circle fill="#9C8EA4" cx="8.5" cy="9.438" r="0.5"/>
	<path fill="#9C8EA4" d="M14.062,1H2.938C1.867,1,1,1.867,1,2.938v11.125C1,15.133,1.867,16,2.938,16h11.125
		C15.133,16,16,15.133,16,14.062V2.938C16,1.867,15.133,1,14.062,1z M6,5.938c0-1,1-1,1-1l1-0.029V3.938H7c-0.5,0-0.5-0.5-0.5-0.5
		s0-0.5,0.5-0.5l3,0c0.5,0,0.5,0.5,0.5,0.5s0,0.5-0.5,0.5H9v1h1c0,0,1,0,1,1v3c0,2-2,2-2,2H8c0,0-2,0-2-2V5.938z M10.5,13.938
		l-0.334-1H6.834l-0.334,1H5l0.834-2.5h1.498l-0.166,0.5h2.668l-0.166-0.5h1.498l0.834,2.5H10.5z"/>
	<polygon fill="#9C8EA4" points="10,7.938 10,6.438 8.5,5.938 7,6.438 7,7.938 8.5,7.938 	"/>
	<polygon fill="#FFFFFF" points="9.668,11.438 9.834,11.938 7.166,11.938 7.332,11.438 5.834,11.438 5,13.938 6.5,13.938
		6.834,12.938 10.166,12.938 10.5,13.938 12,13.938 11.166,11.438 	"/>
	<path fill="#FFFFFF" d="M8,10.938h1c0,0,2,0,2-2v-3c0-1-1-1-1-1H9v-1h1c0.5,0,0.5-0.5,0.5-0.5s0-0.5-0.5-0.5l-3,0
		c-0.5,0-0.5,0.5-0.5,0.5s0,0.5,0.5,0.5h1v0.971L7,4.938c0,0-1,0-1,1v3C6,10.938,8,10.938,8,10.938z M8.5,9.938
		c-0.277,0-0.5-0.223-0.5-0.5s0.223-0.5,0.5-0.5c0.277,0,0.5,0.223,0.5,0.5S8.777,9.938,8.5,9.938z M7,6.438l1.5-0.5l1.5,0.5v1.5
		H8.5H7V6.438z"/>
</g>
</svg>
