<?xml version="1.0" encoding="utf-8"?>
<svg version="1.1"
	 id="svg3122" xmlns:dc="http://purl.org/dc/elements/1.1/" xmlns:cc="http://creativecommons.org/ns#" xmlns:rdf="http://www.w3.org/1999/02/22-rdf-syntax-ns#" xmlns:svg="http://www.w3.org/2000/svg" xmlns:sodipodi="http://sodipodi.sourceforge.net/DTD/sodipodi-0.dtd" xmlns:inkscape="http://www.inkscape.org/namespaces/inkscape" sodipodi:docname="london-underground-15.svg" inkscape:version="0.91+devel+osxmenu r12911"
	 xmlns="http://www.w3.org/2000/svg" xmlns:xlink="http://www.w3.org/1999/xlink" x="0px" y="0px" width="38" height="38"
	 viewBox="-2 2.5 19 19" enable-background="new -2 2.5 19 19" xml:space="preserve">
<g>
	<path fill="#FFFFFF" d="M7.5,16c1.678,0,3.109-1.035,3.703-2.5H3.797C4.391,14.965,5.822,16,7.5,16z"/>
	<path fill="#FFFFFF" d="M7.5,8c-1.678,0-3.109,1.035-3.703,2.5h7.407C10.609,9.035,9.178,8,7.5,8z"/>
	<path fill="#FFFFFF" d="M15.302,8.632C13.982,5.55,10.953,3.5,7.5,3.5S1.018,5.55-0.302,8.632C-1.288,8.967-2,9.902-2,11v2
		c0,1.098,0.712,2.033,1.698,2.368C1.018,18.45,4.047,20.5,7.5,20.5s6.482-2.05,7.802-5.132C16.288,15.033,17,14.098,17,13v-2
		C17,9.902,16.288,8.967,15.302,8.632z M15,13c0,0.276-0.224,0.5-0.5,0.5h-0.681c-0.678,2.865-3.246,5-6.319,5s-5.641-2.135-6.319-5
		H0.5C0.224,13.5,0,13.276,0,13v-2c0-0.276,0.224-0.5,0.5-0.5h0.681c0.678-2.865,3.246-5,6.319-5s5.641,2.135,6.319,5H14.5
		c0.276,0,0.5,0.224,0.5,0.5V13z"/>
	<path fill="#E97474" d="M7.5,8c1.678,0,3.109,1.035,3.703,2.5h2.616c-0.678-2.865-3.246-5-6.319-5s-5.641,2.135-6.319,5h2.616
		C4.391,9.035,5.822,8,7.5,8z"/>
	<path fill="#E97474" d="M7.5,16c-1.678,0-3.109-1.035-3.703-2.5H1.181c0.678,2.865,3.246,5,6.319,5s5.641-2.135,6.319-5h-2.616
		C10.609,14.965,9.178,16,7.5,16z"/>
	<path fill="#5396C7" d="M14.5,10.5h-0.681C13.933,10.982,14,11.483,14,12s-0.067,1.018-0.181,1.5H14.5c0.276,0,0.5-0.224,0.5-0.5
		v-2C15,10.724,14.776,10.5,14.5,10.5z"/>
	<path fill="#5396C7" d="M3.5,12c0,0.531,0.109,1.036,0.297,1.5h7.407c0.188-0.464,0.297-0.969,0.297-1.5s-0.109-1.036-0.297-1.5
		H3.797C3.609,10.964,3.5,11.469,3.5,12z"/>
	<path fill="#5396C7" d="M1.181,10.5H0.5C0.224,10.5,0,10.724,0,11v2c0,0.276,0.224,0.5,0.5,0.5h0.681C1.067,13.018,1,12.517,1,12
		S1.067,10.982,1.181,10.5z"/>
	<path fill="#5396C7" d="M13.819,10.5h-2.616c0.188,0.464,0.297,0.969,0.297,1.5s-0.109,1.036-0.297,1.5h2.616
		C13.933,13.018,14,12.517,14,12S13.933,10.982,13.819,10.5z"/>
	<path fill="#5396C7" d="M3.5,12c0-0.531,0.109-1.036,0.297-1.5H1.181C1.067,10.982,1,11.483,1,12s0.067,1.018,0.181,1.5h2.616
		C3.609,13.036,3.5,12.531,3.5,12z"/>
</g>
</svg>
