<?xml version="1.0" encoding="utf-8"?>
<svg version="1.1"
	 id="svg3122" xmlns:dc="http://purl.org/dc/elements/1.1/" xmlns:cc="http://creativecommons.org/ns#" xmlns:rdf="http://www.w3.org/1999/02/22-rdf-syntax-ns#" xmlns:svg="http://www.w3.org/2000/svg"
	 xmlns="http://www.w3.org/2000/svg" xmlns:xlink="http://www.w3.org/1999/xlink" x="0px" y="0px" width="78" height="38"
	 viewBox="-2 -2 39 19" enable-background="new -2 -2 39 19" xml:space="preserve">
<path fill="#FFFFFF" d="M8.5,3.5C6.822,3.5,5.391,4.535,4.797,6h7.407C11.609,4.535,10.178,3.5,8.5,3.5z"/>
<path fill="#FFFFFF" d="M26.5,3.5c-1.678,0-3.109,1.035-3.703,2.5h7.407C29.609,4.535,28.178,3.5,26.5,3.5z"/>
<path fill="#FFFFFF" d="M26.5,11.5c1.678,0,3.109-1.035,3.703-2.5h-7.407C23.391,10.465,24.822,11.5,26.5,11.5z"/>
<path fill="#FFFFFF" d="M8.5,11.5c1.678,0,3.109-1.035,3.703-2.5H4.797C5.391,10.465,6.822,11.5,8.5,11.5z"/>
<path fill="#FFFFFF" d="M34.302,4.132C32.982,1.05,29.953-1,26.5-1s-6.482,2.05-7.802,5.132C18.215,4.296,17.8,4.605,17.5,5.005
	c-0.3-0.4-0.715-0.71-1.198-0.873C14.982,1.05,11.953-1,8.5-1S2.018,1.05,0.698,4.132C-0.288,4.467-1,5.402-1,6.5v2
	c0,1.098,0.712,2.033,1.698,2.368C2.018,13.95,5.047,16,8.5,16s6.482-2.05,7.802-5.132c0.483-0.164,0.898-0.473,1.198-0.873
	c0.3,0.4,0.715,0.71,1.198,0.873C20.018,13.95,23.047,16,26.5,16s6.482-2.05,7.802-5.132C35.288,10.533,36,9.598,36,8.5v-2
	C36,5.402,35.288,4.467,34.302,4.132z M16,8.5C16,8.776,15.776,9,15.5,9h-0.681c-0.678,2.865-3.246,5-6.319,5s-5.641-2.135-6.319-5
	H1.5C1.224,9,1,8.776,1,8.5v-2C1,6.224,1.224,6,1.5,6h0.681C2.859,3.135,5.427,1,8.5,1s5.641,2.135,6.319,5H15.5
	C15.776,6,16,6.224,16,6.5V8.5z M34,8.5C34,8.776,33.776,9,33.5,9h-0.681c-0.678,2.865-3.246,5-6.319,5s-5.641-2.135-6.319-5H19.5
	C19.224,9,19,8.776,19,8.5v-2C19,6.224,19.224,6,19.5,6h0.681c0.678-2.865,3.246-5,6.319-5s5.641,2.135,6.319,5H33.5
	C33.776,6,34,6.224,34,6.5V8.5z"/>
<path fill="#EEA66F" d="M8.5,11.5c-1.678,0-3.109-1.035-3.703-2.5H2.181c0.678,2.865,3.246,5,6.319,5s5.641-2.135,6.319-5h-2.616
	C11.609,10.465,10.178,11.5,8.5,11.5z"/>
<path fill="#EEA66F" d="M8.5,3.5c1.678,0,3.109,1.035,3.703,2.5h2.616C14.141,3.135,11.573,1,8.5,1S2.859,3.135,2.181,6h2.616
	C5.391,4.535,6.822,3.5,8.5,3.5z"/>
<path fill="#5396C7" d="M15.5,6h-0.681h-2.616H4.797H2.181H1.5C1.224,6,1,6.224,1,6.5v2C1,8.776,1.224,9,1.5,9h0.681h2.616h7.407
	h2.616H15.5C15.776,9,16,8.776,16,8.5v-2C16,6.224,15.776,6,15.5,6z"/>
<path fill="#E97474" d="M26.5,11.5c-1.678,0-3.109-1.035-3.703-2.5h-2.616c0.678,2.865,3.246,5,6.319,5s5.641-2.135,6.319-5h-2.616
	C29.609,10.465,28.178,11.5,26.5,11.5z"/>
<path fill="#E97474" d="M26.5,3.5c1.678,0,3.109,1.035,3.703,2.5h2.616c-0.678-2.865-3.246-5-6.319-5s-5.641,2.135-6.319,5h2.616
	C23.391,4.535,24.822,3.5,26.5,3.5z"/>
<path fill="#5396C7" d="M33.5,6h-0.681h-2.616h-7.407h-2.616H19.5C19.224,6,19,6.224,19,6.5v2C19,8.776,19.224,9,19.5,9h0.681h2.616
	h7.407h2.616H33.5C33.776,9,34,8.776,34,8.5v-2C34,6.224,33.776,6,33.5,6z"/>
</svg>
