<?xml version="1.0" encoding="utf-8"?>
<svg version="1.1"
	 id="svg3122" xmlns:dc="http://purl.org/dc/elements/1.1/" xmlns:cc="http://creativecommons.org/ns#" xmlns:rdf="http://www.w3.org/1999/02/22-rdf-syntax-ns#" xmlns:svg="http://www.w3.org/2000/svg" xmlns:sodipodi="http://sodipodi.sourceforge.net/DTD/sodipodi-0.dtd" xmlns:inkscape="http://www.inkscape.org/namespaces/inkscape" sodipodi:docname="london-underground.national-rail-15.svg" inkscape:version="0.91+devel+osxmenu r12911"
	 xmlns="http://www.w3.org/2000/svg" xmlns:xlink="http://www.w3.org/1999/xlink" x="0px" y="0px" width="78" height="38"
	 viewBox="-2 -2 39 19" enable-background="new -2 -2 39 19" xml:space="preserve">
<g>
	<path fill="#FFFFFF" d="M8.5,3.5C6.822,3.5,5.391,4.535,4.797,6h7.407C11.609,4.535,10.178,3.5,8.5,3.5z"/>
	<path fill="#FFFFFF" d="M8.5,11.5c1.678,0,3.109-1.035,3.703-2.5H4.797C5.391,10.465,6.822,11.5,8.5,11.5z"/>
	<path fill="#FFFFFF" d="M33,0h-7.156h-1.887H20c-1.654,0-3,1.346-3,3v1.503c-0.21-0.158-0.444-0.285-0.698-0.371
		C14.982,1.05,11.953-1,8.5-1S2.018,1.05,0.698,4.132C-0.288,4.467-1,5.402-1,6.5v2c0,1.098,0.712,2.033,1.698,2.368
		C2.018,13.95,5.047,16,8.5,16s6.482-2.05,7.802-5.132c0.254-0.086,0.488-0.213,0.698-0.371V12c0,1.654,1.346,3,3,3h7.156h1.887H33
		c1.654,0,3-1.346,3-3v-2V9V6V5V3C36,1.346,34.654,0,33,0z M16,8.5C16,8.776,15.776,9,15.5,9h-0.681c-0.678,2.865-3.246,5-6.319,5
		s-5.641-2.135-6.319-5H1.5C1.224,9,1,8.776,1,8.5v-2C1,6.224,1.224,6,1.5,6h0.681C2.859,3.135,5.427,1,8.5,1s5.641,2.135,6.319,5
		H15.5C15.776,6,16,6.224,16,6.5V8.5z M19,3c0-0.552,0.448-1,1-1h3.957l4.799,3H19V3z M19,6h9.381l-6,3H19V6z M20,13
		c-0.552,0-1-0.448-1-1v-2h3.357l4.799,3H20z M34,12c0,0.552-0.448,1-1,1h-3.957l-4.799-3H34V12z M34,9h-9.381l6-3H34V9z M34,5
		h-3.357l-4.799-3H33c0.552,0,1,0.448,1,1V5z"/>
	<path fill="#E97474" d="M8.5,3.5c1.678,0,3.109,1.035,3.703,2.5h2.616C14.141,3.135,11.573,1,8.5,1S2.859,3.135,2.181,6h2.616
		C5.391,4.535,6.822,3.5,8.5,3.5z"/>
	<path fill="#E97474" d="M8.5,11.5c-1.678,0-3.109-1.035-3.703-2.5H2.181c0.678,2.865,3.246,5,6.319,5s5.641-2.135,6.319-5h-2.616
		C11.609,10.465,10.178,11.5,8.5,11.5z"/>
	<path fill="#5396C7" d="M15.5,6h-0.681C14.933,6.482,15,6.983,15,7.5S14.933,8.518,14.819,9H15.5C15.776,9,16,8.776,16,8.5v-2
		C16,6.224,15.776,6,15.5,6z"/>
	<path fill="#5396C7" d="M2.181,6H1.5C1.224,6,1,6.224,1,6.5v2C1,8.776,1.224,9,1.5,9h0.681C2.067,8.518,2,8.017,2,7.5
		S2.067,6.482,2.181,6z"/>
	<path fill="#5396C7" d="M4.5,7.5c0,0.531,0.109,1.036,0.297,1.5h7.407C12.391,8.536,12.5,8.031,12.5,7.5S12.391,6.464,12.203,6
		H4.797C4.609,6.464,4.5,6.969,4.5,7.5z"/>
	<path fill="#5396C7" d="M4.5,7.5c0-0.531,0.109-1.036,0.297-1.5H2.181C2.067,6.482,2,6.983,2,7.5S2.067,8.518,2.181,9h2.616
		C4.609,8.536,4.5,8.031,4.5,7.5z"/>
	<path fill="#5396C7" d="M14.819,6h-2.616C12.391,6.464,12.5,6.969,12.5,7.5S12.391,8.536,12.203,9h2.616
		C14.933,8.518,15,8.017,15,7.5S14.933,6.482,14.819,6z"/>
	<path fill="#E97474" d="M19,10v2c0,0.552,0.448,1,1,1h7.156l-4.799-3H19z"/>
	<polygon fill="#E97474" points="28.381,6 19,6 19,9 22.381,9 	"/>
	<path fill="#E97474" d="M29.043,13H33c0.552,0,1-0.448,1-1v-2h-9.756L29.043,13z"/>
	<path fill="#E97474" d="M23.957,2H20c-0.552,0-1,0.448-1,1v2h9.756L23.957,2z"/>
	<polygon fill="#E97474" points="24.619,9 34,9 34,6 30.619,6 	"/>
	<path fill="#E97474" d="M33,2h-7.156l4.799,3H34V3C34,2.448,33.552,2,33,2z"/>
</g>
</svg>
