<?xml version="1.0" encoding="utf-8"?>
<svg version="1.1"
	 id="Layer_1" xmlns:dc="http://purl.org/dc/elements/1.1/" xmlns:cc="http://creativecommons.org/ns#" xmlns:rdf="http://www.w3.org/1999/02/22-rdf-syntax-ns#" xmlns:svg="http://www.w3.org/2000/svg"
	 xmlns="http://www.w3.org/2000/svg" xmlns:xlink="http://www.w3.org/1999/xlink" x="0px" y="0px" width="26" height="26"
	 viewBox="-1 -1 13 13" enable-background="new -1 -1 13 13" xml:space="preserve">
<g>
	<path fill="#FFFFFF" d="M5.5-1C1.916-1-1,1.916-1,5.5S1.916,12,5.5,12S12,9.084,12,5.5S9.084-1,5.5-1z M5.5,11
		C2.467,11,0,8.532,0,5.5C0,2.467,2.467,0,5.5,0C8.532,0,11,2.467,11,5.5C11,8.532,8.532,11,5.5,11z"/>
	<path fill="#FFFFFF" d="M5.5,1C3.019,1,1,3.019,1,5.5S3.019,10,5.5,10S10,7.981,10,5.5S7.981,1,5.5,1z M8.001,7.493
		c0,0.276-0.224,0.5-0.5,0.5s-0.5-0.224-0.5-0.5V4.925L5.89,6.312C5.795,6.431,5.652,6.5,5.5,6.5S5.205,6.431,5.109,6.312L4,4.925
		v2.568c0,0.276-0.224,0.5-0.5,0.5S3,7.77,3,7.493V3.5c0-0.212,0.134-0.401,0.334-0.472c0.2-0.071,0.422-0.007,0.556,0.159L5.5,5.2
		l1.61-2.012c0.134-0.165,0.356-0.229,0.557-0.159c0.2,0.07,0.334,0.259,0.334,0.472V7.493z"/>
	<path fill="#5396C7" d="M5.5,0C2.467,0,0,2.467,0,5.5C0,8.532,2.467,11,5.5,11C8.532,11,11,8.532,11,5.5C11,2.467,8.532,0,5.5,0z
		 M5.5,10.5c-2.761,0-5-2.239-5-5s2.239-5,5-5s5,2.239,5,5S8.261,10.5,5.5,10.5z"/>
	<path fill="#5396C7" d="M5.5,0.5c-2.761,0-5,2.239-5,5s2.239,5,5,5s5-2.239,5-5S8.261,0.5,5.5,0.5z M5.5,10C3.019,10,1,7.981,1,5.5
		S3.019,1,5.5,1S10,3.019,10,5.5S7.981,10,5.5,10z"/>
	<path fill="#5396C7" d="M7.667,3.028c-0.2-0.069-0.423-0.006-0.557,0.159L5.5,5.2L3.89,3.188c-0.134-0.166-0.356-0.23-0.556-0.159
		C3.134,3.099,3,3.288,3,3.5v3.993c0,0.276,0.224,0.5,0.5,0.5S4,7.77,4,7.493V4.925l1.11,1.387C5.205,6.431,5.348,6.5,5.5,6.5
		s0.295-0.069,0.39-0.188l1.111-1.388v2.568c0,0.276,0.224,0.5,0.5,0.5s0.5-0.224,0.5-0.5V3.5C8.001,3.288,7.867,3.099,7.667,3.028z
		"/>
</g>
</svg>
