<?xml version="1.0" encoding="utf-8"?>
<svg version="1.1"
	 id="svg3122" xmlns:dc="http://purl.org/dc/elements/1.1/" xmlns:cc="http://creativecommons.org/ns#" xmlns:rdf="http://www.w3.org/1999/02/22-rdf-syntax-ns#" xmlns:svg="http://www.w3.org/2000/svg" xmlns:sodipodi="http://sodipodi.sourceforge.net/DTD/sodipodi-0.dtd" xmlns:inkscape="http://www.inkscape.org/namespaces/inkscape" sodipodi:docname="national-rail-15.svg" inkscape:version="0.91+devel+osxmenu r12911"
	 xmlns="http://www.w3.org/2000/svg" xmlns:xlink="http://www.w3.org/1999/xlink" x="0px" y="0px" width="34" height="30"
	 viewBox="-1 0 17 15" enable-background="new -1 0 17 15" xml:space="preserve">
<path fill="#E97474" d="M0,10v2c0,0.552,0.448,1,1,1h7.156l-4.799-3H0z"/>
<polygon fill="#E97474" points="9.381,6 0,6 0,9 3.381,9 "/>
<path fill="#E97474" d="M10.043,13H14c0.552,0,1-0.448,1-1v-2H5.244L10.043,13z"/>
<path fill="#E97474" d="M4.957,2H1C0.448,2,0,2.448,0,3v2h9.756L4.957,2z"/>
<path fill="#E97474" d="M14,2H6.844l4.799,3H15V3C15,2.448,14.552,2,14,2z"/>
<polygon fill="#E97474" points="5.619,9 15,9 15,6 11.619,6 "/>
<path fill="#FFFFFF" d="M14,1H6.844H4.957H1c-1.103,0-2,0.897-2,2v2v1v3v1v2c0,1.103,0.897,2,2,2h7.156h1.887H14
	c1.103,0,2-0.897,2-2v-2V9V6V5V3C16,1.897,15.103,1,14,1z M0,3c0-0.552,0.448-1,1-1h3.957l4.799,3H0V3z M0,6h9.381l-6,3H0V6z M1,13
	c-0.552,0-1-0.448-1-1v-2h3.357l4.799,3H1z M15,12c0,0.552-0.448,1-1,1h-3.957l-4.799-3H15V12z M15,9H5.619l6-3H15V9z M15,5h-3.357
	L6.844,2H14c0.552,0,1,0.448,1,1V5z"/>
</svg>
