<?xml version="1.0" encoding="utf-8"?>
<svg version="1.1"
	 id="svg4764" xmlns:dc="http://purl.org/dc/elements/1.1/" xmlns:cc="http://creativecommons.org/ns#" xmlns:rdf="http://www.w3.org/1999/02/22-rdf-syntax-ns#" xmlns:svg="http://www.w3.org/2000/svg" xmlns:sodipodi="http://sodipodi.sourceforge.net/DTD/sodipodi-0.dtd" xmlns:inkscape="http://www.inkscape.org/namespaces/inkscape" sodipodi:docname="rail-11.svg" inkscape:version="0.91+devel+osxmenu r12911"
	 xmlns="http://www.w3.org/2000/svg" xmlns:xlink="http://www.w3.org/1999/xlink" x="0px" y="0px" width="42" height="42"
	 viewBox="0 0 21 21" enable-background="new 0 0 21 21" xml:space="preserve">
<path fill="#FFFFFF" d="M17,1H4C2.346,1,1,2.346,1,4v13c0,1.654,1.346,3,3,3h13c1.654,0,3-1.346,3-3V4C20,2.346,18.654,1,17,1z
	 M19,17c0,1.104-0.895,2-2,2H4c-1.105,0-2-0.896-2-2V4c0-1.104,0.895-2,2-2h13c1.105,0,2,0.896,2,2V17z"/>
<circle fill="#9C8EA4" cx="12.5" cy="10.5" r="0.5"/>
<path fill="#9C8EA4" d="M8,6.5v2C8,8.777,8.223,9,8.5,9H10V6H8.5C8.223,6,8,6.223,8,6.5z"/>
<circle fill="#9C8EA4" cx="8.5" cy="10.5" r="0.5"/>
<path fill="#9C8EA4" d="M17,2H4C2.895,2,2,2.896,2,4v13c0,1.104,0.895,2,2,2h13c1.105,0,2-0.896,2-2V4C19,2.896,18.105,2,17,2z
	 M12.5,16l-0.334-1H8.834L8.5,16H7l1-3h1.5l-0.334,1h2.668L11.5,13H13l1,3H12.5z M14,11c0,1-1,1-1,1h-2.5H8c0,0-1,0-1-1V6
	c0-1,1-1,1-1h5c1,0,1,1,1,1V11z"/>
<path fill="#9C8EA4" d="M12.5,6H11v3h1.5C12.777,9,13,8.777,13,8.5v-2C13,6.223,12.777,6,12.5,6z"/>
<polygon fill="#FFFFFF" points="11.5,13 11.834,14 9.166,14 9.5,13 8,13 7,16 8.5,16 8.834,15 12.166,15 12.5,16 14,16 13,13 "/>
<path fill="#FFFFFF" d="M13,5H8c0,0-1,0-1,1v5c0,1,1,1,1,1h2.5H13c0,0,1,0,1-1V6C14,6,14,5,13,5z M8.5,11C8.224,11,8,10.776,8,10.5
	S8.224,10,8.5,10S9,10.224,9,10.5S8.776,11,8.5,11z M10,9H8.5C8.223,9,8,8.777,8,8.5v-2C8,6.223,8.223,6,8.5,6H10V9z M12.5,11
	c-0.276,0-0.5-0.224-0.5-0.5s0.224-0.5,0.5-0.5s0.5,0.224,0.5,0.5S12.776,11,12.5,11z M13,8.5C13,8.777,12.777,9,12.5,9H11V6h1.5
	C12.777,6,13,6.223,13,6.5V8.5z"/>
</svg>
