<?xml version="1.0" encoding="utf-8"?>
<!-- Generator: Adobe Illustrator 17.0.0, SVG Export Plug-In . SVG Version: 6.00 Build 0)  -->
<!DOCTYPE svg PUBLIC "-//W3C//DTD SVG 1.1//EN" "http://www.w3.org/Graphics/SVG/1.1/DTD/svg11.dtd">
<svg version="1.1"
	 id="Layer_1" xmlns:dc="http://purl.org/dc/elements/1.1/" xmlns:cc="http://creativecommons.org/ns#" xmlns:rdf="http://www.w3.org/1999/02/22-rdf-syntax-ns#" xmlns:svg="http://www.w3.org/2000/svg" xmlns:sodipodi="http://sodipodi.sourceforge.net/DTD/sodipodi-0.dtd" xmlns:inkscape="http://www.inkscape.org/namespaces/inkscape" sodipodi:version="0.32" inkscape:output_extension="org.inkscape.output.svg.inkscape" sodipodi:docname="rer-15.svg" inkscape:version="0.91+devel+osxmenu r12911"
	 xmlns="http://www.w3.org/2000/svg" xmlns:xlink="http://www.w3.org/1999/xlink" x="0px" y="0px" width="17px" height="17px"
	 viewBox="0 0 17 17" enable-background="new 0 0 17 17" xml:space="preserve">
<defs>
	
	
		<inkscape:perspective  id="perspective10" inkscape:persp3d-origin="200 : 133.33333 : 1" inkscape:vp_y="0 : 1000 : 0" sodipodi:type="inkscape:persp3d" inkscape:vp_z="400 : 200 : 1" inkscape:vp_x="0 : 200 : 1">
		</inkscape:perspective>
</defs>
<sodipodi:namedview  inkscape:snap-intersection-paths="true" id="base" inkscape:zoom="32" showguides="true" inkscape:cx="6.485116" showgrid="true" gridtolerance="10.0" inkscape:cy="9.594617" objecttolerance="10.0" guidetolerance="10.0" bordercolor="#666666" borderopacity="1.0" pagecolor="#ffffff" inkscape:bbox-paths="true" inkscape:snap-bbox="true" inkscape:current-layer="Layer_1" inkscape:pageopacity="0.0" inkscape:window-y="0" inkscape:window-x="14" inkscape:snap-nodes="true" inkscape:object-paths="true" inkscape:bbox-nodes="true" inkscape:snap-smooth-nodes="true" inkscape:pageshadow="2" inkscape:guide-bbox="true" inkscape:window-maximized="0" inkscape:object-nodes="true" inkscape:snap-bbox-edge-midpoints="true">
	
		<inkscape:grid  color="#ff0000" type="xygrid" opacity="0.1254902" id="grid3201" visible="true" empspacing="2" spacingy="0.5" enabled="true" spacingx="0.5" snapvisiblegridlinesonly="true">
		</inkscape:grid>
</sodipodi:namedview>
<defs>
	
	
		<inkscape:perspective  id="perspective10" inkscape:persp3d-origin="200 : 133.33333 : 1" inkscape:vp_y="0 : 1000 : 0" sodipodi:type="inkscape:persp3d" inkscape:vp_z="400 : 200 : 1" inkscape:vp_x="0 : 200 : 1">
		</inkscape:perspective>
</defs>
<sodipodi:namedview  inkscape:snap-intersection-paths="true" id="base" inkscape:zoom="32" showguides="true" inkscape:cx="6.485116" showgrid="true" gridtolerance="10.0" inkscape:cy="9.594617" objecttolerance="10.0" guidetolerance="10.0" bordercolor="#666666" borderopacity="1.0" pagecolor="#ffffff" inkscape:bbox-paths="true" inkscape:snap-bbox="true" inkscape:current-layer="Layer_1" inkscape:pageopacity="0.0" inkscape:window-y="0" inkscape:window-x="14" inkscape:snap-nodes="true" inkscape:object-paths="true" inkscape:bbox-nodes="true" inkscape:snap-smooth-nodes="true" inkscape:pageshadow="2" inkscape:guide-bbox="true" inkscape:window-maximized="0" inkscape:object-nodes="true" inkscape:snap-bbox-edge-midpoints="true">
	
		<inkscape:grid  color="#ff0000" type="xygrid" opacity="0.1254902" id="grid3201" visible="true" empspacing="2" spacingy="0.5" enabled="true" spacingx="0.5" snapvisiblegridlinesonly="true">
		</inkscape:grid>
</sodipodi:namedview>
<g>
	<path fill="#FFFFFF" d="M13.535,11.186L12.656,8.99C12.604,8.993,12.554,9,12.5,9H12v2c0,0.005,0,0.009,0,0.014
		c-0.004,0.276-0.231,0.497-0.507,0.493S10.996,11.276,11,11V8.582c-0.009-0.054-0.009-0.108,0-0.162V6.082
		c-0.02-0.123,0.006-0.249,0.074-0.354c0.001-0.001,0.001-0.003,0.002-0.004c0.009-0.013,0.018-0.025,0.027-0.037
		c0.001-0.001,0.001-0.003,0.002-0.004c0.01-0.012,0.02-0.023,0.031-0.033c0.001-0.001,0.001-0.003,0.002-0.004
		c0.006-0.006,0.012-0.012,0.018-0.018c0.006-0.005,0.013-0.011,0.02-0.016c0.088-0.076,0.2-0.119,0.316-0.121
		c0.033-0.001,0.067,0.002,0.1,0.008H12.5c0.48,0,0.951,0.155,1.33,0.447S14.5,6.704,14.5,7.25c0,0.486-0.18,0.963-0.545,1.283
		c-0.096,0.084-0.202,0.154-0.316,0.215l0.826,2.066v0.001c0.024,0.06,0.033,0.123,0.033,0.184C14.821,10.23,15,9.385,15,8.5
		C15,4.916,12.084,2,8.5,2S2,4.916,2,8.5S4.916,15,8.5,15c2.55,0,4.755-1.48,5.819-3.622c-0.04,0.034-0.082,0.067-0.134,0.087
		C13.928,11.568,13.637,11.442,13.535,11.186z M6.185,11.465c-0.257,0.102-0.548-0.023-0.65-0.28L4.656,8.99
		C4.604,8.993,4.554,9,4.5,9H4v2c0,0.005,0,0.009,0,0.014c-0.004,0.276-0.231,0.497-0.507,0.493S2.996,11.276,3,11V8.582
		C2.991,8.528,2.991,8.474,3,8.42V6.082C2.98,5.959,3.006,5.833,3.074,5.729c0.001-0.001,0.001-0.003,0.002-0.004
		C3.085,5.712,3.094,5.7,3.103,5.688c0.001-0.001,0.001-0.003,0.002-0.004c0.01-0.012,0.02-0.023,0.031-0.033
		C3.137,5.65,3.137,5.648,3.138,5.647C3.144,5.641,3.15,5.635,3.156,5.629c0.006-0.005,0.013-0.011,0.02-0.016
		c0.088-0.076,0.2-0.119,0.316-0.121c0.033-0.001,0.067,0.002,0.1,0.008H4.5c0.48,0,0.951,0.155,1.33,0.447S6.5,6.704,6.5,7.25
		c0,0.486-0.18,0.963-0.545,1.283C5.859,8.617,5.753,8.687,5.639,8.748l0.826,2.066c0,0,0,0,0,0.001
		C6.567,11.072,6.442,11.363,6.185,11.465z M9.5,8C9.776,8,10,8.224,10,8.5S9.776,9,9.5,9H8v1.5h1.5c0.276,0,0.5,0.224,0.5,0.5
		s-0.224,0.5-0.5,0.5H8c0,0-1,0-1-1v-4c0-1,1-1,1-1h1.5C9.776,5.5,10,5.724,10,6S9.776,6.5,9.5,6.5H8V8H9.5z"/>
	<path fill="#FFFFFF" d="M12.5,6.5H12V8h0.5c0.417,0,0.66-0.103,0.795-0.221S13.5,7.514,13.5,7.25c0-0.204-0.094-0.365-0.281-0.51
		S12.752,6.5,12.5,6.5z"/>
	<path fill="#FFFFFF" d="M4.5,6.5H4V8h0.5c0.417,0,0.66-0.103,0.795-0.221S5.5,7.514,5.5,7.25c0-0.204-0.094-0.365-0.281-0.51
		S4.752,6.5,4.5,6.5z"/>
	<path fill="#FFFFFF" d="M8.5,0C3.813,0,0,3.813,0,8.5S3.813,17,8.5,17S17,13.187,17,8.5S13.187,0,8.5,0z M8.5,16
		C4.364,16,1,12.636,1,8.5S4.364,1,8.5,1S16,4.364,16,8.5S12.636,16,8.5,16z"/>
	<path fill="#5396C7" d="M8.5,1C4.364,1,1,4.364,1,8.5S4.364,16,8.5,16S16,12.636,16,8.5S12.636,1,8.5,1z M14.319,11.378
		C13.255,13.52,11.05,15,8.5,15C4.916,15,2,12.084,2,8.5S4.916,2,8.5,2S15,4.916,15,8.5c0,0.885-0.179,1.73-0.501,2.5
		C14.499,11.146,14.432,11.283,14.319,11.378z"/>
	<path fill="#5396C7" d="M9.5,6.5C9.776,6.5,10,6.276,10,6S9.776,5.5,9.5,5.5H8c0,0-1,0-1,1v4c0,1,1,1,1,1h1.5
		c0.276,0,0.5-0.224,0.5-0.5s-0.224-0.5-0.5-0.5H8V9h1.5C9.776,9,10,8.776,10,8.5S9.776,8,9.5,8H8V6.5H9.5z"/>
	<path fill="#5396C7" d="M6.465,10.814L5.639,8.748c0.114-0.061,0.22-0.131,0.316-0.215C6.32,8.213,6.5,7.736,6.5,7.25
		c0-0.546-0.291-1.01-0.67-1.303S4.98,5.5,4.5,5.5H3.592c-0.033-0.006-0.066-0.009-0.1-0.008C3.376,5.495,3.264,5.537,3.176,5.613
		c-0.007,0.005-0.013,0.01-0.02,0.016C3.15,5.635,3.144,5.641,3.139,5.646C3.138,5.648,3.137,5.649,3.137,5.65
		C3.126,5.661,3.115,5.672,3.105,5.684c0,0.001-0.001,0.002-0.001,0.004C3.094,5.7,3.085,5.712,3.077,5.725
		C3.076,5.726,3.075,5.727,3.074,5.729C3.006,5.833,2.98,5.959,3,6.082V8.42C2.991,8.474,2.991,8.528,3,8.582V11
		c-0.004,0.276,0.217,0.503,0.493,0.507S3.996,11.29,4,11.014C4,11.009,4,11.005,4,11V9h0.5c0.054,0,0.104-0.007,0.156-0.01
		l0.879,2.195c0.102,0.257,0.393,0.382,0.65,0.28C6.442,11.363,6.567,11.072,6.465,10.814C6.465,10.815,6.465,10.815,6.465,10.814z
		 M5.295,7.779C5.16,7.897,4.917,8,4.5,8H4V6.5h0.5c0.252,0,0.531,0.095,0.719,0.24S5.5,7.046,5.5,7.25
		C5.5,7.514,5.43,7.662,5.295,7.779z"/>
	<path fill="#5396C7" d="M14.465,10.815L14.465,10.815l-0.827-2.067c0.114-0.061,0.22-0.131,0.316-0.215
		C14.32,8.213,14.5,7.736,14.5,7.25c0-0.546-0.291-1.01-0.67-1.303S12.98,5.5,12.5,5.5h-0.908c-0.033-0.006-0.066-0.009-0.1-0.008
		c-0.116,0.002-0.228,0.045-0.316,0.121c-0.007,0.005-0.013,0.01-0.02,0.016c-0.006,0.006-0.012,0.012-0.018,0.018
		c-0.001,0.001-0.001,0.003-0.002,0.004c-0.011,0.011-0.021,0.022-0.031,0.033c-0.001,0.001-0.001,0.003-0.002,0.004
		c-0.01,0.012-0.019,0.024-0.027,0.037c-0.001,0.001-0.001,0.003-0.002,0.004C11.006,5.833,10.98,5.959,11,6.082V8.42
		c-0.009,0.054-0.009,0.108,0,0.162V11c-0.004,0.276,0.217,0.503,0.493,0.507S11.996,11.29,12,11.014c0-0.005,0-0.009,0-0.014V9h0.5
		c0.054,0,0.104-0.007,0.156-0.01l0.879,2.195c0.102,0.257,0.393,0.382,0.65,0.28c0.052-0.021,0.094-0.053,0.134-0.087
		c0.062-0.125,0.125-0.249,0.179-0.378C14.499,10.938,14.489,10.876,14.465,10.815z M13.295,7.779C13.16,7.897,12.917,8,12.5,8H12
		V6.5h0.5c0.252,0,0.531,0.095,0.719,0.24S13.5,7.046,13.5,7.25C13.5,7.514,13.43,7.662,13.295,7.779z"/>
	<path fill="#5396C7" d="M14.319,11.378c0.113-0.095,0.18-0.232,0.179-0.378C14.445,11.129,14.381,11.253,14.319,11.378z"/>
</g>
</svg>
