<?xml version="1.0" encoding="utf-8"?>
<svg version="1.1"
	 id="svg3042" xmlns:dc="http://purl.org/dc/elements/1.1/" xmlns:cc="http://creativecommons.org/ns#" xmlns:rdf="http://www.w3.org/1999/02/22-rdf-syntax-ns#" xmlns:svg="http://www.w3.org/2000/svg" xmlns:sodipodi="http://sodipodi.sourceforge.net/DTD/sodipodi-0.dtd" xmlns:inkscape="http://www.inkscape.org/namespaces/inkscape" sodipodi:docname="rer.transilien-15.svg" inkscape:version="0.91+devel+osxmenu r12911"
	 xmlns="http://www.w3.org/2000/svg" xmlns:xlink="http://www.w3.org/1999/xlink" x="0px" y="0px" width="70" height="34"
	 viewBox="0 -1 35 17" enable-background="new 0 -1 35 17" xml:space="preserve">
<g>
	<path fill="#FFFFFF" d="M8.5-1C3.813-1,0,2.813,0,7.5C0,12.187,3.813,16,8.5,16c4.687,0,8.5-3.813,8.5-8.5C17,2.813,13.187-1,8.5-1
		z M8.5,15C4.364,15,1,11.636,1,7.5S4.364,0,8.5,0S16,3.364,16,7.5S12.636,15,8.5,15z"/>
	<path fill="#FFFFFF" d="M29,5.5v-1C29,4.223,28.777,4,28.5,4h-4C24.223,4,24,4.223,24,4.5v1C24,5.777,24.223,6,24.5,6h4
		C28.777,6,29,5.777,29,5.5z"/>
	<rect x="24" y="7" fill="#FFFFFF" width="1" height="1"/>
	<rect x="28" y="7" fill="#FFFFFF" width="1" height="1"/>
	<path fill="#FFFFFF" d="M31.609,1H21.391C20.612,1,20,1.612,20,2.391v10.221C20,13.39,20.612,14,21.391,14h10.219
		C32.388,14,33,13.39,33,12.611V2.391C33,1.612,32.388,1,31.609,1z M29,12l-1.25-2h-2.5L24,12h-1.5L24,9.516
		c-0.554,0-1-0.421-1-0.938V3.938C23,3.42,23.446,3,24,3h5c0.554,0,1,0.42,1,0.938v4.641c0,0.517-0.446,0.938-1,0.938L30.5,12H29z"
		/>
	<path fill="#FFFFFF" d="M31.609-1H21.391C19.521-1,18,0.521,18,2.391v10.221C18,14.48,19.521,16,21.391,16h10.219
		C33.479,16,35,14.48,35,12.611V2.391C35,0.521,33.479-1,31.609-1z M34,12.611C34,13.927,32.924,15,31.609,15H21.391
		C20.075,15,19,13.927,19,12.611V2.391C19,1.075,20.075,0,21.391,0h10.219C32.924,0,34,1.075,34,2.391V12.611z"/>
	<path fill="#FFFFFF" d="M12.5,5.5H12V7h0.5c0.417,0,0.66-0.103,0.795-0.221S13.5,6.514,13.5,6.25c0-0.204-0.094-0.365-0.281-0.51
		C13.031,5.595,12.752,5.5,12.5,5.5z"/>
	<path fill="#FFFFFF" d="M8.5,1C4.916,1,2,3.916,2,7.5S4.916,14,8.5,14c2.553,0,4.761-1.483,5.823-3.63
		c-0.042,0.036-0.086,0.069-0.141,0.09c-0.258,0.1-0.548-0.028-0.648-0.286l-0.879-2.195c-0.053,0-0.102,0.01-0.156,0.01H12v2
		c0,0.005,0,0.009,0,0.014c-0.004,0.276-0.231,0.497-0.507,0.493S10.996,10.265,11,9.989V7.571c-0.009-0.054-0.009-0.108,0-0.162
		V5.071c-0.02-0.123,0.006-0.249,0.074-0.354c0.001,0,0.001,0,0.002,0c0.009-0.013,0.018-0.025,0.027-0.037c0.001,0,0.001,0,0.002,0
		c0.01-0.011,0.02-0.022,0.031-0.033c0.001,0,0.001,0,0.002,0c0.006-0.006,0.012-0.012,0.018-0.018
		c0.006-0.005,0.013-0.011,0.02-0.016c0.088-0.076,0.2-0.119,0.316-0.121V4.479c0.033,0,0.067,0.003,0.1,0.01H12.5
		c0.48,0,0.951,0.154,1.33,0.447c0.379,0.293,0.67,0.757,0.67,1.303c0,0.486-0.18,0.963-0.545,1.283
		c-0.096,0.084-0.202,0.154-0.316,0.215l0.826,2.067c0.001,0.003,0.002,0.006,0.004,0.009c0.023,0.06,0.032,0.123,0.032,0.184
		C14.821,9.227,15,8.384,15,7.5C15,3.916,12.084,1,8.5,1z M6.183,10.46c-0.258,0.1-0.548-0.028-0.648-0.286L4.656,7.979
		c-0.053,0-0.102,0.01-0.156,0.01H4v2c0,0.005,0,0.009,0,0.014c-0.004,0.276-0.231,0.497-0.507,0.493S2.996,10.265,3,9.989V7.571
		C2.991,7.517,2.991,7.462,3,7.409V5.071C2.98,4.948,3.006,4.822,3.074,4.717c0.001,0,0.001,0,0.002,0
		C3.085,4.704,3.094,4.692,3.104,4.68c0.001,0,0.001,0,0.002,0c0.01-0.011,0.02-0.022,0.031-0.033c0.001,0,0.001,0,0.002,0
		C3.144,4.641,3.15,4.635,3.156,4.629c0.006-0.005,0.013-0.011,0.02-0.016c0.088-0.076,0.2-0.119,0.316-0.121V4.479
		c0.033,0,0.067,0.003,0.1,0.01H4.5c0.48,0,0.951,0.154,1.33,0.447S6.5,5.693,6.5,6.239c0,0.486-0.18,0.963-0.545,1.283
		C5.859,7.606,5.753,7.676,5.639,7.737l0.826,2.067c0.001,0.003,0.002,0.006,0.004,0.009C6.568,10.07,6.441,10.36,6.183,10.46z
		 M9.5,7C9.776,7,10,7.224,10,7.5S9.776,8,9.5,8H8v1.5h1.5C9.776,9.5,10,9.724,10,10s-0.224,0.5-0.5,0.5H8c0,0-1,0-1-1v-4
		c0-1,1-1,1-1h1.5C9.776,4.5,10,4.724,10,5S9.776,5.5,9.5,5.5H8V7H9.5z"/>
	<path fill="#FFFFFF" d="M4.5,5.5H4V7h0.5c0.417,0,0.66-0.103,0.795-0.221S5.5,6.514,5.5,6.25c0-0.204-0.094-0.365-0.281-0.51
		C5.031,5.595,4.752,5.5,4.5,5.5z"/>
	<path fill="#5396C7" d="M8.5,0C4.364,0,1,3.364,1,7.5S4.364,15,8.5,15S16,11.636,16,7.5S12.636,0,8.5,0z M8.5,14.5
		c-3.866,0-7-3.134-7-7s3.134-7,7-7s7,3.134,7,7S12.366,14.5,8.5,14.5z"/>
	<path fill="#5396C7" d="M8.5,0.5c-3.866,0-7,3.134-7,7s3.134,7,7,7s7-3.134,7-7S12.366,0.5,8.5,0.5z M14.323,10.37
		C13.261,12.517,11.053,14,8.5,14C4.916,14,2,11.084,2,7.5S4.916,1,8.5,1S15,3.916,15,7.5c0,0.884-0.179,1.727-0.5,2.496
		C14.499,10.141,14.434,10.275,14.323,10.37z"/>
	<path fill="#5396C7" d="M9.5,5.5C9.776,5.5,10,5.276,10,5S9.776,4.5,9.5,4.5H8c0,0-1,0-1,1v4c0,1,1,1,1,1h1.5
		c0.276,0,0.5-0.224,0.5-0.5S9.776,9.5,9.5,9.5H8V8h1.5C9.776,8,10,7.776,10,7.5S9.776,7,9.5,7H8V5.5H9.5z"/>
	<path fill="#5396C7" d="M6.465,9.803L5.639,7.737c0.114-0.061,0.22-0.131,0.316-0.215C6.32,7.202,6.5,6.725,6.5,6.239
		c0-0.546-0.291-1.01-0.67-1.303S4.98,4.489,4.5,4.489H3.592c-0.033-0.007-0.066-0.01-0.1-0.01v0.014
		C3.376,4.495,3.264,4.537,3.176,4.613c-0.007,0.005-0.013,0.01-0.02,0.016C3.15,4.635,3.144,4.641,3.139,4.647
		c-0.001,0-0.001,0-0.002,0C3.126,4.658,3.115,4.669,3.106,4.68c-0.001,0-0.001,0-0.002,0c-0.01,0.012-0.019,0.024-0.027,0.037
		c-0.001,0-0.001,0-0.002,0C3.006,4.822,2.98,4.948,3,5.071v2.338C2.991,7.462,2.991,7.517,3,7.571v2.418
		c-0.004,0.276,0.217,0.503,0.493,0.507S3.996,10.279,4,10.003c0-0.005,0-0.009,0-0.014v-2h0.5c0.054,0,0.104-0.01,0.156-0.01
		l0.879,2.195c0.1,0.258,0.39,0.385,0.648,0.286c0.258-0.1,0.385-0.39,0.286-0.648C6.467,9.809,6.466,9.806,6.465,9.803z
		 M5.295,6.779C5.16,6.897,4.917,7,4.5,7H4V5.5h0.5c0.252,0,0.531,0.095,0.719,0.24C5.406,5.885,5.5,6.046,5.5,6.25
		C5.5,6.514,5.43,6.662,5.295,6.779z"/>
	<path fill="#5396C7" d="M14.465,9.803l-0.826-2.067c0.114-0.061,0.22-0.131,0.316-0.215C14.32,7.202,14.5,6.725,14.5,6.239
		c0-0.546-0.291-1.01-0.67-1.303c-0.379-0.293-0.85-0.447-1.33-0.447h-0.908c-0.033-0.007-0.066-0.01-0.1-0.01v0.014
		c-0.116,0.002-0.228,0.045-0.316,0.121c-0.007,0.005-0.013,0.01-0.02,0.016c-0.006,0.006-0.012,0.012-0.018,0.018
		c-0.001,0-0.001,0-0.002,0c-0.011,0.01-0.021,0.021-0.031,0.033c-0.001,0-0.001,0-0.002,0c-0.01,0.012-0.019,0.024-0.027,0.037
		c-0.001,0-0.001,0-0.002,0C11.006,4.822,10.98,4.948,11,5.071v2.338c-0.009,0.054-0.009,0.108,0,0.162v2.418
		c-0.004,0.276,0.217,0.503,0.493,0.507s0.503-0.217,0.507-0.493c0-0.005,0-0.009,0-0.014v-2h0.5c0.054,0,0.104-0.01,0.156-0.01
		l0.879,2.195c0.1,0.258,0.39,0.386,0.648,0.286c0.054-0.021,0.099-0.054,0.141-0.09c0.061-0.123,0.123-0.246,0.177-0.374
		c0-0.061-0.008-0.123-0.032-0.184C14.467,9.809,14.466,9.806,14.465,9.803z M13.295,6.779C13.16,6.897,12.917,7,12.5,7H12V5.5h0.5
		c0.252,0,0.531,0.095,0.719,0.24C13.406,5.885,13.5,6.046,13.5,6.25C13.5,6.514,13.43,6.662,13.295,6.779z"/>
	<path fill="#5396C7" d="M14.5,9.996c-0.053,0.128-0.116,0.25-0.177,0.374C14.434,10.275,14.499,10.141,14.5,9.996z"/>
	<path fill="#0079AC" d="M30,8.578V3.938C30,3.42,29.554,3,29,3h-5c-0.554,0-1,0.42-1,0.938v4.641c0,0.517,0.446,0.938,1,0.938
		L22.5,12H24l1.25-2h2.5L29,12h1.5L29,9.516C29.554,9.516,30,9.095,30,8.578z M25,8h-1V7h1V8z M24.5,6C24.223,6,24,5.777,24,5.5v-1
		C24,4.223,24.223,4,24.5,4h4C28.777,4,29,4.223,29,4.5v1C29,5.777,28.777,6,28.5,6H24.5z M28,8V7h1v1H28z"/>
	<path fill="#0079AC" d="M31.609,0H21.391C20.075,0,19,1.075,19,2.391v10.221C19,13.927,20.075,15,21.391,15h10.219
		C32.924,15,34,13.927,34,12.611V2.391C34,1.075,32.924,0,31.609,0z M33,12.611C33,13.39,32.388,14,31.609,14H21.391
		C20.612,14,20,13.39,20,12.611V2.391C20,1.612,20.612,1,21.391,1h10.219C32.388,1,33,1.612,33,2.391V12.611z"/>
</g>
</svg>
