<?xml version="1.0" encoding="utf-8"?>
<!-- Generator: Adobe Illustrator 17.0.0, SVG Export Plug-In . SVG Version: 6.00 Build 0)  -->
<!DOCTYPE svg PUBLIC "-//W3C//DTD SVG 1.1//EN" "http://www.w3.org/Graphics/SVG/1.1/DTD/svg11.dtd">
<svg version="1.1"
	 id="svg2" xmlns:dc="http://purl.org/dc/elements/1.1/" xmlns:cc="http://creativecommons.org/ns#" xmlns:rdf="http://www.w3.org/1999/02/22-rdf-syntax-ns#" xmlns:svg="http://www.w3.org/2000/svg" xmlns:sodipodi="http://sodipodi.sourceforge.net/DTD/sodipodi-0.dtd" xmlns:inkscape="http://www.inkscape.org/namespaces/inkscape" sodipodi:docname="u-bahn-11.svg" inkscape:version="0.91+devel+osxmenu r12911"
	 xmlns="http://www.w3.org/2000/svg" xmlns:xlink="http://www.w3.org/1999/xlink" x="0px" y="0px" width="34" height="34"
	 viewBox="0 0 17 17" enable-background="new 0 0 17 17" xml:space="preserve">
<sodipodi:namedview  inkscape:snap-intersection-paths="true" id="namedview8" inkscape:zoom="32" showguides="false" inkscape:cx="8.7062616" showgrid="true" gridtolerance="10" inkscape:cy="8.1593928" objecttolerance="10" guidetolerance="10" bordercolor="#666666" borderopacity="1" pagecolor="#ffffff" inkscape:bbox-paths="true" inkscape:snap-bbox="true" inkscape:current-layer="svg2" inkscape:pageopacity="0" inkscape:window-y="75" inkscape:window-x="104" inkscape:object-paths="true" inkscape:document-units="px" inkscape:bbox-nodes="true" inkscape:snap-smooth-nodes="true" inkscape:pageshadow="2" inkscape:window-maximized="0" inkscape:object-nodes="true" inkscape:snap-bbox-edge-midpoints="true">

		<inkscape:grid  color="#ff0000" type="xygrid" opacity="0.1254902" id="grid2997" visible="true" empopacity="0.25098039" empspacing="2" empcolor="#0000ff" spacingy="0.5" enabled="true" spacingx="0.5" snapvisiblegridlinesonly="true">
		</inkscape:grid>
</sodipodi:namedview>
<g id="g3007" transform="translate(-0.5,5.5)">
</g>
<g>
	<path fill="#FFFFFF" d="M14.062,0H2.938C1.318,0,0,1.318,0,2.938v11.125C0,15.682,1.318,17,2.938,17h11.125
		C15.682,17,17,15.682,17,14.062V2.938C17,1.318,15.682,0,14.062,0z M16,14.062C16,15.133,15.133,16,14.062,16H2.938
		C1.867,16,1,15.133,1,14.062V2.938C1,1.867,1.867,1,2.938,1h11.125C15.133,1,16,1.867,16,2.938V14.062z"/>
	<path fill="#5396C7" d="M14.062,1H2.938C1.867,1,1,1.867,1,2.938v11.125C1,15.133,1.867,16,2.938,16h11.125
		C15.133,16,16,15.133,16,14.062V2.938C16,1.867,15.133,1,14.062,1z M12,9c-0.003,2.162-1.338,4-3.5,4S5.003,11.162,5,9V5h2v4.5
		C7,10,7.5,11,8.5,11S10,10,10,9.5V5h2V9z"/>
	<path fill="#FFFFFF" d="M10,9.5C10,10,9.5,11,8.5,11S7,10,7,9.5V5H5v4c0.003,2.162,1.338,4,3.5,4s3.497-1.838,3.5-4V5h-2V9.5z"/>
</g>
</svg>
