<?xml version="1.0" encoding="UTF-8" standalone="no"?>
<!-- Created with Inkscape (http://www.inkscape.org/) -->

<svg
   xmlns:dc="http://purl.org/dc/elements/1.1/"
   xmlns:cc="http://creativecommons.org/ns#"
   xmlns:rdf="http://www.w3.org/1999/02/22-rdf-syntax-ns#"
   xmlns:svg="http://www.w3.org/2000/svg"
   xmlns="http://www.w3.org/2000/svg"
   xmlns:sodipodi="http://sodipodi.sourceforge.net/DTD/sodipodi-0.dtd"
   xmlns:inkscape="http://www.inkscape.org/namespaces/inkscape"
   version="1.1"
   width="35"
   height="15"
   id="svg3122"
   inkscape:version="0.91+devel+osxmenu r12911"
   sodipodi:docname="dlr.london-underground-15.svg"
   viewBox="0 0 35 15">
  <sodipodi:namedview
     pagecolor="#ffffff"
     bordercolor="#666666"
     borderopacity="1"
     objecttolerance="10"
     gridtolerance="10"
     guidetolerance="10"
     inkscape:pageopacity="0"
     inkscape:pageshadow="2"
     inkscape:window-width="640"
     inkscape:window-height="480"
     id="namedview14796"
     inkscape:document-units="px"
     showgrid="true"
     inkscape:zoom="11.313708"
     inkscape:cx="16.293917"
     inkscape:cy="9.0540568"
     inkscape:window-x="0"
     inkscape:window-y="23"
     inkscape:window-maximized="0"
     inkscape:current-layer="svg3122">
    <inkscape:grid
       type="xygrid"
       id="grid20931" />
  </sodipodi:namedview>
  <defs
     id="defs3124" />
  <metadata
     id="metadata3127">
    <rdf:RDF>
      <cc:Work
         rdf:about="">
        <dc:format>image/svg+xml</dc:format>
        <dc:type
           rdf:resource="http://purl.org/dc/dcmitype/StillImage" />
        <dc:title></dc:title>
      </cc:Work>
    </rdf:RDF>
  </metadata>
  <g
     id="g9324"
     transform="translate(1,-3)">
    <circle
       r="5"
       cy="10.5"
       cx="7.5"
       id="path5295"
       style="opacity:1;fill:#ffffff;fill-opacity:1;stroke:none;stroke-width:1;stroke-linecap:round;stroke-linejoin:round;stroke-miterlimit:4;stroke-dasharray:none;stroke-dashoffset:0;stroke-opacity:1;marker:none" />
    <path
       id="path3346"
       d="M 7.5,4 A 6.5,6.5 0 0 0 1,10.5 6.5,6.5 0 0 0 7.5,17 6.5,6.5 0 0 0 14,10.5 6.5,6.5 0 0 0 7.5,4 Z m 0,2.5 a 3.9999998,3.9999998 0 0 1 4,4 3.9999998,3.9999998 0 0 1 -4,4 3.9999998,3.9999998 0 0 1 -4,-4 3.9999998,3.9999998 0 0 1 4,-4 z"
       style="opacity:1;fill:#9cc883;fill-opacity:1;stroke:none;stroke-width:1;stroke-linecap:round;stroke-linejoin:miter;stroke-miterlimit:4;stroke-dasharray:none;stroke-dashoffset:0;stroke-opacity:1"
       inkscape:connector-curvature="0" />
    <rect
       rx="0.5"
       ry="0.49999997"
       y="9"
       x="0"
       height="3"
       width="15.000001"
       id="rect3363"
       style="opacity:1;fill:#5396c7;fill-opacity:1;stroke:none;stroke-width:1;stroke-linecap:round;stroke-linejoin:miter;stroke-miterlimit:4;stroke-dasharray:none;stroke-dashoffset:0;stroke-opacity:1" />
  </g>
  <g
     transform="translate(19,-3)"
     id="g9329">
    <circle
       style="opacity:1;fill:#ffffff;fill-opacity:1;stroke:none;stroke-width:1;stroke-linecap:round;stroke-linejoin:round;stroke-miterlimit:4;stroke-dasharray:none;stroke-dashoffset:0;stroke-opacity:1;marker:none"
       id="circle9331"
       cx="7.5"
       cy="10.5"
       r="5" />
    <path
       inkscape:connector-curvature="0"
       style="opacity:1;fill:#e97474;fill-opacity:1;stroke:none;stroke-width:1;stroke-linecap:round;stroke-linejoin:miter;stroke-miterlimit:4;stroke-dasharray:none;stroke-dashoffset:0;stroke-opacity:1"
       d="M 7.5,4 A 6.5,6.5 0 0 0 1,10.5 6.5,6.5 0 0 0 7.5,17 6.5,6.5 0 0 0 14,10.5 6.5,6.5 0 0 0 7.5,4 Z m 0,2.5 a 3.9999998,3.9999998 0 0 1 4,4 3.9999998,3.9999998 0 0 1 -4,4 3.9999998,3.9999998 0 0 1 -4,-4 3.9999998,3.9999998 0 0 1 4,-4 z"
       id="path9333" />
    <rect
       style="opacity:1;fill:#5396c7;fill-opacity:1;stroke:none;stroke-width:1;stroke-linecap:round;stroke-linejoin:miter;stroke-miterlimit:4;stroke-dasharray:none;stroke-dashoffset:0;stroke-opacity:1"
       id="rect9335"
       width="15.000001"
       height="3"
       x="0"
       y="9"
       ry="0.49999997"
       rx="0.5" />
  </g>
</svg>
