<?xml version="1.0" encoding="UTF-8" standalone="no"?>
<!-- Created with Inkscape (http://www.inkscape.org/) -->

<svg
   xmlns:dc="http://purl.org/dc/elements/1.1/"
   xmlns:cc="http://creativecommons.org/ns#"
   xmlns:rdf="http://www.w3.org/1999/02/22-rdf-syntax-ns#"
   xmlns:svg="http://www.w3.org/2000/svg"
   xmlns="http://www.w3.org/2000/svg"
   xmlns:sodipodi="http://sodipodi.sourceforge.net/DTD/sodipodi-0.dtd"
   xmlns:inkscape="http://www.inkscape.org/namespaces/inkscape"
   width="17"
   height="17"
   id="svg4764"
   version="1.1"
   inkscape:version="0.91+devel+osxmenu r12911"
   sodipodi:docname="light-11.svg"
   viewBox="0 0 17 17">
  <defs
     id="defs4766" />
  <sodipodi:namedview
     id="base"
     pagecolor="#ffffff"
     bordercolor="#666666"
     borderopacity="1.0"
     inkscape:pageopacity="0.0"
     inkscape:pageshadow="2"
     inkscape:zoom="16"
     inkscape:cx="-0.3036093"
     inkscape:cy="6.7160366"
     inkscape:document-units="px"
     inkscape:current-layer="layer1"
     showgrid="true"
     showguides="false"
     inkscape:guide-bbox="true"
     inkscape:window-width="960"
     inkscape:window-height="1025"
     inkscape:window-x="80"
     inkscape:window-y="23"
     inkscape:window-maximized="0"
     inkscape:snap-bbox="true"
     fit-margin-top="0"
     fit-margin-left="0"
     fit-margin-right="0"
     fit-margin-bottom="0"
     inkscape:object-paths="true"
     inkscape:bbox-paths="true"
     inkscape:bbox-nodes="true"
     inkscape:snap-nodes="true"
     inkscape:snap-bbox-edge-midpoints="true"
     inkscape:object-nodes="true">
    <inkscape:grid
       type="xygrid"
       id="grid4772"
       empspacing="2"
       visible="true"
       enabled="true"
       snapvisiblegridlinesonly="true"
       color="#ff00ff"
       opacity="0.1254902"
       empcolor="#ff00ff"
       empopacity="0.25098039"
       originx="-0.9999999"
       originy="-0.93755378" />
    <sodipodi:guide
       orientation="0,1"
       position="1.0000001,11.062447"
       id="guide4789" />
    <sodipodi:guide
       orientation="1,0"
       position="11.000001,9.0624466"
       id="guide4791" />
    <sodipodi:guide
       orientation="0,1"
       position="8.9999997,-0.93755378"
       id="guide4793" />
    <sodipodi:guide
       orientation="1,0"
       position="-0.9999999,8.0624466"
       id="guide4795" />
    <sodipodi:guide
       orientation="0,1"
       position="4.0000001,10.062447"
       id="guide4797" />
    <sodipodi:guide
       orientation="1,0"
       position="10.000001,6.0624463"
       id="guide4799" />
    <sodipodi:guide
       orientation="0,1"
       position="7.9999997,1.0624462"
       id="guide4801" />
    <sodipodi:guide
       orientation="1,0"
       position="1.0000001,4.0624463"
       id="guide4803" />
  </sodipodi:namedview>
  <metadata
     id="metadata4769">
    <rdf:RDF>
      <cc:Work
         rdf:about="">
        <dc:format>image/svg+xml</dc:format>
        <dc:type
           rdf:resource="http://purl.org/dc/dcmitype/StillImage" />
        <dc:title></dc:title>
      </cc:Work>
    </rdf:RDF>
  </metadata>
  <g
     inkscape:label="Layer 1"
     inkscape:groupmode="layer"
     id="layer1"
     transform="translate(-1,-1034.4247)">
    <rect
       style="opacity:1;fill:#9c8ea4;fill-opacity:1;stroke:none;stroke-width:2.63156796;stroke-linecap:round;stroke-linejoin:round;stroke-miterlimit:4;stroke-dasharray:none;stroke-dashoffset:0;stroke-opacity:1;marker:none"
       id="rect12407"
       width="15"
       height="15"
       x="2"
       y="1035.4247"
       rx="1.9375538"
       ry="1.9375538" />
    <path
       style="opacity:1;fill:#ffffff;fill-opacity:1;stroke:none;stroke-width:1;stroke-linecap:round;stroke-linejoin:miter;stroke-miterlimit:4;stroke-dasharray:none;stroke-dashoffset:0;stroke-opacity:1"
       d="m 7.9998417,1037.3625 c -0.5,0 -0.5,0.5 -0.5,0.5 0,0 0,0.5 0.5,0.5 l 1,0 0,0.9707 -1,0.029 c 0,0 -1,0 -1,1 l 0,3 c 0,2 2,2 2,2 l 1,0 c 0,0 2.0000003,0 2.0000003,-2 l 0,-3 c 0,-1 -1,-1 -1,-1 l -1.0000003,0 0,-1 1.0000003,0 c 0.5,0 0.5,-0.5 0.5,-0.5 0,0 0,-0.5 -0.5,-0.5 z m 1.5,3 1.5000003,0.5 0,1.5 -1.5000003,0 -1.5,0 0,-1.5 z m 0,3 c 0.277,0 0.5,0.223 0.5,0.5 0,0.277 -0.223,0.5 -0.5,0.5 -0.277,0 -0.5,-0.223 -0.5,-0.5 0,-0.277 0.223,-0.5 0.5,-0.5 z m -2.666016,2.5 -0.833984,2.5 1.5,0 0.333984,-1 3.3320323,0 0.333984,1 1.5,0 -0.833984,-2.5 -1.498047,0 0.166015,0.5 -2.6679683,0 0.166015,-0.5 z"
       id="path14245"
       inkscape:connector-curvature="0"
       sodipodi:nodetypes="cccccccccccccccccccccccccccccccccccccccccccc" />
  </g>
</svg>
