<?xml version="1.0" encoding="UTF-8" standalone="no"?>
<!-- Created with Inkscape (http://www.inkscape.org/) -->

<svg
   xmlns:dc="http://purl.org/dc/elements/1.1/"
   xmlns:cc="http://creativecommons.org/ns#"
   xmlns:rdf="http://www.w3.org/1999/02/22-rdf-syntax-ns#"
   xmlns:svg="http://www.w3.org/2000/svg"
   xmlns="http://www.w3.org/2000/svg"
   xmlns:sodipodi="http://sodipodi.sourceforge.net/DTD/sodipodi-0.dtd"
   xmlns:inkscape="http://www.inkscape.org/namespaces/inkscape"
   width="15"
   height="15"
   id="svg2484"
   sodipodi:version="0.32"
   inkscape:version="0.91+devel+osxmenu r12911"
   version="1.0"
   sodipodi:docname="transilien-11.svg"
   inkscape:output_extension="org.inkscape.output.svg.inkscape"
   viewBox="0 0 15 15">
  <defs
     id="defs2486" />
  <sodipodi:namedview
     id="base"
     pagecolor="#ffffff"
     bordercolor="#666666"
     borderopacity="1.0"
     inkscape:pageopacity="0.0"
     inkscape:pageshadow="2"
     inkscape:zoom="32"
     inkscape:cx="1.8227414"
     inkscape:cy="7.947028"
     inkscape:document-units="px"
     inkscape:current-layer="layer1"
     showgrid="true"
     inkscape:window-x="8"
     inkscape:window-y="1"
     inkscape:window-maximized="0"
     inkscape:snap-bbox="true"
     inkscape:snap-nodes="true"
     inkscape:bbox-paths="true"
     inkscape:bbox-nodes="true"
     inkscape:snap-bbox-edge-midpoints="true"
     inkscape:object-paths="true"
     inkscape:snap-intersection-paths="true"
     inkscape:object-nodes="true"
     inkscape:snap-smooth-nodes="true">
    <inkscape:grid
       type="xygrid"
       id="grid2991"
       empspacing="2"
       visible="true"
       enabled="true"
       snapvisiblegridlinesonly="true"
       spacingx="0.5"
       spacingy="0.5"
       color="#ff0000"
       opacity="0.1254902" />
  </sodipodi:namedview>
  <metadata
     id="metadata2489">
    <rdf:RDF>
      <cc:Work
         rdf:about="">
        <dc:format>image/svg+xml</dc:format>
        <dc:type
           rdf:resource="http://purl.org/dc/dcmitype/StillImage" />
        <dc:title />
      </cc:Work>
    </rdf:RDF>
  </metadata>
  <g
     inkscape:label="Calque 1"
     inkscape:groupmode="layer"
     id="layer1"
     transform="translate(1125.7177,-1003.5985)"
     style="display:inline">
    <rect
       style="opacity:1;fill:#ffffff;fill-opacity:1;stroke:none;stroke-width:1;stroke-linecap:round;stroke-linejoin:round;stroke-miterlimit:4;stroke-dasharray:none;stroke-dashoffset:0;stroke-opacity:1;marker:none"
       id="rect5835"
       width="13.999757"
       height="14.000022"
       x="-1125.2175"
       y="1004.0986"
       rx="1.9999894"
       ry="1.9999894" />
    <g
       id="g3018"
       transform="translate(-1.5000002,1.5156252)">
      <g
         transform="matrix(0.0581986,0,0,0.0581986,-1116.1461,991.08678)"
         id="g3038"
         inkscape:label="Calque 1"
         style="fill:#ffffff;stroke:none">
        <g
           id="g3040"
           style="fill:#ffffff;stroke:none">
          <g
             id="g3042"
             transform="translate(346.23962,22.336208)"
             style="fill:#ffffff;stroke:none">
            <g
               style="fill:#ffffff;stroke:none"
               inkscape:label="Calque 1"
               id="g3044"
               transform="translate(-597.84164,-361.66719)">
              <g
                 style="fill:#ffffff;stroke:none"
                 id="g3046">
                <g
                   style="fill:#ffffff;stroke:none"
                   transform="matrix(1.0136364,0,0,1.0136364,-6.3061891,-6.3640296)"
                   id="g3048" />
              </g>
            </g>
          </g>
        </g>
      </g>
      <g
         style="stroke:#0062ac;stroke-opacity:1"
         inkscape:label="Calque 1"
         id="g2757"
         transform="matrix(0.04516129,0,0,0.04516084,-1116.2746,995.23397)">
        <g
           style="stroke:#0062ac;stroke-opacity:1"
           id="g2656">
          <g
             style="fill:#ffffff;stroke:#0062ac;stroke-opacity:1"
             transform="translate(346.23962,22.336208)"
             id="g2840">
            <g
               transform="translate(-597.84164,-361.66719)"
               id="g2639"
               inkscape:label="Calque 1"
               style="fill:#ffffff;stroke:#0062ac;stroke-opacity:1">
              <g
                 id="g2628"
                 style="fill:#ffffff;stroke:#0062ac;stroke-opacity:1">
                <g
                   id="g6673"
                   transform="matrix(1.0136364,0,0,1.0136364,-6.3061891,-6.3640296)"
                   style="fill:#ffffff;stroke:#0062ac;stroke-opacity:1">
                  <path
                     style="color:#000000;font-style:normal;font-variant:normal;font-weight:normal;font-stretch:normal;font-size:medium;line-height:normal;font-family:Sans;-inkscape-font-specification:Sans;text-indent:0;text-align:start;text-decoration:none;text-decoration-line:none;letter-spacing:normal;word-spacing:normal;text-transform:none;direction:ltr;block-progression:tb;writing-mode:lr-tb;baseline-shift:baseline;text-anchor:start;display:inline;overflow:visible;visibility:visible;fill:#5396c7;fill-opacity:1;fill-rule:nonzero;stroke:none;stroke-width:0.89973533px;marker:none;enable-background:accumulate;opacity:1;stroke-linecap:butt;stroke-linejoin:miter;stroke-miterlimit:4;stroke-dasharray:none;stroke-dashoffset:0;stroke-opacity:1"
                     d="m 3.8906252,1.4843749 c -1.3151975,0 -2.390625,1.0754406 -2.390625,2.390625 l 0,10.2207031 c 0,1.315184 1.0754275,2.388672 2.390625,2.388672 l 10.2187498,0 c 1.315198,0 2.390625,-1.073488 2.390625,-2.388672 l 0,-10.2207031 c 0,-1.3151844 -1.075428,-2.390625 -2.390625,-2.390625 z m 0,1 10.2187498,0 c 0.778493,0 1.390625,0.612141 1.390625,1.390625 l 0,10.2207031 c 0,0.778484 -0.612133,1.388672 -1.390625,1.388672 l -10.2187498,0 c -0.7784918,0 -1.390625,-0.610188 -1.390625,-1.388672 l 0,-10.2207031 c 0,-0.778484 0.6121332,-1.390625 1.390625,-1.390625 z m 2.6093749,2 c -0.554,0 -1,0.4205 -1,0.9375 l 0,4.6406251 c 0,0.517 0.446,0.9375 1,0.9375 l -1.5,2.484375 1.5,0 1.25,-2 2.4999999,0 1.25,2 1.5,0 L 11.5,11 c 0.554,0 1,-0.4205 1,-0.9375 l 0,-4.6406251 c 0,-0.517 -0.446,-0.9375 -1,-0.9375 z m 0.5,1 3.9999999,0 c 0.277,0 0.5,0.223 0.5,0.5 l 0,1 c 0,0.277 -0.223,0.5 -0.5,0.5 l -3.9999999,0 c -0.277,0 -0.5,-0.223 -0.5,-0.5 l 0,-1 c 0,-0.277 0.223,-0.5 0.5,-0.5 z m -0.5,3.0000001 1,0 0,1 -1,0 z m 3.9999999,0 1,0 0,1 -1,0 z"
                     transform="matrix(21.844971,0,0,21.845188,48.154341,458.23356)"
                     id="rect2993"
                     inkscape:connector-curvature="0"
                     sodipodi:nodetypes="sssssssssssssssssssssccccccccssssssssssssscccccccccc" />
                </g>
              </g>
            </g>
          </g>
        </g>
      </g>
    </g>
  </g>
</svg>
