<?xml version="1.0" encoding="utf-8"?>
<!-- Generator: Adobe Illustrator 17.0.0, SVG Export Plug-In . SVG Version: 6.00 Build 0)  -->
<!DOCTYPE svg PUBLIC "-//W3C//DTD SVG 1.1//EN" "http://www.w3.org/Graphics/SVG/1.1/DTD/svg11.dtd">
<svg version="1.1"
	 id="svg4460" xmlns:dc="http://purl.org/dc/elements/1.1/" xmlns:cc="http://creativecommons.org/ns#" xmlns:rdf="http://www.w3.org/1999/02/22-rdf-syntax-ns#" xmlns:svg="http://www.w3.org/2000/svg"
	 xmlns="http://www.w3.org/2000/svg" xmlns:xlink="http://www.w3.org/1999/xlink" x="0px" y="0px" width="24px" height="24px"
	 viewBox="0 0 24 24" enable-background="new 0 0 24 24" xml:space="preserve">
<g id="layer1" transform="translate(0,-1028.3622)">
</g>
<path id="path14855" opacity="0.3" fill="#FFFFFF" stroke="#FFFFFF" stroke-width="2" stroke-miterlimit="10" enable-background="new    " d="
	M11.5,5c-0.552,0-1,0.447-1,1v1h-3c0-0.553-0.448-1-1-1h-1c-0.552,0-1,0.447-1,1h-1c-0.552,0-1,0.447-1,1v10c0,0.553,0.448,1,1,1h17
	c0.552,0,1-0.447,1-1V8c0-0.553-0.448-1-1-1h-4V6c0-0.553-0.448-1-1-1H11.5z M13.5,9c2.209,0,4,1.791,4,4s-1.791,4-4,4s-4-1.791-4-4
	S11.291,9,13.5,9z M13.5,11c-1.105,0-2,0.895-2,2s0.895,2,2,2s2-0.895,2-2S14.605,11,13.5,11z"/>
<path id="path3046" fill="#454545" d="M11.5,5c-0.552,0-1,0.447-1,1v1h-3c0-0.553-0.448-1-1-1h-1c-0.552,0-1,0.447-1,1h-1
	c-0.552,0-1,0.447-1,1v10c0,0.553,0.448,1,1,1h17c0.552,0,1-0.447,1-1V8c0-0.553-0.448-1-1-1h-4V6c0-0.553-0.448-1-1-1H11.5z
	 M13.5,9c2.209,0,4,1.791,4,4s-1.791,4-4,4s-4-1.791-4-4S11.291,9,13.5,9z M13.5,11c-1.105,0-2,0.895-2,2s0.895,2,2,2s2-0.895,2-2
	S14.605,11,13.5,11z"/>
<rect id="canvas" display="none" fill="none" width="24" height="24"/>
</svg>
