<?xml version="1.0" encoding="utf-8"?>
<!-- Generator: Adobe Illustrator 17.0.0, SVG Export Plug-In . SVG Version: 6.00 Build 0)  -->
<!DOCTYPE svg PUBLIC "-//W3C//DTD SVG 1.1//EN" "http://www.w3.org/Graphics/SVG/1.1/DTD/svg11.dtd">
<svg version="1.1"
	 id="svg4764" xmlns:dc="http://purl.org/dc/elements/1.1/" xmlns:cc="http://creativecommons.org/ns#" xmlns:rdf="http://www.w3.org/1999/02/22-rdf-syntax-ns#" xmlns:svg="http://www.w3.org/2000/svg" xmlns:inkscape="http://www.inkscape.org/namespaces/inkscape"
	 xmlns="http://www.w3.org/2000/svg" xmlns:xlink="http://www.w3.org/1999/xlink" x="0px" y="0px" width="12px" height="12px"
	 viewBox="0 0 12 12" enable-background="new 0 0 12 12" xml:space="preserve">
<g id="ice-cream3_1_">
	<g id="g4" opacity="0.3">
		<g id="g6">
			<path id="path8" inkscape:connector-curvature="0" fill="#FFFFFF" stroke="#FFFFFF" stroke-width="2" stroke-miterlimit="10" d="
				M3.049,3.926C3.054,3.95,3.065,3.972,3.07,3.996C3.1,4.11,3.136,4.224,3.185,4.329c0.006,0.013,0.014,0.023,0.02,0.036
				c0.057,0.115,0.123,0.227,0.2,0.329c0.001,0.001,0.002,0.002,0.003,0.004C3.492,4.807,3.586,4.909,3.69,5h2.62
				C6.729,4.634,7,4.101,7,3.5c0-0.738-0.405-1.377-1.001-1.723C5.864,1.698,5.718,1.638,5.566,1.591
				C5.544,1.584,5.521,1.575,5.498,1.57C5.339,1.527,5.173,1.5,4.999,1.5c-1.104,0-2,0.896-2,2C3,3.646,3.017,3.789,3.049,3.926
				L3.049,3.926z"/>
			
				<path id="path10" inkscape:connector-curvature="0" fill="#FFFFFF" stroke="#FFFFFF" stroke-width="2" stroke-miterlimit="10" d="
				M7.751,3.5c0,0.554-0.167,1.068-0.45,1.5h1.01c0.419-0.366,0.69-0.899,0.69-1.5c0-1.104-0.896-2-2-2
				c-0.037,0-0.07,0.013-0.106,0.015C7.42,2.016,7.751,2.719,7.751,3.5z"/>
		</g>
		<path id="path12" inkscape:connector-curvature="0" fill="#FFFFFF" stroke="#FFFFFF" stroke-width="2" stroke-miterlimit="10" d="
			M4.001,6c1,2.5,1.5,4.5,2,4.5s1-2,2-4.5H4.001z"/>
	</g>
	<g id="g14">
		<path id="path16" inkscape:connector-curvature="0" fill="#464545" d="M3.049,3.926C3.054,3.95,3.065,3.972,3.07,3.996
			C3.1,4.11,3.136,4.224,3.185,4.329c0.006,0.013,0.014,0.023,0.02,0.036c0.057,0.115,0.123,0.227,0.2,0.329
			c0.001,0.001,0.002,0.002,0.003,0.004C3.492,4.807,3.586,4.909,3.69,5h2.62C6.729,4.634,7,4.101,7,3.5
			c0-0.738-0.405-1.377-1.001-1.723C5.864,1.698,5.718,1.638,5.566,1.591C5.544,1.584,5.521,1.575,5.498,1.57
			C5.339,1.527,5.173,1.5,4.999,1.5c-1.104,0-2,0.896-2,2C3,3.646,3.017,3.789,3.049,3.926L3.049,3.926z"/>
		<path id="path18" inkscape:connector-curvature="0" fill="#464545" d="M7.751,3.5c0,0.554-0.167,1.068-0.45,1.5h1.01
			c0.419-0.366,0.69-0.899,0.69-1.5c0-1.104-0.896-2-2-2c-0.037,0-0.07,0.013-0.106,0.015C7.42,2.016,7.751,2.719,7.751,3.5z"/>
	</g>
	<path id="path20" inkscape:connector-curvature="0" fill="#464545" d="M4.001,6c1,2.5,1.5,4.5,2,4.5s1-2,2-4.5H4.001z"/>
</g>
<rect id="canvas" display="none" fill="none" width="12" height="12"/>
</svg>
