<?xml version="1.0" encoding="utf-8"?>
<!-- Generator: Adobe Illustrator 17.0.0, SVG Export Plug-In . SVG Version: 6.00 Build 0)  -->
<!DOCTYPE svg PUBLIC "-//W3C//DTD SVG 1.1//EN" "http://www.w3.org/Graphics/SVG/1.1/DTD/svg11.dtd">
<svg version="1.1"
	 id="svg4764" xmlns:dc="http://purl.org/dc/elements/1.1/" xmlns:cc="http://creativecommons.org/ns#" xmlns:rdf="http://www.w3.org/1999/02/22-rdf-syntax-ns#" xmlns:svg="http://www.w3.org/2000/svg" xmlns:inkscape="http://www.inkscape.org/namespaces/inkscape"
	 xmlns="http://www.w3.org/2000/svg" xmlns:xlink="http://www.w3.org/1999/xlink" x="0px" y="0px" width="12px" height="12px"
	 viewBox="0 0 12 12" enable-background="new 0 0 12 12" xml:space="preserve">
<g id="layer1" transform="translate(0,-1040.3622)">
	<path id="path3098" inkscape:connector-curvature="0" opacity="0.3" fill="#FFFFFF" enable-background="new    " d="
		M5.406,1040.862c-0.233,0.017-0.458,0.119-0.625,0.281l-1.719,1.719H2.5c-0.524,0-1,0.476-1,1v7c0,0.524,0.476,1,1,1h7
		c0.524,0,1-0.476,1-1v-9c0-0.524-0.476-1-1-1h-1h-3C5.469,1040.862,5.438,1040.862,5.406,1040.862L5.406,1040.862z"/>
	<path id="path3291" inkscape:connector-curvature="0" fill="#454545" d="M5.5,1041.862l-2,2h-1v7h7v-9h-1H5.5z M5.5,1042.862h1v1
		h-1V1042.862z M7.5,1042.862h1v1h-1V1042.862z M5.5,1044.862h1l2,2v1l-2,2h-1l-2-2v-1L5.5,1044.862z M4.5,1046.862v1h1v1h1v-1h1v-1
		H4.5z"/>
</g>
<rect id="canvas" display="none" fill="none" width="12" height="12"/>
</svg>
