<?xml version="1.0" encoding="UTF-8" standalone="no"?>
<!-- Created with Inkscape (http://www.inkscape.org/) -->

<svg
   xmlns:dc="http://purl.org/dc/elements/1.1/"
   xmlns:cc="http://creativecommons.org/ns#"
   xmlns:rdf="http://www.w3.org/1999/02/22-rdf-syntax-ns#"
   xmlns:svg="http://www.w3.org/2000/svg"
   xmlns="http://www.w3.org/2000/svg"
   xmlns:sodipodi="http://sodipodi.sourceforge.net/DTD/sodipodi-0.dtd"
   xmlns:inkscape="http://www.inkscape.org/namespaces/inkscape"
   version="1.1"
   width="11"
   height="11"
   id="svg4764"
   inkscape:version="0.91+devel+osxmenu r12911"
   sodipodi:docname="campsite-11.svg"
   viewBox="0 0 11 11">
  <sodipodi:namedview
     pagecolor="#000000"
     bordercolor="#666666"
     borderopacity="1"
     objecttolerance="10"
     gridtolerance="10"
     guidetolerance="10"
     inkscape:pageopacity="0"
     inkscape:pageshadow="2"
     inkscape:window-width="640"
     inkscape:window-height="480"
     id="namedview3370"
     inkscape:document-units="px"
     showgrid="false"
     inkscape:zoom="55.545455"
     inkscape:cx="3.2495908"
     inkscape:cy="6.0581015"
     inkscape:current-layer="svg4764" />
  <defs
     id="defs4766" />
  <metadata
     id="metadata4769">
    <rdf:RDF>
      <cc:Work
         rdf:about="">
        <dc:format>image/svg+xml</dc:format>
        <dc:type
           rdf:resource="http://purl.org/dc/dcmitype/StillImage" />
        <dc:title />
      </cc:Work>
    </rdf:RDF>
  </metadata>
  <path style="fill:#000000;fill-opacity:1"
     d="m 5.5381945,1.2222223 c -0.3055556,0 -0.4437278,0.1463 -0.5347223,0.3055555 l -3.4947977,7.0277778 -0.8975634,0 C 0.2526455,8.5555556 0,8.8281111 0,9.1666667 0,9.5052222 0.2526455,9.7777778 0.6111111,9.7777778 l 1.2604167,0 7.3333333,0 1.1458339,0 C 10.70916,9.7777778 11,9.5052222 11,9.1666667 11,8.8281111 10.70916,8.5555556 10.350695,8.5555556 l -0.7829927,0 L 6.0729167,1.5277778 C 5.9818611,1.3685223 5.84375,1.2222223 5.5381945,1.2222223 Z m 0,3.0555554 1.8333333,4.2777779 -3.6666667,0 z"
     inkscape:connector-curvature="0"
     id="path11349-0-3"
      />
</svg>
