<?xml version="1.0" encoding="utf-8"?>
<!-- Generator: Adobe Illustrator 17.1.0, SVG Export Plug-In . SVG Version: 6.00 Build 0)  -->
<!DOCTYPE svg PUBLIC "-//W3C//DTD SVG 1.1//EN" "http://www.w3.org/Graphics/SVG/1.1/DTD/svg11.dtd">
<svg version="1.1"
	 id="svg4764" sodipodi:docname="zoo-11.svg" inkscape:version="0.91+devel+osxmenu r12911" xmlns:cc="http://creativecommons.org/ns#" xmlns:svg="http://www.w3.org/2000/svg" xmlns:inkscape="http://www.inkscape.org/namespaces/inkscape" xmlns:rdf="http://www.w3.org/1999/02/22-rdf-syntax-ns#" xmlns:dc="http://purl.org/dc/elements/1.1/" xmlns:sodipodi="http://sodipodi.sourceforge.net/DTD/sodipodi-0.dtd"
	 xmlns="http://www.w3.org/2000/svg" xmlns:xlink="http://www.w3.org/1999/xlink" x="0px" y="0px" viewBox="0 0 11 11"
	 enable-background="new 0 0 11 11" xml:space="preserve">
<sodipodi:namedview  id="namedview3394" inkscape:current-layer="svg4764" inkscape:window-height="480" inkscape:pageopacity="0" inkscape:window-width="640" inkscape:window-y="23" inkscape:pageshadow="2" inkscape:document-units="px" inkscape:window-maximized="0" inkscape:window-x="0" inkscape:cx="5.5" borderopacity="1" objecttolerance="10" bordercolor="#666666" gridtolerance="10" showgrid="false" inkscape:cy="5.5" inkscape:zoom="21.454545" guidetolerance="10" pagecolor="#000000">
	</sodipodi:namedview>
<path style="fill:#000000;fill-opacity:1" id="path10518" inkscape:connector-curvature="0" d="M7.8,0c-1.1,1.6-1,3.3-2.2,4.4c-1.2,1-3.9,0.7-3.9,2.2v0.6
	c0,0.5,0.5,1.1,0.5,1.7v0.6c0,0.8-0.3,0.8-0.5,1.6h0.5l1.1-1.6V11H4V7.7h1.1V11h0.6V8.2h1.1L7.3,11h0.5L7.3,6.6c0-0.5,0-1.1,0-1.7
	l1.1-3.8h1.1c0-0.2,0-0.9,0-1.1H7.8z"/>
</svg>
