<?xml version="1.0" encoding="UTF-8" standalone="no"?>
<!-- Generator: Adobe Illustrator 18.1.1, SVG Export Plug-In . SVG Version: 6.00 Build 0)  -->

<svg
   xmlns:dc="http://purl.org/dc/elements/1.1/"
   xmlns:cc="http://creativecommons.org/ns#"
   xmlns:rdf="http://www.w3.org/1999/02/22-rdf-syntax-ns#"
   xmlns:svg="http://www.w3.org/2000/svg"
   xmlns="http://www.w3.org/2000/svg"
   xmlns:sodipodi="http://sodipodi.sourceforge.net/DTD/sodipodi-0.dtd"
   xmlns:inkscape="http://www.inkscape.org/namespaces/inkscape"
   version="1.1"
   id="svg4619"
   inkscape:version="0.91+devel+osxmenu r12911"
   sodipodi:docname="hospital-15.svg"
   x="0px"
   y="0px"
   viewBox="2 885 15 15"
   enable-background="new 2 885 15 15"
   xml:space="preserve"><metadata
     id="metadata8"><rdf:RDF><cc:Work
         rdf:about=""><dc:format>image/svg+xml</dc:format><dc:type
           rdf:resource="http://purl.org/dc/dcmitype/StillImage" /><dc:title></dc:title></cc:Work></rdf:RDF></metadata><defs
     id="defs6" /><sodipodi:namedview
     borderopacity="1"
     bordercolor="#666666"
     objecttolerance="10"
     showgrid="false"
     guidetolerance="10"
     inkscape:zoom="11.313708"
     gridtolerance="10"
     pagecolor="#ffffff"
     inkscape:cx="7.310186"
     inkscape:cy="9.7581393"
     id="namedview3382"
     inkscape:document-units="px"
     inkscape:window-width="1925"
     inkscape:pageshadow="2"
     inkscape:window-height="1046"
     inkscape:pageopacity="0"
     inkscape:current-layer="svg4619"
     inkscape:window-x="0"
     inkscape:window-y="0"
     inkscape:window-maximized="0"
     inkscape:snap-bbox="true"
     inkscape:bbox-paths="true"
     inkscape:bbox-nodes="true"
     inkscape:snap-bbox-edge-midpoints="false"><inkscape:grid
       type="xygrid"
       id="grid3383"
       spacingx="0.5"
       spacingy="0.5"
       empspacing="2"
       color="#ff3f3f"
       opacity="0.1254902" /></sodipodi:namedview><path
     style="opacity:1;fill:#000000;fill-opacity:1;stroke:none;stroke-width:3;stroke-linecap:round;stroke-linejoin:round;stroke-miterlimit:4;stroke-dasharray:none;stroke-dashoffset:0;stroke-opacity:1;marker:none"
     d="M 7 1 C 6.446 1 6 1.4459999 6 2 L 6 6 L 2 6 C 1.4459999 6 1 6.446 1 7 L 1 8 C 1 8.554 1.4459999 9 2 9 L 6 9 L 6 13 C 6 13.554 6.446 14 7 14 L 8 14 C 8.554 14 9 13.554 9 13 L 9 9 L 13 9 C 13.554 9 14 8.554 14 8 L 14 7 C 14 6.446 13.554 6 13 6 L 9 6 L 9 2 C 9 1.4459999 8.554 1 8 1 L 7 1 z "
     transform="translate(2,885)"
     id="rect4194" /></svg>
