<?xml version="1.0" encoding="UTF-8" standalone="no"?>
<!-- Created with Inkscape (http://www.inkscape.org/) -->

<svg
   xmlns:dc="http://purl.org/dc/elements/1.1/"
   xmlns:cc="http://creativecommons.org/ns#"
   xmlns:rdf="http://www.w3.org/1999/02/22-rdf-syntax-ns#"
   xmlns:svg="http://www.w3.org/2000/svg"
   xmlns="http://www.w3.org/2000/svg"
   xmlns:sodipodi="http://sodipodi.sourceforge.net/DTD/sodipodi-0.dtd"
   xmlns:inkscape="http://www.inkscape.org/namespaces/inkscape"
   version="1.1"
   width="48"
   height="12"
   id="svg3122"
   inkscape:version="0.91+devel+osxmenu r12911"
   sodipodi:docname="dlr.london-overground.london-underground.national-rail-12.svg"
   viewBox="0 0 48 12">
  <sodipodi:namedview
     pagecolor="#ffffff"
     bordercolor="#666666"
     borderopacity="1"
     objecttolerance="10"
     gridtolerance="10"
     guidetolerance="10"
     inkscape:pageopacity="0"
     inkscape:pageshadow="2"
     inkscape:window-width="1920"
     inkscape:window-height="1031"
     id="namedview33"
     showgrid="true"
     inkscape:snap-bbox="true"
     inkscape:zoom="31.999999"
     inkscape:cx="33.070278"
     inkscape:cy="8.4777413"
     inkscape:window-x="0"
     inkscape:window-y="23"
     inkscape:window-maximized="0"
     inkscape:current-layer="svg3122"
     inkscape:document-units="px">
    <inkscape:grid
       type="xygrid"
       id="grid3010"
       empspacing="5"
       visible="true"
       enabled="true"
       snapvisiblegridlinesonly="true" />
  </sodipodi:namedview>
  <defs
     id="defs3124" />
  <metadata
     id="metadata3127">
    <rdf:RDF>
      <cc:Work
         rdf:about="">
        <dc:format>image/svg+xml</dc:format>
        <dc:type
           rdf:resource="http://purl.org/dc/dcmitype/StillImage" />
        <dc:title />
      </cc:Work>
    </rdf:RDF>
  </metadata>
  <g
     transform="matrix(0.49999934,0,0,0.49999934,0,-514.18041)"
     id="layer0">
    <path
       style="color:#000000;display:inline;overflow:visible;visibility:visible;fill:#9cc883;fill-opacity:1;fill-rule:nonzero;stroke:none;stroke-width:0.74999994;marker:none;enable-background:accumulate"
       d="M 6.1171875 2.0019531 A 3.9999947 3.9999947 0 0 0 2 6 A 3.9999947 3.9999947 0 0 0 10 6 A 3.9999947 3.9999947 0 0 0 6.1171875 2.0019531 z M 6.0722656 3.5 A 2.5000317 2.5000317 0 0 1 8.5 6 A 2.5000317 2.5000317 0 0 1 3.5 6 A 2.5000317 2.5000317 0 0 1 6.0722656 3.5 z "
       transform="matrix(2.0000026,0,0,2.0000026,0,1028.3622)"
       id="path4187" />
    <rect
       width="20.000004"
       height="4.0000005"
       rx="0.5"
       ry="0.49999994"
       x="2"
       y="1038.3622"
       id="rect4191"
       style="color:#000000;display:inline;overflow:visible;visibility:visible;fill:#3377a7;fill-opacity:1;fill-rule:nonzero;stroke:none;stroke-width:1.33333325;marker:none;enable-background:accumulate" />
  </g>
  <g
     transform="matrix(0.49999934,0,0,0.49999934,11.999984,-514.18041)"
     id="layer1">
    <path
       style="color:#000000;display:inline;overflow:visible;visibility:visible;fill:#eea66f;fill-opacity:1;fill-rule:nonzero;stroke:none;stroke-width:0.74999994;marker:none;enable-background:accumulate"
       d="M 18.117188 2.0019531 A 3.9999947 3.9999947 0 0 0 14 6 A 3.9999947 3.9999947 0 0 0 22 6 A 3.9999947 3.9999947 0 0 0 18.117188 2.0019531 z M 18.072266 3.5019531 A 2.5000317 2.5000317 0 0 1 20.5 6 A 2.5000317 2.5000317 0 0 1 15.5 6 A 2.5000317 2.5000317 0 0 1 18.072266 3.5019531 z "
       transform="matrix(2.0000026,0,0,2.0000026,-24,1028.3622)"
       id="path4080" />
    <rect
       width="20.000004"
       height="4.0000005"
       rx="0.5"
       ry="0.49999994"
       x="2"
       y="1038.3622"
       id="rect4084"
       style="color:#000000;display:inline;overflow:visible;visibility:visible;fill:#3377a7;fill-opacity:1;fill-rule:nonzero;stroke:none;stroke-width:1.33333325;marker:none;enable-background:accumulate" />
  </g>
  <g
     transform="matrix(0.49999934,0,0,0.49999934,23.999968,-514.18041)"
     id="layer2">
    <path
       style="color:#000000;display:inline;overflow:visible;visibility:visible;fill:#e97474;fill-opacity:1;fill-rule:nonzero;stroke:none;stroke-width:0.74999994;marker:none;enable-background:accumulate"
       d="M 30.117188 2.0019531 A 3.9999947 3.9999947 0 0 0 26 6 A 3.9999947 3.9999947 0 0 0 34 6 A 3.9999947 3.9999947 0 0 0 30.117188 2.0019531 z M 30.072266 3.5019531 A 2.5000317 2.5000317 0 0 1 32.5 6 A 2.5000317 2.5000317 0 0 1 27.5 6 A 2.5000317 2.5000317 0 0 1 30.072266 3.5019531 z "
       transform="matrix(2.0000026,0,0,2.0000026,-47.999999,1028.3622)"
       id="path3903" />
    <rect
       width="20.000004"
       height="4.0000005"
       rx="0.5"
       ry="0.49999994"
       x="2"
       y="1038.3622"
       id="rect3827-1-4"
       style="color:#000000;display:inline;overflow:visible;visibility:visible;fill:#3377a7;fill-opacity:1;fill-rule:nonzero;stroke:none;stroke-width:1.33333325;marker:none;enable-background:accumulate" />
  </g>
  <g
     transform="translate(36,-1040.3622)"
     id="layer1-6">
    <path
       style="color:#000000;display:inline;overflow:visible;visibility:visible;fill:#e97474;fill-opacity:1;fill-rule:nonzero;stroke:none;stroke-width:1.33333325;marker:none;enable-background:accumulate"
       d="M 38 2 C 37.446 2 37 2.446 37 3 L 37 4 L 42.666016 4 L 39.333984 2 L 38 2 z M 41.333984 2 L 44.666016 4 L 47 4 L 47 3 C 47 2.446 46.554 2 46 2 L 41.333984 2 z M 37 5 L 37 7 L 39.333984 7 L 42.666016 5 L 37 5 z M 44.666016 5 L 41.333984 7 L 47 7 L 47 5 L 44.666016 5 z M 37 8 L 37 9 C 37 9.554 37.446 10 38 10 L 42.666016 10 L 39.333984 8 L 37 8 z M 41.333984 8 L 44.666016 10 L 46 10 C 46.554 10 47 9.554 47 9 L 47 8 L 41.333984 8 z "
       transform="translate(-36,1040.3622)"
       id="rect3025" />
  </g>
</svg>
