<?xml version="1.0" encoding="utf-8"?>
<svg version="1.1"
	 id="svg3122" xmlns:dc="http://purl.org/dc/elements/1.1/" xmlns:cc="http://creativecommons.org/ns#" xmlns:rdf="http://www.w3.org/1999/02/22-rdf-syntax-ns#" xmlns:svg="http://www.w3.org/2000/svg" xmlns:sodipodi="http://sodipodi.sourceforge.net/DTD/sodipodi-0.dtd" xmlns:inkscape="http://www.inkscape.org/namespaces/inkscape" sodipodi:docname="dlr.london-overground.london-underground.national-rail-15.svg" inkscape:version="0.91+devel+osxmenu r12911"
	 xmlns="http://www.w3.org/2000/svg" xmlns:xlink="http://www.w3.org/1999/xlink" x="0px" y="0px" width="75px" height="19px"
	 viewBox="-2 -2 75 19" enable-background="new -2 -2 75 19" xml:space="preserve">
<path fill="#FFFFFF" d="M69,0h-7.156h-1.887H56c-1.654,0-3,1.346-3,3v1.503c-0.21-0.158-0.444-0.285-0.698-0.371
	C50.982,1.05,47.953-1,44.5-1s-6.482,2.05-7.802,5.132C36.215,4.296,35.8,4.605,35.5,5.005c-0.3-0.4-0.715-0.71-1.198-0.873
	C32.982,1.05,29.953-1,26.5-1s-6.482,2.05-7.802,5.132C18.215,4.296,17.8,4.605,17.5,5.005c-0.3-0.4-0.715-0.71-1.198-0.873
	C14.982,1.05,11.953-1,8.5-1S2.018,1.05,0.698,4.132C-0.288,4.467-1,5.402-1,6.5v2c0,1.098,0.712,2.033,1.698,2.368
	C2.018,13.95,5.047,16,8.5,16s6.482-2.05,7.802-5.132c0.483-0.164,0.898-0.473,1.198-0.873c0.3,0.4,0.715,0.71,1.198,0.873
	C20.018,13.95,23.047,16,26.5,16s6.482-2.05,7.802-5.132c0.483-0.164,0.898-0.473,1.198-0.873c0.3,0.4,0.715,0.71,1.198,0.873
	C38.018,13.95,41.047,16,44.5,16s6.482-2.05,7.802-5.132c0.254-0.086,0.488-0.213,0.698-0.371V12c0,1.654,1.346,3,3,3h7.156h1.887
	H69c1.654,0,3-1.346,3-3v-2V9V6V5V3C72,1.346,70.654,0,69,0z"/>
<g id="g9418" transform="translate(1,14)">
	<path id="path3346" inkscape:connector-curvature="0" fill="#9CC883" d="M7.5-13C3.91-13,1-10.09,1-6.5S3.91,0,7.5,0
		S14-2.91,14-6.5S11.09-13,7.5-13z M7.5-10.5c2.209,0,4,1.791,4,4c0,0,0,0,0,0c0,2.209-1.791,4-4,4h0c-2.209,0-4-1.791-4-4
		c0,0,0,0,0,0C3.5-8.709,5.291-10.5,7.5-10.5C7.5-10.5,7.5-10.5,7.5-10.5z"/>
	<path id="rect3363" fill="#5396C7" d="M0.5-8h14C14.776-8,15-7.776,15-7.5v2C15-5.224,14.776-5,14.5-5h-14C0.224-5,0-5.224,0-5.5
		v-2C0-7.776,0.224-8,0.5-8z"/>
</g>
<g id="g9423" transform="translate(19,14)">
	<path id="path9427" inkscape:connector-curvature="0" fill="#EEA66F" d="M7.5-13C3.91-13,1-10.09,1-6.5S3.91,0,7.5,0
		S14-2.91,14-6.5S11.09-13,7.5-13z M7.5-10.5c2.209,0,4,1.791,4,4c0,0,0,0,0,0c0,2.209-1.791,4-4,4h0c-2.209,0-4-1.791-4-4
		c0,0,0,0,0,0C3.5-8.709,5.291-10.5,7.5-10.5C7.5-10.5,7.5-10.5,7.5-10.5z"/>
	<path id="rect9429" fill="#5396C7" d="M0.5-8h14C14.776-8,15-7.776,15-7.5v2C15-5.224,14.776-5,14.5-5h-14C0.224-5,0-5.224,0-5.5
		v-2C0-7.776,0.224-8,0.5-8z"/>
</g>
<g id="g9431" transform="translate(37,14)">
	<path id="path9435" inkscape:connector-curvature="0" fill="#E97474" d="M7.5-13C3.91-13,1-10.09,1-6.5S3.91,0,7.5,0
		S14-2.91,14-6.5S11.09-13,7.5-13z M7.5-10.5c2.209,0,4,1.791,4,4c0,0,0,0,0,0c0,2.209-1.791,4-4,4h0c-2.209,0-4-1.791-4-4
		c0,0,0,0,0,0C3.5-8.709,5.291-10.5,7.5-10.5C7.5-10.5,7.5-10.5,7.5-10.5z"/>
	<path id="rect9437" fill="#5396C7" d="M0.5-8h14C14.776-8,15-7.776,15-7.5v2C15-5.224,14.776-5,14.5-5h-14C0.224-5,0-5.224,0-5.5
		v-2C0-7.776,0.224-8,0.5-8z"/>
</g>
<g id="g11681" transform="translate(55)">
	<path id="rect4778" fill="#E97474" d="M1,2h13c0.552,0,1,0.448,1,1v9c0,0.552-0.448,1-1,1H1c-0.552,0-1-0.448-1-1V3
		C0,2.448,0.448,2,1,2z"/>
	<path id="rect4780" inkscape:connector-curvature="0" fill="#FFFFFF" d="M4.957,2l4.799,3H0v1h9.381l-6,3H0v1h3.357l4.799,3h1.887
		l-4.799-3H15V9H5.619l6-3H15V5h-3.357L6.844,2H4.957z"/>
</g>
</svg>
