<?xml version="1.0" encoding="UTF-8" standalone="no"?>
<!-- Created with Inkscape (http://www.inkscape.org/) -->

<svg
   xmlns:dc="http://purl.org/dc/elements/1.1/"
   xmlns:cc="http://creativecommons.org/ns#"
   xmlns:rdf="http://www.w3.org/1999/02/22-rdf-syntax-ns#"
   xmlns:svg="http://www.w3.org/2000/svg"
   xmlns="http://www.w3.org/2000/svg"
   xmlns:sodipodi="http://sodipodi.sourceforge.net/DTD/sodipodi-0.dtd"
   xmlns:inkscape="http://www.inkscape.org/namespaces/inkscape"
   version="1.1"
   width="52"
   height="11"
   id="svg3122"
   inkscape:version="0.91+devel+osxmenu r12911"
   sodipodi:docname="dlr.london-overground.london-underground.national-rail-11.svg"
   viewBox="0 0 52 11">
  <sodipodi:namedview
     pagecolor="#ffffff"
     bordercolor="#666666"
     borderopacity="1"
     objecttolerance="10"
     gridtolerance="10"
     guidetolerance="10"
     inkscape:pageopacity="0"
     inkscape:pageshadow="2"
     inkscape:window-width="1920"
     inkscape:window-height="1031"
     id="namedview33"
     showgrid="true"
     inkscape:snap-bbox="true"
     inkscape:zoom="16"
     inkscape:cx="42.37971"
     inkscape:cy="4.952587"
     inkscape:window-x="0"
     inkscape:window-y="23"
     inkscape:window-maximized="0"
     inkscape:current-layer="svg3122"
     inkscape:document-units="px"
     inkscape:bbox-paths="true"
     inkscape:bbox-nodes="true">
    <inkscape:grid
       type="xygrid"
       id="grid3010"
       empspacing="5"
       visible="true"
       enabled="true"
       snapvisiblegridlinesonly="true" />
  </sodipodi:namedview>
  <defs
     id="defs3124" />
  <metadata
     id="metadata3127">
    <rdf:RDF>
      <cc:Work
         rdf:about="">
        <dc:format>image/svg+xml</dc:format>
        <dc:type
           rdf:resource="http://purl.org/dc/dcmitype/StillImage" />
        <dc:title></dc:title>
      </cc:Work>
    </rdf:RDF>
  </metadata>
  <g
     id="g9541"
     transform="translate(1,1)">
    <circle
       r="2.796875"
       cy="4.5"
       cx="5.5"
       id="path5297"
       style="opacity:1;fill:#ffffff;fill-opacity:1;stroke:none;stroke-width:1;stroke-linecap:round;stroke-linejoin:round;stroke-miterlimit:4;stroke-dasharray:none;stroke-dashoffset:0;stroke-opacity:1;marker:none" />
    <path
       id="path3336"
       d="M 5.5,0 A 4.4999999,4.4999999 0 0 0 1,4.5 4.4999999,4.4999999 0 0 0 5.5,9 4.4999999,4.4999999 0 0 0 10,4.5 4.4999999,4.4999999 0 0 0 5.5,0 Z m 0,2 A 2.5,2.5 0 0 1 8,4.5 2.5,2.5 0 0 1 5.5,7 2.5,2.5 0 0 1 3,4.5 2.5,2.5 0 0 1 5.5,2 Z"
       style="opacity:1;fill:#9cc883;fill-opacity:1;stroke:none;stroke-width:0.99999994;stroke-linecap:round;stroke-linejoin:miter;stroke-miterlimit:4;stroke-dasharray:none;stroke-dashoffset:0;stroke-opacity:1"
       inkscape:connector-curvature="0" />
    <rect
       rx="0.5"
       ry="0.5"
       y="3.5"
       x="0"
       height="2"
       width="11"
       id="rect3354"
       style="opacity:1;fill:#3377a7;fill-opacity:1;stroke:none;stroke-width:1;stroke-linecap:round;stroke-linejoin:miter;stroke-miterlimit:4;stroke-dasharray:none;stroke-dashoffset:0;stroke-opacity:1" />
  </g>
  <g
     transform="translate(14,1)"
     id="g9546">
    <circle
       style="opacity:1;fill:#ffffff;fill-opacity:1;stroke:none;stroke-width:1;stroke-linecap:round;stroke-linejoin:round;stroke-miterlimit:4;stroke-dasharray:none;stroke-dashoffset:0;stroke-opacity:1;marker:none"
       id="circle9548"
       cx="5.5"
       cy="4.5"
       r="2.796875" />
    <path
       inkscape:connector-curvature="0"
       style="opacity:1;fill:#eea66f;fill-opacity:1;stroke:none;stroke-width:0.99999994;stroke-linecap:round;stroke-linejoin:miter;stroke-miterlimit:4;stroke-dasharray:none;stroke-dashoffset:0;stroke-opacity:1"
       d="M 5.5,0 A 4.4999999,4.4999999 0 0 0 1,4.5 4.4999999,4.4999999 0 0 0 5.5,9 4.4999999,4.4999999 0 0 0 10,4.5 4.4999999,4.4999999 0 0 0 5.5,0 Z m 0,2 A 2.5,2.5 0 0 1 8,4.5 2.5,2.5 0 0 1 5.5,7 2.5,2.5 0 0 1 3,4.5 2.5,2.5 0 0 1 5.5,2 Z"
       id="path9550" />
    <rect
       style="opacity:1;fill:#3377a7;fill-opacity:1;stroke:none;stroke-width:1;stroke-linecap:round;stroke-linejoin:miter;stroke-miterlimit:4;stroke-dasharray:none;stroke-dashoffset:0;stroke-opacity:1"
       id="rect9552"
       width="11"
       height="2"
       x="0"
       y="3.5"
       ry="0.5"
       rx="0.5" />
  </g>
  <g
     id="g9554"
     transform="translate(27,1)">
    <circle
       r="2.796875"
       cy="4.5"
       cx="5.5"
       id="circle9556"
       style="opacity:1;fill:#ffffff;fill-opacity:1;stroke:none;stroke-width:1;stroke-linecap:round;stroke-linejoin:round;stroke-miterlimit:4;stroke-dasharray:none;stroke-dashoffset:0;stroke-opacity:1;marker:none" />
    <path
       id="path9558"
       d="M 5.5,0 A 4.4999999,4.4999999 0 0 0 1,4.5 4.4999999,4.4999999 0 0 0 5.5,9 4.4999999,4.4999999 0 0 0 10,4.5 4.4999999,4.4999999 0 0 0 5.5,0 Z m 0,2 A 2.5,2.5 0 0 1 8,4.5 2.5,2.5 0 0 1 5.5,7 2.5,2.5 0 0 1 3,4.5 2.5,2.5 0 0 1 5.5,2 Z"
       style="opacity:1;fill:#e97474;fill-opacity:1;stroke:none;stroke-width:0.99999994;stroke-linecap:round;stroke-linejoin:miter;stroke-miterlimit:4;stroke-dasharray:none;stroke-dashoffset:0;stroke-opacity:1"
       inkscape:connector-curvature="0" />
    <rect
       rx="0.5"
       ry="0.5"
       y="3.5"
       x="0"
       height="2"
       width="11"
       id="rect9560"
       style="opacity:1;fill:#3377a7;fill-opacity:1;stroke:none;stroke-width:1;stroke-linecap:round;stroke-linejoin:miter;stroke-miterlimit:4;stroke-dasharray:none;stroke-dashoffset:0;stroke-opacity:1" />
  </g>
  <g
     id="g11745"
     transform="translate(40)">
    <g
       id="g11616">
      <rect
         style="opacity:1;fill:#e97474;fill-opacity:1;stroke:none;stroke-width:0.99999994;stroke-linecap:butt;stroke-linejoin:miter;stroke-miterlimit:4;stroke-dasharray:none;stroke-dashoffset:0;stroke-opacity:1;marker:none"
         id="rect4720"
         width="11"
         height="7"
         x="0"
         y="2"
         rx="1"
         ry="1" />
      <path
         sodipodi:nodetypes="ccccccccccccccccccccc"
         inkscape:connector-curvature="0"
         style="opacity:1;fill:#ffffff;fill-opacity:1;stroke:none;stroke-width:1;stroke-linecap:butt;stroke-linejoin:miter;stroke-miterlimit:4;stroke-dasharray:none;stroke-dashoffset:0;stroke-opacity:1;marker:none"
         d="m 2.765625,2 4,2 L 0,4 0,5 5.4042969,5 2.90625,6 0,6 l 0,1 1.9882812,0 4,2 2.234375,0 -4,-2 L 11,7 11,6 5.5957031,6 l 2.5,-1 L 11,5 11,4 9,4 5,2 Z"
         id="rect4710" />
    </g>
  </g>
</svg>
