<?xml version="1.0" encoding="UTF-8" standalone="no"?>
<!-- Created with Inkscape (http://www.inkscape.org/) -->

<svg
   xmlns:dc="http://purl.org/dc/elements/1.1/"
   xmlns:cc="http://creativecommons.org/ns#"
   xmlns:rdf="http://www.w3.org/1999/02/22-rdf-syntax-ns#"
   xmlns:svg="http://www.w3.org/2000/svg"
   xmlns="http://www.w3.org/2000/svg"
   xmlns:sodipodi="http://sodipodi.sourceforge.net/DTD/sodipodi-0.dtd"
   xmlns:inkscape="http://www.inkscape.org/namespaces/inkscape"
   version="1.1"
   width="36"
   height="12.000003"
   id="svg3122"
   inkscape:version="0.91+devel+osxmenu r12911"
   sodipodi:docname="dlr.london-underground.national-rail-12.svg"
   viewBox="0 0 36 12.000003">
  <sodipodi:namedview
     pagecolor="#ffffff"
     bordercolor="#666666"
     borderopacity="1"
     objecttolerance="10"
     gridtolerance="10"
     guidetolerance="10"
     inkscape:pageopacity="0"
     inkscape:pageshadow="2"
     inkscape:window-width="1920"
     inkscape:window-height="1031"
     id="namedview26"
     showgrid="true"
     inkscape:snap-bbox="true"
     fit-margin-top="0"
     fit-margin-left="0"
     fit-margin-right="0"
     fit-margin-bottom="0"
     inkscape:zoom="44.390591"
     inkscape:cx="16.752672"
     inkscape:cy="7.0319746"
     inkscape:window-x="0"
     inkscape:window-y="23"
     inkscape:window-maximized="0"
     inkscape:current-layer="svg3122"
     inkscape:document-units="px">
    <inkscape:grid
       type="xygrid"
       id="grid3003"
       empspacing="5"
       visible="true"
       enabled="true"
       snapvisiblegridlinesonly="true"
       originx="0px"
       originy="-1.4821312e-05px" />
  </sodipodi:namedview>
  <defs
     id="defs3124" />
  <metadata
     id="metadata3127">
    <rdf:RDF>
      <cc:Work
         rdf:about="">
        <dc:format>image/svg+xml</dc:format>
        <dc:type
           rdf:resource="http://purl.org/dc/dcmitype/StillImage" />
        <dc:title />
      </cc:Work>
    </rdf:RDF>
  </metadata>
  <g
     transform="matrix(0.49999931,0,0,0.49999931,0,-514.18036)"
     id="layer0">
    <path
       style="color:#000000;display:inline;overflow:visible;visibility:visible;fill:#9cc883;fill-opacity:1;fill-rule:nonzero;stroke:none;stroke-width:0.74999994;marker:none;enable-background:accumulate"
       d="M 6.1171875 2.0019531 A 3.9999945 3.9999945 0 0 0 2 6 A 3.9999945 3.9999945 0 0 0 10 6 A 3.9999945 3.9999945 0 0 0 6.1171875 2.0019531 z M 6.0722656 3.5019531 A 2.5000316 2.5000316 0 0 1 8.5 6 A 2.5000316 2.5000316 0 0 1 3.5 6 A 2.5000316 2.5000316 0 0 1 6.0722656 3.5019531 z "
       transform="matrix(2.0000028,0,0,2.0000028,0,1028.3621)"
       id="path4187" />
    <rect
       width="20.000004"
       height="4.0000005"
       rx="0.5"
       ry="0.49999994"
       x="2"
       y="1038.3622"
       id="rect4191"
       style="color:#000000;display:inline;overflow:visible;visibility:visible;fill:#3377a7;fill-opacity:1;fill-rule:nonzero;stroke:none;stroke-width:1.33333325;marker:none;enable-background:accumulate" />
  </g>
  <g
     transform="matrix(0.49999931,0,0,0.49999931,11.999984,-514.18036)"
     id="layer1">
    <path
       d="m 13,20 a 4,4 0 1 1 -8,0 4,4 0 1 1 8,0 z"
       transform="matrix(2,0,0,2,-6,1000.3622)"
       id="path3903"
       style="color:#000000;display:inline;overflow:visible;visibility:visible;fill:#e97474;fill-opacity:1;fill-rule:nonzero;stroke:none;stroke-width:0.74999994;marker:none;enable-background:accumulate"
       inkscape:connector-curvature="0" />
    <path
       d="m 13,20 a 4,4 0 1 1 -8,0 4,4 0 1 1 8,0 z"
       transform="matrix(1.2500175,0,0,1.2500175,0.749833,1015.3619)"
       id="path4034"
       style="color:#000000;display:inline;overflow:visible;visibility:visible;fill:#ffffff;fill-opacity:1;fill-rule:nonzero;stroke:none;stroke-width:0.74999994;marker:none;enable-background:accumulate"
       inkscape:connector-curvature="0" />
    <rect
       width="20.000004"
       height="4.0000005"
       rx="0.5"
       ry="0.49999994"
       x="2"
       y="1038.3622"
       id="rect3827-1-4"
       style="color:#000000;display:inline;overflow:visible;visibility:visible;fill:#3377a7;fill-opacity:1;fill-rule:nonzero;stroke:none;stroke-width:1.33333325;marker:none;enable-background:accumulate" />
  </g>
  <g
     transform="translate(24,-1040.3622)"
     id="layer1-9">
    <path
       style="color:#000000;display:inline;overflow:visible;visibility:visible;fill:#e97474;fill-opacity:1;fill-rule:nonzero;stroke:none;stroke-width:1.33333325;marker:none;enable-background:accumulate"
       d="M 26 2 C 25.446 2 25 2.446 25 3 L 25 4 L 30.666016 4 L 27.333984 2 L 26 2 z M 29.333984 2 L 32.666016 4 L 35 4 L 35 3 C 35 2.446 34.554 2 34 2 L 29.333984 2 z M 25 5 L 25 7 L 27.333984 7 L 30.666016 5 L 25 5 z M 32.666016 5 L 29.333984 7 L 35 7 L 35 5 L 32.666016 5 z M 25 8 L 25 9 C 25 9.554 25.446 10 26 10 L 30.666016 10 L 27.333984 8 L 25 8 z M 29.333984 8 L 32.666016 10 L 34 10 C 34.554 10 35 9.554 35 9 L 35 8 L 29.333984 8 z "
       transform="translate(-24,1040.3622)"
       id="rect3025" />
  </g>
</svg>
