<?xml version="1.0" encoding="UTF-8" standalone="no"?>
<!-- Created with Inkscape (http://www.inkscape.org/) -->

<svg
   xmlns:dc="http://purl.org/dc/elements/1.1/"
   xmlns:cc="http://creativecommons.org/ns#"
   xmlns:rdf="http://www.w3.org/1999/02/22-rdf-syntax-ns#"
   xmlns:svg="http://www.w3.org/2000/svg"
   xmlns="http://www.w3.org/2000/svg"
   xmlns:sodipodi="http://sodipodi.sourceforge.net/DTD/sodipodi-0.dtd"
   xmlns:inkscape="http://www.inkscape.org/namespaces/inkscape"
   version="1.1"
   width="24"
   height="12"
   id="svg3122"
   inkscape:version="0.91+devel+osxmenu r12911"
   sodipodi:docname="dlr.london-underground-12.svg"
   viewBox="0 0 24 12">
  <sodipodi:namedview
     pagecolor="#ffffff"
     bordercolor="#666666"
     borderopacity="1"
     objecttolerance="10"
     gridtolerance="10"
     guidetolerance="10"
     inkscape:pageopacity="0"
     inkscape:pageshadow="2"
     inkscape:window-width="1920"
     inkscape:window-height="1031"
     id="namedview19"
     showgrid="true"
     inkscape:snap-bbox="true"
     fit-margin-top="0"
     fit-margin-left="0"
     fit-margin-right="0"
     fit-margin-bottom="0"
     inkscape:zoom="21.458333"
     inkscape:cx="24"
     inkscape:cy="11.999981"
     inkscape:window-x="0"
     inkscape:window-y="23"
     inkscape:window-maximized="0"
     inkscape:current-layer="svg3122"
     inkscape:document-units="px">
    <inkscape:grid
       type="xygrid"
       id="grid2996"
       empspacing="5"
       visible="true"
       enabled="true"
       snapvisiblegridlinesonly="true"
       originx="0px"
       originy="-1.8691406e-05px" />
  </sodipodi:namedview>
  <defs
     id="defs3124" />
  <metadata
     id="metadata3127">
    <rdf:RDF>
      <cc:Work
         rdf:about="">
        <dc:format>image/svg+xml</dc:format>
        <dc:type
           rdf:resource="http://purl.org/dc/dcmitype/StillImage" />
        <dc:title />
      </cc:Work>
    </rdf:RDF>
  </metadata>
  <g
     transform="matrix(0.5,0,0,0.5,0,-514.18109)"
     id="layer0">
    <path
       style="color:#000000;display:inline;overflow:visible;visibility:visible;fill:#9cc883;fill-opacity:1;fill-rule:nonzero;stroke:none;stroke-width:0.74999994;marker:none;enable-background:accumulate"
       d="M 6.1171875 2.0019531 A 4 4 0 0 0 2 6 A 4 4 0 0 0 10 6 A 4 4 0 0 0 6.1171875 2.0019531 z M 6.0722656 3.5019531 A 2.5000352 2.5000352 0 0 1 8.5 6 A 2.5000352 2.5000352 0 0 1 3.5 6 A 2.5000352 2.5000352 0 0 1 6.0722656 3.5019531 z "
       transform="matrix(2,0,0,2,0,1028.3622)"
       id="path4187" />
    <rect
       width="20.000004"
       height="4.0000005"
       rx="0.5"
       ry="0.49999994"
       x="2"
       y="1038.3622"
       id="rect4191"
       style="color:#000000;display:inline;overflow:visible;visibility:visible;fill:#3377a7;fill-opacity:1;fill-rule:nonzero;stroke:none;stroke-width:1.33333325;marker:none;enable-background:accumulate" />
  </g>
  <g
     transform="matrix(0.5,0,0,0.5,12,-514.18109)"
     id="layer1">
    <path
       style="color:#000000;display:inline;overflow:visible;visibility:visible;fill:#e97474;fill-opacity:1;fill-rule:nonzero;stroke:none;stroke-width:0.74999994;marker:none;enable-background:accumulate"
       d="M 18.117188 2.0019531 A 4 4 0 0 0 14 6 A 4 4 0 0 0 22 6 A 4 4 0 0 0 18.117188 2.0019531 z M 18.072266 3.5019531 A 2.500035 2.500035 0 0 1 20.5 6 A 2.500035 2.500035 0 0 1 15.5 6 A 2.500035 2.500035 0 0 1 18.072266 3.5019531 z "
       transform="matrix(2,0,0,2,-24,1028.3622)"
       id="path3903" />
    <rect
       width="20.000004"
       height="4.0000005"
       rx="0.5"
       ry="0.49999994"
       x="2"
       y="1038.3622"
       id="rect3827-1-4"
       style="color:#000000;display:inline;overflow:visible;visibility:visible;fill:#3377a7;fill-opacity:1;fill-rule:nonzero;stroke:none;stroke-width:1.33333325;marker:none;enable-background:accumulate" />
  </g>
</svg>
