<?xml version="1.0" encoding="UTF-8" standalone="no"?>
<!-- Created with Inkscape (http://www.inkscape.org/) -->

<svg
   xmlns:dc="http://purl.org/dc/elements/1.1/"
   xmlns:cc="http://creativecommons.org/ns#"
   xmlns:rdf="http://www.w3.org/1999/02/22-rdf-syntax-ns#"
   xmlns:svg="http://www.w3.org/2000/svg"
   xmlns="http://www.w3.org/2000/svg"
   xmlns:sodipodi="http://sodipodi.sourceforge.net/DTD/sodipodi-0.dtd"
   xmlns:inkscape="http://www.inkscape.org/namespaces/inkscape"
   width="15"
   height="15"
   id="svg4619"
   version="1.1"
   inkscape:version="0.91+devel+osxmenu r12911"
   sodipodi:docname="entrance-17.svg"
   viewBox="0 0 14.999999 15">
  <defs
     id="defs4621" />
  <sodipodi:namedview
     id="base"
     pagecolor="#ffffff"
     bordercolor="#666666"
     borderopacity="1.0"
     inkscape:pageopacity="0.0"
     inkscape:pageshadow="2"
     inkscape:zoom="15.999999"
     inkscape:cx="17.327401"
     inkscape:cy="1.0943312"
     inkscape:document-units="px"
     inkscape:current-layer="layer1"
     showgrid="true"
     showguides="true"
     inkscape:guide-bbox="true"
     inkscape:window-width="1337"
     inkscape:window-height="947"
     inkscape:window-x="149"
     inkscape:window-y="23"
     inkscape:window-maximized="0"
     inkscape:snap-to-guides="false"
     inkscape:snap-nodes="true"
     inkscape:snap-grids="true"
     inkscape:snap-bbox="true"
     inkscape:bbox-paths="true"
     inkscape:bbox-nodes="true"
     fit-margin-top="0"
     fit-margin-left="0"
     fit-margin-right="0"
     fit-margin-bottom="0">
    <inkscape:grid
       type="xygrid"
       id="grid4627"
       empspacing="2"
       visible="true"
       enabled="true"
       snapvisiblegridlinesonly="true"
       color="#ff00ff"
       opacity="0.1254902"
       empcolor="#ff00ff"
       empopacity="0.25098039"
       originx="11.000141"
       originy="1.0001225" />
    <sodipodi:guide
       orientation="0,1"
       position="18.00014,19.000122"
       id="guide4659" />
    <sodipodi:guide
       orientation="1,0"
       position="29.00014,10.000123"
       id="guide4661" />
    <sodipodi:guide
       orientation="0,1"
       position="27.00014,18.000122"
       id="guide4663" />
    <sodipodi:guide
       orientation="1,0"
       position="28.00014,15.000122"
       id="guide4665" />
    <sodipodi:guide
       orientation="1,0"
       position="11.000141,17.000122"
       id="guide4667" />
    <sodipodi:guide
       orientation="0,1"
       position="19.00014,1.0001225"
       id="guide4669" />
    <sodipodi:guide
       orientation="1,0"
       position="13.00014,11.000123"
       id="guide4671" />
    <sodipodi:guide
       orientation="0,1"
       position="23.00014,3.0001224"
       id="guide4673" />
    <sodipodi:guide
       orientation="1,0"
       position="14.00014,16.000122"
       id="guide3017" />
    <sodipodi:guide
       orientation="0,1"
       position="20.00014,17.000122"
       id="guide3019" />
    <sodipodi:guide
       orientation="1,0"
       position="27.00014,14.500122"
       id="guide3021" />
    <sodipodi:guide
       orientation="0,1"
       position="17.50014,4.0001224"
       id="guide3023" />
  </sodipodi:namedview>
  <metadata
     id="metadata4624">
    <rdf:RDF>
      <cc:Work
         rdf:about="">
        <dc:format>image/svg+xml</dc:format>
        <dc:type
           rdf:resource="http://purl.org/dc/dcmitype/StillImage" />
        <dc:title></dc:title>
      </cc:Work>
    </rdf:RDF>
  </metadata>
  <g
     inkscape:label="Layer 1"
     inkscape:groupmode="layer"
     id="layer1"
     transform="translate(11.000141,-1038.3624)">
    <path
       sodipodi:nodetypes="ccccccccscccscc"
       id="path12782"
       d="m -10.000002,1040.3622 0,11 c 0,0 0,1 1.0000002,1 l 10.9999988,0 c 0,0 1,0 1,-1 l 0,-3 c 0,0 0,-1 -1,-1 l -2.999999,0 c 0,0 -2e-7,-2 -2e-7,-3 0,-1 -0.9999999,-1 -0.9999999,-1 l -2.9999998,0 -1e-7,-3 c 0,0 0,-1 -0.9999999,-1 l -2.9999999,0 c 0,0 -1.0000002,0 -1.0000002,1 z"
       style="opacity:1;fill:#9c8ea4;fill-opacity:1;stroke:#ffffff;stroke-width:2;stroke-linecap:round;stroke-linejoin:round;stroke-miterlimit:4;stroke-dasharray:none;stroke-dashoffset:0;stroke-opacity:1;marker:none"
       inkscape:connector-curvature="0" />
    <path
       inkscape:connector-curvature="0"
       style="opacity:1;fill:#9c8ea4;fill-opacity:1;stroke:none;stroke-width:2.63156748;stroke-linecap:round;stroke-linejoin:round;stroke-miterlimit:4;stroke-dasharray:none;stroke-dashoffset:0;stroke-opacity:1;marker:none"
       d="m -10.000002,1040.3622 0,11 c 0,0 0,1 1.0000002,1 l 10.9999988,0 c 0,0 1,0 1,-1 l 0,-3 c 0,0 0,-1 -1,-1 l -2.999999,0 c 0,0 -2e-7,-2 -2e-7,-3 0,-1 -0.9999999,-1 -0.9999999,-1 l -2.9999998,0 -1e-7,-3 c 0,0 0,-1 -0.9999999,-1 l -2.9999999,0 c 0,0 -1.0000002,0 -1.0000002,1 z"
       id="rect4696"
       sodipodi:nodetypes="ccccccccscccscc" />
  </g>
</svg>
