<?xml version="1.0" encoding="UTF-8" standalone="no"?>
<!-- Created with Inkscape (http://www.inkscape.org/) -->

<svg
   xmlns:dc="http://purl.org/dc/elements/1.1/"
   xmlns:cc="http://creativecommons.org/ns#"
   xmlns:rdf="http://www.w3.org/1999/02/22-rdf-syntax-ns#"
   xmlns:svg="http://www.w3.org/2000/svg"
   xmlns="http://www.w3.org/2000/svg"
   xmlns:sodipodi="http://sodipodi.sourceforge.net/DTD/sodipodi-0.dtd"
   xmlns:inkscape="http://www.inkscape.org/namespaces/inkscape"
   width="31"
   height="31"
   id="svg4619"
   version="1.1"
   inkscape:version="0.91+devel+osxmenu r12911"
   sodipodi:docname="light-17.svg"
   viewBox="0 0 31 31">
  <defs
     id="defs4621" />
  <sodipodi:namedview
     id="base"
     pagecolor="#ffffff"
     bordercolor="#666666"
     borderopacity="1.0"
     inkscape:pageopacity="0.0"
     inkscape:pageshadow="2"
     inkscape:zoom="11.313709"
     inkscape:cx="10.038319"
     inkscape:cy="14.035516"
     inkscape:document-units="px"
     inkscape:current-layer="layer1"
     showgrid="true"
     showguides="false"
     inkscape:guide-bbox="true"
     inkscape:window-width="959"
     inkscape:window-height="1025"
     inkscape:window-x="960"
     inkscape:window-y="23"
     inkscape:window-maximized="0"
     inkscape:snap-bbox="true"
     inkscape:snap-bbox-edge-midpoints="false"
     inkscape:bbox-paths="true"
     inkscape:bbox-nodes="true"
     fit-margin-top="0"
     fit-margin-left="0"
     fit-margin-right="0"
     fit-margin-bottom="0">
    <inkscape:grid
       type="xygrid"
       id="grid4627"
       empspacing="2"
       visible="true"
       enabled="true"
       snapvisiblegridlinesonly="true"
       color="#ff00ff"
       opacity="0.1254902"
       empcolor="#ff00ff"
       empopacity="0.25098039"
       originx="5.0000019"
       originy="4.9999836" />
    <sodipodi:guide
       orientation="0,1"
       position="12.000002,22.999984"
       id="guide4659" />
    <sodipodi:guide
       orientation="1,0"
       position="23.000002,13.999984"
       id="guide4661" />
    <sodipodi:guide
       orientation="0,1"
       position="21.000002,21.999984"
       id="guide4663" />
    <sodipodi:guide
       orientation="1,0"
       position="22.000002,18.999984"
       id="guide4665" />
    <sodipodi:guide
       orientation="1,0"
       position="5.0000019,20.999984"
       id="guide4667" />
    <sodipodi:guide
       orientation="0,1"
       position="13.000002,4.9999836"
       id="guide4669" />
    <sodipodi:guide
       orientation="1,0"
       position="7.0000019,14.999984"
       id="guide4671" />
    <sodipodi:guide
       orientation="0,1"
       position="17.000002,6.9999836"
       id="guide4673" />
    <sodipodi:guide
       orientation="0,1"
       position="17.000002,20.999984"
       id="guide3010" />
    <sodipodi:guide
       orientation="1,0"
       position="8.0000019,16.499984"
       id="guide3012" />
    <sodipodi:guide
       orientation="0,1"
       position="17.000002,7.9999836"
       id="guide3014" />
    <sodipodi:guide
       orientation="1,0"
       position="21.000002,13.499984"
       id="guide3016" />
    <sodipodi:guide
       orientation="1,0"
       position="14.500002,13.999984"
       id="guide3804" />
  </sodipodi:namedview>
  <metadata
     id="metadata4624">
    <rdf:RDF>
      <cc:Work
         rdf:about="">
        <dc:format>image/svg+xml</dc:format>
        <dc:type
           rdf:resource="http://purl.org/dc/dcmitype/StillImage" />
        <dc:title />
      </cc:Work>
    </rdf:RDF>
  </metadata>
  <g
     inkscape:label="Layer 1"
     inkscape:groupmode="layer"
     id="layer1"
     transform="translate(5.0000019,-1026.3622)">
    <rect
       style="opacity:1;fill:#9c8ea4;fill-opacity:1;stroke:none;stroke-width:2.63156796;stroke-linecap:round;stroke-linejoin:round;stroke-miterlimit:4;stroke-dasharray:none;stroke-dashoffset:0;stroke-opacity:1;marker:none"
       id="rect12407"
       width="26.999933"
       height="26.999933"
       x="-2.9999661"
       y="1028.3622"
       rx="1.9375539"
       ry="1.9375539" />
    <g
       id="g24360"
       transform="translate(2.384614,-2)">
      <path
         inkscape:connector-curvature="0"
         id="rect4041"
         d="m 6.1538464,1035.3622 0,1.3077 -0.6538461,0 c -1.0866923,0 -1.9615385,0.8748 -1.9615385,1.9615 l 0,6.5385 0,1.3077 c 0,1.0867 0.8748462,1.9615 1.9615385,1.9615 l 5.2307697,0 c 1.086692,0 1.961538,-0.8748 1.961538,-1.9615 l 0,-1.3077 0,-6.5385 c 0,-1.0867 -0.874846,-1.9615 -1.961538,-1.9615 l -0.653846,0 0,-1.3077 -3.9230776,0 z m 0,2.6154 3.9230776,0 c 0.723966,0 1.307692,0.5832 1.307692,1.3077 l 0,0.6538 0,0.3269 0,1.6347 -6.5384619,0 0,-1.6347 0,-0.3269 0,-0.6538 c 0,-0.7245 0.583726,-1.3077 1.3076923,-1.3077 z m -0.1634615,6.5384 a 1.1442308,1.1442308 0 0 1 1.1442308,1.1443 1.1442308,1.1442308 0 0 1 -1.1442308,1.1442 1.1442308,1.1442308 0 0 1 -1.1442308,-1.1442 1.1442308,1.1442308 0 0 1 1.1442308,-1.1443 z m 4.2500001,0 a 1.1442308,1.1442308 0 0 1 1.144231,1.1443 1.1442308,1.1442308 0 0 1 -1.144231,1.1442 1.1442308,1.1442308 0 0 1 -1.14423,-1.1442 1.1442308,1.1442308 0 0 1 1.14423,-1.1443 z m -5.3942309,5.2308 -2.6153846,1.3077 0,1.3077 2.6153846,0 1.3076923,-1.3077 0,-1.3077 -1.3076923,0 z m 5.2307699,0 0,1.3077 1.307691,1.3077 2.615385,0 0,-1.3077 -2.615385,-1.3077 -1.307691,0 z"
         style="fill:#ffffff;fill-opacity:1;stroke:none;stroke-width:1.30769229" />
    </g>
  </g>
</svg>
