<?xml version="1.0" encoding="UTF-8" standalone="no"?>
<!-- Created with Inkscape (http://www.inkscape.org/) -->

<svg
   xmlns:dc="http://purl.org/dc/elements/1.1/"
   xmlns:cc="http://creativecommons.org/ns#"
   xmlns:rdf="http://www.w3.org/1999/02/22-rdf-syntax-ns#"
   xmlns:svg="http://www.w3.org/2000/svg"
   xmlns="http://www.w3.org/2000/svg"
   xmlns:sodipodi="http://sodipodi.sourceforge.net/DTD/sodipodi-0.dtd"
   xmlns:inkscape="http://www.inkscape.org/namespaces/inkscape"
   width="23"
   height="23"
   id="svg4764"
   version="1.1"
   inkscape:version="0.91+devel+osxmenu r12911"
   sodipodi:docname="light-11.svg"
   viewBox="0 0 23 23">
  <defs
     id="defs4766" />
  <sodipodi:namedview
     id="base"
     pagecolor="#ffffff"
     bordercolor="#666666"
     borderopacity="1.0"
     inkscape:pageopacity="0.0"
     inkscape:pageshadow="2"
     inkscape:zoom="16"
     inkscape:cx="14.477799"
     inkscape:cy="11.216054"
     inkscape:document-units="px"
     inkscape:current-layer="layer1"
     showgrid="true"
     showguides="false"
     inkscape:guide-bbox="true"
     inkscape:window-width="960"
     inkscape:window-height="1025"
     inkscape:window-x="80"
     inkscape:window-y="23"
     inkscape:window-maximized="0"
     inkscape:snap-bbox="true"
     fit-margin-top="0"
     fit-margin-left="0"
     fit-margin-right="0"
     fit-margin-bottom="0"
     inkscape:object-paths="true"
     inkscape:bbox-paths="true"
     inkscape:bbox-nodes="true"
     inkscape:snap-nodes="true"
     inkscape:snap-bbox-edge-midpoints="true"
     inkscape:object-nodes="true">
    <inkscape:grid
       type="xygrid"
       id="grid4772"
       empspacing="2"
       visible="true"
       enabled="true"
       snapvisiblegridlinesonly="true"
       color="#ff00ff"
       opacity="0.1254902"
       empcolor="#ff00ff"
       empopacity="0.25098039"
       originx="3.0001584"
       originy="2.9999636" />
    <sodipodi:guide
       orientation="0,1"
       position="5.0001584,14.999964"
       id="guide4789" />
    <sodipodi:guide
       orientation="1,0"
       position="15.000159,12.999964"
       id="guide4791" />
    <sodipodi:guide
       orientation="0,1"
       position="13.000158,2.9999636"
       id="guide4793" />
    <sodipodi:guide
       orientation="1,0"
       position="3.0001584,11.999964"
       id="guide4795" />
    <sodipodi:guide
       orientation="0,1"
       position="8.0001584,13.999964"
       id="guide4797" />
    <sodipodi:guide
       orientation="1,0"
       position="14.000159,9.9999637"
       id="guide4799" />
    <sodipodi:guide
       orientation="0,1"
       position="12.000158,4.9999636"
       id="guide4801" />
    <sodipodi:guide
       orientation="1,0"
       position="5.0001584,7.9999637"
       id="guide4803" />
  </sodipodi:namedview>
  <metadata
     id="metadata4769">
    <rdf:RDF>
      <cc:Work
         rdf:about="">
        <dc:format>image/svg+xml</dc:format>
        <dc:type
           rdf:resource="http://purl.org/dc/dcmitype/StillImage" />
        <dc:title />
      </cc:Work>
    </rdf:RDF>
  </metadata>
  <g
     inkscape:label="Layer 1"
     inkscape:groupmode="layer"
     id="layer1"
     transform="translate(3.0001583,-1032.3622)">
    <rect
       style="opacity:1;fill:#9c8ea4;fill-opacity:1;stroke:none;stroke-width:2.63156796;stroke-linecap:round;stroke-linejoin:round;stroke-miterlimit:4;stroke-dasharray:none;stroke-dashoffset:0;stroke-opacity:1;marker:none"
       id="rect12407"
       width="19"
       height="19"
       x="-0.99999994"
       y="1034.4247"
       rx="1.9375538"
       ry="1.9375538" />
    <path
       style="fill:#ffffff;fill-opacity:1;stroke:none;stroke-width:1.22222221"
       d="m 7.2777779,1038.3622 0,0.6111 -0.6111111,0 c -0.6111111,0 -1.2222222,0.6111 -1.2222222,1.2222 l 0,5.5 c 0,0.6111 0.6111111,1.2223 1.2222222,1.2223 l 3.6666672,0 c 0.611111,0 1.222222,-0.6112 1.222222,-1.2223 l 0,-5.5 c 0,-0.6111 -0.611111,-1.2222 -1.222223,-1.2222 l -0.6111106,0 0,-0.6111 -2.4444445,0 z m 0.6111112,1.8333 1.2222222,0 c 0.6111111,0 1.2222227,0 1.2222227,0.6111 l 0,2.4445 -3.6666672,0 0,-2.4445 c 0,-0.6111 0.6111111,-0.6111 1.2222223,-0.6111 z m -0.4583334,3.9723 a 0.76388889,0.76388889 0 0 1 0.7638889,0.7638 0.76388889,0.76388889 0 0 1 -0.7638889,0.7639 0.76388889,0.76388889 0 0 1 -0.7638889,-0.7639 0.76388889,0.76388889 0 0 1 0.7638889,-0.7638 z m 2.1388889,0 a 0.76388889,0.76388889 0 0 1 0.7638894,0.7638 0.76388889,0.76388889 0 0 1 -0.7638894,0.7639 0.76388889,0.76388889 0 0 1 -0.7638889,-0.7639 0.76388889,0.76388889 0 0 1 0.7638889,-0.7638 z m -3.5138889,3.3611 -1.2222222,0.6111 0,1.2222 1.2222222,0 1.2222222,-1.2222 0,-0.6111 -1.2222222,0 z m 3.640408,0 0.026259,0.6111 1.2222223,1.2222 1.222221,0 0,-1.2222 -1.222221,-0.6111 -1.248481,0 z"
       id="path3108"
       inkscape:connector-curvature="0" />
  </g>
</svg>
