<?xml version="1.0" encoding="UTF-8" standalone="no"?>
<!-- Created with Inkscape (http://www.inkscape.org/) -->

<svg
   xmlns:dc="http://purl.org/dc/elements/1.1/"
   xmlns:cc="http://creativecommons.org/ns#"
   xmlns:rdf="http://www.w3.org/1999/02/22-rdf-syntax-ns#"
   xmlns:svg="http://www.w3.org/2000/svg"
   xmlns="http://www.w3.org/2000/svg"
   xmlns:sodipodi="http://sodipodi.sourceforge.net/DTD/sodipodi-0.dtd"
   xmlns:inkscape="http://www.inkscape.org/namespaces/inkscape"
   version="1.1"
   width="54"
   height="18"
   id="svg3122"
   inkscape:version="0.91+devel+osxmenu r12911"
   sodipodi:docname="london-overground.london-underground.national-rail-17.svg"
   viewBox="0 0 54 18">
  <sodipodi:namedview
     pagecolor="#ffffff"
     bordercolor="#666666"
     borderopacity="1"
     objecttolerance="10"
     gridtolerance="10"
     guidetolerance="10"
     inkscape:pageopacity="0"
     inkscape:pageshadow="2"
     inkscape:window-width="1441"
     inkscape:window-height="791"
     id="namedview15067"
     inkscape:document-units="px"
     showgrid="true"
     inkscape:zoom="15.556349"
     inkscape:cx="43.852781"
     inkscape:cy="5.4775498"
     inkscape:window-x="0"
     inkscape:window-y="23"
     inkscape:window-maximized="0"
     inkscape:current-layer="svg3122"
     inkscape:snap-bbox="true"
     inkscape:bbox-paths="true"
     inkscape:bbox-nodes="true">
    <inkscape:grid
       type="xygrid"
       id="grid13553" />
  </sodipodi:namedview>
  <defs
     id="defs3124" />
  <metadata
     id="metadata3127">
    <rdf:RDF>
      <cc:Work
         rdf:about="">
        <dc:format>image/svg+xml</dc:format>
        <dc:type
           rdf:resource="http://purl.org/dc/dcmitype/StillImage" />
        <dc:title />
      </cc:Work>
    </rdf:RDF>
  </metadata>
  <rect
     style="opacity:1;fill:#ffffff;fill-opacity:1;stroke:none;stroke-width:2.63156796;stroke-linecap:round;stroke-linejoin:round;stroke-miterlimit:4;stroke-dasharray:none;stroke-dashoffset:0;stroke-opacity:1;marker:none"
     id="rect13555"
     width="14"
     height="10"
     x="38"
     y="4"
     rx="1"
     ry="1" />
  <g
     transform="translate(0,-1034.3622)"
     id="layer0">
    <path
       d="m 9,1037.3622 c -3.313708,0 -6,2.6863 -6,6 0,3.3137 2.686292,6 6,6 3.313708,0 6,-2.6863 6,-6 0,-3.3137 -2.686292,-6 -6,-6 z m 0,2.5 c 1.932997,0 3.5,1.567 3.5,3.5 0,1.933 -1.567003,3.5 -3.5,3.5 -1.932997,0 -3.5,-1.567 -3.5,-3.5 0,-1.933 1.567003,-3.5 3.5,-3.5 z"
       inkscape:connector-curvature="0"
       id="path3878"
       style="color:#000000;display:inline;overflow:visible;visibility:visible;fill:#eea66f;fill-opacity:1;fill-rule:nonzero;stroke:none;stroke-width:0.99999994;marker:none;enable-background:accumulate" />
    <rect
       width="14"
       height="1.9999996"
       rx="0.5"
       ry="0.49999997"
       x="2"
       y="1042.3622"
       id="rect3882"
       style="color:#000000;display:inline;overflow:visible;visibility:visible;fill:#3377a7;fill-opacity:1;fill-rule:nonzero;stroke:none;stroke-width:1.33333325;marker:none;enable-background:accumulate" />
  </g>
  <g
     transform="translate(18,-1034.3622)"
     id="layer1">
    <path
       d="m 9,1037.3622 c -3.313708,0 -6,2.6863 -6,6 0,3.3137 2.686292,6 6,6 3.313708,0 6,-2.6863 6,-6 0,-3.3137 -2.686292,-6 -6,-6 z m 0,2.5 c 1.932997,0 3.5,1.567 3.5,3.5 0,1.933 -1.567003,3.5 -3.5,3.5 -1.932997,0 -3.5,-1.567 -3.5,-3.5 0,-1.933 1.567003,-3.5 3.5,-3.5 z"
       inkscape:connector-curvature="0"
       id="path3808"
       style="color:#000000;display:inline;overflow:visible;visibility:visible;fill:#e97474;fill-opacity:1;fill-rule:nonzero;stroke:none;stroke-width:0.99999994;marker:none;enable-background:accumulate" />
    <rect
       width="14"
       height="1.9999996"
       rx="0.5"
       ry="0.49999997"
       x="2"
       y="1042.3622"
       id="rect3827-1"
       style="color:#000000;display:inline;overflow:visible;visibility:visible;fill:#3377a7;fill-opacity:1;fill-rule:nonzero;stroke:none;stroke-width:1.33333325;marker:none;enable-background:accumulate" />
  </g>
  <g
     transform="translate(36,-1034.3622)"
     id="layer2">
    <path
       style="color:#000000;display:inline;overflow:visible;visibility:visible;fill:#e97474;fill-opacity:1;fill-rule:nonzero;stroke:none;stroke-width:1.33333325;marker:none;enable-background:accumulate"
       d="M 39 4 C 38.446 4 38 4.446 38 5 L 38 6.75 L 45.035156 6.75 L 41.5 4 L 39 4 z M 44 4 L 47.535156 6.75 L 52 6.75 L 52 5 C 52 4.446 51.554 4 51 4 L 44 4 z M 38 8 L 38 10 L 42.25 10 L 45.25 8 L 38 8 z M 47.75 8 L 44.75 10 L 52 10 L 52 8 L 47.75 8 z M 38 11.25 L 38 13 C 38 13.554 38.446 14 39 14 L 46 14 L 42.464844 11.25 L 38 11.25 z M 44.964844 11.25 L 48.5 14 L 51 14 C 51.554 14 52 13.554 52 13 L 52 11.25 L 44.964844 11.25 z "
       transform="translate(-36,1034.3622)"
       id="rect3025-0" />
  </g>
</svg>
