<?xml version="1.0" encoding="UTF-8" standalone="no"?>
<!-- Created with Inkscape (http://www.inkscape.org/) -->

<svg
   xmlns:dc="http://purl.org/dc/elements/1.1/"
   xmlns:cc="http://creativecommons.org/ns#"
   xmlns:rdf="http://www.w3.org/1999/02/22-rdf-syntax-ns#"
   xmlns:svg="http://www.w3.org/2000/svg"
   xmlns="http://www.w3.org/2000/svg"
   xmlns:sodipodi="http://sodipodi.sourceforge.net/DTD/sodipodi-0.dtd"
   xmlns:inkscape="http://www.inkscape.org/namespaces/inkscape"
   version="1.1"
   width="36"
   height="18"
   id="svg3122"
   inkscape:version="0.91+devel+osxmenu r12911"
   sodipodi:docname="london-underground.national-rail-18.svg"
   viewBox="0 0 36 18">
  <sodipodi:namedview
     pagecolor="#ffffff"
     bordercolor="#666666"
     borderopacity="1"
     objecttolerance="10"
     gridtolerance="10"
     guidetolerance="10"
     inkscape:pageopacity="0"
     inkscape:pageshadow="2"
     inkscape:window-width="1574"
     inkscape:window-height="735"
     id="namedview15168"
     inkscape:document-units="px"
     showgrid="false"
     inkscape:zoom="23.334524"
     inkscape:cx="23.760043"
     inkscape:cy="8.205543"
     inkscape:window-x="0"
     inkscape:window-y="23"
     inkscape:window-maximized="0"
     inkscape:current-layer="svg3122" />
  <defs
     id="defs3124" />
  <metadata
     id="metadata3127">
    <rdf:RDF>
      <cc:Work
         rdf:about="">
        <dc:format>image/svg+xml</dc:format>
        <dc:type
           rdf:resource="http://purl.org/dc/dcmitype/StillImage" />
        <dc:title />
      </cc:Work>
    </rdf:RDF>
  </metadata>
  <g
     transform="translate(0,-1034.3622)"
     id="layer0">
    <path
       d="m 9,1037.3622 c -3.313708,0 -6,2.6863 -6,6 0,3.3137 2.686292,6 6,6 3.313708,0 6,-2.6863 6,-6 0,-3.3137 -2.686292,-6 -6,-6 z m 0,2.5 c 1.932997,0 3.5,1.567 3.5,3.5 0,1.933 -1.567003,3.5 -3.5,3.5 -1.932997,0 -3.5,-1.567 -3.5,-3.5 0,-1.933 1.567003,-3.5 3.5,-3.5 z"
       inkscape:connector-curvature="0"
       id="path3808"
       style="color:#000000;display:inline;overflow:visible;visibility:visible;fill:#e97474;fill-opacity:1;fill-rule:nonzero;stroke:none;stroke-width:0.99999994;marker:none;enable-background:accumulate" />
    <rect
       width="14"
       height="1.9999996"
       rx="0.5"
       ry="0.49999997"
       x="2"
       y="1042.3622"
       id="rect3827-1"
       style="color:#000000;display:inline;overflow:visible;visibility:visible;fill:#3377a7;fill-opacity:1;fill-rule:nonzero;stroke:none;stroke-width:1.33333325;marker:none;enable-background:accumulate" />
  </g>
  <g
     transform="translate(18,-1034.3622)"
     id="layer1">
    <path
       style="color:#000000;display:inline;overflow:visible;visibility:visible;fill:#e97474;fill-opacity:1;fill-rule:nonzero;stroke:none;stroke-width:1.33333325;marker:none;enable-background:accumulate"
       d="M 21 4 C 20.446 4 20 4.446 20 5 L 20 6.75 L 27.035156 6.75 L 23.5 4 L 21 4 z M 26 4 L 29.535156 6.75 L 34 6.75 L 34 5 C 34 4.446 33.554 4 33 4 L 26 4 z M 20 8 L 20 10 L 24.25 10 L 27.25 8 L 20 8 z M 29.75 8 L 26.75 10 L 34 10 L 34 8 L 29.75 8 z M 20 11.25 L 20 13 C 20 13.554 20.446 14 21 14 L 28 14 L 24.464844 11.25 L 20 11.25 z M 26.964844 11.25 L 30.5 14 L 33 14 C 33.554 14 34 13.554 34 13 L 34 11.25 L 26.964844 11.25 z "
       transform="translate(-18,1034.3622)"
       id="rect3025-0" />
  </g>
</svg>
