<?xml version="1.0" encoding="UTF-8" standalone="no"?>
<!-- Generator: Adobe Illustrator 13.0.0, SVG Export Plug-In . SVG Version: 6.00 Build 14948)  -->

<svg
   xmlns:dc="http://purl.org/dc/elements/1.1/"
   xmlns:cc="http://creativecommons.org/ns#"
   xmlns:rdf="http://www.w3.org/1999/02/22-rdf-syntax-ns#"
   xmlns:svg="http://www.w3.org/2000/svg"
   xmlns="http://www.w3.org/2000/svg"
   xmlns:sodipodi="http://sodipodi.sourceforge.net/DTD/sodipodi-0.dtd"
   xmlns:inkscape="http://www.inkscape.org/namespaces/inkscape"
   version="1.1"
   id="Layer_1"
   x="0px"
   y="0px"
   width="12"
   height="12"
   viewBox="0 0 12 12"
   enable-background="new 0 0 400 400"
   xml:space="preserve"
   sodipodi:version="0.32"
   inkscape:version="0.91+devel+osxmenu r12911"
   sodipodi:docname="metro-12.svg"
   inkscape:output_extension="org.inkscape.output.svg.inkscape"><metadata
     id="metadata8"><rdf:RDF><cc:Work
         rdf:about=""><dc:format>image/svg+xml</dc:format><dc:type
           rdf:resource="http://purl.org/dc/dcmitype/StillImage" /><dc:title /></cc:Work></rdf:RDF></metadata><defs
     id="defs6"><inkscape:perspective
       sodipodi:type="inkscape:persp3d"
       inkscape:vp_x="0 : 200 : 1"
       inkscape:vp_y="0 : 1000 : 0"
       inkscape:vp_z="400 : 200 : 1"
       inkscape:persp3d-origin="200 : 133.33333 : 1"
       id="perspective10" /></defs><sodipodi:namedview
     inkscape:window-height="651"
     inkscape:window-width="1166"
     inkscape:pageshadow="2"
     inkscape:pageopacity="0.0"
     guidetolerance="10.0"
     gridtolerance="10.0"
     objecttolerance="10.0"
     borderopacity="1.0"
     bordercolor="#666666"
     pagecolor="#ffffff"
     id="base"
     showgrid="false"
     inkscape:zoom="32"
     inkscape:cx="8.0875104"
     inkscape:cy="5.4153143"
     inkscape:window-x="661"
     inkscape:window-y="136"
     inkscape:current-layer="Layer_1"
     inkscape:window-maximized="0"><inkscape:grid
       type="xygrid"
       id="grid3142"
       empspacing="2"
       visible="true"
       enabled="true"
       snapvisiblegridlinesonly="true" /></sodipodi:namedview><g
     id="g3807"><path
       style="fill:#3377a7;fill-opacity:1;display:inline"
       d="M 6.0117188 1 C 3.2491557 1 1 3.2504622 1 6.0253906 C 1 8.7751762 3.2491557 11 6.0117188 11 C 8.7742806 11 11 8.7875334 11 6.0253906 C 11 3.2504622 8.6742556 1 6.0117188 1 z M 6 2 A 4 4 0 0 1 10 6 A 4 4 0 0 1 6 10 A 4 4 0 0 1 2 6 A 4 4 0 0 1 6 2 z M 4 3.5 L 4 8.5 L 5 8.5 L 5 6 L 5.5 6.5 L 5.5 7.5 L 6.5 7.5 L 6.5 6.5 L 7 6 L 7 8.5 L 8 8.5 L 8 3.5 L 7.5 3.5 L 7 4 L 6.5 4.5 L 6 5.5 L 5.5 4.5 L 5 4 L 4.5 3.5 L 4 3.5 z "
       id="path3076" /></g></svg>