<?xml version="1.0" encoding="UTF-8" standalone="no"?>
<!-- Created with Inkscape (http://www.inkscape.org/) -->

<svg
   xmlns:dc="http://purl.org/dc/elements/1.1/"
   xmlns:cc="http://creativecommons.org/ns#"
   xmlns:rdf="http://www.w3.org/1999/02/22-rdf-syntax-ns#"
   xmlns:svg="http://www.w3.org/2000/svg"
   xmlns="http://www.w3.org/2000/svg"
   xmlns:sodipodi="http://sodipodi.sourceforge.net/DTD/sodipodi-0.dtd"
   xmlns:inkscape="http://www.inkscape.org/namespaces/inkscape"
   width="36"
   height="18"
   id="svg3241"
   version="1.1"
   inkscape:version="0.91+devel+osxmenu r12911"
   sodipodi:docname="metro.rer-17.svg"
   viewBox="0 0 36 18">
  <defs
     id="defs3243" />
  <sodipodi:namedview
     id="base"
     pagecolor="#ffffff"
     bordercolor="#666666"
     borderopacity="1.0"
     inkscape:pageopacity="0.0"
     inkscape:pageshadow="2"
     inkscape:zoom="16"
     inkscape:cx="19.705827"
     inkscape:cy="11.020833"
     inkscape:document-units="px"
     inkscape:current-layer="layer1"
     showgrid="true"
     inkscape:window-width="1679"
     inkscape:window-height="828"
     inkscape:window-x="248"
     inkscape:window-y="45"
     inkscape:window-maximized="0">
    <inkscape:grid
       type="xygrid"
       id="grid3249"
       empspacing="2"
       visible="true"
       enabled="true"
       snapvisiblegridlinesonly="true" />
  </sodipodi:namedview>
  <metadata
     id="metadata3246">
    <rdf:RDF>
      <cc:Work
         rdf:about="">
        <dc:format>image/svg+xml</dc:format>
        <dc:type
           rdf:resource="http://purl.org/dc/dcmitype/StillImage" />
        <dc:title />
      </cc:Work>
    </rdf:RDF>
  </metadata>
  <g
     inkscape:label="Layer 1"
     inkscape:groupmode="layer"
     id="layer1"
     transform="translate(0,-1034.3622)">
    <circle
       r="6"
       cy="1043.3622"
       cx="26"
       id="circle32961"
       style="opacity:1;fill:#ffffff;fill-opacity:1;stroke:none;stroke-width:2.4000001;stroke-linecap:round;stroke-linejoin:round;stroke-miterlimit:4;stroke-dasharray:none;stroke-dashoffset:0;stroke-opacity:1;marker:none" />
    <circle
       style="opacity:1;fill:#ffffff;fill-opacity:1;stroke:none;stroke-width:2.4000001;stroke-linecap:round;stroke-linejoin:round;stroke-miterlimit:4;stroke-dasharray:none;stroke-dashoffset:0;stroke-opacity:1;marker:none"
       id="path32959"
       cx="10"
       cy="1043.3622"
       r="6" />
    <g
       id="g3870">
      <g
         id="g3103"
         style="display:inline"
         transform="translate(1,1034.3622)">
        <path
           sodipodi:nodetypes="ccccccccccccccccc"
           inkscape:connector-curvature="0"
           style="fill:#14489e;fill-opacity:1"
           id="path3080-3"
           d="M 12.5,12 12.5,6 12,5 11,5 9,9 9,9 7,5 6,5 5.5,6 l 0,6 1.5,1 0,-5 1.5,3 1,0 1.5,-3 0,5 z" />
      </g>
      <path
         style="display:inline;fill:#3377a7;fill-opacity:1"
         d="M 10.017578 2 C 6.1499902 2 3 5.1502562 3 9.0351562 C 3 12.884856 6.1499902 16 10.017578 16 C 13.885165 16 17 12.902156 17 9.0351562 C 17 5.1502562 13.74513 2 10.017578 2 z M 10 3 A 5.9999999 6 0 0 1 16 9 A 5.9999999 6 0 0 1 10 15 A 5.9999999 6 0 0 1 4 9 A 5.9999999 6 0 0 1 10 3 z M 7 5 L 6.5 6 L 6.5 12 L 8 13 L 8 8 L 9.5 11 L 10.5 11 L 12 8 L 12 13 L 13.5 12 L 13.5 6 L 13 5 L 12 5 L 10 9 L 8 5 L 7 5 z "
         transform="translate(0,1034.3622)"
         id="path3021" />
      <g
         transform="translate(17,1034.3622)"
         id="g2996">
        <path
           style="fill:#3377a7;fill-opacity:1"
           d="M 26.017578 1.9648438 C 22.149817 1.9648438 19 5.1150693 19 9 C 19 12.831918 22.149817 15.964844 26.017578 15.964844 C 29.884777 15.964844 33 12.866918 33 9 C 33 5.1150693 29.744284 1.9648437 26.017578 1.9648438 z M 26.017578 3 C 29.303612 3 32 5.743485 32 9.0429688 C 32 12.307962 29.303612 15 26.017578 15 C 22.712842 15 20 12.325101 20 9.0429688 C 20 5.7266247 22.712842 3 26.017578 3 z M 21.9375 6 L 21.9375 6.0625 L 21 7 L 21 11 L 22 12 L 22 10 L 23 11.5 L 23 12 L 24.5 12 L 24.5 11.5 L 23 9 L 24.5 9 L 24.5 8 L 24.5 6 L 21.9375 6 z M 25 6 L 25 12.03125 L 27.5 12.03125 L 27.5 11 L 26 11 L 26 9.5 L 27.5 9.5 L 27.5 8 L 26 8 L 26 7 L 27.5 7 L 27.5 6 L 25 6 z M 28 6 L 28 12 L 29 12 L 29 10 L 30 10.53125 L 30 12 L 31 11 L 31 10 L 30 9 L 31 9 L 31 7 L 30 6 L 29 6 L 28 6 z M 22.5 7 L 23.5 7 L 23 8.5 L 22 8.5 L 22.5 7 z M 29 7 L 30 7 L 30 8 L 29 8.5 L 29 7 z "
           transform="translate(-17)"
           id="path3324" />
      </g>
    </g>
  </g>
</svg>
