<?xml version="1.0" encoding="UTF-8" standalone="no"?>
<svg
   xmlns:dc="http://purl.org/dc/elements/1.1/"
   xmlns:cc="http://creativecommons.org/ns#"
   xmlns:rdf="http://www.w3.org/1999/02/22-rdf-syntax-ns#"
   xmlns:svg="http://www.w3.org/2000/svg"
   xmlns="http://www.w3.org/2000/svg"
   xmlns:sodipodi="http://sodipodi.sourceforge.net/DTD/sodipodi-0.dtd"
   xmlns:inkscape="http://www.inkscape.org/namespaces/inkscape"
   width="15"
   height="15"
   viewBox="0 40 15 15"
   id="svg3253"
   version="1.1"
   inkscape:version="0.91 r13725"
   sodipodi:docname="moscow-metro-17.svg">
  <metadata
     id="metadata3263">
    <rdf:RDF>
      <cc:Work
         rdf:about="">
        <dc:format>image/svg+xml</dc:format>
        <dc:type
           rdf:resource="http://purl.org/dc/dcmitype/StillImage" />
        <dc:title></dc:title>
      </cc:Work>
    </rdf:RDF>
  </metadata>
  <defs
     id="defs3261" />
  <sodipodi:namedview
     pagecolor="#ffffff"
     bordercolor="#666666"
     borderopacity="1"
     objecttolerance="10"
     gridtolerance="10"
     guidetolerance="10"
     inkscape:pageopacity="0"
     inkscape:pageshadow="2"
     inkscape:window-width="879"
     inkscape:window-height="768"
     id="namedview3259"
     showgrid="false"
     inkscape:zoom="31.894628"
     inkscape:cx="4.8177071"
     inkscape:cy="8.5762605"
     inkscape:window-x="-3"
     inkscape:window-y="0"
     inkscape:window-maximized="0"
     inkscape:current-layer="svg3253"
     inkscape:snap-nodes="true"
     inkscape:snap-bbox="true"
     inkscape:bbox-paths="true"
     inkscape:bbox-nodes="true"
     inkscape:snap-bbox-edge-midpoints="true"
     inkscape:object-paths="true"
     inkscape:snap-intersection-paths="true"
     inkscape:object-nodes="true"
     inkscape:snap-smooth-nodes="true">
    <inkscape:grid
       type="xygrid"
       id="grid3265"
       empspacing="2"
       visible="true"
       enabled="true"
       snapvisiblegridlinesonly="true"
       spacingx="0.5"
       spacingy="0.5"
       color="#ff0000"
       opacity="0.1254902" />
  </sodipodi:namedview>
  <g
     id="g3008"
     transform="translate(-1.5,-1)">
    <path
       id="path38567"
       transform="translate(0,40)"
       d="m 9,3.9902344 c 3.251739,0 6.009817,3.1369456 6.009766,6.5097656 0,1.227408 -0.381437,2.058424 -0.619141,2.509766 l -10.8007812,0 C 3.3580377,12.600084 2.9902344,11.831833 2.9902344,10.5 2.9902344,7.127119 5.7482213,3.9902344 9,3.9902344 Z"
       style="fill:#ffffff;fill-opacity:1"
       inkscape:connector-curvature="0"
       sodipodi:nodetypes="scccss" />
    <path
       style="fill:#3377a7;fill-opacity:1"
       d="M 9,3 C 5.1339817,3 2,6.5989711 2,10.501953 2,12.618263 3,14 3,14 l 12,0 c 0,0 1,-1.509285 1,-3.498047 C 16.00006,6.5990031 12.865989,3 9,3 Z m 0,0.9902344 c 3.251739,0 6.009817,3.1369456 6.009766,6.5097656 0,1.227408 -0.381437,2.058424 -0.619141,2.509766 l -10.8007812,0 C 3.3580377,12.600084 2.9902344,11.831833 2.9902344,10.5 2.9902344,7.127119 5.7482213,3.9902344 9,3.9902344 Z"
       transform="translate(0,40)"
       id="path3255"
       inkscape:connector-curvature="0" />
    <path
       sodipodi:nodetypes="ccccccccccccccccccc"
       style="fill:#e97474;fill-opacity:1"
       inkscape:connector-curvature="0"
       id="path3257"
       d="M 13,51 11,45 9,48.5 7,45 l -2,6 -1,0 0,1 4,0 0,-1 -1.5,0 1,-2.5 1.5,3 1.5,-3 1,2.5 -1.5,0 0,1 4,0 0,-1 z" />
  </g>
</svg>
