<?xml version="1.0" encoding="UTF-8" standalone="no"?>
<svg
   xmlns:dc="http://purl.org/dc/elements/1.1/"
   xmlns:cc="http://creativecommons.org/ns#"
   xmlns:rdf="http://www.w3.org/1999/02/22-rdf-syntax-ns#"
   xmlns:svg="http://www.w3.org/2000/svg"
   xmlns="http://www.w3.org/2000/svg"
   xmlns:sodipodi="http://sodipodi.sourceforge.net/DTD/sodipodi-0.dtd"
   xmlns:inkscape="http://www.inkscape.org/namespaces/inkscape"
   width="11"
   height="12"
   viewBox="0 40 11 12"
   id="svg3253"
   version="1.1"
   inkscape:version="0.91 r13725"
   sodipodi:docname="moscow-metro-11.svg">
  <metadata
     id="metadata3263">
    <rdf:RDF>
      <cc:Work
         rdf:about="">
        <dc:format>image/svg+xml</dc:format>
        <dc:type
           rdf:resource="http://purl.org/dc/dcmitype/StillImage" />
        <dc:title></dc:title>
      </cc:Work>
    </rdf:RDF>
  </metadata>
  <defs
     id="defs3261" />
  <sodipodi:namedview
     pagecolor="#ffffff"
     bordercolor="#666666"
     borderopacity="1"
     objecttolerance="10"
     gridtolerance="10"
     guidetolerance="10"
     inkscape:pageopacity="0"
     inkscape:pageshadow="2"
     inkscape:window-width="861"
     inkscape:window-height="758"
     id="namedview3259"
     showgrid="true"
     inkscape:zoom="45.254834"
     inkscape:cx="3.3100529"
     inkscape:cy="6.9551942"
     inkscape:window-x="5"
     inkscape:window-y="0"
     inkscape:window-maximized="0"
     inkscape:current-layer="svg3253"
     inkscape:snap-bbox="true"
     inkscape:bbox-paths="true"
     inkscape:bbox-nodes="true"
     inkscape:snap-bbox-edge-midpoints="true"
     inkscape:object-paths="true"
     inkscape:snap-intersection-paths="true"
     inkscape:object-nodes="true"
     inkscape:snap-smooth-nodes="true">
    <inkscape:grid
       type="xygrid"
       id="grid3265"
       empspacing="2"
       visible="true"
       enabled="true"
       snapvisiblegridlinesonly="true"
       spacingx="0.5"
       spacingy="0.5"
       color="#ff0000"
       opacity="0.1254902" />
  </sodipodi:namedview>
  <path
     id="path38532"
     d="m 6,43.009766 c 2.0998527,0 3.990269,2.243308 3.9902344,4.490234 0,0.829735 -0.2735943,1.210496 -0.4238282,1.490234 l -7.1464843,0 C 2.2797153,48.755256 2.0097656,48.431284 2.0097656,47.5 2.0097656,45.253021 3.9001169,43.009766 6,43.009766 Z"
     style="fill:#ffffff;fill-opacity:1"
     inkscape:connector-curvature="0"
     sodipodi:nodetypes="scccss" />
  <g
     id="g3337"
     transform="translate(-0.5,0)">
    <path
       inkscape:connector-curvature="0"
       id="path3025"
       d="M 6,42 C 3.238559,42 1,44.714109 1,47.501953 1,49.013603 1.7148438,50 1.7148438,50 l 8.5703122,0 C 10.285156,50 11,48.922497 11,47.501953 11.000043,44.714132 8.761421,42 6,42 Z m 0,1.009766 c 2.0998527,0 3.990269,2.243308 3.9902344,4.490234 0,0.829735 -0.2735943,1.210496 -0.4238282,1.490234 l -7.1464843,0 C 2.2797153,48.755256 2.0097656,48.431284 2.0097656,47.5 2.0097656,45.253021 3.9001169,43.009766 6,43.009766 Z"
       style="fill:#3377a7;fill-opacity:1" />
    <path
       d="M 9.5,48.5 7.5,44 7,44 6,46.071428 5,44 l -0.5,0 -2,4.5 c 0.6851572,0 1.0683322,0 1.5,0 l 0.5,-2 0.5,0 0.5,2 1,0 0.5,-2 0.5,0 0.5,2 c 0.5380057,0 0.8759528,0 1.5,0 z"
       id="path3029"
       inkscape:connector-curvature="0"
       style="fill:#e97474;fill-opacity:1"
       sodipodi:nodetypes="cccccccccccccccc" />
  </g>
  <path
     inkscape:connector-curvature="0"
     style="fill:#ffffff;fill-opacity:0;stroke:none"
     d="m 0,40 12,0 0,12 -12,0 z"
     id="rect3010" />
</svg>
