<?xml version="1.0" encoding="UTF-8" standalone="no"?>
<!-- Created with Inkscape (http://www.inkscape.org/) -->

<svg
   xmlns:dc="http://purl.org/dc/elements/1.1/"
   xmlns:cc="http://creativecommons.org/ns#"
   xmlns:rdf="http://www.w3.org/1999/02/22-rdf-syntax-ns#"
   xmlns:svg="http://www.w3.org/2000/svg"
   xmlns="http://www.w3.org/2000/svg"
   xmlns:sodipodi="http://sodipodi.sourceforge.net/DTD/sodipodi-0.dtd"
   xmlns:inkscape="http://www.inkscape.org/namespaces/inkscape"
   version="1.1"
   width="15"
   height="15"
   id="svg3122"
   inkscape:version="0.91 r13725"
   sodipodi:docname="national-rail-15.svg"
   viewBox="0 0 15 15">
  <sodipodi:namedview
     pagecolor="#ffffff"
     bordercolor="#666666"
     borderopacity="1"
     objecttolerance="10"
     gridtolerance="10"
     guidetolerance="10"
     inkscape:pageopacity="0"
     inkscape:pageshadow="2"
     inkscape:window-width="1001"
     inkscape:window-height="668"
     id="namedview15296"
     inkscape:document-units="px"
     showgrid="false"
     inkscape:zoom="37.083822"
     inkscape:cx="6.4975464"
     inkscape:cy="7.7043295"
     inkscape:window-x="1"
     inkscape:window-y="0"
     inkscape:window-maximized="0"
     inkscape:current-layer="svg3122"
     inkscape:snap-bbox="true"
     inkscape:bbox-paths="true"
     inkscape:bbox-nodes="true"
     inkscape:object-paths="true"
     inkscape:object-nodes="true"
     inkscape:snap-intersection-paths="true"
     inkscape:snap-smooth-nodes="true"
     inkscape:snap-bbox-edge-midpoints="true">
    <inkscape:grid
       type="xygrid"
       id="grid16927"
       spacingx="0.5"
       spacingy="0.5"
       color="#ff0000"
       opacity="0.1254902"
       empspacing="2" />
  </sodipodi:namedview>
  <defs
     id="defs3124" />
  <metadata
     id="metadata3127">
    <rdf:RDF>
      <cc:Work
         rdf:about="">
        <dc:format>image/svg+xml</dc:format>
        <dc:type
           rdf:resource="http://purl.org/dc/dcmitype/StillImage" />
        <dc:title></dc:title>
      </cc:Work>
    </rdf:RDF>
  </metadata>
  <g
     transform="translate(-1.5,-1036.3622)"
     id="layer1">
    <path
       style="color:#000000;display:inline;overflow:visible;visibility:visible;fill:#e97474;fill-opacity:1;fill-rule:nonzero;stroke:none;stroke-width:1.33333325;marker:none;enable-background:accumulate"
       d="M 3,4 C 2.446,4 2,4.446 2,5 l 0,1.75 7.0351562,0 L 5.5,4 3,4 Z M 8,4 11.535156,6.75 16,6.75 16,5 C 16,4.446 15.554,4 15,4 L 8,4 Z m -6,4 0,2 4.25,0 3,-2 L 2,8 Z m 9.75,0 -3,2 7.25,0 0,-2 -4.25,0 z M 2,11.25 2,13 c 0,0.554 0.446,1 1,1 L 10,14 6.4648438,11.25 2,11.25 Z m 6.9648438,0 L 12.5,14 15,14 c 0.554,0 1,-0.446 1,-1 l 0,-1.75 -7.0351562,0 z"
       transform="translate(0,1034.3622)"
       id="rect3025-0"
       inkscape:connector-curvature="0" />
  </g>
</svg>
