<?xml version="1.0" encoding="UTF-8" standalone="no"?>
<!-- Created with Inkscape (http://www.inkscape.org/) -->

<svg
   xmlns:dc="http://purl.org/dc/elements/1.1/"
   xmlns:cc="http://creativecommons.org/ns#"
   xmlns:rdf="http://www.w3.org/1999/02/22-rdf-syntax-ns#"
   xmlns:svg="http://www.w3.org/2000/svg"
   xmlns="http://www.w3.org/2000/svg"
   xmlns:sodipodi="http://sodipodi.sourceforge.net/DTD/sodipodi-0.dtd"
   xmlns:inkscape="http://www.inkscape.org/namespaces/inkscape"
   width="21"
   height="21"
   id="svg4764"
   version="1.1"
   inkscape:version="0.91+devel+osxmenu r12911"
   sodipodi:docname="rail-11.svg"
   viewBox="0 0 21 21">
  <defs
     id="defs4766" />
  <sodipodi:namedview
     id="base"
     pagecolor="#ffffff"
     bordercolor="#666666"
     borderopacity="1.0"
     inkscape:pageopacity="0.0"
     inkscape:pageshadow="2"
     inkscape:zoom="16"
     inkscape:cx="4.293393"
     inkscape:cy="4.039263"
     inkscape:document-units="px"
     inkscape:current-layer="layer1"
     showgrid="true"
     showguides="false"
     inkscape:guide-bbox="true"
     inkscape:window-width="960"
     inkscape:window-height="1025"
     inkscape:window-x="273"
     inkscape:window-y="23"
     inkscape:window-maximized="0"
     inkscape:snap-bbox="true"
     fit-margin-top="0"
     fit-margin-left="0"
     fit-margin-right="0"
     fit-margin-bottom="0"
     inkscape:bbox-paths="true"
     inkscape:bbox-nodes="true">
    <inkscape:grid
       type="xygrid"
       id="grid4772"
       empspacing="2"
       visible="true"
       enabled="true"
       snapvisiblegridlinesonly="true"
       color="#ff00ff"
       opacity="0.1254902"
       empcolor="#ff00ff"
       empopacity="0.25098039"
       originx="3.0001584"
       originy="2.9999636" />
    <sodipodi:guide
       orientation="0,1"
       position="5.0001584,14.999964"
       id="guide4789" />
    <sodipodi:guide
       orientation="1,0"
       position="15.000159,12.999964"
       id="guide4791" />
    <sodipodi:guide
       orientation="0,1"
       position="13.000158,2.9999636"
       id="guide4793" />
    <sodipodi:guide
       orientation="1,0"
       position="3.0001584,11.999964"
       id="guide4795" />
    <sodipodi:guide
       orientation="0,1"
       position="8.0001584,13.999964"
       id="guide4797" />
    <sodipodi:guide
       orientation="1,0"
       position="14.000159,9.9999637"
       id="guide4799" />
    <sodipodi:guide
       orientation="0,1"
       position="12.000158,4.9999636"
       id="guide4801" />
    <sodipodi:guide
       orientation="1,0"
       position="5.0001584,7.9999637"
       id="guide4803" />
  </sodipodi:namedview>
  <metadata
     id="metadata4769">
    <rdf:RDF>
      <cc:Work
         rdf:about="">
        <dc:format>image/svg+xml</dc:format>
        <dc:type
           rdf:resource="http://purl.org/dc/dcmitype/StillImage" />
        <dc:title />
      </cc:Work>
    </rdf:RDF>
  </metadata>
  <g
     inkscape:label="Layer 1"
     inkscape:groupmode="layer"
     id="layer1"
     transform="translate(3.0001583,-1034.3622)">
    <rect
       style="opacity:1;fill:#9c8ea4;fill-opacity:1;stroke:none;stroke-width:2.63156796;stroke-linecap:round;stroke-linejoin:round;stroke-miterlimit:4;stroke-dasharray:none;stroke-dashoffset:0;stroke-opacity:1;marker:none"
       id="rect5327"
       width="17"
       height="16.999966"
       x="-1.0001572"
       y="1036.3622"
       rx="1.9999659"
       ry="1.9999659" />
    <g
       id="g14137"
       transform="translate(11.999842,1039.3622)"
       style="fill:#ffffff;fill-opacity:1">
      <path
         inkscape:connector-curvature="0"
         style="fill:#ffffff;fill-opacity:1;fill-rule:evenodd;stroke:none;stroke-width:1px;stroke-linecap:butt;stroke-linejoin:miter;stroke-opacity:1"
         d="M 3,0 C 3,0 2,0 2,1 L 2,6 C 2,7 3,7 3,7 L 5.5,7 8,7 C 8,7 9,7 9,6 L 9,1 C 9,1 9,0 8,0 L 3,0 Z M 3.5,1 5,1 5,4 3.5,4 C 3.223,4 3,3.777 3,3.5 l 0,-2 C 3,1.223 3.223,1 3.5,1 Z M 6,1 7.5,1 C 7.777,1 8,1.223 8,1.5 l 0,2 C 8,3.777 7.777,4 7.5,4 L 6,4 6,1 Z M 3.5,5 A 0.5,0.5 0 0 1 4,5.5 0.5,0.5 0 0 1 3.5,6 0.5,0.5 0 0 1 3,5.5 0.5,0.5 0 0 1 3.5,5 Z m 4,0 A 0.5,0.5 0 0 1 8,5.5 0.5,0.5 0 0 1 7.5,6 0.5,0.5 0 0 1 7,5.5 0.5,0.5 0 0 1 7.5,5 Z M 3,8 2,11 3.5,11 3.8339844,10 7.1660156,10 7.5,11 9,11 8,8 6.5,8 6.8339844,9 4.1660156,9 4.5,8 3,8 Z"
         transform="translate(-10)"
         id="path14003" />
    </g>
  </g>
</svg>
