<?xml version="1.0" encoding="UTF-8" standalone="no"?>
<!-- Created with Inkscape (http://www.inkscape.org/) -->

<svg
   xmlns:dc="http://purl.org/dc/elements/1.1/"
   xmlns:cc="http://creativecommons.org/ns#"
   xmlns:rdf="http://www.w3.org/1999/02/22-rdf-syntax-ns#"
   xmlns:svg="http://www.w3.org/2000/svg"
   xmlns="http://www.w3.org/2000/svg"
   xmlns:sodipodi="http://sodipodi.sourceforge.net/DTD/sodipodi-0.dtd"
   xmlns:inkscape="http://www.inkscape.org/namespaces/inkscape"
   width="7"
   height="9"
   id="svg4764"
   version="1.1"
   inkscape:version="0.91+devel+osxmenu r12911"
   sodipodi:docname="rail-12.svg"
   viewBox="0 0 7 9">
  <defs
     id="defs4766" />
  <sodipodi:namedview
     id="base"
     pagecolor="#ffffff"
     bordercolor="#666666"
     borderopacity="1.0"
     inkscape:pageopacity="0.0"
     inkscape:pageshadow="2"
     inkscape:zoom="8"
     inkscape:cx="35.439685"
     inkscape:cy="3.1642651"
     inkscape:document-units="px"
     inkscape:current-layer="layer1"
     showgrid="false"
     showguides="false"
     inkscape:guide-bbox="true"
     inkscape:window-width="960"
     inkscape:window-height="1025"
     inkscape:window-x="273"
     inkscape:window-y="23"
     inkscape:window-maximized="0"
     inkscape:snap-bbox="true"
     fit-margin-top="0"
     fit-margin-left="0"
     fit-margin-right="0"
     fit-margin-bottom="0">
    <inkscape:grid
       type="xygrid"
       id="grid4772"
       empspacing="2"
       visible="true"
       enabled="true"
       snapvisiblegridlinesonly="true"
       color="#ff00ff"
       opacity="0.1254902"
       empcolor="#ff00ff"
       empopacity="0.25098039"
       originx="-3"
       originy="-2" />
    <sodipodi:guide
       orientation="0,1"
       position="-1,10"
       id="guide4789" />
    <sodipodi:guide
       orientation="1,0"
       position="9,8"
       id="guide4791" />
    <sodipodi:guide
       orientation="0,1"
       position="7,-2"
       id="guide4793" />
    <sodipodi:guide
       orientation="1,0"
       position="-3,7"
       id="guide4795" />
    <sodipodi:guide
       orientation="0,1"
       position="2,9"
       id="guide4797" />
    <sodipodi:guide
       orientation="1,0"
       position="8,5"
       id="guide4799" />
    <sodipodi:guide
       orientation="0,1"
       position="6,0"
       id="guide4801" />
    <sodipodi:guide
       orientation="1,0"
       position="-1,3"
       id="guide4803" />
  </sodipodi:namedview>
  <metadata
     id="metadata4769">
    <rdf:RDF>
      <cc:Work
         rdf:about="">
        <dc:format>image/svg+xml</dc:format>
        <dc:type
           rdf:resource="http://purl.org/dc/dcmitype/StillImage" />
        <dc:title></dc:title>
      </cc:Work>
    </rdf:RDF>
  </metadata>
  <g
     inkscape:label="Layer 1"
     inkscape:groupmode="layer"
     id="layer1"
     transform="translate(-3,-1041.3622)">
    <path
       style="fill:#3a3836;fill-opacity:1;stroke:none"
       d="M 6,1 C 4,1 3,2 3,3 L 3,7.75 3.25,8 9.75,8 10,7.75 10,3 C 10,2 9,1 7,1 L 6,1 Z M 5,2 8,2 8,2.5 5,2.5 5,2 Z M 4.25,3.5 8.75,3.5 9,3.75 9,4.75 8.75,5 4.25,5 4,4.75 4,3.75 4.25,3.5 Z M 4.625,5.75 A 0.6249873,0.6249873 0 0 1 5.25,6.375 0.6249873,0.6249873 0 0 1 4.625,7 0.6249873,0.6249873 0 0 1 4,6.375 0.6249873,0.6249873 0 0 1 4.625,5.75 Z m 3.75,0 A 0.6249873,0.6249873 0 0 1 9,6.375 0.6249873,0.6249873 0 0 1 8.375,7 0.6249873,0.6249873 0 0 1 7.75,6.375 0.6249873,0.6249873 0 0 1 8.375,5.75 Z"
       transform="translate(0,1040.3622)"
       id="path3212"
       inkscape:connector-curvature="0" />
    <path
       style="fill:#3a3836;fill-opacity:1;stroke:none"
       d="m 4,1048.8622 -1,0.5 0,1 1.5,0 1,-1 0,-0.5 z"
       id="path3266"
       inkscape:connector-curvature="0"
       sodipodi:nodetypes="ccccccc" />
    <path
       sodipodi:nodetypes="ccccccc"
       inkscape:connector-curvature="0"
       id="path3268"
       d="m 9,1048.8622 -1.5,0 0,0.5 1,1 1.5,0 0,-1 z"
       style="fill:#3a3836;fill-opacity:1;stroke:none" />
  </g>
</svg>
