<?xml version="1.0" encoding="UTF-8" standalone="no"?>
<!-- Created with Inkscape (http://www.inkscape.org/) -->

<svg
   xmlns:dc="http://purl.org/dc/elements/1.1/"
   xmlns:cc="http://creativecommons.org/ns#"
   xmlns:rdf="http://www.w3.org/1999/02/22-rdf-syntax-ns#"
   xmlns:svg="http://www.w3.org/2000/svg"
   xmlns="http://www.w3.org/2000/svg"
   xmlns:sodipodi="http://sodipodi.sourceforge.net/DTD/sodipodi-0.dtd"
   xmlns:inkscape="http://www.inkscape.org/namespaces/inkscape"
   width="23"
   height="23"
   id="svg4764"
   version="1.1"
   inkscape:version="0.91+devel+osxmenu r12911"
   sodipodi:docname="rail-11.svg"
   viewBox="0 0 23 23">
  <defs
     id="defs4766" />
  <sodipodi:namedview
     id="base"
     pagecolor="#ffffff"
     bordercolor="#666666"
     borderopacity="1.0"
     inkscape:pageopacity="0.0"
     inkscape:pageshadow="2"
     inkscape:zoom="16"
     inkscape:cx="12.480893"
     inkscape:cy="10.414263"
     inkscape:document-units="px"
     inkscape:current-layer="layer1"
     showgrid="true"
     showguides="false"
     inkscape:guide-bbox="true"
     inkscape:window-width="960"
     inkscape:window-height="1025"
     inkscape:window-x="273"
     inkscape:window-y="23"
     inkscape:window-maximized="0"
     inkscape:snap-bbox="true"
     fit-margin-top="0"
     fit-margin-left="0"
     fit-margin-right="0"
     fit-margin-bottom="0"
     inkscape:bbox-paths="true"
     inkscape:bbox-nodes="true">
    <inkscape:grid
       type="xygrid"
       id="grid4772"
       empspacing="2"
       visible="true"
       enabled="true"
       snapvisiblegridlinesonly="true"
       color="#ff00ff"
       opacity="0.1254902"
       empcolor="#ff00ff"
       empopacity="0.25098039"
       originx="3.0001584"
       originy="2.9999636" />
    <sodipodi:guide
       orientation="0,1"
       position="5.0001584,14.999964"
       id="guide4789" />
    <sodipodi:guide
       orientation="1,0"
       position="15.000159,12.999964"
       id="guide4791" />
    <sodipodi:guide
       orientation="0,1"
       position="13.000158,2.9999636"
       id="guide4793" />
    <sodipodi:guide
       orientation="1,0"
       position="3.0001584,11.999964"
       id="guide4795" />
    <sodipodi:guide
       orientation="0,1"
       position="8.0001584,13.999964"
       id="guide4797" />
    <sodipodi:guide
       orientation="1,0"
       position="14.000159,9.9999637"
       id="guide4799" />
    <sodipodi:guide
       orientation="0,1"
       position="12.000158,4.9999636"
       id="guide4801" />
    <sodipodi:guide
       orientation="1,0"
       position="5.0001584,7.9999637"
       id="guide4803" />
  </sodipodi:namedview>
  <metadata
     id="metadata4769">
    <rdf:RDF>
      <cc:Work
         rdf:about="">
        <dc:format>image/svg+xml</dc:format>
        <dc:type
           rdf:resource="http://purl.org/dc/dcmitype/StillImage" />
        <dc:title />
      </cc:Work>
    </rdf:RDF>
  </metadata>
  <g
     inkscape:label="Layer 1"
     inkscape:groupmode="layer"
     id="layer1"
     transform="translate(3.0001583,-1032.3622)">
    <rect
       style="opacity:1;fill:#9c8ea4;fill-opacity:1;stroke:none;stroke-width:2.63156796;stroke-linecap:round;stroke-linejoin:round;stroke-miterlimit:4;stroke-dasharray:none;stroke-dashoffset:0;stroke-opacity:1;marker:none"
       id="rect18064"
       width="19"
       height="19.000053"
       x="-0.99999994"
       y="1034.3622"
       rx="2.0000539"
       ry="2.0000539" />
    <path
       style="fill:#ffffff;fill-opacity:1;stroke:none;stroke-width:1.22222221"
       d="m 7.8888887,1038.3622 c -2.4444445,0 -3.6666667,1.2222 -3.6666667,2.4444 l 0,5.8056 0.3055556,0.3056 7.9444444,0 0.305556,-0.3056 0,-5.8056 c 0,-1.2222 -1.222223,-2.4444 -3.6666671,-2.4444 l -1.2222222,0 z m -1.2222223,1.2222 3.6666666,0 0,0.6111 -3.6666666,0 0,-0.6111 z m -0.9166666,1.8334 5.5000002,0 0.305555,0.3055 0,1.2222 -0.305555,0.3056 -5.5000002,0 -0.3055556,-0.3056 0,-1.2222 0.3055556,-0.3055 z m 0.4583333,2.75 a 0.76387337,0.76387337 0 0 1 0.7638889,0.7638 0.76387337,0.76387337 0 0 1 -0.7638889,0.7639 0.76387337,0.76387337 0 0 1 -0.7638889,-0.7639 0.76387337,0.76387337 0 0 1 0.7638889,-0.7638 z m 4.5833329,0 a 0.76387337,0.76387337 0 0 1 0.763889,0.7638 0.76387337,0.76387337 0 0 1 -0.763889,0.7639 0.76387337,0.76387337 0 0 1 -0.763888,-0.7639 0.76387337,0.76387337 0 0 1 0.763888,-0.7638 z m -5.3472218,3.3611 -1.2222222,0.6111 0,1.2222 1.8333333,0 1.2222223,-1.2222 0,-0.6111 -1.8333334,0 z m 4.2777778,0 0,0.6111 1.222222,1.2222 1.833334,0 0,-1.2222 -1.222223,-0.6111 -1.833333,0 z"
       id="path3212"
       inkscape:connector-curvature="0" />
  </g>
</svg>
