<?xml version="1.0" encoding="UTF-8" standalone="no"?>
<!-- Created with Inkscape (http://www.inkscape.org/) -->

<svg
   xmlns:dc="http://purl.org/dc/elements/1.1/"
   xmlns:cc="http://creativecommons.org/ns#"
   xmlns:rdf="http://www.w3.org/1999/02/22-rdf-syntax-ns#"
   xmlns:svg="http://www.w3.org/2000/svg"
   xmlns="http://www.w3.org/2000/svg"
   xmlns:sodipodi="http://sodipodi.sourceforge.net/DTD/sodipodi-0.dtd"
   xmlns:inkscape="http://www.inkscape.org/namespaces/inkscape"
   width="23"
   height="23"
   id="svg4619"
   version="1.1"
   inkscape:version="0.91+devel+osxmenu r12911"
   sodipodi:docname="rail-17.svg"
   viewBox="0 0 23 23">
  <defs
     id="defs4621" />
  <sodipodi:namedview
     id="base"
     pagecolor="#ffffff"
     bordercolor="#666666"
     borderopacity="1.0"
     inkscape:pageopacity="0.0"
     inkscape:pageshadow="2"
     inkscape:zoom="11.313709"
     inkscape:cx="-1.9326782"
     inkscape:cy="11.870677"
     inkscape:document-units="px"
     inkscape:current-layer="layer1"
     showgrid="true"
     showguides="false"
     inkscape:guide-bbox="true"
     inkscape:window-width="959"
     inkscape:window-height="1025"
     inkscape:window-x="960"
     inkscape:window-y="23"
     inkscape:window-maximized="0"
     inkscape:snap-bbox="true"
     inkscape:object-paths="true"
     inkscape:object-nodes="true"
     fit-margin-top="0"
     fit-margin-left="0"
     fit-margin-right="0"
     fit-margin-bottom="0">
    <inkscape:grid
       type="xygrid"
       id="grid4627"
       empspacing="2"
       visible="true"
       enabled="true"
       snapvisiblegridlinesonly="true"
       color="#ff00ff"
       opacity="0.1254902"
       empcolor="#ff00ff"
       empopacity="0.25098039"
       originx="-4.9999999"
       originy="-5.0000155" />
    <sodipodi:guide
       orientation="0,1"
       position="6.5000011,17.499969"
       id="guide4659" />
    <sodipodi:guide
       orientation="1,0"
       position="17.500001,8.4999685"
       id="guide4661" />
    <sodipodi:guide
       orientation="0,1"
       position="15.500001,16.499969"
       id="guide4663" />
    <sodipodi:guide
       orientation="1,0"
       position="16.500001,13.499969"
       id="guide4665" />
    <sodipodi:guide
       orientation="1,0"
       position="-0.4999989,15.499969"
       id="guide4667" />
    <sodipodi:guide
       orientation="0,1"
       position="7.5000011,-0.50003188"
       id="guide4669" />
    <sodipodi:guide
       orientation="1,0"
       position="1.5000011,9.4999685"
       id="guide4671" />
    <sodipodi:guide
       orientation="0,1"
       position="11.500001,1.4999681"
       id="guide4673" />
    <sodipodi:guide
       orientation="0,1"
       position="11.500001,15.499969"
       id="guide3010" />
    <sodipodi:guide
       orientation="1,0"
       position="2.5000011,10.999969"
       id="guide3012" />
    <sodipodi:guide
       orientation="1,0"
       position="15.500001,7.9999685"
       id="guide3016" />
    <sodipodi:guide
       orientation="1,0"
       position="9.0000011,8.4999685"
       id="guide3804" />
    <sodipodi:guide
       orientation="0,1"
       position="12.500001,2.4999681"
       id="guide3138" />
  </sodipodi:namedview>
  <metadata
     id="metadata4624">
    <rdf:RDF>
      <cc:Work
         rdf:about="">
        <dc:format>image/svg+xml</dc:format>
        <dc:type
           rdf:resource="http://purl.org/dc/dcmitype/StillImage" />
        <dc:title></dc:title>
      </cc:Work>
    </rdf:RDF>
  </metadata>
  <g
     inkscape:label="Layer 1"
     inkscape:groupmode="layer"
     id="layer1"
     transform="translate(-0.4999989,-1028.8622)">
    <rect
       style="opacity:1;fill:#9c8ea4;fill-opacity:1;stroke:none;stroke-width:2.63156772;stroke-linecap:round;stroke-linejoin:round;stroke-miterlimit:4;stroke-dasharray:none;stroke-dashoffset:0;stroke-opacity:1;marker:none"
       id="rect18064"
       width="21"
       height="21.000002"
       x="1.4999989"
       y="1029.8622"
       rx="2.0000539"
       ry="2.0000539" />
    <g
       id="g14137"
       transform="matrix(1.3636364,0,0,1.3636364,17.636363,1032.8622)"
       style="fill:#ffffff;fill-opacity:1;stroke-width:0.73333335">
      <path
         inkscape:connector-curvature="0"
         style="fill:#ffffff;fill-opacity:1;fill-rule:evenodd;stroke:none;stroke-width:1px;stroke-linecap:butt;stroke-linejoin:miter;stroke-opacity:1"
         d="M 3.5,0 C 3.5,0 2,-2.4545453e-8 2,1.5 l 0,8 C 2,11 3.5,11 3.5,11 l 8,0 c 0,0 1.5,0 1.5,-1.5 l 0,-8 C 13,1.5 13,0 11.5,0 l -8,0 z m 2.25,0.5 3.5,0 C 9.3885,0.5 9.5,0.6115 9.5,0.75 9.5,0.8885 9.3885,1 9.25,1 L 5.75,1 C 5.6115,1 5.5,0.8885 5.5,0.75 5.5,0.6115 5.6115,0.5 5.75,0.5 Z M 4,2 7,2 7,7 4,7 C 3,7 3,6 3,6 L 3,3 C 3,2 4,2 4,2 Z m 4,0 3,0 c 0,0 1,-7.996e-4 1,1 l 0,3 c 0,1 -1,1 -1,1 L 8,7 8,2 Z M 5,8 A 0.99999998,0.99999998 0 0 1 6,9 0.99999998,0.99999998 0 0 1 5,10 0.99999998,0.99999998 0 0 1 4,9 0.99999998,0.99999998 0 0 1 5,8 Z m 5,0 A 0.99999998,0.99999998 0 0 1 11,9 0.99999998,0.99999998 0 0 1 10,10 0.99999998,0.99999998 0 0 1 9,9 0.99999998,0.99999998 0 0 1 10,8 Z M 4.125,12 3,15 l 1.5,0 0.375,-1 5.25,0 0.375,1 1.5,0 -1.125,-3 -1.5,0 0.375,1 -4.5,0 0.375,-1 -1.5,0 z"
         transform="matrix(0.73333331,0,0,0.73333331,-9.6333333,0)"
         id="path14003" />
    </g>
  </g>
</svg>
