<?xml version="1.0" encoding="UTF-8" standalone="no"?>
<!-- Generator: Adobe Illustrator 13.0.0, SVG Export Plug-In . SVG Version: 6.00 Build 14948)  -->

<svg
   xmlns:dc="http://purl.org/dc/elements/1.1/"
   xmlns:cc="http://creativecommons.org/ns#"
   xmlns:rdf="http://www.w3.org/1999/02/22-rdf-syntax-ns#"
   xmlns:svg="http://www.w3.org/2000/svg"
   xmlns="http://www.w3.org/2000/svg"
   xmlns:sodipodi="http://sodipodi.sourceforge.net/DTD/sodipodi-0.dtd"
   xmlns:inkscape="http://www.inkscape.org/namespaces/inkscape"
   version="1.1"
   id="Layer_1"
   x="0px"
   y="0px"
   width="15"
   height="15"
   viewBox="0 0 15 15"
   enable-background="new 0 0 400 400"
   xml:space="preserve"
   sodipodi:version="0.32"
   inkscape:version="0.91 r13725"
   sodipodi:docname="rer-15.svg"
   inkscape:output_extension="org.inkscape.output.svg.inkscape"><metadata
     id="metadata8"><rdf:RDF><cc:Work
         rdf:about=""><dc:format>image/svg+xml</dc:format><dc:type
           rdf:resource="http://purl.org/dc/dcmitype/StillImage" /><dc:title></dc:title></cc:Work></rdf:RDF></metadata><defs
     id="defs6"><inkscape:perspective
       sodipodi:type="inkscape:persp3d"
       inkscape:vp_x="0 : 200 : 1"
       inkscape:vp_y="0 : 1000 : 0"
       inkscape:vp_z="400 : 200 : 1"
       inkscape:persp3d-origin="200 : 133.33333 : 1"
       id="perspective10" /></defs><sodipodi:namedview
     inkscape:window-height="749"
     inkscape:window-width="832"
     inkscape:pageshadow="2"
     inkscape:pageopacity="0.0"
     guidetolerance="10.0"
     gridtolerance="10.0"
     objecttolerance="10.0"
     borderopacity="1.0"
     bordercolor="#666666"
     pagecolor="#ffffff"
     id="base"
     showgrid="false"
     inkscape:zoom="31.999999"
     inkscape:cx="5.5021057"
     inkscape:cy="6.5394891"
     inkscape:window-x="14"
     inkscape:window-y="0"
     inkscape:current-layer="Layer_1"
     inkscape:window-maximized="0"
     inkscape:snap-nodes="true"
     inkscape:snap-bbox="true"
     inkscape:bbox-paths="true"
     inkscape:bbox-nodes="true"
     inkscape:snap-bbox-edge-midpoints="true"
     inkscape:object-paths="true"
     inkscape:snap-intersection-paths="true"
     inkscape:object-nodes="true"
     inkscape:snap-smooth-nodes="true"><inkscape:grid
       type="xygrid"
       id="grid3201"
       empspacing="2"
       visible="true"
       enabled="true"
       snapvisiblegridlinesonly="true"
       spacingx="0.5"
       spacingy="0.5"
       color="#ff0000"
       opacity="0.1254902" /></sodipodi:namedview><circle
     style="opacity:1;fill:#ffffff;fill-opacity:1;stroke:none;stroke-width:2;stroke-linecap:round;stroke-linejoin:round;stroke-miterlimit:4;stroke-dasharray:none;stroke-dashoffset:0;stroke-opacity:1;marker:none"
     id="path38563"
     cx="9"
     cy="6"
     r="6" /><g
     id="g2996"
     transform="translate(-1.5175781,-1.4648438)"><path
       style="fill:#3377a7;fill-opacity:1"
       d="M 9.0175781,1.9648438 C 5.1498169,1.9648438 2,5.1150693 2,9 2,12.831918 5.1498169,15.964844 9.0175781,15.964844 12.884777,15.964844 16,12.866918 16,9 16,5.1150693 12.744284,1.9648437 9.0175781,1.9648438 Z M 9.0175781,3 C 12.303612,3 15,5.743485 15,9.0429688 15,12.307962 12.303612,15 9.0175781,15 5.7128421,15 3,12.325101 3,9.0429688 3,5.7266247 5.7128421,3 9.0175781,3 Z m -4,2.9648438 L 4,7 l 0,4 1.0175781,0.964844 0,-2.0000002 L 6,11.5 6,12 7.5,12 7.5,11.5 6,9 7.5175781,8.964844 l 0,-1 0,-2 z m 3,3e-7 0,5.9999999 2.4999999,0 0,-1 -1.4999999,0 0,-1.4999999 1.4999999,0 0,-1.5 -1.4999999,0 0,-1 1.4999999,0 2e-6,-1 z m 2.9999999,0 0,5.9999999 1,0 0,-2.0000002 1,0.5000002 0,1.46875 1,-0.96875 0,-1.0000002 -1,-1 1,0 0,-2 -1,-1 -1,0 z m -5.4999999,0.9999997 1,0 -0.5,1.5 -1,0 z m 6.4999999,0 1,0 0,1 -1,0.5 z"
       id="path3324"
       inkscape:connector-curvature="0"
       sodipodi:nodetypes="ssssssssssccccccccccccccccccccccccccccccccccccccccccccccccccc" /></g></svg>