<?xml version="1.0" encoding="UTF-8" standalone="no"?>
<!-- Generator: Adobe Illustrator 13.0.0, SVG Export Plug-In . SVG Version: 6.00 Build 14948)  -->

<svg
   xmlns:dc="http://purl.org/dc/elements/1.1/"
   xmlns:cc="http://creativecommons.org/ns#"
   xmlns:rdf="http://www.w3.org/1999/02/22-rdf-syntax-ns#"
   xmlns:svg="http://www.w3.org/2000/svg"
   xmlns="http://www.w3.org/2000/svg"
   xmlns:sodipodi="http://sodipodi.sourceforge.net/DTD/sodipodi-0.dtd"
   xmlns:inkscape="http://www.inkscape.org/namespaces/inkscape"
   version="1.1"
   id="Layer_1"
   x="0px"
   y="0px"
   width="15"
   height="15"
   viewBox="0 0 15 15"
   enable-background="new 0 0 400 400"
   xml:space="preserve"
   sodipodi:version="0.32"
   inkscape:version="0.91+devel+osxmenu r12911"
   sodipodi:docname="rer-15.svg"
   inkscape:output_extension="org.inkscape.output.svg.inkscape"><metadata
     id="metadata8"><rdf:RDF><cc:Work
         rdf:about=""><dc:format>image/svg+xml</dc:format><dc:type
           rdf:resource="http://purl.org/dc/dcmitype/StillImage" /><dc:title /></cc:Work></rdf:RDF></metadata><defs
     id="defs6"><inkscape:perspective
       sodipodi:type="inkscape:persp3d"
       inkscape:vp_x="0 : 200 : 1"
       inkscape:vp_y="0 : 1000 : 0"
       inkscape:vp_z="400 : 200 : 1"
       inkscape:persp3d-origin="200 : 133.33333 : 1"
       id="perspective10" /></defs><sodipodi:namedview
     inkscape:pageshadow="2"
     inkscape:pageopacity="0.0"
     guidetolerance="10.0"
     gridtolerance="10.0"
     objecttolerance="10.0"
     borderopacity="1.0"
     bordercolor="#666666"
     pagecolor="#ffffff"
     id="base"
     showgrid="true"
     inkscape:zoom="32"
     inkscape:cx="6.485116"
     inkscape:cy="9.594617"
     inkscape:window-x="14"
     inkscape:window-y="0"
     inkscape:current-layer="Layer_1"
     inkscape:window-maximized="0"
     inkscape:snap-nodes="true"
     inkscape:snap-bbox="true"
     inkscape:bbox-paths="true"
     inkscape:bbox-nodes="true"
     inkscape:snap-bbox-edge-midpoints="true"
     inkscape:object-paths="true"
     inkscape:snap-intersection-paths="true"
     inkscape:object-nodes="true"
     inkscape:snap-smooth-nodes="true"
     showguides="true"
     inkscape:guide-bbox="true"><inkscape:grid
       type="xygrid"
       id="grid3201"
       empspacing="2"
       visible="true"
       enabled="true"
       snapvisiblegridlinesonly="true"
       spacingx="0.5"
       spacingy="0.5"
       color="#ff0000"
       opacity="0.1254902" /></sodipodi:namedview><circle
     style="opacity:1;fill:#ffffff;fill-opacity:1;stroke:none;stroke-width:0.99999988;stroke-linecap:round;stroke-linejoin:miter;stroke-miterlimit:4;stroke-dasharray:none;stroke-dashoffset:0;stroke-opacity:1;marker:none"
     id="circle19101"
     cx="7.5000005"
     cy="7.5000005"
     r="6.9999995" /><circle
     style="opacity:1;fill:#ffffff;fill-opacity:1;stroke:none;stroke-width:0.99999994;stroke-linecap:round;stroke-linejoin:miter;stroke-miterlimit:4;stroke-dasharray:none;stroke-dashoffset:0;stroke-opacity:1;marker:none"
     id="path18446"
     cx="7.5"
     cy="7.5"
     r="7" /><circle
     r="6.9999995"
     cy="7.5000005"
     cx="7.5000005"
     id="circle19032"
     style="opacity:1;fill:none;fill-opacity:1;stroke:#5396c7;stroke-width:0.99999988;stroke-linecap:round;stroke-linejoin:miter;stroke-miterlimit:4;stroke-dasharray:none;stroke-dashoffset:0;stroke-opacity:1;marker:none" /><path
     style="fill:#5396c7;fill-opacity:1;fill-rule:evenodd;stroke:none;stroke-width:1px;stroke-linecap:butt;stroke-linejoin:miter;stroke-opacity:1"
     d="M 7 4.5 C 7 4.5 6 4.5 6 5.5 L 6 9.5 C 6 10.5 7 10.5 7 10.5 L 8.5 10.5 A 0.5 0.5 0 0 0 9 10 A 0.5 0.5 0 0 0 8.5 9.5 L 7 9.5 L 7 8 L 8.5 8 A 0.5 0.5 0 0 0 9 7.5 A 0.5 0.5 0 0 0 8.5 7 L 7 7 L 7 5.5 L 8.5 5.5 A 0.5 0.5 0 0 0 9 5 A 0.5 0.5 0 0 0 8.5 4.5 L 7 4.5 z "
     id="path19066" /><path
     style="color:#000000;font-style:normal;font-variant:normal;font-weight:normal;font-stretch:normal;font-size:medium;line-height:normal;font-family:sans-serif;text-indent:0;text-align:start;text-decoration:none;text-decoration-line:none;text-decoration-style:solid;text-decoration-color:#000000;letter-spacing:normal;word-spacing:normal;text-transform:none;direction:ltr;block-progression:tb;writing-mode:lr-tb;baseline-shift:baseline;text-anchor:start;white-space:normal;shape-padding:0;clip-rule:nonzero;display:inline;overflow:visible;visibility:visible;opacity:1;isolation:auto;mix-blend-mode:normal;color-interpolation:sRGB;color-interpolation-filters:linearRGB;solid-color:#000000;solid-opacity:1;fill:#5396c7;fill-opacity:1;fill-rule:evenodd;stroke:none;stroke-width:1px;stroke-linecap:round;stroke-linejoin:round;stroke-miterlimit:4;stroke-dasharray:none;stroke-dashoffset:0;stroke-opacity:1;color-rendering:auto;image-rendering:auto;shape-rendering:auto;text-rendering:auto;enable-background:accumulate"
     d="M 2.4921875 4.4921875 A 0.50005 0.50005 0 0 0 2.1757812 4.6132812 A 0.50005 0.50005 0 0 0 2.15625 4.6289062 A 0.50005 0.50005 0 0 0 2.1386719 4.6464844 A 0.50005 0.50005 0 0 0 2.1367188 4.6503906 A 0.50005 0.50005 0 0 0 2.1054688 4.6835938 A 0.50005 0.50005 0 0 0 2.1035156 4.6875 A 0.50005 0.50005 0 0 0 2.0761719 4.7246094 A 0.50005 0.50005 0 0 0 2.0742188 4.7285156 A 0.50005 0.50005 0 0 0 2 5.0820312 L 2 7.4199219 A 0.50005 0.50005 0 0 0 2 7.5820312 L 2 10 A 0.50005 0.50005 0 1 0 3 10 L 3 8 L 3.5 8 C 3.5540043 8 3.6036168 7.9927752 3.65625 7.9902344 L 4.5351562 10.185547 A 0.50050717 0.50050717 0 1 0 5.4648438 9.8144531 L 4.6386719 7.7480469 C 4.7529806 7.6874135 4.8590608 7.6172183 4.9550781 7.5332031 C 5.3205176 7.2134436 5.5 6.7361111 5.5 6.25 C 5.5 5.7043289 5.2094765 5.2400088 4.8300781 4.9472656 C 4.4506797 4.6545225 3.9798365 4.5 3.5 4.5 L 2.5917969 4.5 A 0.50005 0.50005 0 0 0 2.4921875 4.4921875 z M 3 5.5 L 3.5 5.5 C 3.7521437 5.5 4.0311435 5.595478 4.21875 5.7402344 C 4.4063565 5.8849912 4.5 6.0456711 4.5 6.25 C 4.5 6.5138889 4.4294824 6.6615564 4.2949219 6.7792969 C 4.1603614 6.8970373 3.9166667 7 3.5 7 L 3 7 L 3 5.5 z "
     id="path19079" /><path
     id="path19099"
     d="m 10.492188,4.4921875 a 0.50005,0.50005 0 0 0 -0.316407,0.1210937 0.50005,0.50005 0 0 0 -0.01953,0.015625 0.50005,0.50005 0 0 0 -0.01758,0.017578 0.50005,0.50005 0 0 0 -0.0019,0.00391 0.50005,0.50005 0 0 0 -0.03125,0.033203 0.50005,0.50005 0 0 0 -0.002,0.00391 0.50005,0.50005 0 0 0 -0.02734,0.037109 0.50005,0.50005 0 0 0 -0.002,0.00391 A 0.50005,0.50005 0 0 0 10,5.0820312 l 0,2.3378907 a 0.50005,0.50005 0 0 0 0,0.1621093 L 10,10 a 0.50005,0.50005 0 1 0 1,0 l 0,-2 0.5,0 c 0.054,0 0.103617,-0.00722 0.15625,-0.00977 l 0.878906,2.195317 A 0.50050736,0.50050736 0 1 0 13.464844,9.8144531 L 12.638672,7.7480469 C 12.752981,7.6874135 12.859061,7.6172183 12.955078,7.5332031 13.320518,7.2134436 13.5,6.7361111 13.5,6.25 13.5,5.7043289 13.209476,5.2400088 12.830078,4.9472656 12.45068,4.6545225 11.979836,4.5 11.5,4.5 l -0.908203,0 A 0.50005,0.50005 0 0 0 10.492188,4.49219 Z M 11,5.5 l 0.5,0 c 0.252144,0 0.531144,0.095478 0.71875,0.2402344 C 12.406356,5.8849912 12.5,6.0456711 12.5,6.25 12.5,6.5138889 12.429482,6.6615564 12.294922,6.7792969 12.160361,6.8970373 11.916667,7 11.5,7 L 11,7 11,5.5 Z"
     style="color:#000000;font-style:normal;font-variant:normal;font-weight:normal;font-stretch:normal;font-size:medium;line-height:normal;font-family:sans-serif;text-indent:0;text-align:start;text-decoration:none;text-decoration-line:none;text-decoration-style:solid;text-decoration-color:#000000;letter-spacing:normal;word-spacing:normal;text-transform:none;direction:ltr;block-progression:tb;writing-mode:lr-tb;baseline-shift:baseline;text-anchor:start;white-space:normal;shape-padding:0;clip-rule:nonzero;display:inline;overflow:visible;visibility:visible;opacity:1;isolation:auto;mix-blend-mode:normal;color-interpolation:sRGB;color-interpolation-filters:linearRGB;solid-color:#000000;solid-opacity:1;fill:#5396c7;fill-opacity:1;fill-rule:evenodd;stroke:none;stroke-width:1px;stroke-linecap:round;stroke-linejoin:round;stroke-miterlimit:4;stroke-dasharray:none;stroke-dashoffset:0;stroke-opacity:1;color-rendering:auto;image-rendering:auto;shape-rendering:auto;text-rendering:auto;enable-background:accumulate"
     inkscape:connector-curvature="0" /></svg>