<?xml version="1.0" encoding="UTF-8" standalone="no"?>
<!-- Generator: Adobe Illustrator 13.0.0, SVG Export Plug-In . SVG Version: 6.00 Build 14948)  -->

<svg
   xmlns:dc="http://purl.org/dc/elements/1.1/"
   xmlns:cc="http://creativecommons.org/ns#"
   xmlns:rdf="http://www.w3.org/1999/02/22-rdf-syntax-ns#"
   xmlns:svg="http://www.w3.org/2000/svg"
   xmlns="http://www.w3.org/2000/svg"
   xmlns:sodipodi="http://sodipodi.sourceforge.net/DTD/sodipodi-0.dtd"
   xmlns:inkscape="http://www.inkscape.org/namespaces/inkscape"
   version="1.1"
   id="Layer_1"
   x="0px"
   y="0px"
   width="18"
   height="18"
   viewBox="0 0 18 18"
   enable-background="new 0 0 400 400"
   xml:space="preserve"
   sodipodi:version="0.32"
   inkscape:version="0.91+devel+osxmenu r12911"
   sodipodi:docname="rer-18.svg"
   inkscape:output_extension="org.inkscape.output.svg.inkscape"><metadata
     id="metadata8"><rdf:RDF><cc:Work
         rdf:about=""><dc:format>image/svg+xml</dc:format><dc:type
           rdf:resource="http://purl.org/dc/dcmitype/StillImage" /><dc:title /></cc:Work></rdf:RDF></metadata><defs
     id="defs6"><inkscape:perspective
       sodipodi:type="inkscape:persp3d"
       inkscape:vp_x="0 : 200 : 1"
       inkscape:vp_y="0 : 1000 : 0"
       inkscape:vp_z="400 : 200 : 1"
       inkscape:persp3d-origin="200 : 133.33333 : 1"
       id="perspective10" /></defs><sodipodi:namedview
     inkscape:window-height="877"
     inkscape:window-width="1774"
     inkscape:pageshadow="2"
     inkscape:pageopacity="0.0"
     guidetolerance="10.0"
     gridtolerance="10.0"
     objecttolerance="10.0"
     borderopacity="1.0"
     bordercolor="#666666"
     pagecolor="#ffffff"
     id="base"
     showgrid="true"
     inkscape:zoom="22.627416"
     inkscape:cx="5.0718378"
     inkscape:cy="7.9777636"
     inkscape:window-x="-9"
     inkscape:window-y="78"
     inkscape:current-layer="Layer_1"
     inkscape:window-maximized="0"
     inkscape:snap-nodes="true"
     inkscape:snap-bbox="true"><inkscape:grid
       type="xygrid"
       id="grid3201"
       empspacing="2"
       visible="true"
       enabled="true"
       snapvisiblegridlinesonly="true" /></sodipodi:namedview><g
     id="g2996"><path
       style="fill:#3377a7;fill-opacity:1"
       d="M 9.0175781 1.9648438 C 5.1498169 1.9648438 2 5.1150693 2 9 C 2 12.831918 5.1498169 15.964844 9.0175781 15.964844 C 12.884777 15.964844 16 12.866918 16 9 C 16 5.1150693 12.744284 1.9648437 9.0175781 1.9648438 z M 9.0175781 3 C 12.303612 3 15 5.743485 15 9.0429688 C 15 12.307962 12.303612 15 9.0175781 15 C 5.7128421 15 3 12.325101 3 9.0429688 C 3 5.7266247 5.7128421 3 9.0175781 3 z M 4.9375 6 L 4.9375 6.0625 L 4 7 L 4 11 L 5 12 L 5 10 L 6 11.5 L 6 12 L 7.5 12 L 7.5 11.5 L 6 9 L 7.5 9 L 7.5 8 L 7.5 6 L 4.9375 6 z M 8 6 L 8 12.03125 L 10.5 12.03125 L 10.5 11 L 9 11 L 9 9.5 L 10.5 9.5 L 10.5 8 L 9 8 L 9 7 L 10.5 7 L 10.5 6 L 8 6 z M 11 6 L 11 12 L 12 12 L 12 10 L 13 10.53125 L 13 12 L 14 11 L 14 10 L 13 9 L 14 9 L 14 7 L 13 6 L 12 6 L 11 6 z M 5.5 7 L 6.5 7 L 6 8.5 L 5 8.5 L 5.5 7 z M 12 7 L 13 7 L 13 8 L 12 8.5 L 12 7 z "
       id="path3324" /></g></svg>