<?xml version="1.0" encoding="UTF-8" standalone="no"?>
<!-- Created with Inkscape (http://www.inkscape.org/) -->

<svg
   xmlns:dc="http://purl.org/dc/elements/1.1/"
   xmlns:cc="http://creativecommons.org/ns#"
   xmlns:rdf="http://www.w3.org/1999/02/22-rdf-syntax-ns#"
   xmlns:svg="http://www.w3.org/2000/svg"
   xmlns="http://www.w3.org/2000/svg"
   xmlns:sodipodi="http://sodipodi.sourceforge.net/DTD/sodipodi-0.dtd"
   xmlns:inkscape="http://www.inkscape.org/namespaces/inkscape"
   width="26"
   height="11"
   id="svg3042"
   version="1.1"
   inkscape:version="0.91+devel+osxmenu r12911"
   sodipodi:docname="rer.transilien-11.svg"
   viewBox="0 0 26 11">
  <defs
     id="defs3044" />
  <sodipodi:namedview
     id="base"
     pagecolor="#ffffff"
     bordercolor="#666666"
     borderopacity="1.0"
     inkscape:pageopacity="0.0"
     inkscape:pageshadow="2"
     inkscape:zoom="22.627417"
     inkscape:cx="15.582061"
     inkscape:cy="7.9108438"
     inkscape:document-units="px"
     inkscape:current-layer="layer1"
     showgrid="true"
     inkscape:window-width="1562"
     inkscape:window-height="776"
     inkscape:window-x="64"
     inkscape:window-y="23"
     inkscape:window-maximized="0"
     inkscape:snap-bbox="true"
     inkscape:bbox-nodes="true"
     inkscape:bbox-paths="true"
     showguides="true"
     inkscape:guide-bbox="true">
    <inkscape:grid
       type="xygrid"
       id="grid2996"
       empspacing="2"
       visible="true"
       enabled="true"
       snapvisiblegridlinesonly="true" />
    <sodipodi:guide
       position="1,16"
       orientation="1,0"
       id="guide8785" />
  </sodipodi:namedview>
  <metadata
     id="metadata3047">
    <rdf:RDF>
      <cc:Work
         rdf:about="">
        <dc:format>image/svg+xml</dc:format>
        <dc:type
           rdf:resource="http://purl.org/dc/dcmitype/StillImage" />
        <dc:title></dc:title>
      </cc:Work>
    </rdf:RDF>
  </metadata>
  <g
     inkscape:label="Layer 1"
     inkscape:groupmode="layer"
     id="layer1"
     transform="translate(0,-1041.3622)">
    <g
       id="g11180"
       transform="translate(1,1041.3622)">
      <circle
         r="5"
         cy="5.5"
         cx="5.5"
         id="path19058"
         style="opacity:1;fill:#ffffff;fill-opacity:1;stroke:none;stroke-width:0.99999994;stroke-linecap:round;stroke-linejoin:miter;stroke-miterlimit:4;stroke-dasharray:none;stroke-dashoffset:0;stroke-opacity:1;marker:none" />
      <path
         inkscape:connector-curvature="0"
         id="path17837"
         d="M 5.5,0 C 2.4683562,0 0,2.4683562 0,5.5 0,8.5316438 2.4683562,11 5.5,11 8.5316438,11 11,8.5316438 11,5.5 11,2.4683562 8.5316438,0 5.5,0 Z m 0,1 C 7.9912037,1 10,3.0087963 10,5.5 10,7.9912037 7.9912037,10 5.5,10 3.0087963,10 1,7.9912037 1,5.5 1,3.0087963 3.0087963,1 5.5,1 Z"
         style="color:#000000;font-style:normal;font-variant:normal;font-weight:normal;font-stretch:normal;font-size:medium;line-height:normal;font-family:sans-serif;text-indent:0;text-align:start;text-decoration:none;text-decoration-line:none;text-decoration-style:solid;text-decoration-color:#000000;letter-spacing:normal;word-spacing:normal;text-transform:none;direction:ltr;block-progression:tb;writing-mode:lr-tb;baseline-shift:baseline;text-anchor:start;white-space:normal;shape-padding:0;clip-rule:nonzero;display:inline;overflow:visible;visibility:visible;opacity:1;isolation:auto;mix-blend-mode:normal;color-interpolation:sRGB;color-interpolation-filters:linearRGB;solid-color:#000000;solid-opacity:1;fill:#3377a7;fill-opacity:1;fill-rule:nonzero;stroke:none;stroke-width:1;stroke-linecap:round;stroke-linejoin:miter;stroke-miterlimit:4;stroke-dasharray:none;stroke-dashoffset:0;stroke-opacity:1;marker:none;color-rendering:auto;image-rendering:auto;shape-rendering:auto;text-rendering:auto;enable-background:accumulate" />
      <path
         sodipodi:nodetypes="ccccccccccccccccccccccccccccccccccccccccc"
         inkscape:connector-curvature="0"
         id="path17811"
         d="m 1.5,3 0,5 1,0 0,-1.25 L 3,8 4,8 3,5.5 C 3.4949496,5.5 4,5 4,4.25 4,3.5 3.3807009,3 2.5,3 Z m 3,0 0,5 2,0 0,-1 -1.25,0 0,-1 1.25,0 0,-1 -1.25,0 0,-1 1.25,0 0,-1 z M 7,3 7,8 8,8 8,6.75 8.5,8 9.5,8 8.5,5.5 C 8.9949496,5.5 9.5,5 9.5,4.25 9.5,3.5 9,3 8,3 Z M 2.5,3.6542969 c 0,0 0.8457031,0.00133 0.8457031,0.5800781 C 3.3457031,4.813123 2.5,4.8125 2.5,4.8125 Z m 5.5,0 c 0,0 0.8457031,0.00133 0.8457031,0.5800781 C 8.8457031,4.813123 8,4.8125 8,4.8125 Z"
         style="fill:#3377a7;fill-opacity:1;fill-rule:evenodd;stroke:none;stroke-width:1px;stroke-linecap:butt;stroke-linejoin:miter;stroke-opacity:1" />
    </g>
    <g
       id="g11865"
       transform="translate(0,9)">
      <rect
         ry="1.4999281"
         rx="1.4999281"
         y="1032.8621"
         x="14.499927"
         height="10.000072"
         width="10.000124"
         id="rect42995"
         style="opacity:1;fill:#ffffff;fill-opacity:1;stroke:none;stroke-width:2;stroke-linecap:round;stroke-linejoin:round;stroke-miterlimit:4;stroke-dasharray:none;stroke-dashoffset:0;stroke-opacity:1;marker:none" />
      <g
         id="g3812"
         transform="translate(1139.7177,24.7637)">
        <path
           sodipodi:nodetypes="ssssssssssssssssssssssccccccccsssssssssssscccccccccc"
           inkscape:connector-curvature="0"
           id="rect4162"
           transform="translate(-1125.7177,1007.5985)"
           d="M 2,0 C 0.892,0 0,0.892 0,2 l 0,7 c 0,1.108 0.892,2 2,2 l 7,0 c 1.108,0 2,-0.892 2,-2 L 11,2 C 11,0.892 10.108,0 9,0 Z m 0,0.9980469 7,0 C 9.5721,0.9980469 10.001953,1.4279 10.001953,2 l 0,7 C 10.001953,9.5719 9.5721,10.001953 9,10.001953 l -7,0 C 1.4283,10.001953 0.9980469,9.5717 0.9980469,9 l 0,-7 C 0.9980469,1.4279 1.428,0.9980469 2,0.9980469 Z M 4.25,2.5 C 3.8345,2.5 3.5,2.8345 3.5,3.25 l 0,3.5 C 3.5,7.1655 3.8345,7.5 4.25,7.5 L 4.5,7.5 3,9 4,9 5,8 6,8 7,9 8,9 6.5,7.5 6.75,7.5 C 7.1655,7.5 7.5,7.1655 7.5,6.75 l 0,-3.5 C 7.5,2.8345 7.1655,2.5 6.75,2.5 Z M 4.5,3 6.5,3 C 6.7769941,3 7,3.2230059 7,3.5 7,3.7769941 6.7769941,4 6.5,4 l -2,0 C 4.2230059,4 4,3.7769941 4,3.5 4,3.2230059 4.2230059,3 4.5,3 Z M 4,5 4.5,5 4.5,5.5 4,5.5 Z M 6.5,5 7,5 7,5.5 6.5,5.5 Z"
           style="fill:#0079ac;fill-opacity:1;stroke:none" />
      </g>
    </g>
  </g>
</svg>
