<?xml version="1.0" encoding="UTF-8" standalone="no"?>
<!-- Generator: Adobe Illustrator 15.0.1, SVG Export Plug-In . SVG Version: 6.00 Build 0)  -->

<svg
   xmlns:dc="http://purl.org/dc/elements/1.1/"
   xmlns:cc="http://creativecommons.org/ns#"
   xmlns:rdf="http://www.w3.org/1999/02/22-rdf-syntax-ns#"
   xmlns:svg="http://www.w3.org/2000/svg"
   xmlns="http://www.w3.org/2000/svg"
   xmlns:sodipodi="http://sodipodi.sourceforge.net/DTD/sodipodi-0.dtd"
   xmlns:inkscape="http://www.inkscape.org/namespaces/inkscape"
   version="1.1"
   id="Ebene_1"
   x="0px"
   y="0px"
   width="12"
   height="12"
   viewBox="0 0 12 12"
   enable-background="new 0 0 350 353"
   xml:space="preserve"
   inkscape:version="0.91+devel+osxmenu r12911"
   sodipodi:docname="s-bahn-12.svg"><metadata
     id="metadata13"><rdf:RDF><cc:Work
         rdf:about=""><dc:format>image/svg+xml</dc:format><dc:type
           rdf:resource="http://purl.org/dc/dcmitype/StillImage" /><dc:title /></cc:Work></rdf:RDF></metadata><defs
     id="defs11" /><sodipodi:namedview
     pagecolor="#ffffff"
     bordercolor="#666666"
     borderopacity="1"
     objecttolerance="10"
     gridtolerance="10"
     guidetolerance="10"
     inkscape:pageopacity="0"
     inkscape:pageshadow="2"
     inkscape:window-width="1108"
     inkscape:window-height="793"
     id="namedview9"
     showgrid="false"
     inkscape:zoom="45.254834"
     inkscape:cx="3.7463069"
     inkscape:cy="4.0464621"
     inkscape:window-x="433"
     inkscape:window-y="217"
     inkscape:window-maximized="0"
     inkscape:current-layer="Ebene_1"
     inkscape:snap-nodes="false"><inkscape:grid
       type="xygrid"
       id="grid2985" /></sodipodi:namedview><path
     style="fill:#799a55;fill-opacity:1"
     d="M 6 1 C 3.2423145 1 1 3.2423144 1 6 C 1 8.7577157 3.2423145 11 6 11 C 8.7577157 11 11.00006 8.7577157 11 6 C 11 3.2423144 8.7577157 1 6 1 z M 6 2 C 7.130199 2 7.6952983 2.3814411 8.5 3 L 8.5 4.5 C 7.8037974 3.7559366 6.9930911 2.9803821 6 3 C 5.0063158 3.0196296 4.4999845 3.3847053 4.5058594 3.9609375 C 4.5216608 5.5107878 9.0000301 4.4982216 9 7.5 C 9 8.7115733 7.9801086 10 6 10 C 4.8969257 10 3.6962027 9.6238698 3 9 L 3 7.5 C 3.6600364 8.4493671 4.7884266 9 6 9 C 6.7414105 9 7.5097656 8.4911421 7.5097656 8.0390625 C 7.5097656 6.5291055 3 7.4475891 3 4.5 C 3 2.9539176 4.6437612 2 6 2 z "
     id="path5-0-4" /></svg>