<?xml version="1.0" encoding="UTF-8" standalone="no"?>
<!-- Created with Inkscape (http://www.inkscape.org/) -->

<svg
   xmlns:dc="http://purl.org/dc/elements/1.1/"
   xmlns:cc="http://creativecommons.org/ns#"
   xmlns:rdf="http://www.w3.org/1999/02/22-rdf-syntax-ns#"
   xmlns:svg="http://www.w3.org/2000/svg"
   xmlns="http://www.w3.org/2000/svg"
   xmlns:sodipodi="http://sodipodi.sourceforge.net/DTD/sodipodi-0.dtd"
   xmlns:inkscape="http://www.inkscape.org/namespaces/inkscape"
   width="17"
   height="17"
   id="svg4764"
   version="1.1"
   inkscape:version="0.91+devel+osxmenu r12911"
   sodipodi:docname="subway-11.svg"
   viewBox="0 0 17 17">
  <defs
     id="defs4766" />
  <sodipodi:namedview
     id="base"
     pagecolor="#ffffff"
     bordercolor="#666666"
     borderopacity="1.0"
     inkscape:pageopacity="0.0"
     inkscape:pageshadow="2"
     inkscape:zoom="12.973872"
     inkscape:cx="-6.4730329"
     inkscape:cy="6.7113709"
     inkscape:document-units="px"
     inkscape:current-layer="layer1"
     showgrid="true"
     showguides="false"
     inkscape:guide-bbox="true"
     inkscape:window-width="959"
     inkscape:window-height="1025"
     inkscape:window-x="960"
     inkscape:window-y="23"
     inkscape:window-maximized="0"
     inkscape:snap-bbox="true"
     inkscape:object-paths="false"
     inkscape:object-nodes="true"
     inkscape:bbox-nodes="true"
     fit-margin-top="0"
     fit-margin-left="0"
     fit-margin-right="0"
     fit-margin-bottom="0">
    <inkscape:grid
       type="xygrid"
       id="grid4772"
       empspacing="2"
       visible="true"
       enabled="true"
       snapvisiblegridlinesonly="true"
       color="#ff00ff"
       opacity="0.1254902"
       empcolor="#ff00ff"
       empopacity="0.25098039"
       originx="-4.0000342"
       originy="-4.0000841" />
    <sodipodi:guide
       orientation="0,1"
       position="1.5001241,11.49988"
       id="guide4789" />
    <sodipodi:guide
       orientation="1,0"
       position="11.500125,9.4998797"
       id="guide4791" />
    <sodipodi:guide
       orientation="0,1"
       position="9.5001236,-0.50012053"
       id="guide4793" />
    <sodipodi:guide
       orientation="1,0"
       position="-0.49987585,8.4998797"
       id="guide4795" />
    <sodipodi:guide
       orientation="0,1"
       position="4.5001241,10.49988"
       id="guide4797" />
    <sodipodi:guide
       orientation="1,0"
       position="10.500125,6.4998797"
       id="guide4799" />
    <sodipodi:guide
       orientation="0,1"
       position="8.5001236,1.4998794"
       id="guide4801" />
    <sodipodi:guide
       orientation="1,0"
       position="1.5001241,4.4998795"
       id="guide4803" />
  </sodipodi:namedview>
  <metadata
     id="metadata4769">
    <rdf:RDF>
      <cc:Work
         rdf:about="">
        <dc:format>image/svg+xml</dc:format>
        <dc:type
           rdf:resource="http://purl.org/dc/dcmitype/StillImage" />
        <dc:title></dc:title>
      </cc:Work>
    </rdf:RDF>
  </metadata>
  <g
     inkscape:label="Layer 1"
     inkscape:groupmode="layer"
     id="layer1"
     transform="translate(-0.49987596,-1034.8621)">
    <rect
       style="opacity:1;fill:#9c8ea4;fill-opacity:1;stroke:none;stroke-width:2.63156772;stroke-linecap:round;stroke-linejoin:round;stroke-miterlimit:4;stroke-dasharray:none;stroke-dashoffset:0;stroke-opacity:1;marker:none"
       id="rect18064"
       width="14.999931"
       height="14.999933"
       x="1.499876"
       y="1035.8622"
       rx="2.0000539"
       ry="2.0000539" />
    <path
       inkscape:connector-curvature="0"
       style="opacity:1;fill:#ffffff;fill-opacity:1;stroke:none;stroke-width:1;stroke-linecap:round;stroke-linejoin:miter;stroke-miterlimit:4;stroke-dasharray:none;stroke-dashoffset:0;stroke-opacity:1"
       d="m 6.9998417,1037.8622 c -0.5,0 -0.5,0.5 -0.5,0.5 l -1,4.5 0,1 c 0,1.0244 1,1 1,1 l 5.0000003,0 c 0,0 1,0 1,-1 l 0,-1 -1,-4.5 c 0,0 0,-0.5 -0.5,-0.5 l -4.0000003,0 z m 0.5,1 3.0000003,0 0.5,3 -4.0000003,0 0.5,-3 z m -0.5,4 a 0.5,0.5 0 0 1 0.5,0.5 0.5,0.5 0 0 1 -0.5,0.5 0.5,0.5 0 0 1 -0.5,-0.5 0.5,0.5 0 0 1 0.5,-0.5 z m 1.75,0 0.5,0 c 0.1385,0 0.25,0.1115 0.25,0.25 0,0.1385 -0.1115,0.25 -0.25,0.25 l -0.5,0 c -0.1385,0 -0.25,-0.1115 -0.25,-0.25 0,-0.1385 0.1115,-0.25 0.25,-0.25 z m 2.2500003,0 a 0.5,0.5 0 0 1 0.5,0.5 0.5,0.5 0 0 1 -0.5,0.5 0.5,0.5 0 0 1 -0.5,-0.5 0.5,0.5 0 0 1 0.5,-0.5 z m -4.5000003,3 -1,3 1.5,0 0.3339844,-1 3.3320309,0 0.333985,1 1.5,0 -1,-3 -1.5000003,0 0.3339843,1 -2.6679687,0 0.3339844,-1 -1.5,0 z"
       id="path14200" />
  </g>
</svg>
