<?xml version="1.0" encoding="UTF-8" standalone="no"?>
<!-- Created with Inkscape (http://www.inkscape.org/) -->

<svg
   xmlns:dc="http://purl.org/dc/elements/1.1/"
   xmlns:cc="http://creativecommons.org/ns#"
   xmlns:rdf="http://www.w3.org/1999/02/22-rdf-syntax-ns#"
   xmlns:svg="http://www.w3.org/2000/svg"
   xmlns="http://www.w3.org/2000/svg"
   xmlns:sodipodi="http://sodipodi.sourceforge.net/DTD/sodipodi-0.dtd"
   xmlns:inkscape="http://www.inkscape.org/namespaces/inkscape"
   width="11"
   height="11"
   id="svg2484"
   sodipodi:version="0.32"
   inkscape:version="0.91+devel+osxmenu r12911"
   version="1.0"
   sodipodi:docname="transilien-11.svg"
   inkscape:output_extension="org.inkscape.output.svg.inkscape"
   viewBox="0 0 11 11">
  <defs
     id="defs2486" />
  <sodipodi:namedview
     id="base"
     pagecolor="#ffffff"
     bordercolor="#666666"
     borderopacity="1.0"
     inkscape:pageopacity="0.0"
     inkscape:pageshadow="2"
     inkscape:zoom="40.105646"
     inkscape:cx="4.3154869"
     inkscape:cy="5.0673636"
     inkscape:document-units="px"
     inkscape:current-layer="layer1"
     showgrid="true"
     inkscape:window-x="15"
     inkscape:window-y="0"
     inkscape:window-maximized="0"
     width="12px"
     showguides="true"
     inkscape:guide-bbox="true"
     inkscape:snap-bbox="true"
     inkscape:bbox-nodes="true"
     inkscape:bbox-paths="true"
     inkscape:snap-bbox-edge-midpoints="true"
     inkscape:snap-bbox-midpoints="true"
     inkscape:object-paths="true"
     inkscape:snap-intersection-paths="true"
     inkscape:object-nodes="true"
     inkscape:snap-smooth-nodes="true">
    <inkscape:grid
       type="xygrid"
       id="grid2991"
       empspacing="2"
       visible="true"
       enabled="true"
       snapvisiblegridlinesonly="true"
       spacingx="0.5"
       spacingy="0.5"
       color="#ff0000"
       opacity="0.1254902" />
  </sodipodi:namedview>
  <metadata
     id="metadata2489">
    <rdf:RDF>
      <cc:Work
         rdf:about="">
        <dc:format>image/svg+xml</dc:format>
        <dc:type
           rdf:resource="http://purl.org/dc/dcmitype/StillImage" />
        <dc:title />
      </cc:Work>
    </rdf:RDF>
  </metadata>
  <g
     inkscape:label="Calque 1"
     inkscape:groupmode="layer"
     id="layer1"
     transform="translate(1125.7177,-1007.5985)">
    <rect
       style="opacity:1;fill:#ffffff;fill-opacity:1;stroke:none;stroke-width:2;stroke-linecap:round;stroke-linejoin:round;stroke-miterlimit:4;stroke-dasharray:none;stroke-dashoffset:0;stroke-opacity:1;marker:none"
       id="rect42995"
       width="10.000124"
       height="10.000072"
       x="-1125.2178"
       y="1008.0984"
       rx="1.4999281"
       ry="1.4999281" />
    <g
       id="g3812">
      <path
         style="fill:#0079ac;fill-opacity:1;stroke:none"
         d="M 2,0 C 0.892,0 0,0.892 0,2 l 0,7 c 0,1.108 0.892,2 2,2 l 7,0 c 1.108,0 2,-0.892 2,-2 L 11,2 C 11,0.892 10.108,0 9,0 Z m 0,0.9980469 7,0 C 9.5721,0.9980469 10.001953,1.4279 10.001953,2 l 0,7 C 10.001953,9.5719 9.5721,10.001953 9,10.001953 l -7,0 C 1.4283,10.001953 0.9980469,9.5717 0.9980469,9 l 0,-7 C 0.9980469,1.4279 1.428,0.9980469 2,0.9980469 Z M 4.25,2.5 C 3.8345,2.5 3.5,2.8345 3.5,3.25 l 0,3.5 C 3.5,7.1655 3.8345,7.5 4.25,7.5 L 4.5,7.5 3,9 4,9 5,8 6,8 7,9 8,9 6.5,7.5 6.75,7.5 C 7.1655,7.5 7.5,7.1655 7.5,6.75 l 0,-3.5 C 7.5,2.8345 7.1655,2.5 6.75,2.5 Z M 4.5,3 6.5,3 C 6.7769941,3 7,3.2230059 7,3.5 7,3.7769941 6.7769941,4 6.5,4 l -2,0 C 4.2230059,4 4,3.7769941 4,3.5 4,3.2230059 4.2230059,3 4.5,3 Z M 4,5 4.5,5 4.5,5.5 4,5.5 Z M 6.5,5 7,5 7,5.5 6.5,5.5 Z"
         transform="translate(-1125.7177,1007.5985)"
         id="rect4162"
         inkscape:connector-curvature="0"
         sodipodi:nodetypes="ssssssssssssssssssssssccccccccsssssssssssscccccccccc" />
    </g>
  </g>
</svg>
