<?xml version="1.0" encoding="UTF-8" standalone="no"?>
<!-- Created with Inkscape (http://www.inkscape.org/) -->

<svg
   xmlns:dc="http://purl.org/dc/elements/1.1/"
   xmlns:cc="http://creativecommons.org/ns#"
   xmlns:rdf="http://www.w3.org/1999/02/22-rdf-syntax-ns#"
   xmlns:svg="http://www.w3.org/2000/svg"
   xmlns="http://www.w3.org/2000/svg"
   xmlns:sodipodi="http://sodipodi.sourceforge.net/DTD/sodipodi-0.dtd"
   xmlns:inkscape="http://www.inkscape.org/namespaces/inkscape"
   width="18"
   height="18"
   id="svg2484"
   sodipodi:version="0.32"
   inkscape:version="0.91+devel+osxmenu r12911"
   version="1.0"
   sodipodi:docname="transilien-18.svg"
   inkscape:output_extension="org.inkscape.output.svg.inkscape"
   viewBox="0 0 18 18">
  <defs
     id="defs2486" />
  <sodipodi:namedview
     id="base"
     pagecolor="#ffffff"
     bordercolor="#666666"
     borderopacity="1.0"
     inkscape:pageopacity="0.0"
     inkscape:pageshadow="2"
     inkscape:zoom="22.627417"
     inkscape:cx="-3.7876894"
     inkscape:cy="9.4606642"
     inkscape:document-units="px"
     inkscape:current-layer="layer1"
     showgrid="true"
     inkscape:window-width="1540"
     inkscape:window-height="956"
     inkscape:window-x="18"
     inkscape:window-y="23"
     inkscape:window-maximized="0"
     inkscape:snap-bbox="true"
     inkscape:snap-nodes="true">
    <inkscape:grid
       type="xygrid"
       id="grid2991"
       empspacing="2"
       visible="true"
       enabled="true"
       snapvisiblegridlinesonly="true" />
  </sodipodi:namedview>
  <metadata
     id="metadata2489">
    <rdf:RDF>
      <cc:Work
         rdf:about="">
        <dc:format>image/svg+xml</dc:format>
        <dc:type
           rdf:resource="http://purl.org/dc/dcmitype/StillImage" />
        <dc:title />
      </cc:Work>
    </rdf:RDF>
  </metadata>
  <g
     inkscape:label="Calque 1"
     inkscape:groupmode="layer"
     id="layer1"
     transform="translate(1125.7177,-1000.5985)"
     style="display:inline">
    <g
       id="g3018">
      <g
         transform="matrix(0.0581986,0,0,0.0581986,-1116.1461,991.08678)"
         id="g3038"
         inkscape:label="Calque 1"
         style="fill:#ffffff;stroke:none">
        <g
           id="g3040"
           style="fill:#ffffff;stroke:none">
          <g
             id="g3042"
             transform="translate(346.23962,22.336208)"
             style="fill:#ffffff;stroke:none">
            <g
               style="fill:#ffffff;stroke:none"
               inkscape:label="Calque 1"
               id="g3044"
               transform="translate(-597.84164,-361.66719)">
              <g
                 style="fill:#ffffff;stroke:none"
                 id="g3046">
                <g
                   style="fill:#ffffff;stroke:none"
                   transform="matrix(1.0136364,0,0,1.0136364,-6.3061891,-6.3640296)"
                   id="g3048" />
              </g>
            </g>
          </g>
        </g>
      </g>
      <g
         style="stroke:#0062ac;stroke-opacity:1"
         inkscape:label="Calque 1"
         id="g2757"
         transform="matrix(0.04516129,0,0,0.04516084,-1116.2746,995.23397)">
        <g
           style="stroke:#0062ac;stroke-opacity:1"
           id="g2656">
          <g
             style="fill:#ffffff;stroke:#0062ac;stroke-opacity:1"
             transform="translate(346.23962,22.336208)"
             id="g2840">
            <g
               transform="translate(-597.84164,-361.66719)"
               id="g2639"
               inkscape:label="Calque 1"
               style="fill:#ffffff;stroke:#0062ac;stroke-opacity:1">
              <g
                 id="g2628"
                 style="fill:#ffffff;stroke:#0062ac;stroke-opacity:1">
                <g
                   id="g6673"
                   transform="matrix(1.0136364,0,0,1.0136364,-6.3061891,-6.3640296)"
                   style="fill:#ffffff;stroke:#0062ac;stroke-opacity:1">
                  <path
                     style="color:#000000;font-style:normal;font-variant:normal;font-weight:normal;font-stretch:normal;font-size:medium;line-height:normal;font-family:Sans;-inkscape-font-specification:Sans;text-indent:0;text-align:start;text-decoration:none;text-decoration-line:none;letter-spacing:normal;word-spacing:normal;text-transform:none;direction:ltr;block-progression:tb;writing-mode:lr-tb;baseline-shift:baseline;text-anchor:start;display:inline;overflow:visible;visibility:visible;fill:#0079ac;fill-opacity:1;fill-rule:nonzero;stroke:none;stroke-width:1;marker:none;enable-background:accumulate"
                     d="M 4.40625 2.015625 C 3.0910525 2.015625 2.015625 3.0910656 2.015625 4.40625 L 2.015625 13.595703 C 2.015625 14.910887 3.0910525 15.984375 4.40625 15.984375 L 13.59375 15.984375 C 14.908948 15.984375 15.984375 14.910887 15.984375 13.595703 L 15.984375 4.40625 C 15.984375 3.0910656 14.908947 2.015625 13.59375 2.015625 L 4.40625 2.015625 z M 4.40625 3.015625 L 13.59375 3.015625 C 14.372243 3.015625 14.984375 3.627766 14.984375 4.40625 L 14.984375 13.595703 C 14.984375 14.374187 14.372242 14.984375 13.59375 14.984375 L 4.40625 14.984375 C 3.6277582 14.984375 3.015625 14.374187 3.015625 13.595703 L 3.015625 4.40625 C 3.015625 3.627766 3.6277582 3.015625 4.40625 3.015625 z M 7 4 C 6.446 4 6 4.4205 6 4.9375 L 6 10.0625 C 6 10.5795 6.446 11 7 11 L 5.5 14 L 7 14 L 8 12 L 10 12 L 11 14 L 12.5 14 L 11 11 C 11.554 11 12 10.5795 12 10.0625 L 12 4.9375 C 12 4.4205 11.554 4 11 4 L 7 4 z M 7.5 5 L 10.5 5 C 10.777 5 11 5.223 11 5.5 L 11 6.5 C 11 6.777 10.777 7 10.5 7 L 7.5 7 C 7.223 7 7 6.777 7 6.5 L 7 5.5 C 7 5.223 7.223 5 7.5 5 z M 7 8 L 8 8 L 8 9 L 7 9 L 7 8 z M 10 8 L 11 8 L 11 9 L 10 9 L 10 8 z "
                     transform="matrix(21.844971,0,0,21.845188,48.154341,458.23356)"
                     id="rect2993" />
                </g>
              </g>
            </g>
          </g>
        </g>
      </g>
    </g>
  </g>
</svg>
