<?xml version="1.0" encoding="UTF-8" standalone="no"?>
<!-- Created with Inkscape (http://www.inkscape.org/) -->

<svg
   xmlns:dc="http://purl.org/dc/elements/1.1/"
   xmlns:cc="http://creativecommons.org/ns#"
   xmlns:rdf="http://www.w3.org/1999/02/22-rdf-syntax-ns#"
   xmlns:svg="http://www.w3.org/2000/svg"
   xmlns="http://www.w3.org/2000/svg"
   xmlns:sodipodi="http://sodipodi.sourceforge.net/DTD/sodipodi-0.dtd"
   xmlns:inkscape="http://www.inkscape.org/namespaces/inkscape"
   width="15"
   height="15"
   id="svg2484"
   sodipodi:version="0.32"
   inkscape:version="0.91 r13725"
   version="1.0"
   sodipodi:docname="transilien-15.svg"
   inkscape:output_extension="org.inkscape.output.svg.inkscape"
   viewBox="0 0 15 15">
  <defs
     id="defs2486" />
  <sodipodi:namedview
     id="base"
     pagecolor="#ffffff"
     bordercolor="#666666"
     borderopacity="1.0"
     inkscape:pageopacity="0.0"
     inkscape:pageshadow="2"
     inkscape:zoom="1"
     inkscape:cx="9.4088686"
     inkscape:cy="8.6652578"
     inkscape:document-units="px"
     inkscape:current-layer="layer1"
     showgrid="false"
     inkscape:window-width="1280"
     inkscape:window-height="755"
     inkscape:window-x="8"
     inkscape:window-y="1"
     inkscape:window-maximized="0"
     inkscape:snap-bbox="true"
     inkscape:snap-nodes="true"
     inkscape:bbox-paths="true"
     inkscape:bbox-nodes="true"
     inkscape:snap-bbox-edge-midpoints="true"
     inkscape:object-paths="true"
     inkscape:snap-intersection-paths="true"
     inkscape:object-nodes="true"
     inkscape:snap-smooth-nodes="true">
    <inkscape:grid
       type="xygrid"
       id="grid2991"
       empspacing="2"
       visible="true"
       enabled="true"
       snapvisiblegridlinesonly="true"
       spacingx="0.5"
       spacingy="0.5"
       color="#ff0000"
       opacity="0.1254902" />
  </sodipodi:namedview>
  <metadata
     id="metadata2489">
    <rdf:RDF>
      <cc:Work
         rdf:about="">
        <dc:format>image/svg+xml</dc:format>
        <dc:type
           rdf:resource="http://purl.org/dc/dcmitype/StillImage" />
        <dc:title></dc:title>
      </cc:Work>
    </rdf:RDF>
  </metadata>
  <g
     inkscape:label="Calque 1"
     inkscape:groupmode="layer"
     id="layer1"
     transform="translate(1125.7177,-1003.5985)"
     style="display:inline">
    <g
       id="g3018"
       transform="translate(-1.5000002,1.5156252)">
      <g
         transform="matrix(0.0581986,0,0,0.0581986,-1116.1461,991.08678)"
         id="g3038"
         inkscape:label="Calque 1"
         style="fill:#ffffff;stroke:none">
        <g
           id="g3040"
           style="fill:#ffffff;stroke:none">
          <g
             id="g3042"
             transform="translate(346.23962,22.336208)"
             style="fill:#ffffff;stroke:none">
            <g
               style="fill:#ffffff;stroke:none"
               inkscape:label="Calque 1"
               id="g3044"
               transform="translate(-597.84164,-361.66719)">
              <g
                 style="fill:#ffffff;stroke:none"
                 id="g3046">
                <g
                   style="fill:#ffffff;stroke:none"
                   transform="matrix(1.0136364,0,0,1.0136364,-6.3061891,-6.3640296)"
                   id="g3048" />
              </g>
            </g>
          </g>
        </g>
      </g>
      <g
         style="stroke:#0062ac;stroke-opacity:1"
         inkscape:label="Calque 1"
         id="g2757"
         transform="matrix(0.04516129,0,0,0.04516084,-1116.2746,995.23397)">
        <g
           style="stroke:#0062ac;stroke-opacity:1"
           id="g2656">
          <g
             style="fill:#ffffff;stroke:#0062ac;stroke-opacity:1"
             transform="translate(346.23962,22.336208)"
             id="g2840">
            <g
               transform="translate(-597.84164,-361.66719)"
               id="g2639"
               inkscape:label="Calque 1"
               style="fill:#ffffff;stroke:#0062ac;stroke-opacity:1">
              <g
                 id="g2628"
                 style="fill:#ffffff;stroke:#0062ac;stroke-opacity:1">
                <g
                   id="g6673"
                   transform="matrix(1.0136364,0,0,1.0136364,-6.3061891,-6.3640296)"
                   style="fill:#ffffff;stroke:#0062ac;stroke-opacity:1">
                  <path
                     style="color:#000000;font-style:normal;font-variant:normal;font-weight:normal;font-stretch:normal;font-size:medium;line-height:normal;font-family:Sans;-inkscape-font-specification:Sans;text-indent:0;text-align:start;text-decoration:none;text-decoration-line:none;letter-spacing:normal;word-spacing:normal;text-transform:none;direction:ltr;block-progression:tb;writing-mode:lr-tb;baseline-shift:baseline;text-anchor:start;display:inline;overflow:visible;visibility:visible;fill:#0079ac;fill-opacity:1;fill-rule:nonzero;stroke:none;stroke-width:1;marker:none;enable-background:accumulate"
                     d="m 4.40625,2.015625 c -1.3151975,0 -2.390625,1.0754406 -2.390625,2.390625 l 0,9.189453 c 0,1.315184 1.0754275,2.388672 2.390625,2.388672 l 9.1875,0 c 1.315198,0 2.390625,-1.073488 2.390625,-2.388672 l 0,-9.189453 c 0,-1.3151844 -1.075428,-2.390625 -2.390625,-2.390625 z m 0,1 9.1875,0 c 0.778493,0 1.390625,0.612141 1.390625,1.390625 l 0,9.189453 c 0,0.778484 -0.612133,1.388672 -1.390625,1.388672 l -9.1875,0 c -0.7784918,0 -1.390625,-0.610188 -1.390625,-1.388672 l 0,-9.189453 c 0,-0.778484 0.6121332,-1.390625 1.390625,-1.390625 z M 7,4 C 6.446,4 6,4.4205 6,4.9375 l 0,5.125 C 6,10.5795 6.446,11 7,11 l -1.5,3 1.5,0 1,-2 2,0 1,2 1.5,0 -1.5,-3 c 0.554,0 1,-0.4205 1,-0.9375 l 0,-5.125 C 12,4.4205 11.554,4 11,4 Z m 0.5,1 3,0 C 10.777,5 11,5.223 11,5.5 l 0,1 C 11,6.777 10.777,7 10.5,7 l -3,0 C 7.223,7 7,6.777 7,6.5 l 0,-1 C 7,5.223 7.223,5 7.5,5 Z M 7,8.484375 l 1,0 0,1 -1,0 z m 3,0 1,0 0,1 -1,0 z"
                     transform="matrix(21.844971,0,0,21.845188,48.154341,458.23356)"
                     id="rect2993"
                     inkscape:connector-curvature="0"
                     sodipodi:nodetypes="sssssssssssssssssssssccccccccssssssssssssscccccccccc" />
                </g>
              </g>
            </g>
          </g>
        </g>
      </g>
    </g>
  </g>
</svg>
