<?xml version="1.0" encoding="UTF-8" standalone="no"?>
<!-- Created with Inkscape (http://www.inkscape.org/) -->

<svg
   xmlns:dc="http://purl.org/dc/elements/1.1/"
   xmlns:cc="http://creativecommons.org/ns#"
   xmlns:rdf="http://www.w3.org/1999/02/22-rdf-syntax-ns#"
   xmlns:svg="http://www.w3.org/2000/svg"
   xmlns="http://www.w3.org/2000/svg"
   xmlns:sodipodi="http://sodipodi.sourceforge.net/DTD/sodipodi-0.dtd"
   xmlns:inkscape="http://www.inkscape.org/namespaces/inkscape"
   width="11"
   height="11"
   id="svg2484"
   sodipodi:version="0.32"
   inkscape:version="0.91 r13725"
   version="1.0"
   sodipodi:docname="transilien-11.svg"
   inkscape:output_extension="org.inkscape.output.svg.inkscape"
   viewBox="0 0 11 11">
  <defs
     id="defs2486" />
  <sodipodi:namedview
     id="base"
     pagecolor="#ffffff"
     bordercolor="#666666"
     borderopacity="1.0"
     inkscape:pageopacity="0.0"
     inkscape:pageshadow="2"
     inkscape:zoom="56.717949"
     inkscape:cx="5.31531"
     inkscape:cy="5.1824901"
     inkscape:document-units="px"
     inkscape:current-layer="layer1"
     showgrid="true"
     inkscape:window-width="707"
     inkscape:window-height="703"
     inkscape:window-x="15"
     inkscape:window-y="0"
     inkscape:window-maximized="0"
     width="12px"
     showguides="true"
     inkscape:guide-bbox="true"
     inkscape:snap-bbox="true"
     inkscape:bbox-nodes="true"
     inkscape:bbox-paths="true"
     inkscape:snap-bbox-edge-midpoints="true"
     inkscape:snap-bbox-midpoints="true"
     inkscape:object-paths="true"
     inkscape:snap-intersection-paths="true"
     inkscape:object-nodes="true"
     inkscape:snap-smooth-nodes="true">
    <inkscape:grid
       type="xygrid"
       id="grid2991"
       empspacing="2"
       visible="true"
       enabled="true"
       snapvisiblegridlinesonly="true"
       spacingx="0.5"
       spacingy="0.5"
       color="#ff0000"
       opacity="0.1254902" />
  </sodipodi:namedview>
  <metadata
     id="metadata2489">
    <rdf:RDF>
      <cc:Work
         rdf:about="">
        <dc:format>image/svg+xml</dc:format>
        <dc:type
           rdf:resource="http://purl.org/dc/dcmitype/StillImage" />
        <dc:title></dc:title>
      </cc:Work>
    </rdf:RDF>
  </metadata>
  <g
     inkscape:label="Calque 1"
     inkscape:groupmode="layer"
     id="layer1"
     transform="translate(1125.7177,-1007.5985)">
    <rect
       style="opacity:1;fill:#ffffff;fill-opacity:1;stroke:none;stroke-width:2;stroke-linecap:round;stroke-linejoin:round;stroke-miterlimit:4;stroke-dasharray:none;stroke-dashoffset:0;stroke-opacity:1;marker:none"
       id="rect42995"
       width="8"
       height="8"
       x="-1123.7177"
       y="1008.5985" />
    <g
       id="g3812">
      <path
         style="fill:#0079ac;fill-opacity:1;stroke:none"
         d="m -1123.2177,1008.0985 c -1.108,0 -2,0.892 -2,2 l 0,6 c 0,1.108 0.892,2 2,2 l 6,0 c 1.108,0 2,-0.892 2,-2 l 0,-6 c 0,-1.108 -0.892,-2 -2,-2 z m 0,0.998 6,0 c 0.5721,0 1.002,0.4299 1.002,1.002 l 0,6 c 0,0.5719 -0.4299,1.002 -1.002,1.002 l -6,0 c -0.5717,0 -1.002,-0.4303 -1.002,-1.002 l 0,-6 c 0,-0.5721 0.43,-1.002 1.002,-1.002 z m 1.75,1.002 c -0.4155,0 -0.75,0.3345 -0.75,0.75 l 0,3.5 c 0,0.4155 0.3345,0.75 0.75,0.75 l 0.25,0 -1.5,1.5 1,0 1,-1 1,0 1,1 1,0 -1.5,-1.5 0.25,0 c 0.4155,0 0.75,-0.3345 0.75,-0.75 l 0,-3.5 c 0,-0.4155 -0.3345,-0.75 -0.75,-0.75 z m -0.25,2.5 0.5,0 0,0.5 -0.5,0 z m 2.5,0 0.5,0 0,0.5 -0.5,0 z"
         id="rect4162"
         inkscape:connector-curvature="0"
         sodipodi:nodetypes="ssssssssssssssssssssssccccccccssssscccccccccc" />
    </g>
    <rect
       style="opacity:1;fill:#ffffff;fill-opacity:1;stroke:none;stroke-width:1;stroke-linecap:round;stroke-linejoin:miter;stroke-miterlimit:4;stroke-dasharray:none;stroke-dashoffset:0;stroke-opacity:1"
       id="rect3337"
       width="3"
       height="1"
       x="-1121.7177"
       y="1010.5985"
       ry="0.49998927" />
  </g>
</svg>
