<?xml version="1.0" encoding="UTF-8" standalone="no"?>
<svg
   xmlns:dc="http://purl.org/dc/elements/1.1/"
   xmlns:cc="http://creativecommons.org/ns#"
   xmlns:rdf="http://www.w3.org/1999/02/22-rdf-syntax-ns#"
   xmlns:svg="http://www.w3.org/2000/svg"
   xmlns="http://www.w3.org/2000/svg"
   xmlns:sodipodi="http://sodipodi.sourceforge.net/DTD/sodipodi-0.dtd"
   xmlns:inkscape="http://www.inkscape.org/namespaces/inkscape"
   width="11"
   height="11"
   id="svg2"
   version="1.1"
   inkscape:version="0.91+devel+osxmenu r12911"
   sodipodi:docname="u-bahn-11.svg"
   viewBox="0 0 11 11">
  <metadata
     id="metadata12">
    <rdf:RDF>
      <cc:Work
         rdf:about="">
        <dc:format>image/svg+xml</dc:format>
        <dc:type
           rdf:resource="http://purl.org/dc/dcmitype/StillImage" />
        <dc:title />
      </cc:Work>
    </rdf:RDF>
  </metadata>
  <defs
     id="defs10" />
  <sodipodi:namedview
     pagecolor="#ffffff"
     bordercolor="#666666"
     borderopacity="1"
     objecttolerance="10"
     gridtolerance="10"
     guidetolerance="10"
     inkscape:pageopacity="0"
     inkscape:pageshadow="2"
     id="namedview8"
     showgrid="true"
     inkscape:zoom="32"
     inkscape:cx="5.7236596"
     inkscape:cy="5.2616942"
     inkscape:window-x="104"
     inkscape:window-y="75"
     inkscape:window-maximized="0"
     inkscape:current-layer="svg2"
     inkscape:document-units="px"
     inkscape:snap-bbox="true"
     inkscape:bbox-nodes="true"
     inkscape:bbox-paths="true"
     inkscape:snap-bbox-edge-midpoints="true"
     inkscape:object-paths="true"
     inkscape:snap-intersection-paths="true"
     inkscape:object-nodes="true"
     inkscape:snap-smooth-nodes="true">
    <inkscape:grid
       type="xygrid"
       id="grid2997"
       empspacing="2"
       visible="true"
       enabled="true"
       snapvisiblegridlinesonly="true"
       color="#ff0000"
       opacity="0.1254902"
       empcolor="#0000ff"
       empopacity="0.25098039"
       spacingx="0.5"
       spacingy="0.5" />
  </sodipodi:namedview>
  <rect
     style="opacity:1;fill:#ffffff;fill-opacity:1;stroke:none;stroke-width:2;stroke-linecap:round;stroke-linejoin:round;stroke-miterlimit:4;stroke-dasharray:none;stroke-dashoffset:0;stroke-opacity:1;marker:none"
     id="rect43001"
     width="8"
     height="8"
     x="1.5"
     y="1.5" />
  <g
     id="g3007"
     transform="translate(-0.5,-0.5)">
    <path
       style="fill:#3377a7;fill-opacity:1"
       d="m 1.5,2.5 0,7 c 0,0 0,1 1,1 l 7,0 c 0,0 1,0 1,-1 l 0,-7 c 0,0 0,-1 -1,-1 l -7,0 c -1,0 -1,1 -1,1 z m 1.5,0 1.5,0 0,4 C 4.5,7.5 5.28125,8 6,8 6.71875,8 7.5,7.5 7.5,6.5 l 0,-4 1.5,0 C 9,2.5 8.99586,4.9691074 9,7 9,8.5 7.5,9.5 6,9.5 4.5,9.5 3,8.5 3,7 Z"
       id="rect3272"
       inkscape:connector-curvature="0"
       sodipodi:nodetypes="cccccccccccssscccssc" />
  </g>
</svg>
