<?xml version="1.0" encoding="UTF-8" standalone="no"?>
<svg
   xmlns:dc="http://purl.org/dc/elements/1.1/"
   xmlns:cc="http://creativecommons.org/ns#"
   xmlns:rdf="http://www.w3.org/1999/02/22-rdf-syntax-ns#"
   xmlns:svg="http://www.w3.org/2000/svg"
   xmlns="http://www.w3.org/2000/svg"
   xmlns:sodipodi="http://sodipodi.sourceforge.net/DTD/sodipodi-0.dtd"
   xmlns:inkscape="http://www.inkscape.org/namespaces/inkscape"
   width="17"
   height="17"
   id="svg2"
   version="1.1"
   inkscape:version="0.91+devel+osxmenu r12911"
   sodipodi:docname="u-bahn-11.svg"
   viewBox="0 0 17 17">
  <metadata
     id="metadata12">
    <rdf:RDF>
      <cc:Work
         rdf:about="">
        <dc:format>image/svg+xml</dc:format>
        <dc:type
           rdf:resource="http://purl.org/dc/dcmitype/StillImage" />
        <dc:title />
      </cc:Work>
    </rdf:RDF>
  </metadata>
  <defs
     id="defs10" />
  <sodipodi:namedview
     pagecolor="#ffffff"
     bordercolor="#666666"
     borderopacity="1"
     objecttolerance="10"
     gridtolerance="10"
     guidetolerance="10"
     inkscape:pageopacity="0"
     inkscape:pageshadow="2"
     id="namedview8"
     showgrid="true"
     inkscape:zoom="32"
     inkscape:cx="3.396539"
     inkscape:cy="5.8122545"
     inkscape:window-x="104"
     inkscape:window-y="75"
     inkscape:window-maximized="0"
     inkscape:current-layer="svg2"
     inkscape:document-units="px"
     inkscape:snap-bbox="true"
     inkscape:bbox-nodes="true"
     inkscape:bbox-paths="true"
     inkscape:snap-bbox-edge-midpoints="true"
     inkscape:object-paths="true"
     inkscape:snap-intersection-paths="true"
     inkscape:object-nodes="true"
     inkscape:snap-smooth-nodes="true"
     showguides="false">
    <inkscape:grid
       type="xygrid"
       id="grid2997"
       empspacing="2"
       visible="true"
       enabled="true"
       snapvisiblegridlinesonly="true"
       color="#ff0000"
       opacity="0.1254902"
       empcolor="#0000ff"
       empopacity="0.25098039"
       spacingx="0.5"
       spacingy="0.5" />
  </sodipodi:namedview>
  <g
     id="g3007"
     transform="translate(-0.5,5.5)" />
  <path
     style="display:inline;opacity:1;fill:#5396c7;fill-opacity:1;stroke-width:0.89973533px;stroke:none;stroke-linecap:butt;stroke-linejoin:miter;stroke-miterlimit:4;stroke-dasharray:none;stroke-dashoffset:0;stroke-opacity:1"
     d="m 1,2 0,13 c 0,0 0,1 1,1 l 13,0 c 0,0 1,0 1,-1 L 16,2 C 16,2 16,1 15,1 L 2,1 C 1,1 1,2 1,2 Z"
     id="path7877" />
  <path
     style="display:inline;opacity:1;fill:#ffffff;fill-opacity:1;stroke-width:0.89973533px;stroke:none;stroke-linecap:butt;stroke-linejoin:miter;stroke-miterlimit:4;stroke-dasharray:none;stroke-dashoffset:0;stroke-opacity:1"
     d="m 3.4999991,2.984375 2.9902345,0 c 0,0 0.00236,3.8409958 0.0097,6.515625 -0.00649,1.139077 1,2.000001 2,2.000001 1,0 2.0032654,-0.860924 2.0097664,-2.000001 L 10.5,2.984375 13.5,3 c 0,0 -0.0059,3.6538191 0,6.5 C 13.5,12 11,14 8.5,14 6,14 3.4999998,12 3.4999998,9.5 c 1.221e-4,-0.441103 1e-4,-6.5156249 1e-4,-6.5156249 z"
     id="rect3272-4" />
</svg>
