<?xml version="1.0" encoding="UTF-8" standalone="no"?>
<!-- Created with Inkscape (http://www.inkscape.org/) -->

<svg
   xmlns:dc="http://purl.org/dc/elements/1.1/"
   xmlns:cc="http://creativecommons.org/ns#"
   xmlns:rdf="http://www.w3.org/1999/02/22-rdf-syntax-ns#"
   xmlns:svg="http://www.w3.org/2000/svg"
   xmlns="http://www.w3.org/2000/svg"
   xmlns:sodipodi="http://sodipodi.sourceforge.net/DTD/sodipodi-0.dtd"
   xmlns:inkscape="http://www.inkscape.org/namespaces/inkscape"
   version="1.1"
   width="18"
   height="18"
   id="svg3122"
   inkscape:version="0.91+devel+osxmenu r12911"
   sodipodi:docname="washington-metro-18.svg"
   viewBox="0 0 18 18">
  <sodipodi:namedview
     pagecolor="#ffffff"
     bordercolor="#666666"
     borderopacity="1"
     objecttolerance="10"
     gridtolerance="10"
     guidetolerance="10"
     inkscape:pageopacity="0"
     inkscape:pageshadow="2"
     inkscape:window-width="1920"
     inkscape:window-height="1031"
     id="namedview3924"
     showgrid="true"
     inkscape:zoom="24.861111"
     inkscape:cx="-0.30081419"
     inkscape:cy="5.0863309"
     inkscape:window-x="0"
     inkscape:window-y="23"
     inkscape:window-maximized="0"
     inkscape:current-layer="layer1"
     inkscape:document-units="px">
    <inkscape:grid
       type="xygrid"
       id="grid3926" />
  </sodipodi:namedview>
  <defs
     id="defs3124" />
  <metadata
     id="metadata3127">
    <rdf:RDF>
      <cc:Work
         rdf:about="">
        <dc:format>image/svg+xml</dc:format>
        <dc:type
           rdf:resource="http://purl.org/dc/dcmitype/StillImage" />
        <dc:title />
      </cc:Work>
    </rdf:RDF>
  </metadata>
  <g
     transform="translate(0,-1034.3622)"
     id="layer1">
    <rect
       width="18"
       height="18"
       x="0"
       y="1034.3622"
       id="rect4250"
       style="color:#000000;display:inline;overflow:visible;visibility:visible;fill:#ffffff;fill-opacity:0;fill-rule:evenodd;stroke:none;stroke-width:1px;marker:none;enable-background:accumulate" />
    <path
       style="color:#000000;display:inline;overflow:visible;visibility:visible;fill:#3a3836;fill-opacity:1;fill-rule:evenodd;stroke:none;stroke-width:1px;marker:none;enable-background:accumulate"
       d="M 4 3 C 3.446 3 3 3.4460015 3 4 L 3 14 C 3 14.553999 3.446 15 4 15 L 14 15 C 14.554 15 15 14.553999 15 14 L 15 4 C 15 3.4460015 14.554 3 14 3 L 4 3 z M 4 4 L 7.1289062 4 L 9.0078125 10.820312 L 10.865234 4 L 14 4 L 14 14 L 12.058594 14 L 12.058594 6.1289062 L 10.001953 14 L 7.9902344 14 L 5.9414062 6.1289062 L 5.9414062 14 L 4 14 L 4 4 z "
       transform="translate(0,1034.3622)"
       id="rect3420" />
  </g>
</svg>
