<?xml version="1.0" encoding="UTF-8" standalone="no"?>
<svg
   xmlns:dc="http://purl.org/dc/elements/1.1/"
   xmlns:cc="http://creativecommons.org/ns#"
   xmlns:rdf="http://www.w3.org/1999/02/22-rdf-syntax-ns#"
   xmlns:svg="http://www.w3.org/2000/svg"
   xmlns="http://www.w3.org/2000/svg"
   xmlns:sodipodi="http://sodipodi.sourceforge.net/DTD/sodipodi-0.dtd"
   xmlns:inkscape="http://www.inkscape.org/namespaces/inkscape"
   width="15"
   height="15"
   id="svg3115"
   version="1.1"
   inkscape:version="0.91 r13725"
   sodipodi:docname="wiener-linien-15.svg"
   viewBox="0 0 15 15">
  <metadata
     id="metadata3125">
    <rdf:RDF>
      <cc:Work
         rdf:about="">
        <dc:format>image/svg+xml</dc:format>
        <dc:type
           rdf:resource="http://purl.org/dc/dcmitype/StillImage" />
        <dc:title></dc:title>
      </cc:Work>
    </rdf:RDF>
  </metadata>
  <defs
     id="defs3123" />
  <sodipodi:namedview
     pagecolor="#ffffff"
     bordercolor="#666666"
     borderopacity="1"
     objecttolerance="10"
     gridtolerance="10"
     guidetolerance="10"
     inkscape:pageopacity="0"
     inkscape:pageshadow="2"
     inkscape:window-width="1280"
     inkscape:window-height="755"
     id="namedview3121"
     showgrid="false"
     inkscape:zoom="1"
     inkscape:cx="8.419079"
     inkscape:cy="8.1596041"
     inkscape:window-x="-2"
     inkscape:window-y="0"
     inkscape:window-maximized="0"
     inkscape:current-layer="layer2"
     showguides="false"
     inkscape:snap-grids="true"
     inkscape:snap-to-guides="true"
     inkscape:snap-bbox="true"
     inkscape:guide-bbox="true"
     inkscape:document-units="px"
     inkscape:bbox-paths="true"
     inkscape:bbox-nodes="true"
     inkscape:snap-bbox-edge-midpoints="true"
     inkscape:object-paths="true"
     inkscape:snap-intersection-paths="true"
     inkscape:object-nodes="true"
     inkscape:snap-smooth-nodes="true">
    <inkscape:grid
       type="xygrid"
       id="grid3305"
       empspacing="2"
       visible="true"
       enabled="true"
       snapvisiblegridlinesonly="true"
       spacingx="0.5"
       spacingy="0.5"
       color="#ff0000"
       opacity="0.1254902" />
    <sodipodi:guide
       orientation="1,0"
       position="8.5073785,8.374796"
       id="guide3044" />
  </sodipodi:namedview>
  <g
     inkscape:groupmode="layer"
     id="layer1"
     inkscape:label="Original"
     style="display:none"
     transform="translate(0,-3)">
    <circle
       style="fill:#025ca0"
       transform="matrix(0.02811245,0,0,0.02811245,1.9606244,1.9718876)"
       id="circle2988"
       r="249"
       cy="250"
       cx="250" />
    <path
       style="fill:none;stroke:#ffffff;stroke-width:2.68007326"
       inkscape:connector-curvature="0"
       id="path2990"
       d="m 6.0898853,4.8996509 0,5.3054621 a 2.8988548,2.8988548 0 0 0 5.7977047,0 l 0,-5.3054621" />
  </g>
  <g
     inkscape:groupmode="layer"
     id="layer2"
     inkscape:label="Layer"
     transform="translate(0,-3)">
    <circle
       style="opacity:1;fill:#ffffff;fill-opacity:1;stroke:none;stroke-width:2;stroke-linecap:round;stroke-linejoin:round;stroke-miterlimit:4;stroke-dasharray:none;stroke-dashoffset:0;stroke-opacity:1;marker:none"
       id="path42997"
       cx="8.5"
       cy="8.375"
       r="5.375" />
    <path
       inkscape:connector-curvature="0"
       id="circle3117"
       d="M 7.5,4 A 6.5000006,6.5000006 0 0 0 1,10.5 6.5000006,6.5000006 0 0 0 7.5,17 6.5000006,6.5000006 0 0 0 14,10.5 6.5000006,6.5000006 0 0 0 7.5,4 Z m -3.4882812,3 2,0 0,4.5 c 0,0.5 0.5,1.5 1.5,1.5 1,0 1.5,-1 1.5,-1.5 l 0,-4.5 2.0000002,0 0,4 c -0.0028,2.162274 -1.3377252,4 -3.5000002,4 -2.1622749,0 -3.4972,-1.837726 -3.5,-4 l 0,-4 z"
       style="fill:#0079ac;fill-opacity:1;stroke-width:0.02610442" />
  </g>
</svg>
