<?xml version="1.0" encoding="UTF-8" standalone="no"?>
<svg
   xmlns:dc="http://purl.org/dc/elements/1.1/"
   xmlns:cc="http://creativecommons.org/ns#"
   xmlns:rdf="http://www.w3.org/1999/02/22-rdf-syntax-ns#"
   xmlns:svg="http://www.w3.org/2000/svg"
   xmlns="http://www.w3.org/2000/svg"
   xmlns:sodipodi="http://sodipodi.sourceforge.net/DTD/sodipodi-0.dtd"
   xmlns:inkscape="http://www.inkscape.org/namespaces/inkscape"
   width="12"
   height="12"
   id="svg3115"
   version="1.1"
   inkscape:version="0.91+devel+osxmenu r12911"
   sodipodi:docname="wiener-linien-12.svg"
   viewBox="0 0 12 12">
  <metadata
     id="metadata3125">
    <rdf:RDF>
      <cc:Work
         rdf:about="">
        <dc:format>image/svg+xml</dc:format>
        <dc:type
           rdf:resource="http://purl.org/dc/dcmitype/StillImage" />
        <dc:title />
      </cc:Work>
    </rdf:RDF>
  </metadata>
  <defs
     id="defs3123" />
  <sodipodi:namedview
     pagecolor="#ffffff"
     bordercolor="#666666"
     borderopacity="1"
     objecttolerance="10"
     gridtolerance="10"
     guidetolerance="10"
     inkscape:pageopacity="0"
     inkscape:pageshadow="2"
     inkscape:window-width="837"
     inkscape:window-height="716"
     id="namedview3121"
     showgrid="false"
     inkscape:zoom="32"
     inkscape:cx="6.5415713"
     inkscape:cy="6.3094559"
     inkscape:window-x="309"
     inkscape:window-y="23"
     inkscape:window-maximized="0"
     inkscape:current-layer="svg3115"
     inkscape:document-units="px">
    <inkscape:grid
       type="xygrid"
       id="grid3305"
       empspacing="2"
       visible="true"
       enabled="true"
       snapvisiblegridlinesonly="true" />
  </sodipodi:namedview>
  <g
     id="g3007">
    <path
       style="fill:#0079ac;fill-opacity:1;stroke-width:0.02012556"
       d="M 6 1 A 5.0112644 5.0112644 0 0 0 0.98828125 6.0117188 A 5.0112644 5.0112644 0 0 0 6 11.023438 A 5.0112644 5.0112644 0 0 0 11.011719 6.0117188 A 5.0112644 5.0112644 0 0 0 6 1 z M 3 3 L 5 3 L 5 6.5 C 5 7 5.5 7.5 6 7.5 C 6.5 7.5 7 7 7 6.5 L 7 3 L 9 3 L 9 3.5 L 9 6.5 C 8.9978328 8.1670345 7.6748477 9.4804688 6.0078125 9.4804688 C 4.3407772 9.4804688 3.00216 8.1670345 3 6.5 L 3 3.5 L 3 3 z "
       id="circle3117-7" />
  </g>
</svg>
