<?xml version="1.0" encoding="UTF-8" standalone="no"?>
<!-- Created with Inkscape (http://www.inkscape.org/) -->

<svg
   xmlns:dc="http://purl.org/dc/elements/1.1/"
   xmlns:cc="http://creativecommons.org/ns#"
   xmlns:rdf="http://www.w3.org/1999/02/22-rdf-syntax-ns#"
   xmlns:svg="http://www.w3.org/2000/svg"
   xmlns="http://www.w3.org/2000/svg"
   xmlns:sodipodi="http://sodipodi.sourceforge.net/DTD/sodipodi-0.dtd"
   xmlns:inkscape="http://www.inkscape.org/namespaces/inkscape"
   version="1.1"
   width="11"
   height="11"
   id="svg4764"
   inkscape:version="0.91 r13725"
   sodipodi:docname="heliport-11.svg"
   viewBox="0 0 11 11">
  <sodipodi:namedview
     pagecolor="#ffffff"
     bordercolor="#666666"
     borderopacity="1"
     objecttolerance="10"
     gridtolerance="10"
     guidetolerance="10"
     inkscape:pageopacity="0"
     inkscape:pageshadow="2"
     inkscape:window-width="969"
     inkscape:window-height="687"
     id="namedview3340"
     inkscape:document-units="px"
     showgrid="false"
     inkscape:zoom="21.454545"
     inkscape:cx="3.8106819"
     inkscape:cy="5.1852716"
     inkscape:window-x="0"
     inkscape:window-y="23"
     inkscape:window-maximized="0"
     inkscape:current-layer="svg4764"
     inkscape:snap-bbox="true"
     inkscape:bbox-nodes="true"
     inkscape:bbox-paths="true"
     inkscape:snap-bbox-edge-midpoints="true"
     inkscape:snap-bbox-midpoints="true"
     inkscape:object-paths="true"
     inkscape:snap-intersection-paths="true"
     inkscape:snap-smooth-nodes="true"
     inkscape:object-nodes="true"
     showguides="true"
     inkscape:guide-bbox="true">
    <inkscape:grid
       type="xygrid"
       id="grid3333"
       spacingy="0.5"
       spacingx="0.5"
       color="#ff0000"
       opacity="0.1254902"
       empspacing="2" />
  </sodipodi:namedview>
  <defs
     id="defs4766" />
  <metadata
     id="metadata4769">
    <rdf:RDF>
      <cc:Work
         rdf:about="">
        <dc:format>image/svg+xml</dc:format>
        <dc:type
           rdf:resource="http://purl.org/dc/dcmitype/StillImage" />
        <dc:title></dc:title>
      </cc:Work>
    </rdf:RDF>
  </metadata>
  <path
     style="opacity:1;fill:#000000;fill-opacity:1;stroke:none;stroke-width:1;stroke-linecap:round;stroke-linejoin:miter;stroke-miterlimit:4;stroke-dasharray:none;stroke-dashoffset:0;stroke-opacity:1"
     d="M 3.5,2 C 3.223,2 3,2.223 3,2.5 3,2.777 3.223,3 3.5,3 L 6,3 6,4 2.9140625,4 C 2.6958213,3.3813582 2.1008926,2.9763003 1.4453125,3 1.3956373,3.0020944 1.346097,3.0066573 1.296875,3.0136719 0.48551468,3.1250574 -0.08653243,3.8666321 0.01171875,4.6796875 0.10968724,5.4927645 0.84169334,6.0769784 1.65625,5.9921875 1.9800545,5.9574548 2.2837598,5.8182851 2.5214844,5.5957031 L 5.5,9 10.035823,9 C 10.035823,9 11,9 11,8.0007886 L 11,5.9238281 8.9648438,4 7,4 7,3 9.5,3 C 9.777,3 10,2.777 10,2.5 10,2.223 9.777,2 9.5,2 Z M 1.4824219,4 c 0.2533519,-0.00888 0.4732539,0.1732559 0.5117187,0.4238281 l 0.00391,0.03125 C 2.0230641,4.72739 1.8246762,4.9692841 1.5527344,4.9980469 1.2809757,5.0266907 1.0365588,4.8318531 1.0039062,4.5605469 0.97036591,4.2892757 1.1608801,4.0413463 1.4316406,4.0039062 1.4484903,4.0017423 1.4654394,4.0004385 1.4824219,4 Z M 8,5 10,7 8,7 Z"
     id="path3335"
     inkscape:connector-curvature="0"
     sodipodi:nodetypes="ssscccccccccccccccssssccccccccccc" />
</svg>
