<?xml version="1.0" encoding="UTF-8" standalone="no"?>
<!-- Generator: Adobe Illustrator 17.1.0, SVG Export Plug-In . SVG Version: 6.00 Build 0)  -->

<svg
   xmlns:dc="http://purl.org/dc/elements/1.1/"
   xmlns:cc="http://creativecommons.org/ns#"
   xmlns:rdf="http://www.w3.org/1999/02/22-rdf-syntax-ns#"
   xmlns:svg="http://www.w3.org/2000/svg"
   xmlns="http://www.w3.org/2000/svg"
   xmlns:sodipodi="http://sodipodi.sourceforge.net/DTD/sodipodi-0.dtd"
   xmlns:inkscape="http://www.inkscape.org/namespaces/inkscape"
   version="1.1"
   id="svg4619"
   x="0px"
   y="0px"
   viewBox="0 0 17 17"
   enable-background="new 0 0 17 17"
   xml:space="preserve"
   inkscape:version="0.91 r13725"
   sodipodi:docname="rail-metro-17.svg"><metadata
     id="metadata8"><rdf:RDF><cc:Work
         rdf:about=""><dc:format>image/svg+xml</dc:format><dc:type
           rdf:resource="http://purl.org/dc/dcmitype/StillImage" /><dc:title></dc:title></cc:Work></rdf:RDF></metadata><defs
     id="defs6" /><sodipodi:namedview
     pagecolor="#ffffff"
     bordercolor="#666666"
     borderopacity="1"
     objecttolerance="10"
     gridtolerance="10"
     guidetolerance="10"
     inkscape:pageopacity="0"
     inkscape:pageshadow="2"
     inkscape:window-width="1194"
     inkscape:window-height="704"
     id="namedview4"
     showgrid="true"
     inkscape:snap-bbox="true"
     inkscape:bbox-paths="true"
     inkscape:bbox-nodes="true"
     inkscape:snap-bbox-edge-midpoints="true"
     inkscape:snap-bbox-midpoints="true"
     inkscape:object-paths="true"
     inkscape:snap-intersection-paths="true"
     inkscape:object-nodes="true"
     inkscape:snap-smooth-nodes="true"
     inkscape:zoom="13.882353"
     inkscape:cx="3.5456252"
     inkscape:cy="9.2394019"
     inkscape:window-x="31"
     inkscape:window-y="8"
     inkscape:window-maximized="0"
     inkscape:current-layer="svg4619"><inkscape:grid
       type="xygrid"
       id="grid3336"
       spacingx="0.5"
       spacingy="0.5"
       color="#ff0000"
       opacity="0.1254902"
       empspacing="2" /></sodipodi:namedview><path
     style="opacity:1;fill:#000000;fill-opacity:1;stroke:none;stroke-width:1;stroke-linecap:round;stroke-linejoin:miter;stroke-miterlimit:4;stroke-dasharray:none;stroke-dashoffset:0;stroke-opacity:1"
     d="M 4.5 1 C 3.5 1 3.5 2 3.5 2 L 1.5 9 C 1.5 9 1.5 11 3.5 11 L 12 11 C 14 11 14 9 14 9 L 12 2 C 12 2 12 1 11 1 L 4.5 1 z M 5 2.5 L 10.5 2.5 L 11.5 7 L 4 7 L 5 2.5 z M 4.4648438 8 A 1 1 0 0 1 5.4882812 8.8496094 L 5.4960938 8.9121094 A 1 1 0 0 1 4.6035156 9.9941406 A 1 1 0 0 1 3.5078125 9.1191406 A 1 1 0 0 1 4.3652344 8.0097656 A 1 1 0 0 1 4.4648438 8 z M 7 8 L 8.5 8 L 8.5 9 L 7 9 L 7 8 z M 10.964844 8 A 1 1 0 0 1 11.988281 8.8496094 L 11.996094 8.9121094 A 1 1 0 0 1 11.103516 9.9941406 A 1 1 0 0 1 10.007812 9.1191406 A 1 1 0 0 1 10.865234 8.0097656 A 1 1 0 0 1 10.964844 8 z M 3.5 12 L 3 14 L 2 14 L 2 15.5 L 2.5 15.5 L 2 17 L 3.5 17 L 4 15.5 L 11.5 15.5 L 12 17 L 13.5 17 L 13 15.5 L 14 15.5 L 14 14 L 12.5 14 L 12 12 L 10.5 12 L 11 14 L 4.5 14 L 5 12 L 3.5 12 z "
     id="rect3338" /></svg>
