<?xml version="1.0" encoding="UTF-8" standalone="no"?>
<!-- Generator: Adobe Illustrator 17.1.0, SVG Export Plug-In . SVG Version: 6.00 Build 0)  -->

<svg
   xmlns:dc="http://purl.org/dc/elements/1.1/"
   xmlns:cc="http://creativecommons.org/ns#"
   xmlns:rdf="http://www.w3.org/1999/02/22-rdf-syntax-ns#"
   xmlns:svg="http://www.w3.org/2000/svg"
   xmlns="http://www.w3.org/2000/svg"
   xmlns:sodipodi="http://sodipodi.sourceforge.net/DTD/sodipodi-0.dtd"
   xmlns:inkscape="http://www.inkscape.org/namespaces/inkscape"
   version="1.1"
   id="svg4619"
   x="0px"
   y="0px"
   viewBox="0 0 17 17"
   enable-background="new 0 0 17 17"
   xml:space="preserve"
   inkscape:version="0.91 r13725"
   sodipodi:docname="rail-light-17.svg"><metadata
     id="metadata8"><rdf:RDF><cc:Work
         rdf:about=""><dc:format>image/svg+xml</dc:format><dc:type
           rdf:resource="http://purl.org/dc/dcmitype/StillImage" /><dc:title /></cc:Work></rdf:RDF></metadata><defs
     id="defs6" /><sodipodi:namedview
     pagecolor="#ffffff"
     bordercolor="#666666"
     borderopacity="1"
     objecttolerance="10"
     gridtolerance="10"
     guidetolerance="10"
     inkscape:pageopacity="0"
     inkscape:pageshadow="2"
     inkscape:window-width="1003"
     inkscape:window-height="709"
     id="namedview4"
     showgrid="true"
     inkscape:snap-bbox="true"
     inkscape:bbox-paths="true"
     inkscape:bbox-nodes="true"
     inkscape:snap-bbox-edge-midpoints="true"
     inkscape:snap-bbox-midpoints="true"
     inkscape:snap-intersection-paths="true"
     inkscape:object-paths="true"
     inkscape:object-nodes="true"
     inkscape:snap-smooth-nodes="true"
     inkscape:zoom="27.764706"
     inkscape:cx="8.2375568"
     inkscape:cy="8.4300145"
     inkscape:window-x="53"
     inkscape:window-y="5"
     inkscape:window-maximized="0"
     inkscape:current-layer="svg4619"><inkscape:grid
       type="xygrid"
       id="grid3336"
       spacingx="0.5"
       spacingy="0.5"
       color="#ff0000"
       opacity="0.1254902"
       empspacing="2" /></sodipodi:namedview><path
     style="opacity:1;fill:#000000;fill-opacity:1;stroke:none;stroke-width:1;stroke-linecap:round;stroke-linejoin:miter;stroke-miterlimit:4;stroke-dasharray:none;stroke-dashoffset:0;stroke-opacity:1"
     d="m 3.5,0 0,1.5 0.5,0 0,-0.5 2.5,0 0,1.5 -3.5,1 -1,7 c -0.072088,1.053781 1,1 0.9713983,1 l 8.0137707,0 C 12,11.5 12,10.5 12,10.5 l -1,-7 -3.5,-1 0,-1.5 2.5,0 0,0.5 0.5,0 0,-1.5 z M 7,3.8199153 C 7,3.8199153 9.5,4 9.5,5 l 0,2 C 9.5,7 8.5,8 7,8 5.5,8 4.5,7 4.5,7 l 0,-2 C 4.5,4 7,3.8199153 7,3.8199153 Z M 3.5,9 l 2,0 0,1 -2,0 z m 5,0 2,0 0,1 -2,0 z M 3.5,12.5 3,14 2,14 2,15.5 2.5,15.5 2,17 3.5,17 4,15.5 l 5.5,0 0.5,1.5 1.5,0 -0.5,-1.5 1,0 L 12,14 10.5,14 10,12.5 8.5,12.5 9,14 4.5,14 5,12.5 Z"
     id="rect3338"
     inkscape:connector-curvature="0"
     sodipodi:nodetypes="ccccccccccccccccccccscscscccccccccccccccccccccccccccccccc" /></svg>
