<?xml version="1.0" encoding="UTF-8" standalone="no"?>
<svg
   xmlns:dc="http://purl.org/dc/elements/1.1/"
   xmlns:cc="http://creativecommons.org/ns#"
   xmlns:rdf="http://www.w3.org/1999/02/22-rdf-syntax-ns#"
   xmlns:svg="http://www.w3.org/2000/svg"
   xmlns="http://www.w3.org/2000/svg"
   xmlns:sodipodi="http://sodipodi.sourceforge.net/DTD/sodipodi-0.dtd"
   xmlns:inkscape="http://www.inkscape.org/namespaces/inkscape"
   width="12"
   height="12"
   viewBox="0 40 12 12"
   id="svg3253"
   version="1.1"
   inkscape:version="0.91+devel+osxmenu r12911"
   sodipodi:docname="moscow-metro-12.svg">
  <metadata
     id="metadata3263">
    <rdf:RDF>
      <cc:Work
         rdf:about="">
        <dc:format>image/svg+xml</dc:format>
        <dc:type
           rdf:resource="http://purl.org/dc/dcmitype/StillImage" />
        <dc:title></dc:title>
      </cc:Work>
    </rdf:RDF>
  </metadata>
  <defs
     id="defs3261" />
  <sodipodi:namedview
     pagecolor="#ffffff"
     bordercolor="#666666"
     borderopacity="1"
     objecttolerance="10"
     gridtolerance="10"
     guidetolerance="10"
     inkscape:pageopacity="0"
     inkscape:pageshadow="2"
     inkscape:window-width="1383"
     inkscape:window-height="938"
     id="namedview3259"
     showgrid="false"
     inkscape:zoom="22.627417"
     inkscape:cx="-5.3287039"
     inkscape:cy="0.67314285"
     inkscape:window-x="128"
     inkscape:window-y="23"
     inkscape:window-maximized="0"
     inkscape:current-layer="svg3253">
    <inkscape:grid
       type="xygrid"
       id="grid3265"
       empspacing="2"
       visible="true"
       enabled="true"
       snapvisiblegridlinesonly="true" />
  </sodipodi:namedview>
  <path
     style="fill:#3377a7;fill-opacity:1"
     d="M 6 2 C 3.238559 2 1 4.7141091 1 7.5019531 C 1 9.0136031 1.7148438 10 1.7148438 10 L 10.285156 10 C 10.285156 10 11 8.9224971 11 7.5019531 C 11.000043 4.7141321 8.761421 2 6 2 z M 6 3.0097656 C 8.0998527 3.0097656 9.990269 5.253074 9.9902344 7.5 C 9.9902344 8.329735 9.7166401 8.7104964 9.5664062 8.9902344 L 2.4199219 8.9902344 C 2.2797153 8.7552564 2.0097656 8.431284 2.0097656 7.5 C 2.0097656 5.253021 3.9001169 3.0097656 6 3.0097656 z "
     transform="translate(0,40)"
     id="path3025" />
  <path
     sodipodi:nodetypes="cccccccccccccccc"
     style="fill:#e97474;fill-opacity:1"
     inkscape:connector-curvature="0"
     id="path3029"
     d="M 9.5,48.5 7.5,44 7,44 6,46.071428 5,44 l -0.5,0 -2,4.5 c 0.6851572,0 1.0683322,0 1.5,0 l 0.5,-2 0.5,0 0.5,2 1,0 0.5,-2 0.5,0 0.5,2 c 0.5380057,0 0.8759528,0 1.5,0 z" />
  <path
     inkscape:connector-curvature="0"
     style="fill:#ffffff;fill-opacity:0;stroke:none"
     d="m 0,40 12,0 0,12 -12,0 z"
     id="rect3010" />
</svg>
