<?xml version="1.0" encoding="UTF-8" standalone="no"?>
<!-- Created with Inkscape (http://www.inkscape.org/) -->

<svg
   xmlns:dc="http://purl.org/dc/elements/1.1/"
   xmlns:cc="http://creativecommons.org/ns#"
   xmlns:rdf="http://www.w3.org/1999/02/22-rdf-syntax-ns#"
   xmlns:svg="http://www.w3.org/2000/svg"
   xmlns="http://www.w3.org/2000/svg"
   xmlns:sodipodi="http://sodipodi.sourceforge.net/DTD/sodipodi-0.dtd"
   xmlns:inkscape="http://www.inkscape.org/namespaces/inkscape"
   width="12"
   height="12"
   id="svg4764"
   version="1.1"
   inkscape:version="0.91+devel+osxmenu r12911"
   sodipodi:docname="subway-12.svg"
   viewBox="0 0 12 12">
  <defs
     id="defs4766" />
  <sodipodi:namedview
     id="base"
     pagecolor="#ffffff"
     bordercolor="#666666"
     borderopacity="1.0"
     inkscape:pageopacity="0.0"
     inkscape:pageshadow="2"
     inkscape:zoom="36.695652"
     inkscape:cx="8.4500991"
     inkscape:cy="9.0043296"
     inkscape:document-units="px"
     inkscape:current-layer="layer1"
     showgrid="false"
     showguides="false"
     inkscape:guide-bbox="true"
     inkscape:window-width="959"
     inkscape:window-height="1025"
     inkscape:window-x="960"
     inkscape:window-y="23"
     inkscape:window-maximized="0"
     inkscape:snap-bbox="true"
     inkscape:object-paths="false"
     inkscape:object-nodes="true"
     inkscape:bbox-nodes="true">
    <inkscape:grid
       type="xygrid"
       id="grid4772"
       empspacing="2"
       visible="true"
       enabled="true"
       snapvisiblegridlinesonly="true"
       color="#ff00ff"
       opacity="0.1254902"
       empcolor="#ff00ff"
       empopacity="0.25098039" />
    <sodipodi:guide
       orientation="0,1"
       position="2,12"
       id="guide4789" />
    <sodipodi:guide
       orientation="1,0"
       position="12,10"
       id="guide4791" />
    <sodipodi:guide
       orientation="0,1"
       position="10,0"
       id="guide4793" />
    <sodipodi:guide
       orientation="1,0"
       position="0,9"
       id="guide4795" />
    <sodipodi:guide
       orientation="0,1"
       position="5,11"
       id="guide4797" />
    <sodipodi:guide
       orientation="1,0"
       position="11,7"
       id="guide4799" />
    <sodipodi:guide
       orientation="0,1"
       position="9,2"
       id="guide4801" />
    <sodipodi:guide
       orientation="1,0"
       position="2,5"
       id="guide4803" />
  </sodipodi:namedview>
  <metadata
     id="metadata4769">
    <rdf:RDF>
      <cc:Work
         rdf:about="">
        <dc:format>image/svg+xml</dc:format>
        <dc:type
           rdf:resource="http://purl.org/dc/dcmitype/StillImage" />
        <dc:title />
      </cc:Work>
    </rdf:RDF>
  </metadata>
  <g
     inkscape:label="Layer 1"
     inkscape:groupmode="layer"
     id="layer1"
     transform="translate(0,-1040.3622)">
    <path
       style="fill:#3a3836;fill-opacity:1;stroke:none"
       d="M 6 1 C 4 1 3 3 3 4.5 L 3 7.75 L 3.25 8 L 9.75 8 L 10 7.75 L 10 4.5 C 10 3 9 1 7 1 L 6 1 z M 5.75 2 L 6 2.25 L 6 4.75 L 5.75 5 L 4.25 5 L 4 4.75 C 4 3.75 4.25 2 5.75 2 z M 7.25 2 C 8.75 2 9 3.75 9 4.75 L 8.75 5 L 7.25 5 L 7 4.75 L 7 2.25 L 7.25 2 z M 4.625 5.75 A 0.625 0.625 0 0 1 5.25 6.375 A 0.625 0.625 0 0 1 4.625 7 A 0.625 0.625 0 0 1 4 6.375 A 0.625 0.625 0 0 1 4.625 5.75 z M 8.375 5.75 A 0.625 0.625 0 0 1 9 6.375 A 0.625 0.625 0 0 1 8.375 7 A 0.625 0.625 0 0 1 7.75 6.375 A 0.625 0.625 0 0 1 8.375 5.75 z M 4.5 8.5 L 3 9.25 L 3 10 L 4.75 10 L 5.5 9.25 L 5.5 8.5 L 4.5 8.5 z M 7.5 8.5 L 7.5 9.25 L 8.25 10 L 10 10 L 10 9.25 L 8.5 8.5 L 7.5 8.5 z "
       transform="translate(0,1040.3622)"
       id="path3248" />
  </g>
</svg>
