<?xml version="1.0" encoding="UTF-8" standalone="no"?>
<!-- Created with Inkscape (http://www.inkscape.org/) -->

<svg
   xmlns:dc="http://purl.org/dc/elements/1.1/"
   xmlns:cc="http://creativecommons.org/ns#"
   xmlns:rdf="http://www.w3.org/1999/02/22-rdf-syntax-ns#"
   xmlns:svg="http://www.w3.org/2000/svg"
   xmlns="http://www.w3.org/2000/svg"
   xmlns:sodipodi="http://sodipodi.sourceforge.net/DTD/sodipodi-0.dtd"
   xmlns:inkscape="http://www.inkscape.org/namespaces/inkscape"
   width="12"
   height="12"
   id="svg2484"
   sodipodi:version="0.32"
   inkscape:version="0.91+devel+osxmenu r12911"
   version="1.0"
   sodipodi:docname="transilien-12.svg"
   inkscape:output_extension="org.inkscape.output.svg.inkscape"
   viewBox="0 0 12 12">
  <defs
     id="defs2486" />
  <sodipodi:namedview
     id="base"
     pagecolor="#ffffff"
     bordercolor="#666666"
     borderopacity="1.0"
     inkscape:pageopacity="0.0"
     inkscape:pageshadow="2"
     inkscape:zoom="45.254834"
     inkscape:cx="4.4269255"
     inkscape:cy="6.6074919"
     inkscape:document-units="px"
     inkscape:current-layer="layer1"
     showgrid="false"
     inkscape:window-width="1218"
     inkscape:window-height="995"
     inkscape:window-x="374"
     inkscape:window-y="27"
     inkscape:window-maximized="0"
     width="12px"
     showguides="true"
     inkscape:guide-bbox="true">
    <inkscape:grid
       type="xygrid"
       id="grid2991"
       empspacing="2"
       visible="true"
       enabled="true"
       snapvisiblegridlinesonly="true" />
  </sodipodi:namedview>
  <metadata
     id="metadata2489">
    <rdf:RDF>
      <cc:Work
         rdf:about="">
        <dc:format>image/svg+xml</dc:format>
        <dc:type
           rdf:resource="http://purl.org/dc/dcmitype/StillImage" />
        <dc:title />
      </cc:Work>
    </rdf:RDF>
  </metadata>
  <g
     inkscape:label="Calque 1"
     inkscape:groupmode="layer"
     id="layer1"
     transform="translate(1125.7177,-1006.5985)">
    <g
       id="g3812">
      <path
         style="fill:#0079ac;fill-opacity:1;stroke:none"
         d="M 3 1 C 1.892 1 1 1.892 1 3 L 1 9 C 1 10.108 1.892 11 3 11 L 9 11 C 10.108 11 11 10.108 11 9 L 11 3 C 11 1.892 10.108 1 9 1 L 3 1 z M 3 1.9980469 L 9 1.9980469 C 9.5721 1.9980469 10.001953 2.4279 10.001953 3 L 10.001953 9 C 10.001953 9.5719 9.5721 10.001953 9 10.001953 L 3 10.001953 C 2.4283 10.001953 1.9980469 9.5717 1.9980469 9 L 1.9980469 3 C 1.9980469 2.4279 2.428 1.9980469 3 1.9980469 z M 4.75 3 C 4.3345 3 4 3.3345 4 3.75 L 4 7.25 C 4 7.6655 4.3345 8 4.75 8 L 5 8 L 3.5 9.5 L 4.5 9.5 L 5.5 8.5 L 6.5 8.5 L 7.5 9.5 L 8.5 9.5 L 7 8 L 7.25 8 C 7.6655 8 8 7.6655 8 7.25 L 8 3.75 C 8 3.3345 7.6655 3 7.25 3 L 4.75 3 z M 4.75 4 L 7.25 4 C 7.3885 4 7.5 4.1115 7.5 4.25 L 7.5 4.75 C 7.5 4.8885 7.3885 5 7.25 5 L 4.75 5 C 4.6115 5 4.5 4.8885 4.5 4.75 L 4.5 4.25 C 4.5 4.1115 4.6115 4 4.75 4 z M 4.5 6 L 5 6 L 5 6.5 L 4.5 6.5 L 4.5 6 z M 7 6 L 7.5 6 L 7.5 6.5 L 7 6.5 L 7 6 z "
         transform="translate(-1125.7177,1006.5985)"
         id="rect4162" />
    </g>
  </g>
</svg>
