<?xml version="1.0" encoding="UTF-8" standalone="no"?>
<svg
   xmlns:dc="http://purl.org/dc/elements/1.1/"
   xmlns:cc="http://creativecommons.org/ns#"
   xmlns:rdf="http://www.w3.org/1999/02/22-rdf-syntax-ns#"
   xmlns:svg="http://www.w3.org/2000/svg"
   xmlns="http://www.w3.org/2000/svg"
   xmlns:sodipodi="http://sodipodi.sourceforge.net/DTD/sodipodi-0.dtd"
   xmlns:inkscape="http://www.inkscape.org/namespaces/inkscape"
   width="18"
   height="18"
   id="svg2"
   version="1.1"
   inkscape:version="0.91+devel+osxmenu r12911"
   sodipodi:docname="u-bahn-18.svg"
   viewBox="0 0 18 18">
  <metadata
     id="metadata12">
    <rdf:RDF>
      <cc:Work
         rdf:about="">
        <dc:format>image/svg+xml</dc:format>
        <dc:type
           rdf:resource="http://purl.org/dc/dcmitype/StillImage" />
        <dc:title />
      </cc:Work>
    </rdf:RDF>
  </metadata>
  <defs
     id="defs10" />
  <sodipodi:namedview
     pagecolor="#ffffff"
     bordercolor="#666666"
     borderopacity="1"
     objecttolerance="10"
     gridtolerance="10"
     guidetolerance="10"
     inkscape:pageopacity="0"
     inkscape:pageshadow="2"
     inkscape:window-width="1507"
     inkscape:window-height="1031"
     id="namedview8"
     showgrid="true"
     inkscape:zoom="21.169348"
     inkscape:cx="-2.310107"
     inkscape:cy="8.9999999"
     inkscape:window-x="75"
     inkscape:window-y="23"
     inkscape:window-maximized="0"
     inkscape:current-layer="layer2"
     inkscape:snap-grids="true"
     inkscape:snap-nodes="true"
     inkscape:snap-bbox="true"
     showguides="false"
     inkscape:guide-bbox="true"
     inkscape:snap-to-guides="true"
     inkscape:document-units="px">
    <inkscape:grid
       type="xygrid"
       id="grid2990"
       empspacing="2"
       visible="true"
       enabled="true"
       snapvisiblegridlinesonly="true" />
    <sodipodi:guide
       orientation="1,0"
       position="9,7.5"
       id="guide3113" />
  </sodipodi:namedview>
  <g
     inkscape:groupmode="layer"
     id="layer1"
     inkscape:label="Original"
     style="display:none"
     sodipodi:insensitive="true">
    <g
       id="g2989"
       transform="matrix(0.028,0,0,0.028,2,15.664)">
      <rect
         style="fill:#003399"
         y="-488"
         x="0"
         id="rect4"
         height="500"
         width="500"
         y1="0"
         x1="0" />
      <path
         style="fill:#ffffff"
         inkscape:connector-curvature="0"
         id="path6"
         d="m 269.02771,-25.96444 c 32.46324,-3.16863 62.79169,-13.49668 86.87553,-29.58458 12.10292,-8.08471 29.1727,-24.82511 36.5937,-35.8876 10.84524,-16.167 18.72123,-35.59139 22.93471,-56.56338 1.63209,-8.12347 1.83149,-22.39624 2.16542,-155 l 0.36779,-146.05263 -100.07012,0 0,133.72569 c 0,87.90894 -0.38553,137.18318 -1.12526,143.81707 -1.3252,11.88447 -5.23401,26.08963 -9.20286,33.44449 -4.98018,9.229 -14.1686,18.01085 -23.75531,22.7042 -26.37508,12.9124 -64.96875,8.26323 -83.26211,-10.03013 -9.31657,-9.31656 -15.71698,-24.31854 -18.40303,-43.13501 -0.65653,-4.59916 -1.05968,-58.69853 -1.07269,-143.94736 l -0.0208,-136.57895 -98.947367,0 0,138.30952 c 0,138.76237 0.266004,150.47615 3.815189,168.00627 8.765571,43.29486 35.775788,77.75351 77.126788,98.39553 30.30845,15.1297 69.5448,21.93323 105.98047,18.37687 z" />
    </g>
  </g>
  <g
     inkscape:groupmode="layer"
     id="layer2"
     inkscape:label="Layer"
     style="display:inline;opacity:1">
    <g
       style="display:inline;fill:#000000"
       id="g2989-6-9"
       transform="matrix(0.03570764,0,0,0.03352548,18.903059,16.83942)" />
    <g
       id="g3008">
      <path
         style="fill:#3377a7;fill-opacity:1"
         d="M 2 2 L 2 16 L 16 16 L 16 2 L 2 2 z M 4 3 L 6.9902344 3 C 6.9902344 3 6.9828944 7.8253706 6.9902344 10.5 C 6.9837403 11.639076 7.9902344 12.5 8.9902344 12.5 C 9.9902344 12.5 10.9935 11.639076 11 10.5 L 11 3 L 14 3.015625 C 14 3.015625 13.984389 7.6538188 13.990234 10.5 C 13.990234 13 11.490234 15 8.9902344 15 C 6.4902344 15 3.9902344 13 3.9902344 10.5 C 3.9903224 10.058897 4 3 4 3 z "
         id="rect3272" />
    </g>
  </g>
</svg>
