<?xml version="1.0" encoding="UTF-8" standalone="no"?>
<!-- Created with Inkscape (http://www.inkscape.org/) -->

<svg
   xmlns:dc="http://purl.org/dc/elements/1.1/"
   xmlns:cc="http://creativecommons.org/ns#"
   xmlns:rdf="http://www.w3.org/1999/02/22-rdf-syntax-ns#"
   xmlns:svg="http://www.w3.org/2000/svg"
   xmlns="http://www.w3.org/2000/svg"
   xmlns:sodipodi="http://sodipodi.sourceforge.net/DTD/sodipodi-0.dtd"
   xmlns:inkscape="http://www.inkscape.org/namespaces/inkscape"
   version="1.1"
   width="15"
   height="15"
   id="svg4619"
   inkscape:version="0.91+devel+osxmenu r12911"
   sodipodi:docname="library-15.svg"
   viewBox="0 0 13.235294 13.235294">
  <sodipodi:namedview
     pagecolor="#ffffff"
     bordercolor="#666666"
     borderopacity="1"
     objecttolerance="10"
     gridtolerance="10"
     guidetolerance="10"
     inkscape:pageopacity="0"
     inkscape:pageshadow="2"
     inkscape:window-width="884"
     inkscape:window-height="647"
     id="namedview3441"
     inkscape:document-units="px"
     showgrid="true"
     inkscape:zoom="22.627417"
     inkscape:cx="1.276155"
     inkscape:cy="12.26932"
     inkscape:current-layer="svg4619"
     inkscape:snap-bbox="true"
     inkscape:bbox-paths="true"
     inkscape:bbox-nodes="true"
     inkscape:object-paths="true"
     inkscape:snap-intersection-paths="true"
     inkscape:object-nodes="true"
     inkscape:snap-smooth-nodes="true"
     inkscape:window-x="0"
     inkscape:window-y="0"
     inkscape:window-maximized="0"
     showguides="false"
     inkscape:guide-bbox="true">
    <inkscape:grid
       type="xygrid"
       id="grid3333"
       spacingx="0.44117647"
       spacingy="0.44117647"
       color="#ff0000"
       opacity="0.1254902"
       empspacing="2" />
  </sodipodi:namedview>
  <defs
     id="defs4621" />
  <metadata
     id="metadata4624">
    <rdf:RDF>
      <cc:Work
         rdf:about="">
        <dc:format>image/svg+xml</dc:format>
        <dc:type
           rdf:resource="http://purl.org/dc/dcmitype/StillImage" />
        <dc:title />
      </cc:Work>
    </rdf:RDF>
  </metadata>
  <path
     style="opacity:1;fill:#000000;fill-opacity:1;stroke:none;stroke-width:1.76470578;stroke-linecap:round;stroke-linejoin:round;stroke-miterlimit:4;stroke-dasharray:none;stroke-dashoffset:0;stroke-opacity:1;marker:none"
     d="M 0.40326286,2.4540441 C 2.3786477e-4,2.4592782 0,2.9193473 0,2.9193474 l 0,6.617647 c 0,0 -0.01722239,0.6020406 0.6014476,0.7703356 l 4.69267,1.251148 0,0.239546 c 0,0.307301 0.2476166,0.554917 0.5549172,0.554917 l 1.5372243,0 c 0.3073006,0 0.5549173,-0.247616 0.5549173,-0.554917 l 0,-0.239546 4.6926696,-1.251148 c 0.618671,-0.168295 0.601448,-0.7703356 0.601448,-0.7703356 l 0,-6.617647 c 0,-10e-8 1.53e-4,-0.6000791 -0.601448,-0.4360065 L 6.617647,4.1239659 0.6014476,2.4833409 c -0.0752,-0.020509 -0.14060974,-0.030044 -0.19818474,-0.029297 z m 0.47909007,1.0684742 5.29411757,1.3941866 0,5.7421871 -5.29411757,-1.3941862 0,-5.7421875 z m 11.47058807,0 0,5.7421875 -5.2941176,1.3941862 0,-5.7421871 5.2941176,-1.3941866 z m -10.1470587,1.5062041 0,0.4411765 2.2058823,0.5893841 0,-0.4411765 -2.2058823,-0.5893841 z m 8.8235297,0 -2.6470592,0.7065716 0,0.4411765 2.6470592,-0.7065716 0,-0.4411765 z m -8.8235297,0.8823529 0,0.4411765 2.6470588,0.7065716 0,-0.4411764 -2.6470588,-0.7065717 z m 8.8235297,0 -2.6470592,0.7065717 0,0.4411764 2.6470592,-0.7065716 0,-0.4411765 z m -8.8235297,0.882353 0,0.4411764 1.3235294,0.3532859 0,-0.4411765 -1.3235294,-0.3532858 z m 7.9411767,0.2360983 -1.7647062,0.4704733 0,0.4411765 1.7647062,-0.4704733 0,-0.4411765 z m -7.9411767,0.6462546 0,0.4411765 2.6470588,0.7065716 0,-0.4411765 -2.6470588,-0.7065716 z m 8.8235297,0 -2.6470592,0.7065716 0,0.4411765 2.6470592,-0.7065716 0,-0.4411765 z"
     id="rect5810"
     inkscape:connector-curvature="0" />
</svg>
