<?xml version="1.0" encoding="UTF-8" standalone="no"?>
<!-- Generator: Adobe Illustrator 17.1.0, SVG Export Plug-In . SVG Version: 6.00 Build 0)  -->

<svg
   xmlns:dc="http://purl.org/dc/elements/1.1/"
   xmlns:cc="http://creativecommons.org/ns#"
   xmlns:rdf="http://www.w3.org/1999/02/22-rdf-syntax-ns#"
   xmlns:svg="http://www.w3.org/2000/svg"
   xmlns="http://www.w3.org/2000/svg"
   xmlns:sodipodi="http://sodipodi.sourceforge.net/DTD/sodipodi-0.dtd"
   xmlns:inkscape="http://www.inkscape.org/namespaces/inkscape"
   version="1.1"
   id="svg4764"
   x="0px"
   y="0px"
   viewBox="0 0 11 11"
   enable-background="new 0 0 11 11"
   xml:space="preserve"
   inkscape:version="0.91 r13725"
   sodipodi:docname="suitcase-11.svg"><metadata
     id="metadata10"><rdf:RDF><cc:Work
         rdf:about=""><dc:format>image/svg+xml</dc:format><dc:type
           rdf:resource="http://purl.org/dc/dcmitype/StillImage" /><dc:title></dc:title></cc:Work></rdf:RDF></metadata><defs
     id="defs8" /><sodipodi:namedview
     pagecolor="#ffffff"
     bordercolor="#666666"
     borderopacity="1"
     objecttolerance="10"
     gridtolerance="10"
     guidetolerance="10"
     inkscape:pageopacity="0"
     inkscape:pageshadow="2"
     inkscape:window-width="873"
     inkscape:window-height="709"
     id="namedview6"
     showgrid="false"
     inkscape:snap-bbox="true"
     inkscape:bbox-paths="true"
     inkscape:bbox-nodes="true"
     inkscape:snap-bbox-midpoints="true"
     inkscape:object-paths="true"
     inkscape:snap-intersection-paths="true"
     inkscape:object-nodes="true"
     inkscape:snap-smooth-nodes="true"
     inkscape:snap-bbox-edge-midpoints="true"
     inkscape:zoom="1"
     inkscape:cx="1.7868107"
     inkscape:cy="7.1351511"
     inkscape:window-x="0"
     inkscape:window-y="0"
     inkscape:window-maximized="0"
     inkscape:current-layer="svg4764"><inkscape:grid
       type="xygrid"
       id="grid3338"
       spacingx="0.5"
       spacingy="0.5"
       color="#ff0000"
       opacity="0.1254902"
       empspacing="2" /></sodipodi:namedview><path
     style="fill:#000000;fill-opacity:1"
     id="path17"
     inkscape:connector-curvature="0"
     d="m 8.5,3 0,-1.6697248 -0.6399083,-0.57798162 -4.7201834,0 L 2.5,1.3302752 2.5,3 1,3 0.42201835,3.6422018 l 0,5.7798165 L 1,10 l 9,0 0.577982,-0.5779817 0,-5.7798165 L 10,3 Z M 4,2 7,2 7,3 4,3 Z M 2.5,4 4,4 4,9 2.5,9 M 7,9 7,4 l 1.5,0 0,5 z"
     sodipodi:nodetypes="ccccccccccccccccccccccccccccc" /><path
     style="fill:#000000;fill-opacity:1"
     id="path19"
     inkscape:connector-curvature="0"
     display="none"
     fill="#454545"
     d="M0,0v-2h-4v2h-3v6H3V0H0z M-3-1h2v1h-2V-1z   M-5,1h1v4h-1 M1,5H0V1h1V5z" /><path
     style="fill:#000000;fill-opacity:1"
     id="path21"
     inkscape:connector-curvature="0"
     display="none"
     fill="#454545"
     d="M0,0h-2v-1c0-0.6-0.4-1-1-1h-2  c-0.6,0-1,0.4-1,1v1h-2c-0.6,0-1,0.4-1,1v4c0,0.6,0.4,1,1,1h8c0.6,0,1-0.4,1-1V1C1,0.4,0.6,0,0,0z M-6,5h-1V1h1V5z M-3,0h-2v-1h2V0z   M-1,5h-1V1h1V5z" /></svg>
