<?xml version="1.0" encoding="UTF-8" standalone="no"?>
<!-- Created with Inkscape (http://www.inkscape.org/) -->

<svg
   xmlns:dc="http://purl.org/dc/elements/1.1/"
   xmlns:cc="http://creativecommons.org/ns#"
   xmlns:rdf="http://www.w3.org/1999/02/22-rdf-syntax-ns#"
   xmlns:svg="http://www.w3.org/2000/svg"
   xmlns="http://www.w3.org/2000/svg"
   xmlns:sodipodi="http://sodipodi.sourceforge.net/DTD/sodipodi-0.dtd"
   xmlns:inkscape="http://www.inkscape.org/namespaces/inkscape"
   width="21"
   height="31"
   id="svg3844"
   version="1.1"
   inkscape:version="0.91+devel+osxmenu r12911"
   sodipodi:docname="us-highway-alternate-2-small.svg"
   viewBox="0 0 21 31">
  <defs
     id="defs3846" />
  <sodipodi:namedview
     id="base"
     pagecolor="#ffffff"
     bordercolor="#666666"
     borderopacity="1.0"
     inkscape:pageopacity="0.0"
     inkscape:pageshadow="2"
     inkscape:zoom="16"
     inkscape:cx="0.18866119"
     inkscape:cy="15.359208"
     inkscape:document-units="px"
     inkscape:current-layer="layer1"
     showgrid="true"
     inkscape:snap-bbox="true"
     fit-margin-top="0"
     fit-margin-left="0"
     fit-margin-right="0"
     fit-margin-bottom="0"
     inkscape:window-width="1280"
     inkscape:window-height="751"
     inkscape:window-x="17"
     inkscape:window-y="0"
     inkscape:window-maximized="0"
     inkscape:object-nodes="true"
     inkscape:bbox-paths="false"
     inkscape:bbox-nodes="true"
     inkscape:snap-global="true"
     inkscape:snap-smooth-nodes="false">
    <inkscape:grid
       type="xygrid"
       id="grid3875"
       empspacing="2"
       visible="true"
       enabled="true"
       snapvisiblegridlinesonly="true"
       originx="-300"
       originy="-127"
       spacingy="0.5px"
       spacingx="0.5px" />
  </sodipodi:namedview>
  <metadata
     id="metadata3849">
    <rdf:RDF>
      <cc:Work
         rdf:about="">
        <dc:format>image/svg+xml</dc:format>
        <dc:type
           rdf:resource="http://purl.org/dc/dcmitype/StillImage" />
        <dc:title></dc:title>
      </cc:Work>
    </rdf:RDF>
  </metadata>
  <g
     inkscape:label="Layer 1"
     inkscape:groupmode="layer"
     id="layer1"
     transform="translate(-300.00001,-894.36218)">
    <rect
       style="color:#3a3836;display:inline;overflow:visible;visibility:visible;opacity:0;fill:#3a3836;fill-opacity:1;fill-rule:nonzero;stroke:none;stroke-width:1;marker:none;enable-background:accumulate"
       id="rect3803"
       width="17"
       height="31"
       x="301"
       y="894.36218" />
    <path
       style="color:#3a3836;display:inline;overflow:visible;visibility:visible;opacity:1;fill:#ffffff;fill-opacity:1;fill-rule:evenodd;stroke:#3a3836;stroke-width:1;stroke-linecap:round;stroke-linejoin:round;marker:none;enable-background:accumulate"
       clip-path="none"
       d="m 304.94443,902.36218 -4.44446,2.5 c 0.55556,0.5 2.22223,1.5 1.11112,3.5 -1.11112,2 -1.66667,5 0.55556,7 2.77778,2.5 7.22224,0.5 8.33335,2.5 1.11112,-2 5.55558,0 8.33336,-2.5 2.22223,-2 1.66667,-5 0.55556,-7 -1.11112,-2 0.55556,-3 1.11111,-3.5 l -4.44445,-2.5 c 0,0 -1.11112,1.5 -2.77779,1.5 -1.66667,0 -2.77779,-1.5 -2.77779,-1.5 0,0 -1.11111,1.5 -2.77778,1.5 -1.66667,0 -2.77779,-1.5 -2.77779,-1.5 z"
       id="path3799-7"
       inkscape:connector-curvature="0"
       sodipodi:nodetypes="ccsscssccscsc" />
    <rect
       style="color:#3a3836;clip-rule:nonzero;display:inline;overflow:visible;visibility:visible;opacity:1;isolation:auto;mix-blend-mode:normal;color-interpolation:sRGB;color-interpolation-filters:linearRGB;solid-color:#3a3836;solid-opacity:1;fill:#ffffff;fill-opacity:1;fill-rule:evenodd;stroke:none;stroke-width:1;stroke-linecap:round;stroke-linejoin:round;stroke-miterlimit:4;stroke-dasharray:none;stroke-dashoffset:0;stroke-opacity:1;marker:none;color-rendering:auto;image-rendering:auto;shape-rendering:auto;text-rendering:auto;enable-background:accumulate"
       id="rect4807"
       width="17"
       height="7.000071"
       x="302"
       y="894.36218"
       rx="1"
       ry="0.99999738" />
    <g
       transform="matrix(1.016077,0,0,0.98417739,1,-2.2171876e-6)"
       style="font-style:normal;font-variant:normal;font-weight:600;font-stretch:normal;font-size:7.5px;line-height:125%;font-family:'Open Sans';-inkscape-font-specification:'Open Sans Semi-Bold';letter-spacing:0px;word-spacing:0px;fill:#3a3836;fill-opacity:1;stroke:none;stroke-width:1px;stroke-linecap:butt;stroke-linejoin:miter;stroke-opacity:1"
       id="text4827">
      <path
         d="m 302.47453,914.79707 -0.50128,-1.39394 -1.91924,0 -0.49097,1.39394 -0.86521,0 1.87805,-5.04016 0.89267,0 1.87805,5.04016 -0.87207,0 z m -0.71757,-2.10121 -0.47037,-1.36648 q -0.0515,-0.13733 -0.1442,-0.43259 -0.0893,-0.29528 -0.12361,-0.43261 -0.0928,0.4223 -0.27123,0.92357 l -0.45321,1.30811 1.46262,0 z"
         style="font-style:normal;font-variant:normal;font-weight:600;font-stretch:normal;font-size:7.5px;font-family:'Open Sans';-inkscape-font-specification:'Open Sans Semi-Bold';letter-spacing:-0.2px;fill:#3a3836;fill-opacity:1"
         id="path4146"
         inkscape:connector-curvature="0" />
      <path
         d="m 303.82859,914.79707 0,-5.01956 0.82057,0 0,4.31572 2.12525,0 0,0.70384 -2.94582,0 z"
         style="font-style:normal;font-variant:normal;font-weight:600;font-stretch:normal;font-size:7.5px;font-family:'Open Sans';-inkscape-font-specification:'Open Sans Semi-Bold';letter-spacing:-0.2px;fill:#3a3836;fill-opacity:1"
         id="path4148"
         inkscape:connector-curvature="0" />
      <path
         d="m 308.76893,914.79707 -0.82059,0 0,-4.31573 -1.47633,0 0,-0.70383 3.77325,0 0,0.70383 -1.47633,0 0,4.31573 z"
         style="font-style:normal;font-variant:normal;font-weight:600;font-stretch:normal;font-size:7.5px;font-family:'Open Sans';-inkscape-font-specification:'Open Sans Semi-Bold';letter-spacing:-0.2px;fill:#3a3836;fill-opacity:1"
         id="path4150"
         inkscape:connector-curvature="0" />
      <path
         d="m 310.01587,914.32926 q 0,-0.25064 0.13047,-0.38455 0.13046,-0.13389 0.37767,-0.13389 0.25063,0 0.38111,0.14077 0.13046,0.13732 0.13046,0.37767 0,0.24377 -0.1339,0.38797 -0.13047,0.14077 -0.37767,0.14077 -0.24721,0 -0.37767,-0.14077 -0.13047,-0.14077 -0.13047,-0.38797 z"
         style="font-style:normal;font-variant:normal;font-weight:600;font-stretch:normal;font-size:7.5px;font-family:'Open Sans';-inkscape-font-specification:'Open Sans Semi-Bold';letter-spacing:-0.2px;fill:#3a3836;fill-opacity:1"
         id="path4152"
         inkscape:connector-curvature="0" />
    </g>
  </g>
</svg>
