<?xml version="1.0" encoding="utf-8"?>
<svg version="1.1"
	 id="svg3844" xmlns:dc="http://purl.org/dc/elements/1.1/" xmlns:cc="http://creativecommons.org/ns#" xmlns:rdf="http://www.w3.org/1999/02/22-rdf-syntax-ns#" xmlns:svg="http://www.w3.org/2000/svg" xmlns:sodipodi="http://sodipodi.sourceforge.net/DTD/sodipodi-0.dtd" xmlns:inkscape="http://www.inkscape.org/namespaces/inkscape" sodipodi:docname="us-interstate-2-small.svg" inkscape:version="0.91+devel+osxmenu r12911"
	 xmlns="http://www.w3.org/2000/svg" xmlns:xlink="http://www.w3.org/1999/xlink" x="0px" y="0px" width="23px" height="23px"
	 viewBox="-1 -1 23 23" enable-background="new -1 -1 23 23" xml:space="preserve">
<path fill="#E97474" d="M19.765,0.646c0,0-2.471,2-4.632,2c-2.162,0-4.632-2-4.632-2s-2.471,2-4.632,2c-2.162,0-4.632-2-4.632-2
	c-0.458,1.22-1.235,2-1.235,4h21C21,2.646,19.765,0.646,19.765,0.646z"/>
<path fill="#5396C7" d="M10.5,19.646c0,0,10.5-4,10.5-12v-2H0v2C0,15.646,10.5,19.646,10.5,19.646z"/>
<path fill="#FFFFFF" d="M20.616,0.12l-0.597-0.967l-0.883,0.715c-0.615,0.495-2.53,1.777-4.003,1.777
	c-1.474,0-3.39-1.283-4.004-1.778l-0.629-0.507L9.871-0.132C9.258,0.362,7.341,1.646,5.868,1.646c-1.474,0-3.39-1.283-4.004-1.778
	L0.786-1L0.299,0.294c-0.11,0.293-0.248,0.569-0.394,0.862C-0.519,2.006-1,2.969-1,4.646v1v2c0,1.619,0.38,3.081,1,4.389
	c1.823,3.848,5.716,6.36,8.119,7.611c1.113,0.579,1.908,0.89,2.025,0.935l0.356,0.136l0.356-0.136
	c0.117-0.045,0.912-0.355,2.025-0.935c2.403-1.251,6.296-3.762,8.119-7.611c0.62-1.308,1-2.77,1-4.389v-2v-1
	C22,2.388,20.672,0.212,20.616,0.12z M21,7.646c0,8-10.5,12-10.5,12s-10.5-4-10.5-12v-2h21V7.646z M0,4.646c0-2,0.777-2.78,1.235-4
	c0,0,2.471,2,4.632,2c2.162,0,4.632-2,4.632-2s2.471,2,4.632,2c2.162,0,4.632-2,4.632-2s1.235,2,1.235,4H0z"/>
</svg>
